<svg width="648" height="535" viewBox="0 0 648 535" fill="none" xmlns="http://www.w3.org/2000/svg">
<g clip-path="url(#clip0_1719_17505)">
<rect width="648" height="535" fill="#FFFAFA"/>
<g opacity="0.5">
<mask id="mask0_1719_17505" style="mask-type:alpha" maskUnits="userSpaceOnUse" x="-530" y="-226" width="1709" height="987">
<rect width="986.692" height="986.692" transform="matrix(0.866025 0.5 -0.866025 0.5 324.5 -226)" fill="url(#paint0_radial_1719_17505)"/>
</mask>
<g mask="url(#mask0_1719_17505)">
<path d="M304.757 -213.664L-508.937 256.122" stroke="#B3B3B3"/>
<path d="M340.361 -193.11L-473.332 276.676" stroke="#B3B3B3"/>
<path d="M375.965 -172.552L-437.729 297.234" stroke="#B3B3B3"/>
<path d="M411.569 -151.996L-402.124 317.79" stroke="#B3B3B3"/>
<path d="M447.172 -131.441L-366.522 338.345" stroke="#B3B3B3"/>
<path d="M482.779 -110.884L-330.914 358.902" stroke="#B3B3B3"/>
<path d="M518.381 -90.3273L-295.313 379.459" stroke="#B3B3B3"/>
<path d="M553.984 -69.7732L-259.709 400.013" stroke="#B3B3B3"/>
<path d="M589.594 -49.2155L-224.1 420.571" stroke="#B3B3B3"/>
<path d="M625.194 -28.6597L-188.499 441.126" stroke="#B3B3B3"/>
<path d="M660.798 -8.10426L-152.896 461.682" stroke="#B3B3B3"/>
<path d="M696.401 12.4524L-117.292 482.239" stroke="#B3B3B3"/>
<path d="M732.008 33.009L-81.6856 502.795" stroke="#B3B3B3"/>
<path d="M767.612 53.5634L-46.0811 523.35" stroke="#B3B3B3"/>
<path d="M803.218 74.1211L-10.4756 543.907" stroke="#B3B3B3"/>
<path d="M838.819 94.6765L25.1259 564.463" stroke="#B3B3B3"/>
<path d="M874.426 115.232L60.7324 585.018" stroke="#B3B3B3"/>
<path d="M910.027 135.788L96.3339 605.574" stroke="#B3B3B3"/>
<path d="M945.634 156.345L131.94 626.131" stroke="#B3B3B3"/>
<path d="M981.234 176.9L167.541 646.686" stroke="#B3B3B3"/>
<path d="M1016.84 197.457L203.147 667.244" stroke="#B3B3B3"/>
<path d="M1052.45 218.013L238.752 687.799" stroke="#B3B3B3"/>
<path d="M1088.05 238.569L274.357 708.355" stroke="#B3B3B3"/>
<path d="M1123.65 259.125L309.959 728.912" stroke="#B3B3B3"/>
<path d="M1159.26 279.681L345.564 749.467" stroke="#B3B3B3"/>
<path d="M304.757 -213.664L1159.26 279.681" stroke="#B3B3B3"/>
<path d="M270.852 -194.09L1125.35 299.256" stroke="#B3B3B3"/>
<path d="M236.949 -174.515L1091.45 318.83" stroke="#B3B3B3"/>
<path d="M203.044 -154.941L1057.54 338.404" stroke="#B3B3B3"/>
<path d="M169.141 -135.367L1023.64 357.979" stroke="#B3B3B3"/>
<path d="M135.236 -115.793L989.736 377.553" stroke="#B3B3B3"/>
<path d="M101.334 -96.2173L955.834 397.128" stroke="#B3B3B3"/>
<path d="M67.4297 -76.6429L921.93 416.703" stroke="#B3B3B3"/>
<path d="M33.5254 -57.0693L888.025 436.276" stroke="#B3B3B3"/>
<path d="M-0.376953 -37.4951L854.123 455.851" stroke="#B3B3B3"/>
<path d="M-34.2812 -17.919L820.219 475.427" stroke="#B3B3B3"/>
<path d="M-68.1865 1.65365L786.313 494.999" stroke="#B3B3B3"/>
<path d="M-102.089 21.229L752.411 514.575" stroke="#B3B3B3"/>
<path d="M-135.994 40.8037L718.506 534.15" stroke="#B3B3B3"/>
<path d="M-169.897 60.3774L684.602 553.723" stroke="#B3B3B3"/>
<path d="M-203.8 79.952L650.7 573.298M116.637 264.956C116.637 264.956 138.336 277.484 152.24 285.512" stroke="#B3B3B3"/>
<path d="M-237.675 99.5147L616.825 592.861" stroke="#B3B3B3"/>
<path d="M-271.578 119.088L582.922 612.433" stroke="#B3B3B3"/>
<path d="M-305.483 138.661L549.017 632.007" stroke="#B3B3B3"/>
<path d="M-339.386 158.236L515.114 651.582" stroke="#B3B3B3"/>
<path d="M-373.29 177.811L481.21 671.156" stroke="#B3B3B3"/>
<path d="M-407.192 197.384L447.308 690.73" stroke="#B3B3B3"/>
<path d="M-441.098 216.958L413.402 710.304" stroke="#B3B3B3"/>
<path d="M-475.001 236.534L379.499 729.88" stroke="#B3B3B3"/>
<path d="M-508.903 256.108L345.597 749.454" stroke="#B3B3B3"/>
</g>
</g>
<path d="M-35 496L628 113.217" stroke="url(#paint1_linear_1719_17505)"/>
<path d="M3 269L462 4" stroke="url(#paint2_linear_1719_17505)" stroke-opacity="0.3" stroke-dasharray="7 4"/>
<path d="M49 306L508 41" stroke="url(#paint3_linear_1719_17505)" stroke-opacity="0.3" stroke-dasharray="7 4"/>
<path d="M83 358L542 93" stroke="url(#paint4_linear_1719_17505)" stroke-opacity="0.3" stroke-dasharray="7 4"/>
<path d="M6.47464 213.677L6.47464 218.828L37.081 236.497L37.081 231.061L10.9715 216.231L6.47464 213.677Z" fill="#0E3572" fill-opacity="0.1"/>
<path d="M282.85 89.4042L37.081 231.061L37.081 236.497L287.347 92V86.8499L282.85 89.4042Z" fill="#0E3572" fill-opacity="0.1"/>
<path fill-rule="evenodd" clip-rule="evenodd" d="M6.47464 213.677L10.9715 216.231L37.081 231.061L282.85 89.4042L287.347 86.8499L256.74 69.1793L6.47464 213.677Z" fill="#0E3572"/>
<path d="M282.979 89.4804L282.98 89.4809L287.16 87.106V91.9563L37.2655 236.237V231.106L282.979 89.4804ZM10.841 216.308L36.8943 231.106L36.8951 236.238L6.66052 218.783L6.65967 213.933L10.841 216.308ZM287.082 86.8492L282.72 89.3276L282.719 89.328L37.0795 230.91L11.1015 216.155L6.73663 213.676L256.739 69.3313L287.082 86.8492Z" stroke="#0E3572" stroke-width="0.303418"/>
<path d="M14.5452 200.949C13.8732 201.337 13.3051 201.541 12.8409 201.561C12.3836 201.577 12.0337 201.439 11.7912 201.147C11.5488 200.847 11.4275 200.421 11.4275 199.869L12.872 199.035C12.872 199.267 12.9275 199.463 13.0383 199.623C13.1492 199.775 13.3258 199.849 13.5683 199.845C13.8177 199.837 14.1434 199.717 14.5452 199.485C14.9055 199.277 15.2068 199.043 15.4493 198.783C15.6918 198.523 15.872 198.263 15.9897 198.003C16.1075 197.735 16.1664 197.477 16.1664 197.229C16.1664 196.917 16.0521 196.735 15.8235 196.683C15.5948 196.623 15.2415 196.707 14.7634 196.935L14.0983 197.259C13.3709 197.607 12.7889 197.683 12.3524 197.487C11.9229 197.279 11.7081 196.803 11.7081 196.059C11.7081 195.499 11.8224 194.953 12.051 194.421C12.2797 193.881 12.5984 193.385 13.0071 192.933C13.4228 192.469 13.9078 192.077 14.4621 191.757C15.0371 191.425 15.5325 191.255 15.9482 191.247C16.3639 191.239 16.686 191.381 16.9146 191.673C17.1433 191.957 17.2576 192.383 17.2576 192.951L15.8131 193.785C15.8131 193.545 15.7611 193.355 15.6572 193.215C15.5602 193.063 15.4112 192.985 15.2103 192.981C15.0163 192.965 14.7669 193.045 14.4621 193.221C14.1711 193.389 13.9286 193.585 13.7346 193.809C13.5406 194.033 13.3951 194.269 13.2981 194.517C13.2011 194.765 13.1526 195.001 13.1526 195.225C13.1526 195.497 13.2392 195.687 13.4124 195.795C13.5856 195.895 13.8593 195.853 14.2334 195.669L14.8985 195.357C15.4389 195.093 15.9135 194.951 16.3223 194.931C16.7311 194.911 17.0463 195.021 17.268 195.261C17.4966 195.497 17.6109 195.875 17.6109 196.395C17.6109 196.947 17.4862 197.507 17.2368 198.075C16.9874 198.635 16.6306 199.165 16.1664 199.665C15.7091 200.161 15.1687 200.589 14.5452 200.949ZM18.8458 200.638V191.722L19.989 191.062V193.87L19.8123 193.96C19.84 193.28 19.9578 192.656 20.1657 192.088C20.3804 191.516 20.6645 191.02 21.0178 190.6C21.3712 190.172 21.7661 189.832 22.2025 189.58C22.6044 189.348 22.9646 189.224 23.2833 189.208C23.609 189.188 23.8861 189.264 24.1147 189.436C24.3503 189.604 24.5304 189.856 24.6551 190.192C24.7798 190.52 24.8422 190.916 24.8422 191.38V191.632C24.8422 192.104 24.7798 192.58 24.6551 193.06C24.5374 193.528 24.3607 193.986 24.1251 194.434C23.8965 194.87 23.6194 195.27 23.2937 195.634C22.9681 195.99 22.6044 196.284 22.2025 196.516C21.7799 196.76 21.3919 196.884 21.0386 196.888C20.6922 196.88 20.4116 196.726 20.1968 196.426C19.9821 196.118 19.8608 195.632 19.8331 194.968L20.2904 195.508V199.804L18.8458 200.638ZM21.8388 195.322C22.1506 195.142 22.4208 194.898 22.6494 194.59C22.885 194.278 23.0686 193.928 23.2002 193.54C23.3318 193.144 23.3977 192.746 23.3977 192.346C23.3977 191.93 23.3318 191.608 23.2002 191.38C23.0686 191.152 22.885 191.022 22.6494 190.99C22.4208 190.946 22.1506 191.014 21.8388 191.194C21.5548 191.358 21.2915 191.582 21.049 191.866C20.8134 192.146 20.6195 192.47 20.467 192.838C20.3215 193.202 20.2488 193.58 20.2488 193.972V194.452C20.2488 194.828 20.325 195.104 20.4774 195.28C20.6298 195.456 20.8273 195.546 21.0698 195.55C21.3123 195.554 21.5686 195.478 21.8388 195.322ZM26.1123 194.043V187.527L27.2555 186.867V189.627L27.2243 189.645C27.2243 188.709 27.3975 187.901 27.7439 187.221C28.0903 186.541 28.5996 186.007 29.2716 185.619L29.4794 185.499V186.951L29.0845 187.179C28.5996 187.459 28.222 187.829 27.9518 188.289C27.6885 188.737 27.5569 189.245 27.5569 189.813V193.209L26.1123 194.043ZM30.716 191.385V184.869L32.1606 184.035V190.551L30.716 191.385ZM29.9262 186.573V185.325L32.1606 184.035V185.283L29.9262 186.573ZM31.246 183.783C30.962 183.947 30.7507 183.985 30.6121 183.897C30.4805 183.797 30.4147 183.619 30.4147 183.363C30.4147 183.091 30.4805 182.833 30.6121 182.589C30.7507 182.341 30.962 182.135 31.246 181.971C31.5301 181.807 31.7379 181.771 31.8696 181.863C32.0012 181.955 32.067 182.137 32.067 182.409C32.067 182.665 32.0012 182.919 31.8696 183.171C31.7379 183.415 31.5301 183.619 31.246 183.783ZM33.8254 189.589V183.073L34.9685 182.413V185.209L34.8646 185.269C34.8646 184.605 34.9408 184.009 35.0932 183.481C35.2456 182.945 35.4708 182.479 35.7687 182.083C36.0736 181.683 36.4512 181.353 36.9015 181.093L36.9638 181.057C37.6359 180.669 38.1451 180.627 38.4915 180.931C38.8379 181.227 39.0111 181.871 39.0111 182.863V186.595L37.5666 187.429V183.553C37.5666 183.153 37.4661 182.887 37.2652 182.755C37.0712 182.619 36.801 182.651 36.4546 182.851C36.1013 183.055 35.8138 183.349 35.5921 183.733C35.3773 184.105 35.2699 184.503 35.2699 184.927V188.755L33.8254 189.589ZM43.0167 184.367C42.4971 184.667 42.0675 184.839 41.7281 184.883C41.3955 184.915 41.1461 184.795 40.9798 184.523C40.8135 184.243 40.7304 183.787 40.7304 183.155L40.7408 177.245L42.0918 176.465L42.0814 182.483C42.0814 182.803 42.1541 183.009 42.2996 183.101C42.4521 183.181 42.6668 183.141 42.944 182.981L43.8273 182.471V183.899L43.0167 184.367ZM39.8367 180.827V179.603L43.8273 177.299V178.523L39.8367 180.827ZM48.3842 181.184V173.48L48.8414 173.624L46.8357 174.782V173.318L49.8495 171.578V180.338L48.3842 181.184Z" fill="#0E3572"/>
<path d="M185.763 167.555C185.091 167.943 184.523 168.147 184.059 168.167C183.602 168.183 183.252 168.045 183.009 167.753C182.767 167.453 182.645 167.027 182.645 166.475L184.09 165.641C184.09 165.873 184.145 166.069 184.256 166.229C184.367 166.381 184.544 166.455 184.786 166.451C185.036 166.443 185.361 166.323 185.763 166.091C186.123 165.883 186.425 165.649 186.667 165.389C186.91 165.129 187.09 164.869 187.208 164.609C187.325 164.341 187.384 164.083 187.384 163.835C187.384 163.523 187.27 163.341 187.041 163.289C186.813 163.229 186.459 163.313 185.981 163.541L185.316 163.865C184.589 164.213 184.007 164.289 183.57 164.093C183.141 163.885 182.926 163.409 182.926 162.665C182.926 162.105 183.04 161.559 183.269 161.027C183.498 160.487 183.816 159.991 184.225 159.539C184.641 159.075 185.126 158.683 185.68 158.363C186.255 158.031 186.75 157.861 187.166 157.853C187.582 157.845 187.904 157.987 188.133 158.279C188.361 158.563 188.476 158.989 188.476 159.557L187.031 160.391C187.031 160.151 186.979 159.961 186.875 159.821C186.778 159.669 186.629 159.591 186.428 159.587C186.234 159.571 185.985 159.651 185.68 159.827C185.389 159.995 185.147 160.191 184.953 160.415C184.759 160.639 184.613 160.875 184.516 161.123C184.419 161.371 184.371 161.607 184.371 161.831C184.371 162.103 184.457 162.293 184.63 162.401C184.804 162.501 185.077 162.459 185.451 162.275L186.117 161.963C186.657 161.699 187.131 161.557 187.54 161.537C187.949 161.517 188.264 161.627 188.486 161.867C188.715 162.103 188.829 162.481 188.829 163.001C188.829 163.553 188.704 164.113 188.455 164.681C188.205 165.241 187.849 165.771 187.384 166.271C186.927 166.767 186.387 167.195 185.763 167.555ZM190.064 167.244V158.328L191.207 157.668V160.476L191.03 160.566C191.058 159.886 191.176 159.262 191.384 158.694C191.598 158.122 191.882 157.626 192.236 157.206C192.589 156.778 192.984 156.438 193.421 156.186C193.822 155.954 194.183 155.83 194.501 155.814C194.827 155.794 195.104 155.87 195.333 156.042C195.568 156.21 195.748 156.462 195.873 156.798C195.998 157.126 196.06 157.522 196.06 157.986V158.238C196.06 158.71 195.998 159.186 195.873 159.666C195.755 160.134 195.579 160.592 195.343 161.04C195.114 161.476 194.837 161.876 194.512 162.24C194.186 162.596 193.822 162.89 193.421 163.122C192.998 163.366 192.61 163.49 192.257 163.494C191.91 163.486 191.63 163.332 191.415 163.032C191.2 162.724 191.079 162.238 191.051 161.574L191.508 162.114V166.41L190.064 167.244ZM193.057 161.928C193.369 161.748 193.639 161.504 193.867 161.196C194.103 160.884 194.287 160.534 194.418 160.146C194.55 159.75 194.616 159.352 194.616 158.952C194.616 158.536 194.55 158.214 194.418 157.986C194.287 157.758 194.103 157.628 193.867 157.596C193.639 157.552 193.369 157.62 193.057 157.8C192.773 157.964 192.509 158.188 192.267 158.472C192.031 158.752 191.837 159.076 191.685 159.444C191.54 159.808 191.467 160.186 191.467 160.578V161.058C191.467 161.434 191.543 161.71 191.695 161.886C191.848 162.062 192.045 162.152 192.288 162.156C192.53 162.16 192.787 162.084 193.057 161.928ZM197.33 160.649V154.133L198.473 153.473V156.233L198.442 156.251C198.442 155.315 198.615 154.507 198.962 153.827C199.308 153.147 199.818 152.613 200.49 152.225L200.697 152.105V153.557L200.302 153.785C199.818 154.065 199.44 154.435 199.17 154.895C198.906 155.343 198.775 155.851 198.775 156.419V159.815L197.33 160.649ZM201.934 157.991V151.475L203.379 150.641V157.157L201.934 157.991ZM201.144 153.179V151.931L203.379 150.641V151.889L201.144 153.179ZM202.464 150.389C202.18 150.553 201.969 150.591 201.83 150.503C201.698 150.403 201.633 150.225 201.633 149.969C201.633 149.697 201.698 149.439 201.83 149.195C201.969 148.947 202.18 148.741 202.464 148.577C202.748 148.413 202.956 148.377 203.088 148.469C203.219 148.561 203.285 148.743 203.285 149.015C203.285 149.271 203.219 149.525 203.088 149.777C202.956 150.021 202.748 150.225 202.464 150.389ZM205.043 156.196V149.68L206.186 149.02V151.816L206.083 151.876C206.083 151.212 206.159 150.616 206.311 150.088C206.464 149.552 206.689 149.086 206.987 148.69C207.292 148.29 207.669 147.96 208.119 147.7L208.182 147.664C208.854 147.276 209.363 147.234 209.709 147.538C210.056 147.834 210.229 148.478 210.229 149.47V153.202L208.785 154.036V150.16C208.785 149.76 208.684 149.494 208.483 149.362C208.289 149.226 208.019 149.258 207.673 149.458C207.319 149.662 207.032 149.956 206.81 150.34C206.595 150.712 206.488 151.11 206.488 151.534V155.362L205.043 156.196ZM214.235 150.973C213.715 151.273 213.286 151.445 212.946 151.489C212.613 151.521 212.364 151.401 212.198 151.129C212.032 150.849 211.948 150.393 211.948 149.761L211.959 143.851L213.31 143.071L213.299 149.089C213.299 149.409 213.372 149.615 213.518 149.707C213.67 149.787 213.885 149.747 214.162 149.587L215.045 149.077V150.505L214.235 150.973ZM211.055 147.433V146.209L215.045 143.905V145.129L211.055 147.433ZM218.355 148.51V146.83C218.355 146.462 218.404 146.114 218.501 145.786C218.604 145.454 218.771 145.118 218.999 144.778C219.235 144.426 219.543 144.044 219.924 143.632L221.213 142.228C221.532 141.876 221.774 141.532 221.94 141.196C222.114 140.848 222.2 140.482 222.2 140.098C222.2 139.674 222.089 139.402 221.868 139.282C221.653 139.15 221.345 139.2 220.943 139.432C220.541 139.664 220.229 139.972 220.007 140.356C219.793 140.736 219.685 141.154 219.685 141.61L218.262 142.432C218.262 141.888 218.362 141.342 218.563 140.794C218.764 140.238 219.062 139.722 219.457 139.246C219.852 138.762 220.347 138.348 220.943 138.004C221.539 137.66 222.034 137.498 222.429 137.518C222.824 137.538 223.122 137.698 223.323 137.998C223.524 138.29 223.624 138.688 223.624 139.192V139.348C223.624 140.004 223.465 140.644 223.146 141.268C222.827 141.884 222.36 142.53 221.743 143.206L220.454 144.61C220.212 144.87 220.042 145.096 219.945 145.288C219.848 145.472 219.8 145.676 219.8 145.9V146.668L219.446 146.428L223.655 143.998V145.45L218.355 148.51Z" fill="#0E3572"/>
<path d="M327.768 151.552C327.096 151.94 326.528 152.144 326.064 152.164C325.607 152.18 325.257 152.042 325.014 151.75C324.772 151.45 324.651 151.024 324.651 150.472L326.095 149.638C326.095 149.87 326.151 150.066 326.261 150.226C326.372 150.378 326.549 150.452 326.791 150.448C327.041 150.44 327.366 150.32 327.768 150.088C328.129 149.88 328.43 149.646 328.672 149.386C328.915 149.126 329.095 148.866 329.213 148.606C329.331 148.338 329.389 148.08 329.389 147.832C329.389 147.52 329.275 147.338 329.047 147.286C328.818 147.226 328.465 147.31 327.986 147.538L327.321 147.862C326.594 148.21 326.012 148.286 325.575 148.09C325.146 147.882 324.931 147.406 324.931 146.662C324.931 146.102 325.045 145.556 325.274 145.024C325.503 144.484 325.821 143.988 326.23 143.536C326.646 143.072 327.131 142.68 327.685 142.36C328.26 142.028 328.756 141.858 329.171 141.85C329.587 141.842 329.909 141.984 330.138 142.276C330.366 142.56 330.481 142.986 330.481 143.554L329.036 144.388C329.036 144.148 328.984 143.958 328.88 143.818C328.783 143.666 328.634 143.588 328.433 143.584C328.239 143.568 327.99 143.648 327.685 143.824C327.394 143.992 327.152 144.188 326.958 144.412C326.764 144.636 326.618 144.872 326.521 145.12C326.424 145.368 326.376 145.604 326.376 145.828C326.376 146.1 326.462 146.29 326.635 146.398C326.809 146.498 327.082 146.456 327.456 146.272L328.122 145.96C328.662 145.696 329.137 145.554 329.545 145.534C329.954 145.514 330.269 145.624 330.491 145.864C330.72 146.1 330.834 146.478 330.834 146.998C330.834 147.55 330.709 148.11 330.46 148.678C330.21 149.238 329.854 149.768 329.389 150.268C328.932 150.764 328.392 151.192 327.768 151.552ZM332.069 151.241V142.325L333.212 141.665V144.473L333.035 144.563C333.063 143.883 333.181 143.259 333.389 142.691C333.603 142.119 333.888 141.623 334.241 141.203C334.594 140.775 334.989 140.435 335.426 140.183C335.827 139.951 336.188 139.827 336.506 139.811C336.832 139.791 337.109 139.867 337.338 140.039C337.573 140.207 337.753 140.459 337.878 140.795C338.003 141.123 338.065 141.519 338.065 141.983V142.235C338.065 142.707 338.003 143.183 337.878 143.663C337.76 144.131 337.584 144.589 337.348 145.037C337.12 145.473 336.842 145.873 336.517 146.237C336.191 146.593 335.827 146.887 335.426 147.119C335.003 147.363 334.615 147.487 334.262 147.491C333.915 147.483 333.635 147.329 333.42 147.029C333.205 146.721 333.084 146.235 333.056 145.571L333.513 146.111V150.407L332.069 151.241ZM335.062 145.925C335.374 145.745 335.644 145.501 335.872 145.193C336.108 144.881 336.292 144.531 336.423 144.143C336.555 143.747 336.621 143.349 336.621 142.949C336.621 142.533 336.555 142.211 336.423 141.983C336.292 141.755 336.108 141.625 335.872 141.593C335.644 141.549 335.374 141.617 335.062 141.797C334.778 141.961 334.515 142.185 334.272 142.469C334.036 142.749 333.843 143.073 333.69 143.441C333.545 143.805 333.472 144.183 333.472 144.575V145.055C333.472 145.431 333.548 145.707 333.7 145.883C333.853 146.059 334.05 146.149 334.293 146.153C334.535 146.157 334.792 146.081 335.062 145.925ZM339.335 144.646V138.13L340.479 137.47V140.23L340.447 140.248C340.447 139.312 340.621 138.504 340.967 137.824C341.313 137.144 341.823 136.61 342.495 136.222L342.702 136.102V137.554L342.308 137.782C341.823 138.062 341.445 138.432 341.175 138.892C340.912 139.34 340.78 139.848 340.78 140.416V143.812L339.335 144.646ZM343.939 141.988V135.472L345.384 134.638V141.154L343.939 141.988ZM343.149 137.176V135.928L345.384 134.638V135.886L343.149 137.176ZM344.469 134.386C344.185 134.55 343.974 134.588 343.835 134.5C343.704 134.4 343.638 134.222 343.638 133.966C343.638 133.694 343.704 133.436 343.835 133.192C343.974 132.944 344.185 132.738 344.469 132.574C344.753 132.41 344.961 132.374 345.093 132.466C345.224 132.558 345.29 132.74 345.29 133.012C345.29 133.268 345.224 133.522 345.093 133.774C344.961 134.018 344.753 134.222 344.469 134.386ZM347.048 140.193V133.677L348.192 133.017V135.813L348.088 135.873C348.088 135.209 348.164 134.613 348.316 134.085C348.469 133.549 348.694 133.083 348.992 132.687C349.297 132.287 349.674 131.957 350.125 131.697L350.187 131.661C350.859 131.273 351.368 131.231 351.715 131.535C352.061 131.831 352.234 132.475 352.234 133.467V137.199L350.79 138.033V134.157C350.79 133.757 350.689 133.491 350.488 133.359C350.294 133.223 350.024 133.255 349.678 133.455C349.324 133.659 349.037 133.953 348.815 134.337C348.6 134.709 348.493 135.107 348.493 135.531V139.359L347.048 140.193ZM356.24 134.97C355.72 135.27 355.291 135.442 354.951 135.486C354.619 135.518 354.369 135.398 354.203 135.126C354.037 134.846 353.953 134.39 353.953 133.758L353.964 127.848L355.315 127.068L355.304 133.086C355.304 133.406 355.377 133.612 355.523 133.704C355.675 133.784 355.89 133.744 356.167 133.584L357.05 133.074V134.502L356.24 134.97ZM353.06 131.43V130.206L357.05 127.902V129.126L353.06 131.43ZM362.865 131.289C362.283 131.625 361.78 131.787 361.358 131.775C360.942 131.759 360.623 131.603 360.402 131.307C360.18 131.003 360.069 130.587 360.069 130.059L361.493 129.237C361.493 129.661 361.614 129.935 361.857 130.059C362.106 130.171 362.442 130.105 362.865 129.861C363.149 129.697 363.391 129.497 363.592 129.261C363.8 129.013 363.959 128.749 364.07 128.469C364.181 128.181 364.236 127.893 364.236 127.605C364.236 127.173 364.115 126.891 363.873 126.759C363.63 126.619 363.298 126.671 362.875 126.915C362.667 127.035 362.484 127.173 362.324 127.329C362.172 127.481 362.037 127.643 361.919 127.815L361.243 126.861L363.738 123.453L363.644 123.303L360.381 125.187V123.735L365.338 120.873V122.625L362.771 126.075L361.971 126.369C362.103 126.245 362.245 126.127 362.397 126.015C362.549 125.895 362.716 125.783 362.896 125.679C363.471 125.347 363.963 125.179 364.372 125.175C364.787 125.159 365.106 125.287 365.328 125.559C365.549 125.831 365.66 126.227 365.66 126.747V126.903C365.66 127.407 365.549 127.935 365.328 128.487C365.106 129.031 364.787 129.551 364.372 130.047C363.956 130.535 363.454 130.949 362.865 131.289Z" fill="#0E3572"/>
<path d="M139.581 325.661C138.908 326.049 138.34 326.253 137.876 326.273C137.419 326.289 137.069 326.151 136.827 325.859C136.584 325.559 136.463 325.133 136.463 324.581L137.907 323.747C137.907 323.979 137.963 324.175 138.074 324.335C138.184 324.487 138.361 324.561 138.604 324.557C138.853 324.549 139.179 324.429 139.581 324.197C139.941 323.989 140.242 323.755 140.485 323.495C140.727 323.235 140.907 322.975 141.025 322.715C141.143 322.447 141.202 322.189 141.202 321.941C141.202 321.629 141.087 321.447 140.859 321.395C140.63 321.335 140.277 321.419 139.799 321.647L139.134 321.971C138.406 322.319 137.824 322.395 137.388 322.199C136.958 321.991 136.743 321.515 136.743 320.771C136.743 320.211 136.858 319.665 137.086 319.133C137.315 318.593 137.634 318.097 138.042 317.645C138.458 317.181 138.943 316.789 139.497 316.469C140.072 316.137 140.568 315.967 140.983 315.959C141.399 315.951 141.721 316.093 141.95 316.385C142.179 316.669 142.293 317.095 142.293 317.663L140.848 318.497C140.848 318.257 140.796 318.067 140.692 317.927C140.595 317.775 140.447 317.697 140.246 317.693C140.052 317.677 139.802 317.757 139.497 317.933C139.206 318.101 138.964 318.297 138.77 318.521C138.576 318.745 138.43 318.981 138.333 319.229C138.236 319.477 138.188 319.713 138.188 319.937C138.188 320.209 138.275 320.399 138.448 320.507C138.621 320.607 138.895 320.565 139.269 320.381L139.934 320.069C140.474 319.805 140.949 319.663 141.358 319.643C141.766 319.623 142.082 319.733 142.303 319.973C142.532 320.209 142.646 320.587 142.646 321.107C142.646 321.659 142.522 322.219 142.272 322.787C142.023 323.347 141.666 323.877 141.202 324.377C140.744 324.873 140.204 325.301 139.581 325.661ZM143.881 325.35V316.434L145.024 315.774V318.582L144.848 318.672C144.875 317.992 144.993 317.368 145.201 316.8C145.416 316.228 145.7 315.732 146.053 315.312C146.406 314.884 146.801 314.544 147.238 314.292C147.64 314.06 148 313.936 148.319 313.92C148.644 313.9 148.921 313.976 149.15 314.148C149.386 314.316 149.566 314.568 149.69 314.904C149.815 315.232 149.877 315.628 149.877 316.092V316.344C149.877 316.816 149.815 317.292 149.69 317.772C149.573 318.24 149.396 318.698 149.16 319.146C148.932 319.582 148.655 319.982 148.329 320.346C148.003 320.702 147.64 320.996 147.238 321.228C146.815 321.472 146.427 321.596 146.074 321.6C145.727 321.592 145.447 321.438 145.232 321.138C145.017 320.83 144.896 320.344 144.868 319.68L145.326 320.22V324.516L143.881 325.35ZM146.874 320.034C147.186 319.854 147.456 319.61 147.685 319.302C147.92 318.99 148.104 318.64 148.236 318.252C148.367 317.856 148.433 317.458 148.433 317.058C148.433 316.642 148.367 316.32 148.236 316.092C148.104 315.864 147.92 315.734 147.685 315.702C147.456 315.658 147.186 315.726 146.874 315.906C146.59 316.07 146.327 316.294 146.084 316.578C145.849 316.858 145.655 317.182 145.502 317.55C145.357 317.914 145.284 318.292 145.284 318.684V319.164C145.284 319.54 145.36 319.816 145.513 319.992C145.665 320.168 145.863 320.258 146.105 320.262C146.348 320.266 146.604 320.19 146.874 320.034ZM151.148 318.755V312.239L152.291 311.579V314.339L152.26 314.357C152.26 313.421 152.433 312.613 152.779 311.933C153.126 311.253 153.635 310.719 154.307 310.331L154.515 310.211V311.663L154.12 311.891C153.635 312.171 153.257 312.541 152.987 313.001C152.724 313.449 152.592 313.957 152.592 314.525V317.921L151.148 318.755ZM155.751 316.097V309.581L157.196 308.747V315.263L155.751 316.097ZM154.962 311.285V310.037L157.196 308.747V309.995L154.962 311.285ZM156.281 308.495C155.997 308.659 155.786 308.697 155.647 308.609C155.516 308.509 155.45 308.331 155.45 308.075C155.45 307.803 155.516 307.545 155.647 307.301C155.786 307.053 155.997 306.847 156.281 306.683C156.565 306.519 156.773 306.483 156.905 306.575C157.037 306.667 157.102 306.849 157.102 307.121C157.102 307.377 157.037 307.631 156.905 307.883C156.773 308.127 156.565 308.331 156.281 308.495ZM158.861 314.301V307.785L160.004 307.125V309.921L159.9 309.981C159.9 309.317 159.976 308.721 160.129 308.193C160.281 307.657 160.506 307.191 160.804 306.795C161.109 306.395 161.486 306.065 161.937 305.805L161.999 305.769C162.671 305.381 163.18 305.339 163.527 305.643C163.873 305.939 164.046 306.583 164.046 307.575V311.307L162.602 312.141V308.265C162.602 307.865 162.501 307.599 162.301 307.467C162.107 307.331 161.836 307.363 161.49 307.563C161.137 307.767 160.849 308.061 160.627 308.445C160.413 308.817 160.305 309.215 160.305 309.639V313.467L158.861 314.301ZM168.052 309.079C167.532 309.379 167.103 309.551 166.763 309.595C166.431 309.627 166.181 309.507 166.015 309.235C165.849 308.955 165.766 308.499 165.766 307.867L165.776 301.957L167.127 301.177L167.117 307.195C167.117 307.515 167.189 307.721 167.335 307.813C167.487 307.893 167.702 307.853 167.979 307.693L168.863 307.183V308.611L168.052 309.079ZM164.872 305.539V304.315L168.863 302.011V303.235L164.872 305.539ZM171.892 304.966V303.118L174.864 296.062L175.976 296.296L173.357 302.536L173.482 302.704L178.138 300.016V301.36L171.892 304.966ZM175.862 304.486V298.21L177.223 297.424V303.7L175.862 304.486Z" fill="#0E3572"/>
<path d="M60.4786 245.749L60.4786 250.899L91.0849 268.568L91.0849 263.133L64.9755 248.303L60.4786 245.749Z" fill="#0E3572" fill-opacity="0.1"/>
<path d="M425.629 70.2249L91.0849 263.133L91.0849 268.568L430.126 72.8207V67.6706L425.629 70.2249Z" fill="#0E3572" fill-opacity="0.1"/>
<path fill-rule="evenodd" clip-rule="evenodd" d="M60.4786 245.749L64.9755 248.303L91.0849 263.133L425.629 70.2249L430.126 67.6706L399.519 50L60.4786 245.749Z" fill="#0E3572"/>
<path fill-rule="evenodd" clip-rule="evenodd" d="M60.4786 245.749L64.9755 248.303L91.0849 263.133L425.629 70.2249L430.126 67.6706L399.519 50L60.4786 245.749Z" fill="white" fill-opacity="0.2"/>
<path d="M425.759 70.3009L425.759 70.3014L429.939 67.9265V72.7768L91.2693 268.309V263.178L425.759 70.3009ZM64.8457 248.38L90.8989 263.178V268.309L60.6643 250.855L60.6634 246.004L64.8457 248.38ZM429.861 67.6697L425.499 70.1481L425.497 70.149L91.0833 262.982L65.1053 248.227L60.7413 245.748L399.518 50.1518L429.861 67.6697Z" stroke="#0E3572" stroke-width="0.303418"/>
<path d="M214.469 224.578L214.469 229.728L245.076 247.397L245.076 241.961L218.966 227.132L214.469 224.578Z" fill="#0E3572" fill-opacity="0.1"/>
<path d="M384.424 161.75L245.076 241.961L245.076 247.397L388.921 164.346L388.921 159.196L384.424 161.75Z" fill="#0E3572" fill-opacity="0.1"/>
<path fill-rule="evenodd" clip-rule="evenodd" d="M214.469 224.578L218.966 227.132L245.076 241.961L384.424 161.75L388.921 159.196L358.314 141.525L214.469 224.578Z" fill="#0E3572"/>
<path fill-rule="evenodd" clip-rule="evenodd" d="M214.469 224.578L218.966 227.132L245.076 241.961L384.424 161.75L388.921 159.196L358.314 141.525L214.469 224.578Z" fill="white" fill-opacity="0.4"/>
<path d="M384.554 161.826L384.554 161.827L388.734 159.452V164.302L245.261 247.137V242.006L384.554 161.826ZM218.836 227.208L244.89 242.006V247.138L214.655 229.683L214.654 224.833L218.836 227.208ZM388.656 159.195L384.294 161.674L384.293 161.674L245.074 241.81L219.096 227.055L214.732 224.577L358.313 141.677L388.656 159.195Z" stroke="#0E3572" stroke-width="0.303418"/>
<path d="M370.428 132.391L370.428 137.541L385.731 146.376L401.034 155.21L401.034 149.775L374.925 134.945L370.428 132.391Z" fill="#0E3572" fill-opacity="0.1"/>
<path d="M478.618 105.225L401.034 149.775L401.034 155.21L483.114 107.821L483.114 102.671L478.618 105.225Z" fill="#0E3572" fill-opacity="0.1"/>
<path fill-rule="evenodd" clip-rule="evenodd" d="M370.428 132.391L374.925 134.945L401.034 149.775L478.618 105.225L483.114 102.671L452.508 85L370.428 132.391Z" fill="#0E3572"/>
<path fill-rule="evenodd" clip-rule="evenodd" d="M370.428 132.391L374.925 134.945L401.034 149.775L478.618 105.225L483.114 102.671L452.508 85L370.428 132.391Z" fill="white" fill-opacity="0.7"/>
<path d="M478.747 105.301L478.748 105.301L482.927 102.927V107.777L401.219 154.951V149.819L478.747 105.301ZM374.795 135.022L400.848 149.82V154.951L370.614 137.497V132.647L374.795 135.022ZM482.85 102.67L478.487 105.149L401.032 149.624L375.055 134.869L370.69 132.39L452.507 85.1518L482.85 102.67Z" stroke="#0E3572" stroke-width="0.303418"/>
<path d="M135.467 335.392L135.467 340.542L150.77 349.376L166.073 358.211L166.073 352.775L139.964 337.946L135.467 335.392Z" fill="#0E3572" fill-opacity="0.1"/>
<path d="M426.943 202.404L166.073 352.775L166.073 358.211L431.439 205V199.85L426.943 202.404Z" fill="#0E3572" fill-opacity="0.1"/>
<path fill-rule="evenodd" clip-rule="evenodd" d="M135.467 335.392L139.964 337.946L166.073 352.775L426.943 202.404L431.439 199.85L400.833 182.179L135.467 335.392Z" fill="#0E3572"/>
<path fill-rule="evenodd" clip-rule="evenodd" d="M135.467 335.392L139.964 337.946L166.073 352.775L426.943 202.404L431.439 199.85L400.833 182.179L135.467 335.392Z" fill="white" fill-opacity="0.9"/>
<path d="M427.073 202.48L427.074 202.481L431.252 200.106V204.956L166.258 357.951V352.82L427.073 202.48ZM139.834 338.022L165.887 352.82V357.952L135.652 340.497V335.647L139.834 338.022ZM431.175 199.849L426.812 202.328L426.811 202.328L166.071 352.624L140.093 337.869L135.729 335.391L400.832 182.331L431.175 199.849Z" stroke="#0E3572" stroke-width="0.303418"/>
<path d="M292.821 366.75L470.906 468.509L640.218 370.76L462.661 268.25L292.821 366.75Z" fill="white"/>
<path d="M292.821 366.75L470.906 468.509L640.218 370.76L462.661 268.25L292.821 366.75Z" fill="#0E3572" fill-opacity="0.1"/>
<path d="M292.821 366.75L470.906 468.509L640.218 370.76L462.661 268.25L292.821 366.75Z" stroke="#0E3572" stroke-width="0.5"/>
<mask id="path-71-inside-1_1719_17505" fill="white">
<path d="M546.52 335.04L606.324 335.165V367.816L469.763 444L333.752 368.784L332.002 367.817L332.003 367.816V334.592L391.947 334.717L468.941 292.204L546.52 335.04Z"/>
</mask>
<path d="M546.52 335.04L606.324 335.165V367.816L469.763 444L333.752 368.784L332.002 367.817L332.003 367.816V334.592L391.947 334.717L468.941 292.204L546.52 335.04Z" fill="url(#paint5_linear_1719_17505)"/>
<path d="M546.52 335.04L546.234 335.558L546.366 335.632L546.518 335.632L546.52 335.04ZM606.324 335.165H606.916V334.575L606.325 334.574L606.324 335.165ZM606.324 367.816L606.613 368.333L606.916 368.163V367.816H606.324ZM469.763 444L469.476 444.518L469.764 444.677L470.051 444.517L469.763 444ZM333.752 368.784L334.038 368.266L334.038 368.266L333.752 368.784ZM332.002 367.817L331.584 367.398L331.027 367.954L331.716 368.335L332.002 367.817ZM332.003 367.816L332.421 368.234L332.595 368.061V367.816H332.003ZM332.003 334.592L332.004 334L331.411 333.999V334.592H332.003ZM391.947 334.717L391.946 335.309L392.099 335.309L392.233 335.235L391.947 334.717ZM468.941 292.204L469.227 291.686L468.941 291.529L468.655 291.686L468.941 292.204ZM546.52 335.04L546.518 335.632L606.323 335.757L606.324 335.165L606.325 334.574L546.521 334.449L546.52 335.04ZM606.324 335.165H605.732V367.816H606.324H606.916V335.165H606.324ZM606.324 367.816L606.036 367.299L469.474 443.484L469.763 444L470.051 444.517L606.613 368.333L606.324 367.816ZM469.763 444L470.049 443.483L334.038 368.266L333.752 368.784L333.466 369.301L469.476 444.518L469.763 444ZM333.752 368.784L334.038 368.266L332.288 367.299L332.002 367.817L331.716 368.335L333.466 369.302L333.752 368.784ZM332.002 367.817L332.42 368.235L332.421 368.234L332.003 367.816L331.585 367.397L331.584 367.398L332.002 367.817ZM332.003 367.816H332.595V334.592H332.003H331.411V367.816H332.003ZM332.003 334.592L332.002 335.184L391.946 335.309L391.947 334.717L391.948 334.125L332.004 334L332.003 334.592ZM391.947 334.717L392.233 335.235L469.227 292.722L468.941 292.204L468.655 291.686L391.661 334.199L391.947 334.717ZM468.941 292.204L468.655 292.722L546.234 335.558L546.52 335.04L546.806 334.522L469.227 291.686L468.941 292.204Z" fill="#0E3572" mask="url(#path-71-inside-1_1719_17505)"/>
<path d="M605.722 335.164L468.943 409.874L332.602 334.592L468.941 259.312L605.722 335.164Z" fill="#0E3572"/>
<path d="M605.722 335.164L468.943 409.874L332.602 334.592L468.941 259.312L605.722 335.164Z" stroke="white" stroke-opacity="0.2" stroke-width="0.685843"/>
<path d="M605.722 335.164L468.943 409.874L332.602 334.592L468.941 259.312L605.722 335.164Z" stroke="#0E3572" stroke-width="0.685843"/>
<mask id="path-74-inside-2_1719_17505" fill="white">
<path d="M535.271 278.621L586.362 278.729V306.622L469.696 371.707L353.745 307.583L352.007 306.623L352.008 306.622V278.24L403.218 278.346L468.995 242.028L535.271 278.621Z"/>
</mask>
<path d="M535.271 278.621L586.362 278.729V306.622L469.696 371.707L353.745 307.583L352.007 306.623L352.008 306.622V278.24L403.218 278.346L468.995 242.028L535.271 278.621Z" fill="url(#paint6_linear_1719_17505)"/>
<path d="M535.271 278.621L534.984 279.139L535.117 279.213L535.269 279.213L535.271 278.621ZM586.362 278.729H586.954V278.138L586.364 278.137L586.362 278.729ZM586.362 306.622L586.651 307.139L586.954 306.97V306.622H586.362ZM469.696 371.707L469.41 372.225L469.698 372.384L469.985 372.224L469.696 371.707ZM353.745 307.583L354.031 307.066L354.031 307.065L353.745 307.583ZM352.007 306.623L351.588 306.205L351.032 306.761L351.721 307.141L352.007 306.623ZM352.008 306.622L352.426 307.041L352.6 306.868V306.622H352.008ZM352.008 278.24L352.009 277.648L351.416 277.647V278.24H352.008ZM403.218 278.346L403.217 278.938L403.37 278.938L403.504 278.864L403.218 278.346ZM468.995 242.028L469.281 241.51L468.995 241.352L468.709 241.51L468.995 242.028ZM535.271 278.621L535.269 279.213L586.361 279.321L586.362 278.729L586.364 278.137L535.272 278.03L535.271 278.621ZM586.362 278.729H585.771V306.622H586.362H586.954V278.729H586.362ZM586.362 306.622L586.074 306.106L469.408 371.191L469.696 371.707L469.985 372.224L586.651 307.139L586.362 306.622ZM469.696 371.707L469.983 371.19L354.031 307.066L353.745 307.583L353.459 308.101L469.41 372.225L469.696 371.707ZM353.745 307.583L354.031 307.065L352.293 306.105L352.007 306.623L351.721 307.141L353.459 308.101L353.745 307.583ZM352.007 306.623L352.425 307.042L352.426 307.041L352.008 306.622L351.589 306.204L351.588 306.205L352.007 306.623ZM352.008 306.622H352.6V278.24H352.008H351.416V306.622H352.008ZM352.008 278.24L352.007 278.831L403.217 278.938L403.218 278.346L403.219 277.754L352.009 277.648L352.008 278.24ZM403.218 278.346L403.504 278.864L469.281 242.546L468.995 242.028L468.709 241.51L402.932 277.828L403.218 278.346ZM468.995 242.028L468.709 242.546L534.984 279.139L535.271 278.621L535.557 278.103L469.281 241.51L468.995 242.028Z" fill="#0E3572" mask="url(#path-74-inside-2_1719_17505)"/>
<path d="M585.759 278.728L468.997 342.505L352.607 278.24L468.995 213.976L585.759 278.728Z" fill="#0E3572"/>
<path d="M585.759 278.728L468.997 342.505L352.607 278.24L468.995 213.976L585.759 278.728Z" fill="white" fill-opacity="0.2"/>
<path d="M585.759 278.728L468.997 342.505L352.607 278.24L468.995 213.976L585.759 278.728Z" stroke="white" stroke-opacity="0.2" stroke-width="0.685843"/>
<path d="M585.759 278.728L468.997 342.505L352.607 278.24L468.995 213.976L585.759 278.728Z" stroke="#0E3572" stroke-width="0.685843"/>
<mask id="path-77-inside-3_1719_17505" fill="white">
<path d="M525.045 221.987L568.215 222.078V245.646L469.637 300.64L370.194 245.647V221.664L413.466 221.754L469.044 191.066L525.045 221.987Z"/>
</mask>
<path d="M525.045 221.987L568.215 222.078V245.646L469.637 300.64L370.194 245.647V221.664L413.466 221.754L469.044 191.066L525.045 221.987Z" fill="url(#paint7_linear_1719_17505)"/>
<path d="M525.045 221.987L524.759 222.505L524.892 222.578L525.044 222.579L525.045 221.987ZM568.215 222.078H568.807V221.487L568.216 221.486L568.215 222.078ZM568.215 245.646L568.503 246.163L568.807 245.994V245.646H568.215ZM469.637 300.64L469.35 301.158L469.638 301.317L469.925 301.157L469.637 300.64ZM370.194 245.647H369.603V245.996L369.908 246.165L370.194 245.647ZM370.194 221.664L370.196 221.072L369.603 221.071V221.664H370.194ZM413.466 221.754L413.465 222.345L413.618 222.346L413.752 222.272L413.466 221.754ZM469.044 191.066L469.33 190.548L469.044 190.39L468.758 190.548L469.044 191.066ZM525.045 221.987L525.044 222.579L568.214 222.67L568.215 222.078L568.216 221.486L525.046 221.395L525.045 221.987ZM568.215 222.078H567.623V245.646H568.215H568.807V222.078H568.215ZM568.215 245.646L567.927 245.129L469.348 300.123L469.637 300.64L469.925 301.157L568.503 246.163L568.215 245.646ZM469.637 300.64L469.923 300.122L370.481 245.129L370.194 245.647L369.908 246.165L469.35 301.158L469.637 300.64ZM370.194 245.647H370.786V221.664H370.194H369.603V245.647H370.194ZM370.194 221.664L370.193 222.255L413.465 222.345L413.466 221.754L413.467 221.162L370.196 221.072L370.194 221.664ZM413.466 221.754L413.752 222.272L469.33 191.584L469.044 191.066L468.758 190.548L413.18 221.236L413.466 221.754ZM469.044 191.066L468.758 191.584L524.759 222.505L525.045 221.987L525.331 221.469L469.33 190.548L469.044 191.066Z" fill="#0E3572" mask="url(#path-77-inside-3_1719_17505)"/>
<path d="M567.612 222.076L469.046 275.915L370.794 221.664L469.044 167.414L567.612 222.076Z" fill="#0E3572"/>
<path d="M567.612 222.076L469.046 275.915L370.794 221.664L469.044 167.414L567.612 222.076Z" fill="white" fill-opacity="0.4"/>
<path d="M567.612 222.076L469.046 275.915L370.794 221.664L469.044 167.414L567.612 222.076Z" stroke="white" stroke-opacity="0.2" stroke-width="0.685843"/>
<path d="M567.612 222.076L469.046 275.915L370.794 221.664L469.044 167.414L567.612 222.076Z" stroke="#0E3572" stroke-width="0.685843"/>
<mask id="path-80-inside-4_1719_17505" fill="white">
<path fill-rule="evenodd" clip-rule="evenodd" d="M514.306 178.325L549.16 178.399V197.427L469.574 241.826L389.291 197.427V178.066L424.225 178.138L469.096 153.362L514.306 178.325Z"/>
</mask>
<path fill-rule="evenodd" clip-rule="evenodd" d="M514.306 178.325L549.16 178.399V197.427L469.574 241.826L389.291 197.427V178.066L424.225 178.138L469.096 153.362L514.306 178.325Z" fill="url(#paint8_linear_1719_17505)"/>
<path d="M514.306 178.325L514.02 178.843L514.153 178.917L514.304 178.917L514.306 178.325ZM549.16 178.399H549.752V177.808L549.161 177.807L549.16 178.399ZM549.16 197.427L549.448 197.944L549.752 197.774V197.427H549.16ZM469.574 241.826L469.288 242.344L469.575 242.503L469.863 242.343L469.574 241.826ZM389.291 197.427H388.699V197.776L389.005 197.945L389.291 197.427ZM389.291 178.066L389.292 177.474L388.699 177.473V178.066H389.291ZM424.225 178.138L424.223 178.73L424.377 178.73L424.511 178.656L424.225 178.138ZM469.096 153.362L469.382 152.844L469.096 152.686L468.81 152.844L469.096 153.362ZM514.306 178.325L514.304 178.917L549.159 178.99L549.16 178.399L549.161 177.807L514.307 177.734L514.306 178.325ZM549.16 178.399H548.568V197.427H549.16H549.752V178.399H549.16ZM549.16 197.427L548.872 196.91L469.286 241.31L469.574 241.826L469.863 242.343L549.448 197.944L549.16 197.427ZM469.574 241.826L469.861 241.308L389.577 196.909L389.291 197.427L389.005 197.945L469.288 242.344L469.574 241.826ZM389.291 197.427H389.883V178.066H389.291H388.699V197.427H389.291ZM389.291 178.066L389.29 178.657L424.223 178.73L424.225 178.138L424.226 177.546L389.292 177.474L389.291 178.066ZM424.225 178.138L424.511 178.656L469.382 153.88L469.096 153.362L468.81 152.844L423.939 177.62L424.225 178.138ZM469.096 153.362L468.81 153.88L514.02 178.843L514.306 178.325L514.592 177.807L469.382 152.844L469.096 153.362Z" fill="#0E3572" mask="url(#path-80-inside-4_1719_17505)"/>
<path d="M548.558 178.398L469.097 221.8L389.89 178.065L469.096 134.331L548.558 178.398Z" fill="white"/>
<path d="M548.558 178.398L469.097 221.8L389.89 178.065L469.096 134.331L548.558 178.398Z" stroke="white" stroke-opacity="0.2" stroke-width="0.685843"/>
<path d="M548.558 178.398L469.097 221.8L389.89 178.065L469.096 134.331L548.558 178.398Z" stroke="#0E3572" stroke-width="0.685843"/>
<path d="M371.156 338.946C370.683 338.672 370.325 338.369 370.082 338.036C369.839 337.702 369.715 337.361 369.709 337.01C369.704 336.66 369.816 336.319 370.047 335.985C370.29 335.652 370.648 335.348 371.122 335.075C371.601 334.798 372.126 334.592 372.698 334.455C373.27 334.318 373.859 334.252 374.465 334.255C375.072 334.258 375.661 334.332 376.233 334.475C376.81 334.615 377.339 334.823 377.818 335.1C378.297 335.377 378.658 335.682 378.901 336.015C379.143 336.349 379.267 336.69 379.273 337.04C379.285 337.387 379.172 337.726 378.935 338.056C378.704 338.389 378.349 338.694 377.87 338.971C377.396 339.244 376.868 339.449 376.285 339.586C375.707 339.719 375.115 339.784 374.509 339.781C373.902 339.778 373.31 339.706 372.733 339.566C372.161 339.429 371.636 339.223 371.156 338.946ZM372.23 338.326C372.548 338.509 372.895 338.646 373.27 338.736C373.651 338.823 374.041 338.864 374.439 338.861C374.844 338.861 375.236 338.811 375.618 338.711C376.004 338.614 376.36 338.472 376.683 338.286C377.006 338.099 377.249 337.896 377.411 337.676C377.584 337.456 377.671 337.229 377.671 336.995C377.682 336.762 377.61 336.537 377.454 336.32C377.298 336.104 377.061 335.904 376.744 335.72C376.432 335.54 376.088 335.405 375.713 335.315C375.337 335.225 374.945 335.182 374.535 335.185C374.136 335.188 373.743 335.238 373.357 335.335C372.975 335.428 372.623 335.568 372.3 335.755C371.976 335.942 371.731 336.147 371.563 336.37C371.396 336.594 371.309 336.82 371.303 337.05C371.303 337.284 371.379 337.511 371.529 337.731C371.685 337.947 371.919 338.146 372.23 338.326ZM375.591 341.386L380.304 338.665L381.369 339.281L380.442 339.816L380.52 339.671C380.913 339.571 381.306 339.551 381.698 339.611C382.102 339.671 382.472 339.797 382.807 339.991C383.154 340.191 383.385 340.411 383.5 340.651C383.621 340.894 383.621 341.138 383.5 341.381C383.385 341.621 383.151 341.843 382.798 342.046L379.766 343.797L378.632 343.141L381.395 341.546C381.603 341.426 381.742 341.299 381.811 341.166C381.88 341.033 381.883 340.901 381.82 340.771C381.768 340.641 381.646 340.521 381.456 340.411C381.271 340.304 381.063 340.234 380.832 340.201C380.607 340.164 380.379 340.166 380.148 340.206C379.917 340.246 379.697 340.326 379.489 340.446L376.726 342.041L375.591 341.386ZM385.315 347.12C384.853 346.853 384.509 346.558 384.284 346.235C384.059 345.911 383.949 345.578 383.955 345.234C383.961 344.891 384.082 344.554 384.319 344.224C384.561 343.897 384.922 343.596 385.402 343.319C385.881 343.042 386.401 342.832 386.961 342.689C387.533 342.545 388.11 342.472 388.694 342.469C389.288 342.465 389.863 342.53 390.417 342.664C390.978 342.794 391.489 342.992 391.951 343.259C392.413 343.526 392.748 343.809 392.956 344.109C393.169 344.413 393.273 344.713 393.268 345.009C393.268 345.303 393.169 345.569 392.973 345.809L391.422 345.494C391.636 345.231 391.702 344.956 391.622 344.669C391.541 344.383 391.292 344.119 390.877 343.879C390.472 343.646 390.019 343.494 389.516 343.424C389.02 343.357 388.517 343.371 388.009 343.464C387.507 343.561 387.03 343.739 386.58 343.999C386.129 344.259 385.82 344.538 385.653 344.834C385.497 345.131 385.48 345.424 385.601 345.714C385.722 346.005 385.985 346.266 386.389 346.5C386.718 346.69 387.085 346.828 387.489 346.915C387.899 346.998 388.307 347.02 388.711 346.98C389.121 346.936 389.491 346.82 389.82 346.63L390.313 346.345L390.383 346.925L387.992 345.544L388.988 344.969L392.02 346.72L391.37 347.095C390.874 347.381 390.351 347.587 389.802 347.71C389.254 347.833 388.705 347.887 388.156 347.87C387.619 347.853 387.105 347.78 386.614 347.65C386.129 347.517 385.696 347.34 385.315 347.12ZM391.462 350.669C391 350.402 390.686 350.097 390.518 349.753C390.356 349.413 390.348 349.072 390.492 348.728C390.642 348.388 390.954 348.081 391.428 347.808C391.901 347.535 392.433 347.355 393.022 347.268C393.616 347.185 394.208 347.19 394.798 347.283C395.387 347.376 395.915 347.558 396.383 347.828C396.845 348.095 397.157 348.398 397.318 348.738C397.48 349.078 397.486 349.418 397.336 349.758C397.197 350.098 396.888 350.407 396.409 350.684C395.935 350.957 395.401 351.135 394.806 351.219C394.211 351.302 393.619 351.297 393.03 351.204C392.441 351.11 391.919 350.932 391.462 350.669ZM392.502 350.068C392.756 350.215 393.039 350.309 393.351 350.349C393.668 350.392 393.989 350.384 394.312 350.324C394.647 350.264 394.951 350.155 395.222 349.998C395.499 349.838 395.684 349.665 395.776 349.478C395.88 349.292 395.895 349.107 395.82 348.923C395.756 348.74 395.597 348.575 395.343 348.428C395.083 348.278 394.792 348.183 394.468 348.143C394.151 348.1 393.827 348.106 393.498 348.163C393.18 348.22 392.883 348.328 392.606 348.488C392.334 348.645 392.144 348.818 392.034 349.008C391.936 349.198 391.924 349.385 391.999 349.568C392.074 349.752 392.242 349.918 392.502 350.068ZM394.913 352.541L399.626 349.82L400.761 350.475L396.048 353.196L394.913 352.541ZM400.154 349.515L401.367 348.815L402.502 349.47L401.289 350.17L400.154 349.515ZM397.096 353.801L401.808 351.08L402.874 351.695L401.947 352.23L402.025 352.085C402.418 351.985 402.81 351.965 403.203 352.025C403.607 352.085 403.977 352.212 404.312 352.405C404.658 352.605 404.889 352.826 405.005 353.066C405.126 353.309 405.126 353.552 405.005 353.796C404.889 354.036 404.655 354.258 404.303 354.461L401.271 356.211L400.136 355.556L402.9 353.961C403.108 353.841 403.246 353.714 403.316 353.581C403.385 353.447 403.388 353.316 403.324 353.186C403.272 353.056 403.151 352.936 402.96 352.826C402.776 352.719 402.568 352.649 402.337 352.615C402.112 352.579 401.883 352.58 401.652 352.62C401.421 352.661 401.202 352.741 400.994 352.861L398.231 354.456L397.096 353.801ZM402.612 359.186C402.26 358.982 401.991 358.761 401.806 358.521C401.622 358.281 401.523 358.037 401.512 357.79C401.5 357.55 401.584 357.322 401.763 357.105L403.218 357.485C403.068 357.652 403.028 357.832 403.097 358.026C403.166 358.226 403.351 358.412 403.652 358.586C403.883 358.719 404.128 358.811 404.388 358.861C404.654 358.914 404.919 358.921 405.185 358.881C405.445 358.844 405.69 358.759 405.921 358.626L406.995 358.005L406.952 358.281C406.507 358.351 406.077 358.349 405.661 358.276C405.245 358.202 404.864 358.066 404.518 357.865C404.079 357.612 403.787 357.327 403.643 357.01C403.498 356.694 403.504 356.377 403.66 356.06C403.816 355.743 404.114 355.458 404.552 355.205C404.997 354.948 405.491 354.776 406.034 354.69C406.577 354.603 407.117 354.601 407.654 354.685C408.197 354.765 408.685 354.93 409.118 355.18C409.47 355.383 409.704 355.605 409.819 355.845C409.947 356.085 409.961 356.337 409.863 356.6L409.421 356.675L410.461 356.075L411.535 356.695L407.056 359.281C406.646 359.517 406.178 359.671 405.653 359.741C405.133 359.814 404.607 359.804 404.076 359.711C403.55 359.621 403.062 359.446 402.612 359.186ZM405.705 357.34C405.947 357.48 406.21 357.572 406.493 357.615C406.787 357.659 407.082 357.655 407.377 357.605C407.671 357.555 407.943 357.459 408.191 357.315C408.433 357.175 408.595 357.019 408.676 356.845C408.768 356.672 408.777 356.5 408.702 356.33C408.633 356.163 408.48 356.012 408.243 355.875C408.006 355.738 407.737 355.647 407.437 355.6C407.137 355.553 406.834 355.555 406.528 355.605C406.233 355.655 405.965 355.75 405.722 355.89C405.479 356.03 405.315 356.185 405.228 356.355C405.147 356.529 405.144 356.7 405.219 356.87C405.3 357.044 405.462 357.2 405.705 357.34ZM411.717 362.362C411.307 362.125 411.001 361.862 410.799 361.572C410.603 361.285 410.51 360.992 410.522 360.691C410.545 360.391 410.678 360.105 410.92 359.831L412.324 360.151C412.11 360.455 412.044 360.753 412.124 361.047C412.211 361.337 412.439 361.588 412.809 361.802C413.017 361.922 413.228 362.007 413.441 362.057C413.666 362.107 413.877 362.122 414.074 362.102C414.276 362.085 414.458 362.03 414.619 361.937C414.81 361.827 414.908 361.703 414.914 361.567C414.931 361.43 414.862 361.277 414.706 361.107L413.866 360.161C413.519 359.781 413.375 359.428 413.433 359.101C413.49 358.774 413.73 358.489 414.152 358.246C414.521 358.033 414.937 357.896 415.399 357.836C415.867 357.779 416.34 357.799 416.82 357.896C417.311 357.993 417.767 358.163 418.188 358.406C418.575 358.629 418.861 358.874 419.046 359.141C419.237 359.405 419.326 359.673 419.315 359.946C419.315 360.22 419.211 360.483 419.003 360.736L417.599 360.426C417.796 360.166 417.853 359.913 417.773 359.666C417.698 359.416 417.493 359.194 417.158 359.001C416.961 358.888 416.753 358.808 416.534 358.761C416.32 358.711 416.109 358.696 415.901 358.716C415.705 358.736 415.526 358.793 415.364 358.886C415.185 358.989 415.084 359.114 415.061 359.261C415.044 359.405 415.116 359.566 415.278 359.746L416.092 360.646C416.439 361.04 416.592 361.395 416.551 361.712C416.517 362.032 416.283 362.317 415.849 362.567C415.48 362.78 415.058 362.914 414.585 362.967C414.111 363.02 413.626 362.997 413.129 362.897C412.633 362.797 412.162 362.619 411.717 362.362ZM416.607 365.185C416.243 364.975 416.007 364.745 415.897 364.495C415.793 364.248 415.813 363.999 415.957 363.749C416.108 363.503 416.376 363.268 416.763 363.044L419.648 361.379L420.783 362.034L417.993 363.644C417.797 363.758 417.661 363.879 417.586 364.009C417.522 364.139 417.52 364.271 417.577 364.405C417.647 364.538 417.774 364.658 417.959 364.765C418.143 364.871 418.348 364.943 418.574 364.98C418.805 365.013 419.036 365.01 419.267 364.97C419.498 364.93 419.717 364.85 419.925 364.73L422.688 363.134L423.823 363.789L419.111 366.51L418.036 365.89L418.963 365.355L418.894 365.505C418.496 365.608 418.097 365.628 417.699 365.565C417.306 365.505 416.942 365.378 416.607 365.185ZM418.433 368.119L424.878 364.398L425.944 365.014L425.008 365.554L425.138 365.359C425.554 365.305 425.97 365.319 426.385 365.399C426.807 365.475 427.2 365.619 427.564 365.829C428.008 366.085 428.3 366.38 428.439 366.714C428.577 367.047 428.566 367.381 428.404 367.714C428.248 368.051 427.939 368.353 427.477 368.619C427.021 368.883 426.501 369.063 425.918 369.159C425.334 369.256 424.754 369.264 424.176 369.184C423.605 369.101 423.091 368.928 422.634 368.664C422.294 368.468 422.045 368.248 421.889 368.004C421.745 367.761 421.716 367.517 421.803 367.274L422.21 367.249L419.568 368.774L418.433 368.119ZM423.544 367.989C423.804 368.139 424.096 368.238 424.419 368.284C424.742 368.331 425.066 368.324 425.389 368.264C425.718 368.208 426.022 368.099 426.299 367.939C426.576 367.779 426.761 367.606 426.853 367.419C426.957 367.232 426.969 367.046 426.888 366.859C426.813 366.669 426.645 366.499 426.385 366.349C426.137 366.205 425.851 366.11 425.528 366.064C425.21 366.02 424.884 366.029 424.549 366.089C424.226 366.149 423.928 366.257 423.657 366.414C423.379 366.574 423.189 366.747 423.085 366.934C422.987 367.124 422.975 367.311 423.05 367.494C423.131 367.681 423.296 367.846 423.544 367.989ZM424.253 371.479L430.698 367.758L431.764 368.374L430.828 368.914L430.958 368.719C431.374 368.665 431.79 368.679 432.206 368.759C432.627 368.835 433.02 368.979 433.384 369.189C433.829 369.446 434.12 369.741 434.259 370.074C434.398 370.407 434.386 370.741 434.224 371.074C434.068 371.411 433.759 371.713 433.297 371.979C432.841 372.243 432.321 372.423 431.738 372.519C431.155 372.616 430.574 372.625 429.997 372.544C429.425 372.461 428.911 372.288 428.455 372.024C428.114 371.828 427.866 371.608 427.71 371.364C427.565 371.121 427.537 370.877 427.623 370.634L428.03 370.609L425.388 372.134L424.253 371.479ZM429.364 371.349C429.624 371.499 429.916 371.598 430.239 371.644C430.563 371.691 430.886 371.684 431.21 371.624C431.539 371.568 431.842 371.459 432.119 371.299C432.396 371.139 432.581 370.966 432.674 370.779C432.778 370.592 432.789 370.406 432.708 370.219C432.633 370.029 432.466 369.859 432.206 369.709C431.957 369.566 431.672 369.471 431.348 369.424C431.031 369.38 430.704 369.389 430.369 369.449C430.046 369.509 429.748 369.617 429.477 369.774C429.2 369.934 429.009 370.107 428.905 370.294C428.807 370.484 428.796 370.671 428.871 370.854C428.951 371.041 429.116 371.206 429.364 371.349ZM434.007 375.229C433.545 374.963 433.23 374.658 433.062 374.314C432.901 373.974 432.892 373.632 433.036 373.289C433.187 372.949 433.498 372.642 433.972 372.369C434.446 372.095 434.977 371.915 435.566 371.829C436.161 371.745 436.753 371.75 437.342 371.844C437.931 371.937 438.459 372.119 438.927 372.389C439.389 372.656 439.701 372.959 439.863 373.299C440.024 373.639 440.03 373.979 439.88 374.319C439.741 374.659 439.432 374.968 438.953 375.244C438.48 375.518 437.945 375.696 437.35 375.78C436.756 375.863 436.164 375.858 435.575 375.765C434.986 375.671 434.463 375.493 434.007 375.229ZM435.046 374.629C435.3 374.776 435.583 374.869 435.895 374.909C436.213 374.953 436.533 374.944 436.857 374.884C437.192 374.824 437.495 374.716 437.766 374.559C438.043 374.399 438.228 374.226 438.321 374.039C438.425 373.852 438.439 373.667 438.364 373.484C438.3 373.301 438.142 373.136 437.888 372.989C437.628 372.839 437.336 372.744 437.013 372.704C436.695 372.661 436.372 372.667 436.042 372.724C435.725 372.781 435.427 372.889 435.15 373.049C434.879 373.206 434.688 373.379 434.578 373.569C434.48 373.759 434.469 373.946 434.544 374.129C434.619 374.313 434.786 374.479 435.046 374.629ZM437.457 377.102L442.17 374.381L443.236 374.996L442.187 375.601L442.257 375.461C442.719 375.321 443.134 375.278 443.504 375.331C443.879 375.388 444.232 375.511 444.561 375.701L444.838 375.861L443.833 376.441L443.426 376.206C443.103 376.02 442.742 375.928 442.343 375.931C441.951 375.931 441.575 376.035 441.217 376.241L438.592 377.757L437.457 377.102ZM442.921 380.316C442.389 380.009 442.121 379.687 442.115 379.35C442.121 379.014 442.389 378.692 442.921 378.385L445 377.185L444.186 376.715L445.199 376.13L445.286 376.18C445.517 376.313 445.756 376.381 446.005 376.385C446.253 376.388 446.493 376.323 446.724 376.19L447.088 375.98L448.222 376.635L447.148 377.255L448.231 377.88L447.218 378.465L446.135 377.84L444.116 379.005C443.96 379.095 443.853 379.187 443.796 379.28C443.744 379.377 443.747 379.475 443.804 379.575C443.868 379.679 443.992 379.784 444.177 379.89C444.217 379.914 444.266 379.939 444.324 379.965C444.388 379.996 444.448 380.024 444.506 380.051L443.536 380.611C443.443 380.571 443.339 380.524 443.224 380.471C443.108 380.417 443.007 380.366 442.921 380.316Z" fill="#FFFAFA"/>
<path d="M373.846 273.409L380.299 269.684L381.478 270.364L376.063 273.489L378.827 275.085L377.787 275.685L373.846 273.409ZM380.654 277.46C380.192 277.193 379.878 276.888 379.71 276.545C379.548 276.205 379.54 275.863 379.684 275.52C379.834 275.18 380.146 274.873 380.62 274.6C381.093 274.326 381.625 274.146 382.214 274.059C382.808 273.976 383.4 273.981 383.989 274.074C384.579 274.168 385.107 274.349 385.575 274.62C386.037 274.886 386.349 275.19 386.51 275.53C386.672 275.87 386.678 276.21 386.528 276.55C386.389 276.89 386.08 277.198 385.601 277.475C385.127 277.749 384.593 277.927 383.998 278.01C383.403 278.094 382.811 278.089 382.222 277.995C381.633 277.902 381.111 277.724 380.654 277.46ZM381.694 276.86C381.948 277.007 382.231 277.1 382.543 277.14C382.86 277.183 383.181 277.175 383.504 277.115C383.839 277.055 384.143 276.947 384.414 276.79C384.691 276.63 384.876 276.457 384.968 276.27C385.072 276.083 385.087 275.898 385.012 275.715C384.948 275.531 384.789 275.366 384.535 275.22C384.275 275.07 383.984 274.975 383.66 274.935C383.343 274.891 383.019 274.898 382.69 274.955C382.372 275.011 382.075 275.12 381.798 275.28C381.526 275.436 381.336 275.61 381.226 275.8C381.128 275.99 381.116 276.177 381.191 276.36C381.266 276.543 381.434 276.71 381.694 276.86ZM384.105 279.332L388.818 276.612L389.883 277.227L388.956 277.762L389.034 277.617C389.427 277.517 389.82 277.497 390.212 277.557C390.617 277.617 390.986 277.744 391.321 277.937C391.668 278.137 391.899 278.357 392.014 278.597C392.136 278.84 392.136 279.084 392.014 279.327C391.899 279.567 391.665 279.789 391.313 279.992L388.281 281.743L387.146 281.088L389.909 279.492C390.117 279.372 390.256 279.246 390.325 279.112C390.394 278.979 390.397 278.847 390.334 278.717C390.282 278.587 390.16 278.467 389.97 278.357C389.785 278.25 389.577 278.18 389.346 278.147C389.121 278.11 388.893 278.112 388.662 278.152C388.431 278.192 388.211 278.272 388.003 278.392L385.24 279.987L384.105 279.332ZM389.621 284.717C389.269 284.514 389 284.292 388.816 284.052C388.631 283.812 388.533 283.569 388.521 283.322C388.51 283.082 388.593 282.854 388.772 282.637L390.228 283.017C390.078 283.184 390.037 283.364 390.106 283.557C390.176 283.757 390.361 283.944 390.661 284.117C390.892 284.25 391.137 284.342 391.397 284.392C391.663 284.446 391.929 284.452 392.194 284.412C392.454 284.375 392.7 284.29 392.931 284.157L394.005 283.537L393.961 283.812C393.517 283.882 393.086 283.88 392.671 283.807C392.255 283.734 391.874 283.597 391.527 283.397C391.088 283.144 390.797 282.859 390.652 282.542C390.508 282.225 390.514 281.908 390.67 281.592C390.825 281.275 391.123 280.99 391.562 280.736C392.006 280.48 392.5 280.308 393.043 280.221C393.586 280.135 394.126 280.133 394.663 280.216C395.206 280.296 395.694 280.461 396.127 280.711C396.479 280.915 396.713 281.136 396.829 281.377C396.956 281.617 396.97 281.868 396.872 282.132L396.43 282.207L397.47 281.607L398.544 282.227L394.065 284.812C393.655 285.049 393.188 285.202 392.662 285.272C392.142 285.346 391.617 285.336 391.085 285.242C390.56 285.152 390.072 284.977 389.621 284.717ZM392.714 282.872C392.957 283.012 393.219 283.104 393.502 283.147C393.797 283.19 394.091 283.187 394.386 283.137C394.68 283.087 394.952 282.99 395.2 282.847C395.443 282.707 395.604 282.55 395.685 282.377C395.778 282.203 395.786 282.032 395.711 281.862C395.642 281.695 395.489 281.543 395.252 281.407C395.015 281.27 394.747 281.178 394.447 281.131C394.146 281.085 393.843 281.086 393.537 281.136C393.242 281.186 392.974 281.282 392.731 281.422C392.489 281.562 392.324 281.717 392.238 281.887C392.157 282.06 392.154 282.232 392.229 282.402C392.31 282.575 392.471 282.732 392.714 282.872ZM398.527 287.718C397.996 287.412 397.728 287.09 397.722 286.753C397.728 286.416 397.996 286.095 398.527 285.788L400.606 284.588L399.792 284.117L400.806 283.532L400.892 283.582C401.123 283.716 401.363 283.784 401.611 283.787C401.86 283.791 402.099 283.726 402.33 283.592L402.694 283.382L403.829 284.037L402.755 284.658L403.838 285.283L402.824 285.868L401.741 285.243L399.723 286.408C399.567 286.498 399.46 286.59 399.402 286.683C399.35 286.78 399.353 286.878 399.411 286.978C399.475 287.081 399.599 287.186 399.784 287.293C399.824 287.316 399.873 287.342 399.931 287.368C399.994 287.398 400.055 287.427 400.113 287.453L399.142 288.013C399.05 287.973 398.946 287.927 398.831 287.873C398.715 287.82 398.614 287.768 398.527 287.718ZM402.098 289.84C401.613 289.56 401.298 289.251 401.154 288.915C401.01 288.578 401.024 288.243 401.197 287.909C401.371 287.576 401.685 287.278 402.142 287.014C402.615 286.741 403.135 286.557 403.701 286.464C404.278 286.371 404.85 286.364 405.416 286.444C405.988 286.527 406.493 286.696 406.932 286.949C407.302 287.162 407.564 287.384 407.72 287.614C407.882 287.848 407.954 288.083 407.937 288.319C407.92 288.556 407.824 288.784 407.651 289.005C407.484 289.221 407.241 289.421 406.923 289.605C406.843 289.651 406.753 289.696 406.655 289.74C406.562 289.786 406.473 289.821 406.386 289.845L402.748 287.744L403.614 287.244L406.612 288.975L405.667 288.9C405.985 288.776 406.207 288.631 406.334 288.464C406.467 288.301 406.505 288.133 406.447 287.959C406.395 287.789 406.245 287.633 405.997 287.489C405.76 287.353 405.488 287.266 405.182 287.229C404.882 287.189 404.567 287.207 404.238 287.284C403.92 287.361 403.611 287.499 403.311 287.699C402.999 287.853 402.78 288.023 402.653 288.209C402.537 288.396 402.517 288.581 402.592 288.764C402.673 288.951 402.843 289.12 403.103 289.27C403.363 289.42 403.637 289.515 403.926 289.555C404.221 289.598 404.512 289.596 404.801 289.55L405.269 290.34C404.951 290.416 404.608 290.448 404.238 290.435C403.868 290.422 403.499 290.365 403.129 290.265C402.765 290.168 402.422 290.026 402.098 289.84ZM405.271 291.552L409.984 288.831L411.05 289.446L410.001 290.051L410.071 289.911C410.533 289.771 410.949 289.728 411.318 289.781C411.694 289.838 412.046 289.961 412.375 290.151L412.652 290.311L411.647 290.891L411.24 290.656C410.917 290.47 410.556 290.378 410.157 290.381C409.765 290.381 409.389 290.485 409.031 290.691L406.406 292.207L405.271 291.552ZM408.512 293.422L413.224 290.702L414.29 291.317L413.198 291.947L413.259 291.772C413.686 291.625 414.114 291.578 414.541 291.632C414.968 291.685 415.358 291.813 415.71 292.017C416.097 292.24 416.337 292.495 416.429 292.782C416.522 293.069 416.447 293.332 416.204 293.572L415.858 293.402C416.377 293.269 416.874 293.232 417.348 293.292C417.827 293.349 418.254 293.485 418.63 293.702C418.965 293.896 419.187 294.111 419.297 294.347C419.412 294.587 419.409 294.829 419.288 295.072C419.173 295.313 418.939 295.534 418.586 295.738L415.554 297.488L414.42 296.833L417.183 295.237C417.391 295.117 417.532 294.992 417.608 294.862C417.683 294.732 417.694 294.606 417.642 294.482C417.596 294.356 417.478 294.237 417.287 294.127C417.108 294.024 416.906 293.957 416.681 293.927C416.461 293.894 416.239 293.899 416.014 293.942C415.788 293.986 415.572 294.067 415.364 294.187L412.6 295.783L411.466 295.127L414.229 293.532C414.437 293.412 414.578 293.287 414.654 293.157C414.729 293.027 414.737 292.899 414.68 292.772C414.633 292.645 414.518 292.529 414.333 292.422C414.154 292.319 413.952 292.252 413.727 292.222C413.507 292.189 413.285 292.194 413.06 292.237C412.834 292.28 412.618 292.362 412.41 292.482L409.646 294.077L408.512 293.422ZM416.322 299.931L422.767 296.211L423.832 296.826L422.897 297.366L423.027 297.171C423.443 297.117 423.858 297.131 424.274 297.211C424.696 297.287 425.088 297.431 425.452 297.641C425.897 297.898 426.189 298.193 426.327 298.526C426.466 298.859 426.454 299.193 426.293 299.526C426.137 299.863 425.828 300.165 425.366 300.431C424.909 300.695 424.39 300.875 423.806 300.972C423.223 301.068 422.643 301.077 422.065 300.997C421.493 300.913 420.979 300.74 420.523 300.476C420.182 300.28 419.934 300.06 419.778 299.816C419.634 299.573 419.605 299.329 419.691 299.086L420.099 299.061L417.456 300.586L416.322 299.931ZM421.433 299.801C421.693 299.951 421.984 300.05 422.308 300.096C422.631 300.143 422.954 300.136 423.278 300.076C423.607 300.02 423.91 299.911 424.188 299.751C424.465 299.591 424.65 299.418 424.742 299.231C424.846 299.044 424.857 298.858 424.777 298.671C424.702 298.481 424.534 298.311 424.274 298.161C424.026 298.018 423.74 297.923 423.417 297.876C423.099 297.833 422.773 297.841 422.438 297.901C422.114 297.961 421.817 298.069 421.545 298.226C421.268 298.386 421.078 298.559 420.974 298.746C420.875 298.936 420.864 299.123 420.939 299.306C421.02 299.493 421.184 299.658 421.433 299.801ZM425.2 303.176C424.871 302.986 424.64 302.79 424.507 302.586C424.374 302.383 424.342 302.184 424.412 301.991C424.487 301.794 424.66 301.618 424.931 301.461C425.191 301.311 425.48 301.211 425.798 301.161C426.121 301.108 426.473 301.111 426.855 301.171C427.236 301.231 427.64 301.351 428.067 301.531L429.861 302.276L428.994 302.776L427.444 302.141C427.178 302.034 426.938 301.979 426.725 301.976C426.511 301.973 426.32 302.019 426.153 302.116C425.991 302.209 425.922 302.319 425.945 302.446C425.98 302.573 426.089 302.69 426.274 302.796C426.511 302.933 426.768 303.025 427.045 303.071C427.334 303.118 427.617 303.118 427.894 303.071C428.177 303.028 428.425 302.945 428.639 302.821L429.852 302.121C430.054 302.004 430.141 301.861 430.112 301.691C430.094 301.521 429.956 301.361 429.696 301.211C429.453 301.071 429.17 300.984 428.847 300.951C428.535 300.918 428.229 300.938 427.929 301.011L427.452 300.216C427.793 300.126 428.151 300.086 428.527 300.096C428.913 300.106 429.295 300.159 429.67 300.256C430.045 300.352 430.392 300.492 430.71 300.676C431.096 300.899 431.365 301.138 431.515 301.391C431.671 301.641 431.703 301.886 431.61 302.126C431.53 302.366 431.322 302.583 430.987 302.776L427.851 304.587L426.777 303.967L427.582 303.501L427.842 303.631C427.519 303.678 427.204 303.693 426.898 303.676C426.598 303.656 426.303 303.606 426.014 303.526C425.731 303.443 425.46 303.326 425.2 303.176ZM428.9 305.192L433.612 302.472L434.678 303.087L433.63 303.692L433.699 303.552C434.161 303.412 434.577 303.368 434.946 303.422C435.322 303.478 435.674 303.602 436.003 303.792L436.28 303.952L435.276 304.532L434.868 304.297C434.545 304.11 434.184 304.019 433.786 304.022C433.393 304.022 433.017 304.125 432.659 304.332L430.035 305.847L428.9 305.192ZM434.363 308.406C433.832 308.099 433.563 307.778 433.557 307.441C433.563 307.104 433.832 306.783 434.363 306.476L436.442 305.276L435.628 304.805L436.641 304.22L436.728 304.27C436.959 304.404 437.199 304.472 437.447 304.475C437.695 304.479 437.935 304.414 438.166 304.28L438.53 304.07L439.665 304.725L438.591 305.346L439.673 305.971L438.66 306.556L437.577 305.931L435.559 307.096C435.403 307.186 435.296 307.278 435.238 307.371C435.186 307.468 435.189 307.566 435.247 307.666C435.31 307.769 435.434 307.874 435.619 307.981C435.66 308.004 435.709 308.029 435.766 308.056C435.83 308.086 435.891 308.114 435.948 308.141L434.978 308.701C434.886 308.661 434.782 308.615 434.666 308.561C434.551 308.508 434.45 308.456 434.363 308.406ZM435.845 309.202L440.558 306.481L441.623 307.096L440.696 307.631L440.774 307.486C441.167 307.386 441.56 307.366 441.952 307.426C442.357 307.486 442.726 307.613 443.061 307.806C443.408 308.007 443.639 308.227 443.754 308.467C443.876 308.71 443.876 308.953 443.754 309.197C443.639 309.437 443.405 309.659 443.053 309.862L440.021 311.612L438.886 310.957L441.649 309.362C441.857 309.242 441.996 309.115 442.065 308.982C442.134 308.848 442.137 308.717 442.074 308.587C442.022 308.457 441.9 308.337 441.71 308.227C441.525 308.12 441.317 308.05 441.086 308.017C440.861 307.98 440.633 307.982 440.402 308.022C440.171 308.062 439.951 308.142 439.743 308.262L436.98 309.857L435.845 309.202ZM443.111 313.517C442.626 313.236 442.311 312.928 442.167 312.591C442.023 312.255 442.037 311.92 442.21 311.586C442.384 311.253 442.698 310.954 443.155 310.691C443.628 310.418 444.148 310.234 444.714 310.141C445.291 310.047 445.863 310.041 446.429 310.121C447.001 310.204 447.506 310.373 447.945 310.626C448.315 310.839 448.578 311.061 448.733 311.291C448.895 311.524 448.967 311.76 448.95 311.996C448.933 312.233 448.837 312.461 448.664 312.681C448.497 312.898 448.254 313.098 447.937 313.282C447.856 313.328 447.766 313.373 447.668 313.417C447.576 313.463 447.486 313.498 447.399 313.522L443.761 311.421L444.627 310.921L447.625 312.651L446.68 312.576C446.998 312.453 447.22 312.308 447.347 312.141C447.48 311.978 447.518 311.81 447.46 311.636C447.408 311.466 447.258 311.309 447.01 311.166C446.773 311.029 446.501 310.943 446.195 310.906C445.895 310.866 445.58 310.884 445.251 310.961C444.933 311.038 444.624 311.176 444.324 311.376C444.012 311.529 443.793 311.7 443.666 311.886C443.55 312.073 443.53 312.258 443.605 312.441C443.686 312.628 443.856 312.796 444.116 312.946C444.376 313.096 444.65 313.191 444.939 313.231C445.234 313.275 445.525 313.273 445.814 313.226L446.282 314.017C445.964 314.093 445.621 314.125 445.251 314.112C444.881 314.098 444.512 314.042 444.142 313.942C443.778 313.845 443.435 313.703 443.111 313.517ZM446.285 315.228L450.997 312.508L452.063 313.123L451.014 313.728L451.084 313.588C451.546 313.448 451.962 313.405 452.331 313.458C452.707 313.515 453.059 313.638 453.388 313.828L453.665 313.988L452.66 314.568L452.253 314.333C451.93 314.147 451.569 314.055 451.17 314.058C450.778 314.058 450.402 314.162 450.044 314.368L447.419 315.884L446.285 315.228ZM451.214 318.194C450.711 317.904 450.391 317.582 450.252 317.229C450.125 316.876 450.197 316.54 450.469 316.224L451.725 316.479C451.581 316.702 451.54 316.919 451.604 317.129C451.673 317.342 451.841 317.526 452.106 317.679C452.314 317.799 452.525 317.867 452.739 317.884C452.952 317.901 453.134 317.866 453.284 317.779C453.377 317.726 453.426 317.667 453.432 317.604C453.449 317.541 453.434 317.472 453.388 317.399C453.354 317.326 453.302 317.252 453.232 317.179L452.678 316.609C452.395 316.312 452.268 316.035 452.297 315.779C452.331 315.525 452.51 315.305 452.834 315.119C453.123 314.952 453.446 314.848 453.804 314.808C454.174 314.768 454.549 314.788 454.93 314.868C455.317 314.952 455.681 315.092 456.022 315.289C456.466 315.545 456.752 315.834 456.879 316.154C457.006 316.474 456.949 316.787 456.706 317.094L455.433 316.829C455.566 316.659 455.6 316.482 455.537 316.299C455.473 316.115 455.323 315.955 455.086 315.819C454.896 315.709 454.702 315.647 454.506 315.634C454.309 315.62 454.142 315.654 454.003 315.734C453.917 315.784 453.865 315.84 453.847 315.904C453.83 315.967 453.842 316.034 453.882 316.104C453.928 316.177 453.989 316.255 454.064 316.339L454.592 316.904C454.864 317.194 454.988 317.466 454.965 317.719C454.948 317.976 454.771 318.201 454.436 318.394C454.153 318.558 453.827 318.659 453.458 318.699C453.094 318.736 452.718 318.713 452.331 318.629C451.944 318.546 451.572 318.401 451.214 318.194ZM453.975 319.668L460.532 315.882L461.667 316.537L458.895 318.138L458.904 317.952C459.296 317.852 459.689 317.832 460.082 317.892C460.486 317.952 460.856 318.079 461.191 318.273C461.537 318.473 461.768 318.693 461.884 318.933C462.005 319.176 462.005 319.419 461.884 319.663C461.768 319.903 461.534 320.125 461.182 320.328L458.15 322.078L457.015 321.423L459.779 319.828C459.987 319.708 460.125 319.581 460.194 319.448C460.264 319.314 460.267 319.183 460.203 319.053C460.151 318.923 460.03 318.803 459.839 318.693C459.654 318.586 459.447 318.516 459.216 318.483C458.99 318.446 458.762 318.448 458.531 318.488C458.3 318.528 458.081 318.608 457.873 318.728L455.109 320.323L453.975 319.668ZM459.11 322.632L463.822 319.912L464.957 320.567L460.244 323.287L459.11 322.632ZM464.351 319.607L465.563 318.907L466.698 319.562L465.485 320.262L464.351 319.607ZM459.56 324.893L466.005 321.172L467.07 321.787L466.135 322.327L466.265 322.132C466.681 322.079 467.096 322.092 467.512 322.172C467.934 322.249 468.326 322.392 468.69 322.602C469.135 322.859 469.427 323.154 469.565 323.487C469.704 323.821 469.692 324.154 469.531 324.487C469.375 324.824 469.066 325.126 468.604 325.393C468.147 325.656 467.628 325.836 467.044 325.933C466.461 326.029 465.881 326.038 465.303 325.958C464.731 325.874 464.217 325.701 463.761 325.438C463.42 325.241 463.172 325.021 463.016 324.778C462.872 324.534 462.843 324.291 462.929 324.047L463.337 324.022L460.694 325.548L459.56 324.893ZM464.671 324.763C464.931 324.913 465.222 325.011 465.546 325.058C465.869 325.104 466.192 325.098 466.516 325.038C466.845 324.981 467.148 324.873 467.426 324.713C467.703 324.553 467.888 324.379 467.98 324.192C468.084 324.006 468.095 323.819 468.015 323.632C467.94 323.442 467.772 323.272 467.512 323.122C467.264 322.979 466.978 322.884 466.655 322.837C466.337 322.794 466.011 322.802 465.676 322.862C465.352 322.922 465.055 323.031 464.783 323.187C464.506 323.347 464.316 323.521 464.212 323.707C464.113 323.897 464.102 324.084 464.177 324.267C464.258 324.454 464.422 324.619 464.671 324.763Z" fill="#FFFAFA"/>
<path d="M397.441 221.909L403.895 218.183L406.303 219.573C406.742 219.827 407.048 220.097 407.222 220.384C407.406 220.67 407.441 220.957 407.326 221.244C407.216 221.527 406.944 221.794 406.511 222.044C406.084 222.291 405.619 222.446 405.116 222.509C404.626 222.572 404.132 222.554 403.635 222.454C403.138 222.354 402.671 222.177 402.232 221.924L401.002 221.214L398.619 222.589L397.441 221.909ZM402.041 220.614L403.289 221.334C403.502 221.457 403.728 221.54 403.964 221.584C404.207 221.624 404.447 221.626 404.683 221.589C404.92 221.552 405.137 221.477 405.333 221.364C405.535 221.247 405.665 221.122 405.723 220.989C405.786 220.852 405.781 220.715 405.706 220.579C405.636 220.439 405.495 220.307 405.281 220.184L404.034 219.463L402.041 220.614ZM402.963 225.097L407.676 222.376L408.741 222.991L407.693 223.596L407.762 223.456C408.224 223.316 408.64 223.273 409.01 223.326C409.385 223.383 409.738 223.506 410.067 223.696L410.344 223.856L409.339 224.437L408.932 224.202C408.609 224.015 408.248 223.923 407.849 223.927C407.456 223.927 407.081 224.03 406.723 224.237L404.098 225.752L402.963 225.097ZM406.203 226.967L410.916 224.247L412.051 224.902L407.338 227.622L406.203 226.967ZM411.444 223.942L412.657 223.241L413.792 223.897L412.579 224.597L411.444 223.942ZM410.586 229.618C410.124 229.351 409.81 229.046 409.642 228.702C409.48 228.362 409.472 228.021 409.616 227.677C409.766 227.337 410.078 227.03 410.552 226.757C411.025 226.484 411.557 226.304 412.146 226.217C412.74 226.134 413.332 226.139 413.922 226.232C414.511 226.325 415.039 226.507 415.507 226.777C415.969 227.044 416.281 227.347 416.442 227.687C416.604 228.027 416.61 228.367 416.46 228.707C416.321 229.047 416.012 229.356 415.533 229.633C415.059 229.906 414.525 230.084 413.93 230.168C413.335 230.251 412.743 230.246 412.154 230.153C411.565 230.059 411.043 229.881 410.586 229.618ZM411.626 229.017C411.88 229.164 412.163 229.258 412.475 229.298C412.792 229.341 413.113 229.333 413.436 229.273C413.771 229.213 414.075 229.104 414.346 228.947C414.623 228.787 414.808 228.614 414.9 228.427C415.004 228.241 415.019 228.056 414.944 227.872C414.88 227.689 414.721 227.524 414.467 227.377C414.207 227.227 413.916 227.132 413.592 227.092C413.275 227.049 412.951 227.055 412.622 227.112C412.304 227.169 412.007 227.277 411.73 227.437C411.458 227.594 411.268 227.767 411.158 227.957C411.06 228.147 411.048 228.334 411.123 228.517C411.198 228.701 411.366 228.867 411.626 229.017ZM414.037 231.49L418.75 228.769L419.815 229.384L418.767 229.989L418.836 229.849C419.298 229.709 419.714 229.666 420.084 229.719C420.459 229.776 420.811 229.899 421.141 230.089L421.418 230.249L420.413 230.83L420.006 230.595C419.682 230.408 419.321 230.316 418.923 230.319C418.53 230.319 418.155 230.423 417.797 230.63L415.172 232.145L414.037 231.49ZM417.277 233.36L421.99 230.64L423.125 231.295L418.412 234.015L417.277 233.36ZM422.518 230.335L423.731 229.634L424.866 230.29L423.653 230.99L422.518 230.335ZM421.556 235.891C421.025 235.584 420.756 235.262 420.751 234.925C420.756 234.589 421.025 234.267 421.556 233.96L423.635 232.76L422.821 232.29L423.835 231.705L423.921 231.755C424.152 231.888 424.392 231.956 424.64 231.96C424.889 231.963 425.128 231.898 425.359 231.765L425.723 231.555L426.858 232.21L425.784 232.83L426.867 233.455L425.853 234.04L424.77 233.415L422.752 234.58C422.596 234.67 422.489 234.762 422.431 234.855C422.379 234.952 422.382 235.05 422.44 235.15C422.503 235.254 422.628 235.359 422.812 235.465C422.853 235.489 422.902 235.514 422.96 235.54C423.023 235.57 423.084 235.599 423.142 235.625L422.171 236.186C422.079 236.146 421.975 236.099 421.859 236.046C421.744 235.992 421.643 235.941 421.556 235.891ZM421.704 238.116C421.577 238.043 421.465 237.965 421.366 237.881C421.262 237.801 421.187 237.718 421.141 237.631L422.085 237.086C422.143 237.14 422.215 237.201 422.302 237.271C422.394 237.345 422.487 237.408 422.579 237.461C422.839 237.611 423.087 237.685 423.324 237.681C423.561 237.685 423.824 237.656 424.113 237.596L425.152 237.356L424.182 237.896L427.318 233.715L428.539 234.421L426.148 237.461L425.715 237.211L430.973 235.826L432.204 236.536L424.961 238.346C424.54 238.45 424.136 238.513 423.749 238.536C423.362 238.56 422.998 238.536 422.657 238.466C422.316 238.403 421.999 238.286 421.704 238.116ZM429.221 240.255L437.901 237.815L439.426 238.695L435.198 243.706L433.916 242.966L434.843 241.901L432.348 240.46L430.494 240.99L429.221 240.255ZM433.725 240.055L435.545 241.105L437.684 238.63L438.014 238.82L433.725 240.055ZM437.818 245.338C437.35 245.068 437.035 244.763 436.873 244.423C436.723 244.083 436.726 243.745 436.882 243.408C437.044 243.068 437.358 242.763 437.826 242.493C438.294 242.223 438.82 242.043 439.403 241.952C439.986 241.862 440.569 241.862 441.153 241.952C441.742 242.046 442.27 242.228 442.738 242.498C443.073 242.691 443.324 242.906 443.492 243.143C443.665 243.376 443.752 243.613 443.752 243.853C443.763 244.093 443.674 244.321 443.483 244.538L442.054 244.213C442.204 244.026 442.247 243.831 442.184 243.628C442.126 243.428 441.964 243.251 441.699 243.098C441.45 242.954 441.167 242.861 440.85 242.818C440.538 242.778 440.22 242.788 439.897 242.848C439.573 242.908 439.273 243.018 438.996 243.178C438.719 243.338 438.528 243.511 438.424 243.698C438.32 243.885 438.303 244.068 438.372 244.248C438.447 244.431 438.609 244.595 438.857 244.738C439.129 244.895 439.438 244.99 439.784 245.023C440.131 245.056 440.468 245.028 440.798 244.938L441.343 245.773C440.985 245.873 440.595 245.925 440.174 245.928C439.758 245.928 439.345 245.88 438.935 245.783C438.531 245.683 438.158 245.535 437.818 245.338ZM443.088 248.381C442.62 248.111 442.305 247.806 442.144 247.466C441.994 247.126 441.997 246.787 442.152 246.45C442.314 246.11 442.629 245.805 443.097 245.535C443.564 245.265 444.09 245.085 444.673 244.995C445.257 244.905 445.84 244.905 446.423 244.995C447.012 245.088 447.541 245.27 448.009 245.54C448.343 245.734 448.595 245.949 448.762 246.185C448.935 246.419 449.022 246.655 449.022 246.896C449.034 247.136 448.944 247.364 448.754 247.581L447.324 247.256C447.474 247.069 447.518 246.874 447.454 246.67C447.396 246.47 447.235 246.294 446.969 246.14C446.721 245.997 446.438 245.904 446.12 245.86C445.808 245.82 445.491 245.83 445.167 245.89C444.844 245.95 444.543 246.06 444.266 246.22C443.989 246.38 443.798 246.554 443.694 246.74C443.59 246.927 443.573 247.111 443.642 247.291C443.718 247.474 443.879 247.637 444.128 247.781C444.399 247.937 444.708 248.032 445.054 248.066C445.401 248.099 445.739 248.071 446.068 247.981L446.614 248.816C446.256 248.916 445.866 248.968 445.444 248.971C445.029 248.971 444.616 248.923 444.206 248.826C443.801 248.726 443.429 248.578 443.088 248.381ZM448.324 251.403C447.839 251.123 447.524 250.815 447.38 250.478C447.235 250.142 447.25 249.806 447.423 249.473C447.596 249.14 447.911 248.841 448.367 248.578C448.841 248.304 449.36 248.121 449.926 248.028C450.504 247.934 451.076 247.928 451.642 248.008C452.213 248.091 452.719 248.259 453.158 248.513C453.527 248.726 453.79 248.948 453.946 249.178C454.108 249.411 454.18 249.646 454.163 249.883C454.145 250.12 454.05 250.348 453.877 250.568C453.709 250.785 453.467 250.985 453.149 251.168C453.068 251.215 452.979 251.26 452.88 251.303C452.788 251.35 452.699 251.385 452.612 251.408L448.974 249.308L449.84 248.808L452.837 250.538L451.893 250.463C452.211 250.34 452.433 250.195 452.56 250.028C452.693 249.865 452.73 249.696 452.673 249.523C452.621 249.353 452.47 249.196 452.222 249.053C451.985 248.916 451.714 248.83 451.408 248.793C451.107 248.753 450.793 248.771 450.464 248.848C450.146 248.925 449.837 249.063 449.537 249.263C449.225 249.416 449.005 249.586 448.878 249.773C448.763 249.96 448.743 250.145 448.818 250.328C448.898 250.515 449.069 250.683 449.329 250.833C449.589 250.983 449.863 251.078 450.152 251.118C450.446 251.162 450.738 251.16 451.027 251.113L451.494 251.904C451.177 251.98 450.833 252.012 450.464 251.999C450.094 251.985 449.724 251.929 449.355 251.829C448.991 251.732 448.647 251.59 448.324 251.403ZM453.186 254.211C452.684 253.921 452.363 253.599 452.225 253.245C452.098 252.892 452.17 252.557 452.441 252.24L453.697 252.495C453.553 252.719 453.513 252.935 453.576 253.145C453.645 253.359 453.813 253.542 454.079 253.695C454.286 253.815 454.497 253.884 454.711 253.901C454.925 253.917 455.107 253.882 455.257 253.795C455.349 253.742 455.398 253.684 455.404 253.62C455.421 253.557 455.407 253.489 455.361 253.415C455.326 253.342 455.274 253.269 455.205 253.195L454.65 252.625C454.367 252.329 454.24 252.052 454.269 251.795C454.304 251.542 454.483 251.322 454.806 251.135C455.095 250.968 455.418 250.865 455.777 250.825C456.146 250.785 456.522 250.805 456.903 250.885C457.29 250.968 457.653 251.108 457.994 251.305C458.439 251.562 458.725 251.85 458.852 252.17C458.979 252.49 458.921 252.804 458.679 253.11L457.405 252.845C457.538 252.675 457.573 252.499 457.509 252.315C457.446 252.132 457.295 251.972 457.059 251.835C456.868 251.725 456.675 251.663 456.478 251.65C456.282 251.637 456.114 251.67 455.976 251.75C455.889 251.8 455.837 251.857 455.82 251.92C455.802 251.983 455.814 252.05 455.854 252.12C455.901 252.193 455.961 252.272 456.036 252.355L456.565 252.92C456.836 253.21 456.96 253.482 456.937 253.735C456.92 253.992 456.744 254.217 456.409 254.411C456.126 254.574 455.8 254.676 455.43 254.716C455.066 254.752 454.691 254.729 454.304 254.646C453.917 254.562 453.544 254.417 453.186 254.211ZM457.636 256.779C457.134 256.489 456.813 256.168 456.675 255.814C456.548 255.461 456.62 255.126 456.891 254.809L458.147 255.064C458.003 255.287 457.962 255.504 458.026 255.714C458.095 255.928 458.263 256.111 458.528 256.264C458.736 256.384 458.947 256.453 459.161 256.469C459.375 256.486 459.556 256.451 459.707 256.364C459.799 256.311 459.848 256.253 459.854 256.189C459.871 256.126 459.857 256.058 459.811 255.984C459.776 255.911 459.724 255.838 459.655 255.764L459.1 255.194C458.817 254.897 458.69 254.621 458.719 254.364C458.754 254.111 458.933 253.891 459.256 253.704C459.545 253.537 459.868 253.434 460.226 253.394C460.596 253.354 460.971 253.374 461.353 253.454C461.739 253.537 462.103 253.677 462.444 253.874C462.889 254.131 463.175 254.419 463.302 254.739C463.429 255.059 463.371 255.373 463.128 255.679L461.855 255.414C461.988 255.244 462.022 255.067 461.959 254.884C461.895 254.701 461.745 254.541 461.508 254.404C461.318 254.294 461.124 254.232 460.928 254.219C460.732 254.206 460.564 254.239 460.426 254.319C460.339 254.369 460.287 254.426 460.27 254.489C460.252 254.552 460.264 254.619 460.304 254.689C460.351 254.762 460.411 254.841 460.486 254.924L461.015 255.489C461.286 255.779 461.41 256.051 461.387 256.304C461.37 256.561 461.194 256.786 460.859 256.98C460.576 257.143 460.249 257.245 459.88 257.285C459.516 257.321 459.141 257.298 458.754 257.215C458.367 257.131 457.994 256.986 457.636 256.779Z" fill="#FFFAFA"/>
<path d="M444.633 164.87L451.086 161.144L453.495 162.534C453.934 162.788 454.24 163.058 454.413 163.345C454.598 163.631 454.632 163.918 454.517 164.205C454.407 164.488 454.136 164.755 453.703 165.005C453.275 165.252 452.81 165.407 452.308 165.47C451.817 165.533 451.323 165.515 450.826 165.415C450.33 165.315 449.862 165.138 449.423 164.885L448.193 164.175L445.811 165.55L444.633 164.87ZM449.233 163.575L450.48 164.295C450.694 164.418 450.919 164.502 451.156 164.545C451.398 164.585 451.638 164.587 451.875 164.55C452.111 164.513 452.328 164.438 452.524 164.325C452.727 164.208 452.856 164.083 452.914 163.95C452.978 163.813 452.972 163.676 452.897 163.54C452.828 163.4 452.686 163.268 452.472 163.145L451.225 162.424L449.233 163.575ZM450.155 168.058L454.867 165.337L455.933 165.952L454.884 166.557L454.954 166.417C455.416 166.277 455.832 166.234 456.201 166.287C456.577 166.344 456.929 166.467 457.258 166.658L457.535 166.818L456.53 167.398L456.123 167.163C455.8 166.976 455.439 166.884 455.04 166.888C454.648 166.888 454.272 166.991 453.914 167.198L451.289 168.713L450.155 168.058ZM455.526 171.279C455.041 170.999 454.726 170.69 454.581 170.353C454.437 170.017 454.452 169.682 454.625 169.348C454.798 169.015 455.113 168.716 455.569 168.453C456.043 168.18 456.562 167.996 457.128 167.903C457.706 167.81 458.278 167.803 458.844 167.883C459.415 167.966 459.921 168.135 460.36 168.388C460.729 168.601 460.992 168.823 461.148 169.053C461.31 169.287 461.382 169.522 461.364 169.758C461.347 169.995 461.252 170.223 461.079 170.443C460.911 170.66 460.669 170.86 460.351 171.044C460.27 171.09 460.181 171.135 460.082 171.179C459.99 171.225 459.9 171.26 459.814 171.284L456.175 169.183L457.042 168.683L460.039 170.413L459.095 170.338C459.412 170.215 459.635 170.07 459.762 169.903C459.895 169.74 459.932 169.572 459.874 169.398C459.822 169.228 459.672 169.071 459.424 168.928C459.187 168.791 458.916 168.705 458.61 168.668C458.309 168.628 457.995 168.646 457.665 168.723C457.348 168.8 457.039 168.938 456.739 169.138C456.427 169.292 456.207 169.462 456.08 169.648C455.965 169.835 455.944 170.02 456.02 170.203C456.1 170.39 456.271 170.558 456.531 170.708C456.79 170.859 457.065 170.954 457.354 170.994C457.648 171.037 457.94 171.035 458.229 170.989L458.696 171.779C458.379 171.855 458.035 171.887 457.665 171.874C457.296 171.86 456.926 171.804 456.557 171.704C456.193 171.607 455.849 171.465 455.526 171.279ZM460.787 174.316C460.33 174.052 460.03 173.756 459.886 173.426C459.747 173.092 459.762 172.757 459.929 172.42C460.097 172.084 460.408 171.784 460.865 171.52C461.327 171.253 461.846 171.073 462.424 170.98C463.001 170.887 463.579 170.88 464.157 170.96C464.74 171.043 465.254 171.213 465.699 171.47C466.057 171.677 466.302 171.902 466.435 172.145C466.579 172.389 466.605 172.63 466.513 172.87L466.106 172.905L468.886 171.3L470.021 171.955L463.464 175.741L462.389 175.121L463.299 174.596L463.195 174.796C462.779 174.849 462.358 174.833 461.93 174.746C461.509 174.656 461.127 174.512 460.787 174.316ZM461.948 173.786C462.207 173.936 462.496 174.032 462.814 174.076C463.131 174.119 463.452 174.111 463.775 174.051C464.105 173.994 464.408 173.886 464.685 173.726C464.956 173.569 465.141 173.396 465.239 173.206C465.349 173.015 465.366 172.829 465.291 172.645C465.216 172.462 465.049 172.295 464.789 172.145C464.535 171.999 464.243 171.904 463.914 171.86C463.591 171.814 463.264 171.819 462.935 171.875C462.617 171.932 462.32 172.04 462.043 172.2C461.766 172.36 461.575 172.534 461.471 172.72C461.373 172.91 461.364 173.099 461.445 173.286C461.526 173.472 461.693 173.639 461.948 173.786ZM464.519 176.351L469.232 173.63L470.367 174.285L465.654 177.006L464.519 176.351ZM469.76 173.325L470.973 172.625L472.108 173.28L470.895 173.98L469.76 173.325ZM468.868 178.981C468.4 178.711 468.085 178.406 467.923 178.066C467.773 177.726 467.776 177.387 467.932 177.05C468.094 176.71 468.408 176.405 468.876 176.135C469.344 175.865 469.87 175.685 470.453 175.595C471.036 175.505 471.62 175.505 472.203 175.595C472.792 175.689 473.32 175.87 473.788 176.14C474.123 176.334 474.374 176.549 474.542 176.785C474.715 177.019 474.802 177.256 474.802 177.496C474.813 177.736 474.724 177.964 474.533 178.181L473.104 177.856C473.254 177.669 473.297 177.474 473.234 177.271C473.176 177.07 473.014 176.894 472.749 176.74C472.5 176.597 472.217 176.504 471.9 176.46C471.588 176.42 471.27 176.43 470.947 176.49C470.623 176.55 470.323 176.66 470.046 176.82C469.769 176.98 469.578 177.154 469.474 177.341C469.37 177.527 469.353 177.711 469.422 177.891C469.497 178.074 469.659 178.237 469.907 178.381C470.179 178.537 470.488 178.632 470.834 178.666C471.181 178.699 471.518 178.671 471.848 178.581L472.393 179.416C472.035 179.516 471.646 179.568 471.224 179.571C470.808 179.571 470.395 179.523 469.985 179.426C469.581 179.326 469.208 179.178 468.868 178.981ZM474.069 181.923C473.537 181.617 473.269 181.295 473.263 180.958C473.269 180.622 473.537 180.3 474.069 179.993L476.148 178.793L475.334 178.323L476.347 177.738L476.434 177.788C476.665 177.921 476.904 177.989 477.153 177.993C477.401 177.996 477.641 177.931 477.872 177.798L478.236 177.588L479.37 178.243L478.296 178.863L479.379 179.488L478.366 180.073L477.283 179.448L475.264 180.613C475.108 180.703 475.001 180.795 474.944 180.888C474.892 180.985 474.895 181.083 474.952 181.183C475.016 181.287 475.14 181.392 475.325 181.498C475.365 181.522 475.414 181.547 475.472 181.573C475.536 181.603 475.596 181.632 475.654 181.658L474.684 182.219C474.591 182.179 474.487 182.132 474.372 182.079C474.256 182.025 474.155 181.974 474.069 181.923ZM476.859 183.595C476.53 183.404 476.299 183.208 476.166 183.004C476.033 182.801 476.002 182.603 476.071 182.409C476.146 182.213 476.319 182.036 476.591 181.879C476.851 181.729 477.139 181.629 477.457 181.579C477.78 181.526 478.133 181.529 478.514 181.589C478.895 181.649 479.299 181.769 479.727 181.949L481.52 182.694L480.654 183.194L479.103 182.559C478.837 182.453 478.598 182.398 478.384 182.394C478.17 182.391 477.98 182.438 477.812 182.534C477.651 182.628 477.581 182.738 477.604 182.864C477.639 182.991 477.749 183.108 477.934 183.214C478.17 183.351 478.427 183.443 478.705 183.489C478.993 183.536 479.276 183.536 479.553 183.489C479.836 183.446 480.085 183.363 480.298 183.239L481.511 182.539C481.713 182.423 481.8 182.279 481.771 182.109C481.754 181.939 481.615 181.779 481.355 181.629C481.113 181.489 480.83 181.402 480.506 181.369C480.195 181.336 479.888 181.356 479.588 181.429L479.112 180.634C479.452 180.544 479.81 180.504 480.186 180.514C480.573 180.524 480.954 180.577 481.329 180.674C481.705 180.771 482.051 180.911 482.369 181.094C482.756 181.317 483.024 181.556 483.175 181.809C483.33 182.059 483.362 182.304 483.27 182.544C483.189 182.784 482.981 183.001 482.646 183.194L479.51 185.005L478.436 184.385L479.242 183.92L479.502 184.05C479.178 184.096 478.863 184.111 478.557 184.095C478.257 184.075 477.962 184.025 477.674 183.945C477.391 183.861 477.119 183.745 476.859 183.595ZM483.028 187.156C482.687 186.959 482.439 186.739 482.283 186.496C482.139 186.252 482.11 186.009 482.196 185.765L482.534 185.7L481.625 186.225L480.559 185.61L487.117 181.825L488.252 182.48L485.471 184.085L485.532 183.85C485.947 183.797 486.363 183.81 486.779 183.89C487.201 183.967 487.593 184.11 487.957 184.32C488.402 184.577 488.693 184.872 488.832 185.205C488.971 185.539 488.959 185.872 488.797 186.205C488.641 186.542 488.333 186.844 487.87 187.111C487.414 187.374 486.894 187.554 486.311 187.651C485.728 187.747 485.147 187.756 484.57 187.676C483.998 187.592 483.484 187.419 483.028 187.156ZM483.938 186.481C484.197 186.631 484.489 186.729 484.813 186.776C485.136 186.822 485.459 186.816 485.783 186.756C486.112 186.699 486.415 186.591 486.692 186.43C486.97 186.27 487.154 186.097 487.247 185.91C487.351 185.724 487.362 185.537 487.281 185.35C487.206 185.16 487.039 184.99 486.779 184.84C486.531 184.697 486.245 184.602 485.921 184.555C485.604 184.512 485.277 184.52 484.942 184.58C484.619 184.64 484.322 184.748 484.05 184.905C483.773 185.065 483.582 185.239 483.478 185.425C483.38 185.615 483.369 185.802 483.444 185.985C483.525 186.172 483.689 186.337 483.938 186.481ZM486.379 188.97L492.937 185.185L494.072 185.84L487.514 189.626L486.379 188.97ZM490.693 191.581C490.208 191.301 489.893 190.992 489.749 190.656C489.604 190.319 489.619 189.984 489.792 189.65C489.965 189.317 490.28 189.019 490.736 188.755C491.21 188.482 491.73 188.298 492.296 188.205C492.873 188.112 493.445 188.105 494.011 188.185C494.583 188.268 495.088 188.437 495.527 188.69C495.897 188.903 496.159 189.125 496.315 189.355C496.477 189.589 496.549 189.824 496.532 190.06C496.514 190.297 496.419 190.526 496.246 190.746C496.078 190.962 495.836 191.162 495.518 191.346C495.437 191.392 495.348 191.437 495.25 191.481C495.157 191.527 495.068 191.562 494.981 191.586L491.343 189.485L492.209 188.985L495.206 190.716L494.262 190.641C494.58 190.517 494.802 190.372 494.929 190.205C495.062 190.042 495.1 189.874 495.042 189.7C494.99 189.53 494.84 189.374 494.591 189.23C494.355 189.094 494.083 189.007 493.777 188.97C493.477 188.93 493.162 188.949 492.833 189.025C492.515 189.102 492.206 189.24 491.906 189.44C491.594 189.594 491.375 189.764 491.247 189.95C491.132 190.137 491.112 190.322 491.187 190.505C491.268 190.692 491.438 190.861 491.698 191.011C491.958 191.161 492.232 191.256 492.521 191.296C492.815 191.339 493.107 191.337 493.396 191.291L493.864 192.081C493.546 192.158 493.202 192.189 492.833 192.176C492.463 192.163 492.094 192.106 491.724 192.006C491.36 191.909 491.016 191.767 490.693 191.581ZM451.585 182.003C451.123 181.736 450.779 181.441 450.554 181.117C450.334 180.797 450.227 180.466 450.233 180.122C450.245 179.782 450.372 179.449 450.614 179.122C450.857 178.795 451.218 178.493 451.697 178.217C452.177 177.94 452.696 177.73 453.257 177.587C453.828 177.443 454.406 177.37 454.989 177.367C455.584 177.363 456.159 177.428 456.713 177.562C457.273 177.692 457.784 177.89 458.246 178.157C458.708 178.423 459.043 178.707 459.251 179.007C459.465 179.31 459.569 179.61 459.563 179.907C459.563 180.201 459.465 180.467 459.269 180.707L457.718 180.382C457.92 180.126 457.981 179.854 457.9 179.567C457.825 179.277 457.582 179.014 457.172 178.777C456.768 178.544 456.315 178.392 455.812 178.322C455.315 178.255 454.813 178.268 454.305 178.362C453.802 178.458 453.326 178.637 452.875 178.897C452.425 179.157 452.113 179.434 451.94 179.727C451.778 180.02 451.755 180.311 451.871 180.597C451.992 180.887 452.255 181.149 452.659 181.382C453.069 181.619 453.522 181.761 454.019 181.808C454.521 181.851 454.995 181.814 455.44 181.698L456.003 182.593C455.587 182.706 455.122 182.764 454.608 182.768C454.1 182.768 453.583 182.706 453.057 182.583C452.538 182.463 452.047 182.269 451.585 182.003ZM457.386 185.352C456.924 185.085 456.609 184.78 456.441 184.436C456.28 184.096 456.271 183.755 456.415 183.411C456.566 183.071 456.877 182.764 457.351 182.491C457.825 182.218 458.356 182.037 458.945 181.951C459.54 181.867 460.132 181.872 460.721 181.966C461.31 182.059 461.838 182.241 462.306 182.511C462.768 182.778 463.08 183.081 463.242 183.421C463.403 183.761 463.409 184.101 463.259 184.441C463.12 184.781 462.811 185.09 462.332 185.367C461.859 185.64 461.324 185.818 460.73 185.902C460.135 185.985 459.543 185.98 458.954 185.887C458.365 185.793 457.842 185.615 457.386 185.352ZM458.425 184.751C458.679 184.898 458.962 184.991 459.274 185.031C459.592 185.075 459.912 185.066 460.236 185.006C460.571 184.946 460.874 184.838 461.145 184.681C461.423 184.521 461.607 184.348 461.7 184.161C461.804 183.975 461.818 183.79 461.743 183.606C461.68 183.423 461.521 183.258 461.267 183.111C461.007 182.961 460.715 182.866 460.392 182.826C460.074 182.783 459.751 182.789 459.421 182.846C459.104 182.903 458.806 183.011 458.529 183.171C458.258 183.328 458.067 183.501 457.957 183.691C457.859 183.881 457.848 184.068 457.923 184.251C457.998 184.435 458.165 184.601 458.425 184.751ZM462.526 188.319C462.023 188.029 461.703 187.707 461.564 187.354C461.437 187 461.509 186.665 461.781 186.348L463.037 186.603C462.892 186.827 462.852 187.044 462.916 187.254C462.985 187.467 463.152 187.65 463.418 187.804C463.626 187.924 463.837 187.992 464.05 188.009C464.264 188.025 464.446 187.99 464.596 187.904C464.689 187.85 464.738 187.792 464.743 187.729C464.761 187.665 464.746 187.597 464.7 187.524C464.665 187.45 464.613 187.377 464.544 187.304L463.99 186.734C463.707 186.437 463.58 186.16 463.609 185.903C463.643 185.65 463.822 185.43 464.146 185.243C464.434 185.077 464.758 184.973 465.116 184.933C465.486 184.893 465.861 184.913 466.242 184.993C466.629 185.077 466.993 185.217 467.334 185.413C467.778 185.67 468.064 185.958 468.191 186.278C468.318 186.598 468.261 186.912 468.018 187.219L466.745 186.954C466.877 186.784 466.912 186.607 466.848 186.423C466.785 186.24 466.635 186.08 466.398 185.943C466.207 185.833 466.014 185.772 465.818 185.758C465.621 185.745 465.454 185.778 465.315 185.858C465.229 185.908 465.177 185.965 465.159 186.028C465.142 186.092 465.153 186.158 465.194 186.228C465.24 186.302 465.301 186.38 465.376 186.463L465.904 187.029C466.176 187.319 466.3 187.59 466.277 187.844C466.259 188.1 466.083 188.326 465.748 188.519C465.465 188.682 465.139 188.784 464.769 188.824C464.406 188.861 464.03 188.837 463.643 188.754C463.256 188.671 462.884 188.526 462.526 188.319ZM467.383 191.063C466.851 190.756 466.583 190.434 466.577 190.098C466.583 189.761 466.851 189.439 467.383 189.132L469.462 187.932L468.647 187.462L469.661 186.877L469.748 186.927C469.979 187.06 470.218 187.129 470.467 187.132C470.715 187.135 470.955 187.07 471.186 186.937L471.55 186.727L472.684 187.382L471.61 188.002L472.693 188.627L471.679 189.212L470.597 188.587L468.578 189.753C468.422 189.843 468.315 189.934 468.258 190.028C468.206 190.124 468.209 190.223 468.266 190.323C468.33 190.426 468.454 190.531 468.639 190.638C468.679 190.661 468.728 190.686 468.786 190.713C468.85 190.743 468.91 190.771 468.968 190.798L467.998 191.358C467.905 191.318 467.801 191.271 467.686 191.218C467.57 191.164 467.469 191.113 467.383 191.063Z" fill="#0E3572"/>
<path d="M125 405.5L151 420.511L227.5 376.344L319.5 429.46L361 405.5M141 391.5L90 362.055L125 341.848L-4 267.37L31.2814 247" stroke="#0E3572" stroke-dasharray="12 2"/>
</g>
<defs>
<radialGradient id="paint0_radial_1719_17505" cx="0" cy="0" r="1" gradientUnits="userSpaceOnUse" gradientTransform="translate(512.606 570.816) rotate(90) scale(526.351 526.351)">
<stop stop-color="#D9D9D9"/>
<stop offset="0.890272" stop-color="#D9D9D9" stop-opacity="0"/>
</radialGradient>
<linearGradient id="paint1_linear_1719_17505" x1="628" y1="113" x2="2.00001" y2="472.5" gradientUnits="userSpaceOnUse">
<stop stop-color="#0E3572" stop-opacity="0"/>
<stop offset="0.1" stop-color="#0E3572"/>
<stop offset="0.9" stop-color="#0E3572"/>
<stop offset="1" stop-color="#0E3572" stop-opacity="0"/>
</linearGradient>
<linearGradient id="paint2_linear_1719_17505" x1="462" y1="3.84995" x2="28.6185" y2="252.736" gradientUnits="userSpaceOnUse">
<stop stop-color="#0E3572" stop-opacity="0"/>
<stop offset="0.1" stop-color="#0E3572"/>
<stop offset="0.9" stop-color="#0E3572"/>
<stop offset="1" stop-color="#0E3572" stop-opacity="0"/>
</linearGradient>
<linearGradient id="paint3_linear_1719_17505" x1="508" y1="40.85" x2="74.6185" y2="289.736" gradientUnits="userSpaceOnUse">
<stop stop-color="#0E3572" stop-opacity="0"/>
<stop offset="0.1" stop-color="#0E3572"/>
<stop offset="0.9" stop-color="#0E3572"/>
<stop offset="1" stop-color="#0E3572" stop-opacity="0"/>
</linearGradient>
<linearGradient id="paint4_linear_1719_17505" x1="542" y1="92.85" x2="108.618" y2="341.736" gradientUnits="userSpaceOnUse">
<stop stop-color="#0E3572" stop-opacity="0"/>
<stop offset="0.1" stop-color="#0E3572"/>
<stop offset="0.9" stop-color="#0E3572"/>
<stop offset="1" stop-color="#0E3572" stop-opacity="0"/>
</linearGradient>
<linearGradient id="paint5_linear_1719_17505" x1="469.163" y1="292.204" x2="469.163" y2="444" gradientUnits="userSpaceOnUse">
<stop stop-color="white"/>
<stop offset="1" stop-color="#3EAFD1"/>
</linearGradient>
<linearGradient id="paint6_linear_1719_17505" x1="469.185" y1="242.028" x2="469.185" y2="371.707" gradientUnits="userSpaceOnUse">
<stop stop-color="white"/>
<stop offset="1" stop-color="#3EAFD1"/>
</linearGradient>
<linearGradient id="paint7_linear_1719_17505" x1="469.205" y1="191.066" x2="469.205" y2="300.64" gradientUnits="userSpaceOnUse">
<stop stop-color="white"/>
<stop offset="1" stop-color="#3EAFD1"/>
</linearGradient>
<linearGradient id="paint8_linear_1719_17505" x1="469.226" y1="153.362" x2="469.226" y2="241.826" gradientUnits="userSpaceOnUse">
<stop stop-color="white"/>
<stop offset="1" stop-color="#3EAFD1"/>
</linearGradient>
<clipPath id="clip0_1719_17505">
<rect width="648" height="535" fill="white"/>
</clipPath>
</defs>
</svg>
