<svg width="24" height="24" viewBox="0 0 24 24" fill="none" xmlns="http://www.w3.org/2000/svg">
<g clip-path="url(#clip0_1402_3385)">
<path d="M5 7.19997C5 6.6165 5.23179 6.05692 5.64437 5.64434C6.05695 5.23176 6.61653 4.99997 7.2 4.99997H8.2C8.7809 4.99964 9.33809 4.76957 9.75 4.35997L10.45 3.65997C10.6545 3.45437 10.8975 3.29121 11.1652 3.17988C11.433 3.06855 11.7201 3.01123 12.01 3.01123C12.3 3.01123 12.587 3.06855 12.8548 3.17988C13.1225 3.29121 13.3656 3.45437 13.57 3.65997L14.27 4.35997C14.682 4.76997 15.24 4.99997 15.82 4.99997H16.82C17.4035 4.99997 17.9631 5.23176 18.3756 5.64434C18.7882 6.05692 19.02 6.6165 19.02 7.19997V8.19997C19.02 8.77997 19.25 9.33797 19.66 9.74997L20.36 10.45C20.5656 10.6544 20.7288 10.8975 20.8401 11.1652C20.9514 11.4329 21.0087 11.72 21.0087 12.01C21.0087 12.2999 20.9514 12.587 20.8401 12.8547C20.7288 13.1225 20.5656 13.3655 20.36 13.57L19.66 14.27C19.2504 14.6819 19.0203 15.2391 19.02 15.82V16.82C19.02 17.4034 18.7882 17.963 18.3756 18.3756C17.9631 18.7882 17.4035 19.02 16.82 19.02H15.82C15.2391 19.0203 14.6819 19.2504 14.27 19.66L13.57 20.36C13.3656 20.5656 13.1225 20.7287 12.8548 20.8401C12.587 20.9514 12.3 21.0087 12.01 21.0087C11.7201 21.0087 11.433 20.9514 11.1652 20.8401C10.8975 20.7287 10.6545 20.5656 10.45 20.36L9.75 19.66C9.33809 19.2504 8.7809 19.0203 8.2 19.02H7.2C6.61653 19.02 6.05695 18.7882 5.64437 18.3756C5.23179 17.963 5 17.4034 5 16.82V15.82C4.99967 15.2391 4.76961 14.6819 4.36 14.27L3.66 13.57C3.4544 13.3655 3.29125 13.1225 3.17991 12.8547C3.06858 12.587 3.01126 12.2999 3.01126 12.01C3.01126 11.72 3.06858 11.4329 3.17991 11.1652C3.29125 10.8975 3.4544 10.6544 3.66 10.45L4.36 9.74997C4.76961 9.33806 4.99967 8.78087 5 8.19997V7.19997Z" fill="#FFFAFA" fill-opacity="0.1"/>
<path d="M9 12L11 14L15 10" stroke="white" stroke-linecap="round" stroke-linejoin="round"/>
</g>
<defs>
<clipPath id="clip0_1402_3385">
<rect width="24" height="24" fill="white"/>
</clipPath>
</defs>
</svg>
