<svg width="24" height="24" viewBox="0 0 24 24" fill="none" xmlns="http://www.w3.org/2000/svg">
<g clip-path="url(#clip0_1413_778)">
<path d="M5.0015 7.20186C5.0015 6.61822 5.23335 6.05849 5.64604 5.6458C6.05873 5.2331 6.61847 5.00125 7.2021 5.00125H8.20238C8.78344 5.00092 9.34078 4.77079 9.75281 4.36108L10.453 3.66088C10.6575 3.45523 10.9006 3.29202 11.1684 3.18066C11.4362 3.06929 11.7234 3.01196 12.0134 3.01196C12.3035 3.01196 12.5906 3.06929 12.8584 3.18066C13.1262 3.29202 13.3694 3.45523 13.5739 3.66088L14.2741 4.36108C14.6862 4.77119 15.2443 5.00125 15.8245 5.00125H16.8248C17.4084 5.00125 17.9681 5.2331 18.3808 5.6458C18.7935 6.05849 19.0254 6.61822 19.0254 7.20186V8.20213C19.0254 8.78229 19.2554 9.34045 19.6655 9.75256L20.3657 10.4528C20.5714 10.6573 20.7346 10.9004 20.846 11.1682C20.9573 11.436 21.0146 11.7232 21.0146 12.0132C21.0146 12.3032 20.9573 12.5904 20.846 12.8582C20.7346 13.126 20.5714 13.3691 20.3657 13.5736L19.6655 14.2738C19.2558 14.6858 19.0257 15.2432 19.0254 15.8242V16.8245C19.0254 17.4081 18.7935 17.9679 18.3808 18.3806C17.9681 18.7933 17.4084 19.0251 16.8248 19.0251H15.8245C15.2434 19.0254 14.6861 19.2556 14.2741 19.6653L13.5739 20.3655C13.3694 20.5711 13.1262 20.7343 12.8584 20.8457C12.5906 20.9571 12.3035 21.0144 12.0134 21.0144C11.7234 21.0144 11.4362 20.9571 11.1684 20.8457C10.9006 20.7343 10.6575 20.5711 10.453 20.3655L9.75281 19.6653C9.34078 19.2556 8.78344 19.0254 8.20238 19.0251H7.2021C6.61847 19.0251 6.05873 18.7933 5.64604 18.3806C5.23335 17.9679 5.0015 17.4081 5.0015 16.8245V15.8242C5.00116 15.2432 4.77104 14.6858 4.36132 14.2738L3.66113 13.5736C3.45547 13.3691 3.29227 13.126 3.1809 12.8582C3.06954 12.5904 3.01221 12.3032 3.01221 12.0132C3.01221 11.7232 3.06954 11.436 3.1809 11.1682C3.29227 10.9004 3.45547 10.6573 3.66113 10.4528L4.36132 9.75256C4.77104 9.34054 5.00116 8.78319 5.0015 8.20213V7.20186Z" fill="url(#paint0_linear_1413_778)"/>
<path d="M9.00269 12.003L11.0032 14.0035L15.0043 10.0024" stroke="url(#paint1_linear_1413_778)" stroke-width="1.00028" stroke-linecap="round" stroke-linejoin="round"/>
</g>
<defs>
<linearGradient id="paint0_linear_1413_778" x1="12.0134" y1="21.0144" x2="12.0134" y2="3.01196" gradientUnits="userSpaceOnUse">
<stop stop-color="#0E3572"/>
<stop offset="1" stop-color="#07214B"/>
</linearGradient>
<linearGradient id="paint1_linear_1413_778" x1="12.0035" y1="14.0035" x2="12.0035" y2="10.0024" gradientUnits="userSpaceOnUse">
<stop stop-color="white"/>
<stop offset="1" stop-color="white" stop-opacity="0.6"/>
</linearGradient>
<clipPath id="clip0_1413_778">
<rect width="24.0066" height="24.0066" fill="white"/>
</clipPath>
</defs>
</svg>
