<svg width="77" height="77" viewBox="0 0 77 77" fill="none" xmlns="http://www.w3.org/2000/svg">
<path fill-rule="evenodd" clip-rule="evenodd" d="M32.5234 6.27002H62.3334C66.9534 6.27002 70.6568 10.01 70.6935 14.63V44.4034C70.6935 39.7834 66.9534 36.0434 62.3334 36.0434H40.9201V14.5934C40.8468 9.97335 37.1434 6.27002 32.5234 6.27002Z" fill="#0E3572"/>
<path fill-rule="evenodd" clip-rule="evenodd" d="M70.6936 66.44V44.1467C70.6936 39.6 66.9902 35.8967 62.4069 35.86H40.8836C40.4803 47.3 45.9436 52.2866 45.9436 52.2866L62.8103 69.0433C63.5436 69.7033 64.4236 70.2166 65.3769 70.5466H66.5136C68.8236 70.5833 70.6936 68.75 70.6936 66.44Z" fill="#ED1C24"/>
<path fill-rule="evenodd" clip-rule="evenodd" d="M10.3767 6.27002H32.6334C37.1801 6.27002 40.8834 9.97335 40.9201 14.5567V36.08C29.4801 36.4834 24.5301 31.02 24.5301 31.02L7.77341 14.1534C7.11341 13.42 6.60006 12.54 6.27006 11.5867V10.45C6.23339 8.10335 8.1034 6.27002 10.3767 6.27002Z" fill="#3EAFD1"/>
</svg>
