<svg width="648" height="535" viewBox="0 0 648 535" fill="none" xmlns="http://www.w3.org/2000/svg">
<g clip-path="url(#clip0_1517_328)">
<rect width="648" height="535" fill="#FFFAFA"/>
<g opacity="0.5">
<mask id="mask0_1517_328" style="mask-type:alpha" maskUnits="userSpaceOnUse" x="-539" y="-226" width="1710" height="987">
<rect width="986.692" height="986.692" transform="matrix(0.866025 0.5 -0.866025 0.5 316.033 -225.846)" fill="url(#paint0_radial_1517_328)"/>
</mask>
<g mask="url(#mask0_1517_328)">
<path d="M296.29 -213.51L-517.404 256.276" stroke="#B3B3B3"/>
<path d="M331.894 -192.956L-481.799 276.83" stroke="#B3B3B3"/>
<path d="M367.498 -172.397L-446.196 297.389" stroke="#B3B3B3"/>
<path d="M403.102 -151.842L-410.591 317.944" stroke="#B3B3B3"/>
<path d="M438.705 -131.287L-374.989 338.499" stroke="#B3B3B3"/>
<path d="M474.311 -110.73L-339.382 359.057" stroke="#B3B3B3"/>
<path d="M509.913 -90.1731L-303.78 379.613" stroke="#B3B3B3"/>
<path d="M545.517 -69.619L-268.176 400.167" stroke="#B3B3B3"/>
<path d="M581.126 -49.0613L-232.567 420.725" stroke="#B3B3B3"/>
<path d="M616.727 -28.5054L-196.966 441.281" stroke="#B3B3B3"/>
<path d="M652.331 -7.95006L-161.363 461.836" stroke="#B3B3B3"/>
<path d="M687.934 12.6066L-125.759 482.393" stroke="#B3B3B3"/>
<path d="M723.54 33.1633L-90.1533 502.949" stroke="#B3B3B3"/>
<path d="M759.145 53.7176L-54.5489 523.504" stroke="#B3B3B3"/>
<path d="M794.75 74.2753L-18.9432 544.061" stroke="#B3B3B3"/>
<path d="M830.352 94.8307L16.6582 564.617" stroke="#B3B3B3"/>
<path d="M865.958 115.386L52.2648 585.172" stroke="#B3B3B3"/>
<path d="M901.559 135.942L87.8661 605.729" stroke="#B3B3B3"/>
<path d="M937.166 156.499L123.473 626.286" stroke="#B3B3B3"/>
<path d="M972.767 177.054L159.074 646.84" stroke="#B3B3B3"/>
<path d="M1008.37 197.612L194.68 667.398" stroke="#B3B3B3"/>
<path d="M1043.98 218.167L230.284 687.953" stroke="#B3B3B3"/>
<path d="M1079.58 238.723L265.89 708.509" stroke="#B3B3B3"/>
<path d="M1115.18 259.28L301.491 729.066" stroke="#B3B3B3"/>
<path d="M1150.79 279.836L337.097 749.622" stroke="#B3B3B3"/>
<path d="M296.29 -213.51L1150.79 279.836" stroke="#B3B3B3"/>
<path d="M262.385 -193.936L1116.88 299.41" stroke="#B3B3B3"/>
<path d="M228.482 -174.361L1082.98 318.985" stroke="#B3B3B3"/>
<path d="M194.576 -154.787L1049.08 338.559" stroke="#B3B3B3"/>
<path d="M160.674 -135.213L1015.17 358.133" stroke="#B3B3B3"/>
<path d="M126.769 -115.639L981.269 377.707" stroke="#B3B3B3"/>
<path d="M92.8663 -96.0631L947.366 397.283" stroke="#B3B3B3"/>
<path d="M58.9619 -76.4887L913.462 416.857" stroke="#B3B3B3"/>
<path d="M25.0582 -56.9151L879.558 436.431" stroke="#B3B3B3"/>
<path d="M-8.84467 -37.3409L845.655 456.005" stroke="#B3B3B3"/>
<path d="M-42.749 -17.7648L811.751 475.581" stroke="#B3B3B3"/>
<path d="M-76.6544 1.80785L777.846 495.154" stroke="#B3B3B3"/>
<path d="M-110.556 21.3833L743.944 514.729" stroke="#B3B3B3"/>
<path d="M-144.462 40.9579L710.038 534.304" stroke="#B3B3B3"/>
<path d="M-178.365 60.5316L676.135 553.877" stroke="#B3B3B3"/>
<path d="M-212.267 80.1062L642.233 573.452M108.169 265.11C108.169 265.11 129.869 277.638 143.773 285.666" stroke="#B3B3B3"/>
<path d="M-246.142 99.6689L608.358 593.015" stroke="#B3B3B3"/>
<path d="M-280.046 119.242L574.454 612.588" stroke="#B3B3B3"/>
<path d="M-313.951 138.815L540.549 632.161" stroke="#B3B3B3"/>
<path d="M-347.853 158.39L506.647 651.736" stroke="#B3B3B3"/>
<path d="M-381.757 177.965L472.743 671.311" stroke="#B3B3B3"/>
<path d="M-415.659 197.538L438.841 690.884" stroke="#B3B3B3"/>
<path d="M-449.565 217.113L404.935 710.458" stroke="#B3B3B3"/>
<path d="M-483.468 236.688L371.032 730.034" stroke="#B3B3B3"/>
<path d="M-517.371 256.262L337.129 749.608" stroke="#B3B3B3"/>
</g>
</g>
<path d="M632.623 294.189L325.423 468.292L4.68135 284.44L310.813 108.963L632.623 294.189Z" fill="white"/>
<path d="M632.623 294.189L325.423 468.292L4.68135 284.44L310.813 108.963L632.623 294.189Z" fill="#FEE9EA"/>
<path d="M632.623 294.189L325.423 468.292L4.68135 284.44L310.813 108.963L632.623 294.189Z" stroke="white" stroke-opacity="0.2" stroke-width="0.5"/>
<path d="M632.623 294.189L325.423 468.292L4.68135 284.44L310.813 108.963L632.623 294.189Z" stroke="#0E3572" stroke-width="0.5"/>
<path d="M458.893 221.291C540.062 268.372 543.169 342.883 465.875 387.716C388.582 432.549 260.122 430.747 178.953 383.666C97.7834 336.585 94.6771 262.074 171.97 217.241C249.264 172.408 377.723 174.21 458.893 221.291Z" fill="white" stroke="#0E3572" stroke-width="0.5"/>
<path d="M457.857 174.472C539.027 221.554 542.133 296.065 464.84 340.897C387.546 385.73 259.087 383.928 177.917 336.847C96.7479 289.766 93.6416 215.255 170.935 170.422C248.228 125.589 376.688 127.391 457.857 174.472Z" fill="white"/>
<path d="M457.857 174.472C539.027 221.554 542.133 296.065 464.84 340.897C387.546 385.73 259.087 383.928 177.917 336.847C96.7479 289.766 93.6416 215.255 170.935 170.422C248.228 125.589 376.688 127.391 457.857 174.472Z" fill="#0E3572" fill-opacity="0.2"/>
<path d="M457.857 174.472C539.027 221.554 542.133 296.065 464.84 340.897C387.546 385.73 259.087 383.928 177.917 336.847C96.7479 289.766 93.6416 215.255 170.935 170.422C248.228 125.589 376.688 127.391 457.857 174.472Z" stroke="#0E3572" stroke-width="0.5"/>
<path d="M195.404 185.312C195.507 185.056 195.384 184.764 195.128 184.661L190.955 182.973C190.699 182.869 190.408 182.993 190.304 183.249C190.201 183.505 190.325 183.796 190.581 183.9L194.29 185.4L192.792 189.108C192.688 189.364 192.812 189.656 193.068 189.759C193.324 189.863 193.616 189.739 193.719 189.483L195.404 185.312ZM155.422 224.811L155.901 224.954C155.989 224.661 156.092 224.348 156.213 224.016L155.743 223.845L155.273 223.675C155.147 224.022 155.037 224.353 154.943 224.667L155.422 224.811ZM156.519 221.951L156.975 222.156C157.235 221.58 157.529 220.97 157.858 220.33L157.413 220.101L156.968 219.873C156.632 220.526 156.33 221.152 156.063 221.745L156.519 221.951ZM158.383 218.306L158.818 218.553C159.14 217.983 159.484 217.396 159.852 216.794L159.425 216.534L158.998 216.273C158.625 216.884 158.275 217.48 157.947 218.06L158.383 218.306ZM160.515 214.807L160.934 215.08C161.295 214.526 161.673 213.963 162.068 213.392L161.657 213.107L161.246 212.822C160.845 213.401 160.462 213.972 160.096 214.534L160.515 214.807ZM162.845 211.435L163.249 211.73C163.643 211.191 164.051 210.647 164.472 210.098L164.076 209.793L163.679 209.488C163.253 210.043 162.84 210.594 162.441 211.14L162.845 211.435ZM165.342 208.186L165.731 208.5C166.151 207.98 166.584 207.457 167.028 206.932L166.646 206.609L166.265 206.286C165.815 206.816 165.378 207.345 164.953 207.872L165.342 208.186ZM167.988 205.062L168.362 205.394C168.808 204.892 169.264 204.389 169.731 203.887L169.365 203.546L168.999 203.206C168.527 203.713 168.065 204.222 167.614 204.73L167.988 205.062ZM170.778 202.063L171.136 202.412C171.606 201.93 172.085 201.449 172.574 200.97L172.225 200.613L171.875 200.256C171.38 200.74 170.895 201.226 170.42 201.714L170.778 202.063ZM173.705 199.198L174.047 199.563C174.54 199.104 175.041 198.646 175.552 198.192L175.22 197.819L174.888 197.445C174.371 197.904 173.863 198.367 173.364 198.832L173.705 199.198ZM176.768 196.477L177.091 196.859C177.606 196.423 178.13 195.991 178.662 195.564L178.348 195.174L178.035 194.784C177.497 195.217 176.966 195.654 176.445 196.095L176.768 196.477ZM179.962 193.912L180.265 194.31C180.803 193.901 181.348 193.497 181.901 193.099L181.608 192.693L181.316 192.287C180.756 192.691 180.204 193.1 179.659 193.514L179.962 193.912ZM183.287 191.518L183.568 191.932C184.127 191.552 184.693 191.179 185.267 190.812L184.997 190.391L184.727 189.969C184.146 190.341 183.572 190.72 183.006 191.105L183.287 191.518ZM186.738 189.312L186.995 189.741C187.574 189.393 188.161 189.053 188.754 188.721L188.509 188.285L188.264 187.848C187.663 188.186 187.068 188.531 186.48 188.883L186.738 189.312ZM190.31 187.311L190.541 187.754C191.14 187.442 191.746 187.138 192.358 186.843L192.14 186.392L191.923 185.942C191.302 186.242 190.687 186.55 190.079 186.867L190.31 187.311ZM193.999 185.532L194.202 185.989C194.512 185.852 194.823 185.717 195.136 185.584L194.94 185.124L194.745 184.664C194.427 184.799 194.111 184.936 193.796 185.075L193.999 185.532Z" fill="#0E3572"/>
<path d="M279.754 350.21C279.52 350.357 279.45 350.666 279.597 350.899L281.999 354.705C282.146 354.939 282.455 355.009 282.688 354.861C282.922 354.714 282.992 354.405 282.844 354.172L280.71 350.789L284.093 348.655C284.327 348.507 284.396 348.198 284.249 347.965C284.102 347.731 283.793 347.661 283.559 347.809L279.754 350.21ZM280.02 350.633L279.91 351.12C280.229 351.193 280.557 351.265 280.893 351.337L280.999 350.849L281.104 350.36C280.771 350.288 280.446 350.217 280.131 350.145L280.02 350.633ZM282.995 351.259L282.898 351.75C283.541 351.876 284.208 352.002 284.899 352.127L284.988 351.635L285.077 351.143C284.391 351.019 283.729 350.894 283.091 350.768L282.995 351.259ZM286.984 351.983L286.901 352.476C287.553 352.585 288.222 352.694 288.909 352.801L288.986 352.307L289.063 351.813C288.38 351.706 287.714 351.598 287.066 351.49L286.984 351.983ZM290.993 352.609L290.921 353.103C291.579 353.199 292.252 353.293 292.936 353.386L293.003 352.89L293.07 352.395C292.389 352.303 291.72 352.209 291.064 352.114L290.993 352.609ZM295.018 353.153L294.955 353.649C295.618 353.732 296.292 353.814 296.976 353.893L297.033 353.397L297.091 352.9C296.411 352.821 295.74 352.739 295.08 352.657L295.018 353.153ZM299.046 353.623L298.992 354.12C299.657 354.191 300.33 354.261 301.012 354.329L301.061 353.832L301.111 353.334C300.432 353.267 299.762 353.197 299.099 353.125L299.046 353.623ZM303.081 354.024L303.035 354.522C303.704 354.583 304.379 354.642 305.062 354.699L305.103 354.201L305.145 353.703C304.465 353.646 303.792 353.587 303.126 353.527L303.081 354.024ZM307.129 354.362L307.092 354.86C307.762 354.911 308.438 354.959 309.119 355.005L309.153 354.506L309.186 354.007C308.508 353.962 307.835 353.913 307.167 353.863L307.129 354.362ZM311.175 354.635L311.145 355.134C311.817 355.174 312.494 355.211 313.175 355.247L313.201 354.747L313.226 354.248C312.548 354.213 311.874 354.175 311.204 354.135L311.175 354.635ZM315.23 354.844L315.208 355.344C315.881 355.373 316.559 355.4 317.24 355.425L317.258 354.925L317.276 354.425C316.597 354.401 315.923 354.374 315.252 354.345L315.23 354.844ZM319.283 354.989L319.269 355.489C319.944 355.508 320.622 355.524 321.302 355.538L321.312 355.038L321.322 354.538C320.644 354.524 319.969 354.508 319.297 354.49L319.283 354.989ZM323.343 355.069L323.337 355.569C324.012 355.577 324.69 355.582 325.369 355.584L325.371 355.084L325.372 354.584C324.696 354.582 324.021 354.577 323.349 354.57L323.343 355.069ZM327.399 355.082L327.402 355.582C328.078 355.579 328.756 355.572 329.436 355.563L329.429 355.063L329.422 354.563C328.745 354.572 328.07 354.579 327.396 354.582L327.399 355.082ZM331.458 355.025L331.47 355.525C332.146 355.51 332.823 355.491 333.501 355.47L333.485 354.97L333.469 354.47C332.794 354.492 332.12 354.51 331.447 354.526L331.458 355.025ZM335.513 354.896L335.534 355.395C336.211 355.368 336.888 355.336 337.566 355.302L337.541 354.803L337.516 354.303C336.841 354.338 336.166 354.369 335.493 354.396L335.513 354.896ZM339.566 354.69L339.596 355.189C340.273 355.148 340.949 355.103 341.626 355.056L341.591 354.557L341.556 354.058C340.882 354.106 340.209 354.15 339.536 354.191L339.566 354.69ZM343.614 354.403L343.655 354.901C344.331 354.846 345.006 354.788 345.681 354.726L345.636 354.228L345.59 353.73C344.918 353.792 344.246 353.85 343.574 353.905L343.614 354.403ZM347.655 354.03L347.707 354.528C348.382 354.458 349.056 354.384 349.729 354.307L349.672 353.81L349.615 353.313C348.945 353.39 348.275 353.463 347.604 353.533L347.655 354.03ZM351.686 353.566L351.749 354.062C352.423 353.976 353.096 353.886 353.767 353.792L353.698 353.297L353.628 352.802C352.961 352.895 352.293 352.984 351.623 353.07L351.686 353.566ZM355.705 353.002L355.781 353.497C356.452 353.394 357.122 353.286 357.79 353.175L357.707 352.681L357.625 352.188C356.962 352.299 356.296 352.406 355.629 352.508L355.705 353.002ZM359.708 352.332L359.797 352.824C360.131 352.764 360.464 352.702 360.796 352.639L360.703 352.148L360.61 351.657C360.28 351.719 359.949 351.78 359.618 351.841L359.708 352.332Z" fill="#0E3572"/>
<path d="M476.804 225.937C477.066 226.022 477.348 225.878 477.434 225.615L478.823 221.335C478.909 221.073 478.765 220.791 478.502 220.705C478.239 220.62 477.957 220.764 477.872 221.026L476.637 224.831L472.832 223.596C472.57 223.511 472.288 223.654 472.202 223.917C472.117 224.18 472.261 224.462 472.524 224.547L476.804 225.937ZM435.946 187.943L435.771 188.411C436.068 188.522 436.377 188.642 436.7 188.772L436.887 188.308L437.074 187.845C436.744 187.711 436.425 187.588 436.12 187.474L435.946 187.943ZM438.749 189.109L438.542 189.564C439.118 189.825 439.721 190.112 440.349 190.423L440.571 189.976L440.794 189.528C440.156 189.211 439.542 188.92 438.956 188.653L438.749 189.109ZM442.374 190.904L442.138 191.345C442.71 191.65 443.297 191.974 443.898 192.316L444.146 191.881L444.393 191.446C443.784 191.1 443.189 190.772 442.609 190.463L442.374 190.904ZM445.898 192.908L445.64 193.336C446.2 193.673 446.77 194.026 447.347 194.393L447.616 193.971L447.884 193.549C447.3 193.178 446.723 192.821 446.156 192.479L445.898 192.908ZM449.311 195.077L449.033 195.493C449.582 195.86 450.136 196.24 450.695 196.633L450.983 196.224L451.27 195.815C450.705 195.417 450.144 195.033 449.589 194.662L449.311 195.077ZM452.628 197.408L452.332 197.811C452.865 198.204 453.401 198.608 453.94 199.024L454.245 198.629L454.551 198.233C454.007 197.812 453.464 197.403 452.925 197.006L452.628 197.408ZM455.833 199.884L455.518 200.272C456.034 200.69 456.552 201.118 457.069 201.556L457.392 201.175L457.715 200.793C457.192 200.35 456.669 199.917 456.147 199.495L455.833 199.884ZM458.922 202.501L458.59 202.875C459.088 203.316 459.585 203.767 460.081 204.228L460.421 203.862L460.762 203.496C460.26 203.03 459.757 202.573 459.254 202.127L458.922 202.501ZM461.889 205.258L461.54 205.616C462.017 206.081 462.493 206.554 462.966 207.037L463.323 206.688L463.68 206.338C463.201 205.849 462.72 205.37 462.238 204.899L461.889 205.258ZM464.723 208.151L464.357 208.492C464.812 208.98 465.264 209.476 465.713 209.981L466.086 209.649L466.46 209.317C466.006 208.806 465.549 208.303 465.088 207.81L464.723 208.151ZM467.413 211.179L467.031 211.502C467.461 212.012 467.888 212.529 468.31 213.056L468.7 212.743L469.09 212.43C468.663 211.897 468.231 211.373 467.795 210.857L467.413 211.179ZM469.948 214.339L469.55 214.642C469.954 215.173 470.353 215.712 470.747 216.259L471.153 215.967L471.559 215.675C471.159 215.121 470.755 214.574 470.346 214.036L469.948 214.339ZM472.314 217.626L471.901 217.908C472.276 218.459 472.645 219.018 473.009 219.585L473.43 219.315L473.851 219.046C473.482 218.471 473.108 217.904 472.728 217.345L472.314 217.626ZM474.499 221.035L474.07 221.293C474.415 221.864 474.753 222.443 475.084 223.029L475.519 222.783L475.955 222.537C475.619 221.942 475.276 221.356 474.927 220.776L474.499 221.035ZM476.49 224.559L476.048 224.793C476.205 225.089 476.36 225.388 476.513 225.688L476.958 225.461L477.404 225.234C477.248 224.929 477.091 224.627 476.932 224.326L476.49 224.559Z" fill="#0E3572"/>
<path d="M417.621 198.502C474.771 231.651 476.954 284.109 422.541 315.67C368.128 347.232 277.688 345.966 220.539 312.817C163.389 279.668 161.207 227.21 215.62 195.649C270.033 164.088 360.471 165.354 417.621 198.502Z" fill="#FFFAFA" stroke="#0E3572" stroke-width="0.5"/>
<path d="M403.467 206.713C452.409 235.101 454.276 280.024 407.681 307.051C361.085 334.078 283.637 332.996 234.694 304.607C185.751 276.219 183.884 231.295 230.479 204.268C277.075 177.241 354.524 178.324 403.467 206.713Z" stroke="#0E3572" stroke-opacity="0.2" stroke-width="0.5"/>
<path d="M387.623 219.902C427.38 242.962 428.894 279.452 391.049 301.404C353.203 323.356 290.293 322.478 250.536 299.417C210.78 276.357 209.266 239.867 247.112 217.916C284.957 195.964 347.866 196.842 387.623 219.902Z" stroke="#0E3572" stroke-opacity="0.2" stroke-width="0.5"/>
<path d="M371.371 234.33C401.704 251.924 402.855 279.762 373.986 296.507C345.117 313.253 297.124 312.584 266.79 294.99C236.457 277.395 235.305 249.558 264.174 232.813C293.044 216.068 341.037 216.735 371.371 234.33Z" stroke="#0E3572" stroke-opacity="0.2" stroke-width="0.5"/>
<path d="M355.989 250.251C377.404 262.673 378.212 282.323 357.838 294.14C337.463 305.958 303.587 305.49 282.171 293.068C260.756 280.646 259.948 260.997 280.322 249.179C300.697 237.361 334.573 237.83 355.989 250.251Z" stroke="#0E3572" stroke-opacity="0.2" stroke-width="0.5"/>
<line x1="321.213" y1="174.843" x2="321.213" y2="261.687" stroke="#0E3572" stroke-opacity="0.2" stroke-width="0.5"/>
<line x1="321.213" y1="297.607" x2="321.213" y2="338.352" stroke="#0E3572" stroke-opacity="0.2" stroke-width="0.5"/>
<line x1="336.511" y1="265.829" x2="409.809" y2="194.365" stroke="#0E3572" stroke-opacity="0.2" stroke-width="0.5"/>
<line x1="299.721" y1="264.84" x2="224.152" y2="191.968" stroke="#0E3572" stroke-opacity="0.2" stroke-width="0.5"/>
<line x1="375.901" y1="332.914" x2="337.7" y2="294.713" stroke="#0E3572" stroke-opacity="0.2" stroke-width="0.5"/>
<line x1="262.424" y1="330.309" x2="299.717" y2="292.783" stroke="#0E3572" stroke-opacity="0.2" stroke-width="0.5"/>
<line y1="-0.25" x2="115.567" y2="-0.25" transform="matrix(-0.969776 -0.243995 -0.243995 0.969776 287.981 281.434)" stroke="#0E3572" stroke-opacity="0.2" stroke-width="0.5"/>
<line x1="349.526" y1="281.192" x2="461.6" y2="252.994" stroke="#0E3572" stroke-opacity="0.2" stroke-width="0.5"/>
<ellipse cx="26.1616" cy="24.9203" rx="26.1616" ry="24.9203" transform="matrix(0.865018 0.501741 -0.865018 0.501741 316.814 254.03)" fill="#0E3572"/>
<path d="M339.227 267.281C351.616 274.467 352.077 285.83 340.302 292.661C328.526 299.491 308.935 299.224 296.546 292.038C284.158 284.852 283.698 273.489 295.474 266.659C307.25 259.828 326.838 260.096 339.227 267.281Z" stroke="#0E3572" stroke-opacity="0.2" stroke-width="0.5"/>
<path d="M310.277 288.91C311.527 289.632 312.874 290.003 314.317 290.023C315.761 290.044 317.081 289.708 318.278 289.017L323.216 286.166C323.762 285.851 324.325 285.678 324.906 285.648C325.487 285.597 326.05 285.729 326.596 286.044L327.362 286.486L329.607 285.191L328.841 284.748C328.295 284.433 328.057 284.113 328.128 283.788C328.198 283.442 328.506 283.112 329.052 282.797L334.122 279.87C335.302 279.189 335.874 278.432 335.839 277.599C335.803 276.765 335.161 275.988 333.911 275.266L332.907 274.687L330.663 275.983L331.666 276.562C332.142 276.836 332.37 277.141 332.353 277.477C332.318 277.802 332.036 278.107 331.508 278.391L326.649 281.196C325.998 281.552 325.522 281.948 325.223 282.386C324.941 282.812 324.845 283.275 324.933 283.773C324.176 283.702 323.401 283.752 322.609 283.925C321.834 284.088 321.156 284.347 320.576 284.703L315.717 287.508C315.241 287.803 314.713 287.965 314.132 287.996C313.534 288.016 312.997 287.889 312.521 287.615L311.518 287.035L309.273 288.331L310.277 288.91Z" fill="white"/>
<path d="M302.867 284.633L305.112 283.337L304.108 282.757C303.633 282.483 303.413 282.173 303.448 281.828C303.483 281.482 303.756 281.172 304.267 280.898L309.126 278.093C309.742 277.757 310.199 277.371 310.499 276.934C310.798 276.477 310.886 276.029 310.763 275.592C311.608 275.633 312.409 275.577 313.166 275.425C313.923 275.252 314.601 274.972 315.199 274.586L320.058 271.781C320.551 271.476 321.088 271.319 321.669 271.309C322.25 271.298 322.778 271.43 323.253 271.705L324.257 272.284L326.501 270.988L325.498 270.409C324.23 269.677 322.883 269.306 321.457 269.296C320.014 269.276 318.702 269.606 317.523 270.287L312.453 273.214C311.907 273.529 311.335 273.707 310.736 273.748C310.155 273.778 309.601 273.641 309.073 273.336L308.307 272.894L306.062 274.19L306.828 274.632C307.356 274.937 307.585 275.262 307.515 275.608C307.462 275.943 307.163 276.268 306.617 276.583L301.679 279.434C300.482 280.125 299.901 280.887 299.936 281.721C299.954 282.544 300.596 283.322 301.864 284.053L302.867 284.633Z" fill="white"/>
<mask id="path-74-inside-1_1517_328" fill="white">
<path fill-rule="evenodd" clip-rule="evenodd" d="M265.788 122.399C292.844 106.706 337.774 107.364 366.14 123.817C366.63 124.101 367.111 124.389 367.584 124.679H388.27V151.729H388.036C389.182 162.759 382.744 173.812 368.584 182.025C341.528 197.718 296.599 197.06 268.233 180.606C252.254 171.338 244.917 159.021 246.392 147.226V124.679H262.16C263.308 123.897 264.517 123.137 265.788 122.399Z"/>
</mask>
<path fill-rule="evenodd" clip-rule="evenodd" d="M265.788 122.399C292.844 106.706 337.774 107.364 366.14 123.817C366.63 124.101 367.111 124.389 367.584 124.679H388.27V151.729H388.036C389.182 162.759 382.744 173.812 368.584 182.025C341.528 197.718 296.599 197.06 268.233 180.606C252.254 171.338 244.917 159.021 246.392 147.226V124.679H262.16C263.308 123.897 264.517 123.137 265.788 122.399Z" fill="url(#paint1_linear_1517_328)"/>
<path d="M265.788 122.399L265.538 121.967L265.538 121.967L265.788 122.399ZM366.14 123.817L366.391 123.385L366.391 123.385L366.14 123.817ZM367.584 124.679L367.323 125.105L367.444 125.179H367.584V124.679ZM388.27 124.679H388.77V124.179H388.27V124.679ZM388.27 151.729V152.229H388.77V151.729H388.27ZM388.036 151.729V151.229H387.482L387.539 151.781L388.036 151.729ZM368.584 182.025L368.835 182.458V182.458L368.584 182.025ZM268.233 180.606L267.982 181.039H267.982L268.233 180.606ZM246.392 147.226L246.888 147.288L246.892 147.257V147.226H246.392ZM246.392 124.679V124.179H245.892V124.679H246.392ZM262.16 124.679V125.179H262.315L262.442 125.092L262.16 124.679ZM265.788 122.399L266.039 122.832C279.469 115.042 297.37 111.295 315.466 111.553C333.56 111.812 351.796 116.075 365.889 124.25L366.14 123.817L366.391 123.385C352.118 115.106 333.706 110.814 315.48 110.554C297.256 110.293 279.164 114.063 265.538 121.967L265.788 122.399ZM366.14 123.817L365.889 124.25C366.375 124.532 366.853 124.817 367.323 125.105L367.584 124.679L367.845 124.252C367.369 123.961 366.884 123.671 366.391 123.385L366.14 123.817ZM367.584 124.679V125.179H388.27V124.679V124.179H367.584V124.679ZM388.27 124.679H387.77V151.729H388.27H388.77V124.679H388.27ZM388.27 151.729V151.229H388.036V151.729V152.229H388.27V151.729ZM388.036 151.729L387.539 151.781C388.658 162.55 382.388 173.441 368.333 181.593L368.584 182.025L368.835 182.458C383.101 174.183 389.707 162.968 388.534 151.678L388.036 151.729ZM368.584 182.025L368.333 181.593C354.904 189.382 337.003 193.13 318.907 192.871C300.812 192.612 282.577 188.348 268.484 180.174L268.233 180.606L267.982 181.039C282.255 189.318 300.667 193.61 318.893 193.871C337.117 194.131 355.209 190.362 368.835 182.458L368.584 182.025ZM268.233 180.606L268.484 180.174C252.598 170.959 245.448 158.805 246.888 147.288L246.392 147.226L245.896 147.164C244.386 159.236 251.91 171.716 267.982 181.039L268.233 180.606ZM246.392 147.226H246.892V124.679H246.392H245.892V147.226H246.392ZM246.392 124.679V125.179H262.16V124.679V124.179H246.392V124.679ZM262.16 124.679L262.442 125.092C263.579 124.318 264.778 123.564 266.039 122.832L265.788 122.399L265.538 121.967C264.256 122.71 263.036 123.477 261.879 124.265L262.16 124.679Z" fill="#0E3572" mask="url(#path-74-inside-1_1517_328)"/>
<ellipse cx="58.9182" cy="56.0924" rx="58.9182" ry="56.0924" transform="matrix(0.865018 0.501741 -0.865018 0.501741 314.742 65.3744)" fill="white" stroke="#0E3572" stroke-width="0.5"/>
<g clip-path="url(#clip1_1517_328)">
<path d="M343.986 129.211L327.805 138.553M317.102 113.494L323.704 113.49C325.675 113.488 327.271 114.409 327.268 115.547L327.215 119.333M300.753 122.934L300.745 126.746C300.742 127.884 302.337 128.805 304.308 128.803L310.866 128.773M318.788 126.145L309.18 116.122M326.794 105.661L340.615 113.64C345.27 116.328 345.27 120.685 340.615 123.372L317.69 136.607C313.037 139.294 305.492 139.294 300.839 136.607L287.016 128.627C282.361 125.939 282.361 121.583 287.016 118.895L309.939 105.661C314.593 102.974 322.14 102.974 326.794 105.661Z" stroke="#ED1C24" stroke-width="1.5" stroke-miterlimit="10" stroke-linecap="round" stroke-linejoin="round"/>
</g>
<path d="M301.444 182.053V171.623H305.826C306.451 171.623 306.988 171.735 307.436 171.959C307.893 172.183 308.243 172.501 308.486 172.911C308.738 173.313 308.864 173.793 308.864 174.353C308.864 174.867 308.729 175.333 308.458 175.753C308.197 176.164 307.809 176.486 307.296 176.719L307.282 176.201C307.73 176.369 308.099 176.593 308.388 176.873C308.687 177.144 308.911 177.461 309.06 177.825C309.209 178.18 309.284 178.558 309.284 178.959C309.284 179.921 308.976 180.677 308.36 181.227C307.744 181.778 306.904 182.053 305.84 182.053H301.444ZM302.816 180.793H305.896C306.503 180.793 306.988 180.63 307.352 180.303C307.716 179.977 307.898 179.533 307.898 178.973C307.898 178.413 307.716 177.97 307.352 177.643C306.988 177.307 306.503 177.139 305.896 177.139H302.816V180.793ZM302.816 175.907H305.798C306.302 175.907 306.708 175.763 307.016 175.473C307.324 175.175 307.478 174.797 307.478 174.339C307.478 173.863 307.324 173.499 307.016 173.247C306.708 172.995 306.302 172.869 305.798 172.869H302.816V175.907ZM313.657 182.221C313.116 182.221 312.626 182.095 312.187 181.843C311.758 181.591 311.422 181.241 311.179 180.793C310.946 180.336 310.829 179.813 310.829 179.225V174.507H312.131V179.085C312.131 179.459 312.206 179.785 312.355 180.065C312.514 180.345 312.729 180.565 312.999 180.723C313.279 180.882 313.597 180.961 313.951 180.961C314.306 180.961 314.619 180.882 314.889 180.723C315.169 180.565 315.384 180.336 315.533 180.037C315.692 179.739 315.771 179.384 315.771 178.973V174.507H317.087V182.053H315.813V180.583L316.023 180.709C315.846 181.185 315.543 181.559 315.113 181.829C314.693 182.091 314.208 182.221 313.657 182.221ZM319.104 182.053V174.507H320.406V182.053H319.104ZM319.104 173.303V171.623H320.406V173.303H319.104ZM322.427 182.053V171.455H323.729V182.053H322.427ZM329.179 182.221C328.47 182.221 327.83 182.049 327.261 181.703C326.701 181.358 326.258 180.887 325.931 180.289C325.604 179.692 325.441 179.025 325.441 178.287C325.441 177.531 325.604 176.859 325.931 176.271C326.258 175.674 326.701 175.203 327.261 174.857C327.83 174.512 328.47 174.339 329.179 174.339C329.804 174.339 330.36 174.475 330.845 174.745C331.33 175.007 331.713 175.361 331.993 175.809L331.783 176.131V171.455H333.099V182.053H331.825V180.443L331.993 180.667C331.732 181.162 331.349 181.545 330.845 181.815C330.35 182.086 329.795 182.221 329.179 182.221ZM329.291 180.961C329.767 180.961 330.192 180.845 330.565 180.611C330.938 180.378 331.232 180.061 331.447 179.659C331.671 179.249 331.783 178.791 331.783 178.287C331.783 177.774 331.671 177.317 331.447 176.915C331.232 176.505 330.938 176.183 330.565 175.949C330.192 175.716 329.767 175.599 329.291 175.599C328.824 175.599 328.4 175.721 328.017 175.963C327.644 176.197 327.35 176.514 327.135 176.915C326.92 177.307 326.813 177.765 326.813 178.287C326.813 178.791 326.92 179.249 327.135 179.659C327.35 180.061 327.644 180.378 328.017 180.611C328.39 180.845 328.815 180.961 329.291 180.961Z" fill="#0E3572"/>
<mask id="path-79-inside-2_1517_328" fill="white">
<path fill-rule="evenodd" clip-rule="evenodd" d="M107.184 293.939C137.16 276.552 187.16 277.412 218.859 295.799C219.154 295.97 219.446 296.142 219.736 296.315H243.758V326.439H243.399C245.006 338.873 237.956 351.355 222.064 360.573C192.088 377.96 142.089 377.101 110.389 358.715C92.7121 348.461 84.4333 334.907 85.7653 321.906V296.315H103.389C104.593 295.502 105.857 294.709 107.184 293.939Z"/>
</mask>
<path fill-rule="evenodd" clip-rule="evenodd" d="M107.184 293.939C137.16 276.552 187.16 277.412 218.859 295.799C219.154 295.97 219.446 296.142 219.736 296.315H243.758V326.439H243.399C245.006 338.873 237.956 351.355 222.064 360.573C192.088 377.96 142.089 377.101 110.389 358.715C92.7121 348.461 84.4333 334.907 85.7653 321.906V296.315H103.389C104.593 295.502 105.857 294.709 107.184 293.939Z" fill="url(#paint2_linear_1517_328)"/>
<path d="M107.184 293.939L106.887 293.427L106.887 293.427L107.184 293.939ZM218.859 295.799L219.156 295.287V295.287L218.859 295.799ZM219.736 296.315L219.433 296.823L219.573 296.907H219.736V296.315ZM243.758 296.315H244.35V295.724H243.758V296.315ZM243.758 326.439V327.031H244.35V326.439H243.758ZM243.399 326.439V325.848H242.726L242.812 326.515L243.399 326.439ZM222.064 360.573L222.361 361.085V361.085L222.064 360.573ZM110.389 358.715L110.092 359.227H110.092L110.389 358.715ZM85.7653 321.906L86.354 321.966L86.357 321.936V321.906H85.7653ZM85.7653 296.315V295.724H85.1736V296.315H85.7653ZM103.389 296.315V296.907H103.57L103.721 296.806L103.389 296.315ZM107.184 293.939L107.481 294.451C122.352 285.826 142.232 281.707 162.366 282.046C182.497 282.384 202.818 287.178 218.562 296.311L218.859 295.799L219.156 295.287C203.201 286.032 182.672 281.203 162.386 280.862C142.101 280.521 121.993 284.666 106.887 293.427L107.184 293.939ZM218.859 295.799L218.562 296.311C218.855 296.48 219.145 296.651 219.433 296.823L219.736 296.315L220.039 295.807C219.748 295.633 219.454 295.46 219.156 295.287L218.859 295.799ZM219.736 296.315V296.907H243.758V296.315V295.724H219.736V296.315ZM243.758 296.315H243.167V326.439H243.758H244.35V296.315H243.758ZM243.758 326.439V325.848H243.399V326.439V327.031H243.758V326.439ZM243.399 326.439L242.812 326.515C244.378 338.635 237.53 350.918 221.767 360.061L222.064 360.573L222.361 361.085C238.381 351.792 245.633 339.112 243.986 326.364L243.399 326.439ZM222.064 360.573L221.767 360.061C206.897 368.687 187.017 372.806 166.883 372.467C146.751 372.129 126.43 367.335 110.686 358.203L110.389 358.715L110.092 359.227C126.047 368.481 146.576 373.31 166.863 373.651C187.148 373.992 207.255 369.847 222.361 361.085L222.064 360.573ZM110.389 358.715L110.686 358.203C93.1162 348.012 85.055 334.644 86.354 321.966L85.7653 321.906L85.1766 321.846C83.8115 335.17 92.308 348.911 110.092 359.227L110.389 358.715ZM85.7653 321.906H86.357V296.315H85.7653H85.1736V321.906H85.7653ZM85.7653 296.315V296.907H103.389V296.315V295.724H85.7653V296.315ZM103.389 296.315L103.721 296.806C104.913 296 106.166 295.214 107.481 294.451L107.184 293.939L106.887 293.427C105.549 294.204 104.273 295.004 103.058 295.825L103.389 296.315Z" fill="#0E3572" mask="url(#path-79-inside-2_1517_328)"/>
<ellipse cx="65.6103" cy="62.4635" rx="65.6103" ry="62.4635" transform="matrix(0.865018 0.501741 -0.865018 0.501741 161.879 230.276)" fill="white" stroke="#0E3572" stroke-width="0.5"/>
<g clip-path="url(#clip2_1517_328)">
<path d="M174.798 276.971L144.375 294.536L174.798 312.101L205.222 294.536L174.798 276.971Z" stroke="#ED1C24" stroke-width="1.5" stroke-miterlimit="10" stroke-linecap="round" stroke-linejoin="round"/>
<path d="M144.291 282.81L123.98 294.536L144.291 306.262L164.601 294.536L144.291 282.81Z" stroke="#ED1C24" stroke-width="1.5" stroke-miterlimit="10" stroke-linecap="round" stroke-linejoin="round"/>
<path d="M189.884 297.455L194.94 294.536L189.884 291.616" stroke="#ED1C24" stroke-width="1.5" stroke-miterlimit="10" stroke-linecap="round" stroke-linejoin="round"/>
<path d="M174.714 294.536H194.94" stroke="#ED1C24" stroke-width="1.5" stroke-miterlimit="10" stroke-linecap="round" stroke-linejoin="round"/>
</g>
<path d="M149.083 360.066C148.421 360.066 147.814 359.945 147.263 359.702C146.713 359.45 146.246 359.11 145.863 358.68C145.481 358.251 145.205 357.77 145.037 357.238L146.227 356.748C146.479 357.42 146.853 357.938 147.347 358.302C147.851 358.657 148.439 358.834 149.111 358.834C149.522 358.834 149.881 358.769 150.189 358.638C150.497 358.508 150.735 358.326 150.903 358.092C151.081 357.85 151.169 357.57 151.169 357.252C151.169 356.814 151.043 356.468 150.791 356.216C150.549 355.955 150.189 355.759 149.713 355.628L147.795 355.04C147.039 354.807 146.461 354.438 146.059 353.934C145.658 353.43 145.457 352.852 145.457 352.198C145.457 351.629 145.593 351.13 145.863 350.7C146.143 350.262 146.526 349.921 147.011 349.678C147.506 349.426 148.066 349.3 148.691 349.3C149.317 349.3 149.881 349.412 150.385 349.636C150.899 349.86 151.333 350.164 151.687 350.546C152.042 350.92 152.303 351.349 152.471 351.834L151.295 352.324C151.071 351.736 150.735 351.293 150.287 350.994C149.839 350.686 149.312 350.532 148.705 350.532C148.332 350.532 148.001 350.598 147.711 350.728C147.431 350.85 147.212 351.032 147.053 351.274C146.904 351.508 146.829 351.788 146.829 352.114C146.829 352.497 146.951 352.838 147.193 353.136C147.436 353.435 147.805 353.664 148.299 353.822L150.049 354.34C150.871 354.592 151.491 354.952 151.911 355.418C152.331 355.885 152.541 356.464 152.541 357.154C152.541 357.724 152.392 358.228 152.093 358.666C151.804 359.105 151.398 359.45 150.875 359.702C150.362 359.945 149.765 360.066 149.083 360.066ZM157.896 360.066C157.159 360.066 156.501 359.894 155.922 359.548C155.353 359.203 154.905 358.732 154.578 358.134C154.252 357.537 154.088 356.865 154.088 356.118C154.088 355.362 154.252 354.69 154.578 354.102C154.905 353.514 155.353 353.048 155.922 352.702C156.501 352.357 157.159 352.184 157.896 352.184C158.391 352.184 158.853 352.273 159.282 352.45C159.712 352.628 160.09 352.866 160.416 353.164C160.743 353.463 160.981 353.813 161.13 354.214L159.968 354.774C159.791 354.382 159.52 354.065 159.156 353.822C158.792 353.57 158.372 353.444 157.896 353.444C157.439 353.444 157.024 353.561 156.65 353.794C156.286 354.028 155.997 354.345 155.782 354.746C155.568 355.148 155.46 355.61 155.46 356.132C155.46 356.636 155.568 357.094 155.782 357.504C155.997 357.906 156.286 358.223 156.65 358.456C157.024 358.69 157.439 358.806 157.896 358.806C158.372 358.806 158.792 358.685 159.156 358.442C159.52 358.19 159.791 357.859 159.968 357.448L161.13 358.036C160.981 358.428 160.743 358.778 160.416 359.086C160.09 359.385 159.712 359.623 159.282 359.8C158.853 359.978 158.391 360.066 157.896 360.066ZM164.948 360.066C164.453 360.066 164.015 359.978 163.632 359.8C163.259 359.614 162.965 359.362 162.75 359.044C162.535 358.718 162.428 358.344 162.428 357.924C162.428 357.523 162.512 357.164 162.68 356.846C162.857 356.52 163.128 356.244 163.492 356.02C163.865 355.796 164.332 355.638 164.892 355.544L167.692 355.082V356.174L165.186 356.594C164.701 356.678 164.346 356.832 164.122 357.056C163.907 357.28 163.8 357.556 163.8 357.882C163.8 358.19 163.921 358.447 164.164 358.652C164.416 358.858 164.729 358.96 165.102 358.96C165.578 358.96 165.989 358.862 166.334 358.666C166.689 358.461 166.964 358.186 167.16 357.84C167.365 357.495 167.468 357.112 167.468 356.692V354.774C167.468 354.364 167.314 354.032 167.006 353.78C166.707 353.519 166.311 353.388 165.816 353.388C165.387 353.388 165.004 353.5 164.668 353.724C164.341 353.939 164.099 354.228 163.94 354.592L162.806 354.004C162.946 353.659 163.17 353.351 163.478 353.08C163.786 352.8 164.145 352.581 164.556 352.422C164.967 352.264 165.396 352.184 165.844 352.184C166.423 352.184 166.931 352.296 167.37 352.52C167.809 352.735 168.149 353.038 168.392 353.43C168.644 353.813 168.77 354.261 168.77 354.774V359.898H167.496V358.47L167.734 358.554C167.575 358.853 167.361 359.114 167.09 359.338C166.819 359.562 166.502 359.74 166.138 359.87C165.774 360.001 165.377 360.066 164.948 360.066ZM170.789 359.898V349.3H172.091V359.898H170.789ZM177.583 360.066C176.855 360.066 176.206 359.894 175.637 359.548C175.068 359.203 174.62 358.732 174.293 358.134C173.966 357.528 173.803 356.851 173.803 356.104C173.803 355.348 173.962 354.676 174.279 354.088C174.606 353.5 175.044 353.038 175.595 352.702C176.155 352.357 176.78 352.184 177.471 352.184C178.031 352.184 178.526 352.287 178.955 352.492C179.394 352.688 179.762 352.959 180.061 353.304C180.369 353.64 180.602 354.028 180.761 354.466C180.929 354.896 181.013 355.344 181.013 355.81C181.013 355.913 181.004 356.03 180.985 356.16C180.976 356.282 180.962 356.398 180.943 356.51H174.755V355.39H180.187L179.571 355.894C179.655 355.409 179.608 354.975 179.431 354.592C179.254 354.21 178.992 353.906 178.647 353.682C178.302 353.458 177.91 353.346 177.471 353.346C177.032 353.346 176.631 353.458 176.267 353.682C175.903 353.906 175.618 354.228 175.413 354.648C175.217 355.059 175.138 355.549 175.175 356.118C175.138 356.669 175.222 357.154 175.427 357.574C175.642 357.985 175.94 358.307 176.323 358.54C176.715 358.764 177.14 358.876 177.597 358.876C178.101 358.876 178.526 358.76 178.871 358.526C179.216 358.293 179.496 357.994 179.711 357.63L180.803 358.19C180.654 358.536 180.42 358.853 180.103 359.142C179.795 359.422 179.426 359.646 178.997 359.814C178.577 359.982 178.106 360.066 177.583 360.066Z" fill="#0E3572"/>
<mask id="path-87-inside-3_1517_328" fill="white">
<path fill-rule="evenodd" clip-rule="evenodd" d="M414.071 293.94C444.047 276.553 494.047 277.412 525.746 295.799C526.041 295.97 526.333 296.143 526.623 296.316H550.645V326.44H550.286C551.892 338.874 544.842 351.355 528.951 360.573C498.975 377.961 448.975 377.102 417.276 358.715C399.594 348.459 391.316 334.9 392.653 321.897V296.316H410.276C411.48 295.502 412.744 294.709 414.071 293.94Z"/>
</mask>
<path fill-rule="evenodd" clip-rule="evenodd" d="M414.071 293.94C444.047 276.553 494.047 277.412 525.746 295.799C526.041 295.97 526.333 296.143 526.623 296.316H550.645V326.44H550.286C551.892 338.874 544.842 351.355 528.951 360.573C498.975 377.961 448.975 377.102 417.276 358.715C399.594 348.459 391.316 334.9 392.653 321.897V296.316H410.276C411.48 295.502 412.744 294.709 414.071 293.94Z" fill="url(#paint3_linear_1517_328)"/>
<path d="M414.071 293.94L413.774 293.428L413.774 293.428L414.071 293.94ZM525.746 295.799L526.043 295.287V295.287L525.746 295.799ZM526.623 296.316L526.319 296.824L526.46 296.907H526.623V296.316ZM550.645 296.316H551.237V295.724H550.645V296.316ZM550.645 326.44V327.031H551.237V326.44H550.645ZM550.286 326.44V325.848H549.613L549.699 326.515L550.286 326.44ZM528.951 360.573L529.248 361.085V361.085L528.951 360.573ZM417.276 358.715L416.979 359.227H416.979L417.276 358.715ZM392.653 321.897L393.242 321.957L393.245 321.927V321.897H392.653ZM392.653 296.316V295.724H392.061V296.316H392.653ZM410.276 296.316V296.907H410.457L410.607 296.806L410.276 296.316ZM414.071 293.94L414.368 294.451C429.238 285.826 449.118 281.707 469.252 282.046C489.384 282.384 509.705 287.179 525.449 296.311L525.746 295.799L526.043 295.287C510.088 286.033 489.559 281.204 469.272 280.862C448.987 280.521 428.88 284.666 413.774 293.428L414.071 293.94ZM525.746 295.799L525.449 296.311C525.741 296.48 526.031 296.652 526.319 296.824L526.623 296.316L526.926 295.807C526.635 295.634 526.34 295.46 526.043 295.287L525.746 295.799ZM526.623 296.316V296.907H550.645V296.316V295.724H526.623V296.316ZM550.645 296.316H550.053V326.44H550.645H551.237V296.316H550.645ZM550.645 326.44V325.848H550.286V326.44V327.031H550.645V326.44ZM550.286 326.44L549.699 326.515C551.265 338.635 544.417 350.918 528.654 360.061L528.951 360.573L529.248 361.085C545.268 351.793 552.52 339.112 550.873 326.364L550.286 326.44ZM528.951 360.573L528.654 360.061C513.783 368.687 493.903 372.806 473.77 372.468C453.638 372.129 433.317 367.335 417.573 358.203L417.276 358.715L416.979 359.227C432.934 368.481 453.463 373.31 473.75 373.651C494.034 373.992 514.142 369.847 529.248 361.085L528.951 360.573ZM417.276 358.715L417.573 358.203C399.998 348.009 391.938 334.637 393.242 321.957L392.653 321.897L392.064 321.836C390.694 335.163 399.19 348.909 416.979 359.227L417.276 358.715ZM392.653 321.897H393.245V296.316H392.653H392.061V321.897H392.653ZM392.653 296.316V296.907H410.276V296.316V295.724H392.653V296.316ZM410.276 296.316L410.607 296.806C411.8 296 413.053 295.214 414.368 294.451L414.071 293.94L413.774 293.428C412.436 294.204 411.16 295.004 409.945 295.825L410.276 296.316Z" fill="#0E3572" mask="url(#path-87-inside-3_1517_328)"/>
<ellipse cx="65.6103" cy="62.4635" rx="65.6103" ry="62.4635" transform="matrix(0.865018 0.501741 -0.865018 0.501741 468.451 230.276)" fill="white" stroke="#0E3572" stroke-width="0.5"/>
<g clip-path="url(#clip3_1517_328)">
<path d="M486.782 279.58C484.709 279.391 482.793 278.827 481.309 277.971C478.265 276.213 473.607 275.787 469.771 276.915C467.901 277.466 465.778 277.66 463.705 277.47C459.453 277.081 455.251 278.317 453.296 280.532C452.343 281.612 450.823 282.489 448.953 283.039C445.118 284.168 442.976 286.594 443.65 289.049C443.978 290.246 443.642 291.472 442.689 292.551C440.735 294.766 441.472 297.455 444.517 299.213C446.001 300.07 446.977 301.176 447.305 302.372C447.978 304.827 451.313 306.753 455.565 307.142C457.638 307.331 459.554 307.895 461.038 308.751C464.082 310.509 468.74 310.935 472.576 309.806C474.446 309.256 476.569 309.062 478.642 309.252C482.894 309.641 487.096 308.404 489.051 306.19C490.004 305.11 491.524 304.233 493.394 303.682C497.23 302.554 499.371 300.128 498.697 297.673C498.369 296.476 498.705 295.25 499.658 294.171C501.613 291.956 500.875 289.267 497.831 287.509C496.347 286.652 495.371 285.546 495.042 284.35C494.369 281.895 491.034 279.969 486.782 279.58Z" stroke="#ED1C24" stroke-width="1.5" stroke-miterlimit="10"/>
<path d="M462.71 287.867L462.71 295.094L484.962 295.094" stroke="#ED1C24" stroke-width="1.5" stroke-miterlimit="10"/>
</g>
<path d="M454.486 359.898L450.72 349.468H452.19L455.382 358.638H455.088L458.28 349.468H459.75L455.998 359.898H454.486ZM462.564 360.066C462.069 360.066 461.63 359.978 461.248 359.8C460.874 359.614 460.58 359.362 460.366 359.044C460.151 358.718 460.044 358.344 460.044 357.924C460.044 357.523 460.128 357.164 460.296 356.846C460.473 356.52 460.744 356.244 461.108 356.02C461.481 355.796 461.948 355.638 462.508 355.544L465.308 355.082V356.174L462.802 356.594C462.316 356.678 461.962 356.832 461.738 357.056C461.523 357.28 461.416 357.556 461.416 357.882C461.416 358.19 461.537 358.447 461.78 358.652C462.032 358.858 462.344 358.96 462.718 358.96C463.194 358.96 463.604 358.862 463.95 358.666C464.304 358.461 464.58 358.186 464.776 357.84C464.981 357.495 465.084 357.112 465.084 356.692V354.774C465.084 354.364 464.93 354.032 464.622 353.78C464.323 353.519 463.926 353.388 463.432 353.388C463.002 353.388 462.62 353.5 462.284 353.724C461.957 353.939 461.714 354.228 461.556 354.592L460.422 354.004C460.562 353.659 460.786 353.351 461.094 353.08C461.402 352.8 461.761 352.581 462.172 352.422C462.582 352.264 463.012 352.184 463.46 352.184C464.038 352.184 464.547 352.296 464.986 352.52C465.424 352.735 465.765 353.038 466.008 353.43C466.26 353.813 466.386 354.261 466.386 354.774V359.898H465.112V358.47L465.35 358.554C465.191 358.853 464.976 359.114 464.706 359.338C464.435 359.562 464.118 359.74 463.754 359.87C463.39 360.001 462.993 360.066 462.564 360.066ZM468.404 359.898V349.3H469.706V359.898H468.404ZM471.727 359.898V352.352H473.029V359.898H471.727ZM471.727 351.148V349.468H473.029V351.148H471.727ZM478.479 360.066C477.77 360.066 477.13 359.894 476.561 359.548C476.001 359.203 475.558 358.732 475.231 358.134C474.904 357.537 474.741 356.87 474.741 356.132C474.741 355.376 474.904 354.704 475.231 354.116C475.558 353.519 476.001 353.048 476.561 352.702C477.13 352.357 477.77 352.184 478.479 352.184C479.104 352.184 479.66 352.32 480.145 352.59C480.63 352.852 481.013 353.206 481.293 353.654L481.083 353.976V349.3H482.399V359.898H481.125V358.288L481.293 358.512C481.032 359.007 480.649 359.39 480.145 359.66C479.65 359.931 479.095 360.066 478.479 360.066ZM478.591 358.806C479.067 358.806 479.492 358.69 479.865 358.456C480.238 358.223 480.532 357.906 480.747 357.504C480.971 357.094 481.083 356.636 481.083 356.132C481.083 355.619 480.971 355.162 480.747 354.76C480.532 354.35 480.238 354.028 479.865 353.794C479.492 353.561 479.067 353.444 478.591 353.444C478.124 353.444 477.7 353.566 477.317 353.808C476.944 354.042 476.65 354.359 476.435 354.76C476.22 355.152 476.113 355.61 476.113 356.132C476.113 356.636 476.22 357.094 476.435 357.504C476.65 357.906 476.944 358.223 477.317 358.456C477.69 358.69 478.115 358.806 478.591 358.806ZM486.626 360.066C486.132 360.066 485.693 359.978 485.31 359.8C484.937 359.614 484.643 359.362 484.428 359.044C484.214 358.718 484.106 358.344 484.106 357.924C484.106 357.523 484.19 357.164 484.358 356.846C484.536 356.52 484.806 356.244 485.17 356.02C485.544 355.796 486.01 355.638 486.57 355.544L489.37 355.082V356.174L486.864 356.594C486.379 356.678 486.024 356.832 485.8 357.056C485.586 357.28 485.478 357.556 485.478 357.882C485.478 358.19 485.6 358.447 485.842 358.652C486.094 358.858 486.407 358.96 486.78 358.96C487.256 358.96 487.667 358.862 488.012 358.666C488.367 358.461 488.642 358.186 488.838 357.84C489.044 357.495 489.146 357.112 489.146 356.692V354.774C489.146 354.364 488.992 354.032 488.684 353.78C488.386 353.519 487.989 353.388 487.494 353.388C487.065 353.388 486.682 353.5 486.346 353.724C486.02 353.939 485.777 354.228 485.618 354.592L484.484 354.004C484.624 353.659 484.848 353.351 485.156 353.08C485.464 352.8 485.824 352.581 486.234 352.422C486.645 352.264 487.074 352.184 487.522 352.184C488.101 352.184 488.61 352.296 489.048 352.52C489.487 352.735 489.828 353.038 490.07 353.43C490.322 353.813 490.448 354.261 490.448 354.774V359.898H489.174V358.47L489.412 358.554C489.254 358.853 489.039 359.114 488.768 359.338C488.498 359.562 488.18 359.74 487.816 359.87C487.452 360.001 487.056 360.066 486.626 360.066ZM495.396 359.982C494.659 359.982 494.09 359.772 493.688 359.352C493.296 358.932 493.1 358.34 493.1 357.574V353.598H491.728V352.352H492.008C492.344 352.352 492.61 352.25 492.806 352.044C493.002 351.839 493.1 351.568 493.1 351.232V350.616H494.402V352.352H496.096V353.598H494.402V357.532C494.402 357.784 494.44 358.004 494.514 358.19C494.598 358.377 494.734 358.526 494.92 358.638C495.107 358.741 495.354 358.792 495.662 358.792C495.728 358.792 495.807 358.788 495.9 358.778C496.003 358.769 496.096 358.76 496.18 358.75V359.898C496.059 359.926 495.924 359.945 495.774 359.954C495.625 359.973 495.499 359.982 495.396 359.982ZM501.148 360.066C500.42 360.066 499.771 359.894 499.202 359.548C498.633 359.203 498.185 358.732 497.858 358.134C497.531 357.528 497.368 356.851 497.368 356.104C497.368 355.348 497.527 354.676 497.844 354.088C498.171 353.5 498.609 353.038 499.16 352.702C499.72 352.357 500.345 352.184 501.036 352.184C501.596 352.184 502.091 352.287 502.52 352.492C502.959 352.688 503.327 352.959 503.626 353.304C503.934 353.64 504.167 354.028 504.326 354.466C504.494 354.896 504.578 355.344 504.578 355.81C504.578 355.913 504.569 356.03 504.55 356.16C504.541 356.282 504.527 356.398 504.508 356.51H498.32V355.39H503.752L503.136 355.894C503.22 355.409 503.173 354.975 502.996 354.592C502.819 354.21 502.557 353.906 502.212 353.682C501.867 353.458 501.475 353.346 501.036 353.346C500.597 353.346 500.196 353.458 499.832 353.682C499.468 353.906 499.183 354.228 498.978 354.648C498.782 355.059 498.703 355.549 498.74 356.118C498.703 356.669 498.787 357.154 498.992 357.574C499.207 357.985 499.505 358.307 499.888 358.54C500.28 358.764 500.705 358.876 501.162 358.876C501.666 358.876 502.091 358.76 502.436 358.526C502.781 358.293 503.061 357.994 503.276 357.63L504.368 358.19C504.219 358.536 503.985 358.853 503.668 359.142C503.36 359.422 502.991 359.646 502.562 359.814C502.142 359.982 501.671 360.066 501.148 360.066Z" fill="#0E3572"/>
</g>
<defs>
<radialGradient id="paint0_radial_1517_328" cx="0" cy="0" r="1" gradientTransform="matrix(-355.187 -356.183 203.211 -201.512 562.562 545.227)" gradientUnits="userSpaceOnUse">
<stop stop-color="#D9D9D9"/>
<stop offset="1" stop-color="#D9D9D9" stop-opacity="0"/>
</radialGradient>
<linearGradient id="paint1_linear_1517_328" x1="323.172" y1="111.041" x2="323.172" y2="193.384" gradientUnits="userSpaceOnUse">
<stop stop-color="white"/>
<stop offset="1" stop-color="#3EAFD1"/>
</linearGradient>
<linearGradient id="paint2_linear_1517_328" x1="171.298" y1="281.169" x2="171.298" y2="372.784" gradientUnits="userSpaceOnUse">
<stop stop-color="white"/>
<stop offset="1" stop-color="#3EAFD1"/>
</linearGradient>
<linearGradient id="paint3_linear_1517_328" x1="478.185" y1="281.17" x2="478.185" y2="372.785" gradientUnits="userSpaceOnUse">
<stop stop-color="white"/>
<stop offset="1" stop-color="#3EAFD1"/>
</linearGradient>
<clipPath id="clip0_1517_328">
<rect width="648" height="535" fill="white"/>
</clipPath>
<clipPath id="clip1_1517_328">
<rect width="49.8244" height="49.8244" fill="white" transform="matrix(0.866025 -0.5 0.866025 0.5 274.037 123.08)"/>
</clipPath>
<clipPath id="clip2_1517_328">
<rect width="49.8244" height="49.8244" fill="white" transform="matrix(0.866025 -0.5 -0.866025 -0.5 164.601 319.448)"/>
</clipPath>
<clipPath id="clip3_1517_328">
<rect width="58.1284" height="58.1284" fill="white" transform="matrix(0.866025 0.5 -0.866025 0.5 471.173 264.297)"/>
</clipPath>
</defs>
</svg>
