<svg width="432" height="218" viewBox="0 0 432 218" fill="none" xmlns="http://www.w3.org/2000/svg">
<line x1="66.4808" y1="115.526" x2="244.625" y2="217.688" stroke="#0E3572" stroke-width="0.5" stroke-dasharray="1 1"/>
<line x1="220.949" y1="0.217418" x2="421.938" y2="114.345" stroke="#0E3572" stroke-width="0.5" stroke-dasharray="1 1"/>
<line x1="139.113" y1="208.248" x2="377.344" y2="68.7511" stroke="#0E3572" stroke-width="0.5" stroke-dasharray="1 1"/>
<line x1="80.3708" y1="165.825" x2="332.743" y2="16.5368" stroke="#0E3572" stroke-width="0.5" stroke-dasharray="1 1"/>
<mask id="path-5-inside-1_1427_792" fill="white">
<path d="M360.269 53.4183V79.5258L283.263 123.983L283.27 123.987L181.818 182.553L114.764 143.706L114.22 115.967L292.078 13.7133L360.269 53.4183Z"/>
</mask>
<path d="M360.269 53.4183V79.5258L283.263 123.983L283.27 123.987L181.818 182.553L114.764 143.706L114.22 115.967L292.078 13.7133L360.269 53.4183Z" fill="#0E3572" fill-opacity="0.1"/>
<path d="M360.269 53.4183H360.469V53.3034L360.37 53.2455L360.269 53.4183ZM360.269 79.5258L360.369 79.699L360.469 79.6412V79.5258H360.269ZM283.263 123.983L283.163 123.81L282.862 123.984L283.164 124.156L283.263 123.983ZM283.27 123.987L283.37 124.16L283.672 123.986L283.369 123.813L283.27 123.987ZM181.818 182.553L181.718 182.726L181.818 182.784L181.918 182.726L181.818 182.553ZM114.764 143.706L114.564 143.71L114.566 143.823L114.664 143.879L114.764 143.706ZM114.22 115.967L114.121 115.794L114.018 115.853L114.02 115.971L114.22 115.967ZM292.078 13.7133L292.178 13.5404L292.078 13.4822L291.978 13.5399L292.078 13.7133ZM360.269 53.4183H360.069V79.5258H360.269H360.469V53.4183H360.269ZM360.269 79.5258L360.169 79.3525L283.163 123.81L283.263 123.983L283.363 124.156L360.369 79.699L360.269 79.5258ZM283.263 123.983L283.164 124.156L283.171 124.16L283.27 123.987L283.369 123.813L283.362 123.809L283.263 123.983ZM283.27 123.987L283.17 123.813L181.718 182.38L181.818 182.553L181.918 182.726L283.37 124.16L283.27 123.987ZM181.818 182.553L181.918 182.38L114.864 143.533L114.764 143.706L114.664 143.879L181.718 182.726L181.818 182.553ZM114.764 143.706L114.964 143.702L114.42 115.963L114.22 115.967L114.02 115.971L114.564 143.71L114.764 143.706ZM114.22 115.967L114.32 116.141L292.177 13.8866L292.078 13.7133L291.978 13.5399L114.121 115.794L114.22 115.967ZM292.078 13.7133L291.977 13.8861L360.168 53.5912L360.269 53.4183L360.37 53.2455L292.178 13.5404L292.078 13.7133Z" fill="#0E3572" mask="url(#path-5-inside-1_1427_792)"/>
<g filter="url(#filter0_i_1427_792)">
<path d="M291.969 13.4885L360.286 53.3715L182.767 155.422L114.433 115.975L291.969 13.4885Z" fill="#0E3572"/>
<path d="M291.969 13.4885L360.286 53.3715L182.767 155.422L114.433 115.975L291.969 13.4885Z" fill="white"/>
</g>
<path d="M359.855 53.3701L182.767 155.173L114.866 115.975L291.968 13.739L359.855 53.3701Z" stroke="#0E3572" stroke-width="0.5"/>
<mask id="path-9-inside-2_1427_792" fill="white">
<path d="M178.059 87.3873L191.916 87.4176V95.3258L160.277 113.777L128.362 95.3258V87.2789L142.25 87.3092L160.087 77.0133L178.059 87.3873Z"/>
</mask>
<path d="M178.059 87.3873L191.916 87.4176V95.3258L160.277 113.777L128.362 95.3258V87.2789L142.25 87.3092L160.087 77.0133L178.059 87.3873Z" fill="url(#paint0_linear_1427_792)"/>
<path d="M178.059 87.3873L177.959 87.5605L178.005 87.5872L178.059 87.5873L178.059 87.3873ZM191.916 87.4176H192.116V87.218L191.916 87.2176L191.916 87.4176ZM191.916 95.3258L192.016 95.4986L192.116 95.4407V95.3258H191.916ZM160.277 113.777L160.177 113.95L160.277 114.008L160.378 113.95L160.277 113.777ZM128.362 95.3258H128.162V95.4412L128.262 95.499L128.362 95.3258ZM128.362 87.2789L128.362 87.0789L128.162 87.0785V87.2789H128.362ZM142.25 87.3092L142.249 87.5092L142.303 87.5093L142.349 87.4824L142.25 87.3092ZM160.087 77.0133L160.187 76.8401L160.087 76.7824L159.987 76.8401L160.087 77.0133ZM178.059 87.3873L178.059 87.5873L191.915 87.6176L191.916 87.4176L191.916 87.2176L178.06 87.1873L178.059 87.3873ZM191.916 87.4176H191.716V95.3258H191.916H192.116V87.4176H191.916ZM191.916 95.3258L191.815 95.153L160.176 113.604L160.277 113.777L160.378 113.95L192.016 95.4986L191.916 95.3258ZM160.277 113.777L160.377 113.604L128.462 95.1527L128.362 95.3258L128.262 95.499L160.177 113.95L160.277 113.777ZM128.362 95.3258H128.562V87.2789H128.362H128.162V95.3258H128.362ZM128.362 87.2789L128.361 87.4789L142.249 87.5092L142.25 87.3092L142.25 87.1092L128.362 87.0789L128.362 87.2789ZM142.25 87.3092L142.349 87.4824L160.187 77.1865L160.087 77.0133L159.987 76.8401L142.15 87.136L142.25 87.3092ZM160.087 77.0133L159.987 77.1865L177.959 87.5605L178.059 87.3873L178.159 87.2141L160.187 76.8401L160.087 77.0133Z" fill="#0E3572" mask="url(#path-9-inside-2_1427_792)"/>
<path d="M191.483 87.4168L160.09 105.342L128.797 87.2792L160.089 69.2168L191.483 87.4168Z" fill="white" stroke="#0E3572" stroke-width="0.5"/>
<g clip-path="url(#clip0_1427_792)">
<path d="M163.235 90.14L164.393 89.4714M166.716 88.1304L167.874 87.4619M159.761 92.1457L160.919 91.4771M159.761 88.1343L160.919 87.4658M163.242 86.1248L164.4 85.4562M156.287 90.14L157.445 89.4714M150.488 90.1343L164.39 82.1077M159.179 83.1106L156.284 81.4392M152.225 87.1258L149.33 85.4544M162.074 94.1418L171.331 88.7972C172.614 88.0566 172.614 86.8558 171.331 86.1152L163.239 81.4431C161.956 80.7025 159.876 80.7024 158.594 81.443L149.337 86.7876C148.054 87.5283 148.054 88.729 149.337 89.4696L157.429 94.1418C158.712 94.8824 160.791 94.8824 162.074 94.1418Z" stroke="#ED1C24" stroke-miterlimit="10" stroke-linecap="round" stroke-linejoin="round"/>
</g>
<mask id="path-13-inside-3_1427_792" fill="white">
<path d="M271.611 97.1776L285.467 97.2079V105.116L253.828 123.567L221.913 105.116V97.0692L235.801 97.0995L253.639 86.8036L271.611 97.1776Z"/>
</mask>
<path d="M271.611 97.1776L285.467 97.2079V105.116L253.828 123.567L221.913 105.116V97.0692L235.801 97.0995L253.639 86.8036L271.611 97.1776Z" fill="url(#paint1_linear_1427_792)"/>
<path d="M271.611 97.1776L271.511 97.3508L271.557 97.3775L271.61 97.3776L271.611 97.1776ZM285.467 97.2079H285.667V97.0083L285.467 97.0079L285.467 97.2079ZM285.467 105.116L285.568 105.289L285.667 105.231V105.116H285.467ZM253.828 123.567L253.728 123.74L253.829 123.799L253.929 123.74L253.828 123.567ZM221.913 105.116H221.713V105.231L221.813 105.289L221.913 105.116ZM221.913 97.0692L221.914 96.8692L221.713 96.8688V97.0692H221.913ZM235.801 97.0995L235.801 97.2995L235.854 97.2996L235.901 97.2727L235.801 97.0995ZM253.639 86.8036L253.739 86.6304L253.639 86.5727L253.539 86.6304L253.639 86.8036ZM271.611 97.1776L271.61 97.3776L285.467 97.4079L285.467 97.2079L285.467 97.0079L271.611 96.9776L271.611 97.1776ZM285.467 97.2079H285.267V105.116H285.467H285.667V97.2079H285.467ZM285.467 105.116L285.366 104.943L253.728 123.394L253.828 123.567L253.929 123.74L285.568 105.289L285.467 105.116ZM253.828 123.567L253.928 123.394L222.013 104.943L221.913 105.116L221.813 105.289L253.728 123.74L253.828 123.567ZM221.913 105.116H222.113V97.0692H221.913H221.713V105.116H221.913ZM221.913 97.0692L221.913 97.2692L235.801 97.2995L235.801 97.0995L235.801 96.8995L221.914 96.8692L221.913 97.0692ZM235.801 97.0995L235.901 97.2727L253.739 86.9768L253.639 86.8036L253.539 86.6304L235.701 96.9263L235.801 97.0995ZM253.639 86.8036L253.539 86.9768L271.511 97.3508L271.611 97.1776L271.711 97.0044L253.739 86.6304L253.639 86.8036Z" fill="#0E3572" mask="url(#path-13-inside-3_1427_792)"/>
<path d="M285.034 97.2072L253.642 115.132L222.349 97.0696L253.641 79.0072L285.034 97.2072Z" fill="white" stroke="#0E3572" stroke-width="0.5"/>
<g clip-path="url(#clip1_1427_792)">
<path d="M262.153 99.6214C259.231 101.308 254.477 101.308 251.555 99.6214C248.633 97.9344 248.633 95.1894 251.555 93.5024C254.477 91.8154 259.231 91.8154 262.153 93.5024C265.075 95.1894 265.075 97.9344 262.153 99.6214Z" stroke="#ED1C24" stroke-miterlimit="10" stroke-linecap="round" stroke-linejoin="round"/>
<path d="M254.204 95.0321L256.854 96.5619L259.503 95.0321" stroke="#ED1C24" stroke-miterlimit="10" stroke-linecap="round" stroke-linejoin="round"/>
<path d="M248.905 91.9727L251.555 93.5024" stroke="#ED1C24" stroke-miterlimit="10" stroke-linecap="round" stroke-linejoin="round"/>
<path d="M247.58 92.7375L250.23 91.2078" stroke="#ED1C24" stroke-miterlimit="10" stroke-linecap="round" stroke-linejoin="round"/>
<path d="M247.491 96.5619H249.363" stroke="#ED1C24" stroke-miterlimit="10" stroke-linecap="round" stroke-linejoin="round"/>
<path d="M256.854 92.2372V91.1561" stroke="#ED1C24" stroke-miterlimit="10" stroke-linecap="round" stroke-linejoin="round"/>
<path d="M246.521 102.528L249.17 100.998" stroke="#ED1C24" stroke-miterlimit="10" stroke-linecap="round" stroke-linejoin="round"/>
<path d="M245.196 100.233L246.975 99.2063" stroke="#ED1C24" stroke-miterlimit="10" stroke-linecap="round" stroke-linejoin="round"/>
<path d="M250.495 103.293L252.274 102.266" stroke="#ED1C24" stroke-miterlimit="10" stroke-linecap="round" stroke-linejoin="round"/>
</g>
<mask id="path-25-inside-4_1427_792" fill="white">
<path d="M256.381 38.436L270.237 38.4663V46.3745L238.599 64.8257L206.684 46.3745V38.3276L220.572 38.3579L238.41 28.062L256.381 38.436Z"/>
</mask>
<path d="M256.381 38.436L270.237 38.4663V46.3745L238.599 64.8257L206.684 46.3745V38.3276L220.572 38.3579L238.41 28.062L256.381 38.436Z" fill="url(#paint2_linear_1427_792)"/>
<path d="M256.381 38.436L256.281 38.6092L256.328 38.6359L256.381 38.636L256.381 38.436ZM270.237 38.4663H270.437V38.2667L270.237 38.2663L270.237 38.4663ZM270.237 46.3745L270.338 46.5473L270.437 46.4894V46.3745H270.237ZM238.599 64.8257L238.499 64.9988L238.6 65.057L238.7 64.9984L238.599 64.8257ZM206.684 46.3745H206.484V46.4899L206.584 46.5477L206.684 46.3745ZM206.684 38.3276L206.685 38.1276L206.484 38.1272V38.3276H206.684ZM220.572 38.3579L220.571 38.5579L220.625 38.558L220.672 38.5311L220.572 38.3579ZM238.41 28.062L238.51 27.8888L238.41 27.8311L238.31 27.8888L238.41 28.062ZM256.381 38.436L256.381 38.636L270.236 38.6663L270.237 38.4663L270.237 38.2663L256.382 38.236L256.381 38.436ZM270.237 38.4663H270.037V46.3745H270.237H270.437V38.4663H270.237ZM270.237 46.3745L270.136 46.2017L238.498 64.6529L238.599 64.8257L238.7 64.9984L270.338 46.5473L270.237 46.3745ZM238.599 64.8257L238.699 64.6525L206.784 46.2014L206.684 46.3745L206.584 46.5477L238.499 64.9988L238.599 64.8257ZM206.684 46.3745H206.884V38.3276H206.684H206.484V46.3745H206.684ZM206.684 38.3276L206.684 38.5276L220.571 38.5579L220.572 38.3579L220.572 38.1579L206.685 38.1276L206.684 38.3276ZM220.572 38.3579L220.672 38.5311L238.51 28.2352L238.41 28.062L238.31 27.8888L220.472 38.1847L220.572 38.3579ZM238.41 28.062L238.31 28.2352L256.281 38.6092L256.381 38.436L256.481 38.2628L238.51 27.8888L238.41 28.062Z" fill="#0E3572" mask="url(#path-25-inside-4_1427_792)"/>
<path d="M269.805 38.4656L238.412 56.391L207.119 38.3279L238.411 20.2653L269.805 38.4656Z" fill="white" stroke="#0E3572" stroke-width="0.5"/>
<g clip-path="url(#clip2_1427_792)">
<path d="M233.792 42.5406L244.766 36.2046M250.419 40.6206L241.44 45.8046C240.889 46.1228 239.996 46.1228 239.445 45.8047L232.129 41.5806C231.578 41.2625 231.578 40.7468 232.129 40.4286L241.108 35.2446C241.659 34.9265 242.552 34.9265 243.103 35.2446L250.419 39.4686C250.97 39.7867 250.97 40.3025 250.419 40.6206Z" stroke="#ED1C24" stroke-miterlimit="10" stroke-linecap="round" stroke-linejoin="round"/>
<path d="M233.7 42.4876L233.367 42.6796C232.082 43.4219 229.873 43.3501 228.435 42.5197C227.139 41.7718 226.91 40.664 227.815 39.9092C226.641 38.9855 226.772 37.6853 228.209 36.8554C229.018 36.3883 230.085 36.1606 231.149 36.1711C229.984 34.9736 230.276 33.4343 232.031 32.421C234.148 31.1985 237.592 31.2046 239.722 32.4344C239.899 32.5364 240.058 32.6435 240.205 32.7544C241.514 32.2314 243.433 32.3634 244.729 33.1116C246.167 33.942 246.292 35.2173 245.006 35.9595L244.674 36.1515M238.946 41.4846L238.78 43.5006L242.271 43.4046M242.937 39.1806L246.428 39.0846L246.262 41.1006M241.606 39.9486L243.602 42.6366" stroke="#ED1C24" stroke-miterlimit="10" stroke-linecap="round" stroke-linejoin="round"/>
</g>
<mask id="path-30-inside-5_1427_792" fill="white">
<path d="M417.379 35.1726L431.235 35.2029V43.1111L399.597 61.5623L367.682 43.1111V35.0642L381.57 35.0945L399.408 24.7986L417.379 35.1726Z"/>
</mask>
<path d="M417.379 35.1726L431.235 35.2029V43.1111L399.597 61.5623L367.682 43.1111V35.0642L381.57 35.0945L399.408 24.7986L417.379 35.1726Z" fill="url(#paint3_linear_1427_792)"/>
<path d="M417.379 35.1726L417.279 35.3458L417.326 35.3725L417.379 35.3726L417.379 35.1726ZM431.235 35.2029H431.435V35.0033L431.235 35.0029L431.235 35.2029ZM431.235 43.1111L431.336 43.2838L431.435 43.226V43.1111H431.235ZM399.597 61.5623L399.497 61.7354L399.598 61.7935L399.698 61.735L399.597 61.5623ZM367.682 43.1111H367.482V43.2265L367.582 43.2842L367.682 43.1111ZM367.682 35.0642L367.683 34.8642L367.482 34.8638V35.0642H367.682ZM381.57 35.0945L381.569 35.2945L381.623 35.2946L381.67 35.2677L381.57 35.0945ZM399.408 24.7986L399.508 24.6254L399.408 24.5677L399.308 24.6254L399.408 24.7986ZM417.379 35.1726L417.379 35.3726L431.234 35.4029L431.235 35.2029L431.235 35.0029L417.38 34.9726L417.379 35.1726ZM431.235 35.2029H431.035V43.1111H431.235H431.435V35.2029H431.235ZM431.235 43.1111L431.134 42.9383L399.496 61.3895L399.597 61.5623L399.698 61.735L431.336 43.2838L431.235 43.1111ZM399.597 61.5623L399.697 61.3891L367.782 42.9379L367.682 43.1111L367.582 43.2842L399.497 61.7354L399.597 61.5623ZM367.682 43.1111H367.882V35.0642H367.682H367.482V43.1111H367.682ZM367.682 35.0642L367.682 35.2642L381.569 35.2945L381.57 35.0945L381.57 34.8945L367.683 34.8642L367.682 35.0642ZM381.57 35.0945L381.67 35.2677L399.508 24.9718L399.408 24.7986L399.308 24.6254L381.47 34.9213L381.57 35.0945ZM399.408 24.7986L399.308 24.9718L417.279 35.3458L417.379 35.1726L417.479 34.9994L399.508 24.6254L399.408 24.7986Z" fill="#0E3572" mask="url(#path-30-inside-5_1427_792)"/>
<path d="M430.803 35.2023L399.41 53.1278L368.118 35.0646L399.409 17.0019L430.803 35.2023Z" fill="white" stroke="#0E3572" stroke-width="0.5"/>
<g clip-path="url(#clip3_1427_792)">
<path d="M400.705 35.2688L404.578 37.5051" stroke="#0E3572" stroke-miterlimit="10"/>
<path d="M406.762 38.7659C407.365 38.4177 407.365 37.8533 406.762 37.5051C406.159 37.157 405.181 37.157 404.578 37.5051C403.975 37.8533 403.975 38.4177 404.578 38.7659C405.181 39.114 406.159 39.114 406.762 38.7659Z" stroke="#0E3572" stroke-miterlimit="10"/>
<path d="M398.492 41.9468C399.095 41.5986 399.095 41.0342 398.492 40.686C397.889 40.3379 396.912 40.3379 396.309 40.686C395.706 41.0342 395.706 41.5986 396.309 41.9468C396.912 42.2949 397.889 42.2949 398.492 41.9468Z" stroke="#0E3572" stroke-miterlimit="10"/>
<path d="M412.271 33.9911C412.874 33.6429 412.874 33.0785 412.271 32.7304C411.668 32.3822 410.691 32.3822 410.088 32.7304C409.485 33.0785 409.485 33.6429 410.088 33.9911C410.691 34.3392 411.668 34.3392 412.271 33.9911Z" stroke="#0E3572" stroke-miterlimit="10"/>
<path d="M398.492 40.6861L400.48 39.5387L396.895 37.4688M410.088 33.9911L408.1 35.1385L404.516 33.0687M405.597 32.4421C407.302 31.4575 407.302 29.8613 405.597 28.8768C403.892 27.8923 401.127 27.8923 399.422 28.8768C399.354 28.916 399.29 28.9565 399.228 28.9975C396.841 27.9401 393.409 28.0419 391.224 29.3034C389.479 30.3111 389.015 31.7784 389.832 33.0304C389.531 33.1447 389.251 33.2765 388.997 33.4236C386.939 34.6115 386.939 36.5373 388.997 37.7252C391.054 38.913 394.39 38.913 396.447 37.7252L405.597 32.4421Z" stroke="#0E3572" stroke-miterlimit="10"/>
</g>
<mask id="path-38-inside-6_1427_792" fill="white">
<path d="M364.075 157.008L377.929 157.039V164.946L346.292 183.398L315.461 165.572L314.377 164.947V156.9L328.264 156.93L346.102 146.633L364.075 157.008Z"/>
</mask>
<path d="M364.075 157.008L377.929 157.039V164.946L346.292 183.398L315.461 165.572L314.377 164.947V156.9L328.264 156.93L346.102 146.633L364.075 157.008Z" fill="url(#paint4_linear_1427_792)"/>
<path d="M364.075 157.008L363.975 157.182L364.021 157.208L364.074 157.208L364.075 157.008ZM377.929 157.039H378.129V156.839L377.93 156.839L377.929 157.039ZM377.929 164.946L378.03 165.119L378.129 165.061V164.946H377.929ZM346.292 183.398L346.192 183.571L346.293 183.629L346.393 183.571L346.292 183.398ZM315.461 165.572L315.562 165.399L315.561 165.399L315.461 165.572ZM314.377 164.947H314.177V165.062L314.278 165.12L314.377 164.947ZM314.377 156.9L314.378 156.7L314.177 156.7V156.9H314.377ZM328.264 156.93L328.264 157.13L328.318 157.13L328.364 157.104L328.264 156.93ZM346.102 146.633L346.202 146.46L346.102 146.402L346.002 146.46L346.102 146.633ZM364.075 157.008L364.074 157.208L377.929 157.239L377.929 157.039L377.93 156.839L364.075 156.808L364.075 157.008ZM377.929 157.039H377.729V164.946H377.929H378.129V157.039H377.929ZM377.929 164.946L377.828 164.773L346.192 183.225L346.292 183.398L346.393 183.571L378.03 165.119L377.929 164.946ZM346.292 183.398L346.393 183.225L315.562 165.399L315.461 165.572L315.361 165.745L346.192 183.571L346.292 183.398ZM315.461 165.572L315.561 165.399L314.477 164.774L314.377 164.947L314.278 165.12L315.362 165.745L315.461 165.572ZM314.377 164.947H314.577V156.9H314.377H314.177V164.947H314.377ZM314.377 156.9L314.377 157.1L328.264 157.13L328.264 156.93L328.265 156.73L314.378 156.7L314.377 156.9ZM328.264 156.93L328.364 157.104L346.202 146.807L346.102 146.633L346.002 146.46L328.164 156.757L328.264 156.93ZM346.102 146.633L346.002 146.807L363.975 157.182L364.075 157.008L364.175 156.835L346.202 146.46L346.102 146.633Z" fill="#0E3572" mask="url(#path-38-inside-6_1427_792)"/>
<path d="M377.497 157.038L346.105 174.964L314.812 156.9L346.104 138.837L377.497 157.038Z" fill="white" stroke="#0E3572" stroke-width="0.5"/>
<g clip-path="url(#clip4_1427_792)">
<path d="M339.669 158.591C341.247 159.502 343.353 159.92 345.418 159.848C346.854 159.797 348.256 160.107 349.273 160.694L353.91 158.017C352.893 157.43 352.356 156.62 352.443 155.791C352.569 154.599 351.845 153.383 350.267 152.472" stroke="#0E3572" stroke-width="0.7" stroke-miterlimit="10" stroke-linecap="round" stroke-linejoin="round"/>
<path d="M355.301 159.585L351.989 161.497C351.623 161.709 351.03 161.709 350.664 161.497L349.273 160.694L353.91 158.017L355.301 158.82C355.666 159.032 355.666 159.374 355.301 159.585Z" stroke="#0E3572" stroke-width="0.7" stroke-miterlimit="10" stroke-linecap="round" stroke-linejoin="round"/>
<path d="M356.294 161.306L354.97 162.071C354.421 162.388 353.531 162.388 352.983 162.071L351.989 161.497L355.301 159.585L356.294 160.159C356.843 160.476 356.843 160.989 356.294 161.306Z" stroke="#0E3572" stroke-width="0.7" stroke-miterlimit="10" stroke-linecap="round" stroke-linejoin="round"/>
<path d="M350.267 152.472C347.34 150.782 342.595 150.782 339.669 152.472C336.742 154.161 336.742 156.901 339.669 158.591" stroke="#0E3572" stroke-width="0.7" stroke-miterlimit="10" stroke-linecap="round" stroke-linejoin="round"/>
<path d="M351.956 151.496L352.949 150.923" stroke="#0E3572" stroke-width="0.7" stroke-miterlimit="10" stroke-linecap="round" stroke-linejoin="round"/>
<path d="M348.81 150.062L349.173 149.279" stroke="#0E3572" stroke-width="0.7" stroke-miterlimit="10" stroke-linecap="round" stroke-linejoin="round"/>
<path d="M354.44 153.313L355.797 153.103" stroke="#0E3572" stroke-width="0.7" stroke-miterlimit="10" stroke-linecap="round" stroke-linejoin="round"/>
<path d="M337.98 159.566L336.986 160.14" stroke="#0E3572" stroke-width="0.7" stroke-miterlimit="10" stroke-linecap="round" stroke-linejoin="round"/>
<path d="M335.496 157.75L334.139 157.96" stroke="#0E3572" stroke-width="0.7" stroke-miterlimit="10" stroke-linecap="round" stroke-linejoin="round"/>
<path d="M341.126 161L340.762 161.784" stroke="#0E3572" stroke-width="0.7" stroke-miterlimit="10" stroke-linecap="round" stroke-linejoin="round"/>
<path d="M347.617 154.002C347.447 153.903 347.263 153.817 347.07 153.741L347.311 153.094L345.049 152.744L344.697 153.375C344.224 153.395 343.762 153.466 343.336 153.586L342.484 153.141L340.828 154.097L341.599 154.589C341.392 154.835 341.268 155.102 341.234 155.375L340.141 155.578L340.747 156.884L341.868 156.745C341.999 156.856 342.148 156.963 342.318 157.061C342.489 157.16 342.673 157.246 342.866 157.321L342.625 157.968L344.887 158.318L345.239 157.687C345.712 157.668 346.174 157.596 346.6 157.477L347.452 157.922L349.108 156.965L348.337 156.474C348.544 156.228 348.668 155.961 348.702 155.688L349.795 155.484L349.189 154.178L348.068 154.318C347.937 154.206 347.788 154.1 347.617 154.002Z" stroke="#0E3572" stroke-width="0.5" stroke-miterlimit="10" stroke-linecap="round" stroke-linejoin="round"/>
<path d="M345.961 154.958C346.51 155.274 346.51 155.788 345.961 156.105C345.413 156.422 344.523 156.422 343.974 156.105C343.426 155.788 343.426 155.274 343.974 154.958C344.523 154.641 345.413 154.641 345.961 154.958Z" stroke="#0E3572" stroke-width="0.7" stroke-miterlimit="10" stroke-linecap="round" stroke-linejoin="round"/>
</g>
<mask id="path-53-inside-7_1427_792" fill="white">
<path d="M49.6973 76.5093L63.5527 76.5396V84.4478L31.915 102.899L0 84.4478V76.4009L13.8877 76.4312L31.7256 66.1353L49.6973 76.5093Z"/>
</mask>
<path d="M49.6973 76.5093L63.5527 76.5396V84.4478L31.915 102.899L0 84.4478V76.4009L13.8877 76.4312L31.7256 66.1353L49.6973 76.5093Z" fill="url(#paint5_linear_1427_792)"/>
<path d="M49.6973 76.5093L49.5973 76.6825L49.6435 76.7092L49.6968 76.7093L49.6973 76.5093ZM63.5527 76.5396H63.7527V76.34L63.5532 76.3396L63.5527 76.5396ZM63.5527 84.4478L63.6535 84.6205L63.7527 84.5626V84.4478H63.5527ZM31.915 102.899L31.8149 103.072L31.9155 103.13L32.0158 103.072L31.915 102.899ZM0 84.4478H-0.2V84.5631L-0.100102 84.6209L0 84.4478ZM0 76.4009L0.000435974 76.2009L-0.2 76.2004V76.4009H0ZM13.8877 76.4312L13.8873 76.6312L13.9411 76.6313L13.9877 76.6044L13.8877 76.4312ZM31.7256 66.1353L31.8256 65.962L31.7256 65.9043L31.6256 65.962L31.7256 66.1353ZM49.6973 76.5093L49.6968 76.7093L63.5523 76.7396L63.5527 76.5396L63.5532 76.3396L49.6977 76.3093L49.6973 76.5093ZM63.5527 76.5396H63.3527V84.4478H63.5527H63.7527V76.5396H63.5527ZM63.5527 84.4478L63.452 84.275L31.8143 102.726L31.915 102.899L32.0158 103.072L63.6535 84.6205L63.5527 84.4478ZM31.915 102.899L32.0151 102.726L0.100102 84.2746L0 84.4478L-0.100102 84.6209L31.8149 103.072L31.915 102.899ZM0 84.4478H0.2V76.4009H0H-0.2V84.4478H0ZM0 76.4009L-0.000435974 76.6009L13.8873 76.6312L13.8877 76.4312L13.8881 76.2312L0.000435974 76.2009L0 76.4009ZM13.8877 76.4312L13.9877 76.6044L31.8256 66.3085L31.7256 66.1353L31.6256 65.962L13.7877 76.2579L13.8877 76.4312ZM31.7256 66.1353L31.6256 66.3085L49.5973 76.6825L49.6973 76.5093L49.7973 76.3361L31.8256 65.962L31.7256 66.1353Z" fill="#0E3572" mask="url(#path-53-inside-7_1427_792)"/>
<path d="M63.121 76.5388L31.7284 94.4641L0.435568 76.4011L31.7275 58.3387L63.121 76.5388Z" fill="white" stroke="#0E3572" stroke-width="0.5"/>
<path d="M36.3571 81.6521C35.5373 82.1254 34.6539 82.3687 33.707 82.3821C32.7601 82.3954 31.8941 82.1754 31.1089 81.7221L27.8698 79.8523C27.5119 79.6456 27.1423 79.5323 26.7613 79.5123C26.3802 79.479 26.0107 79.5656 25.6527 79.7723L25.1504 80.0623L23.6781 79.2123L24.1805 78.9224C24.5384 78.7157 24.6943 78.5057 24.6481 78.2924C24.6019 78.0658 24.3999 77.8491 24.0419 77.6425L20.7163 75.7226C19.9426 75.276 19.5673 74.7794 19.5904 74.2328C19.6135 73.6861 20.035 73.1762 20.8548 72.7029L21.513 72.3229L22.9853 73.1728L22.3271 73.5528C22.0153 73.7328 21.8652 73.9328 21.8768 74.1528C21.8999 74.3661 22.0846 74.5661 22.431 74.7527L25.6181 76.5926C26.0454 76.8259 26.3571 77.0858 26.5534 77.3725C26.7382 77.6525 26.8017 77.9558 26.744 78.2824C27.2405 78.2357 27.7486 78.2691 28.2682 78.3824C28.7763 78.4891 29.2209 78.659 29.6019 78.8924L32.789 80.7322C33.1008 80.9255 33.4472 81.0322 33.8283 81.0522C34.2209 81.0655 34.5731 80.9822 34.8848 80.8022L35.543 80.4222L37.0153 81.2722L36.3571 81.6521ZM41.2174 78.8463L39.7451 77.9964L40.4033 77.6165C40.7151 77.4365 40.8595 77.2332 40.8364 77.0065C40.8133 76.7799 40.6343 76.5765 40.2994 76.3966L37.1123 74.5567C36.7082 74.3367 36.408 74.0834 36.2116 73.7968C36.0153 73.4968 35.9576 73.2035 36.0384 72.9169C35.4842 72.9435 34.9588 72.9069 34.4622 72.8069C33.9657 72.6935 33.5211 72.5102 33.1285 72.2569L29.9414 70.4171C29.6181 70.2171 29.2659 70.1138 28.8849 70.1071C28.5038 70.1004 28.1574 70.1871 27.8456 70.3671L27.1874 70.747L25.7151 69.8971L26.3733 69.5171C27.2047 69.0372 28.0881 68.7939 29.0234 68.7872C29.9703 68.7739 30.8306 68.9905 31.6043 69.4371L34.9299 71.357C35.2879 71.5636 35.6632 71.6803 36.0558 71.707C36.4368 71.727 36.8006 71.637 37.147 71.437L37.6493 71.147L39.1216 71.9969L38.6193 72.2869C38.2728 72.4869 38.1227 72.7002 38.1689 72.9269C38.2036 73.1468 38.3999 73.3601 38.7578 73.5668L41.9969 75.4366C42.7821 75.8899 43.1631 76.3899 43.14 76.9365C43.1285 77.4765 42.707 77.9864 41.8756 78.4664L41.2174 78.8463Z" fill="#0E3572"/>
<defs>
<filter id="filter0_i_1427_792" x="114.433" y="13.4885" width="245.853" height="141.933" filterUnits="userSpaceOnUse" color-interpolation-filters="sRGB">
<feFlood flood-opacity="0" result="BackgroundImageFix"/>
<feBlend mode="normal" in="SourceGraphic" in2="BackgroundImageFix" result="shape"/>
<feColorMatrix in="SourceAlpha" type="matrix" values="0 0 0 0 0 0 0 0 0 0 0 0 0 0 0 0 0 0 127 0" result="hardAlpha"/>
<feOffset/>
<feGaussianBlur stdDeviation="3.6"/>
<feComposite in2="hardAlpha" operator="arithmetic" k2="-1" k3="1"/>
<feColorMatrix type="matrix" values="0 0 0 0 0.054902 0 0 0 0 0.207843 0 0 0 0 0.447059 0 0 0 0.35 0"/>
<feBlend mode="normal" in2="shape" result="effect1_innerShadow_1427_792"/>
</filter>
<linearGradient id="paint0_linear_1427_792" x1="160.139" y1="95.4599" x2="160.139" y2="113.777" gradientUnits="userSpaceOnUse">
<stop stop-color="white"/>
<stop offset="1" stop-color="#3EAFD1"/>
</linearGradient>
<linearGradient id="paint1_linear_1427_792" x1="253.69" y1="105.25" x2="253.69" y2="123.567" gradientUnits="userSpaceOnUse">
<stop stop-color="white"/>
<stop offset="1" stop-color="#3EAFD1"/>
</linearGradient>
<linearGradient id="paint2_linear_1427_792" x1="238.461" y1="46.5086" x2="238.461" y2="64.8256" gradientUnits="userSpaceOnUse">
<stop stop-color="white"/>
<stop offset="1" stop-color="#3EAFD1"/>
</linearGradient>
<linearGradient id="paint3_linear_1427_792" x1="399.458" y1="43.2452" x2="399.458" y2="61.5623" gradientUnits="userSpaceOnUse">
<stop stop-color="white"/>
<stop offset="1" stop-color="#3EAFD1"/>
</linearGradient>
<linearGradient id="paint4_linear_1427_792" x1="346.153" y1="165.081" x2="346.153" y2="183.398" gradientUnits="userSpaceOnUse">
<stop stop-color="white"/>
<stop offset="1" stop-color="#3EAFD1"/>
</linearGradient>
<linearGradient id="paint5_linear_1427_792" x1="31.7764" y1="84.5819" x2="31.7764" y2="102.899" gradientUnits="userSpaceOnUse">
<stop stop-color="white"/>
<stop offset="1" stop-color="#3EAFD1"/>
</linearGradient>
<clipPath id="clip0_1427_792">
<rect width="17.4048" height="17.4048" fill="white" transform="matrix(0.866019 -0.500012 0.866019 0.500012 144.679 87.46)"/>
</clipPath>
<clipPath id="clip1_1427_792">
<rect width="19.5804" height="19.5804" fill="white" transform="matrix(0.866019 -0.500012 0.866019 0.500012 236.055 97.2502)"/>
</clipPath>
<clipPath id="clip2_1427_792">
<rect width="19.5804" height="19.5804" fill="white" transform="matrix(0.866016 -0.500016 0.866016 0.500016 220.825 38.5085)"/>
</clipPath>
<clipPath id="clip3_1427_792">
<rect width="19.5803" height="19.5803" fill="white" transform="matrix(0.866014 -0.50002 0.866014 0.50002 381.823 34.1573)"/>
</clipPath>
<clipPath id="clip4_1427_792">
<rect width="19.5802" height="19.5802" fill="white" transform="matrix(0.866008 -0.50003 0.866008 0.50003 330.694 157.08)"/>
</clipPath>
</defs>
</svg>
