<svg width="612" height="205" viewBox="0 0 612 205" fill="none" xmlns="http://www.w3.org/2000/svg">
<line x1="0.124147" y1="77.783" x2="208.124" y2="196.783" stroke="#0E3572" stroke-width="0.5" stroke-dasharray="1 1"/>
<line x1="51.124" y1="38.7829" x2="268.124" y2="162.783" stroke="#0E3572" stroke-width="0.5" stroke-dasharray="1 1"/>
<line x1="210.88" y1="128.781" x2="301.88" y2="78.7809" stroke="#0E3572" stroke-width="0.5" stroke-dasharray="1 1"/>
<line x1="264.882" y1="163.78" x2="359.882" y2="112.78" stroke="#0E3572" stroke-width="0.5" stroke-dasharray="1 1"/>
<line x1="358.63" y1="111.752" x2="516.113" y2="191.777" stroke="#0E3572" stroke-width="0.5" stroke-dasharray="1 1"/>
<line x1="398.108" y1="69.7745" x2="586.108" y2="159.775" stroke="#0E3572" stroke-width="0.5" stroke-dasharray="1 1"/>
<mask id="path-7-inside-1_2130_1755" fill="white">
<path d="M105.735 69.7457L131.867 69.8033V84.7194L72.1953 119.523L12 84.7194V69.5416L38.1924 69.5983L71.8369 50.1774L105.735 69.7457Z"/>
</mask>
<path d="M105.735 69.7457L131.867 69.8033V84.7194L72.1953 119.523L12 84.7194V69.5416L38.1924 69.5983L71.8369 50.1774L105.735 69.7457Z" fill="#0E3572" fill-opacity="0.1"/>
<path d="M105.735 69.7457L105.635 69.9189L105.682 69.9456L105.735 69.9457L105.735 69.7457ZM131.867 69.8033H132.067V69.6038L131.868 69.6033L131.867 69.8033ZM131.867 84.7194L131.968 84.8921L132.067 84.8342V84.7194H131.867ZM72.1953 119.523L72.0952 119.696L72.1958 119.754L72.2961 119.696L72.1953 119.523ZM12 84.7194H11.8V84.8347L11.8999 84.8925L12 84.7194ZM12 69.5416L12.0004 69.3416L11.8 69.3412V69.5416H12ZM38.1924 69.5983L38.1919 69.7983L38.2458 69.7984L38.2924 69.7715L38.1924 69.5983ZM71.8369 50.1774L71.9369 50.0042L71.8369 49.9464L71.7369 50.0042L71.8369 50.1774ZM105.735 69.7457L105.735 69.9457L131.867 70.0033L131.867 69.8033L131.868 69.6033L105.736 69.5457L105.735 69.7457ZM131.867 69.8033H131.667V84.7194H131.867H132.067V69.8033H131.867ZM131.867 84.7194L131.766 84.5466L72.0945 119.35L72.1953 119.523L72.2961 119.696L131.968 84.8921L131.867 84.7194ZM72.1953 119.523L72.2954 119.35L12.1001 84.5462L12 84.7194L11.8999 84.8925L72.0952 119.696L72.1953 119.523ZM12 84.7194H12.2V69.5416H12H11.8V84.7194H12ZM12 69.5416L11.9996 69.7416L38.1919 69.7983L38.1924 69.5983L38.1928 69.3983L12.0004 69.3416L12 69.5416ZM38.1924 69.5983L38.2924 69.7715L71.9369 50.3506L71.8369 50.1774L71.7369 50.0042L38.0924 69.4251L38.1924 69.5983ZM71.8369 50.1774L71.7369 50.3506L105.635 69.9189L105.735 69.7457L105.835 69.5725L71.9369 50.0042L71.8369 50.1774Z" fill="#0E3572" mask="url(#path-7-inside-1_2130_1755)"/>
<path d="M131.368 69.8021L71.8415 103.796L12.5049 69.5423L71.8398 35.29L131.368 69.8021Z" fill="white" stroke="#0E3572" stroke-width="0.579511"/>
<g clip-path="url(#clip0_2130_1755)">
<path d="M72.1158 56.3086C74.1336 57.4736 70.8621 61.2512 64.8087 64.7461C58.7554 68.241 52.2124 70.1298 50.1946 68.9649C48.1768 67.7999 51.4483 64.0223 57.5017 60.5274C63.555 57.0325 70.098 55.1437 72.1158 56.3086Z" stroke="#ED1C24" stroke-miterlimit="10" stroke-linecap="square"/>
<path d="M79.484 60.5625C81.5018 61.7275 78.2303 65.5051 72.1769 69C66.1236 72.4949 59.5806 74.3837 57.5628 73.2188" stroke="#ED1C24" stroke-miterlimit="10" stroke-linecap="square"/>
<path d="M86.7909 64.7813C88.8086 65.9463 85.5372 69.7239 79.4838 73.2188C73.4304 76.7137 66.8874 78.6025 64.8697 77.4375" stroke="#ED1C24" stroke-miterlimit="10" stroke-linecap="square"/>
<path d="M50.1946 68.965L72.2376 81.6915C74.2554 82.8565 80.7984 80.9677 86.8517 77.4728C92.9051 73.9779 96.1766 70.2003 94.1588 69.0353L72.1158 56.3088" stroke="#ED1C24" stroke-miterlimit="10"/>
</g>
<path d="M97.6244 119.016L91.3024 115.366L93.2596 114.236L98.2566 115.451L98.4211 115.356L96.2993 112.481L98.2912 111.331L104.613 114.981L103.21 115.791L97.8149 112.676L98.0314 112.571L100.456 115.901L99.1053 116.681L93.3289 115.286L93.5281 115.151L98.9234 118.266L97.6244 119.016ZM105.433 114.508L101.198 109.653L103.493 108.328L111.98 110.728L110.508 111.578L103.416 109.503L104.048 109.348L102.931 109.993L103.216 109.618L106.854 113.688L105.433 114.508ZM105.451 112.688L104.706 111.758L107.183 110.328L108.802 110.753L105.451 112.688ZM112.805 110.252L106.483 106.602L108.813 105.257L116.365 106.867L116.659 106.697L116.642 106.887L111.316 103.812L112.649 103.042L118.971 106.692L116.624 108.047L109.073 106.437L108.778 106.607L108.795 106.417L114.122 109.492L112.805 110.252ZM123.206 104.437C122.611 104.78 121.996 105.008 121.361 105.122C120.726 105.228 120.097 105.225 119.473 105.112C118.85 104.998 118.258 104.78 117.698 104.457L113.948 102.292L115.368 101.472L119.17 103.667C119.447 103.827 119.742 103.937 120.054 103.997C120.365 104.05 120.674 104.052 120.98 104.002C121.292 103.948 121.592 103.838 121.881 103.672C122.175 103.502 122.366 103.328 122.453 103.152C122.545 102.972 122.542 102.793 122.444 102.617C122.346 102.44 122.155 102.27 121.872 102.107L118.07 99.9116L119.491 99.0916L123.241 101.257C123.801 101.58 124.179 101.922 124.375 102.282C124.571 102.642 124.577 103.005 124.392 103.372C124.202 103.735 123.806 104.09 123.206 104.437ZM126.281 102.472L122.046 97.6165L124.341 96.2915L132.828 98.6915L131.355 99.5415L124.263 97.4665L124.895 97.3115L123.778 97.9565L124.064 97.5815L127.701 101.652L126.281 102.472ZM126.298 100.652L125.553 99.7215L128.03 98.2915L129.649 98.7165L126.298 100.652ZM133.652 98.2154L127.33 94.5654L128.751 93.7454L135.073 97.3954L133.652 98.2154ZM134.899 97.4954L133.652 96.7754L136.302 95.2454L137.549 95.9654L134.899 97.4954ZM117.587 119.531L116.262 118.766L117.439 118.086C117.734 117.916 117.956 117.738 118.106 117.551C118.25 117.361 118.326 117.171 118.331 116.981C118.331 116.788 118.259 116.599 118.115 116.416C117.965 116.229 117.748 116.054 117.465 115.891C117.171 115.721 116.865 115.594 116.547 115.511C116.23 115.428 115.906 115.388 115.577 115.391C115.248 115.394 114.925 115.441 114.607 115.531C114.284 115.618 113.975 115.746 113.681 115.916L112.503 116.596L111.178 115.831L112.278 115.196C112.849 114.866 113.432 114.626 114.027 114.476C114.622 114.326 115.208 114.251 115.785 114.251C116.363 114.251 116.908 114.319 117.422 114.456C117.936 114.586 118.398 114.769 118.808 115.006L118.998 115.116C119.379 115.336 119.685 115.596 119.916 115.896C120.147 116.189 120.268 116.506 120.28 116.846C120.286 117.183 120.164 117.526 119.916 117.876C119.668 118.226 119.258 118.566 118.686 118.896L117.587 119.531ZM116.339 120.251L109.931 116.551L111.351 115.731L117.76 119.431L116.339 120.251ZM122.202 116.826L117.968 111.971L120.263 110.646L128.75 113.046L127.277 113.896L120.185 111.821L120.817 111.666L119.7 112.311L119.985 111.936L123.623 116.006L122.202 116.826ZM122.22 115.006L121.475 114.076L123.952 112.646L125.571 113.071L122.22 115.006ZM130.272 112.167L125.015 109.132L126.435 108.312L131.692 111.347L130.272 112.167ZM123.413 110.257L122.174 109.542L127.154 106.667L128.393 107.382L123.413 110.257ZM133.214 110.469L128.979 105.614L131.274 104.289L139.761 106.689L138.289 107.539L131.196 105.464L131.828 105.309L130.711 105.954L130.997 105.579L134.634 109.649L133.214 110.469ZM133.231 108.649L132.486 107.719L134.963 106.289L136.583 106.714L133.231 108.649Z" fill="#0E3572"/>
<path d="M256.604 129.388L250.282 125.738L251.703 124.918L258.025 128.568L256.604 129.388ZM259.462 127.737L253.14 124.087L255.47 122.742L263.022 124.352L263.316 124.182L263.299 124.372L257.973 121.297L259.307 120.527L265.628 124.177L263.282 125.532L255.73 123.922L255.435 124.092L255.453 123.902L260.779 126.977L259.462 127.737ZM268.304 122.633L263.048 119.598L264.468 118.778L269.725 121.813L268.304 122.633ZM261.445 120.723L260.207 120.008L265.187 117.133L266.425 117.848L261.445 120.723ZM272.402 120.267L266.08 116.617L267.466 115.817L273.788 119.467L272.402 120.267ZM273.614 119.567L272.437 118.887L275.199 117.292L276.377 117.972L273.614 119.567ZM270.99 118.052L269.813 117.372L272.376 115.892L273.554 116.572L270.99 118.052ZM268.47 116.597L267.292 115.917L269.994 114.357L271.172 115.037L268.47 116.597ZM277.544 117.298L271.17 113.618L272.59 112.798L278.964 116.478L277.544 117.298ZM281.381 115.083L276.808 114.583L278.367 113.683L283.026 114.133L281.381 115.083ZM276.557 115.528L275.44 114.883L276.998 113.983C277.206 113.863 277.345 113.736 277.414 113.603C277.483 113.463 277.483 113.326 277.414 113.193C277.345 113.053 277.209 112.925 277.007 112.808C276.805 112.691 276.586 112.615 276.349 112.578C276.112 112.535 275.876 112.535 275.639 112.578C275.402 112.615 275.18 112.693 274.972 112.813L273.413 113.713L272.209 113.018L273.656 112.183C274.181 111.88 274.718 111.663 275.266 111.533C275.809 111.4 276.34 111.363 276.86 111.423C277.38 111.483 277.876 111.65 278.349 111.923L278.488 112.003C278.956 112.273 279.239 112.56 279.337 112.863C279.435 113.16 279.368 113.465 279.138 113.778C278.907 114.085 278.528 114.39 278.003 114.693L276.557 115.528ZM283.87 113.646L277.548 109.996L279.878 108.651L287.429 110.261L287.724 110.091L287.707 110.281L282.381 107.206L283.714 106.436L290.036 110.086L287.689 111.441L280.138 109.831L279.843 110.001L279.86 109.811L285.186 112.886L283.87 113.646ZM290.859 109.611L286.624 104.756L288.919 103.431L297.406 105.831L295.934 106.681L288.841 104.606L289.473 104.451L288.356 105.096L288.642 104.721L292.279 108.791L290.859 109.611ZM290.876 107.791L290.131 106.861L292.608 105.431L294.228 105.856L290.876 107.791ZM298.231 105.355L291.909 101.705L293.329 100.885L299.651 104.535L298.231 105.355ZM299.478 104.635L298.231 103.915L300.881 102.385L302.128 103.105L299.478 104.635ZM271.749 130.554L270.519 129.844L271.653 129.189C271.873 129.062 272.017 128.929 272.086 128.789C272.161 128.646 272.164 128.504 272.095 128.364C272.02 128.221 271.879 128.089 271.671 127.969C271.451 127.842 271.22 127.759 270.978 127.719C270.73 127.676 270.484 127.677 270.242 127.724C269.999 127.764 269.768 127.847 269.549 127.974L268.414 128.629L267.185 127.919L268.25 127.304C268.787 126.994 269.335 126.781 269.895 126.664C270.461 126.544 271.01 126.521 271.541 126.594C272.078 126.664 272.577 126.832 273.039 127.099L273.178 127.179C273.628 127.439 273.917 127.726 274.044 128.039C274.171 128.346 274.13 128.662 273.922 128.989C273.72 129.312 273.351 129.629 272.814 129.939L271.749 130.554ZM272.312 132.319L265.938 128.639L267.358 127.819L273.732 131.499L272.312 132.319ZM281.283 127.329C280.712 127.659 280.114 127.891 279.491 128.024C278.867 128.151 278.255 128.201 277.655 128.174C277.049 128.144 276.486 128.059 275.966 127.919C275.452 127.776 275.019 127.602 274.667 127.399L274.477 127.289C274.084 127.062 273.766 126.799 273.524 126.499C273.281 126.192 273.146 125.867 273.117 125.524C273.088 125.181 273.192 124.834 273.429 124.484C273.66 124.131 274.052 123.794 274.606 123.474C275.161 123.154 275.744 122.927 276.356 122.794C276.962 122.657 277.562 122.597 278.157 122.614C278.752 122.631 279.315 122.709 279.846 122.849C280.371 122.986 280.83 123.167 281.223 123.394L281.413 123.504C281.766 123.707 282.063 123.959 282.305 124.259C282.548 124.559 282.695 124.884 282.747 125.234C282.793 125.581 282.704 125.936 282.479 126.299C282.253 126.656 281.855 126.999 281.283 127.329ZM279.958 126.564C280.259 126.391 280.475 126.206 280.608 126.009C280.747 125.809 280.807 125.607 280.79 125.404C280.778 125.197 280.695 124.999 280.539 124.809C280.383 124.619 280.166 124.444 279.889 124.284C279.595 124.114 279.28 123.986 278.945 123.899C278.61 123.806 278.267 123.757 277.915 123.754C277.562 123.744 277.219 123.779 276.884 123.859C276.549 123.939 276.232 124.066 275.931 124.239C275.631 124.412 275.412 124.596 275.273 124.789C275.135 124.982 275.071 125.182 275.083 125.389C275.094 125.589 275.181 125.786 275.343 125.979C275.498 126.169 275.724 126.349 276.018 126.519C276.295 126.679 276.598 126.804 276.927 126.894C277.256 126.984 277.597 127.034 277.949 127.044C278.307 127.051 278.657 127.016 278.997 126.939C279.338 126.862 279.658 126.737 279.958 126.564ZM285.573 124.663L279.199 120.983L280.619 120.163L286.993 123.843L285.573 124.663ZM289.409 122.448L284.836 121.948L286.395 121.048L291.054 121.498L289.409 122.448ZM284.585 122.893L283.468 122.248L285.027 121.348C285.235 121.228 285.373 121.101 285.443 120.968C285.512 120.828 285.512 120.691 285.443 120.558C285.373 120.418 285.238 120.289 285.036 120.173C284.834 120.056 284.614 119.979 284.377 119.943C284.141 119.899 283.904 119.899 283.667 119.943C283.431 119.979 283.208 120.058 283 120.178L281.442 121.078L280.238 120.383L281.684 119.548C282.209 119.244 282.746 119.028 283.295 118.898C283.838 118.764 284.369 118.728 284.888 118.788C285.408 118.848 285.905 119.014 286.378 119.288L286.517 119.368C286.984 119.638 287.267 119.924 287.365 120.228C287.463 120.524 287.397 120.829 287.166 121.143C286.935 121.449 286.557 121.754 286.032 122.058L284.585 122.893ZM292.977 120.388L287.72 117.353L289.14 116.533L294.397 119.568L292.977 120.388ZM286.118 118.478L284.879 117.763L289.859 114.888L291.097 115.603L286.118 118.478ZM295.919 118.689L291.684 113.834L293.979 112.509L302.466 114.909L300.994 115.759L293.901 113.684L294.533 113.529L293.416 114.174L293.702 113.799L297.339 117.869L295.919 118.689ZM295.936 116.869L295.191 115.939L297.668 114.509L299.288 114.934L295.936 116.869ZM303.291 114.433L296.969 110.783L298.389 109.963L304.711 113.613L303.291 114.433ZM304.538 113.713L303.291 112.993L305.941 111.463L307.188 112.183L304.538 113.713Z" fill="#0E3572"/>
<path d="M400.036 41.3603L395.801 36.5053L398.096 35.1803L406.583 37.5803L405.111 38.4303L398.018 36.3553L398.651 36.2003L397.533 36.8453L397.819 36.4703L401.456 40.5403L400.036 41.3603ZM400.054 39.5403L399.309 38.6103L401.786 37.1803L403.405 37.6053L400.054 39.5403ZM409.986 35.8059C409.391 36.1492 408.776 36.3775 408.141 36.4909C407.506 36.5975 406.877 36.5942 406.253 36.4809C405.63 36.3675 405.038 36.1492 404.478 35.8259L400.728 33.6609L402.148 32.8409L405.95 35.0359C406.227 35.1959 406.522 35.3059 406.833 35.3659C407.145 35.4192 407.454 35.4209 407.76 35.3709C408.072 35.3175 408.372 35.2075 408.661 35.0409C408.955 34.8709 409.146 34.6975 409.232 34.5209C409.325 34.3409 409.322 34.1625 409.224 33.9859C409.126 33.8092 408.935 33.6392 408.652 33.4759L404.85 31.2809L406.271 30.4609L410.02 32.6259C410.58 32.9492 410.959 33.2909 411.155 33.6509C411.351 34.0109 411.357 34.3742 411.172 34.7409C410.982 35.1042 410.586 35.4592 409.986 35.8059ZM415.134 32.6438L409.877 29.6088L411.297 28.7888L416.554 31.8238L415.134 32.6438ZM408.275 30.7338L407.036 30.0188L412.016 27.1438L413.254 27.8588L408.275 30.7338ZM422.249 28.7255C421.678 29.0555 421.08 29.2872 420.457 29.4205C419.833 29.5472 419.221 29.5972 418.621 29.5705C418.014 29.5405 417.452 29.4555 416.932 29.3155C416.418 29.1722 415.985 28.9989 415.633 28.7955L415.442 28.6855C415.05 28.4589 414.732 28.1955 414.49 27.8955C414.247 27.5889 414.112 27.2639 414.083 26.9205C414.054 26.5772 414.158 26.2305 414.395 25.8805C414.625 25.5272 415.018 25.1905 415.572 24.8705C416.127 24.5505 416.71 24.3239 417.322 24.1905C417.928 24.0539 418.528 23.9939 419.123 24.0105C419.718 24.0272 420.281 24.1055 420.812 24.2455C421.337 24.3822 421.796 24.5639 422.189 24.7905L422.379 24.9005C422.731 25.1039 423.029 25.3555 423.271 25.6555C423.514 25.9555 423.661 26.2805 423.713 26.6305C423.759 26.9772 423.67 27.3322 423.444 27.6955C423.219 28.0522 422.821 28.3955 422.249 28.7255ZM420.924 27.9605C421.225 27.7872 421.441 27.6022 421.574 27.4055C421.712 27.2055 421.773 27.0039 421.756 26.8005C421.744 26.5939 421.66 26.3955 421.505 26.2055C421.349 26.0155 421.132 25.8405 420.855 25.6805C420.561 25.5105 420.246 25.3822 419.911 25.2955C419.576 25.2022 419.233 25.1539 418.881 25.1505C418.528 25.1405 418.185 25.1755 417.85 25.2555C417.515 25.3355 417.198 25.4622 416.897 25.6355C416.597 25.8089 416.378 25.9922 416.239 26.1855C416.101 26.3789 416.037 26.5789 416.049 26.7855C416.06 26.9855 416.147 27.1822 416.308 27.3755C416.464 27.5655 416.689 27.7455 416.984 27.9155C417.261 28.0755 417.564 28.2005 417.893 28.2905C418.222 28.3805 418.563 28.4305 418.915 28.4405C419.273 28.4472 419.622 28.4122 419.963 28.3355C420.304 28.2589 420.624 28.1339 420.924 27.9605ZM426.538 26.0592L420.216 22.4092L422.174 21.2792L427.171 22.4942L427.335 22.3992L425.213 19.5242L427.205 18.3742L433.527 22.0242L432.124 22.8342L426.729 19.7192L426.945 19.6142L429.37 22.9442L428.019 23.7242L422.243 22.3292L422.442 22.1942L427.837 25.3092L426.538 26.0592ZM434.347 21.5507L430.113 16.6957L432.407 15.3707L440.895 17.7707L439.422 18.6207L432.33 16.5457L432.962 16.3907L431.845 17.0357L432.13 16.6607L435.768 20.7307L434.347 21.5507ZM434.365 19.7307L433.62 18.8007L436.097 17.3707L437.716 17.7957L434.365 19.7307ZM442.417 16.8919L437.16 13.8569L438.58 13.0369L443.837 16.0719L442.417 16.8919ZM435.558 14.9819L434.319 14.2669L439.299 11.3919L440.538 12.1069L435.558 14.9819ZM446.532 14.516L440.21 10.866L441.63 10.046L447.952 13.696L446.532 14.516ZM452.586 11.2109C452.014 11.5409 451.416 11.7725 450.793 11.9059C450.169 12.0325 449.557 12.0825 448.957 12.0559C448.351 12.0259 447.788 11.9409 447.268 11.8009C446.754 11.6575 446.321 11.4842 445.969 11.2809L445.779 11.1709C445.386 10.9442 445.069 10.6809 444.826 10.3809C444.584 10.0742 444.448 9.74921 444.419 9.40588C444.39 9.06255 444.494 8.71588 444.731 8.36588C444.962 8.01255 445.354 7.67588 445.909 7.35588C446.463 7.03588 447.046 6.80921 447.658 6.67588C448.264 6.53921 448.865 6.47921 449.459 6.49588C450.054 6.51255 450.617 6.59088 451.148 6.73088C451.673 6.86755 452.132 7.04921 452.525 7.27588L452.716 7.38588C453.068 7.58921 453.365 7.84088 453.608 8.14088C453.85 8.44088 453.997 8.76588 454.049 9.11588C454.095 9.46255 454.006 9.81755 453.781 10.1809C453.556 10.5375 453.157 10.8809 452.586 11.2109ZM451.261 10.4459C451.561 10.2725 451.777 10.0875 451.91 9.89088C452.049 9.69088 452.109 9.48921 452.092 9.28588C452.08 9.07921 451.997 8.88088 451.841 8.69088C451.685 8.50088 451.468 8.32588 451.191 8.16588C450.897 7.99588 450.582 7.86755 450.247 7.78088C449.912 7.68755 449.569 7.63921 449.217 7.63588C448.865 7.62588 448.521 7.66088 448.186 7.74088C447.851 7.82088 447.534 7.94755 447.234 8.12088C446.933 8.29421 446.714 8.47755 446.575 8.67088C446.437 8.86421 446.373 9.06421 446.385 9.27088C446.396 9.47088 446.483 9.66755 446.645 9.86088C446.801 10.0509 447.026 10.2309 447.32 10.4009C447.597 10.5609 447.9 10.6859 448.23 10.7759C448.559 10.8659 448.899 10.9159 449.251 10.9259C449.609 10.9325 449.959 10.8975 450.299 10.8209C450.64 10.7442 450.96 10.6192 451.261 10.4459ZM456.875 8.54459L450.553 4.89459L452.882 3.54959L460.434 5.15959L460.728 4.98959L460.711 5.17959L455.385 2.10459L456.719 1.33459L463.041 4.98459L460.694 6.33959L453.142 4.72959L452.848 4.89959L452.865 4.70959L458.191 7.78459L456.875 8.54459Z" fill="#0E3572"/>
<path d="M540.95 115.485L539.587 114.791L540.727 114.05C541.013 113.865 541.225 113.675 541.365 113.481C541.5 113.283 541.565 113.09 541.56 112.9C541.55 112.707 541.468 112.522 541.315 112.347C541.155 112.168 540.93 112.005 540.639 111.857C540.336 111.702 540.023 111.592 539.702 111.525C539.38 111.459 539.055 111.436 538.727 111.456C538.399 111.477 538.078 111.54 537.766 111.647C537.447 111.75 537.146 111.894 536.86 112.08L535.72 112.82L534.357 112.126L535.422 111.434C535.975 111.075 536.545 110.804 537.131 110.623C537.717 110.443 538.298 110.337 538.875 110.307C539.451 110.277 540 110.316 540.52 110.426C541.04 110.529 541.511 110.688 541.933 110.903L542.129 111.002C542.521 111.202 542.84 111.446 543.086 111.733C543.332 112.014 543.47 112.324 543.499 112.663C543.523 112.999 543.419 113.348 543.19 113.711C542.96 114.073 542.569 114.434 542.015 114.794L540.95 115.485ZM539.742 116.27L533.149 112.91L534.524 112.017L541.118 115.376L539.742 116.27ZM545.418 112.542L540.935 107.916L543.157 106.472L551.758 108.425L550.333 109.351L543.141 107.65L543.764 107.462L542.682 108.165L542.948 107.775L546.794 111.649L545.418 112.542ZM545.34 110.724L544.548 109.834L546.946 108.277L548.586 108.616L545.34 110.724ZM554.824 106.63C554.27 106.99 553.711 107.246 553.147 107.399C552.577 107.549 552.033 107.606 551.517 107.57C550.995 107.53 550.523 107.403 550.101 107.188L551.434 106.322C551.601 106.407 551.797 106.459 552.023 106.477C552.255 106.491 552.505 106.463 552.773 106.392C553.036 106.319 553.309 106.189 553.594 106.004C553.851 105.837 554.031 105.679 554.133 105.53C554.235 105.381 554.269 105.246 554.233 105.124C554.192 105 554.088 104.895 553.922 104.81C553.714 104.704 553.467 104.675 553.18 104.724C552.888 104.769 552.536 104.904 552.126 105.13L551.62 105.406C550.957 105.775 550.269 105.988 549.555 106.045C548.841 106.103 548.196 105.985 547.62 105.691C547.204 105.479 546.937 105.236 546.819 104.962C546.706 104.684 546.737 104.396 546.912 104.096C547.081 103.793 547.395 103.493 547.854 103.196C548.334 102.883 548.834 102.662 549.354 102.531C549.873 102.394 550.385 102.347 550.89 102.39C551.389 102.431 551.853 102.56 552.28 102.778L550.939 103.65C550.778 103.568 550.596 103.517 550.393 103.498C550.184 103.476 549.965 103.49 549.736 103.542C549.513 103.591 549.296 103.684 549.083 103.822C548.882 103.953 548.747 104.082 548.678 104.209C548.616 104.332 548.613 104.447 548.671 104.555C548.722 104.659 548.819 104.747 548.962 104.82C549.146 104.914 549.368 104.955 549.628 104.945C549.887 104.935 550.169 104.845 550.472 104.675L550.986 104.393C551.475 104.124 551.973 103.921 552.481 103.784C552.982 103.644 553.47 103.585 553.946 103.607C554.421 103.622 554.86 103.733 555.264 103.939C555.68 104.151 555.942 104.404 556.049 104.699C556.157 104.987 556.11 105.296 555.907 105.627C555.705 105.958 555.344 106.293 554.824 106.63ZM562.077 101.724L555.572 98.41L556.948 97.5168L563.452 100.831L562.077 101.724ZM558.118 104.295L551.614 100.981L552.989 100.088L559.494 103.402L558.118 104.295ZM556.622 102.22L555.339 101.567L558.408 99.5732L559.691 100.227L556.622 102.22ZM566.045 99.199L564.904 98.6179L566.338 97.6866C566.595 97.5195 566.717 97.3579 566.703 97.2018C566.689 97.0456 566.551 96.901 566.29 96.7678C566.029 96.6346 565.765 96.575 565.5 96.5889C565.229 96.5998 564.965 96.6887 564.708 96.8558L563.274 97.7871L562.391 97.3376L563.759 96.4499C564.183 96.1739 564.617 95.9576 565.06 95.8009C565.497 95.6411 565.932 95.5616 566.366 95.5622C566.799 95.5628 567.224 95.6691 567.64 95.881L567.765 95.9445C568.151 96.1413 568.399 96.3652 568.511 96.6164C568.616 96.8645 568.581 97.1317 568.406 97.418C568.224 97.7012 567.892 97.999 567.412 98.3112L566.045 99.199ZM564.87 99.9615L558.268 96.5974L559.61 95.726L566.212 99.0901L564.87 99.9615ZM563.042 97.669L562.169 97.2241L563.376 96.4399C563.639 96.2692 563.758 96.1094 563.733 95.9605C563.708 95.8117 563.576 95.6767 563.339 95.5556C563.089 95.4285 562.835 95.3667 562.575 95.3704C562.315 95.374 562.053 95.4611 561.79 95.6318L560.583 96.416L559.442 95.8349L560.566 95.1051C561.271 94.6476 561.968 94.3774 562.657 94.2946C563.352 94.2081 563.991 94.3131 564.573 94.6097L564.706 94.6778C565.11 94.8837 565.336 95.1121 565.384 95.3633C565.437 95.6109 565.353 95.869 565.13 96.1377C564.906 96.3997 564.585 96.6669 564.166 96.9392L563.042 97.669ZM573.705 94.3691C573.151 94.7286 572.566 94.9912 571.951 95.157C571.335 95.3161 570.726 95.3981 570.125 95.4029C569.518 95.4046 568.952 95.3492 568.425 95.2366C567.905 95.1203 567.463 94.9699 567.101 94.7853L566.905 94.6854C566.501 94.4796 566.17 94.2332 565.912 93.9463C565.654 93.6528 565.502 93.3353 565.455 92.994C565.408 92.6526 565.494 92.301 565.712 91.9391C565.924 91.5742 566.298 91.2174 566.835 90.8688C567.372 90.5203 567.942 90.2634 568.546 90.0982C569.145 89.93 569.741 89.8387 570.336 89.8242C570.931 89.8097 571.497 89.8585 572.035 89.9705C572.566 90.0795 573.034 90.2369 573.438 90.4427L573.634 90.5425C573.997 90.7272 574.307 90.9629 574.564 91.2498C574.822 91.5367 574.986 91.8536 575.057 92.2004C575.121 92.5441 575.05 92.9033 574.844 93.278C574.638 93.6459 574.258 94.0096 573.705 94.3691ZM572.341 93.6745C572.632 93.4857 572.839 93.2896 572.961 93.0863C573.089 92.8793 573.139 92.6747 573.111 92.4726C573.089 92.2668 572.995 92.0731 572.829 91.8915C572.663 91.71 572.438 91.5465 572.153 91.4012C571.85 91.2469 571.529 91.1352 571.19 91.0662C570.851 90.9905 570.505 90.9602 570.153 90.9753C569.801 90.9838 569.46 91.0367 569.13 91.1341C568.799 91.2315 568.489 91.3746 568.198 91.5634C567.907 91.7522 567.698 91.9468 567.57 92.1471C567.441 92.3475 567.388 92.5505 567.411 92.7563C567.433 92.9554 567.53 93.1473 567.701 93.3319C567.867 93.5135 568.101 93.6814 568.404 93.8358C568.689 93.9811 568.998 94.09 569.332 94.1627C569.665 94.2353 570.008 94.2674 570.36 94.259C570.718 94.2469 571.065 94.1937 571.401 94.0993C571.737 94.0049 572.051 93.8633 572.341 93.6745ZM577.007 92.028L572.524 87.4013L574.747 85.958L583.348 87.9105L581.922 88.8364L574.73 87.1355L575.354 86.9476L574.272 87.6502L574.538 87.2607L578.383 91.1348L577.007 92.028ZM576.93 90.2096L576.137 89.3198L578.536 87.7622L580.175 88.1018L576.93 90.2096ZM584.146 87.3919L577.589 84.0505L578.964 83.1573L585.522 86.4987L584.146 87.3919ZM587.862 84.9791L583.269 84.7191L584.779 83.7388L589.455 83.9443L587.862 84.9791ZM583.068 85.676L581.919 85.0903L583.428 84.11C583.629 83.9793 583.761 83.8455 583.823 83.7087C583.885 83.5653 583.878 83.4288 583.802 83.2993C583.725 83.1631 583.583 83.0421 583.375 82.9361C583.167 82.8302 582.944 82.7651 582.706 82.7409C582.467 82.71 582.231 82.7224 581.997 82.7781C581.762 82.8271 581.544 82.9169 581.343 83.0476L579.834 84.028L578.595 83.3969L579.996 82.4874C580.504 82.157 581.029 81.9125 581.57 81.754C582.105 81.5924 582.634 81.528 583.156 81.5607C583.678 81.5935 584.182 81.7339 584.669 81.9821L584.812 82.0547C585.293 82.2999 585.591 82.5714 585.705 82.8691C585.818 83.1603 585.768 83.4683 585.554 83.7933C585.339 84.1116 584.977 84.436 584.469 84.7664L583.068 85.676ZM591.516 82.6473L590.153 81.9527L591.293 81.212C591.579 81.0269 591.791 80.8371 591.931 80.6429C592.066 80.4456 592.131 80.2519 592.126 80.0619C592.116 79.8688 592.034 79.6845 591.881 79.509C591.721 79.3304 591.496 79.167 591.204 79.0187C590.902 78.8643 590.589 78.7538 590.268 78.6872C589.946 78.6206 589.621 78.5976 589.293 78.6182C588.964 78.6387 588.644 78.7022 588.332 78.8087C588.013 78.9122 587.712 79.0565 587.426 79.2417L586.286 79.9824L584.923 79.2878L585.988 78.5961C586.541 78.2367 587.111 77.9665 587.697 77.7856C588.283 77.6046 588.864 77.4991 589.441 77.4689C590.017 77.4386 590.566 77.4783 591.086 77.5879C591.606 77.6908 592.077 77.8498 592.499 78.0646L592.695 78.1645C593.087 78.3643 593.406 78.6079 593.652 78.8954C593.898 79.1762 594.036 79.4861 594.065 79.8251C594.089 80.161 593.985 80.5102 593.756 80.8727C593.526 81.2352 593.135 81.5962 592.581 81.9557L591.516 82.6473ZM590.308 83.4316L583.715 80.0721L585.09 79.1789L591.684 82.5384L590.308 83.4316ZM550.416 121.688L543.911 118.374L545.287 117.481L551.791 120.795L550.416 121.688ZM553.183 119.891L546.679 116.577L548.935 115.112L556.561 116.324L556.846 116.139L556.839 116.33L551.359 113.538L552.65 112.699L559.155 116.013L556.882 117.489L549.256 116.276L548.971 116.462L548.979 116.271L554.458 119.063L553.183 119.891ZM562.83 113.823C562.276 114.182 561.717 114.439 561.153 114.592C560.582 114.742 560.039 114.799 559.523 114.762C559 114.723 558.528 114.596 558.106 114.381L559.44 113.515C559.606 113.6 559.803 113.651 560.029 113.669C560.261 113.684 560.511 113.656 560.779 113.585C561.041 113.511 561.315 113.382 561.6 113.196C561.857 113.029 562.037 112.871 562.139 112.722C562.241 112.574 562.274 112.438 562.239 112.317C562.198 112.192 562.094 112.087 561.928 112.003C561.72 111.897 561.473 111.868 561.186 111.916C560.894 111.962 560.542 112.097 560.132 112.322L559.626 112.599C558.963 112.967 558.275 113.18 557.561 113.238C556.847 113.295 556.202 113.177 555.626 112.884C555.21 112.672 554.943 112.429 554.824 112.155C554.712 111.877 554.743 111.588 554.918 111.288C555.087 110.986 555.401 110.686 555.859 110.388C556.34 110.076 556.84 109.854 557.359 109.724C557.878 109.586 558.39 109.539 558.896 109.583C559.395 109.624 559.859 109.753 560.286 109.971L558.944 110.842C558.784 110.76 558.602 110.71 558.399 110.69C558.189 110.668 557.97 110.683 557.742 110.735C557.519 110.783 557.301 110.876 557.089 111.014C556.888 111.145 556.753 111.274 556.684 111.401C556.621 111.525 556.619 111.64 556.676 111.747C556.728 111.851 556.825 111.94 556.968 112.012C557.152 112.106 557.374 112.148 557.633 112.137C557.893 112.127 558.174 112.037 558.478 111.868L558.992 111.586C559.481 111.316 559.979 111.113 560.486 110.977C560.988 110.837 561.476 110.778 561.951 110.8C562.426 110.815 562.866 110.925 563.27 111.131C563.685 111.343 563.947 111.596 564.055 111.891C564.163 112.179 564.115 112.489 563.913 112.82C563.711 113.151 563.35 113.485 562.83 113.823ZM566.141 111.476L559.636 108.162L561.012 107.269L567.516 110.583L566.141 111.476ZM571.98 107.881C571.432 108.237 570.859 108.499 570.26 108.667C569.656 108.832 569.057 108.918 568.462 108.926C567.872 108.93 567.314 108.873 566.787 108.754C566.261 108.634 565.799 108.473 565.401 108.271L565.205 108.171C564.795 107.962 564.458 107.716 564.195 107.433C563.931 107.149 563.768 106.842 563.704 106.512C563.646 106.178 563.715 105.837 563.911 105.49C564.112 105.139 564.467 104.798 564.976 104.468C565.529 104.108 566.128 103.846 566.773 103.682C567.412 103.515 568.053 103.447 568.696 103.477C569.334 103.503 569.924 103.632 570.468 103.864L569.093 104.758C568.822 104.658 568.524 104.61 568.201 104.614C567.883 104.614 567.562 104.661 567.237 104.755C566.918 104.845 566.619 104.981 566.339 105.162C566.071 105.336 565.881 105.518 565.769 105.708C565.663 105.894 565.627 106.082 565.66 106.274C565.699 106.462 565.807 106.647 565.984 106.828C566.161 107.002 566.401 107.167 566.704 107.321C567.019 107.481 567.346 107.603 567.685 107.685C568.025 107.761 568.368 107.796 568.714 107.791C569.055 107.784 569.39 107.731 569.721 107.634C570.056 107.533 570.367 107.389 570.652 107.204C571.032 106.957 571.279 106.701 571.392 106.434C571.505 106.168 571.487 105.925 571.337 105.706L572.167 106.324L570.617 105.534L571.883 104.711L573.273 105.42C573.462 105.82 573.446 106.233 573.225 106.659C573.004 107.078 572.589 107.485 571.98 107.881ZM569.3 106.719L568.248 106.184L571.62 103.994L572.671 104.53L569.3 106.719ZM579.853 102.571L573.349 99.2572L574.724 98.364L581.229 101.678L579.853 102.571ZM575.895 105.142L569.39 101.828L570.766 100.935L577.27 104.249L575.895 105.142ZM574.398 103.067L573.115 102.414L576.185 100.42L577.468 101.074L574.398 103.067ZM583.819 99.9962L578.41 97.2405L579.786 96.3473L585.194 99.103L583.819 99.9962ZM576.869 98.4478L575.595 97.7986L580.417 94.6669L581.691 95.3162L576.869 98.4478Z" fill="#0E3572"/>
<mask id="path-18-inside-2_2130_1755" fill="white">
<path d="M241.735 147.746L267.867 147.803V162.719L208.195 197.523L148 162.719V147.542L174.192 147.598L207.837 128.177L241.735 147.746Z"/>
</mask>
<path d="M241.735 147.746L267.867 147.803V162.719L208.195 197.523L148 162.719V147.542L174.192 147.598L207.837 128.177L241.735 147.746Z" fill="#0E3572" fill-opacity="0.1"/>
<path d="M241.735 147.746L241.635 147.919L241.682 147.946L241.735 147.946L241.735 147.746ZM267.867 147.803H268.067V147.604L267.868 147.603L267.867 147.803ZM267.867 162.719L267.968 162.892L268.067 162.834V162.719H267.867ZM208.195 197.523L208.095 197.696L208.196 197.754L208.296 197.696L208.195 197.523ZM148 162.719H147.8V162.835L147.9 162.893L148 162.719ZM148 147.542L148 147.342L147.8 147.341V147.542H148ZM174.192 147.598L174.192 147.798L174.246 147.798L174.292 147.771L174.192 147.598ZM207.837 128.177L207.937 128.004L207.837 127.946L207.737 128.004L207.837 128.177ZM241.735 147.746L241.735 147.946L267.867 148.003L267.867 147.803L267.868 147.603L241.736 147.546L241.735 147.746ZM267.867 147.803H267.667V162.719H267.867H268.067V147.803H267.867ZM267.867 162.719L267.766 162.547L208.095 197.35L208.195 197.523L208.296 197.696L267.968 162.892L267.867 162.719ZM208.195 197.523L208.295 197.35L148.1 162.546L148 162.719L147.9 162.893L208.095 197.696L208.195 197.523ZM148 162.719H148.2V147.542H148H147.8V162.719H148ZM148 147.542L148 147.742L174.192 147.798L174.192 147.598L174.193 147.398L148 147.342L148 147.542ZM174.192 147.598L174.292 147.771L207.937 128.351L207.837 128.177L207.737 128.004L174.092 147.425L174.192 147.598ZM207.837 128.177L207.737 128.351L241.635 147.919L241.735 147.746L241.835 147.573L207.937 128.004L207.837 128.177Z" fill="#0E3572" mask="url(#path-18-inside-2_2130_1755)"/>
<path d="M267.368 147.802L207.842 181.796L148.505 147.542L207.84 113.29L267.368 147.802Z" fill="white" stroke="#0E3572" stroke-width="0.579511"/>
<g clip-path="url(#clip1_2130_1755)">
<path d="M231.575 144.564L202.225 161.509L179.999 148.677L209.349 131.732L231.575 144.564Z" stroke="#ED1C24" stroke-miterlimit="10"/>
<path d="M227.952 152.175L215.408 159.417L216.808 158.609C217.817 158.026 217.817 157.082 216.808 156.499L213.855 154.794L219.944 151.278L222.897 152.984C223.906 153.566 225.542 153.566 226.551 152.984L227.952 152.175Z" stroke="#ED1C24" stroke-miterlimit="10"/>
<path d="M213.094 160.753L230.265 150.839" stroke="#ED1C24" stroke-miterlimit="10"/>
<path d="M227.921 142.454L198.571 159.4" stroke="#ED1C24" stroke-miterlimit="10"/>
<path d="M209.592 142.314C212.703 144.11 212.703 147.022 209.592 148.818C206.482 150.614 201.438 150.614 198.327 148.818C195.217 147.022 195.217 144.11 198.327 142.314C201.438 140.518 206.482 140.518 209.592 142.314Z" stroke="#ED1C24" stroke-miterlimit="10"/>
<path d="M205.773 144.519C208.883 146.315 210.594 148.24 209.593 148.818C208.592 149.395 205.258 148.408 202.147 146.612C199.037 144.816 197.326 142.892 198.328 142.314C199.329 141.736 202.662 142.723 205.773 144.519Z" stroke="#ED1C24" stroke-miterlimit="10"/>
<path d="M198.327 148.818L209.592 142.314" stroke="#ED1C24" stroke-miterlimit="10"/>
</g>
<mask id="path-28-inside-3_2130_1755" fill="white">
<path d="M392.611 64.5875L417.871 64.6432V79.0621L360.188 112.706L302 79.0621V64.3903L327.32 64.4449L359.843 45.6715L392.611 64.5875Z"/>
</mask>
<path d="M392.611 64.5875L417.871 64.6432V79.0621L360.188 112.706L302 79.0621V64.3903L327.32 64.4449L359.843 45.6715L392.611 64.5875Z" fill="white"/>
<path d="M392.611 64.5875L392.511 64.7607L392.558 64.7874L392.611 64.7875L392.611 64.5875ZM417.871 64.6432H418.071V64.4436L417.872 64.4432L417.871 64.6432ZM417.871 79.0621L417.972 79.2349L418.071 79.177V79.0621H417.871ZM360.188 112.706L360.088 112.879L360.189 112.937L360.289 112.878L360.188 112.706ZM302 79.0621H301.8V79.1775L301.9 79.2353L302 79.0621ZM302 64.3903L302 64.1903L301.8 64.1898V64.3903H302ZM327.32 64.4449L327.32 64.6449L327.374 64.6451L327.42 64.6182L327.32 64.4449ZM359.843 45.6715L359.943 45.4983L359.843 45.4406L359.743 45.4983L359.843 45.6715ZM392.611 64.5875L392.611 64.7875L417.871 64.8432L417.871 64.6432L417.872 64.4432L392.612 64.3875L392.611 64.5875ZM417.871 64.6432H417.671V79.0621H417.871H418.071V64.6432H417.871ZM417.871 79.0621L417.77 78.8894L360.088 112.533L360.188 112.706L360.289 112.878L417.972 79.2349L417.871 79.0621ZM360.188 112.706L360.289 112.533L302.1 78.889L302 79.0621L301.9 79.2353L360.088 112.879L360.188 112.706ZM302 79.0621H302.2V64.3903H302H301.8V79.0621H302ZM302 64.3903L302 64.5903L327.32 64.6449L327.32 64.4449L327.321 64.2449L302 64.1903L302 64.3903ZM327.32 64.4449L327.42 64.6182L359.943 45.8447L359.843 45.6715L359.743 45.4983L327.22 64.2717L327.32 64.4449ZM359.843 45.6715L359.743 45.8447L392.511 64.7607L392.611 64.5875L392.711 64.4143L359.943 45.4983L359.843 45.6715Z" fill="#0E3572" mask="url(#path-28-inside-3_2130_1755)"/>
<path d="M359.845 31L417.874 64.6436L359.845 97.7814L302.002 64.3907L359.845 31Z" fill="#0E3572"/>
<path d="M359.845 31L417.874 64.6436L359.845 97.7814L302.002 64.3907L359.845 31Z" fill="white" fill-opacity="0.85"/>
<path d="M417.371 64.642L359.846 97.4926L302.504 64.3911L359.845 31.29L417.371 64.642Z" stroke="white" stroke-opacity="0.2" stroke-width="0.579511"/>
<g clip-path="url(#clip2_2130_1755)">
<path d="M365.028 78.1312L360.177 75.9821L363.899 73.1814M355.326 49.8687L360.177 52.0178L356.455 54.8185" stroke="#0E3572" stroke-miterlimit="10" stroke-linecap="round" stroke-linejoin="round"/>
<path d="M360.177 52.0178C354.866 52.0178 349.554 53.1877 345.502 55.5273C337.397 60.2066 337.397 67.7933 345.502 72.4727C347.767 73.7806 350.426 74.7223 353.259 75.299M360.177 75.9822C365.488 75.9822 370.799 74.8123 374.852 72.4727C382.957 67.7934 382.957 60.2066 374.852 55.5273C372.586 54.2194 369.927 53.2777 367.095 52.701" stroke="#0E3572" stroke-miterlimit="10" stroke-linecap="round" stroke-linejoin="round"/>
<path d="M366.208 57.7269L360.386 56.8262L360.193 57.2417C359.492 58.7513 356.224 59.2569 354.31 58.1518L353.783 57.8476L349.521 60.3086L350.047 60.6128C351.962 61.7178 351.086 63.6048 348.471 64.0093L347.751 64.1207L349.312 67.4824L350.031 67.371C352.646 66.9666 355.038 68.3479 354.338 69.8575L354.145 70.273L359.968 71.1738L360.161 70.7582C360.861 69.2486 364.129 68.743 366.044 69.8481L366.57 70.1523L370.833 67.6914L370.306 67.3872C368.392 66.2821 369.268 64.3951 371.882 63.9906L372.602 63.8793L371.042 60.5176L370.322 60.6289C367.708 61.0334 365.315 59.652 366.016 58.1424L366.208 57.7269Z" stroke="#0E3572" stroke-miterlimit="10" stroke-linecap="round" stroke-linejoin="round"/>
<path d="M363.222 65.7578C364.903 64.787 364.903 63.213 363.222 62.2422C361.54 61.2714 358.814 61.2714 357.132 62.2422C355.451 63.213 355.451 64.787 357.132 65.7578C358.814 66.7286 361.54 66.7286 363.222 65.7578Z" stroke="#0E3572" stroke-miterlimit="10" stroke-linecap="round" stroke-linejoin="round"/>
</g>
<mask id="path-36-inside-4_2130_1755" fill="white">
<path d="M535.599 134.915L562.331 133.747L563.014 148.637L503.572 186.177L440.407 154.259L439.713 139.108L466.507 137.936L500.031 116.972L535.599 134.915Z"/>
</mask>
<path d="M535.599 134.915L562.331 133.747L563.014 148.637L503.572 186.177L440.407 154.259L439.713 139.108L466.507 137.936L500.031 116.972L535.599 134.915Z" fill="#0E3572" fill-opacity="0.1"/>
<path d="M535.599 134.915L535.509 135.094L535.555 135.118L535.608 135.115L535.599 134.915ZM562.331 133.747L562.531 133.738L562.522 133.539L562.323 133.548L562.331 133.747ZM563.014 148.637L563.121 148.806L563.219 148.744L563.214 148.628L563.014 148.637ZM503.572 186.177L503.481 186.355L503.582 186.406L503.678 186.346L503.572 186.177ZM440.407 154.259L440.207 154.268L440.212 154.385L440.316 154.438L440.407 154.259ZM439.713 139.108L439.704 138.908L439.504 138.917L439.513 139.117L439.713 139.108ZM466.507 137.936L466.515 138.136L466.568 138.134L466.613 138.106L466.507 137.936ZM500.031 116.972L500.121 116.794L500.02 116.743L499.925 116.803L500.031 116.972ZM535.599 134.915L535.608 135.115L562.34 133.947L562.331 133.747L562.323 133.548L535.59 134.716L535.599 134.915ZM562.331 133.747L562.131 133.757L562.814 148.646L563.014 148.637L563.214 148.628L562.531 133.738L562.331 133.747ZM563.014 148.637L562.907 148.468L503.465 186.007L503.572 186.177L503.678 186.346L563.121 148.806L563.014 148.637ZM503.572 186.177L503.662 185.998L440.497 154.081L440.407 154.259L440.316 154.438L503.481 186.355L503.572 186.177ZM440.407 154.259L440.606 154.25L439.913 139.099L439.713 139.108L439.513 139.117L440.207 154.268L440.407 154.259ZM439.713 139.108L439.721 139.308L466.515 138.136L466.507 137.936L466.498 137.736L439.704 138.908L439.713 139.108ZM466.507 137.936L466.613 138.106L500.137 117.142L500.031 116.972L499.925 116.803L466.4 137.766L466.507 137.936ZM500.031 116.972L499.941 117.151L535.509 135.094L535.599 134.915L535.689 134.737L500.121 116.794L500.031 116.972Z" fill="#0E3572" mask="url(#path-36-inside-4_2130_1755)"/>
<path d="M561.831 133.769L502.491 170.499L440.221 139.086L499.353 102.106L561.831 133.769Z" fill="white" stroke="#0E3572" stroke-width="0.579511"/>
<g clip-path="url(#clip3_2130_1755)">
<path d="M505.197 120.371C504.42 119.923 503.16 119.923 502.383 120.371L475.238 136.043C474.461 136.492 474.461 137.219 475.238 137.668L478.342 139.46L508.301 122.163L505.197 120.371Z" stroke="#ED1C24" stroke-miterlimit="10" stroke-linecap="round" stroke-linejoin="round"/>
<path d="M478.342 139.46L499.419 151.629C500.196 152.078 501.456 152.078 502.233 151.629L529.378 135.957C530.155 135.508 530.155 134.781 529.378 134.332L508.301 122.163L478.342 139.46Z" stroke="#ED1C24" stroke-miterlimit="10" stroke-linecap="round" stroke-linejoin="round"/>
<path d="M512.419 128.567C513.545 129.217 514.109 130.07 514.109 130.923C514.109 131.776 513.545 132.628 512.419 133.278C510.165 134.58 506.512 134.58 504.258 133.278C503.131 132.628 502.568 131.776 502.568 130.923C502.568 130.07 503.131 129.218 504.259 128.567C505.385 127.917 506.862 127.592 508.338 127.591C509.816 127.591 511.292 127.916 512.419 128.567Z" stroke="#ED1C24" stroke-miterlimit="10" stroke-linecap="round" stroke-linejoin="round"/>
<path d="M512.419 128.567C513.545 129.217 514.109 130.07 514.109 130.923L508.339 130.923L504.259 128.567C505.385 127.917 506.862 127.592 508.339 127.591C509.816 127.591 511.292 127.916 512.419 128.567Z" stroke="#ED1C24" stroke-miterlimit="10" stroke-linecap="round" stroke-linejoin="round"/>
<path d="M511.813 137.64L519.974 132.929" stroke="#ED1C24" stroke-miterlimit="10" stroke-linecap="round" stroke-linejoin="round"/>
<path d="M500.73 144.039L497.712 145.781L491.996 142.481L495.014 140.738L500.73 144.039ZM506.521 140.695L503.503 142.438L493.897 136.892L496.915 135.149L506.521 140.695Z" stroke="#ED1C24" stroke-miterlimit="10" stroke-linecap="round" stroke-linejoin="round"/>
<path d="M496.607 146.419L507.933 139.88" stroke="#ED1C24" stroke-miterlimit="10" stroke-linecap="round" stroke-linejoin="round"/>
<path d="M502.858 146.768L523.401 134.908" stroke="#ED1C24" stroke-miterlimit="10" stroke-linecap="round" stroke-linejoin="round"/>
</g>
<mask id="path-47-inside-5_2130_1755" fill="white">
<path d="M222.653 47.6871L233.709 47.7115V54.0172L208.465 68.7281L183 54.0172V47.6012L194.081 47.6246L208.313 39.4156L222.653 47.6871Z"/>
</mask>
<path d="M222.653 47.6871L233.709 47.7115V54.0172L208.465 68.7281L183 54.0172V47.6012L194.081 47.6246L208.313 39.4156L222.653 47.6871Z" fill="white"/>
<path d="M222.653 47.6871L222.553 47.8604L222.6 47.887L222.653 47.8871L222.653 47.6871ZM233.709 47.7115H233.909V47.512L233.709 47.5115L233.709 47.7115ZM233.709 54.0172L233.81 54.19L233.909 54.1321V54.0172H233.709ZM208.465 68.7281L208.365 68.9013L208.465 68.9594L208.566 68.9009L208.465 68.7281ZM183 54.0172H182.8V54.1326L182.9 54.1904L183 54.0172ZM183 47.6012L183 47.4012L182.8 47.4008V47.6012H183ZM194.081 47.6246L194.081 47.8246L194.134 47.8247L194.181 47.7979L194.081 47.6246ZM208.313 39.4156L208.413 39.2424L208.313 39.1848L208.214 39.2424L208.313 39.4156ZM222.653 47.6871L222.653 47.8871L233.709 47.9115L233.709 47.7115L233.709 47.5115L222.654 47.4871L222.653 47.6871ZM233.709 47.7115H233.509V54.0172H233.709H233.909V47.7115H233.709ZM233.709 54.0172L233.608 53.8444L208.364 68.5553L208.465 68.7281L208.566 68.9009L233.81 54.19L233.709 54.0172ZM208.465 68.7281L208.565 68.555L183.1 53.844L183 54.0172L182.9 54.1904L208.365 68.9013L208.465 68.7281ZM183 54.0172H183.2V47.6012H183H182.8V54.0172H183ZM183 47.6012L183 47.8012L194.081 47.8246L194.081 47.6246L194.081 47.4246L183 47.4012L183 47.6012ZM194.081 47.6246L194.181 47.7979L208.413 39.5889L208.313 39.4156L208.214 39.2424L193.981 47.4514L194.081 47.6246ZM208.313 39.4156L208.214 39.5889L222.553 47.8604L222.653 47.6871L222.753 47.5139L208.413 39.2424L208.313 39.4156Z" fill="#0E3572" mask="url(#path-47-inside-5_2130_1755)"/>
<path d="M208.314 33L233.71 47.712L208.314 62.2028L183.001 47.6014L208.314 33Z" fill="#0E3572"/>
<path d="M208.314 33L233.71 47.712L208.314 62.2028L183.001 47.6014L208.314 33Z" fill="white" fill-opacity="0.85"/>
<path d="M233.207 47.7106L208.316 61.9138L183.504 47.6013L208.314 33.2898L233.207 47.7106Z" stroke="white" stroke-opacity="0.2" stroke-width="0.579511"/>
<g clip-path="url(#clip4_2130_1755)">
<path d="M217.463 49.9688L212.266 52.9688M208.829 44.9219L210.95 44.9204C211.582 44.9199 212.095 45.2156 212.094 45.581L212.077 46.7969M203.579 47.9531L203.577 49.1772C203.576 49.5426 204.088 49.8384 204.721 49.8378L206.827 49.8281M209.371 48.9844L206.285 45.7656M211.942 42.4062L216.38 44.9688C217.875 45.8317 217.875 47.2308 216.38 48.0938L209.018 52.3441C207.524 53.2068 205.101 53.2068 203.607 52.3441L199.168 49.7812C197.673 48.9183 197.673 47.5192 199.168 46.6562L206.529 42.4062C208.024 41.5433 210.447 41.5433 211.942 42.4062Z" stroke="#0E3572" stroke-miterlimit="10" stroke-linecap="round" stroke-linejoin="round"/>
</g>
<mask id="path-52-inside-6_2130_1755" fill="white">
<path d="M373.653 170.687L384.709 170.712V177.017L359.465 191.728L334 177.017V170.601L345.081 170.625L359.313 162.416L373.653 170.687Z"/>
</mask>
<path d="M373.653 170.687L384.709 170.712V177.017L359.465 191.728L334 177.017V170.601L345.081 170.625L359.313 162.416L373.653 170.687Z" fill="url(#paint0_linear_2130_1755)"/>
<path d="M373.653 170.687L373.553 170.86L373.6 170.887L373.653 170.887L373.653 170.687ZM384.709 170.712H384.909V170.512L384.709 170.512L384.709 170.712ZM384.709 177.017L384.81 177.19L384.909 177.132V177.017H384.709ZM359.465 191.728L359.365 191.901L359.465 191.959L359.566 191.901L359.465 191.728ZM334 177.017H333.8V177.133L333.9 177.19L334 177.017ZM334 170.601L334 170.401L333.8 170.401V170.601H334ZM345.081 170.625L345.081 170.825L345.134 170.825L345.181 170.798L345.081 170.625ZM359.313 162.416L359.413 162.242L359.313 162.185L359.214 162.242L359.313 162.416ZM373.653 170.687L373.653 170.887L384.709 170.912L384.709 170.712L384.709 170.512L373.654 170.487L373.653 170.687ZM384.709 170.712H384.509V177.017H384.709H384.909V170.712H384.709ZM384.709 177.017L384.608 176.844L359.364 191.555L359.465 191.728L359.566 191.901L384.81 177.19L384.709 177.017ZM359.465 191.728L359.565 191.555L334.1 176.844L334 177.017L333.9 177.19L359.365 191.901L359.465 191.728ZM334 177.017H334.2V170.601H334H333.8V177.017H334ZM334 170.601L334 170.801L345.081 170.825L345.081 170.625L345.081 170.425L334 170.401L334 170.601ZM345.081 170.625L345.181 170.798L359.413 162.589L359.313 162.416L359.214 162.242L344.981 170.451L345.081 170.625ZM359.313 162.416L359.214 162.589L373.553 170.86L373.653 170.687L373.753 170.514L359.413 162.242L359.313 162.416Z" fill="#0E3572" mask="url(#path-52-inside-6_2130_1755)"/>
<path d="M359.314 156L384.71 170.712L359.314 185.203L334.001 170.601L359.314 156Z" fill="#0E3572"/>
<path d="M384.207 170.711L359.316 184.914L334.504 170.601L359.314 156.29L384.207 170.711Z" stroke="white" stroke-opacity="0.2" stroke-width="0.579511"/>
<g clip-path="url(#clip5_2130_1755)">
<path d="M353.469 167.313L350.367 171.647L353.044 173.192C356.509 175.193 361.726 175.784 366.243 174.688C368.142 172.08 367.118 169.068 363.653 167.067L360.976 165.522L353.469 167.313Z" stroke="white" stroke-miterlimit="10" stroke-linecap="round" stroke-linejoin="round"/>
<path d="M357.315 171.97L360.341 171.97L360.341 168.842" stroke="white" stroke-miterlimit="10" stroke-linecap="round" stroke-linejoin="round"/>
</g>
<mask id="path-58-inside-7_2130_1755" fill="white">
<path d="M461.653 92.6871L472.709 92.7115V99.0172L447.465 113.728L422 99.0172V92.6012L433.081 92.6246L447.313 84.4156L461.653 92.6871Z"/>
</mask>
<path d="M461.653 92.6871L472.709 92.7115V99.0172L447.465 113.728L422 99.0172V92.6012L433.081 92.6246L447.313 84.4156L461.653 92.6871Z" fill="url(#paint1_linear_2130_1755)"/>
<path d="M461.653 92.6871L461.553 92.8604L461.6 92.887L461.653 92.8871L461.653 92.6871ZM472.709 92.7115H472.909V92.512L472.709 92.5115L472.709 92.7115ZM472.709 99.0172L472.81 99.19L472.909 99.1321V99.0172H472.709ZM447.465 113.728L447.365 113.901L447.465 113.959L447.566 113.901L447.465 113.728ZM422 99.0172H421.8V99.1326L421.9 99.1904L422 99.0172ZM422 92.6012L422 92.4012L421.8 92.4008V92.6012H422ZM433.081 92.6246L433.081 92.8246L433.134 92.8247L433.181 92.7979L433.081 92.6246ZM447.313 84.4156L447.413 84.2424L447.313 84.1848L447.214 84.2424L447.313 84.4156ZM461.653 92.6871L461.653 92.8871L472.709 92.9115L472.709 92.7115L472.709 92.5115L461.654 92.4871L461.653 92.6871ZM472.709 92.7115H472.509V99.0172H472.709H472.909V92.7115H472.709ZM472.709 99.0172L472.608 98.8444L447.364 113.555L447.465 113.728L447.566 113.901L472.81 99.19L472.709 99.0172ZM447.465 113.728L447.565 113.555L422.1 98.844L422 99.0172L421.9 99.1904L447.365 113.901L447.465 113.728ZM422 99.0172H422.2V92.6012H422H421.8V99.0172H422ZM422 92.6012L422 92.8012L433.081 92.8246L433.081 92.6246L433.081 92.4246L422 92.4012L422 92.6012ZM433.081 92.6246L433.181 92.7979L447.413 84.5889L447.313 84.4156L447.214 84.2424L432.981 92.4514L433.081 92.6246ZM447.313 84.4156L447.214 84.5889L461.553 92.8604L461.653 92.6871L461.753 92.5139L447.413 84.2424L447.313 84.4156Z" fill="#0E3572" mask="url(#path-58-inside-7_2130_1755)"/>
<path d="M447.314 78L472.71 92.712L447.314 107.203L422.001 92.6014L447.314 78Z" fill="#0E3572"/>
<path d="M472.207 92.7106L447.316 106.914L422.504 92.6013L447.314 78.2898L472.207 92.7106Z" stroke="white" stroke-opacity="0.2" stroke-width="0.579511"/>
<g clip-path="url(#clip6_2130_1755)">
<path d="M456.002 94.8281L452.755 96.7031L449.507 94.8281L452.755 92.9531L456.002 94.8281ZM447.829 89.4844L443.499 91.9844L439.169 89.4844L443.499 86.9844L447.829 89.4844ZM460.901 92L457.653 93.875L454.405 92L457.653 90.125L460.901 92ZM451.104 97.6563L447.856 99.5312L444.609 97.6563L447.856 95.7813L451.104 97.6563Z" stroke="white" stroke-miterlimit="10" stroke-linecap="round" stroke-linejoin="round"/>
<path d="M456.029 91.0625L453.296 89.4844L443.499 95.1406L446.232 96.7188" stroke="white" stroke-miterlimit="10" stroke-linecap="round" stroke-linejoin="round"/>
<path d="M445.664 90.7344L451.131 93.8906" stroke="white" stroke-miterlimit="10" stroke-linecap="round" stroke-linejoin="round"/>
</g>
<mask id="path-65-inside-8_2130_1755" fill="white">
<path d="M45.6533 183.687L56.709 183.712V190.017L31.4648 204.728L6 190.017V183.601L17.0811 183.625L31.3135 175.416L45.6533 183.687Z"/>
</mask>
<path d="M45.6533 183.687L56.709 183.712V190.017L31.4648 204.728L6 190.017V183.601L17.0811 183.625L31.3135 175.416L45.6533 183.687Z" fill="white"/>
<path d="M45.6533 183.687L45.5534 183.86L45.5996 183.887L45.6529 183.887L45.6533 183.687ZM56.709 183.712H56.909V183.512L56.7094 183.512L56.709 183.712ZM56.709 190.017L56.8097 190.19L56.909 190.132V190.017H56.709ZM31.4648 204.728L31.3648 204.901L31.4653 204.959L31.5655 204.901L31.4648 204.728ZM6 190.017H5.8V190.133L5.89996 190.19L6 190.017ZM6 183.601L6.00042 183.401L5.8 183.401V183.601H6ZM17.0811 183.625L17.0806 183.825L17.1344 183.825L17.181 183.798L17.0811 183.625ZM31.3135 175.416L31.4134 175.242L31.3135 175.185L31.2136 175.242L31.3135 175.416ZM45.6533 183.687L45.6529 183.887L56.7085 183.912L56.709 183.712L56.7094 183.512L45.6538 183.487L45.6533 183.687ZM56.709 183.712H56.509V190.017H56.709H56.909V183.712H56.709ZM56.709 190.017L56.6083 189.844L31.3641 204.555L31.4648 204.728L31.5655 204.901L56.8097 190.19L56.709 190.017ZM31.4648 204.728L31.5649 204.555L6.10004 189.844L6 190.017L5.89996 190.19L31.3648 204.901L31.4648 204.728ZM6 190.017H6.2V183.601H6H5.8V190.017H6ZM6 183.601L5.99958 183.801L17.0806 183.825L17.0811 183.625L17.0815 183.425L6.00042 183.401L6 183.601ZM17.0811 183.625L17.181 183.798L31.4134 175.589L31.3135 175.416L31.2136 175.242L16.9811 183.451L17.0811 183.625ZM31.3135 175.416L31.2135 175.589L45.5534 183.86L45.6533 183.687L45.7533 183.514L31.4134 175.242L31.3135 175.416Z" fill="#0E3572" mask="url(#path-65-inside-8_2130_1755)"/>
<path d="M31.3145 169L56.7096 183.712L31.3144 198.203L6.001 183.601L31.3145 169Z" fill="#0E3572"/>
<path d="M31.3145 169L56.7096 183.712L31.3144 198.203L6.001 183.601L31.3145 169Z" fill="white" fill-opacity="0.85"/>
<path d="M56.2065 183.711L31.3161 197.914L6.5036 183.601L31.3145 169.29L56.2065 183.711Z" stroke="white" stroke-opacity="0.2" stroke-width="0.579511"/>
<g clip-path="url(#clip7_2130_1755)">
<path d="M33.2715 178.746C30.5775 178.331 27.5842 178.733 25.4707 179.953L31.1811 183.25L38.9826 182.043C38.6286 181.278 37.9317 180.554 36.8914 179.953C35.8511 179.353 34.5976 178.95 33.2715 178.746Z" stroke="#0E3572" stroke-miterlimit="10" stroke-linecap="round" stroke-linejoin="round"/>
<path d="M30.5315 184.75L24.8212 181.453C22.7077 182.673 22.0108 184.402 22.7299 185.957C23.0839 186.723 23.7808 187.446 24.8212 188.047C25.8614 188.648 27.115 189.05 28.4411 189.254C31.1351 189.67 34.1284 189.267 36.2418 188.047C38.3553 186.827 39.0522 185.099 38.3331 183.543L30.5315 184.75Z" stroke="#0E3572" stroke-miterlimit="10" stroke-linecap="round" stroke-linejoin="round"/>
</g>
<defs>
<linearGradient id="paint0_linear_2130_1755" x1="359.354" y1="177.124" x2="359.354" y2="191.728" gradientUnits="userSpaceOnUse">
<stop stop-color="white"/>
<stop offset="1" stop-color="#3EAFD1"/>
</linearGradient>
<linearGradient id="paint1_linear_2130_1755" x1="447.354" y1="99.1236" x2="447.354" y2="113.728" gradientUnits="userSpaceOnUse">
<stop stop-color="white"/>
<stop offset="1" stop-color="#3EAFD1"/>
</linearGradient>
<clipPath id="clip0_2130_1755">
<rect width="36" height="36" fill="white" transform="matrix(0.866025 -0.5 0.866025 0.5 41 69)"/>
</clipPath>
<clipPath id="clip1_2130_1755">
<rect width="36" height="36" fill="white" transform="matrix(0.866025 -0.5 0.866025 0.5 177 148)"/>
</clipPath>
<clipPath id="clip2_2130_1755">
<rect width="36" height="36" fill="white" transform="matrix(0.866025 -0.5 0.866025 0.5 329 64)"/>
</clipPath>
<clipPath id="clip3_2130_1755">
<rect width="36" height="36" fill="white" transform="matrix(0.866025 -0.5 0.866025 0.5 471.131 136)"/>
</clipPath>
<clipPath id="clip4_2130_1755">
<rect width="16" height="16" fill="white" transform="matrix(0.866025 -0.5 0.866025 0.5 195 48)"/>
</clipPath>
<clipPath id="clip5_2130_1755">
<rect width="16" height="16" fill="white" transform="matrix(0.866025 -0.5 0.866025 0.5 346 171)"/>
</clipPath>
<clipPath id="clip6_2130_1755">
<rect width="16" height="16" fill="white" transform="matrix(0.866025 -0.5 0.866025 0.5 434 92)"/>
</clipPath>
<clipPath id="clip7_2130_1755">
<rect width="16" height="16" fill="white" transform="matrix(0.866025 -0.5 0.866025 0.5 17 184)"/>
</clipPath>
</defs>
</svg>
