<svg width="584" height="238" viewBox="0 0 584 238" fill="none" xmlns="http://www.w3.org/2000/svg">
<path d="M530.08 120.442L443.157 171.005L357.37 120.442" stroke="url(#paint0_linear_1427_1083)" stroke-width="4" stroke-linecap="square" stroke-dasharray="1 1"/>
<path d="M56.2646 146.008L184.092 76.1288L226.702 103.399" stroke="url(#paint1_linear_1427_1083)" stroke-width="4" stroke-linecap="square" stroke-dasharray="1 1"/>
<line y1="-0.25" x2="218.307" y2="-0.25" transform="matrix(-0.869202 -0.494456 -0.494456 0.869202 468.723 129.532)" stroke="#0E3572" stroke-width="0.5" stroke-dasharray="1 1"/>
<line y1="-0.25" x2="150.826" y2="-0.25" transform="matrix(-0.858819 -0.512278 -0.512278 0.858819 257.381 207.933)" stroke="#0E3572" stroke-width="0.5" stroke-dasharray="1 1"/>
<path d="M37.6885 134.077L75.4986 155.999L37.6885 177.591L2.50061e-05 155.834L37.6885 134.077Z" fill="#C3D0E4"/>
<path d="M74.9955 155.998L37.6902 177.302L0.502383 155.834L37.6885 134.367L74.9955 155.998Z" stroke="white" stroke-opacity="0.2" stroke-width="0.579511"/>
<mask id="path-7-inside-1_1427_1083" fill="white">
<path d="M56.6599 141.319L71.5076 141.352V149.825L37.6072 169.599L4.62964 150.531L3.40796 149.825L3.40991 149.823V141.202L18.2878 141.235L37.4011 130.201L56.6599 141.319Z"/>
</mask>
<path d="M56.6599 141.319L71.5076 141.352V149.825L37.6072 169.599L4.62964 150.531L3.40796 149.825L3.40991 149.823V141.202L18.2878 141.235L37.4011 130.201L56.6599 141.319Z" fill="#0E3572" fill-opacity="0.1"/>
<path d="M56.6599 141.319L56.5599 141.492L56.6061 141.518L56.6595 141.519L56.6599 141.319ZM71.5076 141.352H71.7076V141.152L71.508 141.152L71.5076 141.352ZM71.5076 149.825L71.6083 149.998L71.7076 149.94V149.825H71.5076ZM37.6072 169.599L37.5071 169.772L37.6076 169.83L37.7079 169.772L37.6072 169.599ZM4.62964 150.531L4.72975 150.357L4.72961 150.357L4.62964 150.531ZM3.40796 149.825L3.26654 149.684L3.0822 149.868L3.30799 149.999L3.40796 149.825ZM3.40991 149.823L3.55133 149.965L3.60991 149.906V149.823H3.40991ZM3.40991 141.202L3.41035 141.002L3.20991 141.002V141.202H3.40991ZM18.2878 141.235L18.2874 141.435L18.3412 141.435L18.3878 141.408L18.2878 141.235ZM37.4011 130.201L37.5011 130.028L37.4011 129.97L37.3011 130.028L37.4011 130.201ZM56.6599 141.319L56.6595 141.519L71.5071 141.552L71.5076 141.352L71.508 141.152L56.6604 141.119L56.6599 141.319ZM71.5076 141.352H71.3076V149.825H71.5076H71.7076V141.352H71.5076ZM71.5076 149.825L71.4068 149.653L37.5064 169.426L37.6072 169.599L37.7079 169.772L71.6083 149.998L71.5076 149.825ZM37.6072 169.599L37.7073 169.426L4.72975 150.357L4.62964 150.531L4.52953 150.704L37.5071 169.772L37.6072 169.599ZM4.62964 150.531L4.72961 150.357L3.50793 149.652L3.40796 149.825L3.30799 149.999L4.52967 150.704L4.62964 150.531ZM3.40796 149.825L3.54938 149.967L3.55133 149.965L3.40991 149.823L3.26849 149.682L3.26654 149.684L3.40796 149.825ZM3.40991 149.823H3.60991V141.202H3.40991H3.20991V149.823H3.40991ZM3.40991 141.202L3.40948 141.402L18.2874 141.435L18.2878 141.235L18.2883 141.035L3.41035 141.002L3.40991 141.202ZM18.2878 141.235L18.3878 141.408L37.5011 130.375L37.4011 130.201L37.3011 130.028L18.1879 141.061L18.2878 141.235ZM37.4011 130.201L37.3011 130.375L56.5599 141.492L56.6599 141.319L56.7599 141.145L37.5011 130.028L37.4011 130.201Z" fill="#0E3572" mask="url(#path-7-inside-1_1427_1083)"/>
<path d="M71.0752 141.35L37.4059 160.578L3.84391 141.203L37.405 121.829L71.0752 141.35Z" fill="white" stroke="#0E3572" stroke-width="0.5"/>
<mask id="path-10-inside-2_1427_1083" fill="white">
<path d="M56.6599 122.002L71.5076 122.036V130.509L37.6072 150.283L4.62964 131.214L3.40796 130.509L3.40991 130.507V121.886L18.2878 121.918L37.4011 110.885L56.6599 122.002Z"/>
</mask>
<path d="M56.6599 122.002L71.5076 122.036V130.509L37.6072 150.283L4.62964 131.214L3.40796 130.509L3.40991 130.507V121.886L18.2878 121.918L37.4011 110.885L56.6599 122.002Z" fill="#0E3572" fill-opacity="0.1"/>
<path d="M56.6599 122.002L56.5599 122.176L56.6061 122.202L56.6595 122.202L56.6599 122.002ZM71.5076 122.036H71.7076V121.836L71.508 121.836L71.5076 122.036ZM71.5076 130.509L71.6083 130.682L71.7076 130.624V130.509H71.5076ZM37.6072 150.283L37.5071 150.456L37.6076 150.514L37.7079 150.455L37.6072 150.283ZM4.62964 131.214L4.72975 131.041L4.72961 131.041L4.62964 131.214ZM3.40796 130.509L3.26654 130.368L3.0822 130.552L3.30799 130.682L3.40796 130.509ZM3.40991 130.507L3.55133 130.649L3.60991 130.59V130.507H3.40991ZM3.40991 121.886L3.41035 121.686L3.20991 121.686V121.886H3.40991ZM18.2878 121.918L18.2874 122.118L18.3412 122.119L18.3878 122.092L18.2878 121.918ZM37.4011 110.885L37.5011 110.712L37.4011 110.654L37.3011 110.712L37.4011 110.885ZM56.6599 122.002L56.6595 122.202L71.5071 122.236L71.5076 122.036L71.508 121.836L56.6604 121.802L56.6599 122.002ZM71.5076 122.036H71.3076V130.509H71.5076H71.7076V122.036H71.5076ZM71.5076 130.509L71.4068 130.337L37.5064 150.11L37.6072 150.283L37.7079 150.455L71.6083 130.682L71.5076 130.509ZM37.6072 150.283L37.7073 150.11L4.72975 131.041L4.62964 131.214L4.52953 131.387L37.5071 150.456L37.6072 150.283ZM4.62964 131.214L4.72961 131.041L3.50793 130.336L3.40796 130.509L3.30799 130.682L4.52967 131.388L4.62964 131.214ZM3.40796 130.509L3.54938 130.651L3.55133 130.649L3.40991 130.507L3.26849 130.366L3.26654 130.368L3.40796 130.509ZM3.40991 130.507H3.60991V121.886H3.40991H3.20991V130.507H3.40991ZM3.40991 121.886L3.40948 122.086L18.2874 122.118L18.2878 121.918L18.2883 121.718L3.41035 121.686L3.40991 121.886ZM18.2878 121.918L18.3878 122.092L37.5011 111.058L37.4011 110.885L37.3011 110.712L18.1879 121.745L18.2878 121.918ZM37.4011 110.885L37.3011 111.058L56.5599 122.176L56.6599 122.002L56.7599 121.829L37.5011 110.712L37.4011 110.885Z" fill="#0E3572" mask="url(#path-10-inside-2_1427_1083)"/>
<path d="M71.0753 122.034L37.4059 141.262L3.8439 121.887L37.405 102.512L71.0753 122.034Z" fill="white" stroke="#0E3572" stroke-width="0.5"/>
<mask id="path-13-inside-3_1427_1083" fill="white">
<path d="M56.6592 102.685L71.5088 102.718V111.193L37.6084 130.965L5.26465 112.265L3.40723 111.193L3.41016 111.191V102.57L18.2881 102.602L37.4023 91.569L56.6592 102.685Z"/>
</mask>
<path d="M56.6592 102.685L71.5088 102.718V111.193L37.6084 130.965L5.26465 112.265L3.40723 111.193L3.41016 111.191V102.57L18.2881 102.602L37.4023 91.569L56.6592 102.685Z" fill="#0E3572" fill-opacity="0.1"/>
<path d="M56.6592 102.685L56.5592 102.858L56.6054 102.885L56.6587 102.885L56.6592 102.685ZM71.5088 102.718H71.7088V102.519L71.5092 102.518L71.5088 102.718ZM71.5088 111.193L71.6096 111.366L71.7088 111.308V111.193H71.5088ZM37.6084 130.965L37.5083 131.139L37.6088 131.197L37.7092 131.138L37.6084 130.965ZM5.26465 112.265L5.36475 112.092L5.36464 112.092L5.26465 112.265ZM3.40723 111.193L3.29629 111.027L3.02835 111.205L3.30723 111.366L3.40723 111.193ZM3.41016 111.191L3.5211 111.357L3.61016 111.298V111.191H3.41016ZM3.41016 102.57L3.41059 102.37L3.21016 102.37V102.57H3.41016ZM18.2881 102.602L18.2877 102.802L18.3415 102.802L18.3881 102.775L18.2881 102.602ZM37.4023 91.569L37.5023 91.3958L37.4023 91.338L37.3024 91.3958L37.4023 91.569ZM56.6592 102.685L56.6587 102.885L71.5083 102.918L71.5088 102.718L71.5092 102.518L56.6596 102.485L56.6592 102.685ZM71.5088 102.718H71.3088V111.193H71.5088H71.7088V102.718H71.5088ZM71.5088 111.193L71.408 111.02L37.5076 130.793L37.6084 130.965L37.7092 131.138L71.6096 111.366L71.5088 111.193ZM37.6084 130.965L37.7085 130.792L5.36475 112.092L5.26465 112.265L5.16454 112.438L37.5083 131.139L37.6084 130.965ZM5.26465 112.265L5.36464 112.092L3.50722 111.02L3.40723 111.193L3.30723 111.366L5.16466 112.438L5.26465 112.265ZM3.40723 111.193L3.51817 111.359L3.5211 111.357L3.41016 111.191L3.29922 111.025L3.29629 111.027L3.40723 111.193ZM3.41016 111.191H3.61016V102.57H3.41016H3.21016V111.191H3.41016ZM3.41016 102.57L3.40972 102.77L18.2877 102.802L18.2881 102.602L18.2885 102.402L3.41059 102.37L3.41016 102.57ZM18.2881 102.602L18.3881 102.775L37.5023 91.7422L37.4023 91.569L37.3024 91.3958L18.1881 102.429L18.2881 102.602ZM37.4023 91.569L37.3024 91.7422L56.5592 102.858L56.6592 102.685L56.7592 102.512L37.5023 91.3958L37.4023 91.569Z" fill="#0E3572" mask="url(#path-13-inside-3_1427_1083)"/>
<path d="M71.0765 102.717L37.4071 121.945L3.84506 102.57L37.4062 83.1963L71.0765 102.717Z" fill="white" stroke="#0E3572" stroke-width="0.5"/>
<path d="M37.623 93.1725L52.57 101.838L37.623 110.374L22.7242 101.773L37.623 93.1725Z" fill="#2A569C"/>
<path d="M52.0677 101.837L37.6247 110.085L23.2266 101.773L37.623 93.4625L52.0677 101.837Z" stroke="white" stroke-opacity="0.2" stroke-width="0.579511"/>
<ellipse cx="1.42031" cy="1.42031" rx="1.42031" ry="1.42031" transform="matrix(0.99863 0.052336 -0.139173 0.990268 61.7544 110.216)" fill="#0E3572"/>
<ellipse cx="1.42031" cy="1.42031" rx="1.42031" ry="1.42031" transform="matrix(0.99863 0.052336 -0.139173 0.990268 66.2993 107.944)" fill="#0E3572"/>
<ellipse cx="1.42031" cy="1.42031" rx="1.42031" ry="1.42031" transform="matrix(0.99863 0.052336 -0.139173 0.990268 57.2092 112.489)" fill="#0E3572"/>
<mask id="path-21-inside-4_1427_1083" fill="white">
<path d="M174.793 19.2423L160.323 19.2745V27.5353L193.366 46.8087L226.7 27.5353V19.129L212.195 19.1603L193.565 8.4054L174.793 19.2423Z"/>
</mask>
<path d="M174.793 19.2423L160.323 19.2745V27.5353L193.366 46.8087L226.7 27.5353V19.129L212.195 19.1603L193.565 8.4054L174.793 19.2423Z" fill="url(#paint2_linear_1427_1083)"/>
<path d="M174.793 19.2423L160.323 19.2745V27.5353L193.366 46.8087L226.7 27.5353V19.129L212.195 19.1603L193.565 8.4054L174.793 19.2423Z" fill="url(#paint3_linear_1427_1083)"/>
<path d="M174.793 19.2423L174.893 19.4155L174.847 19.4422L174.794 19.4423L174.793 19.2423ZM160.323 19.2745H160.123V19.075L160.322 19.0745L160.323 19.2745ZM160.323 27.5353L160.222 27.708L160.123 27.6502V27.5353H160.323ZM193.366 46.8087L193.467 46.9819L193.366 47.04L193.266 46.9815L193.366 46.8087ZM226.7 27.5353H226.9V27.6507L226.801 27.7084L226.7 27.5353ZM226.7 19.129L226.7 18.929L226.9 18.9286V19.129H226.7ZM212.195 19.1603L212.195 19.3603L212.141 19.3604L212.095 19.3335L212.195 19.1603ZM193.565 8.4054L193.465 8.23219L193.565 8.17446L193.665 8.23219L193.565 8.4054ZM174.793 19.2423L174.794 19.4423L160.323 19.4745L160.323 19.2745L160.322 19.0745L174.793 19.0423L174.793 19.2423ZM160.323 19.2745H160.523V27.5353H160.323H160.123V19.2745H160.323ZM160.323 27.5353L160.423 27.3625L193.467 46.636L193.366 46.8087L193.266 46.9815L160.222 27.708L160.323 27.5353ZM193.366 46.8087L193.266 46.6356L226.6 27.3621L226.7 27.5353L226.801 27.7084L193.467 46.9819L193.366 46.8087ZM226.7 27.5353H226.5V19.129H226.7H226.9V27.5353H226.7ZM226.7 19.129L226.701 19.329L212.195 19.3603L212.195 19.1603L212.194 18.9603L226.7 18.929L226.7 19.129ZM212.195 19.1603L212.095 19.3335L193.465 8.5786L193.565 8.4054L193.665 8.23219L212.295 18.9871L212.195 19.1603ZM193.565 8.4054L193.665 8.5786L174.893 19.4155L174.793 19.2423L174.693 19.0691L193.465 8.23219L193.565 8.4054Z" fill="#0E3572" mask="url(#path-21-inside-4_1427_1083)"/>
<path d="M160.824 19.2731L193.562 37.97L226.196 19.1295L193.563 0.290026L160.824 19.2731Z" fill="white" stroke="#0E3572" stroke-width="0.579511"/>
<path d="M189.859 25.1967C190.679 25.67 191.563 25.9133 192.51 25.9266C193.456 25.94 194.322 25.72 195.108 25.2667L198.347 23.3967C198.705 23.1901 199.074 23.0768 199.455 23.0568C199.836 23.0234 200.206 23.1101 200.564 23.3167L201.066 23.6067L202.538 22.7568L202.036 22.4668C201.678 22.2601 201.522 22.0501 201.568 21.8368C201.615 21.6102 201.817 21.3935 202.175 21.1868L205.5 19.2669C206.274 18.8203 206.649 18.3237 206.626 17.777C206.603 17.2304 206.181 16.7204 205.362 16.2471L204.703 15.8671L203.231 16.7171L203.889 17.097C204.201 17.277 204.351 17.477 204.34 17.697C204.317 17.9103 204.132 18.1103 203.785 18.297L200.598 20.1369C200.171 20.3702 199.859 20.6302 199.663 20.9169C199.478 21.1968 199.415 21.5002 199.473 21.8268C198.976 21.7802 198.468 21.8135 197.948 21.9268C197.44 22.0335 196.996 22.2035 196.615 22.4368L193.428 24.2767C193.116 24.47 192.769 24.5767 192.388 24.5967C191.996 24.61 191.644 24.5267 191.332 24.3467L190.674 23.9667L189.201 24.8167L189.859 25.1967ZM184.999 22.3908L186.472 21.5408L185.813 21.1608C185.502 20.9808 185.357 20.7775 185.38 20.5509C185.403 20.3242 185.582 20.1209 185.917 19.9409L189.104 18.101C189.508 17.881 189.809 17.6277 190.005 17.341C190.201 17.041 190.259 16.7477 190.178 16.4611C190.732 16.4877 191.258 16.4511 191.754 16.3511C192.251 16.2377 192.695 16.0544 193.088 15.8011L196.275 13.9612C196.598 13.7612 196.951 13.6579 197.332 13.6512C197.713 13.6445 198.059 13.7312 198.371 13.9112L199.029 14.2912L200.501 13.4412L199.843 13.0612C199.012 12.5812 198.128 12.3379 197.193 12.3313C196.246 12.3179 195.386 12.5346 194.612 12.9812L191.287 14.9011C190.929 15.1078 190.553 15.2245 190.161 15.2511C189.78 15.2711 189.416 15.1811 189.07 14.9811L188.567 14.6911L187.095 15.5411L187.597 15.8311C187.944 16.0311 188.094 16.2444 188.048 16.4711C188.013 16.6911 187.817 16.9044 187.459 17.111L184.22 18.9809C183.435 19.4343 183.054 19.9342 183.077 20.4809C183.088 21.0208 183.51 21.5308 184.341 22.0108L184.999 22.3908Z" fill="#0E3572"/>
<path d="M545.591 86.355L583.401 108.277L545.591 129.869L507.902 108.112L545.591 86.355Z" fill="#C3D0E4"/>
<path d="M582.898 108.275L545.593 129.58L508.405 108.112L545.591 86.645L582.898 108.275Z" stroke="white" stroke-opacity="0.2" stroke-width="0.579511"/>
<mask id="path-27-inside-5_1427_1083" fill="white">
<path d="M564.56 93.5953L579.41 93.6285V102.103L545.509 121.877L512.532 102.808L511.31 102.103L511.312 102.101V93.4801L526.19 93.5123L545.303 82.4791L564.56 93.5953Z"/>
</mask>
<path d="M564.56 93.5953L579.41 93.6285V102.103L545.509 121.877L512.532 102.808L511.31 102.103L511.312 102.101V93.4801L526.19 93.5123L545.303 82.4791L564.56 93.5953Z" fill="#0E3572" fill-opacity="0.1"/>
<path d="M564.56 93.5953L564.46 93.7685L564.506 93.7952L564.56 93.7953L564.56 93.5953ZM579.41 93.6285H579.61V93.429L579.41 93.4285L579.41 93.6285ZM579.41 102.103L579.51 102.276L579.61 102.218V102.103H579.41ZM545.509 121.877L545.409 122.05L545.51 122.108L545.61 122.049L545.509 121.877ZM512.532 102.808L512.632 102.635L512.632 102.635L512.532 102.808ZM511.31 102.103L511.169 101.962L510.984 102.146L511.21 102.276L511.31 102.103ZM511.312 102.101L511.453 102.243L511.512 102.184V102.101H511.312ZM511.312 93.4801L511.312 93.2801L511.112 93.2797V93.4801H511.312ZM526.19 93.5123L526.19 93.7123L526.243 93.7124L526.29 93.6855L526.19 93.5123ZM545.303 82.4791L545.403 82.3059L545.303 82.2482L545.203 82.3059L545.303 82.4791ZM564.56 93.5953L564.56 93.7953L579.409 93.8285L579.41 93.6285L579.41 93.4285L564.561 93.3953L564.56 93.5953ZM579.41 93.6285H579.21V102.103H579.41H579.61V93.6285H579.41ZM579.41 102.103L579.309 101.93L545.409 121.704L545.509 121.877L545.61 122.049L579.51 102.276L579.41 102.103ZM545.509 121.877L545.609 121.703L512.632 102.635L512.532 102.808L512.432 102.981L545.409 122.05L545.509 121.877ZM512.532 102.808L512.632 102.635L511.41 101.93L511.31 102.103L511.21 102.276L512.432 102.981L512.532 102.808ZM511.31 102.103L511.451 102.245L511.453 102.243L511.312 102.101L511.171 101.96L511.169 101.962L511.31 102.103ZM511.312 102.101H511.512V93.4801H511.312H511.112V102.101H511.312ZM511.312 93.4801L511.312 93.6801L526.19 93.7123L526.19 93.5123L526.19 93.3123L511.312 93.2801L511.312 93.4801ZM526.19 93.5123L526.29 93.6855L545.403 82.6523L545.303 82.4791L545.203 82.3059L526.09 93.3391L526.19 93.5123ZM545.303 82.4791L545.203 82.6523L564.46 93.7685L564.56 93.5953L564.66 93.4221L545.403 82.3059L545.303 82.4791Z" fill="#0E3572" mask="url(#path-27-inside-5_1427_1083)"/>
<path d="M578.977 93.6276L545.308 112.855L511.746 93.4807L545.307 74.1063L578.977 93.6276Z" fill="white" stroke="#0E3572" stroke-width="0.5"/>
<mask id="path-30-inside-6_1427_1083" fill="white">
<path d="M564.56 74.2792L579.41 74.3124V82.787L545.509 102.56L512.532 83.4921L511.31 82.787L511.312 82.785V74.1639L526.19 74.1962L545.303 63.163L564.56 74.2792Z"/>
</mask>
<path d="M564.56 74.2792L579.41 74.3124V82.787L545.509 102.56L512.532 83.4921L511.31 82.787L511.312 82.785V74.1639L526.19 74.1962L545.303 63.163L564.56 74.2792Z" fill="#0E3572" fill-opacity="0.1"/>
<path d="M564.56 74.2792L564.46 74.4524L564.506 74.4791L564.56 74.4792L564.56 74.2792ZM579.41 74.3124H579.61V74.1128L579.41 74.1124L579.41 74.3124ZM579.41 82.787L579.51 82.9597L579.61 82.9019V82.787H579.41ZM545.509 102.56L545.409 102.734L545.51 102.792L545.61 102.733L545.509 102.56ZM512.532 83.4921L512.632 83.3189L512.632 83.3188L512.532 83.4921ZM511.31 82.787L511.169 82.6456L510.984 82.8299L511.21 82.9602L511.31 82.787ZM511.312 82.785L511.453 82.9265L511.512 82.8679V82.785H511.312ZM511.312 74.1639L511.312 73.9639L511.112 73.9635V74.1639H511.312ZM526.19 74.1962L526.19 74.3962L526.243 74.3963L526.29 74.3694L526.19 74.1962ZM545.303 63.163L545.403 62.9898L545.303 62.932L545.203 62.9898L545.303 63.163ZM564.56 74.2792L564.56 74.4792L579.409 74.5124L579.41 74.3124L579.41 74.1124L564.561 74.0792L564.56 74.2792ZM579.41 74.3124H579.21V82.787H579.41H579.61V74.3124H579.41ZM579.41 82.787L579.309 82.6142L545.409 102.388L545.509 102.56L545.61 102.733L579.51 82.9597L579.41 82.787ZM545.509 102.56L545.609 102.387L512.632 83.3189L512.532 83.4921L512.432 83.6652L545.409 102.734L545.509 102.56ZM512.532 83.4921L512.632 83.3188L511.41 82.6138L511.31 82.787L511.21 82.9602L512.432 83.6653L512.532 83.4921ZM511.31 82.787L511.451 82.9284L511.453 82.9265L511.312 82.785L511.171 82.6436L511.169 82.6456L511.31 82.787ZM511.312 82.785H511.512V74.1639H511.312H511.112V82.785H511.312ZM511.312 74.1639L511.312 74.3639L526.19 74.3962L526.19 74.1962L526.19 73.9962L511.312 73.9639L511.312 74.1639ZM526.19 74.1962L526.29 74.3694L545.403 63.3362L545.303 63.163L545.203 62.9898L526.09 74.023L526.19 74.1962ZM545.303 63.163L545.203 63.3362L564.46 74.4524L564.56 74.2792L564.66 74.106L545.403 62.9898L545.303 63.163Z" fill="#0E3572" mask="url(#path-30-inside-6_1427_1083)"/>
<path d="M578.977 74.3113L545.308 93.5392L511.746 74.1643L545.307 54.79L578.977 74.3113Z" fill="white" stroke="#0E3572" stroke-width="0.5"/>
<mask id="path-33-inside-7_1427_1083" fill="white">
<path d="M564.561 54.9629L579.411 54.9961V63.4707L545.51 83.2432L512.571 64.1982L511.31 63.4707L511.312 63.4688V54.8477L526.191 54.8799L545.304 43.8467L564.561 54.9629Z"/>
</mask>
<path d="M564.561 54.9629L579.411 54.9961V63.4707L545.51 83.2432L512.571 64.1982L511.31 63.4707L511.312 63.4688V54.8477L526.191 54.8799L545.304 43.8467L564.561 54.9629Z" fill="#0E3572" fill-opacity="0.1"/>
<path d="M564.561 54.9629L564.461 55.1361L564.507 55.1628L564.561 55.1629L564.561 54.9629ZM579.411 54.9961H579.611V54.7965L579.411 54.7961L579.411 54.9961ZM579.411 63.4707L579.512 63.6435L579.611 63.5856V63.4707H579.411ZM545.51 83.2432L545.41 83.4163L545.511 83.4744L545.611 83.4159L545.51 83.2432ZM512.571 64.1982L512.671 64.0251L512.671 64.025L512.571 64.1982ZM511.31 63.4707L511.169 63.3293L510.985 63.5136L511.21 63.6439L511.31 63.4707ZM511.312 63.4688L511.454 63.6102L511.512 63.5516V63.4688H511.312ZM511.312 54.8477L511.313 54.6477L511.112 54.6472V54.8477H511.312ZM526.191 54.8799L526.191 55.0799L526.245 55.08L526.291 55.0531L526.191 54.8799ZM545.304 43.8467L545.404 43.6735L545.304 43.6157L545.204 43.6735L545.304 43.8467ZM564.561 54.9629L564.561 55.1629L579.41 55.1961L579.411 54.9961L579.411 54.7961L564.562 54.7629L564.561 54.9629ZM579.411 54.9961H579.211V63.4707H579.411H579.611V54.9961H579.411ZM579.411 63.4707L579.31 63.2979L545.41 83.0704L545.51 83.2432L545.611 83.4159L579.512 63.6435L579.411 63.4707ZM545.51 83.2432L545.611 83.07L512.671 64.0251L512.571 64.1982L512.471 64.3714L545.41 83.4163L545.51 83.2432ZM512.571 64.1982L512.671 64.025L511.41 63.2975L511.31 63.4707L511.21 63.6439L512.471 64.3715L512.571 64.1982ZM511.31 63.4707L511.452 63.6121L511.454 63.6102L511.312 63.4688L511.171 63.3273L511.169 63.3293L511.31 63.4707ZM511.312 63.4688H511.512V54.8477H511.312H511.112V63.4688H511.312ZM511.312 54.8477L511.312 55.0477L526.191 55.0799L526.191 54.8799L526.192 54.6799L511.313 54.6477L511.312 54.8477ZM526.191 54.8799L526.291 55.0531L545.404 44.0199L545.304 43.8467L545.204 43.6735L526.091 54.7067L526.191 54.8799ZM545.304 43.8467L545.204 44.0199L564.461 55.1361L564.561 54.9629L564.661 54.7897L545.404 43.6735L545.304 43.8467Z" fill="#0E3572" mask="url(#path-33-inside-7_1427_1083)"/>
<path d="M578.979 54.995L545.309 74.2228L511.747 54.8481L545.308 35.4739L578.979 54.995Z" fill="white" stroke="#0E3572" stroke-width="0.5"/>
<path d="M545.525 45.4501L560.472 54.1161L545.525 62.6517L530.626 54.0509L545.525 45.4501Z" fill="#2A569C"/>
<path d="M559.97 54.1148L545.527 62.3626L531.129 54.0509L545.525 45.7401L559.97 54.1148Z" stroke="white" stroke-opacity="0.2" stroke-width="0.579511"/>
<ellipse cx="1.42031" cy="1.42031" rx="1.42031" ry="1.42031" transform="matrix(0.99863 0.052336 -0.139173 0.990268 569.656 62.4938)" fill="#0E3572"/>
<ellipse cx="1.42031" cy="1.42031" rx="1.42031" ry="1.42031" transform="matrix(0.99863 0.052336 -0.139173 0.990268 574.201 60.2213)" fill="#0E3572"/>
<ellipse cx="1.42031" cy="1.42031" rx="1.42031" ry="1.42031" transform="matrix(0.99863 0.052336 -0.139173 0.990268 565.111 64.7662)" fill="#0E3572"/>
<line y1="-0.25" x2="295.26" y2="-0.25" transform="matrix(-0.865865 0.500278 0.500278 0.865865 453.952 71.5837)" stroke="#0E3572" stroke-width="0.5" stroke-dasharray="1 1"/>
<line y1="-0.25" x2="265.086" y2="-0.25" transform="matrix(-0.867165 0.498021 0.498021 0.867165 348.081 21.2986)" stroke="#0E3572" stroke-width="0.5" stroke-dasharray="1 1"/>
<path d="M269.629 177.436L392.543 106.47C393.123 106.139 393.703 105.766 394.365 105.352C394.986 105.021 395.525 104.772 396.022 104.482C403.807 99.9695 406.872 93.3449 404.056 87.1758C403.02 84.0291 400.536 81.2137 396.809 79.0607C394.407 77.6943 391.549 76.5765 388.319 75.8312C378.835 73.0157 367.405 73.1814 358.212 76.2866C353.035 73.5126 346.326 72.0221 339.286 72.0635C331.956 72.1049 325.04 73.761 319.863 76.7421C319.118 77.1975 318.372 77.6529 317.71 78.1498C312.533 75.9554 306.155 74.7961 299.653 74.9203C292.986 75.0445 286.608 76.4936 281.639 79.0193C262.34 74.4649 240.433 77.0319 225.69 85.561C217.697 90.1568 212.645 95.9947 211.071 102.454C209.58 108.499 211.402 114.751 216.165 120.133C213.307 121.002 210.74 122.079 208.462 123.404C196.079 130.525 196.079 142.16 208.462 149.323C210.45 150.482 212.645 151.434 215.088 152.262C214.591 152.511 214.053 152.8 213.556 153.09C200.386 160.667 200.386 173.047 213.556 180.624C219.312 183.936 226.973 185.965 235.132 186.296C243.166 186.627 251.076 185.261 257.495 182.528C261.968 181.162 266.026 179.506 269.629 177.436Z" fill="white" stroke="#0E3572" stroke-width="0.3"/>
<path d="M405.092 92.5583V79.1849H392.875" fill="#F9F8F5"/>
<path d="M405.092 92.5583V79.1849H392.875" stroke="#0E3572" stroke-width="0.5" stroke-miterlimit="10"/>
<mask id="path-46-inside-8_1427_1083" fill="white">
<path d="M203.577 168.161V154.125H215.793"/>
</mask>
<path d="M203.577 168.161V154.125H215.793" fill="white"/>
<path d="M203.577 154.125H203.377V153.925H203.577V154.125ZM203.577 168.161H203.377V154.125H203.577H203.777V168.161H203.577ZM203.577 154.125V153.925H215.793V154.125V154.325H203.577V154.125Z" fill="#0E3572" mask="url(#path-46-inside-8_1427_1083)"/>
<mask id="path-48-inside-9_1427_1083" fill="white">
<path d="M199.187 135.908V124.108L211.859 125.308"/>
</mask>
<path d="M199.187 135.908V124.108L211.859 125.308" fill="white"/>
<path d="M199.187 124.108H198.987V123.888L199.206 123.909L199.187 124.108ZM199.187 135.908H198.987V124.108H199.187H199.387V135.908H199.187ZM199.187 124.108L199.206 123.909L211.878 125.109L211.859 125.308L211.84 125.508L199.168 124.307L199.187 124.108Z" fill="#0E3572" mask="url(#path-48-inside-9_1427_1083)"/>
<mask id="path-50-inside-10_1427_1083" fill="white">
<path d="M210.658 104.979V93.2208L223.33 94.4215"/>
</mask>
<path d="M210.658 104.979V93.2208L223.33 94.4215" fill="#91D1E5"/>
<path d="M210.658 93.2208H210.458V93.001L210.677 93.0217L210.658 93.2208ZM210.658 104.979H210.458V93.2208H210.658H210.858V104.979H210.658ZM210.658 93.2208L210.677 93.0217L223.349 94.2224L223.33 94.4215L223.311 94.6206L210.639 93.4199L210.658 93.2208Z" fill="#0E3572" mask="url(#path-50-inside-10_1427_1083)"/>
<g filter="url(#filter0_i_1427_1083)">
<path d="M269.629 165.594L392.543 94.6698C393.123 94.3386 393.702 93.9659 394.365 93.5519C394.986 93.2207 395.524 92.9723 396.021 92.6824C403.807 88.128 406.872 81.5035 404.056 75.3343C403.02 72.1877 400.535 69.3722 396.808 67.2192C394.406 65.8529 391.549 64.735 388.319 63.9898C378.835 61.1743 367.405 61.3399 358.211 64.4452C353.035 61.6712 346.326 60.1806 339.286 60.222C331.955 60.2634 325.039 61.9196 319.863 64.9006C319.117 65.3561 318.372 65.8115 317.709 66.3084C312.533 64.114 306.155 62.9547 299.653 63.0789C292.986 63.2031 286.608 64.6522 281.639 67.1778C262.34 62.6234 240.432 65.1905 225.689 73.7196C217.697 78.2326 212.644 84.0705 211.071 90.488C209.58 96.533 211.402 102.785 216.164 108.167C213.307 109.037 210.739 110.113 208.462 111.438C196.079 118.56 196.079 130.194 208.462 137.357C210.449 138.516 212.644 139.468 215.088 140.297C214.591 140.545 214.052 140.835 213.555 141.125C200.386 148.701 200.386 161.081 213.555 168.658C219.312 171.97 226.973 173.999 235.132 174.33C243.166 174.662 251.076 173.295 257.495 170.563C261.967 169.32 266.026 167.664 269.629 165.594Z" fill="#0E3572"/>
<path d="M269.629 165.594L392.543 94.6698C393.123 94.3386 393.702 93.9659 394.365 93.5519C394.986 93.2207 395.524 92.9723 396.021 92.6824C403.807 88.128 406.872 81.5035 404.056 75.3343C403.02 72.1877 400.535 69.3722 396.808 67.2192C394.406 65.8529 391.549 64.735 388.319 63.9898C378.835 61.1743 367.405 61.3399 358.211 64.4452C353.035 61.6712 346.326 60.1806 339.286 60.222C331.955 60.2634 325.039 61.9196 319.863 64.9006C319.117 65.3561 318.372 65.8115 317.709 66.3084C312.533 64.114 306.155 62.9547 299.653 63.0789C292.986 63.2031 286.608 64.6522 281.639 67.1778C262.34 62.6234 240.432 65.1905 225.689 73.7196C217.697 78.2326 212.644 84.0705 211.071 90.488C209.58 96.533 211.402 102.785 216.164 108.167C213.307 109.037 210.739 110.113 208.462 111.438C196.079 118.56 196.079 130.194 208.462 137.357C210.449 138.516 212.644 139.468 215.088 140.297C214.591 140.545 214.052 140.835 213.555 141.125C200.386 148.701 200.386 161.081 213.555 168.658C219.312 171.97 226.973 173.999 235.132 174.33C243.166 174.662 251.076 173.295 257.495 170.563C261.967 169.32 266.026 167.664 269.629 165.594Z" fill="white"/>
</g>
<path d="M339.287 60.4722C331.99 60.5134 325.119 62.162 319.988 65.1167C319.242 65.5724 318.509 66.021 317.859 66.5083L317.745 66.5942L317.612 66.5386C312.472 64.3596 306.129 63.205 299.658 63.3286C293.021 63.4523 286.681 64.8955 281.751 67.4009L281.67 67.4419L281.582 67.4214C262.334 62.8791 240.494 65.4441 225.815 73.936L225.812 73.937C217.856 78.429 212.865 84.2188 211.313 90.5474V90.5483C209.845 96.4993 211.634 102.669 216.352 108.001L216.61 108.293L216.237 108.407C213.394 109.272 210.845 110.341 208.587 111.655H208.586C202.441 115.189 199.424 119.809 199.424 124.382C199.424 128.956 202.441 133.585 208.586 137.14L208.587 137.141C210.557 138.29 212.736 139.236 215.167 140.06L215.736 140.252L215.2 140.52C214.707 140.766 214.173 141.053 213.681 141.34L213.68 141.341C207.142 145.103 203.928 150.023 203.928 154.891C203.928 159.76 207.142 164.679 213.68 168.441C219.395 171.729 227.015 173.751 235.142 174.081C243.144 174.41 251.016 173.049 257.397 170.333L257.412 170.326L257.428 170.322L258.258 170.084C262.386 168.876 266.146 167.307 269.504 165.377H269.503L392.417 94.4536L392.418 94.4526L392.851 94.1987C393.286 93.9373 393.733 93.6526 394.233 93.3403L394.24 93.3354L394.248 93.3315L395.126 92.8784C395.396 92.741 395.648 92.6103 395.895 92.4663C399.757 90.2073 402.427 87.4474 403.788 84.5093C405.145 81.577 405.205 78.4543 403.829 75.438L403.823 75.4253L403.818 75.4126C402.807 72.3387 400.373 69.5658 396.684 67.4351C394.305 66.082 391.47 64.9731 388.262 64.2329L388.254 64.2319L388.248 64.229C378.812 61.4279 367.435 61.5938 358.292 64.6821L358.189 64.7163L358.093 64.6655C352.96 61.9149 346.294 60.431 339.287 60.4722Z" stroke="#0E3572" stroke-width="0.5"/>
<mask id="mask0_1427_1083" style="mask-type:luminance" maskUnits="userSpaceOnUse" x="239" y="79" width="94" height="55">
<path d="M299.309 79.5375L239.194 114.245L272.257 133.334L332.372 98.6264L299.309 79.5375Z" fill="white"/>
</mask>
<g mask="url(#mask0_1427_1083)">
<path fill-rule="evenodd" clip-rule="evenodd" d="M255.725 123.789C257.896 125.042 260.473 126.037 263.31 126.715C266.146 127.393 269.187 127.742 272.257 127.742C275.327 127.742 278.367 127.393 281.203 126.715C284.04 126.037 286.617 125.042 288.788 123.789C293.102 121.303 295.555 117.939 295.62 114.42C292.579 114.201 289.627 113.677 286.898 112.872C287.285 114.213 287.113 115.588 286.396 116.883C285.679 118.178 284.439 119.355 282.777 120.318C276.976 123.668 267.538 123.668 261.737 120.318C255.936 116.969 255.936 111.52 261.737 108.171C263.405 107.211 265.446 106.495 267.689 106.081C269.932 105.667 272.314 105.567 274.637 105.79C283.718 106.635 283.336 110.711 295.269 111.912C298.966 112.29 302.766 112.147 306.348 111.496C309.929 110.845 313.185 109.704 315.84 108.171C318.553 106.607 320.558 104.682 321.679 102.566C322.8 100.45 323.003 98.2066 322.269 96.0344C321.535 93.8621 319.887 91.8274 317.471 90.1094C315.054 88.3914 311.943 87.0428 308.411 86.1824C304.88 85.3219 301.036 84.976 297.218 85.1752C293.4 85.3744 289.726 86.1125 286.519 87.3245C283.311 88.5365 280.669 90.1852 278.825 92.1255C276.982 94.0658 275.992 96.2381 275.945 98.451C278.986 98.6695 281.937 99.194 284.664 100.001C284.278 98.6594 284.451 97.2842 285.168 95.9891C285.885 94.6939 287.126 93.5159 288.788 92.5525C294.589 89.2033 304.027 89.2033 309.828 92.5525C315.629 95.9018 315.629 101.351 309.828 104.7C303.919 108.112 294.385 107.931 288.788 104.7C284.404 102.169 278.457 100.747 272.257 100.747C266.056 100.747 260.11 102.169 255.725 104.7C251.341 107.231 248.878 110.665 248.878 114.245C248.878 117.824 251.341 121.258 255.725 123.789Z" fill="#0E3572"/>
</g>
<mask id="path-56-inside-11_1427_1083" fill="white">
<path d="M351.677 206.694L335.516 206.729V215.953L372.415 237.475L408.994 216.325L409.638 215.953L409.637 215.952V206.568L393.442 206.603L372.638 194.593L351.677 206.694Z"/>
</mask>
<path d="M351.677 206.694L335.516 206.729V215.953L372.415 237.475L408.994 216.325L409.638 215.953L409.637 215.952V206.568L393.442 206.603L372.638 194.593L351.677 206.694Z" fill="url(#paint4_linear_1427_1083)"/>
<path d="M351.677 206.694L351.777 206.867L351.731 206.893L351.678 206.894L351.677 206.694ZM335.516 206.729H335.316V206.529L335.516 206.529L335.516 206.729ZM335.516 215.953L335.415 216.126L335.316 216.068V215.953H335.516ZM372.415 237.475L372.515 237.648L372.414 237.706L372.314 237.648L372.415 237.475ZM408.994 216.325L408.894 216.152L408.894 216.152L408.994 216.325ZM409.638 215.953L409.78 215.812L409.964 215.996L409.738 216.127L409.638 215.953ZM409.637 215.952L409.496 216.094L409.437 216.035V215.952H409.637ZM409.637 206.568L409.637 206.368L409.837 206.367V206.568H409.637ZM393.442 206.603L393.442 206.803L393.389 206.803L393.342 206.776L393.442 206.603ZM372.638 194.593L372.538 194.42L372.638 194.362L372.738 194.42L372.638 194.593ZM351.677 206.694L351.678 206.894L335.517 206.929L335.516 206.729L335.516 206.529L351.677 206.494L351.677 206.694ZM335.516 206.729H335.716V215.953H335.516H335.316V206.729H335.516ZM335.516 215.953L335.617 215.781L372.515 237.302L372.415 237.475L372.314 237.648L335.415 216.126L335.516 215.953ZM372.415 237.475L372.314 237.302L408.894 216.152L408.994 216.325L409.094 216.499L372.515 237.648L372.415 237.475ZM408.994 216.325L408.894 216.152L409.538 215.78L409.638 215.953L409.738 216.127L409.094 216.499L408.994 216.325ZM409.638 215.953L409.497 216.095L409.496 216.094L409.637 215.952L409.779 215.811L409.78 215.812L409.638 215.953ZM409.637 215.952H409.437V206.568H409.637H409.837V215.952H409.637ZM409.637 206.568L409.638 206.768L393.442 206.803L393.442 206.603L393.441 206.403L409.637 206.368L409.637 206.568ZM393.442 206.603L393.342 206.776L372.538 194.766L372.638 194.593L372.738 194.42L393.542 206.43L393.442 206.603ZM372.638 194.593L372.738 194.766L351.777 206.867L351.677 206.694L351.577 206.52L372.538 194.42L372.638 194.593Z" fill="#0E3572" mask="url(#path-56-inside-11_1427_1083)"/>
<path d="M336.019 206.728L372.635 227.639L409.135 206.568L372.637 185.497L336.019 206.728Z" fill="white" stroke="#0E3572" stroke-width="0.579511"/>
<path d="M371.86 213.425C372.204 213.624 372.549 213.69 373.008 213.69L382.192 213.69C383.11 213.69 383.799 213.292 383.799 212.762L383.799 207.459C383.799 206.929 383.11 206.531 382.192 206.531C381.273 206.531 380.585 206.929 380.585 207.459L380.585 211.834H373.008C372.089 211.834 371.401 212.232 371.401 212.762C371.401 213.027 371.515 213.226 371.86 213.425ZM360.38 206.796C360.724 206.995 361.069 207.062 361.528 207.062C362.446 207.062 363.135 206.664 363.135 206.134L363.135 201.759L370.712 201.759C371.63 201.759 372.319 201.361 372.319 200.831C372.319 200.301 371.63 199.903 370.712 199.903L361.528 199.903C360.61 199.903 359.921 200.301 359.921 200.831L359.921 206.134C359.921 206.399 360.036 206.598 360.38 206.796ZM363.824 214.088L364.054 214.22C364.742 214.485 365.89 214.353 366.235 213.889L380.011 200.632C380.47 200.235 380.24 199.572 379.437 199.373C378.748 199.108 377.6 199.24 377.255 199.704L363.48 212.961C363.135 213.292 363.365 213.822 363.824 214.088Z" fill="#0E3572"/>
<defs>
<filter id="filter0_i_1427_1083" x="199.175" y="60.2212" width="205.909" height="114.158" filterUnits="userSpaceOnUse" color-interpolation-filters="sRGB">
<feFlood flood-opacity="0" result="BackgroundImageFix"/>
<feBlend mode="normal" in="SourceGraphic" in2="BackgroundImageFix" result="shape"/>
<feColorMatrix in="SourceAlpha" type="matrix" values="0 0 0 0 0 0 0 0 0 0 0 0 0 0 0 0 0 0 127 0" result="hardAlpha"/>
<feOffset/>
<feGaussianBlur stdDeviation="3.6"/>
<feComposite in2="hardAlpha" operator="arithmetic" k2="-1" k3="1"/>
<feColorMatrix type="matrix" values="0 0 0 0 0.054902 0 0 0 0 0.207843 0 0 0 0 0.447059 0 0 0 0.35 0"/>
<feBlend mode="normal" in2="shape" result="effect1_innerShadow_1427_1083"/>
</filter>
<linearGradient id="paint0_linear_1427_1083" x1="530.08" y1="145.724" x2="357.37" y2="145.724" gradientUnits="userSpaceOnUse">
<stop stop-color="#0E3572"/>
<stop offset="1" stop-color="#0E3572" stop-opacity="0"/>
</linearGradient>
<linearGradient id="paint1_linear_1427_1083" x1="56.2646" y1="120.727" x2="228.974" y2="120.727" gradientUnits="userSpaceOnUse">
<stop stop-color="#0E3572"/>
<stop offset="1" stop-color="#0E3572" stop-opacity="0"/>
</linearGradient>
<linearGradient id="paint2_linear_1427_1083" x1="169.714" y1="8.42235" x2="170.361" y2="46.4672" gradientUnits="userSpaceOnUse">
<stop stop-color="#2F86C7"/>
<stop offset="0.1407" stop-color="#2778BA"/>
<stop offset="0.3639" stop-color="#1A68AC"/>
<stop offset="0.5844" stop-color="#0C5DA3"/>
<stop offset="0.7987" stop-color="#02579D"/>
<stop offset="1" stop-color="#01549C"/>
</linearGradient>
<linearGradient id="paint3_linear_1427_1083" x1="193.511" y1="27.6747" x2="193.511" y2="46.8087" gradientUnits="userSpaceOnUse">
<stop stop-color="white"/>
<stop offset="1" stop-color="#3EAFD1"/>
</linearGradient>
<linearGradient id="paint4_linear_1427_1083" x1="372.577" y1="216.11" x2="372.577" y2="237.475" gradientUnits="userSpaceOnUse">
<stop stop-color="white"/>
<stop offset="1" stop-color="#3EAFD1"/>
</linearGradient>
</defs>
</svg>
