<svg width="872" height="578" viewBox="0 0 872 578" fill="none" xmlns="http://www.w3.org/2000/svg">
<g clip-path="url(#clip0_1883_1225)">
<g opacity="0.5">
<mask id="mask0_1883_1225" style="mask-type:alpha" maskUnits="userSpaceOnUse" x="-296" y="-183" width="1581" height="913">
<rect width="912.786" height="912.786" transform="matrix(0.866025 0.5 -0.866025 0.5 494.496 -183)" fill="url(#paint0_radial_1883_1225)"/>
</mask>
<g mask="url(#mask0_1883_1225)">
<path d="M476.24 -171.589L-276.506 263.009" stroke="#B3B3B3"/>
<path d="M509.177 -152.574L-243.569 282.024" stroke="#B3B3B3"/>
<path d="M542.114 -133.556L-210.632 301.042" stroke="#B3B3B3"/>
<path d="M575.051 -114.54L-177.695 320.058" stroke="#B3B3B3"/>
<path d="M607.988 -95.5239L-144.758 339.074" stroke="#B3B3B3"/>
<path d="M640.927 -76.5068L-111.819 358.091" stroke="#B3B3B3"/>
<path d="M673.862 -57.4902L-78.8836 377.108" stroke="#B3B3B3"/>
<path d="M706.799 -38.4756L-45.9466 396.122" stroke="#B3B3B3"/>
<path d="M739.741 -19.458L-13.0047 415.14" stroke="#B3B3B3"/>
<path d="M772.675 -0.441406L19.9294 434.157" stroke="#B3B3B3"/>
<path d="M805.612 18.5742L52.8664 453.172" stroke="#B3B3B3"/>
<path d="M838.549 37.5913L85.8034 472.189" stroke="#B3B3B3"/>
<path d="M871.488 56.6074L118.742 491.205" stroke="#B3B3B3"/>
<path d="M904.425 75.6226L151.679 510.221" stroke="#B3B3B3"/>
<path d="M937.365 94.6406L184.619 529.239" stroke="#B3B3B3"/>
<path d="M970.299 113.656L217.553 548.254" stroke="#B3B3B3"/>
<path d="M1003.24 132.671L250.493 567.269" stroke="#B3B3B3"/>
<path d="M1036.17 151.689L283.427 586.287" stroke="#B3B3B3"/>
<path d="M1069.11 170.706L316.366 605.304" stroke="#B3B3B3"/>
<path d="M1102.05 189.722L349.301 624.32" stroke="#B3B3B3"/>
<path d="M1134.99 208.739L382.241 643.337" stroke="#B3B3B3"/>
<path d="M1167.92 227.755L415.178 662.353" stroke="#B3B3B3"/>
<path d="M1200.86 246.771L448.117 681.369" stroke="#B3B3B3"/>
<path d="M1233.8 265.788L481.051 700.386" stroke="#B3B3B3"/>
<path d="M1266.74 284.804L513.99 719.402" stroke="#B3B3B3"/>
<path d="M476.24 -171.589L1266.74 284.804" stroke="#B3B3B3"/>
<path d="M444.874 -153.481L1235.37 302.912" stroke="#B3B3B3"/>
<path d="M413.511 -135.372L1204.01 321.021" stroke="#B3B3B3"/>
<path d="M382.146 -117.264L1172.64 339.129" stroke="#B3B3B3"/>
<path d="M350.781 -99.1558L1141.28 357.237" stroke="#B3B3B3"/>
<path d="M319.417 -81.0479L1109.91 375.345" stroke="#B3B3B3"/>
<path d="M288.054 -62.9385L1078.55 393.455" stroke="#B3B3B3"/>
<path d="M256.688 -44.8306L1047.18 411.562" stroke="#B3B3B3"/>
<path d="M225.324 -26.7231L1015.82 429.67" stroke="#B3B3B3"/>
<path d="M193.961 -8.61523L984.457 447.778" stroke="#B3B3B3"/>
<path d="M162.595 9.49463L953.091 465.888" stroke="#B3B3B3"/>
<path d="M131.23 27.6011L921.726 483.994" stroke="#B3B3B3"/>
<path d="M99.8677 45.7104L890.364 502.104" stroke="#B3B3B3"/>
<path d="M68.5015 63.8188L858.997 520.212" stroke="#B3B3B3"/>
<path d="M37.1377 81.9263L827.634 538.319" stroke="#B3B3B3"/>
<path d="M5.7749 100.035L796.271 556.428" stroke="#B3B3B3"/>
<path d="M-25.5625 118.133L764.933 574.526" stroke="#B3B3B3"/>
<path d="M-56.9263 136.239L733.57 592.632" stroke="#B3B3B3"/>
<path d="M-88.292 154.346L702.204 610.739" stroke="#B3B3B3"/>
<path d="M-119.655 172.456L670.841 628.849" stroke="#B3B3B3"/>
<path d="M-151.02 190.564L639.476 646.957" stroke="#B3B3B3"/>
<path d="M-182.383 208.671L608.113 665.064" stroke="#B3B3B3"/>
<path d="M-213.749 226.779L576.747 683.172" stroke="#B3B3B3"/>
<path d="M-245.113 244.889L545.383 701.282" stroke="#B3B3B3"/>
<path d="M-276.476 262.997L514.02 719.39" stroke="#B3B3B3"/>
</g>
</g>
<line x1="460.148" y1="362.744" x2="632.148" y2="461.744" stroke="white" stroke-width="0.591743" stroke-dasharray="1.18 1.18"/>
<line x1="170.148" y1="195.744" x2="342.148" y2="294.744" stroke="white" stroke-width="0.591743" stroke-dasharray="1.18 1.18"/>
<line x1="504.147" y1="315.743" x2="694.147" y2="424.743" stroke="white" stroke-width="0.591743" stroke-dasharray="1.18 1.18"/>
<line x1="449.851" y1="262.267" x2="617.851" y2="164.744" stroke="white" stroke-width="0.591743" stroke-dasharray="1.18 1.18"/>
<line x1="169.851" y1="425.267" x2="337.851" y2="327.744" stroke="white" stroke-width="0.591743" stroke-dasharray="1.18 1.18"/>
<line x1="517.851" y1="299.267" x2="685.851" y2="201.744" stroke="white" stroke-width="0.591743" stroke-dasharray="1.18 1.18"/>
<line x1="235.851" y1="462.267" x2="403.851" y2="364.744" stroke="white" stroke-width="0.591743" stroke-dasharray="1.18 1.18"/>
<line x1="225.148" y1="154.744" x2="404.148" y2="257.744" stroke="white" stroke-width="0.591743" stroke-dasharray="1.18 1.18"/>
<path d="M676.882 125.228L678.711 124.172L680.803 125.38C681.33 125.684 681.875 125.908 682.438 126.052C683.02 126.196 683.602 126.265 684.184 126.26C684.766 126.255 685.33 126.18 685.875 126.036C686.438 125.892 686.965 125.679 687.454 125.396C687.962 125.103 688.337 124.796 688.577 124.476C688.835 124.156 688.965 123.831 688.965 123.5C688.965 123.169 688.831 122.841 688.563 122.516C688.304 122.196 687.912 121.884 687.385 121.58L685.293 120.372L687.122 119.316L689.089 120.452C690.004 120.98 690.669 121.519 691.085 122.068C691.5 122.617 691.699 123.159 691.681 123.692C691.671 124.22 691.477 124.721 691.099 125.196C690.738 125.671 690.24 126.092 689.602 126.46L689.297 126.636C688.688 126.988 687.972 127.268 687.15 127.476C686.337 127.689 685.464 127.804 684.531 127.82C683.598 127.836 682.646 127.729 681.676 127.5C680.706 127.271 679.764 126.892 678.85 126.364L676.882 125.228ZM675.192 124.252L685.431 118.34L687.399 119.476L677.159 125.388L675.192 124.252ZM689.078 132.509C688.431 132.136 687.974 131.744 687.706 131.333C687.447 130.928 687.341 130.525 687.387 130.125C687.452 129.725 687.632 129.344 687.928 128.981C688.233 128.624 688.625 128.307 689.106 128.029L689.369 127.877C689.868 127.589 690.426 127.357 691.045 127.181C691.683 127.005 692.339 126.904 693.013 126.877C693.706 126.851 694.394 126.912 695.078 127.061C695.77 127.205 696.426 127.456 697.045 127.813C697.858 128.283 698.357 128.779 698.542 129.301C698.745 129.824 698.694 130.333 698.389 130.829C698.094 131.32 697.613 131.757 696.948 132.141L696.255 132.541L689.59 128.693L690.768 128.013L696.228 131.165L695.05 131.157C695.53 130.88 695.872 130.603 696.075 130.325C696.279 130.048 696.329 129.773 696.228 129.501C696.135 129.235 695.877 128.979 695.452 128.733C695.027 128.488 694.57 128.336 694.08 128.277C693.59 128.219 693.082 128.251 692.556 128.373C692.048 128.496 691.54 128.704 691.032 128.997C690.56 129.269 690.214 129.555 689.992 129.853C689.78 130.147 689.72 130.443 689.812 130.741C689.914 131.035 690.2 131.317 690.671 131.589C691.142 131.861 691.618 132.029 692.098 132.093C692.588 132.152 693.013 132.125 693.373 132.013L695.147 133.037C694.519 133.272 693.854 133.411 693.152 133.453C692.45 133.496 691.747 133.437 691.045 133.277C690.353 133.123 689.697 132.867 689.078 132.509ZM696.009 136.207L701.178 130.503L703.159 131.647L697.894 137.295L696.009 136.207ZM696.577 136.535L698.157 135.623L700.194 136.799L698.614 137.711L696.577 136.535ZM697.339 136.975L706.803 133.751L708.66 134.823L699.099 137.991L697.339 136.975ZM705.532 142.009C704.886 141.636 704.428 141.244 704.16 140.833C703.902 140.428 703.796 140.025 703.842 139.625C703.906 139.225 704.087 138.844 704.382 138.481C704.687 138.124 705.08 137.807 705.56 137.529L705.823 137.377C706.322 137.089 706.881 136.857 707.5 136.681C708.137 136.505 708.793 136.404 709.467 136.377C710.16 136.351 710.849 136.412 711.532 136.561C712.225 136.705 712.881 136.956 713.5 137.313C714.313 137.783 714.811 138.279 714.996 138.801C715.199 139.324 715.149 139.833 714.844 140.329C714.548 140.82 714.068 141.257 713.403 141.641L712.71 142.041L706.045 138.193L707.223 137.513L712.682 140.665L711.504 140.657C711.985 140.38 712.327 140.103 712.53 139.825C712.733 139.548 712.784 139.273 712.682 139.001C712.59 138.735 712.331 138.479 711.906 138.233C711.481 137.988 711.024 137.836 710.534 137.777C710.045 137.719 709.537 137.751 709.01 137.873C708.502 137.996 707.994 138.204 707.486 138.497C707.015 138.769 706.668 139.055 706.447 139.353C706.234 139.647 706.174 139.943 706.267 140.241C706.368 140.535 706.655 140.817 707.126 141.089C707.597 141.361 708.073 141.529 708.553 141.593C709.043 141.652 709.467 141.625 709.828 141.513L711.601 142.537C710.973 142.772 710.308 142.911 709.606 142.953C708.904 142.996 708.202 142.937 707.5 142.777C706.807 142.623 706.151 142.367 705.532 142.009ZM711.118 144.93L721.233 139.09L723.159 140.202L713.044 146.042L711.118 144.93ZM718.85 139.378L720.291 138.546L723.159 140.202L721.718 141.034L718.85 139.378ZM718.596 149.552C717.931 149.168 717.451 148.768 717.155 148.352C716.859 147.936 716.716 147.522 716.726 147.112C716.744 146.696 716.892 146.301 717.169 145.928C717.455 145.56 717.848 145.232 718.347 144.944L718.638 144.776C719.155 144.477 719.737 144.248 720.384 144.088C721.049 143.928 721.737 143.845 722.448 143.84C723.178 143.834 723.899 143.92 724.61 144.096C725.33 144.266 726.009 144.536 726.647 144.904C727.284 145.272 727.751 145.664 728.046 146.08C728.351 146.49 728.494 146.904 728.476 147.32C728.476 147.736 728.333 148.133 728.046 148.512C727.769 148.885 727.372 149.221 726.855 149.52L726.564 149.688C726.065 149.976 725.492 150.2 724.845 150.36C724.208 150.525 723.529 150.613 722.809 150.624C722.097 150.629 721.381 150.546 720.661 150.376C719.94 150.205 719.252 149.93 718.596 149.552ZM720.245 148.6C720.716 148.872 721.215 149.042 721.742 149.112C722.277 149.176 722.804 149.154 723.321 149.048C723.848 148.936 724.337 148.749 724.79 148.488C725.252 148.221 725.571 147.936 725.746 147.632C725.94 147.328 725.972 147.021 725.843 146.712C725.732 146.402 725.45 146.117 724.998 145.856C724.545 145.594 724.046 145.429 723.501 145.36C722.975 145.29 722.444 145.309 721.908 145.416C721.381 145.517 720.887 145.701 720.425 145.968C719.973 146.229 719.649 146.512 719.455 146.816C719.28 147.12 719.247 147.426 719.358 147.736C719.478 148.04 719.774 148.328 720.245 148.6ZM721.876 154.341L732.171 148.397L733.696 149.277L730.453 151.149L730.232 151.005C731.035 150.584 731.834 150.304 732.629 150.165C733.432 150.032 734.194 150.029 734.915 150.157C735.645 150.28 736.301 150.509 736.883 150.845C737.418 151.155 737.802 151.488 738.033 151.845C738.273 152.208 738.37 152.579 738.324 152.957C738.287 153.341 738.116 153.717 737.811 154.085C737.515 154.448 737.1 154.784 736.564 155.093L736.273 155.261C735.728 155.576 735.137 155.821 734.499 155.997C733.88 156.173 733.234 156.275 732.559 156.301C731.904 156.328 731.257 156.275 730.62 156.141C729.991 156.003 729.409 155.779 728.874 155.469C728.31 155.144 727.908 154.779 727.668 154.373C727.446 153.968 727.437 153.541 727.64 153.093C727.853 152.64 728.333 152.176 729.081 151.701L728.763 152.589L723.802 155.453L721.876 154.341ZM730.01 154.253C730.426 154.493 730.887 154.643 731.395 154.701C731.913 154.765 732.439 154.744 732.975 154.637C733.52 154.525 734.024 154.336 734.485 154.069C734.966 153.792 735.294 153.501 735.469 153.197C735.645 152.893 735.672 152.595 735.552 152.301C735.451 152.008 735.192 151.741 734.776 151.501C734.398 151.283 733.964 151.128 733.474 151.037C732.994 150.952 732.49 150.944 731.964 151.013C731.446 151.088 730.961 151.256 730.509 151.517L729.954 151.837C729.52 152.088 729.252 152.36 729.151 152.653C729.049 152.947 729.077 153.235 729.234 153.517C729.391 153.8 729.65 154.045 730.01 154.253ZM737.44 160.431C736.793 160.058 736.336 159.666 736.068 159.255C735.809 158.85 735.703 158.447 735.749 158.047C735.814 157.647 735.994 157.266 736.29 156.903C736.595 156.546 736.987 156.228 737.468 155.951L737.731 155.799C738.23 155.511 738.789 155.279 739.408 155.103C740.045 154.927 740.701 154.826 741.375 154.799C742.068 154.772 742.756 154.834 743.44 154.983C744.133 155.127 744.788 155.378 745.407 155.735C746.22 156.204 746.719 156.7 746.904 157.223C747.107 157.746 747.056 158.255 746.751 158.751C746.456 159.242 745.975 159.679 745.31 160.063L744.618 160.463L737.953 156.615L739.13 155.935L744.59 159.087L743.412 159.079C743.892 158.802 744.234 158.524 744.437 158.247C744.641 157.97 744.691 157.695 744.59 157.423C744.497 157.156 744.239 156.9 743.814 156.655C743.389 156.41 742.932 156.258 742.442 156.199C741.952 156.14 741.444 156.172 740.918 156.295C740.41 156.418 739.902 156.626 739.394 156.919C738.923 157.191 738.576 157.476 738.354 157.775C738.142 158.068 738.082 158.364 738.174 158.663C738.276 158.956 738.562 159.239 739.033 159.511C739.504 159.783 739.98 159.951 740.461 160.015C740.95 160.074 741.375 160.047 741.735 159.935L743.509 160.959C742.881 161.194 742.216 161.332 741.514 161.375C740.812 161.418 740.11 161.359 739.408 161.199C738.715 161.044 738.059 160.788 737.44 160.431ZM742.929 163.296L750.453 158.952L751.977 159.832L748.79 161.672L748.748 161.648C749.829 161.024 750.878 160.685 751.894 160.632C752.91 160.579 753.866 160.811 754.762 161.328L755.039 161.488L753.363 162.456L752.836 162.152C752.189 161.779 751.51 161.589 750.799 161.584C750.106 161.579 749.432 161.765 748.776 162.144L744.855 164.408L742.929 163.296Z" fill="#FFFAFA"/>
<line x1="556.148" y1="164.046" x2="688.5" y2="240.179" stroke="white" stroke-width="0.591743" stroke-dasharray="1.18 1.18"/>
<line x1="617.75" y1="127.744" x2="748.12" y2="203.746" stroke="#0E3572" stroke-width="0.591743" stroke-dasharray="1.18 1.18"/>
<mask id="path-65-inside-1_1883_1225" fill="white">
<path d="M690.312 168.433L718.39 168.494V184.133L654.277 220.626L590.226 184.485L589.602 184.133L589.603 184.132V168.219L617.742 168.279L653.891 147.915L690.312 168.433Z"/>
</mask>
<path d="M690.312 168.433L718.39 168.494V184.133L654.277 220.626L590.226 184.485L589.602 184.133L589.603 184.132V168.219L617.742 168.279L653.891 147.915L690.312 168.433Z" fill="white"/>
<path d="M690.312 168.433L690.022 168.949L690.157 169.025L690.311 169.025L690.312 168.433ZM718.39 168.494H718.981V167.903L718.391 167.902L718.39 168.494ZM718.39 184.133L718.682 184.648L718.981 184.477V184.133H718.39ZM654.277 220.626L653.987 221.142L654.279 221.307L654.57 221.141L654.277 220.626ZM590.226 184.485L590.516 183.97L590.516 183.969L590.226 184.485ZM589.602 184.133L589.183 183.715L588.632 184.266L589.311 184.649L589.602 184.133ZM589.603 184.132L590.021 184.551L590.194 184.377V184.132H589.603ZM589.603 168.219L589.604 167.627L589.011 167.626V168.219H589.603ZM617.742 168.279L617.741 168.871L617.897 168.871L618.033 168.794L617.742 168.279ZM653.891 147.915L654.181 147.399L653.891 147.235L653.6 147.399L653.891 147.915ZM690.312 168.433L690.311 169.025L718.388 169.085L718.39 168.494L718.391 167.902L690.314 167.841L690.312 168.433ZM718.39 168.494H717.798V184.133H718.39H718.981V168.494H718.39ZM718.39 184.133L718.097 183.619L653.985 220.112L654.277 220.626L654.57 221.141L718.682 184.648L718.39 184.133ZM654.277 220.626L654.568 220.111L590.516 183.97L590.226 184.485L589.935 185L653.987 221.142L654.277 220.626ZM590.226 184.485L590.516 183.969L589.892 183.618L589.602 184.133L589.311 184.649L589.935 185L590.226 184.485ZM589.602 184.133L590.02 184.552L590.021 184.551L589.603 184.132L589.184 183.714L589.183 183.715L589.602 184.133ZM589.603 184.132H590.194V168.219H589.603H589.011V184.132H589.603ZM589.603 168.219L589.601 168.811L617.741 168.871L617.742 168.279L617.743 167.687L589.604 167.627L589.603 168.219ZM617.742 168.279L618.033 168.794L654.181 148.43L653.891 147.915L653.6 147.399L617.452 167.763L617.742 168.279ZM653.891 147.915L653.6 148.43L690.022 168.949L690.312 168.433L690.603 167.918L654.181 147.399L653.891 147.915Z" fill="#0E3572" mask="url(#path-65-inside-1_1883_1225)"/>
<path d="M717.79 168.492L653.892 204.102L590.198 168.219L653.891 132.336L717.79 168.492Z" fill="#FEE9EA"/>
<path d="M717.79 168.492L653.892 204.102L590.198 168.219L653.891 132.336L717.79 168.492Z" stroke="white" stroke-opacity="0.2" stroke-width="0.685843"/>
<path d="M717.79 168.492L653.892 204.102L590.198 168.219L653.891 132.336L717.79 168.492Z" stroke="#0E3572" stroke-width="0.685843"/>
<g clip-path="url(#clip1_1883_1225)">
<path d="M653.764 161.617L642.014 161.617L642.014 167.742" stroke="#ED1C24" stroke-miterlimit="10" stroke-linecap="round" stroke-linejoin="round"/>
<path d="M653.518 174.383L665.268 174.383L665.268 168.258" stroke="#ED1C24" stroke-miterlimit="10" stroke-linecap="round" stroke-linejoin="round"/>
<path d="M643.342 170.827L663.904 165.152" stroke="#ED1C24" stroke-miterlimit="10" stroke-linecap="round" stroke-linejoin="round"/>
<path d="M652.88 154.1C650.733 152.861 647.252 152.861 645.105 154.1L629.566 163.072C627.418 164.311 627.418 166.321 629.566 167.561L654.401 181.9C656.548 183.14 660.03 183.139 662.177 181.9L677.716 172.928C679.863 171.689 679.863 169.679 677.716 168.439L652.88 154.1Z" stroke="#ED1C24" stroke-miterlimit="10" stroke-linecap="round" stroke-linejoin="round"/>
</g>
<path d="M104.548 164.118L97.8826 156.286L101.097 154.43L114.76 158.222L112.737 159.39L100.959 156.062L101.97 155.83L100.238 156.83L100.654 156.238L106.515 162.982L104.548 164.118ZM104.27 161.174L103.231 159.854L107.333 157.486L109.605 158.094L104.27 161.174ZM116.29 157.338L106.175 151.498L108.142 150.362L118.258 156.202L116.29 157.338ZM125.518 152.074L123.689 151.018L125.781 149.81C126.308 149.506 126.696 149.192 126.945 148.866C127.195 148.53 127.315 148.194 127.306 147.858C127.296 147.522 127.167 147.197 126.918 146.882C126.668 146.557 126.299 146.253 125.809 145.97C125.301 145.677 124.77 145.461 124.216 145.322C123.661 145.173 123.098 145.098 122.525 145.098C121.953 145.098 121.384 145.176 120.821 145.33C120.267 145.48 119.726 145.706 119.2 146.01L117.107 147.218L115.278 146.162L117.246 145.026C118.16 144.498 119.093 144.114 120.045 143.874C120.996 143.634 121.934 143.52 122.858 143.53C123.772 143.536 124.641 143.648 125.463 143.866C126.285 144.074 127.015 144.362 127.652 144.73L127.957 144.906C128.567 145.258 129.052 145.672 129.412 146.146C129.781 146.616 129.98 147.12 130.008 147.658C130.035 148.197 129.851 148.746 129.453 149.306C129.056 149.866 128.4 150.41 127.486 150.938L125.518 152.074ZM123.828 153.05L113.588 147.138L115.555 146.002L125.795 151.914L123.828 153.05ZM138.13 145.033C137.483 145.406 136.804 145.67 136.093 145.825C135.391 145.974 134.693 146.036 134.001 146.009C133.308 145.972 132.647 145.868 132.019 145.697C131.4 145.521 130.85 145.294 130.37 145.017L130.107 144.865C129.608 144.577 129.206 144.254 128.901 143.897C128.597 143.529 128.421 143.15 128.375 142.761C128.329 142.361 128.435 141.964 128.694 141.569C128.943 141.169 129.377 140.79 129.996 140.433C130.809 139.964 131.668 139.676 132.573 139.569C133.479 139.452 134.361 139.481 135.22 139.657C136.07 139.828 136.827 140.105 137.492 140.489L138.185 140.889L131.52 144.737L130.342 144.057L135.802 140.905L135.788 141.585C135.308 141.308 134.827 141.11 134.347 140.993C133.867 140.876 133.391 140.846 132.92 140.905C132.458 140.958 132.014 141.108 131.589 141.353C131.165 141.598 130.901 141.862 130.8 142.145C130.698 142.428 130.753 142.721 130.966 143.025C131.178 143.318 131.539 143.612 132.047 143.905C132.518 144.177 133.012 144.377 133.529 144.505C134.037 144.628 134.55 144.662 135.067 144.609C135.576 144.55 136.065 144.385 136.536 144.113C137.007 143.841 137.298 143.566 137.409 143.289C137.511 143.006 137.465 142.761 137.271 142.553L139.044 141.529C139.451 141.892 139.691 142.276 139.765 142.681C139.839 143.086 139.737 143.492 139.46 143.897C139.192 144.297 138.749 144.676 138.13 145.033ZM144.535 141.031L134.655 138.047L136.636 136.903L146.419 139.943L144.535 141.031ZM145.103 140.703L143.523 139.791L145.56 138.615L147.14 139.527L145.103 140.703ZM145.865 140.263L140.281 134.799L142.137 133.727L147.625 139.247L145.865 140.263ZM154.584 135.533C153.938 135.906 153.259 136.17 152.547 136.325C151.845 136.474 151.148 136.536 150.455 136.509C149.762 136.472 149.102 136.368 148.474 136.197C147.855 136.021 147.305 135.794 146.825 135.517L146.561 135.365C146.063 135.077 145.661 134.754 145.356 134.397C145.051 134.029 144.875 133.65 144.829 133.261C144.783 132.861 144.889 132.464 145.148 132.069C145.397 131.669 145.832 131.29 146.45 130.933C147.263 130.464 148.123 130.176 149.028 130.069C149.933 129.952 150.815 129.981 151.674 130.157C152.524 130.328 153.282 130.605 153.947 130.989L154.64 131.389L147.975 135.237L146.797 134.557L152.256 131.405L152.242 132.085C151.762 131.808 151.282 131.61 150.801 131.493C150.321 131.376 149.845 131.346 149.374 131.405C148.912 131.458 148.469 131.608 148.044 131.853C147.619 132.098 147.356 132.362 147.254 132.645C147.153 132.928 147.208 133.221 147.42 133.525C147.633 133.818 147.993 134.112 148.501 134.405C148.972 134.677 149.467 134.877 149.984 135.005C150.492 135.128 151.005 135.162 151.522 135.109C152.03 135.05 152.52 134.885 152.991 134.613C153.462 134.341 153.753 134.066 153.864 133.789C153.965 133.506 153.919 133.261 153.725 133.053L155.499 132.029C155.905 132.392 156.145 132.776 156.219 133.181C156.293 133.586 156.192 133.992 155.914 134.397C155.647 134.797 155.203 135.176 154.584 135.533ZM159.643 132.308L149.528 126.468L151.454 125.356L161.569 131.196L159.643 132.308ZM150.027 127.844L148.586 127.012L151.454 125.356L152.895 126.188L150.027 127.844ZM167.648 127.991C166.983 128.375 166.29 128.652 165.57 128.823C164.849 128.993 164.133 129.076 163.422 129.071C162.701 129.06 162.018 128.975 161.371 128.815C160.734 128.649 160.166 128.423 159.667 128.135L159.376 127.967C158.859 127.668 158.461 127.332 158.184 126.959C157.907 126.575 157.764 126.177 157.755 125.767C157.745 125.345 157.893 124.929 158.198 124.519C158.494 124.103 158.96 123.711 159.598 123.343C160.235 122.975 160.914 122.705 161.634 122.535C162.346 122.359 163.062 122.276 163.782 122.287C164.503 122.287 165.191 122.369 165.847 122.535C166.493 122.695 167.075 122.924 167.593 123.223L167.884 123.391C168.382 123.679 168.77 124.009 169.048 124.383C169.334 124.751 169.486 125.143 169.505 125.559C169.514 125.969 169.371 126.383 169.075 126.799C168.78 127.215 168.304 127.612 167.648 127.991ZM165.999 127.039C166.47 126.767 166.766 126.479 166.886 126.175C166.997 125.865 166.96 125.561 166.775 125.263C166.581 124.959 166.258 124.676 165.805 124.415C165.343 124.148 164.849 123.964 164.323 123.863C163.796 123.751 163.265 123.732 162.729 123.807C162.193 123.871 161.699 124.033 161.246 124.295C160.794 124.556 160.507 124.844 160.387 125.159C160.267 125.463 160.3 125.769 160.484 126.079C160.66 126.383 160.979 126.668 161.44 126.935C161.893 127.196 162.383 127.383 162.909 127.495C163.436 127.596 163.967 127.615 164.503 127.551C165.029 127.481 165.528 127.311 165.999 127.039ZM175.944 126.097L165.649 120.153L167.173 119.273L170.415 121.145L170.166 121.273C169.436 120.809 168.951 120.348 168.711 119.889C168.48 119.425 168.475 118.985 168.697 118.569C168.91 118.148 169.307 117.769 169.889 117.433C170.425 117.124 171.002 116.902 171.621 116.769C172.249 116.63 172.891 116.574 173.547 116.601C174.212 116.622 174.863 116.721 175.501 116.897C176.129 117.068 176.711 117.308 177.247 117.617L177.538 117.785C178.083 118.1 178.508 118.441 178.812 118.809C179.117 119.166 179.293 119.54 179.339 119.929C179.385 120.308 179.293 120.681 179.062 121.049C178.822 121.412 178.434 121.748 177.898 122.057C177.334 122.382 176.702 122.614 175.999 122.753C175.297 122.881 174.558 122.886 173.782 122.769C172.997 122.646 172.194 122.369 171.371 121.937L172.91 122.121L177.87 124.985L175.944 126.097ZM175.792 121.401C176.207 121.161 176.466 120.894 176.568 120.601C176.678 120.302 176.642 119.998 176.457 119.689C176.263 119.374 175.935 119.084 175.473 118.817C174.993 118.54 174.489 118.35 173.963 118.249C173.436 118.148 172.919 118.132 172.411 118.201C171.903 118.26 171.441 118.409 171.025 118.649C170.646 118.868 170.378 119.118 170.221 119.401C170.074 119.678 170.06 119.969 170.18 120.273C170.309 120.572 170.6 120.852 171.053 121.113L171.607 121.433C172.041 121.684 172.512 121.838 173.02 121.897C173.528 121.956 174.027 121.94 174.517 121.849C175.006 121.758 175.431 121.609 175.792 121.401ZM186.492 117.111C185.845 117.484 185.166 117.748 184.455 117.903C183.753 118.052 183.055 118.114 182.363 118.087C181.67 118.05 181.009 117.946 180.381 117.775C179.762 117.599 179.213 117.372 178.732 117.095L178.469 116.943C177.97 116.655 177.568 116.332 177.263 115.975C176.959 115.607 176.783 115.228 176.737 114.839C176.691 114.439 176.797 114.042 177.056 113.647C177.305 113.247 177.739 112.868 178.358 112.511C179.171 112.042 180.03 111.754 180.935 111.647C181.841 111.53 182.723 111.559 183.582 111.735C184.432 111.906 185.189 112.183 185.854 112.567L186.547 112.967L179.882 116.815L178.705 116.135L184.164 112.983L184.15 113.663C183.67 113.386 183.189 113.188 182.709 113.071C182.229 112.954 181.753 112.924 181.282 112.983C180.82 113.036 180.377 113.186 179.952 113.431C179.527 113.676 179.263 113.94 179.162 114.223C179.06 114.506 179.116 114.799 179.328 115.103C179.541 115.396 179.901 115.69 180.409 115.983C180.88 116.255 181.374 116.455 181.892 116.583C182.4 116.706 182.912 116.74 183.43 116.687C183.938 116.628 184.427 116.463 184.898 116.191C185.369 115.919 185.66 115.644 185.771 115.367C185.873 115.084 185.827 114.839 185.633 114.631L187.406 113.607C187.813 113.97 188.053 114.354 188.127 114.759C188.201 115.164 188.099 115.57 187.822 115.975C187.554 116.375 187.111 116.754 186.492 117.111ZM191.454 113.942L183.93 109.598L185.454 108.718L188.641 110.558L188.6 110.582C187.519 109.958 186.932 109.353 186.84 108.766C186.747 108.18 187.149 107.628 188.045 107.11L188.322 106.95L189.999 107.918L189.473 108.222C188.826 108.596 188.498 108.988 188.489 109.398C188.48 109.798 188.803 110.188 189.459 110.566L193.38 112.83L191.454 113.942Z" fill="#FFFAFA"/>
<line x1="105.853" y1="194.675" x2="231.892" y2="122.743" stroke="white" stroke-width="0.591743" stroke-dasharray="1.18 1.18"/>
<line x1="170.852" y1="232.744" x2="295.985" y2="160.744" stroke="white" stroke-width="0.591743" stroke-dasharray="1.18 1.18"/>
<mask id="path-75-inside-2_1883_1225" fill="white">
<path d="M239.146 162.433L267.223 162.494V178.133L203.111 214.626L139.059 178.485L138.435 178.133L138.436 178.132V162.219L166.576 162.279L202.724 141.915L239.146 162.433Z"/>
</mask>
<path d="M239.146 162.433L267.223 162.494V178.133L203.111 214.626L139.059 178.485L138.435 178.133L138.436 178.132V162.219L166.576 162.279L202.724 141.915L239.146 162.433Z" fill="url(#paint1_linear_1883_1225)"/>
<path d="M239.146 162.433L267.223 162.494V178.133L203.111 214.626L139.059 178.485L138.435 178.133L138.436 178.132V162.219L166.576 162.279L202.724 141.915L239.146 162.433Z" fill="white"/>
<path d="M239.146 162.433L238.856 162.949L238.99 163.025L239.145 163.025L239.146 162.433ZM267.223 162.494H267.815V161.903L267.224 161.902L267.223 162.494ZM267.223 178.133L267.516 178.648L267.815 178.477V178.133H267.223ZM203.111 214.626L202.82 215.142L203.112 215.307L203.404 215.141L203.111 214.626ZM139.059 178.485L139.35 177.97L139.35 177.969L139.059 178.485ZM138.435 178.133L138.017 177.715L137.465 178.266L138.145 178.649L138.435 178.133ZM138.436 178.132L138.854 178.551L139.028 178.377V178.132H138.436ZM138.436 162.219L138.437 161.627L137.844 161.626V162.219H138.436ZM166.576 162.279L166.574 162.871L166.73 162.871L166.866 162.794L166.576 162.279ZM202.724 141.915L203.015 141.399L202.724 141.235L202.434 141.399L202.724 141.915ZM239.146 162.433L239.145 163.025L267.222 163.085L267.223 162.494L267.224 161.902L239.147 161.841L239.146 162.433ZM267.223 162.494H266.631V178.133H267.223H267.815V162.494H267.223ZM267.223 178.133L266.93 177.619L202.818 214.112L203.111 214.626L203.404 215.141L267.516 178.648L267.223 178.133ZM203.111 214.626L203.402 214.111L139.35 177.97L139.059 178.485L138.768 179L202.82 215.142L203.111 214.626ZM139.059 178.485L139.35 177.969L138.726 177.618L138.435 178.133L138.145 178.649L138.769 179L139.059 178.485ZM138.435 178.133L138.853 178.552L138.854 178.551L138.436 178.132L138.018 177.714L138.017 177.715L138.435 178.133ZM138.436 178.132H139.028V162.219H138.436H137.844V178.132H138.436ZM138.436 162.219L138.435 162.811L166.574 162.871L166.576 162.279L166.577 161.687L138.437 161.627L138.436 162.219ZM166.576 162.279L166.866 162.794L203.015 142.43L202.724 141.915L202.434 141.399L166.285 161.763L166.576 162.279ZM202.724 141.915L202.434 142.43L238.856 162.949L239.146 162.433L239.436 161.918L203.015 141.399L202.724 141.915Z" fill="#0E3572" mask="url(#path-75-inside-2_1883_1225)"/>
<path d="M266.623 162.492L202.726 198.102L139.032 162.219L202.724 126.336L266.623 162.492Z" fill="#FEE9EA"/>
<path d="M266.623 162.492L202.726 198.102L139.032 162.219L202.724 126.336L266.623 162.492Z" stroke="white" stroke-opacity="0.2" stroke-width="0.685843"/>
<path d="M266.623 162.492L202.726 198.102L139.032 162.219L202.724 126.336L266.623 162.492Z" stroke="#0E3572" stroke-width="0.685843"/>
<g clip-path="url(#clip2_1883_1225)">
<path d="M202.647 161.003L192.622 162.558L195.297 156.806L205.322 155.252L202.647 161.003Z" stroke="#ED1C24" stroke-miterlimit="10" stroke-linecap="round" stroke-linejoin="round"/>
<path d="M209.945 165.217L199.921 166.771L192.622 162.557L202.647 161.003M209.945 165.217L202.647 161.003M209.945 165.217L212.619 159.465L205.321 155.252L202.647 161.003" stroke="#ED1C24" stroke-miterlimit="10" stroke-linecap="round" stroke-linejoin="round"/>
<path d="M218.946 151.586C220.067 152.233 220.066 153.283 218.944 153.931C217.821 154.579 216.003 154.58 214.882 153.933C213.761 153.285 213.762 152.235 214.884 151.587C216.007 150.939 217.825 150.939 218.946 151.586Z" stroke="#ED1C24" stroke-miterlimit="10" stroke-linecap="round" stroke-linejoin="round"/>
<path d="M229.095 157.445C230.216 158.093 230.215 159.143 229.092 159.791C227.97 160.439 226.151 160.439 225.03 159.792C223.909 159.145 223.91 158.095 225.033 157.447C226.155 156.799 227.974 156.798 229.095 157.445Z" stroke="#ED1C24" stroke-miterlimit="10" stroke-linecap="round" stroke-linejoin="round"/>
<path d="M208.797 145.727C209.918 146.374 209.917 147.424 208.795 148.072C207.673 148.72 205.854 148.72 204.733 148.073C203.612 147.426 203.613 146.376 204.735 145.728C205.858 145.08 207.676 145.079 208.797 145.727Z" stroke="#ED1C24" stroke-miterlimit="10" stroke-linecap="round" stroke-linejoin="round"/>
<path d="M214.882 153.933L208.959 157.352" stroke="#ED1C24" stroke-miterlimit="10" stroke-linecap="round" stroke-linejoin="round"/>
<path d="M204.733 148.073L199.487 151.102L199.482 156.125" stroke="#ED1C24" stroke-miterlimit="10" stroke-linecap="round" stroke-linejoin="round"/>
<path d="M225.03 159.792L219.784 162.821L211.085 162.824" stroke="#ED1C24" stroke-miterlimit="10" stroke-linecap="round" stroke-linejoin="round"/>
<path d="M186.335 170.414C187.456 171.061 189.275 171.061 190.397 170.413C191.519 169.765 191.52 168.715 190.399 168.067C189.278 167.42 187.46 167.421 186.338 168.069C185.215 168.717 185.214 169.767 186.335 170.414Z" stroke="#ED1C24" stroke-miterlimit="10" stroke-linecap="round" stroke-linejoin="round"/>
<path d="M196.484 176.273C197.605 176.921 199.424 176.92 200.546 176.272C201.668 175.624 201.669 174.574 200.548 173.927C199.427 173.28 197.609 173.28 196.486 173.928C195.364 174.576 195.363 175.626 196.484 176.273Z" stroke="#ED1C24" stroke-miterlimit="10" stroke-linecap="round" stroke-linejoin="round"/>
<path d="M176.187 164.555C177.308 165.202 179.126 165.201 180.249 164.553C181.371 163.905 181.372 162.855 180.251 162.208C179.13 161.561 177.311 161.562 176.189 162.21C175.067 162.858 175.066 163.908 176.187 164.555Z" stroke="#ED1C24" stroke-miterlimit="10" stroke-linecap="round" stroke-linejoin="round"/>
<path d="M190.399 168.067L196.322 164.648" stroke="#ED1C24" stroke-miterlimit="10" stroke-linecap="round" stroke-linejoin="round"/>
<path d="M180.251 162.208L185.497 159.179L194.196 159.176" stroke="#ED1C24" stroke-miterlimit="10" stroke-linecap="round" stroke-linejoin="round"/>
<path d="M200.548 173.927L205.794 170.898L205.8 165.875" stroke="#ED1C24" stroke-miterlimit="10" stroke-linecap="round" stroke-linejoin="round"/>
</g>
<path d="M127.536 455.337L129.365 454.281L131.457 455.489C131.984 455.793 132.529 456.017 133.092 456.161C133.674 456.305 134.256 456.375 134.838 456.369C135.42 456.364 135.984 456.289 136.529 456.145C137.092 456.001 137.619 455.788 138.108 455.505C138.616 455.212 138.99 454.905 139.231 454.585C139.489 454.265 139.619 453.94 139.619 453.609C139.619 453.279 139.485 452.951 139.217 452.625C138.958 452.305 138.565 451.993 138.039 451.689L135.947 450.481L137.776 449.425L139.743 450.561C140.658 451.089 141.323 451.628 141.739 452.177C142.154 452.727 142.353 453.268 142.334 453.801C142.325 454.329 142.131 454.831 141.752 455.305C141.392 455.78 140.893 456.201 140.256 456.569L139.951 456.745C139.341 457.097 138.626 457.377 137.803 457.585C136.99 457.799 136.118 457.913 135.185 457.929C134.252 457.945 133.3 457.839 132.33 457.609C131.36 457.38 130.418 457.001 129.503 456.473L127.536 455.337ZM125.845 454.361L136.085 448.449L138.053 449.585L127.813 455.497L125.845 454.361ZM139.732 462.619C139.085 462.245 138.628 461.853 138.36 461.443C138.101 461.037 137.995 460.635 138.041 460.235C138.106 459.835 138.286 459.453 138.582 459.091C138.886 458.733 139.279 458.416 139.759 458.139L140.023 457.987C140.521 457.699 141.08 457.467 141.699 457.291C142.337 457.115 142.992 457.013 143.667 456.987C144.36 456.96 145.048 457.021 145.731 457.171C146.424 457.315 147.08 457.565 147.699 457.923C148.512 458.392 149.011 458.888 149.196 459.411C149.399 459.933 149.348 460.443 149.043 460.939C148.747 461.429 148.267 461.867 147.602 462.251L146.909 462.651L140.244 458.803L141.422 458.123L146.881 461.275L145.704 461.267C146.184 460.989 146.526 460.712 146.729 460.435C146.932 460.157 146.983 459.883 146.881 459.611C146.789 459.344 146.53 459.088 146.106 458.843C145.681 458.597 145.223 458.445 144.734 458.387C144.244 458.328 143.736 458.36 143.21 458.483C142.701 458.605 142.193 458.813 141.685 459.107C141.214 459.379 140.868 459.664 140.646 459.963C140.434 460.256 140.374 460.552 140.466 460.851C140.568 461.144 140.854 461.427 141.325 461.699C141.796 461.971 142.272 462.139 142.752 462.203C143.242 462.261 143.667 462.235 144.027 462.123L145.801 463.147C145.173 463.381 144.507 463.52 143.805 463.563C143.103 463.605 142.401 463.547 141.699 463.387C141.006 463.232 140.351 462.976 139.732 462.619ZM146.663 466.317L151.831 460.612L153.813 461.756L148.548 467.405L146.663 466.317ZM147.231 466.645L148.811 465.733L150.848 466.909L149.268 467.821L147.231 466.645ZM147.993 467.085L157.457 463.86L159.314 464.932L149.753 468.101L147.993 467.085ZM157.887 473.1C156.972 472.572 156.339 472.02 155.988 471.444C155.646 470.874 155.512 470.311 155.586 469.756C155.679 469.202 155.914 468.687 156.293 468.212C156.69 467.738 157.171 467.338 157.734 467.012L158.039 466.836C158.658 466.479 159.383 466.188 160.214 465.964C161.055 465.735 161.946 465.604 162.889 465.572C163.84 465.546 164.796 465.639 165.757 465.852C166.727 466.06 167.66 466.423 168.556 466.94C169.443 467.452 170.066 467.988 170.427 468.548C170.796 469.103 170.953 469.652 170.898 470.196C170.851 470.746 170.63 471.263 170.233 471.748C169.845 472.228 169.341 472.647 168.722 473.004L168.417 473.18C167.854 473.506 167.156 473.78 166.325 474.004C165.512 474.228 164.621 474.364 163.651 474.412C162.699 474.46 161.725 474.383 160.727 474.18C159.739 473.983 158.792 473.623 157.887 473.1ZM159.716 472.044C160.233 472.343 160.787 472.556 161.378 472.684C161.979 472.818 162.584 472.874 163.194 472.852C163.822 472.831 164.417 472.743 164.981 472.588C165.563 472.434 166.09 472.22 166.561 471.948C167.069 471.655 167.457 471.34 167.725 471.004C168.002 470.674 168.149 470.332 168.168 469.98C168.196 469.634 168.089 469.29 167.849 468.948C167.609 468.607 167.235 468.29 166.727 467.996C166.21 467.698 165.655 467.479 165.064 467.34C164.473 467.202 163.872 467.138 163.263 467.148C162.662 467.164 162.071 467.25 161.489 467.404C160.916 467.564 160.376 467.791 159.868 468.084C159.397 468.356 159.023 468.658 158.746 468.988C158.487 469.319 158.335 469.663 158.288 470.02C158.261 470.378 158.362 470.73 158.593 471.076C158.824 471.423 159.198 471.746 159.716 472.044ZM162.462 478.638L172.758 472.694L174.282 473.574L171.039 475.446L170.818 475.302C171.621 474.881 172.421 474.601 173.215 474.462C174.019 474.329 174.781 474.326 175.501 474.454C176.231 474.577 176.887 474.806 177.469 475.142C178.005 475.452 178.388 475.785 178.619 476.142C178.859 476.505 178.956 476.876 178.91 477.254C178.873 477.638 178.702 478.014 178.397 478.382C178.102 478.745 177.686 479.081 177.15 479.39L176.859 479.558C176.314 479.873 175.723 480.118 175.086 480.294C174.467 480.47 173.82 480.572 173.146 480.598C172.49 480.625 171.843 480.572 171.206 480.438C170.578 480.3 169.996 480.076 169.46 479.766C168.896 479.441 168.495 479.076 168.254 478.67C168.033 478.265 168.023 477.838 168.227 477.39C168.439 476.937 168.919 476.473 169.668 475.998L169.349 476.886L164.388 479.75L162.462 478.638ZM170.596 478.55C171.012 478.79 171.474 478.94 171.982 478.998C172.499 479.062 173.026 479.041 173.561 478.934C174.106 478.822 174.61 478.633 175.072 478.366C175.552 478.089 175.88 477.798 176.056 477.494C176.231 477.19 176.259 476.892 176.139 476.598C176.037 476.305 175.778 476.038 175.363 475.798C174.984 475.58 174.55 475.425 174.06 475.334C173.58 475.249 173.076 475.241 172.55 475.31C172.033 475.385 171.548 475.553 171.095 475.814L170.541 476.134C170.106 476.385 169.839 476.657 169.737 476.95C169.635 477.244 169.663 477.532 169.82 477.814C169.977 478.097 170.236 478.342 170.596 478.55ZM177.416 484.344C176.382 483.747 175.786 483.152 175.629 482.56C175.49 481.968 175.795 481.44 176.544 480.976L178.276 481.976C178.045 482.141 177.952 482.36 177.998 482.632C178.045 482.904 178.345 483.2 178.899 483.52C179.361 483.787 179.809 483.949 180.243 484.008C180.687 484.072 181.051 484.021 181.338 483.856C181.587 483.712 181.68 483.536 181.615 483.328C181.56 483.125 181.305 482.867 180.853 482.552L180.257 482.128C179.509 481.589 179.102 481.077 179.038 480.592C178.973 480.107 179.264 479.677 179.911 479.304C180.428 479.005 180.991 478.829 181.601 478.776C182.211 478.723 182.83 478.776 183.458 478.936C184.104 479.096 184.723 479.347 185.315 479.688C186.238 480.221 186.783 480.771 186.95 481.336C187.116 481.901 186.82 482.419 186.063 482.888L184.331 481.888C184.571 481.728 184.663 481.525 184.608 481.28C184.553 481.035 184.298 480.781 183.846 480.52C183.439 480.285 183.047 480.149 182.668 480.112C182.289 480.075 181.975 480.128 181.726 480.272C181.486 480.411 181.389 480.568 181.435 480.744C181.49 480.925 181.698 481.147 182.058 481.408L182.654 481.832C183.449 482.397 183.897 482.939 183.998 483.456C184.109 483.979 183.827 484.435 183.153 484.824C182.654 485.112 182.081 485.283 181.435 485.336C180.807 485.389 180.146 485.333 179.453 485.168C178.761 485.003 178.082 484.728 177.416 484.344Z" fill="#FFFAFA"/>
<line x1="116.148" y1="418.046" x2="248.5" y2="494.179" stroke="#0E3572" stroke-width="0.591743" stroke-dasharray="1.18 1.18"/>
<line x1="177.75" y1="381.744" x2="308.119" y2="457.746" stroke="#0E3572" stroke-width="0.591743" stroke-dasharray="1.18 1.18"/>
<mask id="path-95-inside-3_1883_1225" fill="white">
<path d="M250.711 422.433L278.789 422.494V438.133L214.676 474.626L150.625 438.485L150 438.133L150.001 438.132V422.219L178.141 422.279L214.29 401.915L250.711 422.433Z"/>
</mask>
<path d="M250.711 422.433L278.789 422.494V438.133L214.676 474.626L150.625 438.485L150 438.133L150.001 438.132V422.219L178.141 422.279L214.29 401.915L250.711 422.433Z" fill="white"/>
<path d="M250.711 422.433L250.421 422.949L250.556 423.025L250.71 423.025L250.711 422.433ZM278.789 422.494H279.38V421.903L278.79 421.902L278.789 422.494ZM278.789 438.133L279.081 438.648L279.38 438.477V438.133H278.789ZM214.676 474.626L214.385 475.142L214.678 475.307L214.969 475.141L214.676 474.626ZM150.625 438.485L150.915 437.97L150.915 437.969L150.625 438.485ZM150 438.133L149.582 437.715L149.031 438.266L149.71 438.649L150 438.133ZM150.001 438.132L150.42 438.551L150.593 438.377V438.132H150.001ZM150.001 422.219L150.003 421.627L149.41 421.626V422.219H150.001ZM178.141 422.279L178.14 422.871L178.296 422.871L178.432 422.794L178.141 422.279ZM214.29 401.915L214.58 401.399L214.29 401.235L213.999 401.399L214.29 401.915ZM250.711 422.433L250.71 423.025L278.787 423.085L278.789 422.494L278.79 421.902L250.713 421.841L250.711 422.433ZM278.789 422.494H278.197V438.133H278.789H279.38V422.494H278.789ZM278.789 438.133L278.496 437.619L214.384 474.112L214.676 474.626L214.969 475.141L279.081 438.648L278.789 438.133ZM214.676 474.626L214.967 474.111L150.915 437.97L150.625 438.485L150.334 439L214.385 475.142L214.676 474.626ZM150.625 438.485L150.915 437.969L150.291 437.618L150 438.133L149.71 438.649L150.334 439L150.625 438.485ZM150 438.133L150.419 438.552L150.42 438.551L150.001 438.132L149.583 437.714L149.582 437.715L150 438.133ZM150.001 438.132H150.593V422.219H150.001H149.41V438.132H150.001ZM150.001 422.219L150 422.811L178.14 422.871L178.141 422.279L178.142 421.687L150.003 421.627L150.001 422.219ZM178.141 422.279L178.432 422.794L214.58 402.43L214.29 401.915L213.999 401.399L177.851 421.763L178.141 422.279ZM214.29 401.915L213.999 402.43L250.421 422.949L250.711 422.433L251.002 421.918L214.58 401.399L214.29 401.915Z" fill="#0E3572" mask="url(#path-95-inside-3_1883_1225)"/>
<path d="M278.189 422.492L214.291 458.102L150.597 422.219L214.29 386.336L278.189 422.492Z" fill="#FEE9EA"/>
<path d="M278.189 422.492L214.291 458.102L150.597 422.219L214.29 386.336L278.189 422.492Z" stroke="white" stroke-opacity="0.2" stroke-width="0.685843"/>
<path d="M278.189 422.492L214.291 458.102L150.597 422.219L214.29 386.336L278.189 422.492Z" stroke="#0E3572" stroke-width="0.685843"/>
<g clip-path="url(#clip3_1883_1225)">
<path d="M199.375 417.293L221.793 430.237M206.168 436.904L187.826 426.315C186.7 425.665 186.7 424.611 187.826 423.961L202.772 415.332C203.897 414.683 205.722 414.683 206.848 415.332L225.19 425.922C226.316 426.572 226.316 427.626 225.19 428.276L210.244 436.905C209.119 437.554 207.294 437.554 206.168 436.904Z" stroke="#ED1C24" stroke-miterlimit="10" stroke-linecap="round" stroke-linejoin="round"/>
<path d="M199.562 417.185L198.883 416.793C196.257 415.277 196.511 412.671 199.449 410.975C202.095 409.447 206.015 409.177 208.685 410.244C211.954 408.86 216.554 409.014 219.49 410.709C221.143 411.663 221.949 412.922 221.911 414.177C226.148 412.803 231.595 413.147 235.18 415.217C239.506 417.714 239.484 421.776 235.133 424.288C234.772 424.496 234.393 424.685 234 424.858C235.851 426.401 235.384 428.665 232.737 430.194C229.799 431.89 225.286 432.037 222.66 430.521L221.981 430.128M203.111 423.373L195.978 423.177L196.318 427.295M211.263 428.079L211.603 432.198L204.47 432.002M208.546 426.511L199.035 428.864" stroke="#ED1C24" stroke-miterlimit="10" stroke-linecap="round" stroke-linejoin="round"/>
</g>
<line x1="565.853" y1="460.676" x2="691.892" y2="388.743" stroke="white" stroke-width="0.591743" stroke-dasharray="1.18 1.18"/>
<line x1="632.852" y1="498.744" x2="757.985" y2="426.744" stroke="white" stroke-width="0.591743" stroke-dasharray="1.18 1.18"/>
<path d="M700.858 495.398C700.276 495.734 699.694 495.985 699.112 496.15C698.549 496.316 697.957 496.358 697.339 496.278C696.729 496.204 696.082 495.969 695.399 495.574L693.958 494.742L695.787 493.686L697.352 494.59C697.639 494.756 697.934 494.836 698.239 494.83C698.563 494.825 698.863 494.742 699.14 494.582L700.72 493.67L702.285 494.574L700.858 495.398ZM696.202 494.95C695.288 495.478 694.332 495.844 693.334 496.046C692.346 496.244 691.371 496.321 690.41 496.278C689.45 496.225 688.558 496.089 687.736 495.87C686.914 495.641 686.221 495.364 685.658 495.038L685.353 494.862C684.734 494.505 684.23 494.086 683.842 493.606C683.445 493.121 683.219 492.606 683.163 492.062C683.117 491.513 683.279 490.961 683.648 490.406C684.009 489.846 684.637 489.308 685.533 488.79C686.42 488.278 687.348 487.918 688.318 487.71C689.279 487.497 690.23 487.406 691.172 487.438C692.124 487.465 693.02 487.593 693.861 487.822C694.692 488.046 695.417 488.337 696.036 488.694L696.341 488.87C696.904 489.196 697.38 489.598 697.768 490.078C698.156 490.548 698.392 491.062 698.475 491.622C698.558 492.172 698.424 492.734 698.073 493.31C697.731 493.881 697.108 494.428 696.202 494.95ZM694.373 493.894C694.891 493.596 695.26 493.276 695.482 492.934C695.713 492.588 695.81 492.238 695.773 491.886C695.736 491.524 695.583 491.18 695.316 490.854C695.048 490.518 694.678 490.214 694.207 489.942C693.699 489.649 693.154 489.425 692.572 489.27C691.999 489.11 691.408 489.025 690.798 489.014C690.198 488.998 689.602 489.06 689.011 489.198C688.42 489.337 687.87 489.553 687.362 489.846C686.845 490.145 686.466 490.465 686.226 490.806C685.986 491.148 685.875 491.494 685.893 491.846C685.921 492.193 686.069 492.534 686.337 492.87C686.614 493.201 687.006 493.513 687.514 493.806C687.985 494.078 688.507 494.294 689.08 494.454C689.653 494.604 690.249 494.692 690.868 494.718C691.487 494.734 692.096 494.676 692.697 494.542C693.297 494.409 693.856 494.193 694.373 493.894ZM701.785 491.423L695.12 483.591L698.335 481.735L711.997 485.527L709.974 486.695L698.196 483.367L699.208 483.135L697.476 484.135L697.892 483.543L703.753 490.287L701.785 491.423ZM701.508 488.479L700.469 487.159L704.57 484.791L706.843 485.399L701.508 488.479ZM718.486 481.781L709.826 476.781L711.793 475.645L720.453 480.645L718.486 481.781ZM707.179 478.629L705.447 477.629L713.262 473.117L714.994 474.117L707.179 478.629ZM727.492 476.885C726.845 477.258 726.166 477.522 725.455 477.677C724.753 477.826 724.056 477.888 723.363 477.861C722.67 477.824 722.01 477.72 721.381 477.549C720.762 477.373 720.213 477.146 719.732 476.869L719.469 476.717C718.97 476.429 718.569 476.106 718.264 475.749C717.959 475.381 717.783 475.002 717.737 474.613C717.691 474.213 717.797 473.816 718.056 473.421C718.305 473.021 718.739 472.642 719.358 472.285C720.171 471.816 721.03 471.528 721.936 471.421C722.841 471.304 723.723 471.333 724.582 471.509C725.432 471.68 726.19 471.957 726.855 472.341L727.547 472.741L720.883 476.589L719.705 475.909L725.164 472.757L725.15 473.437C724.67 473.16 724.19 472.962 723.709 472.845C723.229 472.728 722.753 472.698 722.282 472.757C721.82 472.81 721.377 472.96 720.952 473.205C720.527 473.45 720.264 473.714 720.162 473.997C720.06 474.28 720.116 474.573 720.328 474.877C720.541 475.17 720.901 475.464 721.409 475.757C721.88 476.029 722.374 476.229 722.892 476.357C723.4 476.48 723.912 476.514 724.43 476.461C724.938 476.402 725.427 476.237 725.899 475.965C726.37 475.693 726.661 475.418 726.772 475.141C726.873 474.858 726.827 474.613 726.633 474.405L728.407 473.381C728.813 473.744 729.053 474.128 729.127 474.533C729.201 474.938 729.099 475.344 728.822 475.749C728.554 476.149 728.111 476.528 727.492 476.885ZM735.42 472.276C734.385 472.873 733.355 473.217 732.33 473.308C731.304 473.388 730.39 473.212 729.586 472.78L731.318 471.78C731.604 471.913 731.983 471.967 732.454 471.94C732.925 471.913 733.438 471.74 733.992 471.42C734.454 471.153 734.736 470.895 734.838 470.644C734.948 470.388 734.861 470.177 734.574 470.012C734.325 469.868 734.02 469.815 733.66 469.852C733.309 469.884 732.861 470.031 732.316 470.292L731.581 470.636C730.648 471.068 729.761 471.303 728.921 471.34C728.08 471.377 727.337 471.209 726.69 470.836C726.173 470.537 725.868 470.212 725.775 469.86C725.683 469.508 725.775 469.151 726.053 468.788C726.33 468.415 726.764 468.057 727.355 467.716C728.279 467.183 729.23 466.868 730.21 466.772C731.189 466.676 732.085 466.847 732.898 467.284L731.166 468.284C730.888 468.145 730.537 468.092 730.113 468.124C729.688 468.156 729.249 468.303 728.796 468.564C728.39 468.799 728.154 469.025 728.089 469.244C728.025 469.463 728.117 469.644 728.367 469.788C728.607 469.927 728.879 469.983 729.184 469.956C729.498 469.924 729.882 469.804 730.334 469.596L731.069 469.252C732.048 468.793 732.985 468.535 733.881 468.476C734.787 468.412 735.577 468.575 736.251 468.964C736.75 469.252 737.045 469.583 737.138 469.956C737.23 470.319 737.133 470.7 736.847 471.1C736.56 471.5 736.085 471.892 735.42 472.276ZM743.426 467.494C742.733 467.894 742.073 468.174 741.445 468.334C740.817 468.483 740.179 468.499 739.532 468.382C738.877 468.259 738.184 467.987 737.454 467.566L730.651 463.622L732.452 462.582L739.38 466.598C739.75 466.811 740.133 466.92 740.53 466.926C740.927 466.92 741.311 466.811 741.68 466.598L742.858 465.918L744.507 466.87L743.426 467.494ZM732.978 466.358L731.565 465.542L736.886 462.47L738.299 463.286L732.978 466.358ZM749.616 464.112C748.97 464.485 748.291 464.749 747.579 464.904C746.877 465.053 746.18 465.114 745.487 465.088C744.794 465.05 744.134 464.946 743.506 464.776C742.887 464.6 742.337 464.373 741.857 464.096L741.593 463.944C741.095 463.656 740.693 463.333 740.388 462.976C740.083 462.608 739.908 462.229 739.861 461.84C739.815 461.44 739.921 461.042 740.18 460.648C740.429 460.248 740.864 459.869 741.483 459.512C742.295 459.042 743.155 458.754 744.06 458.648C744.965 458.53 745.847 458.56 746.706 458.736C747.556 458.906 748.314 459.184 748.979 459.568L749.672 459.968L743.007 463.816L741.829 463.136L747.288 459.984L747.275 460.664C746.794 460.386 746.314 460.189 745.833 460.072C745.353 459.954 744.877 459.925 744.406 459.984C743.944 460.037 743.501 460.186 743.076 460.432C742.651 460.677 742.388 460.941 742.286 461.224C742.185 461.506 742.24 461.8 742.453 462.104C742.665 462.397 743.025 462.69 743.533 462.984C744.004 463.256 744.499 463.456 745.016 463.584C745.524 463.706 746.037 463.741 746.554 463.688C747.062 463.629 747.552 463.464 748.023 463.192C748.494 462.92 748.785 462.645 748.896 462.368C748.997 462.085 748.951 461.84 748.757 461.632L750.531 460.608C750.937 460.97 751.177 461.354 751.251 461.76C751.325 462.165 751.224 462.57 750.946 462.976C750.679 463.376 750.235 463.754 749.616 464.112ZM754.578 460.943L747.054 456.599L748.579 455.719L751.766 457.559L751.724 457.583C750.643 456.959 750.057 456.353 749.964 455.767C749.872 455.18 750.274 454.628 751.17 454.111L751.447 453.951L753.124 454.919L752.597 455.223C751.95 455.596 751.622 455.988 751.613 456.399C751.604 456.799 751.927 457.188 752.583 457.567L756.505 459.831L754.578 460.943Z" fill="#FFFAFA"/>
<mask id="path-103-inside-4_1883_1225" fill="white">
<path d="M698.711 428.434L726.789 428.494V444.134L662.676 480.627L598.625 444.485L598 444.134L598.001 444.133V428.22L626.141 428.279L662.29 407.915L698.711 428.434Z"/>
</mask>
<path d="M698.711 428.434L726.789 428.494V444.134L662.676 480.627L598.625 444.485L598 444.134L598.001 444.133V428.22L626.141 428.279L662.29 407.915L698.711 428.434Z" fill="white"/>
<path d="M698.711 428.434L698.421 428.949L698.556 429.025L698.71 429.025L698.711 428.434ZM726.789 428.494H727.38V427.904L726.79 427.902L726.789 428.494ZM726.789 444.134L727.081 444.648L727.38 444.478V444.134H726.789ZM662.676 480.627L662.385 481.142L662.678 481.307L662.969 481.141L662.676 480.627ZM598.625 444.485L598.915 443.97L598.915 443.97L598.625 444.485ZM598 444.134L597.582 443.715L597.031 444.267L597.71 444.649L598 444.134ZM598.001 444.133L598.42 444.551L598.593 444.378V444.133H598.001ZM598.001 428.22L598.003 427.628L597.41 427.627V428.22H598.001ZM626.141 428.279L626.14 428.871L626.296 428.871L626.432 428.795L626.141 428.279ZM662.29 407.915L662.58 407.399L662.29 407.236L661.999 407.399L662.29 407.915ZM698.711 428.434L698.71 429.025L726.787 429.086L726.789 428.494L726.79 427.902L698.713 427.842L698.711 428.434ZM726.789 428.494H726.197V444.134H726.789H727.38V428.494H726.789ZM726.789 444.134L726.496 443.62L662.384 480.113L662.676 480.627L662.969 481.141L727.081 444.648L726.789 444.134ZM662.676 480.627L662.967 480.112L598.915 443.97L598.625 444.485L598.334 445.001L662.385 481.142L662.676 480.627ZM598.625 444.485L598.915 443.97L598.291 443.618L598 444.134L597.71 444.649L598.334 445.001L598.625 444.485ZM598 444.134L598.419 444.552L598.42 444.551L598.001 444.133L597.583 443.714L597.582 443.715L598 444.134ZM598.001 444.133H598.593V428.22H598.001H597.41V444.133H598.001ZM598.001 428.22L598 428.811L626.14 428.871L626.141 428.279L626.142 427.688L598.003 427.628L598.001 428.22ZM626.141 428.279L626.432 428.795L662.58 408.431L662.29 407.915L661.999 407.399L625.851 427.764L626.141 428.279ZM662.29 407.915L661.999 408.431L698.421 428.949L698.711 428.434L699.002 427.918L662.58 407.399L662.29 407.915Z" fill="#0E3572" mask="url(#path-103-inside-4_1883_1225)"/>
<path d="M726.189 428.492L662.291 464.103L598.597 428.219L662.29 392.337L726.189 428.492Z" fill="#FEE9EA"/>
<path d="M726.189 428.492L662.291 464.103L598.597 428.219L662.29 392.337L726.189 428.492Z" stroke="white" stroke-opacity="0.2" stroke-width="0.685843"/>
<path d="M726.189 428.492L662.291 464.103L598.597 428.219L662.29 392.337L726.189 428.492Z" stroke="#0E3572" stroke-width="0.685843"/>
<g clip-path="url(#clip4_1883_1225)">
<path d="M663.582 416.647L637.203 431.877L633.447 429.708C632.241 429.012 632.241 427.883 633.447 427.187L655.46 414.478C656.666 413.782 658.621 413.782 659.826 414.478L663.582 416.647Z" stroke="#ED1C24" stroke-miterlimit="10" stroke-linecap="round" stroke-linejoin="round"/>
<path d="M678.724 433.064L661.175 443.197C659.969 443.893 658.014 443.892 656.808 443.196L637.09 431.812M663.469 416.581L674.906 423.184" stroke="#ED1C24" stroke-miterlimit="10" stroke-linecap="round" stroke-linejoin="round"/>
<path d="M647.688 432.037L663.859 422.701L668.197 425.205L652.027 434.541L647.688 432.037Z" stroke="#ED1C24" stroke-miterlimit="10" stroke-linecap="round" stroke-linejoin="round"/>
<path d="M655.185 436.365L671.533 426.926M658.412 438.228L672.475 430.109" stroke="#ED1C24" stroke-miterlimit="10" stroke-linecap="round" stroke-linejoin="round"/>
<path d="M687.838 431.427C691.544 429.287 691.541 425.816 687.832 423.675C684.122 421.533 678.111 421.531 674.404 423.671C670.698 425.811 670.701 429.282 674.41 431.423C678.12 433.565 684.132 433.566 687.838 431.427Z" stroke="#ED1C24" stroke-miterlimit="10" stroke-linecap="round" stroke-linejoin="round"/>
<path d="M691.064 427.551L696.019 427.553" stroke="#ED1C24" stroke-miterlimit="10" stroke-linecap="round" stroke-linejoin="round"/>
</g>
<mask id="path-112-inside-5_1883_1225" fill="white">
<path d="M506.756 278.585L562.724 278.707V310.294L434.923 384L307.698 311.264L306.001 310.295L306.002 310.294V278.152L362.1 278.273L434.154 237.143L506.756 278.585Z"/>
</mask>
<path d="M506.756 278.585L562.724 278.707V310.294L434.923 384L307.698 311.264L306.001 310.295L306.002 310.294V278.152L362.1 278.273L434.154 237.143L506.756 278.585Z" fill="#0E3572"/>
<path d="M506.756 278.585L506.463 279.099L506.598 279.177L506.755 279.177L506.756 278.585ZM562.724 278.707H563.315V278.116L562.725 278.115L562.724 278.707ZM562.724 310.294L563.019 310.807L563.315 310.636V310.294H562.724ZM434.923 384L434.629 384.514L434.924 384.683L435.218 384.513L434.923 384ZM307.698 311.264L307.992 310.75L307.992 310.75L307.698 311.264ZM306.001 310.295L305.583 309.877L305.034 310.425L305.708 310.809L306.001 310.295ZM306.002 310.294L306.42 310.713L306.594 310.54V310.294H306.002ZM306.002 278.152L306.003 277.56L305.41 277.559V278.152H306.002ZM362.1 278.273L362.098 278.865L362.256 278.865L362.393 278.787L362.1 278.273ZM434.154 237.143L434.448 236.629L434.154 236.462L433.861 236.629L434.154 237.143ZM506.756 278.585L506.755 279.177L562.722 279.298L562.724 278.707L562.725 278.115L506.757 277.994L506.756 278.585ZM562.724 278.707H562.132V310.294H562.724H563.315V278.707H562.724ZM562.724 310.294L562.428 309.782L434.627 383.488L434.923 384L435.218 384.513L563.019 310.807L562.724 310.294ZM434.923 384L435.217 383.487L307.992 310.75L307.698 311.264L307.405 311.778L434.629 384.514L434.923 384ZM307.698 311.264L307.992 310.75L306.294 309.781L306.001 310.295L305.708 310.809L307.405 311.778L307.698 311.264ZM306.001 310.295L306.419 310.714L306.42 310.713L306.002 310.294L305.584 309.876L305.583 309.877L306.001 310.295ZM306.002 310.294H306.594V278.152H306.002H305.41V310.294H306.002ZM306.002 278.152L306.001 278.744L362.098 278.865L362.1 278.273L362.101 277.681L306.003 277.56L306.002 278.152ZM362.1 278.273L362.393 278.787L434.448 237.657L434.154 237.143L433.861 236.629L361.806 277.759L362.1 278.273ZM434.154 237.143L433.861 237.657L506.463 279.099L506.756 278.585L507.049 278.072L434.448 236.629L434.154 237.143Z" fill="white" mask="url(#path-112-inside-5_1883_1225)"/>
<path d="M562.126 278.704L434.156 350.965L306.595 278.152L434.154 205.34L562.126 278.704Z" fill="white"/>
<path d="M562.126 278.704L434.156 350.965L306.595 278.152L434.154 205.34L562.126 278.704Z" stroke="white" stroke-opacity="0.2" stroke-width="0.685843"/>
<path d="M562.126 278.704L434.156 350.965L306.595 278.152L434.154 205.34L562.126 278.704Z" stroke="#0E3572" stroke-width="0.685843"/>
<mask id="path-115-inside-6_1883_1225" fill="white">
<path d="M506.756 222.585L562.724 222.707V254.294L434.923 328L307.699 255.264L306.001 254.295L306.002 254.294V222.152L362.1 222.273L434.155 181.143L506.756 222.585Z"/>
</mask>
<path d="M506.756 222.585L562.724 222.707V254.294L434.923 328L307.699 255.264L306.001 254.295L306.002 254.294V222.152L362.1 222.273L434.155 181.143L506.756 222.585Z" fill="white"/>
<path d="M506.756 222.585L562.724 222.707V254.294L434.923 328L307.699 255.264L306.001 254.295L306.002 254.294V222.152L362.1 222.273L434.155 181.143L506.756 222.585Z" fill="#0E3572" fill-opacity="0.7"/>
<path d="M506.756 222.585L506.463 223.099L506.599 223.177L506.755 223.177L506.756 222.585ZM562.724 222.707H563.316V222.116L562.725 222.115L562.724 222.707ZM562.724 254.294L563.02 254.807L563.316 254.636V254.294H562.724ZM434.923 328L434.63 328.514L434.925 328.683L435.219 328.513L434.923 328ZM307.699 255.264L307.992 254.75L307.992 254.75L307.699 255.264ZM306.001 254.295L305.583 253.877L305.035 254.425L305.708 254.809L306.001 254.295ZM306.002 254.294L306.421 254.713L306.594 254.54V254.294H306.002ZM306.002 222.152L306.004 221.56L305.411 221.559V222.152H306.002ZM362.1 222.273L362.099 222.865L362.257 222.865L362.393 222.787L362.1 222.273ZM434.155 181.143L434.448 180.629L434.155 180.462L433.861 180.629L434.155 181.143ZM506.756 222.585L506.755 223.177L562.723 223.298L562.724 222.707L562.725 222.115L506.758 221.994L506.756 222.585ZM562.724 222.707H562.132V254.294H562.724H563.316V222.707H562.724ZM562.724 254.294L562.428 253.782L434.628 327.488L434.923 328L435.219 328.513L563.02 254.807L562.724 254.294ZM434.923 328L435.217 327.487L307.992 254.75L307.699 255.264L307.405 255.778L434.63 328.514L434.923 328ZM307.699 255.264L307.992 254.75L306.295 253.781L306.001 254.295L305.708 254.809L307.405 255.778L307.699 255.264ZM306.001 254.295L306.42 254.714L306.421 254.713L306.002 254.294L305.584 253.876L305.583 253.877L306.001 254.295ZM306.002 254.294H306.594V222.152H306.002H305.411V254.294H306.002ZM306.002 222.152L306.001 222.744L362.099 222.865L362.1 222.273L362.101 221.681L306.004 221.56L306.002 222.152ZM362.1 222.273L362.393 222.787L434.448 181.657L434.155 181.143L433.861 180.629L361.807 221.759L362.1 222.273ZM434.155 181.143L433.861 181.657L506.463 223.099L506.756 222.585L507.05 222.072L434.448 180.629L434.155 181.143Z" fill="#0E3572" mask="url(#path-115-inside-6_1883_1225)"/>
<g filter="url(#filter0_i_1883_1225)">
<path d="M434.154 149L562.722 222.706L434.154 295.304L306 222.152L434.154 149Z" fill="white"/>
</g>
<path d="M562.126 222.704L434.156 294.965L306.595 222.152L434.154 149.34L562.126 222.704Z" stroke="white" stroke-opacity="0.2" stroke-width="0.685843"/>
<path d="M562.126 222.704L434.156 294.965L306.595 222.152L434.154 149.34L562.126 222.704Z" stroke="#0E3572" stroke-width="0.685843"/>
<path d="M562.5 279V254L435 327.5L306.5 254V278.5L434 350.5L562.5 279Z" fill="#0E3572" fill-opacity="0.7"/>
<path d="M562.5 279V254L435 327.5L306.5 254V278.5L434 350.5L562.5 279Z" fill="#3EAFD1" fill-opacity="0.2"/>
<path fill-rule="evenodd" clip-rule="evenodd" d="M398.363 212.45L426.025 196.479C430.312 194.004 437.207 194.016 441.513 196.463L469.042 212.357C464.77 209.891 457.842 209.898 453.555 212.373L433.684 223.845L413.851 212.395C409.511 209.967 402.65 209.975 398.363 212.45Z" fill="#0E3572"/>
<path fill-rule="evenodd" clip-rule="evenodd" d="M489.419 224.121L468.805 212.22C464.601 209.793 457.741 209.8 453.454 212.236L433.481 223.767C443.685 230.09 453.365 229.825 453.365 229.825L484.51 229.734C485.801 229.694 487.092 229.496 488.282 229.162L489.337 228.553C491.514 227.335 491.554 225.354 489.419 224.121Z" fill="#ED1C24"/>
<path fill-rule="evenodd" clip-rule="evenodd" d="M377.812 224.316L398.465 212.392C402.684 209.956 409.544 209.949 413.816 212.376L433.718 223.866C423.475 230.21 413.83 229.946 413.83 229.946L382.685 229.919C381.395 229.881 380.105 229.686 378.917 229.354L377.866 228.747C375.662 227.514 375.702 225.534 377.812 224.316Z" fill="#3EAFD1"/>
<path d="M338.649 316.912C337.963 316.516 337.367 316.032 336.861 315.46C336.362 314.892 335.947 314.288 335.614 313.648C335.289 313.004 335.043 312.374 334.876 311.758C334.717 311.138 334.637 310.584 334.637 310.096V309.832C334.637 309.296 334.72 308.812 334.887 308.38C335.053 307.94 335.302 307.6 335.635 307.36C335.974 307.124 336.394 307.022 336.892 307.054C337.391 307.078 337.977 307.284 338.649 307.672C339.314 308.056 339.896 308.524 340.395 309.076C340.893 309.62 341.309 310.204 341.642 310.828C341.981 311.456 342.234 312.086 342.4 312.718C342.567 313.342 342.65 313.922 342.65 314.458V314.722C342.65 315.21 342.567 315.67 342.4 316.102C342.241 316.53 341.995 316.876 341.662 317.14C341.337 317.4 340.921 317.524 340.415 317.512C339.917 317.504 339.328 317.304 338.649 316.912ZM338.649 315.328C339.037 315.552 339.383 315.672 339.688 315.688C340 315.708 340.263 315.64 340.478 315.484C340.699 315.324 340.866 315.096 340.977 314.8C341.094 314.5 341.153 314.146 341.153 313.738C341.153 313.298 341.094 312.86 340.977 312.424C340.866 311.992 340.699 311.576 340.478 311.176C340.263 310.78 340 310.416 339.688 310.084C339.376 309.752 339.03 309.476 338.649 309.256C338.261 309.032 337.911 308.906 337.599 308.878C337.287 308.85 337.021 308.908 336.799 309.052C336.584 309.2 336.418 309.424 336.3 309.724C336.189 310.028 336.134 310.4 336.134 310.84C336.134 311.248 336.189 311.668 336.3 312.1C336.418 312.528 336.584 312.948 336.799 313.36C337.021 313.768 337.287 314.142 337.599 314.482C337.911 314.822 338.261 315.104 338.649 315.328ZM343.962 319.751V313.235L345.105 313.895V316.691L345.001 316.631C345.001 315.967 345.077 315.459 345.229 315.107C345.382 314.747 345.607 314.541 345.905 314.489C346.21 314.441 346.587 314.547 347.038 314.807L347.1 314.843C347.772 315.231 348.281 315.777 348.628 316.481C348.974 317.177 349.147 318.021 349.147 319.013V322.745L347.703 321.911V318.035C347.703 317.635 347.602 317.253 347.401 316.889C347.207 316.529 346.937 316.249 346.591 316.049C346.238 315.845 345.95 315.807 345.728 315.935C345.514 316.059 345.406 316.333 345.406 316.757V320.585L343.962 319.751ZM352.652 322.129V320.665L356.861 323.095V324.559L352.652 322.129ZM359.593 328.824V327.24L361.162 328.146C361.557 328.374 361.907 328.508 362.211 328.548C362.523 328.584 362.787 328.536 363.001 328.404C363.216 328.272 363.379 328.066 363.49 327.786C363.608 327.502 363.666 327.148 363.666 326.724C363.666 326.284 363.608 325.858 363.49 325.446C363.379 325.03 363.216 324.636 363.001 324.264C362.787 323.892 362.523 323.552 362.211 323.244C361.907 322.94 361.557 322.674 361.162 322.446L359.593 321.54V319.956L361.068 320.808C361.754 321.204 362.354 321.666 362.866 322.194C363.379 322.722 363.805 323.288 364.144 323.892C364.484 324.488 364.737 325.094 364.903 325.71C365.076 326.322 365.163 326.904 365.163 327.456V327.72C365.163 328.248 365.076 328.718 364.903 329.13C364.737 329.546 364.484 329.864 364.144 330.084C363.805 330.304 363.379 330.39 362.866 330.342C362.354 330.294 361.754 330.072 361.068 329.676L359.593 328.824ZM358.325 328.092V319.224L359.8 320.076V328.944L358.325 328.092ZM368.895 334.375C368.41 334.095 367.984 333.753 367.617 333.349C367.257 332.949 366.955 332.519 366.713 332.059C366.477 331.595 366.297 331.127 366.173 330.655C366.055 330.187 365.996 329.745 365.996 329.329V329.101C365.996 328.669 366.055 328.287 366.173 327.955C366.297 327.619 366.477 327.363 366.713 327.187C366.955 327.007 367.253 326.927 367.607 326.947C367.96 326.959 368.369 327.099 368.833 327.367C369.443 327.719 369.952 328.169 370.361 328.717C370.776 329.261 371.088 329.845 371.296 330.469C371.504 331.085 371.608 331.681 371.608 332.257V332.857L366.609 329.971V328.951L370.704 331.315L370.257 331.561C370.257 331.145 370.205 330.759 370.101 330.403C369.997 330.047 369.838 329.727 369.623 329.443C369.415 329.163 369.152 328.931 368.833 328.747C368.514 328.563 368.244 328.491 368.022 328.531C367.801 328.571 367.631 328.717 367.513 328.969C367.402 329.217 367.347 329.561 367.347 330.001C367.347 330.409 367.402 330.805 367.513 331.189C367.624 331.565 367.794 331.911 368.022 332.227C368.251 332.535 368.542 332.791 368.895 332.995C369.249 333.199 369.536 333.285 369.758 333.253C369.98 333.213 370.122 333.091 370.184 332.887L371.514 333.655C371.431 334.055 371.272 334.355 371.036 334.555C370.801 334.755 370.499 334.841 370.132 334.813C369.772 334.789 369.36 334.643 368.895 334.375ZM372.814 336.41V329.894L373.958 330.554V333.35L373.854 333.29C373.854 332.634 373.926 332.128 374.072 331.772C374.217 331.408 374.432 331.196 374.716 331.136C375.007 331.072 375.368 331.164 375.797 331.412L375.859 331.448C376.296 331.7 376.656 332.024 376.94 332.42C377.231 332.812 377.446 333.272 377.585 333.8C377.73 334.324 377.803 334.914 377.803 335.57L377.439 335.36C377.439 334.704 377.512 334.198 377.657 333.842C377.81 333.482 378.028 333.272 378.312 333.212C378.603 333.148 378.963 333.24 379.393 333.488L379.455 333.524C379.892 333.776 380.255 334.102 380.546 334.502C380.837 334.894 381.056 335.356 381.201 335.888C381.353 336.416 381.43 337.008 381.43 337.664V341.384L379.985 340.55V336.674C379.985 336.266 379.895 335.89 379.715 335.546C379.535 335.194 379.278 334.922 378.946 334.73C378.613 334.538 378.347 334.512 378.146 334.652C377.945 334.784 377.844 335.062 377.844 335.486V339.314L376.4 338.48V334.604C376.4 334.196 376.31 333.82 376.13 333.476C375.949 333.124 375.693 332.852 375.361 332.66C375.028 332.468 374.761 332.442 374.56 332.582C374.359 332.714 374.259 332.992 374.259 333.416V337.244L372.814 336.41ZM386.392 344.249V342.317L386.153 342.179V340.031C386.153 339.655 386.074 339.329 385.914 339.053C385.755 338.777 385.509 338.543 385.177 338.351C385.003 338.251 384.795 338.135 384.553 338.003C384.311 337.871 384.065 337.741 383.815 337.613C383.573 337.481 383.354 337.367 383.16 337.271V335.855C383.32 335.931 383.5 336.019 383.701 336.119C383.902 336.219 384.106 336.329 384.314 336.449C384.529 336.565 384.73 336.677 384.917 336.785C385.499 337.121 385.98 337.487 386.361 337.883C386.749 338.283 387.04 338.727 387.234 339.215C387.435 339.707 387.536 340.257 387.536 340.865V344.909L386.392 344.249ZM384.574 343.367C384.165 343.131 383.805 342.839 383.493 342.491C383.188 342.147 382.949 341.769 382.776 341.357C382.61 340.949 382.526 340.525 382.526 340.085C382.526 339.605 382.627 339.271 382.828 339.083C383.036 338.899 383.323 338.837 383.69 338.897C384.065 338.961 384.501 339.137 385 339.425L386.309 340.181V341.177L384.979 340.409C384.647 340.217 384.39 340.165 384.21 340.253C384.037 340.337 383.95 340.527 383.95 340.823C383.95 341.119 384.037 341.409 384.21 341.693C384.39 341.981 384.647 342.221 384.979 342.413C385.18 342.529 385.364 342.595 385.53 342.611C385.703 342.623 385.845 342.561 385.956 342.425C386.074 342.285 386.14 342.043 386.153 341.699L386.507 342.371C386.472 342.807 386.375 343.135 386.216 343.355C386.063 343.579 385.849 343.695 385.571 343.703C385.301 343.707 384.969 343.595 384.574 343.367ZM389.083 345.802V339.286L390.226 339.946V342.742L390.122 342.682C390.122 342.018 390.198 341.51 390.351 341.158C390.503 340.798 390.728 340.592 391.026 340.54C391.331 340.492 391.709 340.598 392.159 340.858L392.221 340.894C392.893 341.282 393.403 341.828 393.749 342.532C394.095 343.228 394.269 344.072 394.269 345.064V348.796L392.824 347.962V344.086C392.824 343.686 392.724 343.304 392.523 342.94C392.329 342.58 392.059 342.3 391.712 342.1C391.359 341.896 391.071 341.858 390.85 341.986C390.635 342.11 390.527 342.384 390.527 342.808V346.636L389.083 345.802ZM398.16 351.259C397.765 351.031 397.401 350.737 397.069 350.377C396.736 350.017 396.449 349.615 396.206 349.171C395.964 348.727 395.777 348.267 395.645 347.791C395.513 347.307 395.448 346.829 395.448 346.357V346.105C395.448 345.641 395.51 345.241 395.635 344.905C395.766 344.573 395.946 344.321 396.175 344.149C396.411 343.981 396.691 343.907 397.017 343.927C397.349 343.943 397.717 344.067 398.118 344.299C398.562 344.555 398.95 344.891 399.282 345.307C399.622 345.719 399.892 346.203 400.093 346.759C400.294 347.315 400.405 347.931 400.425 348.607L399.999 347.785V343.345L401.444 344.179V352.939L400.301 352.279V349.507L400.55 349.651C400.529 350.303 400.412 350.791 400.197 351.115C399.982 351.431 399.698 351.599 399.345 351.619C398.998 351.635 398.603 351.515 398.16 351.259ZM398.482 350.041C398.766 350.205 399.026 350.283 399.262 350.275C399.497 350.259 399.684 350.151 399.823 349.951C399.968 349.747 400.041 349.453 400.041 349.069V348.589C400.041 348.205 399.968 347.843 399.823 347.503C399.677 347.155 399.487 346.845 399.251 346.573C399.016 346.293 398.759 346.073 398.482 345.913C398.17 345.733 397.893 345.661 397.651 345.697C397.415 345.729 397.228 345.861 397.09 346.093C396.958 346.329 396.892 346.655 396.892 347.071C396.892 347.487 396.961 347.891 397.1 348.283C397.238 348.667 397.426 349.011 397.661 349.315C397.904 349.623 398.177 349.865 398.482 350.041Z" fill="#FFFAFA"/>
<path d="M461.564 355.671C460.892 356.059 460.323 356.263 459.859 356.283C459.402 356.299 459.052 356.161 458.81 355.869C458.567 355.569 458.446 355.143 458.446 354.591L459.89 353.757C459.89 353.989 459.946 354.185 460.057 354.345C460.168 354.497 460.344 354.571 460.587 354.567C460.836 354.559 461.162 354.439 461.564 354.207C461.924 353.999 462.225 353.765 462.468 353.505C462.71 353.245 462.89 352.985 463.008 352.725C463.126 352.457 463.185 352.199 463.185 351.951C463.185 351.639 463.07 351.457 462.842 351.405C462.613 351.345 462.26 351.429 461.782 351.657L461.117 351.981C460.389 352.329 459.807 352.405 459.371 352.209C458.941 352.001 458.726 351.525 458.726 350.781C458.726 350.221 458.841 349.675 459.069 349.143C459.298 348.603 459.617 348.107 460.026 347.655C460.441 347.191 460.926 346.799 461.48 346.479C462.055 346.147 462.551 345.977 462.967 345.969C463.382 345.961 463.704 346.103 463.933 346.395C464.162 346.679 464.276 347.105 464.276 347.673L462.831 348.507C462.831 348.267 462.779 348.077 462.676 347.937C462.579 347.785 462.43 347.707 462.229 347.703C462.035 347.687 461.785 347.767 461.48 347.943C461.189 348.111 460.947 348.307 460.753 348.531C460.559 348.755 460.414 348.991 460.317 349.239C460.22 349.487 460.171 349.723 460.171 349.947C460.171 350.219 460.258 350.409 460.431 350.517C460.604 350.617 460.878 350.575 461.252 350.391L461.917 350.079C462.457 349.815 462.932 349.673 463.341 349.653C463.749 349.633 464.065 349.743 464.286 349.983C464.515 350.219 464.629 350.597 464.629 351.117C464.629 351.669 464.505 352.229 464.255 352.797C464.006 353.357 463.649 353.887 463.185 354.387C462.728 354.883 462.187 355.311 461.564 355.671ZM467.787 352.054C467.136 352.43 466.63 352.474 466.27 352.186C465.916 351.894 465.74 351.26 465.74 350.284V346.504L467.184 345.67V349.594C467.184 349.994 467.281 350.258 467.475 350.386C467.669 350.506 467.932 350.47 468.265 350.278C468.597 350.086 468.868 349.806 469.075 349.438C469.29 349.066 469.398 348.668 469.398 348.244V344.392L470.842 343.558V350.086L469.699 350.746V347.974L469.813 347.908C469.813 348.564 469.741 349.154 469.595 349.678C469.45 350.202 469.231 350.66 468.94 351.052C468.649 351.444 468.286 351.766 467.849 352.018L467.787 352.054ZM472.501 351.528V342.612L473.645 341.952V344.76L473.468 344.85C473.496 344.17 473.613 343.546 473.821 342.978C474.036 342.406 474.32 341.91 474.673 341.49C475.027 341.062 475.422 340.722 475.858 340.47C476.26 340.238 476.62 340.114 476.939 340.098C477.265 340.078 477.542 340.154 477.77 340.326C478.006 340.494 478.186 340.746 478.311 341.082C478.435 341.41 478.498 341.806 478.498 342.27V342.522C478.498 342.994 478.435 343.47 478.311 343.95C478.193 344.418 478.016 344.876 477.781 345.324C477.552 345.76 477.275 346.16 476.949 346.524C476.624 346.88 476.26 347.174 475.858 347.406C475.436 347.65 475.048 347.774 474.694 347.778C474.348 347.77 474.067 347.616 473.852 347.316C473.638 347.008 473.516 346.522 473.489 345.858L473.946 346.398V350.694L472.501 351.528ZM475.494 346.212C475.806 346.032 476.076 345.788 476.305 345.48C476.541 345.168 476.724 344.818 476.856 344.43C476.987 344.034 477.053 343.636 477.053 343.236C477.053 342.82 476.987 342.498 476.856 342.27C476.724 342.042 476.541 341.912 476.305 341.88C476.076 341.836 475.806 341.904 475.494 342.084C475.21 342.248 474.947 342.472 474.705 342.756C474.469 343.036 474.275 343.36 474.123 343.728C473.977 344.092 473.904 344.47 473.904 344.862V345.342C473.904 345.718 473.981 345.994 474.133 346.17C474.285 346.346 474.483 346.436 474.725 346.44C474.968 346.444 475.224 346.368 475.494 346.212ZM479.768 347.332V338.416L480.911 337.756V340.564L480.734 340.654C480.762 339.974 480.88 339.35 481.088 338.782C481.303 338.21 481.587 337.714 481.94 337.294C482.293 336.866 482.688 336.526 483.125 336.274C483.527 336.042 483.887 335.918 484.205 335.902C484.531 335.882 484.808 335.958 485.037 336.13C485.272 336.298 485.453 336.55 485.577 336.886C485.702 337.214 485.764 337.61 485.764 338.074V338.326C485.764 338.798 485.702 339.274 485.577 339.754C485.46 340.222 485.283 340.68 485.047 341.128C484.819 341.564 484.542 341.964 484.216 342.328C483.89 342.684 483.527 342.978 483.125 343.21C482.702 343.454 482.314 343.578 481.961 343.582C481.614 343.574 481.334 343.42 481.119 343.12C480.904 342.812 480.783 342.326 480.755 341.662L481.213 342.202V346.498L479.768 347.332ZM482.761 342.016C483.073 341.836 483.343 341.592 483.572 341.284C483.807 340.972 483.991 340.622 484.122 340.234C484.254 339.838 484.32 339.44 484.32 339.04C484.32 338.624 484.254 338.302 484.122 338.074C483.991 337.846 483.807 337.716 483.572 337.684C483.343 337.64 483.073 337.708 482.761 337.888C482.477 338.052 482.214 338.276 481.971 338.56C481.736 338.84 481.542 339.164 481.389 339.532C481.244 339.896 481.171 340.274 481.171 340.666V341.146C481.171 341.522 481.247 341.798 481.4 341.974C481.552 342.15 481.749 342.24 481.992 342.244C482.234 342.248 482.491 342.172 482.761 342.016ZM489.747 339.399C489.248 339.687 488.808 339.849 488.427 339.885C488.046 339.921 487.724 339.859 487.461 339.699C487.197 339.531 486.996 339.287 486.858 338.967C486.726 338.643 486.66 338.265 486.66 337.833V337.581C486.66 337.133 486.73 336.669 486.868 336.189C487.014 335.697 487.218 335.219 487.481 334.755C487.752 334.279 488.077 333.843 488.458 333.447C488.839 333.043 489.269 332.703 489.747 332.427C490.225 332.151 490.654 331.995 491.036 331.959C491.417 331.915 491.739 331.977 492.002 332.145C492.272 332.301 492.477 332.543 492.615 332.871C492.754 333.191 492.823 333.575 492.823 334.023V334.275C492.823 334.707 492.754 335.163 492.615 335.643C492.484 336.119 492.286 336.593 492.023 337.065C491.76 337.529 491.437 337.963 491.056 338.367C490.675 338.771 490.239 339.115 489.747 339.399ZM489.747 337.971C490.1 337.767 490.398 337.507 490.641 337.191C490.883 336.867 491.067 336.517 491.191 336.141C491.316 335.757 491.378 335.369 491.378 334.977C491.378 334.577 491.313 334.263 491.181 334.035C491.056 333.795 490.869 333.659 490.62 333.627C490.377 333.583 490.086 333.659 489.747 333.855C489.407 334.051 489.113 334.313 488.864 334.641C488.621 334.957 488.434 335.309 488.302 335.697C488.171 336.077 488.105 336.467 488.105 336.867C488.105 337.259 488.167 337.575 488.292 337.815C488.424 338.043 488.611 338.179 488.853 338.223C489.096 338.259 489.394 338.175 489.747 337.971ZM494.088 336.665V330.149L495.231 329.489V332.249L495.2 332.267C495.2 331.331 495.373 330.523 495.719 329.843C496.066 329.163 496.575 328.629 497.247 328.241L497.455 328.121V329.573L497.06 329.801C496.575 330.081 496.197 330.451 495.927 330.911C495.664 331.359 495.532 331.867 495.532 332.435V335.831L494.088 336.665ZM500.996 332.76C500.476 333.06 500.047 333.232 499.707 333.276C499.375 333.308 499.125 333.188 498.959 332.916C498.793 332.636 498.709 332.18 498.709 331.548L498.72 325.638L500.071 324.858L500.06 330.876C500.06 331.196 500.133 331.402 500.279 331.494C500.431 331.574 500.646 331.534 500.923 331.374L501.806 330.864V332.292L500.996 332.76ZM497.816 329.22V327.996L501.806 325.692V326.916L497.816 329.22ZM506.872 329.283V321.783L508.348 320.931V328.431L506.872 329.283ZM504.68 323.289V321.789L510.541 318.405V319.905L504.68 323.289ZM513.43 325.726C512.945 326.006 512.519 326.156 512.151 326.176C511.791 326.192 511.49 326.11 511.247 325.93C511.012 325.738 510.832 325.478 510.707 325.15C510.589 324.818 510.53 324.444 510.53 324.028V323.8C510.53 323.368 510.589 322.918 510.707 322.45C510.832 321.97 511.012 321.506 511.247 321.058C511.49 320.598 511.788 320.174 512.141 319.786C512.494 319.39 512.903 319.058 513.367 318.79C513.977 318.438 514.486 318.3 514.895 318.376C515.311 318.44 515.622 318.664 515.83 319.048C516.038 319.424 516.142 319.9 516.142 320.476V321.076L511.143 323.962V322.942L515.238 320.578L514.791 321.34C514.791 320.924 514.739 320.598 514.635 320.362C514.531 320.126 514.372 319.99 514.157 319.954C513.949 319.914 513.686 319.986 513.367 320.17C513.049 320.354 512.778 320.594 512.557 320.89C512.335 321.186 512.165 321.528 512.047 321.916C511.937 322.292 511.881 322.7 511.881 323.14C511.881 323.548 511.937 323.88 512.047 324.136C512.158 324.384 512.328 324.534 512.557 324.586C512.785 324.63 513.076 324.55 513.43 324.346C513.783 324.142 514.07 323.896 514.292 323.608C514.514 323.312 514.656 323.026 514.718 322.75L516.048 321.982C515.965 322.478 515.806 322.962 515.57 323.434C515.335 323.906 515.034 324.34 514.666 324.736C514.306 325.128 513.894 325.458 513.43 325.726ZM520.768 321.261V319.329L520.529 319.467V317.319C520.529 316.943 520.449 316.709 520.29 316.617C520.13 316.525 519.884 316.575 519.552 316.767C519.379 316.867 519.171 316.991 518.928 317.139C518.686 317.287 518.44 317.441 518.191 317.601C517.948 317.749 517.73 317.887 517.536 318.015V316.599C517.695 316.491 517.875 316.371 518.076 316.239C518.277 316.107 518.482 315.981 518.689 315.861C518.904 315.729 519.105 315.609 519.292 315.501C519.874 315.165 520.356 314.975 520.737 314.931C521.125 314.883 521.416 314.991 521.61 315.255C521.811 315.515 521.911 315.949 521.911 316.557V320.601L520.768 321.261ZM518.949 322.479C518.54 322.715 518.18 322.839 517.868 322.851C517.564 322.859 517.324 322.757 517.151 322.545C516.985 322.329 516.902 322.001 516.902 321.561C516.902 321.081 517.002 320.631 517.203 320.211C517.411 319.787 517.699 319.393 518.066 319.029C518.44 318.661 518.876 318.333 519.375 318.045L520.685 317.289V318.285L519.354 319.053C519.022 319.245 518.766 319.489 518.585 319.785C518.412 320.069 518.326 320.359 518.326 320.655C518.326 320.951 518.412 321.141 518.585 321.225C518.766 321.305 519.022 321.249 519.354 321.057C519.555 320.941 519.739 320.795 519.905 320.619C520.078 320.431 520.22 320.205 520.331 319.941C520.449 319.665 520.515 319.347 520.529 318.987L520.882 319.251C520.847 319.727 520.75 320.167 520.591 320.571C520.439 320.971 520.224 321.335 519.947 321.663C519.677 321.979 519.344 322.251 518.949 322.479ZM523.458 319.708V313.192L524.601 312.532V315.328L524.498 315.388C524.498 314.732 524.57 314.142 524.716 313.618C524.861 313.086 525.076 312.626 525.36 312.238C525.651 311.838 526.011 311.514 526.441 311.266L526.503 311.23C526.94 310.978 527.3 310.886 527.584 310.954C527.875 311.01 528.09 311.222 528.228 311.59C528.374 311.946 528.447 312.452 528.447 313.108L528.083 313.318C528.083 312.662 528.156 312.072 528.301 311.548C528.454 311.012 528.672 310.55 528.956 310.162C529.247 309.762 529.607 309.438 530.037 309.19L530.099 309.154C530.535 308.902 530.899 308.808 531.19 308.872C531.481 308.928 531.699 309.138 531.845 309.502C531.997 309.854 532.074 310.358 532.074 311.014V314.734L530.629 315.568V311.692C530.629 311.284 530.539 311.012 530.359 310.876C530.179 310.732 529.922 310.756 529.59 310.948C529.257 311.14 528.99 311.422 528.79 311.794C528.589 312.158 528.488 312.552 528.488 312.976V316.804L527.044 317.638V313.762C527.044 313.354 526.954 313.082 526.773 312.946C526.593 312.802 526.337 312.826 526.004 313.018C525.672 313.21 525.405 313.492 525.204 313.864C525.003 314.228 524.903 314.622 524.903 315.046V318.874L523.458 319.708ZM535.664 312.864C534.888 313.312 534.279 313.476 533.835 313.356C533.399 313.224 533.17 312.828 533.15 312.168L534.449 311.418C534.469 311.63 534.577 311.772 534.771 311.844C534.965 311.916 535.27 311.832 535.685 311.592C536.032 311.392 536.305 311.162 536.506 310.902C536.714 310.638 536.818 310.382 536.818 310.134C536.818 309.918 536.738 309.792 536.579 309.756C536.427 309.716 536.163 309.784 535.789 309.96L535.29 310.188C534.66 310.472 534.175 310.544 533.835 310.404C533.496 310.264 533.326 309.914 533.326 309.354C533.326 308.906 533.423 308.474 533.617 308.058C533.811 307.642 534.078 307.26 534.417 306.912C534.764 306.552 535.159 306.244 535.602 305.988C536.295 305.588 536.856 305.44 537.286 305.544C537.715 305.648 537.94 306.034 537.961 306.702L536.662 307.452C536.648 307.236 536.551 307.1 536.371 307.044C536.191 306.988 535.931 307.058 535.592 307.254C535.287 307.43 535.051 307.634 534.885 307.866C534.719 308.098 534.636 308.322 534.636 308.538C534.636 308.746 534.701 308.868 534.833 308.904C534.972 308.936 535.193 308.884 535.498 308.748L535.997 308.52C536.662 308.216 537.182 308.128 537.556 308.256C537.937 308.38 538.127 308.734 538.127 309.318C538.127 309.75 538.024 310.186 537.816 310.626C537.615 311.054 537.331 311.462 536.963 311.85C536.596 312.238 536.163 312.576 535.664 312.864Z" fill="#FFFAFA"/>
</g>
<path d="M10 0.5H862C867.247 0.5 871.5 4.75329 871.5 10V568C871.5 573.247 867.247 577.5 862 577.5H10C4.7533 577.5 0.5 573.247 0.5 568V10C0.5 4.7533 4.75329 0.5 10 0.5Z" stroke="#0E3572" stroke-opacity="0.1"/>
<defs>
<filter id="filter0_i_1883_1225" x="306" y="149" width="256.722" height="146.304" filterUnits="userSpaceOnUse" color-interpolation-filters="sRGB">
<feFlood flood-opacity="0" result="BackgroundImageFix"/>
<feBlend mode="normal" in="SourceGraphic" in2="BackgroundImageFix" result="shape"/>
<feColorMatrix in="SourceAlpha" type="matrix" values="0 0 0 0 0 0 0 0 0 0 0 0 0 0 0 0 0 0 127 0" result="hardAlpha"/>
<feOffset/>
<feGaussianBlur stdDeviation="4.26055"/>
<feComposite in2="hardAlpha" operator="arithmetic" k2="-1" k3="1"/>
<feColorMatrix type="matrix" values="0 0 0 0 0.054902 0 0 0 0 0.207843 0 0 0 0 0.447059 0 0 0 0.35 0"/>
<feBlend mode="normal" in2="shape" result="effect1_innerShadow_1883_1225"/>
</filter>
<radialGradient id="paint0_radial_1883_1225" cx="0" cy="0" r="1" gradientUnits="userSpaceOnUse" gradientTransform="translate(474.211 528.061) rotate(90) scale(486.926 486.926)">
<stop stop-color="#D9D9D9"/>
<stop offset="0.890272" stop-color="#D9D9D9" stop-opacity="0"/>
</radialGradient>
<linearGradient id="paint1_linear_1883_1225" x1="202.829" y1="141.915" x2="202.829" y2="214.626" gradientUnits="userSpaceOnUse">
<stop stop-color="white"/>
<stop offset="1" stop-color="#3EAFD1"/>
</linearGradient>
<clipPath id="clip0_1883_1225">
<path d="M0 9.99999C0 4.47714 4.47715 0 10 0H862C867.523 0 872 4.47715 872 10V568C872 573.523 867.523 578 862 578H9.99999C4.47714 578 0 573.523 0 568V9.99999Z" fill="white"/>
</clipPath>
<clipPath id="clip1_1883_1225">
<rect width="40" height="40" fill="white" transform="matrix(0.866025 0.5 -0.866025 0.5 653.641 148)"/>
</clipPath>
<clipPath id="clip2_1883_1225">
<rect width="40" height="40" fill="white" transform="matrix(0.866025 -0.5 0.866025 0.5 168 161)"/>
</clipPath>
<clipPath id="clip3_1883_1225">
<rect width="40" height="40" fill="white" transform="matrix(0.866025 0.5 -0.866025 0.5 213.641 402)"/>
</clipPath>
<clipPath id="clip4_1883_1225">
<rect width="40" height="40" fill="white" transform="matrix(0.866025 -0.5 0.866025 0.5 629 428)"/>
</clipPath>
</defs>
</svg>
