<svg width="648" height="568" viewBox="0 0 648 568" fill="none" xmlns="http://www.w3.org/2000/svg">
<g clip-path="url(#clip0_2334_334)">
<g opacity="0.5">
<mask id="mask0_2334_334" style="mask-type:alpha" maskUnits="userSpaceOnUse" x="-530" y="-209" width="1709" height="987">
<rect width="986.692" height="986.692" transform="matrix(0.866025 0.5 -0.866025 0.5 324.5 -209)" fill="url(#paint0_radial_2334_334)"/>
</mask>
<g mask="url(#mask0_2334_334)">
<path d="M304.758 -196.664L-508.936 273.122" stroke="#B3B3B3" stroke-opacity="0.5"/>
<path d="M340.361 -176.11L-473.332 293.676" stroke="#B3B3B3" stroke-opacity="0.5"/>
<path d="M375.965 -155.552L-437.729 314.234" stroke="#B3B3B3" stroke-opacity="0.5"/>
<path d="M411.57 -134.996L-402.123 334.79" stroke="#B3B3B3" stroke-opacity="0.5"/>
<path d="M447.172 -114.441L-366.522 355.345" stroke="#B3B3B3" stroke-opacity="0.5"/>
<path d="M482.779 -93.8838L-330.914 375.902" stroke="#B3B3B3" stroke-opacity="0.5"/>
<path d="M518.381 -73.3274L-295.313 396.459" stroke="#B3B3B3" stroke-opacity="0.5"/>
<path d="M553.984 -52.7732L-259.709 417.013" stroke="#B3B3B3" stroke-opacity="0.5"/>
<path d="M589.594 -32.2156L-224.1 437.571" stroke="#B3B3B3" stroke-opacity="0.5"/>
<path d="M625.195 -11.6597L-188.498 458.126" stroke="#B3B3B3" stroke-opacity="0.5"/>
<path d="M660.799 8.89575L-152.895 478.682" stroke="#B3B3B3" stroke-opacity="0.5"/>
<path d="M696.402 29.4524L-117.291 499.238" stroke="#B3B3B3" stroke-opacity="0.5"/>
<path d="M732.008 50.009L-81.6856 519.795" stroke="#B3B3B3" stroke-opacity="0.5"/>
<path d="M767.611 70.5634L-46.0821 540.349" stroke="#B3B3B3" stroke-opacity="0.5"/>
<path d="M803.217 91.1211L-10.4766 560.907" stroke="#B3B3B3" stroke-opacity="0.5"/>
<path d="M838.818 111.677L25.1249 581.463" stroke="#B3B3B3" stroke-opacity="0.5"/>
<path d="M874.426 132.232L60.7324 602.018" stroke="#B3B3B3" stroke-opacity="0.5"/>
<path d="M910.027 152.788L96.3339 622.574" stroke="#B3B3B3" stroke-opacity="0.5"/>
<path d="M945.633 173.345L131.939 643.131" stroke="#B3B3B3" stroke-opacity="0.5"/>
<path d="M981.234 193.9L167.541 663.686" stroke="#B3B3B3" stroke-opacity="0.5"/>
<path d="M1016.84 214.458L203.146 684.244" stroke="#B3B3B3" stroke-opacity="0.5"/>
<path d="M1052.45 235.013L238.752 704.799" stroke="#B3B3B3" stroke-opacity="0.5"/>
<path d="M1088.05 255.569L274.357 725.355" stroke="#B3B3B3" stroke-opacity="0.5"/>
<path d="M1123.65 276.125L309.959 745.911" stroke="#B3B3B3" stroke-opacity="0.5"/>
<path d="M1159.26 296.681L345.564 766.467" stroke="#B3B3B3" stroke-opacity="0.5"/>
<path d="M304.758 -196.664L1159.26 296.681" stroke="#B3B3B3" stroke-opacity="0.5"/>
<path d="M270.852 -177.09L1125.35 316.256" stroke="#B3B3B3" stroke-opacity="0.5"/>
<path d="M236.949 -157.515L1091.45 335.83" stroke="#B3B3B3" stroke-opacity="0.5"/>
<path d="M203.043 -137.941L1057.54 355.405" stroke="#B3B3B3" stroke-opacity="0.5"/>
<path d="M169.141 -118.367L1023.64 374.979" stroke="#B3B3B3" stroke-opacity="0.5"/>
<path d="M135.236 -98.7927L989.736 394.553" stroke="#B3B3B3" stroke-opacity="0.5"/>
<path d="M101.334 -79.2173L955.834 414.128" stroke="#B3B3B3" stroke-opacity="0.5"/>
<path d="M67.4297 -59.6429L921.93 433.703" stroke="#B3B3B3" stroke-opacity="0.5"/>
<path d="M33.5254 -40.0693L888.025 453.276" stroke="#B3B3B3" stroke-opacity="0.5"/>
<path d="M-0.376953 -20.4951L854.123 472.851" stroke="#B3B3B3" stroke-opacity="0.5"/>
<path d="M-34.2812 -0.918945L820.219 492.427" stroke="#B3B3B3" stroke-opacity="0.5"/>
<path d="M-68.1875 18.6537L786.312 511.999" stroke="#B3B3B3" stroke-opacity="0.5"/>
<path d="M-102.09 38.229L752.41 531.575" stroke="#B3B3B3" stroke-opacity="0.5"/>
<path d="M-135.994 57.8037L718.506 551.15" stroke="#B3B3B3" stroke-opacity="0.5"/>
<path d="M-169.898 77.3773L684.602 570.723" stroke="#B3B3B3" stroke-opacity="0.5"/>
<path d="M-203.801 96.952L650.699 590.298M116.636 281.956C116.636 281.956 138.335 294.484 152.239 302.512" stroke="#B3B3B3" stroke-opacity="0.5"/>
<path d="M-237.674 116.515L616.826 609.861" stroke="#B3B3B3" stroke-opacity="0.5"/>
<path d="M-271.578 136.088L582.922 629.433" stroke="#B3B3B3" stroke-opacity="0.5"/>
<path d="M-305.482 155.661L549.018 649.007" stroke="#B3B3B3" stroke-opacity="0.5"/>
<path d="M-339.385 175.236L515.115 668.582" stroke="#B3B3B3" stroke-opacity="0.5"/>
<path d="M-373.289 194.811L481.211 688.156" stroke="#B3B3B3" stroke-opacity="0.5"/>
<path d="M-407.191 214.384L447.309 707.73" stroke="#B3B3B3" stroke-opacity="0.5"/>
<path d="M-441.098 233.958L413.402 727.304" stroke="#B3B3B3" stroke-opacity="0.5"/>
<path d="M-475 253.534L379.5 746.88" stroke="#B3B3B3" stroke-opacity="0.5"/>
<path d="M-508.904 273.108L345.596 766.454" stroke="#B3B3B3" stroke-opacity="0.5"/>
</g>
</g>
<path d="M316.592 173L-5.57147 359.841L332.193 552.84L653.353 367.424L316.592 173Z" fill="#0E3572" fill-opacity="0.03"/>
<path d="M197.876 142.926L119.965 396.901L319.752 516.642L319.753 212.149L215.783 153.096L197.876 142.926Z" fill="#E7EBF1"/>
<path d="M419.044 155.781L319.753 212.149L319.752 516.642L542.03 396.901L436.95 145.61L419.044 155.781Z" fill="#BDC8D8"/>
<path fill-rule="evenodd" clip-rule="evenodd" d="M197.876 142.926L215.783 153.096L319.753 212.149L419.044 155.781L436.95 145.61L315.073 75.2436L197.876 142.926Z" fill="white"/>
<path d="M419.174 155.857L436.845 145.819L541.823 396.865L319.937 516.395L319.938 212.193L419.174 155.857ZM215.652 153.173L319.566 212.194L319.565 516.375L120.163 396.866L197.995 143.145L215.652 153.173ZM436.685 145.608L418.915 155.704L319.752 211.999L215.913 153.02L198.138 142.925L315.071 75.3958L436.685 145.608Z" stroke="#0E3572" stroke-width="0.303418"/>
<path d="M217.231 94.9699L217.231 112.535L321.62 172.799L321.62 154.26L232.569 103.681L217.231 94.9699Z" fill="#E7EBF1"/>
<path d="M406.663 105.98L321.62 154.26L321.62 172.799L421.999 114.834V97.2685L406.663 105.98Z" fill="#BDC8D8"/>
<path fill-rule="evenodd" clip-rule="evenodd" d="M217.231 94.9699L232.569 103.681L321.62 154.26L406.663 105.98L421.999 97.2685L317.611 37L217.231 94.9699Z" fill="white"/>
<path d="M406.793 106.057L421.813 97.5248V114.789L321.805 172.538L321.804 154.305L406.793 106.057ZM232.438 103.758L321.433 154.304L321.434 172.54L217.417 112.491L217.416 95.2252L232.438 103.758ZM421.734 97.2675L406.533 105.904L321.619 154.109L232.699 103.605L217.495 94.9688L317.61 37.1518L421.734 97.2675Z" stroke="#0E3572" stroke-width="0.303418"/>
<path d="M327.934 61.746L374.569 88.8414C380.13 92.0725 380.099 97.2251 374.499 100.434L330.911 125.414C325.166 128.706 315.766 128.701 310.033 125.402L263.392 98.5644C257.805 95.3491 257.791 90.1982 263.361 86.9733L306.953 61.7354C312.709 58.4037 322.19 58.4084 327.934 61.746Z" fill="white" stroke="#0E3572" stroke-width="0.2"/>
<path fill-rule="evenodd" clip-rule="evenodd" d="M295.525 83.6726L314.17 72.908C317.06 71.2397 321.707 71.2481 324.609 72.8972L343.165 83.6103C340.286 81.9479 335.616 81.9528 332.726 83.6211L319.333 91.3536L305.964 83.6354C303.039 81.9995 298.415 82.0043 295.525 83.6726Z" fill="#0E3572"/>
<path fill-rule="evenodd" clip-rule="evenodd" d="M356.898 91.5396L343.004 83.518C340.171 81.882 335.546 81.8868 332.657 83.5287L319.195 91.3009C326.072 95.5629 332.597 95.3844 332.597 95.3844L353.59 95.3231C354.46 95.2958 355.33 95.1627 356.132 94.9372L356.843 94.5267C358.311 93.7058 358.338 92.3708 356.898 91.5396Z" fill="#ED1C24"/>
<path fill-rule="evenodd" clip-rule="evenodd" d="M281.672 91.6705L295.593 83.6335C298.437 81.9916 303.061 81.9869 305.94 83.6228L319.354 91.3674C312.451 95.6436 305.95 95.4653 305.95 95.4653L284.957 95.4472C284.087 95.4217 283.218 95.2904 282.417 95.0665L281.709 94.6576C280.224 93.8264 280.251 92.4915 281.672 91.6705Z" fill="#3EAFD1"/>
<path d="M43.2315 340.97L43.2315 358.535L147.62 418.799L147.62 400.26L58.5688 349.681L43.2315 340.97Z" fill="#E7EBF1"/>
<path d="M232.663 351.98L147.62 400.26L147.62 418.799L247.999 360.834V343.268L232.663 351.98Z" fill="#BDC8D8"/>
<path fill-rule="evenodd" clip-rule="evenodd" d="M43.2315 340.97L58.5688 349.681L147.62 400.26L232.663 351.98L247.999 343.268L143.611 283L43.2315 340.97Z" fill="white"/>
<path d="M232.793 352.057L247.813 343.525V360.789L147.805 418.538L147.804 400.305L232.793 352.057ZM58.4384 349.758L147.433 400.304L147.434 418.54L43.4171 358.491L43.4163 341.225L58.4384 349.758ZM247.734 343.268L232.533 351.904L147.619 400.109L58.6989 349.605L43.4949 340.969L143.61 283.152L247.734 343.268Z" stroke="#0E3572" stroke-width="0.303418"/>
<g clip-path="url(#clip1_2334_334)">
<path d="M173.563 331.657L166.311 327.469L161.055 328.725C158.556 327.862 155.851 327.216 153.026 326.808L150.851 323.774L140.593 323.774L138.415 326.81C135.59 327.219 132.886 327.866 130.387 328.729L125.137 327.473L117.883 331.66L120.059 334.694C118.565 336.137 117.446 337.699 116.738 339.33L111.485 340.586L111.483 346.508L116.742 347.766C117.45 349.397 118.57 350.958 120.066 352.401L117.891 355.432L125.143 359.62L130.398 358.364C132.897 359.226 135.603 359.872 138.427 360.281L140.603 363.314L150.86 363.315L153.039 360.279C155.863 359.87 158.568 359.223 161.066 358.36L166.316 359.616L173.571 355.429L171.394 352.394C172.889 350.951 174.008 349.389 174.715 347.759L179.969 346.503L179.97 340.581L174.712 339.323C174.003 337.692 172.883 336.13 171.388 334.688L173.563 331.657Z" stroke="#0E3572" stroke-width="0.830101" stroke-miterlimit="10" stroke-linecap="round" stroke-linejoin="round"/>
<path d="M161.078 352.408C169.556 347.513 169.556 339.576 161.078 334.681C152.599 329.786 138.853 329.786 130.375 334.681C121.896 339.576 121.896 347.513 130.375 352.408C138.853 357.303 152.599 357.303 161.078 352.408Z" stroke="#0E3572" stroke-width="0.830101" stroke-miterlimit="10" stroke-linecap="round" stroke-linejoin="round"/>
<path d="M164.129 349.847L151.367 343.455C152.774 341.356 152.013 338.885 149.08 337.192C146.216 335.539 142.067 335.08 138.49 335.816L143 338.42L143 340.022L139.626 341.97L136.85 341.97L132.34 339.366C131.066 341.432 131.86 343.827 134.724 345.481C137.656 347.174 141.937 347.613 145.571 346.801L156.643 354.169" stroke="#0E3572" stroke-width="0.830101" stroke-miterlimit="10" stroke-linejoin="round"/>
</g>
<path d="M81.2315 223.97L81.2315 241.535L185.62 301.799L185.62 283.26L96.5688 232.681L81.2315 223.97Z" fill="#E7EBF1"/>
<path d="M270.663 234.98L185.62 283.26L185.62 301.799L285.999 243.834V226.268L270.663 234.98Z" fill="#BDC8D8"/>
<path fill-rule="evenodd" clip-rule="evenodd" d="M81.2315 223.97L96.5688 232.681L185.62 283.26L270.663 234.98L285.999 226.268L181.611 166L81.2315 223.97Z" fill="white"/>
<path d="M270.793 235.057L285.813 226.525V243.789L185.805 301.538L185.804 283.305L270.793 235.057ZM96.4384 232.758L185.433 283.304L185.434 301.54L81.4171 241.491L81.4163 224.225L96.4384 232.758ZM285.734 226.268L270.533 234.904L185.619 283.109L96.6989 232.605L81.4949 223.969L181.61 166.152L285.734 226.268Z" stroke="#0E3572" stroke-width="0.303418"/>
<g clip-path="url(#clip2_2334_334)">
<path d="M186.345 202.347L155.922 219.912L186.345 237.477L216.769 219.912L186.345 202.347Z" stroke="#ED1C24" stroke-width="1.5" stroke-miterlimit="10" stroke-linecap="round" stroke-linejoin="round"/>
<path d="M155.838 208.186L135.527 219.912L155.838 231.638L176.148 219.912L155.838 208.186Z" stroke="#ED1C24" stroke-width="1.5" stroke-miterlimit="10" stroke-linecap="round" stroke-linejoin="round"/>
<path d="M201.432 222.832L206.488 219.912L201.432 216.993" stroke="#ED1C24" stroke-width="1.5" stroke-miterlimit="10" stroke-linecap="round" stroke-linejoin="round"/>
<path d="M186.262 219.912H206.488" stroke="#ED1C24" stroke-width="1.5" stroke-miterlimit="10" stroke-linecap="round" stroke-linejoin="round"/>
</g>
<path d="M64.2719 247.238L64.274 342.23L68.6626 344.759L68.6606 249.793L64.2719 247.238Z" fill="#E7EBF1"/>
<path fill-rule="evenodd" clip-rule="evenodd" d="M68.6606 249.793L94.5742 236.256L90.1855 233.722L64.2719 247.238L68.6606 249.793Z" fill="white"/>
<path d="M68.6606 249.793L94.5742 236.256L94.5743 240.821L72.3398 253.73L72.3651 341.813L68.6626 344.759L68.6606 249.793Z" fill="#BDC8D8"/>
<path d="M94.387 236.498L94.3879 240.777L72.2082 253.655L72.154 253.686V253.731L72.1786 341.777L68.848 344.428L68.8455 249.84L94.387 236.498ZM68.4742 249.837L68.4759 344.501L64.4594 342.186L64.4569 247.498L68.4742 249.837ZM90.1786 233.87L94.3041 236.251L68.667 249.645L64.5406 247.242L90.1786 233.87Z" stroke="#0E3572" stroke-width="0.303418"/>
<path d="M77.1117 254.468L77.1138 349.461L81.5025 351.989L81.5004 257.023L77.1117 254.468Z" fill="#E7EBF1"/>
<path fill-rule="evenodd" clip-rule="evenodd" d="M81.5004 257.023L107.414 243.486L103.025 240.952L77.1117 254.468L81.5004 257.023Z" fill="white"/>
<path d="M81.5004 257.023L107.414 243.486L107.414 248.052L85.1797 260.961L85.205 349.043L81.5025 351.989L81.5004 257.023Z" fill="#BDC8D8"/>
<path d="M107.227 243.728L107.228 248.007L85.048 260.885L84.9939 260.916V260.961L85.0184 349.008L81.6878 351.658L81.6853 257.071L107.227 243.728ZM81.314 257.067L81.3157 351.731L77.2993 349.416L77.2967 254.729L81.314 257.067ZM103.018 241.1L107.144 243.482L81.5069 256.875L77.3805 254.472L103.018 241.1Z" stroke="#0E3572" stroke-width="0.303418"/>
<path d="M225.091 286.551L225.089 352.334L222.05 354.085L222.051 288.321L225.091 286.551Z" fill="#E7EBF1"/>
<path fill-rule="evenodd" clip-rule="evenodd" d="M222.051 288.321L204.106 278.946L207.145 277.191L225.091 286.551L222.051 288.321Z" fill="white"/>
<path d="M222.051 288.321L204.106 278.946L204.106 282.108L219.503 291.047L219.486 352.045L222.05 354.085L222.051 288.321Z" fill="#BDC8D8"/>
<path d="M204.293 279.188L204.292 282.063L219.635 290.972L219.689 291.003L219.69 291.047L219.672 352.01L221.865 353.755L221.866 288.368L204.293 279.188ZM222.238 288.364L222.236 353.827L224.904 352.29L224.906 286.812L222.238 288.364ZM207.152 277.339L204.376 278.942L222.045 288.173L224.822 286.555L207.152 277.339Z" stroke="#0E3572" stroke-width="0.303418"/>
<path d="M236.766 279.86L236.765 345.643L233.726 347.394L233.727 281.629L236.766 279.86Z" fill="#E7EBF1"/>
<path fill-rule="evenodd" clip-rule="evenodd" d="M233.727 281.629L215.782 272.255L218.821 270.5L236.766 279.86L233.727 281.629Z" fill="white"/>
<path d="M233.727 281.629L215.782 272.255L215.782 275.416L231.179 284.356L231.162 345.354L233.726 347.394L233.727 281.629Z" fill="#BDC8D8"/>
<path d="M215.969 272.497L215.968 275.372L231.311 284.28L231.365 284.311L231.366 284.356L231.348 345.318L233.541 347.064L233.542 281.677L215.969 272.497ZM233.914 281.673L233.912 347.135L236.58 345.598L236.581 280.12L233.914 281.673ZM218.828 270.648L216.052 272.251L233.721 281.482L236.498 279.864L218.828 270.648Z" stroke="#0E3572" stroke-width="0.303418"/>
<path d="M604.999 340.97L604.999 358.535L500.611 418.799L500.611 400.26L589.662 349.681L604.999 340.97Z" fill="#E7EBF1"/>
<path d="M415.567 351.98L500.611 400.26L500.611 418.799L400.231 360.834V343.268L415.567 351.98Z" fill="#BDC8D8"/>
<path fill-rule="evenodd" clip-rule="evenodd" d="M604.999 340.97L589.662 349.681L500.611 400.26L415.567 351.98L400.231 343.268L504.619 283L604.999 340.97Z" fill="white"/>
<path d="M415.437 352.057L400.418 343.525V360.789L500.425 418.538L500.426 400.305L415.437 352.057ZM589.792 349.758L500.798 400.304L500.797 418.54L604.813 358.491L604.814 341.225L589.792 349.758ZM400.496 343.268L415.698 351.904L500.611 400.109L589.532 349.605L604.736 340.969L504.62 283.152L400.496 343.268Z" stroke="#0E3572" stroke-width="0.303418"/>
<g clip-path="url(#clip3_2334_334)">
<path d="M465.843 340.864L463.913 339.749C459.65 337.288 459.651 333.293 463.913 330.832C467.109 328.987 472.3 328.987 475.497 330.832L473.566 329.718C469.304 327.257 469.304 323.261 473.566 320.801C477.828 318.34 484.75 318.34 489.012 320.801L490.943 321.915C487.746 320.07 487.747 317.073 490.943 315.227C495.205 312.767 502.127 312.767 506.389 315.227L508.32 316.342" stroke="#0E3572" stroke-miterlimit="10" stroke-linecap="round" stroke-linejoin="round"/>
<path d="M508.32 320.801C506.189 319.57 506.189 317.573 508.32 316.342C512.582 313.882 519.504 313.881 523.766 316.342C528.028 318.803 528.028 322.799 523.766 325.259L481.289 349.781C477.027 352.241 470.106 352.241 465.843 349.781C461.581 347.32 461.581 343.324 465.843 340.864C467.975 339.633 471.435 339.633 473.566 340.864" stroke="#0E3572" stroke-miterlimit="10" stroke-linecap="round" stroke-linejoin="round"/>
<path d="M512.181 331.947C509.517 333.485 505.191 333.485 502.527 331.947C499.863 330.409 499.863 327.912 502.527 326.374M492.874 343.093C495.538 341.555 495.538 339.058 492.874 337.52C490.21 335.982 485.884 335.982 483.22 337.52" stroke="#0E3572" stroke-miterlimit="10" stroke-linecap="round" stroke-linejoin="round"/>
<path d="M492.875 360.927C495.007 362.158 498.465 362.158 500.598 360.927C502.73 359.696 502.73 357.7 500.598 356.468C498.465 355.237 495.007 355.237 492.875 356.468C490.742 357.7 490.742 359.696 492.875 360.927Z" stroke="#0E3572" stroke-miterlimit="10" stroke-linecap="round" stroke-linejoin="round"/>
<path d="M535.351 336.405C537.484 337.636 540.942 337.636 543.074 336.405C545.207 335.174 545.207 333.178 543.074 331.947C540.942 330.716 537.484 330.716 535.351 331.947C533.219 333.178 533.219 335.174 535.351 336.405Z" stroke="#0E3572" stroke-miterlimit="10" stroke-linecap="round" stroke-linejoin="round"/>
<path d="M531.49 349.781C533.623 351.012 537.08 351.012 539.213 349.781C541.346 348.55 541.346 346.553 539.213 345.322C537.08 344.091 533.623 344.091 531.49 345.322C529.357 346.553 529.357 348.55 531.49 349.781Z" stroke="#0E3572" stroke-miterlimit="10" stroke-linecap="round" stroke-linejoin="round"/>
<path d="M516.043 358.698C518.175 359.929 521.633 359.929 523.766 358.698C525.898 357.467 525.898 355.471 523.766 354.239C521.633 353.008 518.175 353.008 516.043 354.239C513.91 355.471 513.91 357.467 516.043 358.698Z" stroke="#0E3572" stroke-miterlimit="10" stroke-linecap="round" stroke-linejoin="round"/>
<path d="M496.737 355.546L496.737 349.781L489.014 345.322M533.753 334.176L523.767 334.176L516.044 329.718M506.39 335.291L517.975 341.978L525.698 341.978L531.49 345.322M498.667 339.749L510.252 346.437L510.252 350.895L516.044 354.239" stroke="#0E3572" stroke-miterlimit="10" stroke-linecap="round" stroke-linejoin="round"/>
</g>
<path d="M566.999 223.97L566.999 241.535L462.611 301.799L462.611 283.26L551.662 232.681L566.999 223.97Z" fill="#E7EBF1"/>
<path d="M377.567 234.98L462.611 283.26L462.611 301.799L362.231 243.834V226.268L377.567 234.98Z" fill="#BDC8D8"/>
<path fill-rule="evenodd" clip-rule="evenodd" d="M566.999 223.97L551.662 232.681L462.611 283.26L377.567 234.98L362.231 226.268L466.619 166L566.999 223.97Z" fill="white"/>
<path d="M377.437 235.057L362.418 226.525V243.789L462.425 301.538L462.426 283.305L377.437 235.057ZM551.792 232.758L462.798 283.304L462.797 301.54L566.813 241.491L566.814 224.225L551.792 232.758ZM362.496 226.268L377.698 234.904L462.611 283.109L551.532 232.605L566.736 223.969L466.62 166.152L362.496 226.268Z" stroke="#0E3572" stroke-width="0.303418"/>
<g clip-path="url(#clip4_2334_334)">
<path d="M470.235 196.193C468.861 195.399 466.634 195.399 465.26 196.193L417.262 223.904C415.888 224.697 415.888 225.983 417.262 226.777L422.75 229.945L475.723 199.361L470.235 196.193Z" stroke="#ED1C24" stroke-miterlimit="10" stroke-linecap="round" stroke-linejoin="round"/>
<path d="M422.749 229.945L460.018 251.462C461.392 252.256 463.62 252.256 464.993 251.462L512.991 223.751C514.365 222.958 514.365 221.672 512.991 220.878L475.722 199.361L422.749 229.945Z" stroke="#ED1C24" stroke-miterlimit="10" stroke-linecap="round" stroke-linejoin="round"/>
<path d="M483.004 210.684C484.996 211.834 485.993 213.342 485.992 214.85C485.992 216.358 484.996 217.865 483.004 219.015C479.019 221.316 472.559 221.316 468.574 219.015C466.582 217.865 465.586 216.358 465.586 214.85C465.586 213.343 466.582 211.835 468.575 210.685C470.567 209.535 473.178 208.96 475.789 208.959C478.401 208.959 481.012 209.534 483.004 210.684Z" stroke="#ED1C24" stroke-miterlimit="10" stroke-linecap="round" stroke-linejoin="round"/>
<path d="M483.004 210.684C484.996 211.834 485.993 213.342 485.992 214.85L475.789 214.85L468.575 210.685C470.567 209.535 473.178 208.96 475.789 208.959C478.401 208.959 481.012 209.534 483.004 210.684Z" stroke="#ED1C24" stroke-miterlimit="10" stroke-linecap="round" stroke-linejoin="round"/>
<path d="M481.934 226.727L496.363 218.396" stroke="#ED1C24" stroke-miterlimit="10" stroke-linecap="round" stroke-linejoin="round"/>
<path d="M462.337 238.041L457 241.122L446.892 235.287L452.229 232.205L462.337 238.041ZM472.577 232.129L467.24 235.21L450.254 225.403L455.591 222.322L472.577 232.129Z" stroke="#ED1C24" stroke-miterlimit="10" stroke-linecap="round" stroke-linejoin="round"/>
<path d="M455.045 242.251L475.071 230.688" stroke="#ED1C24" stroke-miterlimit="10" stroke-linecap="round" stroke-linejoin="round"/>
<path d="M466.1 242.867L502.423 221.896" stroke="#ED1C24" stroke-miterlimit="10" stroke-linecap="round" stroke-linejoin="round"/>
</g>
<path d="M583.959 247.238L583.956 342.23L579.568 344.759L579.57 249.793L583.959 247.238Z" fill="#E7EBF1"/>
<path fill-rule="evenodd" clip-rule="evenodd" d="M579.57 249.793L553.656 236.256L558.045 233.722L583.959 247.238L579.57 249.793Z" fill="white"/>
<path d="M579.57 249.793L553.656 236.256L553.656 240.821L575.891 253.73L575.865 341.813L579.568 344.759L579.57 249.793Z" fill="#BDC8D8"/>
<path d="M553.843 236.498L553.843 240.777L576.022 253.655L576.076 253.686V253.731L576.052 341.777L579.382 344.428L579.385 249.84L553.843 236.498ZM579.756 249.837L579.755 344.501L583.771 342.186L583.774 247.498L579.756 249.837ZM558.052 233.87L553.926 236.251L579.563 249.645L583.69 247.242L558.052 233.87Z" stroke="#0E3572" stroke-width="0.303418"/>
<path d="M571.119 254.468L571.117 349.461L566.728 351.989L566.73 257.023L571.119 254.468Z" fill="#E7EBF1"/>
<path fill-rule="evenodd" clip-rule="evenodd" d="M566.73 257.023L540.816 243.486L545.205 240.952L571.119 254.468L566.73 257.023Z" fill="white"/>
<path d="M566.73 257.023L540.816 243.486L540.816 248.052L563.051 260.961L563.026 349.043L566.728 351.989L566.73 257.023Z" fill="#BDC8D8"/>
<path d="M541.004 243.728L541.003 248.007L563.182 260.885L563.237 260.916V260.961L563.212 349.008L566.543 351.658L566.545 257.071L541.004 243.728ZM566.916 257.067L566.915 351.731L570.931 349.416L570.934 254.729L566.916 257.067ZM545.212 241.1L541.087 243.482L566.724 256.875L570.85 254.472L545.212 241.1Z" stroke="#0E3572" stroke-width="0.303418"/>
<path d="M423.14 286.551L423.141 352.334L426.181 354.085L426.179 288.321L423.14 286.551Z" fill="#E7EBF1"/>
<path fill-rule="evenodd" clip-rule="evenodd" d="M426.179 288.321L444.124 278.946L441.085 277.191L423.14 286.551L426.179 288.321Z" fill="white"/>
<path d="M426.179 288.321L444.124 278.946L444.125 282.108L428.727 291.047L428.745 352.045L426.181 354.085L426.179 288.321Z" fill="#BDC8D8"/>
<path d="M443.937 279.188L443.938 282.063L428.596 290.972L428.542 291.003L428.541 291.047L428.558 352.01L426.365 353.755L426.365 288.368L443.937 279.188ZM425.992 288.364L425.994 353.827L423.327 352.29L423.325 286.812L425.992 288.364ZM441.078 277.339L443.855 278.942L426.185 288.173L423.409 286.555L441.078 277.339Z" stroke="#0E3572" stroke-width="0.303418"/>
<path d="M411.464 279.86L411.466 345.643L414.505 347.394L414.503 281.629L411.464 279.86Z" fill="#E7EBF1"/>
<path fill-rule="evenodd" clip-rule="evenodd" d="M414.503 281.629L432.449 272.255L429.41 270.5L411.464 279.86L414.503 281.629Z" fill="white"/>
<path d="M414.503 281.629L432.449 272.255L432.449 275.416L417.051 284.356L417.069 345.354L414.505 347.394L414.503 281.629Z" fill="#BDC8D8"/>
<path d="M432.262 272.497L432.263 275.372L416.92 284.28L416.866 284.311L416.865 284.356L416.883 345.318L414.69 347.064L414.689 281.677L432.262 272.497ZM414.317 281.673L414.318 347.135L411.651 345.598L411.649 280.12L414.317 281.673ZM429.402 270.648L432.179 272.251L414.509 281.482L411.733 279.864L429.402 270.648Z" stroke="#0E3572" stroke-width="0.303418"/>
<path d="M224.027 128.089L224.029 207.482L227.697 209.596L227.695 130.225L224.027 128.089Z" fill="#E7EBF1"/>
<path fill-rule="evenodd" clip-rule="evenodd" d="M227.695 130.225L249.353 118.911L245.685 116.793L224.027 128.089L227.695 130.225Z" fill="white"/>
<path d="M227.695 130.225L249.353 118.911L249.353 122.726L230.77 133.515L230.791 207.133L227.697 209.596L227.695 130.225Z" fill="#BDC8D8"/>
<path d="M249.166 119.152L249.167 122.682L230.639 133.44L230.584 133.471L230.584 133.515L230.605 207.098L227.881 209.265L227.88 130.272L249.166 119.152ZM227.508 130.269L227.51 209.337L224.214 207.438L224.213 128.35L227.508 130.269ZM245.678 116.941L249.083 118.907L227.701 130.076L224.295 128.093L245.678 116.941Z" stroke="#0E3572" stroke-width="0.303418"/>
<path d="M422.041 127.9L422.04 207.293L418.372 209.406L418.373 130.035L422.041 127.9Z" fill="#E7EBF1"/>
<path fill-rule="evenodd" clip-rule="evenodd" d="M418.373 130.035L396.715 118.721L400.383 116.603L422.041 127.9L418.373 130.035Z" fill="white"/>
<path d="M418.373 130.035L396.715 118.721L396.715 122.537L415.298 133.326L415.277 206.944L418.372 209.406L418.373 130.035Z" fill="#BDC8D8"/>
<path d="M396.902 118.963L396.901 122.492L415.43 133.25L415.484 133.282L415.485 133.326L415.464 206.909L418.187 209.076L418.189 130.083L396.902 118.963ZM418.56 130.079L418.558 209.147L421.854 207.249L421.856 128.161L418.56 130.079ZM400.391 116.751L396.986 118.717L418.367 129.887L421.773 127.904L400.391 116.751Z" stroke="#0E3572" stroke-width="0.303418"/>
<path d="M479.026 393.219V400.176L325.669 488.632L325.669 481.291L330.96 478.252L479.026 393.219Z" fill="#F4B7BA"/>
<path fill-rule="evenodd" clip-rule="evenodd" d="M330.96 478.252L325.669 481.291L173 393.5L178.518 390.322L325.001 474.811L325.772 475.257L473.508 390.041L479.026 393.219L330.96 478.252Z" fill="white"/>
<path d="M325.669 481.291L325.669 488.632L173 400.456L173 393.5L325.669 481.291Z" fill="#F7E4E5"/>
<path d="M325.518 481.378V488.369L173.151 400.368V393.762L325.518 481.378ZM478.874 400.087L325.82 488.369V481.378L331.035 478.384L478.874 393.48V400.087ZM478.722 393.219L330.884 478.12L325.669 481.115L173.305 393.5L178.518 390.496L324.925 474.942L325.696 475.389L325.772 475.433L325.849 475.389L473.507 390.216L478.722 393.219Z" stroke="#0E3572" stroke-width="0.303418"/>
<path d="M320.689 470.131L358.5 492.053L320.689 513.645L283.001 491.888L320.689 470.131Z" fill="#C3D0E4"/>
<path d="M357.996 492.051L320.691 513.356L283.503 491.888L320.689 470.421L357.996 492.051Z" stroke="white" stroke-opacity="0.2" stroke-width="0.579511"/>
<mask id="path-116-inside-1_2334_334" fill="white">
<path d="M339.662 477.372L354.51 477.406V485.879L320.609 505.653L287.632 486.584L286.41 485.879L286.412 485.877V477.256L301.29 477.288L320.403 466.255L339.662 477.372Z"/>
</mask>
<path d="M339.662 477.372L354.51 477.406V485.879L320.609 505.653L287.632 486.584L286.41 485.879L286.412 485.877V477.256L301.29 477.288L320.403 466.255L339.662 477.372Z" fill="#0E3572" fill-opacity="0.1"/>
<path d="M339.662 477.372L339.562 477.546L339.608 477.572L339.662 477.572L339.662 477.372ZM354.51 477.406H354.71V477.206L354.51 477.206L354.51 477.406ZM354.51 485.879L354.611 486.052L354.71 485.994V485.879H354.51ZM320.609 505.653L320.509 505.826L320.61 505.884L320.71 505.825L320.609 505.653ZM287.632 486.584L287.732 486.411L287.732 486.411L287.632 486.584ZM286.41 485.879L286.269 485.738L286.084 485.922L286.31 486.052L286.41 485.879ZM286.412 485.877L286.554 486.019L286.612 485.96V485.877H286.412ZM286.412 477.256L286.413 477.056L286.212 477.056V477.256H286.412ZM301.29 477.288L301.29 477.488L301.343 477.488L301.39 477.462L301.29 477.288ZM320.403 466.255L320.503 466.082L320.403 466.024L320.303 466.082L320.403 466.255ZM339.662 477.372L339.662 477.572L354.509 477.606L354.51 477.406L354.51 477.206L339.663 477.172L339.662 477.372ZM354.51 477.406H354.31V485.879H354.51H354.71V477.406H354.51ZM354.51 485.879L354.409 485.706L320.509 505.48L320.609 505.653L320.71 505.825L354.611 486.052L354.51 485.879ZM320.609 505.653L320.709 505.479L287.732 486.411L287.632 486.584L287.532 486.757L320.509 505.826L320.609 505.653ZM287.632 486.584L287.732 486.411L286.51 485.706L286.41 485.879L286.31 486.052L287.532 486.757L287.632 486.584ZM286.41 485.879L286.552 486.021L286.554 486.019L286.412 485.877L286.271 485.736L286.269 485.738L286.41 485.879ZM286.412 485.877H286.612V477.256H286.412H286.212V485.877H286.412ZM286.412 477.256L286.412 477.456L301.29 477.488L301.29 477.288L301.29 477.088L286.413 477.056L286.412 477.256ZM301.29 477.288L301.39 477.462L320.503 466.428L320.403 466.255L320.303 466.082L301.19 477.115L301.29 477.288ZM320.403 466.255L320.303 466.428L339.562 477.546L339.662 477.372L339.762 477.199L320.503 466.082L320.403 466.255Z" fill="#0E3572" mask="url(#path-116-inside-1_2334_334)"/>
<path d="M354.076 477.404L320.407 496.631L286.845 477.257L320.406 457.882L354.076 477.404Z" fill="white" stroke="#0E3572" stroke-width="0.5"/>
<mask id="path-119-inside-2_2334_334" fill="white">
<path d="M339.662 458.056L354.51 458.089V466.563L320.609 486.336L287.632 467.268L286.41 466.563L286.412 466.561V457.94L301.29 457.972L320.403 446.939L339.662 458.056Z"/>
</mask>
<path d="M339.662 458.056L354.51 458.089V466.563L320.609 486.336L287.632 467.268L286.41 466.563L286.412 466.561V457.94L301.29 457.972L320.403 446.939L339.662 458.056Z" fill="#0E3572" fill-opacity="0.1"/>
<path d="M339.662 458.056L339.562 458.229L339.608 458.256L339.662 458.256L339.662 458.056ZM354.51 458.089H354.71V457.89L354.51 457.889L354.51 458.089ZM354.51 466.563L354.611 466.736L354.71 466.678V466.563H354.51ZM320.609 486.336L320.509 486.51L320.61 486.568L320.71 486.509L320.609 486.336ZM287.632 467.268L287.732 467.095L287.732 467.095L287.632 467.268ZM286.41 466.563L286.269 466.422L286.084 466.606L286.31 466.736L286.41 466.563ZM286.412 466.561L286.554 466.702L286.612 466.644V466.561H286.412ZM286.412 457.94L286.413 457.74L286.212 457.74V457.94H286.412ZM301.29 457.972L301.29 458.172L301.343 458.172L301.39 458.145L301.29 457.972ZM320.403 446.939L320.503 446.766L320.403 446.708L320.303 446.766L320.403 446.939ZM339.662 458.056L339.662 458.256L354.509 458.289L354.51 458.089L354.51 457.889L339.663 457.856L339.662 458.056ZM354.51 458.089H354.31V466.563H354.51H354.71V458.089H354.51ZM354.51 466.563L354.409 466.39L320.509 486.164L320.609 486.336L320.71 486.509L354.611 466.736L354.51 466.563ZM320.609 486.336L320.709 486.163L287.732 467.095L287.632 467.268L287.532 467.441L320.509 486.51L320.609 486.336ZM287.632 467.268L287.732 467.095L286.51 466.39L286.41 466.563L286.31 466.736L287.532 467.441L287.632 467.268ZM286.41 466.563L286.552 466.704L286.554 466.702L286.412 466.561L286.271 466.42L286.269 466.422L286.41 466.563ZM286.412 466.561H286.612V457.94H286.412H286.212V466.561H286.412ZM286.412 457.94L286.412 458.14L301.29 458.172L301.29 457.972L301.29 457.772L286.413 457.74L286.412 457.94ZM301.29 457.972L301.39 458.145L320.503 447.112L320.403 446.939L320.303 446.766L301.19 457.799L301.29 457.972ZM320.403 446.939L320.303 447.112L339.562 458.229L339.662 458.056L339.762 457.883L320.503 446.766L320.403 446.939Z" fill="#0E3572" mask="url(#path-119-inside-2_2334_334)"/>
<path d="M354.076 458.087L320.407 477.315L286.845 457.94L320.406 438.566L354.076 458.087Z" fill="white" stroke="#0E3572" stroke-width="0.5"/>
<mask id="path-122-inside-3_2334_334" fill="white">
<path d="M339.66 438.739L354.51 438.772V447.247L320.609 467.019L288.266 448.319L286.408 447.247L286.411 447.245V438.624L301.289 438.656L320.403 427.623L339.66 438.739Z"/>
</mask>
<path d="M339.66 438.739L354.51 438.772V447.247L320.609 467.019L288.266 448.319L286.408 447.247L286.411 447.245V438.624L301.289 438.656L320.403 427.623L339.66 438.739Z" fill="#0E3572" fill-opacity="0.1"/>
<path d="M339.66 438.739L339.56 438.912L339.606 438.939L339.66 438.939L339.66 438.739ZM354.51 438.772H354.71V438.573L354.51 438.572L354.51 438.772ZM354.51 447.247L354.611 447.419L354.71 447.362V447.247H354.51ZM320.609 467.019L320.509 467.192L320.61 467.25L320.71 467.192L320.609 467.019ZM288.266 448.319L288.366 448.146L288.366 448.146L288.266 448.319ZM286.408 447.247L286.297 447.08L286.029 447.259L286.308 447.42L286.408 447.247ZM286.411 447.245L286.522 447.411L286.611 447.352V447.245H286.411ZM286.411 438.624L286.412 438.424L286.211 438.423V438.624H286.411ZM301.289 438.656L301.289 438.856L301.342 438.856L301.389 438.829L301.289 438.656ZM320.403 427.623L320.503 427.449L320.403 427.392L320.303 427.449L320.403 427.623ZM339.66 438.739L339.66 438.939L354.509 438.972L354.51 438.772L354.51 438.572L339.661 438.539L339.66 438.739ZM354.51 438.772H354.31V447.247H354.51H354.71V438.772H354.51ZM354.51 447.247L354.409 447.074L320.509 466.846L320.609 467.019L320.71 467.192L354.611 447.419L354.51 447.247ZM320.609 467.019L320.709 466.846L288.366 448.146L288.266 448.319L288.166 448.492L320.509 467.192L320.609 467.019ZM288.266 448.319L288.366 448.146L286.508 447.073L286.408 447.247L286.308 447.42L288.166 448.492L288.266 448.319ZM286.408 447.247L286.519 447.413L286.522 447.411L286.411 447.245L286.3 447.078L286.297 447.08L286.408 447.247ZM286.411 447.245H286.611V438.624H286.411H286.211V447.245H286.411ZM286.411 438.624L286.411 438.824L301.289 438.856L301.289 438.656L301.289 438.456L286.412 438.424L286.411 438.624ZM301.289 438.656L301.389 438.829L320.503 427.796L320.403 427.623L320.303 427.449L301.189 438.483L301.289 438.656ZM320.403 427.623L320.303 427.796L339.56 438.912L339.66 438.739L339.76 438.566L320.503 427.449L320.403 427.623Z" fill="#0E3572" mask="url(#path-122-inside-3_2334_334)"/>
<path d="M354.077 438.771L320.407 457.999L286.845 438.624L320.406 419.25L354.077 438.771Z" fill="white" stroke="#0E3572" stroke-width="0.5"/>
<path d="M320.623 429.226L335.57 437.892L320.623 446.428L305.724 437.827L320.623 429.226Z" fill="#2A569C"/>
<path d="M335.068 437.891L320.625 446.139L306.227 437.827L320.623 429.516L335.068 437.891Z" stroke="white" stroke-opacity="0.2" stroke-width="0.579511"/>
<ellipse cx="1.42031" cy="1.42031" rx="1.42031" ry="1.42031" transform="matrix(0.99863 0.052336 -0.139173 0.990268 344.756 446.27)" fill="#0E3572"/>
<ellipse cx="1.42031" cy="1.42031" rx="1.42031" ry="1.42031" transform="matrix(0.99863 0.052336 -0.139173 0.990268 349.301 443.997)" fill="#0E3572"/>
<ellipse cx="1.42031" cy="1.42031" rx="1.42031" ry="1.42031" transform="matrix(0.99863 0.052336 -0.139173 0.990268 340.211 448.542)" fill="#0E3572"/>
</g>
<defs>
<radialGradient id="paint0_radial_2334_334" cx="0" cy="0" r="1" gradientUnits="userSpaceOnUse" gradientTransform="translate(512.606 570.816) rotate(90) scale(526.351 526.351)">
<stop stop-color="#D9D9D9"/>
<stop offset="0.890272" stop-color="#D9D9D9" stop-opacity="0"/>
</radialGradient>
<clipPath id="clip0_2334_334">
<rect width="648" height="568" fill="white"/>
</clipPath>
<clipPath id="clip1_2334_334">
<rect width="58.4305" height="58.4305" fill="white" transform="matrix(0.866025 -0.5 0.866025 0.5 95.125 343.544)"/>
</clipPath>
<clipPath id="clip2_2334_334">
<rect width="49.8244" height="49.8244" fill="white" transform="matrix(0.866025 -0.5 -0.866025 -0.5 176.148 244.824)"/>
</clipPath>
<clipPath id="clip3_2334_334">
<rect width="71.0445" height="71.0445" fill="white" transform="matrix(0.866044 0.499967 -0.866044 0.499967 502.527 302)"/>
</clipPath>
<clipPath id="clip4_2334_334">
<rect width="63.6546" height="63.6546" fill="white" transform="matrix(0.866025 -0.5 0.866025 0.5 410 223.827)"/>
</clipPath>
</defs>
</svg>
