<svg width="324" height="121" viewBox="0 0 324 121" fill="none" xmlns="http://www.w3.org/2000/svg">
<g clip-path="url(#clip0_1857_6639)">
<rect width="324" height="121" fill="white"/>
<g opacity="0.2">
<mask id="mask0_1857_6639" style="mask-type:alpha" maskUnits="userSpaceOnUse" x="-333" y="-224" width="950" height="548">
<rect width="547.521" height="547.521" transform="matrix(0.866025 0.5 -0.866025 0.5 142.167 -224)" fill="url(#paint0_radial_1857_6639)"/>
</mask>
<g mask="url(#mask0_1857_6639)">
<path d="M131.214 -217.155L-320.31 43.5324" stroke="#B3B3B3" stroke-width="1.00012"/>
<path d="M150.971 -205.748L-300.553 54.9389" stroke="#B3B3B3" stroke-width="1.00012"/>
<path d="M170.727 -194.341L-280.796 66.3459" stroke="#B3B3B3" stroke-width="1.00012"/>
<path d="M190.484 -182.935L-261.04 77.7523" stroke="#B3B3B3" stroke-width="1.00012"/>
<path d="M210.241 -171.529L-241.283 89.1584" stroke="#B3B3B3" stroke-width="1.00012"/>
<path d="M229.999 -160.121L-221.524 100.566" stroke="#B3B3B3" stroke-width="1.00012"/>
<path d="M249.755 -148.714L-201.769 111.973" stroke="#B3B3B3" stroke-width="1.00012"/>
<path d="M269.511 -137.309L-182.012 123.378" stroke="#B3B3B3" stroke-width="1.00012"/>
<path d="M289.271 -125.901L-162.252 134.786" stroke="#B3B3B3" stroke-width="1.00012"/>
<path d="M309.026 -114.495L-142.497 146.192" stroke="#B3B3B3" stroke-width="1.00012"/>
<path d="M328.782 -103.088L-122.741 157.599" stroke="#B3B3B3" stroke-width="1.00012"/>
<path d="M348.539 -91.6812L-102.984 169.006" stroke="#B3B3B3" stroke-width="1.00012"/>
<path d="M368.298 -80.2744L-83.2258 180.413" stroke="#B3B3B3" stroke-width="1.00012"/>
<path d="M388.054 -68.8679L-63.4689 191.819" stroke="#B3B3B3" stroke-width="1.00012"/>
<path d="M407.812 -57.4607L-43.7111 203.226" stroke="#B3B3B3" stroke-width="1.00012"/>
<path d="M427.567 -46.0544L-23.956 214.633" stroke="#B3B3B3" stroke-width="1.00012"/>
<path d="M447.326 -34.6487L-4.19723 226.038" stroke="#B3B3B3" stroke-width="1.00012"/>
<path d="M467.082 -23.2417L15.5581 237.445" stroke="#B3B3B3" stroke-width="1.00012"/>
<path d="M486.84 -11.8337L35.3164 248.853" stroke="#B3B3B3" stroke-width="1.00012"/>
<path d="M506.595 -0.427734L55.0718 260.259" stroke="#B3B3B3" stroke-width="1.00012"/>
<path d="M526.353 10.979L74.8296 271.666" stroke="#B3B3B3" stroke-width="1.00012"/>
<path d="M546.11 22.3853L94.5865 283.072" stroke="#B3B3B3" stroke-width="1.00012"/>
<path d="M565.868 33.7922L114.344 294.479" stroke="#B3B3B3" stroke-width="1.00012"/>
<path d="M585.624 45.1997L134.1 305.887" stroke="#B3B3B3" stroke-width="1.00012"/>
<path d="M605.382 56.6055L153.858 317.293" stroke="#B3B3B3" stroke-width="1.00012"/>
<path d="M131.214 -217.155L605.381 56.6058" stroke="#B3B3B3" stroke-width="1.00012"/>
<path d="M112.399 -206.293L586.566 67.4673" stroke="#B3B3B3" stroke-width="1.00012"/>
<path d="M93.5857 -195.431L567.753 78.3299" stroke="#B3B3B3" stroke-width="1.00012"/>
<path d="M74.7717 -184.569L548.939 89.1914" stroke="#B3B3B3" stroke-width="1.00012"/>
<path d="M55.9587 -173.707L530.126 100.054" stroke="#B3B3B3" stroke-width="1.00012"/>
<path d="M37.145 -162.845L511.312 110.915" stroke="#B3B3B3" stroke-width="1.00012"/>
<path d="M18.3323 -151.983L492.499 121.777" stroke="#B3B3B3" stroke-width="1.00012"/>
<path d="M-0.481445 -141.121L473.686 132.64" stroke="#B3B3B3" stroke-width="1.00012"/>
<path d="M-19.2954 -130.26L454.872 143.501" stroke="#B3B3B3" stroke-width="1.00012"/>
<path d="M-38.1079 -119.398L436.059 154.363" stroke="#B3B3B3" stroke-width="1.00012"/>
<path d="M-56.9211 -108.534L417.246 165.226" stroke="#B3B3B3" stroke-width="1.00012"/>
<path d="M-75.7354 -97.6741L398.432 176.086" stroke="#B3B3B3" stroke-width="1.00012"/>
<path d="M-94.5479 -86.811L379.619 186.949" stroke="#B3B3B3" stroke-width="1.00012"/>
<path d="M-113.362 -75.949L360.805 197.812" stroke="#B3B3B3" stroke-width="1.00012"/>
<path d="M-132.176 -65.0872L341.991 208.673" stroke="#B3B3B3" stroke-width="1.00012"/>
<path d="M-150.989 -54.2249L323.178 219.536M26.8232 48.4351C26.8232 48.4351 38.8642 55.387 46.5796 59.8414" stroke="#B3B3B3" stroke-width="1.00012"/>
<path d="M-169.785 -43.3694L304.382 230.391" stroke="#B3B3B3" stroke-width="1.00012"/>
<path d="M-188.599 -32.5088L285.569 241.252" stroke="#B3B3B3" stroke-width="1.00012"/>
<path d="M-207.413 -21.647L266.755 252.114" stroke="#B3B3B3" stroke-width="1.00012"/>
<path d="M-226.225 -10.7852L247.942 262.975" stroke="#B3B3B3" stroke-width="1.00012"/>
<path d="M-245.039 0.0769043L229.128 273.837" stroke="#B3B3B3" stroke-width="1.00012"/>
<path d="M-263.851 10.939L210.316 284.699" stroke="#B3B3B3" stroke-width="1.00012"/>
<path d="M-282.666 21.8005L191.501 295.561" stroke="#B3B3B3" stroke-width="1.00012"/>
<path d="M-301.479 32.6628L172.688 306.423" stroke="#B3B3B3" stroke-width="1.00012"/>
<path d="M-320.292 43.5242L153.875 317.285" stroke="#B3B3B3" stroke-width="1.00012"/>
</g>
</g>
<path d="M25.1481 47.2393L25.1481 50.8655L46.6983 63.3064L46.6983 59.4792L28.3144 49.0376L25.1481 47.2393Z" fill="#0E3572" fill-opacity="0.1"/>
<path d="M109.755 23.2406L46.6983 59.4792L46.6983 63.3064L112.921 25.0683L112.921 21.4421L109.755 23.2406Z" fill="#0E3572" fill-opacity="0.1"/>
<path fill-rule="evenodd" clip-rule="evenodd" d="M25.1481 47.2393L28.3144 49.0376L46.6983 59.4792L109.755 23.2406L112.921 21.4421L91.3712 9.0001L25.1481 47.2393Z" fill="#0E3572"/>
<path d="M109.885 23.3164L109.886 23.3169L112.735 21.6983V25.0243L46.8827 63.0477V59.5245L109.885 23.3164ZM28.1841 49.1145L46.5123 59.5245V63.0477L25.3339 50.8214L25.3331 47.496L28.1841 49.1145ZM112.656 21.441L109.624 23.164L109.624 23.1645L46.6966 59.3282L28.4446 48.9612L25.4109 47.2382L91.3698 9.15226L112.656 21.441Z" stroke="#0E3572" stroke-width="0.303418"/>
<path d="M54.4236 62.7264L54.4236 66.3526L75.9737 78.7935L75.9737 74.9663L57.5898 64.5248L54.4236 62.7264Z" fill="#0E3572" fill-opacity="0.1"/>
<path d="M124.711 46.9972L75.9737 74.9663L75.9737 78.7935L127.877 48.8249L127.877 45.1987L124.711 46.9972Z" fill="#0E3572" fill-opacity="0.1"/>
<path fill-rule="evenodd" clip-rule="evenodd" d="M54.4236 62.7264L57.5898 64.5248L75.9737 74.9663L124.711 46.9972L127.877 45.1987L106.327 32.7567L54.4236 62.7264Z" fill="#0E3572"/>
<path fill-rule="evenodd" clip-rule="evenodd" d="M54.4236 62.7264L57.5898 64.5248L75.9737 74.9663L124.711 46.9972L127.877 45.1987L106.327 32.7567L54.4236 62.7264Z" fill="white" fill-opacity="0.2"/>
<path d="M124.842 47.0734L127.691 45.4549V48.7808L76.1588 78.5342V75.011L124.842 47.0734ZM57.4594 64.6016L75.7876 75.0115V78.5347L54.6092 66.3085L54.6084 62.983L57.4594 64.6016ZM127.612 45.1976L124.58 46.9206L124.58 46.9211L75.9719 74.8152L57.7199 64.4482L54.6862 62.7252L106.326 32.9088L127.612 45.1976Z" stroke="#0E3572" stroke-width="0.303418"/>
<path d="M84.3334 79.2778L84.3334 82.904L105.884 95.3449L105.884 91.5177L87.4997 81.0761L84.3334 79.2778Z" fill="#0E3572" fill-opacity="0.1"/>
<path d="M137.951 73.1741L105.884 91.5177L105.884 95.3449L141.117 75.0019L141.117 71.3756L137.951 73.1741Z" fill="#0E3572" fill-opacity="0.1"/>
<path fill-rule="evenodd" clip-rule="evenodd" d="M84.3334 79.2778L87.4997 81.0761L105.884 91.5177L137.951 73.1741L141.117 71.3756L119.567 58.9336L84.3334 79.2778Z" fill="#0E3572"/>
<path fill-rule="evenodd" clip-rule="evenodd" d="M84.3334 79.2778L87.4997 81.0761L105.884 91.5177L137.951 73.1741L141.117 71.3756L119.567 58.9336L84.3334 79.2778Z" fill="white" fill-opacity="0.4"/>
<path d="M106.069 91.5623L138.081 73.2505L140.93 71.632V74.9579L106.069 95.0855V91.5623ZM87.3691 81.1528L105.697 91.5628V95.086L84.5189 82.8597L84.5181 79.5343L87.3691 81.1528ZM140.852 71.3747L137.82 73.0972L137.82 73.0977L105.882 91.367L87.6296 80.9995L84.5967 79.277L119.566 59.0854L140.852 71.3747Z" stroke="#0E3572" stroke-width="0.303418"/>
<path d="M114.143 95.6281L114.143 99.2544L124.918 105.475L135.694 111.695L135.694 107.868L117.31 97.4265L114.143 95.6281Z" fill="#0E3572" fill-opacity="0.1"/>
<path d="M154.397 97.2405L135.694 107.868L135.694 111.695L157.563 99.0682L157.563 95.442L154.397 97.2405Z" fill="#0E3572" fill-opacity="0.1"/>
<path fill-rule="evenodd" clip-rule="evenodd" d="M114.143 95.6281L117.31 97.4265L135.694 107.868L154.397 97.2405L157.563 95.442L136.013 83L114.143 95.6281Z" fill="#0E3572"/>
<path fill-rule="evenodd" clip-rule="evenodd" d="M114.143 95.6281L117.31 97.4265L135.694 107.868L154.397 97.2405L157.563 95.442L136.013 83L114.143 95.6281Z" fill="white" fill-opacity="0.7"/>
<path d="M154.527 97.3167L157.377 95.6981V99.0241L135.878 111.436V107.913L154.527 97.3167ZM117.179 97.5032L135.507 107.913L135.508 111.437L114.329 99.2101L114.328 95.8846L117.179 97.5032ZM157.298 95.4408L154.266 97.1638L135.693 107.718L117.44 97.3499L114.407 95.6273L136.011 83.1521L157.298 95.4408Z" stroke="#0E3572" stroke-width="0.303418"/>
<mask id="path-60-inside-1_1857_6639" fill="white">
<path fill-rule="evenodd" clip-rule="evenodd" d="M303.714 59.4678L314.978 59.4932V65.877L308.313 69.7129L289.953 80.3018L265 65.877L265.01 65.8711V59.3848L275.924 59.4082L289.584 51.3203L303.714 59.4678Z"/>
</mask>
<path fill-rule="evenodd" clip-rule="evenodd" d="M303.714 59.4678L314.978 59.4932V65.877L308.313 69.7129L289.953 80.3018L265 65.877L265.01 65.8711V59.3848L275.924 59.4082L289.584 51.3203L303.714 59.4678Z" fill="white"/>
<path d="M303.714 59.4678L303.564 59.7277L303.633 59.7677L303.713 59.7679L303.714 59.4678ZM314.978 59.4932H315.278V59.1938L314.978 59.1931L314.978 59.4932ZM314.978 65.877L315.127 66.137L315.278 66.0505V65.877H314.978ZM308.313 69.7129L308.164 69.4528L308.164 69.4529L308.313 69.7129ZM289.953 80.3018L289.803 80.5616L289.953 80.6483L290.103 80.5617L289.953 80.3018ZM265 65.877L264.846 65.6196L264.409 65.8818L264.85 66.1368L265 65.877ZM265.01 65.8711L265.164 66.1284L265.31 66.041V65.8711H265.01ZM265.01 59.3848L265.01 59.0847L264.71 59.084V59.3848H265.01ZM275.924 59.4082L275.923 59.7083L276.006 59.7085L276.077 59.6664L275.924 59.4082ZM289.584 51.3203L289.734 51.0604L289.582 50.9728L289.431 51.0621L289.584 51.3203ZM303.714 59.4678L303.713 59.7679L314.977 59.7932L314.978 59.4932L314.978 59.1931L303.715 59.1677L303.714 59.4678ZM314.978 59.4932H314.677V65.877H314.978H315.278V59.4932H314.978ZM314.978 65.877L314.828 65.6169L308.164 69.4528L308.313 69.7129L308.463 69.973L315.127 66.137L314.978 65.877ZM308.313 69.7129L308.164 69.4529L289.803 80.0418L289.953 80.3018L290.103 80.5617L308.463 69.9728L308.313 69.7129ZM289.953 80.3018L290.103 80.042L265.15 65.6172L265 65.877L264.85 66.1368L289.803 80.5616L289.953 80.3018ZM265 65.877L265.154 66.1343L265.164 66.1284L265.01 65.8711L264.855 65.6138L264.846 65.6196L265 65.877ZM265.01 65.8711H265.31V59.3848H265.01H264.71V65.8711H265.01ZM265.01 59.3848L265.009 59.6848L275.923 59.7083L275.924 59.4082L275.924 59.1081L265.01 59.0847L265.01 59.3848ZM275.924 59.4082L276.077 59.6664L289.737 51.5785L289.584 51.3203L289.431 51.0621L275.771 59.15L275.924 59.4082ZM289.584 51.3203L289.434 51.5803L303.564 59.7277L303.714 59.4678L303.864 59.2078L289.734 51.0604L289.584 51.3203Z" fill="#0E3572" mask="url(#path-60-inside-1_1857_6639)"/>
<path d="M314.719 59.4925L289.956 73.6185L265.272 59.3842L289.955 45.1503L314.719 59.4925Z" fill="white"/>
<path d="M314.719 59.4925L289.956 73.6185L265.272 59.3842L289.955 45.1503L314.719 59.4925Z" fill="#ED1C24" fill-opacity="0.1"/>
<path d="M314.719 59.4925L289.956 73.6185L265.272 59.3842L289.955 45.1503L314.719 59.4925Z" stroke="#0E3572" stroke-width="0.300083"/>
<g clip-path="url(#clip1_1857_6639)">
<path d="M287.52 58.0427C288.99 58.8913 289.016 60.2525 287.577 61.0831C286.138 61.9136 283.78 61.899 282.31 61.0504C280.841 60.2018 280.815 58.8406 282.254 58.0101C283.693 57.1795 286.05 57.1941 287.52 58.0427Z" stroke="#ED1C24" stroke-miterlimit="10"/>
<path d="M288.459 66.0686C288.016 66.3248 287.265 66.2863 286.898 65.9829C285.072 64.4736 285.29 62.4035 287.577 61.0832C289.864 59.763 293.45 59.637 296.064 60.6912C296.59 60.9031 296.656 61.3365 296.213 61.5928L288.459 66.0686Z" stroke="#ED1C24" stroke-miterlimit="10"/>
<path d="M292.703 54.6232C293.841 55.2801 293.861 56.3338 292.747 56.9767C291.634 57.6197 289.808 57.6083 288.67 56.9515C287.533 56.2946 287.513 55.2409 288.627 54.5979C289.74 53.955 291.566 53.9663 292.703 54.6232Z" stroke="#ED1C24" stroke-miterlimit="10"/>
<path d="M291.551 60.0039C290.945 58.9678 291.34 57.789 292.747 56.9768C294.517 55.9548 297.293 55.8573 299.317 56.6734C299.724 56.8374 299.776 57.1729 299.432 57.3712L294.496 60.2207" stroke="#ED1C24" stroke-miterlimit="10"/>
</g>
<path d="M103 15L128.115 0.5L258.679 74.5L269.937 68" stroke="#0E3572" stroke-width="0.5" stroke-dasharray="5 2"/>
<path d="M145.722 4.41663V0.0126327L146.231 0.306633V4.71063L145.722 4.41663ZM148.065 5.76963L146.808 3.09363L147.405 3.43863L148.683 6.12663L148.065 5.76963ZM146.039 3.01563V2.49363L147.057 3.08163C147.216 3.17363 147.353 3.21463 147.468 3.20463C147.582 3.19463 147.67 3.14163 147.733 3.04563C147.795 2.94563 147.826 2.80963 147.826 2.63763C147.826 2.46563 147.795 2.29563 147.733 2.12763C147.67 1.95563 147.582 1.79863 147.468 1.65663C147.353 1.51063 147.216 1.39163 147.057 1.29963L146.039 0.711633V0.195633L146.964 0.729633C147.241 0.889633 147.483 1.07763 147.691 1.29363C147.899 1.50963 148.06 1.75063 148.174 2.01663C148.289 2.28263 148.346 2.57363 148.346 2.88963V2.98563C148.346 3.30163 148.287 3.52563 148.169 3.65763C148.055 3.79163 147.894 3.84663 147.686 3.82263C147.481 3.80063 147.241 3.70963 146.964 3.54963L146.039 3.01563ZM150.416 7.23492C150.174 7.09492 149.964 6.92592 149.787 6.72792C149.611 6.52992 149.467 6.32092 149.356 6.10092C149.245 5.87692 149.162 5.65092 149.107 5.42292C149.055 5.19692 149.029 4.98192 149.029 4.77792V4.66992C149.029 4.46192 149.055 4.27492 149.107 4.10892C149.162 3.94492 149.245 3.81692 149.356 3.72492C149.467 3.62892 149.607 3.58392 149.777 3.58992C149.95 3.59392 150.153 3.66292 150.385 3.79692C150.686 3.97092 150.934 4.18992 151.128 4.45392C151.325 4.71592 151.471 4.99192 151.564 5.28192C151.661 5.57392 151.71 5.85392 151.71 6.12192V6.37992L149.247 4.95792V4.52592L151.346 5.73792L151.232 5.90592C151.232 5.67792 151.201 5.46392 151.138 5.26392C151.076 5.05992 150.982 4.87592 150.858 4.71192C150.733 4.54792 150.575 4.41092 150.385 4.30092C150.187 4.18692 150.023 4.14392 149.891 4.17192C149.763 4.20192 149.666 4.28792 149.6 4.42992C149.538 4.57392 149.507 4.76392 149.507 4.99992C149.507 5.22792 149.538 5.45192 149.6 5.67192C149.666 5.88992 149.766 6.09192 149.902 6.27792C150.037 6.45992 150.208 6.61092 150.416 6.73092C150.634 6.85692 150.811 6.90292 150.946 6.86892C151.085 6.83692 151.168 6.75492 151.195 6.62292L151.663 6.89292C151.625 7.09092 151.549 7.23692 151.434 7.33092C151.32 7.42492 151.176 7.46392 151.003 7.44792C150.83 7.43192 150.634 7.36092 150.416 7.23492ZM153.327 8.90384C152.964 8.69384 152.681 8.44084 152.48 8.14484C152.283 7.85084 152.181 7.54584 152.174 7.22984L152.642 7.49984C152.648 7.62784 152.702 7.77684 152.803 7.94684C152.907 8.11484 153.081 8.26984 153.327 8.41184C153.549 8.53984 153.719 8.58784 153.837 8.55584C153.954 8.51984 154.013 8.42784 154.013 8.27984C154.013 8.14784 153.97 8.02084 153.883 7.89884C153.797 7.77284 153.657 7.64184 153.463 7.50584L153.161 7.29584C152.898 7.11184 152.683 6.89784 152.517 6.65384C152.351 6.40584 152.267 6.14584 152.267 5.87384C152.267 5.66984 152.312 5.52184 152.403 5.42984C152.493 5.33384 152.617 5.29384 152.777 5.30984C152.936 5.32184 153.12 5.38784 153.327 5.50784C153.639 5.68784 153.892 5.91384 154.086 6.18584C154.28 6.45784 154.381 6.75384 154.387 7.07384L153.92 6.80384C153.916 6.67384 153.864 6.53584 153.764 6.38984C153.667 6.24184 153.521 6.11184 153.327 5.99984C153.133 5.88784 152.986 5.84884 152.886 5.88284C152.785 5.91684 152.735 6.00384 152.735 6.14384C152.735 6.26384 152.77 6.37984 152.839 6.49184C152.912 6.60584 153.03 6.71984 153.192 6.83384L153.494 7.04384C153.792 7.25184 154.031 7.48584 154.211 7.74584C154.391 8.00184 154.481 8.26984 154.481 8.54984C154.481 8.74984 154.431 8.89884 154.33 8.99684C154.233 9.09284 154.098 9.13484 153.925 9.12284C153.752 9.10684 153.553 9.03384 153.327 8.90384ZM155.204 11.0912V6.68723L155.599 6.91523V8.30123L155.505 8.23523C155.523 7.90123 155.585 7.65723 155.692 7.50323C155.803 7.34723 155.947 7.26823 156.124 7.26623C156.3 7.26423 156.493 7.32323 156.7 7.44323C156.901 7.55923 157.083 7.70823 157.246 7.89023C157.412 8.07423 157.554 8.27623 157.672 8.49623C157.79 8.71623 157.88 8.94423 157.942 9.18023C158.005 9.41623 158.036 9.64623 158.036 9.87023V9.97823C158.036 10.2022 158.003 10.3952 157.937 10.5572C157.871 10.7192 157.778 10.8412 157.657 10.9232C157.539 11.0072 157.397 11.0452 157.23 11.0372C157.068 11.0312 156.887 10.9712 156.69 10.8572C156.493 10.7432 156.304 10.5842 156.124 10.3802C155.944 10.1762 155.795 9.92823 155.677 9.63623C155.559 9.34423 155.491 9.01123 155.474 8.63723L155.703 9.24923V11.3792L155.204 11.0912ZM156.612 10.3082C156.799 10.4162 156.962 10.4602 157.101 10.4402C157.239 10.4162 157.346 10.3362 157.423 10.2002C157.499 10.0602 157.537 9.87223 157.537 9.63623C157.537 9.39623 157.499 9.16423 157.423 8.94023C157.346 8.71623 157.239 8.51423 157.101 8.33423C156.962 8.15023 156.799 8.00423 156.612 7.89623C156.446 7.80023 156.292 7.75523 156.15 7.76123C156.008 7.76323 155.893 7.82123 155.807 7.93523C155.724 8.04723 155.682 8.21723 155.682 8.44523V8.72123C155.682 8.94123 155.725 9.15423 155.812 9.36023C155.898 9.56623 156.013 9.75223 156.155 9.91823C156.297 10.0842 156.449 10.2142 156.612 10.3082ZM160.065 12.8056C159.822 12.6656 159.609 12.4946 159.426 12.2926C159.242 12.0906 159.086 11.8746 158.958 11.6446C158.833 11.4126 158.738 11.1796 158.672 10.9456C158.61 10.7136 158.579 10.4956 158.579 10.2916V10.1836C158.579 9.97959 158.611 9.79859 158.677 9.64059C158.743 9.47859 158.84 9.35659 158.968 9.27459C159.096 9.18859 159.252 9.15259 159.436 9.16659C159.62 9.17659 159.829 9.24959 160.065 9.38559C160.3 9.52159 160.51 9.69059 160.693 9.89259C160.877 10.0906 161.033 10.3066 161.161 10.5406C161.289 10.7706 161.386 11.0046 161.452 11.2426C161.518 11.4766 161.551 11.6956 161.551 11.8996V12.0076C161.551 12.2116 161.518 12.3926 161.452 12.5506C161.39 12.7106 161.294 12.8336 161.166 12.9196C161.042 13.0036 160.887 13.0406 160.704 13.0306C160.52 13.0206 160.307 12.9456 160.065 12.8056ZM160.065 12.2896C160.273 12.4096 160.449 12.4596 160.595 12.4396C160.744 12.4176 160.856 12.3386 160.932 12.2026C161.012 12.0686 161.052 11.8896 161.052 11.6656C161.052 11.4376 161.012 11.2106 160.932 10.9846C160.853 10.7586 160.738 10.5506 160.589 10.3606C160.444 10.1726 160.269 10.0196 160.065 9.90159C159.864 9.78559 159.689 9.73659 159.54 9.75459C159.391 9.77259 159.277 9.84859 159.197 9.98259C159.117 10.1166 159.077 10.2976 159.077 10.5256C159.077 10.7496 159.116 10.9736 159.192 11.1976C159.271 11.4236 159.384 11.6326 159.529 11.8246C159.678 12.0146 159.857 12.1696 160.065 12.2896ZM162.298 13.9869V10.7829L162.693 11.0109V12.3849L162.63 12.3489C162.63 12.0329 162.667 11.7879 162.74 11.6139C162.816 11.4379 162.93 11.3379 163.083 11.3139C163.235 11.2859 163.427 11.3389 163.659 11.4729L163.68 11.4849C164.03 11.6869 164.288 11.9619 164.454 12.3099C164.624 12.6599 164.709 13.0729 164.709 13.5489V15.3789L164.21 15.0909V13.1409C164.21 12.8929 164.149 12.6599 164.028 12.4419C163.907 12.2199 163.741 12.0479 163.529 11.9259C163.311 11.7999 163.134 11.7759 162.999 11.8539C162.864 11.9319 162.797 12.1009 162.797 12.3609V14.2749L162.298 13.9869ZM166.531 16.5269C166.167 16.3169 165.885 16.0639 165.684 15.7679C165.486 15.4739 165.384 15.1689 165.377 14.8529L165.845 15.1229C165.852 15.2509 165.906 15.3999 166.006 15.5699C166.11 15.7379 166.285 15.8929 166.531 16.0349C166.753 16.1629 166.922 16.2109 167.04 16.1789C167.158 16.1429 167.217 16.0509 167.217 15.9029C167.217 15.7709 167.174 15.6439 167.087 15.5219C167 15.3959 166.86 15.2649 166.666 15.1289L166.365 14.9189C166.101 14.7349 165.887 14.5209 165.72 14.2769C165.554 14.0289 165.471 13.7689 165.471 13.4969C165.471 13.2929 165.516 13.1449 165.606 13.0529C165.696 12.9569 165.821 12.9169 165.98 12.9329C166.139 12.9449 166.323 13.0109 166.531 13.1309C166.843 13.3109 167.096 13.5369 167.29 13.8089C167.484 14.0809 167.584 14.3769 167.591 14.6969L167.123 14.4269C167.12 14.2969 167.068 14.1589 166.967 14.0129C166.87 13.8649 166.725 13.7349 166.531 13.6229C166.337 13.5109 166.19 13.4719 166.089 13.5059C165.989 13.5399 165.939 13.6269 165.939 13.7669C165.939 13.8869 165.973 14.0029 166.042 14.1149C166.115 14.2289 166.233 14.3429 166.396 14.4569L166.697 14.6669C166.995 14.8749 167.234 15.1089 167.414 15.3689C167.594 15.6249 167.684 15.8929 167.684 16.1729C167.684 16.3729 167.634 16.5219 167.534 16.6199C167.437 16.7159 167.302 16.7579 167.128 16.7459C166.955 16.7299 166.756 16.6569 166.531 16.5269ZM169.587 18.3033C169.344 18.1633 169.135 17.9943 168.958 17.7963C168.782 17.5983 168.638 17.3893 168.527 17.1693C168.416 16.9453 168.333 16.7193 168.278 16.4913C168.226 16.2653 168.2 16.0503 168.2 15.8463V15.7383C168.2 15.5303 168.226 15.3433 168.278 15.1773C168.333 15.0133 168.416 14.8853 168.527 14.7933C168.638 14.6973 168.778 14.6523 168.948 14.6583C169.121 14.6623 169.324 14.7313 169.556 14.8653C169.857 15.0393 170.105 15.2583 170.299 15.5223C170.496 15.7843 170.642 16.0603 170.735 16.3503C170.832 16.6423 170.881 16.9223 170.881 17.1903V17.4483L168.418 16.0263V15.5943L170.517 16.8063L170.403 16.9743C170.403 16.7463 170.372 16.5323 170.309 16.3323C170.247 16.1283 170.153 15.9443 170.029 15.7803C169.904 15.6163 169.746 15.4793 169.556 15.3693C169.358 15.2553 169.194 15.2123 169.062 15.2403C168.934 15.2703 168.837 15.3563 168.771 15.4983C168.709 15.6423 168.678 15.8323 168.678 16.0683C168.678 16.2963 168.709 16.5203 168.771 16.7403C168.837 16.9583 168.937 17.1603 169.073 17.3463C169.208 17.5283 169.379 17.6793 169.587 17.7993C169.805 17.9253 169.982 17.9713 170.117 17.9373C170.256 17.9053 170.339 17.8233 170.366 17.6913L170.834 17.9613C170.796 18.1593 170.72 18.3053 170.605 18.3993C170.491 18.4933 170.347 18.5323 170.174 18.5163C170.001 18.5003 169.805 18.4293 169.587 18.3033ZM173.582 20.5018V16.5298L174.091 16.8238V20.7958L173.582 20.5018ZM172.428 15.9838V15.4558L175.245 17.0818V17.6098L172.428 15.9838ZM175.834 21.8022V18.5982L176.333 18.8862V22.0902L175.834 21.8022ZM175.408 18.8082V18.3522L176.333 18.8862V19.3422L175.408 18.8082ZM175.975 18.1632C175.864 18.0992 175.781 18.0172 175.725 17.9172C175.673 17.8192 175.647 17.7182 175.647 17.6142C175.647 17.5102 175.673 17.4392 175.725 17.4012C175.781 17.3652 175.864 17.3792 175.975 17.4432C176.086 17.5072 176.167 17.5882 176.219 17.6862C176.274 17.7862 176.302 17.8882 176.302 17.9922C176.302 18.0962 176.274 18.1662 176.219 18.2022C176.167 18.2402 176.086 18.2272 175.975 18.1632ZM177.298 22.6471V19.4431L177.693 19.6711V21.0451L177.63 21.0091C177.63 20.6971 177.665 20.4531 177.734 20.2771C177.807 20.0991 177.914 19.9931 178.056 19.9591C178.198 19.9251 178.379 19.9711 178.597 20.0971L178.618 20.1091C178.836 20.2351 179.016 20.3971 179.158 20.5951C179.303 20.7951 179.411 21.0251 179.48 21.2851C179.549 21.5411 179.584 21.8251 179.584 22.1371L179.439 22.0531C179.439 21.7411 179.475 21.4981 179.548 21.3241C179.62 21.1461 179.728 21.0401 179.87 21.0061C180.015 20.9741 180.197 21.0211 180.415 21.1471L180.436 21.1591C180.654 21.2851 180.836 21.4481 180.982 21.6481C181.127 21.8481 181.235 22.0781 181.304 22.3381C181.377 22.5961 181.413 22.8811 181.413 23.1931V25.0231L180.914 24.7351V22.7791C180.914 22.5191 180.859 22.2871 180.748 22.0831C180.637 21.8751 180.483 21.7141 180.286 21.6001C180.081 21.4821 179.917 21.4631 179.792 21.5431C179.667 21.6191 179.605 21.7911 179.605 22.0591V23.9791L179.106 23.6911V21.7351C179.106 21.4751 179.051 21.2431 178.94 21.0391C178.829 20.8311 178.675 20.6701 178.477 20.5561C178.273 20.4381 178.108 20.4191 177.984 20.4991C177.859 20.5751 177.797 20.7471 177.797 21.0151V22.9351L177.298 22.6471ZM183.506 26.3394C183.263 26.1994 183.054 26.0304 182.877 25.8324C182.701 25.6344 182.557 25.4254 182.446 25.2054C182.335 24.9814 182.252 24.7554 182.197 24.5274C182.145 24.3014 182.119 24.0864 182.119 23.8824V23.7744C182.119 23.5664 182.145 23.3794 182.197 23.2134C182.252 23.0494 182.335 22.9214 182.446 22.8294C182.557 22.7334 182.697 22.6884 182.867 22.6944C183.04 22.6984 183.243 22.7674 183.475 22.9014C183.776 23.0754 184.024 23.2944 184.218 23.5584C184.415 23.8204 184.561 24.0964 184.654 24.3864C184.751 24.6784 184.8 24.9584 184.8 25.2264V25.4844L182.337 24.0624V23.6304L184.436 24.8424L184.322 25.0104C184.322 24.7824 184.291 24.5684 184.228 24.3684C184.166 24.1644 184.072 23.9804 183.948 23.8164C183.823 23.6524 183.665 23.5154 183.475 23.4054C183.277 23.2914 183.113 23.2484 182.981 23.2764C182.853 23.3064 182.756 23.3924 182.69 23.5344C182.628 23.6784 182.597 23.8684 182.597 24.1044C182.597 24.3324 182.628 24.5564 182.69 24.7764C182.756 24.9944 182.856 25.1964 182.992 25.3824C183.127 25.5644 183.298 25.7154 183.506 25.8354C183.724 25.9614 183.901 26.0074 184.036 25.9734C184.175 25.9414 184.258 25.8594 184.285 25.7274L184.753 25.9974C184.715 26.1954 184.639 26.3414 184.524 26.4354C184.41 26.5294 184.266 26.5684 184.093 26.5524C183.92 26.5364 183.724 26.4654 183.506 26.3394ZM186.592 28.0129V27.2809L187.194 27.6289V28.3609L186.592 28.0129ZM186.592 25.7929V25.0609L187.194 25.4089V26.1409L186.592 25.7929ZM189.815 29.8737V25.7817L190.043 26.1177L188.973 25.4997V25.0077L190.313 25.7817V30.1617L189.815 29.8737ZM192.579 31.5775C192.288 31.4095 192.042 31.1995 191.841 30.9475C191.64 30.6915 191.487 30.4215 191.383 30.1375C191.28 29.8535 191.228 29.5855 191.228 29.3335L191.716 29.6155C191.716 29.7995 191.751 29.9835 191.82 30.1675C191.893 30.3535 191.993 30.5255 192.121 30.6835C192.249 30.8415 192.402 30.9715 192.579 31.0735C192.752 31.1735 192.902 31.2205 193.031 31.2145C193.162 31.2065 193.264 31.1515 193.337 31.0495C193.41 30.9435 193.446 30.7985 193.446 30.6145C193.446 30.4305 193.41 30.2435 193.337 30.0535C193.268 29.8655 193.167 29.6895 193.036 29.5255C192.908 29.3635 192.755 29.2315 192.579 29.1295C192.45 29.0555 192.32 29.0065 192.189 28.9825C192.057 28.9545 191.952 28.9635 191.872 29.0095L191.415 28.7455L191.607 26.5285L193.597 27.6775V28.1695L191.898 27.1885L192.023 27.0625L191.877 28.6765L191.742 28.5445C191.842 28.4865 191.964 28.4645 192.106 28.4785C192.251 28.4945 192.416 28.5555 192.599 28.6615C192.89 28.8295 193.135 29.0405 193.332 29.2945C193.529 29.5445 193.678 29.8085 193.779 30.0865C193.883 30.3625 193.935 30.6185 193.935 30.8545V30.9385C193.935 31.1745 193.883 31.3725 193.779 31.5325C193.675 31.6885 193.521 31.7775 193.316 31.7995C193.115 31.8195 192.87 31.7455 192.579 31.5775ZM195.907 33.3912V29.0112L196.583 29.4012L197.705 32.9712L197.788 33.0192L198.905 30.7422L199.586 31.1352V35.5152L199.077 35.2212V31.4832L199.113 31.5162L198.038 33.7152L197.414 33.3552L196.333 29.9112L196.375 29.9232V33.6612L195.907 33.3912ZM201.919 36.97C201.603 36.788 201.335 36.573 201.113 36.325C200.892 36.077 200.722 35.813 200.604 35.533C200.486 35.253 200.427 34.979 200.427 34.711L200.937 35.005C200.937 35.137 200.966 35.286 201.025 35.452C201.087 35.62 201.189 35.789 201.332 35.959C201.477 36.131 201.673 36.288 201.919 36.43C202.147 36.562 202.334 36.632 202.48 36.64C202.625 36.644 202.733 36.604 202.802 36.52C202.871 36.432 202.906 36.314 202.906 36.166C202.906 35.986 202.838 35.799 202.703 35.605C202.568 35.407 202.371 35.219 202.111 35.041L201.69 34.756C201.354 34.53 201.086 34.255 200.885 33.931C200.684 33.607 200.583 33.275 200.583 32.935C200.583 32.667 200.639 32.465 200.75 32.329C200.864 32.195 201.021 32.13 201.222 32.134C201.423 32.134 201.657 32.211 201.924 32.365C202.187 32.517 202.419 32.707 202.62 32.935C202.821 33.163 202.977 33.411 203.088 33.679C203.202 33.945 203.259 34.218 203.259 34.498L202.75 34.204C202.75 34.064 202.721 33.915 202.662 33.757C202.606 33.601 202.518 33.448 202.397 33.298C202.275 33.148 202.118 33.017 201.924 32.905C201.737 32.797 201.581 32.745 201.456 32.749C201.335 32.755 201.243 32.802 201.181 32.89C201.122 32.976 201.092 33.089 201.092 33.229C201.092 33.389 201.146 33.562 201.254 33.748C201.361 33.934 201.52 34.098 201.732 34.24L202.152 34.525C202.412 34.699 202.636 34.892 202.823 35.104C203.013 35.314 203.159 35.534 203.259 35.764C203.363 35.992 203.415 36.224 203.415 36.46C203.415 36.728 203.353 36.93 203.228 37.066C203.103 37.202 202.928 37.263 202.703 37.249C202.478 37.235 202.217 37.142 201.919 36.97Z" fill="#0E3572"/>
<path d="M154.843 27.4865V23.0825L155.352 23.3765V27.7805L154.843 27.4865ZM157.186 28.8395L155.929 26.1635L156.526 26.5085L157.804 29.1965L157.186 28.8395ZM155.16 26.0855V25.5635L156.178 26.1515C156.337 26.2435 156.474 26.2845 156.588 26.2745C156.703 26.2645 156.791 26.2115 156.853 26.1155C156.916 26.0155 156.947 25.8795 156.947 25.7075C156.947 25.5355 156.916 25.3655 156.853 25.1975C156.791 25.0255 156.703 24.8685 156.588 24.7265C156.474 24.5805 156.337 24.4615 156.178 24.3695L155.16 23.7815V23.2655L156.084 23.7995C156.362 23.9595 156.604 24.1475 156.812 24.3635C157.02 24.5795 157.181 24.8205 157.295 25.0865C157.409 25.3525 157.467 25.6435 157.467 25.9595V26.0555C157.467 26.3715 157.408 26.5955 157.29 26.7275C157.176 26.8615 157.015 26.9165 156.807 26.8925C156.602 26.8705 156.362 26.7795 156.084 26.6195L155.16 26.0855ZM159.537 30.3047C159.294 30.1647 159.085 29.9957 158.908 29.7977C158.732 29.5997 158.588 29.3907 158.477 29.1707C158.366 28.9467 158.283 28.7207 158.227 28.4927C158.176 28.2667 158.15 28.0517 158.15 27.8477V27.7397C158.15 27.5317 158.176 27.3447 158.227 27.1787C158.283 27.0147 158.366 26.8867 158.477 26.7947C158.588 26.6987 158.728 26.6537 158.898 26.6597C159.071 26.6637 159.274 26.7327 159.506 26.8667C159.807 27.0407 160.055 27.2597 160.249 27.5237C160.446 27.7857 160.592 28.0617 160.685 28.3517C160.782 28.6437 160.831 28.9237 160.831 29.1917V29.4497L158.368 28.0277V27.5957L160.467 28.8077L160.353 28.9757C160.353 28.7477 160.322 28.5337 160.259 28.3337C160.197 28.1297 160.103 27.9457 159.979 27.7817C159.854 27.6177 159.696 27.4807 159.506 27.3707C159.308 27.2567 159.144 27.2137 159.012 27.2417C158.884 27.2717 158.787 27.3577 158.721 27.4997C158.659 27.6437 158.628 27.8337 158.628 28.0697C158.628 28.2977 158.659 28.5217 158.721 28.7417C158.787 28.9597 158.887 29.1617 159.023 29.3477C159.158 29.5297 159.329 29.6807 159.537 29.8007C159.755 29.9267 159.932 29.9727 160.067 29.9387C160.205 29.9067 160.289 29.8247 160.316 29.6927L160.784 29.9627C160.746 30.1607 160.67 30.3067 160.555 30.4007C160.441 30.4947 160.297 30.5337 160.124 30.5177C159.951 30.5017 159.755 30.4307 159.537 30.3047ZM162.448 31.9737C162.085 31.7637 161.802 31.5107 161.601 31.2147C161.404 30.9207 161.302 30.6157 161.295 30.2997L161.762 30.5697C161.769 30.6977 161.823 30.8467 161.924 31.0167C162.027 31.1847 162.202 31.3397 162.448 31.4817C162.67 31.6097 162.84 31.6577 162.958 31.6257C163.075 31.5897 163.134 31.4977 163.134 31.3497C163.134 31.2177 163.091 31.0907 163.004 30.9687C162.918 30.8427 162.777 30.7117 162.583 30.5757L162.282 30.3657C162.019 30.1817 161.804 29.9677 161.638 29.7237C161.471 29.4757 161.388 29.2157 161.388 28.9437C161.388 28.7397 161.433 28.5917 161.523 28.4997C161.614 28.4037 161.738 28.3637 161.898 28.3797C162.057 28.3917 162.241 28.4577 162.448 28.5777C162.76 28.7577 163.013 28.9837 163.207 29.2557C163.401 29.5277 163.501 29.8237 163.508 30.1437L163.041 29.8737C163.037 29.7437 162.985 29.6057 162.885 29.4597C162.788 29.3117 162.642 29.1817 162.448 29.0697C162.254 28.9577 162.107 28.9187 162.007 28.9527C161.906 28.9867 161.856 29.0737 161.856 29.2137C161.856 29.3337 161.891 29.4497 161.96 29.5617C162.033 29.6757 162.15 29.7897 162.313 29.9037L162.615 30.1137C162.913 30.3217 163.152 30.5557 163.332 30.8157C163.512 31.0717 163.602 31.3397 163.602 31.6197C163.602 31.8197 163.552 31.9687 163.451 32.0667C163.354 32.1627 163.219 32.2047 163.046 32.1927C162.873 32.1767 162.674 32.1037 162.448 31.9737ZM164.325 34.1611V29.7571L164.72 29.9851V31.3711L164.626 31.3051C164.644 30.9711 164.706 30.7271 164.813 30.5731C164.924 30.4171 165.068 30.3381 165.245 30.3361C165.421 30.3341 165.614 30.3931 165.821 30.5131C166.022 30.6291 166.204 30.7781 166.367 30.9601C166.533 31.1441 166.675 31.3461 166.793 31.5661C166.911 31.7861 167.001 32.0141 167.063 32.2501C167.126 32.4861 167.157 32.7161 167.157 32.9401V33.0481C167.157 33.2721 167.124 33.4651 167.058 33.6271C166.992 33.7891 166.899 33.9111 166.777 33.9931C166.66 34.0771 166.518 34.1151 166.351 34.1071C166.189 34.1011 166.008 34.0411 165.811 33.9271C165.614 33.8131 165.425 33.6541 165.245 33.4501C165.064 33.2461 164.915 32.9981 164.798 32.7061C164.68 32.4141 164.612 32.0811 164.595 31.7071L164.824 32.3191V34.4491L164.325 34.1611ZM165.733 33.3781C165.92 33.4861 166.083 33.5301 166.221 33.5101C166.36 33.4861 166.467 33.4061 166.544 33.2701C166.62 33.1301 166.658 32.9421 166.658 32.7061C166.658 32.4661 166.62 32.2341 166.544 32.0101C166.467 31.7861 166.36 31.5841 166.221 31.4041C166.083 31.2201 165.92 31.0741 165.733 30.9661C165.567 30.8701 165.413 30.8251 165.271 30.8311C165.129 30.8331 165.014 30.8911 164.928 31.0051C164.844 31.1171 164.803 31.2871 164.803 31.5151V31.7911C164.803 32.0111 164.846 32.2241 164.933 32.4301C165.019 32.6361 165.134 32.8221 165.276 32.9881C165.418 33.1541 165.57 33.2841 165.733 33.3781ZM169.186 35.8754C168.943 35.7354 168.73 35.5644 168.546 35.3624C168.363 35.1604 168.207 34.9444 168.079 34.7144C167.954 34.4824 167.859 34.2494 167.793 34.0154C167.731 33.7834 167.7 33.5654 167.7 33.3614V33.2534C167.7 33.0494 167.732 32.8684 167.798 32.7104C167.864 32.5484 167.961 32.4264 168.089 32.3444C168.217 32.2584 168.373 32.2224 168.557 32.2364C168.74 32.2464 168.95 32.3194 169.186 32.4554C169.421 32.5914 169.631 32.7604 169.814 32.9624C169.998 33.1604 170.154 33.3764 170.282 33.6104C170.41 33.8404 170.507 34.0744 170.573 34.3124C170.639 34.5464 170.672 34.7654 170.672 34.9694V35.0774C170.672 35.2814 170.639 35.4624 170.573 35.6204C170.511 35.7804 170.415 35.9034 170.287 35.9894C170.162 36.0734 170.008 36.1104 169.825 36.1004C169.641 36.0904 169.428 36.0154 169.186 35.8754ZM169.186 35.3594C169.393 35.4794 169.57 35.5294 169.716 35.5094C169.865 35.4874 169.977 35.4084 170.053 35.2724C170.133 35.1384 170.173 34.9594 170.173 34.7354C170.173 34.5074 170.133 34.2804 170.053 34.0544C169.974 33.8284 169.859 33.6204 169.71 33.4304C169.565 33.2424 169.39 33.0894 169.186 32.9714C168.985 32.8554 168.81 32.8064 168.661 32.8244C168.512 32.8424 168.398 32.9184 168.318 33.0524C168.238 33.1864 168.198 33.3674 168.198 33.5954C168.198 33.8194 168.236 34.0434 168.313 34.2674C168.392 34.4934 168.505 34.7024 168.65 34.8944C168.799 35.0844 168.978 35.2394 169.186 35.3594ZM171.419 37.0568V33.8528L171.814 34.0808V35.4548L171.751 35.4188C171.751 35.1028 171.788 34.8578 171.86 34.6838C171.937 34.5078 172.051 34.4078 172.203 34.3838C172.356 34.3558 172.548 34.4088 172.78 34.5428L172.801 34.5548C173.151 34.7568 173.409 35.0318 173.575 35.3798C173.745 35.7298 173.83 36.1428 173.83 36.6188V38.4488L173.331 38.1608V36.2108C173.331 35.9628 173.27 35.7298 173.149 35.5118C173.028 35.2898 172.862 35.1178 172.65 34.9958C172.432 34.8698 172.255 34.8458 172.12 34.9238C171.985 35.0018 171.918 35.1708 171.918 35.4308V37.3448L171.419 37.0568ZM175.652 39.5967C175.288 39.3867 175.006 39.1337 174.805 38.8377C174.607 38.5437 174.505 38.2387 174.498 37.9227L174.966 38.1927C174.973 38.3207 175.027 38.4697 175.127 38.6397C175.231 38.8077 175.406 38.9627 175.652 39.1047C175.874 39.2327 176.043 39.2807 176.161 39.2487C176.279 39.2127 176.338 39.1207 176.338 38.9727C176.338 38.8407 176.294 38.7137 176.208 38.5917C176.121 38.4657 175.981 38.3347 175.787 38.1987L175.486 37.9887C175.222 37.8047 175.008 37.5907 174.841 37.3467C174.675 37.0987 174.592 36.8387 174.592 36.5667C174.592 36.3627 174.637 36.2147 174.727 36.1227C174.817 36.0267 174.942 35.9867 175.101 36.0027C175.26 36.0147 175.444 36.0807 175.652 36.2007C175.964 36.3807 176.217 36.6067 176.41 36.8787C176.604 37.1507 176.705 37.4467 176.712 37.7667L176.244 37.4967C176.241 37.3667 176.189 37.2287 176.088 37.0827C175.991 36.9347 175.846 36.8047 175.652 36.6927C175.458 36.5807 175.311 36.5417 175.21 36.5757C175.11 36.6097 175.059 36.6967 175.059 36.8367C175.059 36.9567 175.094 37.0727 175.163 37.1847C175.236 37.2987 175.354 37.4127 175.517 37.5267L175.818 37.7367C176.116 37.9447 176.355 38.1787 176.535 38.4387C176.715 38.6947 176.805 38.9627 176.805 39.2427C176.805 39.4427 176.755 39.5917 176.655 39.6897C176.558 39.7857 176.423 39.8277 176.249 39.8157C176.076 39.7997 175.877 39.7267 175.652 39.5967ZM178.708 41.3731C178.465 41.2331 178.256 41.0641 178.079 40.8661C177.902 40.6681 177.759 40.4591 177.648 40.2391C177.537 40.0151 177.454 39.7891 177.398 39.5611C177.346 39.3351 177.321 39.1201 177.321 38.9161V38.8081C177.321 38.6001 177.346 38.4131 177.398 38.2471C177.454 38.0831 177.537 37.9551 177.648 37.8631C177.759 37.7671 177.899 37.7221 178.069 37.7281C178.242 37.7321 178.445 37.8011 178.677 37.9351C178.978 38.1091 179.226 38.3281 179.42 38.5921C179.617 38.8541 179.763 39.1301 179.856 39.4201C179.953 39.7121 180.002 39.9921 180.002 40.2601V40.5181L177.539 39.0961V38.6641L179.638 39.8761L179.524 40.0441C179.524 39.8161 179.493 39.6021 179.43 39.4021C179.368 39.1981 179.274 39.0141 179.15 38.8501C179.025 38.6861 178.867 38.5491 178.677 38.4391C178.479 38.3251 178.315 38.2821 178.183 38.3101C178.055 38.3401 177.958 38.4261 177.892 38.5681C177.83 38.7121 177.799 38.9021 177.799 39.1381C177.799 39.3661 177.83 39.5901 177.892 39.8101C177.958 40.0281 178.058 40.2301 178.193 40.4161C178.329 40.5981 178.5 40.7491 178.708 40.8691C178.926 40.9951 179.103 41.0411 179.238 41.0071C179.376 40.9751 179.46 40.8931 179.487 40.7611L179.955 41.0311C179.917 41.2291 179.841 41.3751 179.726 41.4691C179.612 41.5631 179.468 41.6021 179.295 41.5861C179.122 41.5701 178.926 41.4991 178.708 41.3731ZM182.703 43.5716V39.5996L183.212 39.8936V43.8656L182.703 43.5716ZM181.549 39.0536V38.5256L184.366 40.1516V40.6796L181.549 39.0536ZM184.955 44.8721V41.6681L185.454 41.9561V45.1601L184.955 44.8721ZM184.529 41.8781V41.4221L185.454 41.9561V42.4121L184.529 41.8781ZM185.096 41.2331C184.985 41.1691 184.902 41.0871 184.846 40.9871C184.794 40.8891 184.768 40.7881 184.768 40.6841C184.768 40.5801 184.794 40.5091 184.846 40.4711C184.902 40.4351 184.985 40.4491 185.096 40.5131C185.206 40.5771 185.288 40.6581 185.34 40.7561C185.395 40.8561 185.423 40.9581 185.423 41.0621C185.423 41.1661 185.395 41.2361 185.34 41.2721C185.288 41.3101 185.206 41.2971 185.096 41.2331ZM186.419 45.7169V42.5129L186.814 42.7409V44.1149L186.751 44.0789C186.751 43.7669 186.786 43.5229 186.855 43.3469C186.928 43.1689 187.035 43.0629 187.177 43.0289C187.319 42.9949 187.499 43.0409 187.718 43.1669L187.738 43.1789C187.957 43.3049 188.137 43.4669 188.279 43.6649C188.424 43.8649 188.532 44.0949 188.601 44.3549C188.67 44.6109 188.705 44.8949 188.705 45.2069L188.559 45.1229C188.559 44.8109 188.596 44.5679 188.669 44.3939C188.741 44.2159 188.849 44.1099 188.991 44.0759C189.136 44.0439 189.318 44.0909 189.536 44.2169L189.557 44.2289C189.775 44.3549 189.957 44.5179 190.103 44.7179C190.248 44.9179 190.356 45.1479 190.425 45.4079C190.498 45.6659 190.534 45.9509 190.534 46.2629V48.0929L190.035 47.8049V45.8489C190.035 45.5889 189.98 45.3569 189.869 45.1529C189.758 44.9449 189.604 44.7839 189.406 44.6699C189.202 44.5519 189.038 44.5329 188.913 44.6129C188.788 44.6889 188.726 44.8609 188.726 45.1289V47.0489L188.227 46.7609V44.8049C188.227 44.5449 188.171 44.3129 188.061 44.1089C187.95 43.9009 187.796 43.7399 187.598 43.6259C187.394 43.5079 187.229 43.4889 187.105 43.5689C186.98 43.6449 186.917 43.8169 186.917 44.0849V46.0049L186.419 45.7169ZM192.627 49.4092C192.384 49.2692 192.175 49.1002 191.998 48.9022C191.821 48.7042 191.678 48.4952 191.567 48.2752C191.456 48.0512 191.373 47.8252 191.317 47.5972C191.265 47.3712 191.24 47.1562 191.24 46.9522V46.8442C191.24 46.6362 191.265 46.4492 191.317 46.2832C191.373 46.1192 191.456 45.9912 191.567 45.8992C191.678 45.8032 191.818 45.7582 191.988 45.7642C192.161 45.7682 192.364 45.8372 192.596 45.9712C192.897 46.1452 193.145 46.3642 193.339 46.6282C193.536 46.8902 193.682 47.1662 193.775 47.4562C193.872 47.7482 193.921 48.0282 193.921 48.2962V48.5542L191.458 47.1322V46.7002L193.557 47.9122L193.443 48.0802C193.443 47.8522 193.411 47.6382 193.349 47.4382C193.287 47.2342 193.193 47.0502 193.069 46.8862C192.944 46.7222 192.786 46.5852 192.596 46.4752C192.398 46.3612 192.234 46.3182 192.102 46.3462C191.974 46.3762 191.877 46.4622 191.811 46.6042C191.749 46.7482 191.718 46.9382 191.718 47.1742C191.718 47.4022 191.749 47.6262 191.811 47.8462C191.877 48.0642 191.977 48.2662 192.112 48.4522C192.248 48.6342 192.419 48.7852 192.627 48.9052C192.845 49.0312 193.022 49.0772 193.157 49.0432C193.295 49.0112 193.379 48.9292 193.406 48.7972L193.874 49.0672C193.836 49.2652 193.76 49.4112 193.645 49.5052C193.531 49.5992 193.387 49.6382 193.214 49.6222C193.041 49.6062 192.845 49.5352 192.627 49.4092ZM195.713 51.0828V50.3508L196.315 50.6988V51.4308L195.713 51.0828ZM195.713 48.8628V48.1308L196.315 48.4788V49.2108L195.713 48.8628ZM198.936 52.9435V48.8515L199.164 49.1875L198.094 48.5695V48.0775L199.434 48.8515V53.2315L198.936 52.9435ZM201.99 54.8153C201.706 54.6513 201.464 54.4553 201.263 54.2273C201.066 53.9973 200.904 53.7483 200.78 53.4803C200.659 53.2143 200.57 52.9373 200.515 52.6493C200.459 52.3573 200.432 52.0673 200.432 51.7793V51.4553C200.432 51.0513 200.485 50.7183 200.593 50.4563C200.704 50.1963 200.873 50.0383 201.102 49.9823C201.334 49.9243 201.63 49.9993 201.99 50.2073C202.351 50.4153 202.645 50.6813 202.874 51.0053C203.102 51.3253 203.27 51.6783 203.378 52.0643C203.489 52.4523 203.544 52.8483 203.544 53.2523V53.5763C203.544 53.8643 203.516 54.1223 203.461 54.3503C203.406 54.5743 203.315 54.7483 203.191 54.8723C203.07 54.9983 202.91 55.0623 202.713 55.0643C202.515 55.0623 202.275 54.9793 201.99 54.8153ZM201.99 54.2873C202.351 54.4953 202.614 54.5073 202.78 54.3233C202.95 54.1373 203.035 53.7383 203.035 53.1263C203.035 52.4863 202.948 51.9783 202.775 51.6023C202.605 51.2283 202.344 50.9393 201.99 50.7353C201.634 50.5293 201.369 50.5143 201.195 50.6903C201.026 50.8683 200.941 51.2733 200.941 51.9053C200.941 52.5213 201.026 53.0203 201.195 53.4023C201.365 53.7843 201.63 54.0793 201.99 54.2873ZM205.652 56.8214V52.4414L206.328 52.8314L207.45 56.4014L207.533 56.4494L208.65 54.1724L209.331 54.5654V58.9454L208.822 58.6514V54.9134L208.858 54.9464L207.783 57.1454L207.159 56.7854L206.078 53.3414L206.12 53.3534V57.0914L205.652 56.8214ZM211.664 60.4002C211.349 60.2182 211.08 60.0032 210.858 59.7552C210.637 59.5072 210.467 59.2432 210.349 58.9632C210.231 58.6832 210.172 58.4092 210.172 58.1412L210.682 58.4352C210.682 58.5672 210.711 58.7162 210.77 58.8822C210.832 59.0502 210.935 59.2192 211.077 59.3892C211.222 59.5612 211.418 59.7182 211.664 59.8602C211.892 59.9922 212.079 60.0622 212.225 60.0702C212.37 60.0742 212.478 60.0342 212.547 59.9502C212.616 59.8622 212.651 59.7442 212.651 59.5962C212.651 59.4162 212.583 59.2292 212.448 59.0352C212.313 58.8372 212.116 58.6492 211.856 58.4712L211.435 58.1862C211.099 57.9602 210.831 57.6852 210.63 57.3612C210.429 57.0372 210.328 56.7052 210.328 56.3652C210.328 56.0972 210.384 55.8952 210.495 55.7592C210.609 55.6252 210.767 55.5602 210.967 55.5642C211.168 55.5642 211.402 55.6412 211.669 55.7952C211.932 55.9472 212.164 56.1372 212.365 56.3652C212.566 56.5932 212.722 56.8412 212.833 57.1092C212.947 57.3752 213.004 57.6482 213.004 57.9282L212.495 57.6342C212.495 57.4942 212.466 57.3452 212.407 57.1872C212.351 57.0312 212.263 56.8782 212.142 56.7282C212.021 56.5782 211.863 56.4472 211.669 56.3352C211.482 56.2272 211.326 56.1752 211.201 56.1792C211.08 56.1852 210.988 56.2322 210.926 56.3202C210.867 56.4062 210.838 56.5192 210.838 56.6592C210.838 56.8192 210.891 56.9922 210.999 57.1782C211.106 57.3642 211.265 57.5282 211.477 57.6702L211.898 57.9552C212.157 58.1292 212.381 58.3222 212.568 58.5342C212.758 58.7442 212.904 58.9642 213.004 59.1942C213.108 59.4222 213.16 59.6542 213.16 59.8902C213.16 60.1582 213.098 60.3602 212.973 60.4962C212.848 60.6322 212.674 60.6932 212.448 60.6792C212.223 60.6652 211.962 60.5722 211.664 60.4002Z" fill="#0E3572"/>
<path d="M158.777 48.026V43.622L159.286 43.916V48.32L158.777 48.026ZM161.121 49.379L159.863 46.703L160.461 47.048L161.739 49.736L161.121 49.379ZM159.094 46.625V46.103L160.112 46.691C160.272 46.783 160.409 46.824 160.523 46.814C160.637 46.804 160.726 46.751 160.788 46.655C160.85 46.555 160.881 46.419 160.881 46.247C160.881 46.075 160.85 45.905 160.788 45.737C160.726 45.565 160.637 45.408 160.523 45.266C160.409 45.12 160.272 45.001 160.112 44.909L159.094 44.321V43.805L160.019 44.339C160.296 44.499 160.539 44.687 160.746 44.903C160.954 45.119 161.115 45.36 161.23 45.626C161.344 45.892 161.401 46.183 161.401 46.499V46.595C161.401 46.911 161.342 47.135 161.224 47.267C161.11 47.401 160.949 47.456 160.741 47.432C160.537 47.41 160.296 47.319 160.019 47.159L159.094 46.625ZM163.471 50.8443C163.229 50.7043 163.019 50.5353 162.843 50.3373C162.666 50.1393 162.522 49.9303 162.411 49.7103C162.301 49.4863 162.217 49.2603 162.162 49.0323C162.11 48.8063 162.084 48.5913 162.084 48.3873V48.2793C162.084 48.0713 162.11 47.8843 162.162 47.7183C162.217 47.5543 162.301 47.4263 162.411 47.3343C162.522 47.2383 162.663 47.1933 162.832 47.1993C163.005 47.2033 163.208 47.2723 163.44 47.4063C163.742 47.5803 163.989 47.7993 164.183 48.0633C164.381 48.3253 164.526 48.6013 164.62 48.8913C164.717 49.1833 164.765 49.4633 164.765 49.7313V49.9893L162.302 48.5673V48.1353L164.402 49.3473L164.287 49.5153C164.287 49.2873 164.256 49.0733 164.194 48.8733C164.131 48.6693 164.038 48.4853 163.913 48.3213C163.788 48.1573 163.631 48.0203 163.44 47.9103C163.243 47.7963 163.078 47.7533 162.947 47.7813C162.818 47.8113 162.721 47.8973 162.656 48.0393C162.593 48.1833 162.562 48.3733 162.562 48.6093C162.562 48.8373 162.593 49.0613 162.656 49.2813C162.721 49.4993 162.822 49.7013 162.957 49.8873C163.092 50.0693 163.264 50.2203 163.471 50.3403C163.69 50.4663 163.866 50.5123 164.001 50.4783C164.14 50.4463 164.223 50.3643 164.251 50.2323L164.718 50.5023C164.68 50.7003 164.604 50.8463 164.49 50.9403C164.376 51.0343 164.232 51.0733 164.059 51.0573C163.885 51.0413 163.69 50.9703 163.471 50.8443ZM166.383 52.5132C166.019 52.3032 165.737 52.0502 165.536 51.7542C165.338 51.4602 165.236 51.1552 165.229 50.8392L165.697 51.1092C165.704 51.2372 165.758 51.3862 165.858 51.5562C165.962 51.7242 166.137 51.8792 166.383 52.0212C166.605 52.1492 166.774 52.1972 166.892 52.1652C167.01 52.1292 167.069 52.0372 167.069 51.8892C167.069 51.7572 167.025 51.6302 166.939 51.5082C166.852 51.3822 166.712 51.2512 166.518 51.1152L166.217 50.9052C165.953 50.7212 165.739 50.5072 165.572 50.2632C165.406 50.0152 165.323 49.7552 165.323 49.4832C165.323 49.2792 165.368 49.1312 165.458 49.0392C165.548 48.9432 165.673 48.9032 165.832 48.9192C165.991 48.9312 166.175 48.9972 166.383 49.1172C166.695 49.2972 166.947 49.5232 167.141 49.7952C167.335 50.0672 167.436 50.3632 167.443 50.6832L166.975 50.4132C166.972 50.2832 166.92 50.1452 166.819 49.9992C166.722 49.8512 166.577 49.7212 166.383 49.6092C166.189 49.4972 166.042 49.4582 165.941 49.4922C165.841 49.5262 165.79 49.6132 165.79 49.7532C165.79 49.8732 165.825 49.9892 165.894 50.1012C165.967 50.2152 166.085 50.3292 166.248 50.4432L166.549 50.6532C166.847 50.8612 167.086 51.0952 167.266 51.3552C167.446 51.6112 167.536 51.8792 167.536 52.1592C167.536 52.3592 167.486 52.5082 167.386 52.6062C167.289 52.7022 167.154 52.7442 166.98 52.7322C166.807 52.7162 166.608 52.6432 166.383 52.5132ZM168.259 54.7006V50.2966L168.654 50.5246V51.9106L168.561 51.8446C168.578 51.5106 168.64 51.2666 168.748 51.1126C168.859 50.9566 169.002 50.8776 169.179 50.8756C169.356 50.8736 169.548 50.9326 169.756 51.0526C169.957 51.1686 170.139 51.3176 170.301 51.4996C170.468 51.6836 170.61 51.8856 170.727 52.1056C170.845 52.3256 170.935 52.5536 170.998 52.7896C171.06 53.0256 171.091 53.2556 171.091 53.4796V53.5876C171.091 53.8116 171.058 54.0046 170.993 54.1666C170.927 54.3286 170.833 54.4506 170.712 54.5326C170.594 54.6166 170.452 54.6546 170.286 54.6466C170.123 54.6406 169.943 54.5806 169.745 54.4666C169.548 54.3526 169.359 54.1936 169.179 53.9896C168.999 53.7856 168.85 53.5376 168.732 53.2456C168.614 52.9536 168.547 52.6206 168.53 52.2466L168.758 52.8586V54.9886L168.259 54.7006ZM169.667 53.9176C169.855 54.0256 170.017 54.0696 170.156 54.0496C170.294 54.0256 170.402 53.9456 170.478 53.8096C170.554 53.6696 170.592 53.4816 170.592 53.2456C170.592 53.0056 170.554 52.7736 170.478 52.5496C170.402 52.3256 170.294 52.1236 170.156 51.9436C170.017 51.7596 169.855 51.6136 169.667 51.5056C169.501 51.4096 169.347 51.3646 169.205 51.3706C169.063 51.3726 168.949 51.4306 168.862 51.5446C168.779 51.6566 168.737 51.8266 168.737 52.0546V52.3306C168.737 52.5506 168.781 52.7636 168.867 52.9696C168.954 53.1756 169.068 53.3616 169.21 53.5276C169.352 53.6936 169.505 53.8236 169.667 53.9176ZM173.12 56.415C172.878 56.275 172.665 56.104 172.481 55.902C172.297 55.7 172.141 55.484 172.013 55.254C171.889 55.022 171.793 54.789 171.728 54.555C171.665 54.323 171.634 54.105 171.634 53.901V53.793C171.634 53.589 171.667 53.408 171.733 53.25C171.799 53.088 171.896 52.966 172.024 52.884C172.152 52.798 172.308 52.762 172.491 52.776C172.675 52.786 172.885 52.859 173.12 52.995C173.356 53.131 173.565 53.3 173.749 53.502C173.932 53.7 174.088 53.916 174.216 54.15C174.345 54.38 174.442 54.614 174.507 54.852C174.573 55.086 174.606 55.305 174.606 55.509V55.617C174.606 55.821 174.573 56.002 174.507 56.16C174.445 56.32 174.35 56.443 174.222 56.529C174.097 56.613 173.943 56.65 173.759 56.64C173.576 56.63 173.363 56.555 173.12 56.415ZM173.12 55.899C173.328 56.019 173.505 56.069 173.65 56.049C173.799 56.027 173.912 55.948 173.988 55.812C174.068 55.678 174.107 55.499 174.107 55.275C174.107 55.047 174.068 54.82 173.988 54.594C173.908 54.368 173.794 54.16 173.645 53.97C173.499 53.782 173.324 53.629 173.12 53.511C172.919 53.395 172.744 53.346 172.595 53.364C172.446 53.382 172.332 53.458 172.252 53.592C172.173 53.726 172.133 53.907 172.133 54.135C172.133 54.359 172.171 54.583 172.247 54.807C172.327 55.033 172.439 55.242 172.585 55.434C172.734 55.624 172.912 55.779 173.12 55.899ZM175.353 57.5963V54.3923L175.748 54.6203V55.9943L175.686 55.9583C175.686 55.6423 175.722 55.3973 175.795 55.2233C175.871 55.0473 175.985 54.9473 176.138 54.9233C176.29 54.8953 176.483 54.9483 176.715 55.0823L176.735 55.0943C177.085 55.2963 177.343 55.5713 177.51 55.9193C177.679 56.2693 177.764 56.6823 177.764 57.1583V58.9883L177.265 58.7003V56.7503C177.265 56.5023 177.205 56.2693 177.084 56.0513C176.962 55.8293 176.796 55.6573 176.585 55.5353C176.367 55.4093 176.19 55.3853 176.055 55.4633C175.92 55.5413 175.852 55.7103 175.852 55.9703V57.8843L175.353 57.5963ZM179.586 60.1363C179.223 59.9263 178.94 59.6733 178.739 59.3773C178.542 59.0833 178.44 58.7783 178.433 58.4623L178.9 58.7323C178.907 58.8603 178.961 59.0093 179.062 59.1793C179.165 59.3473 179.34 59.5023 179.586 59.6443C179.808 59.7723 179.978 59.8203 180.096 59.7883C180.213 59.7523 180.272 59.6603 180.272 59.5123C180.272 59.3803 180.229 59.2533 180.142 59.1313C180.056 59.0053 179.915 58.8743 179.721 58.7383L179.42 58.5283C179.157 58.3443 178.942 58.1303 178.776 57.8863C178.609 57.6383 178.526 57.3783 178.526 57.1063C178.526 56.9023 178.571 56.7543 178.661 56.6623C178.751 56.5663 178.876 56.5263 179.036 56.5423C179.195 56.5543 179.378 56.6203 179.586 56.7403C179.898 56.9203 180.151 57.1463 180.345 57.4183C180.539 57.6903 180.639 57.9863 180.646 58.3063L180.179 58.0363C180.175 57.9063 180.123 57.7683 180.023 57.6223C179.926 57.4743 179.78 57.3443 179.586 57.2323C179.392 57.1203 179.245 57.0813 179.145 57.1153C179.044 57.1493 178.994 57.2363 178.994 57.3763C178.994 57.4963 179.029 57.6123 179.098 57.7243C179.171 57.8383 179.288 57.9523 179.451 58.0663L179.753 58.2763C180.051 58.4843 180.29 58.7183 180.47 58.9783C180.65 59.2343 180.74 59.5023 180.74 59.7823C180.74 59.9823 180.69 60.1313 180.589 60.2293C180.492 60.3253 180.357 60.3673 180.184 60.3553C180.011 60.3393 179.811 60.2663 179.586 60.1363ZM182.642 61.9127C182.4 61.7727 182.19 61.6037 182.014 61.4057C181.837 61.2077 181.693 60.9987 181.582 60.7787C181.471 60.5547 181.388 60.3287 181.333 60.1007C181.281 59.8747 181.255 59.6597 181.255 59.4557V59.3477C181.255 59.1397 181.281 58.9527 181.333 58.7867C181.388 58.6227 181.471 58.4947 181.582 58.4027C181.693 58.3067 181.833 58.2617 182.003 58.2677C182.176 58.2717 182.379 58.3407 182.611 58.4747C182.913 58.6487 183.16 58.8677 183.354 59.1317C183.552 59.3937 183.697 59.6697 183.791 59.9597C183.888 60.2517 183.936 60.5317 183.936 60.7997V61.0577L181.473 59.6357V59.2037L183.572 60.4157L183.458 60.5837C183.458 60.3557 183.427 60.1417 183.365 59.9417C183.302 59.7377 183.209 59.5537 183.084 59.3897C182.959 59.2257 182.802 59.0887 182.611 58.9787C182.414 58.8647 182.249 58.8217 182.118 58.8497C181.989 58.8797 181.892 58.9657 181.827 59.1077C181.764 59.2517 181.733 59.4417 181.733 59.6777C181.733 59.9057 181.764 60.1297 181.827 60.3497C181.892 60.5677 181.993 60.7697 182.128 60.9557C182.263 61.1377 182.435 61.2887 182.642 61.4087C182.861 61.5347 183.037 61.5807 183.172 61.5467C183.311 61.5147 183.394 61.4327 183.422 61.3007L183.889 61.5707C183.851 61.7687 183.775 61.9147 183.661 62.0087C183.546 62.1027 183.403 62.1417 183.23 62.1257C183.056 62.1097 182.861 62.0387 182.642 61.9127ZM186.637 64.1112V60.1392L187.147 60.4332V64.4052L186.637 64.1112ZM185.484 59.5932V59.0652L188.3 60.6912V61.2192L185.484 59.5932ZM188.89 65.4116V62.2076L189.389 62.4956V65.6996L188.89 65.4116ZM188.464 62.4176V61.9616L189.389 62.4956V62.9516L188.464 62.4176ZM189.03 61.7726C188.919 61.7086 188.836 61.6266 188.781 61.5266C188.729 61.4286 188.703 61.3276 188.703 61.2236C188.703 61.1196 188.729 61.0486 188.781 61.0106C188.836 60.9746 188.919 60.9886 189.03 61.0526C189.141 61.1166 189.222 61.1976 189.274 61.2956C189.33 61.3956 189.357 61.4976 189.357 61.6016C189.357 61.7056 189.33 61.7756 189.274 61.8116C189.222 61.8496 189.141 61.8366 189.03 61.7726ZM190.353 66.2565V63.0525L190.748 63.2805V64.6545L190.686 64.6185C190.686 64.3065 190.72 64.0625 190.79 63.8865C190.862 63.7085 190.97 63.6025 191.112 63.5685C191.254 63.5345 191.434 63.5805 191.652 63.7065L191.673 63.7185C191.891 63.8445 192.071 64.0065 192.213 64.2045C192.359 64.4045 192.466 64.6345 192.536 64.8945C192.605 65.1505 192.639 65.4345 192.639 65.7465L192.494 65.6625C192.494 65.3505 192.53 65.1075 192.603 64.9335C192.676 64.7555 192.783 64.6495 192.925 64.6155C193.071 64.5835 193.253 64.6305 193.471 64.7565L193.492 64.7685C193.71 64.8945 193.892 65.0575 194.037 65.2575C194.183 65.4575 194.29 65.6875 194.359 65.9475C194.432 66.2055 194.468 66.4905 194.468 66.8025V68.6325L193.97 68.3445V66.3885C193.97 66.1285 193.914 65.8965 193.803 65.6925C193.693 65.4845 193.538 65.3235 193.341 65.2095C193.137 65.0915 192.972 65.0725 192.847 65.1525C192.723 65.2285 192.66 65.4005 192.66 65.6685V67.5885L192.161 67.3005V65.3445C192.161 65.0845 192.106 64.8525 191.995 64.6485C191.884 64.4405 191.73 64.2795 191.533 64.1655C191.328 64.0475 191.164 64.0285 191.039 64.1085C190.914 64.1845 190.852 64.3565 190.852 64.6245V66.5445L190.353 66.2565ZM196.561 69.9488C196.319 69.8088 196.109 69.6398 195.933 69.4418C195.756 69.2438 195.612 69.0348 195.501 68.8148C195.39 68.5908 195.307 68.3648 195.252 68.1368C195.2 67.9108 195.174 67.6958 195.174 67.4918V67.3838C195.174 67.1758 195.2 66.9888 195.252 66.8228C195.307 66.6588 195.39 66.5308 195.501 66.4388C195.612 66.3428 195.752 66.2978 195.922 66.3038C196.095 66.3078 196.298 66.3768 196.53 66.5108C196.832 66.6848 197.079 66.9038 197.273 67.1678C197.471 67.4298 197.616 67.7058 197.71 67.9958C197.807 68.2878 197.855 68.5678 197.855 68.8358V69.0938L195.392 67.6718V67.2398L197.491 68.4518L197.377 68.6198C197.377 68.3918 197.346 68.1778 197.284 67.9778C197.221 67.7738 197.128 67.5898 197.003 67.4258C196.878 67.2618 196.721 67.1248 196.53 67.0148C196.333 66.9008 196.168 66.8578 196.037 66.8858C195.908 66.9158 195.811 67.0018 195.746 67.1438C195.683 67.2878 195.652 67.4778 195.652 67.7138C195.652 67.9418 195.683 68.1658 195.746 68.3858C195.811 68.6038 195.912 68.8058 196.047 68.9918C196.182 69.1738 196.354 69.3248 196.561 69.4448C196.78 69.5708 196.956 69.6168 197.091 69.5828C197.23 69.5508 197.313 69.4688 197.341 69.3368L197.808 69.6068C197.77 69.8048 197.694 69.9508 197.58 70.0448C197.465 70.1388 197.322 70.1778 197.149 70.1618C196.975 70.1458 196.78 70.0748 196.561 69.9488ZM199.647 71.6223V70.8903L200.25 71.2383V71.9703L199.647 71.6223ZM199.647 69.4023V68.6703L200.25 69.0183V69.7503L199.647 69.4023ZM203.462 73.9331C203.192 73.7771 202.951 73.5821 202.74 73.3481C202.532 73.1161 202.368 72.8651 202.246 72.5951C202.129 72.3271 202.07 72.0611 202.07 71.7971C202.07 71.6211 202.099 71.4801 202.158 71.3741C202.217 71.2641 202.298 71.1871 202.402 71.1431C202.506 71.0991 202.624 71.0871 202.756 71.1071V71.0471C202.652 70.9351 202.557 70.8101 202.47 70.6721C202.387 70.5361 202.319 70.3931 202.267 70.2431C202.219 70.0951 202.195 69.9451 202.195 69.7931C202.195 69.5411 202.252 69.3601 202.366 69.2501C202.484 69.1421 202.638 69.0971 202.828 69.1151C203.022 69.1311 203.234 69.2051 203.462 69.3371C203.694 69.4711 203.906 69.6411 204.096 69.8471C204.29 70.0511 204.444 70.2741 204.559 70.5161C204.673 70.7581 204.73 71.0051 204.73 71.2571C204.73 71.4091 204.706 71.5311 204.657 71.6231C204.609 71.7151 204.541 71.7801 204.455 71.8181C204.372 71.8581 204.276 71.8731 204.169 71.8631V71.9231C204.304 72.0571 204.424 72.2081 204.528 72.3761C204.632 72.5401 204.713 72.7111 204.772 72.8891C204.831 73.0631 204.86 73.2361 204.86 73.4081C204.86 73.6721 204.8 73.8691 204.678 73.9991C204.56 74.1311 204.396 74.1921 204.185 74.1821C203.977 74.1741 203.736 74.0911 203.462 73.9331ZM203.462 73.4411C203.653 73.5511 203.816 73.6111 203.951 73.6211C204.086 73.6271 204.19 73.5871 204.263 73.5011C204.335 73.4111 204.372 73.2781 204.372 73.1021C204.372 72.9261 204.335 72.7531 204.263 72.5831C204.193 72.4151 204.091 72.2581 203.956 72.1121C203.821 71.9621 203.656 71.8311 203.462 71.7191C203.272 71.6091 203.109 71.5511 202.974 71.5451C202.839 71.5351 202.735 71.5731 202.662 71.6591C202.593 71.7471 202.558 71.8791 202.558 72.0551C202.558 72.2311 202.593 72.4051 202.662 72.5771C202.735 72.7471 202.839 72.9071 202.974 73.0571C203.109 73.2031 203.272 73.3311 203.462 73.4411ZM203.462 71.2631C203.698 71.3991 203.887 71.4501 204.029 71.4161C204.171 71.3781 204.242 71.2371 204.242 70.9931C204.242 70.7451 204.169 70.5231 204.024 70.3271C203.882 70.1291 203.694 69.9631 203.462 69.8291C203.23 69.6951 203.041 69.6441 202.896 69.6761C202.754 69.7101 202.683 69.8491 202.683 70.0931C202.683 70.3371 202.754 70.5601 202.896 70.7621C203.041 70.9621 203.23 71.1291 203.462 71.2631ZM206.852 75.7819V71.4019L207.527 71.7919L208.649 75.3619L208.733 75.4099L209.85 73.1329L210.53 73.5259V77.9059L210.021 77.6119V73.8739L210.058 73.9069L208.982 76.1059L208.358 75.7459L207.278 72.3019L207.319 72.3139V76.0519L206.852 75.7819ZM212.863 79.3606C212.548 79.1786 212.279 78.9636 212.058 78.7156C211.836 78.4676 211.666 78.2036 211.549 77.9236C211.431 77.6436 211.372 77.3696 211.372 77.1016L211.881 77.3956C211.881 77.5276 211.911 77.6766 211.969 77.8426C212.032 78.0106 212.134 78.1796 212.276 78.3496C212.421 78.5216 212.617 78.6786 212.863 78.8206C213.092 78.9526 213.279 79.0226 213.424 79.0306C213.57 79.0346 213.677 78.9946 213.746 78.9106C213.816 78.8226 213.85 78.7046 213.85 78.5566C213.85 78.3766 213.783 78.1896 213.648 77.9956C213.513 77.7976 213.315 77.6096 213.055 77.4316L212.635 77.1466C212.298 76.9206 212.03 76.6456 211.829 76.3216C211.628 75.9976 211.528 75.6656 211.528 75.3256C211.528 75.0576 211.583 74.8556 211.694 74.7196C211.808 74.5856 211.966 74.5206 212.167 74.5246C212.368 74.5246 212.602 74.6016 212.868 74.7556C213.132 74.9076 213.364 75.0976 213.565 75.3256C213.766 75.5536 213.921 75.8016 214.032 76.0696C214.147 76.3356 214.204 76.6086 214.204 76.8886L213.695 76.5946C213.695 76.4546 213.665 76.3056 213.606 76.1476C213.551 75.9916 213.462 75.8386 213.341 75.6886C213.22 75.5386 213.062 75.4076 212.868 75.2956C212.681 75.1876 212.525 75.1356 212.401 75.1396C212.279 75.1456 212.188 75.1926 212.125 75.2806C212.066 75.3666 212.037 75.4796 212.037 75.6196C212.037 75.7796 212.091 75.9526 212.198 76.1386C212.305 76.3246 212.465 76.4886 212.676 76.6306L213.097 76.9156C213.357 77.0896 213.58 77.2826 213.767 77.4946C213.958 77.7046 214.103 77.9246 214.204 78.1546C214.308 78.3826 214.36 78.6146 214.36 78.8506C214.36 79.1186 214.297 79.3206 214.173 79.4566C214.048 79.5926 213.873 79.6536 213.648 79.6396C213.423 79.6256 213.161 79.5326 212.863 79.3606Z" fill="#0E3572"/>
<path d="M174.093 73.0538V68.6498L174.603 68.9438V73.3478L174.093 73.0538ZM176.437 74.4068L175.179 71.7308L175.777 72.0758L177.055 74.7638L176.437 74.4068ZM174.41 71.6528V71.1308L175.429 71.7188C175.588 71.8108 175.725 71.8518 175.839 71.8418C175.954 71.8318 176.042 71.7788 176.104 71.6828C176.167 71.5828 176.198 71.4468 176.198 71.2748C176.198 71.1028 176.167 70.9328 176.104 70.7648C176.042 70.5928 175.954 70.4358 175.839 70.2938C175.725 70.1478 175.588 70.0288 175.429 69.9368L174.41 69.3488V68.8328L175.335 69.3668C175.612 69.5268 175.855 69.7148 176.063 69.9308C176.27 70.1468 176.432 70.3878 176.546 70.6538C176.66 70.9198 176.717 71.2108 176.717 71.5268V71.6228C176.717 71.9388 176.658 72.1628 176.541 72.2948C176.426 72.4288 176.265 72.4838 176.057 72.4598C175.853 72.4378 175.612 72.3468 175.335 72.1868L174.41 71.6528ZM178.788 75.8721C178.545 75.7321 178.336 75.5631 178.159 75.3651C177.982 75.1671 177.839 74.9581 177.728 74.7381C177.617 74.5141 177.534 74.2881 177.478 74.0601C177.426 73.8341 177.4 73.6191 177.4 73.4151V73.3071C177.4 73.0991 177.426 72.9121 177.478 72.7461C177.534 72.5821 177.617 72.4541 177.728 72.3621C177.839 72.2661 177.979 72.2211 178.149 72.2271C178.322 72.2311 178.524 72.3001 178.756 72.4341C179.058 72.6081 179.306 72.8271 179.5 73.0911C179.697 73.3531 179.842 73.6291 179.936 73.9191C180.033 74.2111 180.082 74.4911 180.082 74.7591V75.0171L177.619 73.5951V73.1631L179.718 74.3751L179.603 74.5431C179.603 74.3151 179.572 74.1011 179.51 73.9011C179.448 73.6971 179.354 73.5131 179.229 73.3491C179.105 73.1851 178.947 73.0481 178.756 72.9381C178.559 72.8241 178.394 72.7811 178.263 72.8091C178.135 72.8391 178.038 72.9251 177.972 73.0671C177.91 73.2111 177.878 73.4011 177.878 73.6371C177.878 73.8651 177.91 74.0891 177.972 74.3091C178.038 74.5271 178.138 74.7291 178.273 74.9151C178.408 75.0971 178.58 75.2481 178.788 75.3681C179.006 75.4941 179.183 75.5401 179.318 75.5061C179.456 75.4741 179.539 75.3921 179.567 75.2601L180.035 75.5301C179.997 75.7281 179.92 75.8741 179.806 75.9681C179.692 76.0621 179.548 76.1011 179.375 76.0851C179.202 76.0691 179.006 75.9981 178.788 75.8721ZM181.699 77.541C181.335 77.331 181.053 77.078 180.852 76.782C180.655 76.488 180.552 76.183 180.546 75.867L181.013 76.137C181.02 76.265 181.074 76.414 181.174 76.584C181.278 76.752 181.453 76.907 181.699 77.049C181.921 77.177 182.091 77.225 182.208 77.193C182.326 77.157 182.385 77.065 182.385 76.917C182.385 76.785 182.342 76.658 182.255 76.536C182.168 76.41 182.028 76.279 181.834 76.143L181.533 75.933C181.27 75.749 181.055 75.535 180.888 75.291C180.722 75.043 180.639 74.783 180.639 74.511C180.639 74.307 180.684 74.159 180.774 74.067C180.864 73.971 180.989 73.931 181.148 73.947C181.308 73.959 181.491 74.025 181.699 74.145C182.011 74.325 182.264 74.551 182.458 74.823C182.652 75.095 182.752 75.391 182.759 75.711L182.291 75.441C182.288 75.311 182.236 75.173 182.136 75.027C182.039 74.879 181.893 74.749 181.699 74.637C181.505 74.525 181.358 74.486 181.257 74.52C181.157 74.554 181.107 74.641 181.107 74.781C181.107 74.901 181.141 75.017 181.211 75.129C181.283 75.243 181.401 75.357 181.564 75.471L181.865 75.681C182.163 75.889 182.402 76.123 182.582 76.383C182.763 76.639 182.853 76.907 182.853 77.187C182.853 77.387 182.802 77.536 182.702 77.634C182.605 77.73 182.47 77.772 182.297 77.76C182.123 77.744 181.924 77.671 181.699 77.541ZM183.576 79.7284V75.3244L183.971 75.5524V76.9384L183.877 76.8724C183.894 76.5384 183.957 76.2944 184.064 76.1404C184.175 75.9844 184.319 75.9054 184.495 75.9034C184.672 75.9014 184.864 75.9604 185.072 76.0804C185.273 76.1964 185.455 76.3454 185.618 76.5274C185.784 76.7114 185.926 76.9134 186.044 77.1334C186.162 77.3534 186.252 77.5814 186.314 77.8174C186.376 78.0534 186.408 78.2834 186.408 78.5074V78.6154C186.408 78.8394 186.375 79.0324 186.309 79.1944C186.243 79.3564 186.149 79.4784 186.028 79.5604C185.91 79.6444 185.768 79.6824 185.602 79.6744C185.439 79.6684 185.259 79.6084 185.062 79.4944C184.864 79.3804 184.675 79.2214 184.495 79.0174C184.315 78.8134 184.166 78.5654 184.048 78.2734C183.931 77.9814 183.863 77.6484 183.846 77.2744L184.074 77.8864V80.0164L183.576 79.7284ZM184.984 78.9454C185.171 79.0534 185.334 79.0974 185.472 79.0774C185.611 79.0534 185.718 78.9734 185.794 78.8374C185.871 78.6974 185.909 78.5094 185.909 78.2734C185.909 78.0334 185.871 77.8014 185.794 77.5774C185.718 77.3534 185.611 77.1514 185.472 76.9714C185.334 76.7874 185.171 76.6414 184.984 76.5334C184.817 76.4374 184.663 76.3924 184.521 76.3984C184.379 76.4004 184.265 76.4584 184.178 76.5724C184.095 76.6844 184.054 76.8544 184.054 77.0824V77.3584C184.054 77.5784 184.097 77.7914 184.184 77.9974C184.27 78.2034 184.384 78.3894 184.526 78.5554C184.669 78.7214 184.821 78.8514 184.984 78.9454ZM188.436 81.4428C188.194 81.3028 187.981 81.1318 187.797 80.9298C187.614 80.7278 187.458 80.5118 187.33 80.2818C187.205 80.0498 187.11 79.8168 187.044 79.5828C186.981 79.3508 186.95 79.1328 186.95 78.9288V78.8208C186.95 78.6168 186.983 78.4358 187.049 78.2778C187.115 78.1158 187.212 77.9938 187.34 77.9118C187.468 77.8258 187.624 77.7898 187.808 77.8038C187.991 77.8138 188.201 77.8868 188.436 78.0228C188.672 78.1588 188.881 78.3278 189.065 78.5298C189.249 78.7278 189.405 78.9438 189.533 79.1778C189.661 79.4078 189.758 79.6418 189.824 79.8798C189.89 80.1138 189.922 80.3328 189.922 80.5368V80.6448C189.922 80.8488 189.89 81.0298 189.824 81.1878C189.761 81.3478 189.666 81.4708 189.538 81.5568C189.413 81.6408 189.259 81.6778 189.075 81.6678C188.892 81.6578 188.679 81.5828 188.436 81.4428ZM188.436 80.9268C188.644 81.0468 188.821 81.0968 188.966 81.0768C189.115 81.0548 189.228 80.9758 189.304 80.8398C189.384 80.7058 189.424 80.5268 189.424 80.3028C189.424 80.0748 189.384 79.8478 189.304 79.6218C189.224 79.3958 189.11 79.1878 188.961 78.9978C188.816 78.8098 188.641 78.6568 188.436 78.5388C188.235 78.4228 188.061 78.3738 187.912 78.3918C187.763 78.4098 187.648 78.4858 187.569 78.6198C187.489 78.7538 187.449 78.9348 187.449 79.1628C187.449 79.3868 187.487 79.6108 187.563 79.8348C187.643 80.0608 187.756 80.2698 187.901 80.4618C188.05 80.6518 188.229 80.8068 188.436 80.9268ZM190.67 82.6241V79.4201L191.064 79.6481V81.0221L191.002 80.9861C191.002 80.6701 191.038 80.4251 191.111 80.2511C191.187 80.0751 191.302 79.9751 191.454 79.9511C191.607 79.9231 191.799 79.9761 192.031 80.1101L192.052 80.1221C192.402 80.3241 192.66 80.5991 192.826 80.9471C192.996 81.2971 193.081 81.7101 193.081 82.1861V84.0161L192.582 83.7281V81.7781C192.582 81.5301 192.521 81.2971 192.4 81.0791C192.279 80.8571 192.112 80.6851 191.901 80.5631C191.683 80.4371 191.506 80.4131 191.371 80.4911C191.236 80.5691 191.168 80.7381 191.168 80.9981V82.9121L190.67 82.6241ZM194.903 85.1641C194.539 84.9541 194.257 84.7011 194.056 84.4051C193.858 84.1111 193.756 83.8061 193.749 83.4901L194.217 83.7601C194.224 83.8881 194.277 84.0371 194.378 84.2071C194.482 84.3751 194.657 84.5301 194.903 84.6721C195.124 84.8001 195.294 84.8481 195.412 84.8161C195.53 84.7801 195.588 84.6881 195.588 84.5401C195.588 84.4081 195.545 84.2811 195.459 84.1591C195.372 84.0331 195.232 83.9021 195.038 83.7661L194.736 83.5561C194.473 83.3721 194.258 83.1581 194.092 82.9141C193.926 82.6661 193.843 82.4061 193.843 82.1341C193.843 81.9301 193.888 81.7821 193.978 81.6901C194.068 81.5941 194.192 81.5541 194.352 81.5701C194.511 81.5821 194.695 81.6481 194.903 81.7681C195.214 81.9481 195.467 82.1741 195.661 82.4461C195.855 82.7181 195.956 83.0141 195.963 83.3341L195.495 83.0641C195.492 82.9341 195.44 82.7961 195.339 82.6501C195.242 82.5021 195.097 82.3721 194.903 82.2601C194.709 82.1481 194.561 82.1091 194.461 82.1431C194.36 82.1771 194.31 82.2641 194.31 82.4041C194.31 82.5241 194.345 82.6401 194.414 82.7521C194.487 82.8661 194.605 82.9801 194.768 83.0941L195.069 83.3041C195.367 83.5121 195.606 83.7461 195.786 84.0061C195.966 84.2621 196.056 84.5301 196.056 84.8101C196.056 85.0101 196.006 85.1591 195.905 85.2571C195.808 85.3531 195.673 85.3951 195.5 85.3831C195.327 85.3671 195.128 85.2941 194.903 85.1641ZM197.959 86.9405C197.716 86.8005 197.507 86.6315 197.33 86.4335C197.153 86.2355 197.009 86.0265 196.899 85.8065C196.788 85.5825 196.705 85.3565 196.649 85.1285C196.597 84.9025 196.571 84.6875 196.571 84.4835V84.3755C196.571 84.1675 196.597 83.9805 196.649 83.8145C196.705 83.6505 196.788 83.5225 196.899 83.4305C197.009 83.3345 197.15 83.2895 197.32 83.2955C197.493 83.2995 197.695 83.3685 197.927 83.5025C198.229 83.6765 198.477 83.8955 198.671 84.1595C198.868 84.4215 199.013 84.6975 199.107 84.9875C199.204 85.2795 199.252 85.5595 199.252 85.8275V86.0855L196.789 84.6635V84.2315L198.889 85.4435L198.774 85.6115C198.774 85.3835 198.743 85.1695 198.681 84.9695C198.619 84.7655 198.525 84.5815 198.4 84.4175C198.276 84.2535 198.118 84.1165 197.927 84.0065C197.73 83.8925 197.565 83.8495 197.434 83.8775C197.306 83.9075 197.209 83.9935 197.143 84.1355C197.08 84.2795 197.049 84.4695 197.049 84.7055C197.049 84.9335 197.08 85.1575 197.143 85.3775C197.209 85.5955 197.309 85.7975 197.444 85.9835C197.579 86.1655 197.751 86.3165 197.959 86.4365C198.177 86.5625 198.354 86.6085 198.489 86.5745C198.627 86.5425 198.71 86.4605 198.738 86.3285L199.206 86.5985C199.168 86.7965 199.091 86.9425 198.977 87.0365C198.863 87.1305 198.719 87.1695 198.546 87.1535C198.373 87.1375 198.177 87.0665 197.959 86.9405ZM201.954 89.139V85.167L202.463 85.461V89.433L201.954 89.139ZM200.8 84.621V84.093L203.616 85.719V86.247L200.8 84.621ZM204.206 90.4394V87.2354L204.705 87.5234V90.7274L204.206 90.4394ZM203.78 87.4454V86.9894L204.705 87.5234V87.9794L203.78 87.4454ZM204.346 86.8004C204.236 86.7364 204.152 86.6544 204.097 86.5544C204.045 86.4564 204.019 86.3554 204.019 86.2514C204.019 86.1474 204.045 86.0764 204.097 86.0384C204.152 86.0024 204.236 86.0164 204.346 86.0804C204.457 86.1444 204.539 86.2254 204.591 86.3234C204.646 86.4234 204.674 86.5254 204.674 86.6294C204.674 86.7334 204.646 86.8034 204.591 86.8394C204.539 86.8774 204.457 86.8644 204.346 86.8004ZM205.669 91.2843V88.0803L206.064 88.3083V89.6823L206.002 89.6463C206.002 89.3343 206.037 89.0903 206.106 88.9143C206.179 88.7363 206.286 88.6303 206.428 88.5963C206.57 88.5623 206.75 88.6083 206.968 88.7343L206.989 88.7463C207.207 88.8723 207.388 89.0343 207.53 89.2323C207.675 89.4323 207.782 89.6623 207.852 89.9223C207.921 90.1783 207.956 90.4623 207.956 90.7743L207.81 90.6903C207.81 90.3783 207.847 90.1353 207.919 89.9613C207.992 89.7833 208.099 89.6773 208.241 89.6433C208.387 89.6113 208.569 89.6583 208.787 89.7843L208.808 89.7963C209.026 89.9223 209.208 90.0853 209.353 90.2853C209.499 90.4853 209.606 90.7153 209.676 90.9753C209.748 91.2333 209.785 91.5183 209.785 91.8303V93.6603L209.286 93.3723V91.4163C209.286 91.1563 209.23 90.9243 209.12 90.7203C209.009 90.5123 208.855 90.3513 208.657 90.2373C208.453 90.1193 208.288 90.1003 208.164 90.1803C208.039 90.2563 207.976 90.4283 207.976 90.6963V92.6163L207.478 92.3283V90.3723C207.478 90.1123 207.422 89.8803 207.311 89.6763C207.201 89.4683 207.046 89.3073 206.849 89.1933C206.645 89.0753 206.48 89.0563 206.355 89.1363C206.231 89.2123 206.168 89.3843 206.168 89.6523V91.5723L205.669 91.2843ZM211.878 94.9766C211.635 94.8366 211.426 94.6676 211.249 94.4696C211.072 94.2716 210.928 94.0626 210.818 93.8426C210.707 93.6186 210.624 93.3926 210.568 93.1646C210.516 92.9386 210.49 92.7236 210.49 92.5196V92.4116C210.49 92.2036 210.516 92.0166 210.568 91.8506C210.624 91.6866 210.707 91.5586 210.818 91.4666C210.928 91.3706 211.069 91.3256 211.238 91.3316C211.412 91.3356 211.614 91.4046 211.846 91.5386C212.148 91.7126 212.396 91.9316 212.589 92.1956C212.787 92.4576 212.932 92.7336 213.026 93.0236C213.123 93.3156 213.171 93.5956 213.171 93.8636V94.1216L210.708 92.6996V92.2676L212.808 93.4796L212.693 93.6476C212.693 93.4196 212.662 93.2056 212.6 93.0056C212.538 92.8016 212.444 92.6176 212.319 92.4536C212.195 92.2896 212.037 92.1526 211.846 92.0426C211.649 91.9286 211.484 91.8856 211.353 91.9136C211.225 91.9436 211.128 92.0296 211.062 92.1716C210.999 92.3156 210.968 92.5056 210.968 92.7416C210.968 92.9696 210.999 93.1936 211.062 93.4136C211.128 93.6316 211.228 93.8336 211.363 94.0196C211.498 94.2016 211.67 94.3526 211.878 94.4726C212.096 94.5986 212.273 94.6446 212.408 94.6106C212.546 94.5786 212.629 94.4966 212.657 94.3646L213.125 94.6346C213.087 94.8326 213.01 94.9786 212.896 95.0726C212.782 95.1666 212.638 95.2056 212.465 95.1896C212.292 95.1736 212.096 95.1026 211.878 94.9766ZM214.963 96.6502V95.9182L215.566 96.2662V96.9982L214.963 96.6502ZM214.963 94.4302V93.6982L215.566 94.0462V94.7782L214.963 94.4302ZM217.521 98.1269V97.4069C217.521 97.2309 217.542 97.0929 217.584 96.9929C217.629 96.8949 217.705 96.8269 217.812 96.7889C217.92 96.7469 218.065 96.7309 218.249 96.7409L218.961 96.7739C219.134 96.7819 219.271 96.7429 219.371 96.6569C219.471 96.5669 219.522 96.4059 219.522 96.1739C219.522 95.8939 219.454 95.6369 219.319 95.4029C219.184 95.1689 218.993 94.9809 218.747 94.8389C218.505 94.6989 218.314 94.6669 218.176 94.7429C218.037 94.8189 217.968 94.9969 217.968 95.2769L217.48 94.9949C217.48 94.7429 217.525 94.5369 217.615 94.3769C217.708 94.2189 217.849 94.1319 218.036 94.1159C218.223 94.0959 218.46 94.1689 218.747 94.3349C219.035 94.5009 219.271 94.7009 219.454 94.9349C219.641 95.1669 219.78 95.4109 219.87 95.6669C219.963 95.9249 220.01 96.1739 220.01 96.4139V96.4979C220.01 96.8139 219.93 97.0339 219.771 97.1579C219.615 97.2839 219.404 97.3399 219.137 97.3259L218.425 97.2929C218.266 97.2849 218.159 97.3069 218.103 97.3589C218.048 97.4109 218.02 97.5069 218.02 97.6469V98.1989L217.885 97.8449L220.057 99.0989V99.5909L217.521 98.1269ZM222.071 100.754V96.374L222.747 96.764L223.869 100.334L223.952 100.382L225.07 98.105L225.75 98.498V102.878L225.241 102.584V98.846L225.277 98.879L224.202 101.078L223.578 100.718L222.498 97.274L222.539 97.286V101.024L222.071 100.754ZM228.083 104.333C227.768 104.151 227.499 103.936 227.278 103.688C227.056 103.44 226.886 103.176 226.768 102.896C226.651 102.616 226.592 102.342 226.592 102.074L227.101 102.368C227.101 102.5 227.13 102.649 227.189 102.815C227.252 102.983 227.354 103.152 227.496 103.322C227.641 103.494 227.837 103.651 228.083 103.793C228.312 103.925 228.499 103.995 228.644 104.003C228.79 104.007 228.897 103.967 228.966 103.883C229.036 103.795 229.07 103.677 229.07 103.529C229.07 103.349 229.003 103.162 228.868 102.968C228.733 102.77 228.535 102.582 228.275 102.404L227.854 102.119C227.518 101.893 227.25 101.618 227.049 101.294C226.848 100.97 226.748 100.638 226.748 100.298C226.748 100.03 226.803 99.8278 226.914 99.6918C227.028 99.5578 227.186 99.4928 227.387 99.4968C227.588 99.4968 227.821 99.5738 228.088 99.7278C228.351 99.8798 228.584 100.07 228.784 100.298C228.985 100.526 229.141 100.774 229.252 101.042C229.366 101.308 229.424 101.581 229.424 101.861L228.914 101.567C228.914 101.427 228.885 101.278 228.826 101.12C228.771 100.964 228.682 100.811 228.561 100.661C228.44 100.511 228.282 100.38 228.088 100.268C227.901 100.16 227.745 100.108 227.621 100.112C227.499 100.118 227.407 100.165 227.345 100.253C227.286 100.339 227.257 100.452 227.257 100.592C227.257 100.752 227.311 100.925 227.418 101.111C227.525 101.297 227.685 101.461 227.896 101.603L228.317 101.888C228.577 102.062 228.8 102.255 228.987 102.467C229.178 102.677 229.323 102.897 229.424 103.127C229.528 103.355 229.579 103.587 229.579 103.823C229.579 104.091 229.517 104.293 229.392 104.429C229.268 104.565 229.093 104.626 228.868 104.612C228.642 104.598 228.381 104.505 228.083 104.333Z" fill="#0E3572"/>
<path opacity="0.6" d="M118.885 39.5L144 25L251.5 85.5314L274.937 72" stroke="#0E3572" stroke-width="0.5" stroke-dasharray="5 2"/>
<path opacity="0.4" d="M132.5 66L159 50.7002L240.5 97.7542L279.911 75" stroke="#0E3572" stroke-width="0.5" stroke-dasharray="5 2"/>
<path opacity="0.2" d="M150 90.5L175.5 75.7776L233 108.975L286 78.3757" stroke="#0E3572" stroke-width="0.5" stroke-dasharray="5 2"/>
</g>
<defs>
<radialGradient id="paint0_radial_1857_6639" cx="0" cy="0" r="1" gradientUnits="userSpaceOnUse" gradientTransform="translate(284.448 316.749) rotate(90) scale(292.076 292.076)">
<stop stop-color="#D9D9D9"/>
<stop offset="0.890272" stop-color="#D9D9D9" stop-opacity="0"/>
</radialGradient>
<clipPath id="clip0_1857_6639">
<rect width="324" height="121" fill="white"/>
</clipPath>
<clipPath id="clip1_1857_6639">
<rect width="17.531" height="17.531" fill="white" transform="matrix(0.866044 -0.499967 0.866044 0.499967 274.669 59.4526)"/>
</clipPath>
</defs>
</svg>
