<svg width="52" height="52" viewBox="0 0 52 52" fill="none" xmlns="http://www.w3.org/2000/svg">
<g clip-path="url(#clip0_1879_767)">
<path d="M3.96094 25.9815V34.0075L9.10315 40.7265V50.8828M26 26.3818V50.8828M16.7097 37.2547V41.8849L26 48.0395L35.2903 41.8849V37.2547M48.0391 25.9815V34.0075L42.8969 40.7265V50.8828M40.8446 11.6106V17.1931L36.8589 21.3668M11.1554 11.6106V17.1931L15.141 21.3667" stroke="white" stroke-miterlimit="10" stroke-linejoin="round"/>
<path d="M1.11719 50.8828H50.8828" stroke="white" stroke-miterlimit="10" stroke-linecap="round" stroke-linejoin="round"/>
<path d="M32.2453 7.36288C32.2453 3.91351 29.449 1.11719 25.9996 1.11719C22.5502 1.11719 19.7539 3.91351 19.7539 7.36288V11.4576C19.7539 12.2712 20.0188 13.0626 20.5086 13.7123L21.6429 15.2167C21.9919 15.6797 22.4437 16.0553 22.9627 16.314C23.4816 16.5726 24.0535 16.7072 24.6334 16.7072H27.3658C27.9456 16.7072 28.5176 16.5726 29.0365 16.314C29.5554 16.0553 30.0073 15.6797 30.3563 15.2167L31.4906 13.7123C31.9804 13.0626 32.2453 12.2712 32.2453 11.4576V7.36288Z" stroke="white" stroke-miterlimit="10" stroke-linejoin="round"/>
<path d="M31 10.3253C31 7.44894 28.7614 5.11719 26 5.11719C23.2386 5.11719 21 7.44894 21 10.3253V13.7397C21 14.4181 21.2121 15.0781 21.6042 15.6198L22.5122 16.8743C22.7917 17.2604 23.1534 17.5736 23.5688 17.7892C23.9842 18.0049 24.4421 18.1172 24.9063 18.1172H27.0937C27.5579 18.1172 28.0158 18.0049 28.4312 17.7892C28.8466 17.5736 29.2083 17.2604 29.4878 16.8743L30.3958 15.6198C30.7879 15.0781 31 14.4181 31 13.7397V10.3253Z" fill="white" fill-opacity="0.1"/>
<path d="M22.4802 16.2463V17.9946C22.4802 18.8663 21.8375 19.6046 20.9741 19.7245L17.7074 20.1783C15.3072 20.5117 13.5203 22.564 13.5203 24.9873V26H38.4798V24.9873C38.4798 22.564 36.6929 20.5117 34.2927 20.1783L31.026 19.7245C30.1626 19.6046 29.5199 18.8663 29.5199 17.9946V16.2463M3.96094 25.9815C2.39038 25.9815 1.11719 24.7083 1.11719 23.1377C1.11719 21.5672 2.39038 20.294 3.96094 20.294C5.5315 20.294 6.80469 21.5672 6.80469 23.1377C6.80469 24.7083 5.5315 25.9815 3.96094 25.9815ZM16.7097 37.2547C15.1391 37.2547 13.8659 35.9815 13.8659 34.411C13.8659 32.8404 15.1391 31.5672 16.7097 31.5672C18.2802 31.5672 19.5534 32.8404 19.5534 34.411C19.5534 35.9815 18.2802 37.2547 16.7097 37.2547ZM48.0391 25.9815C49.6096 25.9815 50.8828 24.7083 50.8828 23.1377C50.8828 21.5672 49.6096 20.294 48.0391 20.294C46.4685 20.294 45.1953 21.5672 45.1953 23.1377C45.1953 24.7083 46.4685 25.9815 48.0391 25.9815ZM35.2903 37.2547C36.8609 37.2547 38.1341 35.9815 38.1341 34.411C38.1341 32.8404 36.8609 31.5672 35.2903 31.5672C33.7198 31.5672 32.4466 32.8404 32.4466 34.411C32.4466 35.9815 33.7198 37.2547 35.2903 37.2547ZM40.8446 11.6106C42.4151 11.6106 43.6883 10.3374 43.6883 8.76685C43.6883 7.19628 42.4151 5.9231 40.8446 5.9231C39.274 5.9231 38.0008 7.19628 38.0008 8.76685C38.0008 10.3374 39.274 11.6106 40.8446 11.6106ZM11.1554 11.6106C9.58486 11.6106 8.31167 10.3374 8.31167 8.76685C8.31167 7.19628 9.58486 5.9231 11.1554 5.9231C12.726 5.9231 13.9992 7.19628 13.9992 8.76685C13.9992 10.3374 12.726 11.6106 11.1554 11.6106Z" stroke="white" stroke-miterlimit="10" stroke-linejoin="round"/>
<path d="M23.0295 18.0132V19.5198C23.0295 20.271 22.487 20.9072 21.7583 21.0106L19.0014 21.4016C16.9757 21.6889 15.4677 23.4575 15.4677 25.5457V26.4184H36.5324V25.5457C36.5324 23.4575 35.0243 21.6889 32.9987 21.4016L30.2417 21.0106C29.5131 20.9072 28.9706 20.271 28.9706 19.5198V18.0132M7.4 26.4025C6.07451 26.4025 5 25.3053 5 23.9519C5 22.5985 6.07451 21.5013 7.4 21.5013C8.72549 21.5013 9.8 22.5985 9.8 23.9519C9.8 25.3053 8.72549 26.4025 7.4 26.4025ZM18.1594 36.1172C16.8339 36.1172 15.7594 35.02 15.7594 33.6666C15.7594 32.3132 16.8339 31.216 18.1594 31.216C19.4849 31.216 20.5594 32.3132 20.5594 33.6666C20.5594 35.02 19.4849 36.1172 18.1594 36.1172ZM44.6 26.4025C45.9255 26.4025 47 25.3053 47 23.9519C47 22.5985 45.9255 21.5013 44.6 21.5013C43.2745 21.5013 42.2 22.5985 42.2 23.9519C42.2 25.3053 43.2745 26.4025 44.6 26.4025ZM33.8406 36.1172C35.1661 36.1172 36.2406 35.02 36.2406 33.6666C36.2406 32.3132 35.1661 31.216 33.8406 31.216C32.5151 31.216 31.4406 32.3132 31.4406 33.6666C31.4406 35.02 32.5151 36.1172 33.8406 36.1172ZM38.5282 14.0184C39.8537 14.0184 40.9282 12.9212 40.9282 11.5678C40.9282 10.2144 39.8537 9.11719 38.5282 9.11719C37.2027 9.11719 36.1282 10.2144 36.1282 11.5678C36.1282 12.9212 37.2027 14.0184 38.5282 14.0184ZM13.4718 14.0184C12.1463 14.0184 11.0718 12.9212 11.0718 11.5678C11.0718 10.2144 12.1463 9.11719 13.4718 9.11719C14.7973 9.11719 15.8718 10.2144 15.8718 11.5678C15.8718 12.9212 14.7973 14.0184 13.4718 14.0184Z" fill="white" fill-opacity="0.1"/>
</g>
<defs>
<clipPath id="clip0_1879_767">
<rect width="52" height="52" fill="white"/>
</clipPath>
</defs>
</svg>
