<svg width="52" height="52" viewBox="0 0 52 52" fill="none" xmlns="http://www.w3.org/2000/svg">
<g clip-path="url(#clip0_1879_735)">
<path d="M36.4924 51.9263V48.8862C36.4924 46.2178 34.5381 44.0055 31.9835 43.6033M20.0587 43.6033C17.5041 44.0055 15.5498 46.2178 15.5498 48.8862V51.9263" stroke="white" stroke-miterlimit="10"/>
<path d="M32.8089 51.9269V46.8477C32.8089 44.8945 31.9828 43.1354 30.6623 41.897H21.38C20.0595 43.1354 19.2334 44.8945 19.2334 46.8477V51.9269M30.0842 41.897H21.9582C20.2752 41.897 18.911 40.5327 18.911 38.8497V32.8482C18.911 31.1652 20.2752 29.801 21.9582 29.801H30.0842C31.7672 29.801 33.1314 31.1652 33.1314 32.8482V38.8497C33.1314 40.5327 31.7672 41.897 30.0842 41.897ZM18.911 38.8497H18.8646C17.2073 38.8497 15.8638 37.5062 15.8638 35.8489C15.8638 34.1916 17.2073 32.8481 18.8646 32.8481H18.911M33.1314 32.8482H33.1778C34.8351 32.8482 36.1786 34.1917 36.1786 35.849C36.1786 37.5063 34.8351 38.8498 33.1778 38.8498H33.1314M22.263 33.2077V38.2864V33.2077ZM29.7795 33.2077V38.2864V33.2077ZM26.0212 29.801V24.8606V29.801Z" fill="#0E3572"/>
<path d="M32.8089 51.9269V46.8477C32.8089 44.8945 31.9828 43.1354 30.6623 41.897H21.38C20.0595 43.1354 19.2334 44.8945 19.2334 46.8477V51.9269M18.911 38.8497C18.911 40.5327 20.2752 41.897 21.9582 41.897H30.0842C31.7672 41.897 33.1314 40.5327 33.1314 38.8497V32.8482M18.911 38.8497V32.8482C18.911 31.1652 20.2752 29.801 21.9582 29.801H30.0842C31.7672 29.801 33.1314 31.1652 33.1314 32.8482M18.911 38.8497H18.8646C17.2073 38.8497 15.8638 37.5062 15.8638 35.8489C15.8638 34.1916 17.2073 32.8481 18.8646 32.8481H18.911M33.1314 32.8482H33.1778C34.8351 32.8482 36.1786 34.1917 36.1786 35.849C36.1786 37.5063 34.8351 38.8498 33.1778 38.8498H33.1314M22.263 33.2077V38.2864M29.7795 33.2077V38.2864M26.0212 29.801V24.8606" stroke="white" stroke-miterlimit="10"/>
<path d="M26.0212 24.798C26.8626 24.798 27.5448 24.1158 27.5448 23.2743C27.5448 22.4329 26.8626 21.7507 26.0212 21.7507C25.1797 21.7507 24.4976 22.4329 24.4976 23.2743C24.4976 24.1158 25.1797 24.798 26.0212 24.798Z" stroke="white" stroke-miterlimit="10"/>
<path d="M26.0212 18.6176V11.7979M26.0212 18.6176L22.974 16.7367M26.0212 18.6176L29.0685 16.7367M3.37492 4.9408H12.2607M8.70555 7.98803H3.37492M39.7386 4.9408H48.6243M45.0692 7.98803H39.7386M2.80082 17.6018L5.84806 15.721L8.89529 17.6018M43.1472 17.6018L46.1944 15.721L49.2417 17.6018M5.84856 26.5465V32.8014C5.84856 34.4845 7.21271 35.8487 8.8958 35.8487H15.8638M5.84856 25.0229V15.7207M46.1939 26.5465V32.8014C46.1939 34.4845 44.8298 35.8487 43.1467 35.8487H36.1787M46.1939 25.0229V15.7207M23.7358 6.47244H25.2594M26.783 6.47244H28.3067M0.761719 9.35502C0.761719 10.7039 1.83028 11.7979 3.14973 11.7979H7.81809L11.9349 14.7507V11.7979H12.4875C13.8059 11.7979 14.8745 10.7039 14.8745 9.35502V3.27884C14.8745 1.92892 13.8059 0.834961 12.4875 0.834961H3.14973C1.83028 0.834961 0.761719 1.92892 0.761719 3.27884V9.35502ZM30.6906 0.835062C32.0091 0.835062 33.0776 1.92902 33.0776 3.27894V9.35512C33.0776 10.704 32.0091 11.798 30.6906 11.798V14.7508L27.0374 11.798H21.3529C20.0334 11.798 18.9649 10.704 18.9649 9.35512V3.27894C18.9649 1.92902 20.0334 0.835062 21.3529 0.835062H30.6906ZM37.1254 3.27884C37.1254 1.92892 38.1939 0.834961 39.5124 0.834961H48.8501C50.1695 0.834961 51.2381 1.92892 51.2381 3.27884V9.35502C51.2381 10.7039 50.1695 11.7979 48.8501 11.7979H44.1391L40.0649 14.7507V11.7979H39.5124C38.1939 11.7979 37.1254 10.7039 37.1254 9.35502V3.27884Z" stroke="white" stroke-miterlimit="10"/>
<path d="M2.76172 11.355C2.76172 12.7039 3.83028 13.7979 5.14973 13.7979H9.81809L13.9349 16.7507V13.7979H14.4875C15.8059 13.7979 16.8745 12.7039 16.8745 11.355V5.27884C16.8745 3.92892 15.8059 2.83496 14.4875 2.83496H5.14973C3.83028 2.83496 2.76172 3.92892 2.76172 5.27884V11.355ZM5.37492 6.9408H14.2607H5.37492ZM10.7055 9.98803H5.37492H10.7055ZM32.6906 2.83506C34.0091 2.83506 35.0776 3.92902 35.0776 5.27894V11.3551C35.0776 12.704 34.0091 13.798 32.6906 13.798V16.7508L29.0374 13.798H23.3529C22.0334 13.798 20.9649 12.704 20.9649 11.3551V5.27894C20.9649 3.92902 22.0334 2.83506 23.3529 2.83506H32.6906ZM39.1254 5.27884C39.1254 3.92892 40.1939 2.83496 41.5124 2.83496H50.8501C52.1695 2.83496 53.2381 3.92892 53.2381 5.27884V11.355C53.2381 12.7039 52.1695 13.7979 50.8501 13.7979H46.1391L42.0649 16.7507V13.7979H41.5124C40.1939 13.7979 39.1254 12.7039 39.1254 11.355V5.27884ZM41.7386 6.9408H50.6243H41.7386ZM47.0692 9.98803H41.7386H47.0692ZM25.7358 8.47244H27.2594H25.7358ZM28.783 8.47244H30.3067H28.783Z" fill="white" fill-opacity="0.1"/>
</g>
<defs>
<clipPath id="clip0_1879_735">
<rect width="52" height="52" fill="white"/>
</clipPath>
</defs>
</svg>
