<svg width="52" height="52" viewBox="0 0 52 52" fill="none" xmlns="http://www.w3.org/2000/svg">
<path d="M41.3364 41.336H25.253L41.3364 25.2526V41.336ZM3.18555 50.4766H50.477V3.18514L3.18555 50.4766Z" stroke="#0E3572" stroke-miterlimit="10" stroke-linecap="round" stroke-linejoin="round"/>
<path d="M40.0754 38.1355H26.1317L40.0754 24.1917V38.1355ZM7 46.0601H48V5.06006L7 46.0601Z" fill="#0E3572" fill-opacity="0.1"/>
<path d="M43.3672 50.4766V47.4297" stroke="#0E3572" stroke-miterlimit="10" stroke-linecap="round" stroke-linejoin="round"/>
<path d="M36.2578 50.4766V47.4297" stroke="#0E3572" stroke-miterlimit="10" stroke-linecap="round" stroke-linejoin="round"/>
<path d="M29.1484 50.4766V47.4297" stroke="#0E3572" stroke-miterlimit="10" stroke-linecap="round" stroke-linejoin="round"/>
<path d="M22.0391 50.4766V47.4297" stroke="#0E3572" stroke-miterlimit="10" stroke-linecap="round" stroke-linejoin="round"/>
<path d="M14.9297 50.4766V47.4297" stroke="#0E3572" stroke-miterlimit="10" stroke-linecap="round" stroke-linejoin="round"/>
<path d="M50.4766 36.2581H47.4297" stroke="#0E3572" stroke-miterlimit="10" stroke-linecap="round" stroke-linejoin="round"/>
<path d="M50.4766 29.1487H47.4297" stroke="#0E3572" stroke-miterlimit="10" stroke-linecap="round" stroke-linejoin="round"/>
<path d="M50.4766 22.0393H47.4297" stroke="#0E3572" stroke-miterlimit="10" stroke-linecap="round" stroke-linejoin="round"/>
<path d="M50.4766 14.9299H47.4297" stroke="#0E3572" stroke-miterlimit="10" stroke-linecap="round" stroke-linejoin="round"/>
<path d="M50.4766 43.3672H47.4297" stroke="#0E3572" stroke-miterlimit="10" stroke-linecap="round" stroke-linejoin="round"/>
<path d="M5.83242 39.1365L1.52344 34.8276L30.9391 5.41183L39.1363 1.52363L35.2481 9.72081L5.83242 39.1365Z" stroke="#0E3572" stroke-miterlimit="10" stroke-linecap="round" stroke-linejoin="round"/>
<path d="M30.9393 5.41186C29.919 8.10489 32.5553 10.7411 35.2483 9.72084" stroke="#0E3572" stroke-miterlimit="10" stroke-linecap="round" stroke-linejoin="round"/>
<path d="M6.89258 29.5336L11.2016 33.8425" stroke="#0E3572" stroke-miterlimit="10" stroke-linecap="round" stroke-linejoin="round"/>
</svg>
