<svg width="52" height="52" viewBox="0 0 52 52" fill="none" xmlns="http://www.w3.org/2000/svg">
<path d="M37.1719 30.0625C42.2201 30.0625 46.3125 25.9701 46.3125 20.9219C46.3125 15.8736 42.2201 11.7812 37.1719 11.7812C36.9706 11.7815 36.7695 11.7882 36.5687 11.8016C34.4643 8.14755 30.5194 5.6875 26 5.6875C21.4806 5.6875 17.5357 8.14755 15.4314 11.8016C15.2306 11.7882 15.0294 11.7815 14.8281 11.7812C9.77986 11.7812 5.6875 15.8736 5.6875 20.9219C5.6875 25.9701 9.77986 30.0625 14.8281 30.0625H37.1719Z" stroke="white" stroke-miterlimit="10" stroke-linecap="round" stroke-linejoin="round"/>
<path d="M35.35 30.5C39.575 30.5 43 26.9743 43 22.625C43 18.2757 39.575 14.75 35.35 14.75C35.1816 14.7502 35.0132 14.756 34.8452 14.7675C33.084 11.6194 29.7824 9.5 26 9.5C22.2176 9.5 18.916 11.6194 17.1549 14.7675C16.9868 14.756 16.8184 14.7502 16.65 14.75C12.425 14.75 9 18.2757 9 22.625C9 26.9743 12.425 30.5 16.65 30.5H35.35Z" fill="white" fill-opacity="0.1"/>
<path d="M5.07812 42.25C7.32178 42.25 9.14062 40.4312 9.14062 38.1875C9.14062 35.9438 7.32178 34.125 5.07812 34.125C2.83447 34.125 1.01562 35.9438 1.01562 38.1875C1.01562 40.4312 2.83447 42.25 5.07812 42.25Z" stroke="white" stroke-miterlimit="10" stroke-linecap="round" stroke-linejoin="round"/>
<path d="M26 46.3125C28.2437 46.3125 30.0625 44.4937 30.0625 42.25C30.0625 40.0063 28.2437 38.1875 26 38.1875C23.7563 38.1875 21.9375 40.0063 21.9375 42.25C21.9375 44.4937 23.7563 46.3125 26 46.3125Z" stroke="white" stroke-miterlimit="10" stroke-linecap="round" stroke-linejoin="round"/>
<path d="M9.14062 38.1875H13.8125V30.0625" stroke="white" stroke-miterlimit="10" stroke-linecap="round" stroke-linejoin="round"/>
<path d="M46.9219 42.25C49.1655 42.25 50.9844 40.4312 50.9844 38.1875C50.9844 35.9438 49.1655 34.125 46.9219 34.125C44.6782 34.125 42.8594 35.9438 42.8594 38.1875C42.8594 40.4312 44.6782 42.25 46.9219 42.25Z" stroke="white" stroke-miterlimit="10" stroke-linecap="round" stroke-linejoin="round"/>
<path d="M42.8594 38.1875H38.1875V30.0625M26 30.0625V38.1875M21.9375 26H30.0625" stroke="white" stroke-miterlimit="10" stroke-linecap="round" stroke-linejoin="round"/>
</svg>
