<svg width="52" height="52" viewBox="0 0 52 52" fill="none" xmlns="http://www.w3.org/2000/svg">
<path d="M22.8191 28.5034H1.57422C1.12531 28.5034 0.761719 28.1388 0.761719 27.6909V25.2534C0.761719 24.8045 1.12531 24.4409 1.57422 24.4409H23.9149M39.9963 24.4409H50.4258C50.8747 24.4409 51.2383 24.8045 51.2383 25.2534V27.6909C51.2383 28.1388 50.8747 28.5034 50.4258 28.5034H29.1809M36.4416 24.4409H28.0851" stroke="#FFFAFA" stroke-miterlimit="10" stroke-linecap="round" stroke-linejoin="round"/>
<path d="M31.8991 38.5989L28.1108 24.5304C27.8538 23.5768 26.9875 22.9136 25.9993 22.9136C25.0111 22.9136 24.1448 23.5768 23.8878 24.5304L20.0995 38.5989M24.3599 42.6618H35.908C36.0403 42.6618 36.1672 42.6092 36.2607 42.5157C36.3543 42.4221 36.4068 42.2952 36.4068 42.1629V41.7101C36.4068 39.992 35.0141 38.5993 33.2961 38.5993H18.7026C16.9845 38.5993 15.5918 39.992 15.5918 41.7101V42.1629C15.5918 42.2284 15.6047 42.2933 15.6297 42.3538C15.6548 42.4144 15.6916 42.4693 15.7379 42.5157C15.7842 42.562 15.8392 42.5987 15.8998 42.6238C15.9603 42.6488 16.0252 42.6617 16.0907 42.6617H20.8053" stroke="#FFFAFA" stroke-miterlimit="10" stroke-linecap="round" stroke-linejoin="round"/>
<path d="M38.4103 20.4544C39.6897 20.4544 40.7268 19.4172 40.7268 18.1378C40.7268 16.8584 39.6897 15.8213 38.4103 15.8213C37.1309 15.8213 36.0938 16.8584 36.0938 18.1378C36.0938 19.4172 37.1309 20.4544 38.4103 20.4544Z" stroke="#FFFAFA" stroke-miterlimit="10" stroke-linecap="round" stroke-linejoin="round"/>
<path d="M39.4103 22.4544C40.6897 22.4544 41.7268 21.4172 41.7268 20.1378C41.7268 18.8584 40.6897 17.8213 39.4103 17.8213C38.1309 17.8213 37.0938 18.8584 37.0938 20.1378C37.0938 21.4172 38.1309 22.4544 39.4103 22.4544Z" fill="#FFFAFA" fill-opacity="0.1"/>
<path d="M45.9415 20.4544C47.2209 20.4544 48.2581 19.4172 48.2581 18.1378C48.2581 16.8584 47.2209 15.8213 45.9415 15.8213C44.6621 15.8213 43.625 16.8584 43.625 18.1378C43.625 19.4172 44.6621 20.4544 45.9415 20.4544Z" stroke="#FFFAFA" stroke-miterlimit="10" stroke-linecap="round" stroke-linejoin="round"/>
<path d="M46.9415 22.4544C48.2209 22.4544 49.2581 21.4172 49.2581 20.1378C49.2581 18.8584 48.2209 17.8213 46.9415 17.8213C45.6621 17.8213 44.625 18.8584 44.625 20.1378C44.625 21.4172 45.6621 22.4544 46.9415 22.4544Z" fill="#FFFAFA" fill-opacity="0.1"/>
<path d="M42.1759 13.9712C43.4553 13.9712 44.4925 12.9341 44.4925 11.6547C44.4925 10.3753 43.4553 9.33813 42.1759 9.33813C40.8965 9.33813 39.8594 10.3753 39.8594 11.6547C39.8594 12.9341 40.8965 13.9712 42.1759 13.9712Z" stroke="#FFFAFA" stroke-miterlimit="10" stroke-linecap="round" stroke-linejoin="round"/>
<path d="M43.1759 15.9712C44.4553 15.9712 45.4925 14.9341 45.4925 13.6547C45.4925 12.3753 44.4553 11.3381 43.1759 11.3381C41.8965 11.3381 40.8594 12.3753 40.8594 13.6547C40.8594 14.9341 41.8965 15.9712 43.1759 15.9712Z" fill="#FFFAFA" fill-opacity="0.1"/>
<path d="M9.80709 21.6301C13.0024 21.6301 15.5927 19.0398 15.5927 15.8444C15.5927 12.6491 13.0024 10.0588 9.80709 10.0588C6.61179 10.0588 4.02148 12.6491 4.02148 15.8444C4.02148 19.0398 6.61179 21.6301 9.80709 21.6301Z" stroke="#FFFAFA" stroke-miterlimit="10" stroke-linecap="round" stroke-linejoin="round"/>
<path d="M10.8071 23.6301C14.0024 23.6301 16.5927 21.0398 16.5927 17.8444C16.5927 14.6491 14.0024 12.0588 10.8071 12.0588C7.61179 12.0588 5.02148 14.6491 5.02148 17.8444C5.02148 21.0398 7.61179 23.6301 10.8071 23.6301Z" fill="#FFFAFA" fill-opacity="0.1"/>
</svg>
