<svg width="52" height="52" viewBox="0 0 52 52" fill="none" xmlns="http://www.w3.org/2000/svg">
<g clip-path="url(#clip0_2321_660)">
<path d="M25.1877 38.341V24.1116M42.3969 31.9965V7.93482M42.5888 25.4512H46.3127C48.8369 25.4512 50.8831 23.4049 50.8831 20.8808V16.9651H46.9674C44.4431 16.9651 42.3969 19.0113 42.3969 21.5355C42.3969 19.0112 40.3507 16.9651 37.8265 16.9651H33.9108V20.8808C33.9108 23.405 35.9571 25.4512 38.4812 25.4512H42.2604M25.1877 30.0275L22.2897 27.1295C20.4217 25.2615 20.4217 22.2327 22.2897 20.3647L25.1877 17.4667L28.0857 20.3647C29.9537 22.2327 29.9537 25.2615 28.0857 27.1295L25.1877 30.0275ZM42.3969 13.2261L39.6281 10.4573C37.8433 8.67247 37.8433 5.77865 39.6281 3.99389L42.3969 1.2251L45.1657 3.99389C46.9506 5.77875 46.9506 8.67257 45.1657 10.4573L42.3969 13.2261Z" stroke="#FFFAFA" stroke-miterlimit="10" stroke-linecap="round" stroke-linejoin="round"/>
<path d="M38.1527 21.2083L42.3958 25.4512L46.6388 21.2083M9.41052 44.8474V39.614M9.41052 39.3902L8.36128 38.3409C6.42905 36.4087 6.42905 33.276 8.36128 31.3438C8.94079 30.7643 9.88025 30.7643 10.4598 31.3438C12.392 33.276 12.392 36.4087 10.4598 38.3409L9.41052 39.3902Z" stroke="#FFFAFA" stroke-miterlimit="10" stroke-linecap="round" stroke-linejoin="round"/>
<path d="M17.7057 50.8828H1.11719V45.1746H17.3094M17.7057 50.8828H34.2943M17.7057 50.8828V38.7735H33.9106M34.2943 50.8828H50.8828V32.3723H34.2943V50.8828ZM1.11719 26.3079L2.80993 25.7018C13.7752 21.7756 22.4221 14.8467 29.1122 5.31273L32.0563 1.11719" stroke="#FFFAFA" stroke-miterlimit="10" stroke-linecap="round" stroke-linejoin="round"/>
<path d="M21.6666 51.0601H7V46.0132H21.3163M36.3334 51.0601H21.6666V40.3537H35.9941M36.3334 34.6941H51V51.0601H36.3334V34.6941ZM7 29.3323L8.49663 28.7964C18.1915 25.3251 25.8366 19.1989 31.7516 10.7695L34.3546 7.06006" fill="#FFFAFA" fill-opacity="0.1"/>
<path d="M27.1465 1.9435L32.0558 1.11719L32.9432 5.88941" stroke="#FFFAFA" stroke-miterlimit="10" stroke-linecap="round" stroke-linejoin="round"/>
</g>
<defs>
<clipPath id="clip0_2321_660">
<rect width="52" height="52" fill="white"/>
</clipPath>
</defs>
</svg>
