<svg width="41" height="41" viewBox="0 0 41 41" fill="none" xmlns="http://www.w3.org/2000/svg">
<g clip-path="url(#clip0_1842_5662)">
<path d="M38.4148 0.600586C39.4873 0.600586 40.3567 1.47 40.3567 2.54248V14.2639C40.3567 15.3364 39.4873 16.2058 38.4148 16.2058C37.3423 16.2058 36.4729 15.3364 36.4729 14.2639V2.54248C36.4729 1.47 37.3423 0.600586 38.4148 0.600586Z" stroke="white" stroke-miterlimit="10"/>
<path d="M2.58496 24.7942C3.65744 24.7942 4.52686 25.6636 4.52686 26.7361L4.52686 38.4575C4.52686 39.53 3.65744 40.3994 2.58496 40.3994C1.51248 40.3994 0.643066 39.53 0.643066 38.4575L0.643066 26.7361C0.643066 25.6636 1.51248 24.7942 2.58496 24.7942Z" stroke="white" stroke-miterlimit="10"/>
<path d="M22.3945 9.91074C21.1741 7.66407 18.7939 6.13898 16.0574 6.13898C12.077 6.13898 8.85034 9.36565 8.85034 13.346C8.85 13.8741 8.90752 14.4007 9.02187 14.9163C9.13622 15.4318 9.38527 16.0758 9.38527 16.0758C10.461 18.7027 13.0432 20.5531 16.0574 20.5531C19.9305 20.5531 23.09 17.4979 23.2574 13.6661M30.0667 2.04795L21.7785 2.063C21.2949 2.06388 20.8279 2.23997 20.4642 2.55866L16.4012 6.11824M36.473 2.05468H34.995C34.9907 2.05468 34.9872 2.05118 34.9872 2.04687C34.9872 2.04256 34.9837 2.03906 34.9794 2.03906L29.9491 2.03906" stroke="white" stroke-miterlimit="10"/>
<path d="M26.5945 8.2417L21.0892 10.5603C20.0453 10.9999 19.5745 12.2179 20.0513 13.2454L20.0785 13.304C20.4357 14.0739 21.3316 14.4313 22.1207 14.119L24.4621 13.1921C25.1999 12.9001 26.0253 13.1013 26.7036 13.513C28.1483 14.39 29.9727 14.602 31.6634 13.9272L34.6103 12.6356C34.859 12.5266 35.1272 12.4694 35.3987 12.4674L36.473 12.4596M16.3024 30.6705L14.4676 31.4077M16.3024 30.6705L22.3781 32.7971C22.9429 32.9948 23.5665 32.9292 24.0778 32.6183L32.0299 27.7836C32.8429 27.3193 33.8773 27.5808 34.372 28.3757C34.8654 29.1688 34.6454 30.2098 33.8732 30.7353L30.1304 33.796L24.2675 38.5901C23.8528 38.9291 23.3195 39.0877 22.7869 39.0302L8.77596 37.5185H6.52686C5.42229 37.5185 4.52686 36.6231 4.52686 35.5185V28.5616C4.52686 27.7506 5.18433 27.0931 5.99536 27.0931C6.52578 27.0931 7.00297 26.7968 7.33325 26.3818C7.92784 25.6346 8.73037 25.0272 9.67572 24.6499C11.3885 23.9662 13.3079 24.4802 14.7883 25.4976C15.4288 25.9378 16.2354 26.1352 16.9643 25.8655L19.6667 24.8654C20.8101 24.4092 22.107 24.9661 22.5633 26.1095C22.8985 27.0374 22.4497 28.0654 21.5414 28.4503L16.3024 30.6705Z" stroke="white" stroke-miterlimit="10"/>
<path d="M29.1628 29.5268L29.648 27.9723C30.0034 27.1086 29.6141 26.1182 28.7656 25.7277C27.9152 25.3364 26.9075 25.6873 26.4843 26.5224L23.4097 33.0246" stroke="white" stroke-miterlimit="10"/>
</g>
<defs>
<clipPath id="clip0_1842_5662">
<rect width="41" height="41" fill="white"/>
</clipPath>
</defs>
</svg>
