<svg width="41" height="41" viewBox="0 0 41 41" fill="none" xmlns="http://www.w3.org/2000/svg">
<path d="M19.3724 14.1693V10.955C19.3724 9.70261 19.9591 8.52246 20.9575 7.76632L27.1706 3.06087C28.5989 1.97918 30.5722 1.97918 32.0005 3.06087L38.2136 7.76632C39.2121 8.52246 39.7987 9.7026 39.7987 10.955V22.2553C39.7987 24.4644 38.0078 26.2553 35.7987 26.2553H34.5381M11.4143 34.8003H5.20117C2.99203 34.8003 1.20117 33.0095 1.20117 30.8003V19.5001C1.20117 18.2476 1.7878 17.0675 2.78624 16.3113L8.99936 11.6059C10.4276 10.5242 12.401 10.5242 13.8292 11.6059L18.2933 14.9866" stroke="white" stroke-miterlimit="10" stroke-linecap="round" stroke-linejoin="round"/>
<path d="M34.4642 35.768C34.4642 37.9771 32.6733 39.768 30.4642 39.768H15.3403C13.1312 39.768 11.3403 37.9771 11.3403 35.768V22.1845C11.3403 20.9321 11.927 19.7519 12.9254 18.9958L20.4873 13.2689C21.9155 12.1872 23.8889 12.1872 25.3172 13.2689L32.8791 18.9958C33.8776 19.7519 34.4642 20.9321 34.4642 22.1845V35.768Z" stroke="white" stroke-miterlimit="10" stroke-linecap="round" stroke-linejoin="round"/>
<path d="M22.6807 39.6914V27.0425" stroke="white" stroke-linecap="round"/>
</svg>
