<svg width="41" height="41" viewBox="0 0 41 41" fill="none" xmlns="http://www.w3.org/2000/svg">
<g clip-path="url(#clip0_1842_5645)">
<path d="M24.7358 40.0896V34.0255C24.7358 32.9209 23.8404 32.0255 22.7358 32.0255H18.2444C17.1398 32.0255 16.2444 32.9209 16.2444 34.0255V40.0896" stroke="white" stroke-miterlimit="10" stroke-linecap="round" stroke-linejoin="round"/>
<path d="M29.7598 40.0898L29.7598 3.9105C29.7598 2.25364 28.4166 0.910497 26.7598 0.910497H14.2206C12.5637 0.910497 11.2206 2.25364 11.2206 3.9105L11.2206 40.0898" stroke="white" stroke-miterlimit="10" stroke-linecap="round" stroke-linejoin="round"/>
<path d="M38.5103 40.0898V26.9616C38.5103 25.3048 37.1671 23.9616 35.5103 23.9616H29.7595" stroke="white" stroke-miterlimit="10" stroke-linecap="round" stroke-linejoin="round"/>
<path d="M40.1191 40.0898H0.880859" stroke="white" stroke-miterlimit="10" stroke-linecap="round" stroke-linejoin="round"/>
<path d="M24.881 5.87427H16.0986M24.881 11.0354H16.0986M24.881 16.1965H16.0986M24.881 21.3576H16.0986M24.881 26.5187H16.0986" stroke="white" stroke-miterlimit="10" stroke-linecap="round" stroke-linejoin="round"/>
<path d="M2.46943 40.0898C2.46943 29.4264 2.46943 23.032 2.46943 13.1264C2.46943 11.4696 3.81258 10.1248 5.46943 10.1248H11.2202" stroke="white" stroke-miterlimit="10" stroke-linecap="round" stroke-linejoin="round"/>
</g>
<defs>
<clipPath id="clip0_1842_5645">
<rect width="41" height="41" fill="white"/>
</clipPath>
</defs>
</svg>
