<svg width="130" height="36" viewBox="0 0 130 36" fill="none" xmlns="http://www.w3.org/2000/svg">
<g clip-path="url(#clip0_2372_28468)">
<mask id="mask0_2372_28468" style="mask-type:luminance" maskUnits="userSpaceOnUse" x="32" y="17" width="98" height="15">
<path d="M130 17.9997H32.3135V31.9363H130V17.9997Z" fill="white"/>
</mask>
<g mask="url(#mask0_2372_28468)">
<path d="M32.3135 31.7048V18.2305C33.077 18.2305 35.446 18.192 36.5035 18.192C40.6736 18.192 42.0437 20.3285 42.0437 22.6579C42.0437 25.0638 40.1449 27.1813 36.9731 27.1813C36.4625 27.1876 35.952 27.1684 35.4434 27.1238V31.7054L32.3135 31.7048ZM35.446 21.1178V24.198C35.92 24.2587 36.3973 24.2908 36.8753 24.2941C37.6974 24.2941 38.7156 23.9475 38.7156 22.6389C38.7156 21.4454 37.9328 21.0799 36.8168 21.0799C36.4058 21.0799 36.0925 21.0988 35.4467 21.1184" fill="#6982A7"/>
<path d="M43.9028 18.2305H46.8365V23.6395C47.4445 23.1389 48.2166 22.8721 49.0094 22.8887C51.0452 22.8887 52.5922 23.9089 52.5922 26.6228V31.7048H49.6558V26.9891C49.6686 26.8029 49.6411 26.6163 49.5751 26.4414C49.509 26.2665 49.406 26.1074 49.2728 25.9745C49.1396 25.8417 48.9792 25.7382 48.8023 25.6708C48.6254 25.6034 48.436 25.5737 48.2465 25.5837C47.9853 25.5775 47.7256 25.6238 47.4832 25.7199C47.2409 25.8159 47.021 25.9596 46.8372 26.1422V31.7054H43.9028V18.2305Z" fill="#6982A7"/>
<path d="M54.7683 23.6591C55.7706 23.1158 56.8936 22.8238 58.0379 22.8089C60.7202 22.8089 61.6959 24.1371 61.6959 26.4855V31.7021H59.1506V30.9161C58.8606 31.2293 58.5019 31.4735 58.1017 31.6303C57.7016 31.7871 57.2704 31.8524 56.8408 31.8212C56.4692 31.846 56.0965 31.7923 55.7477 31.6637C55.399 31.5351 55.0823 31.3346 54.8189 31.0756C54.5555 30.8167 54.3516 30.5053 54.2208 30.1624C54.09 29.8195 54.0354 29.453 54.0607 29.0876C54.0607 27.1257 55.49 26.2193 57.2325 26.2193C57.8427 26.2072 58.4426 26.3748 58.9551 26.7006C59.0136 25.6615 58.5248 25.2188 57.7413 25.2188C56.9603 25.2381 56.1926 25.4218 55.49 25.7576L54.7683 23.6591ZM58.9584 28.9718V28.433C58.6274 28.2218 58.2363 28.1204 57.8424 28.1439C57.3529 28.1439 57.0004 28.3748 57.0004 28.7979C57.0004 29.1831 57.3529 29.4139 57.8424 29.4139C58.0507 29.4316 58.2603 29.4007 58.4542 29.3237C58.6481 29.2468 58.8209 29.126 58.9584 28.9712" fill="#6982A7"/>
<path d="M63.6558 23.0424H66.5941V23.7356C66.7896 23.4439 67.0626 23.2105 67.3836 23.0606C67.7045 22.9107 68.061 22.8502 68.4145 22.8855C68.896 22.837 69.3798 22.9524 69.7852 23.2124L68.7477 25.9074C68.4329 25.6892 68.056 25.5747 67.6709 25.5804C67.4491 25.5667 67.2282 25.6183 67.0364 25.7286C66.8446 25.8389 66.6906 26.0029 66.5941 26.1997V31.7048H63.6578L63.6558 23.0424Z" fill="#6982A7"/>
<path d="M84.5274 31.7048H81.5877V26.8144C81.5877 26.0637 81.3137 25.5824 80.4917 25.5824C80.2202 25.5699 79.9508 25.6339 79.7152 25.7669C79.4795 25.8999 79.2874 26.0964 79.1615 26.3331V31.7034H76.2251V26.7961C76.2251 26.0643 75.8926 25.5837 75.1876 25.5837C74.9146 25.5703 74.6427 25.6272 74.399 25.7488C74.1552 25.8704 73.9479 26.0524 73.7975 26.2769V31.7048H70.8599V23.0424H73.7962V23.8507C74.5018 23.2061 75.4374 22.8611 76.4 22.8906C77.7508 22.8906 78.5948 23.4681 78.9061 24.1613C79.2417 23.742 79.6745 23.4079 80.1683 23.1868C80.6622 22.9658 81.2027 22.8642 81.7447 22.8906C83.311 22.8906 84.5247 23.68 84.5247 26.0473L84.5274 31.7048Z" fill="#6982A7"/>
<path d="M86.6971 23.6591C87.6993 23.1158 88.8223 22.8238 89.9666 22.8089C92.6489 22.8089 93.6246 24.1371 93.6246 26.4855V31.7021H91.0793V30.9161C90.7893 31.2293 90.4306 31.4735 90.0304 31.6303C89.6303 31.7871 89.1991 31.8524 88.7695 31.8212C88.3979 31.846 88.0252 31.7923 87.6764 31.6637C87.3277 31.5351 87.011 31.3346 86.7476 31.0756C86.4842 30.8167 86.2803 30.5053 86.1495 30.1624C86.0187 29.8195 85.9641 29.453 85.9894 29.0876C85.9894 27.1257 87.4187 26.2193 89.1605 26.2193C89.7707 26.2072 90.3706 26.3748 90.8831 26.7006C90.9416 25.6615 90.4528 25.2188 89.6693 25.2188C88.8883 25.2381 88.1206 25.4218 87.418 25.7576L86.6971 23.6591ZM90.8871 28.9718V28.433C90.5561 28.2218 90.165 28.1204 89.7711 28.1439C89.2816 28.1439 88.9291 28.3748 88.9291 28.7979C88.9291 29.1831 89.2816 29.4139 89.7711 29.4139C89.9794 29.4316 90.189 29.4007 90.3829 29.3237C90.5768 29.2468 90.7496 29.126 90.8871 28.9712" fill="#6982A7"/>
<path d="M95.4875 18.2305H98.62V28.8175H104.199V31.7048H95.4868L95.4875 18.2305Z" fill="#6982A7"/>
<path d="M106.666 18.4234C106.885 18.4199 107.103 18.4598 107.306 18.5407C107.509 18.6216 107.694 18.7419 107.849 18.8944C108.004 19.0469 108.127 19.2286 108.209 19.4285C108.291 19.6285 108.332 19.8427 108.328 20.0583C108.344 20.2825 108.312 20.5074 108.236 20.7192C108.159 20.9309 108.04 21.1249 107.884 21.2892C107.728 21.4534 107.539 21.5845 107.33 21.6741C107.12 21.7638 106.894 21.8101 106.666 21.8103C106.428 21.823 106.191 21.7865 105.969 21.703C105.747 21.6196 105.545 21.4911 105.377 21.326C105.208 21.1609 105.077 20.9628 104.992 20.7446C104.907 20.5265 104.869 20.2931 104.882 20.0597C104.882 19.8349 104.929 19.6126 105.02 19.4064C105.111 19.2003 105.244 19.0148 105.411 18.8615C105.578 18.7082 105.776 18.5903 105.991 18.5151C106.207 18.44 106.435 18.4092 106.664 18.4247M105.134 23.0443H108.074V31.7054H105.138L105.134 23.0443Z" fill="#6982A7"/>
<path d="M110.482 21.6377C110.482 19.2318 111.735 17.9997 113.693 17.9997C114.626 17.9573 115.541 18.2607 116.257 18.8499L115.28 21.0413C114.985 20.7971 114.607 20.6731 114.223 20.6947C113.831 20.6947 113.42 21.0413 113.42 21.811V23.0431H115.282V25.738H113.42V31.7055H110.484L110.482 21.6377Z" fill="#6982A7"/>
<path d="M124.46 30.9547C123.451 31.6284 122.253 31.9717 121.034 31.9356C118.137 31.9356 116.257 30.1045 116.257 27.3736C116.244 26.7595 116.36 26.1495 116.598 25.5813C116.835 25.0132 117.189 24.4992 117.637 24.0712C118.085 23.6433 118.618 23.3106 119.202 23.0939C119.787 22.8772 120.41 22.7811 121.034 22.8115C121.59 22.793 122.143 22.8851 122.662 23.0821C123.18 23.2792 123.653 23.5772 124.052 23.9583C124.45 24.3393 124.766 24.7957 124.981 25.2998C125.196 25.804 125.305 26.3456 125.302 26.8923C125.32 27.3795 125.261 27.8665 125.126 28.3356H119.291C119.454 28.7285 119.743 29.0581 120.114 29.2738C120.485 29.4894 120.918 29.5791 121.347 29.529C122.159 29.5346 122.958 29.3221 123.657 28.9143L124.46 30.9547ZM119.194 26.4116H122.365C122.357 26.2389 122.313 26.0696 122.235 25.9144C122.158 25.7592 122.049 25.6214 121.915 25.5094C121.781 25.3975 121.625 25.3139 121.456 25.2638C121.288 25.2136 121.111 25.1981 120.936 25.2181C120.549 25.1798 120.16 25.279 119.84 25.4979C119.521 25.7168 119.291 26.0409 119.194 26.4116Z" fill="#6982A7"/>
</g>
<mask id="mask1_2372_28468" style="mask-type:luminance" maskUnits="userSpaceOnUse" x="0" y="0" width="27" height="36">
<path d="M26.809 0H0V36H26.809V0Z" fill="white"/>
</mask>
<g mask="url(#mask1_2372_28468)">
<path d="M16.7985 35.8156L16.7227 35.8052C17.5018 35.9609 18.2974 36.0222 19.0917 35.9876C22.6426 35.9876 25.1985 34.458 26.2926 31.5753C26.8912 29.9934 26.804 27.7006 26.804 26.3816V2.46875C26.804 1.83569 26.5483 1.22856 26.093 0.780913C25.6378 0.33327 25.0203 0.0817871 24.3765 0.0817871C23.7326 0.0817871 23.1152 0.33327 22.6599 0.780913C22.2047 1.22856 21.9489 1.83569 21.9489 2.46875V26.3986C21.9489 27.439 22.0054 32.0586 21.6683 33.377C21.5129 33.9726 21.1623 34.5012 20.6706 34.8811C20.6826 34.872 20.6959 34.8648 20.7085 34.8556C20.1755 35.3017 19.5449 35.6207 18.8658 35.7875C18.1867 35.9544 17.4776 35.9647 16.7938 35.8176" fill="#6982A7" fill-opacity="0.3"/>
<path d="M15.8427 26.3978C15.8427 30.5937 15.7636 31.9892 16.2338 33.3501C16.3498 33.798 16.5776 34.2102 16.8967 34.5495C17.2158 34.8889 17.616 35.1444 18.061 35.2931C18.506 35.4418 18.9817 35.4789 19.445 35.401C19.9082 35.3231 20.3444 35.1327 20.7138 34.847C19.0019 36.4532 16.2311 35.8757 14.9469 35.2532C13.4607 34.577 12.2833 33.3817 11.6434 31.8996C10.9118 30.3386 10.9696 28.1962 10.9696 26.3978L10.9663 9.60997C10.9663 5.40695 11.0455 4.00943 10.5752 2.64592C10.4597 2.19782 10.232 1.78523 9.91301 1.44565C9.59401 1.10606 9.19376 0.850246 8.74863 0.701449C8.30351 0.552653 7.82761 0.515594 7.36422 0.593641C6.90082 0.671687 6.4646 0.862364 6.09521 1.14834C7.80715 -0.460406 10.5779 0.117697 11.8622 0.741578C13.349 1.41967 14.5265 2.61702 15.1657 4.10098C15.8973 5.66461 15.8434 7.81026 15.8434 9.61128L15.8427 26.3978Z" fill="#6982A7"/>
<path d="M10.0095 0.184261L10.0853 0.194724C9.30577 0.0388834 8.5097 -0.0223923 7.71497 0.0122688C4.16606 0.0122688 1.61013 1.5432 0.515393 4.42456C-0.0831854 6.00649 0.00394107 8.29928 0.00394107 9.61833V33.5305C-0.00364899 33.8496 0.0532599 34.1671 0.171369 34.4645C0.289479 34.7618 0.466439 35.0332 0.691995 35.2628C0.917551 35.4925 1.18722 35.6758 1.48536 35.8022C1.7835 35.9286 2.1042 35.9956 2.42885 35.9992C2.75354 35.9955 3.07425 35.9285 3.37243 35.802C3.6706 35.6756 3.94032 35.4923 4.16596 35.2627C4.39161 35.0331 4.5687 34.7618 4.68699 34.4645C4.80527 34.1671 4.86241 33.8497 4.85509 33.5305V9.60133C4.85509 8.56087 4.79856 3.94128 5.13576 2.62289C5.29113 2.02733 5.64175 1.4987 6.13339 1.11877C6.12142 1.12793 6.10811 1.13512 6.09548 1.14428C6.62859 0.698607 7.25921 0.380082 7.93816 0.213554C8.6171 0.047027 9.32599 0.0370018 10.0095 0.184261Z" fill="#6982A7" fill-opacity="0.3"/>
</g>
</g>
<defs>
<clipPath id="clip0_2372_28468">
<rect width="130" height="36" fill="white"/>
</clipPath>
</defs>
</svg>
