<svg width="46" height="46" viewBox="0 0 46 46" fill="none" xmlns="http://www.w3.org/2000/svg">
<path d="M3.59344 2.69301C7.86252 2.62465 12.3239 2.69126 16.6057 2.69138L42.4014 2.69041C42.3867 3.37069 42.4179 4.15242 42.4185 4.84434L42.4199 10.2845L42.4188 27.076C41.9364 27.0279 40.9052 27.0559 40.3831 27.0562L36.5284 27.0579L30.2127 27.0564C29.0413 27.0547 27.8652 27.048 26.6946 27.0582C25.8266 27.0658 25.0591 27.3172 24.4529 27.9648C23.5729 28.9222 23.0997 30.4287 23.13 31.7153C23.1665 33.2621 24.0903 35.6016 25.8029 35.9544C27.0304 36.2072 28.65 36.0894 29.91 36.0826C31.7364 36.0727 33.6185 36.1315 35.4425 36.0586C34.8739 34.877 35.2771 33.134 36.1762 32.1917C36.8368 31.4926 37.7526 31.0912 38.7144 31.0793C41.9632 31.0104 43.6402 34.8578 41.408 37.1824C40.5745 38.0504 39.6287 38.273 38.4666 38.2804L30.492 38.2797L27.8712 38.2822C25.8603 38.2832 24.5417 38.3476 22.9427 36.842C19.4564 33.5593 20.365 25.784 25.651 24.9582C26.3399 24.8506 27.0769 24.8729 27.7891 24.8743L30.4785 24.8777L40.342 24.8783C40.2703 24.4739 40.291 23.5411 40.2914 23.0945L40.2951 20.0985L40.2939 9.00685L40.2887 6.33737C40.2881 5.93285 40.2673 5.18512 40.3272 4.80993C39.8005 4.85225 38.8866 4.81932 38.3317 4.8178L34.6931 4.81636L22.8478 4.8164L11.1858 4.8169L7.69725 4.81887C7.12099 4.82161 6.23634 4.85674 5.68677 4.81187C5.75487 6.14879 5.69841 7.97104 5.69845 9.35531L5.69872 18.1841L5.69876 32.8176C5.69867 35.5661 5.72033 38.3507 5.68776 41.0967C5.78272 41.1825 12.1948 41.1474 12.9564 41.1474L42.4165 41.1477L42.4221 43.3068L3.59567 43.3065C3.50927 37.5865 3.58309 31.6834 3.58302 25.9517L3.59344 2.69301Z" fill="#6982A7"/>
<path d="M8.95525 8.34885C9.69813 8.29971 11.0665 8.34566 11.859 8.34616L17.7796 8.34903L22.7023 8.34485C24.2247 8.34256 25.8848 8.18134 27.2795 8.90346C28.5124 9.54184 29.529 10.6066 29.9574 11.944C29.1536 11.9796 28.1595 11.9835 27.3718 11.8609L27.2696 11.7588C25.8352 10.3331 25.3021 10.5824 23.3977 10.595L20.9488 10.6018L11.1456 10.6084C11.1537 11.3698 11.2031 12.5672 11.1493 13.2955L26.8858 13.2906C28.7213 13.2867 30.9168 13.1281 32.5846 13.9694C35.8094 15.5962 36.5012 20.4725 34.9886 23.4742C34.6129 23.4599 32.7261 23.5171 32.5378 23.42C32.5251 23.3175 32.5746 23.1283 32.6286 23.0412C34.019 20.7996 33.715 17.0823 31.21 15.7609C30.6705 15.4763 29.0508 15.5555 28.347 15.5562L24.1054 15.5594L8.93513 15.5675C8.83068 14.5004 8.91949 12.7564 8.89128 11.6488C8.8752 11.0181 8.86209 8.89699 8.95525 8.34885Z" fill="#6982A7"/>
<path d="M30.2764 16.9086C30.3457 16.9476 30.3236 16.9335 30.3615 17.0236C30.2253 18.1744 29.3606 19.5466 28.5259 20.3365C26.8318 21.9398 25.2742 21.8815 23.0853 21.8105C22.0736 21.7745 21.0614 21.7524 20.049 21.7444C17.148 21.7406 14.0284 21.9219 11.1404 21.8184C11.2144 23.469 11.1568 25.6272 11.1569 27.3018L11.1612 38.2782L9.10748 38.2795L8.99006 38.2577C8.83701 38.0263 8.89433 34.0566 8.89419 33.4195L8.89302 25.4548L8.89334 21.7457C8.89343 21.265 8.86922 20.1152 8.94464 19.6759C9.02447 19.5936 9.14998 19.5684 9.26363 19.5683C10.5219 19.568 11.7999 19.5701 13.0564 19.5707L20.9137 19.5723C22.1335 19.5724 24.7354 19.7058 25.8224 19.4032C27.1497 19.0337 27.4768 17.9653 28.0851 16.9001C28.6674 17.0012 29.6857 16.9891 30.2764 16.9086Z" fill="#6982A7"/>
<path d="M22.311 24.51C22.4873 24.4879 22.5509 24.4777 22.727 24.4957L22.7425 24.5478C22.6952 24.6828 22.191 25.0751 22.047 25.2043C21.5148 25.6817 21.1491 26.194 20.7292 26.7653C19.3177 26.8192 17.6957 26.7802 16.2687 26.7781C16.3449 27.4587 16.301 29.0538 16.3003 29.7899L16.2964 35.5099C16.2968 36.3008 16.2628 37.5392 16.3679 38.2796L14.4537 38.2804C14.2555 38.2748 14.2367 38.3093 14.1136 38.2091C14.0696 37.978 14.075 37.1407 14.0717 36.8396L14.0658 33.499L14.0647 27.9979C14.0647 26.8727 14.0346 25.6178 14.108 24.5084C15.3319 24.5734 17.0157 24.5252 18.2766 24.5251C19.4878 24.525 21.1404 24.5708 22.311 24.51Z" fill="#6982A7"/>
</svg>
