<svg width="104" height="44" viewBox="0 0 104 44" fill="none" xmlns="http://www.w3.org/2000/svg">
<g clip-path="url(#clip0_2376_28834)">
<path d="M45.5361 8.85307C46.3493 8.8886 46.7011 9.97327 46.8978 10.6259C46.7749 10.9177 46.6274 11.0018 46.3891 11.172C46.2397 10.7157 45.9201 9.73202 45.277 9.93025C44.5073 10.1696 44.4601 11.7443 44.4979 12.3502C44.53 12.8963 44.7967 14.671 45.6496 14.613C46.1791 14.5775 46.4307 13.8014 46.5328 13.3675C46.7181 13.4218 46.9072 13.5246 46.9583 13.7041C46.8013 14.2801 46.5404 14.9683 46.1016 15.3816C45.8936 15.578 45.6742 15.664 45.4567 15.6453C45.0747 15.7033 44.7286 15.5275 44.4411 15.1946C40.0782 15.3311 35.7247 15.664 31.3617 15.7856C30.6695 17.9867 29.011 17.8146 27.8895 16.2251C26.6186 14.4223 26.6356 11.619 27.5831 9.66657C28.455 7.86939 29.9755 8.12372 30.8549 9.54314C29.4781 9.77316 28.8275 10.8055 28.8048 11.2001C29.0753 10.2631 30.3991 10.0724 31.4241 10.0013C35.719 9.70397 40.0214 9.51322 44.3201 9.26823C44.6019 8.9447 44.9745 8.80445 45.5361 8.85307Z" fill="#6982A7" fill-opacity="0.5"/>
<path fill-rule="evenodd" clip-rule="evenodd" d="M46.2339 12.8009C48.4768 13.6555 49.6626 15.1984 49.7912 17.4294C49.9236 18.0484 50.1221 18.5216 50.3869 18.8451C51.6464 20.3823 54.4851 18.5683 52.8889 16.6066C52.592 16.2419 52.1741 15.8604 51.6351 15.4621C50.7122 14.7795 50.4361 13.534 52.1476 14.1623C54.1787 14.9085 54.3338 16.6384 55.9924 17.536C60.1946 19.8138 63.8049 15.2844 57.9876 12.799C54.3017 11.4769 50.0295 11.5722 46.2339 12.8009ZM62.5132 15.0058C62.0404 14.2315 61.7794 13.5471 61.3293 13.0085C62.3581 13.0777 63.3737 13.3657 64.0564 14.1137C65.2592 15.4359 63.3793 16.4177 62.5132 15.0058ZM55.13 3.17355C55.5347 3.68222 55.8146 4.22269 55.9508 4.7912C56.486 3.84679 56.7942 2.78457 56.4273 1.7504C55.8808 0.200076 54.0369 1.47549 55.13 3.17355ZM45.9351 11.9631C48.9042 10.1584 49.0517 8.36125 49.3865 6.04418C49.8006 3.1829 53.1216 2.79579 54.3357 5.05489C54.8936 6.09093 54.6156 7.35325 53.687 8.41548C52.053 10.2893 48.7113 11.7854 45.9351 11.9631ZM55.3097 6.62017C55.6936 5.52429 55.4855 4.48076 54.6856 3.48586C53.0989 1.07155 56.1323 -0.72937 56.9455 1.569C57.4675 3.04639 56.9209 4.72949 55.3097 6.62017ZM52.3594 10.7232C54.9049 10.2052 55.4799 8.64924 56.6392 6.68375C58.9502 2.76026 63.9108 6.11898 60.6749 9.18222C58.9351 10.8317 56.1626 11.3459 52.3594 10.7232ZM59.4835 12.5297C61.8191 12.2623 63.4777 12.67 64.463 13.7509C66.1934 15.6528 63.3245 17.3752 62.0442 15.2844C61.2972 14.0632 61.1345 12.9505 59.4835 12.5297ZM59.423 11.5386C62.1444 9.30004 64.5821 8.43605 66.7343 8.94472C70.7342 9.88913 68.3796 14.8262 64.7088 12.7766C62.8687 11.7518 61.6811 10.7812 59.423 11.5386ZM64.48 6.44251C64.3514 5.97685 63.8635 5.70195 63.3926 5.82911C62.9198 5.95628 62.6418 6.43877 62.7723 6.90443C62.9009 7.37196 63.3888 7.64686 63.8616 7.51782C64.3306 7.39066 64.6086 6.90817 64.48 6.44251ZM59.9336 2.88743C59.805 2.42177 59.3171 2.14686 58.8462 2.27403C58.3753 2.4012 58.0954 2.88369 58.2259 3.34934C58.3545 3.81687 58.8424 4.09178 59.3152 3.96274C59.7861 3.83557 60.0622 3.35495 59.9336 2.88743ZM63.0162 17.7511C63.1184 18.1157 62.899 18.4935 62.5302 18.5926C62.1614 18.6936 61.7794 18.4767 61.6773 18.112C61.577 17.7473 61.7945 17.3696 62.1633 17.2686C62.534 17.1713 62.9141 17.3864 63.0162 17.7511ZM61.4201 10.7494C62.9822 9.75635 64.8072 9.04571 66.6076 9.47209C69.8075 10.2276 67.9182 13.9473 64.9774 12.3053C63.6441 11.5629 62.6437 10.8896 61.4201 10.7494ZM54.6761 10.3791C55.7465 9.58056 56.3139 8.40426 57.1536 6.9811C59.0031 3.83931 62.8517 6.30786 60.2627 8.75771C58.8083 10.136 56.6978 10.4633 54.6761 10.3791ZM48.0267 11.0505C49.3014 9.76009 49.6077 8.33693 49.9292 6.12085C50.2507 3.89168 52.8322 3.41106 53.8553 5.30922C54.3622 6.25176 53.9329 7.31024 53.2766 8.06203C52.0852 9.42347 50.0162 10.5044 48.0267 11.0505ZM57.7871 13.3021C58.8632 13.764 60.9435 14.9833 60.3894 16.4495C60.1681 17.0367 59.5743 17.3958 58.9823 17.5379C58.0576 17.7586 57.0741 17.5061 56.2571 17.0629C54.6704 16.2026 54.5399 14.4634 52.3405 13.6555C50.1297 12.8439 49.7496 14.7421 51.3098 15.8959C51.7183 16.1989 52.1438 16.5523 52.4653 16.9469C53.6057 18.3495 51.6237 19.4922 50.8143 18.5047C50.5647 18.1999 50.421 17.7399 50.3377 17.3565C50.211 15.3629 49.2976 13.9005 47.743 12.9355C51.0261 12.1314 54.6137 12.1688 57.7871 13.3021Z" fill="#6982A7" fill-opacity="0.6"/>
<path fill-rule="evenodd" clip-rule="evenodd" d="M57.7872 13.3021C54.6138 12.1688 51.0262 12.1314 47.7412 12.9355C49.2958 13.8986 50.2111 15.361 50.3359 17.3565C50.421 17.7398 50.5629 18.1999 50.8125 18.5047C51.6219 19.4921 53.6039 18.3495 52.4635 16.9469C52.142 16.5523 51.7165 16.1989 51.308 15.8959C49.7478 14.742 50.1279 12.8439 52.3387 13.6555C54.5381 14.4634 54.6705 16.2026 56.2553 17.0628C57.0723 17.5061 58.0557 17.7585 58.9805 17.5379C59.5725 17.3957 60.1644 17.0367 60.3876 16.4495C60.9436 14.9833 58.8633 13.764 57.7872 13.3021ZM51.656 18.5552C52.594 17.6762 51.5198 16.7318 50.8125 15.9258C52.055 16.7767 53.3561 17.9493 51.656 18.5552ZM58.6269 17.1956C59.8788 16.1914 59.6481 15.3367 58.9767 14.4615C60.346 15.5125 60.2779 16.513 58.6269 17.1956ZM64.0565 14.1137C63.3737 13.3638 62.3582 13.0758 61.3294 13.0084C61.7776 13.547 62.0405 14.2315 62.5132 15.0057C63.3794 16.4177 65.2592 15.4359 64.0565 14.1137ZM61.4201 10.7494C62.9823 9.75632 64.8073 9.04568 66.6077 9.47206C69.8075 10.2276 67.9183 13.9472 64.9775 12.3053C63.6442 11.5629 62.6437 10.8896 61.4201 10.7494ZM66.7665 12.4119C68.2738 11.4581 68.1679 10.4614 66.636 9.65908C67.4492 10.4071 67.8256 11.2075 66.7665 12.4119ZM54.6762 10.3791C56.6979 10.4632 58.8084 10.136 60.2627 8.75768C62.8518 6.30596 59.0032 3.83742 57.1536 6.98108C56.3139 8.40236 55.7466 9.58053 54.6762 10.3791ZM58.7763 5.90763C60.7242 5.98431 61.18 6.97921 60.1852 8.56693C60.5332 7.42055 60.4405 6.46118 58.7763 5.90763ZM48.0268 11.0504C50.0163 10.5044 52.0853 9.42344 53.2748 8.062C53.9329 7.31021 54.3622 6.25173 53.8535 5.30919C52.8304 3.40916 50.2508 3.89165 49.9274 6.12082C49.6078 8.33691 49.3014 9.76193 48.0268 11.0504ZM51.7581 8.62864C53.1046 7.4673 53.4791 6.22929 53.0063 4.90899C54.0162 6.22742 53.6001 7.4673 51.7581 8.62864ZM56.4274 1.75037C56.7943 2.78454 56.486 3.84677 55.9508 4.79117C55.8166 4.22266 55.5348 3.6822 55.1301 3.17353C54.037 1.47546 55.8809 0.200048 56.4274 1.75037Z" fill="#6982A7"/>
<path fill-rule="evenodd" clip-rule="evenodd" d="M15.3415 24.9417C12.5028 24.9417 8.3044 25.2858 5.67944 23.728C3.19253 22.2524 2.38121 18.7217 5.044 16.8815C7.11863 15.4471 10.6022 15.3667 12.8395 15.2676L24.5194 14.7552C24.9544 16.601 26.4295 18.1401 28.5552 17.6295C27.9784 17.3696 27.5018 16.9956 27.1236 16.5075C25.7846 14.7757 25.7128 11.7387 26.5827 9.81994C26.8796 9.16353 27.307 8.6212 27.8819 8.28458C25.5804 8.26962 24.6839 9.32062 24.3984 11.3647L12.7771 12.0061C9.77385 12.1725 5.93286 12.4736 3.22846 14.11C-1.7132 17.0984 -0.538775 24.2778 4.03222 26.7931C7.15267 28.5098 11.6045 28.5977 15.2091 28.4799L17.4672 34.0921L17.8587 35.0646H22.233L19.3187 27.8254C20.9281 27.1316 22.0911 25.7963 22.076 23.9991V21.7176C22.076 18.1756 18.1631 17.2368 15.3434 17.2349L8.85095 17.2312V23.7074C10.2523 23.9374 11.805 23.9524 13.2234 23.9337V20.7732H15.3434C16.4535 20.7732 17.7565 21.1753 17.7565 22.4769V23.2361C17.7565 23.6083 17.6487 23.9075 17.4691 24.145C17.0209 24.736 16.132 24.9417 15.3415 24.9417ZM13.2215 29.5515V35.0646H8.84717V29.2972C10.2996 29.4898 11.788 29.5515 13.2215 29.5515ZM99.7829 30.812C99.7829 31.8181 98.7692 31.992 97.9541 31.992C97.1258 31.992 96.1253 31.8218 96.1253 30.812V26.1722C96.1253 25.1829 97.1447 25.0183 97.9541 25.0183C98.7503 25.0183 99.7829 25.1848 99.7829 26.1722V30.812ZM91.8853 31.1785C91.8853 34.3726 95.2686 35.2666 97.956 35.2666C100.624 35.2666 104.027 34.4175 104.027 31.1785V25.8318C104.027 22.5928 100.624 21.7438 97.956 21.7438C95.2686 21.7438 91.8853 22.6396 91.8853 25.8318V31.1785ZM86.2628 30.812C86.2628 31.8199 85.2491 31.992 84.434 31.992C83.6057 31.992 82.6204 31.8218 82.6052 30.812V26.1722C82.6204 25.1829 83.6246 25.009 84.434 25.0183C85.2302 25.009 86.2628 25.1829 86.2628 26.1722V30.812ZM78.3633 31.1785C78.3633 34.4175 81.7656 35.2591 84.4321 35.2666C87.1006 35.2572 90.5028 34.4175 90.5028 31.1785V25.8318C90.5028 22.5928 87.1006 21.7513 84.4321 21.7438C81.7637 21.7513 78.3633 22.5928 78.3633 25.8318V31.1785ZM72.6387 23.4475V21.9551L68.4781 21.9495L68.4762 35.0253H72.7181V26.7744C73.9077 25.6841 75.5247 25.1399 77.0697 25.2315L77.0906 21.77C75.4225 21.7513 73.7904 22.2076 72.6387 23.4475ZM59.86 26.0151C59.86 24.4068 63.0674 24.3619 63.0674 26.0151V26.7744H59.86V26.0151ZM67.0162 25.8318C67.0162 22.5928 64.1435 21.7438 61.4505 21.7438C58.7026 21.7438 55.7258 22.6788 55.7258 25.8318V31.0121C55.7258 34.3334 58.6742 35.2684 61.4505 35.2666C64.3194 35.2666 66.8838 34.3352 66.8838 30.9952L66.8971 30.2416L63.0636 30.2341L63.0617 31.0195C62.8102 32.6671 59.86 32.5848 59.86 31.0195V29.4468H67.0162V25.8318ZM50.5402 25.8318L50.5383 26.5649L54.4115 26.5687L54.4096 25.8318C54.4096 22.7031 51.8111 21.7438 49.1086 21.7438C46.7333 21.7438 43.7887 22.6844 43.8076 25.4653C43.8171 26.9801 44.375 28.4781 45.9011 29.0559L49.6381 30.4716C49.9899 30.6044 50.6783 30.8026 50.6726 31.2832C50.6613 32.2706 49.7894 32.3567 48.9762 32.3585C48.076 32.3585 47.3063 32.2351 47.3063 31.1523L47.3025 30.4435L43.4369 30.4473V31.1523C43.4369 34.3783 46.2945 35.2628 48.9762 35.2666C49.988 35.2684 50.8504 35.1562 51.5615 34.9524C53.0971 34.5092 54.5703 33.4395 54.5703 31.7021V30.4435C54.5703 28.9138 53.2219 28.0722 51.9189 27.6122L48.2084 26.3012C47.8869 26.1872 47.6524 25.944 47.6524 25.5943C47.6448 24.2086 50.5402 24.1674 50.5402 25.8318ZM29.949 21.957L29.9509 35.059H34.1928V27.3092C34.1928 25.1137 37.8504 24.39 37.8504 27.0736V35.059H42.0923V25.3849C42.0923 23.1314 40.3978 21.7419 38.1965 21.7419C36.7024 21.7419 35.2311 22.1889 34.0869 23.1576L34.0831 21.957H29.949ZM24.058 21.9532H28.2999V35.059H24.058V21.9532Z" fill="#6982A7"/>
<path d="M25.0718 39.4444C25.0718 40.3682 24.6633 40.9498 23.8482 41.1911L25.3308 43.2257H24.1167L22.7645 41.3444H21.5088V43.2257H20.5537V37.6266H22.6586C23.5229 37.6266 24.1413 37.7706 24.5138 38.0586C24.8845 38.3485 25.0718 38.8104 25.0718 39.4444ZM22.6983 40.486C23.2373 40.486 23.6061 40.4037 23.799 40.2373C23.9938 40.0727 24.0902 39.8072 24.0902 39.4406C24.0902 39.0741 23.99 38.8235 23.7914 38.687C23.5928 38.5505 23.2354 38.4831 22.7229 38.4831H21.5088V40.486H22.6983ZM28.2452 37.6266H29.2002V43.2239H28.2452V37.6266ZM36.8141 37.6266H37.7692V43.2239H36.7328L33.5253 39.1395V43.2239H32.5703V37.6266H33.5253L36.8141 41.8063V37.6266ZM42.8508 38.3635C42.5728 38.3635 42.3439 38.4196 42.1662 38.5318C41.9884 38.644 41.8995 38.8142 41.8995 39.0404C41.8995 39.2667 41.9884 39.4406 42.1662 39.5603C42.3439 39.68 42.7241 39.8091 43.3047 39.9493C43.8853 40.0877 44.3221 40.2841 44.6171 40.5347C44.9122 40.7852 45.0578 41.1555 45.0578 41.6436C45.0578 42.1317 44.8724 42.5282 44.498 42.833C44.1254 43.1378 43.6375 43.2893 43.0323 43.2893C42.1473 43.2893 41.3605 42.9882 40.6759 42.3842L41.2754 41.6717C41.8484 42.1635 42.4423 42.4085 43.0569 42.4085C43.3652 42.4085 43.6091 42.3431 43.7907 42.2121C43.9722 42.0812 44.063 41.9073 44.063 41.6923C44.063 41.4772 43.9779 41.307 43.8077 41.1873C43.6375 41.0676 43.3444 40.9573 42.9283 40.8582C42.5123 40.7591 42.1964 40.6693 41.9808 40.5851C41.7652 40.5029 41.5761 40.3907 41.4059 40.2616C41.0731 40.0073 40.9047 39.6258 40.9047 39.1078C40.9047 38.5897 41.0958 38.1914 41.4759 37.9109C41.856 37.6304 42.3269 37.4901 42.8886 37.4901C43.2498 37.4901 43.6091 37.5481 43.9666 37.6659C44.3221 37.7837 44.6304 37.9483 44.8895 38.1615L44.3789 38.874C44.2105 38.7244 43.9855 38.601 43.698 38.5056C43.4106 38.4121 43.1288 38.3635 42.8508 38.3635ZM52.0136 37.6266V38.5149H48.9933V39.9961H51.7072V40.8376H48.9933V42.3356H52.1119V43.2239H48.0383V37.6266H52.0136ZM58.3831 43.2893C57.8535 43.2893 57.4034 43.1435 57.0309 42.8536C56.6583 42.5619 56.4711 42.1635 56.4711 41.6567C56.4711 41.0527 56.9136 40.516 57.7987 40.0466C57.5774 39.796 57.4224 39.5902 57.3335 39.4294C57.2446 39.2686 57.1992 39.0666 57.1992 38.8216C57.1992 38.3952 57.3581 38.0661 57.6777 37.8361C57.9954 37.6061 58.3717 37.492 58.8029 37.492C59.2341 37.492 59.601 37.6023 59.9036 37.8211C60.2062 38.0399 60.3575 38.3466 60.3575 38.7412C60.3575 39.2705 59.9263 39.7698 59.062 40.2392C59.4932 40.7628 59.845 41.163 60.1154 41.4398C60.2818 41.1948 60.4123 40.9087 60.505 40.5833L61.1688 41.0471C61.0288 41.4155 60.87 41.739 60.6903 42.0158C60.9059 42.2346 61.182 42.4983 61.5168 42.8087L60.9097 43.3697L60.1646 42.6404C59.6899 43.0724 59.096 43.2893 58.3831 43.2893ZM57.3694 41.696C57.3694 41.9372 57.4715 42.1317 57.6777 42.2851C57.8838 42.4366 58.1561 42.5132 58.4965 42.5132C58.837 42.5132 59.1982 42.358 59.5821 42.0494C59.0374 41.4828 58.6043 41.0078 58.2866 40.6244C57.6758 40.9479 57.3694 41.3051 57.3694 41.696ZM58.7991 38.2045C58.6176 38.2045 58.4568 38.2606 58.3131 38.3728C58.1694 38.485 58.0975 38.6159 58.0975 38.7655C58.0975 38.9151 58.1334 39.0498 58.2072 39.1695C58.2809 39.2892 58.4058 39.4556 58.5835 39.6707C59.1944 39.3714 59.4989 39.0947 59.4989 38.8385C59.4989 38.6253 59.427 38.4663 59.2852 38.3616C59.1433 38.255 58.9807 38.2045 58.7991 38.2045ZM70.6247 39.4444C70.6247 40.3682 70.2162 40.9498 69.4011 41.1911L70.8838 43.2257H69.6697L68.3175 41.3444H67.0617V43.2257H66.1067V37.6266H68.2116C69.0758 37.6266 69.6942 37.7706 70.0668 38.0586C70.4394 38.3485 70.6247 38.8104 70.6247 39.4444ZM68.2532 40.486C68.7921 40.486 69.1609 40.4037 69.3538 40.2373C69.5486 40.0727 69.6451 39.8072 69.6451 39.4406C69.6451 39.0741 69.5448 38.8235 69.3463 38.687C69.1458 38.5505 68.7903 38.4831 68.2777 38.4831H67.0636V40.486H68.2532ZM77.8377 38.9488C77.4519 38.5542 76.9772 38.356 76.4155 38.356C75.8538 38.356 75.381 38.5542 74.9952 38.9488C74.6094 39.3434 74.4165 39.8221 74.4165 40.3869C74.4165 40.9498 74.6094 41.4286 74.9952 41.825C75.381 42.2196 75.8557 42.4179 76.4155 42.4179C76.9772 42.4179 77.45 42.2196 77.8377 41.825C78.2235 41.4304 78.4164 40.9517 78.4164 40.3869C78.4164 39.8221 78.2235 39.3434 77.8377 38.9488ZM78.5374 42.4515C77.9644 43.0032 77.2571 43.28 76.4155 43.28C75.5739 43.28 74.8666 43.0032 74.2936 42.4515C73.7206 41.8998 73.435 41.2098 73.435 40.385C73.435 39.5603 73.7206 38.8721 74.2936 38.3186C74.8647 37.7669 75.5739 37.4901 76.4155 37.4901C77.2571 37.4901 77.9644 37.7669 78.5374 38.3186C79.1105 38.8703 79.396 39.5603 79.396 40.385C79.396 41.2116 79.1105 41.8998 78.5374 42.4515ZM82.3992 43.2257V37.6266H83.3543V42.3281H85.9376V43.2257H82.3992ZM88.782 43.2257V37.6266H89.7389V42.3281H92.3223V43.2257H88.782Z" fill="#6982A7" fill-opacity="0.5"/>
</g>
<defs>
<clipPath id="clip0_2376_28834">
<rect width="104" height="44" fill="white"/>
</clipPath>
</defs>
</svg>
