<svg width="153" height="37" viewBox="0 0 153 37" fill="none" xmlns="http://www.w3.org/2000/svg">
<path d="M40.2315 3.32994C39.9279 3.02669 39.6243 2.76677 39.2774 2.46352C38.9738 2.24691 38.6702 2.0303 38.3232 1.85702H38.2799C37.8462 1.64041 37.4558 1.4238 37.0221 1.25052C33.9862 0.0808443 30.9937 0.730664 28.1747 2.72344C27.6109 3.11334 27.0471 3.54655 26.4399 3.8498C26.0062 4.10973 25.5291 4.28301 25.0521 4.36965C25.0521 4.36965 25.0521 4.36965 25.0087 4.36965C24.4882 4.4563 23.9244 4.4563 23.2739 4.23969C23.1438 4.19637 23.0137 4.15305 22.9269 4.10973C20.8452 3.32994 19.3272 1.46713 17.2021 0.6007C14.9902 -0.309047 12.6483 -0.179084 10.5665 0.94727C10.4364 0.990592 10.3497 1.07723 10.2196 1.12056C9.8726 1.29384 9.52564 1.55377 9.26542 1.77038C6.35964 4.23969 6.18616 8.7451 6.31627 12.3408C6.31627 12.6873 6.35964 13.0339 6.35964 13.3372L6.57649 15.5032C6.57649 15.5465 6.57649 15.5899 6.57649 15.6332C6.61986 15.8065 6.61986 15.9798 6.61986 16.1097C6.92345 18.3624 7.35715 20.5718 7.96433 22.7379C8.05107 23.1278 8.18118 23.5177 8.31128 23.9076C8.5715 24.8606 8.91846 25.8137 9.26542 26.7234L9.65575 26.6801C11.087 26.5502 12.6483 26.3336 14.3831 25.9437C17.0286 25.3805 19.7176 24.5574 22.3631 23.6043C23.057 23.3444 23.7076 23.1278 24.3581 22.8245C25.6159 22.348 26.917 21.7848 28.1747 21.1783C32.8153 19.0989 37.0221 16.7162 40.6218 14.0303C40.7953 13.9003 40.9688 13.7704 41.0989 13.6404L41.4892 13.3372C41.7061 13.2072 41.8796 13.0339 42.053 12.8606C42.1398 11.9942 42.2265 11.1278 42.2699 10.2614C42.5301 7.61875 41.9663 5.14944 40.2315 3.32994ZM12.3447 7.87868C12.3447 5.92922 11.2604 4.80287 9.26542 4.80287C11.2171 4.80287 12.3447 3.71983 12.3447 1.72705C12.3447 3.67651 13.4723 4.80287 15.4239 4.80287C13.4289 4.80287 12.3447 5.92922 12.3447 7.87868Z" fill="#6982A7"/>
<path d="M29.6495 24.1675C28.7821 24.5141 27.9147 24.8606 27.0473 25.2072C26.3967 25.4671 25.7028 25.727 25.0089 25.987C21.5393 27.2433 18.2432 28.1097 15.0338 28.7162C13.2557 29.0195 11.7377 29.2361 10.3499 29.3227C10.3932 29.4094 10.3932 29.496 10.4366 29.5393C11.1305 31.0989 11.8678 32.6151 12.9954 33.9581C13.0388 34.0014 13.0388 34.0014 13.0822 34.0447C13.3424 34.348 13.5592 34.5646 13.8195 34.7812C13.8628 34.8245 13.8628 34.8245 13.9062 34.8678C16.1614 36.9039 18.1998 36.2974 19.6744 33.0483C19.7178 32.9184 19.8045 32.7884 19.8479 32.6585C19.8479 32.6151 19.8912 32.5718 19.8912 32.5285C20.0647 32.1386 20.2382 31.7054 20.455 31.2722C20.802 30.4924 21.149 29.6693 21.5827 28.9328C22.8838 26.6368 24.0981 26.5502 25.3992 28.6296C25.4426 28.7162 25.486 28.7595 25.5293 28.8462C25.6161 29.0195 25.7462 29.1928 25.8329 29.366C25.8763 29.4094 25.8763 29.4527 25.9197 29.496C26.6136 30.709 27.1774 31.9653 27.9147 33.0917C29.8663 36.0375 32.3384 36.2541 34.984 33.8715C36.3284 32.6585 37.3693 31.1855 38.0632 29.5393L38.4535 28.5863C39.8848 24.9473 40.9256 21.265 41.5762 17.4527C38.1933 19.8787 34.29 22.1314 29.6495 24.1675ZM12.3449 1.72705C12.3449 3.67651 11.2606 4.80286 9.26562 4.80286C11.2173 4.80286 12.3449 5.92922 12.3449 7.87868C12.3449 5.92922 13.4725 4.80286 15.4241 4.80286C13.4291 4.80286 12.3449 3.71983 12.3449 1.72705Z" fill="#6982A7"/>
<path d="M49.4693 7.61875C49.0356 8.78843 48.3417 9.87146 47.561 10.8245C46.4334 12.2108 45.1323 13.4671 43.7445 14.6368C43.571 14.8101 43.3975 14.9401 43.224 15.07C43.1807 15.1133 43.1373 15.1133 43.0939 15.1567C43.0072 15.2 42.9638 15.2866 42.8771 15.3299C42.6169 15.5032 42.4 15.7198 42.1398 15.8931C42.0097 16.0231 41.8362 16.1097 41.7061 16.2397C37.8895 19.1422 33.6393 21.4382 29.2589 23.431C28.4349 23.7776 27.5675 24.1242 26.7001 24.4707C26.0496 24.7307 25.3556 24.9906 24.7051 25.2072C21.4957 26.3336 18.243 27.2866 14.8601 27.8931C13.2988 28.153 11.7375 28.3697 10.1328 28.4563C10.0895 28.4563 10.0027 28.4563 9.95934 28.4563C9.82923 28.4563 9.69912 28.4563 9.56901 28.4563C8.78836 28.4996 8.0077 28.4996 7.22704 28.4563C5.92595 28.413 4.66822 28.1964 3.41049 27.8065C2.19614 27.3733 0.98178 26.6801 0.374602 25.5104C-0.232576 24.3408 -0.0157267 23.0411 0.417972 21.9148C0.895041 20.7884 1.54559 19.792 2.28288 18.839C3.28038 17.626 4.53811 16.413 5.7091 15.3733C5.7091 15.5466 5.75247 15.6765 5.79584 15.8498C4.66822 16.8029 3.5406 17.9292 2.58647 19.0989C1.84918 20.0086 1.242 21.005 0.851671 22.0881C0.461342 23.1278 0.374602 24.2975 0.895041 25.2505C1.41548 26.2036 2.49973 26.7668 3.62734 27.1133C4.75496 27.4599 6.01269 27.5899 7.22704 27.5899C7.87759 27.5899 8.48477 27.5899 9.13532 27.5466C9.26543 27.5466 9.39554 27.5466 9.56901 27.5032C9.61238 27.5032 9.65576 27.5032 9.69913 27.5032C11.3472 27.3733 12.9519 27.07 14.5566 26.7668C17.2889 26.1603 20.0212 25.3372 22.6233 24.3841C23.3173 24.1675 23.9678 23.9076 24.6184 23.6043C25.9195 23.0845 27.2206 22.5213 28.4783 21.9581C33.0755 20.052 37.3691 17.6693 41.229 14.8101C41.4025 14.6801 41.576 14.5502 41.7495 14.4202C41.8796 14.3336 41.9663 14.2469 42.0964 14.1603L42.1398 14.1169C42.5735 13.7704 43.0506 13.3805 43.4843 13.0339C43.7011 12.8606 43.8746 12.6873 44.0914 12.5141C44.9155 11.7343 45.7395 10.9112 46.4334 10.0447C47.1273 9.135 47.7779 8.18193 48.1682 7.22886C48.5585 6.23247 48.6886 5.19276 48.2116 4.32633C47.8212 3.45991 46.8671 2.85341 45.7829 2.4202C44.6986 2.03031 43.4409 1.8137 42.2265 1.77038C41.6193 1.77038 41.0122 1.77038 40.405 1.77038C40.1881 1.64041 39.9713 1.51045 39.7111 1.38049C39.5376 1.29384 39.3641 1.2072 39.234 1.16388C40.2315 1.07724 41.229 1.03392 42.2699 1.07724C43.571 1.07724 44.8287 1.2072 46.1298 1.55377C47.3875 1.90034 48.7754 2.55016 49.4693 3.8498C50.0765 5.01948 49.903 6.44908 49.4693 7.61875Z" fill="#6982A7" fill-opacity="0.5"/>
<path d="M15.3807 4.80286C13.429 4.80286 12.3014 5.92922 12.3014 7.87868C12.3014 5.92922 11.2172 4.80286 9.22217 4.80286C11.1738 4.80286 12.3014 3.71983 12.3014 1.72705C12.3448 3.71983 13.429 4.80286 15.3807 4.80286Z" fill="white"/>
<path d="M27.2641 15.5466C27.1773 16.0664 27.134 16.7596 26.6569 17.3661C25.616 18.7523 24.0113 18.709 23.1006 17.1928C22.797 16.6729 22.6235 16.0664 22.5801 15.4599C22.5368 14.9401 22.7536 14.7668 23.2307 15.0267C24.445 15.6765 25.5726 15.6765 26.7003 14.8534C26.8304 14.7668 27.0039 14.6368 27.1773 14.7668C27.3074 14.8101 27.3074 14.9834 27.2641 15.5466Z" fill="white"/>
<mask id="mask0_2376_28732" style="mask-type:luminance" maskUnits="userSpaceOnUse" x="22" y="14" width="6" height="5">
<path d="M27.2641 15.5466C27.1773 16.0664 27.134 16.7596 26.6569 17.3661C25.616 18.7523 24.0113 18.709 23.1006 17.1928C22.797 16.6729 22.6235 16.0664 22.5801 15.4599C22.5368 14.9401 22.7536 14.7668 23.2307 15.0267C24.445 15.6765 25.5726 15.6765 26.7003 14.8534C26.8304 14.7668 27.0039 14.6368 27.1773 14.7668C27.3074 14.8101 27.3074 14.9834 27.2641 15.5466Z" fill="white"/>
</mask>
<g mask="url(#mask0_2376_28732)">
<path d="M24.9655 21.6982C26.4026 21.6982 27.5677 20.5345 27.5677 19.0989C27.5677 17.6634 26.4026 16.4996 24.9655 16.4996C23.5283 16.4996 22.3633 17.6634 22.3633 19.0989C22.3633 20.5345 23.5283 21.6982 24.9655 21.6982Z" fill="#6982A7" fill-opacity="0.1"/>
</g>
<path d="M28.3047 10.8679C28.3481 10.1747 28.4348 9.3083 29.1287 8.61516C29.9527 7.79206 31.037 7.8787 31.6875 8.83177C32.5116 10.0014 32.5116 12.2108 31.6008 13.3372C30.9069 14.2469 29.6492 14.2469 28.9119 13.2939C28.5649 12.774 28.3047 11.9509 28.3047 10.8679ZM31.4273 9.95812C31.4273 9.35163 31.0804 8.91841 30.5599 8.91841C29.9961 8.91841 29.6058 9.39495 29.6492 10.0448C29.6492 10.6079 30.0829 11.0845 30.5599 11.0845C31.037 11.0412 31.4273 10.6079 31.4273 9.95812Z" fill="white"/>
<path d="M17.5923 10.9978C17.5923 10.1747 17.8091 9.39491 18.3296 8.74509C19.0235 7.87867 20.1077 7.83535 20.8884 8.65845C21.9726 9.82813 21.9726 12.3408 20.8884 13.5104C20.1511 14.2902 18.9801 14.2036 18.2862 13.2938C17.7658 12.6007 17.5923 11.8209 17.5923 10.9978ZM20.845 10.0014C20.845 9.39491 20.4547 8.91838 19.9343 8.91838C19.4138 8.91838 19.0235 9.35159 19.0235 9.91477C19.0235 10.5213 19.4572 11.0411 19.9776 11.0411C20.4547 11.0411 20.845 10.6079 20.845 10.0014Z" fill="white"/>
<path d="M30.7768 6.31909C31.4274 6.31909 31.9478 6.57902 32.3815 7.01223C32.555 7.18552 32.6851 7.31548 32.8152 7.53209C32.8586 7.61873 32.9019 7.66205 32.9019 7.74869C32.9019 7.79202 32.9019 7.83534 32.8586 7.87866C32.8152 7.92198 32.7718 7.87866 32.7285 7.87866C32.6417 7.83534 32.5983 7.74869 32.5116 7.70537C32.1213 7.22884 31.6008 6.88227 30.9937 6.7523C30.7768 6.70898 30.56 6.70898 30.3431 6.7523C30.2564 6.79563 30.1696 6.79563 30.0829 6.7523C29.9528 6.70898 29.9528 6.62234 29.9962 6.5357C30.0395 6.44906 30.1263 6.44906 30.213 6.40573C30.4299 6.31909 30.6033 6.31909 30.7768 6.31909Z" fill="white"/>
<path d="M18.9802 6.36241C19.2404 6.36241 19.4573 6.40573 19.7175 6.49238C19.7609 6.49238 19.8043 6.5357 19.891 6.57902C19.9344 6.62234 19.9344 6.66566 19.9344 6.70898C19.9344 6.7523 19.891 6.79563 19.8043 6.79563C19.6741 6.79563 19.544 6.79563 19.4139 6.7523C18.8935 6.66566 18.4164 6.79563 18.0261 7.09887C17.8526 7.22884 17.7225 7.3588 17.5924 7.53209C17.5057 7.61873 17.4189 7.70537 17.3322 7.79202C17.2888 7.83534 17.2454 7.87866 17.2021 7.83534C17.1587 7.79202 17.1587 7.74869 17.1587 7.66205C17.2021 7.53209 17.2454 7.40212 17.3322 7.27216C17.6791 6.75231 18.1562 6.40573 18.8067 6.31909C18.8501 6.31909 18.8501 6.31909 18.8935 6.31909C18.8935 6.36241 18.9369 6.36241 18.9802 6.36241Z" fill="white"/>
<path opacity="0.4" d="M9.87237 25.987C9.95911 26.0303 10.0025 26.117 10.0892 26.1603C10.176 25.4238 9.69889 24.5141 9.48204 23.7776C9.22182 22.8245 8.9616 21.8715 8.74475 20.9184C7.92073 17.1061 7.48703 13.2505 7.83399 9.35163C7.87736 9.04838 8.26769 7.2722 7.79062 7.18556C7.27018 7.0556 7.14007 8.35524 7.0967 8.61516C6.87985 11.6043 7.05333 14.5935 7.5304 17.5827C7.87736 19.922 8.48453 22.2614 9.13508 24.5141C9.30856 24.9906 9.43867 25.6404 9.87237 25.987Z" fill="#F8FBFE"/>
<path opacity="0.4" d="M13.1686 33.3083C14.0793 34.5213 15.9876 36.1242 17.6357 35.2144C17.679 35.1711 17.7658 35.1278 17.8092 35.0845C17.8525 34.9978 17.8959 34.8678 17.8092 34.8245C17.5923 34.5646 17.0285 34.9978 16.7683 35.0411C16.2045 35.1711 15.5973 34.8678 15.1636 34.5213C14.6865 34.1747 14.2528 33.6982 13.8191 33.265C13.3854 32.7884 12.9951 32.2686 12.6048 31.7487C12.2144 31.1855 11.8675 30.579 11.5205 29.9725C11.4771 29.8859 11.3904 29.7559 11.3037 29.7126C11.0001 29.5826 11.0434 30.0159 11.0868 30.1891C11.3037 30.7523 11.7374 31.2722 12.041 31.7487C12.4747 32.2252 12.7782 32.7884 13.1686 33.3083Z" fill="#F8FBFE"/>
<path opacity="0.4" d="M27.0035 30.0592C27.8709 31.7487 28.7383 34.0881 30.6899 34.7812C31.0369 34.9112 33.0319 35.2144 32.7717 34.478C32.7283 34.3047 32.4681 34.2614 32.2946 34.218C31.4706 34.1314 30.6899 33.6982 30.0394 33.1783C29.3021 32.5285 28.7383 31.7054 28.2612 30.839C27.6107 29.6693 27.1336 28.413 26.2662 27.3733C26.0927 27.2 25.9192 26.9834 25.659 26.8967C25.5289 26.8534 25.2253 26.7234 25.0518 26.8101C24.7916 26.9401 25.1386 27.2433 25.2687 27.4166C25.9626 28.2397 26.5264 29.1494 27.0035 30.0592Z" fill="#F8FBFE"/>
<path opacity="0.4" d="M32.3817 1.6404C36.5018 0.427399 40.0148 3.41657 41.446 7.09888C41.446 7.05556 40.7954 6.79563 40.7087 6.70899C40.4485 6.49238 40.2316 6.23245 40.0581 5.9292C39.6678 5.36603 39.2775 4.80285 38.8004 4.28299C37.3692 2.94003 35.4609 1.98697 33.4659 2.11693C30.6902 2.29021 29.1289 4.84617 26.5701 5.45267C26.093 5.58263 25.4425 5.62595 25.0088 5.36603C25.0522 5.14942 25.3124 4.88949 25.5292 4.75953C26.0063 4.54292 26.6135 4.58624 27.1339 4.36964C27.7411 4.10971 28.3483 3.71982 28.9121 3.32993C29.9963 2.59346 31.1673 1.98697 32.3817 1.6404Z" fill="#F8FBFE"/>
<path d="M56.0446 10.6538C56.0446 10.028 56.1599 9.47912 56.385 9.00158C56.6155 8.52403 56.912 8.12334 57.2743 7.79949C57.6422 7.47563 58.0539 7.22863 58.5261 7.06396C58.9982 6.89929 59.4703 6.81696 59.9535 6.81696C60.3048 6.81696 60.6617 6.84989 61.0295 6.91576C61.3974 6.98163 61.7432 7.07494 62.0781 7.19021C62.413 7.30548 62.715 7.44819 62.9949 7.61286C63.2749 7.77753 63.5055 7.95318 63.6867 8.15078L62.8248 9.83041C62.5228 9.4901 62.1385 9.21565 61.6609 9.00707C61.1832 8.79848 60.6397 8.69419 60.0303 8.69419C59.4539 8.69419 58.9927 8.85886 58.6414 9.18271C58.29 9.50656 58.1143 9.98411 58.1143 10.6099C58.1143 11.038 58.2571 11.4058 58.5425 11.7077C58.828 12.0095 59.1849 12.2895 59.6076 12.5475C60.0303 12.8109 60.4915 13.0689 60.9856 13.3324C61.4797 13.5959 61.9409 13.8923 62.3636 14.2326C62.7863 14.5729 63.1432 14.9736 63.4287 15.4347C63.7141 15.8958 63.8569 16.4666 63.8569 17.1472C63.8569 17.6797 63.769 18.1792 63.5934 18.6348C63.4177 19.0903 63.1542 19.491 62.8028 19.8259C62.4514 20.1662 62.0122 20.4297 61.4907 20.6163C60.9691 20.8029 60.3652 20.9017 59.6735 20.9017C58.9159 20.9017 58.2022 20.7919 57.5214 20.5669C56.8406 20.3418 56.2861 20.0564 55.8579 19.7051L56.6375 18.042C56.8955 18.2505 57.2743 18.4646 57.7739 18.6787C58.279 18.8982 58.828 19.008 59.4264 19.008C60.195 19.008 60.7825 18.8708 61.1887 18.5854C61.595 18.3054 61.7981 17.7785 61.7981 17.01C61.7981 16.5654 61.6554 16.1922 61.3699 15.8848C61.0844 15.5774 60.7276 15.2975 60.3048 15.045C59.8821 14.7925 59.4209 14.54 58.9268 14.293C58.4327 14.046 57.9716 13.7605 57.5488 13.4312C57.1261 13.1073 56.7693 12.7231 56.4838 12.2785C56.1873 11.8339 56.0446 11.296 56.0446 10.6538Z" fill="#6982A7"/>
<path d="M73.2174 12.0809C73.8158 11.1807 74.7272 10.7306 75.9569 10.7306C76.6761 10.7306 77.2526 10.8459 77.6973 11.0709C78.142 11.3014 78.4878 11.6033 78.7459 11.9876C78.9984 12.3718 79.1741 12.8109 79.2619 13.3104C79.3553 13.8044 79.3992 14.3204 79.3992 14.8528V20.7096H77.3459V14.8583C77.3459 13.9965 77.1867 13.3763 76.8738 12.9975C76.5608 12.6188 76.0722 12.4322 75.4079 12.4322C75.0675 12.4322 74.7766 12.498 74.5405 12.6353C74.2989 12.7725 74.1013 12.9536 73.9421 13.1732C73.7829 13.3928 73.6731 13.6507 73.6017 13.9471C73.5303 14.2381 73.4919 14.5454 73.4919 14.8583V20.7096H71.4386V14.8583C71.4386 13.9965 71.2794 13.3763 70.9665 12.9975C70.6536 12.6188 70.165 12.4322 69.5007 12.4322C69.1767 12.4322 68.8913 12.498 68.6497 12.6353C68.4081 12.7725 68.2105 12.9536 68.0513 13.1842C67.8921 13.4147 67.7768 13.6727 67.6999 13.9691C67.6231 14.26 67.5846 14.5674 67.5846 14.8803V20.7096H65.5259V10.9282H67.5791V11.4387C67.5791 11.6198 67.5352 11.8174 67.4419 12.026L67.4803 12.0479C67.5188 11.9546 67.5627 11.8668 67.6176 11.7735C67.667 11.6802 67.7274 11.6033 67.7933 11.5375C68.3697 11.005 69.1164 10.7361 70.0442 10.7361C70.7853 10.7361 71.3837 10.8568 71.8339 11.0984C72.2841 11.3399 72.641 11.6692 72.899 12.0864C72.9484 12.1632 72.9813 12.2565 72.9978 12.3608C73.0088 12.4651 73.0198 12.5694 73.0198 12.6737H73.0582C73.0582 12.5694 73.0692 12.4651 73.0857 12.3608C73.1076 12.251 73.1515 12.1577 73.2174 12.0809Z" fill="#6982A7"/>
<path d="M81.0845 7.01459H83.1377V9.06747H81.0845V7.01459ZM81.0845 10.9282H83.1377V20.7096H81.0845V10.9282Z" fill="#6982A7"/>
<path d="M86.9039 20.7096H84.8506V6.03754H86.9039V20.7096Z" fill="#6982A7"/>
<path d="M91.016 17.8718C91.2631 18.289 91.609 18.6074 92.0537 18.8324C92.4984 19.052 93.0528 19.1672 93.7171 19.1672C94.1069 19.1672 94.4693 19.1069 94.8042 18.9806C95.1391 18.8544 95.43 18.7007 95.6826 18.5086C95.9351 18.3219 96.1492 18.1188 96.3194 17.9048C96.4896 17.6907 96.6159 17.4931 96.6927 17.3065L98.219 18.2231C98.0213 18.5635 97.7798 18.8928 97.4943 19.2221C97.2088 19.546 96.8684 19.8369 96.4786 20.0839C96.0888 20.3309 95.6387 20.5285 95.1281 20.6822C94.6175 20.8304 94.0465 20.9073 93.4042 20.9073C92.6466 20.9073 91.9548 20.7865 91.329 20.545C90.7031 20.3035 90.1706 19.9577 89.7259 19.5076C89.2812 19.0575 88.9408 18.5195 88.6993 17.8938C88.4577 17.2681 88.3369 16.5764 88.3369 15.819C88.3369 15.0889 88.4577 14.4138 88.6993 13.7935C88.9408 13.1733 89.2812 12.6353 89.7259 12.1798C90.1706 11.7242 90.7031 11.3674 91.318 11.1149C91.9384 10.8624 92.6191 10.7361 93.3603 10.7361C93.9971 10.7361 94.5955 10.824 95.1391 10.9996C95.6881 11.1753 96.1657 11.4278 96.5774 11.7626C96.9892 12.0974 97.3241 12.5036 97.5821 12.9866C97.8456 13.4697 98.0049 14.0131 98.0707 14.6114L91.016 17.8718ZM95.7484 13.7276C95.2379 12.8933 94.4528 12.4762 93.3822 12.4762C92.8607 12.4762 92.405 12.5804 92.0152 12.789C91.6254 12.9976 91.3015 13.2776 91.049 13.6179C90.7964 13.9637 90.6153 14.3589 90.511 14.8035C90.4067 15.2481 90.3737 15.7092 90.4121 16.1922L95.7484 13.7276Z" fill="#6982A7"/>
<path d="M105.131 10.9282H107.244L102.979 22.5045C102.798 22.9985 102.611 23.4321 102.43 23.7944C102.249 24.1622 102.012 24.4696 101.727 24.7221C101.442 24.9746 101.079 25.1722 100.64 25.3204C100.201 25.4631 99.6463 25.5564 98.9655 25.5948L98.5538 23.778C98.96 23.7231 99.3059 23.6682 99.5914 23.6023C99.8769 23.5364 100.124 23.4486 100.333 23.3279C100.541 23.2126 100.717 23.0534 100.86 22.8558C101.002 22.6582 101.134 22.3947 101.249 22.0544L101.716 20.6437L98.2134 10.9227H100.464L102.616 17.4931C102.644 17.5864 102.66 17.6797 102.677 17.784C102.688 17.8883 102.699 17.9926 102.699 18.0968H102.737C102.737 17.9926 102.743 17.8883 102.759 17.784C102.77 17.6797 102.792 17.5809 102.82 17.4931L105.131 10.9282Z" fill="#6982A7"/>
<path d="M108.15 7.01459H115.331V8.8534H110.204V12.9207H115.331V14.7596H110.204V20.7096H108.15V7.01459Z" fill="#6982A7"/>
<path d="M122.485 20.1223C122.21 20.3693 121.865 20.5615 121.447 20.6987C121.03 20.8359 120.509 20.9018 119.883 20.9018C118.763 20.9018 117.906 20.6438 117.319 20.1278C116.731 19.6119 116.44 18.9312 116.44 18.0859C116.44 17.5754 116.539 17.1199 116.737 16.7192C116.935 16.3185 117.198 15.9672 117.538 15.6817C117.879 15.3963 118.285 15.1768 118.763 15.0285C119.24 14.8803 119.756 14.8035 120.316 14.8035C120.789 14.8035 121.2 14.8255 121.557 14.8639C121.914 14.9023 122.227 14.9462 122.485 15.0011C122.474 14.6114 122.441 14.2656 122.386 13.9637C122.331 13.6618 122.227 13.4148 122.073 13.2117C121.919 13.0086 121.7 12.8549 121.42 12.7396C121.14 12.6299 120.767 12.575 120.294 12.575C119.723 12.575 119.202 12.6738 118.741 12.8769C118.28 13.08 117.884 13.2885 117.555 13.5136L116.677 11.9108C116.858 11.7955 117.083 11.6638 117.341 11.5321C117.599 11.3948 117.89 11.2686 118.208 11.1533C118.527 11.038 118.878 10.9392 119.262 10.8624C119.647 10.7856 120.047 10.7471 120.465 10.7471C121.354 10.7471 122.057 10.8624 122.589 11.0874C123.116 11.318 123.528 11.6199 123.825 11.9986C124.115 12.3774 124.308 12.811 124.401 13.3105C124.494 13.8045 124.538 14.3205 124.538 14.8529V20.7097H122.485V20.1223ZM122.485 16.5435C122.276 16.4776 122.013 16.4228 121.694 16.3788C121.376 16.3349 120.953 16.313 120.432 16.313C119.817 16.313 119.345 16.4557 119.004 16.7356C118.664 17.0156 118.494 17.4218 118.494 17.9597C118.494 18.3384 118.647 18.6732 118.96 18.9587C119.273 19.2441 119.745 19.3868 120.371 19.3868C121.008 19.3868 121.502 19.2606 121.848 19.0081C122.194 18.7556 122.408 18.4043 122.485 17.9597V16.5435Z" fill="#6982A7"/>
<path d="M125.922 15.819C125.922 15.0505 126.032 14.3534 126.246 13.7386C126.46 13.1184 126.767 12.5859 127.163 12.1358C127.558 11.6857 128.052 11.3399 128.628 11.0984C129.21 10.8569 129.869 10.7361 130.616 10.7361C131.192 10.7361 131.736 10.8075 132.252 10.9502C132.768 11.0929 133.273 11.3564 133.767 11.7351L132.79 13.2775C132.581 13.1348 132.301 12.9866 131.95 12.8384C131.599 12.6902 131.165 12.6134 130.66 12.6134C129.798 12.6134 129.139 12.9043 128.672 13.4916C128.211 14.0789 127.981 14.8529 127.981 15.819C127.981 16.7686 128.211 17.5425 128.672 18.1243C129.134 18.7117 129.798 19.0026 130.66 19.0026C131.17 19.0026 131.599 18.9312 131.95 18.7885C132.301 18.6458 132.581 18.5031 132.79 18.3604L133.767 19.9028C133.273 20.2815 132.768 20.5395 132.252 20.6877C131.736 20.8359 131.192 20.9018 130.616 20.9018C129.875 20.9018 129.21 20.781 128.628 20.5395C128.047 20.298 127.558 19.9522 127.163 19.5021C126.767 19.052 126.46 18.5141 126.246 17.8883C126.032 17.2626 125.922 16.5764 125.922 15.819Z" fill="#6982A7"/>
<path d="M137.1 17.8718C137.347 18.289 137.692 18.6074 138.137 18.8324C138.582 19.052 139.136 19.1672 139.801 19.1672C140.19 19.1672 140.553 19.1069 140.888 18.9806C141.223 18.8544 141.514 18.7007 141.766 18.5086C142.019 18.3219 142.233 18.1188 142.403 17.9048C142.573 17.6907 142.699 17.4931 142.776 17.3065L144.302 18.2231C144.105 18.5635 143.863 18.8928 143.578 19.2221C143.292 19.546 142.952 19.8369 142.562 20.0839C142.172 20.3309 141.722 20.5285 141.212 20.6822C140.701 20.8304 140.13 20.9073 139.488 20.9073C138.73 20.9073 138.038 20.7865 137.412 20.545C136.787 20.3035 136.254 19.9577 135.809 19.5076C135.365 19.0575 135.024 18.5195 134.783 17.8938C134.541 17.2681 134.42 16.5764 134.42 15.819C134.42 15.0889 134.541 14.4138 134.783 13.7935C135.024 13.1733 135.365 12.6353 135.809 12.1798C136.254 11.7242 136.787 11.3674 137.402 11.1149C138.022 10.8624 138.703 10.7361 139.444 10.7361C140.081 10.7361 140.679 10.824 141.223 10.9996C141.772 11.1753 142.249 11.4278 142.661 11.7626C143.073 12.0974 143.408 12.5036 143.666 12.9866C143.929 13.4697 144.088 14.0131 144.154 14.6114L137.1 17.8718ZM141.837 13.7276C141.327 12.8933 140.542 12.4762 139.471 12.4762C138.95 12.4762 138.494 12.5804 138.104 12.789C137.714 12.9976 137.391 13.2776 137.138 13.6179C136.885 13.9637 136.704 14.3589 136.6 14.8035C136.496 15.2481 136.463 15.7092 136.501 16.1922L141.837 13.7276Z" fill="#6982A7"/>
<path d="M149.951 17.9486C149.951 17.6742 149.836 17.4381 149.611 17.2351C149.381 17.032 149.101 16.8398 148.771 16.6477C148.436 16.4611 148.079 16.2635 147.695 16.0604C147.311 15.8573 146.954 15.6323 146.63 15.3743C146.306 15.1218 146.032 14.8254 145.807 14.496C145.587 14.1612 145.472 13.7715 145.472 13.3104C145.472 12.8439 145.57 12.4432 145.774 12.1193C145.977 11.7955 146.235 11.532 146.559 11.3289C146.877 11.1258 147.234 10.9776 147.624 10.8788C148.014 10.78 148.398 10.7306 148.777 10.7306C149.348 10.7306 149.88 10.7855 150.369 10.8953C150.857 11.005 151.368 11.2136 151.906 11.51L151.73 13.5464C151.379 13.2226 150.945 12.9646 150.429 12.7835C149.913 12.6023 149.408 12.509 148.914 12.509C148.535 12.509 148.222 12.5804 147.975 12.7231C147.728 12.8658 147.602 13.0909 147.602 13.3873C147.602 13.6233 147.712 13.8319 147.937 14.024C148.162 14.2161 148.431 14.4027 148.76 14.5894C149.084 14.776 149.446 14.9681 149.836 15.1657C150.226 15.3633 150.588 15.5884 150.912 15.8518C151.236 16.1153 151.511 16.4117 151.736 16.752C151.955 17.0923 152.071 17.4875 152.071 17.9431C152.071 18.4152 151.977 18.8323 151.785 19.1946C151.593 19.5569 151.346 19.8698 151.033 20.1223C150.72 20.3748 150.363 20.5669 149.968 20.6986C149.567 20.8303 149.166 20.8962 148.766 20.8962C148.189 20.8962 147.624 20.8413 147.064 20.737C146.504 20.6327 145.944 20.4516 145.384 20.1881L145.598 18.0749C146.004 18.4262 146.46 18.6787 146.976 18.8378C147.492 18.997 147.975 19.0739 148.431 19.0739C148.821 19.0739 149.172 18.9915 149.485 18.8214C149.798 18.6622 149.951 18.3658 149.951 17.9486Z" fill="#6982A7"/>
<rect width="43.8591" height="6.27126" transform="translate(108.209 23.7663)" fill="#6982A7" fill-opacity="0.3"/>
<path d="M111.809 29.0153V24.7886H113.48C114.255 24.7886 114.851 24.9735 115.269 25.3366C115.687 25.7065 115.892 26.2272 115.892 26.9054C115.892 27.5767 115.687 28.0973 115.276 28.4673C114.864 28.8303 114.282 29.0153 113.522 29.0153H111.809ZM112.953 28.1727H113.474C113.898 28.1727 114.207 28.0699 114.405 27.8644C114.604 27.6589 114.7 27.3369 114.7 26.9054C114.7 26.4738 114.604 26.1518 114.405 25.9463C114.207 25.7408 113.898 25.638 113.474 25.638H112.953V28.1727Z" fill="#6982A7"/>
<path d="M118.528 29.0153V24.7886H121.899V25.6312H119.679V26.4669H121.817V27.3095H119.679V28.159H121.954V29.0016H118.528V29.0153Z" fill="#6982A7"/>
<path d="M124.59 29.0153V24.7886H125.796L127.516 27.4397V24.7886H128.667V29.0153H127.454L125.741 26.4806V29.0153H124.59Z" fill="#6982A7"/>
<path d="M132.687 29.0119V25.6346H131.303V24.792H135.229V25.6346H133.845V29.0119H132.687Z" fill="#6982A7"/>
<path d="M137.865 29.0153L139.557 24.7886H140.893L142.586 29.0153H141.4L141.099 28.2206H139.358L139.05 29.0153H137.865ZM139.667 27.3986H140.79L140.235 25.912L139.667 27.3986Z" fill="#6982A7"/>
<path d="M145.222 29.0153V24.7886H146.373V28.7687L145.722 28.1658H148.469V29.0084H145.222V29.0153Z" fill="#6982A7"/>
</svg>
