<svg width="142" height="26" viewBox="0 0 142 26" fill="none" xmlns="http://www.w3.org/2000/svg">
<path d="M21.9042 12.9024C21.8327 13.8257 21.6397 14.7356 21.3301 15.6087C21.3177 15.6426 21.294 15.6712 21.263 15.6897C21.2319 15.7082 21.1954 15.7155 21.1597 15.7103C20.9395 15.676 20.5074 15.6111 20.4992 15.6111C19.615 15.519 18.9438 15.5804 18.4644 15.9181C17.8856 16.3255 17.8264 16.7446 17.4051 17.753C17.3984 17.7761 17.3868 17.7976 17.3711 17.8158C17.3553 17.834 17.3358 17.8487 17.314 17.8587C17.292 17.8688 17.2683 17.8741 17.2442 17.8742C17.22 17.8743 17.1962 17.8692 17.1742 17.8593C17.1032 17.8227 17.0132 17.7731 16.8783 17.7011C15.7929 17.1107 15.1702 17.0457 14.3819 17.5204C13.532 18.034 13.087 18.7815 13.3107 20C13.3722 20.3342 13.351 20.2031 13.3817 20.3838C13.389 20.4102 13.3891 20.4381 13.3823 20.4646C13.3755 20.491 13.3618 20.5154 13.3426 20.5349C13.3071 20.5704 13.2728 20.62 13.0289 20.5656C11.727 20.2728 11.2723 20.496 10.7314 20.9045C10.3894 21.1643 10.1088 22.0983 10.1088 22.0983L9.99996 22.4219C9.97863 22.4785 9.9277 22.6521 9.89575 22.7678C9.88725 22.7961 9.86835 22.82 9.84301 22.8351C9.81758 22.8502 9.78737 22.8553 9.75846 22.8493C9.37018 22.756 8.07761 22.4384 7.65624 22.2896C6.25357 21.7936 5.49246 21.378 5.25336 21.2268C4.14952 20.5316 3.16747 19.6604 2.34626 18.6481C0.428703 16.2641 -0.0625264 14.1056 0.00612708 11.8822C0.0913521 9.14746 0.914014 6.81666 2.52263 4.87782C4.20977 2.84216 6.52939 1.56456 9.48152 1.04502L10.9694 0.944641C12.707 1.02966 14.0469 1.25875 14.9513 1.66965C16.3042 2.28012 17.0476 2.70047 17.2369 2.85043C17.9709 3.42666 18.6988 4.02178 19.2977 4.75386C21.3361 7.25593 22.1871 9.99651 21.9042 12.9024ZM9.83777 9.02709C9.4592 9.16012 9.11373 9.37282 8.82472 9.65071C8.53579 9.9286 8.31 10.2652 8.16284 10.6377C7.14962 13.2154 9.57502 15.6336 12.1577 14.6228C12.5311 14.476 12.8683 14.2508 13.1467 13.9625C13.4251 13.6742 13.638 13.3296 13.7711 12.9519C14.6624 10.4322 12.3602 8.13793 9.83777 9.02709Z" fill="#6982A7" fill-opacity="0.3"/>
<path d="M0.776587 11.3355C0.752877 11.2815 0.741161 11.2232 0.742258 11.1643C0.755623 10.4827 0.868071 9.8065 1.07606 9.15696C1.6679 7.34449 2.63141 5.60754 4.25778 4.17172C5.17632 3.3617 6.22744 2.88228 7.20397 2.43358C7.46675 2.31551 8.18764 2.01092 9.45297 1.78185C11.4522 1.41525 13.5169 1.71868 15.3252 2.64495C16.7243 3.34751 17.4262 3.94382 17.6298 4.13511C18.0524 4.54129 18.4821 4.92032 18.8561 5.34777C19.6656 6.28939 20.2839 7.37898 20.6766 8.55592C20.7737 8.83935 20.8589 9.12269 20.9299 9.40725H20.9133C20.577 9.37807 20.2413 9.46941 19.9664 9.66468C19.7794 9.77921 19.6233 9.93779 19.5119 10.1264L19.506 10.137C19.0854 10.9864 18.8222 11.4804 18.7164 11.6188C18.6934 11.6366 18.6726 11.6572 18.6549 11.6802C18.5296 11.8601 18.3411 11.9865 18.127 12.0345H18.1021C17.9281 12.0746 17.6736 11.9625 17.3363 11.6944C17.227 11.6021 17.1274 11.4989 17.0392 11.3863C16.6446 10.7896 16.3779 10.4235 16.239 10.2881C16.068 10.0731 15.8405 9.90967 15.582 9.81582C15.4261 9.752 15.2551 9.73403 15.0892 9.7639C14.9233 9.79384 14.7694 9.8704 14.6457 9.98471L14.6292 10C14.5291 10.0983 14.4441 10.211 14.3771 10.3342C14.0405 9.5722 13.4581 8.94433 12.7226 8.55054C11.9871 8.15668 11.1407 8.01955 10.3181 8.16085C9.49547 8.30222 8.7438 8.71389 8.18279 9.33039C7.62169 9.94696 7.2834 10.733 7.22172 11.5634C7.207 11.5991 7.18528 11.6314 7.15785 11.6586C7.13042 11.6857 7.09783 11.7071 7.062 11.7215C7.02616 11.7359 6.98782 11.743 6.94918 11.7424C6.91054 11.7418 6.8724 11.7336 6.83702 11.7181C6.7514 11.6809 6.67668 11.6226 6.61994 11.5487C6.56319 11.4747 6.52628 11.3875 6.5127 11.2954C6.36474 10.6424 5.95043 10.4357 5.57994 10.4357C5.50305 10.4358 5.42643 10.4445 5.3515 10.4617C5.23061 10.488 5.11528 10.5353 5.01062 10.6011C4.97864 10.6216 4.94889 10.6452 4.92184 10.6719C4.81722 10.7778 4.73772 10.9058 4.68918 11.0463C4.64063 11.1869 4.62426 11.3366 4.64129 11.4843C4.77149 12.8788 4.78808 13.6605 4.74665 13.9178C4.7361 14.0428 4.68826 14.1616 4.60933 14.2591C4.52741 14.3346 4.42016 14.3767 4.30867 14.3772C4.02222 14.4032 3.88255 14.2946 3.80798 14.0111C3.76016 13.8243 3.73043 13.6334 3.7192 13.4408L3.68724 11.3733C3.68845 11.3595 3.68845 11.3457 3.68724 11.3319C3.67014 11.1884 3.64406 11.046 3.60913 10.9057C3.58001 10.7854 3.5325 10.6703 3.46827 10.5644C3.42914 10.5041 3.37942 10.4513 3.3215 10.4086C3.26459 10.3669 3.20252 10.3328 3.13684 10.307C3.06141 10.2775 2.98112 10.2624 2.90011 10.2621C2.7733 10.2631 2.64965 10.3017 2.545 10.3732C2.52251 10.3885 2.5012 10.4038 2.48107 10.4204C2.38512 10.5002 2.30485 10.5971 2.24434 10.7061C2.12597 10.9222 2.03248 11.0829 1.96382 11.1938C1.92489 11.26 1.8822 11.3238 1.83598 11.3851C1.7047 11.5264 1.54764 11.6414 1.37317 11.724C1.21456 11.796 1.02514 11.842 0.787227 11.326L0.776587 11.3355Z" fill="#E881B4"/>
<path d="M20.7801 14.775C20.77 14.8091 20.7482 14.8386 20.7186 14.8582C20.689 14.8779 20.6533 14.8864 20.6179 14.8825C19.5964 14.7644 18.7844 14.9356 18.1322 15.4539C17.6587 15.8306 17.338 16.3927 17.1403 17.087C17.1346 17.1034 17.1253 17.1183 17.1132 17.1307C17.101 17.1431 17.0863 17.1527 17.0701 17.1588C17.0537 17.1649 17.0364 17.1673 17.0191 17.1659C17.0017 17.1646 16.9849 17.1593 16.9699 17.1508C16.8364 17.0645 16.6973 16.9876 16.5532 16.9206C15.7388 16.5463 14.8262 16.5368 14.0675 16.9796C13.3087 17.4224 12.8731 18.2218 12.8032 19.1132C12.7881 19.3063 12.7901 19.5003 12.8092 19.693C12.8101 19.7095 12.8074 19.726 12.8015 19.7414C12.7956 19.7568 12.7864 19.7709 12.7747 19.7825C12.763 19.7942 12.7489 19.8033 12.7335 19.8092C12.718 19.8152 12.7014 19.8179 12.6849 19.8169C11.745 19.7284 10.9922 19.9008 10.3791 20.4002C10.005 20.7038 9.6582 21.6235 9.55051 21.9152C9.54072 21.9398 9.52288 21.9604 9.49989 21.9737C9.47696 21.9869 9.45017 21.9922 9.42391 21.9884C7.37967 21.6212 5.42066 20.5325 4.02392 19.4084C3.15865 18.713 1.74296 16.7174 1.32039 15.1683C1.08683 14.3348 0.916711 13.485 0.811429 12.626C0.808902 12.6037 0.811824 12.5809 0.819952 12.5598C0.82808 12.5388 0.841172 12.52 0.858127 12.5051C0.875082 12.4902 0.895392 12.4795 0.917341 12.474C0.93929 12.4686 0.96224 12.4684 0.984243 12.4737C1.21412 12.5217 1.45352 12.4909 1.66367 12.3863C1.91996 12.2665 2.15096 12.099 2.34429 11.8928C2.35359 11.8844 2.36229 11.8753 2.37032 11.8656C2.55711 11.6103 2.72334 11.3406 2.86746 11.0591C2.87162 11.0503 2.8768 11.042 2.88287 11.0343C2.919 11.1583 2.94434 11.2851 2.95861 11.4134L2.99057 13.4656C2.98999 13.4718 2.98999 13.4782 2.99057 13.4845C3.00441 13.7264 3.04166 13.9664 3.10183 14.2012C3.25453 14.7821 3.68656 15.1636 4.36599 15.1009C5.04543 15.0384 5.36267 14.5814 5.45144 14.0383C5.51063 13.6734 5.47984 12.7913 5.35201 11.424C5.35201 11.4098 5.35201 11.3956 5.35201 11.3826C5.34949 11.3173 5.37048 11.2532 5.41119 11.202C5.44102 11.1875 5.47239 11.1765 5.50471 11.169C5.58875 11.1501 5.72369 11.1146 5.803 11.4606C5.84183 11.6712 5.93382 11.8685 6.07031 12.0338C6.20679 12.199 6.38327 12.3269 6.58305 12.4052C6.79682 12.483 7.02994 12.4905 7.24826 12.4265C7.39215 13.3564 7.88279 14.1977 8.62185 14.7821C9.361 15.3665 10.2942 15.651 11.2345 15.5784C12.1749 15.5059 13.0531 15.0818 13.6934 14.3909C14.3337 13.7 14.6888 12.7935 14.6877 11.8526C14.6877 11.7664 14.6699 11.574 14.6498 11.3874C14.6238 11.137 14.6274 10.7533 15.0724 10.5939C15.2013 10.5622 15.3376 10.5816 15.4523 10.6483C15.5958 10.7345 15.7275 10.8388 15.8441 10.9588C16.0593 11.2269 16.257 11.5085 16.436 11.8019C16.4411 11.81 16.4467 11.8178 16.4526 11.8255C16.5753 11.9834 16.7146 12.1279 16.868 12.2565H16.8739C17.39 12.6674 17.8477 12.8283 18.247 12.7394C18.6153 12.6682 18.945 12.4659 19.175 12.1703C19.1983 12.1516 19.2197 12.1306 19.2389 12.1077C19.3747 11.9502 19.6749 11.4023 20.1397 10.464C20.1966 10.3823 20.271 10.3141 20.3575 10.2645C20.4422 10.2056 20.5368 10.1624 20.6369 10.137C20.6844 10.126 20.7338 10.126 20.7813 10.1368C20.8289 10.1477 20.8734 10.169 20.9115 10.1995C21.0442 10.309 21.1291 10.4657 21.1482 10.6364C21.3105 12.0266 21.1853 13.4351 20.7801 14.775Z" fill="#6982A7" fill-opacity="0.1"/>
<path d="M7.93108 4.86494C7.93108 4.93815 7.93108 4.98535 7.93108 5.0066C7.93048 5.01131 7.93048 5.01608 7.93108 5.02079C7.92463 5.07685 7.89617 5.12804 7.85185 5.16314C7.8076 5.19823 7.75113 5.21436 7.6949 5.20794C7.63873 5.20152 7.58741 5.17312 7.55223 5.12894C7.51704 5.08477 7.50089 5.02842 7.50732 4.97235C7.50732 4.95819 7.50732 4.91883 7.50732 4.85428V4.70905C7.50732 4.70078 7.50732 4.689 7.50732 4.67601C7.50732 4.66184 7.50732 4.65121 7.50732 4.64176C7.50732 4.56383 7.49906 4.4989 7.49669 4.44931V4.36663C7.49669 4.35955 7.49669 4.33124 7.49669 4.28401V4.23795C7.49669 4.23086 7.49669 4.21552 7.49669 4.19072V4.18479C7.49669 4.17534 7.49669 4.16708 7.49669 4.15763C7.49611 4.1545 7.49611 4.1513 7.49669 4.14818C7.4945 4.11901 7.49836 4.08976 7.50804 4.06216C7.51773 4.03455 7.53304 4.00922 7.55298 3.98778C7.57292 3.96634 7.59707 3.94926 7.62393 3.93756C7.6508 3.92586 7.67987 3.9198 7.70916 3.9198C7.73846 3.9198 7.76745 3.92586 7.79432 3.93756C7.82119 3.94926 7.8454 3.96634 7.86528 3.98778C7.88524 4.00922 7.90057 4.03455 7.91029 4.06216C7.91993 4.08976 7.9238 4.11901 7.9216 4.14818V4.15648C7.9216 4.18364 7.9216 4.20134 7.9216 4.20842V4.21667V4.25685C7.9216 4.30645 7.9216 4.33713 7.9216 4.34893V4.43276C7.9216 4.48354 7.92752 4.55083 7.9323 4.62521C7.9323 4.63702 7.9323 4.65239 7.9323 4.66892V4.86137L7.93108 4.86494Z" fill="white"/>
<path d="M4.34223 10.1311C4.26343 9.99242 4.19268 9.8493 4.13035 9.70247C4.11072 9.65768 4.07409 9.6225 4.02848 9.60469C3.98286 9.58688 3.932 9.58794 3.88711 9.60749C3.84222 9.62705 3.80696 9.66359 3.78909 9.70914C3.77122 9.75463 3.77221 9.80534 3.79183 9.85006C3.8593 10.012 3.93638 10.1696 4.02265 10.3224C4.04729 10.3647 4.08775 10.3955 4.13514 10.408C4.18253 10.4205 4.23297 10.4137 4.27535 10.3891C4.31773 10.3645 4.34859 10.3242 4.36113 10.2769C4.37367 10.2296 4.36687 10.1793 4.34223 10.137V10.1311Z" fill="white"/>
<path d="M2.36723 9.63177C2.35339 9.57075 2.31581 9.51762 2.26276 9.48419C2.20972 9.45076 2.14556 9.43969 2.08435 9.45349C2.03002 9.46569 1.97721 9.48396 1.92691 9.50776H1.91506C1.80971 9.56325 1.71859 9.60812 1.64165 9.6436C1.61329 9.65649 1.58773 9.67491 1.56649 9.69772C1.54525 9.72046 1.5287 9.74722 1.51783 9.7764C1.50694 9.80559 1.50195 9.83667 1.50309 9.86775C1.50422 9.89882 1.51146 9.92937 1.52445 9.95765C1.53742 9.986 1.55587 10.0115 1.57871 10.0326C1.60156 10.0538 1.62837 10.0703 1.6576 10.0812C1.68685 10.092 1.71795 10.097 1.74913 10.0958C1.7803 10.0948 1.81095 10.0876 1.83932 10.0746C1.92217 10.0368 2.01805 9.98956 2.12812 9.93286C2.14809 9.92301 2.16915 9.9155 2.19087 9.91042C2.25087 9.8961 2.30287 9.85888 2.33582 9.80688C2.36876 9.7548 2.38004 9.69204 2.36723 9.63177Z" fill="white"/>
<path d="M14.7879 4.25101C14.7629 4.21334 14.7243 4.18685 14.6801 4.17715C14.6358 4.16745 14.5896 4.17531 14.5511 4.19906C14.357 4.32422 13.8102 4.78945 13.7747 4.82606C13.7407 4.85738 13.7207 4.90084 13.7189 4.94691C13.7171 4.99296 13.7338 5.03785 13.7652 5.07167C13.7966 5.10549 13.8402 5.12548 13.8863 5.12725C13.9325 5.12902 13.9775 5.11244 14.0114 5.08113C14.0492 5.04806 14.576 4.59701 14.7429 4.49074C14.7805 4.46471 14.8062 4.42496 14.8147 4.3801C14.8231 4.33523 14.8134 4.28883 14.7879 4.25101Z" fill="white"/>
<path d="M16.1715 7.83458C16.118 7.82215 16.0617 7.83132 16.015 7.86005C15.9682 7.88878 15.9347 7.93479 15.9218 7.988L15.7904 8.54067C15.781 8.59297 15.792 8.64687 15.8212 8.69129C15.8504 8.73571 15.8956 8.76732 15.9474 8.77952C15.9993 8.7918 16.0538 8.78377 16.0999 8.75708C16.146 8.73048 16.1801 8.68727 16.1952 8.63633L16.3266 8.08366C16.3329 8.05713 16.3339 8.02969 16.3295 8.00278C16.3251 7.97587 16.3154 7.9501 16.301 7.9269C16.2866 7.90378 16.2678 7.8837 16.2455 7.86785C16.2233 7.85194 16.1982 7.84064 16.1715 7.83458Z" fill="white"/>
<path d="M8.71671 6.90164C8.54389 6.66549 8.44918 6.53207 8.43028 6.50492V6.49897C8.40508 6.4655 8.38216 6.43038 8.36159 6.39387C8.34991 6.3626 8.32691 6.33686 8.29708 6.32169C8.26733 6.3065 8.23288 6.30299 8.20062 6.31189C8.16836 6.32078 8.14066 6.34142 8.1229 6.36972C8.10514 6.39801 8.09869 6.4319 8.10476 6.46473C8.10712 6.47739 8.11106 6.48971 8.1166 6.50134C8.1434 6.55266 8.17391 6.60198 8.20775 6.64894C8.22316 6.67373 8.32615 6.80955 8.50246 7.05869C8.51232 7.074 8.52507 7.08713 8.54018 7.09732C8.55528 7.10751 8.5722 7.1145 8.59011 7.1179C8.60803 7.12131 8.62639 7.12102 8.64415 7.1171C8.66191 7.11317 8.67868 7.1057 8.69348 7.09507C8.70821 7.08445 8.72065 7.07093 8.72999 7.05535C8.73932 7.03977 8.7454 7.02244 8.74782 7.00444C8.75018 6.98644 8.74889 6.96818 8.74395 6.95071C8.73902 6.93323 8.73052 6.91689 8.71906 6.90279L8.71671 6.90164Z" fill="#F8DD7A"/>
<path d="M15.1517 6.56984C15.1132 6.54848 15.0679 6.54281 15.0253 6.55404C14.9827 6.56527 14.9462 6.59249 14.9232 6.63003C14.7402 6.82472 14.5475 7.00997 14.3456 7.18502C14.329 7.20053 14.3157 7.21915 14.3064 7.2398C14.297 7.26044 14.2918 7.28271 14.2911 7.30535C14.2897 7.35107 14.3065 7.39549 14.3379 7.42885C14.3693 7.4622 14.4127 7.48178 14.4585 7.48322C14.5044 7.48465 14.5488 7.46783 14.5823 7.43652C14.8044 7.24671 15.0139 7.0428 15.2097 6.82606C15.2152 6.81845 15.2204 6.81055 15.2251 6.80242C15.2357 6.78238 15.2423 6.76044 15.2443 6.73785C15.2464 6.71526 15.244 6.6925 15.2371 6.67085C15.2303 6.64921 15.2192 6.62909 15.2046 6.61176C15.1899 6.59442 15.1719 6.58018 15.1517 6.56984Z" fill="#F8DD7A"/>
<path d="M4.22973 12.6296C4.18305 12.6312 4.13878 12.6507 4.1063 12.6842C4.07383 12.7177 4.05571 12.7625 4.05573 12.8091C4.05573 12.8362 4.04862 12.8599 4.04625 12.8812L4.03917 12.9685C4.03128 13.0472 4.02178 13.1464 4.01074 13.2661C4.01296 13.3094 4.03082 13.3504 4.06099 13.3815C4.09116 13.4127 4.13163 13.4319 4.17491 13.4357C4.21819 13.4394 4.26136 13.4274 4.29646 13.4019C4.33155 13.3764 4.35619 13.339 4.36584 13.2967C4.37649 13.1787 4.38599 13.0842 4.39428 13.0062L4.40135 12.9142C4.40135 12.9012 4.40136 12.8859 4.40846 12.8646C4.40846 12.8646 4.40846 12.8646 4.40846 12.8563V12.8469C4.40961 12.8336 4.40961 12.8201 4.40846 12.8067C4.40815 12.7597 4.38918 12.7146 4.35569 12.6814C4.32221 12.6482 4.27693 12.6296 4.22973 12.6296Z" fill="#F8DD7A"/>
<path d="M6.21484 4.85895C6.16306 4.85346 6.11167 4.84481 6.06095 4.833C5.73979 4.75429 5.52357 4.70035 5.41231 4.67123C5.38757 4.66389 5.36161 4.66168 5.33599 4.66471C5.31036 4.66775 5.28562 4.67595 5.2633 4.68887C5.24099 4.70178 5.22154 4.71916 5.20618 4.73984C5.19081 4.76051 5.17985 4.78408 5.17395 4.80913C5.16805 4.83419 5.16736 4.86019 5.1719 4.88553C5.17644 4.91087 5.18611 4.93503 5.20034 4.9565C5.21456 4.97797 5.23304 4.99632 5.25463 5.01041C5.27623 5.0245 5.30048 5.03402 5.3259 5.03843C5.43558 5.06441 5.65101 5.11798 5.97218 5.19906C6.03965 5.21441 6.10595 5.22619 6.16987 5.23446C6.21979 5.24041 6.27002 5.22632 6.30953 5.19531C6.34905 5.16431 6.37458 5.11896 6.38054 5.06916C6.38651 5.01937 6.3724 4.96923 6.34133 4.92981C6.31025 4.89039 6.26475 4.8649 6.21484 4.85895Z" fill="#F8DD7A"/>
<path d="M10.2159 4.15514H10.1639H10.1319H10.0597C9.91174 4.16813 9.79213 4.18115 9.70454 4.19533C9.67935 4.19865 9.65514 4.20694 9.6332 4.21977C9.61127 4.2326 9.59214 4.24968 9.57696 4.26998C9.56178 4.2903 9.55078 4.31347 9.54463 4.33808C9.53856 4.36268 9.53742 4.38822 9.54137 4.41326C9.54532 4.4383 9.55427 4.46234 9.56763 4.48389C9.58106 4.50544 9.59859 4.5241 9.61931 4.53878C9.64003 4.55345 9.66348 4.56383 9.6883 4.56933C9.71312 4.57484 9.73877 4.57531 9.76374 4.57077C9.84662 4.55779 9.95788 4.54482 10.0975 4.53301H10.1366H10.1532H10.2112C10.2617 4.53442 10.3108 4.51572 10.3475 4.48106C10.3843 4.4464 10.4057 4.39864 10.4071 4.34823C10.4085 4.2978 10.3898 4.24886 10.355 4.21221C10.3203 4.17556 10.2724 4.15418 10.2218 4.15277L10.2159 4.15514Z" fill="#F8DD7A"/>
<path d="M18.1102 10.1347C18.0477 10.114 17.984 10.0967 17.9196 10.0828C17.855 10.0689 17.7892 10.0606 17.7231 10.058C17.6754 10.059 17.6299 10.0781 17.5957 10.1114C17.5616 10.1447 17.5414 10.1897 17.5392 10.2374C17.5371 10.285 17.5533 10.3316 17.5843 10.3678C17.6154 10.4039 17.6591 10.427 17.7066 10.4322C17.7536 10.4343 17.8003 10.4402 17.8462 10.45H17.8569C17.9058 10.4603 17.9541 10.4738 18.0013 10.4901C18.0484 10.5052 18.0996 10.5013 18.1438 10.4791C18.188 10.4571 18.2218 10.4186 18.2381 10.372C18.2458 10.3481 18.2487 10.3228 18.2464 10.2977C18.2442 10.2727 18.2369 10.2483 18.2249 10.2261C18.213 10.204 18.1967 10.1844 18.1769 10.1687C18.1573 10.153 18.1345 10.1414 18.1102 10.1347Z" fill="#F8DD7A"/>
<path d="M17.5911 5.48947H16.9567L16.7424 4.78101L16.727 4.81761C16.6868 4.9168 16.4713 5.49299 16.4713 5.49299L15.8203 5.48589L16.385 5.87086C16.2488 6.33727 16.1659 6.60531 16.1328 6.67734C16.1328 6.67734 16.1411 6.67734 16.1494 6.67734C16.2287 6.59941 16.4205 6.43171 16.7258 6.17666L17.1591 6.58994L17.2254 6.64546L17.2999 6.70092L17.0632 5.89093L17.5911 5.48947Z" fill="#F8DD7A"/>
<path d="M5.93997 7.37045C5.91646 7.36901 5.89289 7.37228 5.87065 7.38001C5.8484 7.38776 5.82794 7.39987 5.81042 7.41559C5.79291 7.4313 5.7787 7.45033 5.76864 7.47158C5.75856 7.49282 5.75284 7.51584 5.75179 7.53932C5.75179 7.59718 5.74348 7.65737 5.7352 7.71755L5.72456 7.79441C5.70918 7.8853 5.70087 7.93958 5.6985 7.95731C5.6985 7.98566 5.69852 8.00219 5.69142 8.0081C5.69142 8.04236 5.68312 8.08254 5.6772 8.1262C5.67424 8.14947 5.67592 8.17305 5.68211 8.19563C5.68831 8.2183 5.6989 8.23945 5.71329 8.25802C5.74238 8.29539 5.78518 8.3198 5.83227 8.32571C5.87936 8.3317 5.92688 8.31874 5.96439 8.2897C6.00191 8.26067 6.02634 8.218 6.0323 8.17107C6.0394 8.12264 6.04415 8.08011 6.0477 8.04229C6.0477 8.04229 6.04768 8.02228 6.0536 7.99984C6.0536 7.9868 6.06428 7.93601 6.07848 7.84513C6.07848 7.81678 6.08675 7.7885 6.0903 7.76015C6.09858 7.69163 6.10452 7.62318 6.10807 7.55587C6.11033 7.50907 6.09388 7.46331 6.06238 7.42856C6.03088 7.39382 5.98687 7.37289 5.93997 7.37045Z" fill="#85C883"/>
<path d="M12.4791 6.80133C12.4526 6.79974 12.4261 6.80336 12.4011 6.812C12.3761 6.82064 12.353 6.83411 12.3332 6.85167C12.3134 6.86922 12.2973 6.89049 12.2858 6.91428C12.2742 6.93806 12.2675 6.96389 12.266 6.99027C12.266 7.00326 12.266 7.0257 12.266 7.06112C12.266 7.0753 12.266 7.09063 12.266 7.10125C12.266 7.11188 12.266 7.1154 12.266 7.13665C12.266 7.20632 12.253 7.35276 12.2482 7.48028C12.2441 7.55658 12.2441 7.63306 12.2482 7.70932C12.2482 7.70932 12.2482 7.70932 12.2482 7.71645C12.2514 7.74267 12.2597 7.76799 12.2727 7.79096C12.2858 7.814 12.3031 7.83417 12.3239 7.85046C12.3448 7.86669 12.3686 7.87874 12.3941 7.88586C12.4196 7.89291 12.4463 7.89496 12.4725 7.89178C12.4988 7.88859 12.5241 7.88025 12.5472 7.86729C12.5703 7.85433 12.5906 7.83705 12.6069 7.8162C12.6232 7.79543 12.6353 7.77171 12.6424 7.74624C12.6494 7.72084 12.6515 7.69424 12.6483 7.66801C12.6483 7.65027 12.6483 7.58773 12.6483 7.49562C12.6483 7.37754 12.6625 7.23111 12.6661 7.16145C12.6661 7.14255 12.6661 7.12725 12.6661 7.12017C12.6661 7.10954 12.6661 7.10246 12.6661 7.09537C12.6661 7.06231 12.6661 7.03514 12.672 7.01743C12.6737 6.99055 12.6701 6.96361 12.6614 6.93815C12.6526 6.91268 12.6388 6.88918 12.6208 6.86908C12.6029 6.84897 12.5811 6.83263 12.5568 6.82099C12.5324 6.80936 12.506 6.80269 12.4791 6.80133Z" fill="#85C883"/>
<path d="M19.4224 6.98195C19.4183 6.93252 19.3946 6.88678 19.3566 6.85471C19.3188 6.82262 19.2697 6.80684 19.22 6.81077C19.2082 6.81077 19.1727 6.81077 19.1147 6.81077H18.7856C18.7229 6.81077 18.6542 6.81075 18.5773 6.81901C18.5295 6.82438 18.4856 6.84783 18.4546 6.88451C18.4235 6.92118 18.4077 6.96834 18.4105 7.01625C18.4132 7.06417 18.4342 7.10918 18.4692 7.14212C18.5042 7.17505 18.5506 7.19337 18.5986 7.19331C18.6709 7.19331 18.7335 7.18625 18.7904 7.18506H19.1195H19.2496C19.2744 7.18313 19.2985 7.17633 19.3206 7.16506C19.3427 7.15379 19.3623 7.13827 19.3784 7.1194C19.3945 7.10052 19.4067 7.07864 19.4142 7.05506C19.4218 7.03147 19.4246 7.00662 19.4224 6.98195Z" fill="#85C883"/>
<path d="M9.21987 2.89883H8.86476L8.74644 2.50677L8.73816 2.52684C8.71562 2.58116 8.59723 2.89998 8.59723 2.89998H8.24219L8.55465 3.1125C8.48012 3.36991 8.43633 3.51754 8.415 3.55651C8.415 3.55651 8.415 3.55651 8.42441 3.55651C8.4682 3.51282 8.57362 3.42073 8.74165 3.28022C8.78787 3.32273 8.86719 3.39826 8.97845 3.50807L9.01511 3.5388L9.05654 3.56948L8.92631 3.12316L9.21987 2.89883Z" fill="#85C883"/>
<path d="M4.4098 7.07648C4.37271 7.06468 4.34312 7.05642 4.32103 7.0517C4.29144 7.04461 4.25947 7.03869 4.22159 7.03278C4.18371 7.02688 4.03339 7.00797 3.81679 6.98436L3.60372 6.95604C3.57827 6.94766 3.55129 6.94494 3.52468 6.94814C3.49808 6.95135 3.47249 6.96042 3.44978 6.97461C3.42706 6.9888 3.40776 7.00782 3.39326 7.03031C3.37875 7.05279 3.3694 7.07817 3.36586 7.10468C3.36231 7.13118 3.36467 7.15812 3.37276 7.18361C3.38086 7.2091 3.39448 7.23247 3.41267 7.2521C3.43087 7.27174 3.45318 7.28715 3.47802 7.29719C3.50285 7.30724 3.52962 7.31172 3.55639 7.31028L3.77301 7.3398C3.98488 7.36342 4.11506 7.37875 4.16241 7.38702C4.19082 7.38702 4.2145 7.39527 4.23344 7.39999C4.25704 7.40503 4.28037 7.41135 4.30329 7.4189H4.31155H4.31748C4.32906 7.4224 4.34095 7.42478 4.35299 7.42599C4.40017 7.43113 4.44749 7.4177 4.48491 7.38858C4.52233 7.35945 4.54687 7.31694 4.55335 7.27004C4.55982 7.22314 4.54772 7.17556 4.51959 7.13743C4.49146 7.0993 4.44951 7.07366 4.4027 7.06588L4.4098 7.07648Z" fill="#7CC5ED"/>
<path d="M12.505 5.18359H12.4695H12.434H12.3073H12.2351H11.9262C11.8717 5.18762 11.8207 5.21212 11.7835 5.25209C11.7463 5.29206 11.7256 5.34457 11.7256 5.39911C11.7256 5.45365 11.7463 5.50616 11.7835 5.54613C11.8207 5.5861 11.8717 5.61059 11.9262 5.61463H12.2221H12.2956H12.4458H12.4695H12.5097C12.5669 5.61463 12.6217 5.59197 12.6621 5.55166C12.7025 5.51136 12.7252 5.45668 12.7252 5.39968C12.7252 5.34269 12.7025 5.28806 12.6621 5.24776C12.6217 5.20746 12.5669 5.18481 12.5097 5.18481L12.505 5.18359Z" fill="#7CC5ED"/>
<path d="M18.9392 8.68231C18.8125 8.52964 18.6757 8.38562 18.5297 8.2513C18.4911 8.21916 18.4415 8.20324 18.3914 8.20703C18.3413 8.21075 18.2947 8.23387 18.2614 8.27139C18.2281 8.30891 18.2107 8.35788 18.2131 8.40798C18.2155 8.45801 18.2372 8.50524 18.274 8.53942C18.4065 8.6629 18.531 8.79457 18.6468 8.93382C18.6634 8.953 18.6835 8.96869 18.7062 8.98006C18.7288 8.99143 18.7535 8.99825 18.7787 9.00015C18.804 9.00196 18.8294 8.99886 18.8535 8.9909C18.8776 8.98294 18.8999 8.97043 18.9191 8.95391C18.9383 8.93738 18.954 8.91729 18.9654 8.89471C18.9768 8.87212 18.9836 8.84748 18.9855 8.82224C18.9874 8.79707 18.9842 8.77175 18.9763 8.74773C18.9683 8.7237 18.9557 8.70149 18.9392 8.68231Z" fill="#7CC5ED"/>
<path d="M11.5827 2.94137C11.5196 2.87643 11.46 2.80825 11.4039 2.7371C11.3646 2.68419 11.3298 2.62811 11.2998 2.56944C11.287 2.53893 11.2679 2.51145 11.2437 2.48878C11.2196 2.4661 11.1909 2.44873 11.1596 2.43781C11.1284 2.42688 11.095 2.42265 11.062 2.42535C11.029 2.42807 10.9969 2.43767 10.9678 2.45355C10.9387 2.46943 10.9133 2.49124 10.8932 2.51755C10.8731 2.54385 10.8588 2.57404 10.8511 2.60622C10.8435 2.63841 10.8427 2.67185 10.8488 2.70435C10.8549 2.73685 10.8678 2.76771 10.8867 2.79492C10.928 2.87408 10.9755 2.94994 11.0287 3.02169V3.02757C11.0947 3.10996 11.165 3.1888 11.2394 3.26372C11.2594 3.29027 11.2847 3.31229 11.3139 3.32841C11.3429 3.34453 11.3751 3.35436 11.4083 3.35724C11.4414 3.36012 11.4748 3.35599 11.5062 3.34513C11.5377 3.33427 11.5664 3.31693 11.5907 3.29422C11.615 3.27151 11.6342 3.24394 11.6471 3.21333C11.6599 3.18273 11.6662 3.14977 11.6655 3.11658C11.6647 3.0834 11.6569 3.05075 11.6426 3.02076C11.6284 2.99077 11.6079 2.96411 11.5827 2.94253V2.94137Z" fill="#7CC5ED"/>
<path d="M6.80774 10.3578C6.78526 10.3152 6.72961 10.1996 6.64438 10.0106C6.62845 9.97231 6.61542 9.93282 6.60534 9.89257C6.59333 9.85664 6.56788 9.82677 6.53431 9.80926C6.50074 9.79168 6.46165 9.78774 6.42525 9.79827C6.38884 9.80881 6.35793 9.83299 6.33898 9.86574C6.32004 9.89848 6.31452 9.93729 6.32362 9.97398C6.33788 10.027 6.35648 10.0787 6.37924 10.1287C6.46683 10.3235 6.52485 10.4451 6.54972 10.4923C6.55829 10.5101 6.57035 10.526 6.5852 10.5389C6.60005 10.5519 6.61739 10.5617 6.63614 10.5679C6.65491 10.574 6.67468 10.5763 6.69435 10.5746C6.71401 10.5729 6.73317 10.5674 6.75061 10.5581C6.76806 10.5489 6.78343 10.5363 6.79587 10.521C6.80831 10.5057 6.81753 10.4881 6.82298 10.4691C6.82842 10.4502 6.82998 10.4303 6.82757 10.4108C6.82515 10.3913 6.81882 10.3725 6.80893 10.3554L6.80774 10.3578Z" fill="#7CC5ED"/>
<path d="M8.15824 8.12027H7.72738L7.58299 7.63855L7.57233 7.66334C7.5451 7.73057 7.39951 8.12148 7.39951 8.12148L6.95801 8.11557L7.34033 8.37769C7.24919 8.69295 7.1912 8.8748 7.16989 8.92324C7.16989 8.92324 7.16987 8.92324 7.18053 8.92324C7.23497 8.8701 7.36399 8.75791 7.57114 8.58433C7.62674 8.63633 7.72503 8.72956 7.86467 8.86419L7.90968 8.90194L7.96061 8.93976L7.79956 8.39066L8.15824 8.12027Z" fill="#7CC5ED"/>
<path d="M37.682 8.17795C36.2102 6.6285 31.8744 3.68852 30.1838 3.68852C29.7661 3.68852 29.5075 3.88717 29.5075 4.32419C29.5075 6.50931 38.219 6.15175 38.219 12.7071C38.219 15.5875 35.6135 16.8588 33.0677 16.8588C31.5562 16.8588 28.3938 16.5807 27.2203 15.5279L27.2998 10.2637C28.5727 11.6146 34.1418 15.2895 35.9517 15.2895C36.3097 15.2895 36.5086 15.1505 36.5086 14.8127C36.5086 12.7071 27.101 12.29 27.1408 6.66823C27.1606 3.37069 30.3628 2.39732 33.0677 2.39732C35.4346 2.39732 36.8268 2.95353 37.682 3.72825V8.17795ZM46.038 14.038C46.1971 12.6475 46.0778 10.3234 45.7198 8.57523C45.5407 7.97927 45.3419 7.34363 45.1231 6.66823H49.6379C49.817 9.1116 50.4733 12.3694 50.9307 14.0579C51.0103 14.3956 51.1694 14.5545 51.2887 14.5545C51.4081 14.5545 51.5274 14.3956 51.5473 14.038C51.6865 11.8926 51.1893 7.64158 50.7319 6.66823H55.0876C53.7948 10.5418 52.86 12.8064 52.0843 16.6006H47.4899C47.3308 15.8855 47.1916 15.2299 47.0722 14.5943C46.9131 15.2299 46.754 15.8855 46.5949 16.6006H41.6027C40.6877 12.7865 39.9718 10.4822 38.5398 6.66823H43.9298C44.1286 9.1116 44.8446 12.3694 45.3419 14.0579C45.4413 14.3956 45.6004 14.5545 45.7396 14.5545C45.8789 14.5545 45.9982 14.3956 46.038 14.038ZM59.198 12.131C59.5958 13.2037 60.3714 13.5812 61.2068 13.5812C62.4399 13.5812 63.8123 12.7468 64.2498 12.1707C64.5283 15.2697 61.8631 16.8191 59.8146 16.8191C56.3538 16.8191 54.7627 14.2566 54.7627 11.6146C54.7627 8.99236 56.3538 6.40999 59.8146 6.40999C62.6189 6.40999 64.7868 8.05879 63.9316 10.8001C63.5935 11.9125 62.1217 12.4488 60.8687 12.4488C60.2521 12.4488 59.6952 12.3297 59.3571 12.0516C59.1582 11.8926 59.0985 11.8926 59.198 12.131ZM58.5417 9.33014C58.8798 11.1179 59.2775 11.396 59.7548 11.2769C60.1924 11.1775 60.5504 10.7008 60.2123 8.95264C59.8941 7.28403 59.4167 6.9662 58.9394 7.06552C58.4422 7.18471 58.2433 7.66144 58.5417 9.33014ZM69.3174 12.131C69.7152 13.2037 70.4908 13.5812 71.3262 13.5812C72.5594 13.5812 73.9317 12.7468 74.3692 12.1707C74.6477 15.2697 71.9825 16.8191 69.934 16.8191C66.4732 16.8191 64.8821 14.2566 64.8821 11.6146C64.8821 8.99236 66.4732 6.40999 69.934 6.40999C72.7383 6.40999 74.9063 8.05879 74.051 10.8001C73.7129 11.9125 72.2411 12.4488 70.9881 12.4488C70.3715 12.4488 69.8146 12.3297 69.4765 12.0516C69.2776 11.8926 69.2179 11.8926 69.3174 12.131ZM68.6611 9.33014C68.9992 11.1179 69.3969 11.396 69.8743 11.2769C70.3119 11.1775 70.6699 10.7008 70.3317 8.95264C70.0135 7.28403 69.5361 6.9662 69.0588 7.06552C68.5616 7.18471 68.3627 7.66144 68.6611 9.33014ZM79.5761 3.90703H80.2326V6.68809H81.346V7.48268H80.2326V13.2236C80.2326 14.4949 80.332 15.6471 81.4059 15.5676C81.0477 16.1834 80.4906 16.8787 78.4225 16.8986C75.5982 16.9184 75.9164 14.4949 75.9164 13.2236V7.48268H74.9419V6.68809L79.5761 3.90703ZM92.0988 9.6479C92.7948 12.0913 94.3263 12.8859 95.7979 12.8859C97.2301 12.8859 98.603 12.0913 98.9605 11.3166C98.9605 15.3292 95.8981 16.8191 93.213 16.8191C88.638 16.8191 86.8082 13.2832 86.8082 9.6479C86.8082 6.01269 88.638 2.47677 93.213 2.47677C96.8726 2.47677 98.3837 4.93999 98.9605 6.66823L94.5851 9.4493C93.1135 4.36392 92.4768 3.1919 91.6814 3.43028C90.826 3.68852 90.8655 5.31743 92.0988 9.6479ZM99.8652 4.16527C99.8652 3.37069 100.163 2.19867 102.351 2.19867C104.54 2.19867 104.818 3.37069 104.818 4.16527C104.818 4.97973 104.54 6.13188 102.351 6.13188C100.163 6.13188 99.8652 4.97973 99.8652 4.16527ZM99.8849 16.6006C100.283 12.9455 100.283 10.3234 99.8849 6.66823H104.798C104.4 10.3234 104.4 12.9455 104.798 16.6006H99.8849ZM105.614 16.6006C106.013 12.9455 106.013 10.3234 105.614 6.66823H109.712L110.269 8.29711C110.686 7.14498 111.879 6.48944 113.073 6.48944C114.366 6.48944 115.659 7.24431 116.057 8.91292L113.073 11.9523C112.278 10.1048 111.283 9.1116 110.746 9.1116C110.567 9.1116 110.428 9.23076 110.388 9.50888C110.229 10.5021 110.09 13.3031 110.468 16.6006H105.614ZM120.437 11.7139C120.755 12.9852 121.59 13.4222 122.505 13.4222C123.837 13.4222 125.309 12.5084 125.588 11.8132C125.886 15.4484 123.221 16.8191 121.173 16.8191C117.712 16.8191 116.12 14.2566 116.12 11.6146C116.12 8.9725 117.712 6.40999 121.173 6.40999C123.977 6.40999 125.11 8.19781 125.548 9.4493L122.405 11.4159C121.551 8.01899 121.152 7.08539 120.556 7.26417C119.899 7.46281 119.681 8.67453 120.437 11.7139ZM126.3 16.6006C126.698 12.9455 126.698 7.16484 126.3 3.50974L131.213 2.5165C130.815 6.17161 130.815 12.9455 131.213 16.6006H126.3ZM136.347 12.131C136.744 13.2037 137.52 13.5812 138.355 13.5812C139.588 13.5812 140.961 12.7468 141.398 12.1707C141.677 15.2697 139.011 16.8191 136.963 16.8191C133.502 16.8191 131.911 14.2566 131.911 11.6146C131.911 8.99236 133.502 6.40999 136.963 6.40999C139.767 6.40999 141.935 8.05879 141.08 10.8001C140.742 11.9125 139.27 12.4488 138.017 12.4488C137.401 12.4488 136.844 12.3297 136.505 12.0516C136.306 11.8926 136.247 11.8926 136.347 12.131ZM135.69 9.33014C136.029 11.1179 136.426 11.396 136.904 11.2769C137.341 11.1775 137.699 10.7008 137.36 8.95264C137.042 7.28403 136.565 6.9662 136.088 7.06552C135.591 7.18471 135.392 7.66144 135.69 9.33014Z" fill="#6982A7"/>
<path d="M91.3215 21.884C91.3215 22.8655 91.1803 23.5709 90.8987 24C90.6422 24.3798 90.2544 24.5697 89.736 24.5697H88.225V20.1304C88.225 20.0022 88.1627 19.9381 88.0398 19.9381H87.5654V19.1612L89.736 19.1686C90.2643 19.1686 90.6445 19.3265 90.8767 19.6421C91.1727 20.0515 91.3215 20.7988 91.3215 21.884ZM90.4844 21.884C90.4844 21.1441 90.432 20.6508 90.3288 20.4042C90.1998 20.0984 89.9288 19.9455 89.5137 19.9455H89.1729C89.0985 19.9455 89.0621 19.9825 89.0621 20.0565V23.6744C89.0621 23.7435 89.094 23.778 89.1577 23.778H89.5137C89.8939 23.778 90.1557 23.6128 90.2992 23.2823C90.4221 23.0061 90.4844 22.54 90.4844 21.884ZM94.84 21.8765C94.84 22.7348 94.8005 23.3489 94.7216 23.7188C94.6381 24.1184 94.4825 24.3872 94.2548 24.5253C94.0575 24.6437 93.7221 24.7029 93.2477 24.7029C92.7885 24.7029 92.4576 24.6362 92.255 24.5031C92.0281 24.36 91.8725 24.0887 91.7882 23.6893C91.7093 23.3143 91.6698 22.7101 91.6698 21.8765C91.6698 20.7766 91.7685 20.0392 91.9658 19.6643C92.1837 19.2599 92.6155 19.0576 93.2621 19.0576C93.7418 19.0576 94.0871 19.1267 94.2996 19.2648C94.5167 19.4029 94.6647 19.6767 94.7444 20.086C94.8081 20.4362 94.84 21.0331 94.84 21.8765ZM93.9884 21.8765C93.9884 21.2205 93.9687 20.7594 93.9292 20.493C93.8898 20.2266 93.8154 20.0565 93.7069 19.9825C93.6325 19.9282 93.4799 19.9011 93.2477 19.9011C93.0451 19.9011 92.9016 19.9331 92.8181 19.9973C92.7096 20.0811 92.6307 20.2611 92.5806 20.5373C92.5366 20.8136 92.5146 21.26 92.5146 21.8765C92.5146 22.7398 92.5684 23.2971 92.677 23.5486C92.7658 23.7509 92.9563 23.852 93.2477 23.852C93.549 23.852 93.7418 23.7534 93.8253 23.5561C93.9338 23.3143 93.9884 22.7545 93.9884 21.8765ZM98.4739 24.5697H97.6291L96.2516 21.3809C96.2365 21.3512 96.2213 21.3389 96.2069 21.3439C96.1871 21.3439 96.1773 21.3587 96.1773 21.3882V24.5697H95.3325V19.1686H96.1773L97.5548 22.3796C97.5646 22.4043 97.5798 22.4142 97.5995 22.4093C97.6193 22.4093 97.6291 22.3994 97.6291 22.3796V19.1686H98.4739V24.5697ZM102.111 22.0467C102.111 22.8409 102.069 23.4155 101.985 23.7706C101.896 24.1455 101.738 24.397 101.511 24.5253C101.309 24.6437 100.978 24.7029 100.518 24.7029C100.069 24.7029 99.7428 24.6412 99.5402 24.5179C99.3133 24.3798 99.1554 24.1233 99.0666 23.7485C98.9824 23.3883 98.9406 22.8211 98.9406 22.0467V19.1612H99.7846V22.0615C99.7846 22.8409 99.8415 23.3464 99.9553 23.5783C100.044 23.7607 100.229 23.852 100.511 23.852C100.807 23.852 101 23.7632 101.088 23.5856C101.202 23.3588 101.259 22.8507 101.259 22.0615V19.1612H102.111V22.0467ZM105.492 19.9455H104.529C104.42 19.9455 104.366 20.0071 104.366 20.1304V24.5697H103.522V20.123C103.522 20.0047 103.475 19.9455 103.38 19.9455H102.395V19.1612H105.492V19.9455ZM108.933 22.9716C108.947 23.08 108.955 23.1837 108.955 23.2823C108.955 24.2293 108.409 24.7029 107.318 24.7029C106.691 24.7029 106.268 24.5919 106.051 24.3699C105.839 24.1479 105.732 23.7164 105.732 23.0751H106.607C106.607 23.4007 106.646 23.6128 106.725 23.7115C106.814 23.8249 107.014 23.8816 107.326 23.8816C107.602 23.8816 107.795 23.8274 107.903 23.7188C107.997 23.6301 108.043 23.4772 108.043 23.2601C108.043 23.1072 108.014 22.9863 107.955 22.8976C107.881 22.7743 107.72 22.6263 107.474 22.4536L106.97 22.1059C106.55 21.8198 106.288 21.625 106.185 21.5214C105.918 21.2649 105.772 20.9788 105.748 20.6632C105.742 20.5843 105.74 20.5078 105.74 20.4338C105.74 19.5164 106.274 19.0576 107.34 19.0576C107.968 19.0576 108.382 19.1612 108.585 19.3684C108.792 19.5756 108.896 19.9825 108.896 20.5892H108.037C108.037 20.2784 107.977 20.0762 107.858 19.9825C107.765 19.9085 107.587 19.8715 107.326 19.8715C106.866 19.8715 106.636 20.059 106.636 20.4338C106.636 20.6114 106.723 20.7815 106.896 20.9443C106.965 21.0084 107.127 21.1268 107.385 21.2995L107.955 21.6694C108.557 22.0689 108.884 22.503 108.933 22.9716ZM115.735 24.2368L115.105 24.7842L114.601 24.1554C114.458 24.5401 113.989 24.7324 113.194 24.7324C112.606 24.7324 112.166 24.624 111.875 24.4069C111.545 24.1603 111.379 23.7558 111.379 23.1935C111.379 22.5917 111.49 22.133 111.712 21.8173C111.815 21.6743 112.011 21.519 112.297 21.3512C111.937 20.9566 111.756 20.604 111.756 20.2932C111.756 20.1749 111.776 20.0565 111.815 19.9381C111.895 19.6865 112.067 19.4818 112.335 19.324C112.571 19.1859 112.821 19.1168 113.083 19.1168H113.216C113.626 19.1168 113.932 19.1859 114.135 19.324C114.366 19.4769 114.5 19.7358 114.535 20.1009C114.545 20.2093 114.549 20.387 114.549 20.6335H113.779C113.779 20.4954 113.779 20.4067 113.779 20.3672C113.759 20.0367 113.586 19.8715 113.261 19.8715H113.157C112.855 19.8715 112.705 20.0145 112.705 20.3006C112.705 20.4683 112.764 20.6237 112.883 20.7667L114.157 22.2983V21.8913H114.89C114.949 22.3698 114.949 22.7989 114.89 23.1787L115.735 24.2368ZM113.994 23.4302L112.823 21.9727C112.798 21.9432 112.766 21.9283 112.727 21.9283C112.549 21.9283 112.416 22.0862 112.327 22.4018C112.258 22.6485 112.231 22.8704 112.246 23.0678C112.29 23.6547 112.569 23.9482 113.083 23.9482C113.69 23.9482 113.994 23.7755 113.994 23.4302ZM121.893 21.884C121.893 22.8655 121.752 23.5709 121.471 24C121.214 24.3798 120.827 24.5697 120.307 24.5697H118.796V20.1304C118.796 20.0022 118.735 19.9381 118.611 19.9381H118.138V19.1612L120.307 19.1686C120.836 19.1686 121.217 19.3265 121.449 19.6421C121.745 20.0515 121.893 20.7988 121.893 21.884ZM121.056 21.884C121.056 21.1441 121.004 20.6508 120.9 20.4042C120.772 20.0984 120.5 19.9455 120.086 19.9455H119.745C119.671 19.9455 119.633 19.9825 119.633 20.0565V23.6744C119.633 23.7435 119.665 23.778 119.73 23.778H120.086C120.466 23.778 120.728 23.6128 120.871 23.2823C120.994 23.0061 121.056 22.54 121.056 21.884ZM125.894 24.5697H125.02L123.96 22.5425C123.941 22.498 123.911 22.4758 123.871 22.4758H123.701C123.647 22.4758 123.619 22.5055 123.619 22.5647V24.5697H122.79V20.1526C122.79 20.0145 122.728 19.9455 122.605 19.9455H122.13V19.1686H124.301C124.884 19.1686 125.294 19.2944 125.531 19.5459C125.768 19.7975 125.886 20.2316 125.886 20.8481C125.886 21.3414 125.798 21.7138 125.619 21.9653C125.447 22.212 125.168 22.3673 124.782 22.4315L125.894 24.5697ZM125.049 20.8481C125.049 20.5029 124.998 20.2735 124.894 20.1601C124.765 20.017 124.494 19.9455 124.079 19.9455H123.701C123.647 19.9455 123.619 19.975 123.619 20.0342V21.588C123.619 21.6472 123.647 21.6768 123.701 21.6768H124.079C124.469 21.6768 124.728 21.6176 124.857 21.4992C124.985 21.3809 125.049 21.1638 125.049 20.8481ZM127.374 19.5534C127.374 19.6865 127.325 19.8024 127.226 19.9011C127.133 19.9948 127.017 20.0417 126.878 20.0417C126.745 20.0417 126.629 19.9948 126.53 19.9011C126.436 19.8024 126.389 19.6865 126.389 19.5534C126.389 19.4202 126.436 19.3067 126.53 19.213C126.629 19.1143 126.745 19.065 126.878 19.065C127.017 19.065 127.133 19.1143 127.226 19.213C127.325 19.3067 127.374 19.4202 127.374 19.5534ZM127.3 24.5697H126.456V20.3524H127.3V24.5697ZM131.1 24.5697H130.256L128.877 21.3809C128.863 21.3512 128.848 21.3389 128.833 21.3439C128.814 21.3439 128.804 21.3587 128.804 21.3882V24.5697H127.959V19.1686H128.804L130.181 22.3796C130.191 22.4043 130.206 22.4142 130.226 22.4093C130.246 22.4093 130.256 22.3994 130.256 22.3796V19.1686H131.1V24.5697ZM134.722 24.577H133.804L132.618 22.5277C132.584 22.4685 132.547 22.4388 132.508 22.4388C132.473 22.4388 132.456 22.461 132.456 22.5055V24.577H131.619V19.1686H132.456V21.2698C132.456 21.3192 132.478 21.3439 132.522 21.3439C132.577 21.3439 132.616 21.3217 132.641 21.2772L133.804 19.1686H134.722L133.33 21.7286C133.276 21.8272 133.276 21.9283 133.33 22.0319L134.722 24.577ZM138.181 22.9716C138.196 23.08 138.203 23.1837 138.203 23.2823C138.203 24.2293 137.657 24.7029 136.566 24.7029C135.939 24.7029 135.516 24.5919 135.299 24.3699C135.086 24.1479 134.98 23.7164 134.98 23.0751H135.855C135.855 23.4007 135.894 23.6128 135.973 23.7115C136.062 23.8249 136.262 23.8816 136.573 23.8816C136.85 23.8816 137.042 23.8274 137.151 23.7188C137.245 23.6301 137.292 23.4772 137.292 23.2601C137.292 23.1072 137.262 22.9863 137.203 22.8976C137.129 22.7743 136.969 22.6263 136.721 22.4536L136.217 22.1059C135.798 21.8198 135.537 21.625 135.433 21.5214C135.165 21.2649 135.02 20.9788 134.995 20.6632C134.99 20.5843 134.988 20.5078 134.988 20.4338C134.988 19.5164 135.521 19.0576 136.588 19.0576C137.215 19.0576 137.63 19.1612 137.832 19.3684C138.04 19.5756 138.144 19.9825 138.144 20.5892H137.284C137.284 20.2784 137.225 20.0762 137.107 19.9825C137.013 19.9085 136.835 19.8715 136.573 19.8715C136.114 19.8715 135.884 20.059 135.884 20.4338C135.884 20.6114 135.971 20.7815 136.144 20.9443C136.213 21.0084 136.376 21.1268 136.632 21.2995L137.203 21.6694C137.806 22.0689 138.131 22.503 138.181 22.9716Z" fill="#E8AFA7"/>
</svg>
