<svg width="292" height="145" viewBox="0 0 292 145" fill="none" xmlns="http://www.w3.org/2000/svg">
<rect width="276" height="145" rx="8" fill="url(#paint0_linear_1893_1953)"/>
<rect x="10.175" y="31.175" width="66.65" height="26.65" rx="4.825" fill="#0E3572"/>
<rect x="10.175" y="31.175" width="66.65" height="26.65" rx="4.825" stroke="#FFFAFA" stroke-width="0.35"/>
<path d="M22.112 47.1182C21.7097 47.1182 21.3695 47.0539 21.0916 46.9253C20.8178 46.7967 20.6083 46.6204 20.4631 46.3964C20.318 46.1683 20.2454 45.9111 20.2454 45.6249H21.1103C21.1103 45.7452 21.1434 45.8634 21.2098 45.9796C21.2762 46.0916 21.382 46.1828 21.5271 46.2533C21.6765 46.3239 21.8714 46.3591 22.112 46.3591C22.3277 46.3591 22.5082 46.328 22.6534 46.2658C22.7985 46.2036 22.9064 46.1227 22.9769 46.0231C23.0474 45.9194 23.0827 45.8033 23.0827 45.6747C23.0827 45.5129 23.0142 45.3843 22.8774 45.2889C22.7405 45.1893 22.5289 45.1271 22.2427 45.1022L21.8445 45.0711C21.4089 45.0338 21.0605 44.899 20.7991 44.6667C20.542 44.4302 20.4134 44.1191 20.4134 43.7333C20.4134 43.443 20.4818 43.1941 20.6187 42.9867C20.7556 42.7751 20.9464 42.6134 21.1911 42.5014C21.44 42.3852 21.7304 42.3271 22.0623 42.3271C22.4065 42.3271 22.7031 42.3873 22.952 42.5076C23.2009 42.6279 23.3938 42.7979 23.5307 43.0178C23.6676 43.2335 23.736 43.4886 23.736 43.7831H22.8711C22.8711 43.6587 22.84 43.5446 22.7778 43.4409C22.7197 43.3331 22.6305 43.248 22.5102 43.1858C22.3941 43.1194 22.2448 43.0862 22.0623 43.0862C21.888 43.0862 21.7428 43.1153 21.6267 43.1733C21.5106 43.2314 21.4234 43.3102 21.3654 43.4098C21.3073 43.5093 21.2783 43.6172 21.2783 43.7333C21.2783 43.8744 21.3301 43.9988 21.4338 44.1067C21.5375 44.2104 21.7014 44.2705 21.9254 44.2871L22.3236 44.3245C22.6471 44.3493 22.9313 44.4178 23.176 44.5298C23.4208 44.6418 23.6095 44.7932 23.7422 44.984C23.8791 45.1748 23.9476 45.405 23.9476 45.6747C23.9476 45.9609 23.8729 46.2139 23.7236 46.4338C23.5742 46.6495 23.3606 46.8175 23.0827 46.9378C22.8089 47.0581 22.4854 47.1182 22.112 47.1182ZM26.1865 47.1182C25.892 47.1182 25.6369 47.0684 25.4212 46.9689C25.2096 46.8693 25.0312 46.7366 24.8861 46.5707C24.745 46.4047 24.6392 46.2181 24.5687 46.0107C24.4982 45.8033 24.4629 45.5917 24.4629 45.376V45.2578C24.4629 45.0296 24.4982 44.8119 24.5687 44.6045C24.6434 44.3929 24.7533 44.2062 24.8985 44.0445C25.0437 43.8785 25.2221 43.7479 25.4336 43.6525C25.6493 43.5529 25.8982 43.5031 26.1803 43.5031C26.4748 43.5031 26.7382 43.5612 26.9705 43.6773C27.2028 43.7893 27.3874 43.947 27.5243 44.1502C27.6653 44.3535 27.7441 44.5899 27.7607 44.8596H26.9207C26.9 44.6853 26.8253 44.5402 26.6967 44.424C26.5723 44.3079 26.4001 44.2498 26.1803 44.2498C25.9895 44.2498 25.8298 44.2954 25.7012 44.3867C25.5767 44.4779 25.4834 44.6045 25.4212 44.7662C25.3589 44.9239 25.3278 45.1064 25.3278 45.3138C25.3278 45.5129 25.3569 45.6933 25.4149 45.8551C25.4772 46.0169 25.5705 46.1434 25.6949 46.2347C25.8235 46.3259 25.9874 46.3716 26.1865 46.3716C26.3358 46.3716 26.4644 46.3446 26.5723 46.2907C26.6801 46.2367 26.7652 46.1621 26.8274 46.0667C26.8938 45.9713 26.9352 45.8634 26.9518 45.7431H27.7918C27.7752 46.0169 27.6943 46.2575 27.5492 46.4649C27.4081 46.6681 27.2194 46.8279 26.9829 46.944C26.7506 47.0601 26.4852 47.1182 26.1865 47.1182ZM30.1087 47.1182C29.81 47.1182 29.5466 47.0705 29.3184 46.9751C29.0903 46.8797 28.8974 46.7511 28.7398 46.5893C28.5822 46.4234 28.4619 46.2367 28.3789 46.0293C28.3001 45.8219 28.2607 45.6062 28.2607 45.3822V45.2516C28.2607 45.0193 28.3022 44.7994 28.3851 44.592C28.4722 44.3805 28.5946 44.1938 28.7522 44.032C28.914 43.8661 29.109 43.7375 29.3371 43.6462C29.5653 43.5508 29.8224 43.5031 30.1087 43.5031C30.3949 43.5031 30.6521 43.5508 30.8802 43.6462C31.1084 43.7375 31.3013 43.8661 31.4589 44.032C31.6207 44.1938 31.743 44.3805 31.826 44.592C31.909 44.7994 31.9504 45.0193 31.9504 45.2516V45.3822C31.9504 45.6062 31.909 45.8219 31.826 46.0293C31.7472 46.2367 31.629 46.4234 31.4713 46.5893C31.3137 46.7511 31.1208 46.8797 30.8927 46.9751C30.6645 47.0705 30.4032 47.1182 30.1087 47.1182ZM30.1087 46.3778C30.3202 46.3778 30.4986 46.3322 30.6438 46.2409C30.789 46.1455 30.8989 46.019 30.9736 45.8613C31.0482 45.6996 31.0856 45.517 31.0856 45.3138C31.0856 45.1064 31.0461 44.9239 30.9673 44.7662C30.8927 44.6045 30.7807 44.4779 30.6313 44.3867C30.4861 44.2913 30.3119 44.2436 30.1087 44.2436C29.9054 44.2436 29.7291 44.2913 29.5798 44.3867C29.4346 44.4779 29.3226 44.6045 29.2438 44.7662C29.165 44.9239 29.1256 45.1064 29.1256 45.3138C29.1256 45.517 29.1629 45.6996 29.2376 45.8613C29.3164 46.019 29.4284 46.1455 29.5736 46.2409C29.7187 46.3322 29.8971 46.3778 30.1087 46.3778ZM32.7077 48.2444V43.6213H33.3922V45.0773L33.2864 45.0711C33.303 44.7268 33.3735 44.4385 33.498 44.2062C33.6266 43.9739 33.7966 43.8018 34.0082 43.6898C34.2197 43.5736 34.4562 43.5156 34.7175 43.5156C34.9581 43.5156 35.1738 43.5591 35.3646 43.6462C35.5596 43.7333 35.7255 43.8557 35.8624 44.0133C36.0034 44.171 36.1113 44.3556 36.186 44.5671C36.2606 44.7745 36.298 44.9985 36.298 45.2391V45.3698C36.298 45.6145 36.2606 45.8427 36.186 46.0542C36.1154 46.2616 36.0097 46.4462 35.8686 46.608C35.7317 46.7656 35.5658 46.8901 35.3708 46.9813C35.1759 47.0684 34.9581 47.112 34.7175 47.112C34.4645 47.112 34.2322 47.0601 34.0206 46.9564C33.8132 46.8486 33.6452 46.6847 33.5166 46.4649C33.388 46.2409 33.3154 45.9526 33.2989 45.6L33.5726 46.0169V48.2444H32.7077ZM34.4997 46.384C34.6864 46.384 34.8482 46.3384 34.9851 46.2471C35.1261 46.1559 35.236 46.0293 35.3148 45.8676C35.3937 45.7016 35.4331 45.515 35.4331 45.3076C35.4331 45.0919 35.3937 44.9052 35.3148 44.7476C35.236 44.5899 35.1261 44.4676 34.9851 44.3805C34.8482 44.2892 34.6864 44.2436 34.4997 44.2436C34.3297 44.2436 34.172 44.2809 34.0269 44.3556C33.8858 44.4302 33.7697 44.5402 33.6784 44.6853C33.5913 44.8305 33.5477 45.0047 33.5477 45.208V45.4569C33.5477 45.6519 33.5934 45.8178 33.6846 45.9547C33.7759 46.0916 33.8941 46.1973 34.0393 46.272C34.1845 46.3467 34.338 46.384 34.4997 46.384ZM38.5704 47.1182C38.28 47.1182 38.0249 47.0684 37.8051 46.9689C37.5894 46.8693 37.4089 46.7366 37.2638 46.5707C37.1227 46.4006 37.0149 46.2119 36.9402 46.0044C36.8697 45.797 36.8344 45.5855 36.8344 45.3698V45.2516C36.8344 45.0276 36.8697 44.8119 36.9402 44.6045C37.0149 44.3929 37.1227 44.2062 37.2638 44.0445C37.4089 43.8785 37.5873 43.7479 37.7989 43.6525C38.0104 43.5529 38.2552 43.5031 38.5331 43.5031C38.8981 43.5031 39.203 43.584 39.4477 43.7458C39.6966 43.9034 39.8833 44.1129 40.0077 44.3742C40.1322 44.6314 40.1944 44.9093 40.1944 45.208V45.5191H37.2015V44.9902H39.6531L39.3855 45.2516C39.3855 45.0359 39.3544 44.8513 39.2922 44.6978C39.23 44.5443 39.1346 44.4261 39.006 44.3431C38.8815 44.2602 38.7239 44.2187 38.5331 44.2187C38.3423 44.2187 38.1805 44.2622 38.0478 44.3493C37.915 44.4365 37.8134 44.563 37.7429 44.7289C37.6765 44.8907 37.6433 45.0856 37.6433 45.3138C37.6433 45.5253 37.6765 45.7141 37.7429 45.88C37.8092 46.0418 37.9109 46.1704 38.0478 46.2658C38.1846 46.357 38.3589 46.4027 38.5704 46.4027C38.782 46.4027 38.9541 46.3612 39.0869 46.2782C39.2196 46.1911 39.3046 46.0853 39.342 45.9609H40.1384C40.0886 46.1932 39.9932 46.3964 39.8522 46.5707C39.7112 46.7449 39.5307 46.8797 39.3109 46.9751C39.0952 47.0705 38.8483 47.1182 38.5704 47.1182ZM43.0873 47.0249V46.2036H44.0269C44.2633 46.2036 44.4728 46.1683 44.6553 46.0978C44.842 46.0231 44.9996 45.9194 45.1282 45.7867C45.2568 45.6539 45.3543 45.4984 45.4207 45.32C45.4912 45.1375 45.5264 44.9363 45.5264 44.7165C45.5264 44.4883 45.4912 44.285 45.4207 44.1067C45.3543 43.9242 45.2568 43.7686 45.1282 43.64C44.9996 43.5114 44.842 43.4139 44.6553 43.3476C44.4728 43.2812 44.2633 43.248 44.0269 43.248H43.0873V42.4267H43.9709C44.3816 42.4267 44.7404 42.4868 45.0473 42.6071C45.3543 42.7274 45.6094 42.8934 45.8127 43.1049C46.0159 43.3123 46.1673 43.5508 46.2669 43.8205C46.3706 44.0859 46.4224 44.3618 46.4224 44.648V44.7849C46.4224 45.0587 46.3706 45.3283 46.2669 45.5938C46.1673 45.8593 46.0159 46.0999 45.8127 46.3156C45.6094 46.5313 45.3543 46.7034 45.0473 46.832C44.7404 46.9606 44.3816 47.0249 43.9709 47.0249H43.0873ZM42.3282 47.0249V42.4267H43.2118V47.0249H42.3282ZM48.6572 47.1182C48.3668 47.1182 48.1117 47.0684 47.8919 46.9689C47.6761 46.8693 47.4957 46.7366 47.3505 46.5707C47.2095 46.4006 47.1016 46.2119 47.027 46.0044C46.9564 45.797 46.9212 45.5855 46.9212 45.3698V45.2516C46.9212 45.0276 46.9564 44.8119 47.027 44.6045C47.1016 44.3929 47.2095 44.2062 47.3505 44.0445C47.4957 43.8785 47.6741 43.7479 47.8856 43.6525C48.0972 43.5529 48.3419 43.5031 48.6198 43.5031C48.9849 43.5031 49.2898 43.584 49.5345 43.7458C49.7834 43.9034 49.9701 44.1129 50.0945 44.3742C50.219 44.6314 50.2812 44.9093 50.2812 45.208V45.5191H47.2883V44.9902H49.7398L49.4723 45.2516C49.4723 45.0359 49.4412 44.8513 49.379 44.6978C49.3167 44.5443 49.2213 44.4261 49.0927 44.3431C48.9683 44.2602 48.8107 44.2187 48.6198 44.2187C48.429 44.2187 48.2673 44.2622 48.1345 44.3493C48.0018 44.4365 47.9001 44.563 47.8296 44.7289C47.7633 44.8907 47.7301 45.0856 47.7301 45.3138C47.7301 45.5253 47.7633 45.7141 47.8296 45.88C47.896 46.0418 47.9976 46.1704 48.1345 46.2658C48.2714 46.357 48.4456 46.4027 48.6572 46.4027C48.8687 46.4027 49.0409 46.3612 49.1736 46.2782C49.3064 46.1911 49.3914 46.0853 49.4287 45.9609H50.2252C50.1754 46.1932 50.08 46.3964 49.939 46.5707C49.7979 46.7449 49.6175 46.8797 49.3976 46.9751C49.1819 47.0705 48.9351 47.1182 48.6572 47.1182ZM51.0783 47V43.5031C51.0783 43.1173 51.1841 42.8332 51.3957 42.6507C51.6114 42.464 51.9287 42.3707 52.3477 42.3707H52.6961V43.0365H52.2854C52.1569 43.0365 52.0573 43.0717 51.9868 43.1422C51.9204 43.2086 51.8872 43.304 51.8872 43.4285V47H51.0783ZM50.6615 44.2747V43.64H52.665V44.2747H50.6615ZM53.3868 47V43.6213H54.2517V47H53.3868ZM52.9574 44.2685V43.6213H54.2517V44.2685H52.9574ZM53.6979 43.2169C53.532 43.2169 53.4075 43.1733 53.3246 43.0862C53.2457 42.995 53.2063 42.883 53.2063 42.7502C53.2063 42.6092 53.2457 42.4951 53.3246 42.408C53.4075 42.3209 53.532 42.2774 53.6979 42.2774C53.868 42.2774 53.9924 42.3209 54.0712 42.408C54.1542 42.4951 54.1957 42.6092 54.1957 42.7502C54.1957 42.883 54.1542 42.995 54.0712 43.0862C53.9924 43.1733 53.868 43.2169 53.6979 43.2169ZM55.245 47V43.6213H55.9294V45.0711H55.8672C55.8672 44.7268 55.9128 44.4406 56.0041 44.2125C56.0953 43.9802 56.2302 43.8059 56.4085 43.6898C56.591 43.5736 56.8171 43.5156 57.0867 43.5156H57.1241C57.5265 43.5156 57.8313 43.6462 58.0387 43.9076C58.2462 44.1648 58.3499 44.5505 58.3499 45.0649V47H57.485V44.9902C57.485 44.7828 57.4248 44.6148 57.3045 44.4862C57.1884 44.3576 57.0266 44.2933 56.8192 44.2933C56.6076 44.2933 56.4355 44.3597 56.3028 44.4925C56.1742 44.621 56.1099 44.7953 56.1099 45.0151V47H55.245ZM60.7917 47.1182C60.5013 47.1182 60.2462 47.0684 60.0263 46.9689C59.8106 46.8693 59.6302 46.7366 59.485 46.5707C59.344 46.4006 59.2361 46.2119 59.1615 46.0044C59.0909 45.797 59.0557 45.5855 59.0557 45.3698V45.2516C59.0557 45.0276 59.0909 44.8119 59.1615 44.6045C59.2361 44.3929 59.344 44.2062 59.485 44.0445C59.6302 43.8785 59.8086 43.7479 60.0201 43.6525C60.2317 43.5529 60.4764 43.5031 60.7543 43.5031C61.1194 43.5031 61.4243 43.584 61.669 43.7458C61.9179 43.9034 62.1046 44.1129 62.229 44.3742C62.3534 44.6314 62.4157 44.9093 62.4157 45.208V45.5191H59.4228V44.9902H61.8743L61.6068 45.2516C61.6068 45.0359 61.5757 44.8513 61.5134 44.6978C61.4512 44.5443 61.3558 44.4261 61.2272 44.3431C61.1028 44.2602 60.9452 44.2187 60.7543 44.2187C60.5635 44.2187 60.4018 44.2622 60.269 44.3493C60.1363 44.4365 60.0346 44.563 59.9641 44.7289C59.8978 44.8907 59.8646 45.0856 59.8646 45.3138C59.8646 45.5253 59.8978 45.7141 59.9641 45.88C60.0305 46.0418 60.1321 46.1704 60.269 46.2658C60.4059 46.357 60.5801 46.4027 60.7917 46.4027C61.0032 46.4027 61.1754 46.3612 61.3081 46.2782C61.4409 46.1911 61.5259 46.0853 61.5632 45.9609H62.3597C62.3099 46.1932 62.2145 46.3964 62.0734 46.5707C61.9324 46.7449 61.752 46.8797 61.5321 46.9751C61.3164 47.0705 61.0696 47.1182 60.7917 47.1182ZM64.5382 47.112C64.3017 47.112 64.0839 47.0684 63.8848 46.9813C63.6857 46.8942 63.5136 46.7719 63.3684 46.6142C63.2232 46.4566 63.1112 46.2741 63.0324 46.0667C62.9536 45.8551 62.9142 45.627 62.9142 45.3822V45.2516C62.9142 45.011 62.9515 44.7849 63.0262 44.5733C63.105 44.3618 63.2128 44.1772 63.3497 44.0196C63.4908 43.8619 63.6588 43.7396 63.8537 43.6525C64.0528 43.5612 64.2727 43.5156 64.5133 43.5156C64.7788 43.5156 65.0111 43.5736 65.2102 43.6898C65.4134 43.8018 65.5752 43.9719 65.6955 44.2C65.8158 44.4282 65.8822 44.7144 65.8946 45.0587L65.6395 44.76V42.4578H66.5044V47H65.8199V45.5627H65.9693C65.9568 45.907 65.8863 46.1953 65.7577 46.4276C65.6291 46.6557 65.4591 46.8279 65.2475 46.944C65.0401 47.056 64.8036 47.112 64.5382 47.112ZM64.7311 46.384C64.9011 46.384 65.0567 46.3467 65.1977 46.272C65.3388 46.1932 65.4508 46.0812 65.5337 45.936C65.6208 45.7867 65.6644 45.6125 65.6644 45.4133V45.1645C65.6644 44.9653 65.6208 44.7994 65.5337 44.6667C65.4466 44.5298 65.3325 44.4261 65.1915 44.3556C65.0505 44.2809 64.897 44.2436 64.7311 44.2436C64.5444 44.2436 64.3785 44.2892 64.2333 44.3805C64.0922 44.4676 63.9802 44.592 63.8973 44.7538C63.8185 44.9156 63.7791 45.1043 63.7791 45.32C63.7791 45.5357 63.8205 45.7244 63.9035 45.8862C63.9865 46.0439 64.0985 46.1662 64.2395 46.2533C64.3847 46.3404 64.5485 46.384 64.7311 46.384Z" fill="#FFFAFA"/>
<rect x="70.175" y="92.175" width="66.65" height="26.65" rx="4.825" fill="#0E3572"/>
<rect x="70.175" y="92.175" width="66.65" height="26.65" rx="4.825" stroke="#FFFAFA" stroke-width="0.35"/>
<path d="M86.3344 108.031V107.322H87.473C87.6804 107.322 87.8381 107.266 87.9459 107.154C88.0538 107.038 88.1077 106.88 88.1077 106.681C88.1077 106.482 88.0538 106.328 87.9459 106.22C87.8381 106.108 87.6804 106.052 87.473 106.052H86.3344V105.511H87.4108C87.7136 105.511 87.9833 105.548 88.2197 105.623C88.4603 105.694 88.647 105.814 88.7797 105.984C88.9166 106.154 88.985 106.382 88.985 106.668V106.756C88.985 107.025 88.9249 107.255 88.8046 107.446C88.6884 107.633 88.5121 107.778 88.2757 107.882C88.0434 107.981 87.7551 108.031 87.4108 108.031H86.3344ZM85.5939 108.031V103.427H86.4588V108.031H85.5939ZM86.3344 105.909V105.368H87.305C87.5166 105.368 87.6721 105.312 87.7717 105.2C87.8713 105.088 87.921 104.939 87.921 104.752C87.921 104.565 87.8713 104.416 87.7717 104.304C87.6721 104.192 87.5166 104.136 87.305 104.136H86.3344V103.427H87.2241C87.7385 103.427 88.1284 103.535 88.3939 103.75C88.6635 103.966 88.7984 104.275 88.7984 104.677V104.764C88.7984 105.047 88.7299 105.273 88.593 105.443C88.4603 105.609 88.2757 105.729 88.0393 105.804C87.8028 105.874 87.5311 105.909 87.2241 105.909H86.3344ZM90.9604 108.106C90.5705 108.106 90.2677 107.977 90.052 107.72C89.8404 107.463 89.7347 107.081 89.7347 106.575V104.615H90.5995V106.65C90.5995 106.857 90.6576 107.023 90.7738 107.148C90.8899 107.268 91.0475 107.328 91.2467 107.328C91.4458 107.328 91.6075 107.264 91.732 107.135C91.8606 107.007 91.9249 106.832 91.9249 106.612V104.615H92.7898V108H92.1053V106.563H92.1738C92.1738 106.903 92.1302 107.187 92.0431 107.415C91.956 107.643 91.8253 107.815 91.6511 107.932C91.4769 108.048 91.2591 108.106 90.9978 108.106H90.9604ZM93.945 108V104.621H94.8099V108H93.945ZM93.4722 105.268V104.621H94.8099V105.268H93.4722ZM94.2624 104.217C94.0923 104.217 93.9658 104.173 93.8828 104.086C93.804 103.995 93.7646 103.883 93.7646 103.75C93.7646 103.609 93.804 103.495 93.8828 103.408C93.9658 103.321 94.0923 103.277 94.2624 103.277C94.4324 103.277 94.5569 103.321 94.6357 103.408C94.7145 103.495 94.7539 103.609 94.7539 103.75C94.7539 103.883 94.7145 103.995 94.6357 104.086C94.5569 104.173 94.4324 104.217 94.2624 104.217ZM95.8502 108V103.458H96.7151V108H95.8502ZM95.4271 104.105V103.458H96.7151V104.105H95.4271ZM99.1025 108.112C98.8661 108.112 98.6483 108.068 98.4492 107.981C98.2501 107.894 98.0779 107.772 97.9327 107.614C97.7876 107.457 97.6756 107.274 97.5967 107.067C97.5179 106.855 97.4785 106.627 97.4785 106.382V106.252C97.4785 106.011 97.5159 105.785 97.5905 105.573C97.6693 105.362 97.7772 105.177 97.9141 105.02C98.0551 104.862 98.2231 104.74 98.4181 104.652C98.6172 104.561 98.837 104.516 99.0776 104.516C99.3431 104.516 99.5754 104.574 99.7745 104.69C99.9778 104.802 100.14 104.972 100.26 105.2C100.38 105.428 100.447 105.714 100.459 106.059L100.204 105.76V103.458H101.069V108H100.384V106.563H100.534C100.521 106.907 100.451 107.195 100.322 107.428C100.193 107.656 100.023 107.828 99.8118 107.944C99.6044 108.056 99.368 108.112 99.1025 108.112ZM99.2954 107.384C99.4655 107.384 99.621 107.347 99.7621 107.272C99.9031 107.193 100.015 107.081 100.098 106.936C100.185 106.787 100.229 106.612 100.229 106.413V106.164C100.229 105.965 100.185 105.799 100.098 105.667C100.011 105.53 99.8969 105.426 99.7558 105.356C99.6148 105.281 99.4613 105.244 99.2954 105.244C99.1087 105.244 98.9428 105.289 98.7976 105.38C98.6566 105.468 98.5446 105.592 98.4616 105.754C98.3828 105.916 98.3434 106.104 98.3434 106.32C98.3434 106.536 98.3849 106.724 98.4678 106.886C98.5508 107.044 98.6628 107.166 98.8038 107.253C98.949 107.34 99.1129 107.384 99.2954 107.384ZM104.224 106.606V105.841H105.107C105.286 105.841 105.435 105.806 105.555 105.735C105.68 105.665 105.773 105.567 105.835 105.443C105.902 105.318 105.935 105.175 105.935 105.013C105.935 104.852 105.902 104.708 105.835 104.584C105.773 104.46 105.68 104.364 105.555 104.298C105.435 104.227 105.286 104.192 105.107 104.192H104.224V103.427H105.033C105.414 103.427 105.738 103.489 106.003 103.613C106.273 103.738 106.478 103.916 106.619 104.148C106.76 104.377 106.831 104.648 106.831 104.964V105.063C106.831 105.378 106.76 105.652 106.619 105.884C106.478 106.113 106.273 106.291 106.003 106.42C105.738 106.544 105.414 106.606 105.033 106.606H104.224ZM103.465 108V103.427H104.348V108H103.465ZM107.492 108V103.458H108.356V106.108H108.207C108.207 105.768 108.251 105.48 108.338 105.244C108.425 105.007 108.553 104.827 108.724 104.702C108.898 104.578 109.118 104.516 109.383 104.516H109.42C109.806 104.516 110.099 104.648 110.298 104.914C110.497 105.179 110.596 105.565 110.596 106.071V108H109.732V105.99C109.732 105.775 109.669 105.604 109.545 105.48C109.425 105.356 109.265 105.293 109.066 105.293C108.854 105.293 108.682 105.364 108.549 105.505C108.421 105.642 108.356 105.822 108.356 106.046V108H107.492ZM113.573 108V106.998H113.43V105.884C113.43 105.689 113.383 105.544 113.287 105.449C113.192 105.353 113.044 105.306 112.845 105.306C112.742 105.306 112.617 105.308 112.472 105.312C112.327 105.316 112.18 105.322 112.03 105.331C111.885 105.335 111.754 105.341 111.638 105.349V104.615C111.734 104.607 111.842 104.599 111.962 104.59C112.082 104.582 112.204 104.578 112.329 104.578C112.457 104.574 112.578 104.572 112.69 104.572C113.038 104.572 113.327 104.617 113.555 104.708C113.787 104.8 113.961 104.943 114.077 105.138C114.198 105.333 114.258 105.588 114.258 105.903V108H113.573ZM112.484 108.087C112.24 108.087 112.024 108.044 111.837 107.956C111.655 107.869 111.512 107.745 111.408 107.583C111.308 107.421 111.259 107.226 111.259 106.998C111.259 106.749 111.319 106.546 111.439 106.388C111.564 106.231 111.736 106.113 111.956 106.034C112.18 105.955 112.441 105.916 112.74 105.916H113.524V106.432H112.727C112.528 106.432 112.375 106.482 112.267 106.581C112.163 106.677 112.111 106.801 112.111 106.955C112.111 107.108 112.163 107.233 112.267 107.328C112.375 107.423 112.528 107.471 112.727 107.471C112.847 107.471 112.957 107.45 113.057 107.409C113.161 107.363 113.246 107.289 113.312 107.185C113.383 107.077 113.422 106.932 113.43 106.749L113.642 106.992C113.621 107.228 113.563 107.428 113.468 107.589C113.376 107.751 113.248 107.876 113.082 107.963C112.92 108.046 112.721 108.087 112.484 108.087ZM116.41 108.106C115.945 108.106 115.58 108.008 115.315 107.813C115.054 107.614 114.917 107.34 114.904 106.992H115.682C115.694 107.108 115.759 107.214 115.875 107.309C115.991 107.405 116.174 107.452 116.422 107.452C116.63 107.452 116.794 107.415 116.914 107.34C117.038 107.266 117.101 107.164 117.101 107.036C117.101 106.924 117.053 106.834 116.958 106.768C116.866 106.702 116.709 106.658 116.485 106.637L116.186 106.606C115.809 106.565 115.518 106.457 115.315 106.283C115.112 106.108 115.01 105.876 115.01 105.586C115.01 105.353 115.068 105.159 115.184 105.001C115.3 104.843 115.46 104.725 115.663 104.646C115.871 104.563 116.107 104.522 116.373 104.522C116.787 104.522 117.123 104.613 117.381 104.796C117.638 104.978 117.773 105.246 117.785 105.598H117.007C116.999 105.482 116.941 105.383 116.833 105.3C116.725 105.217 116.57 105.175 116.366 105.175C116.184 105.175 116.043 105.21 115.943 105.281C115.844 105.351 115.794 105.443 115.794 105.555C115.794 105.663 115.833 105.745 115.912 105.804C115.995 105.862 116.128 105.901 116.31 105.922L116.609 105.953C117.007 105.994 117.318 106.104 117.542 106.283C117.771 106.461 117.885 106.702 117.885 107.004C117.885 107.228 117.822 107.423 117.698 107.589C117.578 107.751 117.408 107.878 117.188 107.969C116.968 108.06 116.709 108.106 116.41 108.106ZM120.111 108.118C119.821 108.118 119.566 108.068 119.346 107.969C119.13 107.869 118.95 107.737 118.804 107.571C118.663 107.401 118.556 107.212 118.481 107.004C118.41 106.797 118.375 106.585 118.375 106.37V106.252C118.375 106.028 118.41 105.812 118.481 105.604C118.556 105.393 118.663 105.206 118.804 105.044C118.95 104.879 119.128 104.748 119.34 104.652C119.551 104.553 119.796 104.503 120.074 104.503C120.439 104.503 120.744 104.584 120.988 104.746C121.237 104.903 121.424 105.113 121.548 105.374C121.673 105.631 121.735 105.909 121.735 106.208V106.519H118.742V105.99H121.194L120.926 106.252C120.926 106.036 120.895 105.851 120.833 105.698C120.771 105.544 120.675 105.426 120.547 105.343C120.422 105.26 120.265 105.219 120.074 105.219C119.883 105.219 119.721 105.262 119.588 105.349C119.456 105.436 119.354 105.563 119.284 105.729C119.217 105.891 119.184 106.086 119.184 106.314C119.184 106.525 119.217 106.714 119.284 106.88C119.35 107.042 119.452 107.17 119.588 107.266C119.725 107.357 119.9 107.403 120.111 107.403C120.323 107.403 120.495 107.361 120.628 107.278C120.76 107.191 120.845 107.085 120.883 106.961H121.679C121.629 107.193 121.534 107.396 121.393 107.571C121.252 107.745 121.071 107.88 120.852 107.975C120.636 108.071 120.389 108.118 120.111 108.118Z" fill="#FFFAFA"/>
<rect x="137.175" y="31.175" width="66.65" height="26.65" rx="4.825" fill="#0E3572"/>
<rect x="137.175" y="31.175" width="66.65" height="26.65" rx="4.825" stroke="#FFFAFA" stroke-width="0.35"/>
<path d="M153.664 48.3378C153.403 48.3378 153.174 48.3046 152.979 48.2382C152.789 48.176 152.639 48.0598 152.531 47.8898C152.424 47.7238 152.37 47.4874 152.37 47.1804V46.5333H153.191V47.2364C153.191 47.365 153.226 47.4625 153.297 47.5289C153.371 47.5994 153.471 47.6347 153.595 47.6347H154.305V48.3378H153.664ZM152.793 47.1182C152.382 47.1182 152.025 47.0456 151.723 46.9004C151.424 46.7553 151.175 46.5665 150.976 46.3342C150.781 46.0978 150.634 45.8447 150.534 45.5751C150.439 45.3013 150.391 45.0379 150.391 44.7849V44.648C150.391 44.3701 150.441 44.0942 150.54 43.8205C150.64 43.5425 150.789 43.2916 150.988 43.0676C151.192 42.8436 151.443 42.6652 151.741 42.5325C152.04 42.3956 152.39 42.3271 152.793 42.3271C153.191 42.3271 153.539 42.3956 153.838 42.5325C154.137 42.6652 154.386 42.8436 154.585 43.0676C154.788 43.2916 154.939 43.5425 155.039 43.8205C155.139 44.0942 155.188 44.3701 155.188 44.648V44.7849C155.188 45.0379 155.139 45.3013 155.039 45.5751C154.944 45.8447 154.796 46.0978 154.597 46.3342C154.402 46.5665 154.153 46.7553 153.851 46.9004C153.552 47.0456 153.199 47.1182 152.793 47.1182ZM152.793 46.2969C153.025 46.2969 153.233 46.2554 153.415 46.1724C153.602 46.0895 153.759 45.9754 153.888 45.8302C154.021 45.6809 154.12 45.5129 154.187 45.3262C154.257 45.1354 154.292 44.9342 154.292 44.7227C154.292 44.4945 154.257 44.285 154.187 44.0942C154.12 43.9034 154.021 43.7375 153.888 43.5965C153.759 43.4554 153.602 43.3455 153.415 43.2667C153.228 43.1879 153.021 43.1485 152.793 43.1485C152.561 43.1485 152.351 43.1879 152.164 43.2667C151.978 43.3455 151.818 43.4554 151.685 43.5965C151.557 43.7375 151.457 43.9034 151.387 44.0942C151.32 44.285 151.287 44.4945 151.287 44.7227C151.287 44.9342 151.32 45.1354 151.387 45.3262C151.457 45.5129 151.557 45.6809 151.685 45.8302C151.818 45.9754 151.978 46.0895 152.164 46.1724C152.351 46.2554 152.561 46.2969 152.793 46.2969ZM155.418 47L156.967 42.4578H158.411L160.004 47H159.095L157.745 43.0614L158.062 43.1982H157.285L157.608 43.0614L156.302 47H155.418ZM156.501 45.7929L156.781 45.0462H158.622L158.896 45.7929H156.501ZM164.784 47L163.005 45.0836C162.814 44.8762 162.662 44.6957 162.55 44.5422C162.442 44.3888 162.364 44.2415 162.314 44.1005C162.268 43.9594 162.245 43.8059 162.245 43.64C162.245 43.3828 162.299 43.163 162.407 42.9805C162.515 42.7938 162.683 42.6507 162.911 42.5511C163.143 42.4516 163.442 42.4018 163.807 42.4018C163.952 42.4018 164.106 42.408 164.268 42.4205C164.434 42.4329 164.579 42.4495 164.703 42.4702V43.192C164.62 43.1796 164.517 43.1692 164.392 43.1609C164.268 43.1485 164.143 43.1402 164.019 43.136C163.898 43.1277 163.799 43.1236 163.72 43.1236C163.459 43.1236 163.28 43.1713 163.185 43.2667C163.094 43.3621 163.048 43.499 163.048 43.6773C163.048 43.835 163.085 43.9843 163.16 44.1253C163.235 44.2622 163.353 44.4199 163.515 44.5982L165.755 47H164.784ZM163.278 47.1244C162.946 47.1244 162.656 47.0601 162.407 46.9316C162.162 46.803 161.97 46.6287 161.829 46.4089C161.692 46.189 161.623 45.9443 161.623 45.6747V45.5876C161.623 45.2889 161.708 45.0234 161.878 44.7911C162.048 44.5547 162.264 44.3722 162.525 44.2436L162.899 44.7289C162.766 44.8077 162.654 44.9239 162.563 45.0773C162.471 45.2267 162.426 45.3988 162.426 45.5938C162.426 45.7597 162.461 45.9049 162.532 46.0293C162.606 46.1496 162.71 46.243 162.843 46.3093C162.975 46.3757 163.133 46.4089 163.316 46.4089C163.573 46.4089 163.803 46.3384 164.006 46.1973C164.214 46.0563 164.375 45.8406 164.492 45.5502C164.612 45.2557 164.672 44.8803 164.672 44.424H165.431C165.431 44.8554 165.377 45.2391 165.269 45.5751C165.162 45.907 165.01 46.189 164.815 46.4213C164.62 46.6495 164.392 46.8237 164.131 46.944C163.869 47.0643 163.585 47.1244 163.278 47.1244ZM164.044 44.536V43.8951H165.767V44.536H164.044ZM168.72 47V43.1111H169.604V47H168.72ZM167.407 43.2356V42.4578H170.917V43.2356H167.407ZM172.646 47.1182C172.356 47.1182 172.101 47.0684 171.881 46.9689C171.665 46.8693 171.485 46.7366 171.34 46.5707C171.199 46.4006 171.091 46.2119 171.016 46.0044C170.946 45.797 170.91 45.5855 170.91 45.3698V45.2516C170.91 45.0276 170.946 44.8119 171.016 44.6045C171.091 44.3929 171.199 44.2062 171.34 44.0445C171.485 43.8785 171.663 43.7479 171.875 43.6525C172.086 43.5529 172.331 43.5031 172.609 43.5031C172.974 43.5031 173.279 43.584 173.524 43.7458C173.773 43.9034 173.959 44.1129 174.084 44.3742C174.208 44.6314 174.27 44.9093 174.27 45.208V45.5191H171.277V44.9902H173.729L173.461 45.2516C173.461 45.0359 173.43 44.8513 173.368 44.6978C173.306 44.5443 173.21 44.4261 173.082 44.3431C172.957 44.2602 172.8 44.2187 172.609 44.2187C172.418 44.2187 172.256 44.2622 172.124 44.3493C171.991 44.4365 171.889 44.563 171.819 44.7289C171.752 44.8907 171.719 45.0856 171.719 45.3138C171.719 45.5253 171.752 45.7141 171.819 45.88C171.885 46.0418 171.987 46.1704 172.124 46.2658C172.261 46.357 172.435 46.4027 172.646 46.4027C172.858 46.4027 173.03 46.3612 173.163 46.2782C173.296 46.1911 173.381 46.0853 173.418 45.9609H174.214C174.165 46.1932 174.069 46.3964 173.928 46.5707C173.787 46.7449 173.607 46.8797 173.387 46.9751C173.171 47.0705 172.924 47.1182 172.646 47.1182ZM176.219 47.1058C175.754 47.1058 175.389 47.0083 175.124 46.8133C174.862 46.6142 174.725 46.3404 174.713 45.992H175.491C175.503 46.1082 175.567 46.2139 175.684 46.3093C175.8 46.4047 175.982 46.4524 176.231 46.4524C176.438 46.4524 176.602 46.4151 176.723 46.3404C176.847 46.2658 176.909 46.1642 176.909 46.0356C176.909 45.9236 176.862 45.8344 176.766 45.768C176.675 45.7016 176.517 45.6581 176.293 45.6373L175.995 45.6062C175.617 45.5647 175.327 45.4569 175.124 45.2827C174.92 45.1085 174.819 44.8762 174.819 44.5858C174.819 44.3535 174.877 44.1585 174.993 44.0009C175.109 43.8433 175.269 43.7251 175.472 43.6462C175.679 43.5633 175.916 43.5218 176.181 43.5218C176.596 43.5218 176.932 43.6131 177.189 43.7956C177.446 43.9781 177.581 44.2456 177.594 44.5982H176.816C176.808 44.4821 176.75 44.3825 176.642 44.2996C176.534 44.2166 176.378 44.1751 176.175 44.1751C175.993 44.1751 175.852 44.2104 175.752 44.2809C175.652 44.3514 175.603 44.4427 175.603 44.5547C175.603 44.6625 175.642 44.7455 175.721 44.8036C175.804 44.8616 175.937 44.901 176.119 44.9218L176.418 44.9529C176.816 44.9944 177.127 45.1043 177.351 45.2827C177.579 45.461 177.693 45.7016 177.693 46.0044C177.693 46.2284 177.631 46.4234 177.507 46.5893C177.386 46.7511 177.216 46.8776 176.996 46.9689C176.777 47.0601 176.517 47.1058 176.219 47.1058ZM179.876 47.0436C179.565 47.0436 179.308 47.0041 179.105 46.9253C178.906 46.8424 178.756 46.7055 178.657 46.5147C178.557 46.3197 178.507 46.0584 178.507 45.7307L178.514 42.6694H179.322L179.316 45.7867C179.316 45.9526 179.36 46.0812 179.447 46.1724C179.538 46.2596 179.667 46.3031 179.833 46.3031H180.362V47.0436H179.876ZM177.972 44.256V43.6213H180.362V44.256H177.972ZM181.249 47V43.6213H182.114V47H181.249ZM180.776 44.2685V43.6213H182.114V44.2685H180.776ZM181.567 43.2169C181.396 43.2169 181.27 43.1733 181.187 43.0862C181.108 42.995 181.069 42.883 181.069 42.7502C181.069 42.6092 181.108 42.4951 181.187 42.408C181.27 42.3209 181.396 42.2774 181.567 42.2774C181.737 42.2774 181.861 42.3209 181.94 42.408C182.019 42.4951 182.058 42.6092 182.058 42.7502C182.058 42.883 182.019 42.995 181.94 43.0862C181.861 43.1733 181.737 43.2169 181.567 43.2169ZM183.111 47V43.6213H183.795V45.0711H183.733C183.733 44.7268 183.779 44.4406 183.87 44.2125C183.961 43.9802 184.096 43.8059 184.274 43.6898C184.457 43.5736 184.683 43.5156 184.953 43.5156H184.99C185.392 43.5156 185.697 43.6462 185.905 43.9076C186.112 44.1648 186.216 44.5505 186.216 45.0649V47H185.351V44.9902C185.351 44.7828 185.291 44.6148 185.17 44.4862C185.054 44.3576 184.892 44.2933 184.685 44.2933C184.474 44.2933 184.301 44.3597 184.169 44.4925C184.04 44.621 183.976 44.7953 183.976 45.0151V47H183.111ZM188.465 48.3315C188.303 48.3315 188.137 48.3253 187.967 48.3129C187.801 48.3004 187.645 48.2838 187.5 48.2631V47.5413C187.65 47.5579 187.809 47.5724 187.979 47.5849C188.149 47.6015 188.309 47.6098 188.458 47.6098C188.736 47.6098 188.96 47.5766 189.13 47.5102C189.305 47.4438 189.431 47.3381 189.51 47.1929C189.593 47.0519 189.634 46.8714 189.634 46.6516V45.9858L189.821 45.5627C189.809 45.8738 189.744 46.1393 189.628 46.3591C189.512 46.5748 189.354 46.7407 189.155 46.8569C188.956 46.9689 188.726 47.0249 188.465 47.0249C188.232 47.0249 188.021 46.9813 187.83 46.8942C187.643 46.8071 187.482 46.6868 187.345 46.5333C187.212 46.3799 187.108 46.1994 187.034 45.992C186.959 45.7846 186.922 45.5627 186.922 45.3262V45.1956C186.922 44.9591 186.959 44.7393 187.034 44.536C187.112 44.3286 187.222 44.1482 187.363 43.9947C187.504 43.8412 187.672 43.723 187.867 43.64C188.062 43.5571 188.278 43.5156 188.514 43.5156C188.792 43.5156 189.033 43.5757 189.236 43.696C189.444 43.8163 189.605 43.9905 189.722 44.2187C189.838 44.4468 189.902 44.7268 189.914 45.0587L189.765 45.0836V43.6213H190.45V46.6018C190.45 47.0124 190.379 47.3443 190.238 47.5973C190.097 47.8504 189.879 48.035 189.585 48.1511C189.294 48.2714 188.921 48.3315 188.465 48.3315ZM188.714 46.2844C188.879 46.2844 189.031 46.2471 189.168 46.1724C189.305 46.0978 189.415 45.9899 189.498 45.8489C189.581 45.7079 189.622 45.5378 189.622 45.3387V45.1209C189.622 44.9301 189.578 44.7683 189.491 44.6356C189.408 44.5028 189.298 44.4033 189.162 44.3369C189.025 44.2664 188.875 44.2311 188.714 44.2311C188.531 44.2311 188.369 44.2747 188.228 44.3618C188.091 44.4448 187.983 44.563 187.905 44.7165C187.826 44.8699 187.786 45.0525 187.786 45.264C187.786 45.4714 187.826 45.6519 187.905 45.8053C187.983 45.9588 188.091 46.077 188.228 46.16C188.369 46.243 188.531 46.2844 188.714 46.2844Z" fill="#FFFAFA"/>
<g filter="url(#filter0_dddddd_1893_1953)">
<rect x="204" y="93" width="67" height="27" rx="5" fill="#0E3572"/>
<rect x="204.35" y="93.35" width="66.3" height="26.3" rx="4.65" stroke="#FFFAFA" stroke-width="0.7"/>
<path d="M225.682 109.025V108.204H226.622C226.858 108.204 227.067 108.168 227.25 108.098C227.437 108.023 227.594 107.919 227.723 107.787C227.851 107.654 227.949 107.498 228.015 107.32C228.086 107.137 228.121 106.936 228.121 106.716C228.121 106.488 228.086 106.285 228.015 106.107C227.949 105.924 227.851 105.769 227.723 105.64C227.594 105.511 227.437 105.414 227.25 105.348C227.067 105.281 226.858 105.248 226.622 105.248H225.682V104.427H226.566C226.976 104.427 227.335 104.487 227.642 104.607C227.949 104.727 228.204 104.893 228.407 105.105C228.611 105.312 228.762 105.551 228.862 105.82C228.965 106.086 229.017 106.362 229.017 106.648V106.785C229.017 107.059 228.965 107.328 228.862 107.594C228.762 107.859 228.611 108.1 228.407 108.316C228.204 108.531 227.949 108.703 227.642 108.832C227.335 108.961 226.976 109.025 226.566 109.025H225.682ZM224.923 109.025V104.427H225.806V109.025H224.923ZM231.252 109.118C230.961 109.118 230.706 109.068 230.487 108.969C230.271 108.869 230.09 108.737 229.945 108.571C229.804 108.401 229.696 108.212 229.622 108.004C229.551 107.797 229.516 107.585 229.516 107.37V107.252C229.516 107.028 229.551 106.812 229.622 106.604C229.696 106.393 229.804 106.206 229.945 106.044C230.09 105.879 230.269 105.748 230.48 105.652C230.692 105.553 230.937 105.503 231.215 105.503C231.58 105.503 231.884 105.584 232.129 105.746C232.378 105.903 232.565 106.113 232.689 106.374C232.814 106.631 232.876 106.909 232.876 107.208V107.519H229.883V106.99H232.335L232.067 107.252C232.067 107.036 232.036 106.851 231.974 106.698C231.911 106.544 231.816 106.426 231.687 106.343C231.563 106.26 231.405 106.219 231.215 106.219C231.024 106.219 230.862 106.262 230.729 106.349C230.596 106.436 230.495 106.563 230.424 106.729C230.358 106.891 230.325 107.086 230.325 107.314C230.325 107.525 230.358 107.714 230.424 107.88C230.491 108.042 230.592 108.17 230.729 108.266C230.866 108.357 231.04 108.403 231.252 108.403C231.463 108.403 231.636 108.361 231.768 108.278C231.901 108.191 231.986 108.085 232.023 107.961H232.82C232.77 108.193 232.675 108.396 232.534 108.571C232.393 108.745 232.212 108.88 231.992 108.975C231.777 109.071 231.53 109.118 231.252 109.118ZM233.642 109V104.458H234.507V109H233.642ZM233.219 105.105V104.458H234.507V105.105H233.219ZM235.656 109V105.621H236.521V109H235.656ZM235.183 106.268V105.621H236.521V106.268H235.183ZM235.973 105.217C235.803 105.217 235.677 105.173 235.594 105.086C235.515 104.995 235.476 104.883 235.476 104.75C235.476 104.609 235.515 104.495 235.594 104.408C235.677 104.321 235.803 104.277 235.973 104.277C236.143 104.277 236.268 104.321 236.347 104.408C236.425 104.495 236.465 104.609 236.465 104.75C236.465 104.883 236.425 104.995 236.347 105.086C236.268 105.173 236.143 105.217 235.973 105.217ZM238.196 109L237.138 105.621H238.028L239.042 109H238.196ZM238.451 109V108.291H239.366V109H238.451ZM238.793 109L239.664 105.621H240.498L239.583 109H238.793ZM242.59 109.118C242.3 109.118 242.045 109.068 241.825 108.969C241.609 108.869 241.429 108.737 241.284 108.571C241.143 108.401 241.035 108.212 240.96 108.004C240.89 107.797 240.854 107.585 240.854 107.37V107.252C240.854 107.028 240.89 106.812 240.96 106.604C241.035 106.393 241.143 106.206 241.284 106.044C241.429 105.879 241.607 105.748 241.819 105.652C242.03 105.553 242.275 105.503 242.553 105.503C242.918 105.503 243.223 105.584 243.468 105.746C243.717 105.903 243.903 106.113 244.028 106.374C244.152 106.631 244.214 106.909 244.214 107.208V107.519H241.221V106.99H243.673L243.405 107.252C243.405 107.036 243.374 106.851 243.312 106.698C243.25 106.544 243.154 106.426 243.026 106.343C242.901 106.26 242.744 106.219 242.553 106.219C242.362 106.219 242.2 106.262 242.068 106.349C241.935 106.436 241.833 106.563 241.763 106.729C241.696 106.891 241.663 107.086 241.663 107.314C241.663 107.525 241.696 107.714 241.763 107.88C241.829 108.042 241.931 108.17 242.068 108.266C242.205 108.357 242.379 108.403 242.59 108.403C242.802 108.403 242.974 108.361 243.107 108.278C243.24 108.191 243.325 108.085 243.362 107.961H244.158C244.109 108.193 244.013 108.396 243.872 108.571C243.731 108.745 243.551 108.88 243.331 108.975C243.115 109.071 242.868 109.118 242.59 109.118ZM244.937 109V105.621H245.621V107.052H245.603C245.603 106.567 245.706 106.2 245.914 105.951C246.121 105.702 246.426 105.578 246.828 105.578H246.953V106.331H246.716C246.426 106.331 246.2 106.409 246.038 106.567C245.881 106.721 245.802 106.945 245.802 107.239V109H244.937ZM247.535 110.332V109.591H248.17C248.29 109.591 248.39 109.575 248.469 109.541C248.551 109.512 248.62 109.463 248.674 109.392C248.728 109.326 248.769 109.232 248.798 109.112L249.707 105.621H250.534L249.533 109.299C249.466 109.552 249.373 109.753 249.253 109.902C249.132 110.056 248.977 110.166 248.786 110.232C248.599 110.298 248.367 110.332 248.089 110.332H247.535ZM248.587 108.925V108.241H249.309V108.925H248.587ZM248.294 108.925L247.199 105.621H248.07L249.109 108.925H248.294Z" fill="#FFFAFA"/>
</g>
<path d="M3 75H239" stroke="url(#paint1_linear_1893_1953)" stroke-dasharray="12 2"/>
<line x1="43.5" y1="73" x2="43.5" y2="58" stroke="white"/>
<line x1="171.5" y1="73" x2="171.5" y2="58" stroke="white"/>
<line x1="103.5" y1="91" x2="103.5" y2="76" stroke="white"/>
<line x1="238.5" y1="91" x2="238.5" y2="76" stroke="white"/>
<circle cx="44" cy="74" r="5" fill="#0E3572"/>
<circle cx="44" cy="74" r="4.25" stroke="white" stroke-opacity="0.5" stroke-width="1.5"/>
<circle cx="104" cy="74" r="5" fill="#0E3572"/>
<circle cx="104" cy="74" r="4.25" stroke="white" stroke-opacity="0.6" stroke-width="1.5"/>
<circle cx="171" cy="74" r="5" fill="#0E3572"/>
<circle cx="171" cy="74" r="4.25" stroke="white" stroke-opacity="0.75" stroke-width="1.5"/>
<circle cx="238" cy="74" r="4.25" fill="#0E3572" stroke="white" stroke-width="1.5"/>
<defs>
<filter id="filter0_dddddd_1893_1953" x="183.739" y="72.7392" width="107.522" height="67.5216" filterUnits="userSpaceOnUse" color-interpolation-filters="sRGB">
<feFlood flood-opacity="0" result="BackgroundImageFix"/>
<feColorMatrix in="SourceAlpha" type="matrix" values="0 0 0 0 0 0 0 0 0 0 0 0 0 0 0 0 0 0 127 0" result="hardAlpha"/>
<feOffset/>
<feGaussianBlur stdDeviation="0.2412"/>
<feColorMatrix type="matrix" values="0 0 0 0 1 0 0 0 0 0.980392 0 0 0 0 0.980392 0 0 0 1 0"/>
<feBlend mode="normal" in2="BackgroundImageFix" result="effect1_dropShadow_1893_1953"/>
<feColorMatrix in="SourceAlpha" type="matrix" values="0 0 0 0 0 0 0 0 0 0 0 0 0 0 0 0 0 0 127 0" result="hardAlpha"/>
<feOffset/>
<feGaussianBlur stdDeviation="0.4824"/>
<feColorMatrix type="matrix" values="0 0 0 0 1 0 0 0 0 0.980392 0 0 0 0 0.980392 0 0 0 1 0"/>
<feBlend mode="normal" in2="effect1_dropShadow_1893_1953" result="effect2_dropShadow_1893_1953"/>
<feColorMatrix in="SourceAlpha" type="matrix" values="0 0 0 0 0 0 0 0 0 0 0 0 0 0 0 0 0 0 127 0" result="hardAlpha"/>
<feOffset/>
<feGaussianBlur stdDeviation="1.6884"/>
<feColorMatrix type="matrix" values="0 0 0 0 1 0 0 0 0 0.980392 0 0 0 0 0.980392 0 0 0 0.6 0"/>
<feBlend mode="normal" in2="effect2_dropShadow_1893_1953" result="effect3_dropShadow_1893_1953"/>
<feColorMatrix in="SourceAlpha" type="matrix" values="0 0 0 0 0 0 0 0 0 0 0 0 0 0 0 0 0 0 127 0" result="hardAlpha"/>
<feOffset/>
<feGaussianBlur stdDeviation="3.3768"/>
<feColorMatrix type="matrix" values="0 0 0 0 1 0 0 0 0 0.980392 0 0 0 0 0.980392 0 0 0 0.1 0"/>
<feBlend mode="normal" in2="effect3_dropShadow_1893_1953" result="effect4_dropShadow_1893_1953"/>
<feColorMatrix in="SourceAlpha" type="matrix" values="0 0 0 0 0 0 0 0 0 0 0 0 0 0 0 0 0 0 127 0" result="hardAlpha"/>
<feOffset/>
<feGaussianBlur stdDeviation="5.7888"/>
<feColorMatrix type="matrix" values="0 0 0 0 1 0 0 0 0 0.980392 0 0 0 0 0.980392 0 0 0 0.2 0"/>
<feBlend mode="normal" in2="effect4_dropShadow_1893_1953" result="effect5_dropShadow_1893_1953"/>
<feColorMatrix in="SourceAlpha" type="matrix" values="0 0 0 0 0 0 0 0 0 0 0 0 0 0 0 0 0 0 127 0" result="hardAlpha"/>
<feOffset/>
<feGaussianBlur stdDeviation="10.1304"/>
<feColorMatrix type="matrix" values="0 0 0 0 1 0 0 0 0 0.980392 0 0 0 0 0.980392 0 0 0 0.3 0"/>
<feBlend mode="normal" in2="effect5_dropShadow_1893_1953" result="effect6_dropShadow_1893_1953"/>
<feBlend mode="normal" in="SourceGraphic" in2="effect6_dropShadow_1893_1953" result="shape"/>
</filter>
<linearGradient id="paint0_linear_1893_1953" x1="138" y1="0" x2="138" y2="145" gradientUnits="userSpaceOnUse">
<stop stop-color="#1A3F79"/>
<stop offset="1" stop-color="#002A6B"/>
</linearGradient>
<linearGradient id="paint1_linear_1893_1953" x1="3" y1="75.5" x2="239" y2="75.5" gradientUnits="userSpaceOnUse">
<stop stop-color="#FFFAFA" stop-opacity="0.1"/>
<stop offset="1" stop-color="#FFFAFA"/>
</linearGradient>
</defs>
</svg>
