<svg width="26" height="26" viewBox="0 0 26 26" fill="none" xmlns="http://www.w3.org/2000/svg">
<path fill-rule="evenodd" clip-rule="evenodd" d="M10.9819 2.11719H21.0476C22.6076 2.11719 23.8581 3.38004 23.8705 4.94004V14.9934C23.8705 13.4334 22.6076 12.1705 21.0476 12.1705H13.8172V4.92766C13.7924 3.36766 12.5419 2.11719 10.9819 2.11719Z" fill="#0E3572"/>
<path fill-rule="evenodd" clip-rule="evenodd" d="M23.8705 22.4341V14.9065C23.8705 13.3713 22.62 12.1208 21.0724 12.1084H13.8048C13.6686 15.9713 15.5134 17.6551 15.5134 17.6551L21.2086 23.3132C21.4562 23.536 21.7534 23.7094 22.0753 23.8208H22.4591C23.2391 23.8332 23.8705 23.2141 23.8705 22.4341Z" fill="#ED1C24"/>
<path fill-rule="evenodd" clip-rule="evenodd" d="M3.50379 2.11719H11.019C12.5543 2.11719 13.8047 3.36766 13.8171 4.91528V12.1829C9.95427 12.3191 8.28284 10.4743 8.28284 10.4743L2.62475 4.77909C2.40189 4.53147 2.22855 4.23433 2.11712 3.91243V3.52862C2.10474 2.73624 2.73617 2.11719 3.50379 2.11719Z" fill="#3EAFD1"/>
</svg>
