<svg width="457" height="336" viewBox="0 0 457 336" fill="none" xmlns="http://www.w3.org/2000/svg">
<g clip-path="url(#clip0_1418_2139)">
<rect width="457" height="335.996" rx="11.2562" fill="white"/>
<g opacity="0.5">
<mask id="mask0_1418_2139" style="mask-type:alpha" maskUnits="userSpaceOnUse" x="-267" y="-173" width="1081" height="624">
<rect width="623.065" height="623.065" transform="matrix(0.866025 0.5 -0.866025 0.5 273.429 -172.501)" fill="url(#paint0_radial_1418_2139)"/>
</mask>
<g mask="url(#mask0_1418_2139)">
<path d="M260.962 -164.711L-252.86 131.944" stroke="#B3B3B3" stroke-width="1.17252"/>
<path d="M283.445 -151.732L-230.377 144.924" stroke="#B3B3B3" stroke-width="1.17252"/>
<path d="M305.928 -138.75L-207.894 157.905" stroke="#B3B3B3" stroke-width="1.17252"/>
<path d="M328.411 -125.77L-185.411 170.886" stroke="#B3B3B3" stroke-width="1.17252"/>
<path d="M350.893 -112.79L-162.929 183.866" stroke="#B3B3B3" stroke-width="1.17252"/>
<path d="M373.378 -99.8083L-140.445 196.847" stroke="#B3B3B3" stroke-width="1.17252"/>
<path d="M395.859 -86.8276L-117.963 209.828" stroke="#B3B3B3" stroke-width="1.17252"/>
<path d="M418.342 -73.8484L-95.4807 222.807" stroke="#B3B3B3" stroke-width="1.17252"/>
<path d="M440.828 -60.8669L-72.9948 235.789" stroke="#B3B3B3" stroke-width="1.17252"/>
<path d="M463.309 -47.8865L-50.5136 248.769" stroke="#B3B3B3" stroke-width="1.17252"/>
<path d="M485.791 -34.9062L-28.031 261.749" stroke="#B3B3B3" stroke-width="1.17252"/>
<path d="M508.274 -21.9253L-5.54849 274.73" stroke="#B3B3B3" stroke-width="1.17252"/>
<path d="M530.758 -8.94458L16.9356 287.711" stroke="#B3B3B3" stroke-width="1.17252"/>
<path d="M553.241 4.03491L39.4186 300.69" stroke="#B3B3B3" stroke-width="1.17252"/>
<path d="M575.725 17.0164L61.9025 313.672" stroke="#B3B3B3" stroke-width="1.17252"/>
<path d="M598.206 29.9966L84.3837 326.652" stroke="#B3B3B3" stroke-width="1.17252"/>
<path d="M620.691 42.9763L106.868 339.632" stroke="#B3B3B3" stroke-width="1.17252"/>
<path d="M643.172 55.9575L129.349 352.613" stroke="#B3B3B3" stroke-width="1.17252"/>
<path d="M665.656 68.9385L151.834 365.594" stroke="#B3B3B3" stroke-width="1.17252"/>
<path d="M688.137 81.9182L174.315 378.574" stroke="#B3B3B3" stroke-width="1.17252"/>
<path d="M710.621 94.8994L196.799 391.555" stroke="#B3B3B3" stroke-width="1.17252"/>
<path d="M733.104 107.88L219.282 404.535" stroke="#B3B3B3" stroke-width="1.17252"/>
<path d="M755.588 120.86L241.766 417.516" stroke="#B3B3B3" stroke-width="1.17252"/>
<path d="M778.069 133.841L264.247 430.497" stroke="#B3B3B3" stroke-width="1.17252"/>
<path d="M800.553 146.821L286.731 443.477" stroke="#B3B3B3" stroke-width="1.17252"/>
<path d="M260.962 -164.711L800.553 146.822" stroke="#B3B3B3" stroke-width="1.17252"/>
<path d="M239.552 -152.351L779.143 159.182" stroke="#B3B3B3" stroke-width="1.17252"/>
<path d="M218.144 -139.99L757.734 171.543" stroke="#B3B3B3" stroke-width="1.17252"/>
<path d="M196.734 -127.629L736.324 183.903" stroke="#B3B3B3" stroke-width="1.17252"/>
<path d="M175.325 -115.269L714.915 196.264" stroke="#B3B3B3" stroke-width="1.17252"/>
<path d="M153.915 -102.908L693.505 208.624" stroke="#B3B3B3" stroke-width="1.17252"/>
<path d="M132.507 -90.5471L672.097 220.986" stroke="#B3B3B3" stroke-width="1.17252"/>
<path d="M111.097 -78.1863L650.688 233.346" stroke="#B3B3B3" stroke-width="1.17252"/>
<path d="M89.688 -65.8262L629.278 245.707" stroke="#B3B3B3" stroke-width="1.17252"/>
<path d="M68.2794 -53.4658L607.87 258.067" stroke="#B3B3B3" stroke-width="1.17252"/>
<path d="M46.8698 -41.104L586.46 270.429" stroke="#B3B3B3" stroke-width="1.17252"/>
<path d="M25.4597 -28.7446L565.05 282.788" stroke="#B3B3B3" stroke-width="1.17252"/>
<path d="M4.05151 -16.3833L543.642 295.149" stroke="#B3B3B3" stroke-width="1.17252"/>
<path d="M-17.3585 -4.02246L522.232 307.51" stroke="#B3B3B3" stroke-width="1.17252"/>
<path d="M-38.7677 8.33765L500.823 319.87" stroke="#B3B3B3" stroke-width="1.17252"/>
<path d="M-60.1758 20.6987L479.415 332.231M142.17 137.523C142.17 137.523 155.872 145.434 164.652 150.503" stroke="#B3B3B3" stroke-width="1.17252"/>
<path d="M-81.5665 33.0518L458.024 344.584" stroke="#B3B3B3" stroke-width="1.17252"/>
<path d="M-102.976 45.4114L436.615 356.944" stroke="#B3B3B3" stroke-width="1.17252"/>
<path d="M-124.386 57.7715L415.205 369.304" stroke="#B3B3B3" stroke-width="1.17252"/>
<path d="M-145.794 70.1323L393.797 381.665" stroke="#B3B3B3" stroke-width="1.17252"/>
<path d="M-167.203 82.4929L372.387 394.026" stroke="#B3B3B3" stroke-width="1.17252"/>
<path d="M-188.612 94.853L350.979 406.386" stroke="#B3B3B3" stroke-width="1.17252"/>
<path d="M-210.022 107.214L329.569 418.747" stroke="#B3B3B3" stroke-width="1.17252"/>
<path d="M-231.431 119.575L308.16 431.108" stroke="#B3B3B3" stroke-width="1.17252"/>
<path d="M-252.839 131.935L286.751 443.468" stroke="#B3B3B3" stroke-width="1.17252"/>
</g>
</g>
<path d="M139.674 111.266L177.948 133.394L156.615 145.864L118.67 123.38L139.674 111.266Z" fill="url(#paint1_linear_1418_2139)"/>
<path d="M76.2136 149.941L182.913 87.798" stroke="#0E3572" stroke-width="0.586258" stroke-dasharray="1.17 1.17"/>
<path d="M10.5527 110.076L117.252 47.9326" stroke="#0E3572" stroke-width="0.586258" stroke-dasharray="1.17 1.17"/>
<path d="M137.199 98.8117L166.032 97.2972V91.4335C159.725 87.9862 136.34 82.4936 121.942 81.7059C117.929 81.4865 114.614 82.139 112.562 82.7964" fill="url(#paint2_linear_1418_2139)"/>
<path d="M137.199 98.8117L166.032 97.2972V91.4335C159.725 87.9862 136.34 82.4936 121.942 81.7059C117.929 81.4865 114.614 82.139 112.562 82.7964L137.199 98.8117Z" stroke="#0E3572" stroke-width="0.586258" stroke-miterlimit="22.926" stroke-linecap="round" stroke-linejoin="round"/>
<mask id="path-58-inside-1_1418_2139" fill="white">
<path d="M112.562 76.9338H121.942V82.7964H112.562V76.9338Z"/>
</mask>
<path d="M112.562 76.9338H121.942V82.7964H112.562V76.9338Z" fill="#D9D9D9"/>
<path d="M112.562 76.9338H121.942V82.7964H112.562V76.9338Z" fill="url(#paint3_linear_1418_2139)"/>
<path d="M112.562 82.7964H113.148V76.9338H112.562H111.975V82.7964H112.562Z" fill="#0E3572" mask="url(#path-58-inside-1_1418_2139)"/>
<path d="M137.198 92.9492L166.032 91.4347L142.395 78.5146C134.331 74.1066 121.979 73.9174 112.561 76.9339" fill="white"/>
<path d="M137.198 92.9492L166.032 91.4347L142.395 78.5146C134.331 74.1066 121.979 73.9174 112.561 76.9339L137.198 92.9492Z" stroke="#0E3572" stroke-width="0.586258" stroke-miterlimit="22.926" stroke-linecap="round" stroke-linejoin="round"/>
<mask id="path-62-inside-2_1418_2139" fill="white">
<path fill-rule="evenodd" clip-rule="evenodd" d="M138.216 99.9141L138.374 101.648C134.099 97.7526 128.669 93.9268 122.164 90.371C120.231 89.314 118.228 88.2956 116.16 87.3181C97.8145 78.6513 76.6546 74.3961 59.9576 75.4506L59.3189 71.3578L56.3001 65.9116C54.248 67.5572 55.2653 76.0175 56.2343 81.865C56.3065 82.5103 56.4215 83.1634 56.5752 83.8233C56.6283 84.1193 56.6762 84.4031 56.7259 84.672H56.7941C59.2506 93.3546 68.5746 103.1 83.7253 111.381C93.5843 116.77 104.577 120.81 115.43 123.345C118.608 124.088 122.103 123.718 124.546 122.383L142.289 112.684C144.075 111.708 144.917 110.425 144.71 109.127L145.251 99.9141H138.216Z"/>
</mask>
<path fill-rule="evenodd" clip-rule="evenodd" d="M138.216 99.9141L138.374 101.648C134.099 97.7526 128.669 93.9268 122.164 90.371C120.231 89.314 118.228 88.2956 116.16 87.3181C97.8145 78.6513 76.6546 74.3961 59.9576 75.4506L59.3189 71.3578L56.3001 65.9116C54.248 67.5572 55.2653 76.0175 56.2343 81.865C56.3065 82.5103 56.4215 83.1634 56.5752 83.8233C56.6283 84.1193 56.6762 84.4031 56.7259 84.672H56.7941C59.2506 93.3546 68.5746 103.1 83.7253 111.381C93.5843 116.77 104.577 120.81 115.43 123.345C118.608 124.088 122.103 123.718 124.546 122.383L142.289 112.684C144.075 111.708 144.917 110.425 144.71 109.127L145.251 99.9141H138.216Z" fill="#0E3572"/>
<path fill-rule="evenodd" clip-rule="evenodd" d="M138.216 99.9141L138.374 101.648C134.099 97.7526 128.669 93.9268 122.164 90.371C120.231 89.314 118.228 88.2956 116.16 87.3181C97.8145 78.6513 76.6546 74.3961 59.9576 75.4506L59.3189 71.3578L56.3001 65.9116C54.248 67.5572 55.2653 76.0175 56.2343 81.865C56.3065 82.5103 56.4215 83.1634 56.5752 83.8233C56.6283 84.1193 56.6762 84.4031 56.7259 84.672H56.7941C59.2506 93.3546 68.5746 103.1 83.7253 111.381C93.5843 116.77 104.577 120.81 115.43 123.345C118.608 124.088 122.103 123.718 124.546 122.383L142.289 112.684C144.075 111.708 144.917 110.425 144.71 109.127L145.251 99.9141H138.216Z" fill="url(#paint4_linear_1418_2139)"/>
<path d="M138.216 99.9141L137.499 99.9359L137.459 99.4996H138.216V99.9141ZM138.374 101.648L139.091 101.626L139.235 103.207L137.767 101.87L138.374 101.648ZM122.164 90.371L121.67 90.672L121.67 90.6719L122.164 90.371ZM116.16 87.3181L116.614 86.9973L116.614 86.9973L116.16 87.3181ZM59.9576 75.4506L60.0357 75.8627L59.3082 75.9086L59.2425 75.4878L59.9576 75.4506ZM59.3189 71.3578L60.0028 71.2315L60.0269 71.275L60.034 71.3206L59.3189 71.3578ZM56.3001 65.9116L55.7174 65.6694L56.5498 65.0019L56.984 65.7852L56.3001 65.9116ZM56.2343 81.865L56.9491 81.8255L56.9501 81.8319L56.9509 81.8383L56.2343 81.865ZM56.5752 83.8233L57.2868 83.7681L57.2883 83.7743L57.2894 83.7806L56.5752 83.8233ZM56.7259 84.672V85.0865H56.0804L56.0119 84.716L56.7259 84.672ZM56.7941 84.672V84.2574H57.4043L57.5027 84.6052L56.7941 84.672ZM83.7253 111.381L83.2317 111.682L83.2317 111.682L83.7253 111.381ZM115.43 123.345L115.161 123.73L115.161 123.73L115.43 123.345ZM124.546 122.383L124.053 122.082L124.053 122.082L124.546 122.383ZM142.289 112.684L141.796 112.383L141.796 112.383L142.289 112.684ZM144.71 109.127L143.995 109.164L143.991 109.139L143.993 109.113L144.71 109.127ZM145.251 99.9141V99.4996H145.994L145.968 99.9282L145.251 99.9141ZM138.216 99.9141L138.933 99.8924L139.091 101.626L138.374 101.648L137.657 101.67L137.499 99.9359L138.216 99.9141ZM138.374 101.648L137.767 101.87C133.526 98.0046 128.134 94.2052 121.67 90.672L122.164 90.371L122.657 90.0699C129.204 93.6485 134.673 97.5006 138.98 101.426L138.374 101.648ZM122.164 90.371L121.67 90.6719C119.75 89.6219 117.76 88.6101 115.705 87.6389L116.16 87.3181L116.614 86.9973C118.696 87.9811 120.712 89.0061 122.657 90.07L122.164 90.371ZM116.16 87.3181L115.705 87.6389C97.4592 79.0191 76.4854 74.8238 60.0357 75.8627L59.9576 75.4506L59.8795 75.0385C76.8239 73.9684 98.1698 78.2835 116.614 86.9973L116.16 87.3181ZM59.9576 75.4506L59.2425 75.4878L58.6038 71.395L59.3189 71.3578L60.034 71.3206L60.6727 75.4134L59.9576 75.4506ZM59.3189 71.3578L58.6351 71.4842L55.6163 66.0379L56.3001 65.9116L56.984 65.7852L60.0028 71.2315L59.3189 71.3578ZM56.3001 65.9116L56.8828 66.1538C56.7074 66.2944 56.5255 66.5448 56.3665 66.9266C56.2107 67.3006 56.0901 67.7675 56.0028 68.3143C55.8284 69.4074 55.7929 70.7841 55.8521 72.3033C55.9705 75.3397 56.465 78.9047 56.9491 81.8255L56.2343 81.865L55.5196 81.9044C55.0346 78.9778 54.536 75.3889 54.4164 72.3219C54.3567 70.7894 54.3911 69.3769 54.5728 68.2382C54.6637 67.669 54.7926 67.1593 54.9702 66.7328C55.1446 66.3141 55.3798 65.9401 55.7174 65.6694L56.3001 65.9116ZM56.2343 81.865L56.9509 81.8383C57.0219 82.4733 57.1351 83.1168 57.2868 83.7681L56.5752 83.8233L55.8636 83.8786C55.7078 83.2099 55.5911 82.5473 55.5178 81.8917L56.2343 81.865ZM56.5752 83.8233L57.2894 83.7806C57.3433 84.0809 57.3902 84.359 57.4399 84.628L56.7259 84.672L56.0119 84.716C55.9623 84.4472 55.9133 84.1576 55.861 83.866L56.5752 83.8233ZM56.7259 84.672V84.2574H56.7941V84.672V85.0865H56.7259V84.672ZM56.7941 84.672L57.5027 84.6052C59.9286 93.1797 69.1562 102.847 84.219 111.08L83.7253 111.381L83.2317 111.682C67.9929 103.352 58.5725 93.5295 56.0855 84.7388L56.7941 84.672ZM83.7253 111.381L84.2189 111.08C94.0161 116.435 104.934 120.446 115.699 122.961L115.43 123.345L115.161 123.73C104.221 121.174 93.1526 117.105 83.2317 111.682L83.7253 111.381ZM115.43 123.345L115.699 122.961C118.623 123.644 121.818 123.303 124.053 122.082L124.546 122.383L125.04 122.684C122.387 124.134 118.593 124.531 115.161 123.73L115.43 123.345ZM124.546 122.383L124.053 122.082L141.796 112.383L142.289 112.684L142.783 112.985L125.04 122.684L124.546 122.383ZM142.289 112.684L141.796 112.383C143.43 111.49 144.18 110.33 143.995 109.164L144.71 109.127L145.425 109.089C145.653 110.52 144.721 111.926 142.783 112.985L142.289 112.684ZM144.71 109.127L143.993 109.113L144.533 99.9001L145.251 99.9141L145.968 99.9282L145.428 109.141L144.71 109.127ZM145.251 99.9141V100.329H138.216V99.9141V99.4996H145.251V99.9141Z" fill="#0E3572" mask="url(#path-62-inside-2_1418_2139)"/>
<path d="M116.16 77.9378C118.228 78.9154 120.231 79.9336 122.164 80.9906C132.022 86.3796 139.413 92.3881 144.051 98.3203C145.409 100.057 144.734 101.968 142.29 103.304L124.547 113.003C122.103 114.338 118.608 114.707 115.43 113.965C104.577 111.43 93.5852 107.39 83.7261 102.001C63.0423 90.6951 52.4533 76.2464 56.1395 65.9115C73.2549 64.0874 96.6755 68.7329 116.16 77.9378Z" fill="white" stroke="#0E3572" stroke-width="0.586258" stroke-miterlimit="22.926" stroke-linecap="round" stroke-linejoin="round"/>
<path d="M103.626 110.467L138.215 92.293" stroke="#0E3572" stroke-width="0.586258" stroke-miterlimit="22.926" stroke-linecap="round" stroke-linejoin="round"/>
<path d="M110.217 113.007L142.461 96.0056" stroke="#0E3572" stroke-width="0.586258" stroke-miterlimit="22.926" stroke-linecap="round" stroke-linejoin="round"/>
<path d="M79.6479 77.9617C84.2269 75.4432 91.651 75.4432 96.2297 77.9617C100.809 80.4802 100.809 84.5632 96.2297 87.0817C91.651 89.6 84.2269 89.6 79.6479 87.0817C75.0689 84.5632 75.0689 80.4802 79.6479 77.9617Z" stroke="#0E3572" stroke-width="0.586258" stroke-miterlimit="22.926" stroke-linecap="round" stroke-linejoin="round"/>
<path d="M78.9796 116.604L78.5586 101.868C79.1449 103.432 80.5519 107.496 81.4899 111.248C82.4279 115 96.928 123.56 104.354 127.664L103.768 137.63L97.3189 133.526C92.9265 131.33 87.8521 128.224 83.9207 125.648C80.8702 123.649 79.0838 120.25 78.9796 116.604Z" fill="url(#paint5_linear_1418_2139)" stroke="#0E3572" stroke-width="0.586258" stroke-miterlimit="22.926" stroke-linecap="round" stroke-linejoin="round"/>
<path d="M99.1881 108.972L104.565 127.592L86.9865 117.268C80.9891 113.745 77.9062 106.061 78.4954 99.099" fill="white"/>
<path d="M99.1881 108.972L104.565 127.592L86.9865 117.268C80.9891 113.745 77.9062 106.061 78.4954 99.099L99.1881 108.972Z" stroke="#0E3572" stroke-width="0.586258" stroke-miterlimit="22.926" stroke-linecap="round" stroke-linejoin="round"/>
<path fill-rule="evenodd" clip-rule="evenodd" d="M362.332 165.601L297.822 202.878L343.577 229.28L389.136 203.004L410.627 215.518L365.242 241.782L430.943 279.695L410.497 292.271L366.661 266.845L303.016 303.644L283.052 290.313L345.261 254.433L299.413 227.842L213.588 277.435L194.14 263.807L278.016 215.43L277.059 214.876L276.683 215.094L273.026 212.536L229.701 187.407L250.361 175.491L276.273 190.443L341.021 153.1L362.332 165.601Z" fill="white"/>
<path fill-rule="evenodd" clip-rule="evenodd" d="M362.332 165.601L297.822 202.878L343.577 229.28L389.136 203.004L410.627 215.518L365.242 241.782L430.943 279.695L410.497 292.271L366.661 266.845L303.016 303.644L283.052 290.313L345.261 254.433L299.413 227.842L213.588 277.435L194.14 263.807L278.016 215.43L277.059 214.876L276.683 215.094L273.026 212.536L229.701 187.407L250.361 175.491L276.273 190.443L341.021 153.1L362.332 165.601Z" fill="#0E3572" fill-opacity="0.1"/>
<path d="M238.991 179.099C240.406 179.662 254.395 187.744 274.512 199.51M415.634 282.725C401.523 274.365 383.863 263.916 365.205 252.893M274.512 199.51L348.867 157.117M274.512 199.51C281.178 203.409 288.517 207.712 296.295 212.281M346.764 242.005L398.811 211.024M346.764 242.005C329.44 231.781 311.976 221.492 296.295 212.281M346.764 242.005C352.958 245.66 359.134 249.307 365.205 252.893M296.295 212.281L222.168 255.483M365.205 252.893L313.118 283.749" stroke="#0E3572" stroke-width="1.17252" stroke-dasharray="11.73 2.35"/>
<mask id="path-73-inside-3_1418_2139" fill="white">
<path d="M225.396 260.368L234.686 260.389V265.654L229.164 268.832L214.045 277.554L193.465 265.654L193.473 265.649V260.299L202.475 260.318L213.742 253.646L225.396 260.368Z"/>
</mask>
<path d="M225.396 260.368L234.686 260.389V265.654L229.164 268.832L214.045 277.554L193.465 265.654L193.473 265.649V260.299L202.475 260.318L213.742 253.646L225.396 260.368Z" fill="white"/>
<path d="M225.396 260.368L225.22 260.673L225.301 260.72L225.395 260.72L225.396 260.368ZM234.686 260.389H235.038V260.038L234.687 260.037L234.686 260.389ZM234.686 265.654L234.861 265.959L235.038 265.858V265.654H234.686ZM229.164 268.832L228.989 268.527L228.989 268.527L229.164 268.832ZM214.045 277.554L213.869 277.858L214.045 277.96L214.221 277.858L214.045 277.554ZM193.465 265.654L193.279 265.356L192.783 265.666L193.289 265.959L193.465 265.654ZM193.473 265.649L193.659 265.948L193.825 265.844V265.649H193.473ZM193.473 260.299L193.474 259.947L193.121 259.946V260.299H193.473ZM202.475 260.318L202.474 260.67L202.571 260.67L202.654 260.621L202.475 260.318ZM213.742 253.646L213.917 253.342L213.739 253.239L213.562 253.344L213.742 253.646ZM225.396 260.368L225.395 260.72L234.685 260.74L234.686 260.389L234.687 260.037L225.397 260.016L225.396 260.368ZM234.686 260.389H234.334V265.654H234.686H235.038V260.389H234.686ZM234.686 265.654L234.51 265.349L228.989 268.527L229.164 268.832L229.34 269.137L234.861 265.959L234.686 265.654ZM229.164 268.832L228.989 268.527L213.87 277.249L214.045 277.554L214.221 277.858L229.34 269.137L229.164 268.832ZM214.045 277.554L214.221 277.249L193.641 265.35L193.465 265.654L193.289 265.959L213.869 277.858L214.045 277.554ZM193.465 265.654L193.652 265.953L193.659 265.948L193.473 265.649L193.287 265.351L193.279 265.356L193.465 265.654ZM193.473 265.649H193.825V260.299H193.473H193.121V265.649H193.473ZM193.473 260.299L193.472 260.651L202.474 260.67L202.475 260.318L202.476 259.967L193.474 259.947L193.473 260.299ZM202.475 260.318L202.654 260.621L213.921 253.949L213.742 253.646L213.562 253.344L202.296 260.016L202.475 260.318ZM213.742 253.646L213.566 253.951L225.22 260.673L225.396 260.368L225.572 260.063L213.917 253.342L213.742 253.646Z" fill="#0E3572" mask="url(#path-73-inside-3_1418_2139)"/>
<path d="M234.382 260.388L214.048 271.989L193.778 260.299L214.047 248.609L234.382 260.388Z" fill="white"/>
<path d="M234.382 260.388L214.048 271.989L193.778 260.299L214.047 248.609L234.382 260.388Z" fill="#ED1C24" fill-opacity="0.1"/>
<path d="M234.382 260.388L214.048 271.989L193.778 260.299L214.047 248.609L234.382 260.388Z" stroke="#0E3572" stroke-width="0.351755"/>
<g clip-path="url(#clip1_1418_2139)">
<path d="M205.186 257.257C202.426 258.85 202.24 261.358 204.77 262.819C206.031 263.547 207.729 263.885 209.457 263.844L209.351 265.464L214.377 262.563C217.137 260.969 217.324 258.493 214.793 257.032C212.263 255.571 207.947 255.663 205.186 257.257Z" stroke="#ED1C24" stroke-width="0.586258" stroke-miterlimit="10" stroke-linecap="round" stroke-linejoin="round"/>
<path d="M214.634 256.943C217.205 256.184 220.322 256.345 222.318 257.497C223.579 258.225 224.192 259.221 224.121 260.219L226.927 260.158L221.901 263.059C219.294 264.565 215.296 264.728 212.731 263.513" stroke="#ED1C24" stroke-width="0.586258" stroke-miterlimit="10" stroke-linecap="round" stroke-linejoin="round"/>
<path d="M205.214 260.158L210.212 257.272" stroke="#ED1C24" stroke-width="0.586258" stroke-miterlimit="10" stroke-linecap="round" stroke-linejoin="round"/>
<path d="M206.88 261.12L211.878 258.234" stroke="#ED1C24" stroke-width="0.586258" stroke-miterlimit="10" stroke-linecap="round" stroke-linejoin="round"/>
<path d="M208.546 262.082L213.544 259.196" stroke="#ED1C24" stroke-width="0.586258" stroke-miterlimit="10" stroke-linecap="round" stroke-linejoin="round"/>
</g>
<mask id="path-81-inside-4_1418_2139" fill="white">
<path d="M373.133 148.979L382.423 149V154.265L376.901 157.443L361.782 166.165L341.202 154.265L341.21 154.26V148.91L350.212 148.929L361.479 142.257L373.133 148.979Z"/>
</mask>
<path d="M373.133 148.979L382.423 149V154.265L376.901 157.443L361.782 166.165L341.202 154.265L341.21 154.26V148.91L350.212 148.929L361.479 142.257L373.133 148.979Z" fill="white"/>
<path d="M373.133 148.979L372.957 149.284L373.038 149.331L373.132 149.331L373.133 148.979ZM382.423 149H382.775V148.649L382.424 148.648L382.423 149ZM382.423 154.265L382.598 154.57L382.775 154.469V154.265H382.423ZM376.901 157.443L376.726 157.138L376.726 157.138L376.901 157.443ZM361.782 166.165L361.606 166.469L361.782 166.571L361.958 166.469L361.782 166.165ZM341.202 154.265L341.016 153.967L340.52 154.277L341.026 154.57L341.202 154.265ZM341.21 154.26L341.397 154.559L341.562 154.455V154.26H341.21ZM341.21 148.91L341.211 148.558L340.858 148.557V148.91H341.21ZM350.212 148.929L350.211 149.281L350.308 149.281L350.391 149.232L350.212 148.929ZM361.479 142.257L361.654 141.953L361.476 141.85L361.299 141.955L361.479 142.257ZM373.133 148.979L373.132 149.331L382.422 149.351L382.423 149L382.424 148.648L373.134 148.627L373.133 148.979ZM382.423 149H382.071V154.265H382.423H382.775V149H382.423ZM382.423 154.265L382.248 153.96L376.726 157.138L376.901 157.443L377.077 157.748L382.598 154.57L382.423 154.265ZM376.901 157.443L376.726 157.138L361.607 165.86L361.782 166.165L361.958 166.469L377.077 157.748L376.901 157.443ZM361.782 166.165L361.958 165.86L341.378 153.961L341.202 154.265L341.026 154.57L361.606 166.469L361.782 166.165ZM341.202 154.265L341.389 154.563L341.397 154.559L341.21 154.26L341.024 153.962L341.016 153.967L341.202 154.265ZM341.21 154.26H341.562V148.91H341.21H340.858V154.26H341.21ZM341.21 148.91L341.209 149.261L350.211 149.281L350.212 148.929L350.213 148.577L341.211 148.558L341.21 148.91ZM350.212 148.929L350.391 149.232L361.658 142.56L361.479 142.257L361.299 141.955L350.033 148.627L350.212 148.929ZM361.479 142.257L361.303 142.562L372.957 149.284L373.133 148.979L373.309 148.674L361.654 141.953L361.479 142.257Z" fill="#0E3572" mask="url(#path-81-inside-4_1418_2139)"/>
<path d="M382.119 148.998L361.785 160.6L341.515 148.91L361.784 137.219L382.119 148.998Z" fill="white"/>
<path d="M382.119 148.998L361.785 160.6L341.515 148.91L361.784 137.219L382.119 148.998Z" fill="#ED1C24" fill-opacity="0.1"/>
<path d="M382.119 148.998L361.785 160.6L341.515 148.91L361.784 137.219L382.119 148.998Z" stroke="#0E3572" stroke-width="0.351755"/>
<g clip-path="url(#clip2_1418_2139)">
<path d="M363.026 151.607C365.323 152.494 368.457 152.352 370.485 151.181C371.324 150.697 371.857 150.104 372.087 149.481L374.262 148.769L372.087 148.057C371.857 147.434 371.324 146.84 370.485 146.356C368.457 145.185 365.323 145.044 363.026 145.93" stroke="#ED1C24" stroke-width="0.586258" stroke-miterlimit="10"/>
<path d="M352.91 145.875C350.142 147.473 350.142 150.064 352.91 151.662C353.902 152.235 355.115 152.603 356.391 152.765L357.921 154.324L359.452 152.765C360.727 152.603 361.941 152.235 362.933 151.662C365.701 150.064 365.701 147.473 362.933 145.875C360.165 144.277 355.678 144.277 352.91 145.875Z" stroke="#ED1C24" stroke-width="0.586258" stroke-miterlimit="10"/>
<mask id="path-86-inside-5_1418_2139" fill="white">
<path d="M361.267 150.22L360.434 150.7L359.601 150.22L360.434 149.739L361.267 150.22Z"/>
</mask>
<path d="M361.267 150.22L362.283 149.633L363.298 150.22L362.283 150.806L361.267 150.22ZM360.434 150.7L361.45 151.287L360.434 151.873L359.419 151.287L360.434 150.7ZM359.601 150.22L358.586 150.806L357.57 150.22L358.586 149.633L359.601 150.22ZM360.434 149.739L359.419 149.152L360.434 148.566L361.45 149.152L360.434 149.739ZM361.267 150.22L362.283 150.806L361.45 151.287L360.434 150.7L359.419 150.114L360.252 149.633L361.267 150.22ZM360.434 150.7L359.419 151.287L358.586 150.806L359.601 150.22L360.617 149.633L361.45 150.114L360.434 150.7ZM359.601 150.22L358.586 149.633L359.419 149.152L360.434 149.739L361.45 150.325L360.617 150.806L359.601 150.22ZM360.434 149.739L361.45 149.152L362.283 149.633L361.267 150.22L360.252 150.806L359.419 150.325L360.434 149.739Z" fill="#ED1C24" mask="url(#path-86-inside-5_1418_2139)"/>
<path d="M355.409 148.761C354.719 148.363 354.719 147.717 355.409 147.318C356.099 146.92 357.217 146.92 357.907 147.318C358.273 147.529 358.444 147.809 358.423 148.085L358.352 149.017L359.185 149.498" stroke="#ED1C24" stroke-width="0.586258" stroke-miterlimit="10"/>
</g>
<path d="M246.228 173.392L276.714 190.979" stroke="#0E3572" stroke-width="0.586258" stroke-dasharray="1.17 1.17"/>
<path d="M233.331 187.462L279.059 214.43" stroke="#0E3572" stroke-width="0.586258" stroke-dasharray="1.17 1.17"/>
<path d="M300.164 226.155L347.065 254.295" stroke="#0E3572" stroke-width="0.586258" stroke-dasharray="1.17 1.17"/>
<path d="M365.825 264.848L391.62 280.091" stroke="#0E3572" stroke-width="0.586258" stroke-dasharray="1.17 1.17"/>
<path d="M364.653 242.57L406.863 267.193" stroke="#0E3572" stroke-width="0.586258" stroke-dasharray="1.17 1.17"/>
<path d="M296.647 203.877L342.375 230.845" stroke="#0E3572" stroke-width="0.586258" stroke-dasharray="1.17 1.17"/>
<path d="M219.261 250.778L279.059 215.602" stroke="#0E3572" stroke-width="0.586258" stroke-dasharray="1.17 1.17"/>
<path d="M306.027 278.918L347.065 254.295" stroke="#0E3572" stroke-width="0.586258" stroke-dasharray="1.17 1.17"/>
<path d="M320.097 291.816L364.653 266.021" stroke="#0E3572" stroke-width="0.586258" stroke-dasharray="1.17 1.17"/>
<path d="M236.848 262.503L298.992 226.155" stroke="#0E3572" stroke-width="0.586258" stroke-dasharray="1.17 1.17"/>
<path d="M340.03 154.631L277.886 190.778" stroke="#0E3572" stroke-width="0.586258" stroke-dasharray="1.17 1.17"/>
<path d="M358.79 166.357L296.647 202.503" stroke="#0E3572" stroke-width="0.586258" stroke-dasharray="1.17 1.17"/>
<path d="M388.103 205.05L343.547 230.845" stroke="#0E3572" stroke-width="0.586258" stroke-dasharray="1.17 1.17"/>
<path d="M408.036 215.602L363.48 241.398" stroke="#0E3572" stroke-width="0.586258" stroke-dasharray="1.17 1.17"/>
<mask id="path-103-inside-6_1418_2139" fill="white">
<path d="M313.335 287.336L322.625 287.356V292.622L317.103 295.8L301.984 304.521L281.404 292.622L281.412 292.617V287.267L290.414 287.286L301.68 280.614L313.335 287.336Z"/>
</mask>
<path d="M313.335 287.336L322.625 287.356V292.622L317.103 295.8L301.984 304.521L281.404 292.622L281.412 292.617V287.267L290.414 287.286L301.68 280.614L313.335 287.336Z" fill="white"/>
<path d="M313.335 287.336L313.159 287.641L313.24 287.687L313.334 287.688L313.335 287.336ZM322.625 287.356H322.976V287.005L322.625 287.005L322.625 287.356ZM322.625 292.622L322.8 292.927L322.976 292.825V292.622H322.625ZM317.103 295.8L316.928 295.495L316.927 295.495L317.103 295.8ZM301.984 304.521L301.808 304.826L301.984 304.928L302.16 304.826L301.984 304.521ZM281.404 292.622L281.218 292.324L280.721 292.634L281.228 292.927L281.404 292.622ZM281.412 292.617L281.598 292.915L281.763 292.812V292.617H281.412ZM281.412 287.267L281.413 286.915L281.06 286.914V287.267H281.412ZM290.414 287.286L290.413 287.638L290.51 287.638L290.593 287.589L290.414 287.286ZM301.68 280.614L301.856 280.31L301.678 280.207L301.501 280.312L301.68 280.614ZM313.335 287.336L313.334 287.688L322.624 287.708L322.625 287.356L322.625 287.005L313.335 286.984L313.335 287.336ZM322.625 287.356H322.273V292.622H322.625H322.976V287.356H322.625ZM322.625 292.622L322.449 292.317L316.928 295.495L317.103 295.8L317.279 296.105L322.8 292.927L322.625 292.622ZM317.103 295.8L316.927 295.495L301.808 304.217L301.984 304.521L302.16 304.826L317.279 296.104L317.103 295.8ZM301.984 304.521L302.16 304.217L281.58 292.318L281.404 292.622L281.228 292.927L301.808 304.826L301.984 304.521ZM281.404 292.622L281.59 292.92L281.598 292.915L281.412 292.617L281.225 292.319L281.218 292.324L281.404 292.622ZM281.412 292.617H281.763V287.267H281.412H281.06V292.617H281.412ZM281.412 287.267L281.411 287.618L290.413 287.638L290.414 287.286L290.414 286.934L281.413 286.915L281.412 287.267ZM290.414 287.286L290.593 287.589L301.86 280.917L301.68 280.614L301.501 280.312L290.234 286.983L290.414 287.286ZM301.68 280.614L301.505 280.919L313.159 287.641L313.335 287.336L313.51 287.031L301.856 280.31L301.68 280.614Z" fill="#0E3572" mask="url(#path-103-inside-6_1418_2139)"/>
<path d="M322.321 287.355L301.987 298.957L281.717 287.266L301.986 275.576L322.321 287.355Z" fill="white"/>
<path d="M322.321 287.355L301.987 298.957L281.717 287.266L301.986 275.576L322.321 287.355Z" fill="#ED1C24" fill-opacity="0.1"/>
<path d="M322.321 287.355L301.987 298.957L281.717 287.266L301.986 275.576L322.321 287.355Z" stroke="#0E3572" stroke-width="0.351755"/>
<g clip-path="url(#clip3_1418_2139)">
<path d="M303.96 281.735C301.197 281.309 298.126 281.722 295.957 282.974L301.816 286.356L309.82 285.118C309.457 284.333 308.742 283.59 307.674 282.974C306.607 282.358 305.321 281.945 303.96 281.735Z" stroke="#ED1C24" stroke-width="0.586258" stroke-miterlimit="10" stroke-linecap="round" stroke-linejoin="round"/>
<path d="M301.149 287.895L295.291 284.513C293.123 285.765 292.408 287.538 293.145 289.134C293.509 289.919 294.224 290.662 295.291 291.278C296.358 291.894 297.644 292.307 299.005 292.516C301.769 292.942 304.84 292.53 307.008 291.278C309.176 290.026 309.891 288.253 309.154 286.657L301.149 287.895Z" stroke="#ED1C24" stroke-width="0.586258" stroke-miterlimit="10" stroke-linecap="round" stroke-linejoin="round"/>
</g>
<mask id="path-108-inside-7_1418_2139" fill="white">
<path d="M423.551 275.611L432.841 275.631V280.897L427.32 284.075L412.201 292.796L391.62 280.897L391.628 280.892V275.542L400.63 275.561L411.897 268.889L423.551 275.611Z"/>
</mask>
<path d="M423.551 275.611L432.841 275.631V280.897L427.32 284.075L412.201 292.796L391.62 280.897L391.628 280.892V275.542L400.63 275.561L411.897 268.889L423.551 275.611Z" fill="white"/>
<path d="M423.551 275.611L423.375 275.916L423.457 275.962L423.55 275.963L423.551 275.611ZM432.841 275.631H433.193V275.28L432.842 275.28L432.841 275.631ZM432.841 280.897L433.017 281.202L433.193 281.1V280.897H432.841ZM427.32 284.075L427.144 283.77L427.144 283.77L427.32 284.075ZM412.201 292.796L412.024 293.101L412.2 293.203L412.376 293.101L412.201 292.796ZM391.62 280.897L391.434 280.599L390.938 280.909L391.444 281.201L391.62 280.897ZM391.628 280.892L391.815 281.19L391.98 281.087V280.892H391.628ZM391.628 275.542L391.629 275.19L391.277 275.189V275.542H391.628ZM400.63 275.561L400.629 275.913L400.726 275.913L400.809 275.864L400.63 275.561ZM411.897 268.889L412.073 268.584L411.895 268.482L411.718 268.586L411.897 268.889ZM423.551 275.611L423.55 275.963L432.84 275.983L432.841 275.631L432.842 275.28L423.552 275.259L423.551 275.611ZM432.841 275.631H432.489V280.897H432.841H433.193V275.631H432.841ZM432.841 280.897L432.666 280.592L427.144 283.77L427.32 284.075L427.495 284.38L433.017 281.202L432.841 280.897ZM427.32 284.075L427.144 283.77L412.025 292.492L412.201 292.796L412.376 293.101L427.495 284.379L427.32 284.075ZM412.201 292.796L412.377 292.492L391.797 280.592L391.62 280.897L391.444 281.201L412.024 293.101L412.201 292.796ZM391.62 280.897L391.807 281.195L391.815 281.19L391.628 280.892L391.442 280.594L391.434 280.599L391.62 280.897ZM391.628 280.892H391.98V275.542H391.628H391.277V280.892H391.628ZM391.628 275.542L391.628 275.893L400.629 275.913L400.63 275.561L400.631 275.209L391.629 275.19L391.628 275.542ZM400.63 275.561L400.809 275.864L412.076 269.192L411.897 268.889L411.718 268.586L400.451 275.258L400.63 275.561ZM411.897 268.889L411.721 269.194L423.375 275.916L423.551 275.611L423.727 275.306L412.073 268.584L411.897 268.889Z" fill="#0E3572" mask="url(#path-108-inside-7_1418_2139)"/>
<path d="M432.537 275.63L412.203 287.232L391.933 275.541L412.202 263.851L432.537 275.63Z" fill="white"/>
<path d="M432.537 275.63L412.203 287.232L391.933 275.541L412.202 263.851L432.537 275.63Z" fill="#ED1C24" fill-opacity="0.1"/>
<path d="M432.537 275.63L412.203 287.232L391.933 275.541L412.202 263.851L432.537 275.63Z" stroke="#0E3572" stroke-width="0.351755"/>
<g clip-path="url(#clip4_1418_2139)">
<path d="M399.796 274.424L411.699 267.551L423.602 274.424L411.699 281.296L399.796 274.424Z" stroke="#ED1C24" stroke-width="0.586258" stroke-miterlimit="10" stroke-linecap="round" stroke-linejoin="round"/>
<path d="M407.055 280.271L411.794 277.535L416.532 280.271L411.794 283.006L407.055 280.271Z" stroke="#ED1C24" stroke-width="0.586258" stroke-miterlimit="10" stroke-linecap="round" stroke-linejoin="round"/>
<path d="M412.268 273.978L412.268 270.148M412.268 270.148L410.073 271.415M412.268 270.148L414.463 271.415" stroke="#ED1C24" stroke-width="0.586258" stroke-miterlimit="10" stroke-linecap="round" stroke-linejoin="round"/>
</g>
<mask id="path-114-inside-8_1418_2139" fill="white">
<path d="M420.034 199.397L429.324 199.418V204.683L423.802 207.861L408.683 216.583L388.103 204.683L388.111 204.678V199.328L397.113 199.347L408.379 192.676L420.034 199.397Z"/>
</mask>
<path d="M420.034 199.397L429.324 199.418V204.683L423.802 207.861L408.683 216.583L388.103 204.683L388.111 204.678V199.328L397.113 199.347L408.379 192.676L420.034 199.397Z" fill="white"/>
<path d="M420.034 199.397L419.858 199.702L419.939 199.749L420.033 199.749L420.034 199.397ZM429.324 199.418H429.675V199.067L429.324 199.066L429.324 199.418ZM429.324 204.683L429.499 204.988L429.675 204.887V204.683H429.324ZM423.802 207.861L423.627 207.556L423.626 207.556L423.802 207.861ZM408.683 216.583L408.507 216.887L408.683 216.989L408.859 216.887L408.683 216.583ZM388.103 204.683L387.916 204.385L387.42 204.695L387.927 204.988L388.103 204.683ZM388.111 204.678L388.297 204.977L388.462 204.873V204.678H388.111ZM388.111 199.328L388.111 198.976L387.759 198.975V199.328H388.111ZM397.113 199.347L397.112 199.699L397.209 199.699L397.292 199.65L397.113 199.347ZM408.379 192.676L408.555 192.371L408.377 192.268L408.2 192.373L408.379 192.676ZM420.034 199.397L420.033 199.749L429.323 199.769L429.324 199.418L429.324 199.066L420.034 199.045L420.034 199.397ZM429.324 199.418H428.972V204.683H429.324H429.675V199.418H429.324ZM429.324 204.683L429.148 204.378L423.627 207.556L423.802 207.861L423.978 208.166L429.499 204.988L429.324 204.683ZM423.802 207.861L423.626 207.556L408.507 216.278L408.683 216.583L408.859 216.887L423.978 208.166L423.802 207.861ZM408.683 216.583L408.859 216.278L388.279 204.379L388.103 204.683L387.927 204.988L408.507 216.887L408.683 216.583ZM388.103 204.683L388.289 204.982L388.297 204.977L388.111 204.678L387.924 204.38L387.916 204.385L388.103 204.683ZM388.111 204.678H388.462V199.328H388.111H387.759V204.678H388.111ZM388.111 199.328L388.11 199.68L397.112 199.699L397.113 199.347L397.113 198.996L388.111 198.976L388.111 199.328ZM397.113 199.347L397.292 199.65L408.559 192.978L408.379 192.676L408.2 192.373L396.933 199.045L397.113 199.347ZM408.379 192.676L408.204 192.98L419.858 199.702L420.034 199.397L420.209 199.093L408.555 192.371L408.379 192.676Z" fill="#0E3572" mask="url(#path-114-inside-8_1418_2139)"/>
<path d="M429.02 199.417L408.686 211.018L388.416 199.328L408.685 187.638L429.02 199.417Z" fill="white"/>
<path d="M429.02 199.417L408.686 211.018L388.416 199.328L408.685 187.638L429.02 199.417Z" fill="#ED1C24" fill-opacity="0.1"/>
<path d="M429.02 199.417L408.686 211.018L388.416 199.328L408.685 187.638L429.02 199.417Z" stroke="#0E3572" stroke-width="0.351755"/>
<g clip-path="url(#clip5_1418_2139)">
<path d="M398.596 199.658C398.417 198.442 398.936 197.227 400.072 196.199C401.209 195.171 402.9 194.387 404.884 193.969" stroke="#ED1C24" stroke-width="0.586258" stroke-miterlimit="2.6131" stroke-linecap="round" stroke-linejoin="round"/>
<path d="M404.683 193.674L405.419 193.882L405.058 194.307M408.997 204.721C406.892 204.825 404.786 204.525 403.006 203.869C401.225 203.213 399.868 202.236 399.144 201.091" stroke="#ED1C24" stroke-width="0.586258" stroke-miterlimit="2.6131" stroke-linecap="round" stroke-linejoin="round"/>
<path d="M398.632 201.207L398.993 200.782L399.73 200.99M417.767 198.716C417.946 199.932 417.427 201.147 416.291 202.175C415.154 203.203 413.463 203.987 411.479 204.405" stroke="#ED1C24" stroke-width="0.586258" stroke-miterlimit="2.6131" stroke-linecap="round" stroke-linejoin="round"/>
<path d="M411.68 204.7L410.944 204.492L411.305 204.067M407.367 193.653C409.471 193.549 411.577 193.849 413.357 194.505C415.138 195.161 416.495 196.138 417.219 197.283" stroke="#ED1C24" stroke-width="0.586258" stroke-miterlimit="2.6131" stroke-linecap="round" stroke-linejoin="round"/>
<path d="M417.731 197.167L417.369 197.592L416.633 197.384" stroke="#ED1C24" stroke-width="0.586258" stroke-miterlimit="2.6131" stroke-linecap="round" stroke-linejoin="round"/>
<path d="M407.712 198.176L408.651 200.199M406.96 201.175L404.739 201.175L404.739 199.892M411.625 198.482L411.625 197.199L409.403 197.199" stroke="#ED1C24" stroke-width="0.586258" stroke-miterlimit="22.9256" stroke-linecap="round" stroke-linejoin="round"/>
</g>
<mask id="path-123-inside-9_1418_2139" fill="white">
<path d="M247.06 147.531L275.402 147.594V163.732L210.682 201.391L146.012 164.089L145.393 163.732L145.393 163.731V147.311L173.8 147.372L210.292 126.357L247.06 147.531Z"/>
</mask>
<path d="M247.06 147.531L275.402 147.594V163.732L210.682 201.391L146.012 164.089L145.393 163.732L145.393 163.731V147.311L173.8 147.372L210.292 126.357L247.06 147.531Z" fill="url(#paint6_linear_1418_2139)"/>
<path d="M247.06 147.531L246.713 148.133L246.873 148.225L247.058 148.225L247.06 147.531ZM275.402 147.594H276.096V146.901L275.404 146.9L275.402 147.594ZM275.402 163.732L275.751 164.332L276.096 164.131V163.732H275.402ZM210.682 201.391L210.335 201.992L210.683 202.192L211.031 201.99L210.682 201.391ZM146.012 164.089L146.358 163.488L146.358 163.488L146.012 164.089ZM145.393 163.732L144.902 163.242L144.262 163.882L145.046 164.334L145.393 163.732ZM145.393 163.731L145.884 164.222L146.087 164.019V163.731H145.393ZM145.393 147.311L145.395 146.617L144.7 146.615V147.311H145.393ZM173.8 147.372L173.798 148.066L173.985 148.066L174.146 147.973L173.8 147.372ZM210.292 126.357L210.638 125.756L210.292 125.557L209.946 125.756L210.292 126.357ZM247.06 147.531L247.058 148.225L275.401 148.288L275.402 147.594L275.404 146.9L247.061 146.837L247.06 147.531ZM275.402 147.594H274.708V163.732H275.402H276.096V147.594H275.402ZM275.402 163.732L275.053 163.133L210.333 200.791L210.682 201.391L211.031 201.99L275.751 164.332L275.402 163.732ZM210.682 201.391L211.028 200.79L146.358 163.488L146.012 164.089L145.665 164.69L210.335 201.992L210.682 201.391ZM146.012 164.089L146.358 163.488L145.739 163.131L145.393 163.732L145.046 164.334L145.665 164.69L146.012 164.089ZM145.393 163.732L145.883 164.223L145.884 164.222L145.393 163.731L144.903 163.241L144.902 163.242L145.393 163.732ZM145.393 163.731H146.087V147.311H145.393H144.7V163.731H145.393ZM145.393 147.311L145.392 148.004L173.798 148.066L173.8 147.372L173.801 146.678L145.395 146.617L145.393 147.311ZM173.8 147.372L174.146 147.973L210.638 126.959L210.292 126.357L209.946 125.756L173.453 146.771L173.8 147.372ZM210.292 126.357L209.946 126.959L246.713 148.133L247.06 147.531L247.406 146.93L210.638 125.756L210.292 126.357Z" fill="#0E3572" mask="url(#path-123-inside-9_1418_2139)"/>
<path d="M274.702 147.591L210.293 184.285L146.089 147.311L210.291 110.337L274.702 147.591Z" fill="#0E3572" stroke="#0E3572" stroke-width="0.804162"/>
<path d="M183.825 160.068L176.184 155.837L177.564 155.039L183.975 158.589L187.214 156.718L188.445 157.4L183.825 160.068ZM191.025 156.049C190.639 156.272 190.239 156.43 189.825 156.522C189.411 156.614 189.006 156.639 188.611 156.596C188.209 156.55 187.847 156.438 187.526 156.26C187.218 156.089 187.012 155.899 186.908 155.688C186.798 155.474 186.802 155.239 186.923 154.984C187.043 154.729 187.285 154.457 187.65 154.169L189.16 152.96L190.186 153.528L188.899 154.573C188.683 154.752 188.572 154.913 188.566 155.055C188.561 155.198 188.657 155.324 188.856 155.434C189.047 155.54 189.272 155.584 189.53 155.566C189.789 155.541 190.026 155.466 190.243 155.34C190.52 155.18 190.706 155.007 190.799 154.822C190.893 154.628 190.891 154.44 190.794 154.256C190.704 154.068 190.533 153.904 190.28 153.764L188.843 152.969C188.604 152.836 188.311 152.781 187.964 152.804C187.617 152.818 187.292 152.914 186.987 153.09C186.703 153.254 186.528 153.444 186.461 153.66C186.395 153.868 186.438 154.072 186.589 154.271L184.97 154.603C184.784 154.378 184.7 154.14 184.718 153.889C184.736 153.631 184.843 153.376 185.038 153.124C185.233 152.873 185.517 152.639 185.889 152.424C186.342 152.162 186.827 151.979 187.343 151.874C187.853 151.766 188.353 151.74 188.843 151.797C189.333 151.846 189.777 151.981 190.174 152.201L193.887 154.257L192.628 154.984L191.674 154.456L191.938 154.28C192.035 154.495 192.067 154.704 192.035 154.909C191.996 155.109 191.896 155.306 191.734 155.5C191.566 155.69 191.329 155.873 191.025 156.049ZM197.209 152.477C196.782 152.723 196.314 152.886 195.805 152.963C195.302 153.037 194.795 153.028 194.284 152.937C193.779 152.841 193.298 152.666 192.84 152.413L189.424 150.521L190.754 149.753L194.057 151.582C194.29 151.711 194.539 151.799 194.805 151.847C195.07 151.887 195.339 151.886 195.611 151.845C195.883 151.796 196.127 151.71 196.343 151.584C196.56 151.459 196.705 151.321 196.779 151.171C196.845 151.016 196.837 150.862 196.754 150.709C196.671 150.556 196.506 150.411 196.26 150.275L192.988 148.463L194.318 147.694L199.898 150.785L198.639 151.512L197.542 150.904L197.848 150.947C198.062 151.211 198.105 151.476 197.978 151.743C197.858 152.006 197.601 152.25 197.209 152.477ZM201.135 150.07L195.554 146.98L196.803 146.259L197.901 146.867L197.604 146.817C197.398 146.558 197.355 146.296 197.475 146.034C197.595 145.763 197.851 145.514 198.244 145.288C198.65 145.053 199.098 144.895 199.587 144.814C200.083 144.728 200.579 144.724 201.077 144.8C201.567 144.873 202.021 145.025 202.438 145.256L206.028 147.244L204.698 148.012L201.426 146.2C201.18 146.064 200.921 145.974 200.648 145.93C200.375 145.886 200.107 145.887 199.842 145.931C199.577 145.968 199.333 146.051 199.109 146.18C198.893 146.306 198.751 146.445 198.684 146.6C198.611 146.751 198.616 146.903 198.699 147.056C198.782 147.209 198.946 147.354 199.192 147.49L202.465 149.302L201.135 150.07ZM209.936 145.126C209.388 145.442 208.767 145.658 208.074 145.772C207.381 145.878 206.691 145.882 206.003 145.785C205.308 145.683 204.683 145.479 204.129 145.172C203.575 144.866 203.205 144.519 203.018 144.132C202.831 143.745 202.827 143.356 203.007 142.966C203.194 142.571 203.562 142.216 204.11 141.899C204.503 141.672 204.94 141.501 205.422 141.385C205.897 141.265 206.38 141.203 206.87 141.199C207.359 141.187 207.826 141.242 208.269 141.365L207.615 142.324C207.233 142.227 206.834 142.202 206.42 142.248C206.012 142.29 205.652 142.401 205.341 142.581C205.05 142.749 204.861 142.939 204.775 143.152C204.695 143.36 204.717 143.572 204.841 143.786C204.966 144.001 205.192 144.199 205.52 144.38C205.849 144.562 206.204 144.686 206.585 144.752C206.967 144.818 207.341 144.826 207.708 144.776C208.082 144.723 208.414 144.612 208.705 144.444C209.023 144.26 209.216 144.053 209.281 143.821C209.347 143.59 209.288 143.365 209.102 143.147L210.803 142.768C211.009 143.005 211.117 143.264 211.126 143.545C211.129 143.822 211.033 144.098 210.838 144.373C210.636 144.644 210.336 144.895 209.936 145.126ZM213.33 143.026L205.565 138.726L206.895 137.958L210.178 139.775L209.8 139.773C209.594 139.513 209.55 139.252 209.671 138.989C209.791 138.719 210.047 138.47 210.439 138.243C210.846 138.009 211.293 137.851 211.782 137.769C212.278 137.684 212.775 137.68 213.272 137.756C213.763 137.828 214.217 137.98 214.634 138.211L218.224 140.199L216.894 140.967L213.622 139.155C213.376 139.019 213.116 138.929 212.844 138.885C212.571 138.842 212.302 138.842 212.037 138.887C211.772 138.924 211.528 139.007 211.305 139.136C211.088 139.261 210.947 139.401 210.88 139.556C210.806 139.706 210.811 139.858 210.894 140.011C210.977 140.165 211.142 140.309 211.388 140.446L214.66 142.258L213.33 143.026ZM219.349 139.55L213.769 136.46L215.099 135.691L220.679 138.781L219.349 139.55ZM213.143 136.113L211.707 135.318L213.037 134.55L214.473 135.345L213.143 136.113ZM221.907 138.072L216.327 134.982L217.576 134.261L218.673 134.868L218.377 134.819C218.17 134.559 218.127 134.298 218.247 134.035C218.367 133.765 218.623 133.516 219.016 133.289C219.422 133.055 219.87 132.897 220.359 132.815C220.855 132.73 221.352 132.726 221.849 132.802C222.34 132.874 222.793 133.026 223.21 133.257L226.801 135.245L225.471 136.013L222.198 134.202C221.952 134.065 221.693 133.975 221.42 133.931C221.148 133.888 220.879 133.888 220.614 133.933C220.349 133.97 220.105 134.053 219.881 134.182C219.665 134.307 219.523 134.447 219.457 134.602C219.383 134.752 219.388 134.904 219.471 135.057C219.554 135.211 219.719 135.355 219.965 135.492L223.237 137.304L221.907 138.072ZM232.862 134.297C232.449 134.535 231.999 134.718 231.51 134.846C231.021 134.974 230.525 135.044 230.022 135.056C229.532 135.068 229.065 135.016 228.622 134.901L229.389 133.924C229.73 134.021 230.098 134.045 230.492 133.995C230.9 133.945 231.279 133.819 231.631 133.615C231.902 133.459 232.088 133.294 232.188 133.12C232.296 132.942 232.308 132.764 232.224 132.588C232.148 132.416 231.973 132.254 231.699 132.102L230.428 131.398L230.989 131.422C231.135 131.717 231.134 132.003 230.987 132.282C230.839 132.56 230.563 132.817 230.157 133.051C229.642 133.349 229.062 133.548 228.417 133.65C227.771 133.752 227.125 133.754 226.478 133.656C225.83 133.558 225.247 133.365 224.727 133.077C224.201 132.786 223.847 132.46 223.667 132.1C223.487 131.74 223.48 131.38 223.647 131.02C223.807 130.657 224.141 130.329 224.649 130.036C225.062 129.797 225.513 129.637 226.002 129.556C226.491 129.467 227.004 129.453 227.543 129.513L227.698 129.806L226.467 129.125L227.726 128.397L233.029 131.334C233.515 131.603 233.831 131.912 233.977 132.261C234.13 132.606 234.112 132.956 233.925 133.312C233.745 133.664 233.39 133.992 232.862 134.297ZM229.078 132.27C229.362 132.106 229.548 131.929 229.635 131.74C229.721 131.543 229.713 131.347 229.609 131.151C229.505 130.956 229.306 130.777 229.012 130.614C228.725 130.455 228.404 130.35 228.05 130.299C227.695 130.241 227.345 130.238 226.998 130.292C226.659 130.341 226.35 130.446 226.073 130.606C225.795 130.766 225.61 130.947 225.516 131.148C225.423 131.349 225.428 131.551 225.532 131.754C225.636 131.949 225.831 132.126 226.118 132.285C226.406 132.444 226.723 132.551 227.07 132.606C227.425 132.657 227.775 132.655 228.122 132.602C228.475 132.545 228.794 132.434 229.078 132.27ZM211.002 159.217L203.361 154.985L204.68 154.223L211.401 154.739L210.771 155.103L209.656 151.349L210.975 150.587L218.617 154.818L217.226 155.622L211.174 152.271L211.846 152.034L212.84 155.835L212.677 155.929L206.008 155.406L206.331 155.068L212.383 158.419L211.002 159.217ZM222.085 152.815L211.804 150.108L213.306 149.24L221.706 151.549L221.412 151.719L217.154 147.018L218.657 146.15L223.669 151.9L222.085 152.815ZM227.144 149.893L219.502 145.661L222.325 144.031C222.839 143.734 223.389 143.525 223.973 143.404C224.557 143.276 225.142 143.247 225.727 143.319C226.306 143.387 226.852 143.563 227.365 143.847C227.871 144.127 228.19 144.434 228.323 144.768C228.455 145.094 228.42 145.423 228.219 145.756C228.018 146.089 227.66 146.404 227.146 146.701L225.704 147.533L228.525 149.095L227.144 149.893ZM224.473 146.852L225.935 146.007C226.186 145.863 226.355 145.711 226.442 145.552C226.522 145.39 226.524 145.23 226.447 145.073C226.371 144.916 226.217 144.773 225.984 144.644C225.745 144.512 225.489 144.428 225.217 144.392C224.937 144.352 224.658 144.358 224.38 144.411C224.095 144.459 223.827 144.556 223.576 144.701L222.114 145.545L224.473 146.852Z" fill="#FFFAFA"/>
</g>
<defs>
<radialGradient id="paint0_radial_1418_2139" cx="0" cy="0" r="1" gradientUnits="userSpaceOnUse" gradientTransform="translate(323.695 360.453) rotate(90) scale(332.375 332.375)">
<stop stop-color="#D9D9D9"/>
<stop offset="0.890272" stop-color="#D9D9D9" stop-opacity="0"/>
</radialGradient>
<linearGradient id="paint1_linear_1418_2139" x1="128.912" y1="117.473" x2="148.115" y2="150.767" gradientUnits="userSpaceOnUse">
<stop stop-color="#F9B0B2"/>
<stop offset="1" stop-color="white"/>
</linearGradient>
<linearGradient id="paint2_linear_1418_2139" x1="152.427" y1="81.624" x2="152.496" y2="108.536" gradientUnits="userSpaceOnUse">
<stop stop-color="white"/>
<stop offset="1" stop-color="#3EAFD1"/>
</linearGradient>
<linearGradient id="paint3_linear_1418_2139" x1="119.468" y1="78.459" x2="156.749" y2="90.3444" gradientUnits="userSpaceOnUse">
<stop stop-color="white"/>
<stop offset="1" stop-color="#3EAFD1"/>
</linearGradient>
<linearGradient id="paint4_linear_1418_2139" x1="121.8" y1="81.1545" x2="110.661" y2="143.298" gradientUnits="userSpaceOnUse">
<stop stop-color="white"/>
<stop offset="1" stop-color="#3EAFD1"/>
</linearGradient>
<linearGradient id="paint5_linear_1418_2139" x1="98.2278" y1="101.786" x2="98.8577" y2="158.82" gradientUnits="userSpaceOnUse">
<stop stop-color="white"/>
<stop offset="1" stop-color="#3EAFD1"/>
</linearGradient>
<linearGradient id="paint6_linear_1418_2139" x1="210.397" y1="126.357" x2="210.397" y2="201.391" gradientUnits="userSpaceOnUse">
<stop stop-color="white"/>
<stop offset="1" stop-color="#3EAFD1"/>
</linearGradient>
<clipPath id="clip0_1418_2139">
<rect width="457" height="335.996" rx="11.2562" fill="white"/>
</clipPath>
<clipPath id="clip1_1418_2139">
<rect width="16.4152" height="16.4152" fill="white" transform="matrix(0.866025 -0.5 0.866025 0.5 199.328 260.158)"/>
</clipPath>
<clipPath id="clip2_1418_2139">
<rect width="16.4152" height="16.4152" fill="white" transform="matrix(0.866025 -0.5 0.866025 0.5 347.065 148.769)"/>
</clipPath>
<clipPath id="clip3_1418_2139">
<rect width="16.4152" height="16.4152" fill="white" transform="matrix(0.866025 -0.5 0.866025 0.5 287.267 287.126)"/>
</clipPath>
<clipPath id="clip4_1418_2139">
<rect width="16.4152" height="16.4152" fill="white" transform="matrix(0.866025 -0.5 0.866025 0.5 397.483 275.401)"/>
</clipPath>
<clipPath id="clip5_1418_2139">
<rect width="16.4152" height="16.4152" fill="white" transform="matrix(0.866025 -0.5 0.866025 0.5 393.966 199.187)"/>
</clipPath>
</defs>
</svg>
