<svg width="326" height="240" viewBox="0 0 326 240" fill="none" xmlns="http://www.w3.org/2000/svg">
<g clip-path="url(#clip0_1719_12476)">
<g opacity="0.5">
<mask id="mask0_1719_12476" style="mask-type:alpha" maskUnits="userSpaceOnUse" x="-229" y="-116" width="771" height="445">
<rect width="444.394" height="444.394" transform="matrix(0.866025 0.5 -0.866025 0.5 156.834 -115.829)" fill="url(#paint0_radial_1719_12476)"/>
<rect y="0.500061" width="443.394" height="443.394" transform="matrix(0.866025 0.5 -0.866025 0.5 157.267 -115.579)" stroke="#B3B3B3" stroke-opacity="0.3" stroke-width="1.00012"/>
</mask>
<g mask="url(#mask0_1719_12476)">
<path d="M147.943 -110.273L-218.534 101.313" stroke="#B3B3B3" stroke-opacity="0.3" stroke-width="1.00012"/>
<path d="M163.979 -101.015L-202.498 110.571" stroke="#B3B3B3" stroke-opacity="0.3" stroke-width="1.00012"/>
<path d="M180.015 -91.7563L-186.463 119.83" stroke="#B3B3B3" stroke-opacity="0.3" stroke-width="1.00012"/>
<path d="M196.05 -82.498L-170.427 129.088" stroke="#B3B3B3" stroke-opacity="0.3" stroke-width="1.00012"/>
<path d="M212.085 -73.24L-154.392 138.346" stroke="#B3B3B3" stroke-opacity="0.3" stroke-width="1.00012"/>
<path d="M228.122 -63.9812L-138.356 147.605" stroke="#B3B3B3" stroke-opacity="0.3" stroke-width="1.00012"/>
<path d="M244.157 -54.7229L-122.321 156.863" stroke="#B3B3B3" stroke-opacity="0.3" stroke-width="1.00012"/>
<path d="M260.192 -45.4658L-106.285 166.12" stroke="#B3B3B3" stroke-opacity="0.3" stroke-width="1.00012"/>
<path d="M276.23 -36.2068L-90.2472 175.379" stroke="#B3B3B3" stroke-opacity="0.3" stroke-width="1.00012"/>
<path d="M292.264 -26.949L-74.2135 184.637" stroke="#B3B3B3" stroke-opacity="0.3" stroke-width="1.00012"/>
<path d="M308.3 -17.6907L-58.1779 193.895" stroke="#B3B3B3" stroke-opacity="0.3" stroke-width="1.00012"/>
<path d="M324.335 -8.43188L-42.1427 203.154" stroke="#B3B3B3" stroke-opacity="0.3" stroke-width="1.00012"/>
<path d="M340.372 0.825928L-26.1061 212.412" stroke="#B3B3B3" stroke-opacity="0.3" stroke-width="1.00012"/>
<path d="M356.407 10.0837L-10.0704 221.67" stroke="#B3B3B3" stroke-opacity="0.3" stroke-width="1.00012"/>
<path d="M372.444 19.3425L5.96667 230.929" stroke="#B3B3B3" stroke-opacity="0.3" stroke-width="1.00012"/>
<path d="M388.479 28.6006L22.0009 240.187" stroke="#B3B3B3" stroke-opacity="0.3" stroke-width="1.00012"/>
<path d="M404.516 37.8582L38.038 249.444" stroke="#B3B3B3" stroke-opacity="0.3" stroke-width="1.00012"/>
<path d="M420.549 47.1167L54.0717 258.703" stroke="#B3B3B3" stroke-opacity="0.3" stroke-width="1.00012"/>
<path d="M436.586 56.3752L70.1083 267.961" stroke="#B3B3B3" stroke-opacity="0.3" stroke-width="1.00012"/>
<path d="M452.621 65.6331L86.143 277.219" stroke="#B3B3B3" stroke-opacity="0.3" stroke-width="1.00012"/>
<path d="M468.657 74.8916L102.18 286.478" stroke="#B3B3B3" stroke-opacity="0.3" stroke-width="1.00012"/>
<path d="M484.693 84.1499L118.215 295.736" stroke="#B3B3B3" stroke-opacity="0.3" stroke-width="1.00012"/>
<path d="M500.729 93.4082L134.252 304.994" stroke="#B3B3B3" stroke-opacity="0.3" stroke-width="1.00012"/>
<path d="M516.764 102.667L150.287 314.252" stroke="#B3B3B3" stroke-opacity="0.3" stroke-width="1.00012"/>
<path d="M532.8 111.924L166.322 323.51" stroke="#B3B3B3" stroke-opacity="0.3" stroke-width="1.00012"/>
<path d="M147.943 -110.273L532.8 111.924" stroke="#B3B3B3" stroke-opacity="0.3" stroke-width="1.00012"/>
<path d="M132.673 -101.456L517.529 120.741" stroke="#B3B3B3" stroke-opacity="0.3" stroke-width="1.00012"/>
<path d="M117.403 -92.6406L502.26 129.556" stroke="#B3B3B3" stroke-opacity="0.3" stroke-width="1.00012"/>
<path d="M102.133 -83.8245L486.989 138.372" stroke="#B3B3B3" stroke-opacity="0.3" stroke-width="1.00012"/>
<path d="M86.8638 -75.0083L471.72 147.189" stroke="#B3B3B3" stroke-opacity="0.3" stroke-width="1.00012"/>
<path d="M71.5933 -66.1924L456.45 156.005" stroke="#B3B3B3" stroke-opacity="0.3" stroke-width="1.00012"/>
<path d="M56.3237 -57.3757L441.18 164.821" stroke="#B3B3B3" stroke-opacity="0.3" stroke-width="1.00012"/>
<path d="M41.0537 -48.5601L425.91 173.637" stroke="#B3B3B3" stroke-opacity="0.3" stroke-width="1.00012"/>
<path d="M25.7842 -39.7444L410.641 182.453" stroke="#B3B3B3" stroke-opacity="0.3" stroke-width="1.00012"/>
<path d="M10.5142 -30.9282L395.371 191.269" stroke="#B3B3B3" stroke-opacity="0.3" stroke-width="1.00012"/>
<path d="M-4.75586 -22.1111L380.101 200.086" stroke="#B3B3B3" stroke-opacity="0.3" stroke-width="1.00012"/>
<path d="M-20.0259 -13.2961L364.831 208.901" stroke="#B3B3B3" stroke-opacity="0.3" stroke-width="1.00012"/>
<path d="M-35.2949 -4.47949L349.561 217.717" stroke="#B3B3B3" stroke-opacity="0.3" stroke-width="1.00012"/>
<path d="M-50.5654 4.33667L334.291 226.534" stroke="#B3B3B3" stroke-opacity="0.3" stroke-width="1.00012"/>
<path d="M-65.8354 13.1523L319.021 235.349" stroke="#B3B3B3" stroke-opacity="0.3" stroke-width="1.00012"/>
<path d="M-81.1045 21.9688L303.752 244.166M63.2163 105.292C63.2163 105.292 72.9893 110.935 79.2515 114.55" stroke="#B3B3B3" stroke-opacity="0.3" stroke-width="1.00012"/>
<path d="M-96.3613 30.7798L288.495 252.977" stroke="#B3B3B3" stroke-opacity="0.3" stroke-width="1.00012"/>
<path d="M-111.631 39.5947L273.226 261.792" stroke="#B3B3B3" stroke-opacity="0.3" stroke-width="1.00012"/>
<path d="M-126.901 48.4104L257.955 270.607" stroke="#B3B3B3" stroke-opacity="0.3" stroke-width="1.00012"/>
<path d="M-142.171 57.2268L242.685 279.424" stroke="#B3B3B3" stroke-opacity="0.3" stroke-width="1.00012"/>
<path d="M-157.44 66.043L227.416 288.24" stroke="#B3B3B3" stroke-opacity="0.3" stroke-width="1.00012"/>
<path d="M-172.71 74.8586L212.146 297.056" stroke="#B3B3B3" stroke-opacity="0.3" stroke-width="1.00012"/>
<path d="M-187.98 83.6746L196.876 305.871" stroke="#B3B3B3" stroke-opacity="0.3" stroke-width="1.00012"/>
<path d="M-203.25 92.4915L181.606 314.688" stroke="#B3B3B3" stroke-opacity="0.3" stroke-width="1.00012"/>
<path d="M-218.52 101.307L166.337 323.504" stroke="#B3B3B3" stroke-opacity="0.3" stroke-width="1.00012"/>
</g>
</g>
<path d="M23.1362 104.894L184.673 196.498" stroke="#0E3572" stroke-width="0.57335" stroke-dasharray="1.15 1.15"/>
<line y1="-0.286675" x2="214.615" y2="-0.286675" transform="matrix(0.869867 0.493285 -0.494275 0.869306 109.214 45.5129)" stroke="#0E3572" stroke-width="0.57335" stroke-dasharray="1.15 1.15"/>
<line y1="-0.286675" x2="220.564" y2="-0.286675" transform="matrix(-0.866312 0.499503 -0.500497 -0.865738 311.895 100.146)" stroke="#0E3572" stroke-width="0.57335" stroke-dasharray="1.15 1.15"/>
<line y1="-0.286675" x2="220.564" y2="-0.286675" transform="matrix(-0.866312 0.499503 -0.500497 -0.865738 232.324 38.8909)" stroke="#0E3572" stroke-width="0.57335" stroke-dasharray="1.15 1.15"/>
<mask id="path-58-inside-1_1719_12476" fill="white">
<path d="M290.888 57.261L303.758 57.2893V64.635L274.371 81.7737L244.728 64.635V57.1604L257.628 57.1877L274.195 47.6252L290.888 57.261Z"/>
</mask>
<path d="M290.888 57.261L303.758 57.2893V64.635L274.371 81.7737L244.728 64.635V57.1604L257.628 57.1877L274.195 47.6252L290.888 57.261Z" fill="white"/>
<path d="M290.888 57.261L290.773 57.4596L290.826 57.4902L290.887 57.4903L290.888 57.261ZM303.758 57.2893H303.987V57.0605L303.758 57.06L303.758 57.2893ZM303.758 64.635L303.873 64.8331L303.987 64.7668V64.635H303.758ZM274.371 81.7737L274.256 81.9722L274.372 82.0389L274.487 81.9718L274.371 81.7737ZM244.728 64.635H244.498V64.7673L244.613 64.8336L244.728 64.635ZM244.728 57.1604L244.728 56.9311L244.498 56.9306V57.1604H244.728ZM257.628 57.1877L257.627 57.4171L257.689 57.4172L257.743 57.3864L257.628 57.1877ZM274.195 47.6252L274.31 47.4266L274.195 47.3604L274.081 47.4266L274.195 47.6252ZM290.888 57.261L290.887 57.4903L303.757 57.5186L303.758 57.2893L303.758 57.06L290.888 57.0316L290.888 57.261ZM303.758 57.2893H303.528V64.635H303.758H303.987V57.2893H303.758ZM303.758 64.635L303.642 64.4369L274.256 81.5756L274.371 81.7737L274.487 81.9718L303.873 64.8331L303.758 64.635ZM274.371 81.7737L274.486 81.5751L244.842 64.4365L244.728 64.635L244.613 64.8336L274.256 81.9722L274.371 81.7737ZM244.728 64.635H244.957V57.1604H244.728H244.498V64.635H244.728ZM244.728 57.1604L244.727 57.3897L257.627 57.4171L257.628 57.1877L257.628 56.9584L244.728 56.9311L244.728 57.1604ZM257.628 57.1877L257.743 57.3864L274.31 47.8239L274.195 47.6252L274.081 47.4266L257.513 56.9891L257.628 57.1877ZM274.195 47.6252L274.081 47.8239L290.773 57.4596L290.888 57.261L291.002 57.0624L274.31 47.4266L274.195 47.6252Z" fill="#0E3572" mask="url(#path-58-inside-1_1719_12476)"/>
<path d="M274.197 40.1511L303.76 57.2898L274.197 74.1707L244.73 57.1609L274.197 40.1511Z" fill="white"/>
<path d="M274.197 40.1511L303.76 57.2898L274.197 74.1707L244.73 57.1609L274.197 40.1511Z" fill="#ED1C24" fill-opacity="0.1"/>
<path d="M303.183 57.2884L274.199 73.8398L245.305 57.1609L274.197 40.4831L303.183 57.2884Z" stroke="white" stroke-opacity="0.2" stroke-width="0.664517"/>
<path d="M271.673 63.1342L264.274 58.8634L265.248 58.3016L271.753 62.0564L275 60.1819L275.894 60.6978L271.673 63.1342ZM276.988 60.0663L269.589 55.7955L270.562 55.2337L277.067 58.9886L280.315 57.114L281.209 57.63L276.988 60.0663ZM282.302 56.9985L274.904 52.7277L275.798 52.2118L282.511 52.8882L282.054 53.1519L280.862 49.2881L281.756 48.7722L289.155 53.043L288.172 53.6105L282.005 50.0506L282.461 49.913L283.584 53.7366L283.504 53.7825L276.91 53.1175L277.109 52.8768L283.276 56.4367L282.302 56.9985Z" fill="#ED1C24"/>
<mask id="path-63-inside-2_1719_12476" fill="white">
<path d="M100.002 176.767L116.382 176.803V186.153L78.98 207.97L42.4849 186.868L41.2466 186.153L41.2485 186.151V176.639L57.6636 176.674L78.7534 164.5L100.002 176.767Z"/>
</mask>
<path d="M100.002 176.767L116.382 176.803V186.153L78.98 207.97L42.4849 186.868L41.2466 186.153L41.2485 186.151V176.639L57.6636 176.674L78.7534 164.5L100.002 176.767Z" fill="white"/>
<path d="M100.002 176.767L99.8878 176.966L99.9408 176.996L100.002 176.996L100.002 176.767ZM116.382 176.803H116.612V176.574L116.383 176.574L116.382 176.803ZM116.382 186.153L116.498 186.351L116.612 186.285V186.153H116.382ZM78.98 207.97L78.8652 208.169L78.9805 208.235L79.0955 208.168L78.98 207.97ZM42.4849 186.868L42.5997 186.669L42.5995 186.669L42.4849 186.868ZM41.2466 186.153L41.0844 185.991L40.8731 186.202L41.1319 186.351L41.2466 186.153ZM41.2485 186.151L41.4107 186.313L41.4779 186.246V186.151H41.2485ZM41.2485 176.639L41.249 176.41L41.0192 176.409V176.639H41.2485ZM57.6636 176.674L57.6631 176.904L57.7248 176.904L57.7782 176.873L57.6636 176.674ZM78.7534 164.5L78.8681 164.301L78.7534 164.235L78.6388 164.301L78.7534 164.5ZM100.002 176.767L100.002 176.996L116.382 177.033L116.382 176.803L116.383 176.574L100.003 176.538L100.002 176.767ZM116.382 176.803H116.153V186.153H116.382H116.612V176.803H116.382ZM116.382 186.153L116.267 185.955L78.8644 207.772L78.98 207.97L79.0955 208.168L116.498 186.351L116.382 186.153ZM78.98 207.97L79.0948 207.772L42.5997 186.669L42.4849 186.868L42.3701 187.066L78.8652 208.169L78.98 207.97ZM42.4849 186.868L42.5995 186.669L41.3612 185.954L41.2466 186.153L41.1319 186.351L42.3702 187.066L42.4849 186.868ZM41.2466 186.153L41.4087 186.315L41.4107 186.313L41.2485 186.151L41.0864 185.989L41.0844 185.991L41.2466 186.153ZM41.2485 186.151H41.4779V176.639H41.2485H41.0192V186.151H41.2485ZM41.2485 176.639L41.248 176.868L57.6631 176.904L57.6636 176.674L57.6641 176.445L41.249 176.41L41.2485 176.639ZM57.6636 176.674L57.7782 176.873L78.8681 164.698L78.7534 164.5L78.6388 164.301L57.5489 176.476L57.6636 176.674ZM78.7534 164.5L78.6388 164.698L99.8878 176.966L100.002 176.767L100.117 176.568L78.8681 164.301L78.7534 164.5Z" fill="#0E3572" mask="url(#path-63-inside-2_1719_12476)"/>
<path d="M78.7559 154.985L116.383 176.802L78.7558 198.292L41.2493 176.638L78.7559 154.985Z" fill="white"/>
<path d="M78.7559 154.985L116.383 176.802L78.7558 198.292L41.2493 176.638L78.7559 154.985Z" fill="#ED1C24" fill-opacity="0.1"/>
<path d="M115.807 176.801L78.7576 197.96L41.825 176.638L78.7559 155.317L115.807 176.801Z" stroke="white" stroke-opacity="0.2" stroke-width="0.664536"/>
<path d="M72.6877 177.402L67.9407 171.6L69.0927 170.935L79.1429 173.676L78.1002 174.278L75.7564 173.624L72.5983 175.447L73.7305 176.8L72.6877 177.402ZM72.0124 174.754L74.5548 173.286L69.0827 171.755L69.3608 171.595L72.0124 174.754ZM80.0752 173.137L72.6765 168.866L73.6498 168.304L81.0485 172.576L80.0752 173.137ZM72.9416 191.255L68.1945 185.453L69.3465 184.788L79.3968 187.528L78.354 188.13L76.0103 187.477L72.8522 189.3L73.9843 190.653L72.9416 191.255ZM72.2663 188.606L74.8086 187.138L69.3366 185.608L69.6147 185.447L72.2663 188.606ZM83.5639 185.26C83.0409 185.562 82.4649 185.788 81.8359 185.937C81.2003 186.082 80.5482 186.149 79.8795 186.137C79.2108 186.126 78.552 186.04 77.9032 185.879C77.261 185.715 76.6651 185.474 76.1156 185.157C75.5594 184.836 75.139 184.49 74.8543 184.119C74.5696 183.748 74.4174 183.37 74.3975 182.984C74.3776 182.598 74.4968 182.223 74.755 181.86C75.0066 181.493 75.3939 181.159 75.917 180.857C76.4267 180.563 76.973 180.351 77.5556 180.221C78.1448 180.087 78.7208 180.022 79.2836 180.026C79.853 180.026 80.3595 180.085 80.803 180.203L80.3561 180.954C79.7537 180.805 79.1446 180.763 78.5288 180.828C77.9131 180.893 77.3437 181.077 76.8207 181.379C76.3043 181.677 75.9666 182.013 75.8077 182.388C75.6554 182.759 75.6852 183.135 75.8971 183.517C76.109 183.899 76.5062 184.259 77.0888 184.595C77.6648 184.928 78.2839 185.155 78.9459 185.277C79.6146 185.396 80.2701 185.411 80.9123 185.323C81.5611 185.231 82.1437 185.037 82.6602 184.738C83.1104 184.479 83.4215 184.188 83.5937 183.867C83.7658 183.546 83.789 183.227 83.6632 182.91C83.5374 182.592 83.2527 182.306 82.8091 182.05L82.3523 181.786L83.2163 181.769L80.3561 183.42L79.512 182.932L82.9084 180.972L83.5639 181.35C84.0803 181.648 84.4577 181.969 84.696 182.313C84.9344 182.657 85.0469 183.005 85.0337 183.357C85.0138 183.705 84.8781 184.043 84.6265 184.371C84.3749 184.7 84.0207 184.996 83.5639 185.26ZM88.1459 182.477L80.7473 178.206L85.5638 175.425L86.4576 175.941L82.6143 178.16L84.958 179.513L88.6028 177.409L89.4966 177.925L85.8518 180.029L88.2254 181.399L92.0687 179.181L92.9625 179.697L88.1459 182.477ZM94.1686 179L86.7699 174.729L87.5843 174.259L97.8133 175.257L97.4856 175.492L91.4673 172.017L92.4505 171.45L99.8492 175.721L99.0348 176.191L88.7859 175.159L89.0839 174.941L95.1418 178.439L94.1686 179ZM102.792 174.022L96.2867 170.267L94.2806 171.425L93.3868 170.909L98.3524 168.043L99.2462 168.559L97.2699 169.7L103.775 173.455L102.792 174.022Z" fill="#ED1C24"/>
<mask id="path-68-inside-3_1719_12476" fill="white">
<path d="M109.693 126.195L120.457 126.218V132.362L95.8794 146.697L71.0864 132.362V126.111L81.8745 126.134L95.7319 118.135L109.693 126.195Z"/>
</mask>
<path d="M109.693 126.195L120.457 126.218V132.362L95.8794 146.697L71.0864 132.362V126.111L81.8745 126.134L95.7319 118.135L109.693 126.195Z" fill="url(#paint1_linear_1719_12476)"/>
<path d="M109.693 126.195L109.578 126.393L109.631 126.424L109.692 126.424L109.693 126.195ZM120.457 126.218H120.686V125.989L120.457 125.989L120.457 126.218ZM120.457 132.362L120.572 132.56L120.686 132.494V132.362H120.457ZM95.8794 146.697L95.7646 146.895L95.8799 146.962L95.9949 146.895L95.8794 146.697ZM71.0864 132.362H70.8571V132.494L70.9716 132.56L71.0864 132.362ZM71.0864 126.111L71.0869 125.882L70.8571 125.881V126.111H71.0864ZM81.8745 126.134L81.874 126.364L81.9357 126.364L81.9892 126.333L81.8745 126.134ZM95.7319 118.135L95.8466 117.937L95.7319 117.87L95.6173 117.937L95.7319 118.135ZM109.693 126.195L109.692 126.424L120.456 126.448L120.457 126.218L120.457 125.989L109.693 125.965L109.693 126.195ZM120.457 126.218H120.227V132.362H120.457H120.686V126.218H120.457ZM120.457 132.362L120.341 132.164L95.7638 146.499L95.8794 146.697L95.9949 146.895L120.572 132.56L120.457 132.362ZM95.8794 146.697L95.9942 146.498L71.2012 132.163L71.0864 132.362L70.9716 132.56L95.7646 146.895L95.8794 146.697ZM71.0864 132.362H71.3158V126.111H71.0864H70.8571V132.362H71.0864ZM71.0864 126.111L71.0859 126.34L81.874 126.364L81.8745 126.134L81.875 125.905L71.0869 125.882L71.0864 126.111ZM81.8745 126.134L81.9892 126.333L95.8466 118.334L95.7319 118.135L95.6173 117.937L81.7599 125.936L81.8745 126.134ZM95.7319 118.135L95.6173 118.334L109.578 126.393L109.693 126.195L109.808 125.996L95.8466 117.937L95.7319 118.135Z" fill="#0E3572" mask="url(#path-68-inside-3_1719_12476)"/>
<path d="M95.7324 111.884L120.457 126.219L95.7324 140.338L71.0872 126.111L95.7324 111.884Z" fill="#0E3572"/>
<path d="M119.881 126.217L95.7333 140.006L71.6621 126.111L95.7324 112.216L119.881 126.217Z" stroke="white" stroke-opacity="0.2" stroke-width="0.664531"/>
<mask id="path-72-inside-4_1719_12476" fill="white">
<path d="M179.318 165.98L190.084 166.004V172.147L165.507 186.482L141.969 172.872L140.713 172.147L140.715 172.146V165.896L151.5 165.92L165.357 157.921L179.318 165.98Z"/>
</mask>
<path d="M179.318 165.98L190.084 166.004V172.147L165.507 186.482L141.969 172.872L140.713 172.147L140.715 172.146V165.896L151.5 165.92L165.357 157.921L179.318 165.98Z" fill="url(#paint2_linear_1719_12476)"/>
<path d="M179.318 165.98L179.204 166.179L179.257 166.21L179.318 166.21L179.318 165.98ZM190.084 166.004H190.313V165.775L190.084 165.775L190.084 166.004ZM190.084 172.147L190.2 172.346L190.313 172.279V172.147H190.084ZM165.507 186.482L165.392 186.681L165.507 186.748L165.622 186.681L165.507 186.482ZM141.969 172.872L142.084 172.674L142.083 172.673L141.969 172.872ZM140.713 172.147L140.551 171.985L140.339 172.197L140.598 172.346L140.713 172.147ZM140.715 172.146L140.877 172.308L140.944 172.241V172.146H140.715ZM140.715 165.896L140.715 165.667L140.486 165.667V165.896H140.715ZM151.5 165.92L151.5 166.149L151.561 166.149L151.615 166.119L151.5 165.92ZM165.357 157.921L165.472 157.722L165.357 157.656L165.243 157.722L165.357 157.921ZM179.318 165.98L179.318 166.21L190.083 166.233L190.084 166.004L190.084 165.775L179.319 165.751L179.318 165.98ZM190.084 166.004H189.855V172.147H190.084H190.313V166.004H190.084ZM190.084 172.147L189.968 171.949L165.391 186.284L165.507 186.482L165.622 186.681L190.2 172.346L190.084 172.147ZM165.507 186.482L165.622 186.284L142.084 172.674L141.969 172.872L141.854 173.071L165.392 186.681L165.507 186.482ZM141.969 172.872L142.083 172.673L140.828 171.949L140.713 172.147L140.598 172.346L141.854 173.071L141.969 172.872ZM140.713 172.147L140.875 172.31L140.877 172.308L140.715 172.146L140.553 171.983L140.551 171.985L140.713 172.147ZM140.715 172.146H140.944V165.896H140.715H140.486V172.146H140.715ZM140.715 165.896L140.714 166.126L151.5 166.149L151.5 165.92L151.5 165.691L140.715 165.667L140.715 165.896ZM151.5 165.92L151.615 166.119L165.472 158.12L165.357 157.921L165.243 157.722L151.385 165.721L151.5 165.92ZM165.357 157.921L165.243 158.12L179.204 166.179L179.318 165.98L179.433 165.782L165.472 157.722L165.357 157.921Z" fill="#0E3572" mask="url(#path-72-inside-4_1719_12476)"/>
<path d="M165.36 151.669L190.085 166.004L165.36 180.123L140.716 165.896L165.36 151.669Z" fill="#0E3572"/>
<path d="M189.508 166.003L165.362 179.792L141.291 165.896L165.36 152.001L189.508 166.003Z" stroke="white" stroke-opacity="0.2" stroke-width="0.664525"/>
<mask id="path-76-inside-5_1719_12476" fill="white">
<path d="M248.945 124.537L259.71 124.562V130.705L235.134 145.04L211.596 131.43L210.34 130.705L210.342 130.703V124.453L221.128 124.477L234.984 116.478L248.945 124.537Z"/>
</mask>
<path d="M248.945 124.537L259.71 124.562V130.705L235.134 145.04L211.596 131.43L210.34 130.705L210.342 130.703V124.453L221.128 124.477L234.984 116.478L248.945 124.537Z" fill="url(#paint3_linear_1719_12476)"/>
<path d="M248.945 124.537L248.831 124.736L248.884 124.767L248.945 124.767L248.945 124.537ZM259.71 124.562H259.939V124.333L259.71 124.332L259.71 124.562ZM259.71 130.705L259.826 130.903L259.939 130.837V130.705H259.71ZM235.134 145.04L235.019 145.239L235.134 145.305L235.249 145.238L235.134 145.04ZM211.596 131.43L211.711 131.231L211.71 131.231L211.596 131.43ZM210.34 130.705L210.178 130.543L209.966 130.755L210.225 130.904L210.34 130.705ZM210.342 130.703L210.504 130.866L210.571 130.798V130.703H210.342ZM210.342 124.453L210.342 124.224L210.112 124.224V124.453H210.342ZM221.128 124.477L221.127 124.706L221.189 124.706L221.243 124.675L221.128 124.477ZM234.984 116.478L235.099 116.279L234.984 116.213L234.87 116.279L234.984 116.478ZM248.945 124.537L248.945 124.767L259.709 124.791L259.71 124.562L259.71 124.332L248.946 124.308L248.945 124.537ZM259.71 124.562H259.481V130.705H259.71H259.939V124.562H259.71ZM259.71 130.705L259.594 130.507L235.018 144.842L235.134 145.04L235.249 145.238L259.826 130.903L259.71 130.705ZM235.134 145.04L235.249 144.842L211.711 131.231L211.596 131.43L211.481 131.628L235.019 145.239L235.134 145.04ZM211.596 131.43L211.71 131.231L210.454 130.507L210.34 130.705L210.225 130.904L211.481 131.629L211.596 131.43ZM210.34 130.705L210.502 130.867L210.504 130.866L210.342 130.703L210.18 130.541L210.178 130.543L210.34 130.705ZM210.342 130.703H210.571V124.453H210.342H210.112V130.703H210.342ZM210.342 124.453L210.341 124.683L221.127 124.706L221.128 124.477L221.128 124.247L210.342 124.224L210.342 124.453ZM221.128 124.477L221.243 124.675L235.099 116.676L234.984 116.478L234.87 116.279L221.013 124.278L221.128 124.477ZM234.984 116.478L234.87 116.676L248.831 124.736L248.945 124.537L249.06 124.339L235.099 116.279L234.984 116.478Z" fill="#0E3572" mask="url(#path-76-inside-5_1719_12476)"/>
<path d="M234.989 110.226L259.713 124.561L234.989 138.681L210.344 124.453L234.989 110.226Z" fill="#0E3572"/>
<path d="M259.136 124.56L234.99 138.349L210.92 124.453L234.989 110.558L259.136 124.56Z" stroke="white" stroke-opacity="0.2" stroke-width="0.664529"/>
<mask id="path-80-inside-6_1719_12476" fill="white">
<path d="M218.705 94.8284L259.859 94.9182V118.408L165.885 173.219L71.0874 118.409V94.5061L112.338 94.5959L165.321 64.011L218.705 94.8284Z"/>
</mask>
<path d="M218.705 94.8284L259.859 94.9182V118.408L165.885 173.219L71.0874 118.409V94.5061L112.338 94.5959L165.321 64.011L218.705 94.8284Z" fill="white"/>
<path d="M218.705 94.8284L218.59 95.027L218.643 95.0576L218.704 95.0577L218.705 94.8284ZM259.859 94.9182H260.088V94.6894L259.859 94.6889L259.859 94.9182ZM259.859 118.408L259.974 118.607L260.088 118.54V118.408H259.859ZM165.885 173.219L165.77 173.418L165.886 173.484L166.001 173.417L165.885 173.219ZM71.0874 118.409H70.8581V118.542L70.9726 118.608L71.0874 118.409ZM71.0874 94.5061L71.0879 94.2768L70.8581 94.2763V94.5061H71.0874ZM112.338 94.5959L112.338 94.8253L112.4 94.8254L112.453 94.7946L112.338 94.5959ZM165.321 64.011L165.435 63.8124L165.321 63.7462L165.206 63.8124L165.321 64.011ZM218.705 94.8284L218.704 95.0577L259.858 95.1476L259.859 94.9182L259.859 94.6889L218.705 94.599L218.705 94.8284ZM259.859 94.9182H259.63V118.408H259.859H260.088V94.9182H259.859ZM259.859 118.408L259.743 118.21L165.77 173.021L165.885 173.219L166.001 173.417L259.974 118.607L259.859 118.408ZM165.885 173.219L166 173.02L71.2022 118.211L71.0874 118.409L70.9726 118.608L165.77 173.418L165.885 173.219ZM71.0874 118.409H71.3167V94.5061H71.0874H70.8581V118.409H71.0874ZM71.0874 94.5061L71.0869 94.7354L112.338 94.8253L112.338 94.5959L112.339 94.3666L71.0879 94.2768L71.0874 94.5061ZM112.338 94.5959L112.453 94.7946L165.435 64.2096L165.321 64.011L165.206 63.8124L112.224 94.3973L112.338 94.5959ZM165.321 64.011L165.206 64.2096L218.59 95.027L218.705 94.8284L218.819 94.6297L165.435 63.8124L165.321 64.011Z" fill="#0E3572" mask="url(#path-80-inside-6_1719_12476)"/>
<path d="M165.327 40.1089L259.865 94.9193L165.327 148.905L71.0936 94.5072L165.327 40.1089Z" fill="#0C2D62"/>
<path d="M165.327 40.1089L259.865 94.9193L165.327 148.905L71.0936 94.5072L165.327 40.1089Z" fill="white" fill-opacity="0.8"/>
<path d="M259.289 94.9177L165.329 148.574L71.6689 94.5071L165.327 40.4409L259.289 94.9177Z" stroke="white" stroke-opacity="0.2" stroke-width="0.664525"/>
<g filter="url(#filter0_i_1719_12476)">
<path d="M165.58 28.9958L250.402 78.1737L165.58 126.612L81.0307 77.804L165.58 28.9958Z" fill="#0E3572"/>
<path d="M165.58 28.9958L250.402 78.1737L165.58 126.612L81.0307 77.804L165.58 28.9958Z" fill="white"/>
</g>
<path d="M249.904 78.1721L165.582 126.326L81.528 77.804L165.58 29.2829L249.904 78.1721Z" stroke="#0E3572" stroke-width="0.57335"/>
<g filter="url(#filter1_d_1719_12476)">
<mask id="path-86-outside-7_1719_12476" maskUnits="userSpaceOnUse" x="132.279" y="59.8308" width="72.7461" height="42" fill="black">
<rect fill="white" x="132.279" y="59.8308" width="72.7461" height="42"/>
<path d="M148.982 69.7369L194.139 88.6162L187.966 92.1801L179.847 88.7125L172.339 93.047L178.345 97.7348L172.728 100.978L140.029 74.9062L148.982 69.7369ZM151.095 76.4795L167.835 89.5473L173.729 86.1439L151.095 76.4795ZM196.988 86.9714L158.059 64.4961L164.177 60.9643L203.105 83.4396L196.988 86.9714Z"/>
</mask>
<path d="M148.982 69.7369L194.139 88.6162L187.966 92.1801L179.847 88.7125L172.339 93.047L178.345 97.7348L172.728 100.978L140.029 74.9062L148.982 69.7369ZM151.095 76.4795L167.835 89.5473L173.729 86.1439L151.095 76.4795ZM196.988 86.9714L158.059 64.4961L164.177 60.9643L203.105 83.4396L196.988 86.9714Z" fill="#0E3572"/>
<path d="M148.982 69.7369L149.147 69.6056L148.953 69.5245L148.783 69.6222L148.982 69.7369ZM194.139 88.6162L194.338 88.7309L194.571 88.5964L194.304 88.4848L194.139 88.6162ZM187.966 92.1801L187.799 92.3105L187.994 92.3936L188.165 92.2948L187.966 92.1801ZM179.847 88.7125L180.014 88.5821L179.819 88.4991L179.648 88.5978L179.847 88.7125ZM172.339 93.047L172.14 92.9324L171.969 93.0312L172.113 93.1435L172.339 93.047ZM178.345 97.7348L178.544 97.8494L178.715 97.7506L178.571 97.6383L178.345 97.7348ZM172.728 100.978L172.501 101.073L172.694 101.227L172.927 101.092L172.728 100.978ZM140.029 74.9062L139.83 74.7916L139.661 74.8893L139.801 75.0014L140.029 74.9062ZM151.095 76.4795L151.262 76.3491L150.869 76.5759L151.095 76.4795ZM167.835 89.5473L167.609 89.6437L167.803 89.7951L168.033 89.662L167.835 89.5473ZM173.729 86.1439L173.928 86.2586L174.159 86.1255L173.896 86.0135L173.729 86.1439ZM148.982 69.7369L148.817 69.8683L193.974 88.7475L194.139 88.6162L194.304 88.4848L149.147 69.6056L148.982 69.7369ZM194.139 88.6162L193.94 88.5015L187.767 92.0655L187.966 92.1801L188.165 92.2948L194.338 88.7309L194.139 88.6162ZM187.966 92.1801L188.133 92.0498L180.014 88.5821L179.847 88.7125L179.68 88.8429L187.799 92.3105L187.966 92.1801ZM179.847 88.7125L179.648 88.5978L172.14 92.9324L172.339 93.047L172.538 93.1617L180.045 88.8272L179.847 88.7125ZM172.339 93.047L172.113 93.1435L178.119 97.8312L178.345 97.7348L178.571 97.6383L172.565 92.9506L172.339 93.047ZM178.345 97.7348L178.147 97.6201L172.53 100.863L172.728 100.978L172.927 101.092L178.544 97.8494L178.345 97.7348ZM172.728 100.978L172.956 100.883L140.256 74.8111L140.029 74.9062L139.801 75.0014L172.501 101.073L172.728 100.978ZM140.029 74.9062L140.227 75.0209L149.181 69.8516L148.982 69.7369L148.783 69.6222L139.83 74.7916L140.029 74.9062ZM151.095 76.4795L150.869 76.5759L167.609 89.6437L167.835 89.5473L168.06 89.4509L151.321 76.3831L151.095 76.4795ZM167.835 89.5473L168.033 89.662L173.928 86.2586L173.729 86.1439L173.531 86.0292L167.636 89.4326L167.835 89.5473ZM173.729 86.1439L173.896 86.0135L151.262 76.3491L151.095 76.4795L150.928 76.6099L173.562 86.2743L173.729 86.1439ZM196.988 86.9714L196.789 87.0861L196.988 87.2008L197.186 87.0861L196.988 86.9714ZM158.059 64.4961L157.861 64.3814L157.662 64.4961L157.861 64.6108L158.059 64.4961ZM164.177 60.9643L164.375 60.8496L164.177 60.7349L163.978 60.8496L164.177 60.9643ZM203.105 83.4396L203.304 83.5543L203.502 83.4396L203.304 83.3249L203.105 83.4396ZM196.988 86.9714L197.186 86.8568L158.258 64.3814L158.059 64.4961L157.861 64.6108L196.789 87.0861L196.988 86.9714ZM158.059 64.4961L158.258 64.6108L164.375 61.0789L164.177 60.9643L163.978 60.8496L157.861 64.3814L158.059 64.4961ZM164.177 60.9643L163.978 61.0789L202.907 83.5543L203.105 83.4396L203.304 83.3249L164.375 60.8496L164.177 60.9643ZM203.105 83.4396L202.907 83.3249L196.789 86.8568L196.988 86.9714L197.186 87.0861L203.304 83.5543L203.105 83.4396Z" fill="white" mask="url(#path-86-outside-7_1719_12476)"/>
</g>
<mask id="path-88-inside-8_1719_12476" fill="white">
<path d="M269.966 174.396L282.833 174.424V181.77L253.45 198.911L223.809 181.77V174.295L236.707 174.323L253.274 164.758L269.966 174.396Z"/>
</mask>
<path d="M269.966 174.396L282.833 174.424V181.77L253.45 198.911L223.809 181.77V174.295L236.707 174.323L253.274 164.758L269.966 174.396Z" fill="white"/>
<path d="M269.966 174.396L269.852 174.595L269.905 174.625L269.966 174.625L269.966 174.396ZM282.833 174.424H283.063V174.195L282.834 174.195L282.833 174.424ZM282.833 181.77L282.949 181.968L283.063 181.902V181.77H282.833ZM253.45 198.911L253.335 199.109L253.45 199.176L253.565 199.109L253.45 198.911ZM223.809 181.77H223.58V181.902L223.694 181.969L223.809 181.77ZM223.809 174.295L223.81 174.066L223.58 174.066V174.295H223.809ZM236.707 174.323L236.706 174.552L236.768 174.552L236.821 174.521L236.707 174.323ZM253.274 164.758L253.389 164.56L253.274 164.493L253.159 164.56L253.274 164.758ZM269.966 174.396L269.966 174.625L282.833 174.654L282.833 174.424L282.834 174.195L269.967 174.167L269.966 174.396ZM282.833 174.424H282.604V181.77H282.833H283.063V174.424H282.833ZM282.833 181.77L282.718 181.572L253.334 198.713L253.45 198.911L253.565 199.109L282.949 181.968L282.833 181.77ZM253.45 198.911L253.565 198.712L223.924 181.571L223.809 181.77L223.694 181.969L253.335 199.109L253.45 198.911ZM223.809 181.77H224.038V174.295H223.809H223.58V181.77H223.809ZM223.809 174.295L223.809 174.525L236.706 174.552L236.707 174.323L236.707 174.093L223.81 174.066L223.809 174.295ZM236.707 174.323L236.821 174.521L253.389 164.957L253.274 164.758L253.159 164.56L236.592 174.124L236.707 174.323ZM253.274 164.758L253.159 164.957L269.852 174.595L269.966 174.396L270.081 174.197L253.389 164.56L253.274 164.758Z" fill="#0E3572" mask="url(#path-88-inside-8_1719_12476)"/>
<path d="M253.275 157.284L282.835 174.424L253.275 191.307L223.811 174.295L253.275 157.284Z" fill="white"/>
<path d="M253.275 157.284L282.835 174.424L253.275 191.307L223.811 174.295L253.275 157.284Z" fill="#ED1C24" fill-opacity="0.1"/>
<path d="M282.258 174.422L253.277 190.975L224.386 174.295L253.275 157.616L282.258 174.422Z" stroke="white" stroke-opacity="0.2" stroke-width="0.664519"/>
<path d="M249.444 181.354L242.046 177.083L242.86 176.613L253.089 177.611L252.761 177.846L246.743 174.371L247.726 173.803L255.124 178.075L254.31 178.545L244.062 177.513L244.36 177.295L250.417 180.793L249.444 181.354ZM256.776 177.122L249.377 172.85L250.351 172.288L256.855 176.044L260.102 174.169L260.996 174.685L256.776 177.122ZM261.568 188.354L254.17 184.083L256.782 182.575C257.272 182.292 257.795 182.097 258.351 181.99C258.907 181.883 259.46 181.87 260.009 181.95C260.565 182.027 261.075 182.199 261.539 182.466C262.002 182.734 262.3 183.028 262.432 183.349C262.565 183.663 262.542 183.982 262.363 184.307C262.184 184.624 261.846 184.926 261.35 185.213L259.711 186.159L262.542 187.793L261.568 188.354ZM258.818 185.643L260.486 184.679C260.784 184.507 260.986 184.326 261.092 184.135C261.198 183.944 261.204 183.752 261.112 183.561C261.019 183.37 260.834 183.194 260.555 183.034C260.271 182.869 259.966 182.762 259.642 182.713C259.311 182.659 258.98 182.663 258.649 182.724C258.318 182.785 258.003 182.902 257.705 183.074L256.037 184.037L258.818 185.643Z" fill="#ED1C24"/>
</g>
<defs>
<filter id="filter0_i_1719_12476" x="81.0308" y="28.9958" width="169.372" height="97.6162" filterUnits="userSpaceOnUse" color-interpolation-filters="sRGB">
<feFlood flood-opacity="0" result="BackgroundImageFix"/>
<feBlend mode="normal" in="SourceGraphic" in2="BackgroundImageFix" result="shape"/>
<feColorMatrix in="SourceAlpha" type="matrix" values="0 0 0 0 0 0 0 0 0 0 0 0 0 0 0 0 0 0 127 0" result="hardAlpha"/>
<feOffset/>
<feGaussianBlur stdDeviation="4.12812"/>
<feComposite in2="hardAlpha" operator="arithmetic" k2="-1" k3="1"/>
<feColorMatrix type="matrix" values="0 0 0 0 0.054902 0 0 0 0 0.207843 0 0 0 0 0.447059 0 0 0 0.35 0"/>
<feBlend mode="normal" in2="shape" result="effect1_innerShadow_1719_12476"/>
</filter>
<filter id="filter1_d_1719_12476" x="139.661" y="60.7349" width="63.8418" height="41.6386" filterUnits="userSpaceOnUse" color-interpolation-filters="sRGB">
<feFlood flood-opacity="0" result="BackgroundImageFix"/>
<feColorMatrix in="SourceAlpha" type="matrix" values="0 0 0 0 0 0 0 0 0 0 0 0 0 0 0 0 0 0 127 0" result="hardAlpha"/>
<feOffset dy="1.1467"/>
<feComposite in2="hardAlpha" operator="out"/>
<feColorMatrix type="matrix" values="0 0 0 0 0.0365431 0 0 0 0 0.117916 0 0 0 0 0.245192 0 0 0 0.3 0"/>
<feBlend mode="normal" in2="BackgroundImageFix" result="effect1_dropShadow_1719_12476"/>
<feBlend mode="normal" in="SourceGraphic" in2="effect1_dropShadow_1719_12476" result="shape"/>
</filter>
<radialGradient id="paint0_radial_1719_12476" cx="0" cy="0" r="1" gradientUnits="userSpaceOnUse" gradientTransform="translate(230.872 257.089) rotate(90) scale(237.062 237.062)">
<stop stop-color="#D9D9D9"/>
<stop offset="0.890272" stop-color="#D9D9D9" stop-opacity="0"/>
</radialGradient>
<linearGradient id="paint1_linear_1719_12476" x1="95.7715" y1="132.466" x2="95.7715" y2="146.697" gradientUnits="userSpaceOnUse">
<stop stop-color="white"/>
<stop offset="1" stop-color="#3EAFD1"/>
</linearGradient>
<linearGradient id="paint2_linear_1719_12476" x1="165.398" y1="172.252" x2="165.398" y2="186.482" gradientUnits="userSpaceOnUse">
<stop stop-color="white"/>
<stop offset="1" stop-color="#3EAFD1"/>
</linearGradient>
<linearGradient id="paint3_linear_1719_12476" x1="235.025" y1="130.809" x2="235.025" y2="145.04" gradientUnits="userSpaceOnUse">
<stop stop-color="white"/>
<stop offset="1" stop-color="#3EAFD1"/>
</linearGradient>
<clipPath id="clip0_1719_12476">
<rect width="325.95" height="239.645" rx="9.60117" fill="white"/>
</clipPath>
</defs>
</svg>
