<svg width="98" height="54" viewBox="0 0 98 54" fill="none" xmlns="http://www.w3.org/2000/svg">
<path d="M26.3711 17.19L55.1039 17.1903C54.5723 17.7338 53.2507 18.6595 52.5803 19.1262C51.9735 19.5941 49.4307 21.5532 48.8579 21.5765C47.4031 21.6358 45.3641 21.6002 43.8773 21.6004L33.4506 21.6019C31.5451 21.6013 29.6482 21.5603 27.7426 21.6098C27.5857 20.7433 27.1335 19.6953 26.8517 18.8528C26.6655 18.2964 26.5517 17.7169 26.3711 17.19Z" fill="#6982A7" fill-opacity="0.5"/>
<path d="M27.958 24.0545L28.0586 24.0866C28.2735 24.3304 28.7169 26.2318 28.8473 26.6749L30.787 33.2043C32.4632 38.6657 34.0868 44.1436 35.6577 49.6369C35.2629 49.2034 34.1093 48.4157 33.563 47.9827C32.9625 47.5644 29.986 45.4176 29.7237 45.0464C29.2667 44.3999 28.6985 41.8718 28.4512 41.0015L25.8742 32.1634L24.893 28.7333C24.7186 28.108 24.5984 27.4645 24.3711 26.8593C25.4627 25.7958 26.853 25.0872 27.958 24.0545Z" fill="#6982A7"/>
<path d="M21.4796 2.97479C21.7488 3.14864 22.0589 4.59916 22.1732 4.96986L23.0371 7.70686C23.1955 8.20923 23.8725 9.89103 23.7664 10.2699C23.1352 12.5213 22.1622 14.9356 21.6294 17.2025L19.3083 17.2018C18.527 17.2014 17.7026 17.1888 16.9258 17.2204C17.1043 16.5183 17.3933 15.7554 17.6251 15.0578L18.6311 11.9349C19.5747 8.97535 20.4879 5.9069 21.4796 2.97479Z" fill="#6982A7"/>
<path d="M2.20801 17.2104L2.24736 17.2051C2.90409 17.122 9.2017 17.1135 9.58112 17.272C10.1207 17.4973 11.0398 18.3268 11.555 18.7137C12.8335 19.6738 14.138 20.6036 15.3967 21.5901C15.007 22.825 14.74 23.7828 14.302 25.0293C14.2166 25.2419 14.0991 25.7975 14.021 26.0665C13.7179 25.9023 13.0882 25.404 12.7729 25.1688L10.388 23.3931C7.80554 21.4816 5.22055 19.5595 2.64078 17.6434C2.50796 17.5448 2.25406 17.3628 2.20801 17.2104Z" fill="#6982A7"/>
<path d="M17.5725 28.9064C17.6812 28.9047 17.8187 28.9117 17.912 28.9724C19.1515 29.7772 20.3065 30.7305 21.5629 31.5115C20.8577 31.9262 19.3779 33.1367 18.6532 33.6775L11.9035 38.7686C11.452 39.0476 9.99886 40.1961 9.5293 40.5528C10.3237 38.2191 10.9961 35.5343 11.9351 33.2488C12.0015 33.0872 13.1505 32.2425 13.3593 32.0981C14.7734 31.12 16.1622 29.8711 17.5725 28.9064Z" fill="#6982A7"/>
<path d="M45.9176 32.3245C46.796 32.3412 47.9355 32.4593 48.6088 33.1202C49.6405 34.1327 49.6405 36.7179 48.6858 37.7908C48.003 38.5581 46.9262 38.6912 45.9731 38.7062C45.1308 38.7119 44.0806 38.5458 43.4516 37.9368C42.2029 36.7257 42.2185 33.9426 43.6664 32.8926C44.3029 32.4311 45.1649 32.3564 45.9176 32.3245ZM46.4661 37.4855C48.0671 37.2342 48.3135 34.7201 47.1701 33.8183C46.7189 33.4624 46.1311 33.4822 45.5838 33.5278C45.1409 33.6151 44.6207 33.8168 44.3986 34.2156C43.9257 35.0647 43.9422 36.7059 44.8929 37.2338C45.4453 37.5406 45.8899 37.5525 46.4661 37.4855Z" fill="#6982A7"/>
<path d="M77.217 32.3253C78.0563 32.314 79.2077 32.4698 79.8335 33.0802C80.9896 34.2076 80.9672 36.6268 79.9159 37.8231C79.2957 38.5294 78.3334 38.6695 77.463 38.7061C75.3963 38.7228 73.9603 38.061 73.8794 35.7553C73.7909 33.2456 74.9091 32.4117 77.217 32.3253ZM77.6486 37.5018C79.1914 37.285 79.1579 35.9907 79.0493 34.7496C78.9493 33.61 77.697 33.4405 76.8237 33.5306C76.4308 33.6067 75.8858 33.8275 75.7121 34.2079C74.9135 35.9545 75.5829 37.7089 77.6486 37.5018Z" fill="#6982A7"/>
<path d="M86.1331 32.4032C86.6044 32.4397 87.4528 32.4153 87.9246 32.3971C87.7486 33.4605 87.739 37.4907 87.9208 38.5623L87.8557 38.6292L87.628 38.6071C87.2246 38.6079 86.8212 38.6058 86.4183 38.6008C85.7584 37.634 85.0899 36.7977 84.3482 35.9002C84.0166 35.4991 83.6917 35.0004 83.306 34.6616C83.3816 35.6395 83.2012 37.8736 83.4821 38.6163C83.1687 38.5967 81.8346 38.6326 81.6594 38.5684C81.836 37.7483 81.8724 33.1472 81.6006 32.3828C81.969 32.4412 82.9538 32.4252 83.3831 32.4273C84.2085 33.5743 85.345 34.827 86.2652 35.9822C86.1431 34.9409 86.3441 33.3946 86.1331 32.4032Z" fill="#6982A7"/>
<path d="M63.1118 24.6578C63.5793 24.6964 64.4474 24.6736 64.9493 24.6731C66.2691 24.6615 67.5893 24.6623 68.9095 24.6757C68.9684 25.1424 69.0344 25.6082 69.1067 26.0729C68.9153 26.1017 68.3999 25.9819 68.1726 25.9503C67.0538 25.7949 65.9159 25.8487 64.7909 25.8514L64.8053 27.1009C65.97 27.1121 66.9203 27.1502 68.0745 26.9242C67.9822 27.373 67.93 27.8249 67.8721 28.2792C67.0529 28.3034 66.1174 28.2798 65.2814 28.289C65.1302 28.2796 65.0355 28.2591 64.8962 28.3181C64.6828 28.5757 64.7948 29.2489 64.8091 29.6284C66.1906 29.6043 68.3013 29.9062 69.4191 29.1301C69.2641 29.7624 69.1986 30.1859 69.1775 30.8416C68.1678 30.7735 66.8663 30.821 65.8245 30.8109C65.1197 30.8041 63.7468 30.7772 63.0889 30.8467C63.3291 30.1166 63.2525 25.5254 63.1118 24.6578Z" fill="#6982A7"/>
<path d="M37.7343 24.6662C38.4141 24.6718 39.076 24.6517 39.7586 24.681C40.1982 25.8944 41.7143 29.9966 42.4047 30.8239C41.8083 30.8058 40.7823 30.7886 40.2088 30.8436C40.2201 30.6513 40.2296 30.4588 40.2373 30.2662C40.2567 29.7421 40.1508 29.6391 39.6578 29.6253C38.8917 29.6304 38.0818 29.6478 37.3204 29.6189C37.2 30.0814 37.1908 30.2553 37.1663 30.7372C37.0395 30.8506 35.4688 30.8165 35.1201 30.8463C35.6431 30.0518 37.597 24.7834 37.7343 24.6662ZM37.779 28.4246C38.1205 28.4351 38.4799 28.4524 38.8198 28.4446C39.0737 28.4373 39.3558 28.4355 39.6068 28.4181C39.4398 28.0321 38.8344 26.0404 38.6802 25.8995C38.3291 26.7359 38.1706 27.6041 37.779 28.4246Z" fill="#6982A7"/>
<path d="M37.592 32.3671C38.3218 32.3048 40.3236 32.3085 41.0994 32.6391C41.1876 32.6767 41.4221 33.8568 41.4189 33.9792C40.9877 34.1194 37.4555 32.6607 37.1522 34.1381C37.2343 34.8939 39.1938 34.8149 39.7378 34.9403C40.8221 35.1904 41.824 35.4784 41.8271 36.8048C41.8309 38.4563 40.2004 38.6746 38.9396 38.6999C37.8012 38.7125 36.8051 38.5974 35.6933 38.3978C35.6205 37.8475 35.5551 37.2464 35.4277 36.7101C36.7308 37.2376 38.1271 37.7719 39.5484 37.4724C40.9824 37.1703 40.0464 36.3187 38.9985 36.2088C37.9756 36.1016 35.8281 35.8384 35.5963 34.66C35.2972 33.139 36.3152 32.5804 37.592 32.3671Z" fill="#6982A7"/>
<path d="M90.9968 32.3676C91.9045 32.277 93.6851 32.3526 94.5526 32.6233C94.6349 33.121 94.7211 33.5918 94.9015 34.063C94.0727 33.835 91.3939 33.1193 90.7489 33.716C90.0737 34.9728 92.4663 34.7936 93.1133 34.9272C94.1196 35.1302 95.2034 35.4805 95.2441 36.7013C95.3005 38.4053 93.7664 38.6774 92.3893 38.6934C91.5485 38.758 90.0182 38.5497 89.1425 38.4309C89.0186 37.8554 89.0071 37.2662 88.8291 36.6874C89.7287 37.1849 92.3539 37.9979 93.4975 37.2536C93.7947 36.8462 93.5463 36.5524 93.2243 36.4177C92.0251 35.9161 89.3024 36.2531 88.9956 34.5398C88.7406 33.1117 89.8177 32.5711 90.9968 32.3676Z" fill="#6982A7"/>
<path d="M53.5335 24.6833C54.1518 24.6649 54.7949 24.666 55.4151 24.6588C55.0423 25.6977 55.3194 29.467 55.3395 30.7892C55.2481 30.853 55.0227 30.8237 54.8973 30.8191C54.4403 30.8121 53.9829 30.8122 53.5259 30.8195C53.7704 30.2291 53.6996 28.965 53.6972 28.2949C52.6325 28.2523 51.4065 28.2828 50.3294 28.2801C50.3165 29.0016 50.2385 30.1989 50.4763 30.8411C49.994 30.7923 49.0446 30.8769 48.6618 30.7943C48.7982 30.0306 48.858 25.3931 48.6536 24.7679C48.6508 24.76 48.6484 24.7522 48.6455 24.7443C48.7604 24.6634 48.9068 24.6855 49.07 24.6767L50.4916 24.6599C50.2323 25.2896 50.3155 26.3893 50.3304 27.0993C51.3908 27.1091 52.6564 27.1293 53.7106 27.0815C53.6876 26.3888 53.7771 25.2701 53.5335 24.6833Z" fill="#6982A7"/>
<path d="M56.8711 32.376C57.3171 32.4564 58.2741 32.4178 58.733 32.3808C58.5732 33.3075 58.6081 35.6151 58.6918 36.5399C58.8201 37.9509 61.7945 38.0468 61.5084 35.7172C61.4031 34.8617 61.6137 33.419 61.4108 32.4115C61.8654 32.4336 62.7305 32.4257 63.1703 32.3793C63.0899 32.8374 63.0693 32.956 63.0621 33.4291C63.0152 34.7214 63.2607 36.2964 62.6903 37.4619C62.0037 38.8636 59.4594 38.9962 58.2492 38.3091C56.2596 37.1796 57.3841 34.2483 56.8711 32.376Z" fill="#6982A7"/>
<path d="M82.5354 24.5732C83.5044 24.4809 84.5557 24.6039 85.4979 24.8395C85.6444 25.3785 85.6769 25.8144 85.8678 26.383C85.2285 25.9406 84.4567 25.8542 83.704 25.763C83.1877 25.7004 82.6177 25.7143 82.1292 25.9051C81.1377 26.2924 80.9702 27.8606 81.354 28.7135C81.5487 29.1362 81.9052 29.4606 82.3416 29.612C83.1159 29.887 84.2222 29.7624 84.961 29.4011C85.1558 29.3068 85.4525 29.0939 85.641 28.9672L85.8171 30.4054C85.3582 30.6262 84.8696 30.7772 84.3672 30.8534C82.3756 31.1611 79.873 30.8361 79.6643 28.3218C79.4801 26.1027 80.2721 24.8558 82.5354 24.5732Z" fill="#6982A7"/>
<path d="M64.041 32.3998C65.2114 32.43 66.3819 32.4396 67.5523 32.4286C68.417 32.428 69.4693 32.4461 70.3191 32.392C70.311 32.931 70.3416 33.4349 70.4488 33.9628C69.7042 33.5224 68.7649 33.632 67.9189 33.6212C67.9572 34.5158 67.9332 35.5399 67.9318 36.444C67.9251 37.1395 67.8533 38.0219 68.1189 38.6431C67.626 38.573 66.7542 38.5979 66.2316 38.603C66.4522 37.9297 66.3824 34.4574 66.3383 33.6123C65.377 33.6078 64.6731 33.5318 63.8008 33.9901C63.8587 33.4568 63.9391 32.9263 64.041 32.3998Z" fill="#6982A7"/>
<path d="M41.5985 24.6722C43.6646 24.6623 45.7309 24.6649 47.7971 24.6799C47.8146 24.9338 47.9954 25.9111 47.9385 26.0712C46.853 25.7902 46.5476 25.8397 45.4121 25.8511C45.4398 26.8144 45.4176 27.8764 45.4171 28.8472C45.4133 29.513 45.3683 30.1961 45.5741 30.8263C45.0592 30.799 44.2146 30.8011 43.7102 30.842C43.9473 30.1332 43.8346 26.8728 43.8499 25.8577C42.9866 25.8223 42.1012 25.794 41.2861 26.1293C41.3425 25.7722 41.4004 24.8679 41.5985 24.6722Z" fill="#6982A7"/>
<path d="M70.469 24.6755L76.0696 24.6685C76.127 25.1364 76.1705 25.6059 76.2002 26.0764C75.3059 25.8 74.6259 25.8398 73.7076 25.861C73.7674 26.8231 73.7143 28.4979 73.7129 29.5113C73.7153 29.8724 73.8335 30.6238 73.6722 30.8231C73.6014 30.8492 72.2304 30.8145 71.9835 30.8196C72.2539 30.0461 72.1529 26.8972 72.1539 25.8604C71.2868 25.8356 70.3183 25.7664 69.5254 26.1636C69.6187 25.8259 69.7441 25.0282 69.78 24.6797L70.469 24.6755Z" fill="#6982A7"/>
<path d="M50.3447 32.3917C50.6892 32.4513 51.8156 32.4263 52.1707 32.3775C51.9338 33.1741 52.0238 36.3973 52.0376 37.3917C53.266 37.4239 55.405 37.653 56.3223 36.8658C56.218 37.2524 56.1357 37.615 56.0495 38.0063C56.0031 38.1787 55.9777 38.4234 55.9529 38.6064C54.2288 38.5857 52.0482 38.5454 50.3413 38.6131C50.5074 37.9103 50.5026 33.0796 50.3447 32.3917Z" fill="#6982A7"/>
<path d="M56.7121 24.6765L58.3907 24.654C58.1271 25.4136 58.2371 28.6523 58.2458 29.6347C59.3851 29.5971 60.7154 29.7393 61.8107 29.5131C61.9648 29.4812 62.3706 29.2749 62.5294 29.1958C62.4198 29.4979 62.3064 29.9861 62.2217 30.31L62.1571 30.8391C61.5954 30.7877 60.6297 30.8111 60.0498 30.8108C58.8688 30.8036 57.6873 30.8099 56.5063 30.8298C56.5743 30.6686 56.6255 30.5181 56.6437 30.3429C56.7135 29.6774 56.76 25.2998 56.5786 24.8453C56.558 24.7933 56.5532 24.7678 56.5647 24.7101L56.7121 24.6765Z" fill="#6982A7"/>
<path d="M76.9414 24.6669C77.2137 24.6641 78.5703 24.5915 78.6899 24.7529C78.6742 24.7954 78.6608 24.8385 78.6459 24.8814C78.4909 25.3303 78.5301 30.1515 78.6627 30.6173C78.6856 30.6979 78.6966 30.7624 78.6947 30.8462C78.2344 30.7894 77.3424 30.8149 76.8716 30.8422C77.2367 29.7042 76.8797 26.9704 77.0008 25.6754C77.0261 25.4036 76.9041 24.886 76.9414 24.6669Z" fill="#6982A7"/>
<path d="M71.1177 32.3715C71.5584 32.4591 72.4733 32.4141 72.9384 32.3887C72.6824 33.2711 72.8504 37.0275 72.8403 38.1617C72.8394 38.2772 72.925 38.5375 72.9681 38.6546C72.524 38.5691 71.611 38.6009 71.1253 38.61C71.3239 37.9991 71.334 32.972 71.1177 32.3715Z" fill="#6982A7"/>
</svg>
