<svg width="52" height="52" viewBox="0 0 52 52" fill="none" xmlns="http://www.w3.org/2000/svg">
<g clip-path="url(#clip0_1862_7752)">
<path d="M10.5987 34.0167C15.0261 34.0167 18.6153 30.4275 18.6153 26C18.6153 21.5726 15.0261 17.9834 10.5987 17.9834C6.1712 17.9834 2.58203 21.5726 2.58203 26C2.58203 30.4275 6.1712 34.0167 10.5987 34.0167Z" stroke="white" stroke-miterlimit="10" stroke-linecap="round" stroke-linejoin="round"/>
<path d="M12.5987 36.0167C17.0261 36.0167 20.6153 32.4275 20.6153 28C20.6153 23.5726 17.0261 19.9834 12.5987 19.9834C8.1712 19.9834 4.58203 23.5726 4.58203 28C4.58203 32.4275 8.1712 36.0167 12.5987 36.0167Z" fill="white" fill-opacity="0.1"/>
<path d="M10.5986 21.0609V26H14.1053M25.0648 6.0354L25.0647 12.0625M25.0648 17.3362L25.0647 23.3632M25.0648 28.6369L25.0647 34.6639M25.0648 39.9376L25.0647 45.9647" stroke="white" stroke-miterlimit="10" stroke-linecap="round" stroke-linejoin="round"/>
<path d="M25.0646 6.03545C26.5209 6.03545 27.7015 4.85489 27.7015 3.39859C27.7015 1.94228 26.5209 0.761719 25.0646 0.761719C23.6083 0.761719 22.4277 1.94228 22.4277 3.39859C22.4277 4.85489 23.6083 6.03545 25.0646 6.03545Z" stroke="white" stroke-miterlimit="10" stroke-linecap="round" stroke-linejoin="round"/>
<path d="M25.0646 17.336C26.5209 17.336 27.7015 16.1554 27.7015 14.6991C27.7015 13.2428 26.5209 12.0623 25.0646 12.0623C23.6083 12.0623 22.4277 13.2428 22.4277 14.6991C22.4277 16.1554 23.6083 17.336 25.0646 17.336Z" stroke="white" stroke-miterlimit="10" stroke-linecap="round" stroke-linejoin="round"/>
<path d="M25.0646 28.6368C26.5209 28.6368 27.7015 27.4562 27.7015 25.9999C27.7015 24.5436 26.5209 23.363 25.0646 23.363C23.6083 23.363 22.4277 24.5436 22.4277 25.9999C22.4277 27.4562 23.6083 28.6368 25.0646 28.6368Z" stroke="white" stroke-miterlimit="10" stroke-linecap="round" stroke-linejoin="round"/>
<path d="M25.0646 39.9376C26.5209 39.9376 27.7015 38.757 27.7015 37.3007C27.7015 35.8444 26.5209 34.6638 25.0646 34.6638C23.6083 34.6638 22.4277 35.8444 22.4277 37.3007C22.4277 38.757 23.6083 39.9376 25.0646 39.9376Z" stroke="white" stroke-miterlimit="10" stroke-linecap="round" stroke-linejoin="round"/>
<path d="M25.0646 51.2383C26.5209 51.2383 27.7015 50.0578 27.7015 48.6015C27.7015 47.1452 26.5209 45.9646 25.0646 45.9646C23.6083 45.9646 22.4277 47.1452 22.4277 48.6015C22.4277 50.0578 23.6083 51.2383 25.0646 51.2383Z" stroke="white" stroke-miterlimit="10" stroke-linecap="round" stroke-linejoin="round"/>
<path d="M40.0065 11.6349H48.183C48.865 11.6349 49.4179 12.1878 49.4179 12.8698V16.6184C49.4179 17.3004 48.865 17.8533 48.183 17.8533H33.4087C32.7267 17.8533 32.1738 17.3004 32.1738 16.6184V12.8698C32.1738 12.1878 32.7267 11.6349 33.4087 11.6349H36.5531M37.6431 14.744H44.8495M37.6431 26H44.8495M41.5998 40.3651H33.4087C32.7267 40.3651 32.1738 39.8122 32.1738 39.1302V35.3816C32.1738 34.6996 32.7267 34.1467 33.4087 34.1467H48.1829C48.8649 34.1467 49.4178 34.6996 49.4178 35.3816V39.1302C49.4178 39.8122 48.8649 40.3651 48.1829 40.3651H45.0532M37.6431 37.256H44.8495M37.6431 48.1291H44.8495M37.6431 3.87085H44.8495M48.183 29.1091H33.4087C32.7267 29.1091 32.1738 28.5562 32.1738 27.8742V24.1257C32.1738 23.4437 32.7267 22.8908 33.4087 22.8908H48.1829C48.8649 22.8908 49.4178 23.4437 49.4178 24.1257V27.8742C49.4179 28.5563 48.865 29.1091 48.183 29.1091ZM48.183 51.2383H33.4087C32.7267 51.2383 32.1738 50.6854 32.1738 50.0034V46.2548C32.1738 45.5728 32.7267 45.0199 33.4087 45.0199H48.1829C48.8649 45.0199 49.4178 45.5728 49.4178 46.2548V50.0034C49.4179 50.6854 48.865 51.2383 48.183 51.2383ZM48.183 6.97998H33.4087C32.7267 6.97998 32.1738 6.42708 32.1738 5.74509V1.99662C32.1738 1.31463 32.7267 0.761719 33.4087 0.761719H48.1829C48.8649 0.761719 49.4178 1.31463 49.4178 1.99662V5.74519C49.4179 6.42718 48.865 6.97998 48.183 6.97998Z" stroke="white" stroke-miterlimit="10" stroke-linecap="round" stroke-linejoin="round"/>
<path d="M42.0065 13.6349H50.183C50.865 13.6349 51.4179 14.1878 51.4179 14.8698V18.6184C51.4179 19.3004 50.865 19.8533 50.183 19.8533H35.4087C34.7267 19.8533 34.1738 19.3004 34.1738 18.6184V14.8698C34.1738 14.1878 34.7267 13.6349 35.4087 13.6349H38.5531M39.6431 16.744H46.8495H39.6431ZM50.183 31.1091H35.4087C34.7267 31.1091 34.1738 30.5562 34.1738 29.8742V26.1257C34.1738 25.4437 34.7267 24.8908 35.4087 24.8908H50.1829C50.8649 24.8908 51.4178 25.4437 51.4178 26.1257V29.8742C51.4179 30.5563 50.865 31.1091 50.183 31.1091ZM39.6431 28H46.8495H39.6431ZM43.5998 42.3651H35.4087C34.7267 42.3651 34.1738 41.8122 34.1738 41.1302V37.3816C34.1738 36.6996 34.7267 36.1467 35.4087 36.1467H50.1829C50.8649 36.1467 51.4178 36.6996 51.4178 37.3816V41.1302C51.4178 41.8122 50.8649 42.3651 50.1829 42.3651H47.0532M39.6431 39.256H46.8495H39.6431ZM50.183 53.2383H35.4087C34.7267 53.2383 34.1738 52.6854 34.1738 52.0034V48.2548C34.1738 47.5728 34.7267 47.0199 35.4087 47.0199H50.1829C50.8649 47.0199 51.4178 47.5728 51.4178 48.2548V52.0034C51.4179 52.6854 50.865 53.2383 50.183 53.2383ZM39.6431 50.1291H46.8495H39.6431ZM50.183 8.97998H35.4087C34.7267 8.97998 34.1738 8.42708 34.1738 7.74509V3.99662C34.1738 3.31463 34.7267 2.76172 35.4087 2.76172H50.1829C50.8649 2.76172 51.4178 3.31463 51.4178 3.99662V7.74519C51.4179 8.42718 50.865 8.97998 50.183 8.97998ZM39.6431 5.87085H46.8495H39.6431Z" fill="white" fill-opacity="0.1"/>
</g>
<defs>
<clipPath id="clip0_1862_7752">
<rect width="52" height="52" fill="white"/>
</clipPath>
</defs>
</svg>
