<svg width="50" height="50" viewBox="0 0 50 50" fill="none" xmlns="http://www.w3.org/2000/svg">
<path d="M45.4631 18.3183C44.7334 16.0598 45.0079 13.2662 43.6464 11.3862C42.2713 9.48748 39.5331 8.89276 37.6436 7.51102C35.7729 6.14277 34.3713 3.70176 32.1236 2.96836C29.955 2.26075 27.4032 3.38457 24.9999 3.38457C22.5966 3.38457 20.0448 2.26075 17.8762 2.96836C15.6287 3.70176 14.2272 6.14267 12.3564 7.51083C10.467 8.89266 7.72879 9.48729 6.3537 11.386C4.99208 13.266 5.26659 16.0598 4.53671 18.3183C3.83261 20.4975 1.95312 22.5849 1.95312 25C1.95312 27.4152 3.83261 29.5026 4.53681 31.6818C5.26649 33.9403 4.99198 36.734 6.3535 38.6139C7.7286 40.5127 10.4668 41.1073 12.3562 42.4891C14.227 43.8574 15.6286 46.2984 17.8762 47.0317C20.0449 47.7394 22.5966 46.6156 24.9999 46.6156C27.4032 46.6156 29.9551 47.7394 32.1236 47.0317C34.3712 46.2984 35.7728 43.8574 37.6435 42.4893C39.5329 41.1075 42.2711 40.5128 43.6463 38.6142C45.0078 36.7342 44.7333 33.9404 45.4632 31.6818C46.1673 29.5026 48.0467 27.4152 48.0467 25C48.0467 22.5849 46.1673 20.4975 45.4631 18.3183Z" fill="url(#paint0_linear_1520_1210)"/>
<path d="M17.3828 24.4298L22.8413 29.8882L32.6171 20.1123" stroke="#0E3572" stroke-width="2.5" stroke-miterlimit="10" stroke-linecap="round" stroke-linejoin="round"/>
<defs>
<linearGradient id="paint0_linear_1520_1210" x1="24.9999" y1="2.7345" x2="24.9999" y2="47.2656" gradientUnits="userSpaceOnUse">
<stop stop-color="white"/>
<stop offset="1" stop-color="white" stop-opacity="0.6"/>
</linearGradient>
</defs>
</svg>
