<svg width="458" height="337" viewBox="0 0 458 337" fill="none" xmlns="http://www.w3.org/2000/svg">
<g clip-path="url(#clip0_1413_1137)">
<rect width="457.126" height="336.089" rx="11.2593" fill="white"/>
<g opacity="0.5">
<mask id="mask0_1413_1137" style="mask-type:alpha" maskUnits="userSpaceOnUse" x="-257" y="-171" width="1080" height="625">
<rect width="623.237" height="623.237" transform="matrix(0.866025 0.5 -0.866025 0.5 282.887 -170.062)" fill="url(#paint0_radial_1413_1137)"/>
</mask>
<g mask="url(#mask0_1413_1137)">
<path d="M270.417 -162.27L-243.546 134.467" stroke="#B3B3B3" stroke-width="1.17284"/>
<path d="M292.907 -149.287L-221.057 147.45" stroke="#B3B3B3" stroke-width="1.17284"/>
<path d="M315.396 -136.302L-198.568 160.436" stroke="#B3B3B3" stroke-width="1.17284"/>
<path d="M337.885 -123.318L-176.079 173.419" stroke="#B3B3B3" stroke-width="1.17284"/>
<path d="M360.373 -110.334L-153.591 186.403" stroke="#B3B3B3" stroke-width="1.17284"/>
<path d="M382.864 -97.3494L-131.1 199.388" stroke="#B3B3B3" stroke-width="1.17284"/>
<path d="M405.351 -84.365L-108.612 212.372" stroke="#B3B3B3" stroke-width="1.17284"/>
<path d="M427.84 -71.3821L-86.1237 225.355" stroke="#B3B3B3" stroke-width="1.17284"/>
<path d="M450.332 -58.3972L-63.6315 238.34" stroke="#B3B3B3" stroke-width="1.17284"/>
<path d="M472.82 -45.4131L-41.1442 251.324" stroke="#B3B3B3" stroke-width="1.17284"/>
<path d="M495.308 -32.4294L-18.6554 264.308" stroke="#B3B3B3" stroke-width="1.17284"/>
<path d="M517.797 -19.4448L3.83325 277.292" stroke="#B3B3B3" stroke-width="1.17284"/>
<path d="M540.287 -6.46069L26.3235 290.276" stroke="#B3B3B3" stroke-width="1.17284"/>
<path d="M562.777 6.52246L48.8127 303.26" stroke="#B3B3B3" stroke-width="1.17284"/>
<path d="M585.267 19.5076L71.3029 316.245" stroke="#B3B3B3" stroke-width="1.17284"/>
<path d="M607.754 32.4912L93.7903 329.228" stroke="#B3B3B3" stroke-width="1.17284"/>
<path d="M630.245 45.4746L116.281 342.212" stroke="#B3B3B3" stroke-width="1.17284"/>
<path d="M652.732 58.4592L138.768 355.196" stroke="#B3B3B3" stroke-width="1.17284"/>
<path d="M675.223 71.4438L161.259 368.181" stroke="#B3B3B3" stroke-width="1.17284"/>
<path d="M697.71 84.4272L183.746 381.164" stroke="#B3B3B3" stroke-width="1.17284"/>
<path d="M720.2 97.4119L206.236 394.149" stroke="#B3B3B3" stroke-width="1.17284"/>
<path d="M742.689 110.396L228.726 407.133" stroke="#B3B3B3" stroke-width="1.17284"/>
<path d="M765.18 123.38L251.216 420.117" stroke="#B3B3B3" stroke-width="1.17284"/>
<path d="M787.667 136.365L273.703 433.102" stroke="#B3B3B3" stroke-width="1.17284"/>
<path d="M810.157 149.348L296.193 446.086" stroke="#B3B3B3" stroke-width="1.17284"/>
<path d="M270.417 -162.27L810.156 149.348" stroke="#B3B3B3" stroke-width="1.17284"/>
<path d="M249.001 -149.906L788.74 161.712" stroke="#B3B3B3" stroke-width="1.17284"/>
<path d="M227.587 -137.542L767.326 174.076" stroke="#B3B3B3" stroke-width="1.17284"/>
<path d="M206.171 -125.178L745.91 186.44" stroke="#B3B3B3" stroke-width="1.17284"/>
<path d="M184.757 -112.814L724.496 198.805" stroke="#B3B3B3" stroke-width="1.17284"/>
<path d="M163.341 -100.45L703.08 211.168" stroke="#B3B3B3" stroke-width="1.17284"/>
<path d="M141.927 -88.0854L681.666 223.533" stroke="#B3B3B3" stroke-width="1.17284"/>
<path d="M120.511 -75.7214L660.25 235.897" stroke="#B3B3B3" stroke-width="1.17284"/>
<path d="M99.096 -63.3577L638.835 248.261" stroke="#B3B3B3" stroke-width="1.17284"/>
<path d="M77.6815 -50.9941L617.421 260.624" stroke="#B3B3B3" stroke-width="1.17284"/>
<path d="M56.2661 -38.6287L596.005 272.99" stroke="#B3B3B3" stroke-width="1.17284"/>
<path d="M34.85 -26.2661L574.589 285.352" stroke="#B3B3B3" stroke-width="1.17284"/>
<path d="M13.4359 -13.9014L553.175 297.717" stroke="#B3B3B3" stroke-width="1.17284"/>
<path d="M-7.97998 -1.53711L531.759 310.081" stroke="#B3B3B3" stroke-width="1.17284"/>
<path d="M-29.3949 10.8264L510.344 322.445" stroke="#B3B3B3" stroke-width="1.17284"/>
<path d="M-50.8091 23.1907L488.93 334.809M151.592 140.047C151.592 140.047 165.299 147.961 174.081 153.031" stroke="#B3B3B3" stroke-width="1.17284"/>
<path d="M-72.2057 35.5471L467.533 347.166" stroke="#B3B3B3" stroke-width="1.17284"/>
<path d="M-93.6207 47.9102L446.118 359.529" stroke="#B3B3B3" stroke-width="1.17284"/>
<path d="M-115.037 60.2739L424.702 371.892" stroke="#B3B3B3" stroke-width="1.17284"/>
<path d="M-136.451 72.6379L403.288 384.256" stroke="#B3B3B3" stroke-width="1.17284"/>
<path d="M-157.866 85.0024L381.873 396.621" stroke="#B3B3B3" stroke-width="1.17284"/>
<path d="M-179.28 97.3657L360.459 408.984" stroke="#B3B3B3" stroke-width="1.17284"/>
<path d="M-200.696 109.73L339.043 421.348" stroke="#B3B3B3" stroke-width="1.17284"/>
<path d="M-222.111 122.094L317.628 433.713" stroke="#B3B3B3" stroke-width="1.17284"/>
<path d="M-243.526 134.458L296.213 446.076" stroke="#B3B3B3" stroke-width="1.17284"/>
</g>
</g>
<path d="M287.646 243.62L308.513 231.586L330.354 244.285L288.518 268.51L175.186 202.555L195.852 190.636L287.646 243.62Z" fill="white"/>
<path d="M287.646 243.62L308.513 231.586L330.354 244.285L288.518 268.51L175.186 202.555L195.852 190.636L287.646 243.62Z" fill="#CFD7E3"/>
<path d="M196.982 191.783L286.227 243.2" stroke="#0E3572" stroke-width="0.58642" stroke-dasharray="1.17 1.17"/>
<path d="M177.099 203.417L288.518 267.924" stroke="#0E3572" stroke-width="0.58642" stroke-dasharray="1.17 1.17"/>
<line x1="287.194" y1="244.215" x2="378.676" y2="189.092" stroke="#0E3572" stroke-width="0.58642" stroke-dasharray="1.17 1.17"/>
<line x1="289.544" y1="267.67" x2="396.272" y2="205.509" stroke="#0E3572" stroke-width="0.58642" stroke-dasharray="1.17 1.17"/>
<mask id="path-58-inside-1_1413_1137" fill="white">
<path d="M390.214 204.15L418.565 204.212V220.356L353.826 258.025L289.144 220.715L288.519 220.356L288.52 220.355V203.929L316.935 203.991L353.436 182.97L390.214 204.15Z"/>
</mask>
<path d="M390.214 204.15L418.565 204.212V220.356L353.826 258.025L289.144 220.715L288.519 220.356L288.52 220.355V203.929L316.935 203.991L353.436 182.97L390.214 204.15Z" fill="url(#paint1_linear_1413_1137)"/>
<path d="M390.214 204.15L389.868 204.751L390.028 204.844L390.212 204.844L390.214 204.15ZM418.565 204.212H419.259V203.52L418.566 203.518L418.565 204.212ZM418.565 220.356L418.914 220.956L419.259 220.755V220.356H418.565ZM353.826 258.025L353.48 258.626L353.828 258.827L354.175 258.625L353.826 258.025ZM289.144 220.715L289.49 220.114L289.49 220.114L289.144 220.715ZM288.519 220.356L288.028 219.865L287.387 220.506L288.173 220.958L288.519 220.356ZM288.52 220.355L289.01 220.846L289.214 220.642V220.355H288.52ZM288.52 203.929L288.521 203.235L287.826 203.234V203.929H288.52ZM316.935 203.991L316.933 204.685L317.12 204.685L317.281 204.592L316.935 203.991ZM353.436 182.97L353.782 182.369L353.436 182.169L353.089 182.369L353.436 182.97ZM390.214 204.15L390.212 204.844L418.563 204.906L418.565 204.212L418.566 203.518L390.216 203.456L390.214 204.15ZM418.565 204.212H417.871V220.356H418.565H419.259V204.212H418.565ZM418.565 220.356L418.216 219.756L353.477 257.425L353.826 258.025L354.175 258.625L418.914 220.956L418.565 220.356ZM353.826 258.025L354.173 257.424L289.49 220.114L289.144 220.715L288.797 221.317L353.48 258.626L353.826 258.025ZM289.144 220.715L289.49 220.114L288.865 219.754L288.519 220.356L288.173 220.958L288.798 221.317L289.144 220.715ZM288.519 220.356L289.009 220.847L289.01 220.846L288.52 220.355L288.029 219.864L288.028 219.865L288.519 220.356ZM288.52 220.355H289.214V203.929H288.52H287.826V220.355H288.52ZM288.52 203.929L288.518 204.623L316.933 204.685L316.935 203.991L316.936 203.297L288.521 203.235L288.52 203.929ZM316.935 203.991L317.281 204.592L353.782 183.572L353.436 182.97L353.089 182.369L316.588 203.389L316.935 203.991ZM353.436 182.97L353.089 183.572L389.868 204.751L390.214 204.15L390.56 203.548L353.782 182.369L353.436 182.97Z" fill="#0E3572" mask="url(#path-58-inside-1_1413_1137)"/>
<path d="M417.863 204.21L353.437 240.914L289.215 203.929L353.436 166.945L417.863 204.21Z" fill="#0E3572" stroke="#0E3572" stroke-width="0.804384"/>
<path d="M331.8 211.79L324.156 207.557L327.345 205.715C327.846 205.425 328.361 205.228 328.891 205.123C329.421 205.011 329.941 204.989 330.453 205.057C330.964 205.118 331.445 205.274 331.896 205.524C332.245 205.717 332.479 205.953 332.597 206.233C332.715 206.505 332.67 206.814 332.462 207.158L331.816 206.8C332.332 206.665 332.804 206.593 333.233 206.586C333.662 206.578 334.05 206.62 334.398 206.714C334.746 206.807 335.064 206.933 335.351 207.092C336.083 207.497 336.417 207.954 336.353 208.463C336.29 208.964 335.835 209.459 334.989 209.948L331.8 211.79ZM331.95 210.31L333.9 209.184C334.258 208.976 334.444 208.757 334.455 208.526C334.467 208.287 334.305 208.075 333.97 207.89C333.634 207.704 333.256 207.617 332.834 207.629C332.419 207.636 332.032 207.744 331.673 207.951L329.723 209.077L331.95 210.31ZM328.502 208.401L330.381 207.316C330.665 207.152 330.81 206.975 330.815 206.786C330.814 206.594 330.679 206.424 330.413 206.276C330.146 206.128 329.849 206.06 329.522 206.07C329.196 206.081 328.89 206.169 328.606 206.333L326.727 207.418L328.502 208.401ZM340.803 206.728C340.377 206.975 339.909 207.137 339.399 207.215C338.896 207.288 338.389 207.28 337.877 207.188C337.373 207.092 336.892 206.918 336.433 206.664L333.017 204.772L334.347 204.003L337.651 205.833C337.883 205.962 338.133 206.05 338.398 206.098C338.664 206.138 338.933 206.137 339.205 206.096C339.477 206.047 339.721 205.961 339.938 205.835C340.154 205.71 340.299 205.572 340.373 205.422C340.44 205.267 340.431 205.113 340.348 204.96C340.265 204.807 340.101 204.662 339.854 204.525L336.581 202.713L337.912 201.944L343.493 205.035L342.234 205.763L341.136 205.155L341.443 205.198C341.656 205.462 341.699 205.727 341.572 205.994C341.452 206.257 341.196 206.502 340.803 206.728ZM344.73 204.321L339.148 201.23L340.479 200.462L346.06 203.552L344.73 204.321ZM338.523 200.883L337.086 200.088L338.417 199.32L339.853 200.115L338.523 200.883ZM347.289 202.843L339.522 198.542L340.852 197.773L348.619 202.074L347.289 202.843ZM352.54 199.949C352.005 200.258 351.401 200.464 350.729 200.566C350.049 200.664 349.365 200.661 348.676 200.556C347.988 200.45 347.374 200.248 346.833 199.949C346.286 199.646 345.916 199.302 345.722 198.919C345.528 198.536 345.51 198.151 345.67 197.765C345.837 197.374 346.181 197.029 346.702 196.728C347.122 196.485 347.58 196.317 348.076 196.224C348.572 196.124 349.065 196.102 349.556 196.159L349.629 196.43L346.336 194.606L347.666 193.837L355.433 198.138L354.174 198.866L353.097 198.269L353.506 198.335C353.617 198.611 353.586 198.892 353.411 199.179C353.23 199.461 352.94 199.718 352.54 199.949ZM351.451 199.185C351.756 199.009 351.951 198.815 352.038 198.602C352.125 198.39 352.106 198.176 351.981 197.962C351.863 197.743 351.64 197.543 351.312 197.362C350.991 197.183 350.636 197.064 350.247 197.002C349.859 196.932 349.477 196.924 349.104 196.977C348.73 197.031 348.39 197.145 348.086 197.321C347.788 197.493 347.596 197.69 347.509 197.91C347.416 198.126 347.428 198.344 347.546 198.562C347.663 198.773 347.886 198.969 348.215 199.151C348.543 199.333 348.898 199.456 349.28 199.522C349.668 199.584 350.053 199.586 350.433 199.529C350.814 199.472 351.153 199.357 351.451 199.185ZM356.671 197.424L351.09 194.333L352.42 193.564L358.002 196.655L356.671 197.424ZM350.464 193.986L349.027 193.191L350.358 192.422L351.794 193.218L350.464 193.986ZM359.23 195.946L353.648 192.855L354.898 192.133L355.995 192.741L355.699 192.692C355.492 192.432 355.449 192.17 355.569 191.908C355.689 191.637 355.946 191.388 356.338 191.162C356.745 190.927 357.192 190.769 357.682 190.687C358.178 190.602 358.675 190.598 359.172 190.674C359.663 190.747 360.117 190.898 360.534 191.129L364.125 193.118L362.795 193.886L359.522 192.074C359.275 191.938 359.016 191.848 358.743 191.804C358.471 191.76 358.202 191.761 357.937 191.805C357.672 191.842 357.427 191.925 357.204 192.055C356.987 192.18 356.846 192.32 356.779 192.474C356.706 192.625 356.71 192.777 356.793 192.93C356.876 193.083 357.041 193.228 357.287 193.365L360.56 195.177L359.23 195.946ZM370.189 192.169C369.776 192.408 369.325 192.591 368.836 192.719C368.347 192.846 367.851 192.916 367.347 192.929C366.857 192.941 366.39 192.889 365.947 192.774L366.714 191.797C367.055 191.894 367.423 191.917 367.817 191.868C368.225 191.818 368.605 191.691 368.957 191.488C369.228 191.331 369.414 191.166 369.514 190.992C369.622 190.814 369.634 190.637 369.55 190.46C369.474 190.288 369.299 190.126 369.025 189.974L367.753 189.27L368.315 189.293C368.46 189.589 368.459 189.875 368.312 190.154C368.165 190.432 367.888 190.689 367.482 190.924C366.968 191.221 366.387 191.42 365.742 191.522C365.096 191.625 364.45 191.627 363.802 191.528C363.155 191.43 362.571 191.237 362.051 190.95C361.524 190.658 361.171 190.332 360.991 189.972C360.811 189.611 360.804 189.252 360.971 188.892C361.131 188.529 361.465 188.2 361.973 187.907C362.386 187.669 362.837 187.509 363.326 187.427C363.815 187.338 364.329 187.324 364.867 187.384L365.023 187.677L363.792 186.996L365.051 186.268L370.356 189.206C370.841 189.475 371.157 189.784 371.303 190.133C371.456 190.478 371.439 190.828 371.252 191.184C371.071 191.536 370.717 191.864 370.189 192.169ZM366.403 190.142C366.687 189.978 366.873 189.801 366.96 189.612C367.046 189.415 367.038 189.218 366.934 189.023C366.83 188.828 366.631 188.648 366.337 188.486C366.05 188.326 365.729 188.222 365.375 188.171C365.02 188.112 364.67 188.11 364.323 188.163C363.983 188.212 363.674 188.317 363.397 188.477C363.119 188.638 362.934 188.818 362.84 189.019C362.747 189.221 362.752 189.423 362.856 189.626C362.96 189.821 363.155 189.998 363.443 190.157C363.73 190.316 364.047 190.423 364.395 190.478C364.749 190.529 365.1 190.527 365.446 190.474C365.8 190.417 366.119 190.306 366.403 190.142ZM353.65 214.015L346.006 209.782L347.326 209.02L354.048 209.536L353.419 209.9L352.303 206.145L353.623 205.383L361.267 209.615L359.875 210.419L353.822 207.067L354.493 206.83L355.487 210.632L355.325 210.726L348.654 210.203L348.977 209.865L355.031 213.217L353.65 214.015ZM364.736 207.612L354.451 204.904L355.954 204.036L364.357 206.345L364.062 206.515L359.803 201.812L361.307 200.944L366.32 206.697L364.736 207.612ZM369.796 204.689L362.152 200.456L364.976 198.825C365.49 198.528 366.039 198.319 366.624 198.198C367.208 198.07 367.793 198.041 368.379 198.113C368.958 198.181 369.504 198.357 370.017 198.641C370.523 198.921 370.842 199.228 370.975 199.562C371.107 199.888 371.073 200.217 370.871 200.55C370.67 200.883 370.312 201.198 369.798 201.495L368.356 202.328L371.177 203.891L369.796 204.689ZM367.124 201.647L368.587 200.802C368.837 200.657 369.006 200.505 369.093 200.347C369.173 200.184 369.175 200.025 369.099 199.868C369.023 199.71 368.868 199.567 368.636 199.439C368.396 199.306 368.14 199.222 367.868 199.186C367.589 199.146 367.31 199.152 367.031 199.205C366.746 199.254 366.478 199.35 366.227 199.495L364.765 200.34L367.124 201.647Z" fill="#FFFAFA"/>
<mask id="path-62-inside-2_1413_1137" fill="white">
<path d="M271.198 86.3435L280.491 86.364V91.6306L275.7 94.3884L259.845 103.534L239.259 91.6306L239.267 91.6257V86.2742L248.27 86.2937L259.54 79.6199L271.198 86.3435Z"/>
</mask>
<path d="M271.198 86.3435L280.491 86.364V91.6306L275.7 94.3884L259.845 103.534L239.259 91.6306L239.267 91.6257V86.2742L248.27 86.2937L259.54 79.6199L271.198 86.3435Z" fill="white"/>
<path d="M271.198 86.3435L271.022 86.6483L271.103 86.6951L271.197 86.6954L271.198 86.3435ZM280.491 86.364H280.843V86.0129L280.492 86.0122L280.491 86.364ZM280.491 91.6306L280.667 91.9356L280.843 91.8341V91.6306H280.491ZM275.7 94.3884L275.525 94.0835L275.525 94.0836L275.7 94.3884ZM259.845 103.534L259.669 103.839L259.845 103.94L260.021 103.839L259.845 103.534ZM239.259 91.6306L239.073 91.3322L238.576 91.6423L239.083 91.9352L239.259 91.6306ZM239.267 91.6257L239.453 91.9241L239.619 91.8207V91.6257H239.267ZM239.267 86.2742L239.268 85.9223L238.915 85.9216V86.2742H239.267ZM248.27 86.2937L248.269 86.6456L248.366 86.6458L248.449 86.5965L248.27 86.2937ZM259.54 79.6199L259.716 79.3151L259.538 79.2123L259.361 79.3171L259.54 79.6199ZM271.198 86.3435L271.197 86.6954L280.491 86.7159L280.491 86.364L280.492 86.0122L271.198 85.9917L271.198 86.3435ZM280.491 86.364H280.14V91.6306H280.491H280.843V86.364H280.491ZM280.491 91.6306L280.316 91.3257L275.525 94.0835L275.7 94.3884L275.876 94.6934L280.667 91.9356L280.491 91.6306ZM275.7 94.3884L275.525 94.0836L259.669 103.229L259.845 103.534L260.021 103.839L275.876 94.6932L275.7 94.3884ZM259.845 103.534L260.021 103.229L239.435 91.326L239.259 91.6306L239.083 91.9352L259.669 103.839L259.845 103.534ZM239.259 91.6306L239.446 91.929L239.453 91.9241L239.267 91.6257L239.08 91.3274L239.073 91.3322L239.259 91.6306ZM239.267 91.6257H239.619V86.2742H239.267H238.915V91.6257H239.267ZM239.267 86.2742L239.266 86.626L248.269 86.6456L248.27 86.2937L248.271 85.9419L239.268 85.9223L239.267 86.2742ZM248.27 86.2937L248.449 86.5965L259.72 79.9226L259.54 79.6199L259.361 79.3171L248.09 85.9909L248.27 86.2937ZM259.54 79.6199L259.364 79.9247L271.022 86.6483L271.198 86.3435L271.373 86.0387L259.716 79.3151L259.54 79.6199Z" fill="#0E3572" mask="url(#path-62-inside-2_1413_1137)"/>
<path d="M280.187 86.3631L259.848 97.9675L239.573 86.2738L259.847 74.5807L280.187 86.3631Z" fill="white"/>
<path d="M280.187 86.3631L259.848 97.9675L239.573 86.2738L259.847 74.5807L280.187 86.3631Z" fill="#ED1C24" fill-opacity="0.1"/>
<path d="M280.187 86.3631L259.848 97.9675L239.573 86.2738L259.847 74.5807L280.187 86.3631Z" stroke="#0E3572" stroke-width="0.351852"/>
<g clip-path="url(#clip1_1413_1137)">
<path d="M267.053 84.8203L267.792 84.3938L270.629 84.6802L271.125 86.318L264.977 89.8674L264.977 89.8673" stroke="#ED1C24" stroke-width="0.58642" stroke-miterlimit="10" stroke-linecap="round" stroke-linejoin="round"/>
<path d="M260.019 92.7297L259.02 93.3068C258.728 93.475 258.256 93.475 257.965 93.3068L255.687 91.9918C255.396 91.8236 255.395 91.5508 255.687 91.3826L256.235 91.066C254.983 90.8274 253.836 90.4212 252.877 89.8673C251.261 88.9343 250.371 87.6938 250.37 86.3743C250.371 85.0548 251.261 83.8143 252.877 82.8813C253.228 82.6786 254.002 82.3335 254.002 82.3335M255.009 81.9801C255.009 81.9801 257.541 81.4343 258.927 81.4343C261.213 81.4343 263.361 81.948 264.977 82.8811C266.593 83.8142 267.483 85.0546 267.483 86.3743C267.483 87.6937 266.593 88.9343 264.977 89.8673L260.85 92.2503M261.644 87.9432C260.146 88.8083 257.708 88.8083 256.209 87.9432C254.711 87.0781 254.711 85.6704 256.209 84.8053C257.708 83.9402 260.146 83.9402 261.644 84.8053C263.143 85.6704 263.143 87.0781 261.644 87.9432Z" stroke="#ED1C24" stroke-width="0.58642" stroke-miterlimit="10" stroke-linecap="round" stroke-linejoin="round"/>
<path d="M256.235 91.0659L261.644 87.943" stroke="#ED1C24" stroke-width="0.58642" stroke-miterlimit="10" stroke-linecap="round" stroke-linejoin="round"/>
<path d="M259.087 89.4193L261.924 89.7057L262.42 91.3435" stroke="#ED1C24" stroke-width="0.58642" stroke-miterlimit="10" stroke-linecap="round" stroke-linejoin="round"/>
<path d="M256.209 84.805L253.373 84.5186L252.876 82.8809" stroke="#ED1C24" stroke-width="0.58642" stroke-miterlimit="10" stroke-linecap="round" stroke-linejoin="round"/>
</g>
<mask id="path-70-inside-3_1413_1137" fill="white">
<path d="M78.8521 223.05L88.146 223.07V228.337L83.355 231.094L67.4995 240.24L46.9136 228.337L46.9214 228.332V222.979L55.9263 222.999L67.1948 216.326L78.8521 223.05Z"/>
</mask>
<path d="M78.8521 223.05L88.146 223.07V228.337L83.355 231.094L67.4995 240.24L46.9136 228.337L46.9214 228.332V222.979L55.9263 222.999L67.1948 216.326L78.8521 223.05Z" fill="white"/>
<path d="M78.8521 223.05L78.6763 223.354L78.7575 223.401L78.8513 223.401L78.8521 223.05ZM88.146 223.07H88.4978V222.719L88.1468 222.718L88.146 223.07ZM88.146 228.337L88.3215 228.642L88.4978 228.54V228.337H88.146ZM83.355 231.094L83.1795 230.79L83.1792 230.79L83.355 231.094ZM67.4995 240.24L67.3234 240.545L67.4993 240.646L67.6753 240.545L67.4995 240.24ZM46.9136 228.337L46.7271 228.038L46.2309 228.348L46.7374 228.641L46.9136 228.337ZM46.9214 228.332L47.1079 228.63L47.2732 228.527V228.332H46.9214ZM46.9214 222.979L46.9221 222.627L46.5695 222.627V222.979H46.9214ZM55.9263 222.999L55.9255 223.351L56.0223 223.351L56.1055 223.302L55.9263 222.999ZM67.1948 216.326L67.3706 216.021L67.1925 215.918L67.0155 216.023L67.1948 216.326ZM78.8521 223.05L78.8513 223.401L88.1452 223.422L88.146 223.07L88.1468 222.718L78.8528 222.698L78.8521 223.05ZM88.146 223.07H87.7941V228.337H88.146H88.4978V223.07H88.146ZM88.146 228.337L87.9705 228.032L83.1795 230.79L83.355 231.094L83.5305 231.399L88.3215 228.642L88.146 228.337ZM83.355 231.094L83.1792 230.79L67.3237 239.935L67.4995 240.24L67.6753 240.545L83.5308 231.399L83.355 231.094ZM67.4995 240.24L67.6756 239.935L47.0897 228.032L46.9136 228.337L46.7374 228.641L67.3234 240.545L67.4995 240.24ZM46.9136 228.337L47.1001 228.635L47.1079 228.63L46.9214 228.332L46.7349 228.033L46.7271 228.038L46.9136 228.337ZM46.9214 228.332H47.2732V222.979H46.9214H46.5695V228.332H46.9214ZM46.9214 222.979L46.9206 223.331L55.9255 223.351L55.9263 222.999L55.927 222.647L46.9221 222.627L46.9214 222.979ZM55.9263 222.999L56.1055 223.302L67.3741 216.629L67.1948 216.326L67.0155 216.023L55.747 222.696L55.9263 222.999ZM67.1948 216.326L67.019 216.631L78.6763 223.354L78.8521 223.05L79.0278 222.745L67.3706 216.021L67.1948 216.326Z" fill="#0E3572" mask="url(#path-70-inside-3_1413_1137)"/>
<path d="M87.8418 223.069L67.5019 234.673L47.2271 222.979L67.501 211.286L87.8418 223.069Z" fill="white"/>
<path d="M87.8418 223.069L67.5019 234.673L47.2271 222.979L67.501 211.286L87.8418 223.069Z" fill="#ED1C24" fill-opacity="0.1"/>
<path d="M87.8418 223.069L67.5019 234.673L47.2271 222.979L67.501 211.286L87.8418 223.069Z" stroke="#0E3572" stroke-width="0.351852"/>
<g clip-path="url(#clip2_1413_1137)">
<path d="M77.0024 224.86L71.67 227.938M68.1428 219.68L70.3186 219.679C70.9681 219.678 71.4938 219.982 71.4928 220.357L71.4756 221.605M62.7548 222.791L62.7522 224.047C62.7512 224.422 63.2769 224.726 63.9264 224.725L66.0875 224.715M68.6982 223.849L65.5321 220.546M71.3367 217.099L75.8915 219.728C77.4254 220.614 77.4254 222.05 75.8915 222.935L68.3366 227.297C66.803 228.183 64.3167 228.183 62.7831 227.297L58.2277 224.667C56.6938 223.782 56.6938 222.346 58.2277 221.46L65.782 217.099C67.3159 216.213 69.8028 216.213 71.3367 217.099Z" stroke="#ED1C24" stroke-width="0.58642" stroke-miterlimit="10" stroke-linecap="round" stroke-linejoin="round"/>
</g>
<mask id="path-74-inside-4_1413_1137" fill="white">
<path d="M294.654 125.047L303.948 125.068V130.334L299.157 133.092L283.302 142.238L262.716 130.334L262.724 130.33V124.978L271.727 124.998L282.997 118.324L294.654 125.047Z"/>
</mask>
<path d="M294.654 125.047L303.948 125.068V130.334L299.157 133.092L283.302 142.238L262.716 130.334L262.724 130.33V124.978L271.727 124.998L282.997 118.324L294.654 125.047Z" fill="white"/>
<path d="M294.654 125.047L294.479 125.352L294.56 125.399L294.654 125.399L294.654 125.047ZM303.948 125.068H304.3V124.717L303.949 124.716L303.948 125.068ZM303.948 130.334L304.124 130.639L304.3 130.538V130.334H303.948ZM299.157 133.092L298.982 132.787L298.982 132.788L299.157 133.092ZM283.302 142.238L283.126 142.542L283.302 142.644L283.478 142.543L283.302 142.238ZM262.716 130.334L262.529 130.036L262.033 130.346L262.54 130.639L262.716 130.334ZM262.724 130.33L262.91 130.628L263.076 130.525V130.33H262.724ZM262.724 124.978L262.725 124.626L262.372 124.625V124.978H262.724ZM271.727 124.998L271.726 125.349L271.823 125.35L271.906 125.3L271.727 124.998ZM282.997 118.324L283.173 118.019L282.995 117.916L282.818 118.021L282.997 118.324ZM294.654 125.047L294.654 125.399L303.948 125.42L303.948 125.068L303.949 124.716L294.655 124.696L294.654 125.047ZM303.948 125.068H303.597V130.334H303.948H304.3V125.068H303.948ZM303.948 130.334L303.773 130.03L298.982 132.787L299.157 133.092L299.333 133.397L304.124 130.639L303.948 130.334ZM299.157 133.092L298.982 132.788L283.126 141.933L283.302 142.238L283.478 142.543L299.333 133.397L299.157 133.092ZM283.302 142.238L283.478 141.933L262.892 130.03L262.716 130.334L262.54 130.639L283.126 142.542L283.302 142.238ZM262.716 130.334L262.902 130.633L262.91 130.628L262.724 130.33L262.537 130.031L262.529 130.036L262.716 130.334ZM262.724 130.33H263.076V124.978H262.724H262.372V130.33H262.724ZM262.724 124.978L262.723 125.33L271.726 125.349L271.727 124.998L271.727 124.646L262.725 124.626L262.724 124.978ZM271.727 124.998L271.906 125.3L283.176 118.626L282.997 118.324L282.818 118.021L271.547 124.695L271.727 124.998ZM282.997 118.324L282.821 118.629L294.479 125.352L294.654 125.047L294.83 124.743L283.173 118.019L282.997 118.324Z" fill="#0E3572" mask="url(#path-74-inside-4_1413_1137)"/>
<path d="M303.644 125.067L283.304 136.671L263.03 124.978L283.304 113.285L303.644 125.067Z" fill="white"/>
<path d="M303.644 125.067L283.304 136.671L263.03 124.978L283.304 113.285L303.644 125.067Z" fill="#ED1C24" fill-opacity="0.1"/>
<path d="M303.644 125.067L283.304 136.671L263.03 124.978L283.304 113.285L303.644 125.067Z" stroke="#0E3572" stroke-width="0.351852"/>
<g clip-path="url(#clip3_1413_1137)">
<path d="M274.441 121.935C271.68 123.529 271.493 126.038 274.024 127.499C275.285 128.228 276.984 128.566 278.712 128.525L278.607 130.145L283.634 127.243C286.395 125.649 286.581 123.172 284.05 121.711C281.519 120.249 277.202 120.341 274.441 121.935Z" stroke="#ED1C24" stroke-width="0.58642" stroke-miterlimit="10" stroke-linecap="round" stroke-linejoin="round"/>
<path d="M283.89 121.622C286.462 120.863 289.58 121.023 291.577 122.176C292.838 122.904 293.451 123.9 293.38 124.898L296.187 124.837L291.16 127.74C288.552 129.245 284.553 129.409 281.987 128.193" stroke="#ED1C24" stroke-width="0.58642" stroke-miterlimit="10" stroke-linecap="round" stroke-linejoin="round"/>
<path d="M274.468 124.837L279.467 121.951" stroke="#ED1C24" stroke-width="0.58642" stroke-miterlimit="10" stroke-linecap="round" stroke-linejoin="round"/>
<path d="M276.135 125.799L281.134 122.913" stroke="#ED1C24" stroke-width="0.58642" stroke-miterlimit="10" stroke-linecap="round" stroke-linejoin="round"/>
<path d="M277.801 126.761L282.8 123.875" stroke="#ED1C24" stroke-width="0.58642" stroke-miterlimit="10" stroke-linecap="round" stroke-linejoin="round"/>
</g>
<mask id="path-82-inside-5_1413_1137" fill="white">
<path d="M145.704 261.753L154.998 261.774V267.041L150.207 269.798L134.351 278.944L113.765 267.041L113.773 267.036V261.684L122.776 261.704L134.047 255.03L145.704 261.753Z"/>
</mask>
<path d="M145.704 261.753L154.998 261.774V267.041L150.207 269.798L134.351 278.944L113.765 267.041L113.773 267.036V261.684L122.776 261.704L134.047 255.03L145.704 261.753Z" fill="white"/>
<path d="M145.704 261.753L145.528 262.058L145.609 262.105L145.703 262.105L145.704 261.753ZM154.998 261.774H155.35V261.423L154.999 261.422L154.998 261.774ZM154.998 267.041L155.173 267.345L155.35 267.244V267.041H154.998ZM150.207 269.798L150.031 269.493L150.031 269.494L150.207 269.798ZM134.351 278.944L134.175 279.248L134.351 279.35L134.527 279.249L134.351 278.944ZM113.765 267.041L113.579 266.742L113.083 267.052L113.589 267.345L113.765 267.041ZM113.773 267.036L113.96 267.334L114.125 267.231V267.036H113.773ZM113.773 261.684L113.774 261.332L113.421 261.331V261.684H113.773ZM122.776 261.704L122.775 262.055L122.872 262.056L122.955 262.006L122.776 261.704ZM134.047 255.03L134.222 254.725L134.044 254.622L133.867 254.727L134.047 255.03ZM145.704 261.753L145.703 262.105L154.997 262.126L154.998 261.774L154.999 261.422L145.705 261.402L145.704 261.753ZM154.998 261.774H154.646V267.041H154.998H155.35V261.774H154.998ZM154.998 267.041L154.822 266.736L150.031 269.493L150.207 269.798L150.382 270.103L155.173 267.345L154.998 267.041ZM150.207 269.798L150.031 269.494L134.176 278.639L134.351 278.944L134.527 279.249L150.383 270.103L150.207 269.798ZM134.351 278.944L134.527 278.639L113.942 266.736L113.765 267.041L113.589 267.345L134.175 279.248L134.351 278.944ZM113.765 267.041L113.952 267.339L113.96 267.334L113.773 267.036L113.587 266.737L113.579 266.742L113.765 267.041ZM113.773 267.036H114.125V261.684H113.773H113.421V267.036H113.773ZM113.773 261.684L113.772 262.036L122.775 262.055L122.776 261.704L122.777 261.352L113.774 261.332L113.773 261.684ZM122.776 261.704L122.955 262.006L134.226 255.333L134.047 255.03L133.867 254.727L122.597 261.401L122.776 261.704ZM134.047 255.03L133.871 255.335L145.528 262.058L145.704 261.753L145.88 261.449L134.222 254.725L134.047 255.03Z" fill="#0E3572" mask="url(#path-82-inside-5_1413_1137)"/>
<path d="M154.694 261.773L134.354 273.377L114.079 261.683L134.353 249.99L154.694 261.773Z" fill="white"/>
<path d="M154.694 261.773L134.354 273.377L114.079 261.683L134.353 249.99L154.694 261.773Z" fill="#ED1C24" fill-opacity="0.1"/>
<path d="M154.694 261.773L134.354 273.377L114.079 261.683L134.353 249.99L154.694 261.773Z" stroke="#0E3572" stroke-width="0.351852"/>
<g clip-path="url(#clip4_1413_1137)">
<path d="M147.236 261.543L133.849 269.272L120.463 261.543L133.849 253.814L147.236 261.543Z" stroke="#ED1C24" stroke-width="0.58642" stroke-miterlimit="10"/>
<path d="M123.379 261.784L124.213 261.302" stroke="#ED1C24" stroke-width="0.58642" stroke-miterlimit="10"/>
<path d="M125.047 260.821L125.88 260.339" stroke="#ED1C24" stroke-width="0.58642" stroke-miterlimit="10"/>
<path d="M126.714 259.858L127.548 259.377" stroke="#ED1C24" stroke-width="0.58642" stroke-miterlimit="10"/>
<path d="M123.795 263.468L137.182 255.739" stroke="#ED1C24" stroke-width="0.58642" stroke-miterlimit="10"/>
<path d="M133.849 267.348L139.71 263.964L136.602 262.17L130.742 265.554L133.849 267.348ZM137.182 257.663L127.128 263.467L129.074 264.591L139.128 258.786L137.182 257.663ZM140.796 259.749L138.27 261.207L141.378 263.001L143.903 261.543L140.796 259.749Z" stroke="#ED1C24" stroke-width="0.58642" stroke-miterlimit="10"/>
</g>
<path d="M129.012 127.183L241.605 191.689" stroke="#0E3572" stroke-width="0.58642" stroke-dasharray="1.17 1.17"/>
<line x1="65.5313" y1="190.263" x2="172.26" y2="128.102" stroke="#0E3572" stroke-width="0.58642" stroke-dasharray="1.17 1.17"/>
<line x1="133.556" y1="228.967" x2="240.284" y2="166.806" stroke="#0E3572" stroke-width="0.58642" stroke-dasharray="1.17 1.17"/>
<mask id="path-94-inside-6_1413_1137" fill="white">
<path d="M192.004 163.101L220.354 163.163V179.307L155.615 216.975L90.9387 179.669L90.3088 179.307L90.3098 179.306V162.88L118.725 162.941L155.226 141.921L192.004 163.101Z"/>
</mask>
<path d="M192.004 163.101L220.354 163.163V179.307L155.615 216.975L90.9387 179.669L90.3088 179.307L90.3098 179.306V162.88L118.725 162.941L155.226 141.921L192.004 163.101Z" fill="url(#paint2_linear_1413_1137)"/>
<path d="M192.004 163.101L191.658 163.702L191.818 163.794L192.003 163.795L192.004 163.101ZM220.354 163.163H221.048V162.471L220.355 162.469L220.354 163.163ZM220.354 179.307L220.703 179.907L221.048 179.706V179.307H220.354ZM155.615 216.975L155.269 217.576L155.617 217.777L155.965 217.574L155.615 216.975ZM90.9387 179.669L91.2855 179.068L91.2848 179.067L90.9387 179.669ZM90.3088 179.307L89.8181 178.816L89.1775 179.457L89.9628 179.908L90.3088 179.307ZM90.3098 179.306L90.8006 179.796L91.0038 179.593V179.306H90.3098ZM90.3098 162.88L90.3113 162.186L89.6158 162.184V162.88H90.3098ZM118.725 162.941L118.723 163.635L118.91 163.636L119.071 163.543L118.725 162.941ZM155.226 141.921L155.572 141.319L155.226 141.12L154.879 141.319L155.226 141.921ZM192.004 163.101L192.003 163.795L220.352 163.857L220.354 163.163L220.355 162.469L192.006 162.407L192.004 163.101ZM220.354 163.163H219.66V179.307H220.354H221.048V163.163H220.354ZM220.354 179.307L220.005 178.707L155.266 216.375L155.615 216.975L155.965 217.574L220.703 179.907L220.354 179.307ZM155.615 216.975L155.962 216.373L91.2855 179.068L90.9387 179.669L90.592 180.27L155.269 217.576L155.615 216.975ZM90.9387 179.669L91.2848 179.067L90.6549 178.705L90.3088 179.307L89.9628 179.908L90.5927 180.271L90.9387 179.669ZM90.3088 179.307L90.7996 179.797L90.8006 179.796L90.3098 179.306L89.8191 178.815L89.8181 178.816L90.3088 179.307ZM90.3098 179.306H91.0038V162.88H90.3098H89.6158V179.306H90.3098ZM90.3098 162.88L90.3083 163.574L118.723 163.635L118.725 162.941L118.726 162.247L90.3113 162.186L90.3098 162.88ZM118.725 162.941L119.071 163.543L155.572 142.522L155.226 141.921L154.879 141.319L118.379 162.34L118.725 162.941ZM155.226 141.921L154.879 142.522L191.658 163.702L192.004 163.101L192.35 162.499L155.572 141.319L155.226 141.921Z" fill="#0E3572" mask="url(#path-94-inside-6_1413_1137)"/>
<path d="M219.653 163.161L155.227 199.865L91.0054 162.88L155.226 125.895L219.653 163.161Z" fill="white" stroke="#0E3572" stroke-width="0.804384"/>
<mask id="path-97-inside-7_1413_1137" fill="white">
<path d="M192.004 134.952L220.354 135.015V151.158L155.615 188.827L90.928 151.515L90.3088 151.158L90.3098 151.157V134.732L118.725 134.793L155.226 113.773L192.004 134.952Z"/>
</mask>
<path d="M192.004 134.952L220.354 135.015V151.158L155.615 188.827L90.928 151.515L90.3088 151.158L90.3098 151.157V134.732L118.725 134.793L155.226 113.773L192.004 134.952Z" fill="url(#paint3_linear_1413_1137)"/>
<path d="M192.004 134.952L191.658 135.554L191.818 135.646L192.003 135.646L192.004 134.952ZM220.354 135.015H221.048V134.322L220.355 134.321L220.354 135.015ZM220.354 151.158L220.703 151.758L221.048 151.558V151.158H220.354ZM155.615 188.827L155.269 189.429L155.617 189.629L155.965 189.427L155.615 188.827ZM90.928 151.515L91.2747 150.914L91.2742 150.913L90.928 151.515ZM90.3088 151.158L89.8181 150.668L89.1777 151.308L89.9626 151.76L90.3088 151.158ZM90.3098 151.157L90.8006 151.648L91.0038 151.445V151.157H90.3098ZM90.3098 134.732L90.3113 134.038L89.6158 134.036V134.732H90.3098ZM118.725 134.793L118.723 135.487L118.91 135.488L119.071 135.395L118.725 134.793ZM155.226 113.773L155.572 113.171L155.226 112.972L154.879 113.171L155.226 113.773ZM192.004 134.952L192.003 135.646L220.352 135.709L220.354 135.015L220.355 134.321L192.006 134.258L192.004 134.952ZM220.354 135.015H219.66V151.158H220.354H221.048V135.015H220.354ZM220.354 151.158L220.005 150.559L155.266 188.228L155.615 188.827L155.965 189.427L220.703 151.758L220.354 151.158ZM155.615 188.827L155.962 188.226L91.2747 150.914L90.928 151.515L90.5812 152.116L155.269 189.429L155.615 188.827ZM90.928 151.515L91.2742 150.913L90.6551 150.557L90.3088 151.158L89.9626 151.76L90.5817 152.116L90.928 151.515ZM90.3088 151.158L90.7996 151.649L90.8006 151.648L90.3098 151.157L89.8191 150.667L89.8181 150.668L90.3088 151.158ZM90.3098 151.157H91.0038V134.732H90.3098H89.6158V151.157H90.3098ZM90.3098 134.732L90.3083 135.426L118.723 135.487L118.725 134.793L118.726 134.099L90.3113 134.038L90.3098 134.732ZM118.725 134.793L119.071 135.395L155.572 114.374L155.226 113.773L154.879 113.171L118.379 134.192L118.725 134.793ZM155.226 113.773L154.879 114.374L191.658 135.554L192.004 134.952L192.35 134.351L155.572 113.171L155.226 113.773Z" fill="#0E3572" mask="url(#path-97-inside-7_1413_1137)"/>
<path d="M219.844 135.013L155.227 171.825L90.8167 134.731L155.226 97.6384L219.844 135.013Z" fill="white" stroke="#0E3572" stroke-width="0.58642"/>
<mask id="path-100-inside-8_1413_1137" fill="white">
<path d="M192.004 105.631L220.354 105.694V121.837L155.615 159.506L90.928 122.194L90.3088 121.837L90.3098 121.836V105.411L118.725 105.472L155.226 84.4517L192.004 105.631Z"/>
</mask>
<path d="M192.004 105.631L220.354 105.694V121.837L155.615 159.506L90.928 122.194L90.3088 121.837L90.3098 121.836V105.411L118.725 105.472L155.226 84.4517L192.004 105.631Z" fill="url(#paint4_linear_1413_1137)"/>
<path d="M192.004 105.631L191.658 106.233L191.818 106.325L192.003 106.325L192.004 105.631ZM220.354 105.694H221.048V105.001L220.355 105L220.354 105.694ZM220.354 121.837L220.703 122.437L221.048 122.237V121.837H220.354ZM155.615 159.506L155.269 160.108L155.617 160.308L155.965 160.106L155.615 159.506ZM90.928 122.194L91.2747 121.593L91.2742 121.592L90.928 122.194ZM90.3088 121.837L89.8181 121.347L89.1777 121.987L89.9626 122.439L90.3088 121.837ZM90.3098 121.836L90.8006 122.327L91.0038 122.124V121.836H90.3098ZM90.3098 105.411L90.3113 104.717L89.6158 104.715V105.411H90.3098ZM118.725 105.472L118.723 106.166L118.91 106.167L119.071 106.074L118.725 105.472ZM155.226 84.4517L155.572 83.8502L155.226 83.6508L154.879 83.8502L155.226 84.4517ZM192.004 105.631L192.003 106.325L220.352 106.388L220.354 105.694L220.355 105L192.006 104.937L192.004 105.631ZM220.354 105.694H219.66V121.837H220.354H221.048V105.694H220.354ZM220.354 121.837L220.005 121.238L155.266 158.906L155.615 159.506L155.965 160.106L220.703 122.437L220.354 121.837ZM155.615 159.506L155.962 158.905L91.2747 121.593L90.928 122.194L90.5812 122.795L155.269 160.108L155.615 159.506ZM90.928 122.194L91.2742 121.592L90.6551 121.236L90.3088 121.837L89.9626 122.439L90.5817 122.795L90.928 122.194ZM90.3088 121.837L90.7996 122.328L90.8006 122.327L90.3098 121.836L89.8191 121.346L89.8181 121.347L90.3088 121.837ZM90.3098 121.836H91.0038V105.411H90.3098H89.6158V121.836H90.3098ZM90.3098 105.411L90.3083 106.105L118.723 106.166L118.725 105.472L118.726 104.778L90.3113 104.717L90.3098 105.411ZM118.725 105.472L119.071 106.074L155.572 85.0531L155.226 84.4517L154.879 83.8502L118.379 104.871L118.725 105.472ZM155.226 84.4517L154.879 85.0531L191.658 106.233L192.004 105.631L192.35 105.03L155.572 83.8502L155.226 84.4517Z" fill="#0E3572" mask="url(#path-100-inside-8_1413_1137)"/>
<path d="M219.844 105.692L155.227 142.504L90.8167 105.41L155.226 68.3171L219.844 105.692Z" fill="white" stroke="#0E3572" stroke-width="0.58642"/>
<mask id="path-103-inside-9_1413_1137" fill="white">
<path d="M192.004 77.4832L220.354 77.5457V93.6892L155.616 131.358L90.928 94.0457L90.3089 93.6892L90.3099 93.6882V77.2625L118.725 77.324L155.226 56.3035L192.004 77.4832Z"/>
</mask>
<path d="M192.004 77.4832L220.354 77.5457V93.6892L155.616 131.358L90.928 94.0457L90.3089 93.6892L90.3099 93.6882V77.2625L118.725 77.324L155.226 56.3035L192.004 77.4832Z" fill="url(#paint5_linear_1413_1137)"/>
<path d="M192.004 77.4832L191.658 78.0846L191.818 78.1768L192.003 78.1772L192.004 77.4832ZM220.354 77.5457H221.048V76.8532L220.355 76.8516L220.354 77.5457ZM220.354 93.6892L220.703 94.2891L221.048 94.0883V93.6892H220.354ZM155.616 131.358L155.269 131.959L155.617 132.16L155.965 131.958L155.616 131.358ZM90.928 94.0457L91.2748 93.4445L91.2743 93.4442L90.928 94.0457ZM90.3089 93.6892L89.8182 93.1985L89.1778 93.8388L89.9626 94.2907L90.3089 93.6892ZM90.3099 93.6882L90.8006 94.179L91.0039 93.9757V93.6882H90.3099ZM90.3099 77.2625L90.3114 76.5684L89.6159 76.5669V77.2625H90.3099ZM118.725 77.324L118.723 78.018L118.91 78.0184L119.071 77.9254L118.725 77.324ZM155.226 56.3035L155.572 55.702L155.226 55.5026L154.88 55.702L155.226 56.3035ZM192.004 77.4832L192.003 78.1772L220.352 78.2397L220.354 77.5457L220.355 76.8516L192.006 76.7891L192.004 77.4832ZM220.354 77.5457H219.66V93.6892H220.354H221.048V77.5457H220.354ZM220.354 93.6892L220.005 93.0893L155.267 130.758L155.616 131.358L155.965 131.958L220.703 94.2891L220.354 93.6892ZM155.616 131.358L155.962 130.757L91.2748 93.4445L90.928 94.0457L90.5813 94.6468L155.269 131.959L155.616 131.358ZM90.928 94.0457L91.2743 93.4442L90.6552 93.0877L90.3089 93.6892L89.9626 94.2907L90.5818 94.6471L90.928 94.0457ZM90.3089 93.6892L90.7996 94.18L90.8006 94.179L90.3099 93.6882L89.8191 93.1975L89.8182 93.1985L90.3089 93.6892ZM90.3099 93.6882H91.0039V77.2625H90.3099H89.6159V93.6882H90.3099ZM90.3099 77.2625L90.3084 77.9565L118.723 78.018L118.725 77.324L118.726 76.63L90.3114 76.5684L90.3099 77.2625ZM118.725 77.324L119.071 77.9254L155.572 56.9049L155.226 56.3035L154.88 55.702L118.379 76.7226L118.725 77.324ZM155.226 56.3035L154.88 56.9049L191.658 78.0846L192.004 77.4832L192.351 76.8817L155.572 55.702L155.226 56.3035Z" fill="#0E3572" mask="url(#path-103-inside-9_1413_1137)"/>
<g filter="url(#filter0_i_1413_1137)">
<path d="M155.226 39.8767L220.353 77.5455L155.226 114.648L90.3084 77.2623L155.226 39.8767Z" fill="white"/>
</g>
<path d="M219.844 77.5441L155.227 114.356L90.8168 77.2619L155.226 40.1691L219.844 77.5441Z" stroke="#0E3572" stroke-width="0.58642"/>
<path d="M175.901 198.598V197.36L177.128 196.651C177.437 196.473 177.71 196.262 177.949 196.018C178.192 195.765 178.398 195.489 178.566 195.192C178.734 194.895 178.861 194.587 178.948 194.268C179.04 193.94 179.086 193.61 179.086 193.278C179.086 192.934 179.04 192.654 178.948 192.438C178.861 192.213 178.734 192.052 178.566 191.955C178.398 191.858 178.192 191.83 177.949 191.871C177.71 191.908 177.437 192.016 177.128 192.194L175.901 192.903V191.664L177.055 190.998C177.591 190.688 178.06 190.509 178.46 190.459C178.861 190.409 179.194 190.466 179.46 190.632C179.725 190.792 179.923 191.037 180.053 191.369C180.188 191.691 180.256 192.068 180.256 192.499V192.706C180.256 193.119 180.188 193.564 180.053 194.043C179.923 194.518 179.725 194.995 179.46 195.474C179.194 195.952 178.861 196.404 178.46 196.829C178.06 197.255 177.591 197.622 177.055 197.932L175.901 198.598ZM174.91 199.17V192.237L176.063 191.57V198.504L174.91 199.17ZM183.175 194.539C182.795 194.758 182.462 194.876 182.175 194.891C181.893 194.904 181.658 194.84 181.468 194.699C181.284 194.549 181.143 194.345 181.046 194.089C180.954 193.829 180.908 193.537 180.908 193.212V193.033C180.908 192.696 180.954 192.344 181.046 191.978C181.143 191.603 181.284 191.24 181.468 190.889C181.658 190.53 181.891 190.198 182.167 189.895C182.443 189.585 182.763 189.326 183.126 189.116C183.603 188.841 184.001 188.733 184.32 188.792C184.645 188.842 184.889 189.018 185.052 189.318C185.214 189.612 185.295 189.984 185.295 190.434V190.904L181.387 193.16V192.363L184.588 190.514L184.239 191.11C184.239 190.785 184.198 190.53 184.117 190.345C184.036 190.161 183.911 190.054 183.743 190.026C183.581 189.995 183.375 190.051 183.126 190.195C182.877 190.339 182.665 190.527 182.492 190.758C182.319 190.99 182.186 191.257 182.094 191.56C182.007 191.854 181.964 192.173 181.964 192.517C181.964 192.836 182.007 193.096 182.094 193.296C182.181 193.49 182.313 193.607 182.492 193.648C182.671 193.682 182.898 193.62 183.175 193.46C183.451 193.301 183.676 193.108 183.849 192.883C184.022 192.652 184.133 192.428 184.182 192.212L185.222 191.612C185.157 192 185.033 192.378 184.848 192.747C184.664 193.116 184.429 193.456 184.142 193.765C183.86 194.072 183.538 194.33 183.175 194.539ZM187.84 191.827C187.233 192.177 186.756 192.306 186.41 192.212C186.068 192.109 185.89 191.799 185.873 191.283L186.889 190.697C186.905 190.862 186.989 190.973 187.141 191.03C187.293 191.086 187.531 191.02 187.856 190.833C188.127 190.676 188.341 190.496 188.498 190.293C188.66 190.087 188.742 189.887 188.742 189.693C188.742 189.524 188.679 189.425 188.555 189.397C188.436 189.366 188.23 189.419 187.937 189.557L187.547 189.735C187.054 189.957 186.675 190.013 186.41 189.904C186.144 189.794 186.011 189.521 186.011 189.083C186.011 188.732 186.087 188.395 186.239 188.069C186.391 187.744 186.599 187.445 186.865 187.173C187.135 186.892 187.444 186.651 187.791 186.451C188.333 186.138 188.771 186.022 189.107 186.104C189.443 186.185 189.619 186.487 189.635 187.009L188.62 187.596C188.609 187.427 188.533 187.32 188.392 187.277C188.251 187.233 188.048 187.288 187.783 187.441C187.544 187.578 187.36 187.738 187.23 187.919C187.1 188.101 187.035 188.276 187.035 188.445C187.035 188.607 187.087 188.703 187.19 188.731C187.298 188.756 187.471 188.715 187.71 188.609L188.1 188.431C188.62 188.193 189.026 188.124 189.319 188.224C189.616 188.321 189.765 188.598 189.765 189.055C189.765 189.392 189.684 189.733 189.522 190.077C189.365 190.412 189.142 190.731 188.855 191.034C188.568 191.338 188.23 191.602 187.84 191.827ZM190.91 189.895V184.8L192.039 184.148V189.243L190.91 189.895ZM190.292 186.133V185.157L192.039 184.148V185.124L190.292 186.133ZM191.324 183.951C191.102 184.079 190.937 184.109 190.829 184.04C190.726 183.962 190.674 183.823 190.674 183.623C190.674 183.41 190.726 183.208 190.829 183.018C190.937 182.824 191.102 182.663 191.324 182.534C191.546 182.406 191.709 182.378 191.812 182.45C191.915 182.522 191.966 182.664 191.966 182.877C191.966 183.077 191.915 183.276 191.812 183.473C191.709 183.663 191.546 183.823 191.324 183.951ZM195.064 189.505C194.852 189.627 194.636 189.743 194.414 189.852C194.197 189.958 193.994 190.051 193.804 190.129V189.04C193.999 188.953 194.208 188.854 194.43 188.745C194.652 188.642 194.86 188.534 195.055 188.421C195.418 188.212 195.711 187.993 195.933 187.764C196.161 187.533 196.326 187.278 196.429 187C196.537 186.724 196.591 186.421 196.591 186.09V185.086L196.835 184.307C196.819 184.785 196.735 185.234 196.583 185.653C196.431 186.066 196.226 186.435 195.966 186.76C195.706 187.079 195.405 187.337 195.064 187.535C194.76 187.71 194.484 187.803 194.235 187.816C193.991 187.825 193.78 187.766 193.601 187.638C193.428 187.506 193.292 187.312 193.195 187.056C193.097 186.8 193.048 186.493 193.048 186.136V185.939C193.048 185.583 193.097 185.223 193.195 184.86C193.298 184.488 193.441 184.133 193.625 183.795C193.81 183.458 194.029 183.153 194.284 182.881C194.538 182.609 194.82 182.383 195.129 182.205C195.492 181.996 195.806 181.905 196.071 181.933C196.342 181.958 196.553 182.099 196.705 182.355C196.857 182.612 196.941 182.985 196.957 183.476L196.762 183.627V181.422L197.656 180.906V185.4C197.656 186.019 197.564 186.573 197.379 187.061C197.195 187.549 196.911 187.991 196.526 188.388C196.147 188.789 195.659 189.161 195.064 189.505ZM195.389 186.23C195.605 186.105 195.803 185.935 195.982 185.719C196.161 185.503 196.304 185.258 196.412 184.982C196.521 184.707 196.575 184.419 196.575 184.119V183.791C196.575 183.503 196.518 183.292 196.404 183.157C196.296 183.02 196.152 182.953 195.974 182.956C195.795 182.953 195.6 183.012 195.389 183.134C195.15 183.272 194.939 183.459 194.755 183.697C194.576 183.925 194.435 184.185 194.332 184.476C194.229 184.767 194.178 185.072 194.178 185.391C194.178 185.703 194.229 185.946 194.332 186.118C194.435 186.29 194.576 186.387 194.755 186.409C194.939 186.427 195.15 186.368 195.389 186.23ZM198.888 185.289V180.194L199.781 179.678V181.864L199.7 181.911C199.7 181.392 199.76 180.926 199.879 180.513C199.998 180.094 200.174 179.73 200.407 179.42C200.646 179.107 200.941 178.849 201.293 178.646L201.342 178.618C201.867 178.315 202.265 178.282 202.536 178.52C202.807 178.751 202.942 179.254 202.942 180.03V182.948L201.813 183.6V180.57C201.813 180.257 201.734 180.049 201.577 179.946C201.426 179.839 201.214 179.864 200.943 180.021C200.667 180.18 200.442 180.41 200.269 180.71C200.101 181.001 200.017 181.312 200.017 181.644V184.637L198.888 185.289Z" fill="#0E3572"/>
<path d="M178.903 168.726V167.656L180.39 166.798C180.661 166.642 180.867 166.438 181.008 166.188C181.148 165.932 181.219 165.653 181.219 165.353C181.219 165.053 181.148 164.862 181.008 164.781C180.867 164.693 180.661 164.727 180.39 164.884L178.903 165.742V164.926L180.309 164.114C180.704 163.886 181.056 163.739 181.365 163.673C181.679 163.598 181.923 163.639 182.096 163.795C182.275 163.949 182.365 164.241 182.365 164.673V164.804C182.365 165.211 182.286 165.603 182.129 165.982C181.977 166.351 181.747 166.703 181.438 167.037C181.135 167.362 180.758 167.655 180.309 167.914L178.903 168.726ZM177.936 169.284V162.341L179.066 161.689V168.632L177.936 169.284ZM178.903 165.527V164.71L180.171 163.978C180.447 163.819 180.65 163.617 180.78 163.373C180.91 163.129 180.975 162.867 180.975 162.585C180.975 162.304 180.91 162.116 180.78 162.022C180.65 161.928 180.447 161.961 180.171 162.121L178.903 162.853V161.783L180.065 161.112C180.737 160.724 181.246 160.593 181.593 160.718C181.945 160.84 182.121 161.204 182.121 161.811V161.942C182.121 162.368 182.031 162.76 181.853 163.12C181.679 163.47 181.438 163.791 181.129 164.082C180.821 164.366 180.466 164.624 180.065 164.856L178.903 165.527ZM184.944 165.351C184.435 165.645 184.04 165.679 183.758 165.454C183.482 165.226 183.343 164.73 183.343 163.967V161.011L184.473 160.359V163.427C184.473 163.74 184.549 163.946 184.7 164.047C184.852 164.14 185.058 164.112 185.318 163.962C185.578 163.812 185.789 163.593 185.952 163.305C186.12 163.014 186.204 162.703 186.204 162.372V159.36L187.333 158.708V163.812L186.439 164.328V162.161L186.529 162.109C186.529 162.622 186.472 163.083 186.358 163.493C186.244 163.903 186.074 164.261 185.846 164.567C185.619 164.874 185.334 165.126 184.993 165.323L184.944 165.351ZM188.842 162.941V157.846L189.971 157.194V162.289L188.842 162.941ZM188.224 159.178V158.203L189.971 157.194V158.17L188.224 159.178ZM189.256 156.997C189.034 157.125 188.869 157.155 188.761 157.086C188.658 157.008 188.606 156.869 188.606 156.669C188.606 156.456 188.658 156.254 188.761 156.063C188.869 155.87 189.034 155.708 189.256 155.58C189.478 155.452 189.641 155.424 189.744 155.496C189.847 155.568 189.898 155.71 189.898 155.923C189.898 156.123 189.847 156.321 189.744 156.518C189.641 156.709 189.478 156.869 189.256 156.997ZM191.33 161.504V154.655L192.459 154.003V160.852L191.33 161.504ZM190.777 155.95V154.974L192.459 154.003V154.979L190.777 155.95ZM195.577 159.221C195.268 159.4 194.984 159.498 194.724 159.517C194.464 159.536 194.239 159.481 194.05 159.353C193.86 159.224 193.714 159.034 193.611 158.78C193.508 158.521 193.456 158.206 193.456 157.837V157.64C193.456 157.277 193.505 156.908 193.603 156.533C193.706 156.155 193.846 155.795 194.025 155.454C194.209 155.11 194.429 154.799 194.683 154.521C194.943 154.233 195.23 153.998 195.545 153.817C195.891 153.617 196.195 153.529 196.455 153.554C196.72 153.57 196.931 153.704 197.089 153.958C197.246 154.211 197.332 154.592 197.349 155.102L197.015 154.844V151.373L198.145 150.721V157.57L197.251 158.086V155.919L197.446 155.806C197.43 156.334 197.338 156.822 197.17 157.27C197.002 157.711 196.78 158.098 196.503 158.433C196.233 158.758 195.924 159.021 195.577 159.221ZM195.829 157.978C196.051 157.85 196.254 157.676 196.438 157.457C196.623 157.232 196.769 156.979 196.877 156.697C196.991 156.406 197.048 156.111 197.048 155.811V155.435C197.048 155.135 196.991 154.918 196.877 154.783C196.763 154.642 196.615 154.572 196.43 154.572C196.246 154.566 196.046 154.625 195.829 154.75C195.585 154.891 195.369 155.085 195.179 155.332C194.995 155.57 194.849 155.842 194.74 156.148C194.637 156.452 194.586 156.766 194.586 157.091C194.586 157.417 194.64 157.67 194.748 157.851C194.857 158.027 195.003 158.127 195.187 158.152C195.377 158.174 195.591 158.116 195.829 157.978Z" fill="#0E3572"/>
<path d="M172.577 143.411V142.173L173.804 141.464C174.113 141.286 174.386 141.075 174.625 140.831C174.868 140.578 175.074 140.302 175.242 140.005C175.41 139.708 175.537 139.4 175.624 139.081C175.716 138.753 175.762 138.423 175.762 138.091C175.762 137.747 175.716 137.467 175.624 137.251C175.537 137.026 175.41 136.865 175.242 136.768C175.074 136.671 174.868 136.643 174.625 136.684C174.386 136.721 174.113 136.829 173.804 137.007L172.577 137.716V136.477L173.731 135.811C174.267 135.501 174.736 135.322 175.137 135.272C175.537 135.222 175.871 135.279 176.136 135.445C176.401 135.605 176.599 135.85 176.729 136.182C176.865 136.504 176.932 136.881 176.932 137.312V137.519C176.932 137.932 176.865 138.377 176.729 138.856C176.599 139.331 176.401 139.808 176.136 140.287C175.871 140.765 175.537 141.217 175.137 141.642C174.736 142.068 174.267 142.435 173.731 142.745L172.577 143.411ZM171.586 143.983V137.05L172.74 136.383V143.317L171.586 143.983ZM179.851 139.352C179.472 139.571 179.138 139.689 178.851 139.704C178.57 139.717 178.334 139.653 178.144 139.512C177.96 139.362 177.819 139.158 177.722 138.902C177.63 138.642 177.584 138.35 177.584 138.025V137.846C177.584 137.509 177.63 137.157 177.722 136.791C177.819 136.416 177.96 136.053 178.144 135.702C178.334 135.343 178.567 135.011 178.843 134.708C179.119 134.398 179.439 134.139 179.802 133.929C180.279 133.654 180.677 133.546 180.996 133.605C181.322 133.655 181.565 133.831 181.728 134.131C181.89 134.425 181.972 134.797 181.972 135.247V135.717L178.063 137.973V137.176L181.265 135.327L180.915 135.923C180.915 135.598 180.875 135.343 180.793 135.158C180.712 134.974 180.587 134.867 180.42 134.839C180.257 134.808 180.051 134.864 179.802 135.008C179.553 135.152 179.342 135.34 179.168 135.571C178.995 135.803 178.862 136.07 178.77 136.373C178.683 136.667 178.64 136.986 178.64 137.33C178.64 137.649 178.683 137.909 178.77 138.109C178.857 138.303 178.989 138.42 179.168 138.461C179.347 138.495 179.574 138.433 179.851 138.273C180.127 138.114 180.352 137.921 180.525 137.696C180.699 137.465 180.81 137.241 180.858 137.025L181.898 136.425C181.833 136.813 181.709 137.191 181.525 137.56C181.34 137.929 181.105 138.269 180.818 138.578C180.536 138.885 180.214 139.143 179.851 139.352ZM182.972 137.372V130.523L184.101 129.871V136.72L182.972 137.372ZM182.419 131.817V130.842L184.101 129.871V130.846L182.419 131.817ZM185.602 135.853V130.759L186.732 130.107V135.201L185.602 135.853ZM184.985 132.091V131.115L186.732 130.107V131.082L184.985 132.091ZM186.017 129.91C185.794 130.038 185.629 130.067 185.521 129.999C185.418 129.92 185.367 129.781 185.367 129.581C185.367 129.368 185.418 129.167 185.521 128.976C185.629 128.782 185.794 128.621 186.017 128.493C186.239 128.365 186.401 128.336 186.504 128.408C186.607 128.48 186.658 128.623 186.658 128.835C186.658 129.035 186.607 129.234 186.504 129.431C186.401 129.622 186.239 129.781 186.017 129.91ZM188.919 133.939L187.538 129.641L188.7 128.97L190.024 133.3L188.919 133.939ZM189.252 133.746V132.677L190.447 131.987V133.057L189.252 133.746ZM189.699 133.488L190.837 127.737L191.926 127.108L190.731 132.892L189.699 133.488ZM194.658 130.803C194.279 131.022 193.946 131.14 193.658 131.155C193.377 131.168 193.141 131.104 192.951 130.963C192.767 130.813 192.626 130.61 192.529 130.353C192.437 130.093 192.391 129.801 192.391 129.476V129.298C192.391 128.96 192.437 128.608 192.529 128.242C192.626 127.867 192.767 127.504 192.951 127.154C193.141 126.794 193.374 126.462 193.65 126.159C193.927 125.849 194.246 125.59 194.609 125.38C195.086 125.105 195.484 124.997 195.804 125.057C196.129 125.107 196.372 125.282 196.535 125.582C196.697 125.876 196.779 126.248 196.779 126.698V127.168L192.87 129.424V128.627L196.072 126.778L195.722 127.374C195.722 127.049 195.682 126.794 195.6 126.609C195.519 126.425 195.395 126.318 195.227 126.29C195.064 126.259 194.858 126.315 194.609 126.459C194.36 126.603 194.149 126.791 193.975 127.022C193.802 127.254 193.669 127.521 193.577 127.824C193.49 128.118 193.447 128.437 193.447 128.781C193.447 129.1 193.49 129.36 193.577 129.56C193.664 129.754 193.797 129.871 193.975 129.912C194.154 129.946 194.382 129.884 194.658 129.724C194.934 129.565 195.159 129.373 195.332 129.147C195.506 128.916 195.617 128.692 195.665 128.477L196.706 127.876C196.641 128.264 196.516 128.642 196.332 129.011C196.148 129.38 195.912 129.72 195.625 130.029C195.343 130.336 195.021 130.594 194.658 130.803ZM197.722 128.856V123.761L198.616 123.245V125.403L198.592 125.417C198.592 124.685 198.727 124.054 198.998 123.522C199.269 122.99 199.667 122.573 200.192 122.269L200.355 122.175V123.311L200.046 123.489C199.667 123.708 199.372 123.997 199.16 124.357C198.955 124.707 198.852 125.104 198.852 125.549V128.204L197.722 128.856ZM201.115 128.905V127.788L201.944 127.31C202.101 127.219 202.231 127.119 202.334 127.009C202.443 126.903 202.532 126.776 202.602 126.629C202.673 126.489 202.727 126.317 202.765 126.113L203.951 120.165L205.032 119.541L203.724 125.841C203.637 126.273 203.515 126.647 203.358 126.963C203.201 127.285 202.998 127.568 202.749 127.812C202.505 128.053 202.202 128.278 201.839 128.487L201.115 128.905ZM202.489 125.991V124.959L203.431 124.415V125.447L202.489 125.991ZM202.107 126.212L200.677 122.055L201.814 121.399L203.171 125.597L202.107 126.212Z" fill="#0E3572"/>
<path d="M156.176 124.465V117.616L157.33 116.949V123.799L156.176 124.465ZM157.167 121.04V119.914L159.54 118.535V119.661L157.167 121.04ZM157.167 118.169V117.043L159.653 115.608V116.734L157.167 118.169ZM162.505 120.989C162.125 121.208 161.792 121.325 161.505 121.341C161.223 121.354 160.988 121.289 160.798 121.149C160.614 120.999 160.473 120.795 160.376 120.539C160.284 120.279 160.238 119.987 160.238 119.662V119.483C160.238 119.146 160.284 118.794 160.376 118.428C160.473 118.052 160.614 117.69 160.798 117.339C160.988 116.98 161.221 116.648 161.497 116.345C161.773 116.035 162.093 115.776 162.456 115.566C162.933 115.291 163.331 115.183 163.65 115.242C163.975 115.292 164.219 115.468 164.382 115.768C164.544 116.062 164.625 116.434 164.625 116.884V117.353L160.717 119.61V118.812L163.918 116.964L163.569 117.56C163.569 117.235 163.528 116.98 163.447 116.795C163.366 116.611 163.241 116.504 163.073 116.476C162.911 116.445 162.705 116.501 162.456 116.645C162.207 116.789 161.995 116.977 161.822 117.208C161.649 117.439 161.516 117.707 161.424 118.01C161.337 118.304 161.294 118.623 161.294 118.967C161.294 119.286 161.337 119.546 161.424 119.746C161.511 119.94 161.643 120.057 161.822 120.098C162.001 120.132 162.228 120.07 162.505 119.91C162.781 119.751 163.006 119.558 163.179 119.333C163.352 119.102 163.463 118.878 163.512 118.662L164.552 118.062C164.487 118.45 164.363 118.828 164.178 119.197C163.994 119.566 163.759 119.906 163.472 120.215C163.19 120.522 162.868 120.78 162.505 120.989ZM167.543 118.08C167.164 118.299 166.831 118.416 166.544 118.432C166.262 118.444 166.027 118.38 165.837 118.24C165.653 118.089 165.512 117.886 165.415 117.63C165.322 117.37 165.276 117.078 165.276 116.752V116.574C165.276 116.236 165.322 115.884 165.415 115.519C165.512 115.143 165.653 114.78 165.837 114.43C166.027 114.071 166.26 113.739 166.536 113.436C166.812 113.126 167.132 112.866 167.495 112.657C167.971 112.382 168.37 112.274 168.689 112.333C169.014 112.383 169.258 112.558 169.42 112.859C169.583 113.153 169.664 113.525 169.664 113.975V114.444L165.756 116.701V115.903L168.957 114.055L168.608 114.651C168.608 114.325 168.567 114.071 168.486 113.886C168.405 113.701 168.28 113.595 168.112 113.567C167.95 113.536 167.744 113.592 167.495 113.736C167.246 113.88 167.034 114.067 166.861 114.299C166.688 114.53 166.555 114.798 166.463 115.101C166.376 115.395 166.333 115.714 166.333 116.058C166.333 116.377 166.376 116.637 166.463 116.837C166.549 117.031 166.682 117.148 166.861 117.189C167.04 117.223 167.267 117.161 167.543 117.001C167.82 116.842 168.045 116.649 168.218 116.424C168.391 116.193 168.502 115.969 168.551 115.753L169.591 115.153C169.526 115.54 169.402 115.919 169.217 116.288C169.033 116.657 168.798 116.996 168.51 117.306C168.229 117.612 167.906 117.871 167.543 118.08ZM172.436 115.246C172.127 115.424 171.843 115.523 171.583 115.541C171.323 115.56 171.098 115.506 170.908 115.377C170.719 115.249 170.573 115.058 170.47 114.805C170.367 114.545 170.315 114.231 170.315 113.862V113.665C170.315 113.302 170.364 112.933 170.462 112.558C170.564 112.179 170.705 111.82 170.884 111.479C171.068 111.135 171.288 110.824 171.542 110.545C171.802 110.257 172.089 110.023 172.404 109.841C172.75 109.641 173.054 109.554 173.314 109.579C173.579 109.594 173.79 109.729 173.947 109.982C174.105 110.236 174.191 110.617 174.207 111.127L173.874 110.869V107.397L175.004 106.745V113.595L174.11 114.111V111.943L174.305 111.831C174.289 112.359 174.197 112.847 174.029 113.294C173.861 113.735 173.639 114.123 173.362 114.458C173.092 114.783 172.783 115.046 172.436 115.246ZM172.688 114.003C172.91 113.874 173.113 113.701 173.297 113.482C173.482 113.257 173.628 113.003 173.736 112.722C173.85 112.431 173.907 112.136 173.907 111.835V111.46C173.907 111.16 173.85 110.942 173.736 110.808C173.622 110.667 173.473 110.597 173.289 110.597C173.105 110.591 172.905 110.65 172.688 110.775C172.444 110.916 172.228 111.11 172.038 111.357C171.854 111.594 171.707 111.867 171.599 112.173C171.496 112.476 171.445 112.791 171.445 113.116C171.445 113.441 171.499 113.695 171.607 113.876C171.716 114.051 171.862 114.151 172.046 114.176C172.236 114.198 172.45 114.14 172.688 114.003ZM178.881 111.525C178.519 111.734 178.199 111.831 177.923 111.816C177.646 111.794 177.43 111.656 177.273 111.403C177.116 111.149 177.029 110.783 177.013 110.305L177.183 110.206V112.336L176.289 112.852V106.003L177.419 105.351V108.776L177.118 109.484C177.14 108.946 177.229 108.457 177.386 108.016C177.549 107.571 177.766 107.184 178.036 106.852C178.307 106.521 178.613 106.256 178.955 106.059C179.258 105.884 179.534 105.79 179.783 105.778C180.033 105.765 180.247 105.826 180.425 105.961C180.604 106.089 180.74 106.283 180.832 106.542C180.929 106.799 180.978 107.112 180.978 107.481V107.678C180.978 108.047 180.929 108.419 180.832 108.794C180.734 109.17 180.593 109.532 180.409 109.883C180.225 110.227 180.003 110.543 179.743 110.83C179.488 111.109 179.201 111.34 178.881 111.525ZM178.63 110.572C178.873 110.432 179.085 110.241 179.263 110C179.448 109.75 179.591 109.473 179.694 109.17C179.797 108.866 179.848 108.555 179.848 108.236C179.848 107.911 179.797 107.659 179.694 107.481C179.591 107.302 179.448 107.201 179.263 107.176C179.085 107.148 178.873 107.204 178.63 107.345C178.407 107.473 178.202 107.648 178.012 107.87C177.828 108.089 177.676 108.342 177.557 108.63C177.443 108.915 177.386 109.21 177.386 109.517V109.892C177.386 110.186 177.446 110.402 177.565 110.539C177.684 110.677 177.839 110.747 178.028 110.751C178.218 110.754 178.418 110.694 178.63 110.572ZM184.644 108.029V106.518L184.457 106.626V104.946C184.457 104.652 184.395 104.469 184.271 104.397C184.146 104.326 183.954 104.365 183.694 104.515C183.558 104.593 183.396 104.69 183.206 104.806C183.017 104.921 182.824 105.042 182.629 105.167C182.44 105.283 182.269 105.39 182.117 105.491V104.383C182.242 104.299 182.383 104.205 182.54 104.102C182.697 103.999 182.857 103.9 183.019 103.806C183.187 103.703 183.344 103.609 183.491 103.525C183.946 103.262 184.322 103.114 184.62 103.079C184.923 103.042 185.151 103.126 185.303 103.333C185.46 103.536 185.538 103.875 185.538 104.351V107.513L184.644 108.029ZM183.222 108.981C182.903 109.165 182.621 109.262 182.377 109.272C182.139 109.278 181.952 109.198 181.817 109.033C181.687 108.864 181.622 108.607 181.622 108.263C181.622 107.888 181.7 107.536 181.857 107.208C182.02 106.876 182.245 106.568 182.532 106.283C182.824 105.996 183.166 105.739 183.556 105.514L184.579 104.923V105.702L183.539 106.302C183.279 106.452 183.079 106.643 182.938 106.874C182.803 107.097 182.735 107.323 182.735 107.555C182.735 107.786 182.803 107.935 182.938 108C183.079 108.063 183.279 108.019 183.539 107.869C183.696 107.778 183.84 107.664 183.97 107.527C184.105 107.38 184.216 107.203 184.303 106.996C184.395 106.781 184.447 106.532 184.457 106.251L184.734 106.457C184.707 106.829 184.631 107.173 184.506 107.489C184.387 107.802 184.219 108.086 184.002 108.343C183.791 108.59 183.531 108.803 183.222 108.981ZM188.706 105.862C188.322 106.084 187.989 106.201 187.707 106.214C187.431 106.223 187.198 106.157 187.008 106.016C186.824 105.873 186.686 105.671 186.594 105.411C186.502 105.152 186.456 104.859 186.456 104.534V104.356C186.456 104.012 186.502 103.657 186.594 103.291C186.691 102.915 186.835 102.551 187.024 102.198C187.214 101.838 187.447 101.507 187.723 101.203C188.005 100.89 188.33 100.628 188.698 100.415C189.083 100.193 189.427 100.082 189.73 100.082C190.034 100.076 190.275 100.174 190.453 100.377C190.638 100.578 190.74 100.875 190.762 101.269L189.665 101.902C189.638 101.655 189.541 101.492 189.373 101.414C189.21 101.333 188.985 101.375 188.698 101.541C188.449 101.685 188.24 101.874 188.073 102.109C187.91 102.34 187.788 102.601 187.707 102.892C187.626 103.177 187.585 103.475 187.585 103.788C187.585 104.088 187.623 104.339 187.699 104.539C187.78 104.736 187.902 104.856 188.064 104.9C188.232 104.941 188.446 104.886 188.706 104.736C188.901 104.623 189.069 104.486 189.21 104.323C189.351 104.16 189.462 103.984 189.543 103.793C189.63 103.599 189.684 103.405 189.706 103.211L190.803 102.578C190.781 103.003 190.675 103.427 190.486 103.849C190.302 104.262 190.055 104.645 189.746 104.998C189.443 105.349 189.096 105.636 188.706 105.862ZM194.795 102.168L193.316 100.639L192.658 101.019L194.535 97.2232L195.714 96.543L193.983 100.047L194.007 99.3766L196.071 101.431L194.795 102.168ZM191.708 103.951V97.1013L192.837 96.4492V103.299L191.708 103.951ZM198.533 100.01V93.1605L199.663 92.5084V99.3578L198.533 100.01ZM197.981 94.4553V93.4795L199.663 92.5084V93.4842L197.981 94.4553ZM203.073 97.5671C202.683 97.7923 202.339 97.919 202.041 97.9471C201.743 97.9753 201.491 97.9268 201.285 97.8017C201.079 97.6703 200.922 97.4796 200.814 97.2293C200.711 96.976 200.66 96.6805 200.66 96.3427V96.1456C200.66 95.7954 200.714 95.4326 200.822 95.0573C200.936 94.6726 201.096 94.2988 201.301 93.936C201.513 93.5638 201.767 93.2229 202.065 92.9133C202.363 92.5974 202.699 92.3316 203.073 92.1158C203.447 91.9 203.783 91.778 204.08 91.7498C204.378 91.7154 204.63 91.7639 204.836 91.8953C205.047 92.0173 205.207 92.2065 205.316 92.4629C205.424 92.7131 205.478 93.0134 205.478 93.3637V93.5607C205.478 93.8985 205.424 94.255 205.316 94.6303C205.213 95.0025 205.058 95.3731 204.852 95.7422C204.647 96.105 204.395 96.4443 204.097 96.7602C203.799 97.0761 203.457 97.3451 203.073 97.5671ZM203.073 96.4506C203.349 96.2911 203.582 96.0878 203.772 95.8407C203.961 95.5874 204.105 95.3137 204.202 95.0197C204.3 94.7195 204.349 94.4161 204.349 94.1096C204.349 93.7968 204.297 93.5513 204.194 93.3731C204.097 93.1854 203.95 93.0791 203.755 93.054C203.566 93.0196 203.338 93.0791 203.073 93.2323C202.807 93.3856 202.577 93.5904 202.382 93.8469C202.193 94.094 202.046 94.3692 201.943 94.6726C201.84 94.9697 201.789 95.2746 201.789 95.5874C201.789 95.8939 201.838 96.141 201.935 96.3286C202.038 96.5069 202.184 96.6132 202.374 96.6476C202.564 96.6758 202.797 96.6101 203.073 96.4506ZM208.588 94.3831C208.198 94.6082 207.854 94.7349 207.556 94.7631C207.258 94.7912 207.006 94.7427 206.8 94.6176C206.594 94.4863 206.437 94.2955 206.329 94.0453C206.226 93.7919 206.175 93.4964 206.175 93.1586V92.9616C206.175 92.6113 206.229 92.2485 206.337 91.8732C206.451 91.4885 206.611 91.1147 206.816 90.7519C207.028 90.3798 207.282 90.0389 207.58 89.7292C207.878 89.4133 208.214 89.1475 208.588 88.9317C208.962 88.7159 209.298 88.5939 209.595 88.5658C209.893 88.5314 210.145 88.5798 210.351 88.7112C210.562 88.8332 210.722 89.0224 210.831 89.2789C210.939 89.5291 210.993 89.8293 210.993 90.1796V90.3766C210.993 90.7144 210.939 91.071 210.831 91.4463C210.728 91.8184 210.573 92.1891 210.367 92.5581C210.162 92.9209 209.91 93.2603 209.612 93.5761C209.314 93.892 208.972 94.161 208.588 94.3831ZM208.588 93.2665C208.864 93.107 209.097 92.9037 209.287 92.6566C209.476 92.4033 209.62 92.1296 209.717 91.8356C209.815 91.5354 209.864 91.232 209.864 90.9255C209.864 90.6128 209.812 90.3673 209.709 90.189C209.612 90.0013 209.465 89.895 209.27 89.87C209.081 89.8356 208.853 89.895 208.588 90.0482C208.322 90.2015 208.092 90.4063 207.897 90.6628C207.708 90.9099 207.561 91.1851 207.458 91.4885C207.355 91.7856 207.304 92.0905 207.304 92.4033C207.304 92.7098 207.353 92.9569 207.45 93.1445C207.553 93.3228 207.699 93.4291 207.889 93.4635C208.079 93.4917 208.312 93.426 208.588 93.2665ZM211.982 94.1217V87.1503L212.876 86.6343V88.8298L212.738 88.9002C212.759 88.3685 212.851 87.8806 213.014 87.4365C213.182 86.9893 213.404 86.6014 213.68 86.2731C213.957 85.9384 214.265 85.6726 214.607 85.4755C214.921 85.2941 215.203 85.1972 215.452 85.1847C215.706 85.169 215.923 85.2284 216.102 85.3629C216.286 85.4943 216.427 85.6913 216.524 85.954C216.622 86.2105 216.671 86.5201 216.671 86.8829V87.08C216.671 87.449 216.622 87.8212 216.524 88.1965C216.432 88.5624 216.294 88.9205 216.11 89.2708C215.931 89.6117 215.714 89.9245 215.46 90.2091C215.205 90.4875 214.921 90.7173 214.607 90.8987C214.276 91.0895 213.973 91.1865 213.697 91.1896C213.426 91.1833 213.206 91.0629 213.038 90.8284C212.87 90.5875 212.776 90.2075 212.754 89.6884L213.112 90.1106V93.4696L211.982 94.1217ZM214.322 89.9652C214.566 89.8244 214.777 89.6336 214.956 89.3928C215.14 89.1489 215.284 88.8752 215.387 88.5718C215.49 88.2622 215.541 87.951 215.541 87.6382C215.541 87.313 215.49 87.0612 215.387 86.8829C215.284 86.7047 215.14 86.603 214.956 86.578C214.777 86.5436 214.566 86.5968 214.322 86.7375C214.1 86.8657 213.894 87.0409 213.705 87.2629C213.52 87.4819 213.369 87.7352 213.25 88.0229C213.136 88.3075 213.079 88.6031 213.079 88.9096V89.2849C213.079 89.5789 213.139 89.7947 213.258 89.9323C213.377 90.0699 213.531 90.1403 213.721 90.1434C213.911 90.1466 214.111 90.0871 214.322 89.9652Z" fill="#0E3572"/>
<path d="M156.194 83.8591C156.651 84.123 157.108 84.211 157.718 84.211L169.906 84.211C171.125 84.211 172.039 83.6832 172.039 82.9795L172.039 75.9422C172.039 75.2385 171.125 74.7107 169.906 74.7107C168.687 74.7107 167.773 75.2385 167.773 75.9422L167.773 81.7479L157.718 81.7479C156.499 81.7479 155.585 82.2757 155.585 82.9795C155.585 83.3313 155.737 83.5952 156.194 83.8591ZM140.959 75.0625C141.416 75.3264 141.873 75.4144 142.482 75.4144C143.701 75.4144 144.615 74.8866 144.615 74.1829L144.615 68.3771L154.671 68.3771C155.89 68.3771 156.804 67.8493 156.804 67.1456C156.804 66.4419 155.89 65.9141 154.671 65.9141H142.482C141.264 65.9141 140.349 66.4419 140.349 67.1456L140.349 74.1829C140.349 74.5347 140.502 74.7986 140.959 75.0625ZM145.53 84.7388L145.834 84.9147C146.748 85.2666 148.272 85.0906 148.729 84.4749L167.012 66.8817C167.621 66.3539 167.316 65.4743 166.25 65.2104C165.336 64.8585 163.812 65.0344 163.355 65.6502L145.072 83.2433C144.615 83.6832 144.92 84.3869 145.53 84.7388Z" fill="#0E3572"/>
<path d="M64.5061 164.714L177.099 229.22" stroke="#0E3572" stroke-width="0.58642" stroke-dasharray="1.17 1.17"/>
<path d="M238.662 233.611L238.662 232.585L245.766 232.585L235.49 226.652L236.758 225.919L247.035 231.853L247.035 227.751L248.811 227.751V233.611H238.662Z" fill="#0E3572"/>
</g>
<defs>
<filter id="filter0_i_1413_1137" x="90.3084" y="39.8767" width="130.044" height="74.771" filterUnits="userSpaceOnUse" color-interpolation-filters="sRGB">
<feFlood flood-opacity="0" result="BackgroundImageFix"/>
<feBlend mode="normal" in="SourceGraphic" in2="BackgroundImageFix" result="shape"/>
<feColorMatrix in="SourceAlpha" type="matrix" values="0 0 0 0 0 0 0 0 0 0 0 0 0 0 0 0 0 0 127 0" result="hardAlpha"/>
<feOffset/>
<feGaussianBlur stdDeviation="4.22222"/>
<feComposite in2="hardAlpha" operator="arithmetic" k2="-1" k3="1"/>
<feColorMatrix type="matrix" values="0 0 0 0 0.054902 0 0 0 0 0.207843 0 0 0 0 0.447059 0 0 0 0.35 0"/>
<feBlend mode="normal" in2="shape" result="effect1_innerShadow_1413_1137"/>
</filter>
<radialGradient id="paint0_radial_1413_1137" cx="0" cy="0" r="1" gradientUnits="userSpaceOnUse" gradientTransform="translate(323.784 360.552) rotate(90) scale(332.466 332.466)">
<stop stop-color="#D9D9D9"/>
<stop offset="0.890272" stop-color="#D9D9D9" stop-opacity="0"/>
</radialGradient>
<linearGradient id="paint1_linear_1413_1137" x1="353.542" y1="182.97" x2="353.542" y2="258.025" gradientUnits="userSpaceOnUse">
<stop stop-color="white"/>
<stop offset="1" stop-color="#3EAFD1"/>
</linearGradient>
<linearGradient id="paint2_linear_1413_1137" x1="155.331" y1="141.921" x2="155.331" y2="216.975" gradientUnits="userSpaceOnUse">
<stop stop-color="white"/>
<stop offset="1" stop-color="#3EAFD1"/>
</linearGradient>
<linearGradient id="paint3_linear_1413_1137" x1="155.331" y1="113.773" x2="155.331" y2="188.827" gradientUnits="userSpaceOnUse">
<stop stop-color="white"/>
<stop offset="1" stop-color="#3EAFD1"/>
</linearGradient>
<linearGradient id="paint4_linear_1413_1137" x1="155.331" y1="84.4517" x2="155.331" y2="159.506" gradientUnits="userSpaceOnUse">
<stop stop-color="white"/>
<stop offset="1" stop-color="#3EAFD1"/>
</linearGradient>
<linearGradient id="paint5_linear_1413_1137" x1="155.331" y1="56.3035" x2="155.331" y2="131.358" gradientUnits="userSpaceOnUse">
<stop stop-color="white"/>
<stop offset="1" stop-color="#3EAFD1"/>
</linearGradient>
<clipPath id="clip0_1413_1137">
<rect width="457.126" height="336.089" rx="11.2593" fill="white"/>
</clipPath>
<clipPath id="clip1_1413_1137">
<rect width="16.4197" height="16.4197" fill="white" transform="matrix(0.866025 -0.5 0.866025 0.5 245.123 86.1333)"/>
</clipPath>
<clipPath id="clip2_1413_1137">
<rect width="16.4197" height="16.4197" fill="white" transform="matrix(0.866025 -0.5 0.866025 0.5 53.9506 222.839)"/>
</clipPath>
<clipPath id="clip3_1413_1137">
<rect width="16.4197" height="16.4197" fill="white" transform="matrix(0.866025 -0.5 0.866025 0.5 268.58 124.837)"/>
</clipPath>
<clipPath id="clip4_1413_1137">
<rect width="16.4197" height="16.4197" fill="white" transform="matrix(0.866025 -0.5 0.866025 0.5 119.629 261.543)"/>
</clipPath>
</defs>
</svg>
