<svg width="52" height="52" viewBox="0 0 52 52" fill="none" xmlns="http://www.w3.org/2000/svg">
<path d="M51.2383 17.7131V10.2262M51.2383 10.2262H14.8182M51.2383 10.2262V4.37036C51.2383 3.2485 50.3289 2.33911 49.207 2.33911H3.30078C1.89851 2.33911 0.761719 3.4759 0.761719 4.87817V10.226H11.2635M18.6353 49.6609H48.6992C50.1015 49.6609 51.2383 48.5241 51.2383 47.1219V21.2678M0.761719 10.2262V47.1219C0.761719 48.5241 1.89851 49.6609 3.30078 49.6609H15.0806M0.761719 18.1131H22.8453M0.761719 26H22.8453M0.761719 33.887H22.8453M0.761719 41.7739H22.8453M8.64866 10.2262V49.6609M22.8453 10.2262V49.6609" stroke="#FFFAFA" stroke-miterlimit="10" stroke-linecap="round" stroke-linejoin="round"/>
<path d="M35.5678 28.6792L32.5425 25.654C31.9476 25.059 30.983 25.059 30.3881 25.654L28.081 27.9611C27.486 28.556 27.486 29.5206 28.081 30.1155L34.1315 36.166C35.123 37.1576 36.7307 37.1576 37.7222 36.166L46.0034 27.8848C46.5984 27.2899 46.5984 26.3253 46.0034 25.7304L43.6963 23.4233C43.1014 22.8283 42.1368 22.8283 41.5419 23.4233L36.2859 28.6792C36.1907 28.7745 36.0615 28.828 35.9268 28.828C35.7922 28.828 35.663 28.7745 35.5678 28.6792Z" stroke="#FFFAFA" stroke-miterlimit="10" stroke-linecap="round" stroke-linejoin="round"/>
<path d="M37.3245 30.9713L34.9127 28.3657C34.4383 27.8532 33.6694 27.8532 33.1951 28.3657L31.3557 30.3527C30.8814 30.8652 30.8814 31.6959 31.3557 32.2083L36.1794 37.4195C36.97 38.2736 38.2516 38.2736 39.0421 37.4195L45.6443 30.287C46.1186 29.7746 46.1186 28.9439 45.6443 28.4314L43.8049 26.4444C43.3306 25.932 42.5617 25.932 42.0873 26.4444L37.8971 30.9713C37.8211 31.0533 37.7182 31.0994 37.6108 31.0994C37.5034 31.0994 37.4004 31.0533 37.3245 30.9713Z" fill="#FFFAFA" fill-opacity="0.1"/>
</svg>
