<svg preserveAspectRatio="none" width="100%" height="100%" overflow="visible" style="display: block;" viewBox="0 0 880.274 80" fill="none" xmlns="http://www.w3.org/2000/svg">
<g id="Group 102">
<path id="Vector 47" d="M317.887 74L320.274 79H314.5L316.887 74H317.887ZM2.38675 5L0 1.26184e-07H5.7735L3.38675 5H2.38675ZM15.2074 22.9887L15.1474 23.4851L15.2074 22.9887ZM4.64854 19.9383L5.0227 19.6066L4.64854 19.9383ZM315.625 61.0617L315.999 60.7301L315.625 61.0617ZM2.88675 6.49268H3.38675V9.08975H2.88675H2.38675V6.49268H2.88675ZM2.88675 9.08975H3.38675C3.38675 9.64997 3.38675 10.1827 3.38825 10.6905L2.88825 10.692L2.38825 10.6935C2.38675 10.1839 2.38675 9.64965 2.38675 9.08975H2.88675ZM2.91673 13.0957L3.41657 13.0828C3.44815 14.3075 3.51295 15.3349 3.64348 16.2149L3.14889 16.2883L2.6543 16.3617C2.51504 15.4228 2.44888 14.3487 2.4169 13.1086L2.91673 13.0957ZM3.78177 18.5986L4.23668 18.3911C4.44355 18.8447 4.70087 19.2435 5.0227 19.6066L4.64854 19.9383L4.27438 20.2699C3.88416 19.8297 3.57332 19.3465 3.32685 18.8061L3.78177 18.5986ZM4.64854 19.9383L5.0227 19.6066C5.34452 19.9697 5.70967 20.273 6.13512 20.5327L5.87455 20.9595L5.61399 21.3862C5.10711 21.0767 4.6646 20.7102 4.27438 20.2699L4.64854 19.9383ZM8.09228 21.8649L8.22444 21.3827C9.08242 21.6178 10.0947 21.8054 11.3067 21.9837L11.234 22.4784L11.1612 22.973C9.93387 22.7925 8.87552 22.598 7.96012 22.3471L8.09228 21.8649ZM13.6169 22.795L13.6784 22.2988C14.1823 22.3612 14.7112 22.4251 15.2674 22.4923L15.2074 22.9887L15.1474 23.4851C14.5916 23.4179 14.0611 23.3538 13.5555 23.2912L13.6169 22.795ZM15.2074 22.9887L15.2674 22.4923L17.2392 22.7305L17.1792 23.2269L17.1192 23.7233L15.1474 23.4851L15.2074 22.9887ZM20.137 23.5843L20.1969 23.0879L24.1406 23.5644L24.0806 24.0608L24.0206 24.5572L20.077 24.0807L20.137 23.5843ZM27.0384 24.4182L27.0983 23.9218L31.042 24.3983L30.982 24.8947L30.922 25.391L26.9784 24.9146L27.0384 24.4182ZM33.9398 25.252L33.9997 24.7556L37.9434 25.2321L37.8834 25.7285L37.8234 26.2249L33.8798 25.7484L33.9398 25.252ZM40.8412 26.0859L40.9011 25.5895L44.8448 26.066L44.7848 26.5624L44.7248 27.0588L40.7812 26.5823L40.8412 26.0859ZM47.7426 26.9198L47.8025 26.4234L51.7462 26.8999L51.6862 27.3963L51.6262 27.8927L47.6826 27.4162L47.7426 26.9198ZM54.644 27.7537L54.7039 27.2573L58.6476 27.7338L58.5876 28.2302L58.5276 28.7265L54.584 28.25L54.644 27.7537ZM61.5454 28.5875L61.6053 28.0911L65.549 28.5676L65.489 29.064L65.429 29.5604L61.4854 29.0839L61.5454 28.5875ZM68.4468 29.4214L68.5067 28.925L72.4504 29.4015L72.3904 29.8979L72.3304 30.3943L68.3868 29.9178L68.4468 29.4214ZM75.3482 30.2553L75.4081 29.7589L79.3518 30.2354L79.2918 30.7318L79.2318 31.2282L75.2882 30.7517L75.3482 30.2553ZM82.2496 31.0891L82.3095 30.5928L86.2532 31.0693L86.1932 31.5656L86.1332 32.062L82.1896 31.5855L82.2496 31.0891ZM89.1509 31.923L89.2109 31.4266L93.1546 31.9031L93.0946 32.3995L93.0346 32.8959L89.091 32.4194L89.1509 31.923ZM96.0523 32.7569L96.1123 32.2605L100.056 32.737L99.996 33.2334L99.936 33.7298L95.9924 33.2533L96.0523 32.7569ZM102.954 33.5908L103.014 33.0944L106.957 33.5709L106.897 34.0673L106.837 34.5637L102.894 34.0872L102.954 33.5908ZM109.855 34.4246L109.915 33.9282L113.859 34.4047L113.799 34.9011L113.739 35.3975L109.795 34.921L109.855 34.4246ZM116.757 35.2585L116.817 34.7621L120.76 35.2386L120.7 35.735L120.64 36.2314L116.697 35.7549L116.757 35.2585ZM123.658 36.0924L123.718 35.596L127.662 36.0725L127.602 36.5689L127.542 37.0653L123.598 36.5888L123.658 36.0924ZM130.559 36.9263L130.619 36.4299L134.563 36.9064L134.503 37.4028L134.443 37.8991L130.499 37.4226L130.559 36.9263ZM137.461 37.7601L137.521 37.2637L141.464 37.7402L141.404 38.2366L141.344 38.733L137.401 38.2565L137.461 37.7601ZM144.362 38.594L144.422 38.0976L148.366 38.5741L148.306 39.0705L148.246 39.5669L144.302 39.0904L144.362 38.594ZM151.264 39.4279L151.323 38.9315L155.267 39.408L155.207 39.9044L155.147 40.4008L151.204 39.9243L151.264 39.4279ZM158.165 40.2617L158.225 39.7654L162.169 40.2419L162.109 40.7382L162.049 41.2346L158.105 40.7581L158.165 40.2617ZM165.066 41.0956L165.126 40.5992L169.07 41.0757L169.01 41.5721L168.95 42.0685L165.006 41.592L165.066 41.0956ZM171.968 41.9295L172.028 41.4331L175.971 41.9096L175.911 42.406L175.851 42.9024L171.908 42.4259L171.968 41.9295ZM178.869 42.7634L178.929 42.267L182.873 42.7435L182.813 43.2399L182.753 43.7363L178.809 43.2598L178.869 42.7634ZM185.77 43.5972L185.83 43.1008L189.774 43.5773L189.714 44.0737L189.654 44.5701L185.71 44.0936L185.77 43.5972ZM192.672 44.4311L192.732 43.9347L196.675 44.4112L196.615 44.9076L196.556 45.404L192.612 44.9275L192.672 44.4311ZM199.573 45.265L199.633 44.7686L203.577 45.2451L203.517 45.7415L203.457 46.2379L199.513 45.7614L199.573 45.265ZM206.475 46.0989L206.535 45.6025L210.478 46.079L210.418 46.5754L210.358 47.0717L206.415 46.5952L206.475 46.0989ZM213.376 46.9327L213.436 46.4363L217.38 46.9128L217.32 47.4092L217.26 47.9056L213.316 47.4291L213.376 46.9327ZM220.277 47.7666L220.337 47.2702L224.281 47.7467L224.221 48.2431L224.161 48.7395L220.217 48.263L220.277 47.7666ZM227.179 48.6005L227.239 48.1041L231.182 48.5806L231.122 49.077L231.062 49.5734L227.119 49.0969L227.179 48.6005ZM234.08 49.4343L234.14 48.938L238.084 49.4145L238.024 49.9108L237.964 50.4072L234.02 49.9307L234.08 49.4343ZM240.982 50.2682L241.042 49.7718L244.985 50.2483L244.925 50.7447L244.865 51.2411L240.922 50.7646L240.982 50.2682ZM247.883 51.1021L247.943 50.6057L251.887 51.0822L251.827 51.5786L251.767 52.075L247.823 51.5985L247.883 51.1021ZM254.784 51.936L254.844 51.4396L258.788 51.9161L258.728 52.4125L258.668 52.9088L254.724 52.4323L254.784 51.936ZM261.686 52.7698L261.746 52.2734L265.689 52.7499L265.629 53.2463L265.569 53.7427L261.626 53.2662L261.686 52.7698ZM268.587 53.6037L268.647 53.1073L272.591 53.5838L272.531 54.0802L272.471 54.5766L268.527 54.1001L268.587 53.6037ZM275.489 54.4376L275.548 53.9412L279.492 54.4177L279.432 54.9141L279.372 55.4105L275.429 54.934L275.489 54.4376ZM282.39 55.2715L282.45 54.7751L286.394 55.2516L286.334 55.7479L286.274 56.2443L282.33 55.7678L282.39 55.2715ZM289.291 56.1053L289.351 55.6089L293.295 56.0854L293.235 56.5818L293.175 57.0782L289.231 56.6017L289.291 56.1053ZM296.193 56.9392L296.253 56.4428L300.196 56.9193L300.136 57.4157L300.076 57.9121L296.133 57.4356L296.193 56.9392ZM303.094 57.7731L303.154 57.2767L305.126 57.5149L305.066 58.0113L305.006 58.5077L303.034 58.2695L303.094 57.7731ZM305.066 58.0113L305.126 57.5149C305.682 57.5821 306.212 57.6462 306.718 57.7088L306.657 58.205L306.595 58.7012C306.091 58.6388 305.562 58.5749 305.006 58.5077L305.066 58.0113ZM309.04 58.5216L309.112 58.027C310.34 58.2075 311.398 58.402 312.313 58.6529L312.181 59.1351L312.049 59.6173C311.191 59.3822 310.179 59.1946 308.967 59.0163L309.04 58.5216ZM314.399 60.0405L314.66 59.6138C315.166 59.9233 315.609 60.2898 315.999 60.7301L315.625 61.0617L315.251 61.3934C314.929 61.0303 314.564 60.727 314.138 60.4673L314.399 60.0405ZM315.625 61.0617L315.999 60.7301C316.389 61.1703 316.7 61.6535 316.947 62.1939L316.492 62.4014L316.037 62.6089C315.83 62.1553 315.573 61.7565 315.251 61.3934L315.625 61.0617ZM317.125 64.7117L317.619 64.6383C317.758 65.5772 317.825 66.6513 317.857 67.8914L317.357 67.9043L316.857 67.9172C316.825 66.6925 316.761 65.6651 316.63 64.7851L317.125 64.7117ZM317.385 70.308L317.885 70.3065C317.887 70.8161 317.887 71.3503 317.887 71.9102H317.387H316.887C316.887 71.35 316.887 70.8173 316.885 70.3095L317.385 70.308ZM317.387 71.9102H317.887V73.9359H317.387H316.887V71.9102H317.387Z" fill="var(--stroke-0, #0E3572)" fill-opacity="0.24"/>
<path id="Vector 48" d="M529.387 74L527 79H532.774L530.387 74H529.387ZM658.887 5L661.274 1.26184e-07H655.5L657.887 5H658.887ZM646.957 17.6347L646.865 17.1432L646.957 17.6347ZM656.772 14.1587L656.387 13.8392L656.772 14.1587ZM541.316 37.3653L541.225 36.8738L541.316 37.3653ZM531.502 40.8413L531.117 40.5219L531.502 40.8413ZM658.387 2.76621H657.887V3.8727H658.387H658.887V2.76621H658.387ZM658.387 3.8727H657.887C657.887 4.40272 657.887 4.90659 657.885 5.38678L658.385 5.38824L658.885 5.38969C658.887 4.90777 658.887 4.4024 658.887 3.8727H658.387ZM658.359 7.66177L657.859 7.64909C657.83 8.8053 657.77 9.77592 657.649 10.6098L658.143 10.6816L658.638 10.7534C658.767 9.86205 658.829 8.84602 658.859 7.67446L658.359 7.66177ZM657.562 12.872L657.104 12.6715C656.915 13.1033 656.68 13.4866 656.387 13.8392L656.772 14.1587L657.156 14.4781C657.511 14.0507 657.795 13.5867 658.02 13.0725L657.562 12.872ZM656.772 14.1587L656.387 13.8392C656.094 14.1919 655.761 14.4929 655.371 14.758L655.652 15.1714L655.933 15.5849C656.397 15.2692 656.801 14.9056 657.156 14.4781L656.772 14.1587ZM653.606 16.1454L653.444 15.6721C652.647 15.9442 651.704 16.1815 650.572 16.4226L650.677 16.9116L650.781 17.4006C651.927 17.1563 652.915 16.9094 653.767 16.6186L653.606 16.1454ZM648.447 17.3551L648.353 16.8639C647.882 16.9534 647.386 17.0459 646.865 17.1432L646.957 17.6347L647.049 18.1262C647.57 18.029 648.066 17.9362 648.54 17.8463L648.447 17.3551ZM646.957 17.6347L646.865 17.1432L644.853 17.519L644.945 18.0105L645.037 18.502L647.049 18.1262L646.957 17.6347ZM641.927 18.5743L641.835 18.0828L637.81 18.8344L637.902 19.3259L637.994 19.8174L642.018 19.0658L641.927 18.5743ZM634.884 19.8896L634.792 19.3981L630.768 20.1498L630.859 20.6413L630.951 21.1328L634.976 20.3811L634.884 19.8896ZM627.841 21.205L627.749 20.7135L623.725 21.4652L623.817 21.9567L623.909 22.4482L627.933 21.6965L627.841 21.205ZM620.798 22.5204L620.707 22.0289L616.682 22.7805L616.774 23.272L616.866 23.7635L620.89 23.0119L620.798 22.5204ZM613.756 23.8358L613.664 23.3443L609.64 24.0959L609.731 24.5874L609.823 25.0789L613.848 24.3273L613.756 23.8358ZM606.713 25.1511L606.621 24.6596L602.597 25.4113L602.689 25.9028L602.78 26.3943L606.805 25.6426L606.713 25.1511ZM599.67 26.4665L599.579 25.975L595.554 26.7266L595.646 27.2181L595.738 27.7096L599.762 26.958L599.67 26.4665ZM592.628 27.7819L592.536 27.2904L588.511 28.042L588.603 28.5335L588.695 29.025L592.719 28.2734L592.628 27.7819ZM585.585 29.0972L585.493 28.6057L581.469 29.3574L581.56 29.8489L581.652 30.3404L585.677 29.5887L585.585 29.0972ZM578.542 30.4126L578.45 29.9211L574.426 30.6727L574.518 31.1642L574.61 31.6557L578.634 30.9041L578.542 30.4126ZM571.499 31.728L571.408 31.2365L567.383 31.9881L567.475 32.4796L567.567 32.9711L571.591 32.2195L571.499 31.728ZM564.457 33.0433L564.365 32.5518L560.341 33.3035L560.432 33.795L560.524 34.2865L564.549 33.5348L564.457 33.0433ZM557.414 34.3587L557.322 33.8672L553.298 34.6189L553.39 35.1104L553.481 35.6019L557.506 34.8502L557.414 34.3587ZM550.371 35.6741L550.28 35.1826L546.255 35.9342L546.347 36.4257L546.439 36.9172L550.463 36.1656L550.371 35.6741ZM543.329 36.9895L543.237 36.498L541.225 36.8738L541.316 37.3653L541.408 37.8568L543.42 37.481L543.329 36.9895ZM541.316 37.3653L541.225 36.8738C540.704 36.971 540.207 37.0638 539.734 37.1537L539.827 37.6449L539.92 38.1361C540.392 38.0466 540.887 37.9541 541.408 37.8568L541.316 37.3653ZM537.597 38.0884L537.493 37.5994C536.346 37.8437 535.359 38.0906 534.507 38.3814L534.668 38.8546L534.829 39.3279C535.627 39.0558 536.57 38.8185 537.701 38.5774L537.597 38.0884ZM532.622 39.8286L532.34 39.4151C531.876 39.7308 531.472 40.0944 531.117 40.5219L531.502 40.8413L531.886 41.1608C532.179 40.8081 532.513 40.5071 532.903 40.242L532.622 39.8286ZM531.502 40.8413L531.117 40.5219C530.762 40.9493 530.479 41.4133 530.254 41.9275L530.712 42.128L531.17 42.3285C531.359 41.8967 531.594 41.5134 531.886 41.1608L531.502 40.8413ZM530.13 44.3184L529.635 44.2466C529.506 45.138 529.445 46.154 529.415 47.3255L529.915 47.3382L530.414 47.3509C530.444 46.1947 530.504 45.2241 530.625 44.3902L530.13 44.3184ZM529.888 49.6118L529.388 49.6103C529.387 50.0922 529.387 50.5976 529.387 51.1273H529.887H530.387C530.387 50.5973 530.387 50.0934 530.388 49.6132L529.888 49.6118ZM529.887 51.1273H529.387V53.1182H529.887H530.387V51.1273H529.887ZM529.887 56.1046H529.387V60.0864H529.887H530.387V56.1046H529.887ZM529.887 63.0727H529.387V67.0546H529.887H530.387V63.0727H529.887ZM529.887 70.0409H529.387V74.0227H529.887H530.387V70.0409H529.887Z" fill="var(--stroke-0, #0E3572)" fill-opacity="0.24"/>
<path id="Vector 49" d="M347.887 74L350.274 79H344.5L346.887 74H347.887ZM218.387 5L216 1.26184e-07H221.774L219.387 5H218.387ZM230.316 17.6347L230.408 17.1432L230.316 17.6347ZM220.502 14.1587L220.886 13.8392L220.502 14.1587ZM335.957 37.3653L336.049 36.8738L335.957 37.3653ZM345.772 40.8413L346.156 40.5219L345.772 40.8413ZM218.887 2.76621H219.387V3.8727H218.887H218.387V2.76621H218.887ZM218.887 3.8727H219.387C219.387 4.40272 219.387 4.90659 219.388 5.38678L218.888 5.38824L218.388 5.38969C218.387 4.90777 218.387 4.4024 218.387 3.8727H218.887ZM218.915 7.66177L219.414 7.64909C219.444 8.8053 219.504 9.77592 219.625 10.6098L219.13 10.6816L218.635 10.7534C218.506 9.86205 218.445 8.84602 218.415 7.67446L218.915 7.66177ZM219.712 12.872L220.17 12.6715C220.359 13.1033 220.594 13.4866 220.886 13.8392L220.502 14.1587L220.117 14.4781C219.762 14.0507 219.479 13.5867 219.254 13.0725L219.712 12.872ZM220.502 14.1587L220.886 13.8392C221.179 14.1919 221.513 14.4929 221.903 14.758L221.622 15.1714L221.34 15.5849C220.876 15.2692 220.472 14.9056 220.117 14.4781L220.502 14.1587ZM223.668 16.1454L223.829 15.6721C224.627 15.9442 225.57 16.1815 226.701 16.4226L226.597 16.9116L226.493 17.4006C225.346 17.1563 224.359 16.9094 223.507 16.6186L223.668 16.1454ZM228.827 17.3551L228.92 16.8639C229.392 16.9534 229.887 17.0459 230.408 17.1432L230.316 17.6347L230.225 18.1262C229.704 18.029 229.207 17.9362 228.734 17.8463L228.827 17.3551ZM230.316 17.6347L230.408 17.1432L232.42 17.519L232.329 18.0105L232.237 18.502L230.225 18.1262L230.316 17.6347ZM235.347 18.5743L235.439 18.0828L239.463 18.8344L239.371 19.3259L239.28 19.8174L235.255 19.0658L235.347 18.5743ZM242.39 19.8896L242.481 19.3981L246.506 20.1498L246.414 20.6413L246.322 21.1328L242.298 20.3811L242.39 19.8896ZM249.432 21.205L249.524 20.7135L253.549 21.4652L253.457 21.9567L253.365 22.4482L249.341 21.6965L249.432 21.205ZM256.475 22.5204L256.567 22.0289L260.591 22.7805L260.499 23.272L260.408 23.7635L256.383 23.0119L256.475 22.5204ZM263.518 23.8358L263.61 23.3443L267.634 24.0959L267.542 24.5874L267.45 25.0789L263.426 24.3273L263.518 23.8358ZM270.56 25.1511L270.652 24.6596L274.677 25.4113L274.585 25.9028L274.493 26.3943L270.469 25.6426L270.56 25.1511ZM277.603 26.4665L277.695 25.975L281.719 26.7266L281.628 27.2181L281.536 27.7096L277.511 26.958L277.603 26.4665ZM284.646 27.7819L284.738 27.2904L288.762 28.042L288.67 28.5335L288.579 29.025L284.554 28.2734L284.646 27.7819ZM291.689 29.0972L291.78 28.6057L295.805 29.3574L295.713 29.8489L295.621 30.3404L291.597 29.5887L291.689 29.0972ZM298.731 30.4126L298.823 29.9211L302.848 30.6727L302.756 31.1642L302.664 31.6557L298.64 30.9041L298.731 30.4126ZM305.774 31.728L305.866 31.2365L309.89 31.9881L309.798 32.4796L309.707 32.9711L305.682 32.2195L305.774 31.728ZM312.817 33.0433L312.909 32.5518L316.933 33.3035L316.841 33.795L316.749 34.2865L312.725 33.5348L312.817 33.0433ZM319.859 34.3587L319.951 33.8672L323.976 34.6189L323.884 35.1104L323.792 35.6019L319.768 34.8502L319.859 34.3587ZM326.902 35.6741L326.994 35.1826L331.018 35.9342L330.927 36.4257L330.835 36.9172L326.81 36.1656L326.902 35.6741ZM333.945 36.9895L334.037 36.498L336.049 36.8738L335.957 37.3653L335.865 37.8568L333.853 37.481L333.945 36.9895ZM335.957 37.3653L336.049 36.8738C336.57 36.971 337.066 37.0638 337.54 37.1537L337.447 37.6449L337.353 38.1361C336.882 38.0466 336.386 37.9541 335.865 37.8568L335.957 37.3653ZM339.677 38.0884L339.781 37.5994C340.927 37.8437 341.915 38.0906 342.767 38.3814L342.606 38.8546L342.444 39.3279C341.647 39.0558 340.704 38.8185 339.572 38.5774L339.677 38.0884ZM344.652 39.8286L344.933 39.4151C345.397 39.7308 345.801 40.0944 346.156 40.5219L345.772 40.8413L345.387 41.1608C345.094 40.8081 344.761 40.5071 344.371 40.242L344.652 39.8286ZM345.772 40.8413L346.156 40.5219C346.511 40.9493 346.795 41.4133 347.02 41.9275L346.562 42.128L346.104 42.3285C345.915 41.8967 345.68 41.5134 345.387 41.1608L345.772 40.8413ZM347.143 44.3184L347.638 44.2466C347.767 45.138 347.829 46.154 347.859 47.3255L347.359 47.3382L346.859 47.3509C346.83 46.1947 346.77 45.2241 346.649 44.3902L347.143 44.3184ZM347.385 49.6118L347.885 49.6103C347.887 50.0922 347.887 50.5976 347.887 51.1273H347.387H346.887C346.887 50.5973 346.887 50.0934 346.885 49.6132L347.385 49.6118ZM347.387 51.1273H347.887V53.1182H347.387H346.887V51.1273H347.387ZM347.387 56.1046H347.887V60.0864H347.387H346.887V56.1046H347.387ZM347.387 63.0727H347.887V67.0546H347.387H346.887V63.0727H347.387ZM347.387 70.0409H347.887V74.0227H347.387H346.887V70.0409H347.387Z" fill="var(--stroke-0, #0E3572)" fill-opacity="0.24"/>
<path id="Vector 50" d="M562.387 74L560 79H565.774L563.387 74H562.387ZM877.887 5L880.274 1.26184e-07H874.5L876.887 5H877.887ZM865.066 22.9887L865.126 23.4851L865.066 22.9887ZM875.625 19.9383L875.251 19.6066L875.625 19.9383ZM564.649 61.0617L564.274 60.7301L564.649 61.0617ZM877.387 6.49268H876.887V9.08975H877.387H877.887V6.49268H877.387ZM877.387 9.08975H876.887C876.887 9.64997 876.887 10.1827 876.885 10.6905L877.385 10.692L877.885 10.6935C877.887 10.1839 877.887 9.64965 877.887 9.08975H877.387ZM877.357 13.0957L876.857 13.0828C876.825 14.3075 876.761 15.3349 876.63 16.2149L877.125 16.2883L877.619 16.3617C877.758 15.4228 877.825 14.3487 877.857 13.1086L877.357 13.0957ZM876.492 18.5986L876.037 18.3911C875.83 18.8447 875.573 19.2435 875.251 19.6066L875.625 19.9383L875.999 20.2699C876.389 19.8297 876.7 19.3465 876.947 18.8061L876.492 18.5986ZM875.625 19.9383L875.251 19.6066C874.929 19.9697 874.564 20.273 874.138 20.5327L874.399 20.9595L874.66 21.3862C875.166 21.0767 875.609 20.7102 875.999 20.2699L875.625 19.9383ZM872.181 21.8649L872.049 21.3827C871.191 21.6178 870.179 21.8054 868.967 21.9837L869.04 22.4784L869.112 22.973C870.34 22.7925 871.398 22.598 872.313 22.3471L872.181 21.8649ZM866.657 22.795L866.595 22.2988C866.091 22.3612 865.562 22.4251 865.006 22.4923L865.066 22.9887L865.126 23.4851C865.682 23.4179 866.212 23.3538 866.718 23.2912L866.657 22.795ZM865.066 22.9887L865.006 22.4923L863.034 22.7305L863.094 23.2269L863.154 23.7233L865.126 23.4851L865.066 22.9887ZM860.137 23.5843L860.077 23.0879L856.133 23.5644L856.193 24.0608L856.253 24.5572L860.197 24.0807L860.137 23.5843ZM853.235 24.4182L853.175 23.9218L849.232 24.3983L849.291 24.8947L849.351 25.391L853.295 24.9146L853.235 24.4182ZM846.334 25.252L846.274 24.7556L842.33 25.2321L842.39 25.7285L842.45 26.2249L846.394 25.7484L846.334 25.252ZM839.432 26.0859L839.372 25.5895L835.429 26.066L835.489 26.5624L835.549 27.0588L839.492 26.5823L839.432 26.0859ZM832.531 26.9198L832.471 26.4234L828.527 26.8999L828.587 27.3963L828.647 27.8927L832.591 27.4162L832.531 26.9198ZM825.63 27.7537L825.57 27.2573L821.626 27.7338L821.686 28.2302L821.746 28.7265L825.69 28.25L825.63 27.7537ZM818.728 28.5875L818.668 28.0911L814.725 28.5676L814.784 29.064L814.844 29.5604L818.788 29.0839L818.728 28.5875ZM811.827 29.4214L811.767 28.925L807.823 29.4015L807.883 29.8979L807.943 30.3943L811.887 29.9178L811.827 29.4214ZM804.925 30.2553L804.865 29.7589L800.922 30.2354L800.982 30.7318L801.042 31.2282L804.985 30.7517L804.925 30.2553ZM798.024 31.0891L797.964 30.5928L794.02 31.0693L794.08 31.5656L794.14 32.062L798.084 31.5855L798.024 31.0891ZM791.123 31.923L791.063 31.4266L787.119 31.9031L787.179 32.3995L787.239 32.8959L791.183 32.4194L791.123 31.923ZM784.221 32.7569L784.161 32.2605L780.218 32.737L780.277 33.2334L780.337 33.7298L784.281 33.2533L784.221 32.7569ZM777.32 33.5908L777.26 33.0944L773.316 33.5709L773.376 34.0673L773.436 34.5637L777.38 34.0872L777.32 33.5908ZM770.418 34.4246L770.358 33.9282L766.415 34.4047L766.475 34.9011L766.535 35.3975L770.478 34.921L770.418 34.4246ZM763.517 35.2585L763.457 34.7621L759.513 35.2386L759.573 35.735L759.633 36.2314L763.577 35.7549L763.517 35.2585ZM756.616 36.0924L756.556 35.596L752.612 36.0725L752.672 36.5689L752.732 37.0653L756.676 36.5888L756.616 36.0924ZM749.714 36.9263L749.654 36.4299L745.711 36.9064L745.771 37.4028L745.83 37.8991L749.774 37.4226L749.714 36.9263ZM742.813 37.7601L742.753 37.2637L738.809 37.7402L738.869 38.2366L738.929 38.733L742.873 38.2565L742.813 37.7601ZM735.911 38.594L735.851 38.0976L731.908 38.5741L731.968 39.0705L732.028 39.5669L735.971 39.0904L735.911 38.594ZM729.01 39.4279L728.95 38.9315L725.006 39.408L725.066 39.9044L725.126 40.4008L729.07 39.9243L729.01 39.4279ZM722.109 40.2617L722.049 39.7654L718.105 40.2419L718.165 40.7382L718.225 41.2346L722.169 40.7581L722.109 40.2617ZM715.207 41.0956L715.147 40.5992L711.204 41.0757L711.264 41.5721L711.324 42.0685L715.267 41.592L715.207 41.0956ZM708.306 41.9295L708.246 41.4331L704.302 41.9096L704.362 42.406L704.422 42.9024L708.366 42.4259L708.306 41.9295ZM701.404 42.7634L701.344 42.267L697.401 42.7435L697.461 43.2399L697.521 43.7363L701.464 43.2598L701.404 42.7634ZM694.503 43.5972L694.443 43.1008L690.499 43.5773L690.559 44.0737L690.619 44.5701L694.563 44.0936L694.503 43.5972ZM687.602 44.4311L687.542 43.9347L683.598 44.4112L683.658 44.9076L683.718 45.404L687.662 44.9275L687.602 44.4311ZM680.7 45.265L680.64 44.7686L676.697 45.2451L676.757 45.7415L676.817 46.2379L680.76 45.7614L680.7 45.265ZM673.799 46.0989L673.739 45.6025L669.795 46.079L669.855 46.5754L669.915 47.0717L673.859 46.5952L673.799 46.0989ZM666.897 46.9327L666.838 46.4363L662.894 46.9128L662.954 47.4092L663.014 47.9056L666.957 47.4291L666.897 46.9327ZM659.996 47.7666L659.936 47.2702L655.992 47.7467L656.052 48.2431L656.112 48.7395L660.056 48.263L659.996 47.7666ZM653.095 48.6005L653.035 48.1041L649.091 48.5806L649.151 49.077L649.211 49.5734L653.155 49.0969L653.095 48.6005ZM646.193 49.4343L646.133 48.938L642.19 49.4145L642.25 49.9108L642.31 50.4072L646.253 49.9307L646.193 49.4343ZM639.292 50.2682L639.232 49.7718L635.288 50.2483L635.348 50.7447L635.408 51.2411L639.352 50.7646L639.292 50.2682ZM632.391 51.1021L632.331 50.6057L628.387 51.0822L628.447 51.5786L628.507 52.075L632.451 51.5985L632.391 51.1021ZM625.489 51.936L625.429 51.4396L621.486 51.9161L621.545 52.4125L621.605 52.9088L625.549 52.4323L625.489 51.936ZM618.588 52.7698L618.528 52.2734L614.584 52.7499L614.644 53.2463L614.704 53.7427L618.648 53.2662L618.588 52.7698ZM611.686 53.6037L611.626 53.1073L607.683 53.5838L607.743 54.0802L607.803 54.5766L611.746 54.1001L611.686 53.6037ZM604.785 54.4376L604.725 53.9412L600.781 54.4177L600.841 54.9141L600.901 55.4105L604.845 54.934L604.785 54.4376ZM597.884 55.2715L597.824 54.7751L593.88 55.2516L593.94 55.7479L594 56.2443L597.944 55.7678L597.884 55.2715ZM590.982 56.1053L590.922 55.6089L586.979 56.0854L587.038 56.5818L587.098 57.0782L591.042 56.6017L590.982 56.1053ZM584.081 56.9392L584.021 56.4428L580.077 56.9193L580.137 57.4157L580.197 57.9121L584.141 57.4356L584.081 56.9392ZM577.179 57.7731L577.119 57.2767L575.147 57.5149L575.207 58.0113L575.267 58.5077L577.239 58.2695L577.179 57.7731ZM575.207 58.0113L575.147 57.5149C574.592 57.5821 574.061 57.6462 573.555 57.7088L573.617 58.205L573.678 58.7012C574.182 58.6388 574.711 58.5749 575.267 58.5077L575.207 58.0113ZM571.234 58.5216L571.161 58.027C569.934 58.2075 568.876 58.402 567.96 58.6529L568.092 59.1351L568.224 59.6173C569.082 59.3822 570.095 59.1946 571.307 59.0163L571.234 58.5216ZM565.875 60.0405L565.614 59.6138C565.107 59.9233 564.665 60.2898 564.274 60.7301L564.649 61.0617L565.023 61.3934C565.345 61.0303 565.71 60.727 566.135 60.4673L565.875 60.0405ZM564.649 61.0617L564.274 60.7301C563.884 61.1703 563.573 61.6535 563.327 62.1939L563.782 62.4014L564.237 62.6089C564.444 62.1553 564.701 61.7565 565.023 61.3934L564.649 61.0617ZM563.149 64.7117L562.654 64.6383C562.515 65.5772 562.449 66.6513 562.417 67.8914L562.917 67.9043L563.417 67.9172C563.448 66.6925 563.513 65.6651 563.643 64.7851L563.149 64.7117ZM562.888 70.308L562.388 70.3065C562.387 70.8161 562.387 71.3503 562.387 71.9102H562.887H563.387C563.387 71.35 563.387 70.8173 563.388 70.3095L562.888 70.308ZM562.887 71.9102H562.387V73.9359H562.887H563.387V71.9102H562.887Z" fill="var(--stroke-0, #0E3572)" fill-opacity="0.24"/>
<path id="Line 169" d="M439.887 75L442.274 80L436.5 80L438.887 75L439.887 75ZM438.887 5L436.5 2.52368e-07L442.273 0L439.887 5L438.887 5ZM439.387 74.8052L438.887 74.8052L438.887 70.6494L439.387 70.6494L439.887 70.6494L439.887 74.8052L439.387 74.8052ZM439.387 67.5325L438.887 67.5325L438.887 63.3766L439.387 63.3766L439.887 63.3766L439.887 67.5325L439.387 67.5325ZM439.387 60.2597L438.887 60.2597L438.887 56.1039L439.387 56.1039L439.887 56.1039L439.887 60.2597L439.387 60.2597ZM439.387 52.987L438.887 52.987L438.887 48.8312L439.387 48.8312L439.887 48.8312L439.887 52.987L439.387 52.987ZM439.387 45.7143L438.887 45.7143L438.887 41.5584L439.387 41.5584L439.887 41.5584L439.887 45.7143L439.387 45.7143ZM439.387 38.4416L438.887 38.4416L438.887 34.2857L439.387 34.2857L439.887 34.2857L439.887 38.4416L439.387 38.4416ZM439.387 31.1688L438.887 31.1688L438.887 27.013L439.387 27.013L439.887 27.013L439.887 31.1688L439.387 31.1688ZM439.387 23.8961L438.887 23.8961L438.887 19.7403L439.387 19.7403L439.887 19.7403L439.887 23.8961L439.387 23.8961ZM439.387 16.6234L438.887 16.6234L438.887 12.4675L439.387 12.4675L439.887 12.4675L439.887 16.6234L439.387 16.6234ZM439.387 9.35065L438.887 9.35065L438.887 5.1948L439.387 5.1948L439.887 5.1948L439.887 9.35065L439.387 9.35065Z" fill="var(--stroke-0, #0E3572)" fill-opacity="0.24"/>
</g>
</svg>
