<svg width="6" height="50" viewBox="0 0 6 50" fill="none" xmlns="http://www.w3.org/2000/svg">
<path d="M3.38672 45L5.77347 50L-3.26633e-05 50L2.38672 45L3.38672 45ZM2.38672 5L-3.48489e-05 1.26184e-07L5.77347 -1.26184e-07L3.38672 5L2.38672 5ZM2.88672 44.898L2.38672 44.898L2.38672 40.8163L2.88672 40.8163L3.38672 40.8163L3.38672 44.898L2.88672 44.898ZM2.88672 37.7551L2.38672 37.7551L2.38672 33.6735L2.88672 33.6735L3.38672 33.6735L3.38672 37.7551L2.88672 37.7551ZM2.88672 30.6122L2.38672 30.6122L2.38672 26.5306L2.88672 26.5306L3.38672 26.5306L3.38672 30.6122L2.88672 30.6122ZM2.88672 23.4694L2.38672 23.4694L2.38672 19.3878L2.88672 19.3878L3.38672 19.3878L3.38672 23.4694L2.88672 23.4694ZM2.88672 16.3265L2.38672 16.3265L2.38672 12.2449L2.88672 12.2449L3.38672 12.2449L3.38672 16.3265L2.88672 16.3265ZM2.88672 9.18367L2.38672 9.18367L2.38672 5.10204L2.88672 5.10204L3.38672 5.10204L3.38672 9.18367L2.88672 9.18367Z" fill="#0E3572" fill-opacity="0.24"/>
</svg>
