<svg preserveAspectRatio="none" width="100%" height="100%" overflow="visible" style="display: block;" viewBox="0 0 880.274 80" fill="none" xmlns="http://www.w3.org/2000/svg">
<g id="Group 103">
<path id="Vector 46" d="M317.887 6L320.274 1H314.5L316.887 6H317.887ZM2.38675 75L0 80H5.7735L3.38675 75H2.38675ZM15.2074 57.0113L15.1474 56.5149L15.2074 57.0113ZM4.64854 60.0617L5.0227 60.3934L4.64854 60.0617ZM315.625 18.9383L315.999 19.2699L315.625 18.9383ZM2.88675 73.5073H3.38675V70.9102H2.88675H2.38675V73.5073H2.88675ZM2.88675 70.9102H3.38675C3.38675 70.35 3.38675 69.8173 3.38825 69.3095L2.88825 69.308L2.38825 69.3065C2.38675 69.8161 2.38675 70.3503 2.38675 70.9102H2.88675ZM2.91673 66.9043L3.41657 66.9172C3.44815 65.6925 3.51295 64.6651 3.64348 63.7851L3.14889 63.7117L2.6543 63.6383C2.51504 64.5772 2.44888 65.6513 2.4169 66.8914L2.91673 66.9043ZM3.78177 61.4014L4.23668 61.6089C4.44355 61.1553 4.70087 60.7565 5.0227 60.3934L4.64854 60.0617L4.27438 59.7301C3.88416 60.1703 3.57332 60.6535 3.32685 61.1939L3.78177 61.4014ZM4.64854 60.0617L5.0227 60.3934C5.34452 60.0303 5.70967 59.727 6.13512 59.4673L5.87455 59.0405L5.61399 58.6138C5.10711 58.9233 4.6646 59.2898 4.27438 59.7301L4.64854 60.0617ZM8.09228 58.1351L8.22444 58.6173C9.08242 58.3822 10.0947 58.1946 11.3067 58.0163L11.234 57.5216L11.1612 57.027C9.93387 57.2075 8.87552 57.402 7.96012 57.6529L8.09228 58.1351ZM13.6169 57.205L13.6784 57.7012C14.1823 57.6388 14.7112 57.5749 15.2674 57.5077L15.2074 57.0113L15.1474 56.5149C14.5916 56.5821 14.0611 56.6462 13.5555 56.7088L13.6169 57.205ZM15.2074 57.0113L15.2674 57.5077L17.2392 57.2695L17.1792 56.7731L17.1192 56.2767L15.1474 56.5149L15.2074 57.0113ZM20.137 56.4157L20.1969 56.9121L24.1406 56.4356L24.0806 55.9392L24.0206 55.4428L20.077 55.9193L20.137 56.4157ZM27.0384 55.5818L27.0983 56.0782L31.042 55.6017L30.982 55.1053L30.922 54.609L26.9784 55.0854L27.0384 55.5818ZM33.9398 54.748L33.9997 55.2444L37.9434 54.7679L37.8834 54.2715L37.8234 53.7751L33.8798 54.2516L33.9398 54.748ZM40.8412 53.9141L40.9011 54.4105L44.8448 53.934L44.7848 53.4376L44.7248 52.9412L40.7812 53.4177L40.8412 53.9141ZM47.7426 53.0802L47.8025 53.5766L51.7462 53.1001L51.6862 52.6037L51.6262 52.1073L47.6826 52.5838L47.7426 53.0802ZM54.644 52.2463L54.7039 52.7427L58.6476 52.2662L58.5876 51.7698L58.5276 51.2735L54.584 51.75L54.644 52.2463ZM61.5454 51.4125L61.6053 51.9089L65.549 51.4324L65.489 50.936L65.429 50.4396L61.4854 50.9161L61.5454 51.4125ZM68.4468 50.5786L68.5067 51.075L72.4504 50.5985L72.3904 50.1021L72.3304 49.6057L68.3868 50.0822L68.4468 50.5786ZM75.3482 49.7447L75.4081 50.2411L79.3518 49.7646L79.2918 49.2682L79.2318 48.7718L75.2882 49.2483L75.3482 49.7447ZM82.2496 48.9109L82.3095 49.4072L86.2532 48.9307L86.1932 48.4344L86.1332 47.938L82.1896 48.4145L82.2496 48.9109ZM89.1509 48.077L89.2109 48.5734L93.1546 48.0969L93.0946 47.6005L93.0346 47.1041L89.091 47.5806L89.1509 48.077ZM96.0523 47.2431L96.1123 47.7395L100.056 47.263L99.996 46.7666L99.936 46.2702L95.9924 46.7467L96.0523 47.2431ZM102.954 46.4092L103.014 46.9056L106.957 46.4291L106.897 45.9327L106.837 45.4363L102.894 45.9128L102.954 46.4092ZM109.855 45.5754L109.915 46.0718L113.859 45.5953L113.799 45.0989L113.739 44.6025L109.795 45.079L109.855 45.5754ZM116.757 44.7415L116.817 45.2379L120.76 44.7614L120.7 44.265L120.64 43.7686L116.697 44.2451L116.757 44.7415ZM123.658 43.9076L123.718 44.404L127.662 43.9275L127.602 43.4311L127.542 42.9347L123.598 43.4112L123.658 43.9076ZM130.559 43.0737L130.619 43.5701L134.563 43.0936L134.503 42.5972L134.443 42.1009L130.499 42.5774L130.559 43.0737ZM137.461 42.2399L137.521 42.7363L141.464 42.2598L141.404 41.7634L141.344 41.267L137.401 41.7435L137.461 42.2399ZM144.362 41.406L144.422 41.9024L148.366 41.4259L148.306 40.9295L148.246 40.4331L144.302 40.9096L144.362 41.406ZM151.264 40.5721L151.323 41.0685L155.267 40.592L155.207 40.0956L155.147 39.5992L151.204 40.0757L151.264 40.5721ZM158.165 39.7383L158.225 40.2346L162.169 39.7581L162.109 39.2618L162.049 38.7654L158.105 39.2419L158.165 39.7383ZM165.066 38.9044L165.126 39.4008L169.07 38.9243L169.01 38.4279L168.95 37.9315L165.006 38.408L165.066 38.9044ZM171.968 38.0705L172.028 38.5669L175.971 38.0904L175.911 37.594L175.851 37.0976L171.908 37.5741L171.968 38.0705ZM178.869 37.2366L178.929 37.733L182.873 37.2565L182.813 36.7601L182.753 36.2637L178.809 36.7402L178.869 37.2366ZM185.77 36.4028L185.83 36.8992L189.774 36.4227L189.714 35.9263L189.654 35.4299L185.71 35.9064L185.77 36.4028ZM192.672 35.5689L192.732 36.0653L196.675 35.5888L196.615 35.0924L196.556 34.596L192.612 35.0725L192.672 35.5689ZM199.573 34.735L199.633 35.2314L203.577 34.7549L203.517 34.2585L203.457 33.7621L199.513 34.2386L199.573 34.735ZM206.475 33.9011L206.535 34.3975L210.478 33.921L210.418 33.4246L210.358 32.9283L206.415 33.4048L206.475 33.9011ZM213.376 33.0673L213.436 33.5637L217.38 33.0872L217.32 32.5908L217.26 32.0944L213.316 32.5709L213.376 33.0673ZM220.277 32.2334L220.337 32.7298L224.281 32.2533L224.221 31.7569L224.161 31.2605L220.217 31.737L220.277 32.2334ZM227.179 31.3995L227.239 31.8959L231.182 31.4194L231.122 30.923L231.062 30.4266L227.119 30.9031L227.179 31.3995ZM234.08 30.5657L234.14 31.062L238.084 30.5855L238.024 30.0892L237.964 29.5928L234.02 30.0693L234.08 30.5657ZM240.982 29.7318L241.042 30.2282L244.985 29.7517L244.925 29.2553L244.865 28.7589L240.922 29.2354L240.982 29.7318ZM247.883 28.8979L247.943 29.3943L251.887 28.9178L251.827 28.4214L251.767 27.925L247.823 28.4015L247.883 28.8979ZM254.784 28.064L254.844 28.5604L258.788 28.0839L258.728 27.5875L258.668 27.0912L254.724 27.5677L254.784 28.064ZM261.686 27.2302L261.746 27.7266L265.689 27.2501L265.629 26.7537L265.569 26.2573L261.626 26.7338L261.686 27.2302ZM268.587 26.3963L268.647 26.8927L272.591 26.4162L272.531 25.9198L272.471 25.4234L268.527 25.8999L268.587 26.3963ZM275.489 25.5624L275.548 26.0588L279.492 25.5823L279.432 25.0859L279.372 24.5895L275.429 25.066L275.489 25.5624ZM282.39 24.7286L282.45 25.2249L286.394 24.7484L286.334 24.2521L286.274 23.7557L282.33 24.2322L282.39 24.7286ZM289.291 23.8947L289.351 24.3911L293.295 23.9146L293.235 23.4182L293.175 22.9218L289.231 23.3983L289.291 23.8947ZM296.193 23.0608L296.253 23.5572L300.196 23.0807L300.136 22.5843L300.076 22.0879L296.133 22.5644L296.193 23.0608ZM303.094 22.2269L303.154 22.7233L305.126 22.4851L305.066 21.9887L305.006 21.4923L303.034 21.7305L303.094 22.2269ZM305.066 21.9887L305.126 22.4851C305.682 22.4179 306.212 22.3538 306.718 22.2912L306.657 21.795L306.595 21.2988C306.091 21.3612 305.562 21.4251 305.006 21.4923L305.066 21.9887ZM309.04 21.4784L309.112 21.973C310.34 21.7925 311.398 21.598 312.313 21.3471L312.181 20.8649L312.049 20.3827C311.191 20.6178 310.179 20.8054 308.967 20.9837L309.04 21.4784ZM314.399 19.9595L314.66 20.3862C315.166 20.0767 315.609 19.7102 315.999 19.2699L315.625 18.9383L315.251 18.6066C314.929 18.9697 314.564 19.273 314.138 19.5327L314.399 19.9595ZM315.625 18.9383L315.999 19.2699C316.389 18.8297 316.7 18.3465 316.947 17.8061L316.492 17.5986L316.037 17.3911C315.83 17.8447 315.573 18.2435 315.251 18.6066L315.625 18.9383ZM317.125 15.2883L317.619 15.3617C317.758 14.4228 317.825 13.3487 317.857 12.1086L317.357 12.0957L316.857 12.0828C316.825 13.3075 316.761 14.3349 316.63 15.2149L317.125 15.2883ZM317.385 9.69198L317.885 9.69346C317.887 9.18393 317.887 8.64965 317.887 8.08975H317.387H316.887C316.887 8.64997 316.887 9.18272 316.885 9.6905L317.385 9.69198ZM317.387 8.08975H317.887V6.06411H317.387H316.887V8.08975H317.387Z" fill="var(--stroke-0, #0E3572)" fill-opacity="0.24"/>
<path id="Vector 44" d="M529.387 6L527 1H532.774L530.387 6H529.387ZM658.887 75L661.274 80H655.5L657.887 75H658.887ZM646.957 62.3653L646.865 62.8568L646.957 62.3653ZM656.772 65.8413L656.387 66.1608L656.772 65.8413ZM541.316 42.6347L541.225 43.1262L541.316 42.6347ZM531.502 39.1587L531.117 39.4781L531.502 39.1587ZM658.387 77.2338H657.887V76.1273H658.387H658.887V77.2338H658.387ZM658.387 76.1273H657.887C657.887 75.5973 657.887 75.0934 657.885 74.6132L658.385 74.6118L658.885 74.6103C658.887 75.0922 658.887 75.5976 658.887 76.1273H658.387ZM658.359 72.3382L657.859 72.3509C657.83 71.1947 657.77 70.2241 657.649 69.3902L658.143 69.3184L658.638 69.2466C658.767 70.138 658.829 71.154 658.859 72.3255L658.359 72.3382ZM657.562 67.128L657.104 67.3285C656.915 66.8967 656.68 66.5134 656.387 66.1608L656.772 65.8413L657.156 65.5219C657.511 65.9493 657.795 66.4133 658.02 66.9275L657.562 67.128ZM656.772 65.8413L656.387 66.1608C656.094 65.8081 655.761 65.5071 655.371 65.242L655.652 64.8286L655.933 64.4151C656.397 64.7308 656.801 65.0944 657.156 65.5219L656.772 65.8413ZM653.606 63.8546L653.444 64.3279C652.647 64.0558 651.704 63.8185 650.572 63.5774L650.677 63.0884L650.781 62.5994C651.927 62.8437 652.915 63.0906 653.767 63.3814L653.606 63.8546ZM648.447 62.6449L648.353 63.1361C647.882 63.0466 647.386 62.9541 646.865 62.8568L646.957 62.3653L647.049 61.8738C647.57 61.971 648.066 62.0638 648.54 62.1537L648.447 62.6449ZM646.957 62.3653L646.865 62.8568L644.853 62.481L644.945 61.9895L645.037 61.498L647.049 61.8738L646.957 62.3653ZM641.927 61.4257L641.835 61.9172L637.81 61.1656L637.902 60.6741L637.994 60.1826L642.018 60.9342L641.927 61.4257ZM634.884 60.1104L634.792 60.6019L630.768 59.8502L630.859 59.3587L630.951 58.8672L634.976 59.6189L634.884 60.1104ZM627.841 58.795L627.749 59.2865L623.725 58.5348L623.817 58.0433L623.909 57.5518L627.933 58.3035L627.841 58.795ZM620.798 57.4796L620.707 57.9711L616.682 57.2195L616.774 56.728L616.866 56.2365L620.89 56.9881L620.798 57.4796ZM613.756 56.1642L613.664 56.6557L609.64 55.9041L609.731 55.4126L609.823 54.9211L613.848 55.6727L613.756 56.1642ZM606.713 54.8489L606.621 55.3404L602.597 54.5887L602.689 54.0972L602.78 53.6057L606.805 54.3574L606.713 54.8489ZM599.67 53.5335L599.579 54.025L595.554 53.2734L595.646 52.7819L595.738 52.2904L599.762 53.042L599.67 53.5335ZM592.628 52.2181L592.536 52.7096L588.511 51.958L588.603 51.4665L588.695 50.975L592.719 51.7266L592.628 52.2181ZM585.585 50.9028L585.493 51.3943L581.469 50.6426L581.56 50.1511L581.652 49.6596L585.677 50.4113L585.585 50.9028ZM578.542 49.5874L578.45 50.0789L574.426 49.3273L574.518 48.8358L574.61 48.3443L578.634 49.0959L578.542 49.5874ZM571.499 48.272L571.408 48.7635L567.383 48.0119L567.475 47.5204L567.567 47.0289L571.591 47.7805L571.499 48.272ZM564.457 46.9567L564.365 47.4482L560.341 46.6965L560.432 46.205L560.524 45.7135L564.549 46.4652L564.457 46.9567ZM557.414 45.6413L557.322 46.1328L553.298 45.3811L553.39 44.8896L553.481 44.3981L557.506 45.1498L557.414 45.6413ZM550.371 44.3259L550.28 44.8174L546.255 44.0658L546.347 43.5743L546.439 43.0828L550.463 43.8344L550.371 44.3259ZM543.329 43.0105L543.237 43.502L541.225 43.1262L541.316 42.6347L541.408 42.1432L543.42 42.519L543.329 43.0105ZM541.316 42.6347L541.225 43.1262C540.704 43.029 540.207 42.9362 539.734 42.8463L539.827 42.3551L539.92 41.8639C540.392 41.9534 540.887 42.0459 541.408 42.1432L541.316 42.6347ZM537.597 41.9116L537.493 42.4006C536.346 42.1563 535.359 41.9094 534.507 41.6186L534.668 41.1454L534.829 40.6721C535.627 40.9442 536.57 41.1815 537.701 41.4226L537.597 41.9116ZM532.622 40.1714L532.34 40.5849C531.876 40.2692 531.472 39.9056 531.117 39.4781L531.502 39.1587L531.886 38.8392C532.179 39.1919 532.513 39.4929 532.903 39.758L532.622 40.1714ZM531.502 39.1587L531.117 39.4781C530.762 39.0507 530.479 38.5867 530.254 38.0725L530.712 37.872L531.17 37.6715C531.359 38.1033 531.594 38.4866 531.886 38.8392L531.502 39.1587ZM530.13 35.6816L529.635 35.7534C529.506 34.862 529.445 33.846 529.415 32.6745L529.915 32.6618L530.414 32.6491C530.444 33.8053 530.504 34.7759 530.625 35.6098L530.13 35.6816ZM529.888 30.3882L529.388 30.3897C529.387 29.9078 529.387 29.4024 529.387 28.8727H529.887H530.387C530.387 29.4027 530.387 29.9066 530.388 30.3868L529.888 30.3882ZM529.887 28.8727H529.387V26.8818H529.887H530.387V28.8727H529.887ZM529.887 23.8954H529.387V19.9136H529.887H530.387V23.8954H529.887ZM529.887 16.9273H529.387V12.9454H529.887H530.387V16.9273H529.887ZM529.887 9.95908H529.387V5.97727H529.887H530.387V9.95908H529.887Z" fill="var(--stroke-0, #0E3572)" fill-opacity="0.24"/>
<path id="Vector 45" d="M347.887 6L350.274 1H344.5L346.887 6H347.887ZM218.387 75L216 80H221.774L219.387 75H218.387ZM230.316 62.3653L230.408 62.8568L230.316 62.3653ZM220.502 65.8413L220.886 66.1608L220.502 65.8413ZM335.957 42.6347L336.049 43.1262L335.957 42.6347ZM345.772 39.1587L346.156 39.4781L345.772 39.1587ZM218.887 77.2338H219.387V76.1273H218.887H218.387V77.2338H218.887ZM218.887 76.1273H219.387C219.387 75.5973 219.387 75.0934 219.388 74.6132L218.888 74.6118L218.388 74.6103C218.387 75.0922 218.387 75.5976 218.387 76.1273H218.887ZM218.915 72.3382L219.414 72.3509C219.444 71.1947 219.504 70.2241 219.625 69.3902L219.13 69.3184L218.635 69.2466C218.506 70.138 218.445 71.154 218.415 72.3255L218.915 72.3382ZM219.712 67.128L220.17 67.3285C220.359 66.8967 220.594 66.5134 220.886 66.1608L220.502 65.8413L220.117 65.5219C219.762 65.9493 219.479 66.4133 219.254 66.9275L219.712 67.128ZM220.502 65.8413L220.886 66.1608C221.179 65.8081 221.513 65.5071 221.903 65.242L221.622 64.8286L221.34 64.4151C220.876 64.7308 220.472 65.0944 220.117 65.5219L220.502 65.8413ZM223.668 63.8546L223.829 64.3279C224.627 64.0558 225.57 63.8185 226.701 63.5774L226.597 63.0884L226.493 62.5994C225.346 62.8437 224.359 63.0906 223.507 63.3814L223.668 63.8546ZM228.827 62.6449L228.92 63.1361C229.392 63.0466 229.887 62.9541 230.408 62.8568L230.316 62.3653L230.225 61.8738C229.704 61.971 229.207 62.0638 228.734 62.1537L228.827 62.6449ZM230.316 62.3653L230.408 62.8568L232.42 62.481L232.329 61.9895L232.237 61.498L230.225 61.8738L230.316 62.3653ZM235.347 61.4257L235.439 61.9172L239.463 61.1656L239.371 60.6741L239.28 60.1826L235.255 60.9342L235.347 61.4257ZM242.39 60.1104L242.481 60.6019L246.506 59.8502L246.414 59.3587L246.322 58.8672L242.298 59.6189L242.39 60.1104ZM249.432 58.795L249.524 59.2865L253.549 58.5348L253.457 58.0433L253.365 57.5518L249.341 58.3035L249.432 58.795ZM256.475 57.4796L256.567 57.9711L260.591 57.2195L260.499 56.728L260.408 56.2365L256.383 56.9881L256.475 57.4796ZM263.518 56.1642L263.61 56.6557L267.634 55.9041L267.542 55.4126L267.45 54.9211L263.426 55.6727L263.518 56.1642ZM270.56 54.8489L270.652 55.3404L274.677 54.5887L274.585 54.0972L274.493 53.6057L270.469 54.3574L270.56 54.8489ZM277.603 53.5335L277.695 54.025L281.719 53.2734L281.628 52.7819L281.536 52.2904L277.511 53.042L277.603 53.5335ZM284.646 52.2181L284.738 52.7096L288.762 51.958L288.67 51.4665L288.579 50.975L284.554 51.7266L284.646 52.2181ZM291.689 50.9028L291.78 51.3943L295.805 50.6426L295.713 50.1511L295.621 49.6596L291.597 50.4113L291.689 50.9028ZM298.731 49.5874L298.823 50.0789L302.848 49.3273L302.756 48.8358L302.664 48.3443L298.64 49.0959L298.731 49.5874ZM305.774 48.272L305.866 48.7635L309.89 48.0119L309.798 47.5204L309.707 47.0289L305.682 47.7805L305.774 48.272ZM312.817 46.9567L312.909 47.4482L316.933 46.6965L316.841 46.205L316.749 45.7135L312.725 46.4652L312.817 46.9567ZM319.859 45.6413L319.951 46.1328L323.976 45.3811L323.884 44.8896L323.792 44.3981L319.768 45.1498L319.859 45.6413ZM326.902 44.3259L326.994 44.8174L331.018 44.0658L330.927 43.5743L330.835 43.0828L326.81 43.8344L326.902 44.3259ZM333.945 43.0105L334.037 43.502L336.049 43.1262L335.957 42.6347L335.865 42.1432L333.853 42.519L333.945 43.0105ZM335.957 42.6347L336.049 43.1262C336.57 43.029 337.066 42.9362 337.54 42.8463L337.447 42.3551L337.353 41.8639C336.882 41.9534 336.386 42.0459 335.865 42.1432L335.957 42.6347ZM339.677 41.9116L339.781 42.4006C340.927 42.1563 341.915 41.9094 342.767 41.6186L342.606 41.1454L342.444 40.6721C341.647 40.9442 340.704 41.1815 339.572 41.4226L339.677 41.9116ZM344.652 40.1714L344.933 40.5849C345.397 40.2692 345.801 39.9056 346.156 39.4781L345.772 39.1587L345.387 38.8392C345.094 39.1919 344.761 39.4929 344.371 39.758L344.652 40.1714ZM345.772 39.1587L346.156 39.4781C346.511 39.0507 346.795 38.5867 347.02 38.0725L346.562 37.872L346.104 37.6715C345.915 38.1033 345.68 38.4866 345.387 38.8392L345.772 39.1587ZM347.143 35.6816L347.638 35.7534C347.767 34.862 347.829 33.846 347.859 32.6745L347.359 32.6618L346.859 32.6491C346.83 33.8053 346.77 34.7759 346.649 35.6098L347.143 35.6816ZM347.385 30.3882L347.885 30.3897C347.887 29.9078 347.887 29.4024 347.887 28.8727H347.387H346.887C346.887 29.4027 346.887 29.9066 346.885 30.3868L347.385 30.3882ZM347.387 28.8727H347.887V26.8818H347.387H346.887V28.8727H347.387ZM347.387 23.8954H347.887V19.9136H347.387H346.887V23.8954H347.387ZM347.387 16.9273H347.887V12.9454H347.387H346.887V16.9273H347.387ZM347.387 9.95908H347.887V5.97727H347.387H346.887V9.95908H347.387Z" fill="var(--stroke-0, #0E3572)" fill-opacity="0.24"/>
<path id="Vector 42" d="M562.387 6L560 1H565.774L563.387 6H562.387ZM877.887 75L880.274 80H874.5L876.887 75H877.887ZM865.066 57.0113L865.126 56.5149L865.066 57.0113ZM875.625 60.0617L875.251 60.3934L875.625 60.0617ZM564.649 18.9383L564.274 19.2699L564.649 18.9383ZM877.387 73.5073H876.887V70.9102H877.387H877.887V73.5073H877.387ZM877.387 70.9102H876.887C876.887 70.35 876.887 69.8173 876.885 69.3095L877.385 69.308L877.885 69.3065C877.887 69.8161 877.887 70.3503 877.887 70.9102H877.387ZM877.357 66.9043L876.857 66.9172C876.825 65.6925 876.761 64.6651 876.63 63.7851L877.125 63.7117L877.619 63.6383C877.758 64.5772 877.825 65.6513 877.857 66.8914L877.357 66.9043ZM876.492 61.4014L876.037 61.6089C875.83 61.1553 875.573 60.7565 875.251 60.3934L875.625 60.0617L875.999 59.7301C876.389 60.1703 876.7 60.6535 876.947 61.1939L876.492 61.4014ZM875.625 60.0617L875.251 60.3934C874.929 60.0303 874.564 59.727 874.138 59.4673L874.399 59.0405L874.66 58.6138C875.166 58.9233 875.609 59.2898 875.999 59.7301L875.625 60.0617ZM872.181 58.1351L872.049 58.6173C871.191 58.3822 870.179 58.1946 868.967 58.0163L869.04 57.5216L869.112 57.027C870.34 57.2075 871.398 57.402 872.313 57.6529L872.181 58.1351ZM866.657 57.205L866.595 57.7012C866.091 57.6388 865.562 57.5749 865.006 57.5077L865.066 57.0113L865.126 56.5149C865.682 56.5821 866.212 56.6462 866.718 56.7088L866.657 57.205ZM865.066 57.0113L865.006 57.5077L863.034 57.2695L863.094 56.7731L863.154 56.2767L865.126 56.5149L865.066 57.0113ZM860.137 56.4157L860.077 56.9121L856.133 56.4356L856.193 55.9392L856.253 55.4428L860.197 55.9193L860.137 56.4157ZM853.235 55.5818L853.175 56.0782L849.232 55.6017L849.291 55.1053L849.351 54.609L853.295 55.0854L853.235 55.5818ZM846.334 54.748L846.274 55.2444L842.33 54.7679L842.39 54.2715L842.45 53.7751L846.394 54.2516L846.334 54.748ZM839.432 53.9141L839.372 54.4105L835.429 53.934L835.489 53.4376L835.549 52.9412L839.492 53.4177L839.432 53.9141ZM832.531 53.0802L832.471 53.5766L828.527 53.1001L828.587 52.6037L828.647 52.1073L832.591 52.5838L832.531 53.0802ZM825.63 52.2463L825.57 52.7427L821.626 52.2662L821.686 51.7698L821.746 51.2735L825.69 51.75L825.63 52.2463ZM818.728 51.4125L818.668 51.9089L814.725 51.4324L814.784 50.936L814.844 50.4396L818.788 50.9161L818.728 51.4125ZM811.827 50.5786L811.767 51.075L807.823 50.5985L807.883 50.1021L807.943 49.6057L811.887 50.0822L811.827 50.5786ZM804.925 49.7447L804.865 50.2411L800.922 49.7646L800.982 49.2682L801.042 48.7718L804.985 49.2483L804.925 49.7447ZM798.024 48.9109L797.964 49.4072L794.02 48.9307L794.08 48.4344L794.14 47.938L798.084 48.4145L798.024 48.9109ZM791.123 48.077L791.063 48.5734L787.119 48.0969L787.179 47.6005L787.239 47.1041L791.183 47.5806L791.123 48.077ZM784.221 47.2431L784.161 47.7395L780.218 47.263L780.277 46.7666L780.337 46.2702L784.281 46.7467L784.221 47.2431ZM777.32 46.4092L777.26 46.9056L773.316 46.4291L773.376 45.9327L773.436 45.4363L777.38 45.9128L777.32 46.4092ZM770.418 45.5754L770.358 46.0718L766.415 45.5953L766.475 45.0989L766.535 44.6025L770.478 45.079L770.418 45.5754ZM763.517 44.7415L763.457 45.2379L759.513 44.7614L759.573 44.265L759.633 43.7686L763.577 44.2451L763.517 44.7415ZM756.616 43.9076L756.556 44.404L752.612 43.9275L752.672 43.4311L752.732 42.9347L756.676 43.4112L756.616 43.9076ZM749.714 43.0737L749.654 43.5701L745.711 43.0936L745.771 42.5972L745.83 42.1009L749.774 42.5774L749.714 43.0737ZM742.813 42.2399L742.753 42.7363L738.809 42.2598L738.869 41.7634L738.929 41.267L742.873 41.7435L742.813 42.2399ZM735.911 41.406L735.851 41.9024L731.908 41.4259L731.968 40.9295L732.028 40.4331L735.971 40.9096L735.911 41.406ZM729.01 40.5721L728.95 41.0685L725.006 40.592L725.066 40.0956L725.126 39.5992L729.07 40.0757L729.01 40.5721ZM722.109 39.7383L722.049 40.2346L718.105 39.7581L718.165 39.2618L718.225 38.7654L722.169 39.2419L722.109 39.7383ZM715.207 38.9044L715.147 39.4008L711.204 38.9243L711.264 38.4279L711.324 37.9315L715.267 38.408L715.207 38.9044ZM708.306 38.0705L708.246 38.5669L704.302 38.0904L704.362 37.594L704.422 37.0976L708.366 37.5741L708.306 38.0705ZM701.404 37.2366L701.344 37.733L697.401 37.2565L697.461 36.7601L697.521 36.2637L701.464 36.7402L701.404 37.2366ZM694.503 36.4028L694.443 36.8992L690.499 36.4227L690.559 35.9263L690.619 35.4299L694.563 35.9064L694.503 36.4028ZM687.602 35.5689L687.542 36.0653L683.598 35.5888L683.658 35.0924L683.718 34.596L687.662 35.0725L687.602 35.5689ZM680.7 34.735L680.64 35.2314L676.697 34.7549L676.757 34.2585L676.817 33.7621L680.76 34.2386L680.7 34.735ZM673.799 33.9011L673.739 34.3975L669.795 33.921L669.855 33.4246L669.915 32.9283L673.859 33.4048L673.799 33.9011ZM666.897 33.0673L666.838 33.5637L662.894 33.0872L662.954 32.5908L663.014 32.0944L666.957 32.5709L666.897 33.0673ZM659.996 32.2334L659.936 32.7298L655.992 32.2533L656.052 31.7569L656.112 31.2605L660.056 31.737L659.996 32.2334ZM653.095 31.3995L653.035 31.8959L649.091 31.4194L649.151 30.923L649.211 30.4266L653.155 30.9031L653.095 31.3995ZM646.193 30.5657L646.133 31.062L642.19 30.5855L642.25 30.0892L642.31 29.5928L646.253 30.0693L646.193 30.5657ZM639.292 29.7318L639.232 30.2282L635.288 29.7517L635.348 29.2553L635.408 28.7589L639.352 29.2354L639.292 29.7318ZM632.391 28.8979L632.331 29.3943L628.387 28.9178L628.447 28.4214L628.507 27.925L632.451 28.4015L632.391 28.8979ZM625.489 28.064L625.429 28.5604L621.486 28.0839L621.545 27.5875L621.605 27.0912L625.549 27.5677L625.489 28.064ZM618.588 27.2302L618.528 27.7266L614.584 27.2501L614.644 26.7537L614.704 26.2573L618.648 26.7338L618.588 27.2302ZM611.686 26.3963L611.626 26.8927L607.683 26.4162L607.743 25.9198L607.803 25.4234L611.746 25.8999L611.686 26.3963ZM604.785 25.5624L604.725 26.0588L600.781 25.5823L600.841 25.0859L600.901 24.5895L604.845 25.066L604.785 25.5624ZM597.884 24.7286L597.824 25.2249L593.88 24.7484L593.94 24.2521L594 23.7557L597.944 24.2322L597.884 24.7286ZM590.982 23.8947L590.922 24.3911L586.979 23.9146L587.038 23.4182L587.098 22.9218L591.042 23.3983L590.982 23.8947ZM584.081 23.0608L584.021 23.5572L580.077 23.0807L580.137 22.5843L580.197 22.0879L584.141 22.5644L584.081 23.0608ZM577.179 22.2269L577.119 22.7233L575.147 22.4851L575.207 21.9887L575.267 21.4923L577.239 21.7305L577.179 22.2269ZM575.207 21.9887L575.147 22.4851C574.592 22.4179 574.061 22.3538 573.555 22.2912L573.617 21.795L573.678 21.2988C574.182 21.3612 574.711 21.4251 575.267 21.4923L575.207 21.9887ZM571.234 21.4784L571.161 21.973C569.934 21.7925 568.876 21.598 567.96 21.3471L568.092 20.8649L568.224 20.3827C569.082 20.6178 570.095 20.8054 571.307 20.9837L571.234 21.4784ZM565.875 19.9595L565.614 20.3862C565.107 20.0767 564.665 19.7102 564.274 19.2699L564.649 18.9383L565.023 18.6066C565.345 18.9697 565.71 19.273 566.135 19.5327L565.875 19.9595ZM564.649 18.9383L564.274 19.2699C563.884 18.8297 563.573 18.3465 563.327 17.8061L563.782 17.5986L564.237 17.3911C564.444 17.8447 564.701 18.2435 565.023 18.6066L564.649 18.9383ZM563.149 15.2883L562.654 15.3617C562.515 14.4228 562.449 13.3487 562.417 12.1086L562.917 12.0957L563.417 12.0828C563.448 13.3075 563.513 14.3349 563.643 15.2149L563.149 15.2883ZM562.888 9.69198L562.388 9.69346C562.387 9.18393 562.387 8.64965 562.387 8.08975H562.887H563.387C563.387 8.64997 563.387 9.18272 563.388 9.6905L562.888 9.69198ZM562.887 8.08975H562.387V6.06411H562.887H563.387V8.08975H562.887Z" fill="var(--stroke-0, #0E3572)" fill-opacity="0.24"/>
<path id="Line 168" d="M439.887 5L442.274 2.52368e-07L436.5 0L438.887 5L439.887 5ZM438.887 75L436.5 80L442.273 80L439.887 75L438.887 75ZM439.387 5.19481L438.887 5.19481L438.887 9.35065L439.387 9.35065L439.887 9.35065L439.887 5.19481L439.387 5.19481ZM439.387 12.4675L438.887 12.4675L438.887 16.6234L439.387 16.6234L439.887 16.6234L439.887 12.4675L439.387 12.4675ZM439.387 19.7403L438.887 19.7403L438.887 23.8961L439.387 23.8961L439.887 23.8961L439.887 19.7403L439.387 19.7403ZM439.387 27.013L438.887 27.013L438.887 31.1688L439.387 31.1688L439.887 31.1688L439.887 27.013L439.387 27.013ZM439.387 34.2857L438.887 34.2857L438.887 38.4416L439.387 38.4416L439.887 38.4416L439.887 34.2857L439.387 34.2857ZM439.387 41.5584L438.887 41.5584L438.887 45.7143L439.387 45.7143L439.887 45.7143L439.887 41.5584L439.387 41.5584ZM439.387 48.8312L438.887 48.8312L438.887 52.987L439.387 52.987L439.887 52.987L439.887 48.8312L439.387 48.8312ZM439.387 56.1039L438.887 56.1039L438.887 60.2597L439.387 60.2597L439.887 60.2597L439.887 56.1039L439.387 56.1039ZM439.387 63.3766L438.887 63.3766L438.887 67.5325L439.387 67.5325L439.887 67.5325L439.887 63.3766L439.387 63.3766ZM439.387 70.6494L438.887 70.6494L438.887 74.8052L439.387 74.8052L439.887 74.8052L439.887 70.6494L439.387 70.6494Z" fill="var(--stroke-0, #0E3572)" fill-opacity="0.24"/>
</g>
</svg>
