<svg width="52" height="52" viewBox="0 0 52 52" fill="none" xmlns="http://www.w3.org/2000/svg">
<g clip-path="url(#clip0_1534_260)">
<path d="M7.31248 7.32788H0.761719" stroke="white" stroke-miterlimit="10" stroke-linecap="round" stroke-linejoin="round"/>
<path d="M47.9547 4.36572C48.0398 4.36572 48.1221 4.33212 48.1823 4.27197C48.2423 4.21193 48.2759 4.13029 48.276 4.04541C48.276 3.96035 48.2424 3.87802 48.1823 3.81787C48.1221 3.75772 48.0398 3.72412 47.9547 3.72412C47.8698 3.72423 47.7882 3.75787 47.7281 3.81787C47.668 3.87802 47.6344 3.96035 47.6344 4.04541C47.6345 4.13032 47.6681 4.21192 47.7281 4.27197C47.7882 4.33202 47.8698 4.36561 47.9547 4.36572Z" stroke="white"/>
<path d="M44.6716 4.36572C44.7567 4.36572 44.839 4.33212 44.8992 4.27197C44.9592 4.21193 44.9928 4.13029 44.9929 4.04541C44.9929 3.96035 44.9593 3.87802 44.8992 3.81787C44.839 3.75772 44.7567 3.72412 44.6716 3.72412C44.5868 3.72423 44.5051 3.75787 44.4451 3.81787C44.3849 3.87802 44.3513 3.96035 44.3513 4.04541C44.3514 4.13032 44.385 4.21192 44.4451 4.27197C44.5051 4.33202 44.5867 4.36561 44.6716 4.36572Z" stroke="white"/>
<path d="M41.3887 4.36572C41.4738 4.36572 41.5561 4.33212 41.6163 4.27197C41.6763 4.21193 41.7099 4.13029 41.71 4.04541C41.71 3.96035 41.6764 3.87802 41.6163 3.81787C41.5561 3.75772 41.4738 3.72412 41.3887 3.72412C41.3039 3.72423 41.2222 3.75787 41.1622 3.81787C41.102 3.87802 41.0684 3.96035 41.0684 4.04541C41.0685 4.13032 41.1021 4.21192 41.1622 4.27197C41.2222 4.33202 41.3038 4.36561 41.3887 4.36572Z" stroke="white"/>
<path d="M40.7264 51.2383H49.802C50.5952 51.2383 51.2381 50.5954 51.2381 49.8022V2.19796C51.2381 1.40476 50.5952 0.761867 49.802 0.761867H2.19781C1.40461 0.761867 0.761719 1.40476 0.761719 2.19796V49.8022C0.761719 50.5954 1.40461 51.2383 2.19781 51.2383H37.1718" stroke="white" stroke-miterlimit="10" stroke-linecap="round" stroke-linejoin="round"/>
<path d="M39.2006 33.474C39.3182 32.8341 39.3791 32.1745 39.3791 31.5005C39.3791 25.4919 34.5086 20.6213 28.5 20.6213C22.4914 20.6213 17.6209 25.4919 17.6209 31.5005C17.6209 37.5081 22.4914 42.3788 28.5 42.3788C32.7289 42.3788 36.3941 39.9664 38.1936 36.4429M45 32.327V30.6731C45 30.5481 44.9569 30.4269 44.878 30.3299C44.7992 30.233 44.6893 30.1661 44.567 30.1406L42.5251 29.7152C42.4179 29.693 42.3198 29.6388 42.244 29.5598C42.1681 29.4808 42.118 29.3807 42.1003 29.2726C41.9535 28.3696 41.7165 27.4835 41.3931 26.6277C41.3545 26.5252 41.3478 26.4134 41.374 26.3071C41.4002 26.2008 41.4579 26.1049 41.5397 26.0321L43.0941 24.6438C43.1874 24.5606 43.2491 24.4477 43.2689 24.3243C43.2887 24.2009 43.2654 24.0745 43.2029 23.9662L42.376 22.5339C42.3135 22.4257 42.2156 22.3423 42.0988 22.2977C41.982 22.2531 41.8535 22.2501 41.7347 22.2892L39.7522 22.9423C39.6483 22.9767 39.5365 22.9788 39.4314 22.9484C39.3263 22.9181 39.2328 22.8566 39.1634 22.772C38.5837 22.0646 37.9354 21.4164 37.2281 20.8366C37.1436 20.7672 37.082 20.6737 37.0516 20.5687C37.0212 20.4636 37.0234 20.3517 37.0577 20.2479L37.7108 18.2653C37.7499 18.1466 37.7469 18.018 37.7024 17.9012C37.6578 17.7845 37.5744 17.6866 37.4662 17.6241L36.0339 16.7972C35.9256 16.7347 35.7992 16.7113 35.6757 16.7311C35.5523 16.7509 35.4395 16.8126 35.3562 16.9059L33.9679 18.4603C33.8951 18.5421 33.7992 18.5998 33.6929 18.626C33.5866 18.6522 33.4749 18.6456 33.3724 18.607C32.5166 18.2835 31.6306 18.0466 30.7275 17.8998C30.6194 17.8821 30.5192 17.8319 30.4402 17.7561C30.3612 17.6802 30.307 17.5822 30.2848 17.4749L29.8594 15.433C29.8339 15.3107 29.767 15.2008 29.6701 15.122C29.5731 15.0431 29.4519 15 29.3269 15H27.6731C27.5481 15 27.4269 15.0431 27.3299 15.122C27.233 15.2008 27.1661 15.3107 27.1406 15.433L26.7151 17.4749C26.693 17.5822 26.6388 17.6802 26.5598 17.7561C26.4808 17.8319 26.3806 17.8821 26.2725 17.8998C25.3694 18.0466 24.4834 18.2835 23.6276 18.607C23.5251 18.6456 23.4134 18.6522 23.3071 18.626C23.2008 18.5998 23.1049 18.542 23.0321 18.4603L21.6438 16.9059C21.5605 16.8126 21.4477 16.7509 21.3243 16.7311C21.2008 16.7113 21.0744 16.7347 20.9661 16.7972L19.5338 17.6241C19.4256 17.6866 19.3422 17.7845 19.2976 17.9012C19.2531 18.018 19.2501 18.1466 19.2892 18.2653L19.9423 20.2479C19.9766 20.3517 19.9788 20.4636 19.9484 20.5686C19.918 20.6737 19.8565 20.7671 19.772 20.8366C19.0646 21.4163 18.4163 22.0646 17.8366 22.772C17.7672 22.8565 17.6737 22.918 17.5687 22.9484C17.4636 22.9788 17.3517 22.9767 17.2479 22.9423L15.2653 22.2892C15.1465 22.2501 15.018 22.2531 14.9012 22.2977C14.7844 22.3423 14.6865 22.4257 14.624 22.5339L13.7971 23.9662C13.7346 24.0745 13.7113 24.2009 13.7311 24.3243C13.7509 24.4477 13.8126 24.5606 13.9059 24.6438L15.4603 26.0321C15.5421 26.1049 15.5998 26.2008 15.626 26.3071C15.6522 26.4134 15.6455 26.5252 15.6069 26.6277C15.2835 27.4835 15.0465 28.3696 14.8997 29.2726C14.882 29.3807 14.8318 29.4808 14.756 29.5598C14.6801 29.6388 14.5821 29.693 14.4749 29.7152L12.433 30.1406C12.3107 30.1661 12.2008 30.233 12.122 30.3299C12.0431 30.4269 12 30.5481 12 30.6731V32.327C12 32.452 12.0431 32.5732 12.1219 32.6701C12.2008 32.7671 12.3107 32.834 12.433 32.8594L14.4749 33.2849C14.5821 33.3071 14.6802 33.3612 14.756 33.4402C14.8319 33.5192 14.882 33.6194 14.8997 33.7275C15.0465 34.6305 15.2835 35.5166 15.6069 36.3724C15.6455 36.4749 15.6522 36.5866 15.626 36.693C15.5998 36.7993 15.5421 36.8952 15.4603 36.968L13.9059 38.3562C13.8127 38.4395 13.7509 38.5523 13.7311 38.6757C13.7113 38.7991 13.7346 38.9256 13.7971 39.0339L14.624 40.4662C14.6865 40.5744 14.7844 40.6578 14.9012 40.7024C15.018 40.747 15.1465 40.75 15.2653 40.7109L17.2479 40.0577C17.4606 39.9877 17.6947 40.0548 17.8366 40.2281C18.4163 40.9354 19.0646 41.5837 19.772 42.1634C19.8565 42.2329 19.918 42.3263 19.9484 42.4314C19.9788 42.5365 19.9766 42.6483 19.9423 42.7522L19.2892 44.7348C19.2501 44.8535 19.2531 44.9821 19.2976 45.0988C19.3422 45.2156 19.4256 45.3135 19.5338 45.376L20.9661 46.2029C21.0744 46.2654 21.2008 46.2888 21.3243 46.269C21.4477 46.2492 21.5605 46.1875 21.6438 46.0942L23.0321 44.5398C23.1049 44.458 23.2008 44.4002 23.3071 44.374C23.4134 44.3478 23.5251 44.3545 23.6276 44.3931C24.4834 44.7166 25.3694 44.9535 26.2725 45.1003C26.3806 45.118 26.4808 45.1681 26.5598 45.244C26.6388 45.3198 26.693 45.4179 26.7151 45.5251L27.1406 47.567C27.1661 47.6893 27.2329 47.7992 27.3299 47.8781C27.4269 47.9569 27.5481 48 27.6731 48H29.3269C29.4519 48 29.5731 47.9569 29.6701 47.8781C29.7671 47.7992 29.8339 47.6893 29.8594 47.567L30.2848 45.5251C30.307 45.4179 30.3612 45.3198 30.4402 45.244C30.5192 45.1681 30.6194 45.118 30.7275 45.1003C31.6306 44.9535 32.5166 44.7166 33.3724 44.3931C33.4749 44.3545 33.5866 44.3478 33.6929 44.374C33.7992 44.4002 33.8951 44.458 33.9679 44.5398L35.3562 46.0942C35.4395 46.1875 35.5523 46.2492 35.6757 46.269C35.7992 46.2888 35.9256 46.2654 36.0339 46.2029L37.4662 45.376C37.5744 45.3135 37.6578 45.2156 37.7024 45.0988C37.7469 44.9821 37.7499 44.8535 37.7108 44.7348L37.0577 42.7522C37.0234 42.6483 37.0212 42.5365 37.0517 42.4314C37.0821 42.3263 37.1436 42.2329 37.2281 42.1634C37.9354 41.5837 38.5837 40.9354 39.1634 40.2281C39.2329 40.1435 39.3263 40.082 39.4314 40.0516C39.5365 40.0212 39.6483 40.0234 39.7522 40.0577L41.7347 40.7109C41.8535 40.75 41.982 40.747 42.0988 40.7024C42.2156 40.6578 42.3135 40.5744 42.376 40.4662L43.2029 39.0339C43.2654 38.9256 43.2887 38.7991 43.2689 38.6757C43.2491 38.5523 43.1873 38.4395 43.0941 38.3562L41.5397 36.968C41.4579 36.8952 41.4002 36.7993 41.374 36.693C41.3478 36.5866 41.3545 36.4749 41.3931 36.3724C41.7165 35.5166 41.9535 34.6305 42.1003 33.7275C42.118 33.6194 42.1681 33.5192 42.244 33.4402C42.3198 33.3612 42.4179 33.3071 42.5251 33.2849L44.567 32.8594C44.6893 32.834 44.7992 32.7671 44.8781 32.6701C44.9569 32.5732 45 32.452 45 32.327Z" fill="white" fill-opacity="0.2"/>
<path d="M44.672 30.219V28.3474C44.672 28.206 44.6233 28.0688 44.534 27.9591C44.4448 27.8493 44.3205 27.7736 44.182 27.7447L41.8713 27.2633C41.75 27.2383 41.639 27.177 41.5532 27.0876C41.4674 26.9982 41.4106 26.8848 41.3905 26.7625C41.2244 25.7406 40.9563 24.7379 40.5902 23.7694C40.5466 23.6534 40.539 23.527 40.5687 23.4067C40.5983 23.2864 40.6637 23.1778 40.7562 23.0954L42.5152 21.5244C42.6207 21.4302 42.6906 21.3025 42.713 21.1628C42.7354 21.0232 42.709 20.8801 42.6383 20.7576L41.7025 19.1367C41.6318 19.0142 41.5211 18.9198 41.3889 18.8694C41.2567 18.8189 41.1112 18.8156 40.9769 18.8598L38.7334 19.5988C38.6158 19.6378 38.4893 19.6402 38.3703 19.6058C38.2514 19.5714 38.1456 19.5018 38.067 19.4062C37.411 18.6057 36.6774 17.872 35.8769 17.216C35.7813 17.1374 35.7117 17.0317 35.6773 16.9128C35.6429 16.7938 35.6453 16.6673 35.6842 16.5497L36.4232 14.3061C36.4675 14.1718 36.4641 14.0263 36.4137 13.8942C36.3633 13.762 36.2689 13.6513 36.1464 13.5806L34.5255 12.6448C34.403 12.574 34.2599 12.5476 34.1202 12.57C33.9806 12.5924 33.8529 12.6623 33.7586 12.7678L32.1876 14.5268C32.1052 14.6194 31.9967 14.6847 31.8764 14.7144C31.7561 14.744 31.6297 14.7365 31.5137 14.6929C30.5453 14.3267 29.5425 14.0586 28.5206 13.8926C28.3983 13.8725 28.2849 13.8157 28.1955 13.7299C28.106 13.644 28.0448 13.5331 28.0197 13.4117L27.5383 11.101C27.5094 10.9626 27.4337 10.8382 27.3239 10.749C27.2142 10.6598 27.0771 10.611 26.9356 10.611H25.0641C24.9227 10.611 24.7855 10.6598 24.6758 10.749C24.566 10.8382 24.4903 10.9626 24.4614 11.101L23.98 13.4117C23.955 13.5331 23.8937 13.644 23.8042 13.7299C23.7148 13.8157 23.6015 13.8725 23.4791 13.8926C22.4572 14.0586 21.4544 14.3267 20.486 14.6929C20.37 14.7365 20.2436 14.744 20.1233 14.7144C20.003 14.6847 19.8945 14.6193 19.8121 14.5268L18.2411 12.7678C18.1468 12.6623 18.0191 12.5924 17.8795 12.57C17.7398 12.5476 17.5967 12.574 17.4742 12.6448L15.8533 13.5806C15.7308 13.6513 15.6364 13.762 15.586 13.8942C15.5356 14.0263 15.5322 14.1718 15.5765 14.3061L16.3155 16.5497C16.3544 16.6673 16.3568 16.7938 16.3224 16.9127C16.2881 17.0316 16.2185 17.1374 16.1229 17.216C15.3223 17.872 14.5887 18.6056 13.9327 19.4062C13.8541 19.5018 13.7484 19.5714 13.6294 19.6058C13.5105 19.6402 13.384 19.6378 13.2664 19.5988L11.0228 18.8598C10.8885 18.8156 10.743 18.8189 10.6108 18.8694C10.4787 18.9198 10.3679 19.0142 10.2972 19.1367L9.36138 20.7576C9.29066 20.8801 9.26429 21.0232 9.28671 21.1628C9.30913 21.3025 9.37897 21.4302 9.48447 21.5244L11.2435 23.0954C11.3361 23.1778 11.4014 23.2864 11.4311 23.4067C11.4607 23.527 11.4532 23.6534 11.4095 23.7694C11.0434 24.7379 10.7753 25.7406 10.6092 26.7625C10.5891 26.8848 10.5323 26.9982 10.4465 27.0876C10.3607 27.177 10.2498 27.2383 10.1284 27.2633L7.81773 27.7447C7.67926 27.7736 7.55495 27.8493 7.4657 27.9591C7.37646 28.0688 7.32773 28.206 7.3277 28.3474V30.219C7.32771 30.3605 7.37644 30.4976 7.46569 30.6073C7.55494 30.7171 7.67925 30.7927 7.81773 30.8216L10.1284 31.3031C10.2498 31.3281 10.3607 31.3894 10.4466 31.4788C10.5324 31.5682 10.5891 31.6816 10.6092 31.8039C10.7753 32.8258 11.0434 33.8285 11.4095 34.797C11.4532 34.913 11.4607 35.0394 11.4311 35.1598C11.4014 35.2801 11.3361 35.3886 11.2435 35.471L9.48447 37.042C9.37898 37.1362 9.30915 37.2639 9.28673 37.4035C9.26431 37.5432 9.29067 37.6863 9.36138 37.8089L10.2972 39.4297C10.3679 39.5522 10.4787 39.6466 10.6108 39.697C10.743 39.7475 10.8885 39.7509 11.0228 39.7066L13.2664 38.9675C13.5071 38.8883 13.7721 38.9642 13.9327 39.1602C14.5887 39.9607 15.3223 40.6943 16.1229 41.3503C16.2185 41.429 16.2881 41.5347 16.3224 41.6537C16.3568 41.7726 16.3544 41.8991 16.3155 42.0167L15.5765 44.2603C15.5322 44.3946 15.5356 44.5401 15.586 44.6722C15.6364 44.8044 15.7308 44.9151 15.8533 44.9858L17.4742 45.9216C17.5967 45.9924 17.7398 46.0188 17.8795 45.9964C18.0191 45.974 18.1468 45.9042 18.2411 45.7986L19.8121 44.0396C19.8945 43.9471 20.003 43.8817 20.1233 43.852C20.2436 43.8224 20.37 43.8299 20.486 43.8735C21.4544 44.2397 22.4572 44.5078 23.4791 44.6738C23.6015 44.6939 23.7148 44.7506 23.8042 44.8365C23.8937 44.9223 23.955 45.0332 23.98 45.1546L24.4614 47.4653C24.4903 47.6038 24.566 47.7281 24.6757 47.8173C24.7855 47.9066 24.9226 47.9553 25.0641 47.9553H26.9356C27.0771 47.9553 27.2142 47.9066 27.324 47.8173C27.4337 47.7281 27.5094 47.6038 27.5383 47.4653L28.0197 45.1546C28.0447 45.0332 28.106 44.9223 28.1955 44.8365C28.2849 44.7506 28.3983 44.6939 28.5206 44.6738C29.5425 44.5078 30.5453 44.2397 31.5137 43.8735C31.6297 43.8299 31.7561 43.8224 31.8764 43.852C31.9967 43.8817 32.1052 43.9471 32.1876 44.0396L33.7586 45.7986C33.8529 45.9042 33.9806 45.974 34.1202 45.9964C34.2599 46.0188 34.403 45.9924 34.5255 45.9216L36.1464 44.9858C36.2689 44.9151 36.3633 44.8044 36.4137 44.6722C36.4641 44.5401 36.4675 44.3946 36.4232 44.2603L35.6842 42.0167C35.6453 41.8991 35.6429 41.7726 35.6773 41.6536C35.7117 41.5347 35.7813 41.429 35.8769 41.3503C36.6774 40.6943 37.411 39.9607 38.067 39.1602C38.1456 39.0646 38.2514 38.995 38.3703 38.9606C38.4893 38.9262 38.6158 38.9286 38.7334 38.9675L40.9769 39.7066C41.1112 39.7509 41.2567 39.7475 41.3889 39.697C41.5211 39.6466 41.6318 39.5522 41.7025 39.4297L42.6383 37.8089C42.709 37.6863 42.7354 37.5432 42.713 37.4035C42.6906 37.2639 42.6207 37.1362 42.5152 37.042L40.7562 35.471C40.6637 35.3886 40.5983 35.2801 40.5687 35.1598C40.539 35.0394 40.5466 34.913 40.5902 34.797C40.9563 33.8285 41.2244 32.8258 41.3905 31.8039C41.4106 31.6816 41.4673 31.5682 41.5532 31.4788C41.639 31.3894 41.7499 31.3281 41.8713 31.3031L44.182 30.8216C44.3205 30.7927 44.4448 30.7171 44.534 30.6073C44.6233 30.4976 44.672 30.3605 44.672 30.219Z" stroke="white" stroke-miterlimit="10" stroke-linecap="round" stroke-linejoin="round"/>
<path d="M22.6739 27.2378L19.8913 28.9237C19.7102 29.0334 19.5605 29.1879 19.4566 29.3724C19.3526 29.5568 19.298 29.765 19.298 29.9767V31.3476C19.298 32.0274 19.8492 32.5786 20.5291 32.5786H22.6739" fill="#0E3572"/>
<path d="M22.6739 27.2378L19.8913 28.9237C19.7102 29.0334 19.5605 29.1879 19.4566 29.3724C19.3526 29.5568 19.298 29.765 19.298 29.9767V31.3476C19.298 32.0274 19.8492 32.5786 20.5291 32.5786H22.6739" stroke="white" stroke-miterlimit="10" stroke-linecap="round" stroke-linejoin="round"/>
<path d="M29.326 33.307V27.2378C29.326 24.8449 28.4828 22.5285 26.9447 20.6954C26.4518 20.108 25.5481 20.108 25.0552 20.6954C23.517 22.5285 22.6739 24.8449 22.6739 27.2378V33.307C22.6739 33.4147 22.6951 33.5215 22.7364 33.6211C22.7776 33.7206 22.8381 33.8111 22.9143 33.8873C22.9905 33.9635 23.081 34.024 23.1806 34.0652C23.2802 34.1065 23.3869 34.1277 23.4947 34.1277H28.5052C28.613 34.1277 28.7197 34.1065 28.8193 34.0652C28.9189 34.024 29.0094 33.9635 29.0856 33.8873C29.1618 33.8111 29.2223 33.7206 29.2635 33.6211C29.3048 33.5215 29.326 33.4147 29.326 33.307Z" fill="#0E3572" stroke="white" stroke-miterlimit="10" stroke-linecap="round" stroke-linejoin="round"/>
<path d="M27.7431 34.1277C27.7431 34.1277 27.7431 36.8247 26.2973 38.194C26.1318 38.3507 25.8681 38.3507 25.7026 38.194C24.2568 36.8247 24.2568 34.1277 24.2568 34.1277" fill="#0E3572"/>
<path d="M27.7431 34.1277C27.7431 34.1277 27.7431 36.8247 26.2973 38.194C26.1318 38.3507 25.8681 38.3507 25.7026 38.194C24.2568 36.8247 24.2568 34.1277 24.2568 34.1277" stroke="white" stroke-miterlimit="10" stroke-linecap="round" stroke-linejoin="round"/>
<path d="M29.326 27.2378L32.1086 28.9237C32.2897 29.0334 32.4394 29.1879 32.5433 29.3724C32.6472 29.5568 32.7018 29.765 32.7018 29.9767V31.3476C32.7018 32.0274 32.1506 32.5786 31.4708 32.5786H29.326" fill="#0E3572"/>
<path d="M29.326 27.2378L32.1086 28.9237C32.2897 29.0334 32.4394 29.1879 32.5433 29.3724C32.6472 29.5568 32.7018 29.765 32.7018 29.9767V31.3476C32.7018 32.0274 32.1506 32.5786 31.4708 32.5786H29.326" stroke="white" stroke-miterlimit="10" stroke-linecap="round" stroke-linejoin="round"/>
<path d="M26.1226 27.1172C26.1811 27.0929 26.2309 27.0517 26.2661 26.999C26.3013 26.9464 26.3207 26.8846 26.3208 26.8213C26.3208 26.7362 26.2872 26.6539 26.2271 26.5938C26.1669 26.5336 26.0846 26.5 25.9995 26.5C25.9362 26.5001 25.8744 26.5195 25.8218 26.5547C25.7691 26.5899 25.7279 26.6397 25.7036 26.6982C25.6794 26.7568 25.6727 26.8216 25.6851 26.8838C25.6975 26.9459 25.7282 27.0031 25.7729 27.0479C25.8177 27.0926 25.8749 27.1233 25.937 27.1357C25.9683 27.142 26.0004 27.1428 26.0317 27.1396L26.1226 27.1172Z" stroke="white"/>
</g>
<defs>
<clipPath id="clip0_1534_260">
<rect width="52" height="52" fill="white"/>
</clipPath>
</defs>
</svg>
