<svg width="458" height="337" viewBox="0 0 458 337" fill="none" xmlns="http://www.w3.org/2000/svg">
<g clip-path="url(#clip0_1413_498)">
<rect width="457.886" height="336.648" rx="9.60264" fill="white"/>
<g opacity="0.5">
<mask id="mask0_1413_498" style="mask-type:alpha" maskUnits="userSpaceOnUse" x="-274" y="-160" width="1082" height="625">
<rect width="624.273" height="624.273" transform="matrix(0.866025 0.5 -0.866025 0.5 266.911 -159.771)" fill="url(#paint0_radial_1413_498)"/>
</mask>
<g mask="url(#mask0_1413_498)">
<path d="M254.421 -151.967L-260.398 145.264" stroke="#B3B3B3" stroke-width="1.00028"/>
<path d="M276.947 -138.962L-237.871 158.269" stroke="#B3B3B3" stroke-width="1.00028"/>
<path d="M299.474 -125.955L-215.345 171.275" stroke="#B3B3B3" stroke-width="1.00028"/>
<path d="M322 -112.95L-192.818 184.281" stroke="#B3B3B3" stroke-width="1.00028"/>
<path d="M344.526 -99.9448L-170.293 197.286" stroke="#B3B3B3" stroke-width="1.00028"/>
<path d="M367.054 -86.9382L-147.765 210.292" stroke="#B3B3B3" stroke-width="1.00028"/>
<path d="M389.579 -73.9321L-125.239 223.299" stroke="#B3B3B3" stroke-width="1.00028"/>
<path d="M412.105 -60.928L-102.713 236.303" stroke="#B3B3B3" stroke-width="1.00028"/>
<path d="M434.635 -47.9211L-80.1838 249.31" stroke="#B3B3B3" stroke-width="1.00028"/>
<path d="M457.159 -34.9158L-57.6592 262.315" stroke="#B3B3B3" stroke-width="1.00028"/>
<path d="M479.686 -21.9102L-35.1329 275.321" stroke="#B3B3B3" stroke-width="1.00028"/>
<path d="M502.212 -8.90405L-12.6068 288.327" stroke="#B3B3B3" stroke-width="1.00028"/>
<path d="M524.739 4.10156L9.92073 301.332" stroke="#B3B3B3" stroke-width="1.00028"/>
<path d="M547.266 17.1067L32.4474 314.337" stroke="#B3B3B3" stroke-width="1.00028"/>
<path d="M569.794 30.1133L54.9751 327.344" stroke="#B3B3B3" stroke-width="1.00028"/>
<path d="M592.318 43.1184L77.4997 340.349" stroke="#B3B3B3" stroke-width="1.00028"/>
<path d="M614.846 56.1233L100.028 353.354" stroke="#B3B3B3" stroke-width="1.00028"/>
<path d="M637.371 69.1296L122.553 366.36" stroke="#B3B3B3" stroke-width="1.00028"/>
<path d="M659.899 82.1357L145.081 379.366" stroke="#B3B3B3" stroke-width="1.00028"/>
<path d="M682.424 95.1409L167.605 392.372" stroke="#B3B3B3" stroke-width="1.00028"/>
<path d="M704.951 108.147L190.133 405.378" stroke="#B3B3B3" stroke-width="1.00028"/>
<path d="M727.478 121.153L212.66 418.384" stroke="#B3B3B3" stroke-width="1.00028"/>
<path d="M750.006 134.158L235.187 431.389" stroke="#B3B3B3" stroke-width="1.00028"/>
<path d="M772.53 147.165L257.712 444.395" stroke="#B3B3B3" stroke-width="1.00028"/>
<path d="M795.058 160.17L280.239 457.4" stroke="#B3B3B3" stroke-width="1.00028"/>
<path d="M254.421 -151.967L795.057 160.17" stroke="#B3B3B3" stroke-width="1.00028"/>
<path d="M232.969 -139.582L773.606 172.554" stroke="#B3B3B3" stroke-width="1.00028"/>
<path d="M211.519 -127.198L752.156 184.939" stroke="#B3B3B3" stroke-width="1.00028"/>
<path d="M190.068 -114.813L730.704 197.324" stroke="#B3B3B3" stroke-width="1.00028"/>
<path d="M168.617 -102.429L709.254 209.708" stroke="#B3B3B3" stroke-width="1.00028"/>
<path d="M147.166 -90.0444L687.803 222.092" stroke="#B3B3B3" stroke-width="1.00028"/>
<path d="M125.716 -77.6589L666.353 234.478" stroke="#B3B3B3" stroke-width="1.00028"/>
<path d="M104.265 -65.2744L644.902 246.862" stroke="#B3B3B3" stroke-width="1.00028"/>
<path d="M82.8144 -52.8904L623.451 259.246" stroke="#B3B3B3" stroke-width="1.00028"/>
<path d="M61.3643 -40.5059L602.001 271.631" stroke="#B3B3B3" stroke-width="1.00028"/>
<path d="M39.9131 -28.1199L580.55 284.017" stroke="#B3B3B3" stroke-width="1.00028"/>
<path d="M18.4615 -15.7368L559.098 296.4" stroke="#B3B3B3" stroke-width="1.00028"/>
<path d="M-2.98804 -3.35132L537.649 308.785" stroke="#B3B3B3" stroke-width="1.00028"/>
<path d="M-24.4396 9.0332L516.197 321.17" stroke="#B3B3B3" stroke-width="1.00028"/>
<path d="M-45.8903 21.4172L494.746 333.554" stroke="#B3B3B3" stroke-width="1.00028"/>
<path d="M-67.34 33.8025L473.297 345.939M135.398 150.853C135.398 150.853 149.127 158.78 157.924 163.859" stroke="#B3B3B3" stroke-width="1.00028"/>
<path d="M-88.7722 46.1797L451.864 358.316" stroke="#B3B3B3" stroke-width="1.00028"/>
<path d="M-110.223 58.563L430.414 370.7" stroke="#B3B3B3" stroke-width="1.00028"/>
<path d="M-131.674 70.947L408.962 383.084" stroke="#B3B3B3" stroke-width="1.00028"/>
<path d="M-153.124 83.332L387.513 395.469" stroke="#B3B3B3" stroke-width="1.00028"/>
<path d="M-174.575 95.7166L366.062 407.853" stroke="#B3B3B3" stroke-width="1.00028"/>
<path d="M-196.025 108.101L344.612 420.238" stroke="#B3B3B3" stroke-width="1.00028"/>
<path d="M-217.476 120.485L323.16 432.622" stroke="#B3B3B3" stroke-width="1.00028"/>
<path d="M-238.927 132.871L301.71 445.008" stroke="#B3B3B3" stroke-width="1.00028"/>
<path d="M-260.377 145.255L280.259 457.392" stroke="#B3B3B3" stroke-width="1.00028"/>
</g>
</g>
<path fill-rule="evenodd" clip-rule="evenodd" d="M221.218 101.913L243.55 114.806L265.883 127.7L288.215 140.594L310.547 153.487L332.88 166.381L311.636 178.647L290.391 190.913L269.147 203.178L247.903 215.443L226.674 227.7L204.34 214.805L182.009 201.912L159.676 189.019L137.343 176.125L115.012 163.232L136.241 150.975L157.485 138.71L178.729 126.445L199.974 114.179L221.218 101.913Z" fill="white"/>
<g filter="url(#filter0_i_1413_498)">
<path fill-rule="evenodd" clip-rule="evenodd" d="M167.751 132.064C197.281 115.016 246.328 115.692 277.302 133.574C304.174 149.089 308.613 172.456 290.034 189.507L382.894 243.12L359.6 256.569L266.621 202.888C237.145 213.353 197.049 210.72 170.365 195.314C139.391 177.432 138.221 149.114 167.751 132.064Z" fill="white"/>
</g>
<path d="M167.751 132.064L167.626 131.848H167.626L167.751 132.064ZM277.302 133.574L277.427 133.358V133.358L277.302 133.574ZM290.034 189.507L289.865 189.323L289.614 189.553L289.909 189.723L290.034 189.507ZM382.894 243.12L383.019 243.337L383.395 243.12L383.019 242.904L382.894 243.12ZM359.6 256.569L359.475 256.786L359.6 256.858L359.725 256.786L359.6 256.569ZM266.621 202.888L266.746 202.671L266.646 202.613L266.537 202.652L266.621 202.888ZM170.365 195.314L170.24 195.531H170.24L170.365 195.314ZM167.751 132.064L167.626 131.848C167.479 131.933 167.333 132.018 167.188 132.103L167.314 132.319L167.441 132.534C167.585 132.45 167.73 132.365 167.876 132.281L167.751 132.064ZM166.454 132.832L166.324 132.618C166.04 132.791 165.758 132.965 165.479 133.14L165.612 133.352L165.745 133.564C166.022 133.39 166.301 133.218 166.584 133.046L166.454 132.832ZM164.778 133.886L164.641 133.676C164.358 133.86 164.078 134.045 163.801 134.232L163.941 134.439L164.081 134.646C164.355 134.462 164.633 134.278 164.914 134.095L164.778 133.886ZM163.124 134.999L162.981 134.794C162.708 134.985 162.437 135.177 162.171 135.37L162.317 135.572L162.464 135.775C162.728 135.584 162.996 135.393 163.267 135.204L163.124 134.999ZM161.51 136.167L161.36 135.967C161.093 136.168 160.83 136.369 160.57 136.572L160.723 136.769L160.877 136.966C161.135 136.765 161.396 136.566 161.66 136.367L161.51 136.167ZM159.947 137.386L159.789 137.192C159.527 137.404 159.269 137.618 159.014 137.833L159.175 138.024L159.336 138.215C159.588 138.002 159.844 137.791 160.104 137.58L159.947 137.386ZM158.426 138.668L158.261 138.48C158.008 138.702 157.76 138.925 157.515 139.149L157.684 139.333L157.853 139.518C158.095 139.296 158.341 139.076 158.591 138.856L158.426 138.668ZM156.954 140.015L156.782 139.834C156.541 140.064 156.305 140.294 156.073 140.526L156.25 140.703L156.426 140.88C156.656 140.651 156.889 140.423 157.127 140.196L156.954 140.015ZM155.548 141.419L155.368 141.246C155.136 141.489 154.908 141.732 154.685 141.977L154.87 142.145L155.054 142.314C155.275 142.072 155.5 141.832 155.729 141.592L155.548 141.419ZM154.212 142.884L154.023 142.72C153.801 142.975 153.584 143.231 153.371 143.489L153.564 143.648L153.757 143.807C153.967 143.553 154.181 143.3 154.4 143.048L154.212 142.884ZM152.945 144.418L152.748 144.264C152.54 144.529 152.337 144.796 152.139 145.064L152.34 145.212L152.541 145.361C152.736 145.097 152.936 144.834 153.142 144.572L152.945 144.418ZM151.759 146.02L151.554 145.877C151.362 146.151 151.176 146.426 150.995 146.702L151.204 146.84L151.413 146.977C151.591 146.705 151.775 146.433 151.964 146.163L151.759 146.02ZM150.667 147.683L150.454 147.552C150.279 147.837 150.11 148.122 149.945 148.408L150.162 148.533L150.379 148.657C150.541 148.375 150.708 148.094 150.88 147.814L150.667 147.683ZM149.678 149.407L149.457 149.29C149.3 149.586 149.148 149.882 149.001 150.18L149.225 150.29L149.45 150.401C149.594 150.108 149.744 149.816 149.899 149.525L149.678 149.407ZM148.8 151.19L148.573 151.087C148.434 151.393 148.301 151.701 148.174 152.009L148.406 152.104L148.637 152.199C148.762 151.896 148.892 151.594 149.028 151.293L148.8 151.19ZM148.044 153.027L147.809 152.94C147.692 153.256 147.58 153.572 147.475 153.889L147.712 153.968L147.95 154.047C148.053 153.735 148.163 153.424 148.278 153.114L148.044 153.027ZM147.417 154.913L147.177 154.843C147.082 155.166 146.994 155.49 146.912 155.814L147.154 155.876L147.396 155.937C147.477 155.619 147.564 155.301 147.657 154.983L147.417 154.913ZM146.928 156.842L146.684 156.789C146.613 157.118 146.549 157.447 146.491 157.776L146.738 157.819L146.984 157.863C147.041 157.539 147.104 157.216 147.173 156.894L146.928 156.842ZM146.585 158.801L146.337 158.767C146.292 159.1 146.253 159.432 146.22 159.765L146.469 159.789L146.718 159.813C146.75 159.487 146.788 159.161 146.833 158.835L146.585 158.801ZM146.392 160.781L146.142 160.766C146.122 161.1 146.109 161.434 146.102 161.769L146.352 161.774L146.602 161.779C146.609 161.451 146.622 161.123 146.641 160.795L146.392 160.781ZM146.351 162.768L146.101 162.773C146.107 163.107 146.119 163.441 146.138 163.776L146.388 163.762L146.638 163.748C146.619 163.42 146.607 163.092 146.601 162.764L146.351 162.768ZM146.462 164.753L146.214 164.777C146.245 165.109 146.283 165.442 146.327 165.775L146.574 165.742L146.822 165.709C146.779 165.383 146.742 165.056 146.711 164.73L146.462 164.753ZM146.723 166.724L146.476 166.766C146.532 167.096 146.595 167.425 146.663 167.755L146.908 167.704L147.153 167.653C147.086 167.33 147.025 167.006 146.969 166.682L146.723 166.724ZM147.127 168.67L146.884 168.73C146.964 169.054 147.05 169.379 147.142 169.703L147.382 169.635L147.623 169.567C147.533 169.248 147.448 168.929 147.37 168.611L147.127 168.67ZM147.669 170.583L147.431 170.66C147.533 170.977 147.64 171.294 147.754 171.611L147.989 171.527L148.225 171.442C148.113 171.131 148.007 170.819 147.907 170.507L147.669 170.583ZM148.34 172.456L148.107 172.548C148.23 172.857 148.357 173.166 148.491 173.474L148.72 173.374L148.95 173.275C148.818 172.972 148.693 172.668 148.572 172.364L148.34 172.456ZM149.131 174.283L148.905 174.39C149.046 174.689 149.192 174.988 149.344 175.286L149.567 175.172L149.789 175.059C149.64 174.766 149.496 174.471 149.358 174.177L149.131 174.283ZM150.033 176.058L149.814 176.178C149.972 176.467 150.135 176.756 150.303 177.044L150.519 176.918L150.735 176.792C150.569 176.508 150.409 176.224 150.253 175.938L150.033 176.058ZM151.033 177.772L150.821 177.904C150.996 178.186 151.176 178.468 151.361 178.748L151.569 178.611L151.778 178.473C151.596 178.196 151.418 177.919 151.246 177.64L151.033 177.772ZM152.125 179.431L151.92 179.574C152.111 179.848 152.307 180.122 152.508 180.395L152.709 180.247L152.911 180.099C152.713 179.829 152.519 179.559 152.33 179.288L152.125 179.431ZM153.302 181.034L153.104 181.187C153.307 181.45 153.515 181.712 153.727 181.973L153.921 181.816L154.115 181.658C153.906 181.4 153.701 181.141 153.5 180.881L153.302 181.034ZM154.558 182.583L154.367 182.745C154.581 182.996 154.798 183.246 155.019 183.495L155.206 183.329L155.393 183.163C155.174 182.916 154.959 182.669 154.748 182.421L154.558 182.583ZM155.879 184.07L155.696 184.241C155.92 184.482 156.148 184.723 156.381 184.963L156.56 184.79L156.74 184.616C156.51 184.378 156.285 184.14 156.063 183.9L155.879 184.07ZM157.257 185.496L157.081 185.673C157.318 185.909 157.559 186.144 157.804 186.378L157.977 186.197L158.149 186.016C157.907 185.785 157.668 185.552 157.433 185.319L157.257 185.496ZM158.695 186.871L158.526 187.055C158.769 187.279 159.016 187.502 159.267 187.725L159.433 187.538L159.599 187.35C159.351 187.13 159.106 186.909 158.865 186.687L158.695 186.871ZM160.191 188.198L160.028 188.388C160.277 188.6 160.529 188.812 160.784 189.023L160.944 188.831L161.103 188.638C160.85 188.429 160.6 188.218 160.353 188.008L160.191 188.198ZM161.716 189.458L161.56 189.654C161.821 189.862 162.086 190.07 162.353 190.276L162.506 190.079L162.659 189.881C162.393 189.676 162.131 189.47 161.872 189.263L161.716 189.458ZM163.289 190.673L163.14 190.874C163.405 191.072 163.673 191.269 163.944 191.466L164.091 191.263L164.238 191.061C163.968 190.866 163.702 190.67 163.439 190.473L163.289 190.673ZM164.911 191.847L164.767 192.052C165.035 192.239 165.305 192.426 165.579 192.612L165.719 192.405L165.86 192.198C165.589 192.014 165.32 191.829 165.054 191.642L164.911 191.847ZM166.545 192.958L166.407 193.167C166.686 193.351 166.968 193.534 167.253 193.716L167.388 193.505L167.522 193.295C167.24 193.114 166.96 192.932 166.683 192.749L166.545 192.958ZM168.222 194.031L168.091 194.244C168.371 194.418 168.653 194.591 168.938 194.763L169.068 194.549L169.197 194.335C168.913 194.164 168.633 193.992 168.354 193.819L168.222 194.031ZM169.929 195.061L169.802 195.276C169.948 195.361 170.093 195.446 170.24 195.531L170.365 195.314L170.49 195.098C170.344 195.014 170.199 194.929 170.055 194.845L169.929 195.061ZM170.365 195.314L170.24 195.531C170.383 195.614 170.526 195.696 170.67 195.778L170.794 195.56L170.918 195.343C170.775 195.262 170.632 195.18 170.49 195.098L170.365 195.314ZM171.658 196.045L171.537 196.264C171.827 196.425 172.119 196.584 172.413 196.741L172.531 196.521L172.649 196.301C172.358 196.144 172.068 195.986 171.779 195.826L171.658 196.045ZM173.407 196.986L173.292 197.208C173.585 197.361 173.879 197.513 174.175 197.663L174.289 197.44L174.402 197.217C174.108 197.067 173.815 196.917 173.523 196.764L173.407 196.986ZM175.178 197.885L175.067 198.11C175.364 198.256 175.662 198.401 175.961 198.545L176.069 198.32L176.178 198.094C175.88 197.951 175.584 197.807 175.289 197.661L175.178 197.885ZM176.965 198.744L176.86 198.97C177.161 199.111 177.463 199.249 177.766 199.387L177.869 199.159L177.972 198.932C177.671 198.795 177.37 198.657 177.071 198.517L176.965 198.744ZM178.774 199.564L178.674 199.793C178.976 199.926 179.28 200.058 179.585 200.189L179.684 199.959L179.782 199.729C179.479 199.599 179.176 199.468 178.875 199.335L178.774 199.564ZM180.6 200.346L180.504 200.577C180.809 200.704 181.116 200.83 181.424 200.954L181.517 200.722L181.611 200.491C181.305 200.367 181 200.242 180.696 200.115L180.6 200.346ZM182.438 201.089L182.347 201.322C182.656 201.443 182.966 201.563 183.277 201.682L183.366 201.448L183.455 201.215C183.145 201.097 182.837 200.977 182.53 200.857L182.438 201.089ZM184.294 201.797L184.208 202.032C184.518 202.147 184.829 202.26 185.141 202.372L185.226 202.137L185.31 201.902C185 201.79 184.69 201.677 184.381 201.563L184.294 201.797ZM186.163 202.469L186.08 202.705C186.393 202.814 186.707 202.922 187.021 203.028L187.101 202.791L187.181 202.554C186.868 202.448 186.556 202.341 186.245 202.233L186.163 202.469ZM188.042 203.105L187.964 203.342C188.279 203.446 188.595 203.548 188.911 203.648L188.987 203.41L189.063 203.172C188.748 203.071 188.433 202.97 188.12 202.867L188.042 203.105ZM189.935 203.707L189.861 203.946C190.177 204.043 190.494 204.139 190.812 204.234L190.883 203.994L190.955 203.755C190.639 203.66 190.323 203.565 190.009 203.468L189.935 203.707ZM191.836 204.274L191.767 204.515C192.085 204.607 192.405 204.697 192.725 204.787L192.792 204.546L192.859 204.305C192.541 204.216 192.223 204.126 191.906 204.034L191.836 204.274ZM193.748 204.809L193.682 205.05C194.002 205.136 194.323 205.222 194.644 205.306L194.707 205.064L194.77 204.822C194.451 204.738 194.131 204.653 193.813 204.567L193.748 204.809ZM195.67 205.311L195.609 205.553C195.93 205.634 196.251 205.714 196.573 205.792L196.632 205.549L196.691 205.306C196.37 205.228 196.051 205.149 195.731 205.068L195.67 205.311ZM197.597 205.78L197.54 206.023C197.863 206.099 198.187 206.174 198.511 206.247L198.566 206.003L198.621 205.759C198.299 205.686 197.976 205.612 197.654 205.536L197.597 205.78ZM199.534 206.217L199.481 206.462C199.804 206.532 200.128 206.601 200.453 206.669L200.504 206.424L200.555 206.18C200.232 206.112 199.909 206.043 199.587 205.973L199.534 206.217ZM201.478 206.624L201.429 206.869C201.753 206.934 202.078 206.998 202.404 207.061L202.451 206.815L202.498 206.57C202.174 206.507 201.85 206.444 201.527 206.379L201.478 206.624ZM203.426 206.999L203.381 207.245C203.707 207.305 204.033 207.364 204.36 207.422L204.404 207.175L204.447 206.929C204.121 206.872 203.796 206.813 203.471 206.753L203.426 206.999ZM205.382 207.344L205.34 207.59C205.667 207.645 205.993 207.699 206.321 207.752L206.36 207.505L206.4 207.258C206.074 207.205 205.748 207.152 205.423 207.097L205.382 207.344ZM207.342 207.658L207.304 207.905C207.631 207.955 207.959 208.004 208.288 208.052L208.324 207.804L208.359 207.557C208.032 207.509 207.706 207.461 207.379 207.411L207.342 207.658ZM209.306 207.942L209.272 208.19C209.6 208.235 209.929 208.279 210.258 208.322L210.29 208.074L210.322 207.826C209.994 207.783 209.667 207.74 209.34 207.695L209.306 207.942ZM211.275 208.197L211.245 208.445C211.574 208.485 211.903 208.524 212.232 208.562L212.26 208.313L212.289 208.065C211.961 208.027 211.633 207.989 211.305 207.949L211.275 208.197ZM213.247 208.422L213.221 208.671C213.55 208.706 213.88 208.74 214.21 208.773L214.235 208.524L214.26 208.275C213.931 208.242 213.602 208.209 213.273 208.174L213.247 208.422ZM215.223 208.618L215.2 208.867C215.53 208.897 215.86 208.926 216.19 208.954L216.211 208.705L216.232 208.456C215.903 208.428 215.574 208.399 215.245 208.369L215.223 208.618ZM217.201 208.784L217.182 209.034C217.512 209.059 217.843 209.083 218.173 209.106L218.191 208.857L218.208 208.607C217.879 208.584 217.549 208.56 217.22 208.535L217.201 208.784ZM219.181 208.921L219.166 209.171C219.496 209.192 219.827 209.211 220.158 209.229L220.172 208.979L220.186 208.729C219.856 208.711 219.526 208.692 219.197 208.672L219.181 208.921ZM221.163 209.03L221.152 209.279C221.483 209.295 221.814 209.309 222.145 209.323L222.155 209.073L222.165 208.823C221.835 208.81 221.505 208.795 221.175 208.78L221.163 209.03ZM223.147 209.109L223.139 209.359C223.47 209.369 223.801 209.379 224.133 209.387L224.139 209.137L224.145 208.887C223.815 208.879 223.485 208.869 223.155 208.859L223.147 209.109ZM225.132 209.159L225.127 209.409C225.459 209.414 225.79 209.419 226.121 209.423L226.124 209.173L226.127 208.923C225.796 208.919 225.466 208.914 225.136 208.909L225.132 209.159ZM227.116 209.179L227.115 209.429C227.447 209.43 227.779 209.43 228.11 209.429L228.109 209.179L228.108 208.929C227.778 208.93 227.447 208.93 227.117 208.929L227.116 209.179ZM229.102 209.171L229.105 209.421C229.436 209.417 229.767 209.412 230.098 209.406L230.093 209.156L230.089 208.906C229.759 208.912 229.429 208.917 229.099 208.921L229.102 209.171ZM231.086 209.133L231.093 209.383C231.425 209.374 231.756 209.364 232.087 209.353L232.079 209.103L232.07 208.853C231.74 208.864 231.41 208.874 231.08 208.883L231.086 209.133ZM233.07 209.066L233.08 209.316C233.412 209.302 233.743 209.287 234.074 209.271L234.062 209.021L234.05 208.771C233.72 208.787 233.39 208.802 233.06 208.816L233.07 209.066ZM235.053 208.969L235.068 209.218C235.399 209.2 235.729 209.18 236.06 209.159L236.044 208.909L236.028 208.66C235.698 208.681 235.369 208.701 235.039 208.719L235.053 208.969ZM237.034 208.842L237.052 209.091C237.383 209.068 237.714 209.043 238.044 209.016L238.024 208.767L238.005 208.518C237.675 208.544 237.346 208.569 237.016 208.592L237.034 208.842ZM239.013 208.685L239.035 208.934C239.365 208.905 239.695 208.875 240.024 208.844L240.001 208.595L239.977 208.346C239.649 208.377 239.32 208.407 238.991 208.436L239.013 208.685ZM240.99 208.497L241.015 208.746C241.345 208.712 241.675 208.677 242.004 208.64L241.976 208.392L241.949 208.143C241.621 208.179 241.293 208.214 240.964 208.248L240.99 208.497ZM242.961 208.279L242.99 208.527C243.321 208.488 243.65 208.447 243.979 208.405L243.948 208.157L243.916 207.909C243.589 207.951 243.26 207.991 242.931 208.03L242.961 208.279ZM244.932 208.028L244.966 208.276C245.294 208.232 245.621 208.186 245.949 208.139L245.913 207.892L245.878 207.644C245.552 207.691 245.225 207.736 244.899 207.781L244.932 208.028ZM246.897 207.747L246.934 207.994C247.263 207.944 247.59 207.893 247.918 207.841L247.878 207.594L247.838 207.347C247.513 207.399 247.186 207.45 246.859 207.5L246.897 207.747ZM248.856 207.433L248.897 207.68C249.225 207.624 249.552 207.568 249.879 207.51L249.835 207.264L249.791 207.018C249.466 207.075 249.14 207.132 248.814 207.187L248.856 207.433ZM250.812 207.086L250.858 207.332C251.184 207.271 251.509 207.209 251.833 207.146L251.785 206.901L251.738 206.655C251.415 206.718 251.091 206.78 250.766 206.84L250.812 207.086ZM252.76 206.706L252.81 206.951C253.135 206.885 253.46 206.817 253.784 206.748L253.732 206.503L253.68 206.259C253.357 206.328 253.034 206.395 252.71 206.461L252.76 206.706ZM254.7 206.292L254.755 206.537C255.079 206.464 255.403 206.391 255.725 206.316L255.669 206.072L255.612 205.829C255.291 205.903 254.969 205.976 254.646 206.048L254.7 206.292ZM256.636 205.843L256.695 206.086C257.017 206.008 257.338 205.929 257.659 205.849L257.598 205.606L257.537 205.364C257.218 205.444 256.898 205.523 256.577 205.6L256.636 205.843ZM258.56 205.359L258.623 205.601C258.945 205.517 259.266 205.432 259.586 205.345L259.52 205.103L259.455 204.862C259.136 204.949 258.817 205.034 258.496 205.118L258.56 205.359ZM260.475 204.839L260.543 205.08C260.863 204.99 261.182 204.898 261.499 204.805L261.429 204.565L261.359 204.325C261.043 204.418 260.726 204.509 260.407 204.598L260.475 204.839ZM262.382 204.281L262.455 204.52C262.772 204.424 263.088 204.326 263.404 204.227L263.329 203.989L263.254 203.75C262.94 203.849 262.625 203.946 262.309 204.042L262.382 204.281ZM264.274 203.686L264.351 203.924C264.668 203.821 264.983 203.716 265.298 203.61L265.218 203.373L265.138 203.136C264.825 203.242 264.511 203.346 264.197 203.448L264.274 203.686ZM266.155 203.052L266.237 203.288C266.393 203.233 266.549 203.179 266.705 203.123L266.621 202.888L266.537 202.652C266.383 202.707 266.228 202.761 266.073 202.816L266.155 203.052ZM266.621 202.888L266.496 203.104L266.926 203.353L267.051 203.136L267.177 202.92L266.746 202.671L266.621 202.888ZM267.912 203.633L267.787 203.85L268.648 204.347L268.773 204.13L268.898 203.914L268.037 203.417L267.912 203.633ZM269.634 204.627L269.509 204.844L270.37 205.341L270.495 205.124L270.62 204.908L269.759 204.411L269.634 204.627ZM271.356 205.621L271.231 205.838L272.092 206.335L272.217 206.119L272.342 205.902L271.481 205.405L271.356 205.621ZM273.078 206.616L272.953 206.832L273.814 207.329L273.939 207.113L274.064 206.896L273.203 206.399L273.078 206.616ZM274.8 207.61L274.675 207.826L275.536 208.323L275.661 208.107L275.786 207.89L274.925 207.393L274.8 207.61ZM276.522 208.604L276.396 208.82L277.257 209.317L277.382 209.101L277.507 208.884L276.647 208.387L276.522 208.604ZM278.243 209.598L278.118 209.814L278.979 210.312L279.104 210.095L279.229 209.878L278.368 209.381L278.243 209.598ZM279.965 210.592L279.84 210.809L280.701 211.306L280.826 211.089L280.951 210.872L280.09 210.375L279.965 210.592ZM281.687 211.586L281.562 211.803L282.423 212.3L282.548 212.083L282.673 211.867L281.812 211.37L281.687 211.586ZM283.409 212.58L283.284 212.797L284.145 213.294L284.27 213.077L284.395 212.861L283.534 212.364L283.409 212.58ZM285.131 213.574L285.006 213.791L285.867 214.288L285.992 214.071L286.117 213.855L285.256 213.358L285.131 213.574ZM286.852 214.568L286.727 214.785L287.588 215.282L287.713 215.065L287.838 214.849L286.977 214.352L286.852 214.568ZM288.574 215.563L288.449 215.779L289.31 216.276L289.435 216.06L289.56 215.843L288.699 215.346L288.574 215.563ZM290.296 216.557L290.171 216.773L291.032 217.27L291.157 217.054L291.282 216.837L290.421 216.34L290.296 216.557ZM292.018 217.551L291.893 217.767L292.754 218.264L292.879 218.048L293.004 217.831L292.143 217.334L292.018 217.551ZM293.74 218.545L293.615 218.761L294.476 219.258L294.601 219.042L294.726 218.825L293.865 218.328L293.74 218.545ZM295.462 219.539L295.337 219.756L296.197 220.253L296.322 220.036L296.448 219.819L295.587 219.322L295.462 219.539ZM297.183 220.533L297.058 220.75L297.919 221.247L298.044 221.03L298.169 220.814L297.308 220.316L297.183 220.533ZM298.905 221.527L298.78 221.744L299.641 222.241L299.766 222.024L299.891 221.808L299.03 221.311L298.905 221.527ZM300.627 222.521L300.502 222.738L301.363 223.235L301.488 223.018L301.613 222.802L300.752 222.305L300.627 222.521ZM302.349 223.515L302.224 223.732L303.085 224.229L303.21 224.012L303.335 223.796L302.474 223.299L302.349 223.515ZM304.071 224.509L303.946 224.726L304.807 225.223L304.932 225.007L305.057 224.79L304.196 224.293L304.071 224.509ZM305.793 225.504L305.668 225.72L306.528 226.217L306.653 226.001L306.778 225.784L305.918 225.287L305.793 225.504ZM307.514 226.498L307.389 226.714L308.25 227.211L308.375 226.995L308.5 226.778L307.639 226.281L307.514 226.498ZM309.236 227.492L309.111 227.708L309.972 228.205L310.097 227.989L310.222 227.772L309.361 227.275L309.236 227.492ZM310.958 228.486L310.833 228.702L311.694 229.2L311.819 228.983L311.944 228.766L311.083 228.269L310.958 228.486ZM312.68 229.48L312.555 229.697L313.416 230.194L313.541 229.977L313.666 229.76L312.805 229.263L312.68 229.48ZM314.402 230.474L314.277 230.691L315.138 231.188L315.263 230.971L315.388 230.755L314.527 230.258L314.402 230.474ZM316.123 231.468L315.998 231.685L316.859 232.182L316.984 231.965L317.109 231.749L316.249 231.252L316.123 231.468ZM317.845 232.462L317.72 232.679L318.581 233.176L318.706 232.959L318.831 232.743L317.97 232.246L317.845 232.462ZM319.567 233.456L319.442 233.673L320.303 234.17L320.428 233.953L320.553 233.737L319.692 233.24L319.567 233.456ZM321.289 234.451L321.164 234.667L322.025 235.164L322.15 234.948L322.275 234.731L321.414 234.234L321.289 234.451ZM323.011 235.445L322.886 235.661L323.747 236.158L323.872 235.942L323.997 235.725L323.136 235.228L323.011 235.445ZM324.733 236.439L324.608 236.655L325.468 237.152L325.594 236.936L325.719 236.719L324.858 236.222L324.733 236.439ZM326.454 237.433L326.329 237.649L327.19 238.146L327.315 237.93L327.44 237.713L326.579 237.216L326.454 237.433ZM328.176 238.427L328.051 238.643L328.912 239.141L329.037 238.924L329.162 238.707L328.301 238.21L328.176 238.427ZM329.898 239.421L329.773 239.638L330.634 240.135L330.759 239.918L330.884 239.702L330.023 239.204L329.898 239.421ZM331.62 240.415L331.495 240.632L332.356 241.129L332.481 240.912L332.606 240.696L331.745 240.199L331.62 240.415ZM333.342 241.409L333.217 241.626L334.078 242.123L334.203 241.906L334.328 241.69L333.467 241.193L333.342 241.409ZM335.064 242.403L334.938 242.62L335.799 243.117L335.924 242.9L336.049 242.684L335.189 242.187L335.064 242.403ZM336.785 243.397L336.66 243.614L337.521 244.111L337.646 243.894L337.771 243.678L336.91 243.181L336.785 243.397ZM338.507 244.392L338.382 244.608L339.243 245.105L339.368 244.889L339.493 244.672L338.632 244.175L338.507 244.392ZM340.229 245.386L340.104 245.602L340.965 246.099L341.09 245.883L341.215 245.666L340.354 245.169L340.229 245.386ZM341.951 246.38L341.826 246.596L342.687 247.093L342.812 246.877L342.937 246.66L342.076 246.163L341.951 246.38ZM343.673 247.374L343.548 247.59L344.408 248.087L344.534 247.871L344.659 247.654L343.798 247.157L343.673 247.374ZM345.394 248.368L345.269 248.585L346.13 249.082L346.255 248.865L346.38 248.648L345.519 248.151L345.394 248.368ZM347.116 249.362L346.991 249.579L347.852 250.076L347.977 249.859L348.102 249.643L347.241 249.145L347.116 249.362ZM348.838 250.356L348.713 250.573L349.574 251.07L349.699 250.853L349.824 250.637L348.963 250.14L348.838 250.356ZM350.56 251.35L350.435 251.567L351.296 252.064L351.421 251.847L351.546 251.631L350.685 251.134L350.56 251.35ZM352.282 252.344L352.157 252.561L353.018 253.058L353.143 252.841L353.268 252.625L352.407 252.128L352.282 252.344ZM354.004 253.338L353.878 253.555L354.739 254.052L354.864 253.835L354.989 253.619L354.129 253.122L354.004 253.338ZM355.725 254.333L355.6 254.549L356.461 255.046L356.586 254.83L356.711 254.613L355.85 254.116L355.725 254.333ZM357.447 255.327L357.322 255.543L358.183 256.04L358.308 255.824L358.433 255.607L357.572 255.11L357.447 255.327ZM359.169 256.321L359.044 256.537L359.475 256.786L359.6 256.569L359.725 256.353L359.294 256.104L359.169 256.321ZM359.6 256.569L359.725 256.786L360.173 256.527L360.048 256.311L359.922 256.094L359.475 256.353L359.6 256.569ZM360.943 255.793L361.069 256.01L361.964 255.493L361.839 255.276L361.714 255.06L360.818 255.577L360.943 255.793ZM362.735 254.759L362.86 254.975L363.756 254.458L363.631 254.242L363.506 254.025L362.61 254.542L362.735 254.759ZM364.527 253.724L364.652 253.941L365.548 253.424L365.423 253.207L365.298 252.99L364.402 253.508L364.527 253.724ZM366.319 252.69L366.444 252.906L367.34 252.389L367.215 252.172L367.09 251.956L366.194 252.473L366.319 252.69ZM368.111 251.655L368.236 251.872L369.132 251.354L369.007 251.138L368.882 250.921L367.986 251.439L368.111 251.655ZM369.903 250.621L370.028 250.837L370.924 250.32L370.799 250.103L370.674 249.887L369.778 250.404L369.903 250.621ZM371.695 249.586L371.82 249.803L372.716 249.285L372.591 249.069L372.466 248.852L371.57 249.37L371.695 249.586ZM373.487 248.552L373.612 248.768L374.508 248.251L374.383 248.034L374.258 247.818L373.362 248.335L373.487 248.552ZM375.279 247.517L375.404 247.734L376.3 247.216L376.175 247L376.05 246.783L375.154 247.3L375.279 247.517ZM377.071 246.482L377.196 246.699L378.092 246.182L377.967 245.965L377.842 245.749L376.946 246.266L377.071 246.482ZM378.863 245.448L378.988 245.664L379.884 245.147L379.759 244.931L379.634 244.714L378.738 245.231L378.863 245.448ZM380.655 244.413L380.78 244.63L381.676 244.113L381.551 243.896L381.425 243.679L380.53 244.197L380.655 244.413ZM382.446 243.379L382.572 243.595L383.019 243.337L382.894 243.12L382.769 242.904L382.321 243.162L382.446 243.379ZM382.894 243.12L383.019 242.904L382.59 242.655L382.465 242.872L382.34 243.088L382.769 243.337L382.894 243.12ZM381.605 242.375L381.73 242.159L380.87 241.662L380.745 241.879L380.62 242.096L381.48 242.592L381.605 242.375ZM379.885 241.383L380.01 241.166L379.15 240.67L379.025 240.886L378.9 241.103L379.76 241.599L379.885 241.383ZM378.165 240.39L378.29 240.173L377.431 239.677L377.306 239.893L377.181 240.11L378.04 240.606L378.165 240.39ZM376.446 239.397L376.571 239.18L375.711 238.684L375.586 238.901L375.461 239.117L376.321 239.614L376.446 239.397ZM374.726 238.404L374.851 238.188L373.991 237.691L373.866 237.908L373.741 238.124L374.601 238.621L374.726 238.404ZM373.007 237.411L373.132 237.195L372.272 236.698L372.147 236.915L372.022 237.131L372.882 237.628L373.007 237.411ZM371.287 236.418L371.412 236.202L370.552 235.705L370.427 235.922L370.302 236.139L371.162 236.635L371.287 236.418ZM369.567 235.426L369.692 235.209L368.832 234.713L368.707 234.929L368.582 235.146L369.442 235.642L369.567 235.426ZM367.848 234.433L367.973 234.216L367.113 233.72L366.988 233.936L366.863 234.153L367.723 234.649L367.848 234.433ZM366.128 233.44L366.253 233.223L365.393 232.727L365.268 232.944L365.143 233.16L366.003 233.657L366.128 233.44ZM364.408 232.447L364.533 232.231L363.674 231.734L363.549 231.951L363.424 232.167L364.283 232.664L364.408 232.447ZM362.689 231.454L362.814 231.238L361.954 230.741L361.829 230.958L361.704 231.174L362.564 231.671L362.689 231.454ZM360.969 230.461L361.094 230.245L360.234 229.748L360.109 229.965L359.984 230.182L360.844 230.678L360.969 230.461ZM359.249 229.469L359.374 229.252L358.515 228.756L358.39 228.972L358.265 229.189L359.124 229.685L359.249 229.469ZM357.53 228.476L357.655 228.259L356.795 227.763L356.67 227.979L356.545 228.196L357.405 228.692L357.53 228.476ZM355.81 227.483L355.935 227.266L355.075 226.77L354.95 226.986L354.825 227.203L355.685 227.699L355.81 227.483ZM354.091 226.49L354.216 226.273L353.356 225.777L353.231 225.994L353.106 226.21L353.966 226.707L354.091 226.49ZM352.371 225.497L352.496 225.281L351.636 224.784L351.511 225.001L351.386 225.217L352.246 225.714L352.371 225.497ZM350.651 224.504L350.776 224.288L349.917 223.791L349.791 224.008L349.666 224.225L350.526 224.721L350.651 224.504ZM348.932 223.512L349.057 223.295L348.197 222.799L348.072 223.015L347.947 223.232L348.807 223.728L348.932 223.512ZM347.212 222.519L347.337 222.302L346.477 221.806L346.352 222.022L346.227 222.239L347.087 222.735L347.212 222.519ZM345.492 221.526L345.617 221.309L344.758 220.813L344.633 221.029L344.508 221.246L345.367 221.742L345.492 221.526ZM343.773 220.533L343.898 220.316L343.038 219.82L342.913 220.037L342.788 220.253L343.648 220.75L343.773 220.533ZM342.053 219.54L342.178 219.324L341.318 218.827L341.193 219.044L341.068 219.26L341.928 219.757L342.053 219.54ZM340.333 218.547L340.459 218.331L339.599 217.834L339.474 218.051L339.349 218.268L340.208 218.764L340.333 218.547ZM338.614 217.555L338.739 217.338L337.879 216.842L337.754 217.058L337.629 217.275L338.489 217.771L338.614 217.555ZM336.894 216.562L337.019 216.345L336.159 215.849L336.034 216.065L335.909 216.282L336.769 216.778L336.894 216.562ZM335.175 215.569L335.3 215.352L334.44 214.856L334.315 215.072L334.19 215.289L335.05 215.785L335.175 215.569ZM333.455 214.576L333.58 214.359L332.72 213.863L332.595 214.08L332.47 214.296L333.33 214.793L333.455 214.576ZM331.735 213.583L331.86 213.367L331.001 212.87L330.876 213.087L330.75 213.303L331.61 213.8L331.735 213.583ZM330.016 212.59L330.141 212.374L329.281 211.877L329.156 212.094L329.031 212.311L329.891 212.807L330.016 212.59ZM328.296 211.598L328.421 211.381L327.561 210.885L327.436 211.101L327.311 211.318L328.171 211.814L328.296 211.598ZM326.576 210.605L326.701 210.388L325.842 209.892L325.717 210.108L325.592 210.325L326.451 210.821L326.576 210.605ZM324.857 209.612L324.982 209.395L324.122 208.899L323.997 209.115L323.872 209.332L324.732 209.828L324.857 209.612ZM323.137 208.619L323.262 208.402L322.402 207.906L322.277 208.123L322.152 208.339L323.012 208.836L323.137 208.619ZM321.417 207.626L321.543 207.41L320.683 206.913L320.558 207.13L320.433 207.346L321.292 207.843L321.417 207.626ZM319.698 206.633L319.823 206.417L318.963 205.92L318.838 206.137L318.713 206.353L319.573 206.85L319.698 206.633ZM317.978 205.64L318.103 205.424L317.243 204.927L317.118 205.144L316.993 205.361L317.853 205.857L317.978 205.64ZM316.259 204.648L316.384 204.431L315.524 203.935L315.399 204.151L315.274 204.368L316.134 204.864L316.259 204.648ZM314.539 203.655L314.664 203.438L313.804 202.942L313.679 203.158L313.554 203.375L314.414 203.871L314.539 203.655ZM312.819 202.662L312.944 202.445L312.085 201.949L311.959 202.166L311.834 202.382L312.694 202.879L312.819 202.662ZM311.1 201.669L311.225 201.453L310.365 200.956L310.24 201.173L310.115 201.389L310.975 201.886L311.1 201.669ZM309.38 200.676L309.505 200.46L308.645 199.963L308.52 200.18L308.395 200.396L309.255 200.893L309.38 200.676ZM307.66 199.683L307.785 199.467L306.926 198.97L306.801 199.187L306.676 199.404L307.535 199.9L307.66 199.683ZM305.941 198.691L306.066 198.474L305.206 197.978L305.081 198.194L304.956 198.411L305.816 198.907L305.941 198.691ZM304.221 197.698L304.346 197.481L303.486 196.985L303.361 197.201L303.236 197.418L304.096 197.914L304.221 197.698ZM302.501 196.705L302.626 196.488L301.767 195.992L301.642 196.208L301.517 196.425L302.376 196.921L302.501 196.705ZM300.782 195.712L300.907 195.495L300.047 194.999L299.922 195.216L299.797 195.432L300.657 195.929L300.782 195.712ZM299.062 194.719L299.187 194.503L298.327 194.006L298.202 194.223L298.077 194.439L298.937 194.936L299.062 194.719ZM297.343 193.726L297.468 193.51L296.608 193.013L296.483 193.23L296.358 193.447L297.217 193.943L297.343 193.726ZM295.623 192.734L295.748 192.517L294.888 192.021L294.763 192.237L294.638 192.454L295.498 192.95L295.623 192.734ZM293.903 191.741L294.028 191.524L293.168 191.028L293.043 191.244L292.918 191.461L293.778 191.957L293.903 191.741ZM292.184 190.748L292.309 190.531L291.449 190.035L291.324 190.251L291.199 190.468L292.059 190.964L292.184 190.748ZM290.464 189.755L290.589 189.538L290.159 189.29L290.034 189.507L289.909 189.723L290.339 189.972L290.464 189.755ZM290.034 189.507L290.203 189.691C290.327 189.578 290.45 189.464 290.571 189.35L290.4 189.167L290.229 188.985C290.109 189.098 289.987 189.21 289.865 189.323L290.034 189.507ZM291.114 188.483L291.289 188.662C291.525 188.431 291.758 188.198 291.986 187.965L291.807 187.79L291.628 187.615C291.402 187.846 291.173 188.076 290.939 188.305L291.114 188.483ZM292.492 187.072L292.675 187.242C292.901 187 293.122 186.757 293.339 186.513L293.152 186.347L292.965 186.181C292.751 186.422 292.532 186.662 292.31 186.901L292.492 187.072ZM293.802 185.598L293.993 185.759C294.208 185.506 294.418 185.251 294.623 184.996L294.428 184.839L294.233 184.683C294.03 184.935 293.823 185.186 293.611 185.436L293.802 185.598ZM295.037 184.061L295.236 184.212C295.437 183.947 295.634 183.681 295.826 183.414L295.623 183.269L295.42 183.123C295.231 183.386 295.037 183.648 294.838 183.91L295.037 184.061ZM296.187 182.46L296.394 182.601C296.581 182.324 296.763 182.047 296.94 181.769L296.729 181.635L296.518 181.501C296.344 181.775 296.165 182.048 295.98 182.32L296.187 182.46ZM297.245 180.797L297.46 180.925C297.631 180.638 297.797 180.35 297.957 180.061L297.738 179.94L297.519 179.819C297.362 180.103 297.199 180.386 297.031 180.669L297.245 180.797ZM298.202 179.072L298.424 179.187C298.577 178.89 298.724 178.592 298.866 178.293L298.64 178.186L298.414 178.079C298.274 178.373 298.13 178.666 297.979 178.958L298.202 179.072ZM299.046 177.29L299.276 177.39C299.409 177.083 299.536 176.777 299.657 176.469L299.425 176.377L299.192 176.285C299.073 176.588 298.948 176.889 298.817 177.19L299.046 177.29ZM299.77 175.455L300.006 175.539C300.117 175.224 300.223 174.91 300.322 174.594L300.084 174.519L299.845 174.443C299.748 174.753 299.644 175.063 299.534 175.371L299.77 175.455ZM300.364 173.574L300.605 173.641C300.693 173.32 300.776 172.998 300.852 172.676L300.609 172.618L300.366 172.56C300.291 172.877 300.21 173.192 300.123 173.507L300.364 173.574ZM300.819 171.655L301.064 171.704C301.129 171.378 301.188 171.051 301.24 170.724L300.993 170.684L300.746 170.645C300.695 170.966 300.637 171.286 300.574 171.606L300.819 171.655ZM301.13 169.708L301.379 169.738C301.419 169.408 301.452 169.078 301.48 168.747L301.231 168.727L300.982 168.706C300.955 169.03 300.921 169.354 300.882 169.678L301.13 169.708ZM301.294 167.743L301.543 167.754C301.558 167.422 301.567 167.09 301.569 166.758L301.319 166.756L301.069 166.755C301.067 167.08 301.058 167.406 301.044 167.731L301.294 167.743ZM301.307 165.771L301.557 165.763C301.546 165.431 301.53 165.099 301.507 164.768L301.257 164.785L301.008 164.802C301.03 165.128 301.047 165.453 301.057 165.779L301.307 165.771ZM301.171 163.804L301.419 163.777C301.384 163.447 301.343 163.117 301.295 162.787L301.047 162.823L300.8 162.859C300.847 163.183 300.887 163.507 300.922 163.83L301.171 163.804ZM300.889 161.852L301.135 161.807C301.075 161.481 301.01 161.155 300.938 160.829L300.694 160.883L300.45 160.937C300.52 161.257 300.584 161.577 300.643 161.897L300.889 161.852ZM300.466 159.926L300.708 159.864C300.626 159.543 300.537 159.222 300.443 158.902L300.203 158.973L299.963 159.044C300.056 159.358 300.143 159.673 300.224 159.988L300.466 159.926ZM299.909 158.034L300.147 157.956C300.043 157.641 299.933 157.328 299.817 157.014L299.583 157.101L299.348 157.187C299.462 157.496 299.57 157.804 299.672 158.113L299.909 158.034ZM299.227 156.184L299.459 156.09C299.335 155.783 299.205 155.477 299.069 155.172L298.841 155.273L298.612 155.374C298.745 155.675 298.873 155.976 298.996 156.278L299.227 156.184ZM298.429 154.381L298.654 154.273C298.511 153.974 298.363 153.677 298.209 153.379L297.987 153.494L297.765 153.609C297.916 153.902 298.062 154.195 298.203 154.489L298.429 154.381ZM297.523 152.629L297.742 152.508C297.581 152.218 297.415 151.929 297.245 151.641L297.029 151.768L296.814 151.896C296.983 152.18 297.146 152.465 297.304 152.751L297.523 152.629ZM296.519 150.932L296.73 150.799C296.554 150.519 296.373 150.24 296.188 149.961L295.979 150.1L295.771 150.239C295.955 150.513 296.133 150.789 296.307 151.065L296.519 150.932ZM295.425 149.291L295.629 149.147C295.439 148.877 295.245 148.608 295.046 148.34L294.845 148.489L294.644 148.638C294.841 148.903 295.033 149.168 295.22 149.435L295.425 149.291ZM294.249 147.706L294.446 147.552C294.244 147.293 294.038 147.034 293.827 146.777L293.633 146.935L293.44 147.093C293.648 147.348 293.852 147.603 294.052 147.86L294.249 147.706ZM292.999 146.177L293.189 146.014C292.976 145.766 292.759 145.518 292.538 145.271L292.352 145.438L292.165 145.604C292.384 145.849 292.599 146.094 292.809 146.34L292.999 146.177ZM291.681 144.704L291.864 144.533C291.642 144.295 291.416 144.058 291.186 143.821L291.006 143.996L290.827 144.17C291.055 144.404 291.278 144.639 291.498 144.875L291.681 144.704ZM290.309 143.292L290.484 143.115C290.251 142.884 290.015 142.655 289.775 142.426L289.602 142.608L289.43 142.789C289.668 143.015 289.902 143.242 290.133 143.47L290.309 143.292ZM288.882 141.935L289.051 141.751C288.807 141.528 288.56 141.306 288.31 141.084L288.144 141.272L287.978 141.459C288.227 141.678 288.472 141.899 288.713 142.12L288.882 141.935ZM287.405 140.63L287.567 140.44C287.316 140.226 287.062 140.013 286.804 139.801L286.645 139.994L286.486 140.187C286.742 140.397 286.994 140.608 287.242 140.82L287.405 140.63ZM285.88 139.374L286.036 139.178C285.78 138.974 285.52 138.772 285.258 138.569L285.105 138.768L284.953 138.966C285.213 139.166 285.47 139.367 285.724 139.57L285.88 139.374ZM284.312 138.166L284.462 137.966C284.201 137.771 283.937 137.578 283.67 137.385L283.524 137.588L283.377 137.791C283.642 137.982 283.904 138.174 284.163 138.367L284.312 138.166ZM282.719 137.016L282.863 136.811C282.592 136.622 282.319 136.433 282.043 136.246L281.903 136.453L281.762 136.66C282.036 136.846 282.308 137.033 282.576 137.221L282.719 137.016ZM281.089 135.909L281.226 135.7C280.951 135.519 280.674 135.339 280.393 135.159L280.258 135.37L280.124 135.581C280.402 135.759 280.678 135.938 280.951 136.118L281.089 135.909ZM279.422 134.843L279.554 134.631C279.277 134.459 278.997 134.288 278.715 134.118L278.586 134.332L278.457 134.546C278.737 134.715 279.015 134.885 279.29 135.056L279.422 134.843ZM277.734 133.825L277.86 133.61C277.716 133.525 277.572 133.441 277.427 133.358L277.302 133.574L277.177 133.791C277.321 133.874 277.464 133.957 277.607 134.041L277.734 133.825ZM277.302 133.574L277.427 133.358C277.283 133.275 277.139 133.192 276.994 133.11L276.871 133.327L276.747 133.544C276.891 133.626 277.034 133.708 277.177 133.791L277.302 133.574ZM276.001 132.839L276.123 132.621C275.83 132.459 275.537 132.299 275.242 132.14L275.123 132.361L275.005 132.581C275.298 132.739 275.59 132.898 275.88 133.058L276.001 132.839ZM274.238 131.891L274.354 131.67C274.059 131.516 273.763 131.364 273.466 131.213L273.353 131.436L273.24 131.659C273.535 131.809 273.829 131.96 274.122 132.113L274.238 131.891ZM272.46 130.989L272.57 130.765C272.271 130.617 271.969 130.47 271.667 130.325L271.559 130.551L271.451 130.776C271.751 130.92 272.051 131.066 272.349 131.213L272.46 130.989ZM270.657 130.124L270.763 129.898C270.461 129.757 270.158 129.618 269.854 129.48L269.751 129.708L269.647 129.936C269.95 130.073 270.251 130.211 270.551 130.351L270.657 130.124ZM268.837 129.3L268.938 129.071C268.632 128.937 268.325 128.804 268.017 128.672L267.919 128.902L267.82 129.132C268.127 129.263 268.432 129.395 268.736 129.529L268.837 129.3ZM267.001 128.515L267.097 128.284C266.789 128.156 266.48 128.03 266.17 127.905L266.076 128.137L265.983 128.369C266.291 128.493 266.599 128.619 266.905 128.746L267.001 128.515ZM265.145 127.766L265.236 127.534C264.926 127.412 264.616 127.292 264.304 127.174L264.215 127.407L264.126 127.641C264.436 127.759 264.746 127.879 265.054 127.999L265.145 127.766ZM263.281 127.057L263.367 126.823C263.054 126.707 262.74 126.593 262.425 126.48L262.34 126.715L262.256 126.951C262.57 127.063 262.882 127.177 263.194 127.292L263.281 127.057ZM261.396 126.382L261.479 126.146C261.165 126.037 260.85 125.929 260.534 125.823L260.454 126.06L260.374 126.296C260.688 126.402 261.002 126.51 261.314 126.618L261.396 126.382ZM259.506 125.745L259.584 125.507C259.266 125.403 258.948 125.301 258.628 125.2L258.553 125.438L258.477 125.676C258.795 125.777 259.112 125.879 259.428 125.983L259.506 125.745ZM257.6 125.141L257.673 124.902C257.355 124.804 257.036 124.708 256.716 124.613L256.645 124.853L256.574 125.092C256.892 125.187 257.21 125.283 257.526 125.38L257.6 125.141ZM255.685 124.572L255.754 124.332C255.433 124.239 255.111 124.148 254.788 124.059L254.721 124.3L254.654 124.541C254.976 124.63 255.296 124.721 255.616 124.812L255.685 124.572ZM253.76 124.037L253.825 123.795C253.503 123.709 253.181 123.624 252.858 123.54L252.795 123.782L252.732 124.024C253.054 124.107 253.375 124.192 253.695 124.278L253.76 124.037ZM251.825 123.534L251.886 123.292C251.563 123.211 251.238 123.131 250.914 123.052L250.855 123.296L250.796 123.539C251.12 123.617 251.442 123.696 251.765 123.777L251.825 123.534ZM249.884 123.065L249.941 122.822C249.616 122.746 249.291 122.672 248.965 122.598L248.91 122.842L248.856 123.086C249.18 123.159 249.504 123.233 249.828 123.309L249.884 123.065ZM247.933 122.627L247.986 122.383C247.66 122.313 247.334 122.244 247.007 122.176L246.957 122.421L246.906 122.666C247.231 122.733 247.556 122.802 247.88 122.872L247.933 122.627ZM245.978 122.222L246.027 121.977C245.7 121.912 245.372 121.848 245.044 121.785L244.997 122.031L244.95 122.277C245.277 122.339 245.604 122.403 245.93 122.467L245.978 122.222ZM244.014 121.847L244.058 121.601C243.731 121.542 243.403 121.483 243.075 121.426L243.032 121.672L242.989 121.918C243.316 121.976 243.642 122.034 243.969 122.093L244.014 121.847ZM242.047 121.504L242.088 121.258C241.759 121.203 241.429 121.149 241.099 121.097L241.06 121.344L241.021 121.591C241.35 121.643 241.678 121.696 242.006 121.751L242.047 121.504ZM240.072 121.191L240.11 120.944C239.78 120.895 239.45 120.846 239.12 120.799L239.085 121.047L239.049 121.294C239.378 121.341 239.707 121.389 240.035 121.439L240.072 121.191ZM238.095 120.909L238.129 120.661C237.798 120.617 237.467 120.573 237.135 120.531L237.104 120.779L237.072 121.027C237.402 121.069 237.732 121.113 238.062 121.157L238.095 120.909ZM236.113 120.657L236.142 120.409C235.811 120.369 235.48 120.331 235.148 120.294L235.121 120.542L235.093 120.791C235.423 120.828 235.753 120.866 236.083 120.905L236.113 120.657ZM234.127 120.435L234.153 120.186C233.821 120.151 233.489 120.118 233.157 120.086L233.132 120.335L233.108 120.584C233.44 120.616 233.77 120.649 234.101 120.683L234.127 120.435ZM232.138 120.242L232.16 119.993C231.828 119.963 231.496 119.935 231.163 119.908L231.143 120.157L231.123 120.406C231.454 120.433 231.785 120.462 232.116 120.491L232.138 120.242ZM230.147 120.079L230.165 119.83C229.833 119.805 229.5 119.782 229.167 119.759L229.15 120.009L229.133 120.258C229.465 120.281 229.797 120.304 230.128 120.329L230.147 120.079ZM228.153 119.946L228.168 119.696C227.835 119.676 227.502 119.658 227.169 119.641L227.156 119.89L227.143 120.14C227.475 120.157 227.806 120.176 228.138 120.196L228.153 119.946ZM226.158 119.842L226.169 119.592C225.836 119.577 225.502 119.564 225.169 119.551L225.159 119.801L225.15 120.051C225.482 120.063 225.814 120.077 226.147 120.092L226.158 119.842ZM224.161 119.768L224.168 119.518C223.835 119.508 223.501 119.499 223.168 119.491L223.162 119.741L223.157 119.991C223.489 119.999 223.821 120.008 224.153 120.018L224.161 119.768ZM222.164 119.723L222.167 119.473C221.834 119.468 221.5 119.464 221.166 119.461L221.164 119.711L221.162 119.961C221.495 119.964 221.827 119.968 222.16 119.973L222.164 119.723ZM220.165 119.707L220.165 119.457C219.831 119.457 219.498 119.458 219.164 119.461L219.166 119.711L219.168 119.961C219.5 119.958 219.833 119.957 220.165 119.957L220.165 119.707ZM218.168 119.722L218.164 119.471C217.83 119.476 217.496 119.482 217.163 119.49L217.168 119.74L217.174 119.99C217.506 119.982 217.839 119.976 218.172 119.972L218.168 119.722ZM216.169 119.766L216.162 119.516C215.828 119.525 215.495 119.537 215.162 119.549L215.171 119.799L215.181 120.049C215.512 120.036 215.844 120.025 216.177 120.016L216.169 119.766ZM214.173 119.839L214.162 119.59C213.828 119.605 213.495 119.621 213.161 119.638L213.174 119.888L213.187 120.137C213.52 120.12 213.852 120.104 214.184 120.089L214.173 119.839ZM212.177 119.944L212.162 119.694C211.829 119.714 211.497 119.735 211.164 119.757L211.181 120.007L211.198 120.256C211.529 120.234 211.86 120.213 212.192 120.193L212.177 119.944ZM210.184 120.078L210.165 119.829C209.832 119.854 209.499 119.88 209.166 119.908L209.187 120.157L209.208 120.406C209.539 120.379 209.871 120.352 210.203 120.327L210.184 120.078ZM208.192 120.243L208.17 119.994C207.838 120.024 207.506 120.056 207.175 120.088L207.2 120.337L207.224 120.586C207.554 120.554 207.884 120.522 208.215 120.492L208.192 120.243ZM206.204 120.439L206.177 120.191C205.845 120.226 205.513 120.263 205.182 120.301L205.21 120.549L205.239 120.798C205.569 120.76 205.899 120.723 206.23 120.688L206.204 120.439ZM204.219 120.667L204.189 120.419C203.858 120.459 203.527 120.501 203.196 120.545L203.229 120.793L203.261 121.041C203.59 120.997 203.92 120.956 204.25 120.915L204.219 120.667ZM202.237 120.927L202.202 120.679C201.872 120.725 201.541 120.772 201.212 120.821L201.248 121.068L201.285 121.316C201.613 121.267 201.942 121.22 202.271 121.174L202.237 120.927ZM200.263 121.218L200.224 120.971C199.893 121.022 199.563 121.075 199.234 121.129L199.275 121.376L199.315 121.623C199.643 121.569 199.972 121.516 200.301 121.465L200.263 121.218ZM198.288 121.543L198.246 121.296C197.917 121.353 197.588 121.412 197.261 121.471L197.306 121.717L197.35 121.963C197.677 121.904 198.003 121.846 198.331 121.789L198.288 121.543ZM196.326 121.9L196.279 121.654C195.95 121.717 195.621 121.782 195.293 121.847L195.342 122.092L195.391 122.338C195.718 122.272 196.045 122.208 196.373 122.146L196.326 121.9ZM194.363 122.293L194.312 122.048C193.986 122.116 193.66 122.186 193.335 122.257L193.389 122.501L193.442 122.745C193.765 122.675 194.089 122.605 194.414 122.537L194.363 122.293ZM192.413 122.719L192.357 122.475C192.031 122.549 191.705 122.625 191.38 122.702L191.438 122.946L191.496 123.189C191.819 123.112 192.143 123.037 192.468 122.963L192.413 122.719ZM190.468 123.181L190.408 122.938C190.084 123.018 189.762 123.099 189.44 123.182L189.503 123.424L189.565 123.667C189.885 123.584 190.206 123.503 190.528 123.424L190.468 123.181ZM188.533 123.679L188.468 123.437C188.145 123.524 187.822 123.612 187.501 123.701L187.568 123.942L187.635 124.183C187.955 124.094 188.275 124.007 188.597 123.92L188.533 123.679ZM186.609 124.213L186.54 123.973C186.219 124.066 185.898 124.16 185.579 124.256L185.65 124.495L185.722 124.735C186.04 124.64 186.359 124.546 186.679 124.454L186.609 124.213ZM184.692 124.787L184.618 124.548C184.299 124.647 183.981 124.748 183.664 124.849L183.741 125.088L183.817 125.326C184.133 125.224 184.449 125.124 184.766 125.026L184.692 124.787ZM182.795 125.397L182.716 125.16C182.397 125.266 182.079 125.374 181.763 125.483L181.845 125.719L181.926 125.956C182.241 125.847 182.557 125.74 182.874 125.634L182.795 125.397ZM180.901 126.05L180.817 125.814C180.503 125.927 180.191 126.04 179.879 126.155L179.966 126.39L180.052 126.624C180.362 126.51 180.673 126.397 180.986 126.285L180.901 126.05ZM179.029 126.742L178.94 126.508C178.626 126.628 178.314 126.749 178.004 126.872L178.096 127.104L178.188 127.337C178.496 127.215 178.807 127.094 179.118 126.975L179.029 126.742ZM177.17 127.476L177.076 127.244C176.767 127.371 176.459 127.499 176.152 127.628L176.249 127.858L176.347 128.089C176.651 127.96 176.958 127.833 177.265 127.707L177.17 127.476ZM175.328 128.254L175.228 128.025C174.922 128.159 174.616 128.294 174.313 128.431L174.416 128.659L174.518 128.887C174.82 128.751 175.124 128.616 175.428 128.483L175.328 128.254ZM173.512 129.073L173.406 128.847C173.101 128.989 172.798 129.132 172.496 129.278L172.605 129.503L172.713 129.728C173.013 129.584 173.315 129.441 173.618 129.3L173.512 129.073ZM171.707 129.943L171.596 129.719C171.297 129.868 171 130.018 170.705 130.17L170.819 130.392L170.933 130.615C171.227 130.464 171.522 130.314 171.818 130.167L171.707 129.943ZM169.932 130.856L169.814 130.635C169.518 130.793 169.224 130.952 168.931 131.113L169.051 131.332L169.172 131.551C169.462 131.391 169.755 131.233 170.049 131.077L169.932 130.856ZM168.182 131.818L168.058 131.6C167.914 131.682 167.769 131.765 167.626 131.848L167.751 132.064L167.876 132.281C168.019 132.199 168.162 132.117 168.305 132.035L168.182 131.818Z" fill="#0E3572"/>
<path fill-rule="evenodd" clip-rule="evenodd" d="M176.587 137.167C201.464 122.804 242.783 123.373 268.877 138.438C275.029 141.99 279.785 146.03 283.135 150.32L288.998 150.374V163.296L288.953 163.63C289.83 170.971 287.02 178.338 280.482 184.725L375.933 223.209L375.932 239.657L360.273 248.48L266.281 194.213C241.148 205.956 203.268 204.583 178.789 190.45C164.732 182.334 157.962 171.666 158.596 161.306V149.199L162.899 149.237C165.9 144.82 170.458 140.705 176.587 137.167Z" fill="url(#paint1_linear_1413_498)"/>
<path d="M176.587 137.167L176.462 136.95L176.462 136.95L176.587 137.167ZM268.877 138.438L269.002 138.221V138.221L268.877 138.438ZM283.135 150.32L282.938 150.474L283.013 150.569L283.133 150.57L283.135 150.32ZM288.998 150.374H289.248V150.126L289 150.123L288.998 150.374ZM288.998 163.296L289.246 163.33L289.248 163.313V163.296H288.998ZM288.953 163.63L288.705 163.597L288.701 163.629L288.704 163.66L288.953 163.63ZM280.482 184.725L280.307 184.546L280.033 184.814L280.389 184.957L280.482 184.725ZM375.933 223.209L376.183 223.21L376.183 223.041L376.027 222.978L375.933 223.209ZM375.932 239.657L376.055 239.875L376.182 239.803V239.657L375.932 239.657ZM360.273 248.48L360.148 248.697L360.272 248.768L360.396 248.698L360.273 248.48ZM266.281 194.213L266.406 193.997L266.293 193.932L266.175 193.987L266.281 194.213ZM178.789 190.45L178.664 190.666H178.664L178.789 190.45ZM158.596 161.306L158.846 161.321L158.846 161.314V161.306H158.596ZM158.596 149.199L158.599 148.949L158.346 148.946V149.199H158.596ZM162.899 149.237L162.897 149.487L163.031 149.488L163.106 149.377L162.899 149.237ZM176.587 137.167L176.712 137.383C189.101 130.23 205.603 126.787 222.272 127.017C238.941 127.247 255.75 131.148 268.752 138.655L268.877 138.438L269.002 138.221C255.91 130.663 239.013 126.747 222.279 126.517C205.546 126.286 188.949 129.74 176.462 136.95L176.587 137.167ZM268.877 138.438L268.752 138.655C274.881 142.194 279.611 146.214 282.938 150.474L283.135 150.32L283.332 150.166C279.958 145.846 275.176 141.786 269.002 138.221L268.877 138.438ZM283.135 150.32L283.133 150.57L288.995 150.624L288.998 150.374L289 150.123L283.138 150.07L283.135 150.32ZM288.998 150.374H288.748V163.296H288.998H289.248V150.374H288.998ZM288.998 163.296L288.75 163.263L288.705 163.597L288.953 163.63L289.201 163.664L289.246 163.33L288.998 163.296ZM288.953 163.63L288.704 163.66C289.571 170.91 286.801 178.203 280.307 184.546L280.482 184.725L280.657 184.904C287.24 178.472 290.089 171.032 289.201 163.601L288.953 163.63ZM280.482 184.725L280.389 184.957L375.84 223.441L375.933 223.209L376.027 222.978L280.576 184.493L280.482 184.725ZM375.933 223.209L375.683 223.209L375.682 239.657L375.932 239.657L376.182 239.657L376.183 223.21L375.933 223.209ZM375.932 239.657L375.81 239.439L360.15 248.262L360.273 248.48L360.396 248.698L376.055 239.875L375.932 239.657ZM360.273 248.48L360.398 248.263L266.406 193.997L266.281 194.213L266.156 194.43L360.148 248.697L360.273 248.48ZM266.281 194.213L266.175 193.987C253.652 199.838 237.941 202.426 222.3 201.785C206.659 201.144 191.111 197.275 178.914 190.233L178.789 190.45L178.664 190.666C190.946 197.757 206.577 201.642 222.28 202.285C237.982 202.928 253.777 200.332 266.387 194.44L266.281 194.213ZM178.789 190.45L178.914 190.233C164.901 182.143 158.219 171.55 158.846 161.321L158.596 161.306L158.347 161.291C157.704 171.782 164.562 182.525 178.664 190.666L178.789 190.45ZM158.596 161.306H158.846V149.199H158.596H158.346V161.306H158.596ZM158.596 149.199L158.594 149.449L162.897 149.487L162.899 149.237L162.901 148.987L158.599 148.949L158.596 149.199ZM162.899 149.237L163.106 149.377C166.081 144.998 170.609 140.907 176.712 137.383L176.587 137.167L176.462 136.95C170.308 140.503 165.718 144.642 162.692 149.096L162.899 149.237Z" fill="#0E3572"/>
<path d="M277.72 166.806L374.756 223.21L357.445 233.391L259.919 177.084L277.72 166.806Z" fill="white"/>
<path d="M277.72 166.806L374.756 223.21L357.445 233.391L259.919 177.084L277.72 166.806Z" stroke="#E0E0E0" stroke-width="0.500138"/>
<path d="M277.72 166.806L374.756 223.21L357.445 233.391L259.919 177.084L277.72 166.806Z" stroke="#0E3572" stroke-width="0.500138"/>
<path d="M268.694 123.736C294.677 138.737 295.644 162.481 270.897 176.769C246.149 191.057 205.023 190.499 179.039 175.498C153.056 160.496 152.089 136.752 176.837 122.464C201.585 108.176 242.711 108.734 268.694 123.736Z" fill="white" stroke="#0E3572" stroke-width="0.500138"/>
<path d="M258.863 129.411C279.151 141.125 279.903 159.662 260.585 170.816C241.267 181.969 209.159 181.535 188.87 169.822C168.582 158.108 167.83 139.571 187.148 128.417C206.467 117.264 238.574 117.698 258.863 129.411Z" fill="white"/>
<path d="M258.863 129.411C279.151 141.125 279.903 159.662 260.585 170.816C241.267 181.969 209.159 181.535 188.87 169.822C168.582 158.108 167.83 139.571 187.148 128.417C206.467 117.264 238.574 117.698 258.863 129.411Z" fill="#0E3572" fill-opacity="0.1"/>
<path d="M258.863 129.411C279.151 141.125 279.903 159.662 260.585 170.816C241.267 181.969 209.159 181.535 188.87 169.822C168.582 158.108 167.83 139.571 187.148 128.417C206.467 117.264 238.574 117.698 258.863 129.411Z" stroke="#0E3572" stroke-width="0.500138"/>
<mask id="path-61-inside-1_1413_498" fill="white">
<path d="M400.531 104.149L420.336 104.193V115.416L409.844 121.455L376.338 140.778L332.466 115.416L332.482 115.405V104.001L351.672 104.042L375.688 89.8237L400.531 104.149Z"/>
</mask>
<path d="M400.531 104.149L420.336 104.193V115.416L409.844 121.455L376.338 140.778L332.466 115.416L332.482 115.405V104.001L351.672 104.042L375.688 89.8237L400.531 104.149Z" fill="white"/>
<path d="M400.531 104.149L400.381 104.409L400.451 104.449L400.53 104.449L400.531 104.149ZM420.336 104.193H420.636V103.893L420.336 103.893L420.336 104.193ZM420.336 115.416L420.486 115.676L420.636 115.589V115.416H420.336ZM409.844 121.455L409.694 121.195L409.694 121.195L409.844 121.455ZM376.338 140.778L376.188 141.038L376.338 141.124L376.488 141.038L376.338 140.778ZM332.466 115.416L332.303 115.164L331.891 115.43L332.316 115.675L332.466 115.416ZM332.482 115.405L332.645 115.657L332.782 115.568V115.405H332.482ZM332.482 104.001L332.483 103.701L332.182 103.701V104.001H332.482ZM351.672 104.042L351.671 104.343L351.754 104.343L351.825 104.301L351.672 104.042ZM375.688 89.8237L375.838 89.5638L375.686 89.4762L375.535 89.5655L375.688 89.8237ZM400.531 104.149L400.53 104.449L420.335 104.493L420.336 104.193L420.336 103.893L400.532 103.849L400.531 104.149ZM420.336 104.193H420.036V115.416H420.336H420.636V104.193H420.336ZM420.336 115.416L420.186 115.155L409.694 121.195L409.844 121.455L409.993 121.715L420.486 115.676L420.336 115.416ZM409.844 121.455L409.694 121.195L376.188 140.518L376.338 140.778L376.488 141.038L409.994 121.715L409.844 121.455ZM376.338 140.778L376.488 140.518L332.616 115.156L332.466 115.416L332.316 115.675L376.188 141.038L376.338 140.778ZM332.466 115.416L332.629 115.667L332.645 115.657L332.482 115.405L332.319 115.153L332.303 115.164L332.466 115.416ZM332.482 115.405H332.782V104.001H332.482H332.182V115.405H332.482ZM332.482 104.001L332.482 104.302L351.671 104.343L351.672 104.042L351.672 103.742L332.483 103.701L332.482 104.001ZM351.672 104.042L351.825 104.301L375.841 90.082L375.688 89.8237L375.535 89.5655L351.519 103.784L351.672 104.042ZM375.688 89.8237L375.538 90.0837L400.381 104.409L400.531 104.149L400.681 103.889L375.838 89.5638L375.688 89.8237Z" fill="#0E3572" mask="url(#path-61-inside-1_1413_498)"/>
<path d="M420.079 104.192L376.342 129.142L332.745 104.001L376.341 78.8612L420.079 104.192Z" fill="white"/>
<path d="M420.079 104.192L376.342 129.142L332.745 104.001L376.341 78.8612L420.079 104.192Z" fill="#ED1C24" fill-opacity="0.1"/>
<path d="M420.079 104.192L376.342 129.142L332.745 104.001L376.341 78.8612L420.079 104.192Z" stroke="#0E3572" stroke-width="0.300083"/>
<g clip-path="url(#clip1_1413_498)">
<path d="M367.61 98.8684C362.654 101.73 362.654 106.387 367.61 109.249C372.567 112.111 380.633 112.111 385.59 109.249C390.547 106.387 390.547 101.73 385.59 98.8684C380.633 96.0065 372.567 96.0065 367.61 98.8684Z" stroke="#ED1C24" stroke-width="0.830229" stroke-miterlimit="10" stroke-linecap="round" stroke-linejoin="round"/>
<path d="M372.797 101.863C370.699 103.074 370.699 105.044 372.797 106.254C374.894 107.465 378.306 107.465 380.403 106.254C382.5 105.044 382.5 103.074 380.403 101.863C378.306 100.652 374.894 100.652 372.797 101.863Z" stroke="#ED1C24" stroke-width="0.830229" stroke-miterlimit="10" stroke-linecap="round" stroke-linejoin="round"/>
<path d="M376.6 104.059H389.313" stroke="#ED1C24" stroke-width="0.830229" stroke-miterlimit="10" stroke-linecap="round" stroke-linejoin="round"/>
<path d="M399.745 101.941L392.41 101.941L389.313 104.059L392.41 106.176L399.745 106.176L396.648 104.059L399.745 101.941Z" stroke="#ED1C24" stroke-width="0.830229" stroke-miterlimit="10" stroke-linecap="round" stroke-linejoin="round"/>
<path d="M395.896 101.941L392.41 101.941L389.313 104.059L392.41 106.176L395.896 106.176C395.188 108.338 393.386 110.404 390.488 112.077C382.818 116.505 370.382 116.505 362.712 112.077C355.042 107.648 355.042 100.469 362.712 96.0404C370.382 91.6122 382.818 91.6121 390.488 96.0404C393.386 97.7135 395.188 99.7795 395.896 101.941Z" stroke="#ED1C24" stroke-width="0.830229" stroke-miterlimit="10" stroke-linecap="round" stroke-linejoin="round"/>
</g>
<mask id="path-69-inside-2_1413_498" fill="white">
<path d="M253.682 269.794L273.488 269.838V281.062L261.536 287.943L229.489 306.423L185.618 281.062L185.633 281.052V269.647L204.825 269.688L228.84 255.469L253.682 269.794Z"/>
</mask>
<path d="M253.682 269.794L273.488 269.838V281.062L261.536 287.943L229.489 306.423L185.618 281.062L185.633 281.052V269.647L204.825 269.688L228.84 255.469L253.682 269.794Z" fill="white"/>
<path d="M253.682 269.794L253.532 270.054L253.601 270.094L253.681 270.094L253.682 269.794ZM273.488 269.838H273.788V269.539L273.488 269.538L273.488 269.838ZM273.488 281.062L273.638 281.322L273.788 281.235V281.062H273.488ZM261.536 287.943L261.386 287.683L261.386 287.683L261.536 287.943ZM229.489 306.423L229.339 306.683L229.489 306.77L229.639 306.683L229.489 306.423ZM185.618 281.062L185.459 280.807L185.035 281.072L185.467 281.322L185.618 281.062ZM185.633 281.052L185.792 281.306L185.933 281.218V281.052H185.633ZM185.633 269.647L185.634 269.347L185.333 269.346V269.647H185.633ZM204.825 269.688L204.824 269.988L204.907 269.988L204.978 269.946L204.825 269.688ZM228.84 255.469L228.99 255.209L228.838 255.121L228.687 255.211L228.84 255.469ZM253.682 269.794L253.681 270.094L273.487 270.138L273.488 269.838L273.488 269.538L253.683 269.494L253.682 269.794ZM273.488 269.838H273.188V281.062H273.488H273.788V269.838H273.488ZM273.488 281.062L273.338 280.802L261.386 287.683L261.536 287.943L261.685 288.203L273.638 281.322L273.488 281.062ZM261.536 287.943L261.386 287.683L229.339 306.163L229.489 306.423L229.639 306.683L261.686 288.203L261.536 287.943ZM229.489 306.423L229.639 306.163L185.768 280.802L185.618 281.062L185.467 281.322L229.339 306.683L229.489 306.423ZM185.618 281.062L185.777 281.316L185.792 281.306L185.633 281.052L185.474 280.798L185.459 280.807L185.618 281.062ZM185.633 281.052H185.933V269.647H185.633H185.333V281.052H185.633ZM185.633 269.647L185.633 269.947L204.824 269.988L204.825 269.688L204.825 269.388L185.634 269.347L185.633 269.647ZM204.825 269.688L204.978 269.946L228.993 255.727L228.84 255.469L228.687 255.211L204.672 269.43L204.825 269.688ZM228.84 255.469L228.69 255.729L253.532 270.054L253.682 269.794L253.832 269.534L228.99 255.209L228.84 255.469Z" fill="#0E3572" mask="url(#path-69-inside-2_1413_498)"/>
<path d="M273.23 269.837L229.493 294.788L185.896 269.647L229.492 244.507L273.23 269.837Z" fill="white"/>
<path d="M273.23 269.837L229.493 294.788L185.896 269.647L229.492 244.507L273.23 269.837Z" fill="#ED1C24" fill-opacity="0.1"/>
<path d="M273.23 269.837L229.493 294.788L185.896 269.647L229.492 244.507L273.23 269.837Z" stroke="#0E3572" stroke-width="0.300083"/>
<g clip-path="url(#clip2_1413_498)">
<path d="M245.834 263.031L241.46 260.505L238.29 261.263C236.782 260.743 235.15 260.353 233.447 260.107L232.135 258.277L225.948 258.277L224.633 260.108C222.93 260.355 221.298 260.745 219.792 261.265L216.625 260.508L212.249 263.033L213.562 264.864C212.66 265.734 211.985 266.676 211.559 267.66L208.39 268.417L208.389 271.989L211.561 272.748C211.988 273.732 212.664 274.673 213.566 275.543L212.254 277.372L216.628 279.898L219.798 279.14C221.305 279.661 222.937 280.05 224.641 280.297L225.953 282.126L232.14 282.127L233.454 280.296C235.158 280.049 236.789 279.659 238.296 279.138L241.463 279.895L245.838 277.37L244.526 275.54C245.427 274.669 246.102 273.727 246.529 272.744L249.698 271.986L249.699 268.414L246.527 267.655C246.099 266.672 245.424 265.73 244.522 264.86L245.834 263.031Z" stroke="#ED1C24" stroke-width="0.830229" stroke-miterlimit="10" stroke-linecap="round" stroke-linejoin="round"/>
<path d="M238.303 275.548C243.417 272.595 243.417 267.808 238.303 264.856C233.19 261.903 224.898 261.903 219.784 264.856C214.67 267.808 214.67 272.595 219.784 275.548C224.898 278.5 233.19 278.5 238.303 275.548Z" stroke="#ED1C24" stroke-width="0.830229" stroke-miterlimit="10" stroke-linecap="round" stroke-linejoin="round"/>
<path d="M240.144 274.003L232.446 270.147C233.294 268.882 232.836 267.391 231.067 266.37C229.339 265.372 226.837 265.096 224.679 265.54L227.399 267.11L227.399 268.077L225.364 269.252L223.69 269.252L220.969 267.681C220.201 268.927 220.68 270.372 222.407 271.369C224.176 272.391 226.758 272.655 228.95 272.166L235.628 276.61" stroke="#ED1C24" stroke-width="0.830229" stroke-miterlimit="10" stroke-linejoin="round"/>
</g>
<mask id="path-75-inside-3_1413_498" fill="white">
<path d="M266.605 52.458L286.41 52.502V63.7256L274.458 70.6064L242.411 89.0869L198.54 63.7256L198.556 63.7158V52.3105L217.747 52.3516L241.763 38.1328L266.605 52.458Z"/>
</mask>
<path d="M266.605 52.458L286.41 52.502V63.7256L274.458 70.6064L242.411 89.0869L198.54 63.7256L198.556 63.7158V52.3105L217.747 52.3516L241.763 38.1328L266.605 52.458Z" fill="white"/>
<path d="M266.605 52.458L266.455 52.718L266.524 52.7579L266.604 52.7581L266.605 52.458ZM286.41 52.502H286.71V52.2025L286.411 52.2019L286.41 52.502ZM286.41 63.7256L286.56 63.9857L286.71 63.8991V63.7256H286.41ZM274.458 70.6064L274.308 70.3464L274.308 70.3465L274.458 70.6064ZM242.411 89.0869L242.261 89.3467L242.411 89.4334L242.561 89.3469L242.411 89.0869ZM198.54 63.7256L198.381 63.4711L197.958 63.7356L198.39 63.9854L198.54 63.7256ZM198.556 63.7158L198.715 63.9703L198.856 63.8821V63.7158H198.556ZM198.556 52.3105L198.556 52.0105L198.256 52.0098V52.3105H198.556ZM217.747 52.3516L217.747 52.6516L217.829 52.6518L217.9 52.6098L217.747 52.3516ZM241.763 38.1328L241.913 37.8729L241.761 37.7853L241.61 37.8746L241.763 38.1328ZM266.605 52.458L266.604 52.7581L286.41 52.802L286.41 52.502L286.411 52.2019L266.605 52.1579L266.605 52.458ZM286.41 52.502H286.11V63.7256H286.41H286.71V52.502H286.41ZM286.41 63.7256L286.261 63.4655L274.308 70.3464L274.458 70.6064L274.608 70.8665L286.56 63.9857L286.41 63.7256ZM274.458 70.6064L274.308 70.3465L242.261 88.827L242.411 89.0869L242.561 89.3469L274.608 70.8664L274.458 70.6064ZM242.411 89.0869L242.562 88.8271L198.69 63.4658L198.54 63.7256L198.39 63.9854L242.261 89.3467L242.411 89.0869ZM198.54 63.7256L198.699 63.9801L198.715 63.9703L198.556 63.7158L198.397 63.4614L198.381 63.4711L198.54 63.7256ZM198.556 63.7158H198.856V52.3105H198.556H198.256V63.7158H198.556ZM198.556 52.3105L198.555 52.6106L217.747 52.6516L217.747 52.3516L217.748 52.0515L198.556 52.0105L198.556 52.3105ZM217.747 52.3516L217.9 52.6098L241.916 38.391L241.763 38.1328L241.61 37.8746L217.594 52.0933L217.747 52.3516ZM241.763 38.1328L241.613 38.3928L266.455 52.718L266.605 52.458L266.755 52.1981L241.913 37.8729L241.763 38.1328Z" fill="#0E3572" mask="url(#path-75-inside-3_1413_498)"/>
<path d="M286.153 52.501L242.415 77.4514L198.819 52.3107L242.415 27.1705L286.153 52.501Z" fill="white"/>
<path d="M286.153 52.501L242.415 77.4514L198.819 52.3107L242.415 27.1705L286.153 52.501Z" fill="#ED1C24" fill-opacity="0.1"/>
<path d="M286.153 52.501L242.415 77.4514L198.819 52.3107L242.415 27.1705L286.153 52.501Z" stroke="#0E3572" stroke-width="0.300083"/>
<g clip-path="url(#clip3_1413_498)">
<path d="M236.399 60.2205L240.29 66.3918L243.769 64.087L249 64.5615L245.357 58.7837M250.298 55.9314L260.305 58.0343L259.483 55.0142L263.475 53.0056L252.786 50.7595" stroke="#ED1C24" stroke-width="0.80022" stroke-miterlimit="10" stroke-linejoin="round"/>
<path d="M248.098 57.514C254.355 53.9019 254.355 48.0454 248.098 44.4333C241.842 40.8211 231.698 40.8211 225.442 44.4333C219.185 48.0454 219.185 53.9018 225.442 57.514C231.698 61.1261 241.842 61.1261 248.098 57.514Z" stroke="#ED1C24" stroke-width="0.830229" stroke-miterlimit="10" stroke-linecap="round" stroke-linejoin="round"/>
<path d="M244.76 55.5863C249.172 53.0388 249.172 48.9085 244.76 46.3609C240.347 43.8134 233.193 43.8134 228.781 46.3609C224.368 48.9085 224.368 53.0388 228.781 55.5863C233.193 58.1338 240.347 58.1338 244.76 55.5863Z" stroke="#ED1C24" stroke-width="0.830229" stroke-miterlimit="10" stroke-linecap="round" stroke-linejoin="round"/>
<path d="M231.647 48.0106L236.204 48.9028L240.061 47.2413L239.999 50.0191L243.928 51.6232L239.333 52.4479L237.905 55.1007L235.126 52.8325L230.315 52.868L233.193 50.6415L231.647 48.0106Z" stroke="#ED1C24" stroke-width="0.830229" stroke-miterlimit="10" stroke-linecap="round" stroke-linejoin="round"/>
</g>
<mask id="path-82-inside-4_1413_498" fill="white">
<path d="M97.4349 202.832L117.241 202.875V214.098L106.303 220.394L73.2415 239.46L29.3704 214.098L29.386 214.088V202.684L48.5765 202.725L72.5931 188.506L97.4349 202.832Z"/>
</mask>
<path d="M97.4349 202.832L117.241 202.875V214.098L106.303 220.394L73.2415 239.46L29.3704 214.098L29.386 214.088V202.684L48.5765 202.725L72.5931 188.506L97.4349 202.832Z" fill="white"/>
<path d="M97.4349 202.832L97.285 203.092L97.3542 203.131L97.4342 203.132L97.4349 202.832ZM117.241 202.875H117.541V202.576L117.241 202.575L117.241 202.875ZM117.241 214.098L117.39 214.358L117.541 214.272V214.098H117.241ZM106.303 220.394L106.153 220.134L106.153 220.134L106.303 220.394ZM73.2415 239.46L73.0913 239.72L73.2413 239.807L73.3914 239.72L73.2415 239.46ZM29.3704 214.098L29.2114 213.844L28.7882 214.108L29.2202 214.358L29.3704 214.098ZM29.386 214.088L29.5451 214.343L29.6861 214.255V214.088H29.386ZM29.386 202.684L29.3867 202.384L29.086 202.383V202.684H29.386ZM48.5765 202.725L48.5758 203.025L48.6583 203.025L48.7294 202.983L48.5765 202.725ZM72.5931 188.506L72.743 188.246L72.5911 188.159L72.4402 188.248L72.5931 188.506ZM97.4349 202.832L97.4342 203.132L117.24 203.176L117.241 202.875L117.241 202.575L97.4355 202.531L97.4349 202.832ZM117.241 202.875H116.94V214.098H117.241H117.541V202.875H117.241ZM117.241 214.098L117.091 213.838L106.153 220.134L106.303 220.394L106.453 220.654L117.39 214.358L117.241 214.098ZM106.303 220.394L106.153 220.134L73.0916 239.2L73.2415 239.46L73.3914 239.72L106.453 220.654L106.303 220.394ZM73.2415 239.46L73.3917 239.201L29.5206 213.838L29.3704 214.098L29.2202 214.358L73.0913 239.72L73.2415 239.46ZM29.3704 214.098L29.5295 214.353L29.5451 214.343L29.386 214.088L29.227 213.834L29.2114 213.844L29.3704 214.098ZM29.386 214.088H29.6861V202.684H29.386H29.086V214.088H29.386ZM29.386 202.684L29.3854 202.984L48.5758 203.025L48.5765 202.725L48.5771 202.425L29.3867 202.384L29.386 202.684ZM48.5765 202.725L48.7294 202.983L72.746 188.765L72.5931 188.506L72.4402 188.248L48.4236 202.467L48.5765 202.725ZM72.5931 188.506L72.4432 188.766L97.285 203.092L97.4349 202.832L97.5848 202.572L72.743 188.246L72.5931 188.506Z" fill="#0E3572" mask="url(#path-82-inside-4_1413_498)"/>
<path d="M116.983 202.874L73.2457 227.824L29.649 202.684L73.2448 177.544L116.983 202.874Z" fill="white"/>
<path d="M116.983 202.874L73.2457 227.824L29.649 202.684L73.2448 177.544L116.983 202.874Z" fill="#ED1C24" fill-opacity="0.1"/>
<path d="M116.983 202.874L73.2457 227.824L29.649 202.684L73.2448 177.544L116.983 202.874Z" stroke="#0E3572" stroke-width="0.300083"/>
<g clip-path="url(#clip4_1413_498)">
<path d="M73.5233 218.451L84.9606 211.847L80.9556 209.535L81.3606 209.301C82.308 208.754 82.3077 207.867 81.3597 207.32C80.4117 206.772 78.8752 206.772 77.9278 207.319L77.5227 207.553L73.5177 205.241L69.5147 207.552L69.9199 207.786C70.8679 208.333 70.8683 209.22 69.9207 209.767C68.9732 210.314 67.4367 210.314 66.4887 209.767L66.0835 209.533L62.0804 211.844L73.5233 218.451Z" stroke="#ED1C24" stroke-width="0.830229" stroke-miterlimit="10" stroke-linecap="round" stroke-linejoin="round"/>
<path d="M62.2693 211.953L50.8265 205.347L62.2642 198.743L66.2692 201.055L65.8642 201.289C64.9167 201.836 64.9171 202.723 65.865 203.271C66.813 203.818 68.3496 203.818 69.297 203.271L69.702 203.037L73.707 205.35L73.7066 205.35" stroke="#ED1C24" stroke-width="0.830229" stroke-miterlimit="10" stroke-linecap="round" stroke-linejoin="round"/>
<path d="M84.8961 211.885L96.3334 205.281L92.3284 202.969L92.7334 202.735C93.6809 202.188 93.6806 201.301 92.7325 200.754C91.7846 200.206 90.2481 200.206 89.3006 200.753L88.8955 200.987L84.8905 198.675L80.8875 200.986L80.4822 200.752C79.5343 200.205 77.9977 200.204 77.0501 200.751C76.1026 201.298 76.1031 202.186 77.051 202.733L77.4563 202.967L73.4533 205.278" stroke="#ED1C24" stroke-width="0.830229" stroke-miterlimit="10" stroke-linecap="round" stroke-linejoin="round"/>
<path d="M73.5151 198.931L69.5101 196.618L69.105 196.852C68.1575 197.399 66.621 197.399 65.673 196.852C64.7251 196.304 64.7247 195.417 65.6722 194.87L66.0772 194.636L62.0722 192.324L73.5095 185.721L84.9529 192.328L80.9498 194.639L80.5446 194.405C79.5966 193.857 78.0601 193.857 77.1125 194.404C76.1651 194.951 76.1654 195.838 77.1134 196.386L77.5186 196.62L73.5156 198.931L73.5151 198.931Z" stroke="#ED1C24" stroke-width="0.830229" stroke-miterlimit="10" stroke-linecap="round" stroke-linejoin="round"/>
</g>
<mask id="path-89-inside-5_1413_498" fill="white">
<path d="M492.166 207.531L511.969 207.575V218.798L500.451 225.428L467.97 244.159L424.099 218.798L424.116 218.787V207.383L443.306 207.425L467.322 193.205L492.166 207.531Z"/>
</mask>
<path d="M492.166 207.531L511.969 207.575V218.798L500.451 225.428L467.97 244.159L424.099 218.798L424.116 218.787V207.383L443.306 207.425L467.322 193.205L492.166 207.531Z" fill="white"/>
<path d="M492.166 207.531L491.916 207.964L492.031 208.031L492.165 208.031L492.166 207.531ZM511.969 207.575H512.469V207.076L511.97 207.075L511.969 207.575ZM511.969 218.798L512.219 219.231L512.469 219.087V218.798H511.969ZM500.451 225.428L500.201 224.995L500.201 224.995L500.451 225.428ZM467.97 244.159L467.72 244.592L467.97 244.736L468.22 244.592L467.97 244.159ZM424.099 218.798L423.828 218.378L423.141 218.822L423.849 219.231L424.099 218.798ZM424.116 218.787L424.388 219.207L424.616 219.059V218.787H424.116ZM424.116 207.383L424.117 206.882L423.616 206.881V207.383H424.116ZM443.306 207.425L443.305 207.925L443.443 207.925L443.561 207.855L443.306 207.425ZM467.322 193.205L467.572 192.772L467.319 192.626L467.067 192.774L467.322 193.205ZM492.166 207.531L492.165 208.031L511.968 208.075L511.969 207.575L511.97 207.075L492.167 207.031L492.166 207.531ZM511.969 207.575H511.469V218.798H511.969H512.469V207.575H511.969ZM511.969 218.798L511.72 218.364L500.201 224.995L500.451 225.428L500.7 225.862L512.219 219.231L511.969 218.798ZM500.451 225.428L500.201 224.995L467.72 243.726L467.97 244.159L468.22 244.592L500.701 225.862L500.451 225.428ZM467.97 244.159L468.221 243.726L424.35 218.365L424.099 218.798L423.849 219.231L467.72 244.592L467.97 244.159ZM424.099 218.798L424.371 219.218L424.388 219.207L424.116 218.787L423.844 218.367L423.828 218.378L424.099 218.798ZM424.116 218.787H424.616V207.383H424.116H423.616V218.787H424.116ZM424.116 207.383L424.115 207.883L443.305 207.925L443.306 207.425L443.307 206.924L424.117 206.882L424.116 207.383ZM443.306 207.425L443.561 207.855L467.577 193.635L467.322 193.205L467.067 192.774L443.051 206.994L443.306 207.425ZM467.322 193.205L467.072 193.638L491.916 207.964L492.166 207.531L492.415 207.098L467.572 192.772L467.322 193.205Z" fill="#0E3572" mask="url(#path-89-inside-5_1413_498)"/>
<path d="M511.537 207.573L467.975 232.423L424.552 207.382L467.974 182.342L511.537 207.573Z" fill="white"/>
<path d="M511.537 207.573L467.975 232.423L424.552 207.382L467.974 182.342L511.537 207.573Z" fill="#ED1C24" fill-opacity="0.1"/>
<path d="M511.537 207.573L467.975 232.423L424.552 207.382L467.974 182.342L511.537 207.573Z" stroke="#0E3572" stroke-width="0.500138"/>
<g clip-path="url(#clip5_1413_498)">
<path d="M450.955 205.382L458.548 200.998M459.686 210.347L467.152 206.036" stroke="#ED1C24" stroke-width="0.828673" stroke-miterlimit="10" stroke-linecap="round" stroke-linejoin="round"/>
<path d="M465.584 211.944L468.833 213.82C469.432 214.165 469.432 214.725 468.833 215.07C467.333 215.936 467.105 217.248 468.113 218.262C467.589 218.391 467.095 218.575 466.667 218.822C464.873 219.858 464.873 221.538 466.667 222.574C467.047 222.793 467.477 222.966 467.935 223.092M489.3 210.758C489.074 210.486 488.771 210.239 488.401 210.026C486.607 208.99 483.625 209.032 481.831 210.068C481.403 210.315 481.084 210.6 480.86 210.902C479.104 210.32 476.832 210.452 475.332 211.318C474.734 211.664 473.764 211.664 473.166 211.318L469.916 209.442" stroke="#ED1C24" stroke-width="0.828673" stroke-miterlimit="10" stroke-linecap="round" stroke-linejoin="round"/>
<path d="M473.165 207.568L468.519 207.56M462.334 213.821L462.349 211.134M489.27 210.776L467.763 223.193M469.916 209.444L465.584 211.945C463.895 211.45 459.13 210.721 454.381 207.979C447.805 204.182 448.183 199.564 448.11 199.356C448.482 199.399 456.503 199.199 463.046 202.976C467.805 205.724 469.03 208.437 469.916 209.444Z" stroke="#ED1C24" stroke-width="0.828673" stroke-miterlimit="10" stroke-linecap="round" stroke-linejoin="round"/>
</g>
<mask id="path-95-inside-6_1413_498" fill="white">
<path d="M128.884 72.2236L157.281 72.2852V88.1602L92.4356 125.201L27.0206 88.1602V72.0059L55.4854 72.0664L92.046 51.3975L128.884 72.2236Z"/>
</mask>
<path d="M128.884 72.2236L157.281 72.2852V88.1602L92.4356 125.201L27.0206 88.1602V72.0059L55.4854 72.0664L92.046 51.3975L128.884 72.2236Z" fill="url(#paint2_linear_1413_498)"/>
<path d="M128.884 72.2236L128.593 72.7389L128.728 72.8152L128.883 72.8155L128.884 72.2236ZM157.281 72.2852H157.873V71.6945L157.283 71.6933L157.281 72.2852ZM157.281 88.1602L157.575 88.6741L157.873 88.5037V88.1602H157.281ZM92.4356 125.201L92.144 125.716L92.4369 125.882L92.7292 125.715L92.4356 125.201ZM27.0206 88.1602H26.4287V88.5052L26.7289 88.6752L27.0206 88.1602ZM27.0206 72.0059L27.0218 71.414L26.4287 71.4127V72.0059H27.0206ZM55.4854 72.0664L55.4842 72.6583L55.6406 72.6586L55.7767 72.5817L55.4854 72.0664ZM92.046 51.3975L92.3373 50.8822L92.046 50.7175L91.7547 50.8822L92.046 51.3975ZM128.884 72.2236L128.883 72.8155L157.28 72.8771L157.281 72.2852L157.283 71.6933L128.885 71.6317L128.884 72.2236ZM157.281 72.2852H156.689V88.1602H157.281H157.873V72.2852H157.281ZM157.281 88.1602L156.988 87.6462L92.142 124.687L92.4356 125.201L92.7292 125.715L157.575 88.6741L157.281 88.1602ZM92.4356 125.201L92.7273 124.686L27.3122 87.6451L27.0206 88.1602L26.7289 88.6752L92.144 125.716L92.4356 125.201ZM27.0206 88.1602H27.6125V72.0059H27.0206H26.4287V88.1602H27.0206ZM27.0206 72.0059L27.0193 72.5978L55.4842 72.6583L55.4854 72.0664L55.4867 71.4745L27.0218 71.414L27.0206 72.0059ZM55.4854 72.0664L55.7767 72.5817L92.3373 51.9127L92.046 51.3975L91.7547 50.8822L55.1941 71.5511L55.4854 72.0664ZM92.046 51.3975L91.7547 51.9127L128.593 72.7389L128.884 72.2236L129.175 71.7084L92.3373 50.8822L92.046 51.3975Z" fill="#0E3572" mask="url(#path-95-inside-6_1413_498)"/>
<g filter="url(#filter1_i_1413_498)">
<path d="M92.0456 35.2437L157.281 72.2852L92.0456 108.77L27.0204 72.0067L92.0456 35.2437Z" fill="white" fill-opacity="0.2"/>
<path d="M92.0456 35.2437L157.281 72.2852L92.0456 108.77L27.0204 72.0067L92.0456 35.2437Z" fill="#0E3572"/>
</g>
<path d="M156.758 72.2837L92.0464 108.475L27.5422 72.0068L92.0456 35.5388L156.758 72.2837Z" stroke="#0E3572" stroke-width="0.600165"/>
<path d="M73.0667 77.9703L66.5796 74.3028L70.9072 71.8561L71.9521 72.4468L68.8087 74.224L70.6025 75.2381L73.354 73.6825L74.3989 74.2732L71.6474 75.8289L74.2509 77.3008L73.0667 77.9703ZM78.0729 75.14L73.3361 72.4619L74.4767 71.817L79.2136 74.4951L78.0729 75.14ZM72.8049 72.1616L71.5859 71.4724L72.7265 70.8275L73.9456 71.5167L72.8049 72.1616ZM80.2668 73.8996L75.5299 71.2216L76.601 70.616L77.5327 71.1428L77.2801 71.0985C77.106 70.8753 77.0712 70.6521 77.1756 70.429C77.2801 70.1992 77.5007 69.9892 77.8374 69.7988C78.1857 69.6019 78.5688 69.4706 78.9868 69.405C79.4106 69.3361 79.8343 69.3361 80.2581 69.405C80.676 69.4706 81.0621 69.6036 81.4162 69.8038L84.4638 71.5268L83.3231 72.1717L80.5454 70.6013C80.3365 70.4831 80.1159 70.4043 79.8837 70.365C79.6515 70.3256 79.4222 70.3239 79.1958 70.36C78.9694 70.3896 78.7604 70.4585 78.5688 70.5668C78.3831 70.6718 78.2612 70.79 78.2031 70.9213C78.1393 71.0493 78.1422 71.1789 78.2118 71.3102C78.2815 71.4414 78.4208 71.5662 78.6298 71.6843L81.4075 73.2547L80.2668 73.8996ZM87.7358 69.795C87.2772 70.0543 86.7606 70.225 86.1859 70.307C85.6054 70.3858 85.022 70.3776 84.4357 70.2824C83.8494 70.1872 83.3269 70.01 82.8684 69.7507C82.404 69.4882 82.0905 69.1928 81.9279 68.8646C81.7654 68.5364 81.7538 68.2082 81.8931 67.88C82.0382 67.5485 82.3343 67.2564 82.7813 67.0037C83.1412 66.8002 83.533 66.6608 83.9568 66.5853C84.3806 66.5032 84.8014 66.4885 85.2194 66.541L85.2803 66.7723L82.4852 65.1921L83.6259 64.5472L90.2175 68.2738L89.1377 68.8843L88.2234 68.3674L88.5717 68.4265C88.6646 68.6628 88.6356 68.9023 88.4847 69.1452C88.3279 69.3848 88.0783 69.6014 87.7358 69.795ZM86.8128 69.1354C87.0741 68.9877 87.2424 68.8236 87.3179 68.6431C87.3933 68.4626 87.3788 68.2804 87.2743 68.0966C87.1756 67.9095 86.987 67.7372 86.7083 67.5797C86.4355 67.4255 86.1337 67.3204 85.8028 67.2646C85.4719 67.2023 85.1468 67.1924 84.8275 67.2351C84.5083 67.2778 84.218 67.3729 83.9568 67.5206C83.7014 67.665 83.5359 67.8308 83.4605 68.0178C83.3792 68.2016 83.3879 68.3871 83.4866 68.5741C83.5853 68.7546 83.7739 68.9237 84.0526 69.0812C84.3312 69.2387 84.6331 69.347 84.9581 69.4061C85.289 69.4619 85.617 69.4668 85.9421 69.4209C86.2672 69.3749 86.5574 69.2798 86.8128 69.1354ZM91.2787 67.6739L86.5418 64.9958L87.6825 64.3509L92.4194 67.029L91.2787 67.6739ZM86.0107 64.6955L84.7916 64.0063L85.9323 63.3614L87.1513 64.0506L86.0107 64.6955ZM93.4725 66.4335L88.7357 63.7554L89.8067 63.1499L90.7384 63.6767L90.4859 63.6324C90.3117 63.4092 90.2769 63.186 90.3814 62.9629C90.4859 62.7331 90.7065 62.5231 91.0432 62.3327C91.3915 62.1358 91.7746 62.0045 92.1926 61.9389C92.6163 61.87 93.0401 61.87 93.4638 61.9389C93.8818 62.0045 94.2678 62.1374 94.6219 62.3376L97.6695 64.0607L96.5289 64.7056L93.7512 63.1352C93.5422 63.017 93.3216 62.9382 93.0894 62.8989C92.8572 62.8595 92.6279 62.8578 92.4015 62.8939C92.1751 62.9235 91.9662 62.9924 91.7746 63.1007C91.5888 63.2057 91.4669 63.3239 91.4089 63.4551C91.345 63.5831 91.3479 63.7128 91.4176 63.8441C91.4872 63.9753 91.6266 64.1 91.8355 64.2182L94.6132 65.7886L93.4725 66.4335ZM102.849 63.2987C102.494 63.4989 102.108 63.6515 101.69 63.7566C101.272 63.8616 100.849 63.9174 100.419 63.9239C100.001 63.9305 99.6035 63.8829 99.2262 63.7812L99.888 62.9541C100.178 63.0395 100.492 63.0624 100.828 63.023C101.177 62.9837 101.502 62.8786 101.804 62.708C102.036 62.5767 102.195 62.4372 102.283 62.2895C102.375 62.1386 102.387 61.9876 102.317 61.8366C102.254 61.6889 102.105 61.5495 101.873 61.4182L100.794 60.8077L101.272 60.8323C101.394 61.0851 101.391 61.3296 101.264 61.5659C101.136 61.8022 100.898 62.0188 100.55 62.2157C100.109 62.4651 99.6122 62.6309 99.0608 62.7129C98.5093 62.795 97.9578 62.7917 97.4063 62.7031C96.8549 62.6144 96.3585 62.4454 95.9174 62.196C95.4704 61.9433 95.1714 61.6627 95.0205 61.3542C94.8696 61.0457 94.8667 60.7388 95.0118 60.4336C95.1511 60.1251 95.4385 59.8478 95.8738 59.6016C96.2279 59.4014 96.614 59.2685 97.0319 59.2029C97.4499 59.1307 97.8882 59.1225 98.3468 59.1782L98.4774 59.4293L97.4325 58.8386L98.5122 58.2281L103.014 60.7733C103.426 61.0063 103.693 61.2721 103.815 61.5708C103.943 61.8662 103.925 62.1648 103.763 62.4668C103.606 62.7654 103.301 63.0427 102.849 63.2987ZM99.6355 61.5412C99.8793 61.4034 100.039 61.2541 100.114 61.0933C100.19 60.9259 100.184 60.7585 100.097 60.5911C100.01 60.4237 99.8415 60.2695 99.5919 60.1284C99.3481 59.9905 99.0753 59.8986 98.7734 59.8527C98.4716 59.8002 98.1726 59.7952 97.8766 59.8379C97.5863 59.8773 97.3222 59.9643 97.0842 60.0988C96.8462 60.2334 96.6865 60.386 96.6053 60.5567C96.524 60.7273 96.5269 60.8996 96.614 61.0736C96.701 61.2409 96.8665 61.3936 97.1103 61.5314C97.3541 61.6692 97.624 61.7628 97.9201 61.812C98.2219 61.858 98.5209 61.8596 98.817 61.8169C99.1188 61.771 99.3916 61.6791 99.6355 61.5412ZM90.3101 81.0175L83.8231 77.3499L84.955 76.71L90.6845 77.2023L90.1447 77.5075L89.2217 74.2977L90.3537 73.6578L96.8407 77.3253L95.6478 77.9998L90.5104 75.0952L91.0851 74.8983L91.9036 78.1475L91.7643 78.2262L86.0783 77.729L86.3569 77.4435L91.4943 80.348L90.3101 81.0175ZM99.815 75.6438L91.064 73.2562L92.3527 72.5276L99.5015 74.5607L99.249 74.7035L95.6528 70.6618L96.9415 69.9332L101.173 74.8758L99.815 75.6438ZM104.154 73.1908L97.6666 69.5233L100.087 68.1547C100.528 67.9053 100.999 67.7313 101.498 67.6329C101.997 67.5278 102.496 67.5082 102.996 67.5738C103.489 67.6362 103.953 67.7904 104.389 68.0365C104.818 68.2794 105.088 68.5436 105.199 68.8291C105.309 69.1081 105.277 69.3887 105.103 69.671C104.929 69.9532 104.621 70.219 104.18 70.4685L102.943 71.1675L105.338 72.5213L104.154 73.1908ZM101.898 70.5768L103.152 69.8679C103.367 69.7464 103.512 69.6184 103.588 69.4839C103.657 69.346 103.66 69.2098 103.596 69.0753C103.532 68.9407 103.402 68.8177 103.205 68.7061C103.001 68.5912 102.784 68.5174 102.551 68.4845C102.313 68.4484 102.075 68.4517 101.837 68.4944C101.594 68.5338 101.364 68.6142 101.15 68.7356L99.8957 69.4445L101.898 70.5768Z" fill="#FFFAFA"/>
</g>
<defs>
<filter id="filter0_i_1413_498" x="146.101" y="119.457" width="237.293" height="137.401" filterUnits="userSpaceOnUse" color-interpolation-filters="sRGB">
<feFlood flood-opacity="0" result="BackgroundImageFix"/>
<feBlend mode="normal" in="SourceGraphic" in2="BackgroundImageFix" result="shape"/>
<feColorMatrix in="SourceAlpha" type="matrix" values="0 0 0 0 0 0 0 0 0 0 0 0 0 0 0 0 0 0 127 0" result="hardAlpha"/>
<feOffset/>
<feGaussianBlur stdDeviation="6.00165"/>
<feComposite in2="hardAlpha" operator="arithmetic" k2="-1" k3="1"/>
<feColorMatrix type="matrix" values="0 0 0 0 1 0 0 0 0 1 0 0 0 0 1 0 0 0 1 0"/>
<feBlend mode="normal" in2="shape" result="effect1_innerShadow_1413_498"/>
</filter>
<filter id="filter1_i_1413_498" x="27.0204" y="35.2437" width="130.26" height="73.5261" filterUnits="userSpaceOnUse" color-interpolation-filters="sRGB">
<feFlood flood-opacity="0" result="BackgroundImageFix"/>
<feBlend mode="normal" in="SourceGraphic" in2="BackgroundImageFix" result="shape"/>
<feColorMatrix in="SourceAlpha" type="matrix" values="0 0 0 0 0 0 0 0 0 0 0 0 0 0 0 0 0 0 127 0" result="hardAlpha"/>
<feOffset/>
<feGaussianBlur stdDeviation="4.26172"/>
<feComposite in2="hardAlpha" operator="arithmetic" k2="-1" k3="1"/>
<feColorMatrix type="matrix" values="0 0 0 0 0.054902 0 0 0 0 0.207843 0 0 0 0 0.447059 0 0 0 0.35 0"/>
<feBlend mode="normal" in2="shape" result="effect1_innerShadow_1413_498"/>
</filter>
<radialGradient id="paint0_radial_1413_498" cx="0" cy="0" r="1" gradientUnits="userSpaceOnUse" gradientTransform="translate(324.323 361.152) rotate(90) scale(333.019 333.019)">
<stop stop-color="#D9D9D9"/>
<stop offset="0.890272" stop-color="#D9D9D9" stop-opacity="0"/>
</radialGradient>
<linearGradient id="paint1_linear_1413_498" x1="267.244" y1="126.756" x2="267.244" y2="248.48" gradientUnits="userSpaceOnUse">
<stop stop-color="white"/>
<stop offset="1" stop-color="#3EAFD1"/>
</linearGradient>
<linearGradient id="paint2_linear_1413_498" x1="97.5913" y1="51.3975" x2="97.5913" y2="125.202" gradientUnits="userSpaceOnUse">
<stop stop-color="white"/>
<stop offset="1" stop-color="#3EAFD1"/>
</linearGradient>
<clipPath id="clip0_1413_498">
<rect width="457.886" height="336.648" rx="9.60264" fill="white"/>
</clipPath>
<clipPath id="clip1_1413_498">
<rect width="34.0689" height="34.0689" fill="white" transform="matrix(0.866025 -0.5 -0.866025 -0.5 376.6 121.093)"/>
</clipPath>
<clipPath id="clip2_1413_498">
<rect width="35.2437" height="35.2437" fill="white" transform="matrix(0.866025 -0.5 0.866025 0.5 198.522 270.202)"/>
</clipPath>
<clipPath id="clip3_1413_498">
<rect width="35.2437" height="35.2437" fill="white" transform="matrix(0.866025 -0.5 0.866025 0.5 209.525 52.866)"/>
</clipPath>
<clipPath id="clip4_1413_498">
<rect width="34.0689" height="34.0689" fill="white" transform="matrix(0.866025 -0.5 0.866025 0.5 44.0121 202.085)"/>
</clipPath>
<clipPath id="clip5_1413_498">
<rect width="37.3331" height="37.3331" fill="white" transform="matrix(0.866039 -0.499976 0.866039 0.499976 430.048 208.981)"/>
</clipPath>
</defs>
</svg>
