<svg width="1320" height="280" viewBox="0 0 1320 280" fill="none" xmlns="http://www.w3.org/2000/svg">
<g clip-path="url(#clip0_2008_603)">
<g opacity="0.5">
<mask id="mask0_2008_603" style="mask-type:alpha" maskUnits="userSpaceOnUse" x="-314" y="-543" width="1948" height="1124">
<rect width="1123.54" height="1123.54" transform="matrix(0.866025 0.5 -0.866025 0.5 660 -543)" fill="url(#paint0_radial_2008_603)"/>
<rect y="0.586258" width="1122.36" height="1122.36" transform="matrix(0.866025 0.5 -0.866025 0.5 660.508 -542.707)" stroke="#B3B3B3" stroke-opacity="0.4" stroke-width="1.17252"/>
</mask>
<g mask="url(#mask0_2008_603)">
<path d="M637.518 -528.954L-289.028 5.98771" stroke="#B3B3B3" stroke-opacity="0.4" stroke-width="1.17252"/>
<path d="M678.061 -505.549L-248.485 29.3929" stroke="#B3B3B3" stroke-opacity="0.4" stroke-width="1.17252"/>
<path d="M718.602 -482.139L-207.944 52.8023" stroke="#B3B3B3" stroke-opacity="0.4" stroke-width="1.17252"/>
<path d="M759.143 -458.733L-167.403 76.2085" stroke="#B3B3B3" stroke-opacity="0.4" stroke-width="1.17252"/>
<path d="M799.684 -435.326L-126.862 99.6149" stroke="#B3B3B3" stroke-opacity="0.4" stroke-width="1.17252"/>
<path d="M840.229 -411.918L-86.3171 123.023" stroke="#B3B3B3" stroke-opacity="0.4" stroke-width="1.17252"/>
<path d="M880.771 -388.511L-45.7742 146.431" stroke="#B3B3B3" stroke-opacity="0.4" stroke-width="1.17252"/>
<path d="M921.311 -365.106L-5.2351 169.835" stroke="#B3B3B3" stroke-opacity="0.4" stroke-width="1.17252"/>
<path d="M961.857 -341.697L35.3118 193.244" stroke="#B3B3B3" stroke-opacity="0.4" stroke-width="1.17252"/>
<path d="M1002.4 -318.29L75.8509 216.651" stroke="#B3B3B3" stroke-opacity="0.4" stroke-width="1.17252"/>
<path d="M1042.94 -294.884L116.394 240.057" stroke="#B3B3B3" stroke-opacity="0.4" stroke-width="1.17252"/>
<path d="M1083.48 -271.476L156.933 263.465" stroke="#B3B3B3" stroke-opacity="0.4" stroke-width="1.17252"/>
<path d="M1124.02 -248.069L197.478 286.872" stroke="#B3B3B3" stroke-opacity="0.4" stroke-width="1.17252"/>
<path d="M1164.57 -224.664L238.021 310.278" stroke="#B3B3B3" stroke-opacity="0.4" stroke-width="1.17252"/>
<path d="M1205.11 -201.255L278.566 333.687" stroke="#B3B3B3" stroke-opacity="0.4" stroke-width="1.17252"/>
<path d="M1245.65 -177.849L319.105 357.093" stroke="#B3B3B3" stroke-opacity="0.4" stroke-width="1.17252"/>
<path d="M1286.2 -154.443L359.65 380.499" stroke="#B3B3B3" stroke-opacity="0.4" stroke-width="1.17252"/>
<path d="M1326.73 -131.035L400.189 403.907" stroke="#B3B3B3" stroke-opacity="0.4" stroke-width="1.17252"/>
<path d="M1367.28 -107.627L440.734 427.314" stroke="#B3B3B3" stroke-opacity="0.4" stroke-width="1.17252"/>
<path d="M1407.82 -84.2213L481.271 450.72" stroke="#B3B3B3" stroke-opacity="0.4" stroke-width="1.17252"/>
<path d="M1448.36 -60.8129L521.816 474.128" stroke="#B3B3B3" stroke-opacity="0.4" stroke-width="1.17252"/>
<path d="M1488.9 -37.406L562.357 497.535" stroke="#B3B3B3" stroke-opacity="0.4" stroke-width="1.17252"/>
<path d="M1529.45 -13.9998L602.902 520.942" stroke="#B3B3B3" stroke-opacity="0.4" stroke-width="1.17252"/>
<path d="M1569.99 9.40808L643.443 544.349" stroke="#B3B3B3" stroke-opacity="0.4" stroke-width="1.17252"/>
<path d="M1610.53 32.8146L683.984 567.756" stroke="#B3B3B3" stroke-opacity="0.4" stroke-width="1.17252"/>
<path d="M637.518 -528.954L1610.53 32.815" stroke="#B3B3B3" stroke-opacity="0.4" stroke-width="1.17252"/>
<path d="M598.91 -506.664L1571.92 55.1041" stroke="#B3B3B3" stroke-opacity="0.4" stroke-width="1.17252"/>
<path d="M560.307 -484.375L1533.32 77.3933" stroke="#B3B3B3" stroke-opacity="0.4" stroke-width="1.17252"/>
<path d="M521.699 -462.086L1494.71 99.6827" stroke="#B3B3B3" stroke-opacity="0.4" stroke-width="1.17252"/>
<path d="M483.092 -439.797L1456.1 121.971" stroke="#B3B3B3" stroke-opacity="0.4" stroke-width="1.17252"/>
<path d="M444.484 -417.508L1417.5 144.261" stroke="#B3B3B3" stroke-opacity="0.4" stroke-width="1.17252"/>
<path d="M405.883 -395.218L1378.89 166.551" stroke="#B3B3B3" stroke-opacity="0.4" stroke-width="1.17252"/>
<path d="M367.275 -372.928L1340.29 188.84" stroke="#B3B3B3" stroke-opacity="0.4" stroke-width="1.17252"/>
<path d="M328.67 -350.64L1301.68 211.128" stroke="#B3B3B3" stroke-opacity="0.4" stroke-width="1.17252"/>
<path d="M290.064 -328.352L1263.08 233.417" stroke="#B3B3B3" stroke-opacity="0.4" stroke-width="1.17252"/>
<path d="M251.455 -306.06L1224.47 255.708" stroke="#B3B3B3" stroke-opacity="0.4" stroke-width="1.17252"/>
<path d="M212.848 -283.773L1185.86 277.996" stroke="#B3B3B3" stroke-opacity="0.4" stroke-width="1.17252"/>
<path d="M174.244 -261.483L1147.26 300.286" stroke="#B3B3B3" stroke-opacity="0.4" stroke-width="1.17252"/>
<path d="M135.637 -239.193L1108.65 322.576" stroke="#B3B3B3" stroke-opacity="0.4" stroke-width="1.17252"/>
<path d="M97.0312 -216.905L1070.04 344.864" stroke="#B3B3B3" stroke-opacity="0.4" stroke-width="1.17252"/>
<path d="M58.4277 -194.615L1031.44 367.154M423.306 16.0477C423.306 16.0477 448.015 30.3133 463.847 39.454" stroke="#B3B3B3" stroke-opacity="0.4" stroke-width="1.17252"/>
<path d="M19.8555 -172.339L992.867 389.429" stroke="#B3B3B3" stroke-opacity="0.4" stroke-width="1.17252"/>
<path d="M-18.752 -150.052L954.26 411.717" stroke="#B3B3B3" stroke-opacity="0.4" stroke-width="1.17252"/>
<path d="M-57.3574 -127.764L915.654 434.005" stroke="#B3B3B3" stroke-opacity="0.4" stroke-width="1.17252"/>
<path d="M-95.9609 -105.474L877.051 456.295" stroke="#B3B3B3" stroke-opacity="0.4" stroke-width="1.17252"/>
<path d="M-134.568 -83.1847L838.443 478.584" stroke="#B3B3B3" stroke-opacity="0.4" stroke-width="1.17252"/>
<path d="M-173.172 -60.8966L799.84 500.872" stroke="#B3B3B3" stroke-opacity="0.4" stroke-width="1.17252"/>
<path d="M-211.779 -38.6072L761.232 523.161" stroke="#B3B3B3" stroke-opacity="0.4" stroke-width="1.17252"/>
<path d="M-250.387 -16.3166L722.625 545.452" stroke="#B3B3B3" stroke-opacity="0.4" stroke-width="1.17252"/>
<path d="M-288.99 5.97168L684.022 567.74" stroke="#B3B3B3" stroke-opacity="0.4" stroke-width="1.17252"/>
</g>
</g>
<path d="M95.7814 147.63L60.5 168L179.5 236.705L274.251 182L402 255.756L425.826 242M542.5 147.63L558.314 138.5L675.227 206L795.5 136.561M905.5 39L942.5 17.638L1044 76.2391L866 179.007L1007 260.414L1080.46 218" stroke="#0E3572" stroke-dasharray="12 2"/>
<path d="M56.4758 115.796L56.4766 124.171L133.499 168.638L133.498 159.978L60.9727 118.35L56.4758 115.796Z" fill="#0E3572" fill-opacity="0.1"/>
<path d="M236.025 101.023L133.498 159.978L133.499 168.638L240.523 106.844L240.522 98.4692L236.025 101.023Z" fill="#0E3572" fill-opacity="0.1"/>
<path fill-rule="evenodd" clip-rule="evenodd" d="M56.4758 115.796L60.9727 118.35L133.498 159.978L236.025 101.023L240.522 98.4692L163.5 54L56.4758 115.796Z" fill="white"/>
<path d="M236.155 101.099L236.156 101.1L240.334 98.7254L240.336 106.8L133.683 168.379L133.682 160.023L236.155 101.099ZM60.8425 118.426L133.311 160.023L133.312 168.379L56.6611 124.127L56.662 116.051L60.8425 118.426ZM240.257 98.4681L235.894 100.947L235.893 100.947L133.497 159.826L61.1038 118.274L61.103 118.273L56.7381 115.795L163.498 54.1521L240.257 98.4681Z" stroke="#0E3572" stroke-width="0.303418"/>
<path d="M56.4758 96.7955L56.4766 105.171L133.499 149.638L133.498 140.978L60.9727 99.3496L56.4758 96.7955Z" fill="#E7EBF1"/>
<path d="M236.025 82.0235L133.498 140.978L133.499 149.638L240.523 87.8442L240.522 79.4692L236.025 82.0235Z" fill="#E7EBF1"/>
<path fill-rule="evenodd" clip-rule="evenodd" d="M56.4758 96.7955L60.9727 99.3496L133.498 140.978L236.025 82.0235L240.522 79.4692L163.5 35L56.4758 96.7955Z" fill="#0E3572"/>
<path d="M236.155 82.0993L236.156 82.0997L240.334 79.7254L240.336 87.8001L133.683 149.379L133.682 141.023L236.155 82.0993ZM60.8425 99.4258L133.311 141.023L133.312 149.379L56.6611 105.127L56.662 97.0514L60.8425 99.4258ZM240.257 79.4681L235.894 81.9469L235.893 81.9474L133.497 140.826L61.1038 99.2739L61.103 99.2734L56.7381 96.7946L163.498 35.1521L240.257 79.4681Z" stroke="#0E3572" stroke-width="0.303418"/>
<path d="M94.7173 107.952C94.0661 107.576 93.491 107.12 92.9922 106.584C92.5003 106.044 92.0846 105.464 91.7451 104.844C91.4126 104.22 91.1597 103.59 90.9865 102.954C90.8202 102.314 90.7371 101.702 90.7371 101.118V100.854C90.7371 100.302 90.8202 99.8096 90.9865 99.3776C91.1528 98.9456 91.3953 98.6096 91.714 98.3696C92.0396 98.1336 92.438 98.0276 92.9091 98.0516C93.3871 98.0716 93.9344 98.2596 94.5511 98.6156C95.2162 98.9996 95.8051 99.4836 96.3178 100.068C96.8304 100.644 97.2427 101.278 97.5544 101.97C97.8662 102.654 98.0498 103.348 98.1052 104.052L96.6191 103.194C96.5706 102.79 96.4494 102.4 96.2554 102.024C96.0614 101.64 95.8155 101.29 95.5175 100.974C95.2266 100.662 94.9044 100.404 94.5511 100.2C94.1977 99.9956 93.8756 99.8816 93.5846 99.8576C93.3005 99.8376 93.058 99.9016 92.8571 100.05C92.6562 100.198 92.5003 100.424 92.3895 100.728C92.2855 101.036 92.2336 101.414 92.2336 101.862C92.2336 102.35 92.2925 102.82 92.4102 103.272C92.528 103.724 92.6943 104.148 92.9091 104.544C93.1238 104.932 93.3837 105.286 93.6885 105.606C93.9933 105.918 94.3363 106.184 94.7173 106.404C95.2231 106.696 95.6665 106.832 96.0476 106.812C96.4286 106.784 96.7057 106.624 96.8789 106.332L96.6191 107.562V105.306L97.9805 106.092V108.036C97.6549 108.416 97.2115 108.604 96.6503 108.6C96.0891 108.588 95.4448 108.372 94.7173 107.952ZM94.4783 104.406V103.134L98.6144 105.522V106.794L94.4783 104.406ZM102.429 112.404C101.93 112.116 101.49 111.77 101.109 111.366C100.728 110.962 100.406 110.528 100.142 110.064C99.8792 109.592 99.6783 109.116 99.5397 108.636C99.4081 108.16 99.3422 107.706 99.3422 107.274V107.022C99.3422 106.574 99.4115 106.19 99.5501 105.87C99.6956 105.546 99.9 105.304 100.163 105.144C100.433 104.98 100.759 104.92 101.14 104.964C101.521 105 101.951 105.156 102.429 105.432C102.907 105.708 103.336 106.048 103.717 106.452C104.098 106.848 104.421 107.282 104.684 107.754C104.954 108.222 105.158 108.7 105.297 109.188C105.436 109.668 105.505 110.132 105.505 110.58V110.832C105.505 111.264 105.436 111.64 105.297 111.96C105.165 112.284 104.968 112.53 104.705 112.698C104.441 112.858 104.119 112.92 103.738 112.884C103.357 112.848 102.921 112.688 102.429 112.404ZM102.429 110.976C102.782 111.18 103.08 111.264 103.322 111.228C103.565 111.184 103.749 111.046 103.873 110.814C103.998 110.574 104.06 110.258 104.06 109.866C104.06 109.466 103.995 109.076 103.863 108.696C103.738 108.312 103.551 107.96 103.302 107.64C103.059 107.316 102.768 107.056 102.429 106.86C102.089 106.664 101.795 106.586 101.545 106.626C101.303 106.662 101.116 106.798 100.984 107.034C100.853 107.262 100.787 107.576 100.787 107.976C100.787 108.368 100.849 108.756 100.974 109.14C101.105 109.52 101.293 109.872 101.535 110.196C101.777 110.512 102.075 110.772 102.429 110.976ZM110.189 116.656V114.724L109.95 114.586V112.438C109.95 112.062 109.87 111.736 109.711 111.46C109.551 111.184 109.305 110.95 108.973 110.758C108.8 110.658 108.592 110.542 108.349 110.41C108.107 110.278 107.861 110.148 107.612 110.02C107.369 109.888 107.151 109.774 106.957 109.678V108.262C107.116 108.338 107.296 108.426 107.497 108.526C107.698 108.626 107.902 108.736 108.11 108.856C108.325 108.972 108.526 109.084 108.713 109.192C109.295 109.528 109.777 109.894 110.158 110.29C110.546 110.69 110.837 111.134 111.031 111.622C111.231 112.114 111.332 112.664 111.332 113.272V117.316L110.189 116.656ZM108.37 115.774C107.961 115.538 107.601 115.246 107.289 114.898C106.985 114.554 106.745 114.176 106.572 113.764C106.406 113.356 106.323 112.932 106.323 112.492C106.323 112.012 106.423 111.678 106.624 111.49C106.832 111.306 107.12 111.244 107.487 111.304C107.861 111.368 108.297 111.544 108.796 111.832L110.106 112.588V113.584L108.775 112.816C108.443 112.624 108.187 112.572 108.006 112.66C107.833 112.744 107.747 112.934 107.747 113.23C107.747 113.526 107.833 113.816 108.006 114.1C108.187 114.388 108.443 114.628 108.775 114.82C108.976 114.936 109.16 115.002 109.326 115.018C109.499 115.03 109.641 114.968 109.752 114.832C109.87 114.692 109.936 114.45 109.95 114.106L110.303 114.778C110.268 115.214 110.171 115.542 110.012 115.762C109.86 115.986 109.645 116.102 109.368 116.11C109.098 116.114 108.765 116.002 108.37 115.774ZM112.952 118.251V109.491L114.397 110.325V119.085L112.952 118.251ZM112.245 110.331V109.083L114.397 110.325V111.573L112.245 110.331ZM118.093 121.423C117.317 120.975 116.707 120.435 116.264 119.803C115.827 119.167 115.599 118.507 115.578 117.823L116.877 118.573C116.898 118.809 117.005 119.075 117.199 119.371C117.393 119.667 117.698 119.935 118.114 120.175C118.46 120.375 118.734 120.461 118.935 120.433C119.143 120.409 119.247 120.273 119.247 120.025C119.247 119.809 119.167 119.591 119.007 119.371C118.855 119.155 118.592 118.919 118.218 118.663L117.719 118.315C117.088 117.871 116.603 117.383 116.264 116.851C115.924 116.319 115.755 115.773 115.755 115.213C115.755 114.765 115.852 114.445 116.046 114.253C116.24 114.061 116.506 113.987 116.846 114.031C117.192 114.071 117.587 114.219 118.031 114.475C118.723 114.875 119.285 115.375 119.714 115.975C120.144 116.575 120.369 117.221 120.39 117.913L119.091 117.163C119.077 116.931 118.98 116.683 118.8 116.419C118.62 116.155 118.36 115.925 118.02 115.729C117.715 115.553 117.48 115.485 117.314 115.525C117.147 115.565 117.064 115.693 117.064 115.909C117.064 116.117 117.13 116.315 117.262 116.503C117.4 116.695 117.622 116.899 117.927 117.115L118.426 117.463C119.091 117.927 119.61 118.439 119.984 118.999C120.365 119.563 120.556 120.137 120.556 120.721C120.556 121.153 120.452 121.469 120.244 121.669C120.043 121.865 119.759 121.945 119.392 121.909C119.025 121.873 118.592 121.711 118.093 121.423Z" fill="#FFFAFA"/>
<g clip-path="url(#clip1_2008_603)">
<path d="M132.765 94.6595C124.365 89.81 124.365 81.9195 132.765 77.07C141.166 72.2206 154.834 72.2206 163.234 77.07C171.634 81.9195 171.634 89.81 163.234 94.6595C154.834 99.5089 141.166 99.5089 132.765 94.6595Z" stroke="white" stroke-miterlimit="10" stroke-linecap="round" stroke-linejoin="round"/>
<path d="M141.555 89.5856C138.001 87.5339 138.001 84.1956 141.555 82.1439C145.109 80.0922 150.891 80.0922 154.445 82.1439C157.999 84.1956 157.999 87.5339 154.445 89.5856C150.891 91.6373 145.109 91.6373 141.555 89.5856Z" stroke="white" stroke-miterlimit="10" stroke-linecap="round" stroke-linejoin="round"/>
<path d="M148 85.8647H169.545" stroke="white" stroke-miterlimit="10" stroke-linecap="round" stroke-linejoin="round"/>
<path d="M187.222 89.4525L174.793 89.4525L169.545 85.8647L174.793 82.277L187.222 82.277L181.974 85.8647L187.222 89.4525Z" stroke="white" stroke-miterlimit="10" stroke-linecap="round" stroke-linejoin="round"/>
<path d="M180.699 89.4525L174.792 89.4525L169.544 85.8647L174.792 82.277L180.699 82.277C179.499 78.6138 176.445 75.1131 171.534 72.278C158.536 64.7743 137.463 64.7743 124.465 72.278C111.467 79.7818 111.467 91.9477 124.465 99.4515C137.463 106.955 158.536 106.955 171.534 99.4515C176.445 96.6164 179.499 93.1157 180.699 89.4525Z" stroke="white" stroke-miterlimit="10" stroke-linecap="round" stroke-linejoin="round"/>
</g>
<path d="M385.265 206.796L385.266 215.171L462.288 259.638L462.287 250.978L389.762 209.35L385.265 206.796Z" fill="#0E3572" fill-opacity="0.1"/>
<path d="M564.814 192.023L462.287 250.978L462.288 259.638L569.312 197.844L569.311 189.469L564.814 192.023Z" fill="#0E3572" fill-opacity="0.1"/>
<path fill-rule="evenodd" clip-rule="evenodd" d="M385.265 206.796L389.762 209.35L462.287 250.978L564.814 192.023L569.311 189.469L492.289 145L385.265 206.796Z" fill="#0E3572"/>
<path d="M564.944 192.099L564.945 192.1L569.123 189.725L569.125 197.8L462.472 259.379L462.471 251.023L564.944 192.099ZM389.632 209.426L462.1 251.023L462.101 259.379L385.45 215.127L385.451 207.051L389.632 209.426ZM569.046 189.468L564.683 191.947L564.682 191.947L462.286 250.826L389.893 209.274L389.892 209.273L385.527 206.795L492.287 145.152L569.046 189.468Z" stroke="#0E3572" stroke-width="0.303418"/>
<path d="M385.265 187.796L385.266 196.171L462.288 240.638L462.287 231.978L389.762 190.35L385.265 187.796Z" fill="#E7EBF1"/>
<path d="M564.814 173.023L462.287 231.978L462.288 240.638L569.312 178.844L569.311 170.469L564.814 173.023Z" fill="#E7EBF1"/>
<path fill-rule="evenodd" clip-rule="evenodd" d="M385.265 187.796L389.762 190.35L462.287 231.978L564.814 173.023L569.311 170.469L492.289 126L385.265 187.796Z" fill="#0E3572"/>
<path fill-rule="evenodd" clip-rule="evenodd" d="M385.265 187.796L389.762 190.35L462.287 231.978L564.814 173.023L569.311 170.469L492.289 126L385.265 187.796Z" fill="white" fill-opacity="0.2"/>
<path d="M564.944 173.099L564.945 173.1L569.123 170.725L569.125 178.8L462.472 240.379L462.471 232.023L564.944 173.099ZM389.632 190.426L462.1 232.023L462.101 240.379L385.45 196.127L385.451 188.051L389.632 190.426ZM569.046 170.468L564.683 172.947L564.682 172.947L462.286 231.826L389.893 190.274L389.892 190.273L385.527 187.795L492.287 126.152L569.046 170.468Z" stroke="#0E3572" stroke-width="0.303418"/>
<path d="M385.265 167.796L385.266 176.171L462.288 220.638L462.287 211.978L389.762 170.35L385.265 167.796Z" fill="#E7EBF1"/>
<path d="M564.814 153.023L462.287 211.978L462.288 220.638L569.312 158.844L569.311 150.469L564.814 153.023Z" fill="#E7EBF1"/>
<path fill-rule="evenodd" clip-rule="evenodd" d="M385.265 167.796L389.762 170.35L462.287 211.978L564.814 153.023L569.311 150.469L492.289 106L385.265 167.796Z" fill="#0E3572"/>
<path fill-rule="evenodd" clip-rule="evenodd" d="M385.265 167.796L389.762 170.35L462.287 211.978L564.814 153.023L569.311 150.469L492.289 106L385.265 167.796Z" fill="white" fill-opacity="0.4"/>
<path d="M564.944 153.099L564.945 153.1L569.123 150.725L569.125 158.8L462.472 220.379L462.471 212.023L564.944 153.099ZM389.632 170.426L462.1 212.023L462.101 220.379L385.45 176.127L385.451 168.051L389.632 170.426ZM569.046 150.468L564.683 152.947L564.682 152.947L462.286 211.826L389.893 170.274L389.892 170.273L385.527 167.795L492.287 106.152L569.046 150.468Z" stroke="#0E3572" stroke-width="0.303418"/>
<path d="M385.265 147.796L385.266 156.171L462.288 200.638L462.287 191.978L389.762 150.35L385.265 147.796Z" fill="#E7EBF1"/>
<path d="M564.814 133.023L462.287 191.978L462.288 200.638L569.312 138.844L569.311 130.469L564.814 133.023Z" fill="#E7EBF1"/>
<path fill-rule="evenodd" clip-rule="evenodd" d="M385.265 147.796L389.762 150.35L462.287 191.978L564.814 133.023L569.311 130.469L492.289 86L385.265 147.796Z" fill="white"/>
<path d="M564.944 133.099L564.945 133.1L569.123 130.725L569.125 138.8L462.472 200.379L462.471 192.023L564.944 133.099ZM389.632 150.426L462.1 192.023L462.101 200.379L385.45 156.127L385.451 148.051L389.632 150.426ZM569.046 130.468L564.683 132.947L564.682 132.947L462.286 191.826L389.893 150.274L389.892 150.273L385.527 147.795L492.287 86.1521L569.046 130.468Z" stroke="#0E3572" stroke-width="0.303418"/>
<g opacity="0.1">
<g clip-path="url(#clip2_2008_603)">
<path d="M506.366 133.917C505.071 133.169 503.467 132.708 501.791 132.533L501.602 132.424L508.816 128.259L501.602 124.094L501.791 123.985C503.467 123.81 505.071 123.349 506.366 122.601C509.749 120.649 509.749 117.482 506.366 115.529C502.984 113.576 497.499 113.576 494.116 115.529C492.821 116.277 492.022 117.203 491.719 118.171L491.53 118.28L484.316 114.115L477.102 118.28L476.913 118.171C476.61 117.203 475.811 116.277 474.516 115.529C471.133 113.576 465.649 113.576 462.266 115.529C458.883 117.482 458.883 120.649 462.266 122.601C463.561 123.349 465.165 123.81 466.841 123.985L467.03 124.094L459.816 128.259L467.03 132.424L466.841 132.533C465.165 132.708 463.561 133.169 462.266 133.917C458.883 135.87 458.883 139.036 462.266 140.989C465.649 142.942 471.133 142.942 474.516 140.989C475.811 140.241 476.61 139.315 476.913 138.347L477.102 138.238L484.316 142.403L491.53 138.238L491.719 138.347C492.022 139.315 492.821 140.241 494.116 140.989C497.499 142.942 502.984 142.942 506.366 140.989C509.749 139.036 509.749 135.87 506.366 133.917Z" fill="#ED1C24" fill-opacity="0.4"/>
<path d="M481.734 148.137C480.438 147.39 478.834 146.928 477.158 146.753L476.97 146.644L484.184 142.48L476.97 138.315L477.158 138.206C478.834 138.031 480.438 137.57 481.734 136.822C485.116 134.869 485.116 131.703 481.734 129.75C478.351 127.797 472.866 127.797 469.483 129.75C468.188 130.498 467.389 131.424 467.086 132.391L466.897 132.5L459.683 128.336L452.469 132.5L452.281 132.392C451.977 131.424 451.179 130.498 449.883 129.75C446.5 127.797 441.016 127.797 437.633 129.75C434.25 131.703 434.25 134.869 437.633 136.822C438.928 137.57 440.532 138.031 442.208 138.206L442.397 138.315L435.183 142.48L442.397 146.644L442.208 146.753C440.532 146.928 438.928 147.39 437.633 148.137C434.25 150.09 434.25 153.257 437.633 155.209C441.016 157.162 446.5 157.162 449.883 155.209C451.179 154.462 451.977 153.536 452.281 152.568L452.469 152.459L459.683 156.624L466.897 152.459L467.086 152.568C467.389 153.536 468.188 154.462 469.483 155.209C472.866 157.162 478.351 157.162 481.734 155.209C485.116 153.257 485.116 150.09 481.734 148.137Z" fill="#0E3572"/>
</g>
</g>
<path d="M476.585 139.342C478.204 139.337 479.515 138.576 479.513 137.641C479.51 136.705 478.196 135.951 476.576 135.955C474.957 135.959 473.647 136.721 473.649 137.656C473.651 138.591 474.966 139.346 476.585 139.342Z" fill="#0E3572"/>
<path d="M476.581 137.69C477.127 137.689 477.644 137.809 478.015 138.024L478.025 138.031L478.036 138.036C478.207 138.124 478.346 138.263 478.438 138.432L478.518 138.581L478.394 138.776C478.321 138.876 478.234 138.963 478.134 139.033L478.027 139.099L478.018 139.104C477.645 139.317 477.126 139.44 476.581 139.441C476.036 139.442 475.518 139.321 475.147 139.106L475.13 139.096C474.985 139.019 474.86 138.91 474.765 138.776L474.646 138.588L474.729 138.432C474.819 138.263 474.957 138.124 475.127 138.035L475.136 138.031L475.144 138.026C475.516 137.813 476.036 137.691 476.581 137.69Z" stroke="#0E3572"/>
<mask id="path-78-inside-1_2008_603" fill="white">
<path fill-rule="evenodd" clip-rule="evenodd" d="M476.581 130.822C479.253 130.823 481.419 132.073 481.419 133.615C481.419 133.948 481.317 134.267 481.132 134.563C481.17 134.701 481.191 134.843 481.191 134.987C481.191 135.331 481.077 135.658 480.872 135.959C480.9 136.075 480.916 136.193 480.916 136.313C480.916 137.694 478.975 138.815 476.581 138.815C474.188 138.815 472.247 137.694 472.247 136.313C472.247 136.193 472.262 136.076 472.29 135.961C472.084 135.659 471.97 135.331 471.97 134.987C471.97 134.843 471.99 134.7 472.028 134.562C471.844 134.266 471.742 133.948 471.742 133.615C471.742 132.073 473.909 130.822 476.581 130.822Z"/>
</mask>
<path fill-rule="evenodd" clip-rule="evenodd" d="M476.581 130.822C479.253 130.823 481.419 132.073 481.419 133.615C481.419 133.948 481.317 134.267 481.132 134.563C481.17 134.701 481.191 134.843 481.191 134.987C481.191 135.331 481.077 135.658 480.872 135.959C480.9 136.075 480.916 136.193 480.916 136.313C480.916 137.694 478.975 138.815 476.581 138.815C474.188 138.815 472.247 137.694 472.247 136.313C472.247 136.193 472.262 136.076 472.29 135.961C472.084 135.659 471.97 135.331 471.97 134.987C471.97 134.843 471.99 134.7 472.028 134.562C471.844 134.266 471.742 133.948 471.742 133.615C471.742 132.073 473.909 130.822 476.581 130.822Z" fill="white"/>
<path d="M476.581 130.822L476.581 130.322H476.581V130.822ZM481.419 133.615L481.919 133.615V133.615H481.419ZM481.132 134.563L480.708 134.298L480.591 134.484L480.65 134.697L481.132 134.563ZM481.191 134.987L481.691 134.988V134.987H481.191ZM480.872 135.959L480.459 135.678L480.333 135.862L480.386 136.078L480.872 135.959ZM480.916 136.313L481.416 136.313V136.313H480.916ZM476.581 138.815L476.581 139.315H476.581V138.815ZM472.247 136.313H471.747L471.747 136.313L472.247 136.313ZM472.29 135.961L472.776 136.079L472.829 135.863L472.703 135.679L472.29 135.961ZM471.97 134.987H471.47V134.988L471.97 134.987ZM472.028 134.562L472.51 134.696L472.569 134.484L472.452 134.297L472.028 134.562ZM471.742 133.615H471.242V133.615L471.742 133.615ZM476.581 130.822L476.581 131.322C477.845 131.322 478.965 131.619 479.752 132.074C480.552 132.535 480.919 133.099 480.919 133.615H481.419H481.919C481.919 132.59 481.203 131.757 480.252 131.208C479.288 130.651 477.989 130.322 476.581 130.322L476.581 130.822ZM481.419 133.615L480.919 133.615C480.919 133.842 480.85 134.07 480.708 134.298L481.132 134.563L481.556 134.828C481.783 134.464 481.919 134.055 481.919 133.615L481.419 133.615ZM481.132 134.563L480.65 134.697C480.678 134.795 480.691 134.892 480.691 134.987H481.191H481.691C481.691 134.794 481.663 134.607 481.614 134.429L481.132 134.563ZM481.191 134.987L480.691 134.987C480.691 135.215 480.617 135.446 480.459 135.678L480.872 135.959L481.285 136.241C481.538 135.87 481.691 135.447 481.691 134.988L481.191 134.987ZM480.872 135.959L480.386 136.078C480.406 136.158 480.416 136.237 480.416 136.313H480.916H481.416C481.416 136.149 481.395 135.991 481.358 135.84L480.872 135.959ZM480.916 136.313L480.416 136.313C480.416 136.749 480.105 137.24 479.396 137.649C478.7 138.05 477.706 138.315 476.581 138.315V138.815V139.315C477.85 139.315 479.023 139.019 479.896 138.515C480.756 138.019 481.416 137.258 481.416 136.313L480.916 136.313ZM476.581 138.815L476.581 138.315C475.456 138.315 474.462 138.05 473.767 137.649C473.058 137.24 472.747 136.749 472.747 136.313L472.247 136.313L471.747 136.313C471.747 137.258 472.407 138.018 473.267 138.515C474.14 139.019 475.313 139.315 476.581 139.315L476.581 138.815ZM472.247 136.313H472.747C472.747 136.236 472.757 136.158 472.776 136.079L472.29 135.961L471.804 135.843C471.767 135.994 471.747 136.151 471.747 136.313H472.247ZM472.29 135.961L472.703 135.679C472.544 135.447 472.47 135.216 472.47 134.987L471.97 134.987L471.47 134.988C471.47 135.447 471.624 135.872 471.877 136.243L472.29 135.961ZM471.97 134.987H472.47C472.47 134.889 472.483 134.792 472.51 134.696L472.028 134.562L471.547 134.428C471.496 134.609 471.47 134.796 471.47 134.987H471.97ZM472.028 134.562L472.452 134.297C472.311 134.07 472.242 133.842 472.242 133.615L471.742 133.615L471.242 133.615C471.242 134.054 471.377 134.463 471.604 134.826L472.028 134.562ZM471.742 133.615H472.242C472.242 133.099 472.609 132.535 473.41 132.074C474.196 131.619 475.317 131.322 476.581 131.322V130.822V130.322C475.173 130.322 473.874 130.651 472.91 131.207C471.958 131.757 471.242 132.59 471.242 133.615H471.742Z" fill="#0E3572" fill-opacity="0.6" mask="url(#path-78-inside-1_2008_603)"/>
<path d="M476.581 127.632C477.874 127.632 479.154 127.918 480.119 128.475C481.085 129.032 481.513 129.727 481.513 130.371V132.134L481.508 132.255C481.459 132.864 481.028 133.508 480.123 134.032C479.159 134.588 477.88 134.874 476.586 134.874C475.292 134.874 474.011 134.588 473.045 134.032C472.078 133.475 471.65 132.779 471.65 132.135V130.373C471.65 129.728 472.077 129.032 473.042 128.475C474.007 127.918 475.287 127.632 476.581 127.632Z" fill="white" stroke="#0E3572" stroke-width="0.5"/>
<path d="M476.581 95.25C480.647 95.25 484.547 96.8652 487.423 99.7402C490.298 102.615 491.914 106.515 491.915 110.581C491.915 116.681 489.405 120.229 486.88 122.884C486.246 123.55 485.612 124.159 485.013 124.741C484.415 125.322 483.851 125.878 483.365 126.43C482.396 127.531 481.708 128.653 481.708 129.992C481.708 130.666 481.262 131.39 480.259 131.971C479.256 132.549 477.925 132.846 476.581 132.846C475.237 132.846 473.907 132.549 472.904 131.971C471.901 131.39 471.455 130.666 471.455 129.992C471.455 128.653 470.768 127.531 469.799 126.43C469.313 125.878 468.748 125.323 468.15 124.742C467.551 124.16 466.918 123.55 466.284 122.884C463.76 120.229 461.25 116.682 461.25 110.581C461.25 106.515 462.865 102.615 465.74 99.7402C468.615 96.8651 472.515 95.2501 476.581 95.25Z" fill="white" stroke="#0E3572" stroke-width="0.5"/>
<path opacity="0.25" d="M476.583 132.615C479.067 132.615 481.08 131.453 481.08 130.019C481.08 128.585 479.067 127.423 476.583 127.423C474.099 127.423 472.086 128.585 472.086 130.019C472.086 131.453 474.099 132.615 476.583 132.615Z" fill="#0E3572" fill-opacity="0.2"/>
<path opacity="0.25" d="M480.519 131.276C480.295 131.504 480.04 131.7 479.761 131.857C478.004 132.87 475.158 132.87 473.403 131.857C473.124 131.7 472.868 131.504 472.645 131.276C472.868 131.046 473.123 130.851 473.403 130.694C475.159 129.68 478.006 129.68 479.761 130.694C480.041 130.85 480.296 131.046 480.519 131.276Z" fill="#BA68C8"/>
<path opacity="0.25" d="M480.519 131.276C480.295 131.504 480.04 131.7 479.761 131.857C478.004 132.87 475.158 132.87 473.403 131.857C473.124 131.7 472.868 131.504 472.645 131.276C472.868 131.046 473.123 130.851 473.403 130.694C475.159 129.68 478.006 129.68 479.761 130.694C480.041 130.85 480.296 131.046 480.519 131.276Z" fill="#0E3572" fill-opacity="0.4"/>
<path d="M478.401 131.575H478.221C478.221 126.029 478.544 122.549 479.304 119.955C479.494 119.283 479.749 118.631 480.064 118.008C478.771 117.579 477.583 116.88 476.582 115.956C475.58 116.879 474.394 117.579 473.101 118.008C473.416 118.631 473.671 119.283 473.861 119.955C474.619 122.554 474.944 126.029 474.944 131.575H474.764C474.764 126.047 474.442 122.587 473.69 120.005C473.499 119.333 473.242 118.682 472.922 118.061C472.752 118.109 472.58 118.147 472.406 118.176C470.601 118.48 469.537 117.956 469.156 117.366C469.026 117.168 468.959 116.935 468.963 116.698C468.967 116.461 469.043 116.231 469.18 116.037C469.315 115.843 469.505 115.692 469.725 115.606C469.946 115.519 470.187 115.499 470.418 115.55C471.205 115.669 472.195 116.351 473.013 117.855C474.287 117.437 475.457 116.75 476.443 115.84C476.25 115.653 476.077 115.447 475.926 115.225C475.076 113.934 475.127 112.82 475.457 112.206C475.561 112.001 475.721 111.828 475.917 111.707C476.114 111.587 476.34 111.523 476.571 111.523C476.801 111.523 477.028 111.587 477.224 111.707C477.421 111.828 477.58 112.001 477.685 112.206C478.015 112.82 478.066 113.934 477.215 115.225C477.064 115.447 476.891 115.653 476.699 115.84C477.685 116.75 478.854 117.437 480.129 117.855C480.947 116.351 481.934 115.669 482.723 115.55C482.958 115.495 483.204 115.512 483.429 115.599C483.653 115.686 483.847 115.838 483.983 116.037C484.124 116.231 484.202 116.462 484.208 116.701C484.214 116.94 484.147 117.175 484.016 117.375C483.631 117.965 482.572 118.489 480.766 118.185C480.592 118.157 480.419 118.118 480.248 118.07C479.925 118.689 479.665 119.338 479.47 120.009C478.721 122.587 478.401 126.047 478.401 131.575ZM480.329 117.898C480.485 117.94 480.638 117.974 480.788 117.999C482.516 118.286 483.505 117.81 483.857 117.268C483.97 117.098 484.027 116.897 484.021 116.693C484.015 116.489 483.947 116.291 483.824 116.127C483.708 115.962 483.545 115.836 483.356 115.763C483.168 115.69 482.962 115.675 482.765 115.719C482.062 115.826 481.12 116.472 480.329 117.898ZM470.178 115.703C470.013 115.696 469.848 115.731 469.7 115.805C469.553 115.879 469.426 115.99 469.333 116.127C469.211 116.291 469.143 116.489 469.137 116.693C469.131 116.897 469.188 117.098 469.301 117.268C469.662 117.81 470.648 118.286 472.37 117.999C472.52 117.974 472.673 117.94 472.83 117.898C472.038 116.472 471.095 115.826 470.393 115.719C470.322 115.709 470.25 115.703 470.178 115.703ZM476.582 111.694C476.383 111.692 476.188 111.746 476.019 111.851C475.851 111.955 475.714 112.104 475.627 112.282C475.244 113.004 475.424 114.107 476.089 115.116C476.233 115.329 476.398 115.527 476.582 115.707C476.765 115.526 476.931 115.328 477.076 115.115C477.739 114.107 477.921 112.997 477.537 112.282C477.449 112.104 477.313 111.954 477.144 111.85C476.975 111.746 476.78 111.692 476.582 111.694Z" fill="#58595B"/>
<path d="M480.898 167.977C480.226 168.365 479.658 168.569 479.194 168.589C478.737 168.605 478.387 168.467 478.145 168.175C477.902 167.875 477.781 167.449 477.781 166.897L479.225 166.063C479.225 166.295 479.281 166.491 479.392 166.651C479.502 166.803 479.679 166.877 479.922 166.873C480.171 166.865 480.497 166.745 480.898 166.513C481.259 166.305 481.56 166.071 481.803 165.811C482.045 165.551 482.225 165.291 482.343 165.031C482.461 164.763 482.52 164.505 482.52 164.257C482.52 163.945 482.405 163.763 482.177 163.711C481.948 163.651 481.595 163.735 481.117 163.963L480.452 164.287C479.724 164.635 479.142 164.711 478.706 164.515C478.276 164.307 478.061 163.831 478.061 163.087C478.061 162.527 478.176 161.981 478.404 161.449C478.633 160.909 478.952 160.413 479.36 159.961C479.776 159.497 480.261 159.105 480.815 158.785C481.39 158.453 481.886 158.283 482.301 158.275C482.717 158.267 483.039 158.409 483.268 158.701C483.497 158.985 483.611 159.411 483.611 159.979L482.166 160.813C482.166 160.573 482.114 160.383 482.01 160.243C481.913 160.091 481.765 160.013 481.564 160.009C481.37 159.993 481.12 160.073 480.815 160.249C480.524 160.417 480.282 160.613 480.088 160.837C479.894 161.061 479.748 161.297 479.651 161.545C479.554 161.793 479.506 162.029 479.506 162.253C479.506 162.525 479.593 162.715 479.766 162.823C479.939 162.923 480.213 162.881 480.587 162.697L481.252 162.385C481.792 162.121 482.267 161.979 482.676 161.959C483.084 161.939 483.4 162.049 483.621 162.289C483.85 162.525 483.964 162.903 483.964 163.423C483.964 163.975 483.84 164.535 483.59 165.103C483.341 165.663 482.984 166.193 482.52 166.693C482.062 167.189 481.522 167.617 480.898 167.977ZM487.912 163.928C487.413 164.216 486.973 164.378 486.592 164.414C486.211 164.45 485.888 164.388 485.625 164.228C485.362 164.06 485.161 163.816 485.022 163.496C484.891 163.172 484.825 162.794 484.825 162.362V162.11C484.825 161.662 484.894 161.198 485.033 160.718C485.178 160.226 485.383 159.748 485.646 159.284C485.916 158.808 486.242 158.372 486.623 157.976C487.004 157.572 487.433 157.232 487.912 156.956C488.39 156.68 488.819 156.524 489.2 156.488C489.581 156.444 489.903 156.506 490.167 156.674C490.437 156.83 490.641 157.072 490.78 157.4C490.918 157.72 490.988 158.104 490.988 158.552V158.804C490.988 159.236 490.918 159.692 490.78 160.172C490.648 160.648 490.451 161.122 490.187 161.594C489.924 162.058 489.602 162.492 489.221 162.896C488.84 163.3 488.403 163.644 487.912 163.928ZM487.912 162.5C488.265 162.296 488.563 162.036 488.805 161.72C489.048 161.396 489.231 161.046 489.356 160.67C489.481 160.286 489.543 159.898 489.543 159.506C489.543 159.106 489.477 158.792 489.346 158.564C489.221 158.324 489.034 158.188 488.784 158.156C488.542 158.112 488.251 158.188 487.912 158.384C487.572 158.58 487.278 158.842 487.028 159.17C486.786 159.486 486.599 159.838 486.467 160.226C486.335 160.606 486.27 160.996 486.27 161.396C486.27 161.788 486.332 162.104 486.457 162.344C486.588 162.572 486.775 162.708 487.018 162.752C487.26 162.788 487.558 162.704 487.912 162.5ZM492.325 161.152V152.392L493.77 151.558V160.318L492.325 161.152ZM491.619 154.048V152.8L493.77 151.558V152.806L491.619 154.048ZM497.341 158.46C496.69 158.836 496.184 158.88 495.824 158.592C495.471 158.3 495.294 157.666 495.294 156.69V152.91L496.739 152.076V156C496.739 156.4 496.836 156.664 497.03 156.792C497.224 156.912 497.487 156.876 497.82 156.684C498.152 156.492 498.422 156.212 498.63 155.844C498.845 155.472 498.952 155.074 498.952 154.65V150.798L500.397 149.964V156.492L499.254 157.152V154.38L499.368 154.314C499.368 154.97 499.295 155.56 499.15 156.084C499.004 156.608 498.786 157.066 498.495 157.458C498.204 157.85 497.84 158.172 497.404 158.424L497.341 158.46ZM504.509 154.202C503.989 154.502 503.56 154.674 503.22 154.718C502.888 154.75 502.638 154.63 502.472 154.358C502.306 154.078 502.222 153.622 502.222 152.99L502.233 147.08L503.584 146.3L503.573 152.318C503.573 152.638 503.646 152.844 503.792 152.936C503.944 153.016 504.159 152.976 504.436 152.816L505.319 152.306V153.734L504.509 154.202ZM501.329 150.662V149.438L505.319 147.134V148.358L501.329 150.662ZM506.802 152.794V146.278L508.246 145.444V151.96L506.802 152.794ZM506.012 147.982V146.734L508.246 145.444V146.692L506.012 147.982ZM507.332 145.192C507.048 145.356 506.837 145.394 506.698 145.306C506.566 145.206 506.501 145.028 506.501 144.772C506.501 144.5 506.566 144.242 506.698 143.998C506.837 143.75 507.048 143.544 507.332 143.38C507.616 143.216 507.824 143.18 507.956 143.272C508.087 143.364 508.153 143.546 508.153 143.818C508.153 144.074 508.087 144.328 507.956 144.58C507.824 144.824 507.616 145.028 507.332 145.192ZM512.624 149.661C512.125 149.949 511.685 150.111 511.304 150.147C510.923 150.183 510.601 150.121 510.337 149.961C510.074 149.793 509.873 149.549 509.735 149.229C509.603 148.905 509.537 148.527 509.537 148.095V147.843C509.537 147.395 509.606 146.931 509.745 146.451C509.891 145.959 510.095 145.481 510.358 145.017C510.628 144.541 510.954 144.105 511.335 143.709C511.716 143.305 512.146 142.965 512.624 142.689C513.102 142.413 513.531 142.257 513.912 142.221C514.293 142.177 514.616 142.239 514.879 142.407C515.149 142.563 515.353 142.805 515.492 143.133C515.631 143.453 515.7 143.837 515.7 144.285V144.537C515.7 144.969 515.631 145.425 515.492 145.905C515.36 146.381 515.163 146.855 514.9 147.327C514.636 147.791 514.314 148.225 513.933 148.629C513.552 149.033 513.116 149.377 512.624 149.661ZM512.624 148.233C512.977 148.029 513.275 147.769 513.517 147.453C513.76 147.129 513.944 146.779 514.068 146.403C514.193 146.019 514.255 145.631 514.255 145.239C514.255 144.839 514.189 144.525 514.058 144.297C513.933 144.057 513.746 143.921 513.497 143.889C513.254 143.845 512.963 143.921 512.624 144.117C512.284 144.313 511.99 144.575 511.74 144.903C511.498 145.219 511.311 145.571 511.179 145.959C511.048 146.339 510.982 146.729 510.982 147.129C510.982 147.521 511.044 147.837 511.169 148.077C511.3 148.305 511.487 148.441 511.73 148.485C511.972 148.521 512.27 148.437 512.624 148.233ZM516.965 146.926V140.41L518.108 139.75V142.546L518.004 142.606C518.004 141.942 518.08 141.346 518.233 140.818C518.385 140.282 518.61 139.816 518.908 139.42C519.213 139.02 519.59 138.69 520.041 138.43L520.103 138.394C520.775 138.006 521.284 137.964 521.631 138.268C521.977 138.564 522.15 139.208 522.15 140.2V143.932L520.706 144.766V140.89C520.706 140.49 520.605 140.224 520.405 140.092C520.211 139.956 519.94 139.988 519.594 140.188C519.241 140.392 518.953 140.686 518.731 141.07C518.517 141.442 518.409 141.84 518.409 142.264V146.092L516.965 146.926ZM525.751 142.058C524.975 142.506 524.365 142.67 523.922 142.55C523.485 142.418 523.257 142.022 523.236 141.362L524.535 140.612C524.556 140.824 524.663 140.966 524.857 141.038C525.051 141.11 525.356 141.026 525.771 140.786C526.118 140.586 526.392 140.356 526.592 140.096C526.8 139.832 526.904 139.576 526.904 139.328C526.904 139.112 526.825 138.986 526.665 138.95C526.513 138.91 526.25 138.978 525.875 139.154L525.377 139.382C524.746 139.666 524.261 139.738 523.922 139.598C523.582 139.458 523.412 139.108 523.412 138.548C523.412 138.1 523.509 137.668 523.703 137.252C523.897 136.836 524.164 136.454 524.504 136.106C524.85 135.746 525.245 135.438 525.688 135.182C526.381 134.782 526.942 134.634 527.372 134.738C527.801 134.842 528.027 135.228 528.047 135.896L526.748 136.646C526.735 136.43 526.638 136.294 526.457 136.238C526.277 136.182 526.017 136.252 525.678 136.448C525.373 136.624 525.138 136.828 524.971 137.06C524.805 137.292 524.722 137.516 524.722 137.732C524.722 137.94 524.788 138.062 524.919 138.098C525.058 138.13 525.28 138.078 525.584 137.942L526.083 137.714C526.748 137.41 527.268 137.322 527.642 137.45C528.023 137.574 528.214 137.928 528.214 138.512C528.214 138.944 528.11 139.38 527.902 139.82C527.701 140.248 527.417 140.656 527.05 141.044C526.683 141.432 526.25 141.77 525.751 142.058Z" fill="#0E3572"/>
<path d="M753.265 99.7955L753.266 108.171L830.288 152.638L830.287 143.978L757.762 102.35L753.265 99.7955Z" fill="#0E3572" fill-opacity="0.1"/>
<path d="M932.814 85.0235L830.287 143.978L830.288 152.638L937.312 90.8442L937.311 82.4692L932.814 85.0235Z" fill="#0E3572" fill-opacity="0.1"/>
<path fill-rule="evenodd" clip-rule="evenodd" d="M753.265 99.7955L757.762 102.35L830.287 143.978L932.814 85.0235L937.311 82.4692L860.289 38L753.265 99.7955Z" fill="white"/>
<path d="M932.944 85.0993L932.945 85.0997L937.123 82.7254L937.125 90.8001L830.472 152.379L830.471 144.023L932.944 85.0993ZM757.632 102.426L830.1 144.023L830.101 152.379L753.45 108.127L753.451 100.051L757.632 102.426ZM937.046 82.4681L932.683 84.9469L932.682 84.9474L830.286 143.826L757.893 102.274L757.892 102.273L753.527 99.7946L860.287 38.1521L937.046 82.4681Z" stroke="#0E3572" stroke-width="0.303418"/>
<path d="M753.265 80.7955L753.266 89.1706L830.288 133.638L830.287 124.978L757.762 83.3496L753.265 80.7955Z" fill="#E7EBF1"/>
<path d="M932.814 66.0235L830.287 124.978L830.288 133.638L937.312 71.8442L937.311 63.4692L932.814 66.0235Z" fill="#E7EBF1"/>
<path fill-rule="evenodd" clip-rule="evenodd" d="M753.265 80.7955L757.762 83.3496L830.287 124.978L932.814 66.0235L937.311 63.4692L860.289 19L753.265 80.7955Z" fill="#0E3572"/>
<path d="M932.944 66.0993L932.945 66.0997L937.123 63.7254L937.125 71.8001L830.472 133.379L830.471 125.023L932.944 66.0993ZM757.632 83.4258L830.1 125.023L830.101 133.379L753.45 89.1266L753.451 81.0514L757.632 83.4258ZM937.046 63.4681L932.683 65.9469L932.682 65.9474L830.286 124.826L757.893 83.2739L757.892 83.2734L753.527 80.7946L860.287 19.1521L937.046 63.4681Z" stroke="#0E3572" stroke-width="0.303418"/>
<path d="M753.265 60.7955L753.266 69.1706L830.288 113.638L830.287 104.978L757.762 63.3496L753.265 60.7955Z" fill="#E7EBF1"/>
<path d="M932.814 46.0235L830.287 104.978L830.288 113.638L937.312 51.8442L937.311 43.4692L932.814 46.0235Z" fill="#E7EBF1"/>
<path fill-rule="evenodd" clip-rule="evenodd" d="M753.265 60.7955L757.762 63.3496L830.287 104.978L932.814 46.0235L937.311 43.4692L860.289 -0.999985L753.265 60.7955Z" fill="white"/>
<path d="M932.944 46.0993L932.945 46.0997L937.123 43.7254L937.125 51.8001L830.472 113.379L830.471 105.023L932.944 46.0993ZM757.632 63.4258L830.1 105.023L830.101 113.379L753.45 69.1266L753.451 61.0514L757.632 63.4258ZM937.046 43.4681L932.683 45.9469L932.682 45.9474L830.286 104.826L757.893 63.2739L757.892 63.2734L753.527 60.7946L860.287 -0.84788L937.046 43.4681Z" stroke="#0E3572" stroke-width="0.303418"/>
<g clip-path="url(#clip3_2008_603)">
<path d="M866.84 33.5835L876.654 28.981C876.763 28.9297 876.889 28.8914 877.024 28.8682C877.159 28.845 877.3 28.8373 877.44 28.8457C877.581 28.8541 877.716 28.8783 877.84 28.917C877.964 28.9557 878.074 29.0081 878.162 29.0712L907.398 49.8474C907.487 49.9105 907.553 49.983 907.593 50.061C907.634 50.1389 907.647 50.2206 907.632 50.3015C907.618 50.3824 907.576 50.4608 907.509 50.5323C907.442 50.6038 907.351 50.667 907.242 50.7183L871.253 67.596C871.144 67.6473 871.018 67.6856 870.883 67.7088C870.748 67.732 870.607 67.7397 870.467 67.7313C870.327 67.7229 870.191 67.6987 870.067 67.66C869.943 67.6213 869.834 67.5689 869.745 67.5058L869.109 67.0539" stroke="#3EAFD1" stroke-miterlimit="10" stroke-linecap="round" stroke-linejoin="round"/>
<path d="M875.629 47.3212L883.762 49.9144C883.885 49.9537 883.994 50.0066 884.082 50.0702C884.17 50.1337 884.235 50.2067 884.274 50.2848C884.313 50.3629 884.325 50.4447 884.309 50.5255C884.294 50.6063 884.25 50.6845 884.182 50.7556L861.765 74.187C861.697 74.2582 861.605 74.3209 861.495 74.3716C861.385 74.4223 861.259 74.46 861.123 74.4825C860.988 74.5051 860.846 74.512 860.706 74.5029C860.566 74.4938 860.431 74.4689 860.308 74.4296L819.72 61.4879C819.597 61.4486 819.488 61.3956 819.4 61.3321C819.312 61.2685 819.247 61.1956 819.208 61.1175C819.169 61.0394 819.157 60.9576 819.173 60.8768C819.188 60.796 819.232 60.7178 819.3 60.6466L828.156 51.3895" stroke="#3EAFD1" stroke-miterlimit="10" stroke-linecap="round" stroke-linejoin="round"/>
<path d="M859.309 56.7423L849.587 62.3547C849.386 62.4709 849.113 62.5361 848.829 62.5361C848.544 62.5361 848.272 62.4709 848.071 62.3547L815.284 43.4271C815.083 43.311 814.97 43.1535 814.97 42.9893C814.97 42.8251 815.083 42.6676 815.284 42.5515L828.545 34.8961M845.121 25.3265L848.071 23.6238C848.272 23.5077 848.545 23.4425 848.829 23.4425C849.113 23.4425 849.386 23.5077 849.587 23.6238L882.374 42.5514C882.575 42.6676 882.688 42.825 882.688 42.9892C882.688 43.1535 882.575 43.3109 882.374 43.427L863.323 54.4251M834.624 31.3867L840.99 27.7117M836.139 42.6838L848.3 35.6636M835.385 49.1691L859.534 35.2284M845.865 55.2192L870.014 41.2785M840.625 52.1942L848.312 47.7568M852.699 45.2238L864.774 38.2535M838.554 34.7394L834.538 37.0578C834.366 37.1573 834.132 37.2131 833.889 37.2131C833.645 37.2131 833.411 37.1573 833.239 37.0578L824.044 31.7494C823.872 31.65 823.775 31.5151 823.775 31.3744C823.775 31.2337 823.872 31.0988 824.044 30.9994L828.06 28.681C828.232 28.5815 828.466 28.5256 828.71 28.5256C828.953 28.5256 829.187 28.5815 829.359 28.681L838.554 33.9893C838.64 34.0385 838.707 34.097 838.754 34.1613C838.8 34.2257 838.823 34.2947 838.823 34.3643C838.824 34.434 838.8 34.5029 838.754 34.5673C838.707 34.6317 838.64 34.6901 838.554 34.7394Z" stroke="#3EAFD1" stroke-miterlimit="10" stroke-linecap="round" stroke-linejoin="round"/>
</g>
<path d="M774.634 59.2838L777.222 52.0178L779.633 53.4098L782.293 63.7058L780.776 62.8298L778.521 53.9318L779.051 54.5018L777.752 53.7518L778.292 53.7998L776.11 60.1358L774.634 59.2838ZM776.442 57.9998L776.91 56.8298L779.986 58.6058L780.443 60.3098L776.442 57.9998ZM783.306 66.6904V57.7744L784.449 58.4344V61.2424L784.272 61.1284C784.3 60.4804 784.418 59.9924 784.626 59.6644C784.84 59.3404 785.124 59.1724 785.478 59.1604C785.831 59.1404 786.226 59.2564 786.663 59.5084C787.064 59.7404 787.425 60.0324 787.743 60.3844C788.069 60.7404 788.346 61.1364 788.575 61.5724C788.81 62.0124 788.99 62.4724 789.115 62.9524C789.24 63.4244 789.302 63.8924 789.302 64.3564V64.6084C789.302 65.0804 789.24 65.4844 789.115 65.8204C788.997 66.1524 788.821 66.4064 788.585 66.5824C788.356 66.7544 788.079 66.8344 787.754 66.8224C787.428 66.8024 787.064 66.6764 786.663 66.4444C786.24 66.2004 785.852 65.8764 785.499 65.4724C785.152 65.0644 784.872 64.5864 784.657 64.0384C784.442 63.4824 784.321 62.8564 784.293 62.1604L784.75 63.2284V67.5244L783.306 66.6904ZM786.299 64.8304C786.611 65.0104 786.881 65.0784 787.109 65.0344C787.345 64.9944 787.529 64.8564 787.66 64.6204C787.792 64.3764 787.858 64.0544 787.858 63.6544C787.858 63.2384 787.792 62.8404 787.66 62.4604C787.529 62.0804 787.345 61.7384 787.109 61.4344C786.881 61.1264 786.611 60.8824 786.299 60.7024C786.015 60.5384 785.751 60.4584 785.509 60.4624C785.273 60.4704 785.079 60.5704 784.927 60.7624C784.782 60.9584 784.709 61.2524 784.709 61.6444V62.1244C784.709 62.5004 784.785 62.8644 784.937 63.2164C785.09 63.5684 785.287 63.8864 785.53 64.1704C785.772 64.4544 786.029 64.6744 786.299 64.8304ZM790.572 70.8857V61.9697L791.715 62.6297V65.4377L791.539 65.3237C791.567 64.6757 791.684 64.1877 791.892 63.8597C792.107 63.5357 792.391 63.3677 792.744 63.3557C793.098 63.3357 793.493 63.4517 793.929 63.7037C794.331 63.9357 794.691 64.2277 795.01 64.5797C795.335 64.9357 795.613 65.3317 795.841 65.7677C796.077 66.2077 796.257 66.6677 796.382 67.1477C796.506 67.6197 796.569 68.0877 796.569 68.5517V68.8037C796.569 69.2757 796.506 69.6797 796.382 70.0157C796.264 70.3477 796.087 70.6017 795.852 70.7777C795.623 70.9497 795.346 71.0297 795.02 71.0177C794.695 70.9977 794.331 70.8717 793.929 70.6397C793.506 70.3957 793.118 70.0717 792.765 69.6677C792.419 69.2597 792.138 68.7817 791.923 68.2337C791.709 67.6777 791.587 67.0517 791.56 66.3557L792.017 67.4237V71.7197L790.572 70.8857ZM793.565 69.0257C793.877 69.2057 794.147 69.2737 794.376 69.2297C794.611 69.1897 794.795 69.0517 794.927 68.8157C795.058 68.5717 795.124 68.2497 795.124 67.8497C795.124 67.4337 795.058 67.0357 794.927 66.6557C794.795 66.2757 794.611 65.9337 794.376 65.6297C794.147 65.3217 793.877 65.0777 793.565 64.8977C793.281 64.7337 793.018 64.6537 792.775 64.6577C792.54 64.6657 792.346 64.7657 792.194 64.9577C792.048 65.1537 791.975 65.4477 791.975 65.8397V66.3197C791.975 66.6957 792.051 67.0597 792.204 67.4117C792.356 67.7637 792.554 68.0817 792.796 68.3657C793.039 68.6497 793.295 68.8697 793.565 69.0257ZM797.839 72.681V66.165L798.982 66.825V69.585L798.951 69.567C798.951 68.631 799.124 68.023 799.47 67.743C799.817 67.463 800.326 67.517 800.998 67.905L801.206 68.025V69.477L800.811 69.249C800.326 68.969 799.948 68.903 799.678 69.051C799.415 69.195 799.283 69.551 799.283 70.119V73.515L797.839 72.681ZM804.844 76.9535C804.345 76.6655 803.905 76.3195 803.524 75.9155C803.143 75.5115 802.821 75.0775 802.558 74.6135C802.295 74.1415 802.094 73.6655 801.955 73.1855C801.823 72.7095 801.758 72.2555 801.758 71.8235V71.5715C801.758 71.1235 801.827 70.7395 801.965 70.4195C802.111 70.0955 802.315 69.8535 802.579 69.6935C802.849 69.5295 803.174 69.4695 803.555 69.5135C803.937 69.5495 804.366 69.7055 804.844 69.9815C805.322 70.2575 805.752 70.5975 806.133 71.0015C806.514 71.3975 806.836 71.8315 807.099 72.3035C807.369 72.7715 807.574 73.2495 807.712 73.7375C807.851 74.2175 807.92 74.6815 807.92 75.1295V75.3815C807.92 75.8135 807.851 76.1895 807.712 76.5095C807.581 76.8335 807.383 77.0795 807.12 77.2475C806.857 77.4075 806.535 77.4695 806.154 77.4335C805.773 77.3975 805.336 77.2375 804.844 76.9535ZM804.844 75.5255C805.197 75.7295 805.495 75.8135 805.738 75.7775C805.98 75.7335 806.164 75.5955 806.289 75.3635C806.413 75.1235 806.476 74.8075 806.476 74.4155C806.476 74.0155 806.41 73.6255 806.278 73.2455C806.154 72.8615 805.966 72.5095 805.717 72.1895C805.475 71.8655 805.184 71.6055 804.844 71.4095C804.505 71.2135 804.21 71.1355 803.961 71.1755C803.718 71.2115 803.531 71.3475 803.4 71.5835C803.268 71.8115 803.202 72.1255 803.202 72.5255C803.202 72.9175 803.264 73.3055 803.389 73.6895C803.521 74.0695 803.708 74.4215 803.95 74.7455C804.193 75.0615 804.491 75.3215 804.844 75.5255ZM811.69 80.9058C811.198 80.6218 810.772 80.2798 810.411 79.8798C810.058 79.4838 809.76 79.0558 809.518 78.5958C809.282 78.1398 809.105 77.6778 808.988 77.2098C808.87 76.7418 808.811 76.2998 808.811 75.8838V75.6558C808.811 75.2158 808.87 74.8298 808.988 74.4978C809.112 74.1618 809.296 73.9078 809.538 73.7358C809.781 73.5558 810.079 73.4758 810.432 73.4958C810.792 73.5118 811.208 73.6558 811.679 73.9278C812.171 74.2118 812.611 74.5778 812.999 75.0258C813.387 75.4658 813.695 75.9478 813.924 76.4718C814.16 76.9998 814.291 77.5318 814.319 78.0678L812.916 77.2578C812.881 76.9018 812.757 76.5498 812.542 76.2018C812.334 75.8578 812.046 75.5798 811.679 75.3678C811.361 75.1838 811.094 75.1178 810.879 75.1698C810.671 75.2258 810.515 75.3798 810.411 75.6318C810.307 75.8758 810.256 76.1978 810.256 76.5978C810.256 76.9818 810.304 77.3578 810.401 77.7258C810.505 78.0978 810.661 78.4318 810.869 78.7278C811.083 79.0278 811.357 79.2738 811.69 79.4658C811.939 79.6098 812.154 79.6818 812.334 79.6818C812.514 79.6818 812.656 79.6198 812.76 79.4958C812.871 79.3758 812.94 79.2078 812.968 78.9918L814.371 79.8018C814.343 80.3138 814.208 80.6998 813.966 80.9598C813.73 81.2158 813.415 81.3418 813.02 81.3378C812.632 81.3378 812.188 81.1938 811.69 80.9058ZM815.528 82.8939V74.1339L816.973 74.9679V80.0799L816.723 79.9359C816.723 79.2799 816.796 78.7659 816.941 78.3939C817.087 78.0219 817.302 77.7979 817.586 77.7219C817.877 77.6499 818.244 77.7419 818.687 77.9979L818.75 78.0339C819.394 78.4059 819.882 78.9439 820.215 79.6479C820.548 80.3519 820.714 81.1919 820.714 82.1679V85.8879L819.269 85.0539V81.1779C819.269 80.7619 819.165 80.3739 818.958 80.0139C818.757 79.6579 818.49 79.3839 818.157 79.1919C817.804 78.9879 817.516 78.9579 817.295 79.1019C817.08 79.2419 816.973 79.5279 816.973 79.9599V83.7279L815.528 82.8939ZM824.792 88.4705C824.307 88.1905 823.881 87.8485 823.514 87.4445C823.154 87.0445 822.852 86.6145 822.61 86.1545C822.374 85.6905 822.194 85.2225 822.069 84.7505C821.952 84.2825 821.893 83.8405 821.893 83.4245V83.1965C821.893 82.7645 821.952 82.3825 822.069 82.0505C822.194 81.7145 822.374 81.4585 822.61 81.2825C822.852 81.1025 823.15 81.0225 823.504 81.0425C823.857 81.0545 824.266 81.1945 824.73 81.4625C825.339 81.8145 825.849 82.2645 826.257 82.8125C826.673 83.3565 826.985 83.9405 827.193 84.5645C827.401 85.1805 827.505 85.7765 827.505 86.3525V86.9525L822.506 84.0665V83.0465L826.6 85.4105L826.154 85.6565C826.154 85.2405 826.102 84.8545 825.998 84.4985C825.894 84.1425 825.734 83.8225 825.52 83.5385C825.312 83.2585 825.048 83.0265 824.73 82.8425C824.411 82.6585 824.141 82.5865 823.919 82.6265C823.697 82.6665 823.528 82.8125 823.41 83.0645C823.299 83.3125 823.244 83.6565 823.244 84.0965C823.244 84.5045 823.299 84.9005 823.41 85.2845C823.521 85.6605 823.691 86.0065 823.919 86.3225C824.148 86.6305 824.439 86.8865 824.792 87.0905C825.145 87.2945 825.433 87.3805 825.655 87.3485C825.876 87.3085 826.018 87.1865 826.081 86.9825L827.411 87.7505C827.328 88.1505 827.169 88.4505 826.933 88.6505C826.697 88.8505 826.396 88.9365 826.029 88.9085C825.669 88.8845 825.256 88.7385 824.792 88.4705ZM830.759 91.8913C829.983 91.4433 829.373 90.9033 828.93 90.2712C828.493 89.6352 828.264 88.9752 828.244 88.2913L829.543 89.0413C829.563 89.2772 829.671 89.5432 829.865 89.8392C830.059 90.1352 830.364 90.4033 830.779 90.6433C831.126 90.8433 831.399 90.9293 831.6 90.9013C831.808 90.8773 831.912 90.7413 831.912 90.4933C831.912 90.2773 831.832 90.0592 831.673 89.8392C831.521 89.6232 831.257 89.3872 830.883 89.1312L830.384 88.7832C829.754 88.3392 829.269 87.8512 828.93 87.3192C828.59 86.7872 828.42 86.2412 828.42 85.6812C828.42 85.2332 828.517 84.9132 828.711 84.7212C828.905 84.5292 829.172 84.4552 829.511 84.4992C829.858 84.5392 830.253 84.6872 830.696 84.9432C831.389 85.3432 831.95 85.8432 832.38 86.4432C832.809 87.0432 833.034 87.6892 833.055 88.3812L831.756 87.6312C831.742 87.3992 831.645 87.1512 831.465 86.8872C831.285 86.6232 831.025 86.3932 830.686 86.1972C830.381 86.0212 830.145 85.9532 829.979 85.9932C829.813 86.0332 829.73 86.1612 829.73 86.3772C829.73 86.5852 829.796 86.7832 829.927 86.9712C830.066 87.1632 830.287 87.3672 830.592 87.5832L831.091 87.9312C831.756 88.3952 832.276 88.9072 832.65 89.4672C833.031 90.0312 833.222 90.6052 833.222 91.1892C833.222 91.6212 833.118 91.9373 832.91 92.1373C832.709 92.3333 832.425 92.4133 832.058 92.3773C831.69 92.3413 831.257 92.1793 830.759 91.8913Z" fill="#0E3572"/>
<path d="M1055.26 189.796L1055.27 198.171L1132.29 242.638L1132.29 233.978L1059.76 192.35L1055.26 189.796Z" fill="#0E3572" fill-opacity="0.1"/>
<path d="M1234.81 175.023L1132.29 233.978L1132.29 242.638L1239.31 180.844L1239.31 172.469L1234.81 175.023Z" fill="#0E3572" fill-opacity="0.1"/>
<path fill-rule="evenodd" clip-rule="evenodd" d="M1055.26 189.796L1059.76 192.35L1132.29 233.978L1234.81 175.023L1239.31 172.469L1162.29 128L1055.26 189.796Z" fill="white"/>
<path d="M1234.94 175.099L1234.94 175.1L1239.12 172.725L1239.13 180.8L1132.47 242.379L1132.47 234.023L1234.94 175.099ZM1059.63 192.426L1132.1 234.023L1132.1 242.379L1055.45 198.127L1055.45 190.051L1059.63 192.426ZM1239.05 172.468L1234.68 174.947L1234.68 174.947L1132.29 233.826L1059.89 192.274L1059.89 192.273L1055.53 189.795L1162.29 128.152L1239.05 172.468Z" stroke="#0E3572" stroke-width="0.303418"/>
<path d="M1055.26 170.796L1055.27 179.171L1132.29 223.638L1132.29 214.978L1059.76 173.35L1055.26 170.796Z" fill="#E7EBF1"/>
<path d="M1234.81 156.024L1132.29 214.978L1132.29 223.638L1239.31 161.844L1239.31 153.469L1234.81 156.024Z" fill="#E7EBF1"/>
<path fill-rule="evenodd" clip-rule="evenodd" d="M1055.26 170.796L1059.76 173.35L1132.29 214.978L1234.81 156.024L1239.31 153.469L1162.29 109L1055.26 170.796Z" fill="#ED1C24"/>
<path d="M1234.94 156.099L1234.94 156.1L1239.12 153.725L1239.13 161.8L1132.47 223.379L1132.47 215.023L1234.94 156.099ZM1059.63 173.426L1132.1 215.023L1132.1 223.379L1055.45 179.127L1055.45 171.051L1059.63 173.426ZM1239.05 153.468L1234.68 155.947L1234.68 155.947L1132.29 214.826L1059.89 173.274L1059.89 173.273L1055.53 170.795L1162.29 109.152L1239.05 153.468Z" stroke="#ED1C24" stroke-width="0.303418"/>
<path d="M1055.26 150.796L1055.27 159.171L1132.29 203.638L1132.29 194.978L1059.76 153.35L1055.26 150.796Z" fill="#E7EBF1"/>
<path d="M1234.81 136.024L1132.29 194.978L1132.29 203.638L1239.31 141.844L1239.31 133.469L1234.81 136.024Z" fill="#E7EBF1"/>
<path fill-rule="evenodd" clip-rule="evenodd" d="M1055.26 150.796L1059.76 153.35L1132.29 194.978L1234.81 136.024L1239.31 133.469L1162.29 89.0001L1055.26 150.796Z" fill="white"/>
<path d="M1234.94 136.099L1234.94 136.1L1239.12 133.725L1239.13 141.8L1132.47 203.379L1132.47 195.023L1234.94 136.099ZM1059.63 153.426L1132.1 195.023L1132.1 203.379L1055.45 159.127L1055.45 151.051L1059.63 153.426ZM1239.05 133.468L1234.68 135.947L1234.68 135.947L1132.29 194.826L1059.89 153.274L1059.89 153.273L1055.53 150.795L1162.29 89.1522L1239.05 133.468Z" stroke="#0E3572" stroke-width="0.303418"/>
<g clip-path="url(#clip4_2008_603)">
<path d="M1102 160.588C1103.6 159.665 1103.6 158.169 1102 157.247C1100.41 156.324 1097.81 156.324 1096.22 157.247C1094.62 158.169 1094.62 159.665 1096.22 160.588C1097.81 161.511 1100.41 161.511 1102 160.588Z" stroke="#ED1C24" stroke-opacity="0.4" stroke-width="1.5" stroke-miterlimit="10" stroke-linecap="round" stroke-linejoin="round"/>
<path d="M1116.86 152.012C1118.46 151.089 1118.46 149.593 1116.86 148.67C1115.26 147.747 1112.67 147.747 1111.07 148.67C1109.47 149.593 1109.47 151.089 1111.07 152.012C1112.67 152.934 1115.26 152.934 1116.86 152.012Z" stroke="#ED1C24" stroke-opacity="0.4" stroke-width="1.5" stroke-miterlimit="10" stroke-linecap="round" stroke-linejoin="round"/>
<path d="M1131.72 143.435C1133.31 142.512 1133.31 141.016 1131.72 140.094C1130.12 139.171 1127.53 139.171 1125.93 140.094C1124.33 141.016 1124.33 142.512 1125.93 143.435C1127.53 144.358 1130.12 144.358 1131.72 143.435Z" stroke="#ED1C24" stroke-opacity="0.4" stroke-width="1.5" stroke-miterlimit="10" stroke-linecap="round" stroke-linejoin="round"/>
<path d="M1092.16 162.927L1096.22 160.588M1131.72 140.094L1139.63 135.527M1139.63 135.527L1134.17 135.527M1139.63 135.527L1139.63 138.677M1116.86 148.67L1125.93 143.435M1102 157.247L1111.07 152.012M1080.39 152.569L1088.11 148.113M1087.52 152.021L1083.48 154.351M1082.05 148.048L1087.15 145.106C1087.68 144.798 1088.54 144.798 1089.08 145.106L1096.41 149.338C1096.94 149.646 1096.94 150.145 1096.41 150.453L1092.92 152.467L1093.43 154.546C1093.56 155.065 1092.79 155.511 1091.89 155.438L1088.29 155.14L1084.45 157.358C1083.91 157.666 1083.05 157.665 1082.52 157.358L1075.19 153.125C1074.65 152.818 1074.65 152.319 1075.19 152.012L1078.71 149.977M1110.11 135.416L1117.82 130.96M1117.23 134.868L1113.19 137.198M1123.68 130.775L1126.12 132.186C1126.65 132.493 1126.65 132.992 1126.12 133.3L1122.63 135.314L1123.15 137.393C1123.27 137.913 1122.5 138.359 1121.6 138.285L1118 137.988L1114.16 140.205C1113.63 140.513 1112.76 140.513 1112.23 140.205L1104.9 135.972C1104.36 135.665 1104.36 135.166 1104.9 134.859L1116.86 127.953C1117.39 127.645 1118.26 127.645 1118.79 127.953L1120.33 128.845M1121.88 159.363L1129.59 154.908M1129 158.816L1124.96 161.145M1135.77 158.472L1137.89 157.246C1138.42 156.939 1138.42 156.44 1137.89 156.133L1130.56 151.9C1130.03 151.593 1129.16 151.592 1128.63 151.9L1124.79 154.118L1121.18 153.821C1120.29 153.747 1119.51 154.193 1119.64 154.712L1120.16 156.791L1116.67 158.806C1116.13 159.113 1116.13 159.612 1116.67 159.92L1124 164.152C1124.53 164.46 1125.4 164.46 1125.93 164.152L1132.42 160.402" stroke="#ED1C24" stroke-opacity="0.4" stroke-width="1.5" stroke-miterlimit="10" stroke-linecap="round" stroke-linejoin="round"/>
</g>
<path d="M1143.13 175.846V167.086L1144.58 166.252V175.012L1143.13 175.846ZM1144.37 175.132V173.692L1147.81 171.706V173.146L1144.37 175.132ZM1144.37 171.4V169.96L1147.54 168.13V169.57L1144.37 171.4ZM1144.37 167.812V166.372L1147.73 164.434V165.874L1144.37 167.812ZM1148.57 172.71L1150.4 168.168L1150.37 168.462L1148.64 166.152L1150.21 165.246L1151.34 166.884L1151.5 166.794L1152.57 163.884L1154.04 163.032L1152.4 167.28L1152.43 167.022L1154.37 169.356L1152.81 170.262L1151.46 168.576L1151.31 168.666L1150.04 171.858L1148.57 172.71ZM1155.31 171.216V162.3L1156.45 161.64V164.448L1156.28 164.538C1156.3 163.858 1156.42 163.234 1156.63 162.666C1156.84 162.094 1157.13 161.598 1157.48 161.178C1157.83 160.75 1158.23 160.41 1158.67 160.158C1159.07 159.926 1159.43 159.802 1159.75 159.786C1160.07 159.766 1160.35 159.842 1160.58 160.014C1160.81 160.182 1160.99 160.434 1161.12 160.77C1161.24 161.098 1161.31 161.494 1161.31 161.958V162.21C1161.31 162.682 1161.24 163.158 1161.12 163.638C1161 164.106 1160.82 164.564 1160.59 165.012C1160.36 165.448 1160.08 165.848 1159.76 166.212C1159.43 166.568 1159.07 166.862 1158.67 167.094C1158.24 167.338 1157.86 167.462 1157.5 167.466C1157.16 167.458 1156.87 167.304 1156.66 167.004C1156.45 166.696 1156.32 166.21 1156.3 165.546L1156.75 166.086V170.382L1155.31 171.216ZM1158.3 165.9C1158.61 165.72 1158.88 165.476 1159.11 165.168C1159.35 164.856 1159.53 164.506 1159.66 164.118C1159.8 163.722 1159.86 163.324 1159.86 162.924C1159.86 162.508 1159.8 162.186 1159.66 161.958C1159.53 161.73 1159.35 161.6 1159.11 161.568C1158.88 161.524 1158.61 161.592 1158.3 161.772C1158.02 161.936 1157.75 162.16 1157.51 162.444C1157.28 162.724 1157.08 163.048 1156.93 163.416C1156.78 163.78 1156.71 164.158 1156.71 164.55V165.03C1156.71 165.406 1156.79 165.682 1156.94 165.858C1157.09 166.034 1157.29 166.124 1157.53 166.128C1157.78 166.132 1158.03 166.056 1158.3 165.9ZM1165.1 163.391C1164.62 163.671 1164.19 163.821 1163.82 163.841C1163.46 163.857 1163.16 163.775 1162.92 163.595C1162.68 163.403 1162.5 163.143 1162.38 162.815C1162.26 162.483 1162.2 162.109 1162.2 161.693V161.465C1162.2 161.033 1162.26 160.583 1162.38 160.115C1162.5 159.635 1162.68 159.171 1162.92 158.723C1163.16 158.263 1163.46 157.839 1163.81 157.451C1164.17 157.055 1164.57 156.723 1165.04 156.455C1165.65 156.103 1166.16 155.965 1166.57 156.041C1166.98 156.105 1167.29 156.329 1167.5 156.713C1167.71 157.089 1167.81 157.565 1167.81 158.141V158.741L1162.81 161.627V160.607L1166.91 158.243L1166.46 159.005C1166.46 158.589 1166.41 158.263 1166.31 158.027C1166.2 157.791 1166.04 157.655 1165.83 157.619C1165.62 157.579 1165.36 157.651 1165.04 157.835C1164.72 158.019 1164.45 158.259 1164.23 158.555C1164.01 158.851 1163.84 159.193 1163.72 159.581C1163.61 159.957 1163.55 160.365 1163.55 160.805C1163.55 161.213 1163.61 161.545 1163.72 161.801C1163.83 162.049 1164 162.199 1164.23 162.251C1164.46 162.295 1164.75 162.215 1165.1 162.011C1165.45 161.807 1165.74 161.561 1165.96 161.273C1166.19 160.977 1166.33 160.691 1166.39 160.415L1167.72 159.647C1167.64 160.143 1167.48 160.627 1167.24 161.099C1167.01 161.571 1166.7 162.005 1166.34 162.401C1165.98 162.793 1165.57 163.123 1165.1 163.391ZM1171.52 159.682C1171.03 159.966 1170.61 160.116 1170.25 160.132C1169.89 160.144 1169.59 160.06 1169.35 159.88C1169.12 159.696 1168.94 159.438 1168.82 159.106C1168.7 158.774 1168.65 158.4 1168.65 157.984V157.756C1168.65 157.316 1168.7 156.862 1168.82 156.394C1168.95 155.914 1169.13 155.448 1169.37 154.996C1169.62 154.536 1169.91 154.112 1170.27 153.724C1170.63 153.324 1171.04 152.988 1171.51 152.716C1172.01 152.432 1172.45 152.29 1172.83 152.29C1173.22 152.282 1173.53 152.408 1173.76 152.668C1173.99 152.924 1174.13 153.304 1174.15 153.808L1172.75 154.618C1172.72 154.302 1172.59 154.094 1172.38 153.994C1172.17 153.89 1171.88 153.944 1171.51 154.156C1171.2 154.34 1170.93 154.582 1170.71 154.882C1170.51 155.178 1170.35 155.512 1170.25 155.884C1170.14 156.248 1170.09 156.63 1170.09 157.03C1170.09 157.414 1170.14 157.734 1170.24 157.99C1170.34 158.242 1170.5 158.396 1170.7 158.452C1170.92 158.504 1171.19 158.434 1171.52 158.242C1171.77 158.098 1171.99 157.922 1172.17 157.714C1172.35 157.506 1172.49 157.28 1172.59 157.036C1172.71 156.788 1172.78 156.54 1172.8 156.292L1174.21 155.482C1174.18 156.026 1174.04 156.568 1173.8 157.108C1173.56 157.636 1173.25 158.126 1172.85 158.578C1172.47 159.026 1172.02 159.394 1171.52 159.682ZM1177.82 155.906C1177.3 156.206 1176.87 156.378 1176.53 156.422C1176.19 156.454 1175.94 156.334 1175.78 156.062C1175.61 155.782 1175.53 155.326 1175.53 154.694L1175.54 148.784L1176.89 148.004L1176.88 154.022C1176.88 154.342 1176.95 154.548 1177.1 154.64C1177.25 154.72 1177.47 154.68 1177.74 154.52L1178.63 154.01V155.438L1177.82 155.906ZM1174.64 152.366V151.142L1178.63 148.838V150.062L1174.64 152.366ZM1183.24 152.692V150.76L1183 150.898V148.75C1183 148.374 1182.92 148.14 1182.76 148.048C1182.6 147.956 1182.35 148.006 1182.02 148.198C1181.85 148.298 1181.64 148.422 1181.4 148.57C1181.16 148.718 1180.91 148.872 1180.66 149.032C1180.42 149.18 1180.2 149.318 1180.01 149.446V148.03C1180.16 147.922 1180.34 147.802 1180.55 147.67C1180.75 147.538 1180.95 147.412 1181.16 147.292C1181.37 147.16 1181.57 147.04 1181.76 146.932C1182.34 146.596 1182.83 146.406 1183.21 146.362C1183.59 146.314 1183.89 146.422 1184.08 146.686C1184.28 146.946 1184.38 147.38 1184.38 147.988V152.032L1183.24 152.692ZM1181.42 153.91C1181.01 154.146 1180.65 154.27 1180.34 154.282C1180.03 154.29 1179.79 154.188 1179.62 153.976C1179.45 153.76 1179.37 153.432 1179.37 152.992C1179.37 152.512 1179.47 152.062 1179.67 151.642C1179.88 151.218 1180.17 150.824 1180.54 150.46C1180.91 150.092 1181.35 149.764 1181.84 149.476L1183.15 148.72V149.716L1181.82 150.484C1181.49 150.676 1181.24 150.92 1181.05 151.216C1180.88 151.5 1180.8 151.79 1180.8 152.086C1180.8 152.382 1180.88 152.572 1181.05 152.656C1181.24 152.736 1181.49 152.68 1181.82 152.488C1182.02 152.372 1182.21 152.226 1182.37 152.05C1182.55 151.862 1182.69 151.636 1182.8 151.372C1182.92 151.096 1182.98 150.778 1183 150.418L1183.35 150.682C1183.32 151.158 1183.22 151.598 1183.06 152.002C1182.91 152.402 1182.69 152.766 1182.42 153.094C1182.15 153.41 1181.81 153.682 1181.42 153.91ZM1188.38 149.806C1187.86 150.106 1187.43 150.278 1187.09 150.322C1186.76 150.354 1186.51 150.234 1186.34 149.962C1186.18 149.682 1186.09 149.226 1186.09 148.594L1186.1 142.684L1187.46 141.904L1187.45 147.922C1187.45 148.242 1187.52 148.448 1187.66 148.54C1187.82 148.62 1188.03 148.58 1188.31 148.42L1189.19 147.91V149.338L1188.38 149.806ZM1185.2 146.266V145.042L1189.19 142.738V143.962L1185.2 146.266ZM1190.67 148.398V141.882L1192.12 141.048V147.564L1190.67 148.398ZM1189.88 143.586V142.338L1192.12 141.048V142.296L1189.88 143.586ZM1191.2 140.796C1190.92 140.96 1190.71 140.998 1190.57 140.91C1190.44 140.81 1190.37 140.632 1190.37 140.376C1190.37 140.104 1190.44 139.846 1190.57 139.602C1190.71 139.354 1190.92 139.148 1191.2 138.984C1191.49 138.82 1191.7 138.784 1191.83 138.876C1191.96 138.968 1192.02 139.15 1192.02 139.422C1192.02 139.678 1191.96 139.932 1191.83 140.184C1191.7 140.428 1191.49 140.632 1191.2 140.796ZM1196.5 145.265C1196 145.553 1195.56 145.715 1195.18 145.751C1194.79 145.787 1194.47 145.725 1194.21 145.565C1193.95 145.397 1193.74 145.153 1193.61 144.833C1193.47 144.509 1193.41 144.131 1193.41 143.699V143.447C1193.41 142.999 1193.48 142.535 1193.62 142.055C1193.76 141.563 1193.97 141.085 1194.23 140.621C1194.5 140.145 1194.83 139.709 1195.21 139.313C1195.59 138.909 1196.02 138.569 1196.5 138.293C1196.97 138.017 1197.4 137.861 1197.78 137.825C1198.16 137.781 1198.49 137.843 1198.75 138.011C1199.02 138.167 1199.22 138.409 1199.36 138.737C1199.5 139.057 1199.57 139.441 1199.57 139.889V140.141C1199.57 140.573 1199.5 141.029 1199.36 141.509C1199.23 141.985 1199.03 142.459 1198.77 142.931C1198.51 143.395 1198.19 143.829 1197.8 144.233C1197.42 144.637 1196.99 144.981 1196.5 145.265ZM1196.5 143.837C1196.85 143.633 1197.15 143.373 1197.39 143.057C1197.63 142.733 1197.82 142.383 1197.94 142.007C1198.06 141.623 1198.13 141.235 1198.13 140.843C1198.13 140.443 1198.06 140.129 1197.93 139.901C1197.8 139.661 1197.62 139.525 1197.37 139.493C1197.13 139.449 1196.83 139.525 1196.5 139.721C1196.16 139.917 1195.86 140.179 1195.61 140.507C1195.37 140.823 1195.18 141.175 1195.05 141.563C1194.92 141.943 1194.85 142.333 1194.85 142.733C1194.85 143.125 1194.92 143.441 1195.04 143.681C1195.17 143.909 1195.36 144.045 1195.6 144.089C1195.84 144.125 1196.14 144.041 1196.5 143.837ZM1200.84 142.531V136.015L1201.98 135.355V138.151L1201.88 138.211C1201.88 137.547 1201.95 136.951 1202.1 136.423C1202.26 135.887 1202.48 135.421 1202.78 135.025C1203.08 134.625 1203.46 134.295 1203.91 134.035L1203.97 133.999C1204.65 133.611 1205.16 133.569 1205.5 133.873C1205.85 134.169 1206.02 134.813 1206.02 135.805V139.537L1204.58 140.371V136.495C1204.58 136.095 1204.48 135.829 1204.28 135.697C1204.08 135.561 1203.81 135.593 1203.47 135.793C1203.11 135.997 1202.82 136.291 1202.6 136.675C1202.39 137.047 1202.28 137.445 1202.28 137.869V141.697L1200.84 142.531Z" fill="#ED1C24"/>
<g clip-path="url(#clip5_2008_603)">
<path d="M1196.95 118.267C1196.95 118.165 1196.92 118.065 1196.87 117.977C1196.82 117.889 1196.75 117.816 1196.66 117.765L1181.56 109.05V85.2678C1181.56 85.1659 1181.54 85.0659 1181.49 84.9777C1181.43 84.8895 1181.36 84.8163 1181.27 84.7655C1181.25 84.7498 1181.22 84.7411 1181.19 84.7307L1178.32 83.0777C1178.24 83.0267 1178.14 82.9998 1178.03 82.9998C1177.93 82.9998 1177.83 83.0267 1177.74 83.0777L1145.37 101.766C1145.36 101.772 1145.35 101.775 1145.34 101.78C1145.25 101.831 1145.18 101.905 1145.13 101.993C1145.08 102.081 1145.05 102.181 1145.05 102.283V129.687C1145.05 129.892 1145.16 130.083 1145.34 130.187L1163.67 140.92L1163.67 140.921L1163.67 140.922C1163.7 140.938 1163.74 140.949 1163.77 140.96C1163.78 140.966 1163.8 140.974 1163.81 140.979C1163.91 141.004 1164.02 141.004 1164.11 140.979C1164.16 140.966 1164.21 140.947 1164.25 140.921L1196.66 122.21C1196.75 122.159 1196.82 122.086 1196.87 121.998C1196.92 121.91 1196.95 121.81 1196.95 121.709V118.345C1196.95 118.332 1196.94 118.319 1196.94 118.306C1196.95 118.294 1196.95 118.281 1196.95 118.267ZM1149.16 104.312L1180.4 86.2723V109.03L1149.16 127.07L1149.16 104.312ZM1163.97 136.385L1149.76 128.072L1180.98 110.051L1195.21 118.268L1163.97 136.385ZM1178.03 84.2499L1179.79 85.2614L1148.55 103.298L1146.79 102.286L1178.03 84.2499ZM1146.21 103.294L1147.98 104.318L1147.98 128.042C1147.98 128.099 1147.99 128.154 1148.01 128.208C1148.02 128.287 1148.06 128.362 1148.1 128.428C1148.15 128.494 1148.21 128.55 1148.28 128.591L1163.39 137.389V139.408L1146.21 129.355V103.294ZM1195.79 121.376L1164.54 139.415V137.392L1195.79 119.353V121.376Z" fill="#ED1C24" fill-opacity="0.4"/>
<path d="M1159.44 126.967C1159.44 126.866 1159.41 126.766 1159.36 126.677C1159.31 126.589 1159.23 126.516 1159.15 126.465L1157.44 125.483C1157.36 125.432 1157.26 125.405 1157.15 125.405C1157.05 125.405 1156.95 125.432 1156.86 125.483L1153.57 127.385C1153.48 127.436 1153.41 127.509 1153.36 127.597C1153.3 127.685 1153.28 127.785 1153.28 127.887C1153.28 127.989 1153.3 128.089 1153.36 128.177C1153.41 128.265 1153.48 128.338 1153.57 128.389L1155.27 129.371C1155.36 129.422 1155.46 129.448 1155.56 129.448C1155.66 129.448 1155.76 129.422 1155.85 129.371L1159.15 127.47C1159.23 127.419 1159.31 127.346 1159.36 127.257C1159.41 127.169 1159.44 127.069 1159.44 126.967ZM1155.56 128.199L1155.02 127.887L1157.15 126.654L1157.7 126.967L1155.56 128.199ZM1159.44 125.001L1161.14 125.984C1161.23 126.035 1161.33 126.061 1161.43 126.061C1161.53 126.061 1161.63 126.035 1161.72 125.984L1165.02 124.081C1165.1 124.03 1165.18 123.957 1165.23 123.869C1165.28 123.781 1165.31 123.681 1165.31 123.579C1165.31 123.477 1165.28 123.377 1165.23 123.289C1165.18 123.201 1165.1 123.128 1165.02 123.077L1163.31 122.094C1163.22 122.043 1163.12 122.016 1163.02 122.016C1162.92 122.016 1162.82 122.043 1162.73 122.094L1159.44 123.997C1159.35 124.047 1159.27 124.121 1159.22 124.209C1159.17 124.297 1159.15 124.397 1159.15 124.499C1159.15 124.601 1159.17 124.701 1159.22 124.789C1159.27 124.877 1159.35 124.95 1159.44 125.001ZM1163.02 123.265L1163.57 123.579L1161.43 124.812L1160.89 124.498L1163.02 123.265ZM1165.31 121.613L1167.01 122.595C1167.09 122.646 1167.19 122.673 1167.3 122.673C1167.4 122.673 1167.5 122.646 1167.59 122.595L1170.88 120.693C1170.97 120.642 1171.04 120.569 1171.1 120.481C1171.15 120.393 1171.17 120.293 1171.17 120.191C1171.17 120.089 1171.15 119.989 1171.1 119.901C1171.04 119.813 1170.97 119.739 1170.88 119.688L1169.18 118.707C1169.09 118.656 1168.99 118.629 1168.89 118.629C1168.79 118.629 1168.69 118.656 1168.6 118.707L1165.31 120.609C1165.22 120.66 1165.14 120.733 1165.09 120.821C1165.04 120.909 1165.02 121.009 1165.02 121.111C1165.02 121.213 1165.04 121.313 1165.09 121.401C1165.14 121.489 1165.22 121.563 1165.31 121.613ZM1168.89 119.878L1169.43 120.191L1167.3 121.424L1166.75 121.111L1168.89 119.878ZM1171.17 118.225L1172.88 119.208C1172.96 119.259 1173.06 119.287 1173.17 119.287C1173.27 119.287 1173.37 119.259 1173.46 119.208L1176.75 117.306C1176.84 117.255 1176.91 117.181 1176.96 117.093C1177.01 117.005 1177.04 116.905 1177.04 116.804C1177.04 116.702 1177.01 116.602 1176.96 116.514C1176.91 116.426 1176.84 116.352 1176.75 116.301L1175.05 115.318C1174.96 115.267 1174.86 115.241 1174.76 115.241C1174.66 115.241 1174.56 115.267 1174.47 115.318L1171.17 117.221C1171.09 117.271 1171.01 117.345 1170.96 117.433C1170.91 117.521 1170.88 117.621 1170.88 117.723C1170.88 117.824 1170.91 117.924 1170.96 118.012C1171.01 118.1 1171.09 118.174 1171.17 118.225ZM1174.76 116.49L1175.3 116.804L1173.16 118.036L1172.62 117.723L1174.76 116.49ZM1180.34 111.931L1177.04 113.833C1176.95 113.884 1176.88 113.957 1176.83 114.046C1176.78 114.134 1176.75 114.234 1176.75 114.335C1176.75 114.437 1176.78 114.537 1176.83 114.625C1176.88 114.713 1176.95 114.786 1177.04 114.837L1178.74 115.819C1178.83 115.87 1178.93 115.897 1179.03 115.897C1179.13 115.897 1179.23 115.87 1179.32 115.819L1182.62 113.917C1182.71 113.866 1182.78 113.793 1182.83 113.705C1182.88 113.617 1182.91 113.517 1182.91 113.415C1182.91 113.313 1182.88 113.213 1182.83 113.125C1182.78 113.037 1182.71 112.964 1182.62 112.913L1180.92 111.931C1180.83 111.88 1180.73 111.853 1180.63 111.853C1180.52 111.853 1180.42 111.88 1180.34 111.931ZM1179.03 114.648L1178.49 114.336L1180.63 113.102L1181.17 113.415L1179.03 114.648ZM1163.81 129.493C1163.81 129.392 1163.79 129.291 1163.73 129.203C1163.68 129.115 1163.61 129.042 1163.52 128.991L1161.82 128.009C1161.73 127.958 1161.63 127.932 1161.53 127.932C1161.43 127.932 1161.33 127.958 1161.24 128.009L1157.95 129.912C1157.86 129.962 1157.78 130.036 1157.73 130.124C1157.68 130.212 1157.66 130.312 1157.66 130.414C1157.66 130.516 1157.68 130.616 1157.73 130.704C1157.78 130.792 1157.86 130.865 1157.95 130.916L1159.65 131.897C1159.74 131.949 1159.84 131.976 1159.94 131.976C1160.04 131.976 1160.14 131.949 1160.23 131.897L1163.52 129.996C1163.7 129.893 1163.81 129.702 1163.81 129.493ZM1159.94 130.726L1159.4 130.414L1161.53 129.181L1162.07 129.493L1159.94 130.726ZM1169.39 125.603L1167.69 124.621C1167.6 124.57 1167.5 124.543 1167.4 124.543C1167.3 124.543 1167.2 124.57 1167.11 124.621L1163.81 126.523C1163.73 126.574 1163.65 126.647 1163.6 126.735C1163.55 126.823 1163.52 126.923 1163.52 127.025C1163.52 127.127 1163.55 127.227 1163.6 127.315C1163.65 127.403 1163.73 127.477 1163.81 127.527L1165.52 128.509C1165.6 128.56 1165.7 128.587 1165.81 128.587C1165.91 128.587 1166.01 128.56 1166.1 128.509L1169.39 126.607C1169.48 126.556 1169.55 126.483 1169.6 126.395C1169.65 126.307 1169.68 126.207 1169.68 126.105C1169.68 126.003 1169.65 125.903 1169.6 125.815C1169.55 125.727 1169.48 125.654 1169.39 125.603ZM1165.81 127.338L1165.26 127.025L1167.4 125.792L1167.94 126.105L1165.81 127.338ZM1171.38 125.123C1171.47 125.174 1171.57 125.201 1171.67 125.201C1171.77 125.201 1171.87 125.174 1171.96 125.123L1175.26 123.221C1175.35 123.17 1175.42 123.097 1175.47 123.009C1175.52 122.921 1175.55 122.821 1175.55 122.719C1175.55 122.617 1175.52 122.517 1175.47 122.428C1175.42 122.34 1175.35 122.267 1175.26 122.217L1173.56 121.234C1173.47 121.183 1173.37 121.156 1173.27 121.156C1173.17 121.156 1173.07 121.183 1172.98 121.234L1169.68 123.136C1169.59 123.187 1169.52 123.26 1169.47 123.348C1169.42 123.436 1169.39 123.536 1169.39 123.638C1169.39 123.74 1169.42 123.84 1169.47 123.928C1169.52 124.016 1169.59 124.089 1169.68 124.14L1171.38 125.123ZM1173.27 122.405L1173.81 122.717L1171.67 123.951L1171.13 123.638L1173.27 122.405ZM1177.25 121.735C1177.34 121.786 1177.44 121.813 1177.54 121.813C1177.64 121.813 1177.74 121.786 1177.83 121.735L1181.13 119.832C1181.21 119.782 1181.29 119.708 1181.34 119.62C1181.39 119.532 1181.42 119.432 1181.42 119.33C1181.42 119.228 1181.39 119.128 1181.34 119.04C1181.29 118.952 1181.21 118.878 1181.13 118.828L1179.43 117.846C1179.34 117.795 1179.24 117.768 1179.14 117.768C1179.03 117.768 1178.93 117.795 1178.85 117.846L1175.55 119.749C1175.46 119.8 1175.39 119.873 1175.34 119.961C1175.29 120.049 1175.26 120.149 1175.26 120.251C1175.26 120.352 1175.29 120.452 1175.34 120.54C1175.39 120.629 1175.46 120.702 1175.55 120.753L1177.25 121.735ZM1179.14 119.018L1179.68 119.33L1177.54 120.563L1177 120.25L1179.14 119.018ZM1181.13 116.862C1181.13 116.964 1181.15 117.064 1181.21 117.152C1181.26 117.24 1181.33 117.313 1181.42 117.364L1183.12 118.347C1183.21 118.398 1183.31 118.425 1183.41 118.425C1183.51 118.425 1183.61 118.398 1183.7 118.347L1186.99 116.445C1187.08 116.394 1187.16 116.321 1187.21 116.233C1187.26 116.145 1187.28 116.045 1187.28 115.943C1187.28 115.841 1187.26 115.741 1187.21 115.653C1187.16 115.565 1187.08 115.491 1186.99 115.441L1185.29 114.459C1185.2 114.408 1185.1 114.381 1185 114.381C1184.9 114.381 1184.8 114.408 1184.71 114.459L1181.42 116.36C1181.33 116.411 1181.26 116.484 1181.2 116.572C1181.15 116.66 1181.13 116.76 1181.13 116.862ZM1185 115.63L1185.54 115.943L1183.41 117.175L1182.87 116.863L1185 115.63ZM1167.9 131.518L1166.2 130.535C1166.11 130.484 1166.01 130.458 1165.91 130.458C1165.81 130.458 1165.71 130.484 1165.62 130.535L1162.32 132.438C1162.23 132.489 1162.16 132.562 1162.11 132.65C1162.06 132.738 1162.03 132.838 1162.03 132.94C1162.03 133.042 1162.06 133.142 1162.11 133.23C1162.16 133.318 1162.23 133.391 1162.32 133.442L1164.02 134.424C1164.11 134.475 1164.21 134.502 1164.31 134.502C1164.42 134.502 1164.52 134.475 1164.6 134.424L1167.9 132.522C1167.99 132.471 1168.06 132.398 1168.11 132.31C1168.16 132.222 1168.19 132.122 1168.19 132.02C1168.19 131.919 1168.16 131.819 1168.11 131.73C1168.06 131.642 1167.99 131.569 1167.9 131.518ZM1164.31 133.254L1163.77 132.941L1165.91 131.708L1166.45 132.022L1164.31 133.254ZM1173.77 128.13L1172.07 127.149C1171.98 127.098 1171.88 127.071 1171.78 127.071C1171.67 127.071 1171.57 127.098 1171.49 127.149L1168.19 129.051C1168.1 129.102 1168.03 129.176 1167.98 129.264C1167.93 129.352 1167.9 129.452 1167.9 129.554C1167.9 129.655 1167.93 129.755 1167.98 129.844C1168.03 129.932 1168.1 130.005 1168.19 130.056L1169.89 131.037C1169.98 131.088 1170.08 131.115 1170.18 131.115C1170.28 131.115 1170.38 131.088 1170.47 131.037L1173.77 129.135C1173.95 129.031 1174.06 128.84 1174.06 128.633C1174.06 128.426 1173.95 128.234 1173.77 128.13ZM1170.18 129.866L1169.64 129.554L1171.78 128.32L1172.32 128.633L1170.18 129.866ZM1179.64 124.742L1177.94 123.76C1177.85 123.709 1177.75 123.683 1177.65 123.683C1177.54 123.683 1177.44 123.709 1177.36 123.76L1174.06 125.663C1173.97 125.714 1173.9 125.787 1173.85 125.876C1173.8 125.964 1173.77 126.064 1173.77 126.165C1173.77 126.267 1173.8 126.367 1173.85 126.455C1173.9 126.543 1173.97 126.616 1174.06 126.668L1175.76 127.65C1175.85 127.701 1175.95 127.728 1176.05 127.728C1176.15 127.728 1176.25 127.701 1176.34 127.65L1179.64 125.747C1179.72 125.695 1179.8 125.622 1179.85 125.534C1179.9 125.446 1179.93 125.346 1179.93 125.244C1179.93 125.143 1179.9 125.043 1179.85 124.955C1179.8 124.866 1179.72 124.793 1179.64 124.742ZM1176.05 126.478L1175.51 126.165L1177.65 124.932L1178.19 125.244L1176.05 126.478ZM1185.5 121.355L1183.8 120.373C1183.71 120.322 1183.61 120.295 1183.51 120.295C1183.41 120.295 1183.31 120.322 1183.22 120.373L1179.93 122.274C1179.84 122.325 1179.76 122.398 1179.71 122.486C1179.66 122.574 1179.64 122.674 1179.64 122.776C1179.64 122.878 1179.66 122.978 1179.71 123.066C1179.76 123.155 1179.84 123.228 1179.93 123.279L1181.63 124.261C1181.72 124.313 1181.82 124.34 1181.92 124.34C1182.02 124.34 1182.12 124.313 1182.21 124.261L1185.5 122.359C1185.59 122.308 1185.66 122.235 1185.72 122.147C1185.77 122.059 1185.79 121.959 1185.79 121.857C1185.79 121.755 1185.77 121.655 1185.72 121.567C1185.66 121.479 1185.59 121.406 1185.5 121.355ZM1181.92 123.09L1181.38 122.777L1183.51 121.544L1184.05 121.857L1181.92 123.09ZM1185.5 119.39C1185.5 119.492 1185.53 119.592 1185.58 119.68C1185.63 119.768 1185.71 119.841 1185.79 119.892L1187.5 120.873C1187.58 120.924 1187.68 120.951 1187.79 120.951C1187.89 120.951 1187.99 120.924 1188.08 120.873L1191.37 118.972C1191.46 118.921 1191.53 118.848 1191.58 118.76C1191.64 118.672 1191.66 118.572 1191.66 118.47C1191.66 118.368 1191.64 118.268 1191.58 118.18C1191.53 118.092 1191.46 118.018 1191.37 117.968L1189.67 116.984C1189.58 116.934 1189.48 116.907 1189.38 116.907C1189.28 116.907 1189.18 116.934 1189.09 116.984L1185.79 118.887C1185.71 118.938 1185.63 119.012 1185.58 119.1C1185.53 119.188 1185.5 119.288 1185.5 119.39ZM1189.38 118.157L1189.92 118.469L1187.78 119.702L1187.24 119.39L1189.38 118.157ZM1174.22 95.5958C1173.39 95.5958 1172.52 95.8597 1171.62 96.3811C1169.5 97.6067 1167.66 100.075 1166.77 102.63C1166.75 102.653 1166.75 102.676 1166.74 102.701C1166.39 103.728 1166.19 104.767 1166.19 105.745C1166.19 108.304 1167.53 109.957 1169.6 109.957C1170.42 109.957 1171.3 109.693 1172.2 109.172C1173.4 108.481 1174.5 107.389 1175.4 106.112C1175.4 106.11 1175.41 106.109 1175.41 106.107C1175.43 106.089 1175.43 106.065 1175.45 106.046C1176.77 104.146 1177.63 101.844 1177.63 99.8089C1177.63 97.2488 1176.29 95.5958 1174.22 95.5958ZM1175.8 97.4855L1172.49 101.241V97.2361C1173.1 96.9269 1173.69 96.7558 1174.22 96.7558C1174.88 96.7558 1175.41 97.0174 1175.8 97.4855ZM1171.33 97.9819V102.207L1168.13 102.272C1168.85 100.6 1169.99 99.0323 1171.33 97.9819ZM1171.62 108.167C1170.9 108.578 1170.21 108.795 1169.6 108.795C1168.19 108.795 1167.35 107.655 1167.35 105.744C1167.35 105.002 1167.48 104.221 1167.71 103.44L1171.68 103.36L1174.23 105.781C1173.47 106.771 1172.58 107.612 1171.62 108.167ZM1174.89 104.811L1172.71 102.74L1176.33 98.6298C1176.42 98.9807 1176.47 99.3716 1176.47 99.8072C1176.47 101.427 1175.86 103.236 1174.89 104.811ZM1164.28 101.425C1164.19 101.374 1164.09 101.347 1163.99 101.347C1163.88 101.347 1163.78 101.374 1163.7 101.425L1152.88 107.667C1152.8 107.718 1152.72 107.791 1152.67 107.88C1152.62 107.968 1152.59 108.068 1152.59 108.17L1152.59 110.129C1152.59 110.231 1152.62 110.332 1152.67 110.42C1152.72 110.508 1152.8 110.582 1152.88 110.633C1152.97 110.684 1153.07 110.71 1153.17 110.71C1153.28 110.71 1153.38 110.683 1153.46 110.632L1164.28 104.39C1164.36 104.339 1164.44 104.266 1164.49 104.178C1164.54 104.09 1164.57 103.99 1164.57 103.888L1164.57 101.928C1164.57 101.826 1164.54 101.726 1164.49 101.638C1164.44 101.55 1164.36 101.476 1164.28 101.425ZM1153.75 108.505L1160.73 104.478V105.099L1153.75 109.125V108.505ZM1163.41 103.553L1161.89 104.429V103.809L1163.41 102.932V103.553ZM1161.6 107.412C1161.51 107.361 1161.41 107.334 1161.31 107.334C1161.21 107.334 1161.11 107.361 1161.02 107.412L1152.88 112.108C1152.8 112.159 1152.72 112.233 1152.67 112.321C1152.62 112.409 1152.59 112.509 1152.59 112.611L1152.59 114.572C1152.59 114.674 1152.62 114.774 1152.67 114.862C1152.72 114.951 1152.8 115.024 1152.88 115.075C1152.97 115.126 1153.07 115.153 1153.17 115.153C1153.28 115.152 1153.38 115.125 1153.46 115.074L1161.6 110.377C1161.69 110.326 1161.76 110.253 1161.81 110.165C1161.86 110.077 1161.89 109.977 1161.89 109.875V107.915C1161.89 107.813 1161.86 107.713 1161.81 107.625C1161.76 107.536 1161.69 107.463 1161.6 107.412ZM1153.75 112.945L1158.11 110.432V111.053L1153.75 113.567V112.945ZM1160.73 109.54L1159.27 110.383V109.762L1160.73 108.919V109.54ZM1158.98 113.366C1158.89 113.315 1158.79 113.288 1158.69 113.288C1158.59 113.288 1158.49 113.315 1158.4 113.366L1152.88 116.549C1152.7 116.653 1152.59 116.845 1152.59 117.051L1152.59 119.011C1152.59 119.113 1152.62 119.213 1152.67 119.302C1152.72 119.39 1152.79 119.463 1152.88 119.514C1152.97 119.565 1153.07 119.592 1153.17 119.592C1153.28 119.592 1153.38 119.565 1153.46 119.513L1158.98 116.33C1159.07 116.279 1159.14 116.206 1159.19 116.118C1159.24 116.03 1159.27 115.93 1159.27 115.829V113.868C1159.27 113.662 1159.16 113.47 1158.98 113.366ZM1153.75 117.387L1156.31 115.91V116.53L1153.75 118.007V117.387ZM1158.11 115.493L1157.47 115.861V115.241L1158.11 114.874V115.493Z" fill="#ED1C24" fill-opacity="0.4"/>
</g>
<mask id="path-110-inside-2_2008_603" fill="white">
<path d="M287.653 179.687L298.709 179.712V186.017L273.465 200.728L248 186.017V179.601L259.081 179.625L273.313 171.416L287.653 179.687Z"/>
</mask>
<path d="M287.653 179.687L298.709 179.712V186.017L273.465 200.728L248 186.017V179.601L259.081 179.625L273.313 171.416L287.653 179.687Z" fill="url(#paint1_linear_2008_603)"/>
<path d="M287.653 179.687L287.553 179.86L287.6 179.887L287.653 179.887L287.653 179.687ZM298.709 179.712H298.909V179.512L298.709 179.512L298.709 179.712ZM298.709 186.017L298.81 186.19L298.909 186.132V186.017H298.709ZM273.465 200.728L273.365 200.901L273.465 200.959L273.566 200.901L273.465 200.728ZM248 186.017H247.8V186.133L247.9 186.19L248 186.017ZM248 179.601L248 179.401L247.8 179.401V179.601H248ZM259.081 179.625L259.081 179.825L259.134 179.825L259.181 179.798L259.081 179.625ZM273.313 171.416L273.413 171.242L273.313 171.185L273.214 171.242L273.313 171.416ZM287.653 179.687L287.653 179.887L298.709 179.912L298.709 179.712L298.709 179.512L287.654 179.487L287.653 179.687ZM298.709 179.712H298.509V186.017H298.709H298.909V179.712H298.709ZM298.709 186.017L298.608 185.844L273.364 200.555L273.465 200.728L273.566 200.901L298.81 186.19L298.709 186.017ZM273.465 200.728L273.565 200.555L248.1 185.844L248 186.017L247.9 186.19L273.365 200.901L273.465 200.728ZM248 186.017H248.2V179.601H248H247.8V186.017H248ZM248 179.601L248 179.801L259.081 179.825L259.081 179.625L259.081 179.425L248 179.401L248 179.601ZM259.081 179.625L259.181 179.798L273.413 171.589L273.313 171.416L273.214 171.242L258.981 179.451L259.081 179.625ZM273.313 171.416L273.214 171.589L287.553 179.86L287.653 179.687L287.753 179.514L273.413 171.242L273.313 171.416Z" fill="#0E3572" mask="url(#path-110-inside-2_2008_603)"/>
<path d="M273.314 165L298.71 179.712L273.314 194.203L248.001 179.601L273.314 165Z" fill="#0E3572"/>
<path d="M298.207 179.711L273.316 193.914L248.504 179.601L273.314 165.29L298.207 179.711Z" stroke="white" stroke-opacity="0.2" stroke-width="0.579511"/>
<g clip-path="url(#clip6_2008_603)">
<path d="M282.001 181.828L278.754 183.703L275.506 181.828L278.754 179.953L282.001 181.828ZM273.828 176.484L269.498 178.984L265.168 176.484L269.498 173.984L273.828 176.484ZM286.9 179L283.652 180.875L280.405 179L283.652 177.125L286.9 179ZM277.103 184.656L273.855 186.531L270.608 184.656L273.855 182.781L277.103 184.656Z" stroke="white" stroke-miterlimit="10" stroke-linecap="round" stroke-linejoin="round"/>
<path d="M282.029 178.062L279.296 176.484L269.499 182.141L272.232 183.719" stroke="white" stroke-miterlimit="10" stroke-linecap="round" stroke-linejoin="round"/>
<path d="M271.664 177.734L277.131 180.891" stroke="white" stroke-miterlimit="10" stroke-linecap="round" stroke-linejoin="round"/>
</g>
<mask id="path-117-inside-3_2008_603" fill="white">
<path d="M687.653 199.687L698.709 199.712V206.017L673.465 220.728L648 206.017V199.601L659.081 199.625L673.313 191.416L687.653 199.687Z"/>
</mask>
<path d="M687.653 199.687L698.709 199.712V206.017L673.465 220.728L648 206.017V199.601L659.081 199.625L673.313 191.416L687.653 199.687Z" fill="url(#paint2_linear_2008_603)"/>
<path d="M687.653 199.687L687.553 199.86L687.6 199.887L687.653 199.887L687.653 199.687ZM698.709 199.712H698.909V199.512L698.709 199.512L698.709 199.712ZM698.709 206.017L698.81 206.19L698.909 206.132V206.017H698.709ZM673.465 220.728L673.365 220.901L673.465 220.959L673.566 220.901L673.465 220.728ZM648 206.017H647.8V206.133L647.9 206.19L648 206.017ZM648 199.601L648 199.401L647.8 199.401V199.601H648ZM659.081 199.625L659.081 199.825L659.134 199.825L659.181 199.798L659.081 199.625ZM673.313 191.416L673.413 191.242L673.313 191.185L673.214 191.242L673.313 191.416ZM687.653 199.687L687.653 199.887L698.709 199.912L698.709 199.712L698.709 199.512L687.654 199.487L687.653 199.687ZM698.709 199.712H698.509V206.017H698.709H698.909V199.712H698.709ZM698.709 206.017L698.608 205.844L673.364 220.555L673.465 220.728L673.566 220.901L698.81 206.19L698.709 206.017ZM673.465 220.728L673.565 220.555L648.1 205.844L648 206.017L647.9 206.19L673.365 220.901L673.465 220.728ZM648 206.017H648.2V199.601H648H647.8V206.017H648ZM648 199.601L648 199.801L659.081 199.825L659.081 199.625L659.081 199.425L648 199.401L648 199.601ZM659.081 199.625L659.181 199.798L673.413 191.589L673.313 191.416L673.214 191.242L658.981 199.451L659.081 199.625ZM673.313 191.416L673.214 191.589L687.553 199.86L687.653 199.687L687.753 199.514L673.413 191.242L673.313 191.416Z" fill="#0E3572" mask="url(#path-117-inside-3_2008_603)"/>
<path d="M673.314 185L698.71 199.712L673.314 214.203L648.001 199.601L673.314 185Z" fill="#0E3572"/>
<path d="M698.207 199.711L673.316 213.914L648.504 199.601L673.314 185.29L698.207 199.711Z" stroke="white" stroke-opacity="0.2" stroke-width="0.579511"/>
<g clip-path="url(#clip7_2008_603)">
<path d="M676.272 193.746C673.578 193.331 670.585 193.733 668.471 194.953L674.182 198.25L681.983 197.043C681.629 196.278 680.932 195.554 679.892 194.953C678.852 194.353 677.598 193.95 676.272 193.746Z" stroke="white" stroke-miterlimit="10" stroke-linecap="round" stroke-linejoin="round"/>
<path d="M673.531 199.75L667.821 196.453C665.707 197.673 665.011 199.402 665.73 200.957C666.084 201.723 666.781 202.446 667.821 203.047C668.861 203.648 670.115 204.05 671.441 204.254C674.135 204.67 677.128 204.267 679.242 203.047C681.355 201.827 682.052 200.099 681.333 198.543L673.531 199.75Z" stroke="white" stroke-miterlimit="10" stroke-linecap="round" stroke-linejoin="round"/>
</g>
<path d="M1036.53 61.4188L1067.16 79.1765L1036.53 96.6671L1006 79.0429L1036.53 61.4188Z" fill="#C3D0E4"/>
<path d="M1066.66 79.175L1036.53 96.3785L1006.5 79.0432L1036.53 61.7088L1066.66 79.175Z" stroke="white" stroke-opacity="0.2" stroke-width="0.579511"/>
<mask id="path-125-inside-4_2008_603" fill="white">
<path d="M1051.9 67.285L1063.92 67.3113V74.1756L1036.46 90.1932L1009.38 74.533L1008.76 74.1756L1008.76 74.1746V67.1912L1020.81 67.2166L1036.3 58.2791L1051.9 67.285Z"/>
</mask>
<path d="M1051.9 67.285L1063.92 67.3113V74.1756L1036.46 90.1932L1009.38 74.533L1008.76 74.1756L1008.76 74.1746V67.1912L1020.81 67.2166L1036.3 58.2791L1051.9 67.285Z" fill="#0E3572" fill-opacity="0.1"/>
<path d="M1051.9 67.285L1051.8 67.4582L1051.84 67.4849L1051.9 67.485L1051.9 67.285ZM1063.92 67.3113H1064.12V67.1118L1063.93 67.1113L1063.92 67.3113ZM1063.92 74.1756L1064.03 74.3484L1064.12 74.2905V74.1756H1063.92ZM1036.46 90.1932L1036.36 90.3663L1036.47 90.4245L1036.57 90.3659L1036.46 90.1932ZM1009.38 74.533L1009.48 74.3599L1009.48 74.3598L1009.38 74.533ZM1008.76 74.1756L1008.62 74.0342L1008.44 74.2185L1008.66 74.3488L1008.76 74.1756ZM1008.76 74.1746L1008.9 74.316L1008.96 74.2575V74.1746H1008.76ZM1008.76 67.1912L1008.76 66.9912L1008.56 66.9908V67.1912H1008.76ZM1020.81 67.2166L1020.81 67.4166L1020.87 67.4167L1020.91 67.3898L1020.81 67.2166ZM1036.3 58.2791L1036.4 58.1059L1036.3 58.0482L1036.2 58.1059L1036.3 58.2791ZM1051.9 67.285L1051.9 67.485L1063.92 67.5113L1063.92 67.3113L1063.93 67.1113L1051.9 67.085L1051.9 67.285ZM1063.92 67.3113H1063.72V74.1756H1063.92H1064.12V67.3113H1063.92ZM1063.92 74.1756L1063.82 74.0028L1036.36 90.0204L1036.46 90.1932L1036.57 90.3659L1064.03 74.3484L1063.92 74.1756ZM1036.46 90.1932L1036.56 90.02L1009.48 74.3599L1009.38 74.533L1009.28 74.7062L1036.36 90.3663L1036.46 90.1932ZM1009.38 74.533L1009.48 74.3598L1008.86 74.0024L1008.76 74.1756L1008.66 74.3488L1009.28 74.7062L1009.38 74.533ZM1008.76 74.1756L1008.9 74.317L1008.9 74.316L1008.76 74.1746L1008.62 74.0332L1008.62 74.0342L1008.76 74.1756ZM1008.76 74.1746H1008.96V67.1912H1008.76H1008.56V74.1746H1008.76ZM1008.76 67.1912L1008.76 67.3912L1020.81 67.4166L1020.81 67.2166L1020.81 67.0166L1008.76 66.9912L1008.76 67.1912ZM1020.81 67.2166L1020.91 67.3898L1036.4 58.4523L1036.3 58.2791L1036.2 58.1059L1020.71 67.0434L1020.81 67.2166ZM1036.3 58.2791L1036.2 58.4523L1051.8 67.4582L1051.9 67.285L1052 67.1118L1036.4 58.1059L1036.3 58.2791Z" fill="#0E3572" mask="url(#path-125-inside-4_2008_603)"/>
<path d="M1063.49 67.31L1036.3 82.8382L1009.2 67.1909L1036.3 51.5441L1063.49 67.31Z" fill="white" stroke="#0E3572" stroke-width="0.5"/>
<mask id="path-128-inside-5_2008_603" fill="white">
<path d="M1051.9 51.6368L1063.93 51.6642V58.5284L1036.46 74.545L1009.39 58.8917L1008.76 58.5284L1008.76 58.5275V51.5431L1020.82 51.5695L1036.3 42.632L1051.9 51.6368Z"/>
</mask>
<path d="M1051.9 51.6368L1063.93 51.6642V58.5284L1036.46 74.545L1009.39 58.8917L1008.76 58.5284L1008.76 58.5275V51.5431L1020.82 51.5695L1036.3 42.632L1051.9 51.6368Z" fill="#0E3572" fill-opacity="0.1"/>
<path d="M1051.9 51.6368L1051.8 51.8101L1051.84 51.8367L1051.9 51.8368L1051.9 51.6368ZM1063.93 51.6642H1064.13V51.4646L1063.93 51.4642L1063.93 51.6642ZM1063.93 58.5284L1064.03 58.7012L1064.13 58.6433V58.5284H1063.93ZM1036.46 74.545L1036.36 74.7182L1036.47 74.7763L1036.57 74.7178L1036.46 74.545ZM1009.39 58.8917L1009.49 58.7186L1009.49 58.7185L1009.39 58.8917ZM1008.76 58.5284L1008.62 58.387L1008.44 58.5713L1008.66 58.7016L1008.76 58.5284ZM1008.76 58.5275L1008.9 58.6689L1008.96 58.6103V58.5275H1008.76ZM1008.76 51.5431L1008.76 51.3431L1008.56 51.3427V51.5431H1008.76ZM1020.82 51.5695L1020.82 51.7695L1020.87 51.7696L1020.92 51.7427L1020.82 51.5695ZM1036.3 42.632L1036.4 42.4587L1036.3 42.401L1036.2 42.4587L1036.3 42.632ZM1051.9 51.6368L1051.9 51.8368L1063.93 51.8642L1063.93 51.6642L1063.93 51.4642L1051.9 51.4368L1051.9 51.6368ZM1063.93 51.6642H1063.73V58.5284H1063.93H1064.13V51.6642H1063.93ZM1063.93 58.5284L1063.83 58.3557L1036.36 74.3723L1036.46 74.545L1036.57 74.7178L1064.03 58.7012L1063.93 58.5284ZM1036.46 74.545L1036.56 74.3719L1009.49 58.7186L1009.39 58.8917L1009.29 59.0649L1036.36 74.7182L1036.46 74.545ZM1009.39 58.8917L1009.49 58.7185L1008.86 58.3553L1008.76 58.5284L1008.66 58.7016L1009.29 59.0649L1009.39 58.8917ZM1008.76 58.5284L1008.9 58.6699L1008.9 58.6689L1008.76 58.5275L1008.62 58.386L1008.62 58.387L1008.76 58.5284ZM1008.76 58.5275H1008.96V51.5431H1008.76H1008.56V58.5275H1008.76ZM1008.76 51.5431L1008.76 51.7431L1020.82 51.7695L1020.82 51.5695L1020.82 51.3695L1008.76 51.3431L1008.76 51.5431ZM1020.82 51.5695L1020.92 51.7427L1036.4 42.8052L1036.3 42.632L1036.2 42.4587L1020.72 51.3962L1020.82 51.5695ZM1036.3 42.632L1036.2 42.8052L1051.8 51.8101L1051.9 51.6368L1052 51.4636L1036.4 42.4587L1036.3 42.632Z" fill="#0E3572" mask="url(#path-128-inside-5_2008_603)"/>
<path d="M1063.49 51.6625L1036.3 67.1902L1009.2 51.5433L1036.3 35.897L1063.49 51.6625Z" fill="white" stroke="#0E3572" stroke-width="0.5"/>
<mask id="path-131-inside-6_2008_603" fill="white">
<path d="M1051.9 35.9897L1063.93 36.0171V42.8813L1036.46 58.8979L1010.65 43.9712L1008.76 42.8813L1008.76 42.8794V35.896L1020.81 35.9224L1036.3 26.9849L1051.9 35.9897Z"/>
</mask>
<path d="M1051.9 35.9897L1063.93 36.0171V42.8813L1036.46 58.8979L1010.65 43.9712L1008.76 42.8813L1008.76 42.8794V35.896L1020.81 35.9224L1036.3 26.9849L1051.9 35.9897Z" fill="#0E3572" fill-opacity="0.1"/>
<path d="M1051.9 35.9897L1051.8 36.163L1051.84 36.1896L1051.9 36.1897L1051.9 35.9897ZM1063.93 36.0171H1064.13V35.8175L1063.93 35.8171L1063.93 36.0171ZM1063.93 42.8813L1064.03 43.0541L1064.13 42.9962V42.8813H1063.93ZM1036.46 58.8979L1036.36 59.0711L1036.47 59.1292L1036.57 59.0707L1036.46 58.8979ZM1010.65 43.9712L1010.75 43.798L1010.75 43.798L1010.65 43.9712ZM1008.76 42.8813L1008.65 42.7149L1008.38 42.8936L1008.66 43.0546L1008.76 42.8813ZM1008.76 42.8794L1008.87 43.0458L1008.96 42.9864V42.8794H1008.76ZM1008.76 35.896L1008.76 35.696L1008.56 35.6956V35.896H1008.76ZM1020.81 35.9224L1020.81 36.1224L1020.87 36.1225L1020.91 36.0956L1020.81 35.9224ZM1036.3 26.9849L1036.4 26.8117L1036.3 26.7539L1036.2 26.8117L1036.3 26.9849ZM1051.9 35.9897L1051.9 36.1897L1063.93 36.2171L1063.93 36.0171L1063.93 35.8171L1051.9 35.7897L1051.9 35.9897ZM1063.93 36.0171H1063.73V42.8813H1063.93H1064.13V36.0171H1063.93ZM1063.93 42.8813L1063.83 42.7086L1036.36 58.7252L1036.46 58.8979L1036.57 59.0707L1064.03 43.0541L1063.93 42.8813ZM1036.46 58.8979L1036.56 58.7248L1010.75 43.798L1010.65 43.9712L1010.55 44.1443L1036.36 59.0711L1036.46 58.8979ZM1010.65 43.9712L1010.75 43.798L1008.86 42.7081L1008.76 42.8813L1008.66 43.0546L1010.55 44.1444L1010.65 43.9712ZM1008.76 42.8813L1008.87 43.0478L1008.87 43.0458L1008.76 42.8794L1008.65 42.713L1008.65 42.7149L1008.76 42.8813ZM1008.76 42.8794H1008.96V35.896H1008.76H1008.56V42.8794H1008.76ZM1008.76 35.896L1008.76 36.096L1020.81 36.1224L1020.81 35.9224L1020.81 35.7224L1008.76 35.696L1008.76 35.896ZM1020.81 35.9224L1020.91 36.0956L1036.4 27.1581L1036.3 26.9849L1036.2 26.8117L1020.71 35.7492L1020.81 35.9224ZM1036.3 26.9849L1036.2 27.1581L1051.8 36.163L1051.9 35.9897L1052 35.8165L1036.4 26.8117L1036.3 26.9849Z" fill="#0E3572" mask="url(#path-131-inside-6_2008_603)"/>
<path d="M1063.49 36.0156L1036.3 51.5435L1009.2 35.8964L1036.3 20.2499L1063.49 36.0156Z" fill="white" stroke="#0E3572" stroke-width="0.5"/>
<path d="M1036.47 28.2838L1048.58 35.3036L1036.47 42.218L1024.41 35.2509L1036.47 28.2838Z" fill="#2A569C"/>
<path d="M1048.08 35.3022L1036.48 41.929L1024.91 35.2509L1036.47 28.5738L1048.08 35.3022Z" stroke="white" stroke-opacity="0.2" stroke-width="0.579511"/>
<circle cx="1.15052" cy="1.15052" r="1.15052" transform="matrix(0.99863 0.052336 -0.139173 0.990268 1056.02 42.09)" fill="#0E3572"/>
<circle cx="1.15052" cy="1.15052" r="1.15052" transform="matrix(0.99863 0.052336 -0.139173 0.990268 1059.71 40.2492)" fill="#0E3572"/>
<circle cx="1.15052" cy="1.15052" r="1.15052" transform="matrix(0.99863 0.052336 -0.139173 0.990268 1052.34 43.9308)" fill="#0E3572"/>
</g>
<path d="M10 0.5H1310C1315.25 0.5 1319.5 4.7533 1319.5 10V279.5H0.5V10C0.5 4.7533 4.75329 0.5 10 0.5Z" stroke="#58595B" stroke-opacity="0.1"/>
<defs>
<radialGradient id="paint0_radial_2008_603" cx="0" cy="0" r="1" gradientUnits="userSpaceOnUse" gradientTransform="translate(583.7 649.984) rotate(90) scale(599.352 599.352)">
<stop stop-color="#D9D9D9"/>
<stop offset="0.890272" stop-color="#D9D9D9" stop-opacity="0"/>
</radialGradient>
<linearGradient id="paint1_linear_2008_603" x1="273.354" y1="186.124" x2="273.354" y2="200.728" gradientUnits="userSpaceOnUse">
<stop stop-color="white"/>
<stop offset="1" stop-color="#3EAFD1"/>
</linearGradient>
<linearGradient id="paint2_linear_2008_603" x1="673.354" y1="206.124" x2="673.354" y2="220.728" gradientUnits="userSpaceOnUse">
<stop stop-color="white"/>
<stop offset="1" stop-color="#3EAFD1"/>
</linearGradient>
<clipPath id="clip0_2008_603">
<path d="M0 10C0 4.47715 4.47715 0 10 0H1310C1315.52 0 1320 4.47715 1320 10V280H0V10Z" fill="white"/>
</clipPath>
<clipPath id="clip1_2008_603">
<rect width="57.7334" height="57.7334" fill="white" transform="matrix(0.866044 0.499967 -0.866044 0.499967 148 57)"/>
</clipPath>
<clipPath id="clip2_2008_603">
<rect width="85.2245" height="60.2628" fill="white" transform="matrix(0.866044 -0.499967 0.866044 0.499967 409 141.609)"/>
</clipPath>
<clipPath id="clip3_2008_603">
<rect width="69.8024" height="69.8024" fill="white" transform="matrix(0.866044 -0.499967 0.866044 0.499967 793 47.8989)"/>
</clipPath>
<clipPath id="clip4_2008_603">
<rect width="56.4578" height="56.4578" fill="white" transform="matrix(0.866044 -0.499967 0.866044 0.499967 1067 149.227)"/>
</clipPath>
<clipPath id="clip5_2008_603">
<rect width="58" height="58" fill="white" transform="translate(1142 83)"/>
</clipPath>
<clipPath id="clip6_2008_603">
<rect width="16" height="16" fill="white" transform="matrix(0.866025 -0.5 0.866025 0.5 260 179)"/>
</clipPath>
<clipPath id="clip7_2008_603">
<rect width="16" height="16" fill="white" transform="matrix(0.866025 -0.5 0.866025 0.5 660 199)"/>
</clipPath>
</defs>
</svg>
