<svg width="52" height="52" viewBox="0 0 52 52" fill="none" xmlns="http://www.w3.org/2000/svg">
<g clip-path="url(#clip0_2321_629)">
<path d="M17 45.5696V47.4374C17 47.6026 17.0668 47.7609 17.1857 47.8777C17.3047 47.9945 17.466 48.0601 17.6341 48.0601H42.3659C42.534 48.0601 42.6953 47.9945 42.8143 47.8777C42.9332 47.7609 43 47.6026 43 47.4374V15.6828C43 15.601 42.9836 15.52 42.9518 15.4445C42.9199 15.3689 42.8732 15.3003 42.8143 15.2425C42.7554 15.1846 42.6855 15.1388 42.6086 15.1075C42.5316 15.0762 42.4491 15.0601 42.3659 15.0601H40.4637" fill="#FFFAFA" fill-opacity="0.1"/>
<path d="M41.4682 9.71729V5.64657C41.4682 5.43065 41.3825 5.22358 41.2298 5.0709C41.0771 4.91822 40.87 4.83245 40.6541 4.83245H30.0703" stroke="#FFFAFA" stroke-miterlimit="10" stroke-linecap="round" stroke-linejoin="round"/>
<path d="M8.08984 26.8142V47.1676C8.08984 47.3835 8.17562 47.5906 8.32829 47.7432C8.48097 47.8959 8.68805 47.9817 8.90397 47.9817H33.4678C33.8996 47.9817 34.3138 47.8102 34.6191 47.5049L40.9924 41.1317C41.2978 40.8264 41.4694 40.4122 41.4695 39.9803V12.974" fill="#3C5C8D"/>
<path d="M8.08984 26.8142V47.1676C8.08984 47.3835 8.17562 47.5906 8.32829 47.7432C8.48097 47.8959 8.68805 47.9817 8.90397 47.9817H33.4678C33.8996 47.9817 34.3138 47.8102 34.6191 47.5049L40.9924 41.1317C41.2978 40.8264 41.4694 40.4122 41.4695 39.9803V12.974" stroke="#FFFAFA" stroke-miterlimit="10" stroke-linecap="round" stroke-linejoin="round"/>
<path d="M34.1426 47.5237V41.4685C34.1426 41.2526 34.2284 41.0455 34.381 40.8929C34.5337 40.7402 34.7408 40.6544 34.9567 40.6544H41.0373" stroke="#FFFAFA" stroke-miterlimit="10" stroke-linecap="round" stroke-linejoin="round"/>
<path d="M13.7878 10.5314V8.90318C13.7878 8.00395 14.5169 7.27493 15.4161 7.27493C16.3153 7.27493 17.0443 8.00395 17.0443 8.90318V12.1597C17.0443 13.9582 15.5863 15.4163 13.7878 15.4163C11.9893 15.4163 10.5312 13.9582 10.5312 12.1598V4.01834C10.5312 2.21988 11.9893 0.76185 13.7878 0.76185C15.5863 0.76185 17.0443 2.21988 17.0443 4.01834" stroke="#FFFAFA" stroke-miterlimit="10" stroke-linecap="round" stroke-linejoin="round"/>
<path d="M13.7882 4.01837H29.2571C29.473 4.01837 29.6801 4.10415 29.8328 4.25682C29.9855 4.4095 30.0712 4.61658 30.0712 4.83249V26.0001C30.0712 26.216 29.9855 26.4231 29.8328 26.5758C29.6801 26.7284 29.473 26.8142 29.2571 26.8142H8.08951C7.87359 26.8142 7.66652 26.7284 7.51384 26.5758C7.36116 26.4231 7.27539 26.216 7.27539 26.0001V4.83249C7.27539 4.61658 7.36116 4.4095 7.51384 4.25682C7.66652 4.10415 7.87359 4.01837 8.08951 4.01837H10.5321" stroke="#FFFAFA" stroke-miterlimit="10" stroke-linecap="round" stroke-linejoin="round"/>
<path d="M12.714 4.06006H26.2857C26.4752 4.06006 26.6568 4.13531 26.7908 4.26927C26.9247 4.40322 27 4.5849 27 4.77433V23.3458C27 23.5352 26.9247 23.7169 26.7908 23.8509C26.6568 23.9848 26.4752 24.0601 26.2857 24.0601H7.71427C7.52484 24.0601 7.34316 23.9848 7.20921 23.8509C7.07525 23.7169 7 23.5352 7 23.3458V4.77433C7 4.5849 7.07525 4.40322 7.20921 4.26927C7.34316 4.13531 7.52484 4.06006 7.71427 4.06006H9.85727" fill="#FFFAFA" fill-opacity="0.1"/>
<path d="M11.3457 47.9819V50.4242C11.3457 50.6401 11.4315 50.8472 11.5842 50.9998C11.7368 51.1525 11.9439 51.2383 12.1598 51.2383H43.9112C44.1271 51.2383 44.3342 51.1525 44.4869 50.9998C44.6396 50.8472 44.7253 50.6401 44.7253 50.4242V8.9033C44.7254 8.79638 44.7043 8.6905 44.6634 8.59172C44.6225 8.49293 44.5625 8.40317 44.4869 8.32756C44.4113 8.25195 44.3216 8.19198 44.2228 8.15106C44.124 8.11014 44.0181 8.08908 43.9112 8.08908H41.4692" stroke="#FFFAFA" stroke-miterlimit="10" stroke-linecap="round" stroke-linejoin="round"/>
<path d="M21.1152 11.3457H25.1859" stroke="#FFFAFA" stroke-miterlimit="10" stroke-linecap="round" stroke-linejoin="round"/>
<path d="M21.1152 15.4163H25.1859" stroke="#FFFAFA" stroke-miterlimit="10" stroke-linecap="round" stroke-linejoin="round"/>
<path d="M15 33.0601H29" stroke="#FFFAFA" stroke-miterlimit="10" stroke-linecap="round" stroke-linejoin="round"/>
<path d="M15 41.0601H29" stroke="#FFFAFA" stroke-miterlimit="10" stroke-linecap="round" stroke-linejoin="round"/>
<path d="M15 37.0601H29" stroke="#FFFAFA" stroke-miterlimit="10" stroke-linecap="round" stroke-linejoin="round"/>
</g>
<defs>
<clipPath id="clip0_2321_629">
<rect width="52" height="52" fill="white"/>
</clipPath>
</defs>
</svg>
