<svg width="52" height="52" viewBox="0 0 52 52" fill="none" xmlns="http://www.w3.org/2000/svg">
<g clip-path="url(#clip0_1862_7699)">
<path d="M31.3924 32.6201C31.3924 35.5984 28.9782 38.0127 25.9999 38.0127C23.0217 38.0127 20.6074 35.5984 20.6074 32.6201C20.6074 29.6419 23.0217 27.2276 25.9999 27.2276C28.9782 27.2276 31.3924 29.6419 31.3924 32.6201Z" stroke="white" stroke-miterlimit="10" stroke-linecap="round" stroke-linejoin="round"/>
<path d="M33.3924 35.6201C33.3924 38.5984 30.9782 41.0127 27.9999 41.0127C25.0217 41.0127 22.6074 38.5984 22.6074 35.6201C22.6074 32.6419 25.0217 30.2276 27.9999 30.2276C30.9782 30.2276 33.3924 32.6419 33.3924 35.6201Z" fill="white" fill-opacity="0.1"/>
<path d="M32.5761 42.8948C32.5761 41.9023 31.7709 41.0971 30.7783 41.0971H21.2211C20.2285 41.0971 19.4233 41.9023 19.4233 42.8948V48.5764H32.5761V42.8948Z" stroke="white" stroke-miterlimit="10" stroke-linecap="round" stroke-linejoin="round"/>
<path d="M34.5761 45.8948C34.5761 44.9023 33.7709 44.0971 32.7783 44.0971H23.2211C22.2285 44.0971 21.4233 44.9023 21.4233 45.8948V51.5764H34.5761V45.8948Z" fill="white" fill-opacity="0.1"/>
<path d="M12.9848 32.6201C12.9848 35.5984 10.5705 38.0127 7.59215 38.0127C4.61404 38.0127 2.19971 35.5984 2.19971 32.6201C2.19971 29.6419 4.61404 27.2276 7.59215 27.2276C10.5705 27.2276 12.9848 29.6419 12.9848 32.6201Z" stroke="white" stroke-miterlimit="10" stroke-linecap="round" stroke-linejoin="round"/>
<path d="M14.9848 35.6201C14.9848 38.5984 12.5705 41.0127 9.59215 41.0127C6.61404 41.0127 4.19971 38.5984 4.19971 35.6201C4.19971 32.6419 6.61404 30.2276 9.59215 30.2276C12.5705 30.2276 14.9848 32.6419 14.9848 35.6201Z" fill="white" fill-opacity="0.1"/>
<path d="M14.1684 42.8948C14.1684 41.9023 13.3633 41.0971 12.3707 41.0971H2.81338C1.82081 41.0971 1.01562 41.9023 1.01562 42.8948V48.5764H14.1684V42.8948Z" stroke="white" stroke-miterlimit="10" stroke-linecap="round" stroke-linejoin="round"/>
<path d="M16.1684 45.8948C16.1684 44.9023 15.3633 44.0971 14.3707 44.0971H4.81338C3.82081 44.0971 3.01562 44.9023 3.01562 45.8948V51.5764H16.1684V45.8948Z" fill="white" fill-opacity="0.1"/>
<path d="M49.8002 32.6201C49.8002 35.5984 47.3859 38.0127 44.4077 38.0127C41.4295 38.0127 39.0151 35.5984 39.0151 32.6201C39.0151 29.6419 41.4295 27.2276 44.4077 27.2276C47.3859 27.2276 49.8002 29.6419 49.8002 32.6201Z" stroke="white" stroke-miterlimit="10" stroke-linecap="round" stroke-linejoin="round"/>
<path d="M51.8002 35.6201C51.8002 38.5984 49.3859 41.0127 46.4077 41.0127C43.4295 41.0127 41.0151 38.5984 41.0151 35.6201C41.0151 32.6419 43.4295 30.2276 46.4077 30.2276C49.3859 30.2276 51.8002 32.6419 51.8002 35.6201Z" fill="white" fill-opacity="0.1"/>
<path d="M50.9844 42.8948C50.9844 41.9023 50.1792 41.0971 49.1866 41.0971H39.6293C38.6367 41.0971 37.8315 41.9023 37.8315 42.8948V48.5764H50.9844V42.8948Z" stroke="white" stroke-miterlimit="10" stroke-linecap="round" stroke-linejoin="round"/>
<path d="M52.9844 45.8948C52.9844 44.9023 52.1792 44.0971 51.1866 44.0971H41.6293C40.6367 44.0971 39.8315 44.9023 39.8315 45.8948V51.5764H52.9844V45.8948Z" fill="white" fill-opacity="0.1"/>
<path d="M28.1546 19.2559H9.58203" stroke="white" stroke-miterlimit="10" stroke-linecap="round" stroke-linejoin="round"/>
<path d="M23.8452 19.2559H42.4178" stroke="white" stroke-miterlimit="10" stroke-linecap="round" stroke-linejoin="round"/>
<path d="M37.1518 19.2072L38.7736 18.7884C38.9189 18.004 38.9918 17.208 38.9912 16.4103C38.9912 15.5984 38.9169 14.8033 38.7736 14.0323L37.1518 13.6135C36.8787 12.5194 36.445 11.4718 35.8647 10.505L36.7524 9.11995C35.8275 7.75964 34.6538 6.58639 33.2932 5.66196L31.9076 6.54941C30.9403 5.96926 29.8924 5.53569 28.798 5.26282L28.3789 3.64159C27.5943 3.49632 26.798 3.42346 26 3.42394C25.1877 3.42394 24.3924 3.49838 23.6211 3.64159L23.2021 5.26282C22.1077 5.53572 21.0597 5.9693 20.0925 6.54941L18.7069 5.66196C17.3463 6.58639 16.1726 7.75964 15.2476 9.11995L16.1355 10.505C15.5551 11.4718 15.1214 12.5194 14.8483 13.6135L13.2265 14.0323C13.0812 14.8166 13.0083 15.6126 13.0088 16.4103C13.0088 17.2224 13.0832 18.0174 13.2265 18.7884L14.8483 19.2072L14.8607 19.2559H37.1395L37.1518 19.2072Z" stroke="white" stroke-miterlimit="10" stroke-linecap="round" stroke-linejoin="round"/>
<path d="M33.2905 16.4103C33.2905 12.3853 30.0263 9.12229 25.9997 9.12229C21.9731 9.12229 18.709 12.3853 18.709 16.4103C18.709 17.4199 18.9143 18.3816 19.2856 19.2559H32.7138C33.0851 18.3816 33.2905 17.4199 33.2905 16.4103Z" stroke="white" stroke-miterlimit="10" stroke-linecap="round" stroke-linejoin="round"/>
</g>
<defs>
<clipPath id="clip0_1862_7699">
<rect width="52" height="52" fill="white"/>
</clipPath>
</defs>
</svg>
