<svg width="160" height="48" viewBox="0 0 160 48" fill="none" xmlns="http://www.w3.org/2000/svg">
<g clip-path="url(#clip0_2086_4)">
<path d="M17.6812 19.2296V30.963C17.7107 31.5704 17.7255 32.1185 17.7107 32.5926C17.696 33.0667 17.6665 33.4963 17.6222 33.8667C17.5927 34.1926 17.5338 34.5037 17.4748 34.8296C17.4305 35.0667 17.3568 35.2889 17.2831 35.5111C17.1209 35.9556 16.9292 36.2519 16.708 36.4L4.60104 24.163V36.2815C3.9522 36.4296 3.27385 36.3556 2.68399 36.0593C2.41855 35.9259 2.18261 35.7481 1.9909 35.5407C1.74021 35.2889 1.51902 34.9778 1.37155 34.6519C1.1651 34.2222 1.01763 33.763 0.929153 33.3037C0.811181 32.6667 0.752195 32.0296 0.766941 31.3778V20.7852C0.737448 19.8963 0.766941 19.0074 0.825928 18.1333C0.855421 17.8074 0.89966 17.4815 0.958646 17.1556C1.00289 16.8593 1.07662 16.5778 1.17984 16.3111C1.25358 16.0889 1.3568 15.8963 1.50427 15.7185C1.62224 15.5704 1.78445 15.4963 1.97616 15.4963C2.10888 15.6296 2.28584 15.8222 2.53653 16.0889C2.78722 16.3556 3.0674 16.637 3.40657 16.9926C3.74574 17.3481 4.11441 17.7333 4.51256 18.1481C4.91072 18.563 5.33837 19.0222 5.79551 19.4815C6.25266 19.9407 6.69505 20.4296 7.18169 20.9333C7.66832 21.437 8.12547 21.9259 8.59736 22.4148C10.249 24.1481 12.0775 26.0593 14.0536 28.1481V15.4667C14.6729 15.4222 15.2923 15.5407 15.8527 15.7926C16.0886 15.9111 16.3245 16.0444 16.5163 16.2222C16.7522 16.4148 16.9439 16.6519 17.0914 16.9037C17.2831 17.2148 17.4158 17.5407 17.5043 17.8963C17.6222 18.3111 17.6812 18.7704 17.6812 19.2296ZM38.3411 36.1185H22.8278V15.6H38.3411C38.3411 16.0296 38.2822 16.4741 38.1642 16.8889C38.0757 17.2148 37.9135 17.5407 37.7218 17.8222C37.5448 18.0741 37.3236 18.2815 37.0729 18.4741C36.837 18.637 36.601 18.7704 36.3356 18.8741C35.7015 19.1111 35.0232 19.2296 34.3448 19.1852H26.5586V23.7926H34.7725C34.7725 24.2074 34.7282 24.6074 34.625 25.0074C34.5365 25.3333 34.4038 25.6296 34.2416 25.9111C34.0941 26.1481 33.9024 26.3704 33.6812 26.5481C33.4895 26.7111 33.2683 26.8593 33.0471 26.9778C32.5163 27.2444 31.9116 27.3926 31.3218 27.3926H26.5734V32.5333H34.8462C35.2444 32.5185 35.6425 32.5778 36.0407 32.6815C36.3503 32.7704 36.66 32.9037 36.9255 33.0963C37.1614 33.2444 37.3679 33.437 37.5448 33.6741C37.707 33.8815 37.8398 34.1037 37.9577 34.3259C38.2084 34.8741 38.3264 35.4963 38.3411 36.1185ZM52.0997 19.2741H49.8139V32.637C49.8139 33.0815 49.7697 33.5111 49.6517 33.9407C49.5485 34.2815 49.4158 34.5926 49.2241 34.8889C49.0619 35.1407 48.8554 35.363 48.6195 35.5407C48.413 35.7037 48.1771 35.8519 47.9264 35.9556C47.3365 36.2074 46.6877 36.3259 46.0388 36.2963V19.2741H43.9743C43.3107 19.2741 42.6471 19.1407 42.0278 18.8741C41.7771 18.7556 41.5411 18.6222 41.3199 18.4444C41.084 18.2667 40.8775 18.0593 40.7006 17.8074C40.5089 17.5259 40.3614 17.2148 40.2582 16.8889C40.1402 16.4889 40.0812 16.0741 40.096 15.6593H55.7568C55.7715 16.2815 55.6536 16.9037 55.4029 17.4667C55.2849 17.7037 55.1522 17.9259 54.9752 18.1333C54.7835 18.3556 54.5623 18.563 54.3116 18.7111C54.0167 18.8889 53.707 19.0222 53.3679 19.1259C52.955 19.2296 52.5273 19.2741 52.0997 19.2741ZM62.6434 36.0741H58.8683V15.3185C59.5172 15.2889 60.166 15.4074 60.7706 15.6741C61.0213 15.7926 61.2573 15.9407 61.4637 16.1037C61.6997 16.2963 61.9061 16.5333 62.0831 16.7852C62.2748 17.0963 62.4222 17.437 62.5107 17.7778C62.6287 18.2222 62.6877 18.6815 62.6729 19.1407V19.9852C62.6729 20.3704 62.6729 20.8444 62.6729 21.4074V23.2593C62.6729 23.9407 62.6729 24.6518 62.6729 25.3926C62.6729 26.1333 62.6729 26.8889 62.6729 27.6741C62.6729 28.4593 62.6729 29.2148 62.6729 29.9556V32.0741C62.6729 32.7556 62.6729 33.363 62.6729 33.9111C62.6729 34.4593 62.6729 34.9185 62.6729 35.3037V36.1037L62.6434 36.0741ZM83.2149 15.6593L72.5531 32.5037H79.4398C79.8674 32.4889 80.3098 32.5481 80.7227 32.6518C81.0619 32.7407 81.3716 32.8741 81.6665 33.0667C81.9172 33.2148 82.1384 33.4074 82.3153 33.6444C82.4923 33.837 82.625 34.0593 82.743 34.2963C82.9937 34.8593 83.1116 35.4667 83.0969 36.0889H66.1826L76.6674 19.2444H70.695C70.0167 19.2741 69.3531 19.1556 68.719 18.9185C68.4683 18.8148 68.2176 18.6815 67.9964 18.5037C67.7457 18.3259 67.5393 18.1185 67.3623 17.8667C67.1706 17.5852 67.0232 17.2741 66.9199 16.9333C66.802 16.5185 66.743 16.0889 66.7577 15.6593H83.2149ZM102.71 36.1037H87.1964V15.6H102.71C102.725 16.0296 102.666 16.4741 102.533 16.8889C102.43 17.2296 102.282 17.5407 102.076 17.8222C101.899 18.0741 101.678 18.2815 101.427 18.4741C101.206 18.637 100.955 18.7704 100.69 18.8741C100.055 19.1111 99.3771 19.2296 98.6987 19.1852H90.9126V23.7926H99.1264C99.1411 24.2074 99.0822 24.6074 98.9789 25.0074C98.8904 25.3333 98.7577 25.6296 98.5955 25.9111C98.448 26.1481 98.2563 26.3704 98.0351 26.5481C97.8434 26.7111 97.6222 26.8593 97.401 26.9778C96.8702 27.2444 96.2656 27.3926 95.6757 27.3926H90.9273V32.5333H99.2001C99.5983 32.5185 99.9964 32.5778 100.395 32.6815C100.704 32.7704 101.014 32.9037 101.279 33.0963C101.515 33.2444 101.722 33.437 101.899 33.6741C102.061 33.8815 102.194 34.1037 102.312 34.3259C102.577 34.8741 102.695 35.4963 102.71 36.1037ZM123.149 19.2148V30.9481C123.178 31.5556 123.193 32.1037 123.178 32.5778C123.163 33.0518 123.134 33.4815 123.104 33.8519C123.075 34.1778 123.016 34.4889 122.957 34.8148C122.913 35.0519 122.839 35.2741 122.765 35.4963C122.603 35.9407 122.411 36.237 122.19 36.3852L110.083 24.1481V36.2667C109.434 36.4148 108.756 36.3407 108.166 36.0444C107.901 35.9111 107.665 35.7333 107.473 35.5259C107.222 35.2741 107.001 34.963 106.854 34.637C106.647 34.2074 106.5 33.7481 106.411 33.2889C106.293 32.6518 106.234 32.0148 106.249 31.363V20.7852C106.219 19.8963 106.249 19.0074 106.308 18.1333C106.337 17.8074 106.382 17.4815 106.441 17.1556C106.485 16.8593 106.559 16.5778 106.662 16.3111C106.736 16.0889 106.839 15.8963 106.986 15.7185C107.104 15.5704 107.266 15.4963 107.458 15.4963C107.591 15.6296 107.768 15.8222 108.019 16.0889C108.269 16.3556 108.564 16.637 108.889 16.9926C109.213 17.3481 109.596 17.7333 109.995 18.1481C110.393 18.563 110.82 19.0222 111.278 19.4815C111.735 19.9407 112.192 20.4296 112.664 20.9333C113.136 21.437 113.607 21.9259 114.079 22.4148C115.731 24.1481 117.56 26.0593 119.536 28.1481V15.4667C120.155 15.4222 120.774 15.5407 121.335 15.7926C121.571 15.9111 121.807 16.0444 121.998 16.2222C122.234 16.4148 122.426 16.6519 122.573 16.9037C122.765 17.2148 122.898 17.5407 122.986 17.8963C123.104 18.3111 123.163 18.7704 123.149 19.2148ZM133.058 19.2296C132.793 19.2148 132.513 19.2444 132.262 19.3185C132.144 19.3481 132.026 19.3926 131.908 19.437C131.79 19.4815 131.657 19.5556 131.554 19.6296C131.421 19.7185 131.318 19.8074 131.215 19.9259C131.097 20.0444 130.994 20.1778 130.905 20.3259C130.728 20.6074 130.61 20.9185 130.581 21.2593C130.551 21.5111 130.566 21.763 130.61 22.0148C130.669 22.2667 130.758 22.5037 130.905 22.7111C131.023 22.9185 131.185 23.0963 131.377 23.2444C131.584 23.3926 131.805 23.5259 132.041 23.6148C132.365 23.7333 132.719 23.7926 133.073 23.7778H137.571C139.384 23.7778 140.859 24.3111 142.024 25.3926C142.599 25.8963 143.042 26.5333 143.322 27.2444C143.617 28.0148 143.749 28.8444 143.735 29.6593L143.72 30.0741C143.735 30.8889 143.587 31.7185 143.292 32.4741C143.012 33.1852 142.57 33.837 141.995 34.3407C140.844 35.4074 139.355 35.9407 137.556 35.9407H131.038C130.419 35.9556 129.799 35.8222 129.239 35.5704C129.003 35.4667 128.782 35.3185 128.59 35.1556C128.369 34.9778 128.162 34.7704 128.015 34.5185C127.838 34.237 127.705 33.9259 127.602 33.6148C127.484 33.2148 127.44 32.8 127.44 32.3704H137.733C137.998 32.3407 138.249 32.2815 138.5 32.1926C138.736 32.1037 138.942 32 139.149 31.8519C139.384 31.6889 139.576 31.4815 139.724 31.2296C139.842 31.0667 139.93 30.8889 139.989 30.6963C140.048 30.5333 140.092 30.3556 140.122 30.1926C140.137 30.0444 140.151 29.8815 140.137 29.7333C140.137 29.6 140.107 29.4518 140.078 29.3185C140.019 29.0222 139.901 28.7407 139.724 28.4889C139.576 28.2815 139.399 28.0889 139.193 27.9111C139.104 27.837 139.001 27.763 138.898 27.7037C138.78 27.6296 138.662 27.5704 138.544 27.5111C138.411 27.4519 138.264 27.4074 138.131 27.3778C137.969 27.3481 137.821 27.3333 137.659 27.3333H132.881C131.126 27.3333 129.696 26.8148 128.605 25.7926C127.499 24.7704 126.938 23.3926 126.938 21.6741L126.953 21.2741C126.953 19.5704 127.499 18.2074 128.605 17.1704C129.725 16.1481 131.156 15.6296 132.881 15.6296L139.62 15.6148C140.24 15.5852 140.859 15.7037 141.419 15.9407C141.655 16.0444 141.877 16.1926 142.068 16.3556C142.29 16.5333 142.496 16.7407 142.643 16.9926C142.82 17.2741 142.953 17.5852 143.042 17.9111C143.145 18.3259 143.204 18.7556 143.189 19.1852L133.058 19.2296Z" fill="#58595B"/>
<path fill-rule="evenodd" clip-rule="evenodd" d="M143.882 0.607409H155.871C157.729 0.607409 159.218 2.11852 159.233 3.98519V16.0148C159.233 14.1481 157.729 12.637 155.871 12.637H147.259V3.97037C147.23 2.1037 145.74 0.607409 143.882 0.607409Z" fill="#0E3572"/>
<path fill-rule="evenodd" clip-rule="evenodd" d="M159.233 24.9185V15.9111C159.233 14.0741 157.744 12.5778 155.9 12.563H147.244C147.082 17.1852 149.279 19.2 149.279 19.2L156.063 25.9704C156.358 26.237 156.711 26.4444 157.095 26.5778H157.552C158.481 26.5926 159.233 25.8518 159.233 24.9185Z" fill="#ED1C24"/>
<path fill-rule="evenodd" clip-rule="evenodd" d="M134.975 0.607409H143.926C145.755 0.607409 147.244 2.1037 147.259 3.95556V12.6519C142.658 12.8148 140.667 10.6074 140.667 10.6074L133.928 3.79259C133.663 3.4963 133.456 3.14074 133.323 2.75556V2.2963C133.309 1.34815 134.061 0.607409 134.975 0.607409Z" fill="#3EAFD1"/>
<path d="M2.32993 45.4518C1.91703 45.4667 1.51887 45.363 1.1797 45.1407C0.88477 44.9333 0.737305 44.5778 0.737305 44.0889V39.2593C0.796291 39.2444 0.84053 39.2296 0.899517 39.2148C0.973249 39.2 1.04698 39.1852 1.12071 39.1852C1.4009 39.1852 1.54836 39.3037 1.54836 39.5556V40.7259H3.21472C3.24422 40.7704 3.25896 40.8148 3.27371 40.8593C3.28846 40.9185 3.3032 40.9778 3.3032 41.0518C3.3032 41.2889 3.19998 41.3926 2.99353 41.3926H1.54836V44.0296C1.51887 44.2518 1.60735 44.4593 1.76956 44.6074C1.96127 44.7259 2.18247 44.7852 2.41841 44.7704C2.55113 44.7704 2.68385 44.7407 2.80182 44.7111C2.91979 44.6815 3.03777 44.6222 3.15574 44.563C3.19998 44.6074 3.22947 44.6518 3.27371 44.7111C3.3032 44.7704 3.3327 44.8444 3.3327 44.9185C3.31795 45.0815 3.21472 45.2296 3.06726 45.2889C2.83131 45.4074 2.58062 45.4518 2.32993 45.4518ZM4.8221 43.4518C4.99906 44.3407 5.58892 44.7852 6.56219 44.7852C6.82763 44.7852 7.09307 44.7407 7.32901 44.637C7.52071 44.563 7.71242 44.4593 7.87463 44.3407C8.0221 44.4148 8.11058 44.563 8.11058 44.7259C8.11058 44.8296 8.06634 44.9333 7.97786 45.0074C7.87463 45.1111 7.75666 45.1852 7.63869 45.2444C7.47648 45.3185 7.31426 45.3778 7.1373 45.4074C6.93085 45.4518 6.7244 45.4667 6.51795 45.4667C5.73638 45.4667 5.11703 45.2593 4.65989 44.8296C4.20274 44.4 3.98154 43.7778 3.98154 42.963C3.98154 42.6074 4.02578 42.2518 4.14376 41.9259C4.24698 41.6444 4.40919 41.3778 4.6009 41.1555C4.80735 40.9481 5.0433 40.7852 5.30873 40.6667C5.58892 40.5481 5.89859 40.5037 6.20827 40.5037C6.48846 40.5037 6.78339 40.5481 7.04883 40.6518C7.29952 40.7407 7.52071 40.8889 7.71242 41.0815C7.90412 41.2741 8.05159 41.4963 8.14007 41.7481C8.2433 42.0148 8.30228 42.2963 8.30228 42.5778C8.31703 42.6963 8.27279 42.8148 8.19906 42.9037C8.12532 42.9778 8.0221 43.0074 7.91887 43.0222L4.8221 43.4518ZM6.20827 41.1555C5.82486 41.1407 5.4562 41.3037 5.19076 41.5852C4.92532 41.8667 4.77786 42.2815 4.76311 42.8148L7.55021 42.4296C7.53546 42.0889 7.388 41.763 7.1668 41.5111C6.90136 41.2593 6.56219 41.1259 6.20827 41.1555ZM11.5613 41.1704C11.3401 41.1704 11.1336 41.2148 10.9272 41.2889C10.7355 41.363 10.5585 41.4815 10.4258 41.6296C10.2783 41.7926 10.1603 41.9852 10.0866 42.1926C9.99813 42.4444 9.95389 42.7111 9.96864 42.963C9.96864 43.5407 10.1161 43.9852 10.3963 44.2963C10.706 44.6074 11.1189 44.7852 11.5613 44.7556C11.7972 44.7704 12.0479 44.7259 12.2691 44.637C12.4461 44.563 12.6083 44.4741 12.7705 44.3704C12.8442 44.4 12.9032 44.4593 12.9474 44.5185C12.9917 44.5778 13.0212 44.6667 13.0212 44.7407C13.0212 44.8444 12.9769 44.9333 12.9032 45.0074C12.8147 45.0963 12.7115 45.1704 12.5935 45.2148C12.4461 45.2889 12.2838 45.3333 12.1364 45.363C11.9447 45.4074 11.753 45.4222 11.5613 45.4222C11.2368 45.4222 10.8977 45.3778 10.588 45.2741C10.3078 45.1852 10.0424 45.0222 9.82118 44.8148C9.59998 44.6074 9.42302 44.3407 9.31979 44.0444C9.18707 43.6889 9.12809 43.3185 9.14283 42.9481C9.12809 42.5778 9.20182 42.2074 9.33454 41.8667C9.45251 41.5704 9.62947 41.3185 9.85067 41.0963C10.0719 40.8889 10.3226 40.7259 10.6175 40.6222C10.9124 40.5185 11.2368 40.4593 11.5465 40.4593C11.7382 40.4593 11.9299 40.4741 12.1216 40.5185C12.2838 40.5481 12.4313 40.6074 12.5788 40.6815C12.6968 40.7407 12.7852 40.8148 12.8737 40.9037C12.9327 40.9778 12.9769 41.0667 12.9769 41.1704C12.9769 41.2444 12.9474 41.3185 12.9032 41.3778C12.859 41.437 12.8 41.4963 12.7262 41.5259C12.5788 41.4222 12.4166 41.3333 12.2396 41.2593C12.0184 41.2148 11.7825 41.1704 11.5613 41.1704ZM14.953 45.2889C14.9087 45.3037 14.8497 45.3185 14.8055 45.3333C14.7318 45.3481 14.658 45.363 14.5843 45.363C14.2894 45.363 14.1419 45.2444 14.1419 44.9926V38.7259C14.1862 38.7111 14.2451 38.6963 14.3041 38.6815C14.3779 38.6667 14.4516 38.6518 14.5253 38.6518C14.8055 38.6518 14.953 38.7704 14.953 39.0222V40.8444C15.1299 40.7407 15.3216 40.6518 15.5281 40.5926C15.764 40.5185 16.0147 40.4741 16.2654 40.4741C16.5309 40.4741 16.7815 40.5037 17.0322 40.5926C17.2534 40.6667 17.4599 40.7704 17.6368 40.9333C17.8138 41.0963 17.9465 41.2889 18.035 41.5111C18.1382 41.7778 18.1825 42.0444 18.1825 42.3259V45.2741C18.1382 45.2889 18.0792 45.3037 18.0203 45.3185C17.9465 45.3333 17.8728 45.3481 17.7991 45.3481C17.5041 45.3481 17.3714 45.2296 17.3714 44.9778V42.3407C17.3714 41.9407 17.2534 41.6296 17.0322 41.437C16.7815 41.2296 16.4719 41.1259 16.1474 41.1407C15.9262 41.1407 15.6903 41.1852 15.4838 41.2741C15.2921 41.3481 15.1152 41.4518 14.9382 41.5852L14.953 45.2889ZM22.8424 42.2518C22.8424 41.8667 22.7391 41.6 22.518 41.4222C22.2673 41.2296 21.9723 41.1407 21.6626 41.1555C21.4267 41.1555 21.176 41.1852 20.9401 41.2593C20.7484 41.3185 20.5714 41.3926 20.4092 41.4963V45.2889C20.365 45.3037 20.306 45.3185 20.2617 45.3333C20.188 45.3481 20.1143 45.363 20.0405 45.363C19.7456 45.363 19.6129 45.2444 19.6129 44.9926V41.5259C19.6129 41.4074 19.6424 41.2889 19.7014 41.1704C19.7751 41.0518 19.8783 40.963 19.9963 40.9037C20.2175 40.7704 20.4534 40.6815 20.6894 40.6074C21.0138 40.5185 21.3382 40.4741 21.6626 40.4741C22.282 40.4741 22.7539 40.6074 23.1078 40.8889C23.4617 41.1704 23.6387 41.6 23.6387 42.1926V45.2741C23.5944 45.2889 23.5355 45.3037 23.4765 45.3185C23.4027 45.3333 23.329 45.3481 23.2553 45.3481C22.9603 45.3481 22.8276 45.2296 22.8276 44.9778L22.8424 42.2518ZM29.4046 42.963C29.4046 43.3185 29.3603 43.6593 29.2424 43.9852C29.1391 44.2815 28.9917 44.5481 28.7852 44.7704C28.5788 44.9926 28.3428 45.1556 28.0627 45.2741C27.753 45.3926 27.4433 45.4518 27.1189 45.4518C26.7944 45.4518 26.47 45.3926 26.1751 45.2741C25.8949 45.1704 25.6442 44.9926 25.4525 44.7704C25.2461 44.5481 25.0838 44.2815 24.9954 43.9852C24.8774 43.6593 24.8332 43.3037 24.8332 42.963C24.8332 42.6074 24.8921 42.2667 24.9954 41.9407C25.0986 41.6444 25.2608 41.3778 25.4673 41.1555C25.6737 40.9333 25.9244 40.7704 26.1898 40.6667C26.4848 40.5481 26.8092 40.4889 27.1336 40.4889C27.458 40.4889 27.7677 40.5481 28.0774 40.6667C28.3576 40.7704 28.5935 40.9481 28.8 41.1555C29.0064 41.3778 29.1686 41.6444 29.2719 41.9407C29.3456 42.2815 29.4046 42.6222 29.4046 42.963ZM27.1041 41.1555C26.6912 41.1407 26.2931 41.3185 26.0276 41.6296C25.7622 41.9407 25.6295 42.3852 25.6295 42.963C25.6295 43.5407 25.7622 43.9852 26.0129 44.2963C26.2783 44.6222 26.6765 44.7852 27.1041 44.7704C27.517 44.8 27.9299 44.6222 28.1954 44.2963C28.4461 43.9704 28.5788 43.5259 28.5788 42.963C28.5788 42.4 28.4461 41.9556 28.1954 41.6296C27.9152 41.3185 27.517 41.1407 27.1041 41.1555ZM31.4396 45.2889C31.3954 45.3037 31.3364 45.3185 31.2921 45.3333C31.2184 45.3481 31.1447 45.363 31.0709 45.363C30.776 45.363 30.6433 45.2444 30.6433 44.9926V38.7259C30.6875 38.7111 30.7465 38.6963 30.8055 38.6815C30.8792 38.6667 30.953 38.6518 31.0267 38.6518C31.3216 38.6518 31.4544 38.7704 31.4544 39.0222L31.4396 45.2889ZM37.2792 42.963C37.2792 43.3037 37.235 43.6593 37.117 43.9852C37.0138 44.2815 36.8663 44.5481 36.6599 44.7704C36.4534 44.9926 36.2175 45.1556 35.9373 45.2741C35.6276 45.3926 35.318 45.4518 34.9935 45.4518C34.6691 45.4518 34.3447 45.3926 34.0497 45.2741C33.7696 45.1704 33.5189 44.9926 33.3272 44.7704C33.1207 44.5481 32.9585 44.2815 32.8553 43.9852C32.7373 43.6593 32.6931 43.3037 32.6931 42.963C32.6931 42.6074 32.7373 42.2667 32.8553 41.9407C32.9585 41.6444 33.1207 41.3778 33.3272 41.1555C33.5336 40.9333 33.7843 40.7704 34.0497 40.6518C34.3447 40.5333 34.6691 40.4741 34.9935 40.4741C35.318 40.4741 35.6276 40.5333 35.9373 40.6518C36.2175 40.7555 36.4534 40.9333 36.6599 41.1555C36.8663 41.3778 37.0285 41.6444 37.1318 41.9407C37.235 42.2667 37.294 42.6222 37.2792 42.963ZM34.9935 41.1555C34.5806 41.1407 34.1825 41.3037 33.917 41.6296C33.6516 41.9407 33.5189 42.3852 33.5189 42.963C33.5189 43.5407 33.6516 43.9852 33.9023 44.2963C34.1677 44.6222 34.5659 44.7852 34.9935 44.7704C35.4064 44.8 35.8046 44.6222 36.07 44.2963C36.3207 43.9852 36.4534 43.5407 36.4534 42.963C36.4534 42.3852 36.3207 41.9556 36.07 41.6296C35.8046 41.3185 35.4064 41.1407 34.9935 41.1555ZM41.5705 44.8296C41.423 44.9333 41.2756 45.0222 41.0986 45.0815C40.8627 45.1555 40.6267 45.1852 40.3908 45.1852C40.1106 45.1852 39.8156 45.1407 39.5502 45.0518C39.2995 44.963 39.0636 44.8296 38.8571 44.6518C38.6507 44.4444 38.4885 44.2074 38.3852 43.9259C38.2525 43.5852 38.1935 43.2148 38.2083 42.8444C38.2083 42.5037 38.2525 42.1481 38.3852 41.837C38.4885 41.5555 38.6507 41.3185 38.8719 41.1111C39.0783 40.9037 39.329 40.7556 39.6092 40.6667C39.9189 40.563 40.2285 40.5185 40.553 40.5185C40.8479 40.5185 41.1281 40.5481 41.4083 40.637C41.6295 40.6963 41.8507 40.8 42.0571 40.9333C42.1456 40.9926 42.2341 41.0667 42.3078 41.1555C42.3668 41.2444 42.411 41.3481 42.3963 41.4667V45.5407C42.411 45.837 42.3521 46.1333 42.2341 46.4C42.1309 46.6222 41.9686 46.8148 41.7769 46.963C41.5705 47.1111 41.3198 47.2296 41.0691 47.2889C40.7889 47.363 40.494 47.3926 40.1991 47.3926C39.9041 47.3926 39.6092 47.363 39.329 47.2889C39.1521 47.2444 38.9898 47.1852 38.8424 47.0963C38.6654 47.0222 38.5474 46.8444 38.5327 46.6518C38.5327 46.563 38.5474 46.4889 38.6064 46.4148C38.6507 46.3555 38.7097 46.2963 38.7686 46.2667C38.9456 46.4 39.1521 46.4889 39.3585 46.563C39.6239 46.6518 39.9189 46.6963 40.1991 46.6963C40.6562 46.6963 40.9954 46.6074 41.2313 46.4C41.4673 46.2074 41.5852 45.8963 41.5852 45.4667L41.5705 44.8296ZM40.4792 44.5037C40.7004 44.5185 40.9364 44.4741 41.1428 44.3704C41.305 44.2963 41.4525 44.1926 41.5705 44.0741V41.437C41.4378 41.3481 41.2903 41.2889 41.1428 41.2444C40.9511 41.1852 40.7447 41.1555 40.5382 41.1555C40.1253 41.1407 39.7272 41.2889 39.447 41.5704C39.1815 41.8518 39.0341 42.2667 39.0341 42.8148C39.0341 43.0815 39.0636 43.3333 39.1521 43.5852C39.211 43.7778 39.3143 43.9556 39.4617 44.1037C39.5944 44.237 39.7567 44.3407 39.9189 44.4C40.0958 44.4741 40.2875 44.5037 40.4792 44.5037ZM44.6378 45.2889C44.5935 45.3037 44.5345 45.3185 44.4903 45.3333C44.4166 45.3481 44.3428 45.363 44.2691 45.363C43.9742 45.363 43.8267 45.2444 43.8267 44.9926V40.637C43.8857 40.6222 43.9299 40.6074 43.9889 40.5926C44.0626 40.5778 44.1364 40.563 44.2101 40.563C44.4903 40.563 44.6378 40.6815 44.6378 40.9333V45.2889ZM43.7087 39.1407C43.7087 39.0074 43.753 38.8741 43.8562 38.7852C43.9594 38.6815 44.0921 38.637 44.2396 38.637C44.5198 38.6222 44.7557 38.8296 44.7705 39.1111C44.7852 39.3926 44.5788 39.6296 44.2986 39.6444C44.2838 39.6444 44.2691 39.6444 44.2396 39.6444C44.0921 39.6444 43.9594 39.6 43.8562 39.4963C43.753 39.4074 43.7087 39.2741 43.7087 39.1407ZM46.6875 43.437C46.8645 44.3259 47.4544 44.7704 48.4276 44.7704C48.6931 44.7704 48.9585 44.7259 49.1944 44.6222C49.3862 44.5481 49.5779 44.4444 49.7401 44.3259C49.8875 44.4 49.976 44.5481 49.976 44.7111C49.976 44.8148 49.9318 44.9185 49.858 44.9926C49.7548 45.0963 49.6368 45.1852 49.5041 45.2296C49.3419 45.3037 49.1797 45.363 49.0027 45.3926C48.7963 45.437 48.5898 45.4518 48.3834 45.4518C47.6018 45.4518 46.9825 45.2444 46.5253 44.8148C46.0682 44.3852 45.847 43.763 45.847 42.9481C45.847 42.5926 45.8912 42.237 46.0092 41.9111C46.1124 41.6296 46.2746 41.363 46.4663 41.1407C46.6728 40.9333 46.9087 40.7704 47.1742 40.6518C47.4544 40.5333 47.764 40.4889 48.0737 40.4889C48.3539 40.4889 48.6488 40.5333 48.9143 40.637C49.165 40.7407 49.3862 40.8741 49.5779 41.0667C49.7696 41.2593 49.917 41.4815 50.0055 41.7333C50.1087 42 50.1677 42.2815 50.1677 42.5778C50.1825 42.6963 50.1382 42.8148 50.0645 42.9037C49.9908 42.9778 49.8875 43.0074 49.7843 43.0222L46.6875 43.437ZM48.0885 41.1407C47.705 41.1259 47.3364 41.2889 47.0709 41.5704C46.8055 41.8518 46.658 42.2667 46.6433 42.8L49.4304 42.4148C49.4156 42.0741 49.2682 41.7481 49.047 41.4963C48.7815 41.2593 48.4424 41.1259 48.0885 41.1407ZM54.6212 44.0593C54.6359 44.4593 54.459 44.8296 54.1493 45.0815C53.8249 45.3185 53.3677 45.4518 52.7779 45.4518C52.5419 45.4518 52.306 45.437 52.07 45.3926C51.8783 45.363 51.7014 45.3037 51.5244 45.2148C51.3917 45.1556 51.2737 45.0815 51.1705 44.9778C51.0968 44.9037 51.0525 44.8 51.0378 44.6963C51.0378 44.6074 51.0673 44.5333 51.1115 44.4593C51.1557 44.3852 51.2295 44.3111 51.3032 44.2667C51.4949 44.4148 51.7161 44.5333 51.9373 44.6222C52.2027 44.7259 52.4829 44.7852 52.7631 44.7852C53.4709 44.7852 53.8101 44.5481 53.8101 44.0741C53.8101 43.6889 53.5742 43.437 53.117 43.3185L52.2765 43.0963C51.9373 43.0222 51.6276 42.8593 51.3769 42.6222C51.1852 42.4 51.082 42.1185 51.0968 41.8222C51.0968 41.6444 51.1262 41.4815 51.2 41.3185C51.2737 41.1555 51.3917 41.0074 51.5391 40.9037C51.7014 40.7704 51.8931 40.6667 52.0848 40.6074C52.3355 40.5333 52.6009 40.4889 52.8516 40.5037C53.2497 40.4889 53.6332 40.563 53.9871 40.7111C54.282 40.8444 54.4147 41.0074 54.4147 41.1852C54.4147 41.3481 54.3262 41.5111 54.1788 41.5704C54.0166 41.4667 53.8396 41.3778 53.6627 41.3037C53.412 41.2 53.1465 41.1555 52.8811 41.1555C52.6304 41.1407 52.3797 41.2148 52.1585 41.3333C51.9815 41.437 51.8783 41.6148 51.8931 41.8222C51.8931 41.9704 51.9373 42.1037 52.0405 42.2222C52.188 42.3556 52.365 42.4296 52.5419 42.4741L53.235 42.6518C53.6184 42.7259 53.9723 42.9037 54.2673 43.1704C54.5179 43.3926 54.6507 43.7333 54.6212 44.0593Z" fill="#58595B"/>
</g>
<defs>
<clipPath id="clip0_2086_4">
<rect width="160" height="48" fill="white"/>
</clipPath>
</defs>
</svg>
