<svg width="52" height="52" viewBox="0 0 52 52" fill="none" xmlns="http://www.w3.org/2000/svg">
<g clip-path="url(#clip0_2321_538)">
<path d="M33.8411 8.41882V23.9078M33.8411 8.41882H26.5395V1.11719M33.8411 8.41882L26.5395 1.11719M6.16211 23.9078V1.11719H26.5395" stroke="#0E3572" stroke-miterlimit="10" stroke-linejoin="round"/>
<path d="M38.4258 39.0539L40.9026 41.5307L45.2613 37.1719" stroke="#0E3572" stroke-miterlimit="10" stroke-linecap="round" stroke-linejoin="round"/>
<path d="M33.3369 41.3872C32.0332 42.0225 30.5687 42.379 29.0209 42.379H10.982C5.53384 42.379 1.11719 37.9623 1.11719 32.5142C1.11719 27.2804 5.19381 23.001 10.3446 22.6721C11.2771 18.1933 15.246 14.8281 20.0014 14.8281C24.7569 14.8281 28.7257 18.1933 29.6582 22.6721C34.1652 22.9598 37.8497 26.2722 38.7004 30.6021" stroke="#0E3572" stroke-miterlimit="10" stroke-linejoin="round"/>
<path d="M27.7187 37.2681C26.6781 37.7754 25.509 38.0601 24.2735 38.0601H9.87434C5.5255 38.0601 2 34.5333 2 30.1828C2 26.0035 5.25407 22.5863 9.36563 22.3237C10.1099 18.7472 13.278 16.0601 17.0739 16.0601C20.8699 16.0601 24.0379 18.7472 24.7822 22.3237C28.3799 22.5534 31.321 25.1984 32 28.6559" fill="#0E3572" fill-opacity="0.1"/>
<path d="M46.2724 47.3666L41.8426 50.8829L37.4129 47.3666C35.9752 46.2253 34.8139 44.7741 34.0156 43.1212C33.2173 41.4683 32.8027 39.6565 32.8027 37.8209V30.6147H50.8825V37.8209C50.8825 39.6565 50.4679 41.4683 49.6696 43.1212C48.8713 44.7741 47.71 46.2253 46.2724 47.3666Z" stroke="#0E3572" stroke-miterlimit="10" stroke-linejoin="round"/>
<path d="M47.1752 48.1107L43.5 51.0601L39.8248 48.1107C38.6321 47.1535 37.6686 45.9363 37.0063 44.5499C36.344 43.1636 36 41.6439 36 40.1043V34.0601H51V40.1043C51 41.6439 50.656 43.1636 49.9937 44.5499C49.3314 45.9363 48.3679 47.1535 47.1752 48.1107Z" fill="#0E3572" fill-opacity="0.1"/>
</g>
<defs>
<clipPath id="clip0_2321_538">
<rect width="52" height="52" fill="white"/>
</clipPath>
</defs>
</svg>
