<svg width="52" height="52" viewBox="0 0 52 52" fill="none" xmlns="http://www.w3.org/2000/svg">
<path d="M49.4365 48.2678H2.56095C1.56513 48.2678 0.757812 47.4605 0.757812 46.4648V10.2626H51.2396V46.4648C51.2396 47.4605 50.4323 48.2678 49.4365 48.2678Z" stroke="#0E3572" stroke-miterlimit="10" stroke-linecap="round" stroke-linejoin="round"/>
<path d="M49.3569 48.0601H6.64305C5.73564 48.0601 5 47.3591 5 46.4945V15.0601H51V46.4945C51 47.3591 50.2644 48.0601 49.3569 48.0601Z" fill="#0E3572" fill-opacity="0.1"/>
<path d="M38.5415 3.73214H49.4364C50.4323 3.73214 51.2395 4.53946 51.2395 5.53518V10.2627H0.757812V5.53518C0.757812 4.53946 1.56503 3.73214 2.56095 3.73214H34.9685" stroke="#0E3572" stroke-miterlimit="10" stroke-linecap="round" stroke-linejoin="round"/>
<path d="M15.8987 25.0134V48.2583H2.56156C1.56523 48.2583 0.757812 47.4508 0.757812 46.4545V10.2527H15.8987V21.5228" stroke="#0E3572" stroke-miterlimit="10" stroke-linecap="round" stroke-linejoin="round"/>
<path d="M5.41797 13.9868H8.00588" stroke="#0E3572" stroke-miterlimit="10" stroke-linecap="round" stroke-linejoin="round"/>
<path d="M5.41797 17.804H8.00588" stroke="#0E3572" stroke-miterlimit="10" stroke-linecap="round" stroke-linejoin="round"/>
<path d="M5.41797 21.6211H8.00588" stroke="#0E3572" stroke-miterlimit="10" stroke-linecap="round" stroke-linejoin="round"/>
<path d="M5.41797 25.4382H8.00588" stroke="#0E3572" stroke-miterlimit="10" stroke-linecap="round" stroke-linejoin="round"/>
<path d="M5.41797 29.2554H8.00588" stroke="#0E3572" stroke-miterlimit="10" stroke-linecap="round" stroke-linejoin="round"/>
<path d="M5.41797 33.0725H8.00588" stroke="#0E3572" stroke-miterlimit="10" stroke-linecap="round" stroke-linejoin="round"/>
<path d="M5.41797 36.8896H8.00588" stroke="#0E3572" stroke-miterlimit="10" stroke-linecap="round" stroke-linejoin="round"/>
<path d="M5.41797 40.7068H8.00588" stroke="#0E3572" stroke-miterlimit="10" stroke-linecap="round" stroke-linejoin="round"/>
<path d="M5.41797 44.5239H8.00588" stroke="#0E3572" stroke-miterlimit="10" stroke-linecap="round" stroke-linejoin="round"/>
<path d="M27.6302 13.9869L24.5938 21.6211" stroke="#0E3572" stroke-miterlimit="10" stroke-linecap="round" stroke-linejoin="round"/>
<path d="M30.5254 14.3527L32.5645 17.7347L30.5254 21.2549" stroke="#0E3572" stroke-miterlimit="10" stroke-linecap="round" stroke-linejoin="round"/>
<path d="M21.6973 14.3527L19.6582 17.7347L21.6973 21.2549" stroke="#0E3572" stroke-miterlimit="10" stroke-linecap="round" stroke-linejoin="round"/>
<path d="M19.6582 25.4382H36.9439" stroke="#0E3572" stroke-miterlimit="10" stroke-linecap="round" stroke-linejoin="round"/>
<path d="M19.6582 29.2554H23.034" stroke="#0E3572" stroke-miterlimit="10" stroke-linecap="round" stroke-linejoin="round"/>
<path d="M27.0156 29.2554H30.3915" stroke="#0E3572" stroke-miterlimit="10" stroke-linecap="round" stroke-linejoin="round"/>
<path d="M31.8809 33.0725H35.2567" stroke="#0E3572" stroke-miterlimit="10" stroke-linecap="round" stroke-linejoin="round"/>
<path d="M31.8809 40.7068H35.2567" stroke="#0E3572" stroke-miterlimit="10" stroke-linecap="round" stroke-linejoin="round"/>
<path d="M19.6582 44.5239H28.7031" stroke="#0E3572" stroke-miterlimit="10" stroke-linecap="round" stroke-linejoin="round"/>
<path d="M19.6582 33.0725H28.7031" stroke="#0E3572" stroke-miterlimit="10" stroke-linecap="round" stroke-linejoin="round"/>
<path d="M38.4336 33.0725H47.4785" stroke="#0E3572" stroke-miterlimit="10" stroke-linecap="round" stroke-linejoin="round"/>
<path d="M19.6582 36.8896H21.6973" stroke="#0E3572" stroke-miterlimit="10" stroke-linecap="round" stroke-linejoin="round"/>
<path d="M24.7695 36.8896H41.2403" stroke="#0E3572" stroke-miterlimit="10" stroke-linecap="round" stroke-linejoin="round"/>
<path d="M19.6582 40.7068H28.7031" stroke="#0E3572" stroke-miterlimit="10" stroke-linecap="round" stroke-linejoin="round"/>
</svg>
