<svg width="52" height="52" viewBox="0 0 52 52" fill="none" xmlns="http://www.w3.org/2000/svg">
<path d="M10.9629 29.3813H5.58594M10.9629 34.3042H5.58594M18.5859 39.2271H5.58594M38.791 29.3813H33.4141M38.791 34.3042H33.4141M46.4141 39.2271H33.4141M46.4141 44.1499H33.4141M12.0859 2.23438C7.37425 2.23438 3.55469 6.05394 3.55469 10.7656C3.55469 15.4773 7.37425 19.2969 12.0859 19.2969C16.7976 19.2969 20.6172 15.4773 20.6172 10.7656C20.6172 6.05394 16.7976 2.23438 12.0859 2.23438ZM39.9141 2.23438C35.2024 2.23438 31.3828 6.05394 31.3828 10.7656C31.3828 15.4773 35.2024 19.2969 39.9141 19.2969C44.6257 19.2969 48.4453 15.4773 48.4453 10.7656C48.4453 6.05394 44.6257 2.23438 39.9141 2.23438Z" stroke="#0E3572" stroke-miterlimit="10" stroke-linecap="round" stroke-linejoin="round"/>
<path d="M43.2597 23.7656H28.9453V49.7656H50.8828V31.3887L43.2597 23.7656Z" stroke="#0E3572" stroke-miterlimit="10" stroke-linecap="round" stroke-linejoin="round"/>
<path d="M41.3977 27.0601H29V50.0601H48V33.8036L41.3977 27.0601Z" fill="#0E3572" fill-opacity="0.1"/>
<path d="M50.8828 31.3887H43.2598V23.7656" stroke="#0E3572" stroke-miterlimit="10" stroke-linejoin="round"/>
<path d="M15.4316 23.7656H1.11719V49.7656H23.0547V31.3887L15.4316 23.7656Z" stroke="#0E3572" stroke-miterlimit="10" stroke-linecap="round" stroke-linejoin="round"/>
<path d="M16.7452 28.0601H5V50.0601H23V34.5104L16.7452 28.0601Z" fill="#0E3572" fill-opacity="0.1"/>
<path d="M23.0547 31.3887H15.4316V23.7656" stroke="#0E3572" stroke-miterlimit="10" stroke-linejoin="round"/>
<path d="M36.6019 10.3802L39.1441 12.9224L43.2281 8.83845M14.4296 8.42285L9.74414 13.1083M14.4296 13.1083L9.74414 8.42285" stroke="#0E3572" stroke-miterlimit="10" stroke-linecap="round" stroke-linejoin="round"/>
</svg>
