<svg width="122" height="28" viewBox="0 0 122 28" fill="none" xmlns="http://www.w3.org/2000/svg">
<g clip-path="url(#clip0_2362_18605)">
<path d="M46.5043 6.95135V20.7243H45.2712V9.45847H45.2348L40.23 17.8928H39.6385L34.6337 9.45847H34.5927V20.7243H33.3643V6.95135H34.5381L39.9388 16.1457L45.3122 6.95135H46.5043Z" fill="#6982A7"/>
<path d="M55.7586 6.7567C56.5158 6.74618 57.2694 6.86523 57.988 7.1089C58.6021 7.32072 59.164 7.66536 59.635 8.11916C60.092 8.56976 60.4408 9.12163 60.6542 9.73187C60.8909 10.4052 61.008 11.116 61 11.8312V15.8398C61.0095 16.5611 60.8924 17.2783 60.6542 17.9576C60.4374 18.5648 60.0891 19.1145 59.635 19.5657C59.1655 20.0226 58.6033 20.369 57.988 20.5806C56.5344 21.0502 54.9737 21.0502 53.52 20.5806C52.9012 20.3648 52.3372 20.0118 51.8684 19.5472C51.4144 19.0959 51.0661 18.5463 50.8493 17.9391C50.6127 17.2594 50.4972 16.5422 50.508 15.8212V11.8497C50.4976 11.1287 50.6131 10.4116 50.8493 9.73187C51.0661 9.12604 51.4145 8.57793 51.8684 8.12843C52.336 7.6702 52.8967 7.32216 53.5109 7.1089C54.2351 6.86238 54.9952 6.74328 55.7586 6.7567ZM59.676 11.8543C59.676 10.5614 59.3439 9.58357 58.6841 8.91161C58.0244 8.23965 57.0507 7.87818 55.7586 7.87818C54.4664 7.87818 53.4836 8.21648 52.8285 8.88844C52.1733 9.5604 51.8411 10.5336 51.8411 11.8126V15.8027C51.8411 17.0957 52.1687 18.0781 52.8285 18.7593C53.4882 19.4406 54.4619 19.7742 55.7586 19.7742C57.0553 19.7742 58.0335 19.4359 58.6841 18.7593C59.3348 18.0827 59.676 17.0957 59.676 15.8027V11.8543Z" fill="#6982A7"/>
<path d="M70.1951 6.95131C70.9554 6.94089 71.712 7.05993 72.4337 7.30351C73.056 7.51667 73.6256 7.86447 74.1035 8.32304C74.565 8.77341 74.9198 9.32493 75.1408 9.93576C75.3816 10.6177 75.5003 11.3382 75.4912 12.0629V15.6729C75.5023 16.3917 75.3836 17.1065 75.1408 17.7815C74.916 18.3837 74.5616 18.9268 74.1035 19.371C73.6249 19.8287 73.0555 20.1764 72.4337 20.3906C71.7124 20.636 70.9555 20.7551 70.1951 20.7428H65.0083V6.95131H70.1951ZM74.1626 12.1185C74.1626 10.8116 73.8305 9.81372 73.1662 9.12477C72.5019 8.43581 71.5101 8.08979 70.1906 8.0867H66.3278V19.6028H70.1906C71.4979 19.6028 72.4868 19.2706 73.1571 18.6064C73.8305 17.9391 74.1626 16.9566 74.1626 15.6498V12.1185Z" fill="#6982A7"/>
<path d="M81.2376 6.95135V20.7243H79.9136V6.95135H81.2376Z" fill="#6982A7"/>
<path d="M95.0056 6.95135V8.10991H87.5257V13.24H93.9228V14.3383H87.5257V20.7243H86.2017V6.95135H95.0056Z" fill="#6982A7"/>
<path d="M103.282 6.75672C104.039 6.74585 104.793 6.86492 105.511 7.10893C106.127 7.31961 106.691 7.66435 107.163 8.11919C107.621 8.5693 107.972 9.12122 108.186 9.7319C108.422 10.4055 108.537 11.1164 108.528 11.8312V15.8398C108.538 16.5608 108.423 17.278 108.186 17.9577C107.97 18.5648 107.621 19.1145 107.167 19.5657C106.697 20.0236 106.133 20.3701 105.516 20.5806C104.062 21.0502 102.501 21.0502 101.048 20.5806C100.436 20.3678 99.8766 20.0215 99.4097 19.5657C98.9557 19.1145 98.6073 18.5648 98.3905 17.9577C98.1502 17.2789 98.0331 16.5613 98.0447 15.8398V11.8497C98.0335 11.1283 98.1506 10.4108 98.3905 9.7319C98.6074 9.12607 98.9558 8.57796 99.4097 8.12846C99.8764 7.67128 100.435 7.32334 101.048 7.10893C101.767 6.86397 102.523 6.74489 103.282 6.75672ZM107.199 11.8544C107.199 10.5614 106.871 9.5836 106.212 8.91164C105.552 8.23968 104.583 7.87821 103.282 7.87821C101.98 7.87821 101.007 8.21651 100.356 8.88847C100.006 9.28306 99.7384 9.74535 99.568 10.2478C99.3976 10.7502 99.3283 11.2824 99.3642 11.8127V15.8027C99.3642 17.0957 99.6963 18.0781 100.356 18.7594C101.016 19.4406 101.989 19.7743 103.282 19.7743C104.574 19.7743 105.557 19.436 106.212 18.7594C106.867 18.0828 107.199 17.0957 107.199 15.8027V11.8544Z" fill="#6982A7"/>
<path d="M115.599 13.7683L110.953 6.95135H112.505L116.477 12.9759L120.412 6.95135H121.936L117.277 13.8285L122 20.7243H120.449L116.404 14.6256L112.382 20.7243H110.853L115.599 13.7683Z" fill="#6982A7"/>
<path d="M9.1543 1.14931C9.1543 1.14931 16.4341 0.685884 16.4341 7.63722V20.3906C16.4341 20.3906 20.9839 20.1311 20.9839 12.2529V7.81796C20.9839 4.16155 20.074 3.24861 18.3086 1.76102C16.4341 0.152948 13.4767 -0.926827 9.1543 1.14931Z" fill="#6982A7"/>
<path d="M16.0791 20.9143C16.0791 20.9143 15.2374 28 9.12236 28C3.00734 28 0.0226337 25.4141 0.0226337 19.6584V7.29429C0.0226337 7.29429 -0.122962 1.41809 8.03949 1.16785C8.03949 1.16785 5.51432 2.55811 5.51432 6.72892V15.9974C5.51432 15.9974 5.9147 20.9143 12.2845 20.9143H16.0791Z" fill="#6982A7"/>
</g>
<defs>
<clipPath id="clip0_2362_18605">
<rect width="122" height="28" fill="white"/>
</clipPath>
</defs>
</svg>
