<svg width="160" height="24" viewBox="0 0 160 24" fill="none" xmlns="http://www.w3.org/2000/svg">
<g clip-path="url(#clip0_2389_379)">
<path d="M100.507 0.412109C104.854 0.519368 110.407 0.200769 113.644 3.46915C116.452 6.30445 115.504 11.8721 112.612 14.3745C110.415 16.275 108.26 16.7934 105.41 16.7348C105.19 16.7274 104.803 16.6823 104.634 16.7902C104.739 18.4534 104.815 20.5249 104.748 22.1732C102.266 22.2295 99.3523 22.6504 96.9062 22.5777C96.9632 15.3727 96.5905 8.03274 96.7312 0.867995C97.639 0.688673 99.5101 0.52923 100.507 0.412109ZM104.512 7.9677C104.419 8.68634 104.513 10.152 104.526 10.9426C104.552 11.0921 104.628 11.1361 104.746 11.2321C105.028 11.3096 105.563 11.1586 105.862 11.0863C108.565 10.4318 108.757 6.92929 106.391 5.7251C105.973 5.51302 104.944 5.12528 104.489 5.25136C104.278 5.51037 104.472 7.5419 104.512 7.9677Z" fill="#6982A7"/>
<path d="M90.4357 0.715768C90.6201 0.674962 90.7201 0.73851 90.8607 0.826604C91.2264 1.49745 91.0498 2.22078 91.1701 2.96251C91.935 7.41591 92.6568 11.8761 93.3357 16.3425C93.4904 17.3908 94.1482 20.9426 94.1264 21.7632C93.049 21.8666 87.21 23.0337 86.7631 22.8062C86.517 22.3586 86.0209 19.497 85.8959 18.8518L84.4678 11.5234C83.842 8.30728 83.1186 5.06104 82.5068 1.85434C83.0982 1.81914 83.6068 1.69637 84.1818 1.63253C86.2654 1.40089 88.3615 0.962034 90.4357 0.715768Z" fill="#6982A7"/>
<path d="M126.324 24C125.986 23.6179 125.484 23.7191 124.965 23.604C124.433 23.484 123.911 23.3234 123.406 23.1235C118.463 21.1709 115.396 16.3391 115.826 11.1832C116.077 8.01781 117.618 5.07923 120.108 3.01633C125.04 -1.07774 132.528 -0.504246 136.754 4.28252C138.899 6.66541 139.979 9.77685 139.755 12.9317C139.367 17.739 136.098 21.9287 131.404 23.4151C130.76 23.6192 129.768 23.6351 129.322 24H126.324Z" fill="#6982A7"/>
<path d="M131.212 3.76239C131.729 4.99023 131.687 5.28479 130.688 6.21009L130.864 6.48463C131.399 6.32543 132.254 7.12519 132.575 7.47301C133.527 8.50318 133.968 9.70242 134.205 11.0344C135.772 11.5264 135.966 12.6889 134.231 13.165C133.489 17.8296 128.336 20.2313 124.126 17.7663C122.315 16.7061 121.568 15.0387 121.156 13.1135C119.355 12.5527 119.969 11.7384 121.171 11.0156C121.743 7.79628 123.916 5.7852 127.362 5.45727C129.58 5.24628 129.928 5.82547 131.212 3.76239Z" fill="white"/>
<path d="M130.688 6.21008L130.864 6.48462C130.755 6.52596 130.646 6.5663 130.537 6.60563C130.365 6.66682 130.055 6.79503 129.897 6.7245C130 6.53862 130.473 6.32389 130.688 6.21008Z" fill="white"/>
<path d="M123.73 12.0976C123.899 12.1475 124.318 12.5501 124.884 12.6481C125.82 12.8099 126.039 12.1333 126.354 12.1418L126.255 12.362C125.201 13.5987 124.559 13.3593 123.73 12.0976Z" fill="#6982A7"/>
<path d="M131.702 12.0419C131.712 12.1835 131.369 12.6684 131.242 12.7719C130.486 13.3894 129.937 13.1557 129.366 12.6047C129.248 12.4586 129.231 12.4194 129.164 12.2461C129.334 12.2528 129.642 12.5057 129.812 12.621L130.869 12.6697C131.102 12.5171 131.47 12.219 131.702 12.0419Z" fill="#6982A7"/>
<path d="M126.304 15.4997C126.522 15.5182 127.172 15.8698 127.797 15.9212C128.303 15.9627 128.883 15.7585 128.974 15.7828L128.89 15.9781C127.886 16.7014 127.008 16.4006 126.304 15.4997Z" fill="#6982A7"/>
<path d="M41.5474 24L41.422 23.7493C40.958 23.6955 40.1088 23.6896 39.7078 23.5865C30.0509 21.1032 27.5665 8.50744 35.6314 2.75536C44.2192 -3.36956 55.692 3.5689 54.3935 13.7166C54.0006 16.8388 52.3371 19.6798 49.7728 21.608C48.4113 22.6338 46.6591 23.3953 44.9554 23.6698C44.5577 23.734 44.0133 23.6422 43.8002 24H41.5474Z" fill="#6982A7"/>
<path d="M45.965 4.06097C45.9911 4.07948 46.0328 4.11229 46.05 4.13877C47.0721 5.71267 45.5052 6.29983 44.3264 7.06957C44.9516 6.93492 45.3769 6.78688 45.9797 6.58004C46.0242 6.60378 46.0682 6.62821 46.1119 6.65331C47.9696 7.72081 48.5559 9.2787 49.0546 11.1674C50.6167 11.772 50.6556 12.6441 49.0771 13.2552C48.209 16.9418 45.4399 19.1667 41.4237 18.7099C38.2708 18.093 36.8125 16.1828 36.052 13.2913C34.514 12.5421 34.8636 11.9306 36.0517 11.1278C36.7529 7.8041 39.1237 5.73783 42.6783 5.60059C44.5924 5.52668 44.916 5.82124 45.965 4.06097Z" fill="white"/>
<path d="M45.8308 12.6314C46.0512 12.4707 46.2266 12.3308 46.4811 12.221C46.5004 12.3873 46.4232 12.4426 46.3193 12.6137C45.3418 13.8796 44.4974 13.3018 43.8701 12.1635C44.0113 12.2065 44.4943 12.5403 44.6465 12.6407C45.0317 12.6746 45.4425 12.6478 45.8308 12.6314Z" fill="#6982A7"/>
<path d="M40.6527 12.6289C40.8602 12.4777 41.0187 12.3705 41.2371 12.2345C41.2721 12.3758 41.1721 12.4684 41.0778 12.6228C40.0948 13.7405 39.1889 13.3826 38.6133 12.1633C38.7931 12.2299 39.2004 12.5288 39.3775 12.6517C39.7923 12.6854 40.2351 12.6513 40.6527 12.6289Z" fill="#6982A7"/>
<path d="M41.1748 15.4362C41.784 15.7093 42.0691 15.9514 42.8146 15.9764C43.0828 15.9854 43.71 15.822 43.8729 15.8665L43.6998 16.1311C42.8164 16.7669 41.4728 16.5287 41.1748 15.4362Z" fill="#6982A7"/>
<path d="M77.599 0H77.6369C77.684 0.66722 78.0456 1.57205 78.253 2.23955C78.7648 3.89555 79.3007 5.54457 79.8601 7.18614C80.2944 8.48245 83.8788 19.228 83.8538 19.9102C83.6726 20.1623 76.8013 22.3228 75.8587 22.651C75.5831 22.0006 75.387 21.1819 75.226 20.4897C74.7962 18.6426 74.1748 16.8034 73.7755 14.9547C73.2932 15.3704 72.5172 16.3895 72.106 16.8965C71.1398 18.0882 70.2102 19.3276 69.1355 20.4337C68.7993 19.9374 67.8043 19.0201 67.3477 18.5284C66.7983 17.9369 65.2815 16.0686 64.6262 15.8326C64.0963 16.2556 62.5475 21.7564 61.7333 22.5836C61.2985 22.6783 54.3948 19.9388 54.0347 19.5605C53.9591 19.0914 54.7005 17.5866 54.9257 17.0479C55.4477 15.7994 55.9532 14.5445 56.4419 13.2836L59.5327 5.6429C59.8413 4.86032 61.302 0.647132 61.7594 0.387606C62.3838 0.731617 68.5137 7.84762 69.4616 8.92762C70.0751 8.10549 70.9398 7.29245 71.6364 6.5188L76.005 1.6397C76.2565 1.36106 77.5094 0.141529 77.599 0Z" fill="#6982A7"/>
<path d="M7.75858 0.248718C8.73625 0.883364 15.2586 8.84548 15.5479 8.74819C16.4662 8.43937 22.8586 0.326007 23.7012 0.311606C24.232 1.51512 24.479 2.54423 24.8592 3.73684L26.2041 7.8259C27.3101 11.3079 28.4981 14.7621 29.5626 18.2569C29.6819 18.6489 29.9915 19.1736 29.9955 19.5729C29.9968 19.7082 29.9525 19.826 29.853 19.9258C29.513 20.2673 22.6226 22.5173 22.0537 22.515C22.0151 22.5148 21.9809 22.5056 21.9453 22.4919C21.3393 20.8201 20.9274 18.5721 20.3755 16.836C20.1778 16.2138 20.0456 15.4727 19.7984 14.865C19.3871 15.502 15.6327 20.2019 15.371 20.2994C14.813 20.0137 11.199 16.2261 10.8758 15.6088C10.4763 16.4695 8.1782 22.347 7.81656 22.5797C6.99857 22.5845 1.06353 20.035 0 19.5325V19.3398C0.390883 19.0661 1.93177 14.8599 2.25069 14.0474L5.18616 6.69408L6.85181 2.62019C7.11812 1.97179 7.59719 0.896189 7.75858 0.248718Z" fill="#6982A7"/>
<path d="M141.321 0.956374C144.825 0.284426 148.943 0.32904 152.449 0.834481C155.315 1.24768 158.606 2.56481 159.547 5.46532C159.643 5.76198 159.831 6.51325 159.99 6.72676L160 6.74V9.31679C159.786 9.58193 159.7 9.98637 159.65 10.3136C158.98 14.7495 153.619 17.5119 149.339 16.6777C149.18 18.7959 149.705 20.2979 149.517 22.1514C147.912 22.4062 143.378 22.5836 141.672 22.6038C141.645 18.6448 141.574 14.6861 141.459 10.7285C141.397 7.46208 141.414 4.22549 141.321 0.956374ZM151.887 10.5105C153.395 8.85262 152.623 6.04387 150.432 5.44481C149.951 5.31318 149.676 5.1936 149.168 5.22416C149.151 5.22518 149.135 5.22629 149.118 5.2275C149.112 6.04147 149.11 10.7463 149.354 11.1902C149.828 11.5291 151.489 10.8589 151.887 10.5105Z" fill="#6982A7"/>
</g>
<defs>
<clipPath id="clip0_2389_379">
<rect width="160" height="24" fill="white"/>
</clipPath>
</defs>
</svg>
