<svg width="326" height="240" viewBox="0 0 326 240" fill="none" xmlns="http://www.w3.org/2000/svg">
<g clip-path="url(#clip0_1719_12155)">
<rect width="325.95" height="239.645" rx="9.60116" fill="white"/>
<g opacity="0.5">
<mask id="mask0_1719_12155" style="mask-type:alpha" maskUnits="userSpaceOnUse" x="-195" y="-114" width="770" height="445">
<rect width="444.394" height="444.394" transform="matrix(0.866025 0.5 -0.866025 0.5 190.001 -113.735)" fill="url(#paint0_radial_1719_12155)"/>
</mask>
<g mask="url(#mask0_1719_12155)">
<path d="M181.111 -108.179L-185.366 103.407" stroke="#B3B3B3" stroke-width="1.00012"/>
<path d="M197.147 -98.9209L-169.331 112.665" stroke="#B3B3B3" stroke-width="1.00012"/>
<path d="M213.182 -89.6624L-153.296 121.924" stroke="#B3B3B3" stroke-width="1.00012"/>
<path d="M229.218 -80.4043L-137.26 131.182" stroke="#B3B3B3" stroke-width="1.00012"/>
<path d="M245.253 -71.1467L-121.224 140.439" stroke="#B3B3B3" stroke-width="1.00012"/>
<path d="M261.29 -61.8877L-105.188 149.698" stroke="#B3B3B3" stroke-width="1.00012"/>
<path d="M277.325 -52.6289L-89.1529 158.957" stroke="#B3B3B3" stroke-width="1.00012"/>
<path d="M293.36 -43.3721L-73.1178 168.214" stroke="#B3B3B3" stroke-width="1.00012"/>
<path d="M309.398 -34.1133L-57.0797 177.473" stroke="#B3B3B3" stroke-width="1.00012"/>
<path d="M325.432 -24.8552L-41.0455 186.731" stroke="#B3B3B3" stroke-width="1.00012"/>
<path d="M341.467 -15.5972L-25.0104 195.989" stroke="#B3B3B3" stroke-width="1.00012"/>
<path d="M357.503 -6.33838L-8.97474 205.248" stroke="#B3B3B3" stroke-width="1.00012"/>
<path d="M373.54 2.91968L7.06188 214.506" stroke="#B3B3B3" stroke-width="1.00012"/>
<path d="M389.575 12.1777L23.0975 223.764" stroke="#B3B3B3" stroke-width="1.00012"/>
<path d="M405.612 21.4363L39.1341 233.022" stroke="#B3B3B3" stroke-width="1.00012"/>
<path d="M421.646 30.6943L55.1683 242.28" stroke="#B3B3B3" stroke-width="1.00012"/>
<path d="M437.683 39.9517L71.2055 251.538" stroke="#B3B3B3" stroke-width="1.00012"/>
<path d="M453.717 49.2102L87.2396 260.796" stroke="#B3B3B3" stroke-width="1.00012"/>
<path d="M469.754 58.4692L103.277 270.055" stroke="#B3B3B3" stroke-width="1.00012"/>
<path d="M485.789 67.7271L119.311 279.313" stroke="#B3B3B3" stroke-width="1.00012"/>
<path d="M501.825 76.9854L135.348 288.571" stroke="#B3B3B3" stroke-width="1.00012"/>
<path d="M517.86 86.2432L151.383 297.829" stroke="#B3B3B3" stroke-width="1.00012"/>
<path d="M533.897 95.5017L167.419 307.088" stroke="#B3B3B3" stroke-width="1.00012"/>
<path d="M549.932 104.76L183.454 316.346" stroke="#B3B3B3" stroke-width="1.00012"/>
<path d="M565.968 114.018L199.491 325.604" stroke="#B3B3B3" stroke-width="1.00012"/>
<path d="M181.111 -108.179L565.968 114.018" stroke="#B3B3B3" stroke-width="1.00012"/>
<path d="M165.84 -99.363L550.697 122.834" stroke="#B3B3B3" stroke-width="1.00012"/>
<path d="M150.571 -90.5466L535.427 131.65" stroke="#B3B3B3" stroke-width="1.00012"/>
<path d="M135.3 -81.7307L520.157 140.466" stroke="#B3B3B3" stroke-width="1.00012"/>
<path d="M120.031 -72.9143L504.887 149.283" stroke="#B3B3B3" stroke-width="1.00012"/>
<path d="M104.761 -64.0989L489.617 158.098" stroke="#B3B3B3" stroke-width="1.00012"/>
<path d="M89.4917 -55.2825L474.348 166.914" stroke="#B3B3B3" stroke-width="1.00012"/>
<path d="M74.2217 -46.4661L459.078 175.731" stroke="#B3B3B3" stroke-width="1.00012"/>
<path d="M58.9512 -37.6506L443.808 184.546" stroke="#B3B3B3" stroke-width="1.00012"/>
<path d="M43.6821 -28.8347L428.539 193.362" stroke="#B3B3B3" stroke-width="1.00012"/>
<path d="M28.4121 -20.0173L413.268 202.18" stroke="#B3B3B3" stroke-width="1.00012"/>
<path d="M13.1416 -11.2026L397.998 210.994" stroke="#B3B3B3" stroke-width="1.00012"/>
<path d="M-2.12744 -2.38574L382.729 219.811" stroke="#B3B3B3" stroke-width="1.00012"/>
<path d="M-17.3979 6.43042L367.458 228.627" stroke="#B3B3B3" stroke-width="1.00012"/>
<path d="M-32.668 15.2463L352.188 237.443" stroke="#B3B3B3" stroke-width="1.00012"/>
<path d="M-47.9375 24.0627L336.919 246.26M96.3833 107.386C96.3833 107.386 106.156 113.029 112.418 116.644" stroke="#B3B3B3" stroke-width="1.00012"/>
<path d="M-63.1934 32.8735L321.663 255.07" stroke="#B3B3B3" stroke-width="1.00012"/>
<path d="M-78.4634 41.6885L306.393 263.885" stroke="#B3B3B3" stroke-width="1.00012"/>
<path d="M-93.7339 50.5044L291.122 272.701" stroke="#B3B3B3" stroke-width="1.00012"/>
<path d="M-109.003 59.3203L275.853 281.517" stroke="#B3B3B3" stroke-width="1.00012"/>
<path d="M-124.273 68.1367L260.583 290.334" stroke="#B3B3B3" stroke-width="1.00012"/>
<path d="M-139.542 76.9526L245.314 299.15" stroke="#B3B3B3" stroke-width="1.00012"/>
<path d="M-154.813 85.7686L230.043 307.965" stroke="#B3B3B3" stroke-width="1.00012"/>
<path d="M-170.083 94.585L214.774 316.782" stroke="#B3B3B3" stroke-width="1.00012"/>
<path d="M-185.352 103.401L199.505 325.598" stroke="#B3B3B3" stroke-width="1.00012"/>
</g>
</g>
<path fill-rule="evenodd" clip-rule="evenodd" d="M157.476 72.5476L173.372 81.7257L189.27 90.9042L205.168 100.083L221.065 109.261L236.963 118.44L221.84 127.171L206.717 135.903L191.594 144.634L176.471 153.365L161.359 162.09L145.461 152.911L129.564 143.733L113.666 134.554L97.7685 125.376L81.8716 116.198L96.9836 107.473L112.106 98.7415L127.229 90.0104L142.353 81.2789L157.476 72.5476Z" fill="white"/>
<g filter="url(#filter0_i_1719_12155)">
<path fill-rule="evenodd" clip-rule="evenodd" d="M119.414 94.0113C140.436 81.8748 175.351 82.3556 197.4 95.0855C216.483 106.103 219.671 122.682 206.556 134.812L272.816 173.067L255.983 182.785L189.643 144.482C168.675 151.869 140.224 149.976 121.276 139.036C99.227 126.306 98.3937 106.148 119.414 94.0113Z" fill="white"/>
</g>
<path d="M119.414 94.0113L119.289 93.7948L119.289 93.7948L119.414 94.0113ZM197.4 95.0855L197.525 94.869V94.869L197.4 95.0855ZM206.556 134.812L206.386 134.629L206.137 134.859L206.431 135.029L206.556 134.812ZM272.816 173.067L272.941 173.283L273.316 173.067L272.941 172.85L272.816 173.067ZM255.983 182.785L255.858 183.001L255.983 183.073L256.108 183.001L255.983 182.785ZM189.643 144.482L189.768 144.265L189.668 144.208L189.56 144.246L189.643 144.482ZM121.276 139.036L121.151 139.252V139.252L121.276 139.036ZM119.414 94.0113L119.289 93.7948C119.141 93.8802 118.994 93.9661 118.849 94.0523L118.976 94.2675L119.103 94.4828C119.248 94.3974 119.393 94.3124 119.539 94.2278L119.414 94.0113ZM118.118 94.787L117.986 94.5745C117.7 94.752 117.418 94.9311 117.141 95.1116L117.277 95.3212L117.414 95.5307C117.688 95.3522 117.967 95.1751 118.25 94.9995L118.118 94.787ZM116.44 95.8798L116.299 95.6734C116.022 95.8632 115.749 96.0545 115.481 96.2474L115.627 96.4503L115.773 96.6533C116.038 96.4627 116.307 96.2737 116.581 96.0861L116.44 95.8798ZM114.816 97.0496L114.665 96.8504C114.397 97.0534 114.134 97.2581 113.877 97.4642L114.033 97.6595L114.189 97.8547C114.443 97.6512 114.703 97.4492 114.967 97.2488L114.816 97.0496ZM113.254 98.3007L113.092 98.1099C112.835 98.3272 112.584 98.5462 112.338 98.7667L112.505 98.9529L112.672 99.1391C112.914 98.9218 113.162 98.7059 113.415 98.4916L113.254 98.3007ZM111.764 99.6372L111.592 99.4561C111.348 99.6888 111.109 99.923 110.877 100.159L111.055 100.334L111.233 100.51C111.461 100.278 111.696 100.047 111.937 99.8182L111.764 99.6372ZM110.36 101.062L110.176 100.893C109.946 101.141 109.723 101.392 109.506 101.643L109.696 101.807L109.885 101.97C110.098 101.722 110.318 101.476 110.544 101.232L110.36 101.062ZM109.055 102.578L108.86 102.422C108.647 102.687 108.442 102.954 108.243 103.222L108.444 103.371L108.645 103.519C108.84 103.256 109.042 102.995 109.25 102.734L109.055 102.578ZM107.866 104.185L107.659 104.044C107.467 104.326 107.283 104.609 107.105 104.894L107.318 105.026L107.53 105.158C107.704 104.879 107.884 104.602 108.072 104.325L107.866 104.185ZM106.81 105.883L106.592 105.76C106.424 106.057 106.264 106.356 106.112 106.655L106.336 106.768L106.559 106.881C106.707 106.588 106.863 106.296 107.027 106.006L106.81 105.883ZM105.904 107.671L105.676 107.568C105.537 107.878 105.407 108.188 105.284 108.5L105.517 108.592L105.75 108.683C105.869 108.379 105.997 108.075 106.133 107.773L105.904 107.671ZM105.173 109.534L104.936 109.454C104.828 109.775 104.729 110.098 104.638 110.421L104.879 110.489L105.12 110.556C105.208 110.241 105.305 109.927 105.41 109.613L105.173 109.534ZM104.634 111.459L104.39 111.404C104.315 111.735 104.25 112.067 104.193 112.399L104.44 112.441L104.686 112.483C104.741 112.159 104.805 111.836 104.877 111.514L104.634 111.459ZM104.299 113.431L104.05 113.403C104.012 113.739 103.982 114.076 103.962 114.413L104.212 114.429L104.461 114.444C104.481 114.115 104.51 113.787 104.547 113.46L104.299 113.431ZM104.179 115.428L103.929 115.427C103.927 115.765 103.934 116.103 103.95 116.441L104.2 116.429L104.45 116.417C104.434 116.088 104.427 115.759 104.429 115.43L104.179 115.428ZM104.275 117.427L104.026 117.452C104.06 117.787 104.103 118.122 104.156 118.457L104.403 118.419L104.65 118.38C104.599 118.054 104.557 117.728 104.524 117.401L104.275 117.427ZM104.583 119.405L104.338 119.456C104.407 119.785 104.484 120.113 104.57 120.441L104.812 120.377L105.054 120.314C104.97 119.994 104.894 119.674 104.827 119.354L104.583 119.405ZM105.09 121.338L104.851 121.414C104.953 121.734 105.062 122.055 105.18 122.374L105.415 122.288L105.649 122.201C105.534 121.889 105.427 121.576 105.328 121.263L105.09 121.338ZM105.781 123.215L105.551 123.312C105.681 123.622 105.819 123.93 105.966 124.238L106.191 124.13L106.417 124.023C106.274 123.722 106.139 123.42 106.012 123.118L105.781 123.215ZM106.639 125.024L106.418 125.141C106.574 125.436 106.737 125.731 106.908 126.024L107.124 125.899L107.34 125.773C107.173 125.485 107.013 125.197 106.86 124.907L106.639 125.024ZM107.645 126.757L107.434 126.891C107.612 127.172 107.797 127.452 107.988 127.73L108.194 127.588L108.4 127.447C108.212 127.173 108.031 126.899 107.856 126.623L107.645 126.757ZM108.779 128.408L108.578 128.556C108.776 128.823 108.98 129.088 109.19 129.352L109.385 129.197L109.581 129.041C109.375 128.781 109.174 128.521 108.98 128.259L108.779 128.408ZM110.023 129.973L109.833 130.135C110.048 130.388 110.269 130.64 110.496 130.891L110.681 130.723L110.867 130.555C110.643 130.308 110.426 130.06 110.214 129.811L110.023 129.973ZM111.365 131.457L111.185 131.63C111.415 131.87 111.65 132.108 111.892 132.345L112.067 132.167L112.242 131.989C112.005 131.755 111.772 131.52 111.545 131.283L111.365 131.457ZM112.791 132.861L112.62 133.044C112.864 133.27 113.112 133.496 113.365 133.72L113.531 133.532L113.696 133.345C113.446 133.124 113.201 132.901 112.961 132.678L112.791 132.861ZM114.29 134.188L114.129 134.379C114.383 134.593 114.642 134.805 114.905 135.016L115.061 134.821L115.218 134.626C114.958 134.417 114.702 134.207 114.451 133.996L114.29 134.188ZM115.853 135.44L115.701 135.639C115.964 135.84 116.232 136.04 116.503 136.238L116.651 136.036L116.798 135.834C116.529 135.638 116.265 135.441 116.005 135.242L115.853 135.44ZM117.472 136.623L117.329 136.828C117.599 137.016 117.874 137.204 118.152 137.39L118.291 137.182L118.43 136.974C118.154 136.79 117.883 136.604 117.615 136.418L117.472 136.623ZM119.135 137.734L119.001 137.945C119.279 138.123 119.561 138.3 119.847 138.476L119.977 138.263L120.108 138.049C119.825 137.876 119.546 137.7 119.27 137.524L119.135 137.734ZM120.837 138.78L120.71 138.995C120.856 139.081 121.003 139.167 121.151 139.252L121.276 139.036L121.401 138.819C121.254 138.735 121.109 138.65 120.964 138.565L120.837 138.78ZM121.276 139.036L121.151 139.252C121.296 139.336 121.442 139.419 121.588 139.502L121.711 139.285L121.834 139.067C121.689 138.985 121.545 138.902 121.401 138.819L121.276 139.036ZM122.592 139.773L122.472 139.992C122.768 140.153 123.066 140.311 123.365 140.468L123.481 140.246L123.597 140.024C123.299 139.869 123.004 139.712 122.711 139.553L122.592 139.773ZM124.377 140.704L124.265 140.928C124.566 141.079 124.869 141.227 125.173 141.374L125.282 141.149L125.39 140.923C125.088 140.778 124.788 140.63 124.489 140.481L124.377 140.704ZM126.192 141.578L126.087 141.805C126.392 141.946 126.7 142.085 127.009 142.222L127.11 141.994L127.212 141.765C126.905 141.629 126.6 141.491 126.297 141.351L126.192 141.578ZM128.033 142.395L127.935 142.625C128.244 142.757 128.556 142.887 128.869 143.015L128.963 142.783L129.058 142.552C128.747 142.425 128.438 142.296 128.131 142.165L128.033 142.395ZM129.897 143.157L129.805 143.39C130.119 143.513 130.434 143.634 130.751 143.753L130.839 143.519L130.927 143.285C130.612 143.167 130.299 143.046 129.988 142.924L129.897 143.157ZM131.782 143.866L131.697 144.102C132.014 144.216 132.332 144.328 132.651 144.438L132.733 144.202L132.815 143.966C132.497 143.856 132.181 143.745 131.867 143.631L131.782 143.866ZM133.685 144.524L133.607 144.761C133.926 144.867 134.247 144.971 134.569 145.073L134.645 144.834L134.72 144.596C134.4 144.495 134.081 144.392 133.764 144.287L133.685 144.524ZM135.606 145.132L135.533 145.371C135.855 145.468 136.178 145.564 136.503 145.658L136.572 145.417L136.641 145.177C136.319 145.084 135.998 144.989 135.678 144.892L135.606 145.132ZM137.541 145.691L137.475 145.932C137.799 146.021 138.124 146.108 138.45 146.194L138.513 145.952L138.577 145.71C138.253 145.625 137.93 145.538 137.607 145.45L137.541 145.691ZM139.49 146.202L139.429 146.445C139.755 146.526 140.082 146.606 140.41 146.683L140.467 146.44L140.525 146.197C140.199 146.119 139.874 146.04 139.55 145.959L139.49 146.202ZM141.45 146.667L141.395 146.911C141.723 146.984 142.051 147.056 142.38 147.126L142.432 146.882L142.484 146.637C142.157 146.568 141.83 146.496 141.504 146.423L141.45 146.667ZM143.42 147.086L143.37 147.331C143.7 147.397 144.03 147.461 144.361 147.524L144.407 147.278L144.454 147.033C144.125 146.97 143.796 146.906 143.469 146.841L143.42 147.086ZM145.398 147.46L145.354 147.706C145.686 147.765 146.017 147.822 146.349 147.877L146.39 147.631L146.431 147.384C146.101 147.329 145.771 147.272 145.442 147.214L145.398 147.46ZM147.385 147.79L147.346 148.037C147.679 148.089 148.012 148.139 148.345 148.187L148.381 147.939L148.416 147.692C148.085 147.644 147.754 147.594 147.423 147.543L147.385 147.79ZM149.378 148.077L149.345 148.325C149.679 148.369 150.013 148.412 150.347 148.452L150.378 148.204L150.408 147.956C150.075 147.916 149.743 147.873 149.411 147.829L149.378 148.077ZM151.377 148.321L151.35 148.569C151.684 148.606 152.019 148.642 152.354 148.675L152.379 148.427L152.404 148.178C152.071 148.144 151.738 148.109 151.405 148.072L151.377 148.321ZM153.382 148.522L153.359 148.771C153.694 148.801 154.03 148.829 154.365 148.856L154.385 148.607L154.405 148.357C154.071 148.331 153.737 148.303 153.404 148.273L153.382 148.522ZM155.389 148.681L155.372 148.93C155.708 148.953 156.044 148.975 156.38 148.994L156.395 148.745L156.409 148.495C156.075 148.476 155.741 148.454 155.407 148.431L155.389 148.681ZM157.4 148.798L157.388 149.047C157.725 149.063 158.061 149.078 158.397 149.09L158.406 148.84L158.416 148.59C158.081 148.578 157.747 148.564 157.412 148.548L157.4 148.798ZM159.413 148.872L159.406 149.122C159.743 149.131 160.079 149.139 160.416 149.144L160.42 148.894L160.424 148.644C160.089 148.639 159.754 148.631 159.419 148.622L159.413 148.872ZM161.426 148.905L161.425 149.155C161.762 149.157 162.099 149.157 162.435 149.156L162.434 148.905L162.433 148.655C162.098 148.657 161.763 148.657 161.428 148.655L161.426 148.905ZM163.441 148.895L163.444 149.145C163.781 149.14 164.118 149.133 164.454 149.125L164.448 148.875L164.441 148.625C164.107 148.633 163.772 148.64 163.437 148.645L163.441 148.895ZM165.454 148.843L165.463 149.093C165.8 149.081 166.136 149.067 166.472 149.051L166.46 148.801L166.449 148.551C166.114 148.567 165.78 148.581 165.445 148.593L165.454 148.843ZM167.466 148.748L167.481 148.998C167.817 148.978 168.153 148.957 168.488 148.934L168.471 148.685L168.453 148.435C168.12 148.458 167.786 148.479 167.452 148.499L167.466 148.748ZM169.476 148.61L169.496 148.859C169.831 148.832 170.166 148.804 170.501 148.773L170.478 148.524L170.455 148.275C170.123 148.306 169.79 148.334 169.456 148.361L169.476 148.61ZM171.482 148.428L171.507 148.676C171.842 148.642 172.176 148.606 172.51 148.568L172.482 148.32L172.454 148.071C172.122 148.109 171.789 148.145 171.456 148.179L171.482 148.428ZM173.483 148.201L173.514 148.449C173.848 148.407 174.182 148.363 174.515 148.318L174.481 148.07L174.447 147.822C174.116 147.868 173.784 147.911 173.452 147.953L173.483 148.201ZM175.478 147.928L175.515 148.176C175.848 148.126 176.181 148.075 176.513 148.021L176.474 147.775L176.434 147.528C176.104 147.581 175.773 147.632 175.441 147.681L175.478 147.928ZM177.466 147.609L177.509 147.856C177.841 147.798 178.173 147.739 178.504 147.678L178.459 147.432L178.413 147.186C178.084 147.247 177.754 147.306 177.424 147.363L177.466 147.609ZM179.446 147.243L179.495 147.488C179.826 147.423 180.157 147.355 180.486 147.286L180.434 147.041L180.383 146.796C180.056 146.865 179.727 146.933 179.398 146.998L179.446 147.243ZM181.416 146.828L181.471 147.072C181.801 146.998 182.13 146.922 182.458 146.844L182.4 146.601L182.342 146.358C182.016 146.435 181.69 146.51 181.362 146.584L181.416 146.828ZM183.376 146.362L183.437 146.604C183.765 146.522 184.092 146.438 184.417 146.351L184.353 146.109L184.289 145.868C183.966 145.954 183.641 146.038 183.315 146.12L183.376 146.362ZM185.323 145.844L185.391 146.085C185.716 145.994 186.04 145.901 186.363 145.805L186.292 145.565L186.221 145.326C185.901 145.42 185.579 145.513 185.256 145.604L185.323 145.844ZM187.255 145.273L187.329 145.512C187.652 145.412 187.973 145.309 188.293 145.205L188.215 144.967L188.137 144.729C187.82 144.833 187.501 144.935 187.181 145.035L187.255 145.273ZM189.169 144.647L189.251 144.883C189.41 144.829 189.568 144.773 189.726 144.718L189.643 144.482L189.56 144.246C189.403 144.301 189.246 144.356 189.088 144.41L189.169 144.647ZM189.643 144.482L189.518 144.699L189.954 144.951L190.079 144.734L190.204 144.517L189.768 144.265L189.643 144.482ZM190.952 145.238L190.827 145.454L191.7 145.958L191.825 145.742L191.95 145.525L191.077 145.021L190.952 145.238ZM192.698 146.246L192.573 146.462L193.446 146.966L193.571 146.75L193.696 146.533L192.823 146.029L192.698 146.246ZM194.444 147.254L194.319 147.47L195.192 147.974L195.317 147.758L195.442 147.541L194.569 147.037L194.444 147.254ZM196.19 148.262L196.065 148.478L196.938 148.982L197.063 148.766L197.188 148.549L196.315 148.045L196.19 148.262ZM197.935 149.27L197.81 149.486L198.683 149.99L198.808 149.774L198.933 149.557L198.06 149.053L197.935 149.27ZM199.681 150.278L199.556 150.494L200.429 150.998L200.554 150.782L200.679 150.565L199.806 150.061L199.681 150.278ZM201.427 151.286L201.302 151.502L202.175 152.006L202.3 151.79L202.425 151.573L201.552 151.069L201.427 151.286ZM203.173 152.294L203.048 152.51L203.921 153.014L204.046 152.798L204.171 152.581L203.298 152.077L203.173 152.294ZM204.919 153.302L204.794 153.518L205.666 154.022L205.791 153.806L205.917 153.589L205.044 153.085L204.919 153.302ZM206.664 154.31L206.539 154.526L207.412 155.03L207.537 154.814L207.662 154.597L206.789 154.093L206.664 154.31ZM208.41 155.318L208.285 155.534L209.158 156.038L209.283 155.822L209.408 155.605L208.535 155.101L208.41 155.318ZM210.156 156.326L210.031 156.542L210.904 157.046L211.029 156.83L211.154 156.613L210.281 156.109L210.156 156.326ZM211.902 157.334L211.777 157.55L212.65 158.054L212.775 157.838L212.9 157.621L212.027 157.117L211.902 157.334ZM213.648 158.342L213.523 158.558L214.395 159.062L214.52 158.846L214.645 158.629L213.773 158.125L213.648 158.342ZM215.393 159.349L215.268 159.566L216.141 160.07L216.266 159.853L216.391 159.637L215.518 159.133L215.393 159.349ZM217.139 160.357L217.014 160.574L217.887 161.078L218.012 160.861L218.137 160.645L217.264 160.141L217.139 160.357ZM218.885 161.365L218.76 161.582L219.633 162.086L219.758 161.869L219.883 161.653L219.01 161.149L218.885 161.365ZM220.631 162.373L220.506 162.59L221.379 163.094L221.504 162.877L221.629 162.661L220.756 162.157L220.631 162.373ZM222.376 163.381L222.251 163.598L223.124 164.102L223.249 163.885L223.374 163.669L222.501 163.165L222.376 163.381ZM224.122 164.389L223.997 164.606L224.87 165.11L224.995 164.893L225.12 164.677L224.247 164.173L224.122 164.389ZM225.868 165.397L225.743 165.614L226.616 166.118L226.741 165.901L226.866 165.685L225.993 165.181L225.868 165.397ZM227.614 166.405L227.489 166.622L228.362 167.126L228.487 166.909L228.612 166.693L227.739 166.189L227.614 166.405ZM229.36 167.413L229.235 167.63L230.107 168.134L230.232 167.917L230.357 167.701L229.485 167.197L229.36 167.413ZM231.105 168.421L230.98 168.638L231.853 169.142L231.978 168.925L232.103 168.709L231.23 168.205L231.105 168.421ZM232.851 169.429L232.726 169.646L233.599 170.15L233.724 169.933L233.849 169.717L232.976 169.213L232.851 169.429ZM234.597 170.437L234.472 170.654L235.345 171.158L235.47 170.941L235.595 170.725L234.722 170.221L234.597 170.437ZM236.343 171.445L236.218 171.662L237.091 172.166L237.216 171.949L237.341 171.733L236.468 171.229L236.343 171.445ZM238.089 172.453L237.963 172.67L238.836 173.174L238.961 172.957L239.086 172.741L238.214 172.237L238.089 172.453ZM239.834 173.461L239.709 173.678L240.582 174.182L240.707 173.965L240.832 173.748L239.959 173.244L239.834 173.461ZM241.58 174.469L241.455 174.686L242.328 175.189L242.453 174.973L242.578 174.756L241.705 174.252L241.58 174.469ZM243.326 175.477L243.201 175.693L244.074 176.197L244.199 175.981L244.324 175.764L243.451 175.26L243.326 175.477ZM245.072 176.485L244.947 176.701L245.82 177.205L245.945 176.989L246.07 176.772L245.197 176.268L245.072 176.485ZM246.817 177.493L246.692 177.709L247.565 178.213L247.69 177.997L247.815 177.78L246.942 177.276L246.817 177.493ZM248.563 178.501L248.438 178.717L249.311 179.221L249.436 179.005L249.561 178.788L248.688 178.284L248.563 178.501ZM250.309 179.509L250.184 179.725L251.057 180.229L251.182 180.013L251.307 179.796L250.434 179.292L250.309 179.509ZM252.055 180.517L251.93 180.733L252.803 181.237L252.928 181.021L253.053 180.804L252.18 180.3L252.055 180.517ZM253.801 181.525L253.676 181.741L254.548 182.245L254.673 182.029L254.799 181.812L253.926 181.308L253.801 181.525ZM255.546 182.533L255.421 182.749L255.858 183.001L255.983 182.785L256.108 182.568L255.671 182.316L255.546 182.533ZM255.983 182.785L256.108 183.001L256.529 182.758L256.404 182.542L256.279 182.325L255.858 182.568L255.983 182.785ZM257.245 182.056L257.37 182.272L258.212 181.787L258.087 181.57L257.962 181.353L257.12 181.839L257.245 182.056ZM258.929 181.084L259.054 181.301L259.895 180.815L259.77 180.598L259.645 180.382L258.804 180.868L258.929 181.084ZM260.612 180.112L260.737 180.329L261.579 179.843L261.454 179.626L261.329 179.41L260.487 179.896L260.612 180.112ZM262.295 179.141L262.42 179.357L263.262 178.871L263.137 178.655L263.012 178.438L262.17 178.924L262.295 179.141ZM263.979 178.169L264.104 178.385L264.945 177.899L264.82 177.683L264.695 177.466L263.854 177.952L263.979 178.169ZM265.662 177.197L265.787 177.414L266.628 176.928L266.503 176.711L266.378 176.495L265.537 176.98L265.662 177.197ZM267.345 176.225L267.47 176.442L268.312 175.956L268.187 175.739L268.062 175.523L267.22 176.009L267.345 176.225ZM269.028 175.253L269.153 175.47L269.995 174.984L269.87 174.768L269.745 174.551L268.903 175.037L269.028 175.253ZM270.712 174.282L270.837 174.498L271.678 174.012L271.553 173.796L271.428 173.579L270.587 174.065L270.712 174.282ZM272.395 173.31L272.52 173.526L272.941 173.283L272.816 173.067L272.691 172.85L272.27 173.093L272.395 173.31ZM272.816 173.067L272.941 172.85L272.505 172.599L272.38 172.815L272.255 173.032L272.691 173.283L272.816 173.067ZM271.508 172.312L271.633 172.095L270.761 171.592L270.636 171.809L270.511 172.025L271.383 172.528L271.508 172.312ZM269.764 171.305L269.889 171.089L269.018 170.585L268.893 170.802L268.768 171.018L269.639 171.522L269.764 171.305ZM268.021 170.299L268.146 170.082L267.274 169.579L267.149 169.795L267.024 170.012L267.896 170.515L268.021 170.299ZM266.277 169.292L266.402 169.075L265.53 168.572L265.405 168.788L265.28 169.005L266.152 169.508L266.277 169.292ZM264.533 168.285L264.658 168.069L263.787 167.565L263.662 167.782L263.537 167.998L264.408 168.502L264.533 168.285ZM262.79 167.278L262.915 167.062L262.043 166.558L261.918 166.775L261.793 166.992L262.665 167.495L262.79 167.278ZM261.046 166.272L261.171 166.055L260.299 165.552L260.174 165.768L260.049 165.985L260.921 166.488L261.046 166.272ZM259.302 165.265L259.427 165.048L258.555 164.545L258.43 164.762L258.305 164.978L259.177 165.481L259.302 165.265ZM257.559 164.258L257.684 164.042L256.812 163.538L256.687 163.755L256.562 163.971L257.434 164.475L257.559 164.258ZM255.815 163.252L255.94 163.035L255.068 162.532L254.943 162.748L254.818 162.965L255.69 163.468L255.815 163.252ZM254.071 162.245L254.196 162.028L253.324 161.525L253.199 161.741L253.074 161.958L253.946 162.461L254.071 162.245ZM252.328 161.238L252.453 161.022L251.581 160.518L251.456 160.735L251.331 160.951L252.203 161.455L252.328 161.238ZM250.584 160.231L250.709 160.015L249.837 159.512L249.712 159.728L249.587 159.945L250.459 160.448L250.584 160.231ZM248.84 159.225L248.965 159.008L248.093 158.505L247.968 158.721L247.843 158.938L248.715 159.441L248.84 159.225ZM247.097 158.218L247.222 158.001L246.35 157.498L246.225 157.715L246.1 157.931L246.972 158.435L247.097 158.218ZM245.353 157.211L245.478 156.995L244.606 156.491L244.481 156.708L244.356 156.924L245.228 157.428L245.353 157.211ZM243.609 156.205L243.734 155.988L242.862 155.485L242.737 155.701L242.612 155.918L243.484 156.421L243.609 156.205ZM241.866 155.198L241.991 154.981L241.119 154.478L240.994 154.695L240.869 154.911L241.741 155.414L241.866 155.198ZM240.122 154.191L240.247 153.975L239.375 153.471L239.25 153.688L239.125 153.904L239.997 154.408L240.122 154.191ZM238.378 153.184L238.503 152.968L237.631 152.465L237.506 152.681L237.381 152.898L238.253 153.401L238.378 153.184ZM236.635 152.178L236.76 151.961L235.888 151.458L235.763 151.674L235.638 151.891L236.51 152.394L236.635 152.178ZM234.891 151.171L235.016 150.955L234.144 150.451L234.019 150.668L233.894 150.884L234.766 151.388L234.891 151.171ZM233.147 150.164L233.272 149.948L232.4 149.444L232.275 149.661L232.15 149.878L233.022 150.381L233.147 150.164ZM231.403 149.158L231.529 148.941L230.657 148.438L230.532 148.654L230.407 148.871L231.278 149.374L231.403 149.158ZM229.66 148.151L229.785 147.934L228.913 147.431L228.788 147.648L228.663 147.864L229.535 148.367L229.66 148.151ZM227.916 147.144L228.041 146.928L227.169 146.424L227.044 146.641L226.919 146.857L227.791 147.361L227.916 147.144ZM226.172 146.138L226.297 145.921L225.426 145.418L225.301 145.634L225.176 145.851L226.047 146.354L226.172 146.138ZM224.429 145.131L224.554 144.914L223.682 144.411L223.557 144.627L223.432 144.844L224.304 145.347L224.429 145.131ZM222.685 144.124L222.81 143.908L221.938 143.404L221.813 143.621L221.688 143.837L222.56 144.341L222.685 144.124ZM220.941 143.117L221.066 142.901L220.195 142.398L220.07 142.614L219.945 142.831L220.816 143.334L220.941 143.117ZM219.198 142.111L219.323 141.894L218.451 141.391L218.326 141.607L218.201 141.824L219.073 142.327L219.198 142.111ZM217.454 141.104L217.579 140.887L216.707 140.384L216.582 140.601L216.457 140.817L217.329 141.321L217.454 141.104ZM215.71 140.097L215.835 139.881L214.964 139.377L214.839 139.594L214.714 139.81L215.585 140.314L215.71 140.097ZM213.967 139.091L214.092 138.874L213.22 138.371L213.095 138.587L212.97 138.804L213.842 139.307L213.967 139.091ZM212.223 138.084L212.348 137.867L211.476 137.364L211.351 137.581L211.226 137.797L212.098 138.3L212.223 138.084ZM210.479 137.077L210.604 136.861L209.733 136.357L209.608 136.574L209.483 136.79L210.354 137.294L210.479 137.077ZM208.736 136.07L208.861 135.854L207.989 135.351L207.864 135.567L207.739 135.784L208.611 136.287L208.736 136.07ZM206.992 135.064L207.117 134.847L206.681 134.596L206.556 134.812L206.431 135.029L206.867 135.28L206.992 135.064ZM206.556 134.812L206.726 134.996C206.849 134.882 206.97 134.768 207.09 134.654L206.917 134.473L206.745 134.292C206.627 134.404 206.507 134.517 206.386 134.629L206.556 134.812ZM207.615 133.788L207.793 133.963C208.027 133.726 208.255 133.487 208.478 133.246L208.294 133.076L208.111 132.907C207.892 133.143 207.667 133.378 207.437 133.612L207.615 133.788ZM208.946 132.348L209.135 132.512C209.353 132.26 209.565 132.006 209.77 131.751L209.575 131.594L209.38 131.437C209.179 131.688 208.971 131.937 208.757 132.185L208.946 132.348ZM210.176 130.819L210.377 130.968C210.575 130.702 210.766 130.435 210.951 130.167L210.745 130.025L210.539 129.883C210.358 130.147 210.17 130.409 209.976 130.669L210.176 130.819ZM211.286 129.204L211.497 129.337C211.675 129.055 211.845 128.772 212.008 128.488L211.791 128.363L211.574 128.239C211.415 128.517 211.248 128.795 211.074 129.07L211.286 129.204ZM212.258 127.505L212.481 127.62C212.634 127.323 212.779 127.026 212.917 126.727L212.689 126.622L212.462 126.518C212.328 126.81 212.186 127.1 212.036 127.39L212.258 127.505ZM213.079 125.722L213.311 125.816C213.435 125.508 213.552 125.199 213.66 124.889L213.424 124.806L213.188 124.724C213.082 125.026 212.969 125.328 212.847 125.628L213.079 125.722ZM213.725 123.873L213.964 123.944C214.059 123.625 214.144 123.305 214.221 122.984L213.978 122.925L213.735 122.867C213.66 123.18 213.577 123.492 213.485 123.803L213.725 123.873ZM214.182 121.967L214.428 122.013C214.489 121.687 214.541 121.36 214.584 121.032L214.336 121L214.088 120.967C214.046 121.285 213.996 121.604 213.937 121.921L214.182 121.967ZM214.439 120.024L214.688 120.044C214.714 119.714 214.731 119.383 214.74 119.052L214.49 119.046L214.24 119.039C214.232 119.361 214.215 119.683 214.19 120.005L214.439 120.024ZM214.488 118.066L214.738 118.059C214.729 117.728 214.711 117.397 214.684 117.066L214.435 117.086L214.186 117.107C214.212 117.429 214.229 117.751 214.238 118.073L214.488 118.066ZM214.331 116.112L214.579 116.079C214.535 115.752 214.483 115.426 214.422 115.099L214.176 115.145L213.931 115.191C213.99 115.509 214.041 115.827 214.083 116.145L214.331 116.112ZM213.973 114.186L214.216 114.128C214.14 113.807 214.055 113.486 213.962 113.166L213.722 113.236L213.482 113.306C213.573 113.618 213.655 113.931 213.73 114.244L213.973 114.186ZM213.427 112.304L213.664 112.223C213.557 111.912 213.443 111.602 213.321 111.293L213.089 111.384L212.856 111.476C212.975 111.778 213.087 112.081 213.191 112.385L213.427 112.304ZM212.708 110.478L212.937 110.377C212.803 110.077 212.662 109.779 212.514 109.482L212.29 109.593L212.067 109.705C212.212 109.996 212.349 110.288 212.48 110.58L212.708 110.478ZM211.836 108.726L212.055 108.606C211.897 108.318 211.732 108.031 211.56 107.745L211.345 107.874L211.131 108.003C211.3 108.283 211.462 108.565 211.617 108.847L211.836 108.726ZM210.825 107.045L211.034 106.909C210.855 106.635 210.67 106.363 210.478 106.092L210.274 106.236L210.07 106.38C210.258 106.647 210.44 106.914 210.616 107.182L210.825 107.045ZM209.692 105.442L209.891 105.29C209.694 105.031 209.492 104.773 209.283 104.517L209.089 104.674L208.895 104.832C209.1 105.085 209.3 105.338 209.493 105.593L209.692 105.442ZM208.458 103.923L208.647 103.759C208.433 103.512 208.214 103.266 207.989 103.021L207.805 103.19L207.621 103.36C207.842 103.601 208.059 103.843 208.269 104.086L208.458 103.923ZM207.133 102.481L207.312 102.306C207.083 102.071 206.848 101.837 206.609 101.604L206.435 101.784L206.26 101.963C206.497 102.193 206.728 102.423 206.954 102.655L207.133 102.481ZM205.727 101.114L205.896 100.93C205.656 100.709 205.41 100.488 205.16 100.269L204.995 100.457L204.83 100.645C205.078 100.861 205.32 101.079 205.557 101.298L205.727 101.114ZM204.252 99.8217L204.412 99.6296C204.161 99.4206 203.906 99.2127 203.647 99.0062L203.491 99.2019L203.335 99.3975C203.592 99.6017 203.844 99.8071 204.092 100.014L204.252 99.8217ZM202.717 98.6004L202.868 98.4013C202.609 98.2042 202.345 98.0084 202.077 97.8138L201.93 98.0161L201.784 98.2184C202.049 98.4109 202.309 98.6046 202.566 98.7995L202.717 98.6004ZM201.131 97.4477L201.273 97.2424C201.006 97.0566 200.735 96.872 200.46 96.6887L200.321 96.8968L200.183 97.1048C200.455 97.2863 200.723 97.4691 200.988 97.653L201.131 97.4477ZM199.499 96.3604L199.634 96.1497C199.359 95.9744 199.081 95.8004 198.8 95.6276L198.669 95.8408L198.538 96.0539C198.817 96.2251 199.093 96.3975 199.364 96.5711L199.499 96.3604ZM197.828 95.3354L197.955 95.12C197.813 95.036 197.669 94.9523 197.525 94.869L197.4 95.0855L197.275 95.302C197.418 95.3847 197.56 95.4676 197.701 95.5508L197.828 95.3354ZM197.4 95.0855L197.525 94.869C197.382 94.7867 197.239 94.705 197.096 94.6238L196.973 94.8414L196.85 95.059C196.992 95.1395 197.134 95.2205 197.275 95.302L197.4 95.0855ZM196.109 94.3622L196.229 94.1426C195.938 93.9843 195.645 93.8282 195.35 93.674L195.234 93.8956L195.118 94.1172C195.411 94.2701 195.701 94.425 195.99 94.5818L196.109 94.3622ZM194.357 93.4462L194.469 93.2227C194.174 93.0743 193.876 92.9279 193.577 92.7834L193.469 93.0086L193.36 93.2338C193.657 93.3771 193.952 93.5223 194.245 93.6696L194.357 93.4462ZM192.576 92.5859L192.681 92.3591C192.382 92.2202 192.081 92.0833 191.778 91.9484L191.676 92.1767L191.574 92.4051C191.875 92.539 192.173 92.6749 192.47 92.8127L192.576 92.5859ZM190.768 91.7798L190.866 91.5499C190.564 91.4203 190.26 91.2926 189.954 91.1668L189.859 91.398L189.764 91.6293C190.067 91.7542 190.369 91.8809 190.669 92.0096L190.768 91.7798ZM188.94 91.0277L189.032 90.7952C188.726 90.674 188.417 90.5546 188.108 90.4372L188.019 90.671L187.93 90.9048C188.238 91.0214 188.544 91.1399 188.849 91.2602L188.94 91.0277ZM187.093 90.3269L187.178 90.0919C186.867 89.9788 186.555 89.8675 186.241 89.7581L186.159 89.9942L186.077 90.2302C186.388 90.3389 186.698 90.4495 187.007 90.5618L187.093 90.3269ZM185.226 89.6754L185.305 89.4383C184.992 89.3335 184.677 89.2306 184.361 89.1295L184.285 89.3676L184.209 89.6057C184.523 89.7062 184.835 89.8085 185.147 89.9125L185.226 89.6754ZM183.342 89.0721L183.415 88.833C183.1 88.7364 182.783 88.6416 182.466 88.5487L182.395 88.7886L182.325 89.0286C182.641 89.121 182.955 89.2152 183.268 89.3111L183.342 89.0721ZM181.443 88.5159L181.51 88.2751C181.193 88.1864 180.875 88.0995 180.555 88.0143L180.491 88.2559L180.426 88.4975C180.744 88.5821 181.06 88.6685 181.375 88.7567L181.443 88.5159ZM179.534 88.0066L179.595 87.7643C179.275 87.6829 178.954 87.6033 178.632 87.5255L178.573 87.7685L178.514 88.0115C178.835 88.0889 179.154 88.1681 179.472 88.249L179.534 88.0066ZM177.612 87.542L177.668 87.2983C177.346 87.2244 177.023 87.1522 176.699 87.0817L176.646 87.326L176.593 87.5703C176.915 87.6404 177.236 87.7122 177.556 87.7857L177.612 87.542ZM175.679 87.1213L175.73 86.8764C175.407 86.8099 175.083 86.7451 174.758 86.682L174.71 86.9274L174.663 87.1728C174.985 87.2356 175.308 87.3 175.629 87.3662L175.679 87.1213ZM173.737 86.7439L173.782 86.4979C173.458 86.4386 173.133 86.381 172.807 86.3251L172.765 86.5715L172.723 86.818C173.046 86.8736 173.37 86.9308 173.692 86.9898L173.737 86.7439ZM171.789 86.4095L171.829 86.1626C171.503 86.1102 171.176 86.0596 170.849 86.0106L170.812 86.2579L170.775 86.5052C171.1 86.5539 171.425 86.6043 171.75 86.6563L171.789 86.4095ZM169.834 86.1169L169.868 85.8693C169.541 85.8239 169.213 85.7801 168.885 85.7381L168.853 85.9862L168.821 86.2342C169.148 86.2759 169.474 86.3194 169.8 86.3646L169.834 86.1169ZM167.872 85.8658L167.901 85.6175C167.573 85.579 167.245 85.5422 166.916 85.5072L166.89 85.7558L166.863 86.0044C167.19 86.0393 167.517 86.0759 167.843 86.1142L167.872 85.8658ZM165.905 85.6559L165.929 85.407C165.601 85.3754 165.272 85.3454 164.943 85.3172L164.921 85.5663L164.9 85.8154C165.227 85.8435 165.555 85.8733 165.882 85.9048L165.905 85.6559ZM163.936 85.4869L163.954 85.2375C163.625 85.2127 163.295 85.1895 162.965 85.1681L162.949 85.4176L162.933 85.6671C163.261 85.6884 163.589 85.7115 163.917 85.7362L163.936 85.4869ZM161.962 85.3585L161.976 85.1088C161.646 85.0907 161.316 85.0744 160.986 85.0597L160.975 85.3095L160.964 85.5593C161.292 85.5739 161.62 85.5901 161.949 85.6081L161.962 85.3585ZM159.987 85.2706L159.995 85.0207C159.665 85.0094 159.335 84.9998 159.004 84.9919L158.998 85.2419L158.992 85.4918C159.321 85.4997 159.65 85.5093 159.978 85.5205L159.987 85.2706ZM158.01 85.2233L158.014 84.9733C157.683 84.9688 157.352 84.966 157.022 84.9649L157.021 85.2149L157.02 85.4649C157.349 85.466 157.678 85.4688 158.007 85.4733L158.01 85.2233ZM156.033 85.2167L156.031 84.9666C155.7 84.9689 155.37 84.9729 155.04 84.9787L155.044 85.2287L155.048 85.4786C155.377 85.473 155.705 85.469 156.034 85.4667L156.033 85.2167ZM154.055 85.2509L154.048 85.001C153.718 85.0101 153.388 85.021 153.058 85.0335L153.067 85.2834L153.077 85.5332C153.405 85.5207 153.733 85.5099 154.062 85.5008L154.055 85.2509ZM152.079 85.3263L152.067 85.0765C151.737 85.0926 151.407 85.1104 151.077 85.1299L151.092 85.3795L151.106 85.6291C151.434 85.6097 151.763 85.592 152.091 85.576L152.079 85.3263ZM150.106 85.4431L150.089 85.1937C149.758 85.2168 149.428 85.2417 149.099 85.2683L149.119 85.5175L149.139 85.7667C149.467 85.7402 149.795 85.7155 150.124 85.6926L150.106 85.4431ZM148.134 85.6023L148.111 85.3533C147.782 85.3834 147.453 85.4153 147.125 85.449L147.151 85.6977L147.176 85.9464C147.503 85.913 147.83 85.8812 148.157 85.8512L148.134 85.6023ZM146.167 85.8041L146.138 85.5556C145.81 85.593 145.482 85.6321 145.155 85.6729L145.186 85.921L145.217 86.1691C145.542 86.1285 145.868 86.0896 146.195 86.0525L146.167 85.8041ZM144.205 86.0492L144.171 85.8015C143.843 85.8462 143.516 85.8928 143.189 85.9411L143.226 86.1884L143.262 86.4358C143.587 86.3877 143.912 86.3414 144.238 86.297L144.205 86.0492ZM142.25 86.3385L142.211 86.0916C141.883 86.1439 141.556 86.1981 141.23 86.2541L141.273 86.5005L141.315 86.7469C141.639 86.6913 141.964 86.6374 142.29 86.5854L142.25 86.3385ZM140.3 86.6735L140.255 86.4276C139.929 86.4875 139.604 86.5493 139.28 86.6129L139.329 86.8582L139.377 87.1036C139.699 87.0403 140.022 86.9789 140.346 86.9194L140.3 86.6735ZM138.359 87.0549L138.308 86.8102C137.984 86.8778 137.662 86.9473 137.341 87.0186L137.395 87.2627L137.449 87.5068C137.769 87.4359 138.089 87.3668 138.41 87.2996L138.359 87.0549ZM136.428 87.4838L136.371 87.2405C136.049 87.3163 135.728 87.3941 135.408 87.4738L135.468 87.7164L135.529 87.959C135.847 87.8799 136.166 87.8026 136.486 87.7272L136.428 87.4838ZM134.511 87.9615L134.447 87.7197C134.126 87.8041 133.807 87.8905 133.488 87.9788L133.555 88.2197L133.622 88.4607C133.938 88.373 134.256 88.2872 134.574 88.2033L134.511 87.9615ZM132.607 88.4896L132.537 88.2496C132.218 88.3428 131.9 88.438 131.584 88.5352L131.657 88.7742L131.731 89.0132C132.045 88.9167 132.36 88.8222 132.677 88.7296L132.607 88.4896ZM130.715 89.0711L130.638 88.8331C130.323 88.935 130.009 89.0389 129.696 89.1448L129.777 89.3815L129.857 89.6183C130.167 89.5132 130.479 89.4101 130.792 89.309L130.715 89.0711ZM128.841 89.7064L128.757 89.4709C128.446 89.5816 128.136 89.6944 127.828 89.8093L127.916 90.0436L128.003 90.2778C128.309 90.1639 128.616 90.0519 128.925 89.942L128.841 89.7064ZM126.989 90.3976L126.898 90.1647C126.589 90.2854 126.282 90.4081 125.977 90.533L126.072 90.7643L126.167 90.9957C126.469 90.8719 126.774 90.7502 127.08 90.6305L126.989 90.3976ZM125.16 91.1467L125.061 90.9169C124.756 91.0478 124.453 91.1809 124.151 91.3161L124.254 91.5442L124.356 91.7723C124.655 91.6382 124.956 91.5063 125.258 91.3765L125.16 91.1467ZM123.358 91.9558L123.251 91.7295C122.95 91.8712 122.651 92.0151 122.353 92.1612L122.464 92.3855L122.574 92.6099C122.869 92.4651 123.165 92.3225 123.464 92.1821L123.358 91.9558ZM121.583 92.8286L121.469 92.6063C121.173 92.7588 120.879 92.9135 120.588 93.0705L120.706 93.2906L120.825 93.5107C121.113 93.3552 121.404 93.2019 121.698 93.0509L121.583 92.8286ZM119.841 93.7676L119.719 93.5499C119.575 93.6309 119.432 93.7125 119.289 93.7948L119.414 94.0113L119.539 94.2278C119.68 94.1464 119.822 94.0656 119.964 93.9854L119.841 93.7676Z" fill="#0E3572"/>
<path fill-rule="evenodd" clip-rule="evenodd" d="M125.705 97.642C143.414 87.418 172.828 87.8233 191.403 98.5473C195.782 101.076 199.167 103.953 201.552 107.006L205.727 107.044V116.244L205.694 116.486C206.316 121.709 204.316 126.952 199.663 131.497L267.611 158.894V170.602L256.463 176.882L189.554 138.252C171.663 146.611 144.699 145.633 127.274 135.573C117.292 129.81 112.475 122.24 112.899 114.883V106.207L115.963 106.235C118.099 103.091 121.343 100.161 125.705 97.642Z" fill="url(#paint1_linear_1719_12155)"/>
<path d="M125.705 97.642L125.58 97.4255L125.58 97.4255L125.705 97.642ZM191.403 98.5473L191.528 98.3308V98.3308L191.403 98.5473ZM201.552 107.006L201.355 107.16L201.429 107.255L201.55 107.256L201.552 107.006ZM205.727 107.044H205.977V106.797L205.729 106.794L205.727 107.044ZM205.727 116.244L205.975 116.278L205.977 116.261V116.244H205.727ZM205.694 116.486L205.446 116.452L205.442 116.484L205.445 116.515L205.694 116.486ZM199.663 131.497L199.489 131.319L199.215 131.586L199.57 131.729L199.663 131.497ZM267.611 158.894H267.861V158.725L267.704 158.662L267.611 158.894ZM267.611 170.602L267.733 170.82L267.861 170.748V170.602H267.611ZM256.463 176.882L256.338 177.099L256.462 177.17L256.586 177.1L256.463 176.882ZM189.554 138.252L189.679 138.036L189.566 137.971L189.448 138.026L189.554 138.252ZM127.274 135.573L127.149 135.789L127.149 135.789L127.274 135.573ZM112.899 114.883L113.148 114.898L113.149 114.89V114.883H112.899ZM112.899 106.207L112.901 105.957L112.649 105.955V106.207H112.899ZM115.963 106.235L115.961 106.485L116.095 106.486L116.17 106.375L115.963 106.235ZM125.705 97.642L125.83 97.8585C134.636 92.7749 146.369 90.3258 158.226 90.4891C170.082 90.6525 182.035 93.4277 191.278 98.7638L191.403 98.5473L191.528 98.3308C182.195 92.9428 170.154 90.1534 158.233 89.9891C146.312 89.8249 134.484 92.2851 125.58 97.4255L125.705 97.642ZM191.403 98.5473L191.278 98.7638C195.635 101.279 198.993 104.137 201.355 107.16L201.552 107.006L201.749 106.852C199.34 103.769 195.929 100.872 191.528 98.3308L191.403 98.5473ZM201.552 107.006L201.55 107.256L205.725 107.294L205.727 107.044L205.729 106.794L201.554 106.756L201.552 107.006ZM205.727 107.044H205.477V116.244H205.727H205.977V107.044H205.727ZM205.727 116.244L205.479 116.21L205.446 116.452L205.694 116.486L205.941 116.52L205.975 116.278L205.727 116.244ZM205.694 116.486L205.445 116.515C206.057 121.648 204.096 126.817 199.489 131.319L199.663 131.497L199.838 131.676C204.536 127.087 206.575 121.77 205.942 116.456L205.694 116.486ZM199.663 131.497L199.57 131.729L267.517 159.126L267.611 158.894L267.704 158.662L199.757 131.266L199.663 131.497ZM267.611 158.894H267.361V170.602H267.611H267.861V158.894H267.611ZM267.611 170.602L267.488 170.384L256.34 176.664L256.463 176.882L256.586 177.1L267.733 170.82L267.611 170.602ZM256.463 176.882L256.588 176.666L189.679 138.036L189.554 138.252L189.429 138.469L256.338 177.099L256.463 176.882ZM189.554 138.252L189.448 138.026C180.547 142.185 169.374 144.026 158.25 143.57C147.125 143.114 136.069 140.362 127.399 135.356L127.274 135.573L127.149 135.789C135.904 140.844 147.043 143.611 158.229 144.069C169.416 144.528 180.671 142.679 189.66 138.479L189.554 138.252ZM127.274 135.573L127.399 135.356C117.462 129.619 112.732 122.124 113.148 114.898L112.899 114.883L112.649 114.869C112.218 122.357 117.123 130.001 127.149 135.789L127.274 135.573ZM112.899 114.883H113.149V106.207H112.899H112.649V114.883H112.899ZM112.899 106.207L112.897 106.457L115.961 106.485L115.963 106.235L115.965 105.985L112.901 105.957L112.899 106.207ZM115.963 106.235L116.17 106.375C118.281 103.268 121.493 100.362 125.83 97.8585L125.705 97.642L125.58 97.4255C121.193 99.9588 117.918 102.913 115.756 106.094L115.963 106.235Z" fill="#0E3572"/>
<path d="M197.697 118.742L266.773 158.893L254.45 166.141L185.025 126.058L197.697 118.742Z" fill="white"/>
<path d="M197.697 118.742L266.773 158.893L254.45 166.141L185.025 126.058L197.697 118.742Z" stroke="#E0E0E0" stroke-width="0.500061"/>
<path d="M197.697 118.742L266.773 158.893L254.45 166.141L185.025 126.058L197.697 118.742Z" stroke="#0E3572" stroke-width="0.500061"/>
<path d="M191.209 88.1179C209.674 98.7787 210.356 115.649 192.776 125.798C175.196 135.948 145.978 135.553 127.513 124.893C109.048 114.232 108.365 97.3623 125.944 87.2126C143.524 77.063 172.744 77.4571 191.209 88.1179Z" fill="white" stroke="#0E3572" stroke-width="0.500061"/>
<path d="M184.211 92.158C198.622 100.478 199.151 113.642 185.436 121.56C171.722 129.478 148.922 129.172 134.511 120.852C120.1 112.532 119.571 99.3685 133.285 91.4504C147 83.5323 169.8 83.8378 184.211 92.158Z" fill="white"/>
<path d="M184.211 92.158C198.622 100.478 199.151 113.642 185.436 121.56C171.722 129.478 148.922 129.172 134.511 120.852C120.1 112.532 119.571 99.3685 133.285 91.4504C147 83.5323 169.8 83.8378 184.211 92.158Z" fill="#0E3572" fill-opacity="0.1"/>
<path d="M184.211 92.158C198.622 100.478 199.151 113.642 185.436 121.56C171.722 129.478 148.922 129.172 134.511 120.852C120.1 112.532 119.571 99.3685 133.285 91.4504C147 83.5323 169.8 83.8378 184.211 92.158Z" stroke="#0E3572" stroke-width="0.500061"/>
<mask id="path-61-inside-1_1719_12155" fill="white">
<path d="M285.121 74.1394L299.219 74.1707V82.1599L291.275 86.7322L267.898 100.214L236.668 82.1589L236.68 82.1511V74.0339L250.34 74.0632L267.437 63.9412L285.121 74.1394Z"/>
</mask>
<path d="M285.121 74.1394L299.219 74.1707V82.1599L291.275 86.7322L267.898 100.214L236.668 82.1589L236.68 82.1511V74.0339L250.34 74.0632L267.437 63.9412L285.121 74.1394Z" fill="white"/>
<path d="M285.121 74.1394L284.971 74.3993L285.04 74.4393L285.12 74.4394L285.121 74.1394ZM299.219 74.1707H299.519V73.8713L299.219 73.8706L299.219 74.1707ZM299.219 82.1599L299.368 82.4199L299.519 82.3334V82.1599H299.219ZM291.275 86.7322L291.126 86.4721L291.125 86.4723L291.275 86.7322ZM267.898 100.214L267.748 100.473L267.898 100.56L268.048 100.474L267.898 100.214ZM236.668 82.1589L236.502 81.9093L236.1 82.1771L236.518 82.4187L236.668 82.1589ZM236.68 82.1511L236.846 82.4008L236.98 82.3117V82.1511H236.68ZM236.68 74.0339L236.68 73.7339L236.38 73.7333V74.0339H236.68ZM250.34 74.0632L250.339 74.3633L250.422 74.3634L250.493 74.3214L250.34 74.0632ZM267.437 63.9412L267.586 63.6812L267.435 63.5937L267.284 63.683L267.437 63.9412ZM285.121 74.1394L285.12 74.4394L299.218 74.4707L299.219 74.1707L299.219 73.8706L285.122 73.8394L285.121 74.1394ZM299.219 74.1707H298.919V82.1599H299.219H299.519V74.1707H299.219ZM299.219 82.1599L299.069 81.8999L291.126 86.4721L291.275 86.7322L291.425 86.9922L299.368 82.4199L299.219 82.1599ZM291.275 86.7322L291.125 86.4723L267.749 99.9537L267.898 100.214L268.048 100.474L291.425 86.9921L291.275 86.7322ZM267.898 100.214L268.049 99.9539L236.818 81.8992L236.668 82.1589L236.518 82.4187L267.748 100.473L267.898 100.214ZM236.668 82.1589L236.834 82.4086L236.846 82.4008L236.68 82.1511L236.513 81.9015L236.502 81.9093L236.668 82.1589ZM236.68 82.1511H236.98V74.0339H236.68H236.38V82.1511H236.68ZM236.68 74.0339L236.679 74.334L250.339 74.3633L250.34 74.0632L250.34 73.7632L236.68 73.7339L236.68 74.0339ZM250.34 74.0632L250.493 74.3214L267.589 64.1993L267.437 63.9412L267.284 63.683L250.187 73.8051L250.34 74.0632ZM267.437 63.9412L267.287 64.2011L284.971 74.3993L285.121 74.1394L285.271 73.8795L267.586 63.6812L267.437 63.9412Z" fill="#0E3572" mask="url(#path-61-inside-1_1719_12155)"/>
<path d="M298.96 74.1696L267.901 91.8872L236.941 74.034L267.9 56.1813L298.96 74.1696Z" fill="white"/>
<path d="M298.96 74.1696L267.901 91.8872L236.941 74.034L267.9 56.1813L298.96 74.1696Z" fill="#ED1C24" fill-opacity="0.1"/>
<path d="M298.96 74.1696L267.901 91.8872L236.941 74.034L267.9 56.1813L298.96 74.1696Z" stroke="#0E3572" stroke-width="0.300036"/>
<g clip-path="url(#clip1_1719_12155)">
<path d="M261.537 70.3395C258.008 72.3768 258.008 75.6916 261.537 77.7288C265.065 79.7661 270.807 79.7661 274.335 77.7288C277.864 75.6916 277.864 72.3768 274.335 70.3395C270.807 68.3023 265.065 68.3023 261.537 70.3395Z" stroke="#ED1C24" stroke-width="0.830101" stroke-miterlimit="10" stroke-linecap="round" stroke-linejoin="round"/>
<path d="M265.228 72.4711C263.736 73.333 263.736 74.7354 265.228 75.5973C266.721 76.4592 269.15 76.4592 270.643 75.5973C272.136 74.7354 272.136 73.333 270.643 72.4711C269.15 71.6091 266.721 71.6091 265.228 72.4711Z" stroke="#ED1C24" stroke-width="0.830101" stroke-miterlimit="10" stroke-linecap="round" stroke-linejoin="round"/>
<path d="M267.936 74.0342H276.986" stroke="#ED1C24" stroke-width="0.830101" stroke-miterlimit="10" stroke-linecap="round" stroke-linejoin="round"/>
<path d="M284.412 72.5269L279.191 72.527L276.986 74.0342L279.191 75.5414L284.412 75.5414L282.207 74.0342L284.412 72.5269Z" stroke="#ED1C24" stroke-width="0.830101" stroke-miterlimit="10" stroke-linecap="round" stroke-linejoin="round"/>
<path d="M281.671 72.5269L279.19 72.527L276.985 74.0342L279.19 75.5414L281.671 75.5414C281.167 77.0803 279.884 78.551 277.822 79.742C272.362 82.8943 263.509 82.8943 258.049 79.742C252.589 76.5896 252.589 71.4787 258.049 68.3264C263.509 65.1741 272.362 65.1741 277.822 68.3264C279.884 69.5174 281.167 70.988 281.671 72.5269Z" stroke="#ED1C24" stroke-width="0.830101" stroke-miterlimit="10" stroke-linecap="round" stroke-linejoin="round"/>
</g>
<mask id="path-69-inside-2_1719_12155" fill="white">
<path fill-rule="evenodd" clip-rule="evenodd" d="M180.588 192.055L194.685 192.086V200.076L187.317 204.316L163.364 218.129L132.135 200.076L132.145 200.07V191.95L145.807 191.979L162.902 181.857L180.588 192.055Z"/>
</mask>
<path fill-rule="evenodd" clip-rule="evenodd" d="M180.588 192.055L194.685 192.086V200.076L187.317 204.316L163.364 218.129L132.135 200.076L132.145 200.07V191.95L145.807 191.979L162.902 181.857L180.588 192.055Z" fill="white"/>
<path d="M180.588 192.055L180.438 192.315L180.507 192.355L180.587 192.355L180.588 192.055ZM194.685 192.086H194.985V191.787L194.685 191.786L194.685 192.086ZM194.685 200.076L194.834 200.336L194.985 200.249V200.076H194.685ZM187.317 204.316L187.168 204.056L187.167 204.056L187.317 204.316ZM163.364 218.129L163.214 218.389L163.364 218.476L163.514 218.389L163.364 218.129ZM132.135 200.076L131.98 199.818L131.544 200.08L131.985 200.335L132.135 200.076ZM132.145 200.07L132.299 200.327L132.445 200.24V200.07H132.145ZM132.145 191.95L132.145 191.65L131.844 191.649V191.95H132.145ZM145.807 191.979L145.806 192.279L145.889 192.279L145.96 192.237L145.807 191.979ZM162.902 181.857L163.052 181.597L162.9 181.509L162.749 181.599L162.902 181.857ZM180.588 192.055L180.587 192.355L194.684 192.386L194.685 192.086L194.685 191.786L180.589 191.755L180.588 192.055ZM194.685 192.086H194.385V200.076H194.685H194.985V192.086H194.685ZM194.685 200.076L194.535 199.816L187.168 204.056L187.317 204.316L187.467 204.576L194.834 200.336L194.685 200.076ZM187.317 204.316L187.167 204.056L163.214 217.869L163.364 218.129L163.514 218.389L187.467 204.576L187.317 204.316ZM163.364 218.129L163.514 217.87L132.285 199.816L132.135 200.076L131.985 200.335L163.214 218.389L163.364 218.129ZM132.135 200.076L132.289 200.333L132.299 200.327L132.145 200.07L131.99 199.813L131.98 199.818L132.135 200.076ZM132.145 200.07H132.445V191.95H132.145H131.844V200.07H132.145ZM132.145 191.95L132.144 192.25L145.806 192.279L145.807 191.979L145.807 191.679L132.145 191.65L132.145 191.95ZM145.807 191.979L145.96 192.237L163.055 182.115L162.902 181.857L162.749 181.599L145.654 191.721L145.807 191.979ZM162.902 181.857L162.752 182.117L180.438 192.315L180.588 192.055L180.738 191.795L163.052 181.597L162.902 181.857Z" fill="#0E3572" mask="url(#path-69-inside-2_1719_12155)"/>
<path d="M194.426 192.085L163.367 209.803L132.408 191.95L163.366 174.097L194.426 192.085Z" fill="white"/>
<path d="M194.426 192.085L163.367 209.803L132.408 191.95L163.366 174.097L194.426 192.085Z" fill="#ED1C24" fill-opacity="0.1"/>
<path d="M194.426 192.085L163.367 209.803L132.408 191.95L163.366 174.097L194.426 192.085Z" stroke="#0E3572" stroke-width="0.300036"/>
<g clip-path="url(#clip2_1719_12155)">
<path d="M174.971 187.241L171.857 185.442L169.6 185.982C168.527 185.611 167.366 185.334 166.153 185.158L165.219 183.856L160.815 183.856L159.879 185.159C158.666 185.335 157.505 185.613 156.432 185.983L154.178 185.444L151.063 187.242L151.998 188.545C151.356 189.164 150.876 189.835 150.572 190.535L148.316 191.074L148.315 193.617L150.573 194.157C150.878 194.858 151.359 195.528 152.001 196.147L151.067 197.449L154.18 199.247L156.437 198.708C157.51 199.078 158.672 199.356 159.885 199.531L160.819 200.833L165.223 200.834L166.158 199.53C167.371 199.354 168.532 199.077 169.605 198.706L171.859 199.245L174.974 197.447L174.04 196.145C174.681 195.525 175.162 194.854 175.466 194.154L177.721 193.615L177.722 191.072L175.464 190.532C175.16 189.832 174.679 189.161 174.037 188.542L174.971 187.241Z" stroke="#ED1C24" stroke-width="0.830101" stroke-miterlimit="10" stroke-linecap="round" stroke-linejoin="round"/>
<path d="M169.61 196.15C173.25 194.049 173.25 190.641 169.61 188.539C165.969 186.437 160.067 186.437 156.427 188.539C152.787 190.641 152.787 194.049 156.427 196.15C160.067 198.252 165.969 198.252 169.61 196.15Z" stroke="#ED1C24" stroke-width="0.830101" stroke-miterlimit="10" stroke-linecap="round" stroke-linejoin="round"/>
<path d="M170.92 195.051L165.441 192.306C166.044 191.405 165.718 190.344 164.459 189.617C163.229 188.907 161.447 188.711 159.911 189.026L161.848 190.145L161.848 190.833L160.399 191.669L159.207 191.669L157.271 190.551C156.724 191.438 157.065 192.466 158.294 193.176C159.554 193.903 161.391 194.092 162.952 193.743L167.706 196.907" stroke="#ED1C24" stroke-width="0.830101" stroke-miterlimit="10" stroke-linejoin="round"/>
</g>
<mask id="path-75-inside-3_1719_12155" fill="white">
<path d="M189.785 37.343L203.883 37.3743V45.3635L195.366 50.2668L172.562 63.4172L141.332 45.3625L141.344 45.3547V37.2375L155.003 37.2668L172.1 27.1448L189.785 37.343Z"/>
</mask>
<path d="M189.785 37.343L203.883 37.3743V45.3635L195.366 50.2668L172.562 63.4172L141.332 45.3625L141.344 45.3547V37.2375L155.003 37.2668L172.1 27.1448L189.785 37.343Z" fill="white"/>
<path d="M189.785 37.343L189.635 37.6029L189.704 37.6429L189.784 37.6431L189.785 37.343ZM203.883 37.3743H204.183V37.0749L203.884 37.0742L203.883 37.3743ZM203.883 45.3635L204.033 45.6236L204.183 45.537V45.3635H203.883ZM195.366 50.2668L195.216 50.0068L195.216 50.0069L195.366 50.2668ZM172.562 63.4172L172.412 63.677L172.562 63.7637L172.712 63.6772L172.562 63.4172ZM141.332 45.3625L141.174 45.107L140.746 45.3706L141.181 45.6223L141.332 45.3625ZM141.344 45.3547L141.501 45.6103L141.644 45.5224V45.3547H141.344ZM141.344 37.2375L141.345 36.9375L141.044 36.9369V37.2375H141.344ZM155.003 37.2668L155.003 37.5669L155.085 37.5671L155.156 37.525L155.003 37.2668ZM172.1 27.1448L172.25 26.8849L172.098 26.7973L171.947 26.8866L172.1 27.1448ZM189.785 37.343L189.784 37.6431L203.883 37.6743L203.883 37.3743L203.884 37.0742L189.785 37.043L189.785 37.343ZM203.883 37.3743H203.583V45.3635H203.883H204.183V37.3743H203.883ZM203.883 45.3635L203.734 45.1035L195.216 50.0068L195.366 50.2668L195.515 50.5269L204.033 45.6236L203.883 45.3635ZM195.366 50.2668L195.216 50.0069L172.412 63.1573L172.562 63.4172L172.712 63.6772L195.516 50.5268L195.366 50.2668ZM172.562 63.4172L172.712 63.1575L141.482 45.1028L141.332 45.3625L141.181 45.6223L172.412 63.677L172.562 63.4172ZM141.332 45.3625L141.489 45.6181L141.501 45.6103L141.344 45.3547L141.187 45.0992L141.174 45.107L141.332 45.3625ZM141.344 45.3547H141.644V37.2375H141.344H141.044V45.3547H141.344ZM141.344 37.2375L141.344 37.5376L155.003 37.5669L155.003 37.2668L155.004 36.9668L141.345 36.9375L141.344 37.2375ZM155.003 37.2668L155.156 37.525L172.253 27.403L172.1 27.1448L171.947 26.8866L154.851 37.0087L155.003 37.2668ZM172.1 27.1448L171.95 27.4047L189.635 37.6029L189.785 37.343L189.935 37.0831L172.25 26.8849L172.1 27.1448Z" fill="#0E3572" mask="url(#path-75-inside-3_1719_12155)"/>
<path d="M203.625 37.3728L172.565 55.0904L141.606 37.2371L172.564 19.3844L203.625 37.3728Z" fill="white"/>
<path d="M203.625 37.3728L172.565 55.0904L141.606 37.2371L172.564 19.3844L203.625 37.3728Z" fill="#ED1C24" fill-opacity="0.1"/>
<path d="M203.625 37.3728L172.565 55.0904L141.606 37.2371L172.564 19.3844L203.625 37.3728Z" stroke="#0E3572" stroke-width="0.300036"/>
<g clip-path="url(#clip3_1719_12155)">
<path d="M171.424 42.8681L174.194 47.2611L176.67 45.6204L180.394 45.9582L177.801 41.8453M181.318 39.8148L188.442 41.3118L187.857 39.1619L190.698 37.7321L183.089 36.1331" stroke="#ED1C24" stroke-width="0.800097" stroke-miterlimit="10" stroke-linejoin="round"/>
<path d="M179.752 40.9419C184.205 38.3706 184.205 34.2017 179.752 31.6303C175.298 29.059 168.077 29.059 163.624 31.6303C159.17 34.2017 159.17 38.3706 163.624 40.9419C168.077 43.5133 175.298 43.5133 179.752 40.9419Z" stroke="#ED1C24" stroke-width="0.830101" stroke-miterlimit="10" stroke-linecap="round" stroke-linejoin="round"/>
<path d="M177.376 39.5697C180.517 37.7562 180.517 34.816 177.376 33.0026C174.235 31.1891 169.142 31.1891 166.001 33.0026C162.86 34.816 162.86 37.7562 166.001 39.5697C169.142 41.3832 174.235 41.3832 177.376 39.5697Z" stroke="#ED1C24" stroke-width="0.830101" stroke-miterlimit="10" stroke-linecap="round" stroke-linejoin="round"/>
<path d="M168.042 34.1767L171.285 34.8118L174.031 33.6291L173.987 35.6065L176.784 36.7484L173.513 37.3354L172.496 39.2239L170.518 37.6092L167.093 37.6345L169.142 36.0496L168.042 34.1767Z" stroke="#ED1C24" stroke-width="0.830101" stroke-miterlimit="10" stroke-linecap="round" stroke-linejoin="round"/>
</g>
<mask id="path-82-inside-4_1719_12155" fill="white">
<path d="M69.3608 144.387L83.4575 144.418V152.407L75.2515 157.131L52.1372 170.461L20.9067 152.407L20.9185 152.4V144.282L34.5776 144.312L51.6753 134.189L69.3608 144.387Z"/>
</mask>
<path d="M69.3608 144.387L83.4575 144.418V152.407L75.2515 157.131L52.1372 170.461L20.9067 152.407L20.9185 152.4V144.282L34.5776 144.312L51.6753 134.189L69.3608 144.387Z" fill="white"/>
<path d="M69.3608 144.387L69.211 144.647L69.2802 144.687L69.3602 144.687L69.3608 144.387ZM83.4575 144.418H83.7576V144.119L83.4582 144.118L83.4575 144.418ZM83.4575 152.407L83.6072 152.668L83.7576 152.581V152.407H83.4575ZM75.2515 157.131L75.1018 156.871L75.1016 156.871L75.2515 157.131ZM52.1372 170.461L51.987 170.721L52.137 170.808L52.2871 170.721L52.1372 170.461ZM20.9067 152.407L20.7403 152.158L20.3386 152.426L20.7566 152.667L20.9067 152.407ZM20.9185 152.4L21.0849 152.649L21.2185 152.56V152.4H20.9185ZM20.9185 144.282L20.9191 143.982L20.6184 143.982V144.282H20.9185ZM34.5776 144.312L34.577 144.612L34.6595 144.612L34.7305 144.57L34.5776 144.312ZM51.6753 134.189L51.8252 133.929L51.6733 133.841L51.5224 133.931L51.6753 134.189ZM69.3608 144.387L69.3602 144.687L83.4569 144.718L83.4575 144.418L83.4582 144.118L69.3615 144.087L69.3608 144.387ZM83.4575 144.418H83.1575V152.407H83.4575H83.7576V144.418H83.4575ZM83.4575 152.407L83.3078 152.147L75.1018 156.871L75.2515 157.131L75.4011 157.391L83.6072 152.668L83.4575 152.407ZM75.2515 157.131L75.1016 156.871L51.9873 170.201L52.1372 170.461L52.2871 170.721L75.4014 157.391L75.2515 157.131ZM52.1372 170.461L52.2874 170.201L21.0569 152.148L20.9067 152.407L20.7566 152.667L51.987 170.721L52.1372 170.461ZM20.9067 152.407L21.0732 152.657L21.0849 152.649L20.9185 152.4L20.752 152.15L20.7403 152.158L20.9067 152.407ZM20.9185 152.4H21.2185V144.282H20.9185H20.6184V152.4H20.9185ZM20.9185 144.282L20.9178 144.583L34.577 144.612L34.5776 144.312L34.5783 144.012L20.9191 143.982L20.9185 144.282ZM34.5776 144.312L34.7305 144.57L51.8282 134.447L51.6753 134.189L51.5224 133.931L34.4248 144.054L34.5776 144.312ZM51.6753 134.189L51.5254 134.449L69.211 144.647L69.3608 144.387L69.5107 144.127L51.8252 133.929L51.6753 134.189Z" fill="#0E3572" mask="url(#path-82-inside-4_1719_12155)"/>
<path d="M83.1998 144.417L52.1405 162.135L21.1811 144.282L52.1396 126.429L83.1998 144.417Z" fill="white"/>
<path d="M83.1998 144.417L52.1405 162.135L21.1811 144.282L52.1396 126.429L83.1998 144.417Z" fill="#ED1C24" fill-opacity="0.1"/>
<path d="M83.1998 144.417L52.1405 162.135L21.1811 144.282L52.1396 126.429L83.1998 144.417Z" stroke="#0E3572" stroke-width="0.300036"/>
<g clip-path="url(#clip4_1719_12155)">
<path d="M51.9731 156.579L60.1149 151.879L57.2639 150.233L57.5522 150.066C58.2267 149.677 58.2264 149.045 57.5516 148.656C56.8768 148.266 55.783 148.266 55.1085 148.655L54.8202 148.822L51.9692 147.176L49.1196 148.821L49.4081 148.988C50.0829 149.377 50.0832 150.009 49.4086 150.398C48.7342 150.788 47.6404 150.787 46.9655 150.398L46.6771 150.231L43.8275 151.876L51.9731 156.579Z" stroke="#ED1C24" stroke-width="0.830101" stroke-miterlimit="10" stroke-linecap="round" stroke-linejoin="round"/>
<path d="M43.9619 151.954L35.8162 147.251L43.9583 142.55L46.8093 144.196L46.521 144.363C45.8465 144.752 45.8468 145.384 46.5216 145.773C47.1964 146.163 48.2902 146.163 48.9646 145.773L49.253 145.607L52.104 147.253L52.1036 147.253" stroke="#ED1C24" stroke-width="0.830101" stroke-miterlimit="10" stroke-linecap="round" stroke-linejoin="round"/>
<path d="M60.0688 151.905L68.2105 147.204L65.3595 145.558L65.6479 145.392C66.3224 145.003 66.3221 144.371 65.6473 143.981C64.9725 143.592 63.8787 143.592 63.2042 143.981L62.9159 144.148L60.0649 142.502L57.2153 144.147L56.9268 143.98C56.252 143.591 55.1581 143.59 54.4836 143.98C53.8091 144.369 53.8095 145.001 54.4843 145.39L54.7728 145.557L51.9232 147.202" stroke="#ED1C24" stroke-width="0.830101" stroke-miterlimit="10" stroke-linecap="round" stroke-linejoin="round"/>
<path d="M51.9672 142.684L49.1162 141.038L48.8279 141.204C48.1534 141.594 47.0596 141.593 46.3848 141.204C45.71 140.814 45.7097 140.183 46.3842 139.793L46.6726 139.627L43.8216 137.981L51.9633 133.28L60.1093 137.983L57.2597 139.628L56.9713 139.462C56.2964 139.072 55.2026 139.072 54.5281 139.462C53.8536 139.851 53.8539 140.482 54.5287 140.872L54.8172 141.039L51.9676 142.684L51.9672 142.684Z" stroke="#ED1C24" stroke-width="0.830101" stroke-miterlimit="10" stroke-linecap="round" stroke-linejoin="round"/>
</g>
<mask id="path-89-inside-5_1719_12155" fill="white">
<path d="M350.351 147.732L364.448 147.764V155.753L356.505 160.325L333.128 173.807L301.897 155.753L301.909 155.745V147.627L315.57 147.656L332.666 137.534L350.351 147.732Z"/>
</mask>
<path d="M350.351 147.732L364.448 147.764V155.753L356.505 160.325L333.128 173.807L301.897 155.753L301.909 155.745V147.627L315.57 147.656L332.666 137.534L350.351 147.732Z" fill="white"/>
<path d="M350.351 147.732L350.101 148.166L350.216 148.232L350.349 148.232L350.351 147.732ZM364.448 147.764H364.948V147.265L364.449 147.264L364.448 147.764ZM364.448 155.753L364.698 156.186L364.948 156.042V155.753H364.448ZM356.505 160.325L356.255 159.892L356.255 159.892L356.505 160.325ZM333.128 173.807L332.878 174.24L333.128 174.384L333.378 174.24L333.128 173.807ZM301.897 155.753L301.62 155.337L300.951 155.783L301.647 156.186L301.897 155.753ZM301.909 155.745L302.187 156.161L302.409 156.013V155.745H301.909ZM301.909 147.627L301.91 147.127L301.409 147.126V147.627H301.909ZM315.57 147.656L315.569 148.156L315.707 148.157L315.825 148.087L315.57 147.656ZM332.666 137.534L332.916 137.101L332.663 136.955L332.411 137.104L332.666 137.534ZM350.351 147.732L350.349 148.232L364.447 148.264L364.448 147.764L364.449 147.264L350.352 147.232L350.351 147.732ZM364.448 147.764H363.948V155.753H364.448H364.948V147.764H364.448ZM364.448 155.753L364.199 155.32L356.255 159.892L356.505 160.325L356.754 160.759L364.698 156.186L364.448 155.753ZM356.505 160.325L356.255 159.892L332.878 173.373L333.128 173.807L333.378 174.24L356.755 160.758L356.505 160.325ZM333.128 173.807L333.378 173.374L302.148 155.32L301.897 155.753L301.647 156.186L332.878 174.24L333.128 173.807ZM301.897 155.753L302.175 156.169L302.187 156.161L301.909 155.745L301.632 155.329L301.62 155.337L301.897 155.753ZM301.909 155.745H302.409V147.627H301.909H301.409V155.745H301.909ZM301.909 147.627L301.908 148.127L315.569 148.156L315.57 147.656L315.571 147.156L301.91 147.127L301.909 147.627ZM315.57 147.656L315.825 148.087L332.921 137.964L332.666 137.534L332.411 137.104L315.316 147.226L315.57 147.656ZM332.666 137.534L332.416 137.967L350.101 148.166L350.351 147.732L350.6 147.299L332.916 137.101L332.666 137.534Z" fill="#0E3572" mask="url(#path-89-inside-5_1719_12155)"/>
<path d="M364.017 147.761L333.132 165.38L302.345 147.627L333.131 129.874L364.017 147.761Z" fill="white"/>
<path d="M364.017 147.761L333.132 165.38L302.345 147.627L333.131 129.874L364.017 147.761Z" fill="#ED1C24" fill-opacity="0.1"/>
<path d="M364.017 147.761L333.132 165.38L302.345 147.627L333.131 129.874L364.017 147.761Z" stroke="#0E3572" stroke-width="0.500061"/>
<mask id="path-92-inside-6_1719_12155" fill="white">
<path d="M91.7461 51.4128L111.961 51.4568V62.7566L65.7998 89.1257L19.2344 62.7576V51.2576L39.498 51.3005L65.5234 36.5876L91.7461 51.4128Z"/>
</mask>
<path d="M91.7461 51.4128L111.961 51.4568V62.7566L65.7998 89.1257L19.2344 62.7576V51.2576L39.498 51.3005L65.5234 36.5876L91.7461 51.4128Z" fill="url(#paint2_linear_1719_12155)"/>
<path d="M91.7461 51.4128L91.4548 51.928L91.5898 52.0043L91.7448 52.0047L91.7461 51.4128ZM111.961 51.4568H112.553V50.8663L111.962 50.865L111.961 51.4568ZM111.961 62.7566L112.254 63.2705L112.553 63.1001V62.7566H111.961ZM65.7998 89.1257L65.5082 89.6407L65.8011 89.8066L66.0934 89.6396L65.7998 89.1257ZM19.2344 62.7576H18.6426V63.1026L18.9428 63.2726L19.2344 62.7576ZM19.2344 51.2576L19.2356 50.6658L18.6426 50.6645V51.2576H19.2344ZM39.498 51.3005L39.4968 51.8924L39.6532 51.8927L39.7893 51.8157L39.498 51.3005ZM65.5234 36.5876L65.8147 36.0725L65.5234 35.9078L65.2322 36.0725L65.5234 36.5876ZM91.7461 51.4128L91.7448 52.0047L111.96 52.0486L111.961 51.4568L111.962 50.865L91.7474 50.821L91.7461 51.4128ZM111.961 51.4568H111.369V62.7566H111.961H112.553V51.4568H111.961ZM111.961 62.7566L111.667 62.2427L65.5063 88.6119L65.7998 89.1257L66.0934 89.6396L112.254 63.2705L111.961 62.7566ZM65.7998 89.1257L66.0914 88.6108L19.526 62.2426L19.2344 62.7576L18.9428 63.2726L65.5082 89.6407L65.7998 89.1257ZM19.2344 62.7576H19.8262V51.2576H19.2344H18.6426V62.7576H19.2344ZM19.2344 51.2576L19.2331 51.8494L39.4968 51.8924L39.498 51.3005L39.4993 50.7087L19.2356 50.6658L19.2344 51.2576ZM39.498 51.3005L39.7893 51.8157L65.8147 37.1028L65.5234 36.5876L65.2322 36.0725L39.2068 50.7853L39.498 51.3005ZM65.5234 36.5876L65.2322 37.1028L91.4548 51.928L91.7461 51.4128L92.0374 50.8977L65.8147 36.0725L65.5234 36.5876Z" fill="#0E3572" mask="url(#path-92-inside-6_1719_12155)"/>
<g filter="url(#filter1_i_1719_12155)">
<path d="M65.5234 25.0881L111.962 51.4565L65.5234 77.4283L19.2347 51.2582L65.5234 25.0881Z" fill="white" fill-opacity="0.2"/>
<path d="M65.5234 25.0881L111.962 51.4565L65.5234 77.4283L19.2347 51.2582L65.5234 25.0881Z" fill="#0E3572"/>
</g>
<path d="M111.438 51.4555L65.5251 77.1336L19.7572 51.2579L65.5234 25.3832L111.438 51.4555Z" stroke="#0E3572" stroke-width="0.600073"/>
<path d="M50.4388 59.513L43.9527 55.846L48.2797 53.3997L49.3244 53.9903L46.1815 55.7672L47.975 56.7812L50.7261 55.2258L51.7708 55.8164L49.0197 57.3718L51.6228 58.8436L50.4388 59.513ZM55.4443 56.683L50.7081 54.0054L51.8487 53.3606L56.5848 56.0382L55.4443 56.683ZM50.1771 53.7051L48.9582 53.016L50.0987 52.3712L51.3176 53.0603L50.1771 53.7051ZM57.6378 55.4429L52.9017 52.7652L53.9725 52.1598L54.9041 52.6865L54.6516 52.6422C54.4775 52.419 54.4427 52.1959 54.5471 51.9728C54.6516 51.7431 54.8722 51.5331 55.2088 51.3427C55.5571 51.1458 55.9401 51.0146 56.358 50.949C56.7817 50.88 57.2054 50.88 57.6291 50.949C58.047 51.0146 58.433 51.1475 58.787 51.3477L61.8342 53.0704L60.6937 53.7152L57.9164 52.145C57.7075 52.0269 57.4869 51.9482 57.2547 51.9088C57.0226 51.8694 56.7933 51.8678 56.567 51.9039C56.3406 51.9334 56.1317 52.0023 55.9401 52.1106C55.7544 52.2156 55.6325 52.3337 55.5745 52.465C55.5106 52.593 55.5135 52.7226 55.5832 52.8538C55.6528 52.9851 55.7921 53.1098 56.0011 53.2279L58.7783 54.7981L57.6378 55.4429ZM65.1057 51.3389C64.6472 51.5982 64.1306 51.7688 63.556 51.8508C62.9756 51.9296 62.3923 51.9214 61.8061 51.8262C61.2199 51.7311 60.6975 51.5539 60.239 51.2946C59.7746 51.0321 59.4612 50.7368 59.2987 50.4086C59.1362 50.0805 59.1246 49.7523 59.2639 49.4242C59.409 49.0928 59.705 48.8007 60.1519 48.5481C60.5118 48.3446 60.9035 48.2051 61.3272 48.1297C61.7509 48.0476 62.1717 48.0329 62.5896 48.0854L62.6506 48.3167L59.8559 46.7367L60.9964 46.0919L67.5869 49.818L66.5074 50.4283L65.5932 49.9115L65.9415 49.9706C66.0343 50.2068 66.0053 50.4464 65.8544 50.6892C65.6977 50.9287 65.4481 51.1453 65.1057 51.3389ZM64.1828 50.6794C64.444 50.5317 64.6123 50.3676 64.6878 50.1871C64.7633 50.0067 64.7487 49.8245 64.6443 49.6408C64.5456 49.4537 64.357 49.2815 64.0784 49.1239C63.8056 48.9697 63.5038 48.8647 63.1729 48.8089C62.8421 48.7466 62.5171 48.7367 62.1978 48.7794C61.8786 48.8221 61.5884 48.9172 61.3272 49.0649C61.0719 49.2093 60.9064 49.375 60.831 49.562C60.7497 49.7458 60.7584 49.9312 60.8571 50.1182C60.9558 50.2987 61.1444 50.4677 61.423 50.6252C61.7016 50.7827 62.0034 50.891 62.3284 50.9501C62.6593 51.0059 62.9872 51.0108 63.3122 50.9648C63.6373 50.9189 63.9275 50.8237 64.1828 50.6794ZM68.648 49.2181L63.9119 46.5404L65.0524 45.8956L69.7885 48.5733L68.648 49.2181ZM63.3808 46.2402L62.1619 45.5511L63.3024 44.9063L64.5213 45.5954L63.3808 46.2402ZM70.8415 47.9779L66.1054 45.3003L67.1763 44.6948L68.1078 45.2215L67.8553 45.1772C67.6812 44.9541 67.6464 44.7309 67.7509 44.5078C67.8553 44.2781 68.0759 44.0681 68.4125 43.8778C68.7608 43.6809 69.1438 43.5496 69.5617 43.484C69.9854 43.4151 70.4091 43.4151 70.8328 43.484C71.2507 43.5496 71.6367 43.6825 71.9907 43.8827L75.0379 45.6054L73.8974 46.2503L71.1201 44.6801C70.9112 44.5619 70.6906 44.4832 70.4585 44.4438C70.2263 44.4044 69.997 44.4028 69.7707 44.4389C69.5443 44.4684 69.3354 44.5373 69.1438 44.6456C68.9581 44.7506 68.8362 44.8688 68.7782 45C68.7143 45.128 68.7172 45.2576 68.7869 45.3889C68.8565 45.5201 68.9958 45.6448 69.2048 45.763L71.982 47.3331L70.8415 47.9779ZM80.2161 44.8436C79.862 45.0438 79.476 45.1964 79.0581 45.3014C78.6402 45.4064 78.2166 45.4622 77.787 45.4687C77.3692 45.4753 76.9716 45.4277 76.5943 45.326L77.256 44.4991C77.5462 44.5844 77.8596 44.6074 78.1962 44.568C78.5445 44.5286 78.8695 44.4236 79.1713 44.253C79.4035 44.1217 79.5631 43.9822 79.6502 43.8346C79.743 43.6836 79.7546 43.5327 79.685 43.3817C79.6211 43.2341 79.4731 43.0946 79.241 42.9634L78.1614 42.353L78.6402 42.3776C78.7621 42.6303 78.7592 42.8748 78.6315 43.111C78.5039 43.3473 78.2659 43.5639 77.9176 43.7608C77.4765 44.0101 76.9803 44.1759 76.4289 44.2579C75.8775 44.3399 75.3261 44.3366 74.7747 44.248C74.2233 44.1594 73.7271 43.9905 73.286 43.7411C72.8391 43.4884 72.5402 43.2078 72.3893 42.8994C72.2383 42.5909 72.2354 42.2841 72.3805 41.9789C72.5198 41.6705 72.8071 41.3932 73.2425 41.1471C73.5965 40.9469 73.9825 40.814 74.4004 40.7484C74.8183 40.6762 75.2565 40.668 75.715 40.7238L75.8456 40.9748L74.8008 40.3841L75.8804 39.7738L80.3815 42.3186C80.7936 42.5515 81.0606 42.8173 81.1824 43.1159C81.3101 43.4113 81.2927 43.7099 81.1302 44.0118C80.9735 44.3104 80.6688 44.5877 80.2161 44.8436ZM77.0035 43.0864C77.2473 42.9486 77.4069 42.7993 77.4823 42.6385C77.5578 42.4711 77.552 42.3038 77.4649 42.1364C77.3779 41.9691 77.2095 41.8149 76.96 41.6738C76.7162 41.5359 76.4434 41.4441 76.1416 41.3981C75.8398 41.3456 75.5409 41.3407 75.2449 41.3833C74.9547 41.4227 74.6906 41.5097 74.4526 41.6442C74.2146 41.7788 74.055 41.9313 73.9738 42.102C73.8925 42.2726 73.8954 42.4449 73.9825 42.6188C74.0695 42.7862 74.235 42.9388 74.4787 43.0766C74.7225 43.2144 74.9924 43.3079 75.2884 43.3571C75.5902 43.4031 75.8891 43.4047 76.1851 43.3621C76.4869 43.3161 76.7597 43.2242 77.0035 43.0864ZM67.6813 62.5607L61.1953 58.8937L62.3271 58.2538L68.0557 58.746L67.5159 59.0512L66.5931 55.8419L67.7249 55.202L74.2109 58.8691L73.0182 59.5434L67.8816 56.6393L68.4562 56.4424L69.2746 59.6911L69.1353 59.7698L63.4502 59.2727L63.7288 58.9872L68.8654 61.8913L67.6813 62.5607ZM77.1847 57.1878L68.4351 54.8005L69.7236 54.072L76.8713 56.1049L76.6189 56.2476L73.0232 52.2065L74.3117 51.478L78.5429 56.4199L77.1847 57.1878ZM81.5227 54.7352L75.0366 51.0682L77.457 49.6998C77.8981 49.4504 78.3682 49.2765 78.8673 49.1781C79.3665 49.0731 79.8656 49.0534 80.3648 49.119C80.8581 49.1814 81.3225 49.3356 81.7578 49.5817C82.1873 49.8245 82.4572 50.0887 82.5674 50.3742C82.6777 50.6531 82.6458 50.9337 82.4717 51.2159C82.2976 51.4981 81.9899 51.7639 81.5488 52.0133L80.3126 52.7122L82.7067 54.0658L81.5227 54.7352ZM79.2678 52.1215L80.5215 51.4127C80.7363 51.2913 80.8814 51.1634 80.9568 51.0288C81.0265 50.891 81.0294 50.7548 80.9655 50.6203C80.9017 50.4857 80.7711 50.3627 80.5737 50.2511C80.3706 50.1363 80.1529 50.0624 79.9208 50.0296C79.6828 49.9935 79.4448 49.9968 79.2069 50.0395C78.9631 50.0788 78.7339 50.1592 78.5191 50.2806L77.2654 50.9894L79.2678 52.1215Z" fill="#FFFAFA"/>
</g>
<defs>
<filter id="filter0_i_1719_12155" x="103.928" y="84.9648" width="169.388" height="98.1086" filterUnits="userSpaceOnUse" color-interpolation-filters="sRGB">
<feFlood flood-opacity="0" result="BackgroundImageFix"/>
<feBlend mode="normal" in="SourceGraphic" in2="BackgroundImageFix" result="shape"/>
<feColorMatrix in="SourceAlpha" type="matrix" values="0 0 0 0 0 0 0 0 0 0 0 0 0 0 0 0 0 0 127 0" result="hardAlpha"/>
<feOffset/>
<feGaussianBlur stdDeviation="6.00073"/>
<feComposite in2="hardAlpha" operator="arithmetic" k2="-1" k3="1"/>
<feColorMatrix type="matrix" values="0 0 0 0 1 0 0 0 0 1 0 0 0 0 1 0 0 0 1 0"/>
<feBlend mode="normal" in2="shape" result="effect1_innerShadow_1719_12155"/>
</filter>
<filter id="filter1_i_1719_12155" x="19.2349" y="25.0881" width="92.7266" height="52.3401" filterUnits="userSpaceOnUse" color-interpolation-filters="sRGB">
<feFlood flood-opacity="0" result="BackgroundImageFix"/>
<feBlend mode="normal" in="SourceGraphic" in2="BackgroundImageFix" result="shape"/>
<feColorMatrix in="SourceAlpha" type="matrix" values="0 0 0 0 0 0 0 0 0 0 0 0 0 0 0 0 0 0 127 0" result="hardAlpha"/>
<feOffset/>
<feGaussianBlur stdDeviation="4.26107"/>
<feComposite in2="hardAlpha" operator="arithmetic" k2="-1" k3="1"/>
<feColorMatrix type="matrix" values="0 0 0 0 0.054902 0 0 0 0 0.207843 0 0 0 0 0.447059 0 0 0 0.35 0"/>
<feBlend mode="normal" in2="shape" result="effect1_innerShadow_1719_12155"/>
</filter>
<radialGradient id="paint0_radial_1719_12155" cx="0" cy="0" r="1" gradientUnits="userSpaceOnUse" gradientTransform="translate(230.872 257.089) rotate(90) scale(237.062 237.062)">
<stop stop-color="#D9D9D9"/>
<stop offset="0.890272" stop-color="#D9D9D9" stop-opacity="0"/>
</radialGradient>
<linearGradient id="paint1_linear_1719_12155" x1="190.242" y1="90.2314" x2="190.242" y2="176.882" gradientUnits="userSpaceOnUse">
<stop stop-color="white"/>
<stop offset="1" stop-color="#3EAFD1"/>
</linearGradient>
<linearGradient id="paint2_linear_1719_12155" x1="69.4704" y1="36.5876" x2="69.4704" y2="89.1263" gradientUnits="userSpaceOnUse">
<stop stop-color="white"/>
<stop offset="1" stop-color="#3EAFD1"/>
</linearGradient>
<clipPath id="clip0_1719_12155">
<rect width="325.95" height="239.645" rx="9.60116" fill="white"/>
</clipPath>
<clipPath id="clip1_1719_12155">
<rect width="24.2522" height="24.2522" fill="white" transform="matrix(0.866025 -0.5 -0.866025 -0.5 267.936 86.1599)"/>
</clipPath>
<clipPath id="clip2_1719_12155">
<rect width="25.0885" height="25.0885" fill="white" transform="matrix(0.866025 -0.5 0.866025 0.5 141.292 192.345)"/>
</clipPath>
<clipPath id="clip3_1719_12155">
<rect width="25.0885" height="25.0885" fill="white" transform="matrix(0.866025 -0.5 0.866025 0.5 152.293 37.6326)"/>
</clipPath>
<clipPath id="clip4_1719_12155">
<rect width="24.2522" height="24.2522" fill="white" transform="matrix(0.866025 -0.5 0.866025 0.5 30.9658 144.929)"/>
</clipPath>
</defs>
</svg>
