<svg width="52" height="52" viewBox="0 0 52 52" fill="none" xmlns="http://www.w3.org/2000/svg">
<path d="M50.9842 5.83391C50.9842 4.53798 49.9337 3.48742 48.6377 3.48742H3.36212C2.06618 3.48742 1.01562 4.53798 1.01562 5.83391V11.0107H50.9842V5.83391Z" stroke="white" stroke-miterlimit="10" stroke-linecap="round" stroke-linejoin="round"/>
<path opacity="0.1" d="M51 7.55948C51 6.6982 50.0119 6 48.7929 6H6.20709C4.98815 6 4 6.6982 4 7.55948V11H51V7.55948Z" fill="white"/>
<path d="M1.01562 11.0107V46.1661C1.01562 47.4619 2.06618 48.5125 3.36212 48.5125H48.6377C49.9337 48.5125 50.9842 47.4619 50.9842 46.1661V11.0107H1.01562Z" stroke="white" stroke-miterlimit="10" stroke-linecap="round" stroke-linejoin="round"/>
<path d="M45.169 23.6948C45.169 25.5737 44.4073 27.2759 43.1753 28.5068C41.9434 29.7388 40.2422 30.5005 38.3633 30.5005C34.6045 30.5005 31.5576 27.4536 31.5576 23.6948C31.5576 21.8159 32.3193 20.1147 33.5513 18.8828C34.7822 17.6519 36.4833 16.8901 38.3633 16.8901C40.2422 16.8901 41.9434 17.6519 43.1753 18.8828C44.4073 20.1147 45.169 21.8159 45.169 23.6948Z" stroke="white" stroke-miterlimit="10" stroke-linecap="round" stroke-linejoin="round"/>
<path d="M47.169 25.6948C47.169 27.5737 46.4073 29.2759 45.1753 30.5068C43.9434 31.7388 42.2422 32.5005 40.3633 32.5005C36.6045 32.5005 33.5576 29.4536 33.5576 25.6948C33.5576 23.8159 34.3193 22.1147 35.5513 20.8828C36.7822 19.6519 38.4833 18.8901 40.3633 18.8901C42.2422 18.8901 43.9434 19.6519 45.1753 20.8828C46.4073 22.1147 47.169 23.8159 47.169 25.6948Z" fill="white" fill-opacity="0.1"/>
<path d="M45.169 23.6948C45.169 25.5737 44.4072 27.2759 43.1753 28.5068L38.3633 23.6948V16.8902C40.2422 16.8902 41.9433 17.6519 43.1753 18.8828C44.4072 20.1148 45.169 21.8159 45.169 23.6948Z" stroke="white" stroke-miterlimit="10" stroke-linecap="round" stroke-linejoin="round"/>
<path d="M31.5576 36.2954H45.169" stroke="white" stroke-miterlimit="10" stroke-linecap="round" stroke-linejoin="round"/>
<path d="M13.0727 36.2952H8.03857V26.7608H13.0727V36.2952ZM22.7318 36.2952H17.6977V20.2725H22.7318V36.2952Z" stroke="white" stroke-miterlimit="10" stroke-linecap="round" stroke-linejoin="round"/>
<path d="M15.0727 38.2952H10.0386V28.7608H15.0727V38.2952ZM24.7318 38.2952H19.6977V22.2725H24.7318V38.2952Z" fill="white" fill-opacity="0.1"/>
<path d="M6.19531 36.2954H25.0859" stroke="white" stroke-miterlimit="10" stroke-linecap="round" stroke-linejoin="round"/>
<path d="M10.9053 42.0125H45.1687" stroke="white" stroke-miterlimit="10" stroke-linecap="round" stroke-linejoin="round"/>
</svg>
