<svg width="52" height="52" viewBox="0 0 52 52" fill="none" xmlns="http://www.w3.org/2000/svg">
<g clip-path="url(#clip0_2321_557)">
<path d="M43.6719 5.97168L33.9816 15.6619M36.9614 19.814L39.4333 17.3421H42.7614M29.8867 12.625L32.3015 10.2103V6.88219" stroke="#0E3572" stroke-miterlimit="10" stroke-linejoin="round"/>
<path d="M19.4873 28.186H30.0725M11.7109 28.186H15.0185M26.708 33.8735H30.0725M11.7109 33.8735H22.2392M11.7109 22.4985H30.0725M17.8814 39.561H30.0725M11.7109 39.561H13.4009" stroke="#0E3572" stroke-miterlimit="10" stroke-linecap="round" stroke-linejoin="round"/>
<path d="M45.6836 6.80469C47.2542 6.80469 48.5273 5.5315 48.5273 3.96094C48.5273 2.39038 47.2542 1.11719 45.6836 1.11719C44.113 1.11719 42.8398 2.39038 42.8398 3.96094C42.8398 5.5315 44.113 6.80469 45.6836 6.80469Z" stroke="#0E3572" stroke-miterlimit="10" stroke-linejoin="round"/>
<path d="M43.959 9.18604C45.3397 9.18604 46.459 8.06675 46.459 6.68604C46.459 5.30532 45.3397 4.18604 43.959 4.18604C42.5783 4.18604 41.459 5.30532 41.459 6.68604C41.459 8.06675 42.5783 9.18604 43.959 9.18604Z" fill="#0E3572" fill-opacity="0.1"/>
<path d="M45.6836 20.186C47.2542 20.186 48.5273 18.9128 48.5273 17.3423C48.5273 15.7717 47.2542 14.4985 45.6836 14.4985C44.113 14.4985 42.8398 15.7717 42.8398 17.3423C42.8398 18.9128 44.113 20.186 45.6836 20.186Z" stroke="#0E3572" stroke-miterlimit="10" stroke-linejoin="round"/>
<path d="M43.959 20.186C45.3397 20.186 46.459 19.0667 46.459 17.686C46.459 16.3053 45.3397 15.186 43.959 15.186C42.5783 15.186 41.459 16.3053 41.459 17.686C41.459 19.0667 42.5783 20.186 43.959 20.186Z" fill="#0E3572" fill-opacity="0.1"/>
<path d="M32.3027 6.80469C33.8733 6.80469 35.1465 5.5315 35.1465 3.96094C35.1465 2.39038 33.8733 1.11719 32.3027 1.11719C30.7322 1.11719 29.459 2.39038 29.459 3.96094C29.459 5.5315 30.7322 6.80469 32.3027 6.80469Z" stroke="#0E3572" stroke-miterlimit="10" stroke-linejoin="round"/>
<path d="M31.959 9.18604C33.3397 9.18604 34.459 8.06675 34.459 6.68604C34.459 5.30532 33.3397 4.18604 31.959 4.18604C30.5783 4.18604 29.459 5.30532 29.459 6.68604C29.459 8.06675 30.5783 9.18604 31.959 9.18604Z" fill="#0E3572" fill-opacity="0.1"/>
<path d="M38.5964 26.3612C38.2741 18.1307 31.1316 11.0691 22.8981 10.8346C13.7447 10.574 6.24261 17.9165 6.24261 27.0111L3.59843 34.3707C3.10565 35.7424 4.12219 37.1877 5.57971 37.1877H7.06851V42.1817C7.06851 44.5574 8.99444 46.4833 11.3701 46.4833H17.5681V50.8827H34.7087L34.3167 48.129C33.6546 43.4788 34.5152 38.7486 36.7217 34.6021C38.0211 32.1603 38.7132 29.3462 38.5964 26.3612Z" stroke="#0E3572" stroke-miterlimit="10" stroke-linejoin="round"/>
<path d="M38.9888 24.6331C38.7045 17.4412 32.4028 11.2709 25.1386 11.0659C17.0628 10.8382 10.4439 17.2541 10.4439 25.201L8.11096 31.6318C7.6762 32.8304 8.57306 34.0934 9.859 34.0934H11.1725V38.4571C11.1725 40.533 12.8717 42.2158 14.9677 42.2158H20.4361V46.0601H35.5588L35.213 43.6538C34.6288 39.5905 35.388 35.4572 37.3348 31.834C38.4812 29.7004 39.0918 27.2414 38.9888 24.6331Z" fill="#0E3572" fill-opacity="0.1"/>
</g>
<defs>
<clipPath id="clip0_2321_557">
<rect width="52" height="52" fill="white"/>
</clipPath>
</defs>
</svg>
