<svg preserveAspectRatio="none" width="100%" height="100%" overflow="visible" style="display: block;" viewBox="0 0 27 22" fill="none" xmlns="http://www.w3.org/2000/svg">
<path id="&#226;&#128;&#156;" d="M27 0V5.6875H25.067C23.9446 5.6875 23.03 5.85417 22.3233 6.1875C21.6582 6.52084 21.1594 7.125 20.8268 8C20.4942 8.83333 20.3279 10 20.3279 11.5V16.0625L18.4573 12.1875C18.7483 11.9375 19.164 11.75 19.7044 11.625C20.2448 11.4583 20.8476 11.375 21.5127 11.375C22.9677 11.375 24.194 11.8333 25.1917 12.75C26.1894 13.625 26.6882 14.875 26.6882 16.5C26.6882 18.0417 26.2102 19.3542 25.254 20.4375C24.2979 21.4792 22.9261 22 21.1386 22C19.9746 22 18.8938 21.7292 17.8961 21.1875C16.94 20.6458 16.1501 19.7292 15.5266 18.4375C14.9446 17.1458 14.6536 15.3958 14.6536 13.1875V12.25C14.6536 9.29167 15.0693 6.91667 15.9007 5.125C16.7737 3.33333 18.0208 2.04167 19.642 1.25C21.2633 0.416667 23.2587 0 25.6282 0H27ZM12.3464 0V5.6875H10.4134C9.29099 5.6875 8.37644 5.85417 7.66975 6.1875C7.00462 6.52084 6.50577 7.125 6.17321 8C5.84065 8.83333 5.67436 10 5.67436 11.5V16.0625L3.8037 12.1875C4.09469 11.9375 4.51039 11.75 5.05081 11.625C5.59122 11.4583 6.19399 11.375 6.85912 11.375C8.31409 11.375 9.54042 11.8333 10.5381 12.75C11.5358 13.625 12.0346 14.875 12.0346 16.5C12.0346 18.0417 11.5566 19.3542 10.6005 20.4375C9.64434 21.4792 8.27252 22 6.48499 22C5.32102 22 4.24018 21.7292 3.24249 21.1875C2.28637 20.6458 1.49654 19.7292 0.872979 18.4375C0.290993 17.1458 0 15.3958 0 13.1875V12.25C0 9.29167 0.415704 6.91667 1.24711 5.125C2.12009 3.33333 3.36721 2.04167 4.98845 1.25C6.6097 0.416667 8.60508 0 10.9746 0H12.3464Z" fill="var(--fill-0, #16181B)"/>
</svg>
