<svg width="142" height="22" viewBox="0 0 142 22" fill="none" xmlns="http://www.w3.org/2000/svg">
<g clip-path="url(#clip0_2356_7231)">
<g clip-path="url(#clip1_2356_7231)">
<path d="M32.4961 4.45949C34.4255 4.32994 36.8338 4.44414 38.7806 4.56132C39.2249 4.58806 40.1636 4.94339 40.6499 5.09812C41.3415 5.75688 41.3871 6.00301 41.9624 6.60936C42.2958 8.3085 42.614 10.4915 41.0379 11.8185C40.4638 12.3019 40.2811 12.2127 39.6932 12.8637C40.3068 13.3697 40.6898 14.8269 41.3448 15.2783C41.372 15.4311 41.4042 15.6075 41.4481 15.7579C41.6372 16.405 42.8411 17.2457 42.4907 17.9571C42.15 18.2833 41.1057 18.1647 40.543 18.179C40.1876 17.947 39.7736 17.771 39.5383 17.4543C39.3552 16.9233 38.0602 14.5264 37.6244 14.1581L37.4473 13.3546C36.7038 12.9174 36.8457 12.9655 36.0127 12.9869C35.4427 13.0015 35.0695 12.7899 34.6318 13.3482C34.5582 13.6891 34.7012 16.9278 34.7831 17.3331C34.5596 17.7063 34.4031 17.8883 34.0829 18.1795C33.5712 18.1382 33.3661 18.1271 32.8428 18.1732C32.5401 18.0124 32.0591 17.7292 31.8857 17.4363C32.0903 15.5384 32.0383 14.0059 32.0362 12.103C32.034 10.2008 32.0234 8.29189 32.0535 6.39004C32.1165 6.06379 31.8834 5.67765 31.9023 5.38247C31.9343 4.88344 32.0696 4.64427 32.4961 4.45949ZM35.0887 11.0672C36.6513 11.0806 36.949 11.1202 38.4616 10.6541C38.6483 10.6225 39.1486 10.137 39.2404 9.98528C39.912 8.87592 39.5215 6.95522 38.1284 6.54757C37.5172 6.36872 35.9551 6.38002 35.2067 6.42882C35.0266 6.51897 34.6435 6.72588 34.6313 6.95454C34.575 8.00897 34.6859 9.08519 34.5984 10.1473C34.5536 10.692 34.6352 10.7306 35.0887 11.0672Z" fill="#6982A7"/>
<path d="M80.5376 4.19553C82.1489 4.06706 83.114 4.61309 84.4757 5.12183C84.7794 5.49901 84.9 5.61165 85.2765 5.92114C85.5524 6.85075 85.7798 6.22243 86.0599 7.41565C85.4082 7.66981 84.9291 8.20949 84.4868 8.3788C84.3412 8.43639 84.1769 8.43182 84.0347 8.36623C83.6264 8.18216 83.4031 7.58475 83.2541 7.20009C83.0918 7.07458 82.9289 6.95051 82.7639 6.82789C81.4244 5.82948 79.5795 6.08664 78.4119 6.98617C78.1484 7.18875 78.3155 8.46933 78.3641 8.75751C80.191 10.3473 83.0156 9.91306 84.3051 10.9683C88.307 14.2424 85.0137 18.313 80.6506 18.3215C79.1697 18.2954 78.8244 18.2549 77.4732 17.5503C76.497 17.0422 75.6074 16.1889 75.1769 15.1838C74.7623 14.2164 76.4831 13.4188 77.2055 13.8483C77.6056 14.0861 77.6694 14.4893 77.7886 14.9046C78.2136 15.1502 78.249 15.2179 78.5215 15.6108C79.3992 15.8696 79.8603 16.3898 81.0424 16.2836C82.1558 16.1835 82.6925 15.6982 83.3837 14.9096C83.4336 14.3925 83.3955 14.0172 83.3054 13.5096C83.1293 13.3543 82.655 12.9278 82.4748 12.8386C80.5161 11.8708 77.7706 12.1631 76.3632 10.3048C75.4993 9.16403 75.6241 8.01231 75.8231 6.67697C76.1205 6.40769 76.3534 6.02255 76.619 5.69207C77.6659 4.39052 78.9686 4.32387 80.5376 4.19553Z" fill="#6982A7"/>
<path d="M47.2167 8.2221C48.7957 8.07295 49.3356 8.37193 50.7278 8.88606C51.0165 9.24332 51.1291 9.34041 51.4926 9.62709C51.5906 10.0338 52.0429 11.2407 52.0611 11.5108C52.161 13.2555 52.0942 15.0658 52.1825 16.8071C52.2321 17.7844 52.31 18.0088 51.4326 18.1891C50.0119 18.4808 49.8971 17.215 49.347 17.0554C49.1401 17.1413 48.9709 17.4065 48.8296 17.5899C48.7514 17.6097 48.5169 17.679 48.4645 17.7152C47.1233 18.6403 45.412 18.4049 44.2128 17.3578C43.9679 17.1441 43.7472 16.8117 43.5363 16.5098C43.2902 16.2182 43.2499 15.6001 43.2629 15.2323C43.2897 14.4774 43.7735 13.9629 44.1024 13.3284C44.5236 13.137 45.1551 12.8196 45.5764 12.7035C46.3826 12.4811 48.8672 12.2713 49.4762 11.9185C49.953 11.3867 49.2791 10.6532 48.9448 10.2253C46.6576 9.30816 46.9241 10.7063 45.4537 11.6259C45.0409 11.5496 44.5578 11.5901 44.1338 11.6093C43.5484 11.2651 43.5264 10.936 43.8207 10.3301C44.4471 9.0404 45.8586 8.36633 47.2167 8.2221ZM46.7837 13.9238C46.4447 14.3343 46.3223 14.4 45.8378 14.624L45.8284 15.5219C46.1129 15.9694 46.1331 16.0682 46.5773 16.3446C48.733 17.0584 50.2688 14.4488 49.3923 13.6106L49.2232 13.5564C48.4147 13.7073 47.601 13.8298 46.7837 13.9238Z" fill="#6982A7"/>
<path d="M105.975 8.22185C107.63 8.05691 107.92 8.44369 109.358 8.90747C109.632 9.22681 109.71 9.30846 110.06 9.54287C110.222 10.0552 110.357 10.1339 110.556 10.5723C110.879 11.2803 111.029 12.5194 110.926 13.2935C110.911 13.4024 110.803 13.7016 110.694 13.7315C109.728 13.9973 105.035 13.5696 104.42 13.9743C104.375 14.1736 104.427 14.863 104.563 15.0151C104.994 15.4952 105.394 15.9459 105.955 16.2765C106.069 16.29 106.183 16.3017 106.298 16.3118C107.867 16.4464 108.061 15.7745 109.166 14.86L109.703 15.0397C112.38 15.6276 109.532 17.3697 108.471 17.8818C106.616 18.8264 103.885 18.0149 102.761 16.3401C101.818 14.9359 101.612 12.6569 102.302 11.1289C102.444 10.814 102.496 10.6054 102.567 10.2588C102.955 9.90806 102.911 9.90676 103.222 9.52846C103.863 8.75101 104.992 8.3272 105.975 8.22185ZM106.806 12.1862C107.256 12.2063 108.145 12.2809 108.51 11.9549C108.626 11.8508 108.666 11.7497 108.67 11.5977C108.671 11.5286 108.648 11.4397 108.6 11.3877C107.849 10.587 107.938 9.73445 106.374 9.76506C106.329 9.76588 106.283 9.76793 106.238 9.77121C105.299 10.1786 104.108 10.7419 104.479 11.988C104.535 12.1784 104.77 12.2665 104.955 12.2571C105.587 12.2252 106.172 12.1739 106.806 12.1862Z" fill="#6982A7"/>
<path d="M65.8193 4.24907C66.1286 4.23819 67.5248 4.11086 67.5446 4.48127C67.6696 6.82364 67.6097 9.26242 67.5286 11.6159C67.5188 11.9002 67.6237 11.9962 67.8568 12.0448C68.3908 11.8751 70.3264 9.38307 70.8409 8.75928C71.207 8.60597 71.6597 8.43004 72.0563 8.4493C72.4938 8.47055 73.4817 8.19473 73.8083 8.42532C74.008 9.04911 73.2107 9.3854 72.9666 9.77333C72.5035 10.5076 71.0163 11.6409 70.6835 12.333C70.7244 12.6678 71.6368 13.5978 71.8407 14.0174C72.2844 14.931 73.0429 15.7707 73.4096 16.7257C73.7618 16.9451 73.9463 17.1684 74.1217 17.5446C74.0842 18.3242 72.8231 18.0988 72.2268 18.1716C70.9074 17.5792 69.812 15.2919 69.2347 14.0104C69.0981 13.7072 68.3548 14.1832 68.2172 14.3132C67.0763 15.391 67.9936 16.8927 67.3479 18.0386C67.2353 18.2367 66.1152 18.176 65.8294 18.1791C65.682 18.056 65.2276 17.6863 65.1977 17.5402C65.0928 17.0278 65.1723 15.7735 65.1745 15.2228L65.1783 7.40581C65.177 6.95891 65.103 4.80113 65.1849 4.54307C65.335 4.37716 65.6002 4.31883 65.8193 4.24907Z" fill="#6982A7"/>
<path d="M117.694 8.21776C119.395 8.1756 118.917 8.30951 120.277 8.82843C120.481 9.2083 120.614 9.32274 120.938 9.60922C120.945 9.65076 120.952 9.69223 120.959 9.73364C121.051 10.2593 121.064 10.8895 121.462 11.1664C121.644 11.497 121.541 16.8172 121.544 17.4253C121.208 17.736 121.013 17.9152 120.628 18.1775C120.091 18.1339 119.936 18.1278 119.394 18.1974C119.288 18.0679 118.943 17.6595 118.935 17.5227C118.862 16.3179 118.967 14.8327 118.962 13.6328C118.956 12.2888 119.218 10.586 117.529 10.1723C117.031 10.0505 116.544 10.2374 116.142 10.5043C115.995 10.6247 115.5 11.2387 115.351 11.4179C115.025 13.4453 115.231 15.684 115.166 17.7736C114.528 18.1704 113.299 18.4685 112.796 17.7469C112.69 17.062 112.634 9.05198 112.79 8.69923C112.837 8.59503 112.943 8.54612 113.047 8.51141C113.581 8.33206 114.487 8.41268 114.994 8.65284C115.215 8.91164 115.046 8.86163 115.14 9.28428C115.248 9.38929 115.465 9.45597 115.6 9.3953L115.611 9.39031C115.774 9.31673 115.864 9.04597 115.982 8.92408C116.399 8.4905 117.13 8.28642 117.694 8.21776Z" fill="#6982A7"/>
<path d="M57.3949 8.88959C58.2104 8.52536 58.5035 8.22857 59.5068 8.19126C60.8022 8.14316 61.4624 8.64882 62.3628 9.4771L62.6142 10.4974C62.5542 10.7904 62.6481 16.4603 62.7062 16.6941L62.8126 16.7445L62.974 16.6881C63.0006 18.4116 62.1408 18.0132 60.8467 18.1857L60.3944 17.5994C60.258 15.8793 60.4464 13.2206 60.3812 11.3582C59.9139 10.5912 59.3667 9.92783 58.3718 10.1875C55.3463 10.9953 57.4459 15.8479 56.4988 17.8914C56.1555 18.632 54.6105 17.9407 54.1495 17.6148C54.0366 15.0456 54.2365 12.3443 54.1762 9.7687C54.1678 9.40584 54.1624 8.98825 54.3414 8.66044C54.8143 8.32381 55.8372 8.46824 56.4175 8.51341C56.5195 8.85734 56.6063 9.41568 57.0246 9.42019C57.2222 9.32713 57.3012 9.08944 57.3949 8.88959Z" fill="#6982A7"/>
<path d="M127.001 8.22501C127.264 8.1985 127.529 8.19085 127.793 8.20212C128.743 8.23485 130.553 8.82359 131.021 9.64503C131.358 10.2343 131.214 10.2571 131.831 10.9111C131.886 11.2799 131.708 11.5003 131.495 11.8092C130.585 11.9047 129.319 12.3822 129.233 11.2296C129.227 11.157 129.199 11.0558 129.185 10.9798C128.873 10.7463 128.537 10.4519 128.235 10.1993C126.78 9.94811 126.317 10.3547 125.498 11.444C125.53 11.6733 125.512 11.8897 125.493 12.1191C125.311 14.307 125.276 16.6088 128.27 16.2443C128.568 15.8602 128.752 15.7364 129.165 15.4843C129.244 15.1223 129.289 14.8478 129.472 14.5195C130.065 14.3629 131.402 14.2568 131.786 14.9433C131.908 15.163 131.877 15.7583 131.541 15.8181C131.266 15.8669 131.099 16.5299 131.01 16.779C129.981 17.4439 129.498 18.0651 128.14 18.233C125.634 18.5589 123.175 16.754 122.871 14.2508C122.501 11.1979 123.591 8.62046 127.001 8.22501Z" fill="#6982A7"/>
<path d="M91.4528 8.22666C91.4687 8.2242 91.4846 8.22201 91.5006 8.22024C93.1091 8.03905 94.2184 8.65218 95.413 9.57297L95.6369 10.3172C95.9753 10.5412 96.2179 10.7931 96.229 11.2145C95.9975 12.0447 94.33 12.0005 93.6319 11.9229C93.6187 10.8256 93.4384 10.8412 92.5946 10.2004C91.1241 9.99356 90.8191 10.2662 89.9586 11.3867C89.7922 13.5332 89.1863 16.7261 92.6473 16.2414C92.9378 15.8301 93.0661 15.7793 93.5077 15.5587C93.584 15.1685 93.6201 14.7635 93.912 14.4875C94.9207 14.2375 97.1213 14.476 95.7597 15.9996C95.5447 16.2399 95.456 16.4939 95.3624 16.7924C95.0788 16.9525 94.9748 17.1164 94.7363 17.2744C94.0021 17.7598 93.2984 18.1887 92.4019 18.2591C91.077 18.3532 89.768 17.9282 88.7599 17.0764C87.8364 16.2949 87.3552 15.1657 87.2166 13.9781C86.8831 11.1164 88.1893 8.45903 91.4528 8.22666Z" fill="#6982A7"/>
<path d="M98.4236 8.41477C98.848 8.42099 99.2945 8.40979 99.7209 8.40582C100.776 9.09951 100.266 9.44351 100.337 10.6041C100.467 12.7285 100.123 14.8705 100.454 16.9769C100.507 17.3154 100.099 17.7242 99.8852 17.9841C99.5753 18.2453 98.7939 18.1653 98.3072 18.1802C98.1304 17.9517 97.9938 17.7156 97.8447 17.4692C97.9383 16.2714 97.7955 9.08461 97.957 8.75051C98.0569 8.54466 98.2143 8.4859 98.4236 8.41477Z" fill="#6982A7"/>
<path d="M99.0781 3.70654L99.7063 3.80715C99.9947 4.24308 100.181 4.38329 100.574 4.713C100.587 4.85015 100.6 4.98742 100.611 5.12478C100.683 6.01024 100.121 6.85272 99.1946 6.91715C99.1121 6.91681 99.0296 6.91489 98.9471 6.91127C98.2933 6.88073 97.8503 6.24552 97.4093 5.76691L97.4072 4.96828C97.7137 4.60252 98.0229 4.23917 98.3349 3.87827C98.4749 3.82929 98.9131 3.74265 99.0781 3.70654Z" fill="#6982A7"/>
<path d="M62.614 10.4974C62.6913 10.6254 62.9026 10.902 62.9136 11.005C63.0954 12.7234 62.9935 14.9633 62.9738 16.6881L62.8124 16.7445L62.7061 16.6941C62.648 16.4603 62.554 10.7904 62.614 10.4974Z" fill="#6982A7"/>
<path d="M0 0H22.2361C22.2977 1.41584 22.2588 2.97295 22.2568 4.40156L22.2558 11.6472L22.2562 18.399C22.2563 19.5172 22.2991 20.9058 22.2424 22H0V0ZM9.06579 13.6088C9.16397 13.6937 9.43422 13.9074 9.47783 14.0078C9.88564 14.6562 10.6301 14.4109 11.3027 14.2946C11.1469 13.9375 11.0419 13.7486 10.8522 13.3898C10.5582 12.8339 9.45059 11.6758 9.65602 11.0518C9.73568 10.8097 10.4348 10.5437 10.7217 10.2427C11.1404 8.9939 11.2278 8.46371 10.6855 7.17391C10.5113 7.0579 9.71259 6.47977 9.6027 6.45134C8.72392 6.22396 6.05182 6.20771 5.19519 6.2866C5.10502 6.36951 4.91671 6.49752 4.93206 6.6195C5.17714 8.56825 5.00184 10.5804 5.07119 12.5442C5.08579 12.9577 4.84474 13.9575 5.05913 14.2748C5.32288 14.4538 6.15356 14.5227 6.30785 14.1905C6.67352 13.4035 6.39146 12.4039 6.47598 11.5314C8.35757 10.8732 8.04932 11.8312 8.92408 13.1255C8.9532 13.1686 9.04624 13.5341 9.06579 13.6088ZM18.1206 3.07793C17.7623 3.16357 17.3738 3.22467 17.2255 3.56468C16.7463 4.66321 17.4005 4.93351 18.1825 5.11689L18.9313 4.86175C19.0808 4.45553 19.2139 4.04776 19.0329 3.62472C18.8533 3.20466 18.4798 3.22998 18.1206 3.07793ZM14.1426 8.27774C13.7402 8.47506 13.198 8.79747 12.8092 8.93166C12.1746 9.77661 11.8278 10.3778 12.8012 11.2857C13.6803 12.1056 15.4385 11.7041 16.0057 12.6568C16.2003 12.9838 15.5359 13.3697 15.2596 13.2851C14.252 13.4378 13.8452 13.1266 13.1426 12.5159C12.6653 12.5397 12.1567 12.4745 12.0783 13.0418C12.2216 13.5327 12.7735 13.8929 13.1967 14.1443C13.7272 14.4595 14.2109 14.4672 14.8197 14.5045C15.4111 14.5126 15.7339 14.4744 16.3156 14.3652C16.5773 13.946 16.6323 13.9024 17.0675 13.6256C17.3499 12.758 17.3601 12.489 17.1109 11.6099C16.6749 11.3865 16.2493 11.1446 15.81 10.9324C14.968 10.5258 13.6351 11.1127 13.823 9.78535C14.1388 9.20263 15.7252 9.26302 16.0025 9.94004C16.14 10.2754 17.0314 10.2949 17.3033 9.99101C17.4582 9.18568 15.8375 8.37838 15.183 8.28437C14.8541 8.23709 14.4726 8.25751 14.1426 8.27774ZM8.25662 17.5039C8.0697 17.5859 7.86087 17.6479 7.78447 17.8328C7.68095 18.4472 8.27388 18.779 8.74908 18.7545C10.0235 18.6887 12.9028 18.9939 14.0208 18.6983C14.3967 18.4633 14.6977 18.2536 14.4727 17.795C14.0193 17.4582 13.3597 17.4349 12.8117 17.4676C11.3889 17.5524 9.65054 17.3406 8.25662 17.5039Z" fill="#6982A7"/>
<path d="M6.65749 7.5287C7.35918 7.48388 8.06346 7.49673 8.76302 7.56703C9.78428 8.70803 9.73096 8.78181 8.80122 9.93217L8.71823 10.0146C8.35223 10.1639 6.79924 10.2414 6.52771 9.96626C6.37776 9.56767 6.39014 8.33047 6.39136 7.85699C6.3917 7.72909 6.55563 7.60311 6.65749 7.5287Z" fill="#6982A7"/>
<path d="M133.743 10.1804C133.971 10.0096 134.224 9.71087 134.412 9.50371C135.798 7.96269 138.167 7.8988 139.975 8.70864C140.658 9.01445 140.669 9.20097 141.273 9.60155C141.4 10.1952 141.357 10.5316 141.992 10.7152V13.7947C140.936 13.802 136.231 13.7469 135.62 13.9298C135.519 14.0965 135.61 14.7486 135.629 14.9798C136.729 16.1598 136.856 16.4394 138.579 16.2926C138.908 16.071 139.404 15.7505 139.668 15.4696C140.484 14.5997 141.085 15.1904 141.992 15.4514V16.3018C141.942 16.3069 141.63 16.3561 141.613 16.3786C139.609 18.9719 135.716 18.8792 133.82 16.2268C132.962 14.8967 132.978 13.0395 133.252 11.5332C133.311 11.2157 133.639 10.6381 133.743 10.1804ZM136.388 10.1828C136.166 10.433 135.993 10.6433 135.73 10.8516C135.051 12.7694 136.775 12.1611 138.058 12.1849C138.48 12.1961 139.425 12.2469 139.654 11.9312C140.378 10.9386 138.325 9.75391 137.535 9.76163C137.168 9.90395 136.762 10.0712 136.388 10.1828Z" fill="#6982A7"/>
</g>
</g>
<defs>
<clipPath id="clip0_2356_7231">
<rect width="142" height="22" fill="white"/>
</clipPath>
<clipPath id="clip1_2356_7231">
<rect width="141.992" height="22" fill="white"/>
</clipPath>
</defs>
</svg>
