<svg width="64" height="64" viewBox="0 0 64 64" fill="none" xmlns="http://www.w3.org/2000/svg">
<path d="M54.4693 44.2308H57.7943L63.0618 51.7307L57.7943 59.2307H30.1244V59.2295" stroke="white" stroke-miterlimit="10" stroke-linecap="round" stroke-linejoin="round"/>
<path d="M7.81071 59.2295H3.31198C2.00073 59.2295 0.938232 58.167 0.938232 56.8557V46.6045C0.938232 45.2933 2.00073 44.2295 3.31198 44.2295H5.78072C3.89322 40.482 2.89448 36.3171 2.89448 31.9996C2.89448 24.7258 5.72697 17.8884 10.8695 12.7446C16.0132 7.60214 22.8507 4.76965 30.1244 4.76965C31.7044 4.76965 34.7906 5.1659 34.7906 5.1659M38.4344 6.05465C38.4344 6.05465 46.2606 9.62589 49.3793 12.7446C54.5231 17.8884 57.3556 24.7258 57.3556 31.9996C57.3556 39.2733 54.5231 46.1108 49.3793 51.2545C44.2369 56.397 37.3981 59.2295 30.1244 59.2295H11.5482M30.1248 44.2299C23.3808 44.2299 17.8942 38.7434 17.8942 31.9994C17.8942 25.2555 23.3808 19.7689 30.1248 19.7689C36.8686 19.7689 42.3552 25.2555 42.3552 31.9994C42.3552 38.7434 36.8686 44.2299 30.1248 44.2299Z" stroke="white" stroke-miterlimit="10" stroke-linecap="round" stroke-linejoin="round"/>
<path d="M5.78027 44.23H30.1248" stroke="white" stroke-miterlimit="10" stroke-linecap="round" stroke-linejoin="round"/>
<path d="M18.6168 44.2299L23.8841 51.7298L18.6168 59.2297" stroke="white" stroke-miterlimit="10" stroke-linecap="round" stroke-linejoin="round"/>
<path d="M30.1248 19.7688L24.8575 12.2689L30.1248 4.76897" stroke="white" stroke-miterlimit="10" stroke-linecap="round" stroke-linejoin="round"/>
<path d="M54.8182 44.7996H58.5777L63.0618 51.1996L58.5777 58.6662H38.3994L47.3675 52.2662L54.8182 44.7996Z" fill="white" fill-opacity="0.2"/>
<circle cx="32.8223" cy="34.1329" r="24.5333" fill="white" fill-opacity="0.2"/>
</svg>
