<svg width="26" height="30" viewBox="0 0 26 30" fill="none" xmlns="http://www.w3.org/2000/svg">
<path d="M14.1047 28.6211C7.88969 26.779 3.60474 20.8344 3.60474 14.1292V6.78499L14.1047 3.62109L24.6047 6.78499V14.1292C24.6047 20.8344 20.3198 26.779 14.1047 28.6211Z" fill="#0E3572" fill-opacity="0.4"/>
<path d="M12.8048 21.5938C10.5646 21.5938 7.97936 19.2523 7.58374 12.8047H18.0258C17.6302 19.2523 15.0449 21.5938 12.8048 21.5938Z" fill="white" fill-opacity="0.8"/>
<path d="M12.8048 21.5938C10.5646 21.5938 7.97936 19.2523 7.58374 12.8047H18.0258C17.6302 19.2523 15.0449 21.5938 12.8048 21.5938Z" stroke="#0E3572" stroke-miterlimit="10" stroke-linecap="round" stroke-linejoin="round"/>
<path d="M10.168 12.8047V10.168C10.168 8.71175 11.3485 7.53127 12.8047 7.53127C14.2609 7.53127 15.4414 8.71175 15.4414 10.168V12.8047" stroke="#0E3572" stroke-miterlimit="10" stroke-linecap="round" stroke-linejoin="round"/>
<path d="M12.8047 16.3203V18.0781" stroke="#0E3572" stroke-miterlimit="10" stroke-linecap="round" stroke-linejoin="round"/>
<path d="M12.8047 28.7422C5.52141 26.6612 0.5 19.9457 0.5 12.371V4.07429L12.8047 0.500086L25.1093 4.07429V12.371C25.1093 19.9457 20.088 26.6612 12.8047 28.7422Z" stroke="#0E3572" stroke-miterlimit="10" stroke-linecap="round" stroke-linejoin="round"/>
</svg>
