<svg width="272" height="223" viewBox="0 0 272 223" fill="none" xmlns="http://www.w3.org/2000/svg">
<line x1="97.5771" y1="78.6554" x2="252.156" y2="166.43" stroke="#0E3572" stroke-width="0.5" stroke-dasharray="1 1"/>
<line x1="45.1652" y1="200.822" x2="215.372" y2="100.619" stroke="#0E3572" stroke-width="0.5" stroke-dasharray="1 1"/>
<path d="M204.014 138.938L176.588 154.946L176.934 32.3322L204.36 16.299L204.014 138.938Z" fill="white" stroke="#0E3572" stroke-width="0.2"/>
<path d="M176.734 32.3322L176.388 154.946L148.788 138.938L149.135 16.299L176.734 32.3322Z" fill="url(#paint0_linear_1427_754)" stroke="#0E3572" stroke-width="0.2"/>
<path d="M204.462 16.1252L176.836 32.2754L149.036 16.1252L176.637 0L204.462 16.1252Z" fill="#0E3572"/>
<path d="M204.462 16.1252L176.836 32.2754L149.036 16.1252L176.637 0L204.462 16.1252Z" fill="white" fill-opacity="0.85"/>
<path d="M176.241 155.038L148.814 171.046L149.037 89.3568L176.463 73.348L176.241 155.038Z" fill="url(#paint1_linear_1427_754)"/>
<path d="M176.241 155.038L148.814 171.046L149.037 89.3568L176.463 73.348L176.241 155.038Z" fill="url(#paint2_linear_1427_754)"/>
<path d="M176.241 155.038L148.814 171.046L149.037 89.3568L176.463 73.348L176.241 155.038Z" fill="white"/>
<path d="M176.241 155.038L148.814 171.046L149.037 89.3568L176.463 73.348L176.241 155.038Z" stroke="#0E3572" stroke-width="0.2"/>
<path d="M148.836 89.3568L148.614 171.047L121.014 155.038L121.237 73.348L148.836 89.3568Z" fill="url(#paint3_linear_1427_754)"/>
<path d="M148.836 89.3568L148.614 171.047L121.014 155.038L121.237 73.348L148.836 89.3568Z" fill="url(#paint4_linear_1427_754)"/>
<path d="M148.836 89.3568L148.614 171.047L121.014 155.038L121.237 73.348L148.836 89.3568Z" stroke="#0E3572" stroke-width="0.2"/>
<path d="M176.563 73.1742L148.937 89.2994L121.137 73.1742L148.763 57.049L176.563 73.1742Z" fill="#3EAFD1"/>
<path d="M175.698 73.1749L148.936 88.796L122.001 73.173L148.764 57.5519L175.698 73.1749Z" stroke="white" stroke-opacity="0.1" stroke-width="0.869565"/>
<path d="M148.711 171.213L121.285 187.222L121.458 126.043L148.883 110.01L148.711 171.213Z" fill="url(#paint5_linear_1427_754)"/>
<path d="M148.711 171.213L121.285 187.222L121.458 126.043L148.883 110.01L148.711 171.213Z" fill="url(#paint6_linear_1427_754)"/>
<path d="M148.711 171.213L121.285 187.222L121.458 126.043L148.883 110.01L148.711 171.213Z" fill="white"/>
<path d="M148.711 171.213L121.285 187.222L121.458 126.043L148.883 110.01L148.711 171.213Z" stroke="#0E3572" stroke-width="0.2"/>
<path d="M121.256 126.043L121.083 187.223L93.4839 171.213L93.6567 110.01L121.256 126.043Z" fill="url(#paint7_linear_1427_754)"/>
<path d="M121.256 126.043L121.083 187.223L93.4839 171.213L93.6567 110.01L121.256 126.043Z" fill="url(#paint8_linear_1427_754)"/>
<path d="M121.256 126.043L121.083 187.223L93.4839 171.213L93.6567 110.01L121.256 126.043Z" stroke="#0E3572" stroke-width="0.2"/>
<path d="M148.984 109.836L121.358 125.986L93.5588 109.836L121.185 93.7109L148.984 109.836Z" fill="#0E3572"/>
<path d="M148.984 109.836L121.358 125.986L93.5588 109.836L121.185 93.7109L148.984 109.836Z" fill="white" fill-opacity="0.85"/>
<path d="M148.552 109.837L121.358 125.734L93.9895 109.835L121.184 93.9619L148.552 109.837Z" stroke="white" stroke-opacity="0.2" stroke-width="0.434783"/>
<path d="M120.936 187.637L93.5095 203.646L93.6326 162.929L121.059 146.896L120.936 187.637Z" fill="url(#paint9_linear_1427_754)"/>
<path d="M120.936 187.637L93.5095 203.646L93.6326 162.929L121.059 146.896L120.936 187.637Z" fill="url(#paint10_linear_1427_754)"/>
<path d="M120.936 187.637L93.5095 203.646L93.6326 162.929L121.059 146.896L120.936 187.637Z" fill="white"/>
<path d="M120.936 187.637L93.5095 203.646L93.6326 162.929L121.059 146.896L120.936 187.637Z" stroke="#0E3572" stroke-width="0.2"/>
<path d="M93.4343 162.929L93.3113 203.647L65.7117 187.637L65.8347 146.895L93.4343 162.929Z" fill="url(#paint11_linear_1427_754)"/>
<path d="M93.4343 162.929L93.3113 203.647L65.7117 187.637L65.8347 146.895L93.4343 162.929Z" fill="url(#paint12_linear_1427_754)"/>
<path d="M93.4343 162.929L93.3113 203.647L65.7117 187.637L65.8347 146.895L93.4343 162.929Z" stroke="#0E3572" stroke-width="0.2"/>
<path d="M121.16 146.722L93.5335 162.872L65.7339 146.722L93.3599 130.597L121.16 146.722Z" fill="#3EAFD1"/>
<line x1="61.6378" y1="222.785" x2="231.845" y2="122.582" stroke="#0E3572" stroke-width="0.5" stroke-dasharray="1 1"/>
<path d="M0.125732 150.027L120.114 219.933" stroke="#0E3572" stroke-width="0.5" stroke-dasharray="1 1"/>
<mask id="path-19-inside-1_1427_754" fill="white">
<path d="M51.6235 121.981L61.8062 122.004V127.818L38.5532 141.383L15.0962 127.818V121.902L25.3022 121.923L38.4136 114.354L51.6235 121.981Z"/>
</mask>
<path d="M51.6235 121.981L61.8062 122.004V127.818L38.5532 141.383L15.0962 127.818V121.902L25.3022 121.923L38.4136 114.354L51.6235 121.981Z" fill="url(#paint13_linear_1427_754)"/>
<path d="M51.6235 121.981L61.8062 122.004V127.818L38.5532 141.383L15.0962 127.818V121.902L25.3022 121.923L38.4136 114.354L51.6235 121.981Z" fill="white"/>
<path d="M51.6235 121.981L51.5235 122.154L51.5697 122.181L51.6231 122.181L51.6235 121.981ZM61.8062 122.004H62.0062V121.804L61.8066 121.804L61.8062 122.004ZM61.8062 127.818L61.9069 127.991L62.0062 127.933V127.818H61.8062ZM38.5532 141.383L38.4531 141.557L38.5537 141.615L38.654 141.556L38.5532 141.383ZM15.0962 127.818H14.8962V127.933L14.9961 127.991L15.0962 127.818ZM15.0962 121.902L15.0966 121.702L14.8962 121.702V121.902H15.0962ZM25.3022 121.923L25.3018 122.123L25.3556 122.124L25.4022 122.097L25.3022 121.923ZM38.4136 114.354L38.5136 114.181L38.4136 114.123L38.3136 114.181L38.4136 114.354ZM51.6235 121.981L51.6231 122.181L61.8057 122.204L61.8062 122.004L61.8066 121.804L51.624 121.781L51.6235 121.981ZM61.8062 122.004H61.6062V127.818H61.8062H62.0062V122.004H61.8062ZM61.8062 127.818L61.7054 127.645L38.4524 141.211L38.5532 141.383L38.654 141.556L61.9069 127.991L61.8062 127.818ZM38.5532 141.383L38.6533 141.21L15.1963 127.645L15.0962 127.818L14.9961 127.991L38.4531 141.557L38.5532 141.383ZM15.0962 127.818H15.2962V121.902H15.0962H14.8962V127.818H15.0962ZM15.0962 121.902L15.0958 122.102L25.3018 122.123L25.3022 121.923L25.3027 121.723L15.0966 121.702L15.0962 121.902ZM25.3022 121.923L25.4022 122.097L38.5136 114.527L38.4136 114.354L38.3136 114.181L25.2023 121.75L25.3022 121.923ZM38.4136 114.354L38.3136 114.527L51.5235 122.154L51.6235 121.981L51.7235 121.808L38.5136 114.181L38.4136 114.354Z" fill="#0E3572" mask="url(#path-19-inside-1_1427_754)"/>
<path d="M38.4141 108.439L61.8067 122.004L38.414 135.365L15.0967 121.902L38.4141 108.439Z" fill="#0E3572"/>
<path d="M38.4141 108.439L61.8067 122.004L38.414 135.365L15.0967 121.902L38.4141 108.439Z" fill="white" fill-opacity="0.85"/>
<path d="M61.3033 122.002L38.4158 135.077L15.5984 121.902L38.4141 108.729L61.3033 122.002Z" stroke="white" stroke-opacity="0.2" stroke-width="0.579511"/>
<path d="M39.7046 125.852L30.9232 123.472L31.8325 122.947L39.4794 125.082L39.2975 125.187L35.5997 120.772L36.509 120.247L40.6399 125.312L39.7046 125.852ZM43.5773 123.616L42.5381 123.016L43.3781 122.531L44.4173 123.131L43.5773 123.616ZM46.6949 121.816L40.9792 118.516L39.7581 119.221L39.022 118.796L41.1004 117.596L47.5522 121.321L46.6949 121.816Z" fill="#0E3572"/>
<mask id="path-24-inside-2_1427_754" fill="white">
<path d="M261.632 134.328L271.821 134.35V140.161L248.554 153.718L225.084 140.161V134.249L235.296 134.27L248.414 126.705L261.632 134.328Z"/>
</mask>
<path d="M261.632 134.328L271.821 134.35V140.161L248.554 153.718L225.084 140.161V134.249L235.296 134.27L248.414 126.705L261.632 134.328Z" fill="url(#paint14_linear_1427_754)"/>
<path d="M261.632 134.328L261.532 134.501L261.578 134.528L261.631 134.528L261.632 134.328ZM271.821 134.35H272.021V134.151L271.821 134.15L271.821 134.35ZM271.821 140.161L271.922 140.333L272.021 140.276V140.161H271.821ZM248.554 153.718L248.454 153.891L248.555 153.949L248.655 153.891L248.554 153.718ZM225.084 140.161H224.884V140.276L224.984 140.334L225.084 140.161ZM225.084 134.249L225.084 134.049L224.884 134.048V134.249H225.084ZM235.296 134.27L235.295 134.47L235.349 134.47L235.396 134.443L235.296 134.27ZM248.414 126.705L248.514 126.531L248.414 126.474L248.314 126.531L248.414 126.705ZM261.632 134.328L261.631 134.528L271.821 134.55L271.821 134.35L271.821 134.15L261.632 134.128L261.632 134.328ZM271.821 134.35H271.621V140.161H271.821H272.021V134.35H271.821ZM271.821 140.161L271.72 139.988L248.454 153.545L248.554 153.718L248.655 153.891L271.922 140.333L271.821 140.161ZM248.554 153.718L248.654 153.545L225.184 139.987L225.084 140.161L224.984 140.334L248.454 153.891L248.554 153.718ZM225.084 140.161H225.284V134.249H225.084H224.884V140.161H225.084ZM225.084 134.249L225.083 134.449L235.295 134.47L235.296 134.27L235.296 134.07L225.084 134.049L225.084 134.249ZM235.296 134.27L235.396 134.443L248.514 126.878L248.414 126.705L248.314 126.531L235.196 134.097L235.296 134.27ZM248.414 126.705L248.314 126.878L261.532 134.501L261.632 134.328L261.732 134.154L248.514 126.531L248.414 126.705Z" fill="#0E3572" mask="url(#path-24-inside-2_1427_754)"/>
<path d="M248.415 120.792L271.821 134.35L248.415 147.704L225.085 134.248L248.415 120.792Z" fill="#0E3572"/>
<path d="M271.318 134.349L248.417 147.416L225.587 134.249L248.415 121.082L271.318 134.349Z" stroke="white" stroke-opacity="0.2" stroke-width="0.579511"/>
<path d="M248.802 138.353L240.018 135.975L240.928 135.451L248.577 137.584L248.395 137.689L244.696 133.277L245.605 132.753L249.738 137.814L248.802 138.353ZM252.676 136.119L251.636 135.52L252.476 135.035L253.516 135.634L252.676 136.119ZM255.581 134.443L254.905 131.486L255.079 131.406C255.107 131.522 255.105 131.631 255.07 131.731C255.029 131.827 254.96 131.92 254.862 132.01C254.77 132.097 254.651 132.182 254.507 132.265C254.126 132.485 253.695 132.633 253.216 132.71C252.737 132.78 252.255 132.778 251.769 132.705C251.284 132.625 250.843 132.47 250.444 132.24C250.046 132.01 249.783 131.752 249.656 131.466C249.529 131.179 249.537 130.891 249.682 130.602C249.82 130.308 250.092 130.045 250.496 129.812C250.912 129.572 251.371 129.414 251.873 129.338C252.376 129.254 252.881 129.253 253.389 129.333C253.892 129.409 254.351 129.567 254.767 129.807C254.992 129.937 255.188 130.08 255.356 130.237C255.523 130.393 255.662 130.57 255.772 130.766C255.887 130.96 255.974 131.179 256.031 131.426L256.603 133.854L255.581 134.443ZM253.883 131.766C254.131 131.622 254.296 131.464 254.377 131.291C254.458 131.111 254.455 130.933 254.368 130.756C254.276 130.577 254.105 130.415 253.857 130.272C253.597 130.122 253.311 130.024 253 129.977C252.693 129.927 252.387 129.924 252.081 129.967C251.775 130.01 251.498 130.104 251.25 130.247C251.007 130.387 250.848 130.545 250.773 130.721C250.698 130.898 250.701 131.076 250.782 131.256C250.869 131.433 251.042 131.596 251.302 131.746C251.55 131.889 251.83 131.987 252.142 132.04C252.448 132.09 252.754 132.094 253.06 132.05C253.366 132 253.641 131.905 253.883 131.766Z" fill="white"/>
<defs>
<linearGradient id="paint0_linear_1427_754" x1="162.762" y1="16.1251" x2="162.762" y2="155.121" gradientUnits="userSpaceOnUse">
<stop stop-color="white"/>
<stop offset="1" stop-color="#3EAFD1"/>
</linearGradient>
<linearGradient id="paint1_linear_1427_754" x1="172.624" y1="73.2175" x2="162.681" y2="169.349" gradientUnits="userSpaceOnUse">
<stop stop-color="#2F86C7"/>
<stop offset="0.1407" stop-color="#2778BA"/>
<stop offset="0.3639" stop-color="#1A68AC"/>
<stop offset="0.5844" stop-color="#0C5DA3"/>
<stop offset="0.7987" stop-color="#02579D"/>
<stop offset="1" stop-color="#01549C"/>
</linearGradient>
<linearGradient id="paint2_linear_1427_754" x1="162.639" y1="73.1742" x2="162.639" y2="171.222" gradientUnits="userSpaceOnUse">
<stop stop-color="white"/>
<stop offset="1" stop-color="#3EAFD1"/>
</linearGradient>
<linearGradient id="paint3_linear_1427_754" x1="144.972" y1="73.2175" x2="135.09" y2="169.362" gradientUnits="userSpaceOnUse">
<stop stop-color="#2F86C7"/>
<stop offset="0.1407" stop-color="#2778BA"/>
<stop offset="0.3639" stop-color="#1A68AC"/>
<stop offset="0.5844" stop-color="#0C5DA3"/>
<stop offset="0.7987" stop-color="#02579D"/>
<stop offset="1" stop-color="#01549C"/>
</linearGradient>
<linearGradient id="paint4_linear_1427_754" x1="134.926" y1="73.1742" x2="134.926" y2="171.222" gradientUnits="userSpaceOnUse">
<stop stop-color="white"/>
<stop offset="1" stop-color="#3EAFD1"/>
</linearGradient>
<linearGradient id="paint5_linear_1427_754" x1="145.051" y1="109.87" x2="138.794" y2="186.216" gradientUnits="userSpaceOnUse">
<stop stop-color="#2F86C7"/>
<stop offset="0.1407" stop-color="#2778BA"/>
<stop offset="0.3639" stop-color="#1A68AC"/>
<stop offset="0.5844" stop-color="#0C5DA3"/>
<stop offset="0.7987" stop-color="#02579D"/>
<stop offset="1" stop-color="#01549C"/>
</linearGradient>
<linearGradient id="paint6_linear_1427_754" x1="135.085" y1="109.836" x2="135.085" y2="187.397" gradientUnits="userSpaceOnUse">
<stop stop-color="white"/>
<stop offset="1" stop-color="#3EAFD1"/>
</linearGradient>
<linearGradient id="paint7_linear_1427_754" x1="117.4" y1="109.87" x2="111.18" y2="186.223" gradientUnits="userSpaceOnUse">
<stop stop-color="#2F86C7"/>
<stop offset="0.1407" stop-color="#2778BA"/>
<stop offset="0.3639" stop-color="#1A68AC"/>
<stop offset="0.5844" stop-color="#0C5DA3"/>
<stop offset="0.7987" stop-color="#02579D"/>
<stop offset="1" stop-color="#01549C"/>
</linearGradient>
<linearGradient id="paint8_linear_1427_754" x1="107.371" y1="109.836" x2="107.371" y2="187.397" gradientUnits="userSpaceOnUse">
<stop stop-color="white"/>
<stop offset="1" stop-color="#3EAFD1"/>
</linearGradient>
<linearGradient id="paint9_linear_1427_754" x1="117.234" y1="146.747" x2="113.826" y2="203.123" gradientUnits="userSpaceOnUse">
<stop stop-color="#2F86C7"/>
<stop offset="0.1407" stop-color="#2778BA"/>
<stop offset="0.3639" stop-color="#1A68AC"/>
<stop offset="0.5844" stop-color="#0C5DA3"/>
<stop offset="0.7987" stop-color="#02579D"/>
<stop offset="1" stop-color="#01549C"/>
</linearGradient>
<linearGradient id="paint10_linear_1427_754" x1="107.285" y1="146.722" x2="107.285" y2="203.821" gradientUnits="userSpaceOnUse">
<stop stop-color="white"/>
<stop offset="1" stop-color="#3EAFD1"/>
</linearGradient>
<linearGradient id="paint11_linear_1427_754" x1="89.5849" y1="146.747" x2="86.198" y2="203.126" gradientUnits="userSpaceOnUse">
<stop stop-color="#2F86C7"/>
<stop offset="0.1407" stop-color="#2778BA"/>
<stop offset="0.3639" stop-color="#1A68AC"/>
<stop offset="0.5844" stop-color="#0C5DA3"/>
<stop offset="0.7987" stop-color="#02579D"/>
<stop offset="1" stop-color="#01549C"/>
</linearGradient>
<linearGradient id="paint12_linear_1427_754" x1="79.5739" y1="146.722" x2="79.5739" y2="203.821" gradientUnits="userSpaceOnUse">
<stop stop-color="white"/>
<stop offset="1" stop-color="#3EAFD1"/>
</linearGradient>
<linearGradient id="paint13_linear_1427_754" x1="38.4512" y1="127.916" x2="38.4512" y2="141.383" gradientUnits="userSpaceOnUse">
<stop stop-color="white"/>
<stop offset="1" stop-color="#3EAFD1"/>
</linearGradient>
<linearGradient id="paint14_linear_1427_754" x1="248.452" y1="140.259" x2="248.452" y2="153.718" gradientUnits="userSpaceOnUse">
<stop stop-color="white"/>
<stop offset="1" stop-color="#3EAFD1"/>
</linearGradient>
</defs>
</svg>
