<svg width="335" height="211" viewBox="0 0 335 211" fill="none" xmlns="http://www.w3.org/2000/svg">
<path d="M0.141602 87.8929L186.866 193.921" stroke="#0E3572" stroke-width="0.573439" stroke-dasharray="1.15 1.15"/>
<line x1="99.7824" y1="18.913" x2="315.578" y2="141.449" stroke="#0E3572" stroke-width="0.573439" stroke-dasharray="1.15 1.15"/>
<line x1="334.068" y1="82.6463" x2="113.198" y2="210.166" stroke="#0E3572" stroke-width="0.573439" stroke-dasharray="1.15 1.15"/>
<line x1="242.089" y1="11.7459" x2="21.2188" y2="139.266" stroke="#0E3572" stroke-width="0.573439" stroke-dasharray="1.15 1.15"/>
<mask id="path-5-inside-1_1427_899" fill="white">
<path d="M309.642 32.672L324.518 32.7052V41.1964L290.55 61.007L256.284 41.1964V32.5568L271.195 32.589L290.347 21.5343L309.642 32.672Z"/>
</mask>
<path d="M309.642 32.672L324.518 32.7052V41.1964L290.55 61.007L256.284 41.1964V32.5568L271.195 32.589L290.347 21.5343L309.642 32.672Z" fill="white"/>
<path d="M309.642 32.672L309.527 32.8707L309.58 32.9012L309.641 32.9014L309.642 32.672ZM324.518 32.7052H324.747V32.4763L324.518 32.4758L324.518 32.7052ZM324.518 41.1964L324.633 41.3946L324.747 41.3282V41.1964H324.518ZM290.55 61.007L290.435 61.2055L290.551 61.2722L290.666 61.2051L290.55 61.007ZM256.284 41.1964H256.055V41.3288L256.17 41.395L256.284 41.1964ZM256.284 32.5568L256.285 32.3274L256.055 32.3269V32.5568H256.284ZM271.195 32.589L271.194 32.8184L271.256 32.8185L271.309 32.7876L271.195 32.589ZM290.347 21.5343L290.462 21.3356L290.347 21.2695L290.232 21.3356L290.347 21.5343ZM309.642 32.672L309.641 32.9014L324.517 32.9346L324.518 32.7052L324.518 32.4758L309.642 32.4426L309.642 32.672ZM324.518 32.7052H324.288V41.1964H324.518H324.747V32.7052H324.518ZM324.518 41.1964L324.402 40.9983L290.434 60.8088L290.55 61.007L290.666 61.2051L324.633 41.3946L324.518 41.1964ZM290.55 61.007L290.665 60.8084L256.399 40.9978L256.284 41.1964L256.17 41.395L290.435 61.2055L290.55 61.007ZM256.284 41.1964H256.514V32.5568H256.284H256.055V41.1964H256.284ZM256.284 32.5568L256.284 32.7861L271.194 32.8184L271.195 32.589L271.195 32.3596L256.285 32.3274L256.284 32.5568ZM271.195 32.589L271.309 32.7876L290.462 21.733L290.347 21.5343L290.232 21.3356L271.08 32.3903L271.195 32.589ZM290.347 21.5343L290.232 21.733L309.527 32.8707L309.642 32.672L309.757 32.4733L290.462 21.3356L290.347 21.5343Z" fill="#0E3572" mask="url(#path-5-inside-1_1427_899)"/>
<path d="M290.349 12.8948L324.52 32.7058L290.349 52.219L256.287 32.5569L290.349 12.8948Z" fill="white"/>
<path d="M290.349 12.8948L324.52 32.7058L290.349 52.219L256.287 32.5569L290.349 12.8948Z" fill="#ED1C24" fill-opacity="0.1"/>
<path d="M323.944 32.7046L290.35 51.8876L256.862 32.5567L290.349 13.2268L323.944 32.7046Z" stroke="white" stroke-opacity="0.2" stroke-width="0.664619"/>
<path d="M285.683 38.6002L278.283 34.3287L279.257 33.7668L285.762 37.5223L289.01 35.6474L289.904 36.1634L285.683 38.6002ZM290.998 35.5319L283.599 31.2604L284.572 30.6985L291.078 34.454L294.326 32.5791L295.22 33.0951L290.998 35.5319ZM296.314 32.4635L288.914 28.1921L289.808 27.676L296.523 28.3526L296.066 28.6163L294.874 24.7519L295.768 24.2359L303.167 28.5074L302.184 29.075L296.016 25.5145L296.473 25.3769L297.595 29.2012L297.516 29.247L290.921 28.5819L291.119 28.3411L297.287 31.9016L296.314 32.4635Z" fill="#ED1C24"/>
<mask id="path-10-inside-2_1427_899" fill="white">
<path d="M88.9922 170.81L107.929 170.852V181.661L64.6934 206.88L21.0781 181.661L21.0762 181.66L21.0781 181.658V170.663L40.0537 170.704L64.4307 156.632L88.9922 170.81Z"/>
</mask>
<path d="M88.9922 170.81L107.929 170.852V181.661L64.6934 206.88L21.0781 181.661L21.0762 181.66L21.0781 181.658V170.663L40.0537 170.704L64.4307 156.632L88.9922 170.81Z" fill="white"/>
<path d="M88.9922 170.81L88.8775 171.009L88.9305 171.04L88.9917 171.04L88.9922 170.81ZM107.929 170.852H108.158V170.624L107.929 170.623L107.929 170.852ZM107.929 181.661L108.044 181.859L108.158 181.793V181.661H107.929ZM64.6934 206.88L64.5785 207.078L64.6939 207.145L64.8089 207.078L64.6934 206.88ZM21.0781 181.661L21.1932 181.462L21.1807 181.456L21.0781 181.661ZM21.0762 181.66L20.914 181.498L20.6889 181.723L20.9736 181.865L21.0762 181.66ZM21.0781 181.658L21.2403 181.82L21.3075 181.753V181.658H21.0781ZM21.0781 170.663L21.0786 170.434L20.8487 170.433V170.663H21.0781ZM40.0537 170.704L40.0532 170.933L40.1149 170.933L40.1684 170.903L40.0537 170.704ZM64.4307 156.632L64.5453 156.433L64.4307 156.367L64.316 156.433L64.4307 156.632ZM88.9922 170.81L88.9917 171.04L107.928 171.082L107.929 170.852L107.929 170.623L88.9927 170.581L88.9922 170.81ZM107.929 170.852H107.699V181.661H107.929H108.158V170.852H107.929ZM107.929 181.661L107.813 181.463L64.5778 206.682L64.6934 206.88L64.8089 207.078L108.044 181.859L107.929 181.661ZM64.6934 206.88L64.8082 206.681L21.1929 181.462L21.0781 181.661L20.9633 181.86L64.5785 207.078L64.6934 206.88ZM21.0781 181.661L21.1807 181.456L21.1788 181.455L21.0762 181.66L20.9736 181.865L20.9755 181.866L21.0781 181.661ZM21.0762 181.66L21.2384 181.822L21.2403 181.82L21.0781 181.658L20.9159 181.496L20.914 181.498L21.0762 181.66ZM21.0781 181.658H21.3075V170.663H21.0781H20.8487V181.658H21.0781ZM21.0781 170.663L21.0776 170.892L40.0532 170.933L40.0537 170.704L40.0542 170.475L21.0786 170.434L21.0781 170.663ZM40.0537 170.704L40.1684 170.903L64.5453 156.83L64.4307 156.632L64.316 156.433L39.939 170.505L40.0537 170.704ZM64.4307 156.632L64.316 156.83L88.8775 171.009L88.9922 170.81L89.1069 170.612L64.5453 156.433L64.4307 156.632Z" fill="#0E3572" mask="url(#path-10-inside-2_1427_899)"/>
<path d="M64.4348 145.634L107.93 170.853L64.4348 195.692L21.0796 170.663L64.4348 145.634Z" fill="white"/>
<path d="M64.4348 145.634L107.93 170.853L64.4348 195.692L21.0796 170.663L64.4348 145.634Z" fill="#ED1C24" fill-opacity="0.1"/>
<path d="M107.353 170.851L64.4365 195.361L21.6545 170.663L64.4348 145.966L107.353 170.851Z" stroke="white" stroke-opacity="0.2" stroke-width="0.664638"/>
<path d="M56.5059 170.203L51.7581 164.4L52.9103 163.735L62.9622 166.476L61.9193 167.078L59.5751 166.424L56.4165 168.247L57.5489 169.601L56.5059 170.203ZM55.8305 167.554L58.3733 166.086L52.9004 164.555L53.1785 164.394L55.8305 167.554ZM63.8946 165.937L56.4948 161.666L57.4682 161.104L64.868 165.375L63.8946 165.937ZM56.758 184.056L52.0102 178.253L53.1623 177.588L63.2142 180.329L62.1713 180.931L59.8272 180.277L56.6686 182.101L57.8009 183.454L56.758 184.056ZM56.0826 181.407L58.6253 179.939L53.1524 178.408L53.4305 178.248L56.0826 181.407ZM67.382 178.061C66.8589 178.363 66.2828 178.588 65.6537 178.737C65.018 178.882 64.3658 178.949 63.697 178.938C63.0282 178.926 62.3693 178.84 61.7204 178.68C61.0781 178.515 60.4821 178.275 59.9325 177.957C59.3763 177.636 58.9558 177.29 58.671 176.92C58.3863 176.549 58.234 176.17 58.2141 175.784C58.1943 175.398 58.3135 175.023 58.5717 174.66C58.8233 174.293 59.2107 173.959 59.7338 173.657C60.2437 173.363 60.79 173.15 61.3727 173.02C61.9621 172.887 62.5382 172.822 63.101 172.825C63.6705 172.825 64.177 172.885 64.6207 173.003L64.1737 173.754C63.5712 173.605 62.962 173.563 62.3461 173.628C61.7303 173.693 61.1608 173.877 60.6377 174.179C60.1212 174.477 59.7835 174.813 59.6246 175.188C59.4723 175.559 59.5021 175.935 59.714 176.317C59.9259 176.7 60.3232 177.059 60.9059 177.395C61.482 177.728 62.1011 177.955 62.7633 178.078C63.4321 178.196 64.0877 178.212 64.73 178.124C65.3789 178.032 65.9616 177.837 66.4781 177.539C66.9284 177.279 67.2396 176.988 67.4118 176.667C67.584 176.346 67.6071 176.027 67.4813 175.71C67.3555 175.392 67.0708 175.106 66.6271 174.85L66.1702 174.586L67.0344 174.569L64.1737 176.22L63.3295 175.733L66.7264 173.772L67.382 174.15C67.8985 174.448 68.2759 174.769 68.5143 175.113C68.7527 175.457 68.8653 175.805 68.852 176.157C68.8322 176.505 68.6964 176.843 68.4448 177.172C68.1932 177.501 67.8389 177.797 67.382 178.061ZM71.9648 175.277L64.5649 171.006L69.3823 168.225L70.2762 168.741L66.4323 170.96L68.7764 172.313L72.4217 170.209L73.3156 170.725L69.6703 172.829L72.0442 174.199L75.8882 171.98L76.7821 172.496L71.9648 175.277ZM77.9884 171.8L70.5885 167.528L71.403 167.058L81.6337 168.056L81.3059 168.291L75.2867 164.816L76.27 164.248L83.6699 168.52L82.8554 168.99L72.6049 167.958L72.9029 167.74L78.9618 171.238L77.9884 171.8ZM86.6128 166.821L80.1069 163.066L78.1004 164.224L77.2065 163.708L82.1728 160.841L83.0668 161.357L81.0902 162.498L87.5961 166.254L86.6128 166.821Z" fill="#ED1C24"/>
<mask id="path-15-inside-3_1427_899" fill="white">
<path d="M100.195 112.354L112.637 112.381V119.483L84.2268 136.052L55.5686 119.483V112.257L68.0374 112.284L84.0559 103.038L100.195 112.354Z"/>
</mask>
<path d="M100.195 112.354L112.637 112.381V119.483L84.2268 136.052L55.5686 119.483V112.257L68.0374 112.284L84.0559 103.038L100.195 112.354Z" fill="url(#paint0_linear_1427_899)"/>
<path d="M100.195 112.354L100.08 112.553L100.133 112.583L100.194 112.584L100.195 112.354ZM112.637 112.381H112.866V112.153L112.637 112.152L112.637 112.381ZM112.637 119.483L112.753 119.681L112.866 119.615V119.483H112.637ZM84.2268 136.052L84.112 136.251L84.2273 136.318L84.3424 136.251L84.2268 136.052ZM55.5686 119.483H55.3392V119.615L55.4538 119.682L55.5686 119.483ZM55.5686 112.257L55.5691 112.028L55.3392 112.028V112.257H55.5686ZM68.0374 112.284L68.0369 112.513L68.0986 112.513L68.152 112.482L68.0374 112.284ZM84.0559 103.038L84.1706 102.839L84.0559 102.773L83.9412 102.839L84.0559 103.038ZM100.195 112.354L100.194 112.584L112.636 112.611L112.637 112.381L112.637 112.152L100.195 112.125L100.195 112.354ZM112.637 112.381H112.408V119.483H112.637H112.866V112.381H112.637ZM112.637 119.483L112.521 119.285L84.1112 135.854L84.2268 136.052L84.3424 136.251L112.753 119.681L112.637 119.483ZM84.2268 136.052L84.3416 135.854L55.6834 119.284L55.5686 119.483L55.4538 119.682L84.112 136.251L84.2268 136.052ZM55.5686 119.483H55.798V112.257H55.5686H55.3392V119.483H55.5686ZM55.5686 112.257L55.5681 112.487L68.0369 112.513L68.0374 112.284L68.0378 112.054L55.5691 112.028L55.5686 112.257ZM68.0374 112.284L68.152 112.482L84.1706 103.236L84.0559 103.038L83.9412 102.839L67.9227 112.085L68.0374 112.284ZM84.0559 103.038L83.9412 103.236L100.08 112.553L100.195 112.354L100.309 112.155L84.1706 102.839L84.0559 103.038Z" fill="#0E3572" mask="url(#path-15-inside-3_1427_899)"/>
<path d="M84.0574 95.8118L112.637 112.381L84.0574 128.702L55.5693 112.257L84.0574 95.8118Z" fill="#0E3572"/>
<path d="M112.061 112.38L84.0591 128.371L56.1447 112.257L84.0574 96.1438L112.061 112.38Z" stroke="white" stroke-opacity="0.2" stroke-width="0.664633"/>
<mask id="path-19-inside-4_1427_899" fill="white">
<path d="M180.677 158.344L193.121 158.371V165.473L164.711 182.043L137.28 166.182L136.051 165.473L136.053 165.471V158.247L148.52 158.273L164.539 149.027L180.677 158.344Z"/>
</mask>
<path d="M180.677 158.344L193.121 158.371V165.473L164.711 182.043L137.28 166.182L136.051 165.473L136.053 165.471V158.247L148.52 158.273L164.539 149.027L180.677 158.344Z" fill="url(#paint1_linear_1427_899)"/>
<path d="M180.677 158.344L180.563 158.542L180.616 158.573L180.677 158.573L180.677 158.344ZM193.121 158.371H193.35V158.142L193.121 158.142L193.121 158.371ZM193.121 165.473L193.236 165.671L193.35 165.604V165.473H193.121ZM164.711 182.043L164.597 182.242L164.712 182.308L164.827 182.241L164.711 182.043ZM137.28 166.182L137.395 165.983L137.394 165.983L137.28 166.182ZM136.051 165.473L135.889 165.31L135.678 165.522L135.937 165.671L136.051 165.473ZM136.053 165.471L136.215 165.633L136.283 165.566V165.471H136.053ZM136.053 158.247L136.054 158.018L135.824 158.017V158.247H136.053ZM148.52 158.273L148.52 158.503L148.581 158.503L148.635 158.472L148.52 158.273ZM164.539 149.027L164.653 148.829L164.539 148.762L164.424 148.829L164.539 149.027ZM180.677 158.344L180.677 158.573L193.12 158.6L193.121 158.371L193.121 158.142L180.678 158.114L180.677 158.344ZM193.121 158.371H192.891V165.473H193.121H193.35V158.371H193.121ZM193.121 165.473L193.005 165.275L164.596 181.845L164.711 182.043L164.827 182.241L193.236 165.671L193.121 165.473ZM164.711 182.043L164.826 181.844L137.395 165.983L137.28 166.182L137.165 166.38L164.597 182.242L164.711 182.043ZM137.28 166.182L137.394 165.983L136.166 165.274L136.051 165.473L135.937 165.671L137.165 166.38L137.28 166.182ZM136.051 165.473L136.213 165.635L136.215 165.633L136.053 165.471L135.891 165.309L135.889 165.31L136.051 165.473ZM136.053 165.471H136.283V158.247H136.053H135.824V165.471H136.053ZM136.053 158.247L136.053 158.476L148.52 158.503L148.52 158.273L148.521 158.044L136.054 158.018L136.053 158.247ZM148.52 158.273L148.635 158.472L164.653 149.226L164.539 149.027L164.424 148.829L148.405 158.075L148.52 158.273ZM164.539 149.027L164.424 149.226L180.563 158.542L180.677 158.344L180.792 158.145L164.653 148.829L164.539 149.027Z" fill="#0E3572" mask="url(#path-19-inside-4_1427_899)"/>
<path d="M164.542 141.801L193.121 158.371L164.542 174.692L136.055 158.247L164.542 141.801Z" fill="#0E3572"/>
<path d="M192.546 158.37L164.544 174.361L136.63 158.247L164.542 142.133L192.546 158.37Z" stroke="white" stroke-opacity="0.2" stroke-width="0.664628"/>
<mask id="path-23-inside-5_1427_899" fill="white">
<path d="M261.16 110.438L273.603 110.466V117.567L245.195 134.138L217.81 118.304L216.535 117.567L216.537 117.565V110.342L229.003 110.368L245.022 101.122L261.16 110.438Z"/>
</mask>
<path d="M261.16 110.438L273.603 110.466V117.567L245.195 134.138L217.81 118.304L216.535 117.567L216.537 117.565V110.342L229.003 110.368L245.022 101.122L261.16 110.438Z" fill="url(#paint2_linear_1427_899)"/>
<path d="M261.16 110.438L261.045 110.637L261.098 110.668L261.159 110.668L261.16 110.438ZM273.603 110.466H273.832V110.237L273.604 110.236L273.603 110.466ZM273.603 117.567L273.719 117.765L273.832 117.699V117.567H273.603ZM245.195 134.138L245.08 134.336L245.195 134.403L245.31 134.336L245.195 134.138ZM217.81 118.304L217.925 118.105L217.925 118.105L217.81 118.304ZM216.535 117.567L216.372 117.405L216.161 117.616L216.42 117.766L216.535 117.567ZM216.537 117.565L216.699 117.728L216.766 117.66V117.565H216.537ZM216.537 110.342L216.537 110.112L216.307 110.112V110.342H216.537ZM229.003 110.368L229.003 110.597L229.065 110.598L229.118 110.567L229.003 110.368ZM245.022 101.122L245.137 100.923L245.022 100.857L244.907 100.923L245.022 101.122ZM261.16 110.438L261.159 110.668L273.603 110.695L273.603 110.466L273.604 110.236L261.16 110.209L261.16 110.438ZM273.603 110.466H273.374V117.567H273.603H273.832V110.466H273.603ZM273.603 117.567L273.487 117.369L245.079 133.939L245.195 134.138L245.31 134.336L273.719 117.765L273.603 117.567ZM245.195 134.138L245.31 133.939L217.925 118.105L217.81 118.304L217.695 118.502L245.08 134.336L245.195 134.138ZM217.81 118.304L217.925 118.105L216.649 117.369L216.535 117.567L216.42 117.766L217.695 118.502L217.81 118.304ZM216.535 117.567L216.697 117.729L216.699 117.728L216.537 117.565L216.374 117.403L216.372 117.405L216.535 117.567ZM216.537 117.565H216.766V110.342H216.537H216.307V117.565H216.537ZM216.537 110.342L216.536 110.571L229.003 110.597L229.003 110.368L229.004 110.139L216.537 110.112L216.537 110.342ZM229.003 110.368L229.118 110.567L245.137 101.321L245.022 101.122L244.907 100.923L228.889 110.169L229.003 110.368ZM245.022 101.122L244.907 101.321L261.045 110.637L261.16 110.438L261.274 110.24L245.137 100.923L245.022 101.122Z" fill="#0E3572" mask="url(#path-23-inside-5_1427_899)"/>
<path d="M245.027 93.8956L273.606 110.466L245.027 126.787L216.54 110.341L245.027 93.8956Z" fill="#0E3572"/>
<path d="M273.029 110.464L245.028 126.455L217.115 110.341L245.027 94.2276L273.029 110.464Z" stroke="white" stroke-opacity="0.2" stroke-width="0.664631"/>
<mask id="path-27-inside-6_1427_899" fill="white">
<path d="M226.207 76.0977L273.775 76.2021V103.354L165.149 166.712L55.5698 103.354V75.7256L103.25 75.8291L164.497 40.4746L226.207 76.0977Z"/>
</mask>
<path d="M226.207 76.0977L273.775 76.2021V103.354L165.149 166.712L55.5698 103.354V75.7256L103.25 75.8291L164.497 40.4746L226.207 76.0977Z" fill="white"/>
<path d="M226.207 76.0977L226.092 76.2963L226.145 76.3269L226.206 76.327L226.207 76.0977ZM273.775 76.2021H274.004V75.9733L273.775 75.9728L273.775 76.2021ZM273.775 103.354L273.89 103.553L274.004 103.486V103.354H273.775ZM165.149 166.712L165.034 166.91L165.149 166.977L165.264 166.91L165.149 166.712ZM55.5698 103.354H55.3404V103.487L55.455 103.553L55.5698 103.354ZM55.5698 75.7256L55.5703 75.4962L55.3404 75.4957V75.7256H55.5698ZM103.25 75.8291L103.25 76.0585L103.312 76.0586L103.365 76.0278L103.25 75.8291ZM164.497 40.4746L164.611 40.276L164.497 40.2098L164.382 40.276L164.497 40.4746ZM226.207 76.0977L226.206 76.327L273.774 76.4315L273.775 76.2021L273.775 75.9728L226.207 75.8683L226.207 76.0977ZM273.775 76.2021H273.546V103.354H273.775H274.004V76.2021H273.775ZM273.775 103.354L273.659 103.156L165.033 166.514L165.149 166.712L165.264 166.91L273.89 103.553L273.775 103.354ZM165.149 166.712L165.264 166.513L55.6846 103.156L55.5698 103.354L55.455 103.553L165.034 166.91L165.149 166.712ZM55.5698 103.354H55.7992V75.7256H55.5698H55.3404V103.354H55.5698ZM55.5698 75.7256L55.5693 75.955L103.25 76.0585L103.25 75.8291L103.251 75.5997L55.5703 75.4962L55.5698 75.7256ZM103.25 75.8291L103.365 76.0278L164.611 40.6733L164.497 40.4746L164.382 40.276L103.136 75.6304L103.25 75.8291ZM164.497 40.4746L164.382 40.6733L226.092 76.2963L226.207 76.0977L226.321 75.899L164.611 40.276L164.497 40.4746Z" fill="#0E3572" mask="url(#path-27-inside-6_1427_899)"/>
<path d="M164.503 12.8458L273.782 76.2025L164.503 138.606L55.5763 75.7261L164.503 12.8458Z" fill="#0C2D62"/>
<path d="M164.503 12.8458L273.782 76.2025L164.503 138.606L55.5763 75.7261L164.503 12.8458Z" fill="white" fill-opacity="0.8"/>
<path d="M273.206 76.2011L164.505 138.275L56.1516 75.7261L164.503 13.1778L273.206 76.2011Z" stroke="white" stroke-opacity="0.2" stroke-width="0.664627"/>
<g filter="url(#filter0_i_1427_899)">
<path d="M164.795 0L262.844 56.8459L164.795 112.837L67.0628 56.4185L164.795 0Z" fill="#0E3572"/>
<path d="M164.795 0L262.844 56.8459L164.795 112.837L67.0628 56.4185L164.795 0Z" fill="white"/>
</g>
<path d="M262.346 56.8445L164.797 112.551L67.5597 56.4187L164.795 0.287081L262.346 56.8445Z" stroke="#0E3572" stroke-width="0.573439"/>
<g filter="url(#filter1_d_1427_899)">
<mask id="path-33-outside-7_1427_899" maskUnits="userSpaceOnUse" x="126.438" y="38.6055" width="72.7461" height="42" fill="black">
<rect fill="white" x="126.438" y="38.6055" width="72.7461" height="42"/>
<path d="M143.137 48.5067L188.301 67.3889L182.127 70.9534L174.007 67.4852L166.498 71.8204L172.505 76.5089L166.887 79.7522L134.182 53.6768L143.137 48.5067ZM145.251 55.2503L161.993 68.3202L167.888 64.9162L145.251 55.2503ZM191.15 65.7439L152.216 43.2651L158.334 39.7327L197.269 62.2115L191.15 65.7439Z"/>
</mask>
<path d="M143.137 48.5067L188.301 67.3889L182.127 70.9534L174.007 67.4852L166.498 71.8204L172.505 76.5089L166.887 79.7522L134.182 53.6768L143.137 48.5067ZM145.251 55.2503L161.993 68.3202L167.888 64.9162L145.251 55.2503ZM191.15 65.7439L152.216 43.2651L158.334 39.7327L197.269 62.2115L191.15 65.7439Z" fill="#0E3572"/>
<path d="M143.137 48.5067L143.302 48.3753L143.108 48.2942L142.939 48.392L143.137 48.5067ZM188.301 67.3889L188.5 67.5036L188.733 67.3691L188.466 67.2575L188.301 67.3889ZM182.127 70.9534L181.96 71.0838L182.155 71.1669L182.326 71.0681L182.127 70.9534ZM174.007 67.4852L174.174 67.3548L173.979 67.2717L173.808 67.3705L174.007 67.4852ZM166.498 71.8204L166.299 71.7057L166.128 71.8045L166.272 71.9169L166.498 71.8204ZM172.505 76.5089L172.703 76.6235L172.875 76.5247L172.731 76.4124L172.505 76.5089ZM166.887 79.7522L166.66 79.8474L166.853 80.0014L167.086 79.8669L166.887 79.7522ZM134.182 53.6768L133.984 53.5621L133.814 53.6599L133.955 53.772L134.182 53.6768ZM145.251 55.2503L145.418 55.1199L145.025 55.3468L145.251 55.2503ZM161.993 68.3202L161.767 68.4166L161.961 68.568L162.191 68.4348L161.993 68.3202ZM167.888 64.9162L168.087 65.0309L168.318 64.8978L168.055 64.7858L167.888 64.9162ZM143.137 48.5067L142.972 48.6381L188.136 67.5203L188.301 67.3889L188.466 67.2575L143.302 48.3753L143.137 48.5067ZM188.301 67.3889L188.102 67.2742L181.929 70.8387L182.127 70.9534L182.326 71.0681L188.5 67.5036L188.301 67.3889ZM182.127 70.9534L182.294 70.823L174.174 67.3548L174.007 67.4852L173.84 67.6156L181.96 71.0838L182.127 70.9534ZM174.007 67.4852L173.808 67.3705L166.299 71.7057L166.498 71.8204L166.696 71.9351L174.205 67.5999L174.007 67.4852ZM166.498 71.8204L166.272 71.9169L172.279 76.6053L172.505 76.5089L172.731 76.4124L166.724 71.724L166.498 71.8204ZM172.505 76.5089L172.306 76.3942L166.689 79.6375L166.887 79.7522L167.086 79.8669L172.703 76.6235L172.505 76.5089ZM166.887 79.7522L167.115 79.6571L134.41 53.5817L134.182 53.6768L133.955 53.772L166.66 79.8474L166.887 79.7522ZM134.182 53.6768L134.381 53.7915L143.336 48.6214L143.137 48.5067L142.939 48.392L133.984 53.5621L134.182 53.6768ZM145.251 55.2503L145.025 55.3468L161.767 68.4166L161.993 68.3202L162.218 68.2237L145.477 55.1539L145.251 55.2503ZM161.993 68.3202L162.191 68.4348L168.087 65.0309L167.888 64.9162L167.69 64.8015L161.794 68.2055L161.993 68.3202ZM167.888 64.9162L168.055 64.7858L145.418 55.1199L145.251 55.2503L145.084 55.3807L167.721 65.0466L167.888 64.9162ZM191.15 65.7439L190.952 65.8586L191.15 65.9733L191.349 65.8586L191.15 65.7439ZM152.216 43.2651L152.017 43.1504L151.819 43.2651L152.017 43.3798L152.216 43.2651ZM158.334 39.7327L158.533 39.618L158.334 39.5033L158.136 39.618L158.334 39.7327ZM197.269 62.2115L197.467 62.3262L197.666 62.2115L197.467 62.0968L197.269 62.2115ZM191.15 65.7439L191.349 65.6292L152.415 43.1504L152.216 43.2651L152.017 43.3798L190.952 65.8586L191.15 65.7439ZM152.216 43.2651L152.415 43.3798L158.533 39.8474L158.334 39.7327L158.136 39.618L152.017 43.1504L152.216 43.2651ZM158.334 39.7327L158.136 39.8474L197.07 62.3262L197.269 62.2115L197.467 62.0968L158.533 39.618L158.334 39.7327ZM197.269 62.2115L197.07 62.0968L190.952 65.6292L191.15 65.7439L191.349 65.8586L197.467 62.3262L197.269 62.2115Z" fill="white" mask="url(#path-33-outside-7_1427_899)"/>
</g>
<mask id="path-35-inside-8_1427_899" fill="white">
<path d="M285.46 168.069L300.334 168.103V176.594L266.368 196.405L232.104 176.594V167.954L247.013 167.986L266.164 156.931L285.46 168.069Z"/>
</mask>
<path d="M285.46 168.069L300.334 168.103V176.594L266.368 196.405L232.104 176.594V167.954L247.013 167.986L266.164 156.931L285.46 168.069Z" fill="white"/>
<path d="M285.46 168.069L285.346 168.268L285.399 168.299L285.46 168.299L285.46 168.069ZM300.334 168.103H300.564V167.874L300.335 167.873L300.334 168.103ZM300.334 176.594L300.45 176.792L300.564 176.726V176.594H300.334ZM266.368 196.405L266.254 196.604L266.369 196.671L266.484 196.604L266.368 196.405ZM232.104 176.594H231.874V176.726L231.989 176.792L232.104 176.594ZM232.104 167.954L232.104 167.725L231.874 167.724V167.954H232.104ZM247.013 167.986L247.012 168.216L247.074 168.216L247.128 168.185L247.013 167.986ZM266.164 156.931L266.279 156.732L266.164 156.666L266.05 156.732L266.164 156.931ZM285.46 168.069L285.46 168.299L300.334 168.332L300.334 168.103L300.335 167.873L285.461 167.84L285.46 168.069ZM300.334 168.103H300.105V176.594H300.334H300.564V168.103H300.334ZM300.334 176.594L300.219 176.396L266.253 196.207L266.368 196.405L266.484 196.604L300.45 176.792L300.334 176.594ZM266.368 196.405L266.483 196.207L232.219 176.395L232.104 176.594L231.989 176.792L266.254 196.604L266.368 196.405ZM232.104 176.594H232.333V167.954H232.104H231.874V176.594H232.104ZM232.104 167.954L232.103 168.184L247.012 168.216L247.013 167.986L247.013 167.757L232.104 167.725L232.104 167.954ZM247.013 167.986L247.128 168.185L266.279 157.129L266.164 156.931L266.05 156.732L246.898 167.788L247.013 167.986ZM266.164 156.931L266.05 157.129L285.346 168.268L285.46 168.069L285.575 167.871L266.279 156.732L266.164 156.931Z" fill="#0E3572" mask="url(#path-35-inside-8_1427_899)"/>
<path d="M266.166 148.291L300.336 168.103L266.166 187.617L232.106 167.954L266.166 148.291Z" fill="white"/>
<path d="M266.166 148.291L300.336 168.103L266.166 187.617L232.106 167.954L266.166 148.291Z" fill="#ED1C24" fill-opacity="0.1"/>
<path d="M299.76 168.102L266.167 187.286L232.681 167.954L266.166 148.623L299.76 168.102Z" stroke="white" stroke-opacity="0.2" stroke-width="0.664621"/>
<path d="M259.988 175.252L252.588 170.98L253.403 170.51L263.633 171.508L263.305 171.743L257.286 168.268L258.27 167.7L265.669 171.972L264.855 172.442L254.605 171.41L254.903 171.192L260.961 174.69L259.988 175.252ZM267.321 171.019L259.921 166.747L260.895 166.185L267.4 169.941L270.648 168.066L271.542 168.582L267.321 171.019ZM272.636 167.95L265.237 163.678L267.849 162.17C268.339 161.887 268.862 161.692 269.418 161.585C269.974 161.478 270.527 161.465 271.077 161.545C271.633 161.622 272.143 161.794 272.606 162.061C273.07 162.329 273.368 162.623 273.5 162.944C273.633 163.258 273.609 163.577 273.431 163.902C273.252 164.219 272.914 164.521 272.418 164.808L270.779 165.754L273.609 167.388L272.636 167.95ZM269.885 165.238L271.553 164.275C271.851 164.103 272.053 163.921 272.159 163.73C272.265 163.539 272.272 163.348 272.179 163.157C272.087 162.965 271.901 162.79 271.623 162.629C271.338 162.465 271.034 162.358 270.709 162.308C270.378 162.254 270.047 162.258 269.716 162.319C269.385 162.381 269.07 162.497 268.772 162.669L267.104 163.632L269.885 165.238Z" fill="#ED1C24"/>
<defs>
<filter id="filter0_i_1427_899" x="67.0627" y="0" width="195.781" height="112.837" filterUnits="userSpaceOnUse" color-interpolation-filters="sRGB">
<feFlood flood-opacity="0" result="BackgroundImageFix"/>
<feBlend mode="normal" in="SourceGraphic" in2="BackgroundImageFix" result="shape"/>
<feColorMatrix in="SourceAlpha" type="matrix" values="0 0 0 0 0 0 0 0 0 0 0 0 0 0 0 0 0 0 127 0" result="hardAlpha"/>
<feOffset/>
<feGaussianBlur stdDeviation="4.12876"/>
<feComposite in2="hardAlpha" operator="arithmetic" k2="-1" k3="1"/>
<feColorMatrix type="matrix" values="0 0 0 0 0.054902 0 0 0 0 0.207843 0 0 0 0 0.447059 0 0 0 0.35 0"/>
<feBlend mode="normal" in2="shape" result="effect1_innerShadow_1427_899"/>
</filter>
<filter id="filter1_d_1427_899" x="133.814" y="39.5033" width="63.8518" height="41.645" filterUnits="userSpaceOnUse" color-interpolation-filters="sRGB">
<feFlood flood-opacity="0" result="BackgroundImageFix"/>
<feColorMatrix in="SourceAlpha" type="matrix" values="0 0 0 0 0 0 0 0 0 0 0 0 0 0 0 0 0 0 127 0" result="hardAlpha"/>
<feOffset dy="1.14688"/>
<feComposite in2="hardAlpha" operator="out"/>
<feColorMatrix type="matrix" values="0 0 0 0 0.0365431 0 0 0 0 0.117916 0 0 0 0 0.245192 0 0 0 0.3 0"/>
<feBlend mode="normal" in2="BackgroundImageFix" result="effect1_dropShadow_1427_899"/>
<feBlend mode="normal" in="SourceGraphic" in2="effect1_dropShadow_1427_899" result="shape"/>
</filter>
<linearGradient id="paint0_linear_1427_899" x1="84.1027" y1="119.603" x2="84.1027" y2="136.052" gradientUnits="userSpaceOnUse">
<stop stop-color="white"/>
<stop offset="1" stop-color="#3EAFD1"/>
</linearGradient>
<linearGradient id="paint1_linear_1427_899" x1="164.586" y1="165.593" x2="164.586" y2="182.043" gradientUnits="userSpaceOnUse">
<stop stop-color="white"/>
<stop offset="1" stop-color="#3EAFD1"/>
</linearGradient>
<linearGradient id="paint2_linear_1427_899" x1="245.069" y1="117.688" x2="245.069" y2="134.138" gradientUnits="userSpaceOnUse">
<stop stop-color="white"/>
<stop offset="1" stop-color="#3EAFD1"/>
</linearGradient>
</defs>
</svg>
