<svg width="660" height="360" viewBox="0 0 660 360" fill="none" xmlns="http://www.w3.org/2000/svg">
<g clip-path="url(#clip0_1851_6400)">
<rect width="660" height="360" fill="white"/>
<g opacity="0.5">
<mask id="mask0_1851_6400" style="mask-type:alpha" maskUnits="userSpaceOnUse" x="-423" y="-254" width="1505" height="869">
<rect width="868.394" height="868.394" transform="matrix(0.866025 0.5 -0.866025 0.5 329.717 -254)" fill="url(#paint0_radial_1851_6400)"/>
</mask>
<g mask="url(#mask0_1851_6400)">
<path d="M312.345 -243.143L-403.792 170.319" stroke="#B3B3B3" stroke-width="1.00012"/>
<path d="M343.68 -225.052L-372.457 188.41" stroke="#B3B3B3" stroke-width="1.00012"/>
<path d="M375.014 -206.96L-341.123 206.502" stroke="#B3B3B3" stroke-width="1.00012"/>
<path d="M406.35 -188.869L-309.787 224.593" stroke="#B3B3B3" stroke-width="1.00012"/>
<path d="M437.685 -170.778L-278.452 242.684" stroke="#B3B3B3" stroke-width="1.00012"/>
<path d="M469.023 -152.685L-247.114 260.777" stroke="#B3B3B3" stroke-width="1.00012"/>
<path d="M500.356 -134.593L-215.781 278.869" stroke="#B3B3B3" stroke-width="1.00012"/>
<path d="M531.69 -116.504L-184.447 296.958" stroke="#B3B3B3" stroke-width="1.00012"/>
<path d="M563.031 -98.4111L-153.107 315.051" stroke="#B3B3B3" stroke-width="1.00012"/>
<path d="M594.363 -80.3198L-121.774 333.142" stroke="#B3B3B3" stroke-width="1.00012"/>
<path d="M625.698 -62.2285L-90.4395 351.233" stroke="#B3B3B3" stroke-width="1.00012"/>
<path d="M657.033 -44.136L-59.1041 369.326" stroke="#B3B3B3" stroke-width="1.00012"/>
<path d="M688.371 -26.0447L-27.7664 387.417" stroke="#B3B3B3" stroke-width="1.00012"/>
<path d="M719.706 -7.95337L3.56876 405.509" stroke="#B3B3B3" stroke-width="1.00012"/>
<path d="M751.043 10.1389L34.9059 423.601" stroke="#B3B3B3" stroke-width="1.00012"/>
<path d="M782.375 28.23L66.2384 441.692" stroke="#B3B3B3" stroke-width="1.00012"/>
<path d="M813.714 46.3201L97.5766 459.782" stroke="#B3B3B3" stroke-width="1.00012"/>
<path d="M845.046 64.4121L128.909 477.874" stroke="#B3B3B3" stroke-width="1.00012"/>
<path d="M876.385 82.5054L160.247 495.967" stroke="#B3B3B3" stroke-width="1.00012"/>
<path d="M907.717 100.596L191.58 514.058" stroke="#B3B3B3" stroke-width="1.00012"/>
<path d="M939.054 118.688L222.917 532.15" stroke="#B3B3B3" stroke-width="1.00012"/>
<path d="M970.389 136.779L254.252 550.24" stroke="#B3B3B3" stroke-width="1.00012"/>
<path d="M1001.73 154.871L285.589 568.333" stroke="#B3B3B3" stroke-width="1.00012"/>
<path d="M1033.06 172.963L316.923 586.425" stroke="#B3B3B3" stroke-width="1.00012"/>
<path d="M1064.4 191.053L348.26 604.515" stroke="#B3B3B3" stroke-width="1.00012"/>
<path d="M312.345 -243.143L1064.4 191.054" stroke="#B3B3B3" stroke-width="1.00012"/>
<path d="M282.503 -225.916L1034.55 208.281" stroke="#B3B3B3" stroke-width="1.00012"/>
<path d="M252.665 -208.688L1004.72 225.509" stroke="#B3B3B3" stroke-width="1.00012"/>
<path d="M222.825 -191.461L974.876 242.736" stroke="#B3B3B3" stroke-width="1.00012"/>
<path d="M192.987 -174.232L945.038 259.964" stroke="#B3B3B3" stroke-width="1.00012"/>
<path d="M163.147 -157.006L915.199 277.191" stroke="#B3B3B3" stroke-width="1.00012"/>
<path d="M133.31 -139.778L885.361 294.419" stroke="#B3B3B3" stroke-width="1.00012"/>
<path d="M103.47 -122.55L855.522 311.647" stroke="#B3B3B3" stroke-width="1.00012"/>
<path d="M73.6306 -105.323L825.682 328.874" stroke="#B3B3B3" stroke-width="1.00012"/>
<path d="M43.793 -88.0959L795.844 346.101" stroke="#B3B3B3" stroke-width="1.00012"/>
<path d="M13.9541 -70.866L766.005 363.331" stroke="#B3B3B3" stroke-width="1.00012"/>
<path d="M-15.8865 -53.6411L736.165 380.556" stroke="#B3B3B3" stroke-width="1.00012"/>
<path d="M-45.7236 -36.4121L706.327 397.785" stroke="#B3B3B3" stroke-width="1.00012"/>
<path d="M-75.564 -19.1841L676.487 415.013" stroke="#B3B3B3" stroke-width="1.00012"/>
<path d="M-105.403 -1.95703L646.648 432.24" stroke="#B3B3B3" stroke-width="1.00012"/>
<path d="M-135.241 15.2712L616.81 449.468M146.777 178.095C146.777 178.095 165.875 189.121 178.112 196.186" stroke="#B3B3B3" stroke-width="1.00012"/>
<path d="M-165.053 32.4885L586.998 466.685" stroke="#B3B3B3" stroke-width="1.00012"/>
<path d="M-194.893 49.7141L557.159 483.911" stroke="#B3B3B3" stroke-width="1.00012"/>
<path d="M-224.732 66.9412L527.319 501.138" stroke="#B3B3B3" stroke-width="1.00012"/>
<path d="M-254.57 84.1685L497.481 518.365" stroke="#B3B3B3" stroke-width="1.00012"/>
<path d="M-284.409 101.396L467.642 535.593" stroke="#B3B3B3" stroke-width="1.00012"/>
<path d="M-314.247 118.624L437.804 552.821" stroke="#B3B3B3" stroke-width="1.00012"/>
<path d="M-344.088 135.851L407.963 570.048" stroke="#B3B3B3" stroke-width="1.00012"/>
<path d="M-373.926 153.079L378.125 587.276" stroke="#B3B3B3" stroke-width="1.00012"/>
<path d="M-403.764 170.306L348.287 604.503" stroke="#B3B3B3" stroke-width="1.00012"/>
</g>
</g>
<mask id="path-52-inside-1_1851_6400" fill="white">
<path d="M124.064 152.438L143.87 152.482V163.705L132.933 170.001L99.8711 189.067L56 163.705L56.0156 163.695V152.291L75.2061 152.332L99.2227 138.113L124.064 152.438Z"/>
</mask>
<path d="M124.064 152.438L143.87 152.482V163.705L132.933 170.001L99.8711 189.067L56 163.705L56.0156 163.695V152.291L75.2061 152.332L99.2227 138.113L124.064 152.438Z" fill="white"/>
<path d="M124.064 152.438L123.915 152.698L123.984 152.738L124.064 152.738L124.064 152.438ZM143.87 152.482H144.17V152.183L143.871 152.182L143.87 152.482ZM143.87 163.705L144.02 163.965L144.17 163.878V163.705H143.87ZM132.933 170.001L132.783 169.741L132.783 169.741L132.933 170.001ZM99.8711 189.067L99.7209 189.327L99.8709 189.414L100.021 189.327L99.8711 189.067ZM56 163.705L55.841 163.45L55.4178 163.715L55.8498 163.965L56 163.705ZM56.0156 163.695L56.1747 163.95L56.3157 163.861V163.695H56.0156ZM56.0156 152.291L56.0163 151.991L55.7155 151.99V152.291H56.0156ZM75.2061 152.332L75.2054 152.632L75.2879 152.632L75.3589 152.59L75.2061 152.332ZM99.2227 138.113L99.3726 137.853L99.2207 137.765L99.0698 137.855L99.2227 138.113ZM124.064 152.438L124.064 152.738L143.869 152.782L143.87 152.482L143.871 152.182L124.065 152.138L124.064 152.438ZM143.87 152.482H143.57V163.705H143.87H144.17V152.482H143.87ZM143.87 163.705L143.72 163.445L132.783 169.741L132.933 170.001L133.082 170.261L144.02 163.965L143.87 163.705ZM132.933 170.001L132.783 169.741L99.7212 188.807L99.8711 189.067L100.021 189.327L133.083 170.261L132.933 170.001ZM99.8711 189.067L100.021 188.807L56.1502 163.445L56 163.705L55.8498 163.965L99.7209 189.327L99.8711 189.067ZM56 163.705L56.159 163.959L56.1747 163.95L56.0156 163.695L55.8566 163.441L55.841 163.45L56 163.705ZM56.0156 163.695H56.3157V152.291H56.0156H55.7155V163.695H56.0156ZM56.0156 152.291L56.015 152.591L75.2054 152.632L75.2061 152.332L75.2067 152.032L56.0163 151.991L56.0156 152.291ZM75.2061 152.332L75.3589 152.59L99.3755 138.371L99.2227 138.113L99.0698 137.855L75.0532 152.074L75.2061 152.332ZM99.2227 138.113L99.0728 138.373L123.915 152.698L124.064 152.438L124.214 152.178L99.3726 137.853L99.2227 138.113Z" fill="#0E3572" mask="url(#path-52-inside-1_1851_6400)"/>
<path d="M143.612 152.481L99.8754 177.431L56.2787 152.29L99.8745 127.15L143.612 152.481Z" fill="white"/>
<path d="M143.612 152.481L99.8754 177.431L56.2787 152.29L99.8745 127.15L143.612 152.481Z" fill="#ED1C24" fill-opacity="0.1"/>
<path d="M143.612 152.481L99.8754 177.431L56.2787 152.29L99.8745 127.15L143.612 152.481Z" stroke="#0E3572" stroke-width="0.300083"/>
<path d="M74.5 175.5L14.5 210.141L212.575 324.5L262.5 295.676L374.5 231.013M489 100.069L354.5 177.722L410.651 210.141L374.5 231.013M374.5 231.013L461.946 281.5L485.5 267.901L509.054 281.5" stroke="#0E3572" stroke-dasharray="5 2"/>
<g clip-path="url(#clip1_1851_6400)">
<path d="M95.594 149.932C98.1783 151.424 98.2229 153.817 95.6933 155.277C93.1639 156.737 89.0182 156.712 86.4339 155.22C83.8495 153.728 83.805 151.334 86.3345 149.874C88.864 148.414 93.0096 148.44 95.594 149.932Z" stroke="#ED1C24" stroke-miterlimit="10"/>
<path d="M97.2451 164.042C96.4648 164.493 95.1448 164.425 94.4996 163.892C91.2888 161.238 91.6725 157.598 95.6933 155.277C99.7142 152.956 106.019 152.734 110.616 154.588C111.539 154.96 111.657 155.722 110.877 156.173L97.2451 164.042Z" stroke="#ED1C24" stroke-miterlimit="10"/>
<path d="M104.707 143.919C106.708 145.074 106.742 146.927 104.784 148.057C102.826 149.188 99.6167 149.168 97.6161 148.013C95.6156 146.858 95.5811 145.005 97.5392 143.875C99.4974 142.745 102.706 142.765 104.707 143.919Z" stroke="#ED1C24" stroke-miterlimit="10"/>
<path d="M102.681 153.38C101.615 151.558 102.311 149.485 104.784 148.058C107.897 146.261 112.777 146.089 116.335 147.524C117.05 147.812 117.141 148.402 116.537 148.751L107.859 153.761" stroke="#ED1C24" stroke-miterlimit="10"/>
</g>
<mask id="path-60-inside-2_1851_6400" fill="white">
<path d="M548.064 83.4382L567.87 83.4822V94.7048L556.933 101.001L523.871 120.067L480 94.7048L480.016 94.6951V83.2908L499.206 83.3318L523.223 69.113L548.064 83.4382Z"/>
</mask>
<path d="M548.064 83.4382L567.87 83.4822V94.7048L556.933 101.001L523.871 120.067L480 94.7048L480.016 94.6951V83.2908L499.206 83.3318L523.223 69.113L548.064 83.4382Z" fill="white"/>
<path d="M548.064 83.4382L547.915 83.6982L547.984 83.7381L548.064 83.7383L548.064 83.4382ZM567.87 83.4822H568.17V83.1828L567.871 83.1821L567.87 83.4822ZM567.87 94.7048L568.02 94.9649L568.17 94.8783V94.7048H567.87ZM556.933 101.001L556.783 100.741L556.783 100.741L556.933 101.001ZM523.871 120.067L523.721 120.327L523.871 120.414L524.021 120.327L523.871 120.067ZM480 94.7048L479.841 94.4504L479.418 94.7149L479.85 94.9646L480 94.7048ZM480.016 94.6951L480.175 94.9495L480.316 94.8614V94.6951H480.016ZM480.016 83.2908L480.016 82.9907L479.716 82.99V83.2908H480.016ZM499.206 83.3318L499.205 83.6319L499.288 83.632L499.359 83.59L499.206 83.3318ZM523.223 69.113L523.373 68.8531L523.221 68.7655L523.07 68.8548L523.223 69.113ZM548.064 83.4382L548.064 83.7383L567.869 83.7823L567.87 83.4822L567.871 83.1821L548.065 83.1382L548.064 83.4382ZM567.87 83.4822H567.57V94.7048H567.87H568.17V83.4822H567.87ZM567.87 94.7048L567.72 94.4448L556.783 100.741L556.933 101.001L557.082 101.261L568.02 94.9649L567.87 94.7048ZM556.933 101.001L556.783 100.741L523.721 119.807L523.871 120.067L524.021 120.327L557.083 101.261L556.933 101.001ZM523.871 120.067L524.021 119.807L480.15 94.445L480 94.7048L479.85 94.9646L523.721 120.327L523.871 120.067ZM480 94.7048L480.159 94.9593L480.175 94.9495L480.016 94.6951L479.857 94.4406L479.841 94.4504L480 94.7048ZM480.016 94.6951H480.316V83.2908H480.016H479.716V94.6951H480.016ZM480.016 83.2908L480.015 83.5909L499.205 83.6319L499.206 83.3318L499.207 83.0317L480.016 82.9907L480.016 83.2908ZM499.206 83.3318L499.359 83.59L523.376 69.3713L523.223 69.113L523.07 68.8548L499.053 83.0736L499.206 83.3318ZM523.223 69.113L523.073 69.373L547.915 83.6982L548.064 83.4382L548.214 83.1783L523.373 68.8531L523.223 69.113Z" fill="#0E3572" mask="url(#path-60-inside-2_1851_6400)"/>
<path d="M567.612 83.4807L523.875 108.431L480.278 83.2905L523.874 58.1503L567.612 83.4807Z" fill="white"/>
<path d="M567.612 83.4807L523.875 108.431L480.278 83.2905L523.874 58.1503L567.612 83.4807Z" fill="#ED1C24" fill-opacity="0.1"/>
<path d="M567.612 83.4807L523.875 108.431L480.278 83.2905L523.874 58.1503L567.612 83.4807Z" stroke="#0E3572" stroke-width="0.300083"/>
<g clip-path="url(#clip2_1851_6400)">
<path d="M524.153 99.0574L535.59 92.454L531.585 90.1418L531.99 89.9079C532.938 89.3609 532.937 88.4738 531.989 87.9265C531.041 87.3792 529.505 87.379 528.557 87.926L528.152 88.1598L524.147 85.8475L520.144 88.1587L520.549 88.3926C521.497 88.94 521.498 89.8271 520.55 90.3742C519.603 90.9212 518.066 90.921 517.118 90.3737L516.713 90.1397L512.71 92.4509L524.153 99.0574Z" stroke="#ED1C24" stroke-width="0.830229" stroke-miterlimit="10" stroke-linecap="round" stroke-linejoin="round"/>
<path d="M512.899 92.5598L501.456 85.9533L512.894 79.3497L516.899 81.662L516.494 81.8958C515.546 82.4428 515.547 83.33 516.495 83.8773C517.443 84.4246 518.979 84.4248 519.927 83.8778L520.332 83.6439L524.337 85.9562L524.336 85.9565" stroke="#ED1C24" stroke-width="0.830229" stroke-miterlimit="10" stroke-linecap="round" stroke-linejoin="round"/>
<path d="M535.526 92.4912L546.963 85.8879L542.958 83.5756L543.363 83.3418C544.31 82.7947 544.31 81.9076 543.362 81.3603C542.414 80.813 540.878 80.8128 539.93 81.3598L539.525 81.5937L535.52 79.2814L531.517 81.5926L531.112 81.3586C530.164 80.8113 528.627 80.811 527.68 81.3581C526.732 81.9051 526.733 82.7922 527.681 83.3395L528.086 83.5735L524.083 85.8847" stroke="#ED1C24" stroke-width="0.830229" stroke-miterlimit="10" stroke-linecap="round" stroke-linejoin="round"/>
<path d="M524.145 79.5373L520.14 77.225L519.735 77.4589C518.787 78.0059 517.251 78.0057 516.303 77.4584C515.355 76.9111 515.354 76.024 516.302 75.4769L516.707 75.2431L512.702 72.9308L524.139 66.3275L535.583 72.9343L531.58 75.2454L531.174 75.0115C530.226 74.4642 528.69 74.464 527.742 75.011C526.795 75.5581 526.795 76.4452 527.743 76.9925L528.148 77.2265L524.145 79.5376L524.145 79.5373Z" stroke="#ED1C24" stroke-width="0.830229" stroke-miterlimit="10" stroke-linecap="round" stroke-linejoin="round"/>
</g>
<mask id="path-67-inside-3_1851_6400" fill="white">
<path d="M555.064 296.438L574.87 296.482V307.705L563.933 314.001L530.871 333.067L487 307.705L487.016 307.695V296.291L506.206 296.332L530.223 282.113L555.064 296.438Z"/>
</mask>
<path d="M555.064 296.438L574.87 296.482V307.705L563.933 314.001L530.871 333.067L487 307.705L487.016 307.695V296.291L506.206 296.332L530.223 282.113L555.064 296.438Z" fill="white"/>
<path d="M555.064 296.438L554.915 296.698L554.984 296.738L555.064 296.738L555.064 296.438ZM574.87 296.482H575.17V296.183L574.871 296.182L574.87 296.482ZM574.87 307.705L575.02 307.965L575.17 307.878V307.705H574.87ZM563.933 314.001L563.783 313.741L563.783 313.741L563.933 314.001ZM530.871 333.067L530.721 333.327L530.871 333.414L531.021 333.327L530.871 333.067ZM487 307.705L486.841 307.45L486.418 307.715L486.85 307.965L487 307.705ZM487.016 307.695L487.175 307.95L487.316 307.861V307.695H487.016ZM487.016 296.291L487.016 295.991L486.716 295.99V296.291H487.016ZM506.206 296.332L506.205 296.632L506.288 296.632L506.359 296.59L506.206 296.332ZM530.223 282.113L530.373 281.853L530.221 281.765L530.07 281.855L530.223 282.113ZM555.064 296.438L555.064 296.738L574.869 296.782L574.87 296.482L574.871 296.182L555.065 296.138L555.064 296.438ZM574.87 296.482H574.57V307.705H574.87H575.17V296.482H574.87ZM574.87 307.705L574.72 307.445L563.783 313.741L563.933 314.001L564.082 314.261L575.02 307.965L574.87 307.705ZM563.933 314.001L563.783 313.741L530.721 332.807L530.871 333.067L531.021 333.327L564.083 314.261L563.933 314.001ZM530.871 333.067L531.021 332.807L487.15 307.445L487 307.705L486.85 307.965L530.721 333.327L530.871 333.067ZM487 307.705L487.159 307.959L487.175 307.95L487.016 307.695L486.857 307.441L486.841 307.45L487 307.705ZM487.016 307.695H487.316V296.291H487.016H486.716V307.695H487.016ZM487.016 296.291L487.015 296.591L506.205 296.632L506.206 296.332L506.207 296.032L487.016 295.991L487.016 296.291ZM506.206 296.332L506.359 296.59L530.376 282.371L530.223 282.113L530.07 281.855L506.053 296.074L506.206 296.332ZM530.223 282.113L530.073 282.373L554.915 296.698L555.064 296.438L555.214 296.178L530.373 281.853L530.223 282.113Z" fill="#0E3572" mask="url(#path-67-inside-3_1851_6400)"/>
<path d="M574.612 296.481L530.875 321.431L487.278 296.29L530.874 271.15L574.612 296.481Z" fill="white"/>
<path d="M574.612 296.481L530.875 321.431L487.278 296.29L530.874 271.15L574.612 296.481Z" fill="#ED1C24" fill-opacity="0.1"/>
<path d="M574.612 296.481L530.875 321.431L487.278 296.29L530.874 271.15L574.612 296.481Z" stroke="#0E3572" stroke-width="0.300083"/>
<g clip-path="url(#clip3_1851_6400)">
<path d="M523.481 286.696C524.388 286.859 525.349 287.077 526.362 287.353C530.143 288.384 533.749 289.997 536.683 291.69C544.494 296.2 548.231 301.666 544.545 303.794C542.457 304.999 538.448 304.833 533.9 303.593C526.831 301.664 519.435 297.413 516.065 293.297C512.371 288.781 514.691 286.019 520.676 286.355" stroke="#ED1C24" stroke-miterlimit="10" stroke-linecap="round" stroke-linejoin="round"/>
<path d="M526.603 306.902C526.006 306.946 525.422 306.928 524.855 306.84C522.002 306.399 520.248 304.311 519.834 301.417C519.194 296.928 521.86 291.104 526.362 287.353C529.227 284.966 532.555 283.664 535.407 284.106C536.326 284.248 537.132 284.561 537.815 285.018M530.09 305.988C531.395 305.416 532.689 304.602 533.9 303.593C539.352 299.05 542.092 291.455 539.598 286.975" stroke="#ED1C24" stroke-miterlimit="10" stroke-linecap="round" stroke-linejoin="round"/>
<path d="M533.274 300.521C538.815 299.604 543.968 298.089 547.132 296.25M510.295 297.794C510.284 298.04 510.331 298.282 510.441 298.518C511.205 300.166 514.821 301.178 519.834 301.417C523.146 301.574 526.845 301.385 530.491 300.925M511.632 295.723C512.627 294.893 514.143 294.066 516.065 293.297C522.593 290.687 532.701 289.16 540.426 289.528C545.44 289.767 549.057 290.78 549.821 292.427C550.119 293.069 549.958 293.753 549.405 294.446" stroke="#ED1C24" stroke-miterlimit="10" stroke-linecap="round" stroke-linejoin="round"/>
<path d="M512.073 295.913C512.828 296.349 512.828 297.056 512.072 297.492C511.313 297.931 510.088 297.926 509.338 297.492C508.582 297.056 508.582 296.349 509.337 295.913C510.1 295.473 511.327 295.482 512.073 295.913Z" stroke="#ED1C24" stroke-miterlimit="10" stroke-linecap="round" stroke-linejoin="round"/>
<path d="M549.915 294.727C549.29 294.227 548.082 294.114 547.215 294.474C546.349 294.835 546.153 295.533 546.777 296.033C547.401 296.533 548.61 296.646 549.477 296.286C550.343 295.925 550.539 295.227 549.915 294.727Z" stroke="#ED1C24" stroke-miterlimit="10" stroke-linecap="round" stroke-linejoin="round"/>
<path d="M540.312 285.135C541.067 285.571 541.067 286.277 540.312 286.714C539.56 287.148 538.335 287.152 537.577 286.714C536.821 286.278 536.821 285.57 537.577 285.134C538.328 284.701 539.553 284.697 540.312 285.135ZM527.092 305.8C527.848 305.364 529.072 305.364 529.828 305.8C530.577 306.232 530.589 306.94 529.828 307.379C529.073 307.815 527.848 307.815 527.092 307.379C526.339 306.944 526.336 306.237 527.092 305.8Z" stroke="#ED1C24" stroke-miterlimit="10" stroke-linecap="round" stroke-linejoin="round"/>
<path d="M533.625 297.49C535.555 296.376 535.555 294.569 533.625 293.455C531.695 292.341 528.566 292.341 526.636 293.455C524.707 294.569 524.707 296.376 526.636 297.49C528.566 298.604 531.695 298.604 533.625 297.49Z" stroke="#ED1C24" stroke-miterlimit="10" stroke-linecap="round" stroke-linejoin="round"/>
</g>
<path d="M153.82 243.75L331.906 345.509L501.217 247.759L323.661 145.25L153.82 243.75Z" fill="white"/>
<path d="M153.82 243.75L331.906 345.509L501.217 247.759L323.661 145.25L153.82 243.75Z" fill="#0E3572" fill-opacity="0.1"/>
<path d="M153.82 243.75L331.906 345.509L501.217 247.759L323.661 145.25L153.82 243.75Z" stroke="#0E3572" stroke-width="0.5"/>
<mask id="path-78-inside-4_1851_6400" fill="white">
<path d="M407.517 212.04L467.322 212.165V244.815L330.76 321L194.75 245.783L193 244.816L193 244.815V211.592L252.945 211.717L329.939 169.204L407.517 212.04Z"/>
</mask>
<path d="M407.517 212.04L467.322 212.165V244.815L330.76 321L194.75 245.783L193 244.816L193 244.815V211.592L252.945 211.717L329.939 169.204L407.517 212.04Z" fill="url(#paint1_linear_1851_6400)"/>
<path d="M407.517 212.04L407.231 212.558L407.364 212.631L407.516 212.632L407.517 212.04ZM467.322 212.165H467.914V211.574L467.323 211.573L467.322 212.165ZM467.322 244.815L467.61 245.332L467.914 245.163V244.815H467.322ZM330.76 321L330.474 321.518L330.762 321.677L331.049 321.517L330.76 321ZM194.75 245.783L195.036 245.265L195.036 245.265L194.75 245.783ZM193 244.816L192.581 244.398L192.025 244.954L192.713 245.334L193 244.816ZM193 244.815L193.419 245.234L193.592 245.06V244.815H193ZM193 211.592L193.002 211L192.409 210.999V211.592H193ZM252.945 211.717L252.944 212.308L253.097 212.309L253.231 212.235L252.945 211.717ZM329.939 169.204L330.225 168.686L329.939 168.528L329.653 168.686L329.939 169.204ZM407.517 212.04L407.516 212.632L467.321 212.757L467.322 212.165L467.323 211.573L407.518 211.448L407.517 212.04ZM467.322 212.165H466.73V244.815H467.322H467.914V212.165H467.322ZM467.322 244.815L467.033 244.298L330.472 320.483L330.76 321L331.049 321.517L467.61 245.332L467.322 244.815ZM330.76 321L331.047 320.482L195.036 245.265L194.75 245.783L194.463 246.301L330.474 321.518L330.76 321ZM194.75 245.783L195.036 245.265L193.286 244.298L193 244.816L192.713 245.334L194.463 246.301L194.75 245.783ZM193 244.816L193.418 245.235L193.419 245.234L193 244.815L192.582 244.397L192.581 244.398L193 244.816ZM193 244.815H193.592V211.592H193H192.409V244.815H193ZM193 211.592L192.999 212.183L252.944 212.308L252.945 211.717L252.946 211.125L193.002 211L193 211.592ZM252.945 211.717L253.231 212.235L330.225 169.722L329.939 169.204L329.653 168.686L252.659 211.199L252.945 211.717ZM329.939 169.204L329.653 169.722L407.231 212.558L407.517 212.04L407.803 211.522L330.225 168.686L329.939 169.204Z" fill="#0E3572" mask="url(#path-78-inside-4_1851_6400)"/>
<path d="M466.72 212.163L329.941 286.874L193.6 211.592L329.94 136.311L466.72 212.163Z" fill="#0E3572"/>
<path d="M466.72 212.163L329.941 286.874L193.6 211.592L329.94 136.311L466.72 212.163Z" stroke="white" stroke-opacity="0.2" stroke-width="0.685843"/>
<path d="M466.72 212.163L329.941 286.874L193.6 211.592L329.94 136.311L466.72 212.163Z" stroke="#0E3572" stroke-width="0.685843"/>
<mask id="path-81-inside-5_1851_6400" fill="white">
<path d="M396.269 155.621L447.36 155.729V183.622L330.694 248.707L214.743 184.583L213.005 183.623L213.006 183.622V155.239L264.216 155.346L329.993 119.027L396.269 155.621Z"/>
</mask>
<path d="M396.269 155.621L447.36 155.729V183.622L330.694 248.707L214.743 184.583L213.005 183.623L213.006 183.622V155.239L264.216 155.346L329.993 119.027L396.269 155.621Z" fill="url(#paint2_linear_1851_6400)"/>
<path d="M396.269 155.621L395.983 156.139L396.115 156.213L396.267 156.213L396.269 155.621ZM447.36 155.729H447.952V155.138L447.362 155.137L447.36 155.729ZM447.36 183.622L447.649 184.139L447.952 183.97V183.622H447.36ZM330.694 248.707L330.408 249.225L330.696 249.384L330.983 249.224L330.694 248.707ZM214.743 184.583L215.03 184.065L215.029 184.065L214.743 184.583ZM213.005 183.623L212.586 183.205L212.03 183.761L212.719 184.141L213.005 183.623ZM213.006 183.622L213.424 184.04L213.598 183.867V183.622H213.006ZM213.006 155.239L213.007 154.648L212.414 154.646V155.239H213.006ZM264.216 155.346L264.215 155.937L264.368 155.938L264.502 155.864L264.216 155.346ZM329.993 119.027L330.279 118.509L329.993 118.351L329.707 118.509L329.993 119.027ZM396.269 155.621L396.267 156.213L447.359 156.32L447.36 155.729L447.362 155.137L396.27 155.029L396.269 155.621ZM447.36 155.729H446.769V183.622H447.36H447.952V155.729H447.36ZM447.36 183.622L447.072 183.105L330.406 248.19L330.694 248.707L330.983 249.224L447.649 184.139L447.36 183.622ZM330.694 248.707L330.981 248.189L215.03 184.065L214.743 184.583L214.457 185.101L330.408 249.225L330.694 248.707ZM214.743 184.583L215.029 184.065L213.291 183.105L213.005 183.623L212.719 184.141L214.457 185.101L214.743 184.583ZM213.005 183.623L213.423 184.041L213.424 184.04L213.006 183.622L212.587 183.204L212.586 183.205L213.005 183.623ZM213.006 183.622H213.598V155.239H213.006H212.414V183.622H213.006ZM213.006 155.239L213.005 155.831L264.215 155.937L264.216 155.346L264.217 154.754L213.007 154.648L213.006 155.239ZM264.216 155.346L264.502 155.864L330.279 119.545L329.993 119.027L329.707 118.509L263.93 154.828L264.216 155.346ZM329.993 119.027L329.707 119.545L395.983 156.139L396.269 155.621L396.555 155.103L330.279 118.509L329.993 119.027Z" fill="#0E3572" mask="url(#path-81-inside-5_1851_6400)"/>
<path d="M446.757 155.728L329.995 219.505L213.605 155.24L329.993 90.9752L446.757 155.728Z" fill="#0E3572"/>
<path d="M446.757 155.728L329.995 219.505L213.605 155.24L329.993 90.9752L446.757 155.728Z" fill="white" fill-opacity="0.2"/>
<path d="M446.757 155.728L329.995 219.505L213.605 155.24L329.993 90.9752L446.757 155.728Z" stroke="white" stroke-opacity="0.2" stroke-width="0.685843"/>
<path d="M446.757 155.728L329.995 219.505L213.605 155.24L329.993 90.9752L446.757 155.728Z" stroke="#0E3572" stroke-width="0.685843"/>
<mask id="path-84-inside-6_1851_6400" fill="white">
<path d="M386.043 98.9863L429.213 99.0771V122.646L330.635 177.64L231.193 122.646V98.6631L274.464 98.7529L330.042 68.0654L386.043 98.9863Z"/>
</mask>
<path d="M386.043 98.9863L429.213 99.0771V122.646L330.635 177.64L231.193 122.646V98.6631L274.464 98.7529L330.042 68.0654L386.043 98.9863Z" fill="url(#paint3_linear_1851_6400)"/>
<path d="M386.043 98.9863L385.757 99.5044L385.89 99.5778L386.042 99.5781L386.043 98.9863ZM429.213 99.0771H429.805V98.4866L429.215 98.4854L429.213 99.0771ZM429.213 122.646L429.502 123.162L429.805 122.993V122.646H429.213ZM330.635 177.64L330.349 178.157L330.637 178.317L330.924 178.156L330.635 177.64ZM231.193 122.646H230.601V122.995L230.907 123.164L231.193 122.646ZM231.193 98.6631L231.194 98.0713L230.601 98.0701V98.6631H231.193ZM274.464 98.7529L274.463 99.3447L274.616 99.345L274.75 99.271L274.464 98.7529ZM330.042 68.0654L330.329 67.5474L330.042 67.3895L329.756 67.5474L330.042 68.0654ZM386.043 98.9863L386.042 99.5781L429.212 99.6689L429.213 99.0771L429.215 98.4854L386.045 98.3946L386.043 98.9863ZM429.213 99.0771H428.622V122.646H429.213H429.805V99.0771H429.213ZM429.213 122.646L428.925 122.129L330.347 177.123L330.635 177.64L330.924 178.156L429.502 123.162L429.213 122.646ZM330.635 177.64L330.922 177.122L231.479 122.129L231.193 122.646L230.907 123.164L330.349 178.157L330.635 177.64ZM231.193 122.646H231.785V98.6631H231.193H230.601V122.646H231.193ZM231.193 98.6631L231.192 99.2548L274.463 99.3447L274.464 98.7529L274.466 98.1612L231.194 98.0713L231.193 98.6631ZM274.464 98.7529L274.75 99.271L330.329 68.5835L330.042 68.0654L329.756 67.5474L274.178 98.2349L274.464 98.7529ZM330.042 68.0654L329.756 68.5835L385.757 99.5044L386.043 98.9863L386.329 98.4683L330.329 67.5474L330.042 68.0654Z" fill="#0E3572" mask="url(#path-84-inside-6_1851_6400)"/>
<path d="M428.611 99.0751L330.044 152.914L231.792 98.6635L330.042 44.4139L428.611 99.0751Z" fill="#0E3572"/>
<path d="M428.611 99.0751L330.044 152.914L231.792 98.6635L330.042 44.4139L428.611 99.0751Z" fill="white" fill-opacity="0.4"/>
<path d="M428.611 99.0751L330.044 152.914L231.792 98.6635L330.042 44.4139L428.611 99.0751Z" stroke="white" stroke-opacity="0.2" stroke-width="0.685843"/>
<path d="M428.611 99.0751L330.044 152.914L231.792 98.6635L330.042 44.4139L428.611 99.0751Z" stroke="#0E3572" stroke-width="0.685843"/>
<mask id="path-87-inside-7_1851_6400" fill="white">
<path fill-rule="evenodd" clip-rule="evenodd" d="M375.304 55.325L410.158 55.3982V74.4265L330.572 118.826L250.288 74.4275L250.289 55.0652L285.223 55.1375L330.094 30.3621L375.304 55.325Z"/>
</mask>
<path fill-rule="evenodd" clip-rule="evenodd" d="M375.304 55.325L410.158 55.3982V74.4265L330.572 118.826L250.288 74.4275L250.289 55.0652L285.223 55.1375L330.094 30.3621L375.304 55.325Z" fill="url(#paint4_linear_1851_6400)"/>
<path d="M375.304 55.325L375.018 55.843L375.151 55.9164L375.302 55.9167L375.304 55.325ZM410.158 55.3982H410.75V54.8077L410.159 54.8065L410.158 55.3982ZM410.158 74.4265L410.447 74.9433L410.75 74.774V74.4265H410.158ZM330.572 118.826L330.286 119.344L330.574 119.503L330.861 119.343L330.572 118.826ZM250.288 74.4275L249.696 74.4275L249.696 74.7764L250.002 74.9453L250.288 74.4275ZM250.289 55.0652L250.29 54.4734L249.697 54.4722L249.697 55.0652L250.289 55.0652ZM285.223 55.1375L285.221 55.7292L285.375 55.7295L285.509 55.6555L285.223 55.1375ZM330.094 30.3621L330.38 29.844L330.094 29.6861L329.808 29.844L330.094 30.3621ZM375.304 55.325L375.302 55.9167L410.157 55.9899L410.158 55.3982L410.159 54.8065L375.305 54.7332L375.304 55.325ZM410.158 55.3982H409.566V74.4265H410.158H410.75V55.3982H410.158ZM410.158 74.4265L409.87 73.9097L330.284 118.309L330.572 118.826L330.861 119.343L410.447 74.9433L410.158 74.4265ZM330.572 118.826L330.859 118.308L250.574 73.9097L250.288 74.4275L250.002 74.9453L330.286 119.344L330.572 118.826ZM250.288 74.4275L250.88 74.4275L250.881 55.0652L250.289 55.0652L249.697 55.0652L249.696 74.4275L250.288 74.4275ZM250.289 55.0652L250.288 55.6569L285.221 55.7292L285.223 55.1375L285.224 54.5457L250.29 54.4734L250.289 55.0652ZM285.223 55.1375L285.509 55.6555L330.38 30.8801L330.094 30.3621L329.808 29.844L284.937 54.6194L285.223 55.1375ZM330.094 30.3621L329.808 30.8801L375.018 55.843L375.304 55.325L375.59 54.8069L330.38 29.844L330.094 30.3621Z" fill="#0E3572" mask="url(#path-87-inside-7_1851_6400)"/>
<path d="M409.556 55.3972L330.096 98.7998L250.888 55.0649L330.094 11.3309L409.556 55.3972Z" fill="white"/>
<path d="M409.556 55.3972L330.096 98.7998L250.888 55.0649L330.094 11.3309L409.556 55.3972Z" stroke="white" stroke-opacity="0.2" stroke-width="0.685843"/>
<path d="M409.556 55.3972L330.096 98.7998L250.888 55.0649L330.094 11.3309L409.556 55.3972Z" stroke="#0E3572" stroke-width="0.685843"/>
<path d="M218.761 208.093L225.214 204.367L227.319 205.583C228.001 205.976 228.454 206.398 228.68 206.848C228.916 207.298 228.931 207.743 228.723 208.183C228.521 208.62 228.102 209.022 227.467 209.389C226.837 209.752 226.138 209.995 225.37 210.119C224.608 210.239 223.834 210.232 223.049 210.099C222.275 209.965 221.547 209.702 220.866 209.309L218.761 208.093ZM220.978 208.173L221.931 208.723C222.37 208.977 222.838 209.143 223.335 209.224C223.843 209.304 224.348 209.302 224.851 209.219C225.359 209.132 225.835 208.96 226.28 208.703C226.73 208.443 227.028 208.168 227.172 207.878C227.317 207.588 227.317 207.298 227.172 207.008C227.034 206.721 226.745 206.451 226.306 206.198L225.353 205.648L220.978 208.173ZM227.209 213.09C226.724 212.81 226.409 212.502 226.265 212.165C226.12 211.829 226.135 211.493 226.308 211.16C226.481 210.827 226.796 210.528 227.252 210.265C227.726 209.992 228.246 209.808 228.811 209.715C229.389 209.621 229.961 209.615 230.527 209.695C231.098 209.778 231.604 209.946 232.043 210.2C232.412 210.413 232.675 210.635 232.831 210.865C232.993 211.098 233.065 211.333 233.048 211.57C233.03 211.807 232.935 212.035 232.762 212.255C232.594 212.472 232.352 212.672 232.034 212.855C231.953 212.902 231.864 212.947 231.766 212.99C231.673 213.037 231.584 213.072 231.497 213.095L227.859 210.995L228.725 210.495L231.722 212.225L230.778 212.15C231.096 212.027 231.318 211.882 231.445 211.715C231.578 211.552 231.615 211.383 231.558 211.21C231.506 211.04 231.355 210.883 231.107 210.74C230.87 210.603 230.599 210.517 230.293 210.48C229.993 210.44 229.678 210.458 229.349 210.535C229.031 210.612 228.722 210.75 228.422 210.95C228.11 211.103 227.89 211.273 227.763 211.46C227.648 211.647 227.628 211.832 227.703 212.015C227.784 212.202 227.954 212.37 228.214 212.52C228.474 212.67 228.748 212.765 229.037 212.805C229.331 212.849 229.623 212.847 229.912 212.8L230.379 213.591C230.062 213.667 229.718 213.699 229.349 213.686C228.979 213.672 228.609 213.616 228.24 213.516C227.876 213.419 227.532 213.277 227.209 213.09ZM232.47 216.128C232.014 215.864 231.713 215.568 231.569 215.237C231.43 214.904 231.445 214.569 231.612 214.232C231.78 213.896 232.092 213.595 232.548 213.332C233.01 213.065 233.53 212.885 234.107 212.792C234.685 212.699 235.262 212.692 235.84 212.772C236.423 212.855 236.937 213.025 237.382 213.282C237.74 213.489 237.985 213.714 238.118 213.957C238.262 214.201 238.288 214.442 238.196 214.682L237.789 214.717L240.57 213.112L241.704 213.767L235.147 217.553L234.072 216.933L234.982 216.408L234.878 216.608C234.462 216.661 234.041 216.644 233.613 216.558C233.192 216.468 232.811 216.324 232.47 216.128ZM233.631 215.598C233.891 215.748 234.179 215.844 234.497 215.888C234.815 215.931 235.135 215.923 235.459 215.863C235.788 215.806 236.091 215.698 236.368 215.538C236.64 215.381 236.824 215.207 236.923 215.017C237.032 214.827 237.05 214.641 236.975 214.457C236.899 214.274 236.732 214.107 236.472 213.957C236.218 213.81 235.926 213.715 235.597 213.672C235.274 213.625 234.947 213.63 234.618 213.687C234.301 213.744 234.003 213.852 233.726 214.012C233.449 214.172 233.258 214.346 233.154 214.532C233.056 214.722 233.047 214.911 233.128 215.097C233.209 215.284 233.377 215.451 233.631 215.598ZM236.202 218.162L240.915 215.442L242.05 216.097L237.337 218.818L236.202 218.162ZM241.443 215.137L242.656 214.437L243.791 215.092L242.578 215.792L241.443 215.137ZM240.551 220.793C240.083 220.523 239.768 220.218 239.607 219.878C239.456 219.538 239.459 219.199 239.615 218.862C239.777 218.522 240.092 218.217 240.559 217.947C241.027 217.677 241.553 217.497 242.136 217.407C242.719 217.317 243.303 217.317 243.886 217.407C244.475 217.5 245.003 217.682 245.471 217.952C245.806 218.146 246.057 218.361 246.225 218.597C246.398 218.831 246.485 219.067 246.485 219.307C246.496 219.548 246.407 219.776 246.216 219.993L244.787 219.668C244.937 219.481 244.98 219.286 244.917 219.082C244.859 218.882 244.697 218.706 244.432 218.552C244.183 218.409 243.9 218.316 243.583 218.272C243.271 218.232 242.953 218.242 242.63 218.302C242.306 218.362 242.006 218.472 241.729 218.632C241.452 218.792 241.261 218.966 241.157 219.152C241.053 219.339 241.036 219.523 241.105 219.703C241.18 219.886 241.342 220.049 241.59 220.193C241.862 220.349 242.171 220.444 242.517 220.478C242.864 220.511 243.202 220.483 243.531 220.393L244.077 221.228C243.718 221.328 243.329 221.38 242.907 221.383C242.491 221.383 242.078 221.335 241.668 221.238C241.264 221.138 240.892 220.989 240.551 220.793ZM244.964 223.341C244.635 223.15 244.404 222.954 244.271 222.75C244.138 222.547 244.106 222.349 244.176 222.155C244.251 221.959 244.424 221.782 244.695 221.625C244.955 221.475 245.244 221.375 245.562 221.325C245.885 221.272 246.237 221.275 246.619 221.335C247 221.395 247.404 221.515 247.831 221.695L249.625 222.44L248.758 222.94L247.208 222.305C246.942 222.199 246.702 222.144 246.489 222.14C246.275 222.137 246.084 222.184 245.917 222.28C245.755 222.374 245.686 222.484 245.709 222.61C245.744 222.737 245.853 222.854 246.038 222.96C246.275 223.097 246.532 223.189 246.809 223.236C247.098 223.282 247.381 223.282 247.658 223.236C247.941 223.192 248.189 223.109 248.403 222.985L249.616 222.285C249.818 222.169 249.905 222.025 249.876 221.855C249.859 221.685 249.72 221.525 249.46 221.375C249.217 221.235 248.934 221.148 248.611 221.115C248.299 221.082 247.993 221.102 247.693 221.175L247.216 220.38C247.557 220.29 247.915 220.25 248.291 220.26C248.677 220.27 249.059 220.323 249.434 220.42C249.809 220.517 250.156 220.657 250.474 220.84C250.861 221.063 251.129 221.302 251.279 221.555C251.435 221.805 251.467 222.05 251.375 222.29C251.294 222.53 251.086 222.747 250.751 222.94L247.615 224.751L246.541 224.131L247.346 223.666L247.606 223.796C247.283 223.842 246.968 223.857 246.662 223.841C246.362 223.821 246.067 223.771 245.778 223.691C245.495 223.607 245.224 223.491 244.964 223.341ZM250.676 226.578C250.144 226.271 249.876 225.949 249.87 225.613C249.876 225.276 250.144 224.954 250.676 224.647L252.755 223.447L251.94 222.977L252.954 222.392L253.04 222.442C253.271 222.575 253.511 222.644 253.759 222.647C254.008 222.65 254.247 222.585 254.479 222.452L254.842 222.242L255.977 222.897L254.903 223.517L255.986 224.142L254.972 224.727L253.889 224.102L251.871 225.268C251.715 225.358 251.608 225.449 251.55 225.543C251.498 225.639 251.501 225.738 251.559 225.838C251.623 225.941 251.747 226.046 251.932 226.153C251.972 226.176 252.021 226.201 252.079 226.228C252.142 226.258 252.203 226.286 252.261 226.313L251.291 226.873C251.198 226.833 251.094 226.786 250.979 226.733C250.863 226.679 250.762 226.628 250.676 226.578ZM254.246 228.699C253.761 228.419 253.447 228.111 253.302 227.774C253.158 227.437 253.172 227.102 253.345 226.769C253.519 226.435 253.833 226.137 254.29 225.874C254.763 225.6 255.283 225.417 255.849 225.324C256.427 225.23 256.998 225.224 257.564 225.304C258.136 225.387 258.641 225.555 259.08 225.809C259.45 226.022 259.713 226.244 259.869 226.474C260.03 226.707 260.102 226.942 260.085 227.179C260.068 227.416 259.972 227.644 259.799 227.864C259.632 228.081 259.389 228.281 259.072 228.464C258.991 228.511 258.901 228.556 258.803 228.599C258.711 228.646 258.621 228.681 258.534 228.704L254.896 226.604L255.762 226.104L258.76 227.834L257.815 227.759C258.133 227.636 258.355 227.491 258.482 227.324C258.615 227.161 258.653 226.992 258.595 226.819C258.543 226.649 258.393 226.492 258.145 226.349C257.908 226.212 257.636 226.125 257.33 226.089C257.03 226.049 256.715 226.067 256.386 226.144C256.068 226.22 255.759 226.359 255.459 226.559C255.147 226.712 254.928 226.882 254.801 227.069C254.685 227.256 254.665 227.441 254.74 227.624C254.821 227.811 254.991 227.979 255.251 228.129C255.511 228.279 255.785 228.374 256.074 228.414C256.369 228.458 256.66 228.456 256.949 228.409L257.417 229.199C257.099 229.276 256.756 229.308 256.386 229.294C256.016 229.281 255.647 229.224 255.277 229.124C254.913 229.028 254.57 228.886 254.246 228.699ZM259.507 231.736C259.051 231.473 258.751 231.176 258.606 230.846C258.468 230.513 258.482 230.178 258.65 229.841C258.817 229.504 259.129 229.204 259.585 228.941C260.047 228.674 260.567 228.494 261.145 228.401C261.722 228.307 262.3 228.301 262.877 228.381C263.46 228.464 263.974 228.634 264.419 228.891C264.777 229.098 265.023 229.323 265.156 229.566C265.3 229.809 265.326 230.051 265.233 230.291L264.826 230.326L267.607 228.721L268.742 229.376L262.184 233.162L261.11 232.542L262.02 232.016L261.916 232.217C261.5 232.27 261.078 232.253 260.651 232.166C260.229 232.076 259.848 231.933 259.507 231.736ZM260.668 231.206C260.928 231.356 261.217 231.453 261.534 231.496C261.852 231.54 262.173 231.531 262.496 231.471C262.825 231.415 263.128 231.306 263.406 231.146C263.677 230.99 263.862 230.816 263.96 230.626C264.07 230.436 264.087 230.249 264.012 230.066C263.937 229.883 263.769 229.716 263.51 229.566C263.255 229.419 262.964 229.324 262.635 229.281C262.311 229.234 261.985 229.239 261.656 229.296C261.338 229.353 261.041 229.461 260.763 229.621C260.486 229.781 260.296 229.954 260.192 230.141C260.094 230.331 260.085 230.519 260.166 230.706C260.247 230.893 260.414 231.06 260.668 231.206ZM264.875 234.715L271.329 230.989L275.617 233.465L274.577 234.065L271.467 232.27L269.813 233.225L272.749 234.92L271.71 235.52L268.773 233.825L267.093 234.795L270.203 236.59L269.163 237.191L264.875 234.715ZM269.932 237.634L274.644 234.914L275.71 235.529L274.783 236.064L274.861 235.919C275.253 235.819 275.646 235.799 276.039 235.859C276.443 235.919 276.813 236.046 277.148 236.239C277.494 236.439 277.725 236.659 277.841 236.899C277.962 237.143 277.962 237.386 277.841 237.629C277.725 237.869 277.491 238.091 277.139 238.294L274.107 240.045L272.972 239.39L275.736 237.794C275.944 237.674 276.082 237.548 276.152 237.414C276.221 237.281 276.224 237.149 276.16 237.019C276.108 236.889 275.987 236.769 275.796 236.659C275.612 236.552 275.404 236.482 275.173 236.449C274.947 236.412 274.719 236.414 274.488 236.454C274.257 236.494 274.038 236.574 273.83 236.694L271.066 238.289L269.932 237.634ZM275.448 243.019C275.096 242.816 274.827 242.594 274.642 242.354C274.457 242.114 274.359 241.871 274.348 241.624C274.336 241.384 274.42 241.156 274.599 240.939L276.054 241.319C275.904 241.486 275.864 241.666 275.933 241.859C276.002 242.059 276.187 242.246 276.487 242.419C276.718 242.553 276.964 242.644 277.224 242.694C277.489 242.748 277.755 242.754 278.021 242.714C278.281 242.678 278.526 242.593 278.757 242.459L279.831 241.839L279.788 242.114C279.343 242.184 278.913 242.182 278.497 242.109C278.081 242.036 277.7 241.899 277.354 241.699C276.915 241.446 276.623 241.161 276.479 240.844C276.334 240.527 276.34 240.21 276.496 239.894C276.652 239.577 276.949 239.292 277.388 239.038C277.833 238.782 278.327 238.61 278.87 238.523C279.413 238.437 279.953 238.435 280.49 238.518C281.033 238.598 281.521 238.763 281.954 239.013C282.306 239.217 282.54 239.439 282.655 239.679C282.782 239.919 282.797 240.17 282.699 240.434L282.257 240.509L283.296 239.909L284.371 240.529L279.892 243.114C279.482 243.351 279.014 243.504 278.489 243.574C277.969 243.648 277.443 243.638 276.912 243.544C276.386 243.454 275.898 243.279 275.448 243.019ZM278.541 241.174C278.783 241.314 279.046 241.406 279.329 241.449C279.623 241.492 279.918 241.489 280.212 241.439C280.507 241.389 280.778 241.292 281.027 241.149C281.269 241.009 281.431 240.852 281.512 240.679C281.604 240.505 281.613 240.334 281.538 240.164C281.469 239.997 281.316 239.845 281.079 239.709C280.842 239.572 280.573 239.48 280.273 239.434C279.973 239.387 279.67 239.389 279.363 239.439C279.069 239.489 278.8 239.584 278.558 239.724C278.315 239.864 278.151 240.019 278.064 240.189C277.983 240.362 277.98 240.534 278.055 240.704C278.136 240.877 278.298 241.034 278.541 241.174ZM280.718 243.861L285.43 241.141L286.565 241.796L281.853 244.516L280.718 243.861ZM285.959 240.836L287.172 240.135L288.307 240.791L287.094 241.491L285.959 240.836ZM282.9 245.121L287.613 242.401L288.679 243.016L287.752 243.551L287.83 243.406C288.222 243.306 288.615 243.286 289.008 243.346C289.412 243.406 289.782 243.533 290.117 243.726C290.463 243.926 290.694 244.146 290.81 244.386C290.931 244.629 290.931 244.873 290.81 245.116C290.694 245.356 290.46 245.578 290.108 245.781L287.076 247.532L285.941 246.877L288.705 245.281C288.912 245.161 289.051 245.035 289.12 244.901C289.19 244.768 289.193 244.636 289.129 244.506C289.077 244.376 288.956 244.256 288.765 244.146C288.58 244.039 288.373 243.969 288.142 243.936C287.916 243.899 287.688 243.901 287.457 243.941C287.226 243.981 287.007 244.061 286.799 244.181L284.035 245.776L282.9 245.121ZM290.167 249.436C289.682 249.156 289.367 248.848 289.222 248.511C289.078 248.174 289.092 247.839 289.266 247.506C289.439 247.172 289.754 246.874 290.21 246.61C290.684 246.337 291.203 246.154 291.769 246.06C292.347 245.967 292.919 245.96 293.485 246.04C294.056 246.124 294.562 246.292 295.001 246.545C295.37 246.759 295.633 246.98 295.789 247.211C295.951 247.444 296.023 247.679 296.005 247.916C295.988 248.152 295.893 248.381 295.72 248.601C295.552 248.818 295.309 249.018 294.992 249.201C294.911 249.248 294.821 249.293 294.723 249.336C294.631 249.383 294.541 249.418 294.455 249.441L290.816 247.341L291.683 246.84L294.68 248.571L293.736 248.496C294.053 248.372 294.276 248.227 294.403 248.061C294.536 247.897 294.573 247.729 294.515 247.556C294.463 247.386 294.313 247.229 294.065 247.086C293.828 246.949 293.557 246.862 293.251 246.825C292.95 246.785 292.636 246.804 292.306 246.88C291.989 246.957 291.68 247.096 291.379 247.296C291.068 247.449 290.848 247.619 290.721 247.806C290.606 247.992 290.585 248.177 290.66 248.361C290.741 248.547 290.912 248.716 291.172 248.866C291.431 249.016 291.706 249.111 291.995 249.151C292.289 249.194 292.581 249.193 292.869 249.146L293.337 249.936C293.02 250.013 292.676 250.044 292.306 250.031C291.937 250.018 291.567 249.961 291.198 249.861C290.834 249.764 290.49 249.623 290.167 249.436ZM295.471 252.498C294.986 252.218 294.671 251.91 294.527 251.573C294.382 251.236 294.397 250.901 294.57 250.568C294.743 250.234 295.058 249.936 295.514 249.673C295.988 249.399 296.508 249.216 297.074 249.122C297.651 249.029 298.223 249.022 298.789 249.102C299.361 249.186 299.866 249.354 300.305 249.608C300.674 249.821 300.937 250.043 301.093 250.273C301.255 250.506 301.327 250.741 301.31 250.978C301.292 251.215 301.197 251.443 301.024 251.663C300.856 251.88 300.614 252.08 300.296 252.263C300.215 252.31 300.126 252.355 300.028 252.398C299.935 252.445 299.846 252.48 299.759 252.503L296.121 250.403L296.987 249.903L299.984 251.633L299.04 251.558C299.358 251.435 299.58 251.29 299.707 251.123C299.84 250.96 299.877 250.791 299.82 250.618C299.768 250.448 299.618 250.291 299.369 250.148C299.132 250.011 298.861 249.924 298.555 249.888C298.255 249.848 297.94 249.866 297.611 249.943C297.293 250.019 296.984 250.158 296.684 250.358C296.372 250.511 296.152 250.681 296.025 250.868C295.91 251.055 295.89 251.24 295.965 251.423C296.046 251.61 296.216 251.778 296.476 251.928C296.736 252.078 297.01 252.173 297.299 252.213C297.593 252.256 297.885 252.255 298.174 252.208L298.642 252.998C298.324 253.075 297.98 253.107 297.611 253.093C297.241 253.08 296.871 253.023 296.502 252.923C296.138 252.827 295.794 252.685 295.471 252.498ZM298.644 254.21L303.357 251.489L304.422 252.105L303.374 252.71L303.443 252.57C303.905 252.43 304.321 252.386 304.691 252.44C305.066 252.496 305.419 252.62 305.748 252.81L306.025 252.97L305.02 253.55L304.613 253.315C304.289 253.128 303.928 253.036 303.53 253.04C303.137 253.04 302.762 253.143 302.404 253.35L299.779 254.865L298.644 254.21ZM301.884 256.081L306.597 253.36L307.732 254.015L303.019 256.736L301.884 256.081ZM307.125 253.055L308.338 252.355L309.473 253.01L308.26 253.71L307.125 253.055ZM304.067 257.341L308.779 254.62L309.845 255.235L308.918 255.77L308.996 255.625C309.389 255.525 309.781 255.505 310.174 255.565C310.578 255.625 310.948 255.752 311.283 255.945C311.63 256.145 311.861 256.365 311.976 256.605C312.097 256.849 312.097 257.092 311.976 257.336C311.861 257.576 311.627 257.797 311.274 258.001L308.242 259.751L307.108 259.096L309.871 257.501C310.079 257.381 310.218 257.254 310.287 257.121C310.356 256.987 310.359 256.856 310.295 256.725C310.243 256.595 310.122 256.475 309.932 256.365C309.747 256.259 309.539 256.189 309.308 256.155C309.083 256.119 308.855 256.12 308.624 256.16C308.393 256.2 308.173 256.28 307.965 256.4L305.202 257.996L304.067 257.341ZM309.583 262.726C309.231 262.522 308.962 262.301 308.778 262.06C308.593 261.82 308.495 261.577 308.483 261.33C308.471 261.09 308.555 260.862 308.734 260.645L310.19 261.025C310.039 261.192 309.999 261.372 310.068 261.565C310.138 261.765 310.322 261.952 310.623 262.125C310.854 262.259 311.099 262.351 311.359 262.401C311.625 262.454 311.89 262.461 312.156 262.421C312.416 262.384 312.661 262.299 312.892 262.165L313.967 261.545L313.923 261.82C313.479 261.89 313.048 261.889 312.632 261.815C312.217 261.742 311.835 261.605 311.489 261.405C311.05 261.152 310.758 260.867 310.614 260.55C310.47 260.233 310.475 259.917 310.631 259.6C310.787 259.283 311.085 258.998 311.524 258.745C311.968 258.488 312.462 258.316 313.005 258.23C313.548 258.143 314.088 258.141 314.625 258.225C315.168 258.305 315.656 258.47 316.089 258.72C316.441 258.923 316.675 259.145 316.791 259.385C316.918 259.625 316.932 259.877 316.834 260.14L316.392 260.215L317.432 259.615L318.506 260.235L314.027 262.821C313.617 263.057 313.149 263.211 312.624 263.281C312.104 263.354 311.578 263.344 311.047 263.251C310.522 263.161 310.034 262.986 309.583 262.726ZM312.676 260.88C312.918 261.02 313.181 261.112 313.464 261.155C313.759 261.199 314.053 261.195 314.348 261.145C314.642 261.095 314.914 260.999 315.162 260.855C315.405 260.715 315.566 260.558 315.647 260.385C315.74 260.212 315.748 260.04 315.673 259.87C315.604 259.703 315.451 259.552 315.214 259.415C314.977 259.278 314.709 259.187 314.408 259.14C314.108 259.093 313.805 259.095 313.499 259.145C313.204 259.195 312.936 259.29 312.693 259.43C312.451 259.57 312.286 259.725 312.199 259.895C312.118 260.068 312.116 260.24 312.191 260.41C312.272 260.583 312.433 260.74 312.676 260.88Z" fill="#FFFAFA"/>
<path d="M237.679 152.046L244.133 148.32L248.438 150.806L247.398 151.406L244.271 149.601L242.487 150.631L245.224 152.211L244.185 152.811L241.447 151.231L238.857 152.726L237.679 152.046ZM244.151 155.903C243.788 155.693 243.551 155.463 243.441 155.213C243.337 154.966 243.357 154.717 243.502 154.467C243.652 154.221 243.92 153.986 244.307 153.762L247.192 152.097L248.327 152.752L245.537 154.362C245.341 154.476 245.205 154.597 245.13 154.727C245.067 154.857 245.064 154.989 245.122 155.123C245.191 155.256 245.318 155.376 245.503 155.483C245.688 155.589 245.893 155.661 246.118 155.698C246.349 155.731 246.58 155.728 246.811 155.688C247.042 155.648 247.261 155.568 247.469 155.448L250.233 153.852L251.368 154.507L246.655 157.228L245.581 156.608L246.508 156.073L246.438 156.223C246.04 156.326 245.641 156.346 245.243 156.283C244.85 156.223 244.486 156.096 244.151 155.903ZM247.71 157.837L254.268 154.051L255.402 154.706L248.845 158.492L247.71 157.837ZM249.892 159.097L256.45 155.311L257.585 155.966L251.027 159.752L249.892 159.097ZM255.91 162.691C255.5 162.454 255.194 162.191 254.992 161.901C254.796 161.614 254.703 161.321 254.715 161.021C254.738 160.721 254.871 160.434 255.113 160.161L256.517 160.481C256.303 160.784 256.237 161.083 256.318 161.376C256.404 161.666 256.632 161.918 257.002 162.131C257.21 162.251 257.421 162.336 257.634 162.386C257.86 162.436 258.07 162.451 258.267 162.431C258.469 162.414 258.651 162.359 258.812 162.266C259.003 162.156 259.101 162.033 259.107 161.896C259.124 161.759 259.055 161.606 258.899 161.436L258.059 160.491C257.712 160.111 257.568 159.757 257.626 159.431C257.683 159.104 257.923 158.819 258.345 158.575C258.714 158.362 259.13 158.225 259.592 158.165C260.06 158.109 260.533 158.129 261.013 158.225C261.504 158.322 261.96 158.492 262.382 158.735C262.768 158.959 263.054 159.204 263.239 159.471C263.43 159.734 263.519 160.002 263.508 160.276C263.508 160.549 263.404 160.812 263.196 161.066L261.792 160.756C261.989 160.496 262.047 160.242 261.966 159.996C261.891 159.746 261.686 159.524 261.351 159.33C261.154 159.217 260.946 159.137 260.727 159.09C260.513 159.04 260.302 159.025 260.095 159.045C259.898 159.065 259.719 159.122 259.557 159.215C259.378 159.319 259.277 159.444 259.254 159.591C259.237 159.734 259.309 159.896 259.471 160.076L260.285 160.976C260.632 161.369 260.785 161.724 260.744 162.041C260.71 162.361 260.476 162.646 260.043 162.896C259.673 163.11 259.251 163.243 258.778 163.296C258.304 163.35 257.819 163.326 257.322 163.226C256.826 163.126 256.355 162.948 255.91 162.691ZM261.32 165.754C260.789 165.447 260.52 165.126 260.514 164.789C260.52 164.452 260.789 164.13 261.32 163.824L263.399 162.623L262.585 162.153L263.598 161.568L263.685 161.618C263.916 161.752 264.156 161.82 264.404 161.823C264.652 161.827 264.892 161.762 265.123 161.628L265.487 161.418L266.622 162.073L265.547 162.693L266.63 163.319L265.617 163.904L264.534 163.279L262.515 164.444C262.36 164.534 262.253 164.626 262.195 164.719C262.143 164.816 262.146 164.914 262.204 165.014C262.267 165.117 262.391 165.222 262.576 165.329C262.617 165.352 262.666 165.377 262.723 165.404C262.787 165.434 262.848 165.462 262.905 165.489L261.935 166.049C261.843 166.009 261.739 165.963 261.623 165.909C261.508 165.856 261.407 165.804 261.32 165.754ZM264.111 167.425C263.781 167.235 263.55 167.038 263.418 166.835C263.285 166.632 263.253 166.433 263.322 166.24C263.397 166.043 263.571 165.866 263.842 165.71C264.102 165.56 264.391 165.46 264.708 165.41C265.032 165.356 265.384 165.36 265.765 165.42C266.146 165.48 266.551 165.6 266.978 165.78L268.771 166.525L267.905 167.025L266.354 166.39C266.089 166.283 265.849 166.228 265.635 166.225C265.422 166.222 265.231 166.268 265.064 166.365C264.902 166.458 264.833 166.568 264.856 166.695C264.89 166.822 265 166.938 265.185 167.045C265.422 167.182 265.679 167.273 265.956 167.32C266.245 167.367 266.528 167.367 266.805 167.32C267.088 167.277 267.336 167.193 267.55 167.07L268.763 166.37C268.965 166.253 269.051 166.11 269.022 165.94C269.005 165.77 268.866 165.61 268.607 165.46C268.364 165.32 268.081 165.233 267.758 165.2C267.446 165.166 267.14 165.186 266.839 165.26L266.363 164.465C266.704 164.375 267.062 164.335 267.437 164.345C267.824 164.355 268.205 164.408 268.581 164.505C268.956 164.601 269.303 164.741 269.62 164.925C270.007 165.148 270.276 165.386 270.426 165.64C270.582 165.89 270.613 166.135 270.521 166.375C270.44 166.615 270.232 166.832 269.897 167.025L266.761 168.835L265.687 168.215L266.493 167.75L266.753 167.88C266.429 167.927 266.115 167.942 265.809 167.925C265.508 167.905 265.214 167.855 264.925 167.775C264.642 167.692 264.37 167.575 264.111 167.425ZM269.976 170.811C269.508 170.541 269.193 170.236 269.032 169.896C268.882 169.556 268.884 169.218 269.04 168.881C269.202 168.541 269.517 168.236 269.985 167.966C270.452 167.696 270.978 167.516 271.561 167.426C272.145 167.336 272.728 167.336 273.311 167.426C273.9 167.519 274.429 167.701 274.896 167.971C275.231 168.164 275.483 168.379 275.65 168.616C275.823 168.849 275.91 169.086 275.91 169.326C275.922 169.566 275.832 169.794 275.641 170.011L274.212 169.686C274.362 169.499 274.406 169.304 274.342 169.101C274.284 168.901 274.123 168.724 273.857 168.571C273.609 168.427 273.326 168.334 273.008 168.291C272.696 168.251 272.378 168.261 272.055 168.321C271.732 168.381 271.431 168.491 271.154 168.651C270.877 168.811 270.686 168.984 270.582 169.171C270.478 169.358 270.461 169.541 270.53 169.721C270.606 169.904 270.767 170.068 271.016 170.211C271.287 170.368 271.596 170.463 271.942 170.496C272.289 170.53 272.627 170.501 272.956 170.411L273.502 171.246C273.144 171.346 272.754 171.398 272.332 171.401C271.916 171.401 271.504 171.353 271.094 171.256C270.689 171.156 270.317 171.008 269.976 170.811ZM273.081 172.484L279.639 168.698L280.773 169.353L276.477 171.833L276.173 171.508L280.713 171.448L282.125 172.264L278.486 172.354L277.447 175.004L276.147 174.254L277.048 171.953L277.863 172.264L274.917 172.324L275.965 172.129L274.216 173.139L273.081 172.484ZM282.791 178.209C282.317 177.936 281.959 177.632 281.717 177.299C281.474 176.966 281.35 176.624 281.344 176.274C281.338 175.924 281.451 175.582 281.682 175.249C281.924 174.915 282.283 174.612 282.756 174.338C283.235 174.062 283.761 173.855 284.333 173.718C284.904 173.582 285.494 173.515 286.1 173.518C286.706 173.522 287.295 173.595 287.867 173.738C288.445 173.878 288.973 174.087 289.452 174.363C289.932 174.64 290.293 174.945 290.535 175.279C290.778 175.612 290.902 175.954 290.908 176.304C290.919 176.651 290.807 176.989 290.57 177.319C290.339 177.652 289.984 177.957 289.504 178.234C289.031 178.508 288.502 178.713 287.919 178.849C287.342 178.983 286.75 179.048 286.143 179.044C285.537 179.041 284.945 178.969 284.367 178.829C283.796 178.693 283.27 178.486 282.791 178.209ZM283.865 177.589C284.183 177.772 284.529 177.909 284.904 177.999C285.286 178.086 285.675 178.128 286.074 178.124C286.478 178.124 286.871 178.074 287.252 177.974C287.639 177.877 287.994 177.736 288.318 177.549C288.641 177.362 288.884 177.159 289.045 176.939C289.219 176.719 289.305 176.492 289.305 176.259C289.317 176.025 289.245 175.8 289.089 175.584C288.933 175.367 288.696 175.167 288.378 174.984C288.066 174.804 287.723 174.668 287.347 174.578C286.972 174.488 286.579 174.445 286.169 174.448C285.771 174.452 285.378 174.502 284.991 174.598C284.61 174.692 284.258 174.832 283.934 175.019C283.611 175.205 283.365 175.41 283.198 175.634C283.03 175.857 282.944 176.084 282.938 176.314C282.938 176.547 283.013 176.774 283.163 176.994C283.319 177.211 283.553 177.409 283.865 177.589ZM288.412 181.335L291.505 177.679L292.7 178.369L290.309 181.119L289.902 180.874L294.736 179.544L295.741 180.124L293.428 182.91L293.004 182.675L297.768 181.295L298.964 181.985L292.631 183.77L291.618 183.185L294.069 180.289L294.45 180.509L289.417 181.915L288.412 181.335ZM294.873 185.064L299.586 182.344L300.651 182.959L299.724 183.494L299.802 183.349C300.195 183.249 300.588 183.229 300.98 183.289C301.385 183.349 301.754 183.476 302.089 183.669C302.436 183.869 302.667 184.089 302.782 184.329C302.904 184.573 302.904 184.816 302.782 185.059C302.667 185.299 302.433 185.521 302.081 185.725L299.049 187.475L297.914 186.82L300.677 185.224C300.885 185.104 301.024 184.978 301.093 184.844C301.162 184.711 301.165 184.579 301.102 184.449C301.05 184.319 300.928 184.199 300.738 184.089C300.553 183.982 300.345 183.912 300.114 183.879C299.889 183.842 299.661 183.844 299.43 183.884C299.199 183.924 298.979 184.004 298.771 184.124L296.008 185.72L294.873 185.064ZM302.139 189.379C301.654 189.099 301.339 188.791 301.195 188.454C301.051 188.117 301.065 187.782 301.238 187.449C301.412 187.115 301.726 186.817 302.183 186.554C302.656 186.28 303.176 186.097 303.742 186.003C304.319 185.91 304.891 185.903 305.457 185.983C306.029 186.067 306.534 186.235 306.973 186.489C307.343 186.702 307.606 186.924 307.762 187.154C307.923 187.387 307.995 187.622 307.978 187.859C307.961 188.096 307.865 188.324 307.692 188.544C307.525 188.761 307.282 188.961 306.965 189.144C306.884 189.191 306.794 189.236 306.696 189.279C306.604 189.326 306.514 189.361 306.427 189.384L302.789 187.284L303.655 186.784L306.653 188.514L305.708 188.439C306.026 188.316 306.248 188.171 306.375 188.004C306.508 187.84 306.546 187.672 306.488 187.499C306.436 187.329 306.286 187.172 306.038 187.029C305.801 186.892 305.529 186.805 305.223 186.769C304.923 186.729 304.608 186.747 304.279 186.824C303.961 186.9 303.652 187.039 303.352 187.239C303.04 187.392 302.821 187.562 302.694 187.749C302.578 187.936 302.558 188.121 302.633 188.304C302.714 188.491 302.884 188.659 303.144 188.809C303.404 188.959 303.678 189.054 303.967 189.094C304.262 189.137 304.553 189.136 304.842 189.089L305.31 189.879C304.992 189.956 304.649 189.988 304.279 189.974C303.909 189.961 303.54 189.904 303.17 189.804C302.806 189.708 302.463 189.566 302.139 189.379ZM305.313 191.091L310.025 188.37L311.091 188.986L310.042 189.591L310.112 189.451C310.574 189.311 310.99 189.267 311.359 189.321C311.735 189.377 312.087 189.501 312.416 189.691L312.693 189.851L311.688 190.431L311.281 190.196C310.958 190.009 310.597 189.917 310.198 189.921C309.806 189.921 309.43 190.024 309.072 190.231L306.447 191.746L305.313 191.091ZM310.242 194.057C309.739 193.767 309.419 193.445 309.28 193.092C309.153 192.738 309.225 192.403 309.497 192.086L310.753 192.341C310.609 192.565 310.568 192.781 310.632 192.992C310.701 193.205 310.869 193.388 311.134 193.542C311.342 193.662 311.553 193.73 311.767 193.747C311.98 193.763 312.162 193.728 312.312 193.642C312.405 193.588 312.454 193.53 312.46 193.467C312.477 193.403 312.462 193.335 312.416 193.262C312.382 193.188 312.33 193.115 312.26 193.042L311.706 192.471C311.423 192.175 311.296 191.898 311.325 191.641C311.359 191.388 311.538 191.168 311.862 190.981C312.151 190.814 312.474 190.711 312.832 190.671C313.202 190.631 313.577 190.651 313.958 190.731C314.345 190.814 314.709 190.954 315.05 191.151C315.494 191.408 315.78 191.696 315.907 192.016C316.034 192.336 315.977 192.65 315.734 192.957L314.461 192.691C314.594 192.521 314.628 192.345 314.565 192.161C314.501 191.978 314.351 191.818 314.114 191.681C313.924 191.571 313.73 191.51 313.534 191.496C313.337 191.483 313.17 191.516 313.031 191.596C312.945 191.646 312.893 191.703 312.875 191.766C312.858 191.83 312.87 191.896 312.91 191.966C312.956 192.04 313.017 192.118 313.092 192.201L313.62 192.766C313.892 193.057 314.016 193.328 313.993 193.582C313.976 193.838 313.799 194.063 313.464 194.257C313.182 194.42 312.855 194.522 312.486 194.562C312.122 194.599 311.746 194.575 311.359 194.492C310.972 194.409 310.6 194.263 310.242 194.057ZM313.003 195.53L319.56 191.745L320.695 192.4L317.923 194L317.932 193.815C318.324 193.715 318.717 193.695 319.11 193.755C319.514 193.815 319.884 193.942 320.219 194.135C320.565 194.335 320.796 194.555 320.912 194.795C321.033 195.039 321.033 195.282 320.912 195.525C320.796 195.765 320.562 195.987 320.21 196.191L317.178 197.941L316.043 197.286L318.807 195.69C319.015 195.57 319.153 195.444 319.222 195.31C319.292 195.177 319.295 195.045 319.231 194.915C319.179 194.785 319.058 194.665 318.867 194.555C318.682 194.449 318.475 194.379 318.244 194.345C318.018 194.309 317.79 194.31 317.559 194.35C317.328 194.39 317.109 194.47 316.901 194.59L314.137 196.186L313.003 195.53ZM318.138 198.495L322.85 195.774L323.985 196.429L319.272 199.15L318.138 198.495ZM323.379 195.469L324.591 194.769L325.726 195.424L324.513 196.124L323.379 195.469ZM318.588 200.755L325.033 197.034L326.098 197.65L325.163 198.19L325.293 197.995C325.709 197.941 326.124 197.955 326.54 198.035C326.962 198.111 327.354 198.255 327.718 198.465C328.163 198.721 328.455 199.016 328.593 199.35C328.732 199.683 328.72 200.017 328.559 200.35C328.403 200.687 328.094 200.989 327.632 201.255C327.175 201.519 326.656 201.699 326.072 201.795C325.489 201.892 324.909 201.9 324.331 201.82C323.759 201.737 323.245 201.564 322.789 201.3C322.448 201.104 322.2 200.884 322.044 200.64C321.9 200.397 321.871 200.153 321.958 199.91L322.365 199.885L319.722 201.41L318.588 200.755ZM323.699 200.625C323.959 200.775 324.25 200.874 324.574 200.92C324.897 200.967 325.221 200.96 325.544 200.9C325.873 200.844 326.176 200.735 326.454 200.575C326.731 200.415 326.916 200.242 327.008 200.055C327.112 199.868 327.123 199.682 327.043 199.495C326.968 199.305 326.8 199.135 326.54 198.985C326.292 198.841 326.006 198.746 325.683 198.7C325.365 198.656 325.039 198.665 324.704 198.725C324.38 198.785 324.083 198.893 323.811 199.05C323.534 199.21 323.344 199.383 323.24 199.57C323.141 199.76 323.13 199.947 323.205 200.13C323.286 200.317 323.45 200.482 323.699 200.625Z" fill="#FFFAFA"/>
<path d="M252.495 96.4401L257.657 93.4602L259.583 94.5722C259.934 94.7748 260.179 94.9908 260.317 95.2201C260.465 95.4495 260.493 95.6788 260.4 95.9081C260.312 96.1347 260.095 96.3481 259.749 96.548C259.407 96.7454 259.035 96.8694 258.634 96.92C258.241 96.9707 257.846 96.956 257.449 96.876C257.052 96.796 256.677 96.6547 256.326 96.4521L255.343 95.8841L253.437 96.984L252.495 96.4401ZM256.174 95.4041L257.172 95.9801C257.343 96.0787 257.523 96.1454 257.712 96.1801C257.906 96.2121 258.098 96.2134 258.287 96.1841C258.476 96.1547 258.65 96.0947 258.807 96.0041C258.968 95.9108 259.072 95.8108 259.119 95.7041C259.169 95.5948 259.165 95.4854 259.105 95.3761C259.049 95.2641 258.936 95.1588 258.765 95.0601L257.767 94.4842L256.174 95.4041ZM256.911 98.9896L260.68 96.8138L261.533 97.3057L260.694 97.7897L260.75 97.6777C261.119 97.5657 261.452 97.5311 261.747 97.5737C262.048 97.6191 262.329 97.7177 262.593 97.8697L262.814 97.9977L262.011 98.4617L261.685 98.2737C261.426 98.1244 261.138 98.051 260.819 98.0537C260.505 98.0537 260.205 98.1364 259.918 98.3017L257.819 99.5136L256.911 98.9896ZM261.263 101.598C260.893 101.384 260.641 101.14 260.507 100.866C260.378 100.594 260.371 100.32 260.487 100.046C260.607 99.7737 260.856 99.5284 261.235 99.3097C261.614 99.0911 262.039 98.9471 262.51 98.8777C262.985 98.8111 263.459 98.8151 263.93 98.8897C264.401 98.9644 264.824 99.1097 265.198 99.3257C265.567 99.539 265.817 99.7817 265.946 100.054C266.075 100.326 266.08 100.598 265.96 100.87C265.849 101.142 265.602 101.388 265.219 101.61C264.84 101.828 264.413 101.971 263.937 102.038C263.461 102.104 262.988 102.1 262.517 102.026C262.045 101.951 261.627 101.808 261.263 101.598ZM262.094 101.118C262.297 101.235 262.524 101.31 262.773 101.342C263.027 101.376 263.283 101.37 263.542 101.322C263.81 101.274 264.052 101.187 264.269 101.062C264.491 100.934 264.639 100.795 264.713 100.646C264.796 100.496 264.808 100.348 264.748 100.202C264.697 100.055 264.57 99.923 264.366 99.8057C264.159 99.6857 263.925 99.6097 263.667 99.5777C263.413 99.543 263.154 99.5484 262.891 99.5937C262.637 99.639 262.399 99.7257 262.177 99.8537C261.96 99.979 261.808 100.118 261.72 100.27C261.641 100.422 261.632 100.571 261.692 100.718C261.752 100.864 261.886 100.998 262.094 101.118ZM265.082 103.803C264.819 103.651 264.634 103.493 264.528 103.331C264.422 103.168 264.397 103.01 264.452 102.855C264.512 102.698 264.651 102.556 264.868 102.431C265.076 102.311 265.306 102.231 265.561 102.191C265.819 102.148 266.101 102.151 266.406 102.199C266.711 102.247 267.034 102.343 267.376 102.487L268.81 103.083L268.117 103.483L266.877 102.975C266.664 102.89 266.473 102.846 266.302 102.843C266.131 102.84 265.979 102.878 265.845 102.955C265.715 103.03 265.66 103.118 265.678 103.219C265.706 103.32 265.794 103.413 265.942 103.499C266.131 103.608 266.337 103.681 266.558 103.719C266.789 103.756 267.015 103.756 267.237 103.719C267.464 103.684 267.662 103.617 267.833 103.519L268.803 102.959C268.965 102.866 269.034 102.751 269.011 102.615C268.997 102.479 268.886 102.351 268.678 102.231C268.484 102.119 268.258 102.05 267.999 102.023C267.75 101.996 267.505 102.012 267.265 102.071L266.884 101.435C267.156 101.363 267.443 101.331 267.743 101.339C268.052 101.347 268.357 101.39 268.658 101.467C268.958 101.544 269.235 101.656 269.489 101.803C269.798 101.982 270.013 102.172 270.133 102.375C270.258 102.575 270.283 102.771 270.209 102.963C270.145 103.155 269.979 103.328 269.711 103.483L267.203 104.931L266.343 104.435L266.988 104.063L267.196 104.167C266.937 104.204 266.685 104.216 266.44 104.203C266.2 104.187 265.965 104.147 265.734 104.083C265.507 104.016 265.29 103.923 265.082 103.803ZM269.774 106.511C269.399 106.295 269.148 106.051 269.018 105.779C268.898 105.507 268.901 105.236 269.025 104.967C269.155 104.695 269.406 104.451 269.78 104.235C270.155 104.019 270.575 103.875 271.041 103.803C271.508 103.731 271.974 103.731 272.441 103.803C272.912 103.878 273.335 104.023 273.709 104.239C273.977 104.394 274.178 104.566 274.312 104.755C274.45 104.942 274.519 105.131 274.519 105.323C274.529 105.515 274.457 105.698 274.305 105.871L273.161 105.611C273.282 105.462 273.316 105.306 273.265 105.143C273.219 104.983 273.09 104.842 272.877 104.719C272.679 104.604 272.452 104.53 272.198 104.495C271.949 104.463 271.695 104.471 271.436 104.519C271.178 104.567 270.937 104.655 270.716 104.783C270.494 104.911 270.342 105.05 270.258 105.199C270.175 105.348 270.161 105.495 270.217 105.639C270.277 105.786 270.406 105.916 270.605 106.031C270.822 106.156 271.069 106.232 271.346 106.259C271.623 106.286 271.894 106.263 272.157 106.191L272.593 106.859C272.307 106.939 271.995 106.98 271.658 106.983C271.325 106.983 270.995 106.944 270.667 106.867C270.344 106.787 270.046 106.668 269.774 106.511ZM273.933 108.864C273.508 108.619 273.294 108.362 273.289 108.092C273.294 107.823 273.508 107.566 273.933 107.32L275.596 106.361L274.945 105.985L275.755 105.517L275.825 105.557C276.009 105.663 276.201 105.718 276.4 105.721C276.598 105.723 276.79 105.671 276.975 105.565L277.266 105.397L278.173 105.921L277.314 106.417L278.18 106.916L277.37 107.384L276.504 106.884L274.889 107.816C274.765 107.888 274.679 107.962 274.633 108.036C274.591 108.114 274.594 108.192 274.64 108.272C274.691 108.355 274.79 108.439 274.938 108.524C274.97 108.543 275.009 108.563 275.056 108.584C275.106 108.608 275.155 108.631 275.201 108.652L274.425 109.1C274.351 109.068 274.268 109.031 274.176 108.988C274.083 108.946 274.003 108.904 273.933 108.864ZM275.119 109.501L278.888 107.325L279.795 107.849L276.026 110.025L275.119 109.501ZM279.31 107.081L280.28 106.521L281.188 107.045L280.218 107.605L279.31 107.081ZM278 111.164L280.287 108.133L281.278 108.705L279.386 111.036L279.019 110.824L283.065 109.736L284.056 110.308L278.804 111.628L278 111.164ZM282.425 113.815C282.037 113.591 281.786 113.344 281.67 113.075C281.555 112.805 281.566 112.538 281.705 112.271C281.843 112.004 282.095 111.766 282.46 111.555C282.839 111.336 283.254 111.19 283.707 111.115C284.169 111.04 284.626 111.035 285.079 111.099C285.536 111.166 285.94 111.3 286.291 111.503C286.587 111.674 286.797 111.851 286.922 112.035C287.051 112.222 287.109 112.41 287.095 112.599C287.081 112.788 287.005 112.971 286.866 113.147C286.732 113.32 286.538 113.48 286.284 113.627C286.22 113.664 286.148 113.7 286.07 113.735C285.996 113.772 285.924 113.8 285.855 113.819L282.945 112.139L283.638 111.739L286.035 113.123L285.28 113.063C285.534 112.964 285.712 112.848 285.813 112.715C285.919 112.584 285.949 112.45 285.903 112.311C285.862 112.175 285.742 112.05 285.543 111.935C285.354 111.826 285.137 111.756 284.892 111.727C284.652 111.695 284.4 111.71 284.137 111.771C283.882 111.832 283.635 111.943 283.395 112.103C283.146 112.226 282.97 112.362 282.869 112.511C282.776 112.66 282.76 112.808 282.82 112.955C282.885 113.104 283.021 113.239 283.229 113.359C283.437 113.479 283.656 113.555 283.887 113.587C284.123 113.621 284.356 113.62 284.587 113.583L284.961 114.215C284.707 114.276 284.432 114.301 284.137 114.291C283.841 114.28 283.545 114.235 283.25 114.155C282.959 114.077 282.684 113.964 282.425 113.815ZM285.848 115.695L292.79 113.743L294.01 114.447L290.629 118.455L289.603 117.863L290.345 117.011L288.349 115.859L286.867 116.283L285.848 115.695ZM289.451 115.535L290.906 116.375L292.617 114.395L292.88 114.547L289.451 115.535ZM291.127 118.742L294.896 116.566L295.748 117.058L294.91 117.542L294.965 117.43C295.335 117.318 295.667 117.284 295.963 117.326C296.263 117.372 296.545 117.47 296.808 117.622L297.03 117.75L296.226 118.214L295.901 118.026C295.642 117.877 295.353 117.804 295.035 117.806C294.72 117.806 294.42 117.889 294.134 118.054L292.035 119.266L291.127 118.742ZM295.45 121.334C295.076 121.118 294.825 120.874 294.695 120.602C294.575 120.33 294.577 120.06 294.702 119.79C294.831 119.518 295.083 119.274 295.457 119.058C295.831 118.842 296.252 118.698 296.718 118.626C297.185 118.554 297.651 118.554 298.118 118.626C298.589 118.701 299.012 118.846 299.386 119.062C299.654 119.217 299.854 119.389 299.988 119.578C300.127 119.765 300.196 119.954 300.196 120.146C300.206 120.338 300.134 120.521 299.982 120.694L298.838 120.434C298.958 120.285 298.993 120.129 298.942 119.966C298.896 119.806 298.767 119.665 298.554 119.542C298.356 119.428 298.129 119.353 297.875 119.318C297.626 119.286 297.372 119.294 297.113 119.342C296.855 119.39 296.614 119.478 296.393 119.606C296.171 119.734 296.018 119.873 295.935 120.022C295.852 120.172 295.838 120.318 295.894 120.462C295.954 120.609 296.083 120.74 296.282 120.854C296.499 120.98 296.746 121.056 297.023 121.082C297.3 121.109 297.57 121.086 297.834 121.014L298.27 121.682C297.984 121.762 297.672 121.803 297.335 121.806C297.002 121.806 296.672 121.767 296.344 121.69C296.021 121.61 295.723 121.492 295.45 121.334ZM297.933 122.672L303.178 119.644L304.086 120.168L301.869 121.448L301.876 121.3C302.19 121.22 302.504 121.204 302.818 121.252C303.141 121.3 303.437 121.401 303.705 121.556C303.982 121.716 304.167 121.892 304.259 122.084C304.356 122.278 304.356 122.473 304.259 122.668C304.167 122.86 303.98 123.037 303.698 123.2L301.273 124.6L300.365 124.076L302.575 122.8C302.742 122.704 302.853 122.602 302.908 122.496C302.963 122.389 302.966 122.284 302.915 122.18C302.873 122.076 302.776 121.98 302.624 121.892C302.476 121.806 302.31 121.75 302.125 121.724C301.945 121.694 301.763 121.696 301.578 121.728C301.393 121.76 301.218 121.824 301.051 121.92L298.841 123.196L297.933 122.672ZM302.04 125.043L305.809 122.867L306.717 123.391L302.948 125.567L302.04 125.043ZM306.232 122.623L307.202 122.063L308.11 122.587L307.14 123.147L306.232 122.623ZM305.463 127.066C305.038 126.821 304.823 126.564 304.818 126.294C304.823 126.025 305.038 125.768 305.463 125.522L307.126 124.562L306.474 124.186L307.285 123.719L307.354 123.759C307.539 123.865 307.731 123.92 307.929 123.923C308.128 123.925 308.32 123.873 308.504 123.767L308.795 123.599L309.703 124.122L308.844 124.618L309.71 125.118L308.899 125.586L308.033 125.086L306.419 126.018C306.294 126.09 306.209 126.164 306.162 126.238C306.121 126.316 306.123 126.394 306.169 126.474C306.22 126.557 306.32 126.641 306.467 126.726C306.5 126.745 306.539 126.765 306.585 126.786C306.636 126.81 306.684 126.833 306.731 126.854L305.955 127.302C305.881 127.27 305.798 127.233 305.705 127.19C305.613 127.148 305.532 127.106 305.463 127.066ZM308.319 128.763C307.931 128.539 307.679 128.292 307.563 128.023C307.448 127.754 307.459 127.486 307.598 127.219C307.737 126.952 307.988 126.714 308.353 126.503C308.732 126.285 309.148 126.138 309.6 126.063C310.062 125.989 310.52 125.983 310.972 126.047C311.429 126.114 311.834 126.249 312.185 126.451C312.48 126.622 312.69 126.799 312.815 126.983C312.944 127.17 313.002 127.358 312.988 127.547C312.974 127.736 312.898 127.919 312.76 128.095C312.626 128.268 312.432 128.428 312.178 128.575C312.113 128.612 312.041 128.648 311.963 128.683C311.889 128.72 311.817 128.748 311.748 128.767L308.838 127.087L309.531 126.687L311.928 128.071L311.173 128.011C311.427 127.912 311.605 127.796 311.707 127.663C311.813 127.532 311.843 127.398 311.797 127.259C311.755 127.123 311.635 126.998 311.436 126.883C311.247 126.774 311.03 126.704 310.785 126.675C310.545 126.643 310.293 126.658 310.03 126.719C309.776 126.78 309.529 126.891 309.289 127.051C309.039 127.174 308.864 127.31 308.762 127.459C308.67 127.608 308.653 127.756 308.714 127.903C308.778 128.052 308.914 128.187 309.122 128.307C309.33 128.427 309.55 128.503 309.78 128.535C310.016 128.57 310.249 128.568 310.48 128.531L310.854 129.163C310.6 129.224 310.326 129.25 310.03 129.239C309.734 129.228 309.439 129.183 309.143 129.103C308.852 129.026 308.577 128.912 308.319 128.763ZM312.589 131.228C312.214 131.012 311.963 130.768 311.833 130.496C311.713 130.224 311.716 129.953 311.84 129.684C311.97 129.412 312.221 129.168 312.596 128.952C312.97 128.736 313.39 128.592 313.856 128.52C314.323 128.448 314.789 128.448 315.256 128.52C315.727 128.595 316.15 128.74 316.524 128.956C316.792 129.111 316.993 129.283 317.127 129.472C317.265 129.659 317.334 129.848 317.334 130.04C317.344 130.232 317.272 130.415 317.12 130.588L315.977 130.328C316.097 130.179 316.131 130.023 316.08 129.86C316.034 129.7 315.905 129.559 315.692 129.436C315.494 129.322 315.268 129.247 315.014 129.212C314.764 129.18 314.51 129.188 314.251 129.236C313.993 129.284 313.753 129.372 313.531 129.5C313.309 129.628 313.157 129.767 313.074 129.916C312.99 130.065 312.977 130.212 313.032 130.356C313.092 130.503 313.221 130.633 313.42 130.748C313.637 130.873 313.884 130.949 314.161 130.976C314.438 131.003 314.709 130.98 314.972 130.908L315.408 131.576C315.122 131.656 314.81 131.697 314.473 131.7C314.141 131.7 313.81 131.661 313.482 131.584C313.159 131.504 312.861 131.385 312.589 131.228ZM316.748 133.582C316.323 133.336 316.109 133.079 316.104 132.81C316.109 132.54 316.323 132.283 316.748 132.038L318.411 131.078L317.76 130.702L318.571 130.234L318.64 130.274C318.825 130.38 319.016 130.435 319.215 130.438C319.413 130.44 319.605 130.388 319.79 130.282L320.081 130.114L320.989 130.638L320.129 131.134L320.995 131.634L320.185 132.102L319.319 131.602L317.704 132.534C317.58 132.606 317.494 132.679 317.448 132.754C317.407 132.831 317.409 132.91 317.455 132.99C317.506 133.072 317.605 133.156 317.753 133.242C317.785 133.26 317.825 133.28 317.871 133.302C317.922 133.326 317.97 133.348 318.016 133.37L317.24 133.817C317.166 133.785 317.083 133.748 316.991 133.705C316.898 133.663 316.818 133.622 316.748 133.582ZM319.195 135.042C318.904 134.874 318.714 134.69 318.627 134.49C318.543 134.292 318.56 134.094 318.675 133.894C318.795 133.697 319.01 133.509 319.319 133.33L321.627 131.998L322.534 132.522L320.303 133.81C320.146 133.9 320.038 133.998 319.978 134.102C319.927 134.206 319.924 134.311 319.971 134.418C320.026 134.524 320.128 134.62 320.275 134.706C320.423 134.791 320.587 134.848 320.767 134.878C320.952 134.904 321.137 134.902 321.322 134.87C321.506 134.838 321.682 134.774 321.848 134.678L324.058 133.402L324.966 133.926L321.197 136.102L320.338 135.606L321.079 135.178L321.024 135.298C320.705 135.38 320.386 135.396 320.068 135.346C319.754 135.298 319.463 135.196 319.195 135.042ZM322.041 136.589L325.81 134.413L326.662 134.905L325.824 135.389L325.879 135.277C326.248 135.165 326.581 135.13 326.877 135.173C327.177 135.218 327.459 135.317 327.722 135.469L327.944 135.597L327.14 136.061L326.814 135.873C326.556 135.723 326.267 135.65 325.948 135.653C325.634 135.653 325.334 135.735 325.048 135.901L322.948 137.113L322.041 136.589ZM326.336 139.165C325.948 138.941 325.697 138.694 325.581 138.425C325.466 138.155 325.477 137.887 325.616 137.621C325.754 137.354 326.006 137.115 326.371 136.905C326.75 136.686 327.165 136.54 327.618 136.465C328.08 136.39 328.537 136.385 328.99 136.449C329.447 136.516 329.851 136.65 330.202 136.853C330.498 137.023 330.708 137.201 330.833 137.385C330.962 137.571 331.02 137.759 331.006 137.949C330.992 138.138 330.916 138.321 330.777 138.497C330.644 138.67 330.45 138.83 330.195 138.977C330.131 139.014 330.059 139.05 329.981 139.085C329.907 139.122 329.835 139.15 329.766 139.169L326.856 137.489L327.549 137.089L329.946 138.473L329.191 138.413C329.445 138.314 329.623 138.198 329.724 138.065C329.831 137.934 329.861 137.799 329.814 137.661C329.773 137.525 329.653 137.399 329.454 137.285C329.265 137.175 329.048 137.106 328.803 137.077C328.563 137.045 328.311 137.059 328.048 137.121C327.794 137.182 327.547 137.293 327.306 137.453C327.057 137.575 326.881 137.711 326.78 137.861C326.687 138.01 326.671 138.158 326.731 138.305C326.796 138.454 326.932 138.589 327.14 138.709C327.348 138.829 327.567 138.905 327.798 138.937C328.034 138.971 328.267 138.97 328.498 138.933L328.872 139.565C328.618 139.626 328.343 139.651 328.048 139.641C327.752 139.63 327.456 139.585 327.161 139.505C326.87 139.427 326.595 139.314 326.336 139.165ZM330.225 141.41C329.823 141.178 329.567 140.92 329.456 140.638C329.355 140.355 329.412 140.087 329.629 139.834L330.634 140.038C330.519 140.216 330.486 140.39 330.537 140.558C330.593 140.728 330.726 140.875 330.939 140.998C331.105 141.094 331.274 141.148 331.445 141.162C331.616 141.175 331.761 141.147 331.881 141.078C331.955 141.035 331.994 140.988 331.999 140.938C332.013 140.887 332.001 140.832 331.964 140.774C331.937 140.715 331.895 140.656 331.84 140.598L331.396 140.142C331.17 139.905 331.068 139.683 331.091 139.478C331.119 139.275 331.262 139.099 331.521 138.95C331.752 138.817 332.011 138.734 332.297 138.702C332.592 138.67 332.893 138.686 333.198 138.75C333.507 138.817 333.798 138.929 334.071 139.086C334.426 139.291 334.655 139.522 334.756 139.778C334.858 140.034 334.812 140.284 334.618 140.53L333.599 140.318C333.706 140.182 333.733 140.04 333.683 139.894C333.632 139.747 333.512 139.619 333.322 139.51C333.17 139.422 333.015 139.373 332.858 139.362C332.701 139.351 332.567 139.378 332.456 139.442C332.387 139.482 332.345 139.527 332.332 139.578C332.318 139.629 332.327 139.682 332.359 139.738C332.396 139.797 332.445 139.859 332.505 139.926L332.927 140.378C333.144 140.61 333.244 140.827 333.225 141.03C333.211 141.235 333.071 141.415 332.803 141.57C332.576 141.7 332.315 141.782 332.02 141.814C331.729 141.843 331.429 141.824 331.119 141.758C330.81 141.691 330.512 141.575 330.225 141.41Z" fill="#FFFAFA"/>
<path d="M297.661 40.0357L304.115 36.3099L306.514 37.6952C306.953 37.9486 307.259 38.2186 307.432 38.5053C307.617 38.7921 307.652 39.0788 307.536 39.3655C307.427 39.6489 307.155 39.9156 306.722 40.1657C306.277 40.4224 305.792 40.5791 305.267 40.6358C304.747 40.6958 304.233 40.6658 303.725 40.5458L302.616 42.8963L301.282 42.1261L302.529 39.5756L302.841 40.2757L301.221 39.3405L298.839 40.7158L297.661 40.0357ZM302.261 38.7404L303.5 39.4555C303.713 39.5789 303.938 39.6623 304.175 39.7056C304.418 39.7456 304.657 39.7473 304.894 39.7106C305.131 39.6739 305.348 39.5989 305.544 39.4855C305.746 39.3689 305.876 39.2438 305.934 39.1105C305.997 38.9738 305.992 38.8371 305.916 38.7004C305.847 38.5604 305.706 38.4287 305.492 38.3053L304.253 37.5901L302.261 38.7404ZM305.162 44.4859C304.676 44.2058 304.362 43.8974 304.217 43.5607C304.073 43.224 304.087 42.8889 304.261 42.5555C304.434 42.2221 304.749 41.9237 305.205 41.6603C305.678 41.3869 306.198 41.2035 306.764 41.1102C307.342 41.0168 307.913 41.0102 308.479 41.0902C309.051 41.1735 309.557 41.3419 309.995 41.5953C310.365 41.8087 310.628 42.0304 310.784 42.2604C310.945 42.4938 311.018 42.7289 311 42.9656C310.983 43.2023 310.888 43.4307 310.714 43.6507C310.547 43.8674 310.304 44.0675 309.987 44.2508C309.906 44.2975 309.816 44.3425 309.718 44.3859C309.626 44.4325 309.536 44.4676 309.45 44.4909L305.811 42.3905L306.678 41.8903L309.675 43.6207L308.731 43.5457C309.048 43.4223 309.271 43.2773 309.398 43.1106C309.531 42.9472 309.568 42.7789 309.51 42.6055C309.458 42.4355 309.308 42.2788 309.06 42.1354C308.823 41.9987 308.552 41.912 308.246 41.8753C307.945 41.8353 307.63 41.8537 307.301 41.9304C306.984 42.007 306.675 42.1454 306.374 42.3454C306.063 42.4988 305.843 42.6688 305.716 42.8556C305.601 43.0423 305.58 43.2273 305.655 43.4107C305.736 43.5974 305.907 43.7657 306.166 43.9158C306.426 44.0658 306.701 44.1608 306.989 44.2008C307.284 44.2442 307.576 44.2425 307.864 44.1958L308.332 44.986C308.015 45.0627 307.671 45.0944 307.301 45.081C306.932 45.0677 306.562 45.011 306.192 44.911C305.829 44.8143 305.485 44.6726 305.162 44.4859ZM308.881 46.5128L312.58 44.3774L311.748 43.8973L312.762 43.3122L313.593 43.7923L313.749 43.7023C314.107 43.4955 314.483 43.3622 314.875 43.3022C315.28 43.2422 315.681 43.2505 316.079 43.3272C316.478 43.4039 316.859 43.5472 317.223 43.7573C317.292 43.7973 317.361 43.8439 317.431 43.8973C317.512 43.9506 317.575 43.9973 317.621 44.0373L316.642 44.6024C316.596 44.5624 316.547 44.5274 316.495 44.4974C316.455 44.4674 316.414 44.4407 316.374 44.4174C316.12 44.2707 315.866 44.1907 315.612 44.1774C315.363 44.1607 315.121 44.2207 314.884 44.3574L314.728 44.4474L316.79 45.6377L315.776 46.2228L313.714 45.0325L310.015 47.168L308.881 46.5128ZM311.653 48.1132L316.365 45.3926L317.509 46.0527L312.796 48.7733L311.653 48.1132ZM313.741 49.3185L318.453 46.598L319.519 47.2131L318.592 47.7482L318.67 47.6032C319.062 47.5032 319.455 47.4832 319.848 47.5432C320.252 47.6032 320.622 47.7299 320.957 47.9233C321.303 48.1233 321.534 48.3433 321.65 48.5834C321.771 48.8268 321.771 49.0702 321.65 49.3135C321.534 49.5536 321.3 49.7753 320.948 49.9787L317.916 51.7291L316.781 51.0739L319.545 49.4786C319.753 49.3586 319.891 49.2319 319.961 49.0985C320.03 48.9651 320.033 48.8334 319.969 48.7034C319.917 48.5734 319.796 48.4534 319.605 48.3433C319.421 48.2367 319.213 48.1666 318.982 48.1333C318.756 48.0966 318.528 48.0983 318.297 48.1383C318.066 48.1783 317.847 48.2583 317.639 48.3784L314.875 49.9737L313.741 49.3185ZM321.007 53.6333C320.522 53.3533 320.207 53.0449 320.063 52.7081C319.918 52.3714 319.933 52.0363 320.106 51.7029C320.279 51.3695 320.594 51.0711 321.05 50.8077C321.524 50.5343 322.043 50.351 322.609 50.2576C323.187 50.1643 323.759 50.1576 324.325 50.2376C324.896 50.321 325.402 50.4893 325.841 50.7427C326.21 50.9561 326.473 51.1778 326.629 51.4079C326.791 51.6412 326.863 51.8763 326.846 52.113C326.828 52.3497 326.733 52.5781 326.56 52.7981C326.392 53.0149 326.15 53.2149 325.832 53.3983C325.751 53.445 325.662 53.49 325.563 53.5333C325.471 53.58 325.382 53.615 325.295 53.6383L321.656 51.5379L322.523 51.0378L325.52 52.7681L324.576 52.6931C324.894 52.5698 325.116 52.4247 325.243 52.258C325.376 52.0947 325.413 51.9263 325.356 51.7529C325.304 51.5829 325.153 51.4262 324.905 51.2828C324.668 51.1461 324.397 51.0594 324.091 51.0228C323.79 50.9828 323.476 51.0011 323.147 51.0778C322.829 51.1545 322.52 51.2928 322.22 51.4929C321.908 51.6462 321.688 51.8163 321.561 52.003C321.446 52.1897 321.425 52.3747 321.501 52.5581C321.581 52.7448 321.752 52.9132 322.012 53.0632C322.272 53.2132 322.546 53.3083 322.835 53.3483C323.129 53.3916 323.421 53.3899 323.71 53.3433L324.177 54.1334C323.86 54.2101 323.516 54.2418 323.147 54.2284C322.777 54.2151 322.407 54.1584 322.038 54.0584C321.674 53.9617 321.33 53.82 321.007 53.6333ZM324.18 55.3452L328.893 52.6246L329.958 53.2398L328.867 53.8699L328.927 53.6949C329.355 53.5482 329.782 53.5015 330.209 53.5548C330.637 53.6082 331.027 53.7365 331.379 53.9399C331.766 54.1633 332.005 54.4183 332.098 54.7051C332.19 54.9918 332.115 55.2552 331.873 55.4952L331.526 55.3252C332.046 55.1918 332.543 55.1552 333.016 55.2152C333.495 55.2719 333.923 55.4086 334.298 55.6253C334.633 55.8186 334.856 56.0337 334.965 56.2704C335.081 56.5105 335.078 56.7522 334.957 56.9956C334.841 57.2356 334.607 57.4573 334.255 57.6607L331.223 59.4111L330.088 58.7559L332.852 57.1606C333.059 57.0406 333.201 56.9155 333.276 56.7855C333.351 56.6555 333.363 56.5288 333.311 56.4054C333.264 56.2787 333.146 56.1604 332.955 56.0504C332.776 55.947 332.574 55.8803 332.349 55.8503C332.13 55.817 331.907 55.822 331.682 55.8653C331.457 55.9087 331.24 55.9903 331.032 56.1104L328.269 57.7057L327.134 57.0506L329.897 55.4552C330.105 55.3352 330.247 55.2102 330.322 55.0802C330.397 54.9501 330.406 54.8218 330.348 54.6951C330.302 54.5684 330.186 54.4517 330.001 54.345C329.822 54.2416 329.62 54.175 329.395 54.145C329.176 54.1116 328.953 54.1166 328.728 54.16C328.503 54.2033 328.286 54.285 328.078 54.405L325.315 56.0003L324.18 55.3452ZM334.314 61.3156C333.829 61.0355 333.514 60.7271 333.37 60.3904C333.225 60.0537 333.24 59.7186 333.413 59.3852C333.586 59.0518 333.901 58.7534 334.357 58.49C334.831 58.2166 335.351 58.0332 335.917 57.9399C336.494 57.8465 337.066 57.8399 337.632 57.9199C338.204 58.0032 338.709 58.1716 339.148 58.425C339.518 58.6384 339.78 58.8601 339.936 59.0901C340.098 59.3235 340.17 59.5586 340.153 59.7953C340.135 60.032 340.04 60.2604 339.867 60.4804C339.699 60.6971 339.457 60.8972 339.139 61.0805C339.058 61.1272 338.969 61.1722 338.871 61.2156C338.778 61.2623 338.689 61.2973 338.602 61.3206L334.964 59.2202L335.83 58.7201L338.827 60.4504L337.883 60.3754C338.201 60.252 338.423 60.107 338.55 59.9403C338.683 59.7769 338.721 59.6086 338.663 59.4352C338.611 59.2652 338.461 59.1085 338.212 58.9651C337.976 58.8284 337.704 58.7417 337.398 58.7051C337.098 58.665 336.783 58.6834 336.454 58.7601C336.136 58.8367 335.827 58.9751 335.527 59.1751C335.215 59.3285 334.996 59.4986 334.868 59.6853C334.753 59.872 334.733 60.057 334.808 60.2404C334.889 60.4271 335.059 60.5954 335.319 60.7455C335.579 60.8955 335.853 60.9905 336.142 61.0305C336.436 61.0739 336.728 61.0722 337.017 61.0255L337.485 61.8157C337.167 61.8924 336.823 61.9241 336.454 61.9107C336.084 61.8974 335.715 61.8407 335.345 61.7407C334.981 61.644 334.637 61.5023 334.314 61.3156ZM337.487 63.0275L342.2 60.3069L343.265 60.922L342.338 61.4572L342.416 61.3121C342.809 61.2121 343.202 61.1921 343.595 61.2521C343.999 61.3121 344.368 61.4388 344.703 61.6322C345.05 61.8322 345.281 62.0523 345.396 62.2923C345.518 62.5357 345.518 62.7791 345.396 63.0225C345.281 63.2625 345.047 63.4842 344.695 63.6876L341.663 65.438L340.528 64.7829L343.291 63.1875C343.499 63.0675 343.638 62.9408 343.707 62.8074C343.776 62.6741 343.779 62.5424 343.716 62.4124C343.664 62.2823 343.543 62.1623 343.352 62.0523C343.167 61.9456 342.959 61.8756 342.728 61.8422C342.503 61.8056 342.275 61.8072 342.044 61.8472C341.813 61.8872 341.593 61.9673 341.386 62.0873L338.622 63.6826L337.487 63.0275ZM344.719 67.2622C344.187 66.9555 343.919 66.6338 343.913 66.297C343.919 65.9603 344.187 65.6386 344.719 65.3318L346.798 64.1316L345.984 63.6615L346.997 63.0764L347.084 63.1264C347.315 63.2597 347.554 63.3281 347.803 63.3314C348.051 63.3347 348.291 63.2697 348.522 63.1364L348.886 62.9263L350.02 63.5815L348.946 64.2016L350.029 64.8267L349.016 65.4119L347.933 64.7867L345.914 65.952C345.758 66.042 345.651 66.1337 345.594 66.227C345.542 66.3237 345.545 66.4221 345.602 66.5221C345.666 66.6254 345.79 66.7305 345.975 66.8371C346.015 66.8605 346.064 66.8855 346.122 66.9122C346.186 66.9422 346.246 66.9705 346.304 66.9972L345.334 67.5573C345.241 67.5173 345.137 67.4706 345.022 67.4173C344.906 67.3639 344.805 67.3122 344.719 67.2622ZM347.89 69.1531C347.388 68.863 347.067 68.5413 346.929 68.1879C346.801 67.8345 346.874 67.4994 347.145 67.1827L348.401 67.4377C348.257 67.6611 348.216 67.8778 348.28 68.0878C348.349 68.3012 348.517 68.4846 348.782 68.638C348.99 68.758 349.201 68.8263 349.415 68.843C349.628 68.8597 349.81 68.8247 349.961 68.738C350.053 68.6846 350.102 68.6263 350.108 68.5629C350.125 68.4996 350.111 68.4312 350.064 68.3579C350.03 68.2845 349.978 68.2112 349.909 68.1379L349.354 67.5677C349.071 67.271 348.944 66.9943 348.973 66.7376C349.008 66.4842 349.187 66.2641 349.51 66.0774C349.799 65.9107 350.122 65.8074 350.48 65.7674C350.85 65.7273 351.225 65.7474 351.606 65.8274C351.993 65.9107 352.357 66.0507 352.698 66.2475C353.143 66.5042 353.429 66.7926 353.556 67.1126C353.683 67.4327 353.625 67.7461 353.382 68.0528L352.109 67.7878C352.242 67.6177 352.276 67.441 352.213 67.2577C352.149 67.0743 351.999 66.9143 351.762 66.7776C351.572 66.6675 351.378 66.6059 351.182 66.5925C350.986 66.5792 350.818 66.6125 350.68 66.6925C350.593 66.7426 350.541 66.7992 350.524 66.8626C350.506 66.9259 350.518 66.9926 350.558 67.0626C350.604 67.136 350.665 67.2143 350.74 67.2977L351.269 67.8628C351.54 68.1529 351.664 68.4246 351.641 68.678C351.624 68.9347 351.448 69.1597 351.113 69.3531C350.83 69.5165 350.503 69.6182 350.134 69.6582C349.77 69.6948 349.395 69.6715 349.008 69.5882C348.621 69.5048 348.248 69.3598 347.89 69.1531Z" fill="#0E3572"/>
</g>
<defs>
<radialGradient id="paint0_radial_1851_6400" cx="0" cy="0" r="1" gradientUnits="userSpaceOnUse" gradientTransform="translate(451.148 502.379) rotate(90) scale(463.245 463.245)">
<stop stop-color="#D9D9D9"/>
<stop offset="0.890272" stop-color="#D9D9D9" stop-opacity="0"/>
</radialGradient>
<linearGradient id="paint1_linear_1851_6400" x1="330.161" y1="169.204" x2="330.161" y2="321" gradientUnits="userSpaceOnUse">
<stop stop-color="white"/>
<stop offset="1" stop-color="#3EAFD1"/>
</linearGradient>
<linearGradient id="paint2_linear_1851_6400" x1="330.183" y1="119.027" x2="330.183" y2="248.707" gradientUnits="userSpaceOnUse">
<stop stop-color="white"/>
<stop offset="1" stop-color="#3EAFD1"/>
</linearGradient>
<linearGradient id="paint3_linear_1851_6400" x1="330.203" y1="68.0654" x2="330.203" y2="177.64" gradientUnits="userSpaceOnUse">
<stop stop-color="white"/>
<stop offset="1" stop-color="#3EAFD1"/>
</linearGradient>
<linearGradient id="paint4_linear_1851_6400" x1="330.223" y1="30.3621" x2="330.223" y2="118.826" gradientUnits="userSpaceOnUse">
<stop stop-color="white"/>
<stop offset="1" stop-color="#3EAFD1"/>
</linearGradient>
<clipPath id="clip0_1851_6400">
<rect width="660" height="360" fill="white"/>
</clipPath>
<clipPath id="clip1_1851_6400">
<rect width="30.8228" height="30.8228" fill="white" transform="matrix(0.866044 -0.499967 0.866044 0.499967 73 152.41)"/>
</clipPath>
<clipPath id="clip2_1851_6400">
<rect width="34.0689" height="34.0689" fill="white" transform="matrix(0.866025 -0.5 0.866025 0.5 494.642 82.6921)"/>
</clipPath>
<clipPath id="clip3_1851_6400">
<rect width="34.2921" height="34.2921" fill="white" transform="matrix(0.866044 -0.499967 0.866044 0.499967 501 295.145)"/>
</clipPath>
</defs>
</svg>
