<svg width="276" height="145" viewBox="0 0 276 145" fill="none" xmlns="http://www.w3.org/2000/svg">
<g clip-path="url(#clip0_1890_1919)">
<rect width="276" height="145" rx="8" fill="url(#paint0_linear_1890_1919)"/>
<rect x="17" y="17" width="274" height="29" rx="4" fill="white" fill-opacity="0.1"/>
<rect x="17.5" y="17.5" width="125" height="28" rx="3.5" fill="#0E3572" stroke="#FFFAFA"/>
<rect x="75" y="58" width="274" height="29" rx="4" fill="white" fill-opacity="0.1"/>
<rect x="75.5" y="58.5" width="67" height="28" rx="3.5" fill="#0E3572" stroke="#FFFAFA"/>
<rect x="150" y="99" width="126" height="29" rx="4" fill="white" fill-opacity="0.1"/>
<rect x="205" y="134" width="149" height="29" rx="4" fill="white" fill-opacity="0.1"/>
<path d="M31.1784 33.1182C30.776 33.1182 30.4359 33.0539 30.1579 32.9253C29.8842 32.7967 29.6747 32.6204 29.5295 32.3964C29.3843 32.1683 29.3117 31.9111 29.3117 31.6249H30.1766C30.1766 31.7452 30.2098 31.8634 30.2762 31.9796C30.3425 32.0916 30.4483 32.1828 30.5935 32.2533C30.7428 32.3239 30.9378 32.3591 31.1784 32.3591C31.3941 32.3591 31.5745 32.328 31.7197 32.2658C31.8649 32.2036 31.9728 32.1227 32.0433 32.0231C32.1138 31.9194 32.149 31.8033 32.149 31.6747C32.149 31.5129 32.0806 31.3843 31.9437 31.2889C31.8068 31.1893 31.5953 31.1271 31.3091 31.1022L30.9108 31.0711C30.4753 31.0338 30.1268 30.899 29.8655 30.6667C29.6083 30.4302 29.4797 30.1191 29.4797 29.7333C29.4797 29.443 29.5482 29.1941 29.6851 28.9867C29.8219 28.7751 30.0128 28.6134 30.2575 28.5014C30.5064 28.3852 30.7968 28.3271 31.1286 28.3271C31.4729 28.3271 31.7695 28.3873 32.0184 28.5076C32.2673 28.6279 32.4602 28.7979 32.597 29.0178C32.7339 29.2335 32.8024 29.4886 32.8024 29.7831H31.9375C31.9375 29.6587 31.9064 29.5446 31.8442 29.4409C31.7861 29.3331 31.6969 29.248 31.5766 29.1858C31.4605 29.1194 31.3111 29.0862 31.1286 29.0862C30.9544 29.0862 30.8092 29.1153 30.6931 29.1733C30.5769 29.2314 30.4898 29.3102 30.4317 29.4098C30.3736 29.5093 30.3446 29.6172 30.3446 29.7333C30.3446 29.8744 30.3965 29.9988 30.5002 30.1067C30.6039 30.2104 30.7677 30.2705 30.9917 30.2871L31.3899 30.3245C31.7135 30.3493 31.9976 30.4178 32.2424 30.5298C32.4871 30.6418 32.6759 30.7932 32.8086 30.984C32.9455 31.1748 33.0139 31.405 33.0139 31.6747C33.0139 31.9609 32.9393 32.2139 32.7899 32.4338C32.6406 32.6495 32.427 32.8175 32.149 32.9378C31.8753 33.0581 31.5517 33.1182 31.1784 33.1182ZM33.7533 34.2444V29.6213H34.4377V31.0773L34.332 31.0711C34.3486 30.7268 34.4191 30.4385 34.5435 30.2062C34.6721 29.9739 34.8422 29.8018 35.0537 29.6898C35.2653 29.5736 35.5017 29.5156 35.7631 29.5156C36.0037 29.5156 36.2194 29.5591 36.4102 29.6462C36.6051 29.7333 36.7711 29.8557 36.908 30.0133C37.049 30.171 37.1568 30.3556 37.2315 30.5671C37.3062 30.7745 37.3435 30.9985 37.3435 31.2391V31.3698C37.3435 31.6145 37.3062 31.8427 37.2315 32.0542C37.161 32.2616 37.0552 32.4462 36.9142 32.608C36.7773 32.7656 36.6114 32.8901 36.4164 32.9813C36.2214 33.0684 36.0037 33.112 35.7631 33.112C35.51 33.112 35.2777 33.0601 35.0662 32.9564C34.8588 32.8486 34.6908 32.6847 34.5622 32.4649C34.4336 32.2409 34.361 31.9526 34.3444 31.6L34.6182 32.0169V34.2444H33.7533ZM35.5453 32.384C35.732 32.384 35.8937 32.3384 36.0306 32.2471C36.1717 32.1559 36.2816 32.0293 36.3604 31.8676C36.4392 31.7016 36.4786 31.515 36.4786 31.3076C36.4786 31.0919 36.4392 30.9052 36.3604 30.7476C36.2816 30.5899 36.1717 30.4676 36.0306 30.3805C35.8937 30.2892 35.732 30.2436 35.5453 30.2436C35.3752 30.2436 35.2176 30.2809 35.0724 30.3556C34.9314 30.4302 34.8152 30.5402 34.724 30.6853C34.6369 30.8305 34.5933 31.0047 34.5933 31.208V31.4569C34.5933 31.6519 34.6389 31.8178 34.7302 31.9547C34.8214 32.0916 34.9397 32.1973 35.0849 32.272C35.23 32.3467 35.3835 32.384 35.5453 32.384ZM38.104 33V29.6213H38.7884V31.0525H38.7698C38.7698 30.5671 38.8735 30.2 39.0809 29.9511C39.2883 29.7022 39.5932 29.5778 39.9955 29.5778H40.12V30.3307H39.8835C39.5932 30.3307 39.3671 30.4095 39.2053 30.5671C39.0477 30.7206 38.9689 30.9446 38.9689 31.2391V33H38.104ZM40.8604 33V29.6213H41.7253V33H40.8604ZM40.3875 30.2685V29.6213H41.7253V30.2685H40.3875ZM41.1777 29.2169C41.0076 29.2169 40.8811 29.1733 40.7981 29.0862C40.7193 28.995 40.6799 28.883 40.6799 28.7502C40.6799 28.6092 40.7193 28.4951 40.7981 28.408C40.8811 28.3209 41.0076 28.2774 41.1777 28.2774C41.3478 28.2774 41.4722 28.3209 41.551 28.408C41.6298 28.4951 41.6693 28.6092 41.6693 28.7502C41.6693 28.883 41.6298 28.995 41.551 29.0862C41.4722 29.1733 41.3478 29.2169 41.1777 29.2169ZM42.722 33V29.6213H43.4065V31.0711H43.3442C43.3442 30.7268 43.3899 30.4406 43.4811 30.2125C43.5724 29.9802 43.7072 29.8059 43.8856 29.6898C44.0681 29.5736 44.2942 29.5156 44.5638 29.5156H44.6011C45.0035 29.5156 45.3084 29.6462 45.5158 29.9076C45.7232 30.1648 45.8269 30.5505 45.8269 31.0649V33H44.962V30.9902C44.962 30.7828 44.9019 30.6148 44.7816 30.4862C44.6654 30.3576 44.5036 30.2933 44.2962 30.2933C44.0847 30.2933 43.9125 30.3597 43.7798 30.4925C43.6512 30.621 43.5869 30.7953 43.5869 31.0151V33H42.722ZM48.2252 33.0436C47.9141 33.0436 47.6569 33.0041 47.4536 32.9253C47.2545 32.8424 47.1052 32.7055 47.0056 32.5147C46.9061 32.3197 46.8563 32.0584 46.8563 31.7307L46.8625 28.6694H47.6714L47.6652 31.7867C47.6652 31.9526 47.7087 32.0812 47.7958 32.1724C47.8871 32.2596 48.0157 32.3031 48.1816 32.3031H48.7105V33.0436H48.2252ZM46.3212 30.256V29.6213H48.7105V30.256H46.3212ZM51.4388 33V29.0054L51.7126 29.2169H50.5117V28.4578H52.3162V33H51.4388Z" fill="#FFFAFA"/>
<path d="M88.5495 75.1182C88.1471 75.1182 87.807 75.0539 87.529 74.9253C87.2553 74.7967 87.0458 74.6204 86.9006 74.3964C86.7554 74.1683 86.6828 73.9111 86.6828 73.6249H87.5477C87.5477 73.7452 87.5809 73.8634 87.6473 73.9796C87.7136 74.0916 87.8194 74.1828 87.9646 74.2533C88.1139 74.3239 88.3089 74.3591 88.5495 74.3591C88.7652 74.3591 88.9456 74.328 89.0908 74.2658C89.236 74.2036 89.3438 74.1227 89.4144 74.0231C89.4849 73.9194 89.5201 73.8033 89.5201 73.6747C89.5201 73.5129 89.4517 73.3843 89.3148 73.2889C89.1779 73.1893 88.9664 73.1271 88.6801 73.1022L88.2819 73.0711C87.8464 73.0338 87.4979 72.899 87.2366 72.6667C86.9794 72.4302 86.8508 72.1191 86.8508 71.7333C86.8508 71.443 86.9193 71.1941 87.0562 70.9867C87.193 70.7751 87.3839 70.6134 87.6286 70.5014C87.8775 70.3852 88.1679 70.3271 88.4997 70.3271C88.844 70.3271 89.1406 70.3873 89.3895 70.5076C89.6384 70.6279 89.8313 70.7979 89.9681 71.0178C90.105 71.2335 90.1735 71.4886 90.1735 71.7831H89.3086C89.3086 71.6587 89.2775 71.5446 89.2153 71.4409C89.1572 71.3331 89.068 71.248 88.9477 71.1858C88.8316 71.1194 88.6822 71.0862 88.4997 71.0862C88.3255 71.0862 88.1803 71.1153 88.0642 71.1733C87.948 71.2314 87.8609 71.3102 87.8028 71.4098C87.7447 71.5093 87.7157 71.6172 87.7157 71.7333C87.7157 71.8744 87.7676 71.9988 87.8713 72.1067C87.975 72.2104 88.1388 72.2705 88.3628 72.2871L88.761 72.3245C89.0846 72.3493 89.3687 72.4178 89.6135 72.5298C89.8582 72.6418 90.047 72.7932 90.1797 72.984C90.3166 73.1748 90.385 73.405 90.385 73.6747C90.385 73.9609 90.3104 74.2139 90.161 74.4338C90.0117 74.6495 89.7981 74.8175 89.5201 74.9378C89.2464 75.0581 88.9228 75.1182 88.5495 75.1182ZM91.1244 76.2444V71.6213H91.8088V73.0773L91.7031 73.0711C91.7197 72.7268 91.7902 72.4385 91.9146 72.2062C92.0432 71.9739 92.2133 71.8018 92.4248 71.6898C92.6364 71.5736 92.8728 71.5156 93.1342 71.5156C93.3748 71.5156 93.5905 71.5591 93.7813 71.6462C93.9762 71.7333 94.1422 71.8557 94.2791 72.0133C94.4201 72.171 94.5279 72.3556 94.6026 72.5671C94.6773 72.7745 94.7146 72.9985 94.7146 73.2391V73.3698C94.7146 73.6145 94.6773 73.8427 94.6026 74.0542C94.5321 74.2616 94.4263 74.4462 94.2853 74.608C94.1484 74.7656 93.9825 74.8901 93.7875 74.9813C93.5925 75.0684 93.3748 75.112 93.1342 75.112C92.8811 75.112 92.6488 75.0601 92.4373 74.9564C92.2299 74.8486 92.0619 74.6847 91.9333 74.4649C91.8047 74.2409 91.7321 73.9526 91.7155 73.6L91.9893 74.0169V76.2444H91.1244ZM92.9164 74.384C93.1031 74.384 93.2648 74.3384 93.4017 74.2471C93.5428 74.1559 93.6527 74.0293 93.7315 73.8676C93.8103 73.7016 93.8497 73.515 93.8497 73.3076C93.8497 73.0919 93.8103 72.9052 93.7315 72.7476C93.6527 72.5899 93.5428 72.4676 93.4017 72.3805C93.2648 72.2892 93.1031 72.2436 92.9164 72.2436C92.7463 72.2436 92.5887 72.2809 92.4435 72.3556C92.3025 72.4302 92.1863 72.5402 92.0951 72.6853C92.008 72.8305 91.9644 73.0047 91.9644 73.208V73.4569C91.9644 73.6519 92.01 73.8178 92.1013 73.9547C92.1925 74.0916 92.3108 74.1973 92.456 74.272C92.6011 74.3467 92.7546 74.384 92.9164 74.384ZM95.4751 75V71.6213H96.1595V73.0525H96.1409C96.1409 72.5671 96.2446 72.2 96.452 71.9511C96.6594 71.7022 96.9643 71.5778 97.3666 71.5778H97.4911V72.3307H97.2546C96.9643 72.3307 96.7382 72.4095 96.5764 72.5671C96.4188 72.7206 96.34 72.9446 96.34 73.2391V75H95.4751ZM98.2315 75V71.6213H99.0963V75H98.2315ZM97.7586 72.2685V71.6213H99.0963V72.2685H97.7586ZM98.5488 71.2169C98.3787 71.2169 98.2522 71.1733 98.1692 71.0862C98.0904 70.995 98.051 70.883 98.051 70.7502C98.051 70.6092 98.0904 70.4951 98.1692 70.408C98.2522 70.3209 98.3787 70.2774 98.5488 70.2774C98.7189 70.2774 98.8433 70.3209 98.9221 70.408C99.0009 70.4951 99.0403 70.6092 99.0403 70.7502C99.0403 70.883 99.0009 70.995 98.9221 71.0862C98.8433 71.1733 98.7189 71.2169 98.5488 71.2169ZM100.093 75V71.6213H100.778V73.0711H100.715C100.715 72.7268 100.761 72.4406 100.852 72.2125C100.943 71.9802 101.078 71.8059 101.257 71.6898C101.439 71.5736 101.665 71.5156 101.935 71.5156H101.972C102.375 71.5156 102.679 71.6462 102.887 71.9076C103.094 72.1648 103.198 72.5505 103.198 73.0649V75H102.333V72.9902C102.333 72.7828 102.273 72.6148 102.153 72.4862C102.037 72.3576 101.875 72.2933 101.667 72.2933C101.456 72.2933 101.284 72.3597 101.151 72.4925C101.022 72.621 100.958 72.7953 100.958 73.0151V75H100.093ZM105.596 75.0436C105.285 75.0436 105.028 75.0041 104.825 74.9253C104.626 74.8424 104.476 74.7055 104.377 74.5147C104.277 74.3197 104.227 74.0584 104.227 73.7307L104.234 70.6694H105.042L105.036 73.7867C105.036 73.9526 105.08 74.0812 105.167 74.1724C105.258 74.2596 105.387 74.3031 105.553 74.3031H106.082V75.0436H105.596ZM103.692 72.256V71.6213H106.082V72.256H103.692ZM108.063 75V74.1289C108.063 73.9381 108.092 73.7722 108.15 73.6311C108.213 73.4901 108.312 73.3656 108.449 73.2578C108.59 73.1458 108.775 73.04 109.003 72.9405L109.774 72.5982C109.965 72.5111 110.11 72.4053 110.21 72.2809C110.314 72.1523 110.365 71.9885 110.365 71.7893C110.365 71.5695 110.299 71.3953 110.166 71.2667C110.038 71.1339 109.853 71.0676 109.613 71.0676C109.372 71.0676 109.185 71.1339 109.053 71.2667C108.924 71.3994 108.86 71.584 108.86 71.8205H108.007C108.007 71.5384 108.067 71.2853 108.188 71.0614C108.308 70.8332 108.486 70.6548 108.723 70.5262C108.959 70.3935 109.256 70.3271 109.613 70.3271C109.969 70.3271 110.266 70.3914 110.502 70.52C110.739 70.6486 110.917 70.8208 111.037 71.0365C111.158 71.248 111.218 71.4845 111.218 71.7458V71.8267C111.218 72.1668 111.123 72.451 110.932 72.6791C110.741 72.9031 110.461 73.0981 110.092 73.264L109.32 73.6062C109.175 73.6685 109.073 73.7348 109.015 73.8053C108.957 73.8717 108.928 73.963 108.928 74.0791V74.4773L108.717 74.2471H111.237V75H108.063Z" fill="#FFFAFA"/>
<path d="M163.553 116.118C163.15 116.118 162.81 116.054 162.532 115.925C162.258 115.797 162.049 115.62 161.904 115.396C161.758 115.168 161.686 114.911 161.686 114.625H162.551C162.551 114.745 162.584 114.863 162.65 114.98C162.717 115.092 162.822 115.183 162.968 115.253C163.117 115.324 163.312 115.359 163.553 115.359C163.768 115.359 163.949 115.328 164.094 115.266C164.239 115.204 164.347 115.123 164.417 115.023C164.488 114.919 164.523 114.803 164.523 114.675C164.523 114.513 164.455 114.384 164.318 114.289C164.181 114.189 163.969 114.127 163.683 114.102L163.285 114.071C162.849 114.034 162.501 113.899 162.24 113.667C161.982 113.43 161.854 113.119 161.854 112.733C161.854 112.443 161.922 112.194 162.059 111.987C162.196 111.775 162.387 111.613 162.632 111.501C162.881 111.385 163.171 111.327 163.503 111.327C163.847 111.327 164.144 111.387 164.393 111.508C164.641 111.628 164.834 111.798 164.971 112.018C165.108 112.233 165.177 112.489 165.177 112.783H164.312C164.312 112.659 164.281 112.545 164.218 112.441C164.16 112.333 164.071 112.248 163.951 112.186C163.835 112.119 163.685 112.086 163.503 112.086C163.329 112.086 163.183 112.115 163.067 112.173C162.951 112.231 162.864 112.31 162.806 112.41C162.748 112.509 162.719 112.617 162.719 112.733C162.719 112.874 162.771 112.999 162.874 113.107C162.978 113.21 163.142 113.271 163.366 113.287L163.764 113.324C164.088 113.349 164.372 113.418 164.617 113.53C164.861 113.642 165.05 113.793 165.183 113.984C165.32 114.175 165.388 114.405 165.388 114.675C165.388 114.961 165.313 115.214 165.164 115.434C165.015 115.649 164.801 115.817 164.523 115.938C164.249 116.058 163.926 116.118 163.553 116.118ZM166.127 117.244V112.621H166.812V114.077L166.706 114.071C166.723 113.727 166.793 113.439 166.918 113.206C167.046 112.974 167.216 112.802 167.428 112.69C167.639 112.574 167.876 112.516 168.137 112.516C168.378 112.516 168.594 112.559 168.784 112.646C168.979 112.733 169.145 112.856 169.282 113.013C169.423 113.171 169.531 113.356 169.606 113.567C169.68 113.775 169.718 113.999 169.718 114.239V114.37C169.718 114.615 169.68 114.843 169.606 115.054C169.535 115.262 169.429 115.446 169.288 115.608C169.151 115.766 168.986 115.89 168.791 115.981C168.596 116.068 168.378 116.112 168.137 116.112C167.884 116.112 167.652 116.06 167.44 115.956C167.233 115.849 167.065 115.685 166.936 115.465C166.808 115.241 166.735 114.953 166.719 114.6L166.992 115.017V117.244H166.127ZM167.919 115.384C168.106 115.384 168.268 115.338 168.405 115.247C168.546 115.156 168.656 115.029 168.735 114.868C168.813 114.702 168.853 114.515 168.853 114.308C168.853 114.092 168.813 113.905 168.735 113.748C168.656 113.59 168.546 113.468 168.405 113.38C168.268 113.289 168.106 113.244 167.919 113.244C167.749 113.244 167.592 113.281 167.447 113.356C167.306 113.43 167.189 113.54 167.098 113.685C167.011 113.831 166.967 114.005 166.967 114.208V114.457C166.967 114.652 167.013 114.818 167.104 114.955C167.196 115.092 167.314 115.197 167.459 115.272C167.604 115.347 167.758 115.384 167.919 115.384ZM170.478 116V112.621H171.163V114.052H171.144C171.144 113.567 171.248 113.2 171.455 112.951C171.662 112.702 171.967 112.578 172.37 112.578H172.494V113.331H172.258C171.967 113.331 171.741 113.409 171.579 113.567C171.422 113.721 171.343 113.945 171.343 114.239V116H170.478ZM173.234 116V112.621H174.099V116H173.234ZM172.762 113.268V112.621H174.099V113.268H172.762ZM173.552 112.217C173.382 112.217 173.255 112.173 173.172 112.086C173.093 111.995 173.054 111.883 173.054 111.75C173.054 111.609 173.093 111.495 173.172 111.408C173.255 111.321 173.382 111.277 173.552 111.277C173.722 111.277 173.846 111.321 173.925 111.408C174.004 111.495 174.043 111.609 174.043 111.75C174.043 111.883 174.004 111.995 173.925 112.086C173.846 112.173 173.722 112.217 173.552 112.217ZM175.096 116V112.621H175.781V114.071H175.718C175.718 113.727 175.764 113.441 175.855 113.212C175.947 112.98 176.081 112.806 176.26 112.69C176.442 112.574 176.668 112.516 176.938 112.516H176.975C177.378 112.516 177.683 112.646 177.89 112.908C178.097 113.165 178.201 113.551 178.201 114.065V116H177.336V113.99C177.336 113.783 177.276 113.615 177.156 113.486C177.04 113.358 176.878 113.293 176.67 113.293C176.459 113.293 176.287 113.36 176.154 113.492C176.025 113.621 175.961 113.795 175.961 114.015V116H175.096ZM180.599 116.044C180.288 116.044 180.031 116.004 179.828 115.925C179.629 115.842 179.479 115.705 179.38 115.515C179.28 115.32 179.23 115.058 179.23 114.731L179.237 111.669H180.046L180.039 114.787C180.039 114.953 180.083 115.081 180.17 115.172C180.261 115.26 180.39 115.303 180.556 115.303H181.085V116.044H180.599ZM178.695 113.256V112.621H181.085V113.256H178.695ZM184.566 116.118C184.217 116.118 183.917 116.052 183.664 115.919C183.415 115.786 183.224 115.61 183.091 115.39C182.958 115.166 182.892 114.917 182.892 114.644H183.745C183.745 114.863 183.817 115.042 183.962 115.179C184.112 115.311 184.313 115.378 184.566 115.378C184.736 115.378 184.881 115.347 185.001 115.284C185.126 115.218 185.221 115.129 185.288 115.017C185.354 114.901 185.387 114.768 185.387 114.619C185.387 114.395 185.315 114.212 185.169 114.071C185.024 113.926 184.825 113.853 184.572 113.853C184.448 113.853 184.338 113.87 184.242 113.903C184.151 113.936 184.07 113.98 184 114.034L183.595 113.337L185.089 112.316L185.033 112.211H183.079V111.458H186.047V112.366L184.51 113.387L184.031 113.3C184.11 113.275 184.195 113.256 184.286 113.244C184.377 113.227 184.477 113.219 184.585 113.219C184.929 113.219 185.223 113.279 185.468 113.399C185.717 113.515 185.908 113.677 186.041 113.884C186.173 114.092 186.24 114.33 186.24 114.6V114.681C186.24 114.942 186.173 115.183 186.041 115.403C185.908 115.618 185.717 115.793 185.468 115.925C185.219 116.054 184.918 116.118 184.566 116.118Z" fill="white"/>
<line x1="276" y1="52.5" x2="1" y2="52.5" stroke="#FFFAFA" stroke-opacity="0.1" stroke-dasharray="4 2"/>
<line x1="276" y1="93.5" x2="1" y2="93.5" stroke="#FFFAFA" stroke-opacity="0.1" stroke-dasharray="4 2"/>
<line x1="276" y1="131.5" x2="1" y2="131.5" stroke="#FFFAFA" stroke-opacity="0.1" stroke-dasharray="4 2"/>
<circle cx="144.448" cy="5.4479" r="3.99513" fill="#FFFAFA" stroke="#ED1C24" stroke-width="2.90555"/>
<path d="M143.358 10.8958H145.538V207.383C145.538 207.985 145.05 208.473 144.448 208.473C143.846 208.473 143.358 207.985 143.358 207.383V10.8958Z" fill="#ED1C24"/>
</g>
<defs>
<linearGradient id="paint0_linear_1890_1919" x1="138" y1="0" x2="138" y2="145" gradientUnits="userSpaceOnUse">
<stop stop-color="#1A3F79"/>
<stop offset="1" stop-color="#002A6B"/>
</linearGradient>
<clipPath id="clip0_1890_1919">
<rect width="276" height="145" rx="8" fill="white"/>
</clipPath>
</defs>
</svg>
