<svg width="648" height="535" viewBox="0 0 648 535" fill="none" xmlns="http://www.w3.org/2000/svg">
<g clip-path="url(#clip0_1544_1516)">
<rect width="648" height="535" fill="#FFFAFA"/>
<g opacity="0.5">
<mask id="mask0_1544_1516" style="mask-type:alpha" maskUnits="userSpaceOnUse" x="-536" y="-239" width="1710" height="987">
<rect width="986.692" height="986.692" transform="matrix(0.866025 0.5 -0.866025 0.5 318.967 -238.75)" fill="url(#paint0_radial_1544_1516)"/>
</mask>
<g mask="url(#mask0_1544_1516)">
<path d="M299.224 -226.414L-514.47 243.372" stroke="#B3B3B3"/>
<path d="M334.828 -205.86L-478.865 263.926" stroke="#B3B3B3"/>
<path d="M370.432 -185.302L-443.262 284.484" stroke="#B3B3B3"/>
<path d="M406.036 -164.746L-407.657 305.04" stroke="#B3B3B3"/>
<path d="M441.639 -144.191L-372.054 325.595" stroke="#B3B3B3"/>
<path d="M477.246 -123.634L-336.448 346.152" stroke="#B3B3B3"/>
<path d="M512.848 -103.077L-300.846 366.709" stroke="#B3B3B3"/>
<path d="M548.451 -82.5232L-265.242 387.263" stroke="#B3B3B3"/>
<path d="M584.06 -61.9655L-229.633 407.821" stroke="#B3B3B3"/>
<path d="M619.661 -41.4097L-194.032 428.376" stroke="#B3B3B3"/>
<path d="M655.265 -20.8543L-158.428 448.932" stroke="#B3B3B3"/>
<path d="M690.868 -0.2976L-122.825 469.489" stroke="#B3B3B3"/>
<path d="M726.474 20.259L-87.219 490.045" stroke="#B3B3B3"/>
<path d="M762.079 40.8134L-51.6145 510.6" stroke="#B3B3B3"/>
<path d="M797.685 61.3711L-16.0088 531.157" stroke="#B3B3B3"/>
<path d="M833.286 81.9265L19.5925 551.713" stroke="#B3B3B3"/>
<path d="M868.893 102.482L55.1992 572.268" stroke="#B3B3B3"/>
<path d="M904.494 123.038L90.8005 592.824" stroke="#B3B3B3"/>
<path d="M940.101 143.595L126.407 613.381" stroke="#B3B3B3"/>
<path d="M975.702 164.15L162.008 633.936" stroke="#B3B3B3"/>
<path d="M1011.31 184.707L197.614 654.494" stroke="#B3B3B3"/>
<path d="M1046.91 205.263L233.218 675.049" stroke="#B3B3B3"/>
<path d="M1082.52 225.819L268.824 695.605" stroke="#B3B3B3"/>
<path d="M1118.12 246.375L304.425 716.162" stroke="#B3B3B3"/>
<path d="M1153.73 266.931L340.032 736.717" stroke="#B3B3B3"/>
<path d="M299.224 -226.414L1153.72 266.931" stroke="#B3B3B3"/>
<path d="M265.319 -206.84L1119.82 286.506" stroke="#B3B3B3"/>
<path d="M231.416 -187.265L1085.92 306.08" stroke="#B3B3B3"/>
<path d="M197.511 -167.691L1052.01 325.654" stroke="#B3B3B3"/>
<path d="M163.608 -148.117L1018.11 345.229" stroke="#B3B3B3"/>
<path d="M129.703 -128.543L984.203 364.803" stroke="#B3B3B3"/>
<path d="M95.8007 -108.967L950.301 384.378" stroke="#B3B3B3"/>
<path d="M61.8962 -89.3929C395.599 103.271 582.693 211.289 916.396 403.953" stroke="#B3B3B3"/>
<path d="M27.9926 -69.8193L882.493 423.526" stroke="#B3B3B3"/>
<path d="M-5.9104 -50.2451L848.59 443.101" stroke="#B3B3B3"/>
<path d="M-39.8147 -30.669L814.685 462.677" stroke="#B3B3B3"/>
<path d="M-73.7201 -11.0964L780.78 482.249" stroke="#B3B3B3"/>
<path d="M-107.622 8.47906L746.878 501.825" stroke="#B3B3B3"/>
<path d="M-141.527 28.0537L712.973 521.4" stroke="#B3B3B3"/>
<path d="M-175.431 47.6274L679.069 540.973" stroke="#B3B3B3"/>
<path d="M-209.333 67.202L645.167 560.548M111.104 252.206C111.104 252.206 132.803 264.734 146.707 272.762" stroke="#B3B3B3"/>
<path d="M-243.208 86.7647L611.292 580.111" stroke="#B3B3B3"/>
<path d="M-277.111 106.338L577.389 599.683" stroke="#B3B3B3"/>
<path d="M-311.016 125.911L543.484 619.257" stroke="#B3B3B3"/>
<path d="M-344.919 145.486L509.581 638.832" stroke="#B3B3B3"/>
<path d="M-378.823 165.061L475.677 658.406" stroke="#B3B3B3"/>
<path d="M-412.725 184.634L441.775 677.98" stroke="#B3B3B3"/>
<path d="M-446.63 204.208L407.87 697.554" stroke="#B3B3B3"/>
<path d="M-480.534 223.784L373.966 717.13" stroke="#B3B3B3"/>
<path d="M-514.437 243.358L340.063 736.704" stroke="#B3B3B3"/>
</g>
</g>
<path d="M146.201 273.616L324.286 375.375L493.598 277.626L316.041 175.116L146.201 273.616Z" fill="white"/>
<path d="M146.201 273.616L324.286 375.375L493.598 277.626L316.041 175.116L146.201 273.616Z" fill="#ED1C24" fill-opacity="0.1"/>
<path d="M146.201 273.616L324.286 375.375L493.598 277.626L316.041 175.116L146.201 273.616Z" stroke="#0E3572" stroke-width="0.5"/>
<mask id="path-53-inside-1_1544_1516" fill="white">
<path d="M377.963 252.213L423.385 252.31V277.359L319.666 335.81L216.747 278.315L215.034 277.36L215.035 277.359V251.87L260.563 251.966L319.042 219.35L377.963 252.213Z"/>
</mask>
<path d="M377.963 252.213L423.385 252.31V277.359L319.666 335.81L216.747 278.315L215.034 277.36L215.035 277.359V251.87L260.563 251.966L319.042 219.35L377.963 252.213Z" fill="url(#paint1_linear_1544_1516)"/>
<path d="M377.963 252.213L377.674 252.73L377.808 252.804L377.961 252.805L377.963 252.213ZM423.385 252.31H423.977V251.719L423.387 251.718L423.385 252.31ZM423.385 277.359L423.676 277.875L423.977 277.705V277.359H423.385ZM319.666 335.81L319.377 336.326L319.667 336.488L319.956 336.325L319.666 335.81ZM216.747 278.315L217.035 277.799L217.035 277.799L216.747 278.315ZM215.034 277.36L214.615 276.942L214.062 277.496L214.746 277.877L215.034 277.36ZM215.035 277.359L215.453 277.778L215.627 277.604V277.359H215.035ZM215.035 251.87L215.036 251.278L214.443 251.277V251.87H215.035ZM260.563 251.966L260.562 252.558L260.716 252.558L260.851 252.483L260.563 251.966ZM319.042 219.35L319.33 218.833L319.042 218.672L318.753 218.833L319.042 219.35ZM377.963 252.213L377.961 252.805L423.384 252.901L423.385 252.31L423.387 251.718L377.964 251.621L377.963 252.213ZM423.385 252.31H422.794V277.359H423.385H423.977V252.31H423.385ZM423.385 277.359L423.095 276.844L319.375 335.294L319.666 335.81L319.956 336.325L423.676 277.875L423.385 277.359ZM319.666 335.81L319.954 335.293L217.035 277.799L216.747 278.315L216.458 278.832L319.377 336.326L319.666 335.81ZM216.747 278.315L217.035 277.799L215.322 276.844L215.034 277.36L214.746 277.877L216.459 278.832L216.747 278.315ZM215.034 277.36L215.452 277.779L215.453 277.778L215.035 277.359L214.616 276.941L214.615 276.942L215.034 277.36ZM215.035 277.359H215.627V251.87H215.035H214.443V277.359H215.035ZM215.035 251.87L215.034 252.462L260.562 252.558L260.563 251.966L260.564 251.374L215.036 251.278L215.035 251.87ZM260.563 251.966L260.851 252.483L319.33 219.866L319.042 219.35L318.753 218.833L260.275 251.449L260.563 251.966ZM319.042 219.35L318.753 219.866L377.674 252.73L377.963 252.213L378.251 251.696L319.33 218.833L319.042 219.35Z" fill="#0E3572" mask="url(#path-53-inside-1_1544_1516)"/>
<g filter="url(#filter0_i_1544_1516)">
<path d="M319.04 193.86L423.383 252.31L319.04 309.881L215.033 251.87L319.04 193.86Z" fill="white"/>
</g>
<path d="M422.783 252.308L319.041 309.548L215.631 251.87L319.04 194.194L422.783 252.308Z" stroke="white" stroke-opacity="0.2" stroke-width="0.685843"/>
<path d="M422.783 252.308L319.041 309.548L215.631 251.87L319.04 194.194L422.783 252.308Z" stroke="#0E3572" stroke-width="0.685843"/>
<mask id="path-57-inside-2_1544_1516" fill="white">
<path d="M361.699 228.977L395.667 229.049V247.782L318.102 291.492L240.48 248.13L239.856 247.782L239.857 247.781V228.721L273.902 228.792L317.635 204.4L361.699 228.977Z"/>
</mask>
<path d="M361.699 228.977L395.667 229.049V247.782L318.102 291.492L240.48 248.13L239.856 247.782L239.857 247.781V228.721L273.902 228.792L317.635 204.4L361.699 228.977Z" fill="url(#paint2_linear_1544_1516)"/>
<path d="M361.699 228.977L361.411 229.493L361.544 229.568L361.698 229.568L361.699 228.977ZM395.667 229.049H396.258V228.458L395.668 228.457L395.667 229.049ZM395.667 247.782L395.957 248.298L396.258 248.128V247.782H395.667ZM318.102 291.492L317.814 292.009L318.103 292.171L318.393 292.008L318.102 291.492ZM240.48 248.13L240.769 247.613L240.768 247.613L240.48 248.13ZM239.856 247.782L239.438 247.364L238.884 247.918L239.568 248.299L239.856 247.782ZM239.857 247.781L240.275 248.2L240.449 248.026V247.781H239.857ZM239.857 228.721L239.858 228.129L239.265 228.128V228.721H239.857ZM273.902 228.792L273.901 229.384L274.055 229.384L274.19 229.309L273.902 228.792ZM317.635 204.4L317.924 203.884L317.635 203.723L317.347 203.884L317.635 204.4ZM361.699 228.977L361.698 229.568L395.665 229.641L395.667 229.049L395.668 228.457L361.7 228.385L361.699 228.977ZM395.667 229.049H395.075V247.782H395.667H396.258V229.049H395.667ZM395.667 247.782L395.376 247.267L317.812 290.977L318.102 291.492L318.393 292.008L395.957 248.298L395.667 247.782ZM318.102 291.492L318.391 290.976L240.769 247.613L240.48 248.13L240.192 248.646L317.814 292.009L318.102 291.492ZM240.48 248.13L240.768 247.613L240.144 247.265L239.856 247.782L239.568 248.299L240.192 248.647L240.48 248.13ZM239.856 247.782L240.275 248.201L240.275 248.2L239.857 247.781L239.439 247.363L239.438 247.364L239.856 247.782ZM239.857 247.781H240.449V228.721H239.857H239.265V247.781H239.857ZM239.857 228.721L239.856 229.312L273.901 229.384L273.902 228.792L273.903 228.2L239.858 228.129L239.857 228.721ZM273.902 228.792L274.19 229.309L317.924 204.917L317.635 204.4L317.347 203.884L273.614 228.275L273.902 228.792ZM317.635 204.4L317.347 204.917L361.411 229.493L361.699 228.977L361.987 228.46L317.924 203.884L317.635 204.4Z" fill="#0E3572" mask="url(#path-57-inside-2_1544_1516)"/>
<g filter="url(#filter1_i_1544_1516)">
<path d="M317.634 185.339L395.665 229.049L317.634 272.102L239.855 228.72L317.634 185.339Z" fill="#0E3572"/>
</g>
<path d="M395.065 229.047L317.636 271.769L240.454 228.72L317.634 185.673L395.065 229.047Z" stroke="white" stroke-opacity="0.2" stroke-width="0.685843"/>
<path d="M395.065 229.047L317.636 271.769L240.454 228.72L317.634 185.673L395.065 229.047Z" stroke="#0E3572" stroke-width="0.685843"/>
<path d="M296.262 228.391C295.609 228.754 294.888 229.025 294.097 229.202C293.315 229.375 292.504 229.459 291.664 229.455C290.833 229.445 290.018 229.345 289.219 229.155C288.42 228.964 287.682 228.679 287.006 228.302C286.329 227.925 285.816 227.516 285.465 227.075C285.115 226.624 284.935 226.17 284.927 225.711C284.919 225.242 285.078 224.79 285.404 224.354C285.722 223.913 286.207 223.51 286.859 223.147C287.511 222.783 288.204 222.519 288.938 222.355C289.679 222.187 290.413 222.105 291.139 222.11C291.856 222.11 292.508 222.187 293.095 222.342L292.3 223.563C291.672 223.403 291.008 223.356 290.307 223.419C289.598 223.478 288.954 223.669 288.375 223.992C287.805 224.31 287.434 224.667 287.263 225.063C287.1 225.454 287.132 225.849 287.36 226.249C287.597 226.645 288.033 227.02 288.669 227.375C289.305 227.729 289.981 227.975 290.698 228.111C291.416 228.238 292.125 228.257 292.826 228.166C293.535 228.07 294.175 227.863 294.745 227.545C295.324 227.222 295.671 226.865 295.785 226.474C295.891 226.079 295.801 225.706 295.516 225.356L297.704 224.913C297.981 225.24 298.124 225.606 298.132 226.011C298.132 226.411 297.981 226.818 297.68 227.231C297.386 227.641 296.914 228.027 296.262 228.391ZM304.449 223.824C303.797 224.188 303.051 224.436 302.212 224.567C301.38 224.695 300.545 224.701 299.705 224.588C298.874 224.47 298.124 224.224 297.456 223.851C296.787 223.479 296.347 223.06 296.135 222.597C295.931 222.128 295.943 221.662 296.172 221.199C296.4 220.735 296.844 220.319 297.504 219.951C298.157 219.587 298.898 219.341 299.73 219.214C300.561 219.087 301.393 219.082 302.224 219.2C303.055 219.31 303.809 219.553 304.486 219.93C305.154 220.303 305.59 220.723 305.794 221.192C305.998 221.66 305.986 222.126 305.757 222.59C305.529 223.053 305.093 223.465 304.449 223.824ZM302.982 223.006C303.341 222.806 303.569 222.583 303.667 222.337C303.773 222.087 303.752 221.835 303.606 221.58C303.459 221.317 303.194 221.078 302.811 220.864C302.42 220.646 301.996 220.501 301.539 220.428C301.083 220.346 300.63 220.335 300.182 220.394C299.734 220.444 299.33 220.569 298.972 220.769C298.605 220.973 298.373 221.203 298.275 221.458C298.169 221.708 298.185 221.962 298.324 222.221C298.462 222.472 298.727 222.706 299.118 222.924C299.501 223.138 299.925 223.288 300.39 223.374C300.855 223.451 301.311 223.46 301.759 223.401C302.208 223.342 302.615 223.21 302.982 223.006ZM309.026 221.108L302.375 217.398L303.879 216.559L305.358 217.384L305.016 217.33C304.674 216.966 304.568 216.638 304.698 216.348C304.837 216.052 305.138 215.775 305.603 215.516L305.994 215.297L307.412 216.088L306.838 216.409C306.381 216.663 306.157 216.948 306.165 217.261C306.165 217.57 306.418 217.866 306.923 218.148L310.628 220.214L309.026 221.108ZM316.901 216.879C316.216 217.261 315.462 217.509 314.639 217.623C313.815 217.736 312.996 217.725 312.181 217.589C311.366 217.452 310.636 217.204 309.992 216.845C309.324 216.472 308.876 216.063 308.648 215.618C308.419 215.163 308.403 214.713 308.599 214.267C308.802 213.817 309.214 213.42 309.834 213.074C310.355 212.783 310.897 212.576 311.46 212.453C312.03 212.326 312.605 212.269 313.184 212.283C313.762 212.297 314.321 212.372 314.859 212.508C315.389 212.64 315.878 212.831 316.326 213.081C316.44 213.144 316.55 213.215 316.656 213.292C316.77 213.365 316.856 213.435 316.913 213.504L311.778 216.368L310.555 215.686L314.785 213.326L314.602 214.07C314.3 213.82 313.946 213.645 313.538 213.545C313.139 213.44 312.727 213.41 312.303 213.456C311.888 213.497 311.504 213.615 311.154 213.811C310.82 213.997 310.608 214.211 310.518 214.452C310.42 214.688 310.465 214.936 310.653 215.195C310.84 215.445 311.178 215.688 311.668 215.925C312.042 216.17 312.458 216.343 312.915 216.443C313.371 216.534 313.824 216.55 314.272 216.491C314.728 216.427 315.14 216.293 315.507 216.088C315.874 215.884 316.106 215.668 316.204 215.44C316.31 215.209 316.306 214.979 316.191 214.752L318.123 214.383C318.311 214.633 318.388 214.904 318.356 215.195C318.323 215.486 318.184 215.777 317.94 216.068C317.703 216.354 317.357 216.625 316.901 216.879ZM298.033 244.775L288.924 239.694L292.323 237.798C292.943 237.453 293.603 237.212 294.304 237.076C295.005 236.93 295.706 236.903 296.407 236.994C297.1 237.08 297.752 237.294 298.363 237.635C298.967 237.971 299.346 238.337 299.501 238.733C299.655 239.119 299.611 239.508 299.366 239.899C299.121 240.29 298.689 240.658 298.07 241.004L296.334 241.972L299.696 243.847L298.033 244.775ZM294.867 241.154L296.627 240.172C296.929 240.003 297.133 239.826 297.239 239.64C297.336 239.449 297.34 239.26 297.251 239.074C297.161 238.887 296.978 238.717 296.701 238.562C296.415 238.403 296.11 238.301 295.784 238.255C295.449 238.205 295.115 238.21 294.781 238.269C294.439 238.323 294.117 238.435 293.815 238.603L292.054 239.585L294.867 241.154ZM305.827 240.428L299.176 236.718L300.68 235.879L302.159 236.704L301.817 236.65C301.474 236.286 301.368 235.959 301.499 235.668C301.637 235.372 301.939 235.095 302.404 234.836L302.795 234.618L304.213 235.409L303.639 235.729C303.182 235.984 302.958 236.268 302.966 236.582C302.966 236.891 303.219 237.186 303.724 237.468L307.429 239.534L305.827 240.428ZM313.799 236.145C313.147 236.509 312.401 236.756 311.562 236.888C310.73 237.016 309.895 237.022 309.055 236.909C308.224 236.79 307.474 236.545 306.806 236.172C306.137 235.799 305.697 235.381 305.485 234.917C305.281 234.449 305.294 233.983 305.522 233.519C305.75 233.056 306.194 232.64 306.854 232.271C307.507 231.908 308.248 231.662 309.08 231.535C309.911 231.408 310.743 231.403 311.574 231.521C312.405 231.63 313.159 231.874 313.836 232.251C314.504 232.624 314.94 233.044 315.144 233.513C315.348 233.981 315.336 234.447 315.108 234.911C314.879 235.374 314.443 235.786 313.799 236.145ZM312.332 235.327C312.691 235.127 312.919 234.904 313.017 234.658C313.123 234.408 313.102 234.156 312.956 233.901C312.809 233.638 312.544 233.399 312.161 233.185C311.77 232.967 311.346 232.822 310.889 232.749C310.433 232.667 309.98 232.656 309.532 232.715C309.084 232.765 308.68 232.89 308.322 233.09C307.955 233.294 307.723 233.524 307.625 233.779C307.519 234.029 307.535 234.283 307.674 234.542C307.812 234.792 308.077 235.027 308.468 235.245C308.852 235.458 309.275 235.608 309.74 235.695C310.205 235.772 310.661 235.781 311.109 235.722C311.558 235.663 311.965 235.531 312.332 235.327ZM321.616 231.785C320.972 232.144 320.247 232.38 319.44 232.494C318.625 232.603 317.806 232.592 316.982 232.46C316.159 232.328 315.426 232.083 314.782 231.724C314.13 231.36 313.689 230.951 313.461 230.496C313.233 230.041 313.217 229.587 313.412 229.132C313.616 228.673 314.032 228.268 314.659 227.918C315.165 227.636 315.715 227.443 316.31 227.339C316.905 227.225 317.496 227.204 318.083 227.277L318.168 227.598L314.244 225.409L315.845 224.515L325.101 229.678L323.585 230.523L322.301 229.807L322.79 229.889C322.921 230.216 322.88 230.548 322.668 230.885C322.448 231.217 322.097 231.517 321.616 231.785ZM320.32 230.871C320.687 230.667 320.924 230.439 321.03 230.189C321.135 229.939 321.115 229.687 320.968 229.432C320.83 229.173 320.565 228.934 320.174 228.716C319.791 228.502 319.367 228.357 318.902 228.28C318.437 228.193 317.981 228.18 317.533 228.239C317.084 228.298 316.677 228.43 316.31 228.634C315.951 228.834 315.719 229.064 315.613 229.323C315.499 229.578 315.511 229.835 315.65 230.094C315.788 230.344 316.053 230.578 316.444 230.796C316.836 231.014 317.26 231.164 317.716 231.246C318.181 231.323 318.641 231.33 319.098 231.267C319.554 231.203 319.962 231.071 320.32 230.871ZM329.11 227.605C328.596 227.892 328.034 228.078 327.423 228.165C326.819 228.246 326.212 228.231 325.601 228.117C324.998 227.999 324.423 227.787 323.877 227.483L319.805 225.212L321.407 224.318L325.344 226.514C325.621 226.669 325.919 226.776 326.237 226.835C326.554 226.885 326.876 226.887 327.203 226.842C327.529 226.787 327.822 226.687 328.083 226.542C328.344 226.396 328.519 226.235 328.609 226.057C328.69 225.876 328.682 225.694 328.584 225.512C328.486 225.33 328.291 225.157 327.997 224.994L324.097 222.818L325.699 221.925L332.35 225.635L330.834 226.48L329.526 225.75L329.892 225.805C330.145 226.119 330.194 226.432 330.039 226.746C329.892 227.055 329.583 227.342 329.11 227.605ZM337.189 223.099C336.529 223.468 335.783 223.715 334.952 223.843C334.12 223.961 333.293 223.959 332.469 223.836C331.638 223.708 330.892 223.461 330.232 223.092C329.572 222.724 329.132 222.31 328.911 221.851C328.691 221.392 328.691 220.933 328.911 220.474C329.14 220.01 329.584 219.594 330.244 219.226C330.717 218.962 331.243 218.764 331.821 218.632C332.392 218.496 332.971 218.428 333.558 218.428C334.145 218.419 334.703 218.489 335.233 218.639L334.438 219.765C333.982 219.646 333.505 219.612 333.007 219.662C332.518 219.708 332.086 219.835 331.711 220.044C331.361 220.24 331.133 220.462 331.027 220.712C330.929 220.958 330.953 221.208 331.1 221.463C331.247 221.717 331.516 221.954 331.907 222.172C332.298 222.39 332.722 222.54 333.179 222.622C333.635 222.704 334.083 222.717 334.524 222.663C334.972 222.604 335.371 222.476 335.722 222.281C336.105 222.067 336.337 221.824 336.419 221.551C336.5 221.278 336.431 221.012 336.211 220.753L338.253 220.324C338.497 220.606 338.624 220.912 338.632 221.244C338.632 221.572 338.514 221.897 338.277 222.22C338.033 222.538 337.67 222.831 337.189 223.099ZM344.383 219.005C343.633 219.423 342.847 219.635 342.023 219.639C341.2 219.635 340.414 219.423 339.664 219.005L336.729 217.368L335.58 218.009L334.149 217.211L334.272 217.143C334.598 216.961 334.765 216.773 334.773 216.577C334.781 216.382 334.622 216.193 334.296 216.011L333.783 215.725L335.384 214.831L336.9 215.677L338.429 214.824L339.859 215.622L338.331 216.475L341.18 218.064C341.4 218.186 341.624 218.271 341.852 218.316C342.089 218.357 342.329 218.355 342.574 218.309C342.826 218.259 343.083 218.161 343.344 218.016C343.401 217.984 343.462 217.946 343.527 217.9C343.601 217.85 343.67 217.802 343.735 217.757L345.105 218.521C345.007 218.593 344.893 218.675 344.762 218.766C344.632 218.857 344.506 218.937 344.383 219.005ZM323.773 247.954L316.132 243.692L313.772 245.008L312.305 244.19L318.663 240.644L320.13 241.462L317.807 242.758L325.448 247.02L323.773 247.954ZM331.093 244.035C330.409 244.417 329.655 244.665 328.831 244.778C328.008 244.892 327.189 244.881 326.374 244.744C325.559 244.608 324.829 244.36 324.185 244.001C323.517 243.628 323.068 243.219 322.84 242.773C322.612 242.319 322.596 241.869 322.791 241.423C322.995 240.973 323.407 240.575 324.026 240.23C324.548 239.939 325.09 239.732 325.652 239.609C326.223 239.482 326.798 239.425 327.376 239.439C327.955 239.452 328.513 239.527 329.051 239.664C329.581 239.796 330.07 239.987 330.519 240.237C330.633 240.3 330.743 240.371 330.849 240.448C330.963 240.521 331.048 240.591 331.105 240.659L325.97 243.524L324.748 242.842L328.978 240.482L328.795 241.225C328.493 240.975 328.138 240.8 327.731 240.7C327.331 240.596 326.92 240.566 326.496 240.612C326.08 240.653 325.697 240.771 325.347 240.966C325.012 241.153 324.801 241.366 324.711 241.607C324.613 241.844 324.658 242.091 324.845 242.351C325.033 242.601 325.371 242.844 325.86 243.08C326.235 243.326 326.651 243.499 327.107 243.599C327.564 243.69 328.016 243.705 328.464 243.646C328.921 243.583 329.333 243.449 329.699 243.244C330.066 243.039 330.299 242.823 330.396 242.596C330.502 242.364 330.498 242.135 330.384 241.907L332.316 241.539C332.503 241.789 332.581 242.06 332.548 242.351C332.516 242.642 332.377 242.933 332.133 243.224C331.896 243.51 331.55 243.78 331.093 244.035ZM337.419 240.507C336.954 240.766 336.473 240.948 335.976 241.053C335.479 241.157 334.994 241.182 334.521 241.128C334.04 241.068 333.608 240.932 333.225 240.718C332.858 240.514 332.614 240.286 332.491 240.036C332.361 239.782 332.369 239.505 332.516 239.204C332.663 238.904 332.956 238.586 333.396 238.25L335.218 236.838L336.441 237.52L334.888 238.741C334.627 238.95 334.493 239.139 334.484 239.307C334.476 239.475 334.59 239.625 334.827 239.757C335.055 239.884 335.324 239.939 335.634 239.92C335.943 239.893 336.229 239.807 336.49 239.661C336.824 239.475 337.048 239.273 337.162 239.054C337.276 238.827 337.276 238.604 337.162 238.386C337.056 238.163 336.852 237.968 336.551 237.8L334.839 236.845C334.554 236.686 334.203 236.618 333.787 236.64C333.372 236.654 332.98 236.763 332.614 236.968C332.271 237.159 332.059 237.381 331.978 237.636C331.896 237.881 331.945 238.122 332.125 238.359L330.181 238.734C329.96 238.466 329.863 238.184 329.887 237.888C329.912 237.584 330.042 237.284 330.278 236.988C330.515 236.693 330.857 236.42 331.305 236.17C331.852 235.865 332.434 235.654 333.054 235.536C333.665 235.413 334.264 235.388 334.851 235.461C335.438 235.524 335.968 235.688 336.441 235.952L340.867 238.42L339.351 239.266L338.214 238.632L338.531 238.427C338.646 238.682 338.682 238.929 338.641 239.17C338.593 239.407 338.47 239.639 338.275 239.866C338.071 240.089 337.786 240.302 337.419 240.507ZM342.347 237.595L335.696 233.885L337.2 233.046L338.74 233.905L338.312 233.857C337.954 233.521 337.84 233.185 337.97 232.848C338.1 232.512 338.414 232.205 338.911 231.928C339.458 231.623 340.081 231.434 340.782 231.361C341.483 231.289 342.127 231.348 342.714 231.539L342.298 231.812C341.972 231.402 341.883 231.011 342.029 230.639C342.168 230.261 342.502 229.925 343.032 229.629C343.505 229.366 344.03 229.191 344.609 229.104C345.196 229.013 345.787 229.016 346.382 229.111C346.969 229.202 347.511 229.386 348.008 229.663L352.288 232.05L350.686 232.944L346.785 230.768C346.492 230.605 346.186 230.493 345.868 230.434C345.551 230.375 345.241 230.366 344.939 230.407C344.629 230.443 344.34 230.536 344.071 230.686C343.818 230.827 343.655 230.986 343.582 231.164C343.501 231.336 343.513 231.512 343.619 231.689C343.725 231.866 343.924 232.037 344.218 232.2L348.118 234.376L346.516 235.269L342.616 233.094C342.323 232.93 342.017 232.819 341.699 232.759C341.381 232.7 341.067 232.694 340.758 232.739C340.448 232.775 340.163 232.866 339.902 233.012C339.649 233.153 339.486 233.312 339.413 233.489C339.331 233.662 339.343 233.837 339.449 234.014C339.555 234.192 339.755 234.362 340.049 234.526L343.949 236.701L342.347 237.595Z" fill="#FFFAFA"/>
<mask id="path-62-inside-3_1544_1516" fill="white">
<path d="M102.198 136.493L72.0852 136.559V153.75L140.848 193.86L210.214 153.75V136.257L180.027 136.323L141.259 113.941L102.198 136.493Z"/>
</mask>
<path d="M102.198 136.493L72.0852 136.559V153.75L140.848 193.86L210.214 153.75V136.257L180.027 136.323L141.259 113.941L102.198 136.493Z" fill="white"/>
<path d="M102.198 136.493L102.448 136.926L102.332 136.993L102.199 136.993L102.198 136.493ZM72.0852 136.559H71.5852V136.06L72.0841 136.059L72.0852 136.559ZM72.0852 153.75L71.8333 154.182L71.5852 154.037V153.75H72.0852ZM140.848 193.86L141.098 194.293L140.847 194.438L140.596 194.292L140.848 193.86ZM210.214 153.75H210.714V154.038L210.464 154.183L210.214 153.75ZM210.214 136.257L210.213 135.757L210.714 135.756V136.257H210.214ZM180.027 136.323L180.028 136.823L179.893 136.823L179.777 136.756L180.027 136.323ZM141.259 113.941L141.009 113.508L141.259 113.364L141.509 113.508L141.259 113.941ZM102.198 136.493L102.199 136.993L72.0863 137.059L72.0852 136.559L72.0841 136.059L102.196 135.993L102.198 136.493ZM72.0852 136.559H72.5852V153.75H72.0852H71.5852V136.559H72.0852ZM72.0852 153.75L72.3371 153.318L141.1 193.428L140.848 193.86L140.596 194.292L71.8333 154.182L72.0852 153.75ZM140.848 193.86L140.598 193.427L209.964 153.317L210.214 153.75L210.464 154.183L141.098 194.293L140.848 193.86ZM210.214 153.75H209.714V136.257H210.214H210.714V153.75H210.214ZM210.214 136.257L210.215 136.757L180.028 136.823L180.027 136.323L180.026 135.823L210.213 135.757L210.214 136.257ZM180.027 136.323L179.777 136.756L141.009 114.374L141.259 113.941L141.509 113.508L180.277 135.89L180.027 136.323ZM141.259 113.941L141.509 114.374L102.448 136.926L102.198 136.493L101.948 136.06L141.009 113.508L141.259 113.941Z" fill="#0E3572" mask="url(#path-62-inside-3_1544_1516)"/>
<path d="M72.5145 136.558L141.257 175.817L209.777 136.258L141.257 96.699L72.5145 136.558Z" fill="white"/>
<path d="M72.5145 136.558L141.257 175.817L209.777 136.258L141.257 96.699L72.5145 136.558Z" fill="#0E3572" fill-opacity="0.2"/>
<path d="M72.5145 136.558L141.257 175.817L209.777 136.258L141.257 96.699L72.5145 136.558Z" stroke="#0E3572" stroke-width="0.5"/>
<g clip-path="url(#clip1_1544_1516)">
<path d="M141.155 137.833L131.131 139.387L133.806 133.635L143.83 132.081L141.155 137.833Z" stroke="#0E3572" stroke-miterlimit="10" stroke-linecap="round" stroke-linejoin="round"/>
<path d="M148.454 142.046L138.429 143.6L131.131 139.387L141.155 137.833M148.454 142.046L141.155 137.833M148.454 142.046L151.128 136.295L143.83 132.081L141.155 137.833" stroke="#0E3572" stroke-miterlimit="10" stroke-linecap="round" stroke-linejoin="round"/>
<path d="M157.455 128.415C158.576 129.063 158.575 130.113 157.453 130.761C156.33 131.409 154.512 131.409 153.391 130.762C152.27 130.115 152.271 129.065 153.393 128.417C154.516 127.769 156.334 127.768 157.455 128.415Z" stroke="#0E3572" stroke-miterlimit="10" stroke-linecap="round" stroke-linejoin="round"/>
<path d="M167.604 134.275C168.725 134.922 168.724 135.972 167.602 136.62C166.479 137.268 164.661 137.269 163.54 136.621C162.419 135.974 162.42 134.924 163.542 134.276C164.664 133.628 166.483 133.628 167.604 134.275Z" stroke="#0E3572" stroke-miterlimit="10" stroke-linecap="round" stroke-linejoin="round"/>
<path d="M147.307 122.556C148.427 123.203 148.426 124.253 147.304 124.901C146.182 125.549 144.363 125.55 143.242 124.903C142.121 124.255 142.122 123.205 143.245 122.557C144.367 121.909 146.186 121.909 147.307 122.556Z" stroke="#0E3572" stroke-miterlimit="10" stroke-linecap="round" stroke-linejoin="round"/>
<path d="M153.391 130.762L147.468 134.182" stroke="#0E3572" stroke-miterlimit="10" stroke-linecap="round" stroke-linejoin="round"/>
<path d="M143.242 124.903L137.996 127.931L137.991 132.954" stroke="#0E3572" stroke-miterlimit="10" stroke-linecap="round" stroke-linejoin="round"/>
<path d="M163.54 136.621L158.294 139.65L149.594 139.653" stroke="#0E3572" stroke-miterlimit="10" stroke-linecap="round" stroke-linejoin="round"/>
<path d="M124.844 147.243C125.965 147.891 127.784 147.89 128.906 147.242C130.028 146.594 130.029 145.544 128.908 144.897C127.788 144.25 125.969 144.25 124.847 144.898C123.724 145.546 123.723 146.596 124.844 147.243Z" stroke="#0E3572" stroke-miterlimit="10" stroke-linecap="round" stroke-linejoin="round"/>
<path d="M134.993 153.103C136.114 153.75 137.933 153.749 139.055 153.101C140.177 152.454 140.178 151.404 139.057 150.756C137.936 150.109 136.118 150.11 134.995 150.758C133.873 151.406 133.872 152.456 134.993 153.103Z" stroke="#0E3572" stroke-miterlimit="10" stroke-linecap="round" stroke-linejoin="round"/>
<path d="M114.695 141.384C115.816 142.031 117.635 142.031 118.757 141.383C119.88 140.735 119.881 139.685 118.76 139.038C117.639 138.39 115.82 138.391 114.698 139.039C113.575 139.687 113.574 140.737 114.695 141.384Z" stroke="#0E3572" stroke-miterlimit="10" stroke-linecap="round" stroke-linejoin="round"/>
<path d="M128.909 144.897L134.831 141.477" stroke="#0E3572" stroke-miterlimit="10" stroke-linecap="round" stroke-linejoin="round"/>
<path d="M118.76 139.037L124.006 136.009L132.705 136.006" stroke="#0E3572" stroke-miterlimit="10" stroke-linecap="round" stroke-linejoin="round"/>
<path d="M139.057 150.756L144.303 147.727L144.309 142.705" stroke="#0E3572" stroke-miterlimit="10" stroke-linecap="round" stroke-linejoin="round"/>
</g>
<path d="M74.9249 180.539L87.1341 177.158L88.9043 178.18L83.0482 185.229L81.5205 184.347L82.8542 182.779L79.1805 180.658L76.4526 181.421L74.9249 180.539ZM80.8658 180.161L83.6908 181.792L86.8189 178.138L87.219 178.369L80.8658 180.161ZM84.1198 185.847L93.1524 180.632L94.5831 181.458L85.5505 186.673L84.1198 185.847ZM40.1504 178.462L49.1831 173.247L55.1361 176.684L53.8631 177.419L49.3407 174.808L46.7461 176.306L51.026 178.777L49.7529 179.512L45.473 177.041L42.8541 178.553L47.3765 181.164L46.1035 181.899L40.1504 178.462ZM47.2988 182.589L53.858 178.802L55.1675 179.558L53.8823 180.3L53.8944 180.111C54.4683 179.966 55.0381 179.936 55.6039 180.02C56.1778 180.099 56.6992 180.274 57.168 180.545C57.653 180.825 57.9763 181.133 58.1379 181.469C58.2996 181.805 58.2996 182.141 58.1379 182.477C57.9763 182.813 57.653 183.121 57.168 183.401L52.9366 185.844L51.5787 185.06L55.4463 182.827C55.7777 182.635 55.996 182.439 56.101 182.239C56.2142 182.033 56.2182 181.83 56.1132 181.63C56.0243 181.429 55.8383 181.247 55.5554 181.084C55.2725 180.92 54.9533 180.811 54.5976 180.755C54.2581 180.699 53.9106 180.703 53.5549 180.769C53.1993 180.834 52.8598 180.96 52.5365 181.147L48.6688 183.38L47.2988 182.589ZM54.9 190.057C54.4231 189.782 54.0593 189.483 53.8088 189.161C53.5582 188.839 53.4248 188.515 53.4087 188.188C53.3844 187.866 53.4814 187.558 53.6997 187.264L55.4819 187.691C55.288 187.934 55.2395 188.2 55.3364 188.489C55.4415 188.783 55.7163 189.059 56.1609 189.315C56.5085 189.516 56.8884 189.656 57.3006 189.735C57.7047 189.819 58.117 189.833 58.5373 189.777C58.9495 189.726 59.3334 189.598 59.6891 189.392L61.1683 188.538L61.1319 188.839C60.4853 188.951 59.8507 188.954 59.2284 188.846C58.6141 188.744 58.0563 188.548 57.5552 188.258C56.949 187.908 56.5448 187.512 56.3428 187.068C56.1407 186.625 56.1447 186.179 56.3549 185.731C56.5731 185.288 56.9894 184.889 57.6037 184.534C58.2261 184.175 58.9172 183.935 59.677 183.813C60.4448 183.697 61.2087 183.694 61.9685 183.806C62.7283 183.918 63.4153 184.152 64.0296 184.506C64.5308 184.796 64.8662 185.115 65.0359 185.465C65.2218 185.815 65.238 186.179 65.0844 186.557L64.5631 186.648L66.0059 185.815L67.3032 186.564L61.047 190.176C60.4812 190.503 59.8386 190.715 59.1192 190.813C58.3999 190.921 57.6724 190.911 56.9369 190.785C56.2013 190.659 55.5224 190.417 54.9 190.057ZM58.9859 187.614C59.3496 187.824 59.7578 187.962 60.2104 188.027C60.6712 188.088 61.1278 188.081 61.5805 188.006C62.0493 187.932 62.4696 187.787 62.8414 187.572C63.2132 187.358 63.4638 187.115 63.5931 186.844C63.7225 186.574 63.7305 186.308 63.6174 186.046C63.5123 185.78 63.2819 185.545 62.9263 185.339C62.5545 185.125 62.1342 184.985 61.6654 184.919C61.2046 184.849 60.7399 184.852 60.2711 184.926C59.8184 185.001 59.4021 185.148 59.0223 185.367C58.6585 185.577 58.408 185.815 58.2705 186.081C58.1412 186.352 58.1331 186.623 58.2463 186.893C58.3675 187.159 58.6141 187.4 58.9859 187.614ZM62.3476 191.277L68.9069 187.49L70.277 188.281L63.7177 192.068L62.3476 191.277ZM69.8041 186.972L71.3803 186.062L72.7503 186.853L71.1742 187.763L69.8041 186.972ZM65.3195 192.993L71.8788 189.206L73.1882 189.962L71.9031 190.704L71.9152 190.515C72.4891 190.37 73.0589 190.34 73.6247 190.424C74.1986 190.503 74.7199 190.678 75.1888 190.949C75.6737 191.229 75.997 191.537 76.1587 191.873C76.3204 192.209 76.3204 192.545 76.1587 192.881C75.997 193.217 75.6737 193.525 75.1888 193.805L70.9574 196.248L69.5994 195.464L73.4671 193.231C73.7985 193.04 74.0167 192.844 74.1218 192.643C74.235 192.438 74.239 192.235 74.1339 192.034C74.045 191.833 73.8591 191.651 73.5762 191.488C73.2933 191.325 72.974 191.215 72.6184 191.159C72.2789 191.103 71.9313 191.108 71.5757 191.173C71.22 191.238 70.8806 191.364 70.5573 191.551L66.6896 193.784L65.3195 192.993ZM75.3577 198.957C74.703 198.579 74.2706 198.156 74.0604 197.69C73.8664 197.223 73.8866 196.759 74.1211 196.297C74.3635 195.83 74.8081 195.41 75.4547 195.037C76.1175 194.654 76.845 194.397 77.6371 194.267C78.4373 194.141 79.2254 194.134 80.0014 194.246C80.7854 194.353 81.4846 194.584 82.0989 194.939C82.5919 195.223 82.9476 195.527 83.1658 195.849C83.3841 196.171 83.477 196.495 83.4447 196.822C83.4204 197.144 83.2871 197.454 83.0446 197.753C82.8102 198.056 82.4788 198.331 82.0504 198.579C81.9453 198.639 81.8321 198.7 81.7109 198.761C81.5897 198.821 81.4684 198.873 81.3472 198.915L76.1216 195.898L77.2128 195.268L81.6624 197.837L80.5106 197.746C80.9875 197.564 81.3108 197.344 81.4805 197.088C81.6664 196.831 81.7109 196.572 81.6139 196.311C81.5331 196.049 81.3108 195.814 80.9471 195.604C80.5833 195.394 80.1671 195.261 79.6983 195.205C79.2375 195.144 78.7606 195.167 78.2676 195.275C77.7826 195.377 77.3178 195.576 76.8733 195.87C76.3883 196.103 76.0609 196.362 75.8912 196.647C75.7295 196.936 75.7053 197.221 75.8185 197.501C75.9397 197.785 76.1943 198.04 76.5823 198.264C76.9784 198.492 77.4027 198.635 77.8554 198.691C78.3161 198.751 78.7687 198.747 79.2133 198.677L79.7831 199.636C79.3466 199.738 78.8657 199.783 78.3403 199.769C77.8311 199.755 77.3138 199.68 76.7884 199.545C76.2792 199.409 75.8023 199.213 75.3577 198.957ZM82.7934 203.25C82.1387 202.872 81.7062 202.449 81.4961 201.983C81.3021 201.516 81.3223 201.052 81.5567 200.59C81.7992 200.123 82.2437 199.703 82.8904 199.33C83.5532 198.947 84.2806 198.69 85.0728 198.56C85.873 198.434 86.661 198.427 87.437 198.539C88.221 198.646 88.9202 198.877 89.5345 199.232C90.0276 199.516 90.3832 199.82 90.6015 200.142C90.8197 200.464 90.9127 200.788 90.8803 201.115C90.8561 201.437 90.7227 201.747 90.4802 202.046C90.2458 202.349 89.9144 202.624 89.486 202.872C89.3809 202.932 89.2678 202.993 89.1465 203.054C89.0253 203.114 88.9041 203.166 88.7828 203.208L83.5572 200.191L84.6484 199.561L89.098 202.13L87.9462 202.039C88.4231 201.857 88.7464 201.637 88.9162 201.381C89.1021 201.124 89.1465 200.865 89.0495 200.604C88.9687 200.342 88.7464 200.107 88.3827 199.897C88.019 199.687 87.6027 199.554 87.1339 199.498C86.6732 199.437 86.1963 199.46 85.7032 199.568C85.2182 199.67 84.7535 199.869 84.3089 200.163C83.8239 200.396 83.4966 200.655 83.3268 200.94C83.1652 201.229 83.1409 201.514 83.2541 201.794C83.3753 202.078 83.63 202.333 84.0179 202.557C84.414 202.785 84.8384 202.928 85.291 202.984C85.7517 203.044 86.2044 203.04 86.6489 202.97L87.2188 203.929C86.7823 204.031 86.3014 204.076 85.776 204.062C85.2667 204.048 84.7494 203.973 84.224 203.838C83.7148 203.702 83.2379 203.506 82.7934 203.25ZM87.2949 205.681L93.8542 201.894L95.1636 202.65L93.8421 203.413L93.9148 203.231C94.4887 203.067 95.0303 203.025 95.5395 203.105C96.0568 203.179 96.5418 203.347 96.9944 203.609L97.3945 203.84L96.1457 204.561L95.5759 204.232C95.1232 203.97 94.614 203.84 94.0482 203.84C93.4986 203.84 92.9651 203.989 92.4478 204.288L88.665 206.472L87.2949 205.681Z" fill="#0E3572"/>
<path d="M172.723 164.926L185.015 157.837L184.948 161.342L172.723 168.4V164.926Z" fill="#0E3572"/>
<path d="M259.884 220.324L178.869 173.55V163.115" stroke="#0E3572"/>
<path d="M368.295 295.115L380.586 288.026L380.52 291.53L368.295 298.589V295.115Z" fill="#0E3572"/>
<path d="M483.55 349.812L392.003 297.073L375.087 293.291" stroke="#0E3572"/>
<mask id="path-84-inside-4_1544_1516" fill="white">
<path d="M493.397 361.289L463.285 361.356V378.546L532.047 418.657L601.414 378.546V361.054L571.226 361.12L532.458 338.738L493.397 361.289Z"/>
</mask>
<path d="M493.397 361.289L463.285 361.356V378.546L532.047 418.657L601.414 378.546V361.054L571.226 361.12L532.458 338.738L493.397 361.289Z" fill="white"/>
<path d="M493.397 361.289L493.647 361.722L493.531 361.789L493.398 361.789L493.397 361.289ZM463.285 361.356H462.785V360.857L463.284 360.856L463.285 361.356ZM463.285 378.546L463.033 378.978L462.785 378.833V378.546H463.285ZM532.047 418.657L532.298 419.089L532.046 419.235L531.795 419.089L532.047 418.657ZM601.414 378.546H601.914V378.835L601.664 378.979L601.414 378.546ZM601.414 361.054L601.412 360.554L601.914 360.553V361.054H601.414ZM571.226 361.12L571.227 361.62L571.093 361.62L570.976 361.553L571.226 361.12ZM532.458 338.738L532.208 338.305L532.458 338.16L532.708 338.305L532.458 338.738ZM493.397 361.289L493.398 361.789L463.286 361.856L463.285 361.356L463.284 360.856L493.396 360.789L493.397 361.289ZM463.285 361.356H463.785V378.546H463.285H462.785V361.356H463.285ZM463.285 378.546L463.537 378.114L532.299 418.225L532.047 418.657L531.795 419.089L463.033 378.978L463.285 378.546ZM532.047 418.657L531.797 418.224L601.163 378.113L601.414 378.546L601.664 378.979L532.298 419.089L532.047 418.657ZM601.414 378.546H600.914V361.054H601.414H601.914V378.546H601.414ZM601.414 361.054L601.415 361.554L571.227 361.62L571.226 361.12L571.225 360.62L601.412 360.554L601.414 361.054ZM571.226 361.12L570.976 361.553L532.209 339.171L532.458 338.738L532.708 338.305L571.476 360.687L571.226 361.12ZM532.458 338.738L532.708 339.171L493.647 361.722L493.397 361.289L493.147 360.856L532.208 338.305L532.458 338.738Z" fill="#0E3572" mask="url(#path-84-inside-4_1544_1516)"/>
<path d="M463.714 361.355L532.456 400.614L600.977 361.055L532.456 321.496L463.714 361.355Z" fill="white"/>
<path d="M463.714 361.355L532.456 400.614L600.977 361.055L532.456 321.496L463.714 361.355Z" fill="#0E3572" fill-opacity="0.2"/>
<path d="M463.714 361.355L532.456 400.614L600.977 361.055L532.456 321.496L463.714 361.355Z" stroke="#0E3572" stroke-width="0.5"/>
<g clip-path="url(#clip2_1544_1516)">
<path d="M535.414 354.779L523.664 354.779L523.664 360.904" stroke="#0E3572" stroke-miterlimit="10" stroke-linecap="round" stroke-linejoin="round"/>
<path d="M535.169 367.546L546.919 367.546L546.919 361.421" stroke="#0E3572" stroke-miterlimit="10" stroke-linecap="round" stroke-linejoin="round"/>
<path d="M524.992 363.989L545.555 358.314" stroke="#0E3572" stroke-miterlimit="10" stroke-linecap="round" stroke-linejoin="round"/>
<path d="M534.531 347.262C532.384 346.023 528.902 346.023 526.755 347.262L511.216 356.234C509.069 357.473 509.069 359.483 511.216 360.723L536.052 375.062C538.199 376.302 541.68 376.302 543.827 375.062L559.366 366.09C561.514 364.851 561.514 362.841 559.366 361.601L534.531 347.262Z" stroke="#0E3572" stroke-miterlimit="10" stroke-linecap="round" stroke-linejoin="round"/>
</g>
<path d="M452.359 395.244L461.391 390.029L467.272 393.424L465.999 394.159L461.549 391.59L458.833 393.158L462.798 395.447L461.525 396.182L457.56 393.893L453.789 396.07L452.359 395.244ZM458.939 399.043L465.498 395.256L466.807 396.012L465.486 396.775L465.559 396.593C466.132 396.43 466.674 396.388 467.183 396.467C467.701 396.542 468.186 396.71 468.638 396.971L469.038 397.202L467.789 397.923L467.22 397.594C466.767 397.333 466.258 397.202 465.692 397.202C465.142 397.202 464.609 397.351 464.092 397.65L460.309 399.834L458.939 399.043ZM466.35 403.49C465.72 403.126 465.292 402.706 465.065 402.23C464.847 401.759 464.843 401.285 465.053 400.809C465.263 400.333 465.696 399.906 466.35 399.528C467.013 399.145 467.753 398.896 468.569 398.779C469.394 398.658 470.21 398.662 471.018 398.793C471.835 398.919 472.562 399.166 473.201 399.535C473.847 399.908 474.276 400.328 474.486 400.795C474.712 401.262 474.716 401.731 474.498 402.202C474.296 402.673 473.863 403.1 473.201 403.483C472.538 403.866 471.794 404.118 470.97 404.239C470.145 404.36 469.325 404.358 468.509 404.232C467.7 404.101 466.981 403.854 466.35 403.49ZM467.623 402.755C468.011 402.979 468.448 403.124 468.933 403.189C469.418 403.254 469.907 403.243 470.4 403.154C470.909 403.065 471.37 402.902 471.782 402.664C472.194 402.426 472.473 402.162 472.619 401.873C472.772 401.588 472.792 401.306 472.679 401.026C472.566 400.746 472.316 400.494 471.928 400.27C471.548 400.051 471.111 399.906 470.618 399.836C470.133 399.771 469.64 399.78 469.139 399.864C468.646 399.953 468.193 400.116 467.781 400.354C467.369 400.592 467.082 400.856 466.92 401.145C466.775 401.434 466.759 401.719 466.872 401.999C466.993 402.284 467.244 402.536 467.623 402.755ZM471.252 406.152L477.812 402.365L479.121 403.121L477.836 403.863L477.848 403.674C478.422 403.53 478.992 403.499 479.558 403.583C480.132 403.663 480.653 403.838 481.122 404.108C481.607 404.388 481.93 404.696 482.092 405.032C482.253 405.368 482.253 405.704 482.092 406.04C481.93 406.376 481.607 406.684 481.122 406.964L476.89 409.407L475.532 408.623L479.4 406.39C479.731 406.199 479.95 406.003 480.055 405.802C480.168 405.597 480.172 405.394 480.067 405.193C479.978 404.993 479.792 404.811 479.509 404.647C479.226 404.484 478.907 404.374 478.551 404.318C478.212 404.262 477.864 404.267 477.509 404.332C477.153 404.398 476.814 404.524 476.49 404.71L472.623 406.943L471.252 406.152ZM481.121 411.934C480.434 411.537 480.094 411.117 480.103 410.674C480.111 410.231 480.466 409.806 481.169 409.4L484.346 407.566L483.194 406.901L484.431 406.187L484.613 406.292C484.92 406.469 485.247 406.556 485.595 406.551C485.942 406.546 486.27 406.455 486.577 406.278L487.086 405.984L488.456 406.775L486.953 407.643L488.444 408.504L487.207 409.218L485.716 408.357L482.6 410.156C482.374 410.287 482.216 410.42 482.127 410.555C482.046 410.686 482.042 410.823 482.115 410.968C482.196 411.108 482.366 411.253 482.624 411.402C482.689 411.439 482.766 411.479 482.855 411.521C482.944 411.563 483.029 411.603 483.109 411.64L481.933 412.319C481.804 412.263 481.663 412.2 481.509 412.13C481.355 412.06 481.226 411.995 481.121 411.934ZM486.086 414.884C485.431 414.506 484.999 414.084 484.789 413.617C484.595 413.151 484.615 412.686 484.849 412.224C485.092 411.758 485.536 411.338 486.183 410.964C486.846 410.582 487.573 410.325 488.365 410.194C489.166 410.068 489.954 410.061 490.73 410.173C491.514 410.281 492.213 410.512 492.827 410.866C493.32 411.151 493.676 411.454 493.894 411.776C494.112 412.098 494.205 412.423 494.173 412.749C494.149 413.071 494.015 413.382 493.773 413.68C493.538 413.984 493.207 414.259 492.779 414.506C492.674 414.567 492.56 414.628 492.439 414.688C492.318 414.749 492.197 414.8 492.075 414.842L486.85 411.825L487.941 411.195L492.391 413.764L491.239 413.673C491.716 413.491 492.039 413.272 492.209 413.015C492.395 412.759 492.439 412.5 492.342 412.238C492.261 411.977 492.039 411.741 491.675 411.531C491.312 411.321 490.895 411.188 490.426 411.132C489.966 411.072 489.489 411.095 488.996 411.202C488.511 411.305 488.046 411.503 487.602 411.797C487.117 412.031 486.789 412.29 486.619 412.574C486.458 412.864 486.434 413.148 486.547 413.428C486.668 413.713 486.923 413.967 487.311 414.191C487.707 414.42 488.131 414.562 488.584 414.618C489.044 414.679 489.497 414.674 489.942 414.604L490.511 415.563C490.075 415.666 489.594 415.71 489.069 415.696C488.559 415.682 488.042 415.608 487.517 415.472C487.007 415.337 486.531 415.141 486.086 414.884ZM490.588 417.315L497.147 413.528L498.456 414.284L497.171 415.026L497.183 414.837C497.757 414.693 498.327 414.662 498.893 414.746C499.467 414.826 499.988 415.001 500.457 415.271C500.942 415.551 501.265 415.859 501.427 416.195C501.588 416.531 501.588 416.867 501.427 417.203C501.265 417.539 500.942 417.847 500.457 418.127L496.225 420.57L494.867 419.786L498.735 417.553C499.066 417.362 499.285 417.166 499.39 416.965C499.503 416.76 499.507 416.557 499.402 416.356C499.313 416.156 499.127 415.974 498.844 415.81C498.561 415.647 498.242 415.537 497.886 415.481C497.547 415.425 497.199 415.43 496.844 415.495C496.488 415.561 496.149 415.687 495.825 415.873L491.958 418.106L490.588 417.315ZM500.577 423.251C499.947 422.887 499.53 422.474 499.328 422.012C499.143 421.55 499.163 421.086 499.389 420.619C499.623 420.157 500.064 419.739 500.711 419.366C501.357 418.993 502.085 418.741 502.893 418.61C503.701 418.479 504.501 418.47 505.294 418.582C506.086 418.694 506.793 418.93 507.415 419.289C507.941 419.592 508.3 419.921 508.494 420.276C508.688 420.631 508.717 420.983 508.579 421.333L508.058 421.396L512.035 419.1L513.393 419.884L504.215 425.183L502.917 424.434L504.251 423.664L504.154 423.902C503.532 424 502.905 423.988 502.275 423.867C501.644 423.746 501.078 423.54 500.577 423.251ZM501.984 422.593C502.364 422.812 502.796 422.955 503.281 423.02C503.774 423.09 504.267 423.081 504.76 422.992C505.269 422.903 505.73 422.74 506.142 422.502C506.555 422.264 506.833 422 506.979 421.711C507.132 421.426 507.149 421.142 507.027 420.857C506.914 420.577 506.668 420.327 506.288 420.108C505.908 419.889 505.471 419.744 504.978 419.674C504.485 419.604 503.992 419.613 503.499 419.702C503.006 419.791 502.554 419.954 502.141 420.192C501.729 420.43 501.442 420.694 501.28 420.983C501.127 421.268 501.107 421.55 501.22 421.83C501.341 422.115 501.596 422.369 501.984 422.593ZM437.729 404.798L446.762 399.583L452.715 403.02L451.442 403.755L446.92 401.144L444.325 402.642L448.605 405.113L447.332 405.848L443.052 403.377L440.433 404.889L444.955 407.5L443.682 408.235L437.729 404.798ZM444.878 408.925L451.437 405.138L452.746 405.894L451.461 406.636L451.473 406.447C452.047 406.302 452.617 406.272 453.183 406.356C453.757 406.435 454.278 406.61 454.747 406.881C455.232 407.161 455.555 407.469 455.717 407.805C455.878 408.141 455.878 408.477 455.717 408.813C455.555 409.149 455.232 409.457 454.747 409.737L450.515 412.18L449.158 411.396L453.025 409.163C453.357 408.971 453.575 408.775 453.68 408.575C453.793 408.369 453.797 408.166 453.692 407.966C453.603 407.765 453.417 407.583 453.134 407.42C452.851 407.256 452.532 407.147 452.176 407.091C451.837 407.035 451.489 407.039 451.134 407.105C450.778 407.17 450.439 407.296 450.115 407.483L446.248 409.716L444.878 408.925ZM452.479 416.393C452.002 416.118 451.638 415.819 451.388 415.497C451.137 415.175 451.004 414.851 450.988 414.524C450.963 414.202 451.06 413.894 451.279 413.6L453.061 414.027C452.867 414.27 452.818 414.536 452.915 414.825C453.02 415.119 453.295 415.395 453.74 415.651C454.087 415.852 454.467 415.992 454.879 416.071C455.284 416.155 455.696 416.169 456.116 416.113C456.528 416.062 456.912 415.934 457.268 415.728L458.747 414.874L458.711 415.175C458.064 415.287 457.43 415.29 456.807 415.182C456.193 415.08 455.635 414.884 455.134 414.594C454.528 414.244 454.124 413.848 453.922 413.404C453.72 412.961 453.724 412.515 453.934 412.067C454.152 411.624 454.568 411.225 455.183 410.87C455.805 410.511 456.496 410.271 457.256 410.149C458.024 410.033 458.788 410.03 459.547 410.142C460.307 410.254 460.994 410.488 461.608 410.842C462.11 411.132 462.445 411.451 462.615 411.801C462.801 412.151 462.817 412.515 462.663 412.893L462.142 412.984L463.585 412.151L464.882 412.9L458.626 416.512C458.06 416.839 457.417 417.051 456.698 417.149C455.979 417.257 455.251 417.247 454.516 417.121C453.78 416.995 453.101 416.753 452.479 416.393ZM456.565 413.95C456.928 414.16 457.337 414.298 457.789 414.363C458.25 414.424 458.707 414.417 459.159 414.342C459.628 414.268 460.048 414.123 460.42 413.908C460.792 413.694 461.043 413.451 461.172 413.18C461.301 412.91 461.309 412.644 461.196 412.382C461.091 412.116 460.861 411.881 460.505 411.675C460.133 411.461 459.713 411.321 459.244 411.255C458.784 411.185 458.319 411.188 457.85 411.262C457.397 411.337 456.981 411.484 456.601 411.703C456.237 411.913 455.987 412.151 455.849 412.417C455.72 412.688 455.712 412.959 455.825 413.229C455.946 413.495 456.193 413.736 456.565 413.95ZM459.927 417.613L466.486 413.826L467.856 414.617L461.297 418.404L459.927 417.613ZM467.383 413.308L468.959 412.398L470.329 413.189L468.753 414.099L467.383 413.308ZM462.898 419.329L469.458 415.542L470.767 416.298L469.482 417.04L469.494 416.851C470.068 416.706 470.638 416.676 471.204 416.76C471.777 416.839 472.299 417.014 472.768 417.285C473.253 417.565 473.576 417.873 473.738 418.209C473.899 418.545 473.899 418.881 473.738 419.217C473.576 419.553 473.253 419.861 472.768 420.141L468.536 422.584L467.178 421.8L471.046 419.567C471.377 419.376 471.596 419.18 471.701 418.979C471.814 418.774 471.818 418.571 471.713 418.37C471.624 418.169 471.438 417.987 471.155 417.824C470.872 417.661 470.553 417.551 470.197 417.495C469.858 417.439 469.51 417.444 469.155 417.509C468.799 417.574 468.459 417.7 468.136 417.887L464.268 420.12L462.898 419.329ZM472.937 425.293C472.282 424.915 471.849 424.492 471.639 424.026C471.445 423.559 471.466 423.095 471.7 422.633C471.942 422.166 472.387 421.746 473.034 421.373C473.696 420.99 474.424 420.733 475.216 420.603C476.016 420.477 476.804 420.47 477.58 420.582C478.364 420.689 479.063 420.92 479.678 421.275C480.171 421.559 480.526 421.863 480.745 422.185C480.963 422.507 481.056 422.831 481.024 423.158C480.999 423.48 480.866 423.79 480.623 424.089C480.389 424.392 480.058 424.667 479.629 424.915C479.524 424.975 479.411 425.036 479.29 425.097C479.169 425.157 479.047 425.209 478.926 425.251L473.7 422.234L474.792 421.604L479.241 424.173L478.089 424.082C478.566 423.9 478.89 423.68 479.059 423.424C479.245 423.167 479.29 422.908 479.193 422.647C479.112 422.385 478.89 422.15 478.526 421.94C478.162 421.73 477.746 421.597 477.277 421.541C476.816 421.48 476.34 421.503 475.846 421.611C475.361 421.713 474.897 421.912 474.452 422.206C473.967 422.439 473.64 422.698 473.47 422.983C473.308 423.272 473.284 423.557 473.397 423.837C473.519 424.121 473.773 424.376 474.161 424.6C474.557 424.828 474.982 424.971 475.434 425.027C475.895 425.087 476.348 425.083 476.792 425.013L477.362 425.972C476.926 426.074 476.445 426.119 475.919 426.105C475.41 426.091 474.893 426.016 474.367 425.881C473.858 425.745 473.381 425.549 472.937 425.293ZM480.372 429.586C479.718 429.208 479.285 428.785 479.075 428.319C478.881 427.852 478.901 427.388 479.136 426.926C479.378 426.459 479.823 426.039 480.469 425.666C481.132 425.283 481.859 425.026 482.652 424.896C483.452 424.77 484.24 424.763 485.016 424.875C485.8 424.982 486.499 425.213 487.113 425.568C487.606 425.852 487.962 426.156 488.18 426.478C488.399 426.8 488.492 427.124 488.459 427.451C488.435 427.773 488.302 428.083 488.059 428.382C487.825 428.685 487.493 428.96 487.065 429.208C486.96 429.268 486.847 429.329 486.725 429.39C486.604 429.45 486.483 429.502 486.362 429.544L481.136 426.527L482.227 425.897L486.677 428.466L485.525 428.375C486.002 428.193 486.325 427.973 486.495 427.717C486.681 427.46 486.725 427.201 486.628 426.94C486.548 426.678 486.325 426.443 485.962 426.233C485.598 426.023 485.182 425.89 484.713 425.834C484.252 425.773 483.775 425.796 483.282 425.904C482.797 426.006 482.332 426.205 481.888 426.499C481.403 426.732 481.075 426.991 480.906 427.276C480.744 427.565 480.72 427.85 480.833 428.13C480.954 428.414 481.209 428.669 481.597 428.893C481.993 429.121 482.417 429.264 482.87 429.32C483.331 429.38 483.783 429.376 484.228 429.306L484.798 430.265C484.361 430.367 483.88 430.412 483.355 430.398C482.846 430.384 482.328 430.309 481.803 430.174C481.294 430.038 480.817 429.842 480.372 429.586ZM484.874 432.017L491.433 428.23L492.742 428.986L491.421 429.749L491.494 429.567C492.068 429.403 492.609 429.361 493.118 429.441C493.636 429.515 494.121 429.683 494.573 429.945L494.973 430.176L493.725 430.897L493.155 430.568C492.702 430.306 492.193 430.176 491.627 430.176C491.077 430.176 490.544 430.325 490.027 430.624L486.244 432.808L484.874 432.017Z" fill="#0E3572"/>
<path d="M263.171 286.995L275.463 294.099L275.397 297.527L263.171 290.469V286.995Z" fill="#0E3572"/>
<path d="M164.051 345.218L249.081 295.297L268.281 292.28" stroke="#0E3572"/>
<mask id="path-94-inside-5_1544_1516" fill="white">
<path d="M78.2035 356.449L48.0912 356.515V373.706L116.854 413.816L186.22 373.706V356.213L156.033 356.279L117.265 333.897L78.2035 356.449Z"/>
</mask>
<path d="M78.2035 356.449L48.0912 356.515V373.706L116.854 413.816L186.22 373.706V356.213L156.033 356.279L117.265 333.897L78.2035 356.449Z" fill="white"/>
<path d="M78.2035 356.449L78.4535 356.882L78.338 356.948L78.2046 356.949L78.2035 356.449ZM48.0912 356.515H47.5912V356.016L48.0901 356.015L48.0912 356.515ZM48.0912 373.706L47.8393 374.137L47.5912 373.993V373.706H48.0912ZM116.854 413.816L117.104 414.249L116.853 414.394L116.602 414.248L116.854 413.816ZM186.22 373.706H186.72V373.994L186.47 374.138L186.22 373.706ZM186.22 356.213L186.219 355.713L186.72 355.712V356.213H186.22ZM156.033 356.279L156.034 356.779L155.899 356.779L155.783 356.712L156.033 356.279ZM117.265 333.897L117.015 333.464L117.265 333.32L117.515 333.464L117.265 333.897ZM78.2035 356.449L78.2046 356.949L48.0923 357.015L48.0912 356.515L48.0901 356.015L78.2024 355.949L78.2035 356.449ZM48.0912 356.515H48.5912V373.706H48.0912H47.5912V356.515H48.0912ZM48.0912 373.706L48.3431 373.274L117.106 413.384L116.854 413.816L116.602 414.248L47.8393 374.137L48.0912 373.706ZM116.854 413.816L116.604 413.383L185.97 373.273L186.22 373.706L186.47 374.138L117.104 414.249L116.854 413.816ZM186.22 373.706H185.72V356.213H186.22H186.72V373.706H186.22ZM186.22 356.213L186.221 356.713L156.034 356.779L156.033 356.279L156.032 355.779L186.219 355.713L186.22 356.213ZM156.033 356.279L155.783 356.712L117.015 334.33L117.265 333.897L117.515 333.464L156.283 355.846L156.033 356.279ZM117.265 333.897L117.515 334.33L78.4535 356.882L78.2035 356.449L77.9535 356.016L117.015 333.464L117.265 333.897Z" fill="#0E3572" mask="url(#path-94-inside-5_1544_1516)"/>
<path d="M48.5203 356.514L117.262 395.773L185.783 356.214L117.262 316.655L48.5203 356.514Z" fill="white"/>
<path d="M48.5203 356.514L117.262 395.773L185.783 356.214L117.262 316.655L48.5203 356.514Z" fill="#0E3572" fill-opacity="0.2"/>
<path d="M48.5203 356.514L117.262 395.773L185.783 356.214L117.262 316.655L48.5203 356.514Z" stroke="#0E3572" stroke-width="0.5"/>
<path d="M102.89 351.784L125.308 364.727M109.683 371.395L91.3407 360.805C90.2151 360.155 90.2151 359.101 91.3406 358.451L106.286 349.823C107.412 349.173 109.237 349.173 110.362 349.823L128.705 360.412C129.83 361.062 129.83 362.116 128.705 362.766L113.759 371.395C112.634 372.044 110.809 372.044 109.683 371.395Z" stroke="#0E3572" stroke-miterlimit="10" stroke-linecap="round" stroke-linejoin="round"/>
<path d="M103.077 351.675L102.398 351.283C99.7713 349.767 100.025 347.162 102.964 345.465C105.61 343.938 109.529 343.667 112.2 344.734C115.468 343.35 120.069 343.504 123.005 345.199C124.658 346.153 125.463 347.412 125.426 348.667C129.663 347.293 135.109 347.637 138.695 349.707C143.02 352.204 142.999 356.266 138.647 358.778C138.287 358.987 137.908 359.175 137.515 359.348C139.366 360.891 138.899 363.156 136.251 364.684C133.313 366.38 128.801 366.527 126.175 365.011L125.495 364.619M106.626 357.863L99.4928 357.667L99.8325 361.785M114.778 362.57L115.118 366.688L107.985 366.492M112.061 361.001L102.55 363.354" stroke="#0E3572" stroke-miterlimit="10" stroke-linecap="round" stroke-linejoin="round"/>
<path d="M55.1135 405.162C54.4588 404.784 53.9657 404.364 53.6343 403.902C53.311 403.444 53.1453 402.971 53.1372 402.481C53.1372 401.995 53.2989 401.519 53.6222 401.053C53.9536 400.591 54.4547 400.166 55.1256 399.779C55.7965 399.391 56.5321 399.102 57.3323 398.911C58.1486 398.719 58.9731 398.626 59.8056 398.631C60.6463 398.631 61.4626 398.729 62.2548 398.925C63.055 399.116 63.7824 399.401 64.4371 399.779C65.0999 400.161 65.593 400.581 65.9163 401.039C66.2558 401.496 66.4255 401.967 66.4255 402.453C66.4336 402.943 66.272 403.419 65.9406 403.881C65.6092 404.343 65.108 404.767 64.4371 405.155C63.7663 405.542 63.0267 405.829 62.2184 406.016C61.4182 406.207 60.5978 406.303 59.7571 406.303C58.9165 406.303 58.0961 406.207 57.2959 406.016C56.4957 405.824 55.7682 405.54 55.1135 405.162ZM56.4229 404.406C56.8917 404.676 57.405 404.875 57.9627 405.001C58.5285 405.131 59.1065 405.194 59.6965 405.19C60.2946 405.18 60.8766 405.106 61.4424 404.966C62.0163 404.821 62.5417 404.611 63.0186 404.336C63.4955 404.06 63.8552 403.759 64.0977 403.433C64.3401 403.106 64.4695 402.77 64.4856 402.425C64.5018 402.079 64.3967 401.743 64.1704 401.417C63.9522 401.095 63.6086 400.798 63.1398 400.528C62.671 400.257 62.1537 400.056 61.5879 399.926C61.0302 399.8 60.4523 399.741 59.8541 399.751C59.256 399.76 58.674 399.835 58.1082 399.975C57.5505 400.119 57.0332 400.329 56.5563 400.605C56.0794 400.88 55.7116 401.181 55.453 401.508C55.2105 401.834 55.0812 402.17 55.065 402.516C55.0569 402.856 55.166 403.19 55.3924 403.517C55.6187 403.843 55.9622 404.14 56.4229 404.406ZM56.4351 407.017L58.181 402.593L59.7086 403.475L57.9749 407.906L56.4351 407.017ZM60.3471 408.015L72.5563 404.634L74.3264 405.656L68.4704 412.705L66.9427 411.823L68.2764 410.255L64.6027 408.134L61.8747 408.897L60.3471 408.015ZM66.288 407.637L69.113 409.268L72.2411 405.614L72.6412 405.845L66.288 407.637ZM69.4062 414.926L83.4584 411.489L84.9739 412.364L70.9218 415.801L69.4062 414.926ZM24.6254 405.391L33.658 400.176L36.6163 401.884C37.554 402.426 38.1763 403.004 38.4835 403.62C38.8068 404.236 38.8189 404.85 38.5199 405.461C38.2208 406.073 37.6227 406.637 36.7255 407.155C35.8363 407.669 34.8583 408.014 33.7914 408.191C32.7325 408.364 31.6656 408.359 30.5905 408.177C29.5236 408 28.5213 407.641 27.5837 407.099L24.6254 405.391ZM27.3291 405.482L28.881 406.378C29.5196 406.747 30.2066 406.99 30.9421 407.106C31.6858 407.228 32.4294 407.223 33.173 407.092C33.9167 406.962 34.6199 406.705 35.2827 406.322C35.9455 405.94 36.3819 405.534 36.5921 405.104C36.8184 404.675 36.8305 404.248 36.6285 403.823C36.4264 403.399 36.0061 403.002 35.3675 402.633L33.8156 401.737L27.3291 405.482ZM36.4128 412.365C35.7581 411.987 35.3256 411.565 35.1155 411.098C34.9215 410.631 34.9417 410.167 35.1761 409.705C35.4186 409.238 35.8631 408.818 36.5098 408.445C37.1726 408.062 37.9 407.806 38.6922 407.675C39.4924 407.549 40.2805 407.542 41.0564 407.654C41.8405 407.761 42.5396 407.992 43.1539 408.347C43.647 408.632 44.0026 408.935 44.2209 409.257C44.4391 409.579 44.5321 409.903 44.4997 410.23C44.4755 410.552 44.3421 410.862 44.0996 411.161C43.8652 411.464 43.5338 411.74 43.1054 411.987C43.0004 412.048 42.8872 412.108 42.7659 412.169C42.6447 412.23 42.5235 412.281 42.4022 412.323L37.1766 409.306L38.2678 408.676L42.7174 411.245L41.5656 411.154C42.0425 410.972 42.3658 410.753 42.5356 410.496C42.7215 410.239 42.7659 409.98 42.669 409.719C42.5881 409.458 42.3658 409.222 42.0021 409.012C41.6384 408.802 41.2221 408.669 40.7533 408.613C40.2926 408.552 39.8157 408.576 39.3226 408.683C38.8377 408.786 38.3729 408.984 37.9283 409.278C37.4434 409.511 37.116 409.77 36.9463 410.055C36.7846 410.344 36.7603 410.629 36.8735 410.909C36.9948 411.194 37.2494 411.448 37.6373 411.672C38.0334 411.901 38.4578 412.043 38.9104 412.099C39.3711 412.16 39.8238 412.155 40.2683 412.085L40.8382 413.044C40.4017 413.147 39.9208 413.191 39.3954 413.177C38.8862 413.163 38.3688 413.088 37.8435 412.953C37.3342 412.818 36.8573 412.622 36.4128 412.365ZM42.6995 415.827L46.6884 410.556L48.1797 411.417L44.8091 415.645L44.2635 415.33L51.5866 413.384L53.09 414.252L43.9483 416.548L42.6995 415.827ZM51.8388 421.271C51.1841 420.893 50.6911 420.473 50.3597 420.011C50.0364 419.554 49.8707 419.08 49.8626 418.59C49.8626 418.105 50.0242 417.629 50.3476 417.162C50.679 416.7 51.1801 416.276 51.851 415.888C52.5219 415.501 53.2574 415.212 54.0576 415.02C54.874 414.829 55.6984 414.736 56.531 414.74C57.3716 414.74 58.188 414.838 58.9801 415.034C59.7803 415.226 60.5078 415.51 61.1625 415.888C61.8253 416.271 62.3183 416.691 62.6416 417.148C62.9811 417.606 63.1509 418.077 63.1509 418.562C63.159 419.052 62.9973 419.528 62.6659 419.99C62.3345 420.452 61.8334 420.877 61.1625 421.264C60.4916 421.652 59.752 421.939 58.9437 422.125C58.1435 422.317 57.3231 422.412 56.4825 422.412C55.6419 422.412 54.8214 422.317 54.0212 422.125C53.221 421.934 52.4936 421.649 51.8388 421.271ZM53.1483 420.515C53.6171 420.786 54.1304 420.984 54.6881 421.11C55.2539 421.241 55.8318 421.304 56.4219 421.299C57.02 421.29 57.602 421.215 58.1678 421.075C58.7416 420.931 59.267 420.721 59.7439 420.445C60.2208 420.17 60.5805 419.869 60.823 419.542C61.0655 419.216 61.1948 418.88 61.211 418.534C61.2271 418.189 61.1221 417.853 60.8957 417.526C60.6775 417.204 60.334 416.908 59.8652 416.637C59.3964 416.367 58.8791 416.166 58.3133 416.035C57.7555 415.909 57.1776 415.851 56.5795 415.86C55.9813 415.87 55.3994 415.944 54.8336 416.084C54.2758 416.229 53.7585 416.439 53.2816 416.714C52.8048 416.99 52.437 417.291 52.1783 417.617C51.9358 417.944 51.8065 418.28 51.7904 418.625C51.7823 418.966 51.8914 419.3 52.1177 419.626C52.344 419.953 52.6876 420.249 53.1483 420.515ZM55.6814 426.122L64.6656 420.935L65.975 421.691L64.6171 422.475L64.7747 422.202C65.389 422.127 66.0033 422.146 66.6176 422.258C67.2319 422.37 67.7977 422.575 68.315 422.874C68.9374 423.233 69.3456 423.641 69.5396 424.099C69.7416 424.561 69.7255 425.023 69.4911 425.485C69.2647 425.951 68.8283 426.371 68.1816 426.745C67.535 427.118 66.8075 427.37 65.9992 427.501C65.199 427.636 64.3988 427.65 63.5986 427.543C62.8065 427.431 62.0952 427.193 61.4647 426.829C60.9555 426.535 60.5958 426.206 60.3857 425.842C60.1836 425.482 60.1674 425.123 60.3372 424.764L60.81 424.743L57.0515 426.913L55.6814 426.122ZM62.6044 426.017C62.9924 426.241 63.4289 426.385 63.9139 426.451C64.3988 426.516 64.8878 426.504 65.3809 426.416C65.8901 426.327 66.3508 426.164 66.7631 425.926C67.1753 425.688 67.4542 425.424 67.5997 425.135C67.7532 424.85 67.7734 424.568 67.6603 424.288C67.5471 424.008 67.2965 423.756 66.9086 423.532C66.5287 423.312 66.0922 423.168 65.5991 423.098C65.1142 423.032 64.6211 423.042 64.12 423.126C63.6269 423.214 63.1743 423.378 62.762 423.616C62.3498 423.854 62.0629 424.117 61.9012 424.407C61.7557 424.696 61.7396 424.981 61.8527 425.261C61.974 425.545 62.2245 425.797 62.6044 426.017ZM68.508 430.895C67.8372 430.508 67.4128 430.071 67.235 429.586C67.0652 429.105 67.1582 428.646 67.5138 428.207L69.0658 428.529C68.8718 428.846 68.8192 429.157 68.9081 429.46C69.0051 429.768 69.2436 430.032 69.6235 430.251C69.9468 430.438 70.2822 430.547 70.6298 430.58C70.9774 430.613 71.2764 430.557 71.527 430.412C71.6887 430.319 71.7735 430.218 71.7816 430.111C71.7978 429.999 71.7695 429.885 71.6967 429.768C71.6321 429.656 71.5472 429.551 71.4421 429.453L70.7025 428.69C70.2984 428.27 70.1165 427.885 70.1569 427.535C70.2135 427.185 70.4601 426.884 70.8965 426.632C71.2926 426.403 71.7372 426.263 72.2302 426.212C72.7314 426.156 73.2406 426.184 73.7579 426.296C74.2752 426.408 74.7561 426.592 75.2007 426.849C75.7988 427.194 76.1828 427.589 76.3525 428.032C76.5303 428.471 76.4535 428.898 76.1221 429.313L74.5702 428.991C74.7561 428.734 74.8006 428.471 74.7036 428.2C74.6147 427.934 74.3964 427.701 74.0489 427.5C73.7498 427.327 73.4386 427.232 73.1153 427.213C72.8001 427.19 72.5293 427.243 72.303 427.374C72.1494 427.463 72.0605 427.561 72.0362 427.668C72.0201 427.771 72.0443 427.878 72.109 427.99C72.1817 428.097 72.2666 428.202 72.3636 428.305L73.1153 429.103C73.5033 429.504 73.6771 429.885 73.6366 430.244C73.6043 430.599 73.3618 430.907 72.9092 431.168C72.5212 431.392 72.0726 431.53 71.5634 431.581C71.0703 431.632 70.5571 431.602 70.0236 431.49C69.4982 431.373 68.993 431.175 68.508 430.895Z" fill="#0E3572"/>
<mask id="path-100-inside-6_1544_1516" fill="white">
<path d="M615.75 272.453L629.955 272.484V280.315L598.587 298.589L598.141 298.331L597.933 298.452L566.479 280.315L566.944 280.047V272.347L580.249 272.375L597.933 262.18L615.75 272.453Z"/>
</mask>
<path d="M615.75 272.453L629.955 272.484V280.315L598.587 298.589L598.141 298.331L597.933 298.452L566.479 280.315L566.944 280.047V272.347L580.249 272.375L597.933 262.18L615.75 272.453Z" fill="white"/>
<path d="M615.75 272.453L615.501 272.886L615.616 272.953L615.749 272.953L615.75 272.453ZM629.955 272.484H630.455V271.985L629.956 271.984L629.955 272.484ZM629.955 280.315L630.206 280.747L630.455 280.603V280.315H629.955ZM598.587 298.589L598.337 299.022L598.588 299.167L598.839 299.021L598.587 298.589ZM598.141 298.331L598.391 297.898L598.14 297.753L597.89 297.899L598.141 298.331ZM597.933 298.452L597.683 298.885L597.934 299.03L598.185 298.884L597.933 298.452ZM566.479 280.315L566.229 279.882L565.479 280.316L566.229 280.748L566.479 280.315ZM566.944 280.047L567.194 280.48L567.444 280.335V280.047H566.944ZM566.944 272.347L566.945 271.847L566.444 271.845V272.347H566.944ZM580.249 272.375L580.247 272.875L580.382 272.875L580.498 272.808L580.249 272.375ZM597.933 262.18L598.183 261.746L597.933 261.602L597.683 261.746L597.933 262.18ZM615.75 272.453L615.749 272.953L629.953 272.984L629.955 272.484L629.956 271.984L615.752 271.953L615.75 272.453ZM629.955 272.484H629.455V280.315H629.955H630.455V272.484H629.955ZM629.955 280.315L629.703 279.883L598.336 298.157L598.587 298.589L598.839 299.021L630.206 280.747L629.955 280.315ZM598.587 298.589L598.838 298.156L598.391 297.898L598.141 298.331L597.891 298.764L598.337 299.022L598.587 298.589ZM598.141 298.331L597.89 297.899L597.682 298.02L597.933 298.452L598.185 298.884L598.393 298.763L598.141 298.331ZM597.933 298.452L598.183 298.019L566.729 279.882L566.479 280.315L566.229 280.748L597.683 298.885L597.933 298.452ZM566.479 280.315L566.729 280.748L567.194 280.48L566.944 280.047L566.694 279.614L566.229 279.882L566.479 280.315ZM566.944 280.047H567.444V272.347H566.944H566.444V280.047H566.944ZM566.944 272.347L566.943 272.847L580.247 272.875L580.249 272.375L580.25 271.875L566.945 271.847L566.944 272.347ZM580.249 272.375L580.498 272.808L598.183 262.613L597.933 262.18L597.683 261.746L579.999 271.942L580.249 272.375ZM597.933 262.18L597.683 262.613L615.501 272.886L615.75 272.453L616 272.02L598.183 261.746L597.933 262.18Z" fill="#0E3572" mask="url(#path-100-inside-6_1544_1516)"/>
<path d="M629.523 272.484L598.401 290.234L567.379 272.347L598.4 254.461L629.523 272.484Z" fill="white"/>
<path d="M629.523 272.484L598.401 290.234L567.379 272.347L598.4 254.461L629.523 272.484Z" fill="#ED1C24" fill-opacity="0.1"/>
<path d="M629.523 272.484L598.401 290.234L567.379 272.347L598.4 254.461L629.523 272.484Z" stroke="#0E3572" stroke-width="0.5"/>
<g clip-path="url(#clip3_1544_1516)">
<path d="M587.96 269.816L593.406 266.672M594.222 273.376L599.577 270.284" stroke="#ED1C24" stroke-width="0.5" stroke-miterlimit="10" stroke-linecap="round" stroke-linejoin="round"/>
<path d="M598.452 274.521L600.783 275.867C601.212 276.114 601.212 276.516 600.783 276.764C599.707 277.385 599.543 278.326 600.266 279.053C599.89 279.145 599.536 279.277 599.229 279.454C597.942 280.197 597.942 281.402 599.229 282.145C599.501 282.302 599.809 282.426 600.138 282.517M615.46 273.671C615.299 273.476 615.081 273.299 614.816 273.146C613.529 272.403 611.391 272.433 610.104 273.176C609.797 273.353 609.568 273.558 609.408 273.775C608.149 273.357 606.519 273.452 605.443 274.073C605.014 274.321 604.319 274.321 603.89 274.073L601.559 272.727" stroke="#ED1C24" stroke-width="0.5" stroke-miterlimit="10" stroke-linecap="round" stroke-linejoin="round"/>
<path d="M603.889 271.383L600.557 271.378M596.122 275.868L596.132 273.94M615.439 273.684L600.015 282.589M601.559 272.729L598.452 274.522C597.241 274.167 593.824 273.644 590.418 271.678C585.701 268.955 585.972 265.643 585.92 265.493C586.187 265.525 591.94 265.381 596.632 268.09C600.045 270.06 600.923 272.007 601.559 272.729Z" stroke="#ED1C24" stroke-width="0.5" stroke-miterlimit="10" stroke-linecap="round" stroke-linejoin="round"/>
</g>
<mask id="path-106-inside-7_1544_1516" fill="white">
<path d="M63.7683 263.553L77.9724 263.584V271.415L46.6052 289.689L46.1589 289.431L45.9509 289.552L14.4968 271.415L14.9617 271.147V263.446L28.2664 263.475L45.9509 253.279L63.7683 263.553Z"/>
</mask>
<path d="M63.7683 263.553L77.9724 263.584V271.415L46.6052 289.689L46.1589 289.431L45.9509 289.552L14.4968 271.415L14.9617 271.147V263.446L28.2664 263.475L45.9509 253.279L63.7683 263.553Z" fill="white"/>
<path d="M63.7683 263.553L63.5186 263.986L63.634 264.053L63.7672 264.053L63.7683 263.553ZM77.9724 263.584H78.4724V263.085L77.9735 263.084L77.9724 263.584ZM77.9724 271.415L78.2241 271.847L78.4724 271.703V271.415H77.9724ZM46.6052 289.689L46.3551 290.122L46.6063 290.267L46.8569 290.121L46.6052 289.689ZM46.1589 289.431L46.409 288.998L46.158 288.853L45.9074 288.999L46.1589 289.431ZM45.9509 289.552L45.7012 289.985L45.9521 290.13L46.2025 289.984L45.9509 289.552ZM14.4968 271.415L14.2467 270.982L13.4966 271.416L14.2471 271.848L14.4968 271.415ZM14.9617 271.147L15.2118 271.58L15.4617 271.435V271.147H14.9617ZM14.9617 263.446L14.9627 262.946L14.4617 262.945V263.446H14.9617ZM28.2664 263.475L28.2653 263.975L28.3997 263.975L28.5161 263.908L28.2664 263.475ZM45.9509 253.279L46.2007 252.846L45.9509 252.702L45.7012 252.846L45.9509 253.279ZM63.7683 263.553L63.7672 264.053L77.9713 264.084L77.9724 263.584L77.9735 263.084L63.7694 263.053L63.7683 263.553ZM77.9724 263.584H77.4724V271.415H77.9724H78.4724V263.584H77.9724ZM77.9724 271.415L77.7207 270.983L46.3535 289.257L46.6052 289.689L46.8569 290.121L78.2241 271.847L77.9724 271.415ZM46.6052 289.689L46.8553 289.256L46.409 288.998L46.1589 289.431L45.9088 289.864L46.3551 290.122L46.6052 289.689ZM46.1589 289.431L45.9074 288.999L45.6994 289.12L45.9509 289.552L46.2025 289.984L46.4105 289.863L46.1589 289.431ZM45.9509 289.552L46.2007 289.119L14.7466 270.982L14.4968 271.415L14.2471 271.848L45.7012 289.985L45.9509 289.552ZM14.4968 271.415L14.7469 271.848L15.2118 271.58L14.9617 271.147L14.7115 270.714L14.2467 270.982L14.4968 271.415ZM14.9617 271.147H15.4617V263.446H14.9617H14.4617V271.147H14.9617ZM14.9617 263.446L14.9606 263.946L28.2653 263.975L28.2664 263.475L28.2674 262.975L14.9627 262.946L14.9617 263.446ZM28.2664 263.475L28.5161 263.908L46.2007 253.713L45.9509 253.279L45.7012 252.846L28.0166 263.042L28.2664 263.475ZM45.9509 253.279L45.7012 253.713L63.5186 263.986L63.7683 263.553L64.0181 263.12L46.2007 252.846L45.9509 253.279Z" fill="#0E3572" mask="url(#path-106-inside-7_1544_1516)"/>
<path d="M77.5402 263.583L46.4189 281.334L15.3966 263.447L46.4181 245.561L77.5402 263.583Z" fill="white"/>
<path d="M77.5402 263.583L46.4189 281.334L15.3966 263.447L46.4181 245.561L77.5402 263.583Z" fill="#ED1C24" fill-opacity="0.1"/>
<path d="M77.5402 263.583L46.4189 281.334L15.3966 263.447L46.4181 245.561L77.5402 263.583Z" stroke="#0E3572" stroke-width="0.5"/>
<g clip-path="url(#clip4_1544_1516)">
<path d="M36.9225 257.757L32.2694 264.258L36.2853 266.576C41.4824 269.577 49.3076 270.463 56.0833 268.819C58.931 264.907 57.3956 260.389 52.1984 257.389L48.1826 255.07L36.9225 257.757Z" stroke="#ED1C24" stroke-width="0.5" stroke-miterlimit="10" stroke-linecap="round" stroke-linejoin="round"/>
<path d="M42.6913 264.743L47.2293 264.743L47.2294 260.051" stroke="#ED1C24" stroke-width="0.5" stroke-miterlimit="10" stroke-linecap="round" stroke-linejoin="round"/>
</g>
<path d="M536.784 89.6317L545.816 84.4167L549.623 86.6147C550.189 86.9414 550.577 87.282 550.787 87.6367C551.005 87.9867 551.038 88.332 550.884 88.6727C550.739 89.0087 550.415 89.3214 549.914 89.6107C549.478 89.8627 548.964 90.0284 548.374 90.1077C547.801 90.187 547.174 90.152 546.495 90.0027L547.101 89.6527C547.352 89.984 547.481 90.2967 547.489 90.5907C547.505 90.88 547.417 91.146 547.223 91.3887C547.037 91.636 546.774 91.8577 546.434 92.0537C545.586 92.5437 544.64 92.7677 543.597 92.7257C542.563 92.6884 541.565 92.392 540.603 91.8367L536.784 89.6317ZM539.487 89.7227L541.985 91.1647C542.462 91.44 542.971 91.5847 543.513 91.5987C544.062 91.608 544.555 91.4867 544.992 91.2347C545.436 90.978 545.646 90.6934 545.622 90.3807C545.606 90.0634 545.359 89.767 544.883 89.4917L542.385 88.0497L539.487 89.7227ZM543.646 87.3217L546.059 88.7147C546.447 88.9387 546.867 89.0554 547.32 89.0647C547.78 89.0694 548.193 88.9667 548.556 88.7567C548.92 88.5467 549.086 88.3157 549.053 88.0637C549.021 87.8117 548.811 87.5737 548.423 87.3497L546.01 85.9567L543.646 87.3217ZM546.863 95.6194C546.419 95.3627 546.104 95.0921 545.918 94.8074C545.748 94.5227 545.708 94.2474 545.797 93.9814C545.894 93.7107 546.132 93.4657 546.512 93.2464C546.868 93.0411 547.264 92.9011 547.7 92.8264C548.145 92.7564 548.63 92.7611 549.155 92.8404C549.68 92.9197 550.234 93.0807 550.816 93.3234L553.471 94.4224L552.392 95.0454L550.028 94.0864C549.6 93.9137 549.216 93.8274 548.876 93.8274C548.545 93.8227 548.25 93.8951 547.991 94.0444C547.74 94.1891 547.627 94.3617 547.652 94.5624C547.692 94.7631 547.862 94.9497 548.161 95.1224C548.533 95.3371 548.937 95.4771 549.373 95.5424C549.818 95.6124 550.25 95.6147 550.671 95.5494C551.099 95.4794 551.479 95.3487 551.81 95.1574L553.496 94.1844C553.819 93.9977 553.96 93.7761 553.92 93.5194C553.896 93.2627 553.685 93.0201 553.289 92.7914C552.926 92.5814 552.509 92.4531 552.041 92.4064C551.588 92.3597 551.147 92.3854 550.719 92.4834L550.149 91.4964C550.594 91.3797 551.075 91.3307 551.592 91.3494C552.117 91.3634 552.631 91.4357 553.132 91.5664C553.641 91.7017 554.102 91.8884 554.514 92.1264C555.031 92.4251 555.391 92.7447 555.593 93.0854C555.803 93.4307 555.844 93.7667 555.714 94.0934C555.601 94.4201 555.318 94.7141 554.866 94.9754L550.452 97.5234L549.143 96.7674L550.331 96.0814L550.574 96.2634C550.153 96.3287 549.725 96.3474 549.288 96.3194C548.86 96.2961 548.44 96.2261 548.027 96.1094C547.623 95.9974 547.235 95.8341 546.863 95.6194ZM555.025 100.331C554.37 99.9533 553.938 99.5309 553.727 99.0643C553.533 98.5976 553.546 98.1286 553.764 97.6573C553.99 97.1906 554.431 96.7683 555.085 96.3903C555.732 96.0169 556.459 95.7649 557.268 95.6343C558.076 95.5036 558.88 95.5013 559.68 95.6273C560.489 95.7486 561.22 95.9983 561.875 96.3763C562.32 96.6329 562.655 96.9199 562.881 97.2373C563.116 97.5499 563.237 97.8673 563.245 98.1893C563.261 98.5159 563.156 98.8239 562.93 99.1133L561.172 98.7423C561.374 98.4669 561.422 98.1823 561.317 97.8883C561.228 97.5943 560.99 97.3353 560.602 97.1113C560.23 96.8966 559.802 96.7566 559.317 96.6913C558.848 96.6259 558.363 96.6399 557.862 96.7333C557.369 96.8219 556.916 96.9853 556.504 97.2233C556.092 97.4613 555.805 97.7249 555.643 98.0143C555.489 98.2989 555.465 98.5789 555.57 98.8543C555.683 99.1343 555.926 99.3816 556.298 99.5963C556.694 99.8249 557.138 99.9649 557.631 100.016C558.141 100.068 558.642 100.035 559.135 99.9183L559.765 100.94C559.288 101.066 558.763 101.127 558.189 101.122C557.631 101.118 557.078 101.05 556.528 100.919C555.978 100.789 555.477 100.593 555.025 100.331ZM559.407 102.693L568.585 97.3944L569.955 98.1854L563.808 101.734L563.408 101.349L570.089 101.286L571.798 102.273L566.694 102.364L565.348 106.123L563.772 105.213L564.948 101.874L565.869 102.28L561.868 102.35L563.214 102.077L560.777 103.484L559.407 102.693ZM569.102 108.459C568.447 108.081 568.015 107.658 567.805 107.192C567.611 106.725 567.631 106.261 567.865 105.799C568.108 105.332 568.552 104.912 569.199 104.539C569.862 104.156 570.589 103.899 571.381 103.769C572.181 103.643 572.969 103.636 573.745 103.748C574.529 103.855 575.229 104.086 575.843 104.441C576.336 104.725 576.692 105.029 576.91 105.351C577.128 105.673 577.221 105.997 577.189 106.324C577.165 106.646 577.031 106.956 576.789 107.255C576.554 107.558 576.223 107.833 575.794 108.081C575.689 108.141 575.576 108.202 575.455 108.263C575.334 108.323 575.212 108.375 575.091 108.417L569.866 105.4L570.957 104.77L575.406 107.339L574.255 107.248C574.732 107.066 575.055 106.846 575.225 106.59C575.411 106.333 575.455 106.074 575.358 105.813C575.277 105.551 575.055 105.316 574.691 105.106C574.327 104.896 573.911 104.763 573.442 104.707C572.982 104.646 572.505 104.669 572.012 104.777C571.527 104.879 571.062 105.078 570.617 105.372C570.132 105.605 569.805 105.864 569.635 106.149C569.474 106.438 569.449 106.723 569.563 107.003C569.684 107.287 569.938 107.542 570.326 107.766C570.722 107.994 571.147 108.137 571.599 108.193C572.06 108.253 572.513 108.249 572.957 108.179L573.527 109.138C573.091 109.24 572.61 109.285 572.084 109.271C571.575 109.257 571.058 109.182 570.532 109.047C570.023 108.911 569.546 108.715 569.102 108.459ZM573.603 110.89L580.163 107.103L581.472 107.859L580.187 108.601L580.199 108.412C580.773 108.267 581.343 108.237 581.909 108.321C582.482 108.4 583.004 108.575 583.473 108.846C583.958 109.126 584.281 109.434 584.443 109.77C584.604 110.106 584.604 110.442 584.443 110.778C584.281 111.114 583.958 111.422 583.473 111.702L579.241 114.145L577.883 113.361L581.751 111.128C582.082 110.936 582.301 110.74 582.406 110.54C582.519 110.334 582.523 110.131 582.418 109.931C582.329 109.73 582.143 109.548 581.86 109.385C581.577 109.221 581.258 109.112 580.902 109.056C580.563 109 580.215 109.004 579.86 109.07C579.504 109.135 579.164 109.261 578.841 109.448L574.973 111.681L573.603 110.89ZM583.593 116.825C582.963 116.461 582.546 116.048 582.344 115.586C582.158 115.124 582.179 114.66 582.405 114.193C582.639 113.731 583.08 113.314 583.726 112.94C584.373 112.567 585.101 112.315 585.909 112.184C586.717 112.054 587.517 112.044 588.309 112.156C589.102 112.268 589.809 112.504 590.431 112.863C590.957 113.167 591.316 113.496 591.51 113.85C591.704 114.205 591.733 114.557 591.595 114.907L591.074 114.97L595.051 112.674L596.409 113.458L587.23 118.757L585.933 118.008L587.267 117.238L587.17 117.476C586.547 117.574 585.921 117.563 585.29 117.441C584.66 117.32 584.094 117.115 583.593 116.825ZM585 116.167C585.379 116.387 585.812 116.529 586.297 116.594C586.79 116.664 587.283 116.655 587.776 116.566C588.285 116.478 588.746 116.314 589.158 116.076C589.57 115.838 589.849 115.575 589.995 115.285C590.148 115.001 590.164 114.716 590.043 114.431C589.93 114.151 589.684 113.902 589.304 113.682C588.924 113.463 588.487 113.318 587.994 113.248C587.501 113.178 587.008 113.188 586.515 113.276C586.022 113.365 585.569 113.528 585.157 113.766C584.745 114.004 584.458 114.268 584.296 114.557C584.143 114.842 584.123 115.124 584.236 115.404C584.357 115.689 584.612 115.943 585 116.167ZM521.45 98.7787L530.482 93.5637L536.435 97.0007L535.162 97.7357L530.64 95.1247L528.045 96.6227L532.325 99.0937L531.052 99.8287L526.772 97.3577L524.153 98.8697L528.676 101.481L527.403 102.216L521.45 98.7787ZM528.598 102.906L535.157 99.1188L536.467 99.8748L535.181 100.617L535.194 100.428C535.767 100.283 536.337 100.253 536.903 100.337C537.477 100.416 537.998 100.591 538.467 100.862C538.952 101.142 539.275 101.45 539.437 101.786C539.599 102.122 539.599 102.458 539.437 102.794C539.275 103.13 538.952 103.438 538.467 103.718L534.236 106.161L532.878 105.377L536.746 103.144C537.077 102.952 537.295 102.756 537.4 102.556C537.513 102.35 537.517 102.147 537.412 101.947C537.323 101.746 537.138 101.564 536.855 101.401C536.572 101.237 536.252 101.128 535.897 101.072C535.557 101.016 535.21 101.02 534.854 101.086C534.498 101.151 534.159 101.277 533.836 101.464L529.968 103.697L528.598 102.906ZM536.199 110.374C535.722 110.099 535.359 109.8 535.108 109.478C534.857 109.156 534.724 108.832 534.708 108.505C534.684 108.183 534.781 107.875 534.999 107.581L536.781 108.008C536.587 108.251 536.539 108.517 536.636 108.806C536.741 109.1 537.016 109.376 537.46 109.632C537.808 109.833 538.188 109.973 538.6 110.052C539.004 110.136 539.416 110.15 539.836 110.094C540.249 110.043 540.633 109.915 540.988 109.709L542.467 108.855L542.431 109.156C541.784 109.268 541.15 109.271 540.528 109.163C539.913 109.061 539.356 108.865 538.854 108.575C538.248 108.225 537.844 107.829 537.642 107.385C537.44 106.942 537.444 106.496 537.654 106.048C537.872 105.605 538.289 105.206 538.903 104.851C539.525 104.492 540.216 104.252 540.976 104.13C541.744 104.014 542.508 104.011 543.268 104.123C544.027 104.235 544.715 104.469 545.329 104.823C545.83 105.113 546.165 105.432 546.335 105.782C546.521 106.132 546.537 106.496 546.384 106.874L545.862 106.965L547.305 106.132L548.602 106.881L542.346 110.493C541.78 110.82 541.138 111.032 540.418 111.13C539.699 111.238 538.972 111.228 538.236 111.102C537.501 110.976 536.822 110.734 536.199 110.374ZM540.285 107.931C540.649 108.141 541.057 108.279 541.51 108.344C541.97 108.405 542.427 108.398 542.88 108.323C543.349 108.249 543.769 108.104 544.141 107.889C544.512 107.675 544.763 107.432 544.892 107.161C545.022 106.891 545.03 106.625 544.917 106.363C544.812 106.097 544.581 105.862 544.225 105.656C543.854 105.442 543.433 105.302 542.965 105.236C542.504 105.166 542.039 105.169 541.57 105.243C541.118 105.318 540.701 105.465 540.321 105.684C539.958 105.894 539.707 106.132 539.57 106.398C539.44 106.669 539.432 106.94 539.545 107.21C539.667 107.476 539.913 107.717 540.285 107.931ZM543.647 111.594L550.206 107.807L551.576 108.598L545.017 112.385L543.647 111.594ZM551.103 107.289L552.679 106.379L554.05 107.17L552.473 108.08L551.103 107.289ZM546.619 113.31L553.178 109.523L554.487 110.279L553.202 111.021L553.214 110.832C553.788 110.687 554.358 110.657 554.924 110.741C555.498 110.82 556.019 110.995 556.488 111.266C556.973 111.546 557.296 111.854 557.458 112.19C557.62 112.526 557.62 112.862 557.458 113.198C557.296 113.534 556.973 113.842 556.488 114.122L552.257 116.565L550.899 115.781L554.766 113.548C555.098 113.357 555.316 113.161 555.421 112.96C555.534 112.755 555.538 112.552 555.433 112.351C555.344 112.15 555.158 111.968 554.875 111.805C554.593 111.642 554.273 111.532 553.918 111.476C553.578 111.42 553.231 111.425 552.875 111.49C552.519 111.555 552.18 111.681 551.856 111.868L547.989 114.101L546.619 113.31ZM556.657 119.274C556.002 118.896 555.57 118.473 555.36 118.007C555.166 117.54 555.186 117.076 555.42 116.614C555.663 116.147 556.107 115.727 556.754 115.354C557.417 114.971 558.144 114.714 558.936 114.584C559.737 114.458 560.525 114.451 561.301 114.563C562.085 114.67 562.784 114.901 563.398 115.256C563.891 115.54 564.247 115.844 564.465 116.166C564.683 116.488 564.776 116.812 564.744 117.139C564.72 117.461 564.586 117.771 564.344 118.07C564.109 118.373 563.778 118.648 563.35 118.896C563.245 118.956 563.131 119.017 563.01 119.078C562.889 119.138 562.768 119.19 562.646 119.232L557.421 116.215L558.512 115.585L562.962 118.154L561.81 118.063C562.287 117.881 562.61 117.661 562.78 117.405C562.966 117.148 563.01 116.889 562.913 116.628C562.832 116.366 562.61 116.131 562.246 115.921C561.883 115.711 561.466 115.578 560.997 115.522C560.537 115.461 560.06 115.484 559.567 115.592C559.082 115.694 558.617 115.893 558.172 116.187C557.688 116.42 557.36 116.679 557.19 116.964C557.029 117.253 557.005 117.538 557.118 117.818C557.239 118.102 557.494 118.357 557.881 118.581C558.278 118.809 558.702 118.952 559.155 119.008C559.615 119.068 560.068 119.064 560.512 118.994L561.082 119.953C560.646 120.055 560.165 120.1 559.64 120.086C559.13 120.072 558.613 119.997 558.088 119.862C557.578 119.726 557.101 119.53 556.657 119.274ZM564.093 123.567C563.438 123.189 563.005 122.766 562.795 122.3C562.601 121.833 562.621 121.369 562.856 120.907C563.098 120.44 563.543 120.02 564.19 119.647C564.852 119.264 565.58 119.007 566.372 118.877C567.172 118.751 567.96 118.744 568.736 118.856C569.52 118.963 570.219 119.194 570.834 119.549C571.327 119.833 571.682 120.137 571.901 120.459C572.119 120.781 572.212 121.105 572.18 121.432C572.155 121.754 572.022 122.064 571.779 122.363C571.545 122.666 571.214 122.941 570.785 123.189C570.68 123.249 570.567 123.31 570.446 123.371C570.324 123.431 570.203 123.483 570.082 123.525L564.856 120.508L565.948 119.878L570.397 122.447L569.245 122.356C569.722 122.174 570.046 121.954 570.215 121.698C570.401 121.441 570.446 121.182 570.349 120.921C570.268 120.659 570.046 120.424 569.682 120.214C569.318 120.004 568.902 119.871 568.433 119.815C567.972 119.754 567.495 119.777 567.002 119.885C566.517 119.987 566.053 120.186 565.608 120.48C565.123 120.713 564.796 120.972 564.626 121.257C564.464 121.546 564.44 121.831 564.553 122.111C564.675 122.395 564.929 122.65 565.317 122.874C565.713 123.102 566.138 123.245 566.59 123.301C567.051 123.361 567.504 123.357 567.948 123.287L568.518 124.246C568.081 124.348 567.601 124.393 567.075 124.379C566.566 124.365 566.049 124.29 565.523 124.155C565.014 124.019 564.537 123.823 564.093 123.567ZM568.594 125.998L575.153 122.211L576.463 122.967L575.141 123.73L575.214 123.548C575.788 123.384 576.329 123.342 576.839 123.422C577.356 123.496 577.841 123.664 578.294 123.926L578.694 124.157L577.445 124.878L576.875 124.549C576.422 124.287 575.913 124.157 575.347 124.157C574.798 124.157 574.264 124.306 573.747 124.605L569.964 126.789L568.594 125.998Z" fill="#0E3572"/>
<mask id="path-112-inside-8_1544_1516" fill="white">
<path d="M453.294 140.266L423.182 140.332V157.523L491.945 197.633L561.311 157.523V140.031L531.124 140.096L492.356 117.714L453.294 140.266Z"/>
</mask>
<path d="M453.294 140.266L423.182 140.332V157.523L491.945 197.633L561.311 157.523V140.031L531.124 140.096L492.356 117.714L453.294 140.266Z" fill="white"/>
<path d="M453.294 140.266L453.544 140.699L453.429 140.766L453.296 140.766L453.294 140.266ZM423.182 140.332H422.682V139.834L423.181 139.832L423.182 140.332ZM423.182 157.523L422.93 157.955L422.682 157.81V157.523H423.182ZM491.945 197.633L492.195 198.066L491.944 198.211L491.693 198.065L491.945 197.633ZM561.311 157.523H561.811V157.811L561.561 157.956L561.311 157.523ZM561.311 140.031L561.31 139.531L561.811 139.53V140.031H561.311ZM531.124 140.096L531.125 140.596L530.99 140.596L530.874 140.529L531.124 140.096ZM492.356 117.714L492.106 117.281L492.356 117.137L492.606 117.281L492.356 117.714ZM453.294 140.266L453.296 140.766L423.183 140.832L423.182 140.332L423.181 139.832L453.293 139.766L453.294 140.266ZM423.182 140.332H423.682V157.523H423.182H422.682V140.332H423.182ZM423.182 157.523L423.434 157.091L492.197 197.201L491.945 197.633L491.693 198.065L422.93 157.955L423.182 157.523ZM491.945 197.633L491.695 197.2L561.061 157.09L561.311 157.523L561.561 157.956L492.195 198.066L491.945 197.633ZM561.311 157.523H560.811V140.031H561.311H561.811V157.523H561.311ZM561.311 140.031L561.312 140.531L531.125 140.596L531.124 140.096L531.122 139.596L561.31 139.531L561.311 140.031ZM531.124 140.096L530.874 140.529L492.106 118.147L492.356 117.714L492.606 117.281L531.374 139.663L531.124 140.096ZM492.356 117.714L492.606 118.147L453.544 140.699L453.294 140.266L453.044 139.833L492.106 117.281L492.356 117.714Z" fill="#0E3572" mask="url(#path-112-inside-8_1544_1516)"/>
<path d="M423.611 140.331L492.354 179.591L560.874 140.031L492.354 100.472L423.611 140.331Z" fill="white"/>
<path d="M423.611 140.331L492.354 179.591L560.874 140.031L492.354 100.472L423.611 140.331Z" fill="#0E3572" fill-opacity="0.2"/>
<path d="M423.611 140.331L492.354 179.591L560.874 140.031L492.354 100.472L423.611 140.331Z" stroke="#0E3572" stroke-width="0.5"/>
<g clip-path="url(#clip5_1544_1516)">
<path d="M469.043 140.102C471.173 141.331 478.08 139.338 484.469 135.648C490.859 131.959 494.312 127.972 492.182 126.742C490.052 125.513 483.146 127.506 476.756 131.195C470.367 134.884 466.913 138.872 469.043 140.102Z" stroke="#0E3572" stroke-miterlimit="10" stroke-linecap="square"/>
<path d="M476.821 144.592C478.95 145.821 485.857 143.828 492.247 140.139C498.636 136.45 502.09 132.462 499.96 131.232" stroke="#0E3572" stroke-miterlimit="10" stroke-linecap="square"/>
<path d="M484.533 149.045C486.663 150.275 493.57 148.281 499.96 144.592C506.349 140.903 509.802 136.915 507.673 135.686" stroke="#0E3572" stroke-miterlimit="10" stroke-linecap="square"/>
<path d="M492.182 126.742L515.45 140.176C517.58 141.406 514.127 145.393 507.737 149.082C501.347 152.771 494.441 154.765 492.311 153.535L469.043 140.102" stroke="#0E3572" stroke-miterlimit="10"/>
</g>
<path d="M450.839 163.812L463.131 170.916L463.065 174.345L450.839 167.286V163.812Z" fill="#0E3572"/>
<path d="M380.586 220.238L454.404 177.383L456.216 168.976" stroke="#0E3572"/>
<mask id="path-121-inside-9_1544_1516" fill="white">
<path d="M333.626 109.312L347.83 109.343V117.174L316.463 135.448L316.017 135.19L315.809 135.311L284.355 117.174L284.82 116.906V109.206L298.124 109.234L315.809 99.0387L333.626 109.312Z"/>
</mask>
<path d="M333.626 109.312L347.83 109.343V117.174L316.463 135.448L316.017 135.19L315.809 135.311L284.355 117.174L284.82 116.906V109.206L298.124 109.234L315.809 99.0387L333.626 109.312Z" fill="white"/>
<path d="M333.626 109.312L333.377 109.745L333.492 109.812L333.625 109.812L333.626 109.312ZM347.83 109.343H348.33V108.844L347.832 108.843L347.83 109.343ZM347.83 117.174L348.082 117.606L348.33 117.462V117.174H347.83ZM316.463 135.448L316.213 135.881L316.464 136.026L316.715 135.88L316.463 135.448ZM316.017 135.19L316.267 134.757L316.016 134.612L315.765 134.758L316.017 135.19ZM315.809 135.311L315.559 135.744L315.81 135.889L316.061 135.743L315.809 135.311ZM284.355 117.174L284.105 116.741L283.355 117.175L284.105 117.608L284.355 117.174ZM284.82 116.906L285.07 117.339L285.32 117.194V116.906H284.82ZM284.82 109.206L284.821 108.706L284.32 108.705V109.206H284.82ZM298.124 109.234L298.123 109.734L298.258 109.734L298.374 109.667L298.124 109.234ZM315.809 99.0387L316.059 98.6055L315.809 98.4615L315.559 98.6055L315.809 99.0387ZM333.626 109.312L333.625 109.812L347.829 109.843L347.83 109.343L347.832 108.843L333.627 108.812L333.626 109.312ZM347.83 109.343H347.33V117.174H347.83H348.33V109.343H347.83ZM347.83 117.174L347.579 116.742L316.212 135.016L316.463 135.448L316.715 135.88L348.082 117.606L347.83 117.174ZM316.463 135.448L316.713 135.015L316.267 134.757L316.017 135.19L315.767 135.623L316.213 135.881L316.463 135.448ZM316.017 135.19L315.765 134.758L315.557 134.879L315.809 135.311L316.061 135.743L316.269 135.622L316.017 135.19ZM315.809 135.311L316.059 134.878L284.605 116.741L284.355 117.174L284.105 117.608L315.559 135.744L315.809 135.311ZM284.355 117.174L284.605 117.607L285.07 117.339L284.82 116.906L284.57 116.473L284.105 116.741L284.355 117.174ZM284.82 116.906H285.32V109.206H284.82H284.32V116.906H284.82ZM284.82 109.206L284.819 109.706L298.123 109.734L298.124 109.234L298.125 108.734L284.821 108.706L284.82 109.206ZM298.124 109.234L298.374 109.667L316.059 99.4719L315.809 99.0387L315.559 98.6055L297.875 108.801L298.124 109.234ZM315.809 99.0387L315.559 99.4719L333.377 109.745L333.626 109.312L333.876 108.879L316.059 98.6055L315.809 99.0387Z" fill="#0E3572" mask="url(#path-121-inside-9_1544_1516)"/>
<path d="M347.398 109.343L316.277 127.094L285.255 109.207L316.276 91.3202L347.398 109.343Z" fill="white"/>
<path d="M347.398 109.343L316.277 127.094L285.255 109.207L316.276 91.3202L347.398 109.343Z" fill="#ED1C24" fill-opacity="0.1"/>
<path d="M347.398 109.343L316.277 127.094L285.255 109.207L316.276 91.3202L347.398 109.343Z" stroke="#0E3572" stroke-width="0.5"/>
<g clip-path="url(#clip6_1544_1516)">
<path d="M328.368 112.601L321.355 116.487M316.95 105.659L319.783 105.706C320.629 105.72 321.307 106.127 321.297 106.615L321.246 108.239M309.864 109.585L309.832 111.22C309.822 111.708 310.5 112.115 311.346 112.129L314.16 112.165M317.579 111.098L313.531 106.726M321.168 102.371L327.038 105.897C329.015 107.085 328.983 108.954 326.965 110.071L317.029 115.577C315.013 116.695 311.775 116.638 309.799 115.451L303.927 111.924C301.95 110.737 301.983 108.868 304 107.75L313.935 102.245C315.952 101.127 319.191 101.184 321.168 102.371Z" stroke="#ED1C24" stroke-width="0.5" stroke-miterlimit="10" stroke-linecap="round" stroke-linejoin="round"/>
</g>
<mask id="path-125-inside-10_1544_1516" fill="white">
<path d="M344.781 429.433L358.985 429.465V437.296L327.618 455.569L327.172 455.311L326.964 455.432L295.51 437.296L295.974 437.027V429.327L309.279 429.355L326.964 419.16L344.781 429.433Z"/>
</mask>
<path d="M344.781 429.433L358.985 429.465V437.296L327.618 455.569L327.172 455.311L326.964 455.432L295.51 437.296L295.974 437.027V429.327L309.279 429.355L326.964 419.16L344.781 429.433Z" fill="white"/>
<path d="M344.781 429.433L344.531 429.867L344.647 429.933L344.78 429.933L344.781 429.433ZM358.985 429.465H359.485V428.966L358.986 428.965L358.985 429.465ZM358.985 437.296L359.237 437.728L359.485 437.583V437.296H358.985ZM327.618 455.569L327.368 456.002L327.619 456.147L327.87 456.001L327.618 455.569ZM327.172 455.311L327.422 454.878L327.171 454.733L326.92 454.879L327.172 455.311ZM326.964 455.432L326.714 455.866L326.965 456.01L327.215 455.865L326.964 455.432ZM295.51 437.296L295.259 436.863L294.509 437.296L295.26 437.729L295.51 437.296ZM295.974 437.027L296.224 437.46L296.474 437.316V437.027H295.974ZM295.974 429.327L295.975 428.827L295.474 428.826V429.327H295.974ZM309.279 429.355L309.278 429.855L309.412 429.856L309.529 429.789L309.279 429.355ZM326.964 419.16L327.213 418.727L326.964 418.583L326.714 418.727L326.964 419.16ZM344.781 429.433L344.78 429.933L358.984 429.965L358.985 429.465L358.986 428.965L344.782 428.933L344.781 429.433ZM358.985 429.465H358.485V437.296H358.985H359.485V429.465H358.985ZM358.985 437.296L358.733 436.864L327.366 455.137L327.618 455.569L327.87 456.001L359.237 437.728L358.985 437.296ZM327.618 455.569L327.868 455.136L327.422 454.878L327.172 455.311L326.922 455.744L327.368 456.002L327.618 455.569ZM327.172 455.311L326.92 454.879L326.712 455L326.964 455.432L327.215 455.865L327.423 455.744L327.172 455.311ZM326.964 455.432L327.213 454.999L295.759 436.863L295.51 437.296L295.26 437.729L326.714 455.866L326.964 455.432ZM295.51 437.296L295.76 437.729L296.224 437.46L295.974 437.027L295.724 436.594L295.259 436.863L295.51 437.296ZM295.974 437.027H296.474V429.327H295.974H295.474V437.027H295.974ZM295.974 429.327L295.973 429.827L309.278 429.855L309.279 429.355L309.28 428.855L295.975 428.827L295.974 429.327ZM309.279 429.355L309.529 429.789L327.213 419.593L326.964 419.16L326.714 418.727L309.029 428.922L309.279 429.355ZM326.964 419.16L326.714 419.593L344.531 429.867L344.781 429.433L345.031 429L327.213 418.727L326.964 419.16Z" fill="#0E3572" mask="url(#path-125-inside-10_1544_1516)"/>
<path d="M358.553 429.464L327.432 447.215L296.409 429.328L327.431 411.442L358.553 429.464Z" fill="white"/>
<path d="M358.553 429.464L327.432 447.215L296.409 429.328L327.431 411.442L358.553 429.464Z" fill="#ED1C24" fill-opacity="0.1"/>
<path d="M358.553 429.464L327.432 447.215L296.409 429.328L327.431 411.442L358.553 429.464Z" stroke="#0E3572" stroke-width="0.5"/>
<g clip-path="url(#clip7_1544_1516)">
<path d="M339.725 426.625L340.894 425.949L345.386 426.403L346.172 428.996L336.437 434.617L336.436 434.616" stroke="#ED1C24" stroke-width="0.5" stroke-miterlimit="10" stroke-linecap="round" stroke-linejoin="round"/>
<path d="M328.586 439.149L327.003 440.063C326.542 440.329 325.794 440.329 325.333 440.063L321.726 437.981C321.265 437.714 321.265 437.282 321.726 437.016L322.594 436.515C320.612 436.137 318.795 435.494 317.276 434.617C314.717 433.139 313.308 431.175 313.308 429.086C313.308 426.996 314.717 425.032 317.276 423.554C317.832 423.234 319.057 422.687 319.057 422.687M320.652 422.128C320.652 422.128 324.662 421.263 326.856 421.263C330.476 421.263 333.878 422.077 336.437 423.554C338.996 425.032 340.405 426.996 340.405 429.086C340.405 431.175 338.996 433.139 336.436 434.617L329.901 438.39M331.159 431.57C328.787 432.94 324.926 432.94 322.553 431.57C320.181 430.2 320.181 427.971 322.553 426.601C324.926 425.231 328.787 425.231 331.159 426.601C333.532 427.971 333.532 430.2 331.159 431.57Z" stroke="#ED1C24" stroke-width="0.5" stroke-miterlimit="10" stroke-linecap="round" stroke-linejoin="round"/>
<path d="M322.594 436.515L331.159 431.57" stroke="#ED1C24" stroke-width="0.5" stroke-miterlimit="10" stroke-linecap="round" stroke-linejoin="round"/>
<path d="M327.111 433.907L331.602 434.361L332.388 436.954" stroke="#ED1C24" stroke-width="0.5" stroke-miterlimit="10" stroke-linecap="round" stroke-linejoin="round"/>
<path d="M322.553 426.601L318.062 426.147L317.276 423.554" stroke="#ED1C24" stroke-width="0.5" stroke-miterlimit="10" stroke-linecap="round" stroke-linejoin="round"/>
</g>
</g>
<defs>
<filter id="filter0_i_1544_1516" x="215.032" y="193.86" width="208.35" height="116.021" filterUnits="userSpaceOnUse" color-interpolation-filters="sRGB">
<feFlood flood-opacity="0" result="BackgroundImageFix"/>
<feBlend mode="normal" in="SourceGraphic" in2="BackgroundImageFix" result="shape"/>
<feColorMatrix in="SourceAlpha" type="matrix" values="0 0 0 0 0 0 0 0 0 0 0 0 0 0 0 0 0 0 127 0" result="hardAlpha"/>
<feOffset/>
<feGaussianBlur stdDeviation="4.26055"/>
<feComposite in2="hardAlpha" operator="arithmetic" k2="-1" k3="1"/>
<feColorMatrix type="matrix" values="0 0 0 0 0.054902 0 0 0 0 0.207843 0 0 0 0 0.447059 0 0 0 0.35 0"/>
<feBlend mode="normal" in2="shape" result="effect1_innerShadow_1544_1516"/>
</filter>
<filter id="filter1_i_1544_1516" x="239.855" y="185.339" width="155.81" height="86.7632" filterUnits="userSpaceOnUse" color-interpolation-filters="sRGB">
<feFlood flood-opacity="0" result="BackgroundImageFix"/>
<feBlend mode="normal" in="SourceGraphic" in2="BackgroundImageFix" result="shape"/>
<feColorMatrix in="SourceAlpha" type="matrix" values="0 0 0 0 0 0 0 0 0 0 0 0 0 0 0 0 0 0 127 0" result="hardAlpha"/>
<feOffset/>
<feGaussianBlur stdDeviation="4.26055"/>
<feComposite in2="hardAlpha" operator="arithmetic" k2="-1" k3="1"/>
<feColorMatrix type="matrix" values="0 0 0 0 0.054902 0 0 0 0 0.207843 0 0 0 0 0.447059 0 0 0 0.35 0"/>
<feBlend mode="normal" in2="shape" result="effect1_innerShadow_1544_1516"/>
</filter>
<radialGradient id="paint0_radial_1544_1516" cx="0" cy="0" r="1" gradientTransform="matrix(-355.187 -356.183 203.211 -201.512 562.562 545.227)" gradientUnits="userSpaceOnUse">
<stop stop-color="#D9D9D9"/>
<stop offset="1" stop-color="#D9D9D9" stop-opacity="0"/>
</radialGradient>
<linearGradient id="paint1_linear_1544_1516" x1="319.21" y1="219.35" x2="319.21" y2="335.81" gradientUnits="userSpaceOnUse">
<stop stop-color="white"/>
<stop offset="1" stop-color="#3EAFD1"/>
</linearGradient>
<linearGradient id="paint2_linear_1544_1516" x1="317.761" y1="204.4" x2="317.761" y2="291.492" gradientUnits="userSpaceOnUse">
<stop stop-color="white"/>
<stop offset="1" stop-color="#3EAFD1"/>
</linearGradient>
<clipPath id="clip0_1544_1516">
<rect width="648" height="535" fill="white"/>
</clipPath>
<clipPath id="clip1_1544_1516">
<rect width="40" height="40" fill="white" transform="matrix(0.866025 -0.5 0.866025 0.5 106.509 137.829)"/>
</clipPath>
<clipPath id="clip2_1544_1516">
<rect width="40" height="40" fill="white" transform="matrix(0.866025 0.5 -0.866025 0.5 535.292 341.162)"/>
</clipPath>
<clipPath id="clip3_1544_1516">
<rect width="26.7742" height="26.7742" fill="white" transform="matrix(0.866036 -0.499982 0.866036 0.499981 572.967 272.396)"/>
</clipPath>
<clipPath id="clip4_1544_1516">
<rect width="24" height="24" fill="white" transform="matrix(0.866025 -0.5 0.866025 0.5 25.7185 263.288)"/>
</clipPath>
<clipPath id="clip5_1544_1516">
<rect width="38" height="38" fill="white" transform="matrix(-0.866025 0.5 0.866025 0.5 492.246 121.139)"/>
</clipPath>
<clipPath id="clip6_1544_1516">
<rect width="21.3809" height="21.3807" fill="white" transform="matrix(0.874706 -0.484653 0.857263 0.514879 298.4 109.447)"/>
</clipPath>
<clipPath id="clip7_1544_1516">
<rect width="26" height="26" fill="white" transform="matrix(0.866025 -0.5 0.866025 0.5 304.999 428.704)"/>
</clipPath>
</defs>
</svg>
