<svg width="30" height="30" viewBox="0 0 30 30" fill="none" xmlns="http://www.w3.org/2000/svg">
<g clip-path="url(#clip0_1427_2130)">
<path d="M16.2673 20.7371L20.0803 24.5579C20.5285 25.0071 20.5285 25.7353 20.0803 26.1845L18.9779 27.2891C18.5297 27.7383 17.8029 27.7383 17.3547 27.2891L13.5417 23.4684C13.0935 23.0192 13.0935 22.291 13.5417 21.8418L14.6441 20.7371C15.0923 20.2879 15.8191 20.2879 16.2673 20.7371ZM5.43239 9.88005L9.24538 13.7008C9.69362 14.15 9.69362 14.8782 9.24538 15.3274L8.143 16.4321C7.69476 16.8812 6.96802 16.8812 6.51978 16.4321L2.70679 12.6113C2.25854 12.1621 2.25854 11.4339 2.70679 10.9847L3.80917 9.88005C4.25741 9.43093 4.98415 9.43093 5.43239 9.88005Z" fill="#0E3572" fill-opacity="0.4"/>
<path d="M16.2673 20.7371L20.0803 24.5579C20.5285 25.0071 20.5285 25.7353 20.0803 26.1845L18.9779 27.2891C18.5297 27.7383 17.8029 27.7383 17.3547 27.2891L13.5417 23.4684C13.0935 23.0192 13.0935 22.291 13.5417 21.8418L14.6441 20.7371C15.0923 20.2879 15.8191 20.2879 16.2673 20.7371ZM5.43239 9.88005L9.24538 13.7008C9.69362 14.15 9.69362 14.8782 9.24538 15.3274L8.143 16.4321C7.69476 16.8812 6.96802 16.8812 6.51978 16.4321L2.70679 12.6113C2.25854 12.1621 2.25854 11.4339 2.70679 10.9847L3.80917 9.88005C4.25741 9.43093 4.98415 9.43093 5.43239 9.88005Z" fill="white" fill-opacity="0.8"/>
<path fill-rule="evenodd" clip-rule="evenodd" d="M8.26113 26.273C10.5639 28.5757 14.2973 28.5757 16.6001 26.273L13.4044 23.0773C12.7009 23.7808 11.3036 24.2035 10.6001 23.5L7.52273 19.7433C6.1001 19.5 5.6001 17.5 6.8001 17L4.32718 14C2.0244 16.3028 2.0244 20.0363 4.32718 22.339L8.26113 26.273Z" fill="#0E3572" fill-opacity="0.4"/>
<path fill-rule="evenodd" clip-rule="evenodd" d="M7.40165 27.2898C10.1502 30.044 14.6066 30.044 17.3552 27.2898L13.5408 23.4676C12.7011 24.3091 11.3396 24.3091 10.4999 23.4676L6.52028 19.4799C5.68052 18.6385 5.68052 17.2742 6.52028 16.4327L2.70601 12.6106C-0.0426269 15.3649 -0.0426269 19.8303 2.70601 22.5845L7.40165 27.2898Z" stroke="#0E3572" stroke-miterlimit="10" stroke-linecap="round" stroke-linejoin="round"/>
<path d="M20.5044 0.644531C15.6161 0.644531 11.6533 4.61537 11.6533 9.51363C11.6533 11.0511 12.0439 12.4971 12.7308 13.7577L11.912 18.1235L16.2689 17.303C17.527 17.9913 18.97 18.3827 20.5043 18.3827C25.3926 18.3827 29.3554 14.4119 29.3554 9.51363C29.3554 4.61537 25.3927 0.644531 20.5044 0.644531Z" stroke="#0E3572" stroke-miterlimit="10" stroke-linecap="round" stroke-linejoin="round"/>
<path d="M22.1001 3C17.958 3 14.6001 6.35698 14.6001 10.498C14.6001 11.7978 14.9311 13.0202 15.5131 14.086L14.8193 17.7769L18.1001 17.4962C19.1661 18.0781 20.7999 17.996 22.1001 17.996C26.2422 17.996 29.6001 14.6391 29.6001 10.498C29.6001 6.35698 26.2423 3 22.1001 3Z" fill="#0E3572" fill-opacity="0.4"/>
<path d="M16.2671 20.7371L20.0801 24.5579C20.5283 25.0071 20.5283 25.7353 20.0801 26.1845L18.9777 27.2891C18.5294 27.7383 17.8027 27.7383 17.3545 27.2891L13.5415 23.4684C13.0932 23.0192 13.0932 22.291 13.5415 21.8418L14.6438 20.7371C15.0921 20.2879 15.8188 20.2879 16.2671 20.7371ZM5.43215 9.88005L9.24514 13.7008C9.69338 14.15 9.69338 14.8782 9.24514 15.3274L8.14275 16.4321C7.69451 16.8812 6.96777 16.8812 6.51953 16.4321L2.70654 12.6113C2.2583 12.1621 2.2583 11.4339 2.70654 10.9847L3.80893 9.88005C4.25717 9.43093 4.98391 9.43093 5.43215 9.88005Z" stroke="#0E3572" stroke-miterlimit="10" stroke-linecap="round" stroke-linejoin="round"/>
</g>
<defs>
<clipPath id="clip0_1427_2130">
<rect width="30" height="30" fill="white"/>
</clipPath>
</defs>
</svg>
