<svg width="94" height="39" viewBox="0 0 94 39" fill="none" xmlns="http://www.w3.org/2000/svg">
<g clip-path="url(#clip0_2356_7269)">
<path d="M29.1508 33.5902C29.294 33.8652 29.7408 34.7702 29.8783 35.0394L30.6058 33.5902H31.2702V33.9396H31.0468V35.3144H31.2702V35.6581H30.4225V35.3373C30.4683 35.3316 30.6516 35.3144 30.6974 35.3144V34.2146C30.5542 34.4838 30.1017 35.3946 29.9585 35.6581H29.7924L29.0591 34.2146V35.3144C29.105 35.3144 29.2883 35.3316 29.3341 35.3373V35.6581H28.4863V35.3144H28.7097V33.9396H28.4863V33.5902H29.1508Z" fill="#6982A7"/>
<path d="M33.7281 35.3144V34.9306H34.0718V35.6524H31.792V35.3087H32.0154V33.9339H31.792V33.5845H34.0088V34.2432H33.6594V33.9339H32.3648V34.4151H33.1782V34.7702H32.3648V35.3144H33.7281Z" fill="#6982A7"/>
<path d="M36.0651 33.9167V33.5959H37.0905V33.9454H36.7697L36.0594 34.5869L36.8785 35.3201H37.0905V35.6638H36.0823V35.3431L36.4031 35.3201L35.8245 34.7931C35.7042 34.9077 35.3663 35.2056 35.246 35.3201L35.5668 35.3431V35.6638H34.5586V35.3201H34.7705L35.5897 34.5869C35.4579 34.4666 35.0111 34.0657 34.8794 33.9454H34.5586V33.5959H35.5725V33.9167L35.3491 33.9396L35.8188 34.3807L36.2942 33.9396L36.0651 33.9167Z" fill="#6982A7"/>
<path d="M38.1386 35.3144H38.3849V35.6581H37.5371V35.3144H37.7834V33.9396H37.5371V33.5902H38.3849V33.9396H38.1386V35.3144Z" fill="#6982A7"/>
<path d="M40.6075 33.7048C40.6132 33.6819 40.6362 33.6189 40.6419 33.5902H40.9512V34.3177H40.6247L40.6075 34.1058C40.4987 33.974 40.2581 33.8766 39.9602 33.8766C39.5077 33.8766 39.1984 34.1401 39.1984 34.6041C39.1984 35.0796 39.5421 35.366 40.0003 35.366C40.3383 35.366 40.6419 35.1712 40.6992 34.8275C40.7393 34.8447 40.9569 34.9421 40.997 34.9535C40.934 35.5264 40.4185 35.7269 39.9545 35.7269C39.29 35.7269 38.8203 35.2514 38.8203 34.6041C38.8203 33.8996 39.3244 33.5272 39.9717 33.5272C40.2409 33.5272 40.4529 33.596 40.6075 33.7048Z" fill="#6982A7"/>
<path d="M42.813 33.5616C42.9676 33.8709 43.5233 35.0051 43.6779 35.3144C43.718 35.3201 43.7581 35.3201 43.9013 35.3201V35.6638H43.0765L43.065 35.3488C43.1051 35.3488 43.2426 35.3316 43.2884 35.3259L43.0994 34.9478H42.1428L41.9537 35.3259L42.1657 35.3488C42.16 35.4175 42.16 35.5894 42.16 35.6638H41.3408V35.3201C41.4783 35.3201 41.5184 35.3201 41.5642 35.3144L42.4235 33.5616H42.813ZM42.9447 34.6041C42.8416 34.3979 42.7442 34.186 42.6239 33.9396L42.3032 34.6041H42.9447Z" fill="#6982A7"/>
<path d="M46.7767 33.9396H46.5533V35.6581H46.1981L44.8463 34.1344V35.3144H45.1384V35.6581H44.2734V35.3144H44.4968V33.9396H44.2734V33.5902H44.8463L46.2038 35.1311V33.9396H45.9117V33.5959H46.7767V33.9396Z" fill="#6982A7"/>
<path d="M50.0016 33.7048C50.0073 33.6819 50.0302 33.6189 50.0359 33.5902H50.3453V34.3177H50.0187L50.0016 34.1058C49.8927 33.974 49.6521 33.8766 49.3543 33.8766C48.9017 33.8766 48.5924 34.1401 48.5924 34.6041C48.5924 35.0796 48.9361 35.366 49.3944 35.366C49.7323 35.366 50.0359 35.1712 50.0932 34.8275C50.1333 34.8447 50.351 34.9421 50.3911 34.9535C50.3281 35.5264 49.8125 35.7269 49.3485 35.7269C48.6841 35.7269 48.2144 35.2514 48.2144 34.6041C48.2144 33.8996 48.7184 33.5272 49.3657 33.5272C49.635 33.5272 49.8526 33.596 50.0016 33.7048Z" fill="#6982A7"/>
<path d="M50.8667 34.6327C50.8667 33.9511 51.302 33.5157 51.9608 33.5157C52.6253 33.5157 53.0663 33.9568 53.0663 34.6098C53.0663 35.2915 52.631 35.7268 51.9722 35.7268C51.3078 35.7326 50.8667 35.2858 50.8667 34.6327ZM51.9608 33.8537C51.514 33.8537 51.2333 34.1344 51.2333 34.6041C51.2333 35.0853 51.514 35.3946 51.9665 35.3946C52.4133 35.3946 52.6997 35.1139 52.6997 34.6442C52.6997 34.1688 52.4133 33.8537 51.9608 33.8537Z" fill="#6982A7"/>
<path d="M55.3116 33.7048C55.3173 33.6819 55.3403 33.6189 55.346 33.5902H55.6553V34.3177H55.3288L55.3116 34.1058C55.2028 33.974 54.9622 33.8766 54.6643 33.8766C54.2118 33.8766 53.9025 34.1401 53.9025 34.6041C53.9025 35.0796 54.2462 35.366 54.7044 35.366C55.0424 35.366 55.346 35.1712 55.4033 34.8275C55.4434 34.8447 55.661 34.9421 55.7011 34.9535C55.6381 35.5264 55.1226 35.7269 54.6586 35.7269C53.9941 35.7269 53.5244 35.2514 53.5244 34.6041C53.5244 33.8996 54.0285 33.5272 54.6758 33.5272C54.945 33.5272 55.1627 33.596 55.3116 33.7048Z" fill="#6982A7"/>
<path d="M56.7953 35.3144H57.0416V35.6581H56.1938V35.3144H56.4402V33.9396H56.1938V33.5902H57.0416V33.9396H56.7953V35.3144Z" fill="#6982A7"/>
<path d="M60.0604 33.9396H59.837V35.6581H59.4818L58.13 34.1344V35.3144H58.4221V35.6581H57.5571V35.3144H57.7805V33.9396H57.5571V33.5902H58.13L59.4875 35.1311V33.9396H59.1954V33.5959H60.0604V33.9396Z" fill="#6982A7"/>
<path d="M61.7843 33.5616C61.939 33.8709 62.4946 35.0051 62.6493 35.3144C62.6894 35.3201 62.7294 35.3201 62.8727 35.3201V35.6638H62.0535L62.0421 35.3488C62.0822 35.3488 62.2196 35.3316 62.2655 35.3259L62.0764 34.9478H61.1198L60.9308 35.3259L61.1427 35.3488C61.137 35.4175 61.137 35.5894 61.137 35.6638H60.3179V35.3201C60.4553 35.3201 60.4954 35.3201 60.5413 35.3144L61.4005 33.5616H61.7843ZM61.9103 34.6041C61.8072 34.3979 61.7098 34.186 61.5895 33.9396L61.2688 34.6041H61.9103Z" fill="#6982A7"/>
<path d="M54.8132 9.53173C54.2576 8.97609 53.4842 8.62667 52.6365 8.62667C51.7887 8.62667 51.0211 8.97036 50.4597 9.53173C49.9041 10.0874 49.5547 10.8607 49.5547 11.7084V20.5643C49.5547 20.6846 49.5031 20.7934 49.4287 20.8736C49.3485 20.9538 49.2396 20.9996 49.1193 20.9996C48.9991 20.9996 48.8902 20.9481 48.81 20.8736C48.7298 20.7934 48.6783 20.6846 48.6783 20.5643V3.29943C48.6783 2.45165 48.3346 1.68407 47.7732 1.12271C47.2176 0.567072 46.4443 0.217651 45.6022 0.217651C44.7544 0.217651 43.9869 0.561344 43.4255 1.12271C42.8699 1.67835 42.5204 2.45165 42.5204 3.29943V19.1494C42.5204 19.2697 42.4689 19.3785 42.3887 19.4587C42.3085 19.5389 42.1997 19.5847 42.0794 19.5847C41.9591 19.5847 41.8502 19.5332 41.77 19.4587C41.6899 19.3785 41.644 19.2697 41.644 19.1494V14.796C41.644 13.9482 41.3003 13.1806 40.739 12.6192C40.1833 12.0636 39.41 11.7142 38.5622 11.7142C37.7145 11.7142 36.9469 12.0579 36.3855 12.6192C35.8299 13.1749 35.4805 13.9482 35.4805 14.796V18.7427C35.4805 20.5585 36.2251 22.2083 37.4166 23.3997C38.6138 24.5969 40.2635 25.3359 42.0736 25.3359C42.2226 25.3359 42.3658 25.3301 42.5147 25.3187V27.6386C42.5147 28.4864 42.8584 29.254 43.4198 29.8153C43.9754 30.371 44.7487 30.7204 45.5965 30.7204C46.4443 30.7204 47.2119 30.3767 47.7732 29.8153C48.3289 29.2597 48.6783 28.4864 48.6783 27.6386V27.1345C48.8215 27.146 48.9704 27.1517 49.1193 27.1517C50.9352 27.1517 52.5849 26.407 53.7764 25.2156C54.9736 24.0184 55.7125 22.3687 55.7125 20.5585V11.7027C55.7125 10.8549 55.3688 10.0874 54.8132 9.53173ZM44.0499 1.74708C44.4509 1.34611 45.0008 1.0998 45.6022 1.0998C46.2037 1.0998 46.7536 1.34611 47.1546 1.74708C47.5555 2.14806 47.8019 2.69797 47.8019 3.29943V18.7484C47.8019 19.7279 47.5498 20.6445 47.1145 21.4521C46.9942 21.1772 46.9197 20.8793 46.9197 20.5585V18.7427V3.29943C46.9197 2.93855 46.7708 2.60632 46.5302 2.37146C46.2896 2.13087 45.9631 1.98194 45.5965 1.98194C45.2356 1.98194 44.9034 2.13087 44.6628 2.37146C44.4222 2.61204 44.2733 2.93855 44.2733 3.30516V18.7542C44.2733 19.3556 44.027 19.9055 43.626 20.3065C43.5515 20.381 43.4713 20.444 43.3911 20.507V19.1609V3.29943C43.4026 2.69797 43.6489 2.14806 44.0499 1.74708ZM53.0775 20.5643C53.0775 21.6526 52.6307 22.6436 51.9147 23.3596C51.1987 24.0757 50.2077 24.5225 49.1193 24.5225C48.1456 24.5225 47.252 24.1673 46.5646 23.5773C46.6276 23.52 46.6849 23.4627 46.7421 23.4055C46.8911 23.2565 47.0343 23.1019 47.166 22.9357C47.6987 23.3768 48.3804 23.6403 49.1193 23.6403C49.9671 23.6403 50.7347 23.2966 51.2961 22.7353C51.8517 22.1796 52.2011 21.4063 52.2011 20.5585V11.7027C52.2011 11.5824 52.2527 11.4736 52.3329 11.3934C52.4131 11.3132 52.5219 11.2674 52.6422 11.2674C52.7625 11.2674 52.8713 11.3189 52.9515 11.3991C53.0317 11.4793 53.0833 11.5882 53.0833 11.7084V20.5643H53.0775ZM45.1611 27.6443V25.8285C45.4361 26.0347 45.734 26.2237 46.0433 26.3899V27.6443C46.0433 27.7646 45.9917 27.8735 45.9115 27.9537C45.8314 28.0339 45.7225 28.0854 45.6022 28.0854C45.4819 28.0854 45.3731 28.0339 45.2929 27.9594C45.2127 27.8792 45.1611 27.7646 45.1611 27.6443ZM44.5024 23.921C44.3306 23.6804 44.1702 23.4284 44.0384 23.1649C44.3076 23.0446 44.5654 22.9014 44.806 22.7353C44.9378 22.9988 45.0981 23.2451 45.2757 23.4799C45.0294 23.646 44.7716 23.795 44.5024 23.921ZM39.0033 14.796V18.7427C39.0033 19.5905 39.347 20.3581 39.9084 20.9194C40.464 21.4751 41.2373 21.8245 42.0851 21.8245C42.2741 21.8245 42.4574 21.8073 42.6407 21.7729C42.698 22.0651 42.7668 22.3515 42.8641 22.6264C42.6121 22.678 42.3543 22.7066 42.0908 22.7066C41.0025 22.7066 40.0115 22.2598 39.2955 21.5438C38.5794 20.8278 38.1326 19.8368 38.1326 18.7484V14.8017C38.1326 14.6814 38.1842 14.5726 38.2644 14.4924C38.3446 14.4122 38.4534 14.3606 38.5737 14.3606C38.694 14.3606 38.8028 14.4122 38.883 14.4866C38.9575 14.5668 39.0033 14.6757 39.0033 14.796ZM43.4771 21.4808C43.7635 21.3318 44.027 21.1428 44.2561 20.9194C44.2676 20.908 44.279 20.8908 44.2905 20.8793C44.3134 21.2287 44.3764 21.5667 44.468 21.8932C44.2275 22.0765 43.9697 22.2312 43.689 22.3572C43.6031 22.0708 43.5286 21.7844 43.4771 21.4808ZM46.0433 18.7427C46.0433 19.6478 45.734 20.4841 45.2127 21.1543C45.1841 20.9595 45.1611 20.7648 45.1611 20.5585V3.29943C45.1611 3.17914 45.2127 3.0703 45.2929 2.99011C45.3731 2.90991 45.4819 2.86409 45.6022 2.86409C45.7225 2.86409 45.8314 2.91564 45.9115 2.99584C45.9917 3.07603 46.0376 3.18487 46.0376 3.30516V18.7427H46.0433ZM45.5048 22.1567C45.7454 21.9161 45.9631 21.6469 46.1521 21.3548C46.2438 21.687 46.3813 21.9963 46.5703 22.277C46.4328 22.4546 46.2839 22.6207 46.1235 22.7811C46.0719 22.8326 46.0204 22.8842 45.9631 22.93C45.7798 22.6952 45.6251 22.4374 45.5048 22.1567ZM38.0467 22.7811C37.0099 21.7443 36.3683 20.318 36.3683 18.7427V14.796C36.3683 14.1945 36.6147 13.6446 37.0156 13.2436C37.4166 12.8426 37.9665 12.5963 38.568 12.5963C39.1694 12.5963 39.7193 12.8426 40.1203 13.2436C40.5213 13.6446 40.7676 14.1945 40.7676 14.796V19.1494C40.7676 19.5103 40.9165 19.8425 41.1571 20.0774C41.3977 20.318 41.7242 20.4669 42.0851 20.4669C42.2398 20.4669 42.3887 20.4382 42.5262 20.3867V20.5585C42.5262 20.6731 42.5319 20.7819 42.5376 20.8965C42.3944 20.9251 42.2455 20.9423 42.0908 20.9423C41.4894 20.9423 40.9395 20.696 40.5385 20.295C40.1375 19.8941 39.8912 19.3442 39.8912 18.7427V14.796C39.8912 14.4351 39.7423 14.1028 39.5017 13.8623C39.2611 13.6217 38.9346 13.4727 38.568 13.4727C38.2071 13.4727 37.8749 13.6217 37.6343 13.8623C37.3937 14.1028 37.2448 14.4293 37.2448 14.796V18.7427C37.2448 20.0716 37.7889 21.2803 38.6654 22.1567C39.5418 23.0331 40.7504 23.5773 42.0794 23.5773C42.4632 23.5773 42.8355 23.5315 43.1906 23.4456C43.3224 23.7205 43.4771 23.984 43.6489 24.2361C43.1505 24.3793 42.6236 24.4595 42.0794 24.4595C40.5156 24.4595 39.0835 23.8179 38.0467 22.7811ZM47.8019 27.6443C47.8019 28.2458 47.5555 28.7957 47.1546 29.1967C46.7536 29.5977 46.2037 29.844 45.6022 29.844C45.0008 29.844 44.4509 29.5977 44.0499 29.1967C43.6489 28.7957 43.4026 28.2458 43.4026 27.6443V25.2041C43.6833 25.1468 43.964 25.0666 44.2332 24.975C44.2504 24.9922 44.2675 25.0094 44.2847 25.0323V27.6443C44.2847 28.0052 44.4337 28.3375 44.6743 28.578C44.9148 28.8186 45.2413 28.9676 45.608 28.9676C45.9688 28.9676 46.3011 28.8186 46.5417 28.578C46.7822 28.3375 46.9312 28.0109 46.9312 27.6443V26.7737C47.2176 26.8768 47.5097 26.957 47.8133 27.02V27.6443H47.8019ZM53.1577 24.5969C52.1209 25.6337 50.6946 26.2753 49.1193 26.2753C47.5555 26.2753 46.1292 25.6337 45.0924 24.6027C45.3616 24.4652 45.6251 24.3048 45.8715 24.1329C46.7307 24.9177 47.8763 25.3932 49.1193 25.3932C50.4483 25.3932 51.6569 24.849 52.5334 23.9726C53.4098 23.0961 53.954 21.8875 53.954 20.5585V11.7027C53.954 11.3418 53.805 11.0096 53.5644 10.769C53.3239 10.5284 52.9973 10.3795 52.6307 10.3795C52.2699 10.3795 51.9376 10.5284 51.697 10.769C51.4565 11.0096 51.3075 11.3361 51.3075 11.7027V20.5643C51.3075 21.1657 51.0612 21.7156 50.6602 22.1166C50.2593 22.5176 49.7094 22.7639 49.1079 22.7639C48.558 22.7639 48.0596 22.5577 47.6701 22.2254C47.8305 21.9677 47.9737 21.6985 48.0997 21.4178C48.1226 21.4464 48.1513 21.4751 48.1742 21.498C48.4148 21.7386 48.7413 21.8875 49.1079 21.8875C49.4688 21.8875 49.801 21.7386 50.0359 21.498C50.2764 21.2574 50.4254 20.9309 50.4254 20.57V11.7027C50.4254 11.1013 50.6717 10.5513 51.0727 10.1504C51.4736 9.7494 52.0236 9.50309 52.625 9.50309C53.2265 9.50309 53.7764 9.7494 54.1774 10.1504C54.5783 10.5513 54.8246 11.1013 54.8246 11.7027V20.5643C54.8361 22.1338 54.1945 23.5601 53.1577 24.5969Z" fill="#6982A7"/>
<path d="M59.7393 24.4995C60.0371 24.173 60.2319 23.6747 60.2319 22.4718V15.3287C60.2319 14.1257 60.0199 13.6331 59.7393 13.3009V13.1348H64.7457C66.2923 13.1348 66.9167 13.7763 66.9167 15.3058V17.9751C66.9167 19.5045 66.2923 20.1461 64.7457 20.1461H62.7065V22.466C62.7065 23.669 62.9184 24.1616 63.2163 24.4938V24.6599H59.745V24.4995H59.7393ZM64.4479 16.039C64.4479 15.363 64.1844 15.1167 63.5256 15.1167H62.7007V18.1813H63.5256C64.1844 18.1813 64.4479 17.935 64.4479 17.2591V16.039Z" fill="#6982A7"/>
<path d="M75.8239 24.6657H72.8453L71.2299 19.9914H70.7545V22.4775C70.7545 23.6804 70.9664 24.173 71.2643 24.5053V24.6714H67.793V24.5053C68.0908 24.1788 68.2856 23.6804 68.2856 22.4775V15.3287C68.2856 14.1257 68.0737 13.6331 67.793 13.3009V13.1348H72.8796C74.4262 13.1348 75.0506 13.7763 75.0506 15.3058V17.809C75.0506 19.0463 74.6382 19.705 73.6816 19.917L74.6038 22.4718C75.0334 23.6747 75.4115 24.1673 75.8239 24.4995V24.6657ZM72.5818 16.039C72.5818 15.363 72.3183 15.1167 71.6595 15.1167H70.7545V18.0152H71.6595C72.3183 18.0152 72.5818 17.7689 72.5818 17.093V16.039Z" fill="#6982A7"/>
<path d="M78.6422 13.1404H81.3116C82.8582 13.1404 83.4826 13.7819 83.4826 15.3114V22.4888C83.4826 24.0183 82.8582 24.6598 81.3116 24.6598H78.6422C77.0956 24.6598 76.4712 24.0183 76.4712 22.4888V15.3171C76.4655 13.7819 77.0956 13.1404 78.6422 13.1404ZM81.0137 16.0045C81.0137 15.3457 80.7674 15.1166 80.1258 15.1166H79.828C79.1864 15.1166 78.9401 15.3457 78.9401 16.0045V21.8014C78.9401 22.4602 79.1864 22.6893 79.828 22.6893H80.1258C80.7674 22.6893 81.0137 22.4602 81.0137 21.8014V16.0045Z" fill="#6982A7"/>
<path d="M90.6256 16.2853H90.4595C89.9669 15.5922 89.2107 15.1167 88.2885 15.1167H88.025C87.4178 15.1167 87.1715 15.3459 87.1715 15.9702V16.6462C87.1715 17.1388 87.2861 17.3679 87.7501 17.6314L89.6289 18.6854C90.7001 19.2754 90.912 19.8024 90.912 20.9595V22.4889C90.912 24.0184 90.2876 24.6599 88.741 24.6599H84.7084V21.5151H84.8745C85.3671 22.2083 86.1232 22.6837 87.0455 22.6837H87.5897C88.1797 22.6837 88.4317 22.4546 88.4432 21.8417V21.4292C88.4432 20.9366 88.3286 20.7075 87.8646 20.444L85.9858 19.39C84.9146 18.8 84.7026 18.273 84.7026 17.1159V15.3058C84.7026 13.7763 85.327 13.1348 86.8736 13.1348H90.6256V16.2853Z" fill="#6982A7"/>
<path d="M0.503906 13.1404H8.0136V16.2852H7.84748C7.3033 15.4947 6.44979 15.1166 5.52755 15.1166H5.49318V22.4774C5.49318 23.6803 5.70512 24.1729 6.00299 24.5052V24.6713H2.52597V24.5052C2.82383 24.1786 3.01859 23.6803 3.01859 22.4774V15.1166H2.98995C2.06771 15.1166 1.2142 15.4947 0.670024 16.2852H0.503906V13.1404Z" fill="#6982A7"/>
<path d="M10.6258 24.6657H7.33203V24.4995C7.67572 24.173 7.97359 23.6747 8.23709 22.4718L9.78371 15.3287C10.0472 14.1257 9.93264 13.6331 9.68633 13.3009V13.1348H13.9023V13.3009C13.656 13.6274 13.5414 14.1257 13.8049 15.3287L15.3515 22.4718C15.615 23.6747 15.9129 24.1673 16.2566 24.4995V24.6657H12.7681V24.4995C12.9972 24.1845 13.1003 23.6919 12.8827 22.5405H10.5112C10.2992 23.6919 10.3794 24.1845 10.6258 24.4995V24.6657ZM10.8434 20.6502H12.5562L11.7027 16.0046L10.8434 20.6502Z" fill="#6982A7"/>
<path d="M18.8917 13.1404H22.8613V16.2852H22.6952C22.151 15.4947 21.2975 15.1166 20.3753 15.1166H20.1805C19.4702 15.1166 19.1953 15.3801 19.1953 16.1019V21.6983C19.1953 22.4201 19.476 22.6836 20.1805 22.6836H20.3753C21.2975 22.6836 22.151 22.3055 22.6952 21.515H22.8613V24.6598H18.8917C17.3451 24.6598 16.7207 24.0183 16.7207 22.4888V15.3171C16.7207 13.7819 17.3451 13.1404 18.8917 13.1404Z" fill="#6982A7"/>
<path d="M26.252 13.1404H28.9214C30.468 13.1404 31.0924 13.7819 31.0924 15.3114V22.4888C31.0924 24.0183 30.468 24.6598 28.9214 24.6598H26.252C24.7054 24.6598 24.0811 24.0183 24.0811 22.4888V15.3171C24.0811 13.7819 24.7054 13.1404 26.252 13.1404ZM28.6235 16.0045C28.6235 15.3457 28.3772 15.1166 27.7357 15.1166H27.4378C26.7962 15.1166 26.5499 15.3457 26.5499 16.0045V21.8014C26.5499 22.4602 26.7962 22.6893 27.4378 22.6893H27.7357C28.3772 22.6893 28.6235 22.4602 28.6235 21.8014V16.0045Z" fill="#6982A7"/>
<path d="M48.6842 38.3046H42.5264V38.7342H48.6842V38.3046Z" fill="#6982A7"/>
<path d="M38.2761 9.6119C38.3964 9.7952 38.4938 9.98996 38.5682 10.1904C38.6427 9.98996 38.7401 9.7952 38.8604 9.61763C38.9807 9.46297 39.1124 9.31976 39.2614 9.19374C39.2499 8.87869 39.1869 8.56936 39.0666 8.28295C38.9463 7.99654 38.7802 7.73877 38.574 7.50964C38.1501 7.97363 37.9038 8.56936 37.8809 9.19374C38.0241 9.31976 38.1558 9.46297 38.2761 9.6119Z" fill="#6982A7"/>
<path d="M37.0556 8.9761C36.5114 8.70687 35.887 8.64386 35.3027 8.79279C35.5433 9.34843 35.9672 9.80096 36.5171 10.0759C37.0498 10.3394 37.657 10.4081 38.2299 10.2707C38.1554 10.0759 38.0637 9.89261 37.9492 9.72076C37.72 9.40571 37.4107 9.14794 37.0556 8.9761Z" fill="#6982A7"/>
<path d="M40.619 10.0702C41.1632 9.80095 41.5928 9.34842 41.8334 8.78706C41.2434 8.63812 40.6247 8.70113 40.0805 8.97036C39.7311 9.1422 39.4218 9.39997 39.1812 9.7093C39.0724 9.87542 38.975 10.0644 38.9062 10.2592C39.4791 10.4024 40.0863 10.3337 40.619 10.0702Z" fill="#6982A7"/>
<path d="M37.823 10.7117C37.6741 10.7117 37.5309 10.6945 37.3877 10.6716C37.6913 10.9752 38.1037 11.1642 38.5677 11.1642C39.0317 11.1642 39.4499 10.9752 39.7477 10.6716C39.6045 10.6945 39.4556 10.7117 39.3124 10.7117C39.0718 10.7117 38.8255 10.6773 38.5906 10.6143L38.5734 10.6086L38.5563 10.6143C38.3099 10.6773 38.0636 10.7117 37.823 10.7117Z" fill="#6982A7"/>
<path d="M40.0114 8.63813C40.1031 8.5923 40.189 8.55794 40.2864 8.52357C40.3723 8.24861 40.3837 7.9622 40.315 7.68152C39.9541 7.76744 39.6276 7.91638 39.3584 8.12259C39.4615 8.38609 39.5188 8.66104 39.536 8.94173C39.6849 8.82716 39.8453 8.72405 40.0114 8.63813Z" fill="#6982A7"/>
<path d="M37.6456 8.94745C37.657 8.71833 37.7028 8.49492 37.7716 8.27725C37.4737 7.99657 37.0842 7.78463 36.6431 7.68152C36.5801 7.93929 36.5858 8.19706 36.6489 8.44337C36.8264 8.4892 37.004 8.55221 37.1701 8.63813C37.3362 8.72405 37.4966 8.82716 37.6456 8.94745Z" fill="#6982A7"/>
<path d="M91.8575 14.2919C91.5768 14.2919 91.3477 14.0627 91.3477 13.7821C91.3477 13.5014 91.5768 13.2723 91.8575 13.2723C92.1382 13.2723 92.3673 13.5014 92.3673 13.7821C92.3673 14.0627 92.1382 14.2919 91.8575 14.2919ZM91.8575 13.1405C91.5081 13.1405 91.2217 13.4269 91.2217 13.7763C91.2217 14.1258 91.5081 14.4122 91.8575 14.4122C92.2069 14.4122 92.4933 14.1258 92.4933 13.7763C92.4933 13.4269 92.2127 13.1405 91.8575 13.1405Z" fill="#6982A7"/>
<path d="M91.8805 13.8279H91.7372V13.53H91.8805C92.1039 13.53 92.1039 13.8279 91.8805 13.8279ZM91.8633 13.4498H91.6284V14.1143H91.7372V13.9195H91.9148L92.0294 14.1143H92.144L92.0179 13.8852C92.207 13.7935 92.207 13.4498 91.8633 13.4498Z" fill="#6982A7"/>
</g>
<defs>
<clipPath id="clip0_2356_7269">
<rect width="94" height="38.9519" fill="white"/>
</clipPath>
</defs>
</svg>
