<svg width="52" height="52" viewBox="0 0 52 52" fill="none" xmlns="http://www.w3.org/2000/svg">
<g clip-path="url(#clip0_2321_379)">
<path d="M41.1816 4.54517H47.828" stroke="#0E3572" stroke-miterlimit="10" stroke-linecap="round" stroke-linejoin="round"/>
<path d="M37.4062 4.54517H38.2164" stroke="#0E3572" stroke-miterlimit="10" stroke-linecap="round" stroke-linejoin="round"/>
<path d="M37.4062 8.12329H47.8269" stroke="#0E3572" stroke-miterlimit="10" stroke-linecap="round" stroke-linejoin="round"/>
<path d="M32.0589 18.3491V21.4658C32.0589 22.7531 31.0154 23.7966 29.728 23.7966H27.8066" stroke="#0E3572" stroke-miterlimit="10" stroke-linecap="round" stroke-linejoin="round"/>
<path d="M38.3719 47.9309H2.39961C1.495 47.9309 0.761719 48.6641 0.761719 49.5688C0.761719 50.4733 1.495 51.2065 2.39961 51.2065H38.3719C39.2765 51.2065 40.0098 50.4733 40.0098 49.5688C40.0098 48.6641 39.2765 47.9309 38.3719 47.9309Z" stroke="#0E3572" stroke-miterlimit="10" stroke-linecap="round" stroke-linejoin="round"/>
<path d="M22.4297 47.9309C22.4297 46.5887 22.9327 45.2982 23.8307 44.3007L23.8508 44.2782C24.5852 43.4566 25.0318 42.3723 25.0318 41.1835C25.0318 39.4512 24.0835 37.9403 22.6776 37.1417C22.4109 36.99 22.0797 37.1807 22.0797 37.4874V40.9436C22.0797 41.5229 21.6101 41.9926 21.0307 41.9926H19.7413C19.162 41.9926 18.6922 41.5229 18.6922 40.9436V37.4874C18.6922 37.1807 18.3609 36.99 18.0942 37.1417C16.6885 37.9403 15.7402 39.4512 15.7402 41.1835C15.7402 42.3723 16.1868 43.4566 16.9212 44.2782L16.9413 44.3007C17.8393 45.2982 18.3423 46.5887 18.3423 47.9309" stroke="#0E3572" stroke-miterlimit="10" stroke-linecap="round" stroke-linejoin="round"/>
<path d="M4.68945 44.9585L4.85073 47.9309" stroke="#0E3572" stroke-miterlimit="10" stroke-linecap="round" stroke-linejoin="round"/>
<path d="M35.922 47.9309L36.6769 34.0228C36.7495 32.6836 35.6833 31.5579 34.3421 31.5579H6.43002C5.08889 31.5579 4.02259 32.6836 4.09531 34.0228L4.49689 41.4232" stroke="#0E3572" stroke-miterlimit="10" stroke-linecap="round" stroke-linejoin="round"/>
<path d="M36.3018 48.0601L36.9968 36.1677C37.0636 35.0226 36.0821 34.0601 34.8474 34.0601H9.15249C7.91789 34.0601 6.93629 35.0226 7.00323 36.1677L7.37291 42.4956" fill="#0E3572" fill-opacity="0.1"/>
<path d="M39.4 48.2949V45.1041C39.4 42.0309 38.3322 39.1696 36.5195 36.9093" stroke="#0E3572" stroke-miterlimit="10" stroke-linecap="round" stroke-linejoin="round"/>
<path d="M4.2516 36.909C2.43892 39.1693 1.37109 42.0306 1.37109 45.1039V48.2947" stroke="#0E3572" stroke-miterlimit="10" stroke-linecap="round" stroke-linejoin="round"/>
<path d="M28.141 7.04127H28.0556C27.9432 7.04128 27.8318 7.01915 27.728 6.97614C27.6241 6.93313 27.5297 6.87008 27.4503 6.7906C27.3708 6.71111 27.3077 6.61675 27.2647 6.51289C27.2217 6.40903 27.1995 6.29772 27.1995 6.1853C27.1995 4.78547 26.0649 3.65071 24.665 3.65071H16.598C13.0079 3.65071 10.0977 6.56098 10.0977 10.1511V14.4469C10.0976 14.7547 10.1934 15.055 10.3718 15.3059C10.5501 15.5569 10.8021 15.7461 11.0929 15.8473L12.694 16.4048C13.2537 16.5997 13.8382 16.1836 13.8373 15.591L13.8337 12.5618C13.8276 11.0886 15.0024 9.88927 16.4578 9.88298L16.4895 9.88288C16.9331 9.88109 17.3742 9.94944 17.7965 10.0854C18.5421 10.325 19.3148 10.4702 20.0981 10.4669H20.6751C21.4583 10.4702 22.231 10.325 22.9767 10.0854C23.3989 9.94944 23.84 9.88109 24.2837 9.88288L24.3153 9.88298C25.7707 9.88927 26.9455 11.0886 26.9394 12.5618L26.9365 15.5912C26.9357 16.1838 27.5201 16.5997 28.0796 16.4048L29.6804 15.8473C29.9711 15.7461 30.2231 15.5569 30.4014 15.3059C30.5797 15.055 30.6755 14.7548 30.6755 14.447V9.57585C30.6755 8.17602 29.5407 7.04127 28.141 7.04127Z" stroke="#0E3572" stroke-miterlimit="10" stroke-linecap="round" stroke-linejoin="round"/>
<path d="M12.0723 20.2645H12.0865C12.1425 22.4739 13.0688 24.5969 14.7321 26.0342C16.0713 27.1914 17.951 28.1984 20.4286 28.2158C22.9059 28.1772 24.7773 27.1542 26.1066 25.9856C27.7252 24.5629 28.6279 22.4875 28.6987 20.3247" stroke="#0E3572" stroke-miterlimit="10" stroke-linecap="round" stroke-linejoin="round"/>
<path fill-rule="evenodd" clip-rule="evenodd" d="M14.0131 21.1947C14.0131 21.1947 14.0131 21.1947 14.0131 21.1947Z" fill="#0E3572" fill-opacity="0.1"/>
<path d="M16.4419 26.1764C14.9149 24.9353 14.0645 23.1023 14.0131 21.1947V17.9961C14.5986 18.14 15.7698 18.2552 15.7698 17.5644C15.7698 17.3132 15.7129 16.9157 15.6488 16.4677C15.4925 15.3763 15.2933 13.9851 15.7698 13.679C15.9127 13.5872 16.0364 13.4563 16.1734 13.3114C16.6807 12.7746 17.3712 12.0439 19.9012 12.3838C20.8569 12.5123 21.894 12.3733 22.8914 12.2396C25.2473 11.9239 27.3823 11.6378 27.7048 14.9741C28.0513 18.5583 28.6592 18.2077 29.3313 17.8202C29.5497 17.6943 29.7748 17.5644 30 17.5644C29.7548 17.8522 29.2644 18.6005 29.2644 19.2913V21.2467C29.1994 23.1141 28.3706 24.906 26.8846 26.1344C25.6642 27.1434 23.9461 28.0267 21.6718 28.0601C19.3971 28.045 17.6714 27.1755 16.4419 26.1764Z" fill="#0E3572" fill-opacity="0.1"/>
<path d="M10.096 14.1131C9.30822 14.2582 8.71094 14.9472 8.71094 15.7769V18.67C8.71094 19.6052 9.469 20.3633 10.4042 20.3633H12.0718V16.1887" stroke="#0E3572" stroke-miterlimit="10" stroke-linecap="round" stroke-linejoin="round"/>
<path d="M28.6992 16.1889V20.3633H30.3668C31.302 20.3633 32.06 19.6052 32.06 18.6701V15.777C32.06 14.9473 31.4627 14.2582 30.6749 14.1132" stroke="#0E3572" stroke-miterlimit="10" stroke-linecap="round" stroke-linejoin="round"/>
<path d="M26.1346 24.9922H24.223C23.4936 24.9922 22.9023 24.401 22.9023 23.6717C22.9023 22.9423 23.4936 22.3511 24.223 22.3511H26.1346C26.8639 22.3511 27.4551 22.9423 27.4551 23.6717C27.4551 24.401 26.8639 24.9922 26.1346 24.9922Z" stroke="#0E3572" stroke-miterlimit="10" stroke-linecap="round" stroke-linejoin="round"/>
<path d="M25.787 31.5579C25.0871 31.1784 24.625 30.4405 24.625 29.6094V27.056" stroke="#0E3572" stroke-miterlimit="10" stroke-linecap="round" stroke-linejoin="round"/>
<path d="M16.1467 27.0481V29.6094C16.1467 30.4547 15.6711 31.1834 14.9824 31.5579" stroke="#0E3572" stroke-miterlimit="10" stroke-linecap="round" stroke-linejoin="round"/>
<path d="M51.2378 4.4831V3.00883C51.2378 1.78541 50.246 0.793654 49.0225 0.793654H36.2114C34.9878 0.793654 33.9961 1.78541 33.9961 3.00883V9.41618C33.9961 10.6396 34.9878 11.6314 36.2114 11.6314C36.9259 11.6314 37.5051 12.2106 37.5051 12.9251V16.8875C37.5051 17.3905 38.1676 17.574 38.4262 17.1425L41.3544 12.2597C41.4693 12.0681 41.6319 11.9095 41.8263 11.7994C42.0208 11.6892 42.2404 11.6314 42.4638 11.6314H49.0225C50.246 11.6314 51.2378 10.6396 51.2378 9.41618V8.04428" stroke="#0E3572" stroke-miterlimit="10" stroke-linecap="round" stroke-linejoin="round"/>
</g>
<defs>
<clipPath id="clip0_2321_379">
<rect width="52" height="52" fill="white"/>
</clipPath>
</defs>
</svg>
