<svg width="276" height="145" viewBox="0 0 276 145" fill="none" xmlns="http://www.w3.org/2000/svg">
<rect width="276" height="145" rx="8" fill="url(#paint0_linear_1893_2000)"/>
<g clip-path="url(#clip0_1893_2000)">
<mask id="path-2-inside-1_1893_2000" fill="white">
<path d="M205.062 85.1147L241.324 85.1909V104.988L158.525 151.179L75 104.989V84.8442L111.345 84.9194L158.027 59.144L205.062 85.1147Z"/>
</mask>
<path d="M205.062 85.1147L241.324 85.1909V104.988L158.525 151.179L75 104.989V84.8442L111.345 84.9194L158.027 59.144L205.062 85.1147Z" fill="#0E3572"/>
<path d="M205.062 85.1147L204.889 85.4288L204.97 85.4733L205.062 85.4735L205.062 85.1147ZM241.324 85.1909H241.683V84.8329L241.325 84.8321L241.324 85.1909ZM241.324 104.988L241.499 105.301L241.683 105.198V104.988H241.324ZM158.525 151.179L158.352 151.493L158.526 151.59L158.7 151.493L158.525 151.179ZM75 104.989H74.6412V105.2L74.8264 105.303L75 104.989ZM75 84.8442L75.0007 84.4855L74.6412 84.4847V84.8442H75ZM111.345 84.9194L111.344 85.2782L111.437 85.2784L111.518 85.2335L111.345 84.9194ZM158.027 59.144L158.201 58.83L158.027 58.7342L157.854 58.83L158.027 59.144ZM205.062 85.1147L205.062 85.4735L241.323 85.5497L241.324 85.1909L241.325 84.8321L205.063 84.756L205.062 85.1147ZM241.324 85.1909H240.965V104.988H241.324H241.683V85.1909H241.324ZM241.324 104.988L241.149 104.674L158.351 150.866L158.525 151.179L158.7 151.493L241.499 105.301L241.324 104.988ZM158.525 151.179L158.699 150.865L75.1736 104.675L75 104.989L74.8264 105.303L158.352 151.493L158.525 151.179ZM75 104.989H75.3588V84.8442H75H74.6412V104.989H75ZM75 84.8442L74.9993 85.203L111.344 85.2782L111.345 84.9194L111.345 84.5607L75.0007 84.4855L75 84.8442ZM111.345 84.9194L111.518 85.2335L158.201 59.4581L158.027 59.144L157.854 58.83L111.171 84.6054L111.345 84.9194ZM158.027 59.144L157.854 59.4581L204.889 85.4288L205.062 85.1147L205.236 84.8007L158.201 58.83L158.027 59.144Z" fill="white" mask="url(#path-2-inside-1_1893_2000)"/>
<path d="M240.958 85.19L158.028 130.488L75.3637 84.8445L158.027 39.2011L240.958 85.19Z" fill="#0E3572" stroke="white" stroke-width="0.415833"/>
<mask id="path-5-inside-2_1893_2000" fill="white">
<path d="M193.113 49.3958L224.092 49.4612V66.3733L153.356 105.835L82.001 66.3733V49.1643L113.051 49.2288L152.931 27.2092L193.113 49.3958Z"/>
</mask>
<path d="M193.113 49.3958L224.092 49.4612V66.3733L153.356 105.835L82.001 66.3733V49.1643L113.051 49.2288L152.931 27.2092L193.113 49.3958Z" fill="#0E3572"/>
<path d="M193.113 49.3958L224.092 49.4612V66.3733L153.356 105.835L82.001 66.3733V49.1643L113.051 49.2288L152.931 27.2092L193.113 49.3958Z" fill="black" fill-opacity="0.2"/>
<path d="M193.113 49.3958L192.94 49.7098L193.02 49.7543L193.113 49.7545L193.113 49.3958ZM224.092 49.4612H224.451V49.1032L224.093 49.1024L224.092 49.4612ZM224.092 66.3733L224.267 66.6866L224.451 66.584V66.3733H224.092ZM153.356 105.835L153.183 106.149L153.357 106.246L153.531 106.149L153.356 105.835ZM82.001 66.3733H81.6422V66.5849L81.8273 66.6873L82.001 66.3733ZM82.001 49.1643L82.0017 48.8055L81.6422 48.8048V49.1643H82.001ZM113.051 49.2288L113.05 49.5875L113.143 49.5877L113.224 49.5428L113.051 49.2288ZM152.931 27.2092L153.104 26.8951L152.931 26.7994L152.757 26.8951L152.931 27.2092ZM193.113 49.3958L193.113 49.7545L224.091 49.82L224.092 49.4612L224.093 49.1024L193.114 49.037L193.113 49.3958ZM224.092 49.4612H223.733V66.3733H224.092H224.451V49.4612H224.092ZM224.092 66.3733L223.917 66.06L153.182 105.522L153.356 105.835L153.531 106.149L224.267 66.6866L224.092 66.3733ZM153.356 105.835L153.53 105.521L82.1746 66.0593L82.001 66.3733L81.8273 66.6873L153.183 106.149L153.356 105.835ZM82.001 66.3733H82.3598V49.1643H82.001H81.6422V66.3733H82.001ZM82.001 49.1643L82.0002 49.5231L113.05 49.5875L113.051 49.2288L113.052 48.87L82.0017 48.8055L82.001 49.1643ZM113.051 49.2288L113.224 49.5428L153.104 27.5233L152.931 27.2092L152.757 26.8951L112.877 48.9147L113.051 49.2288ZM152.931 27.2092L152.757 27.5233L192.94 49.7098L193.113 49.3958L193.287 49.0817L153.104 26.8951L152.931 27.2092Z" fill="white" mask="url(#path-5-inside-2_1893_2000)"/>
<path d="M223.726 49.4601L152.932 88.1296L82.3638 49.1651L152.931 10.2011L223.726 49.4601Z" fill="#0E3572"/>
<path d="M223.726 49.4601L152.932 88.1296L82.3638 49.1651L152.931 10.2011L223.726 49.4601Z" fill="white" fill-opacity="0.2"/>
<path d="M223.726 49.4601L152.932 88.1296L82.3638 49.1651L152.931 10.2011L223.726 49.4601Z" stroke="white" stroke-width="0.415833"/>
<mask id="path-8-inside-3_1893_2000" fill="white">
<path d="M122.888 53.3467L149.062 53.4023V67.6924L89.293 101.035L29 67.6924V53.1514L55.2354 53.2061L88.9336 34.5996L122.888 53.3467Z"/>
</mask>
<path d="M122.888 53.3467L149.062 53.4023V67.6924L89.293 101.035L29 67.6924V53.1514L55.2354 53.2061L88.9336 34.5996L122.888 53.3467Z" fill="#0E3572"/>
<path d="M122.888 53.3467L149.062 53.4023V67.6924L89.293 101.035L29 67.6924V53.1514L55.2354 53.2061L88.9336 34.5996L122.888 53.3467Z" fill="black" fill-opacity="0.4"/>
<path d="M122.888 53.3467L122.714 53.6608L122.795 53.7053L122.887 53.7055L122.888 53.3467ZM149.062 53.4023H149.42V53.0443L149.062 53.0436L149.062 53.4023ZM149.062 67.6924L149.236 68.0057L149.42 67.9031V67.6924H149.062ZM89.293 101.035L89.1193 101.349L89.2937 101.446L89.4678 101.348L89.293 101.035ZM29 67.6924H28.6412V67.904L28.8264 68.0064L29 67.6924ZM29 53.1514L29.0007 52.7926L28.6412 52.7918V53.1514H29ZM55.2354 53.2061L55.2346 53.5648L55.3275 53.565L55.4088 53.5201L55.2354 53.2061ZM88.9336 34.5996L89.107 34.2855L88.9336 34.1898L88.7602 34.2855L88.9336 34.5996ZM122.888 53.3467L122.887 53.7055L149.061 53.7611L149.062 53.4023L149.062 53.0436L122.888 52.9879L122.888 53.3467ZM149.062 53.4023H148.703V67.6924H149.062H149.42V53.4023H149.062ZM149.062 67.6924L148.887 67.3791L89.1182 100.722L89.293 101.035L89.4678 101.348L149.236 68.0057L149.062 67.6924ZM89.293 101.035L89.4666 100.721L29.1736 67.3784L29 67.6924L28.8264 68.0064L89.1193 101.349L89.293 101.035ZM29 67.6924H29.3588V53.1514H29H28.6412V67.6924H29ZM29 53.1514L28.9993 53.5101L55.2346 53.5648L55.2354 53.2061L55.2361 52.8473L29.0007 52.7926L29 53.1514ZM55.2354 53.2061L55.4088 53.5201L89.107 34.9137L88.9336 34.5996L88.7602 34.2855L55.0619 52.892L55.2354 53.2061ZM88.9336 34.5996L88.7602 34.9137L122.714 53.6608L122.888 53.3467L123.061 53.0326L89.107 34.2855L88.9336 34.5996Z" fill="white" mask="url(#path-8-inside-3_1893_2000)"/>
<path d="M148.696 53.4006L88.9344 86.0436L29.3642 53.1514L88.9336 20.2597L148.696 53.4006Z" fill="#0E3572" stroke="white" stroke-width="0.415833"/>
<mask id="path-11-inside-4_1893_2000" fill="white">
<path d="M116.376 26.8745L137.509 26.9194V38.4565L89.2549 65.3755L40.5781 38.4565V26.7173L61.7588 26.7612L88.9648 11.7397L116.376 26.8745Z"/>
</mask>
<path d="M116.376 26.8745L137.509 26.9194V38.4565L89.2549 65.3755L40.5781 38.4565V26.7173L61.7588 26.7612L88.9648 11.7397L116.376 26.8745Z" fill="#0E3572"/>
<path d="M116.376 26.8745L137.509 26.9194V38.4565L89.2549 65.3755L40.5781 38.4565V26.7173L61.7588 26.7612L88.9648 11.7397L116.376 26.8745Z" fill="white" fill-opacity="0.3"/>
<path d="M116.376 26.8745L116.203 27.1886L116.283 27.2331L116.375 27.2333L116.376 26.8745ZM137.509 26.9194H137.868V26.5614L137.51 26.5607L137.509 26.9194ZM137.509 38.4565L137.684 38.7699L137.868 38.6672V38.4565H137.509ZM89.2549 65.3755L89.0813 65.6895L89.2556 65.7859L89.4297 65.6888L89.2549 65.3755ZM40.5781 38.4565H40.2193V38.6681L40.4045 38.7705L40.5781 38.4565ZM40.5781 26.7173L40.5789 26.3585L40.2193 26.3578V26.7173H40.5781ZM61.7588 26.7612L61.758 27.12L61.8509 27.1202L61.9322 27.0753L61.7588 26.7612ZM88.9648 11.7397L89.1383 11.4257L88.9648 11.3299L88.7914 11.4257L88.9648 11.7397ZM116.376 26.8745L116.375 27.2333L137.508 27.2782L137.509 26.9194L137.51 26.5607L116.377 26.5157L116.376 26.8745ZM137.509 26.9194H137.15V38.4565H137.509H137.868V26.9194H137.509ZM137.509 38.4565L137.334 38.1432L89.0801 65.0622L89.2549 65.3755L89.4297 65.6888L137.684 38.7699L137.509 38.4565ZM89.2549 65.3755L89.4285 65.0615L40.7518 38.1426L40.5781 38.4565L40.4045 38.7705L89.0813 65.6895L89.2549 65.3755ZM40.5781 38.4565H40.9369V26.7173H40.5781H40.2193V38.4565H40.5781ZM40.5781 26.7173L40.5774 27.0761L61.758 27.12L61.7588 26.7612L61.7595 26.4025L40.5789 26.3585L40.5781 26.7173ZM61.7588 26.7612L61.9322 27.0753L89.1383 12.0538L88.9648 11.7397L88.7914 11.4257L61.5854 26.4471L61.7588 26.7612ZM88.9648 11.7397L88.7914 12.0538L116.203 27.1886L116.376 26.8745L116.549 26.5604L89.1383 11.4257L88.9648 11.7397Z" fill="white" mask="url(#path-11-inside-4_1893_2000)"/>
<path d="M137.143 26.918L88.9657 53.2342L40.9417 26.7174L88.9648 0.201089L137.143 26.918Z" fill="white"/>
<path d="M137.143 26.918L88.9657 53.2342L40.9417 26.7174L88.9648 0.201089L137.143 26.918Z" stroke="white" stroke-opacity="0.2" stroke-width="0.415833"/>
<path d="M137.143 26.918L88.9657 53.2342L40.9417 26.7174L88.9648 0.201089L137.143 26.918Z" stroke="#0E3572" stroke-width="0.415833"/>
<path d="M152.7 81.209V76.829L153.438 76.403V80.783L152.7 81.209ZM153.334 79.019V78.299L154.852 77.417V78.137L153.334 79.019ZM153.334 77.183V76.463L154.924 75.545V76.265L153.334 77.183ZM156.471 79.1337C156.146 79.3217 155.893 79.3437 155.713 79.1997C155.536 79.0537 155.448 78.7367 155.448 78.2487V76.3587L156.17 75.9417V77.9037C156.17 78.1037 156.219 78.2357 156.316 78.2997C156.413 78.3597 156.544 78.3417 156.71 78.2457C156.877 78.1497 157.012 78.0097 157.116 77.8257C157.223 77.6397 157.277 77.4407 157.277 77.2287V75.3027L157.999 74.8857V78.1497L157.428 78.4797V77.0937L157.485 77.0607C157.485 77.3887 157.448 77.6837 157.376 77.9457C157.303 78.2077 157.194 78.4367 157.048 78.6327C156.903 78.8287 156.721 78.9897 156.503 79.1157L156.471 79.1337ZM158.865 77.6497V73.2697L159.587 72.8527V77.2327L158.865 77.6497ZM158.512 74.0977V73.4737L159.587 72.8527V73.4767L158.512 74.0977ZM160.448 76.7357V72.3557L161.171 71.9387V76.3187L160.448 76.7357ZM160.095 73.1837V72.5597L161.171 71.9387V72.5627L160.095 73.1837ZM164.468 74.5291C164.132 74.7231 163.848 74.8251 163.615 74.8351C163.387 74.8431 163.212 74.7741 163.091 74.6281C162.969 74.4781 162.909 74.2651 162.909 73.9891L163.631 73.5721C163.631 73.6881 163.659 73.7861 163.714 73.8661C163.77 73.9421 163.858 73.9791 163.979 73.9771C164.104 73.9731 164.267 73.9131 164.468 73.7971C164.648 73.6931 164.798 73.5761 164.92 73.4461C165.041 73.3161 165.131 73.1861 165.19 73.0561C165.249 72.9221 165.278 72.7931 165.278 72.6691C165.278 72.5131 165.221 72.4221 165.107 72.3961C164.992 72.3661 164.816 72.4081 164.577 72.5221L164.244 72.6841C163.88 72.8581 163.589 72.8961 163.371 72.7981C163.156 72.6941 163.049 72.4561 163.049 72.0841C163.049 71.8041 163.106 71.5311 163.221 71.2651C163.335 70.9951 163.494 70.7471 163.699 70.5211C163.906 70.2891 164.149 70.0931 164.426 69.9331C164.714 69.7671 164.961 69.6821 165.169 69.6781C165.377 69.6741 165.538 69.7451 165.652 69.8911C165.767 70.0331 165.824 70.2461 165.824 70.5301L165.102 70.9471C165.102 70.8271 165.076 70.7321 165.024 70.6621C164.975 70.5861 164.901 70.5471 164.8 70.5451C164.703 70.5371 164.578 70.5771 164.426 70.6651C164.281 70.7491 164.159 70.8471 164.062 70.9591C163.965 71.0711 163.893 71.1891 163.844 71.3131C163.796 71.4371 163.771 71.5551 163.771 71.6671C163.771 71.8031 163.815 71.8981 163.901 71.9521C163.988 72.0021 164.125 71.9811 164.312 71.8891L164.644 71.7331C164.915 71.6011 165.152 71.5301 165.356 71.5201C165.561 71.5101 165.718 71.5651 165.829 71.6851C165.943 71.8031 166.001 71.9921 166.001 72.2521C166.001 72.5281 165.938 72.8081 165.813 73.0921C165.689 73.3721 165.51 73.6371 165.278 73.8871C165.05 74.1351 164.779 74.3491 164.468 74.5291ZM167.844 72.5076C167.584 72.6576 167.37 72.7436 167.2 72.7656C167.034 72.7816 166.909 72.7216 166.826 72.5856C166.743 72.4456 166.701 72.2176 166.701 71.9016L166.706 68.9466L167.382 68.5566L167.377 71.5656C167.377 71.7256 167.413 71.8286 167.486 71.8746C167.562 71.9146 167.669 71.8946 167.808 71.8146L168.25 71.5596V72.2736L167.844 72.5076ZM166.254 70.7376V70.1256L168.25 68.9736V69.5856L166.254 70.7376ZM170.555 70.9005V69.9345L170.436 70.0035V68.9295C170.436 68.7415 170.396 68.6245 170.316 68.5785C170.236 68.5325 170.113 68.5575 169.947 68.6535C169.861 68.7035 169.757 68.7655 169.635 68.8395C169.514 68.9135 169.391 68.9905 169.266 69.0705C169.145 69.1445 169.036 69.2135 168.939 69.2775V68.5695C169.019 68.5155 169.109 68.4555 169.209 68.3895C169.31 68.3235 169.412 68.2605 169.516 68.2005C169.623 68.1345 169.724 68.0745 169.817 68.0205C170.108 67.8525 170.349 67.7575 170.54 67.7355C170.734 67.7115 170.879 67.7655 170.976 67.8975C171.076 68.0275 171.127 68.2445 171.127 68.5485V70.5705L170.555 70.9005ZM169.646 71.5095C169.441 71.6275 169.261 71.6895 169.105 71.6955C168.953 71.6995 168.833 71.6485 168.747 71.5425C168.664 71.4345 168.622 71.2705 168.622 71.0505C168.622 70.8105 168.672 70.5855 168.773 70.3755C168.877 70.1635 169.021 69.9665 169.204 69.7845C169.391 69.6005 169.609 69.4365 169.859 69.2925L170.514 68.9145V69.4125L169.848 69.7965C169.682 69.8925 169.554 70.0145 169.464 70.1625C169.377 70.3045 169.334 70.4495 169.334 70.5975C169.334 70.7455 169.377 70.8405 169.464 70.8825C169.554 70.9225 169.682 70.8945 169.848 70.7985C169.949 70.7405 170.041 70.6675 170.124 70.5795C170.21 70.4855 170.281 70.3725 170.337 70.2405C170.396 70.1025 170.429 69.9435 170.436 69.7635L170.612 69.8955C170.595 70.1335 170.546 70.3535 170.467 70.5555C170.391 70.7555 170.283 70.9375 170.145 71.1015C170.01 71.2595 169.843 71.3955 169.646 71.5095ZM173.153 69.5148C172.907 69.6568 172.694 69.7318 172.514 69.7398C172.337 69.7458 172.188 69.7038 172.067 69.6138C171.949 69.5218 171.861 69.3928 171.802 69.2268C171.743 69.0608 171.713 68.8738 171.713 68.6658V68.5518C171.713 68.3318 171.743 68.1048 171.802 67.8708C171.864 67.6308 171.956 67.3978 172.077 67.1718C172.198 66.9418 172.347 66.7298 172.524 66.5358C172.704 66.3358 172.912 66.1678 173.147 66.0318C173.393 65.8898 173.613 65.8188 173.807 65.8188C174.001 65.8148 174.156 65.8778 174.27 66.0078C174.388 66.1358 174.453 66.3258 174.467 66.5778L173.766 66.9828C173.748 66.8248 173.686 66.7208 173.579 66.6708C173.475 66.6188 173.331 66.6458 173.147 66.7518C172.988 66.8438 172.855 66.9648 172.747 67.1148C172.643 67.2628 172.565 67.4298 172.514 67.6158C172.462 67.7978 172.436 67.9888 172.436 68.1888C172.436 68.3808 172.46 68.5408 172.508 68.6688C172.56 68.7948 172.638 68.8718 172.742 68.8998C172.85 68.9258 172.986 68.8908 173.153 68.7948C173.277 68.7228 173.385 68.6348 173.475 68.5308C173.565 68.4268 173.636 68.3138 173.688 68.1918C173.743 68.0678 173.778 67.9438 173.792 67.8198L174.493 67.4148C174.479 67.6868 174.412 67.9578 174.291 68.2278C174.173 68.4918 174.015 68.7368 173.818 68.9628C173.624 69.1868 173.402 69.3708 173.153 69.5148ZM177.046 67.1528L176.101 66.1748L175.68 66.4178L176.88 63.9908L177.634 63.5558L176.527 65.7968L176.542 65.3678L177.862 66.6818L177.046 67.1528ZM175.072 68.2928V63.9128L175.794 63.4958V67.8758L175.072 68.2928ZM181.24 64.8458C180.897 65.0438 180.599 65.1458 180.346 65.1518C180.097 65.1558 179.889 65.0938 179.722 64.9658C179.56 64.8318 179.437 64.6588 179.354 64.4468C179.274 64.2288 179.234 63.9978 179.234 63.7538V63.6218C179.234 63.3538 179.276 63.0638 179.359 62.7518C179.442 62.4358 179.567 62.1218 179.733 61.8098C179.903 61.4958 180.112 61.2028 180.362 60.9308C180.611 60.6548 180.904 60.4198 181.24 60.2258C181.572 60.0338 181.863 59.9318 182.113 59.9198C182.362 59.9038 182.57 59.9558 182.736 60.0758C182.906 60.1938 183.032 60.3628 183.116 60.5828C183.199 60.7988 183.24 61.0408 183.24 61.3088V61.4408C183.24 61.6848 183.199 61.9628 183.116 62.2748C183.036 62.5808 182.913 62.8958 182.747 63.2198C182.584 63.5378 182.376 63.8398 182.123 64.1258C181.874 64.4098 181.579 64.6498 181.24 64.8458ZM181.24 64.0538C181.434 63.9418 181.607 63.8018 181.759 63.6338C181.915 63.4638 182.047 63.2778 182.154 63.0758C182.265 62.8678 182.348 62.6578 182.404 62.4458C182.463 62.2278 182.492 62.0168 182.492 61.8128C182.492 61.5928 182.463 61.4078 182.404 61.2578C182.348 61.1058 182.265 60.9938 182.154 60.9218C182.047 60.8478 181.915 60.8178 181.759 60.8318C181.603 60.8458 181.43 60.9078 181.24 61.0178C181.046 61.1298 180.871 61.2688 180.715 61.4348C180.559 61.6008 180.426 61.7838 180.315 61.9838C180.207 62.1818 180.124 62.3898 180.065 62.6078C180.01 62.8238 179.982 63.0418 179.982 63.2618C179.982 63.4658 180.01 63.6438 180.065 63.7958C180.124 63.9418 180.207 64.0558 180.315 64.1378C180.426 64.2138 180.559 64.2468 180.715 64.2368C180.871 64.2268 181.046 64.1658 181.24 64.0538ZM184.863 62.6401L185.398 59.1811L186.229 58.7011L186.848 61.4941L186.276 61.8241L185.647 59.0551L185.949 58.8811L185.393 62.3341L184.863 62.6401ZM184.65 62.7631L184.644 62.0821L185.221 61.7491V62.4331L184.65 62.7631ZM184.359 62.9311L183.59 60.1171L184.291 59.7121L185.024 62.5471L184.359 62.9311ZM186.458 61.7191V61.0351L187.035 60.7021L187.029 61.3891L186.458 61.7191ZM186.687 61.5871L187.336 57.9541L187.991 57.5761L187.31 61.2271L186.687 61.5871ZM188.56 60.5057V57.2477L189.131 56.9177V58.3157L189.079 58.3457C189.079 58.0137 189.117 57.7157 189.193 57.4517C189.27 57.1837 189.382 56.9507 189.531 56.7527C189.684 56.5527 189.872 56.3877 190.098 56.2577L190.129 56.2397C190.465 56.0457 190.719 56.0247 190.893 56.1767C191.066 56.3247 191.152 56.6467 191.152 57.1427V59.0087L190.43 59.4257V57.4877C190.43 57.2877 190.38 57.1547 190.279 57.0887C190.182 57.0207 190.047 57.0367 189.874 57.1367C189.697 57.2387 189.554 57.3857 189.443 57.5777C189.335 57.7637 189.282 57.9627 189.282 58.1747V60.0887L188.56 60.5057ZM193.192 57.9454C192.949 58.0854 192.736 58.1604 192.552 58.1704C192.372 58.1784 192.222 58.1374 192.1 58.0474C191.983 57.9514 191.893 57.8214 191.83 57.6574C191.771 57.4914 191.742 57.3044 191.742 57.0964V56.9824C191.742 56.7664 191.771 56.5414 191.83 56.3074C191.893 56.0674 191.983 55.8354 192.1 55.6114C192.222 55.3814 192.371 55.1694 192.547 54.9754C192.724 54.7774 192.928 54.6114 193.16 54.4774C193.465 54.3014 193.72 54.2324 193.924 54.2704C194.132 54.3024 194.288 54.4144 194.392 54.6064C194.496 54.7944 194.548 55.0324 194.548 55.3204V55.6204L192.048 57.0634V56.5534L194.096 55.3714L193.872 55.7524C193.872 55.5444 193.846 55.3814 193.794 55.2634C193.742 55.1454 193.663 55.0774 193.555 55.0594C193.451 55.0394 193.32 55.0754 193.16 55.1674C193.001 55.2594 192.866 55.3794 192.755 55.5274C192.644 55.6754 192.559 55.8464 192.5 56.0404C192.445 56.2284 192.417 56.4324 192.417 56.6524C192.417 56.8564 192.445 57.0224 192.5 57.1504C192.556 57.2744 192.641 57.3494 192.755 57.3754C192.869 57.3974 193.015 57.3574 193.192 57.2554C193.368 57.1534 193.512 57.0304 193.623 56.8864C193.734 56.7384 193.805 56.5954 193.836 56.4574L194.501 56.0734C194.459 56.3214 194.38 56.5634 194.262 56.7994C194.144 57.0354 193.994 57.2524 193.81 57.4504C193.63 57.6464 193.424 57.8114 193.192 57.9454ZM195.151 56.7V53.442L195.723 53.112V54.492L195.707 54.501C195.707 54.033 195.794 53.629 195.967 53.289C196.14 52.949 196.395 52.682 196.731 52.488L196.835 52.428V53.154L196.637 53.268C196.395 53.408 196.206 53.593 196.071 53.823C195.939 54.047 195.873 54.301 195.873 54.585V56.283L195.151 56.7ZM198.342 54.96C197.954 55.184 197.649 55.266 197.427 55.206C197.209 55.14 197.094 54.942 197.084 54.612L197.734 54.237C197.744 54.343 197.798 54.414 197.895 54.45C197.992 54.486 198.144 54.444 198.352 54.324C198.525 54.224 198.662 54.109 198.762 53.979C198.866 53.847 198.918 53.719 198.918 53.595C198.918 53.487 198.878 53.424 198.799 53.406C198.723 53.386 198.591 53.42 198.404 53.508L198.154 53.622C197.839 53.764 197.597 53.8 197.427 53.73C197.257 53.66 197.172 53.485 197.172 53.205C197.172 52.981 197.221 52.765 197.318 52.557C197.415 52.349 197.548 52.158 197.718 51.984C197.891 51.804 198.089 51.65 198.31 51.522C198.657 51.322 198.937 51.248 199.152 51.3C199.367 51.352 199.479 51.545 199.49 51.879L198.84 52.254C198.833 52.146 198.785 52.078 198.695 52.05C198.605 52.022 198.475 52.057 198.305 52.155C198.153 52.243 198.035 52.345 197.952 52.461C197.869 52.577 197.827 52.689 197.827 52.797C197.827 52.901 197.86 52.962 197.926 52.98C197.995 52.996 198.106 52.97 198.258 52.902L198.508 52.788C198.84 52.636 199.1 52.592 199.287 52.656C199.478 52.718 199.573 52.895 199.573 53.187C199.573 53.403 199.521 53.621 199.417 53.841C199.317 54.055 199.175 54.259 198.991 54.453C198.807 54.647 198.591 54.816 198.342 54.96ZM200.17 53.8026V49.4226L200.892 49.0056V51.5616L200.767 51.6336C200.767 51.3056 200.804 51.0066 200.876 50.7366C200.949 50.4666 201.056 50.2306 201.199 50.0286C201.344 49.8246 201.528 49.6586 201.749 49.5306L201.78 49.5126C202.103 49.3266 202.347 49.3136 202.513 49.4736C202.679 49.6336 202.763 49.9576 202.763 50.4456V52.3056L202.04 52.7226V50.7846C202.04 50.5766 201.988 50.4426 201.884 50.3826C201.784 50.3206 201.651 50.3376 201.484 50.4336C201.308 50.5356 201.164 50.6866 201.053 50.8866C200.946 51.0806 200.892 51.2856 200.892 51.5016V53.3856L200.17 53.8026ZM203.674 51.7792V48.5212L204.396 48.1042V51.3622L203.674 51.7792ZM203.279 49.3732V48.7492L204.396 48.1042V48.7282L203.279 49.3732ZM203.939 47.9782C203.797 48.0602 203.691 48.0792 203.622 48.0352C203.556 47.9852 203.523 47.8962 203.523 47.7682C203.523 47.6322 203.556 47.5032 203.622 47.3812C203.691 47.2572 203.797 47.1542 203.939 47.0722C204.081 46.9902 204.185 46.9722 204.251 47.0182C204.317 47.0642 204.35 47.1552 204.35 47.2912C204.35 47.4192 204.317 47.5462 204.251 47.6722C204.185 47.7942 204.081 47.8962 203.939 47.9782ZM205.229 52.0817V47.6237L205.8 47.2937V48.6977L205.712 48.7427C205.726 48.4027 205.785 48.0907 205.889 47.8067C205.996 47.5207 206.138 47.2727 206.315 47.0627C206.491 46.8487 206.689 46.6787 206.907 46.5527C207.108 46.4367 207.288 46.3747 207.448 46.3667C207.61 46.3567 207.749 46.3947 207.863 46.4807C207.981 46.5647 208.071 46.6907 208.133 46.8587C208.196 47.0227 208.227 47.2207 208.227 47.4527V47.5787C208.227 47.8147 208.196 48.0527 208.133 48.2927C208.075 48.5267 207.986 48.7557 207.868 48.9797C207.754 49.1977 207.616 49.3977 207.453 49.5797C207.29 49.7577 207.108 49.9047 206.907 50.0207C206.696 50.1427 206.502 50.2047 206.325 50.2067C206.152 50.2027 206.012 50.1257 205.904 49.9757C205.797 49.8217 205.736 49.5787 205.722 49.2467L205.951 49.5167V51.6647L205.229 52.0817ZM206.725 49.4237C206.881 49.3337 207.016 49.2117 207.131 49.0577C207.248 48.9017 207.34 48.7267 207.406 48.5327C207.472 48.3347 207.505 48.1357 207.505 47.9357C207.505 47.7277 207.472 47.5667 207.406 47.4527C207.34 47.3387 207.248 47.2737 207.131 47.2577C207.016 47.2357 206.881 47.2697 206.725 47.3597C206.583 47.4417 206.452 47.5537 206.33 47.6957C206.213 47.8357 206.116 47.9977 206.039 48.1817C205.967 48.3637 205.93 48.5527 205.93 48.7487V48.9887C205.93 49.1767 205.968 49.3147 206.045 49.4027C206.121 49.4907 206.22 49.5357 206.341 49.5377C206.462 49.5397 206.59 49.5017 206.725 49.4237Z" fill="#FFFAFA"/>
<path d="M159.932 120.823V120.031L160.717 119.578C160.914 119.464 161.089 119.329 161.242 119.173C161.397 119.011 161.529 118.835 161.636 118.645C161.744 118.455 161.825 118.258 161.881 118.054C161.94 117.844 161.969 117.633 161.969 117.421C161.969 117.201 161.94 117.022 161.881 116.884C161.825 116.74 161.744 116.637 161.636 116.575C161.529 116.513 161.397 116.495 161.242 116.521C161.089 116.545 160.914 116.614 160.717 116.728L159.932 117.181V116.389L160.67 115.963C161.013 115.765 161.313 115.65 161.569 115.618C161.825 115.586 162.038 115.623 162.208 115.729C162.378 115.831 162.504 115.988 162.587 116.2C162.674 116.406 162.717 116.647 162.717 116.923V117.055C162.717 117.319 162.674 117.604 162.587 117.91C162.504 118.214 162.378 118.519 162.208 118.825C162.038 119.131 161.825 119.42 161.569 119.692C161.313 119.964 161.013 120.199 160.67 120.397L159.932 120.823ZM159.298 121.189V116.755L160.036 116.329V120.763L159.298 121.189ZM164.583 118.228C164.341 118.368 164.128 118.443 163.944 118.453C163.764 118.461 163.614 118.42 163.492 118.33C163.375 118.234 163.284 118.104 163.222 117.94C163.163 117.774 163.134 117.587 163.134 117.379V117.265C163.134 117.049 163.163 116.824 163.222 116.59C163.284 116.35 163.375 116.118 163.492 115.894C163.614 115.664 163.762 115.452 163.939 115.258C164.116 115.06 164.32 114.894 164.552 114.76C164.857 114.584 165.112 114.515 165.316 114.553C165.524 114.585 165.68 114.697 165.784 114.889C165.888 115.077 165.94 115.315 165.94 115.603V115.903L163.44 117.346V116.836L165.488 115.654L165.264 116.035C165.264 115.827 165.238 115.664 165.186 115.546C165.134 115.428 165.055 115.36 164.947 115.342C164.843 115.322 164.712 115.358 164.552 115.45C164.393 115.542 164.258 115.662 164.147 115.81C164.036 115.958 163.951 116.129 163.892 116.323C163.837 116.511 163.809 116.715 163.809 116.935C163.809 117.139 163.837 117.305 163.892 117.433C163.948 117.557 164.033 117.632 164.147 117.658C164.261 117.68 164.407 117.64 164.583 117.538C164.76 117.436 164.904 117.313 165.015 117.169C165.126 117.021 165.197 116.878 165.228 116.74L165.893 116.356C165.851 116.604 165.772 116.846 165.654 117.082C165.536 117.318 165.385 117.535 165.202 117.733C165.022 117.929 164.816 118.094 164.583 118.228ZM167.712 116.415C167.515 116.529 167.333 116.592 167.167 116.604C167 116.616 166.857 116.581 166.735 116.499C166.614 116.417 166.521 116.295 166.455 116.133C166.389 115.967 166.356 115.766 166.356 115.53V115.404C166.356 115.172 166.387 114.936 166.45 114.696C166.515 114.454 166.605 114.224 166.72 114.006C166.837 113.786 166.978 113.587 167.141 113.409C167.307 113.225 167.49 113.075 167.691 112.959C167.913 112.831 168.107 112.775 168.273 112.791C168.443 112.801 168.578 112.887 168.679 113.049C168.779 113.211 168.835 113.455 168.845 113.781L168.632 113.616V111.396L169.354 110.979V115.359L168.783 115.689V114.303L168.907 114.231C168.897 114.569 168.838 114.881 168.731 115.167C168.623 115.449 168.481 115.697 168.305 115.911C168.131 116.119 167.934 116.287 167.712 116.415ZM167.873 115.62C168.015 115.538 168.145 115.427 168.263 115.287C168.381 115.143 168.474 114.981 168.544 114.801C168.616 114.615 168.653 114.426 168.653 114.234V113.994C168.653 113.802 168.616 113.663 168.544 113.577C168.471 113.487 168.376 113.442 168.258 113.442C168.14 113.438 168.012 113.476 167.873 113.556C167.717 113.646 167.579 113.77 167.458 113.928C167.34 114.08 167.246 114.254 167.177 114.45C167.111 114.644 167.078 114.845 167.078 115.053C167.078 115.261 167.113 115.423 167.182 115.539C167.251 115.651 167.345 115.715 167.463 115.731C167.584 115.745 167.721 115.708 167.873 115.62ZM170.311 114.807V111.549L171.034 111.132V114.39L170.311 114.807ZM169.916 112.401V111.777L171.034 111.132V111.756L169.916 112.401ZM170.576 111.006C170.434 111.088 170.329 111.107 170.259 111.063C170.194 111.013 170.161 110.924 170.161 110.796C170.161 110.66 170.194 110.531 170.259 110.409C170.329 110.285 170.434 110.182 170.576 110.1C170.718 110.018 170.822 110 170.888 110.046C170.954 110.092 170.987 110.183 170.987 110.319C170.987 110.447 170.954 110.574 170.888 110.7C170.822 110.822 170.718 110.924 170.576 111.006ZM173.118 113.3C172.872 113.442 172.659 113.517 172.479 113.525C172.303 113.531 172.154 113.489 172.032 113.399C171.915 113.307 171.826 113.178 171.767 113.012C171.708 112.846 171.679 112.659 171.679 112.451V112.337C171.679 112.117 171.708 111.89 171.767 111.656C171.83 111.416 171.921 111.183 172.043 110.957C172.164 110.727 172.313 110.515 172.49 110.321C172.67 110.121 172.878 109.953 173.113 109.817C173.359 109.675 173.579 109.604 173.773 109.604C173.967 109.6 174.121 109.663 174.235 109.793C174.353 109.921 174.419 110.111 174.433 110.363L173.731 110.768C173.714 110.61 173.652 110.506 173.544 110.456C173.44 110.404 173.297 110.431 173.113 110.537C172.954 110.629 172.82 110.75 172.713 110.9C172.609 111.048 172.531 111.215 172.479 111.401C172.427 111.583 172.401 111.774 172.401 111.974C172.401 112.166 172.425 112.326 172.474 112.454C172.526 112.58 172.604 112.657 172.708 112.685C172.815 112.711 172.952 112.676 173.118 112.58C173.243 112.508 173.35 112.42 173.44 112.316C173.531 112.212 173.602 112.099 173.654 111.977C173.709 111.853 173.744 111.729 173.757 111.605L174.459 111.2C174.445 111.472 174.378 111.743 174.256 112.013C174.138 112.277 173.981 112.522 173.783 112.748C173.589 112.972 173.368 113.156 173.118 113.3ZM176.747 111.091V110.125L176.628 110.194V109.12C176.628 108.932 176.588 108.815 176.508 108.769C176.428 108.723 176.305 108.748 176.139 108.844C176.053 108.894 175.949 108.956 175.827 109.03C175.706 109.104 175.583 109.181 175.458 109.261C175.337 109.335 175.228 109.404 175.131 109.468V108.76C175.211 108.706 175.301 108.646 175.401 108.58C175.502 108.514 175.604 108.451 175.708 108.391C175.815 108.325 175.916 108.265 176.009 108.211C176.3 108.043 176.541 107.948 176.731 107.926C176.925 107.902 177.071 107.956 177.168 108.088C177.268 108.218 177.319 108.435 177.319 108.739V110.761L176.747 111.091ZM175.838 111.7C175.633 111.818 175.453 111.88 175.297 111.886C175.145 111.89 175.025 111.839 174.939 111.733C174.856 111.625 174.814 111.461 174.814 111.241C174.814 111.001 174.864 110.776 174.965 110.566C175.069 110.354 175.212 110.157 175.396 109.975C175.583 109.791 175.801 109.627 176.051 109.483L176.705 109.105V109.603L176.04 109.987C175.874 110.083 175.746 110.205 175.656 110.353C175.569 110.495 175.526 110.64 175.526 110.788C175.526 110.936 175.569 111.031 175.656 111.073C175.746 111.113 175.874 111.085 176.04 110.989C176.141 110.931 176.233 110.858 176.316 110.77C176.402 110.676 176.473 110.563 176.529 110.431C176.588 110.293 176.621 110.134 176.628 109.954L176.804 110.086C176.787 110.324 176.738 110.544 176.659 110.746C176.583 110.946 176.475 111.128 176.337 111.292C176.201 111.45 176.035 111.586 175.838 111.7ZM179.319 109.648C179.059 109.798 178.844 109.884 178.674 109.906C178.508 109.922 178.383 109.862 178.3 109.726C178.217 109.586 178.175 109.358 178.175 109.042L178.181 106.087L178.856 105.697L178.851 108.706C178.851 108.866 178.887 108.969 178.96 109.015C179.036 109.055 179.144 109.035 179.282 108.955L179.724 108.7V109.414L179.319 109.648ZM177.729 107.878V107.266L179.724 106.114V106.726L177.729 107.878ZM181.578 108.416C181.335 108.556 181.122 108.631 180.938 108.641C180.758 108.649 180.608 108.608 180.486 108.518C180.369 108.422 180.278 108.292 180.216 108.128C180.157 107.962 180.128 107.775 180.128 107.567V107.453C180.128 107.237 180.157 107.012 180.216 106.778C180.278 106.538 180.369 106.306 180.486 106.082C180.608 105.852 180.757 105.64 180.933 105.446C181.11 105.248 181.314 105.082 181.546 104.948C181.851 104.772 182.106 104.703 182.31 104.741C182.518 104.773 182.674 104.885 182.778 105.077C182.882 105.265 182.934 105.503 182.934 105.791V106.091L180.434 107.534V107.024L182.482 105.842L182.258 106.223C182.258 106.015 182.232 105.852 182.18 105.734C182.128 105.616 182.049 105.548 181.941 105.53C181.837 105.51 181.706 105.546 181.546 105.638C181.387 105.73 181.252 105.85 181.141 105.998C181.03 106.146 180.945 106.317 180.886 106.511C180.831 106.699 180.803 106.903 180.803 107.123C180.803 107.327 180.831 107.493 180.886 107.621C180.942 107.745 181.027 107.82 181.141 107.846C181.255 107.868 181.401 107.828 181.578 107.726C181.754 107.624 181.898 107.501 182.009 107.357C182.12 107.209 182.191 107.066 182.222 106.928L182.887 106.544C182.845 106.792 182.766 107.034 182.648 107.27C182.53 107.506 182.379 107.723 182.196 107.921C182.016 108.117 181.81 108.282 181.578 108.416ZM184.706 106.604C184.509 106.718 184.327 106.781 184.161 106.793C183.994 106.805 183.851 106.77 183.729 106.688C183.608 106.606 183.515 106.484 183.449 106.322C183.383 106.156 183.35 105.955 183.35 105.719V105.593C183.35 105.361 183.381 105.125 183.444 104.885C183.509 104.643 183.599 104.413 183.714 104.195C183.832 103.975 183.972 103.776 184.135 103.598C184.301 103.414 184.485 103.264 184.685 103.148C184.907 103.02 185.101 102.964 185.267 102.98C185.437 102.99 185.572 103.076 185.673 103.238C185.773 103.4 185.829 103.644 185.839 103.97L185.626 103.805V101.585L186.348 101.168V105.548L185.777 105.878V104.492L185.901 104.42C185.891 104.758 185.832 105.07 185.725 105.356C185.617 105.638 185.475 105.886 185.299 106.1C185.125 106.308 184.928 106.476 184.706 106.604ZM184.867 105.809C185.009 105.727 185.139 105.616 185.257 105.476C185.375 105.332 185.468 105.17 185.538 104.99C185.61 104.804 185.647 104.615 185.647 104.423V104.183C185.647 103.991 185.61 103.852 185.538 103.766C185.465 103.676 185.37 103.631 185.252 103.631C185.134 103.627 185.006 103.665 184.867 103.745C184.711 103.835 184.573 103.959 184.452 104.117C184.334 104.269 184.24 104.443 184.171 104.639C184.105 104.833 184.072 105.034 184.072 105.242C184.072 105.45 184.107 105.612 184.176 105.728C184.245 105.84 184.339 105.904 184.457 105.92C184.578 105.934 184.715 105.897 184.867 105.809ZM188.349 104.393V100.013L189.071 99.5956V103.976L188.349 104.393ZM188.967 104.036V103.316L190.687 102.323V103.043L188.967 104.036ZM188.967 102.17V101.45L190.552 100.535V101.255L188.967 102.17ZM188.967 100.376V99.6556L190.646 98.6866V99.4066L188.967 100.376ZM191.387 102.639V99.3805L191.959 99.0505V100.449L191.907 100.479C191.907 100.147 191.945 99.8485 192.021 99.5845C192.097 99.3165 192.21 99.0835 192.359 98.8855C192.511 98.6855 192.7 98.5205 192.925 98.3905L192.956 98.3725C193.292 98.1785 193.547 98.1575 193.72 98.3095C193.893 98.4575 193.98 98.7795 193.98 99.2755V101.142L193.258 101.559V99.6205C193.258 99.4205 193.208 99.2875 193.107 99.2215C193.01 99.1535 192.875 99.1695 192.702 99.2695C192.525 99.3715 192.381 99.5185 192.27 99.7105C192.163 99.8965 192.109 100.096 192.109 100.308V102.222L191.387 102.639ZM195.858 101.341C195.723 101.419 195.584 101.493 195.442 101.563C195.304 101.631 195.174 101.69 195.053 101.74V101.044C195.177 100.988 195.311 100.925 195.453 100.855C195.595 100.789 195.728 100.72 195.853 100.648C196.085 100.514 196.272 100.374 196.414 100.228C196.56 100.08 196.665 99.9172 196.731 99.7392C196.8 99.5632 196.835 99.3692 196.835 99.1572V98.5152L196.991 98.0172C196.98 98.3232 196.927 98.6102 196.83 98.8782C196.733 99.1422 196.601 99.3782 196.435 99.5862C196.269 99.7902 196.076 99.9552 195.858 100.081C195.664 100.193 195.487 100.253 195.328 100.261C195.172 100.267 195.037 100.229 194.923 100.147C194.812 100.063 194.725 99.9392 194.663 99.7752C194.601 99.6112 194.569 99.4152 194.569 99.1872V99.0612C194.569 98.8332 194.601 98.6032 194.663 98.3712C194.729 98.1332 194.821 97.9062 194.938 97.6902C195.056 97.4742 195.196 97.2792 195.359 97.1052C195.522 96.9312 195.702 96.7872 195.9 96.6732C196.132 96.5392 196.333 96.4812 196.502 96.4992C196.676 96.5152 196.811 96.6052 196.908 96.7692C197.005 96.9332 197.058 97.1722 197.069 97.4862L196.944 97.5822V96.1722L197.516 95.8422V98.7162C197.516 99.1122 197.457 99.4662 197.339 99.7782C197.221 100.09 197.039 100.373 196.793 100.627C196.551 100.883 196.239 101.121 195.858 101.341ZM196.066 99.2472C196.205 99.1672 196.331 99.0582 196.445 98.9202C196.56 98.7822 196.651 98.6252 196.721 98.4492C196.79 98.2732 196.825 98.0892 196.825 97.8972V97.6872C196.825 97.5032 196.788 97.3682 196.715 97.2822C196.646 97.1942 196.554 97.1512 196.44 97.1532C196.326 97.1512 196.201 97.1892 196.066 97.2672C195.914 97.3552 195.778 97.4752 195.661 97.6272C195.546 97.7732 195.456 97.9392 195.39 98.1252C195.325 98.3112 195.292 98.5062 195.292 98.7102C195.292 98.9102 195.325 99.0652 195.39 99.1752C195.456 99.2852 195.546 99.3472 195.661 99.3612C195.778 99.3732 195.914 99.3352 196.066 99.2472ZM198.439 98.5674V95.3094L199.161 94.8924V98.1504L198.439 98.5674ZM198.044 96.1614V95.5374L199.161 94.8924V95.5164L198.044 96.1614ZM198.704 94.7664C198.562 94.8484 198.456 94.8674 198.387 94.8234C198.321 94.7734 198.288 94.6844 198.288 94.5564C198.288 94.4204 198.321 94.2914 198.387 94.1694C198.456 94.0454 198.562 93.9424 198.704 93.8604C198.846 93.7784 198.95 93.7604 199.015 93.8064C199.081 93.8524 199.114 93.9434 199.114 94.0794C199.114 94.2074 199.081 94.3344 199.015 94.4604C198.95 94.5824 198.846 94.6844 198.704 94.7664ZM199.993 97.6698V94.4118L200.565 94.0818V95.4798L200.513 95.5098C200.513 95.1778 200.551 94.8798 200.627 94.6158C200.703 94.3478 200.816 94.1148 200.965 93.9168C201.117 93.7168 201.306 93.5518 201.531 93.4218L201.563 93.4038C201.899 93.2098 202.153 93.1888 202.326 93.3408C202.5 93.4888 202.586 93.8108 202.586 94.3068V96.1728L201.864 96.5898V94.6518C201.864 94.4518 201.814 94.3188 201.713 94.2528C201.616 94.1848 201.481 94.2008 201.308 94.3008C201.131 94.4028 200.987 94.5498 200.877 94.7418C200.769 94.9278 200.716 95.1268 200.716 95.3388V97.2528L199.993 97.6698ZM204.625 95.1095C204.383 95.2495 204.17 95.3245 203.986 95.3345C203.806 95.3425 203.655 95.3015 203.534 95.2115C203.416 95.1155 203.326 94.9855 203.264 94.8215C203.205 94.6555 203.176 94.4685 203.176 94.2605V94.1465C203.176 93.9305 203.205 93.7055 203.264 93.4715C203.326 93.2315 203.416 92.9995 203.534 92.7755C203.655 92.5455 203.804 92.3335 203.981 92.1395C204.158 91.9415 204.362 91.7755 204.594 91.6415C204.899 91.4655 205.154 91.3965 205.358 91.4345C205.566 91.4665 205.722 91.5785 205.826 91.7705C205.93 91.9585 205.982 92.1965 205.982 92.4845V92.7845L203.482 94.2275V93.7175L205.529 92.5355L205.306 92.9165C205.306 92.7085 205.28 92.5455 205.228 92.4275C205.176 92.3095 205.096 92.2415 204.989 92.2235C204.885 92.2035 204.753 92.2395 204.594 92.3315C204.435 92.4235 204.3 92.5435 204.189 92.6915C204.078 92.8395 203.993 93.0105 203.934 93.2045C203.879 93.3925 203.851 93.5965 203.851 93.8165C203.851 94.0205 203.879 94.1865 203.934 94.3145C203.99 94.4385 204.075 94.5135 204.189 94.5395C204.303 94.5615 204.449 94.5215 204.625 94.4195C204.802 94.3175 204.946 94.1945 205.057 94.0505C205.167 93.9025 205.238 93.7595 205.27 93.6215L205.935 93.2375C205.893 93.4855 205.813 93.7275 205.696 93.9635C205.578 94.1995 205.427 94.4165 205.244 94.6145C205.064 94.8105 204.857 94.9755 204.625 95.1095ZM207.848 93.2491C207.605 93.3891 207.392 93.4641 207.208 93.4741C207.028 93.4821 206.878 93.4411 206.756 93.3511C206.639 93.2551 206.548 93.1251 206.486 92.9611C206.427 92.7951 206.398 92.6081 206.398 92.4001V92.2861C206.398 92.0701 206.427 91.8451 206.486 91.6111C206.548 91.3711 206.639 91.1391 206.756 90.9151C206.878 90.6851 207.027 90.4731 207.203 90.2791C207.38 90.0811 207.584 89.9151 207.816 89.7811C208.121 89.6051 208.376 89.5361 208.58 89.5741C208.788 89.6061 208.944 89.7181 209.048 89.9101C209.152 90.0981 209.204 90.3361 209.204 90.6241V90.9241L206.704 92.3671V91.8571L208.752 90.6751L208.528 91.0561C208.528 90.8481 208.502 90.6851 208.45 90.5671C208.398 90.4491 208.319 90.3811 208.211 90.3631C208.107 90.3431 207.976 90.3791 207.816 90.4711C207.657 90.5631 207.522 90.6831 207.411 90.8311C207.3 90.9791 207.215 91.1501 207.156 91.3441C207.101 91.5321 207.073 91.7361 207.073 91.9561C207.073 92.1601 207.101 92.3261 207.156 92.4541C207.212 92.5781 207.297 92.6531 207.411 92.6791C207.525 92.7011 207.671 92.6611 207.848 92.5591C208.024 92.4571 208.168 92.3341 208.279 92.1901C208.39 92.0421 208.461 91.8991 208.492 91.7611L209.157 91.3771C209.115 91.6251 209.036 91.8671 208.918 92.1031C208.8 92.3391 208.649 92.5561 208.466 92.7541C208.286 92.9501 208.08 93.1151 207.848 93.2491ZM209.807 92.0038V88.7458L210.379 88.4158V89.7958L210.363 89.8048C210.363 89.3368 210.45 88.9328 210.623 88.5928C210.796 88.2528 211.051 87.9858 211.387 87.7918L211.491 87.7318V88.4578L211.293 88.5718C211.051 88.7118 210.862 88.8968 210.727 89.1268C210.595 89.3508 210.529 89.6048 210.529 89.8888V91.5868L209.807 92.0038ZM212.109 90.6748V87.4168L212.831 86.9998V90.2578L212.109 90.6748ZM211.714 88.2688V87.6448L212.831 86.9998V87.6238L211.714 88.2688ZM212.374 86.8738C212.232 86.9558 212.126 86.9748 212.057 86.9308C211.991 86.8808 211.958 86.7918 211.958 86.6638C211.958 86.5278 211.991 86.3988 212.057 86.2768C212.126 86.1528 212.232 86.0498 212.374 85.9678C212.516 85.8858 212.62 85.8678 212.686 85.9138C212.752 85.9598 212.784 86.0508 212.784 86.1868C212.784 86.3148 212.752 86.4418 212.686 86.5678C212.62 86.6898 212.516 86.7918 212.374 86.8738ZM213.664 89.7772V86.5192L214.235 86.1892V87.5872L214.183 87.6172C214.183 87.2852 214.221 86.9872 214.298 86.7232C214.374 86.4552 214.486 86.2222 214.635 86.0242C214.788 85.8242 214.977 85.6592 215.202 85.5292L215.233 85.5112C215.569 85.3172 215.823 85.2962 215.997 85.4482C216.17 85.5962 216.256 85.9182 216.256 86.4142V88.2802L215.534 88.6972V86.7592C215.534 86.5592 215.484 86.4262 215.384 86.3602C215.287 86.2922 215.151 86.3082 214.978 86.4082C214.802 86.5102 214.658 86.6572 214.547 86.8492C214.44 87.0352 214.386 87.2342 214.386 87.4462V89.3602L213.664 89.7772ZM218.135 88.4799C217.999 88.5579 217.861 88.6319 217.719 88.7019C217.58 88.7699 217.45 88.8289 217.329 88.8789V88.1829C217.454 88.1269 217.587 88.0639 217.729 87.9939C217.871 87.9279 218.005 87.8589 218.129 87.7869C218.361 87.6529 218.549 87.5129 218.691 87.3669C218.836 87.2189 218.942 87.0559 219.008 86.8779C219.077 86.7019 219.111 86.5079 219.111 86.2959V85.6539L219.267 85.1559C219.257 85.4619 219.203 85.7489 219.106 86.0169C219.009 86.2809 218.878 86.5169 218.711 86.7249C218.545 86.9289 218.353 87.0939 218.135 87.2199C217.941 87.3319 217.764 87.3919 217.605 87.3999C217.449 87.4059 217.314 87.3679 217.199 87.2859C217.088 87.2019 217.002 87.0779 216.939 86.9139C216.877 86.7499 216.846 86.5539 216.846 86.3259V86.1999C216.846 85.9719 216.877 85.7419 216.939 85.5099C217.005 85.2719 217.097 85.0449 217.215 84.8289C217.333 84.6129 217.473 84.4179 217.636 84.2439C217.799 84.0699 217.979 83.9259 218.176 83.8119C218.408 83.6779 218.609 83.6199 218.779 83.6379C218.952 83.6539 219.087 83.7439 219.184 83.9079C219.281 84.0719 219.335 84.3109 219.345 84.6249L219.221 84.7209V83.3109L219.792 82.9809V85.8549C219.792 86.2509 219.733 86.6049 219.615 86.9169C219.498 87.2289 219.316 87.5119 219.07 87.7659C218.827 88.0219 218.516 88.2599 218.135 88.4799ZM218.342 86.3859C218.481 86.3059 218.607 86.1969 218.722 86.0589C218.836 85.9209 218.928 85.7639 218.997 85.5879C219.066 85.4119 219.101 85.2279 219.101 85.0359V84.8259C219.101 84.6419 219.065 84.5069 218.992 84.4209C218.923 84.3329 218.831 84.2899 218.717 84.2919C218.602 84.2899 218.478 84.3279 218.342 84.4059C218.19 84.4939 218.055 84.6139 217.937 84.7659C217.823 84.9119 217.733 85.0779 217.667 85.2639C217.601 85.4499 217.568 85.6449 217.568 85.8489C217.568 86.0489 217.601 86.2039 217.667 86.3139C217.733 86.4239 217.823 86.4859 217.937 86.4999C218.055 86.5119 218.19 86.4739 218.342 86.3859Z" fill="#FFFAFA"/>
<path d="M42.0531 52.0314L45.1826 50.2248L46.3504 50.8989C46.5632 51.0218 46.7117 51.1528 46.7957 51.2918C46.8853 51.4308 46.9021 51.5699 46.8461 51.7089C46.7929 51.8463 46.6613 51.9757 46.4512 52.0969C46.244 52.2166 46.0185 52.2917 45.7749 52.3225C45.5369 52.3532 45.2974 52.3443 45.0566 52.2958C44.8157 52.2473 44.5889 52.1616 44.3761 52.0387L43.7796 51.6944L42.6244 52.3613L42.0531 52.0314ZM44.2836 51.4034L44.8886 51.7526C44.9922 51.8124 45.1014 51.8528 45.2162 51.8738C45.3338 51.8932 45.45 51.894 45.5649 51.8762C45.6797 51.8585 45.7847 51.8221 45.8799 51.7671C45.9779 51.7105 46.041 51.6499 46.069 51.5852C46.0998 51.5189 46.097 51.4527 46.0606 51.3864C46.0269 51.3185 45.9583 51.2546 45.8547 51.1948L45.2498 50.8456L44.2836 51.4034ZM44.7308 53.5773L47.016 52.258L47.5326 52.5563L47.0244 52.8498L47.058 52.7819C47.282 52.714 47.4836 52.6929 47.6629 52.7188C47.8449 52.7463 48.0157 52.8061 48.1754 52.8983L48.3098 52.9759L47.8225 53.2572L47.6251 53.1432C47.4682 53.0527 47.2932 53.0082 47.1 53.0098C46.9095 53.0098 46.7275 53.0599 46.5539 53.1602L45.2811 53.895L44.7308 53.5773ZM47.3689 55.1585C47.1449 55.0292 46.9922 54.8812 46.911 54.7147C46.8326 54.5498 46.8284 54.3841 46.8984 54.2176C46.9712 54.0527 47.1225 53.9039 47.3521 53.7713C47.5818 53.6388 47.8394 53.5515 48.125 53.5094C48.4135 53.469 48.7005 53.4714 48.9862 53.5167C49.2718 53.562 49.5281 53.6501 49.7549 53.781C49.979 53.9104 50.1302 54.0575 50.2086 54.2224C50.287 54.3873 50.2898 54.5522 50.217 54.7171C50.1498 54.882 50 55.0316 49.7675 55.1658C49.5379 55.2983 49.2788 55.3848 48.9904 55.4252C48.7019 55.4657 48.4149 55.4632 48.1292 55.418C47.8436 55.3727 47.5902 55.2862 47.3689 55.1585ZM47.873 54.8675C47.9962 54.9386 48.1334 54.9839 48.2847 55.0033C48.4387 55.0243 48.5941 55.0203 48.751 54.9912C48.9134 54.9621 49.0604 54.9095 49.192 54.8335C49.3265 54.7559 49.4161 54.6719 49.4609 54.5813C49.5113 54.4908 49.5183 54.4011 49.4819 54.3121C49.4511 54.2232 49.3741 54.1432 49.2508 54.0721C49.1248 53.9993 48.9834 53.9532 48.8266 53.9338C48.6725 53.9128 48.5157 53.916 48.3561 53.9435C48.2021 53.971 48.0578 54.0236 47.9234 54.1012C47.7918 54.1771 47.6994 54.2612 47.6462 54.3534C47.5986 54.4455 47.593 54.5361 47.6294 54.625C47.6658 54.7139 47.747 54.7947 47.873 54.8675ZM49.685 56.4955C49.5253 56.4034 49.4133 56.308 49.3489 56.2094C49.2845 56.1108 49.2691 56.0146 49.3027 55.9208C49.3391 55.8254 49.4231 55.7397 49.5547 55.6637C49.6808 55.591 49.8208 55.5425 49.9748 55.5182C50.1316 55.4924 50.3025 55.494 50.4873 55.5231C50.6721 55.5522 50.8682 55.6104 51.0754 55.6977L51.9449 56.059L51.5249 56.3015L50.7729 55.9935C50.6441 55.9418 50.5279 55.9151 50.4243 55.9135C50.3207 55.9119 50.2282 55.9345 50.147 55.9814C50.0686 56.0267 50.035 56.08 50.0462 56.1415C50.063 56.2029 50.1162 56.2595 50.2058 56.3112C50.3207 56.3775 50.4453 56.422 50.5797 56.4446C50.7197 56.4672 50.857 56.4672 50.9914 56.4446C51.1286 56.4236 51.249 56.3832 51.3526 56.3234L51.9407 55.9838C52.0388 55.9273 52.0808 55.8577 52.0668 55.7753C52.0584 55.6928 51.9912 55.6152 51.8651 55.5425C51.7475 55.4746 51.6103 55.4325 51.4535 55.4164C51.3022 55.4002 51.1538 55.4099 51.0082 55.4455L50.7771 55.0599C50.9424 55.0162 51.116 54.9968 51.298 55.0017C51.4857 55.0065 51.6705 55.0324 51.8525 55.0793C52.0346 55.1262 52.2026 55.1941 52.3566 55.283C52.5442 55.3913 52.6745 55.5069 52.7473 55.6298C52.8229 55.751 52.8383 55.8699 52.7935 55.9863C52.7543 56.1027 52.6535 56.2078 52.491 56.3015L50.9704 57.1794L50.4495 56.8787L50.8402 56.6532L50.9662 56.7162C50.8093 56.7389 50.6567 56.7461 50.5083 56.738C50.3627 56.7283 50.2198 56.7041 50.0798 56.6653C49.9426 56.6249 49.811 56.5683 49.685 56.4955ZM52.5292 58.1375C52.3023 58.0066 52.1497 57.8586 52.0713 57.6937C51.9985 57.5288 51.9999 57.3647 52.0755 57.2014C52.1539 57.0365 52.3065 56.8886 52.5334 56.7576C52.7602 56.6267 53.0151 56.5394 53.2979 56.4957C53.5808 56.4521 53.8636 56.4521 54.1464 56.4957C54.4321 56.541 54.6883 56.6291 54.9152 56.7601C55.0776 56.8538 55.1994 56.9581 55.2806 57.0729C55.3647 57.1861 55.4067 57.3009 55.4067 57.4173C55.4123 57.5337 55.3689 57.6444 55.2764 57.7495L54.5833 57.5919C54.6561 57.5013 54.6771 57.4067 54.6463 57.3081C54.6183 57.2111 54.5399 57.1254 54.4111 57.0511C54.2907 56.9816 54.1535 56.9363 53.9994 56.9153C53.8482 56.8959 53.6942 56.9007 53.5373 56.9298C53.3805 56.9589 53.2349 57.0123 53.1005 57.0899C52.966 57.1675 52.8736 57.2515 52.8232 57.3421C52.7728 57.4326 52.7644 57.5215 52.798 57.6088C52.8344 57.6978 52.9128 57.777 53.0333 57.8465C53.1649 57.9225 53.3147 57.9686 53.4827 57.9847C53.6508 58.0009 53.8146 57.9872 53.9742 57.9435L54.2389 58.3485C54.0652 58.397 53.8762 58.422 53.6718 58.4237C53.4701 58.4237 53.2699 58.4002 53.0711 58.3533C52.875 58.3048 52.6944 58.2329 52.5292 58.1375ZM55.0513 59.5644C54.7936 59.4157 54.6634 59.2597 54.6606 59.0964C54.6634 58.9331 54.7936 58.7771 55.0513 58.6283L56.0595 58.0463L55.6646 57.8184L56.1561 57.5346L56.1981 57.5589C56.3101 57.6235 56.4263 57.6567 56.5467 57.6583C56.6672 57.6599 56.7834 57.6284 56.8954 57.5637L57.0718 57.4619L57.6221 57.7796L57.1012 58.0803L57.6263 58.3834L57.1348 58.6671L56.6097 58.364L55.631 58.929C55.5554 58.9727 55.5036 59.0172 55.4756 59.0624C55.4503 59.1093 55.4517 59.157 55.4798 59.2055C55.5106 59.2556 55.5708 59.3065 55.6604 59.3583C55.68 59.3696 55.7038 59.3817 55.7318 59.3947C55.7626 59.4092 55.792 59.423 55.82 59.4359L55.3495 59.7075C55.3047 59.6881 55.2543 59.6655 55.1983 59.6396C55.1423 59.6137 55.0933 59.5887 55.0513 59.5644ZM55.77 59.9502L58.0552 58.631L58.6054 58.9487L56.3203 60.2679L55.77 59.9502ZM58.3114 58.483L58.8995 58.1435L59.4498 58.4612L58.8617 58.8007L58.3114 58.483ZM57.5173 60.9589L58.9035 59.1207L59.5042 59.4675L58.3574 60.8813L58.1348 60.7528L60.588 60.0932L61.1887 60.44L58.0045 61.2402L57.5173 60.9589ZM60.2 62.5659C59.9648 62.4301 59.8121 62.2805 59.7421 62.1172C59.6721 61.954 59.6791 61.7915 59.7631 61.6298C59.8472 61.4681 59.9998 61.3234 60.221 61.1957C60.4507 61.0631 60.7027 60.9742 60.9771 60.929C61.2572 60.8837 61.5344 60.8805 61.8089 60.9193C62.0861 60.9597 62.3312 61.0413 62.544 61.1642C62.7232 61.2677 62.8507 61.3752 62.9263 61.4867C63.0047 61.5999 63.0397 61.7139 63.0313 61.8287C63.0229 61.9434 62.9767 62.0542 62.8927 62.1609C62.8115 62.266 62.6938 62.363 62.5398 62.4519C62.5006 62.4745 62.4572 62.4964 62.4096 62.5174C62.3648 62.54 62.3214 62.557 62.2794 62.5683L60.5151 61.5498L60.9351 61.3073L62.3886 62.1463L61.9307 62.11C62.0847 62.0502 62.1926 61.9798 62.2542 61.899C62.3186 61.8198 62.3368 61.7381 62.3088 61.6541C62.2836 61.5716 62.2108 61.4956 62.0903 61.4261C61.9755 61.3598 61.8439 61.3178 61.6955 61.3C61.5498 61.2806 61.3972 61.2895 61.2376 61.3267C61.0836 61.3639 60.9337 61.4309 60.7881 61.528C60.6369 61.6023 60.5305 61.6848 60.4689 61.7753C60.4129 61.8658 60.4031 61.9556 60.4395 62.0445C60.4787 62.135 60.5613 62.2167 60.6873 62.2894C60.8133 62.3622 60.9463 62.4083 61.0864 62.4277C61.2292 62.4487 61.3706 62.4479 61.5106 62.4252L61.7375 62.8084C61.5835 62.8456 61.4168 62.8609 61.2376 62.8545C61.0584 62.848 60.8791 62.8205 60.6999 62.772C60.5235 62.7251 60.3568 62.6564 60.2 62.5659ZM62.2753 63.7058L66.4845 62.5223L67.2238 62.9491L65.1738 65.3791L64.5521 65.0202L65.0016 64.5036L63.7918 63.8052L62.8928 64.0622L62.2753 63.7058ZM64.4597 63.6088L65.3419 64.118L66.3794 62.9176L66.5391 63.0098L64.4597 63.6088ZM65.4759 65.5535L67.7611 64.2342L68.2778 64.5325L67.7695 64.8259L67.8031 64.758C68.0272 64.6901 68.2288 64.6691 68.408 64.695C68.5901 64.7225 68.7609 64.7823 68.9205 64.8744L69.0549 64.952L68.5677 65.2334L68.3702 65.1194C68.2134 65.0288 68.0384 64.9844 67.8451 64.986C67.6547 64.986 67.4727 65.0361 67.299 65.1364L66.0262 65.8711L65.4759 65.5535ZM68.0973 67.125C67.8704 66.994 67.7178 66.8461 67.6394 66.6812C67.5666 66.5163 67.568 66.3522 67.6436 66.1889C67.722 66.024 67.8746 65.8761 68.1015 65.7451C68.3283 65.6141 68.5832 65.5268 68.866 65.4832C69.1489 65.4395 69.4317 65.4395 69.7146 65.4832C70.0002 65.5285 70.2564 65.6166 70.4833 65.7475C70.6457 65.8413 70.7675 65.9456 70.8487 66.0604C70.9328 66.1735 70.9748 66.2883 70.9748 66.4047C70.9804 66.5211 70.937 66.6319 70.8445 66.737L70.1514 66.5793C70.2242 66.4888 70.2452 66.3942 70.2144 66.2956C70.1864 66.1986 70.108 66.1129 69.9792 66.0385C69.8588 65.969 69.7216 65.9237 69.5675 65.9027C69.4163 65.8833 69.2623 65.8882 69.1054 65.9173C68.9486 65.9464 68.803 65.9997 68.6686 66.0773C68.5341 66.1549 68.4417 66.239 68.3913 66.3295C68.3409 66.4201 68.3325 66.509 68.3661 66.5963C68.4025 66.6852 68.4809 66.7644 68.6014 66.834C68.733 66.9099 68.8828 66.956 69.0508 66.9722C69.2189 66.9884 69.3827 66.9746 69.5423 66.931L69.807 67.336C69.6333 67.3845 69.4443 67.4095 69.2399 67.4111C69.0382 67.4111 68.838 67.3877 68.6392 67.3408C68.4431 67.2923 68.2625 67.2204 68.0973 67.125ZM69.6028 67.9359L72.7828 66.1001L73.333 66.4178L71.9888 67.1938L71.993 67.1041C72.1834 67.0556 72.3739 67.0459 72.5643 67.075C72.7603 67.1041 72.9396 67.1655 73.102 67.2593C73.27 67.3563 73.3821 67.463 73.4381 67.5794C73.4969 67.6974 73.4969 67.8155 73.4381 67.9335C73.3821 68.0499 73.2686 68.1574 73.0978 68.256L71.6276 69.1048L71.0773 68.7871L72.4173 68.0135C72.5181 67.9553 72.5853 67.8939 72.6189 67.8292C72.6525 67.7645 72.6539 67.7007 72.6231 67.6376C72.5979 67.5746 72.5391 67.5164 72.4467 67.463C72.3571 67.4113 72.2563 67.3773 72.1442 67.3612C72.035 67.3434 71.9244 67.3442 71.8124 67.3636C71.7004 67.383 71.5939 67.4218 71.4931 67.48L70.1531 68.2536L69.6028 67.9359ZM72.0929 69.3734L74.3781 68.0542L74.9284 68.3719L72.6432 69.6911L72.0929 69.3734ZM74.6343 67.9063L75.2224 67.5667L75.7727 67.8844L75.1846 68.2239L74.6343 67.9063ZM74.1678 70.6004C73.9102 70.4517 73.78 70.2957 73.7772 70.1324C73.78 69.9691 73.9102 69.8131 74.1678 69.6643L75.176 69.0823L74.7811 68.8544L75.2726 68.5706L75.3146 68.5949C75.4267 68.6595 75.5429 68.6927 75.6633 68.6943C75.7837 68.6959 75.8999 68.6644 76.012 68.5997L76.1884 68.4979L76.7387 68.8156L76.2178 69.1163L76.7429 69.4194L76.2514 69.7031L75.7263 69.4L74.7475 69.965C74.6719 70.0087 74.6201 70.0531 74.5921 70.0984C74.5669 70.1453 74.5683 70.193 74.5963 70.2415C74.6271 70.2916 74.6873 70.3425 74.7769 70.3943C74.7965 70.4056 74.8204 70.4177 74.8484 70.4307C74.8792 70.4452 74.9086 70.4589 74.9366 70.4719L74.4661 70.7435C74.4213 70.7241 74.3709 70.7015 74.3149 70.6756C74.2589 70.6497 74.2098 70.6247 74.1678 70.6004ZM75.8994 71.6291C75.6642 71.4933 75.5115 71.3438 75.4415 71.1805C75.3715 71.0172 75.3785 70.8547 75.4625 70.6931C75.5465 70.5314 75.6992 70.3867 75.9204 70.259C76.15 70.1264 76.4021 70.0375 76.6765 69.9922C76.9566 69.9469 77.2338 69.9437 77.5083 69.9825C77.7855 70.0229 78.0306 70.1046 78.2434 70.2274C78.4226 70.3309 78.55 70.4384 78.6257 70.55C78.7041 70.6631 78.7391 70.7771 78.7307 70.8919C78.7223 71.0067 78.6761 71.1174 78.5921 71.2241C78.5108 71.3292 78.3932 71.4262 78.2392 71.5152C78.2 71.5378 78.1566 71.5596 78.109 71.5806C78.0642 71.6033 78.0208 71.6202 77.9787 71.6316L76.2144 70.613L76.6345 70.3705L78.088 71.2096L77.6301 71.1732C77.7841 71.1134 77.8919 71.0431 77.9535 70.9622C78.018 70.883 78.0362 70.8014 78.0082 70.7173C77.9829 70.6349 77.9101 70.5589 77.7897 70.4893C77.6749 70.4231 77.5433 70.381 77.3948 70.3632C77.2492 70.3438 77.0966 70.3527 76.937 70.3899C76.7829 70.4271 76.6331 70.4942 76.4875 70.5912C76.3363 70.6656 76.2298 70.748 76.1682 70.8386C76.1122 70.9291 76.1024 71.0188 76.1388 71.1077C76.178 71.1983 76.2607 71.2799 76.3867 71.3527C76.5127 71.4254 76.6457 71.4715 76.7857 71.4909C76.9286 71.5119 77.07 71.5111 77.21 71.4885L77.4369 71.8716C77.2828 71.9088 77.1162 71.9242 76.937 71.9177C76.7577 71.9112 76.5785 71.8838 76.3993 71.8353C76.2228 71.7884 76.0562 71.7197 75.8994 71.6291ZM78.4883 73.1237C78.2615 72.9928 78.1088 72.8448 78.0304 72.6799C77.9576 72.515 77.959 72.3509 78.0346 72.1876C78.113 72.0227 78.2657 71.8748 78.4925 71.7438C78.7194 71.6129 78.9742 71.5256 79.257 71.4819C79.5399 71.4383 79.8227 71.4383 80.1056 71.4819C80.3912 71.5272 80.6475 71.6153 80.8743 71.7463C81.0368 71.84 81.1586 71.9443 81.2398 72.0591C81.3238 72.1723 81.3658 72.2871 81.3658 72.4035C81.3714 72.5199 81.328 72.6306 81.2356 72.7357L80.5425 72.5781C80.6153 72.4875 80.6363 72.393 80.6055 72.2943C80.5775 72.1973 80.4991 72.1117 80.3702 72.0373C80.2498 71.9678 80.1126 71.9225 79.9586 71.9015C79.8073 71.8821 79.6533 71.8869 79.4965 71.916C79.3397 71.9451 79.194 71.9985 79.0596 72.0761C78.9252 72.1537 78.8328 72.2378 78.7824 72.3283C78.732 72.4188 78.7236 72.5077 78.7572 72.595C78.7936 72.684 78.872 72.7632 78.9924 72.8327C79.124 72.9087 79.2738 72.9548 79.4419 72.9709C79.6099 72.9871 79.7737 72.9734 79.9334 72.9297L80.198 73.3347C80.0244 73.3832 79.8353 73.4083 79.6309 73.4099C79.4293 73.4099 79.229 73.3864 79.0302 73.3395C78.8342 73.291 78.6535 73.2191 78.4883 73.1237ZM81.0104 74.5506C80.7528 74.4019 80.6226 74.2459 80.6198 74.0826C80.6226 73.9193 80.7528 73.7633 81.0104 73.6145L82.0186 73.0325L81.6237 72.8046L82.1152 72.5208L82.1572 72.5451C82.2692 72.6098 82.3855 72.6429 82.5059 72.6445C82.6263 72.6461 82.7425 72.6146 82.8545 72.5499L83.031 72.4481L83.5813 72.7658L83.0604 73.0665L83.5855 73.3696L83.094 73.6533L82.5689 73.3502L81.5901 73.9153C81.5145 73.9589 81.4627 74.0034 81.4347 74.0486C81.4095 74.0955 81.4109 74.1432 81.4389 74.1917C81.4697 74.2418 81.5299 74.2928 81.6195 74.3445C81.6391 74.3558 81.6629 74.3679 81.6909 74.3809C81.7217 74.3954 81.7511 74.4092 81.7792 74.4221L81.3087 74.6937C81.2639 74.6743 81.2135 74.6517 81.1574 74.6258C81.1014 74.5999 81.0524 74.5749 81.0104 74.5506ZM82.4936 75.436C82.3172 75.3341 82.2024 75.2226 82.1492 75.1013C82.0988 74.9817 82.1086 74.8612 82.1786 74.74C82.2514 74.6204 82.3816 74.5064 82.5693 74.3981L83.9681 73.5905L84.5184 73.9082L83.1658 74.6891C83.0705 74.744 83.0047 74.803 82.9683 74.8661C82.9375 74.9291 82.9361 74.993 82.9641 75.0577C82.9977 75.1223 83.0593 75.1805 83.149 75.2323C83.2386 75.284 83.338 75.3188 83.4472 75.3366C83.5592 75.3527 83.6712 75.3511 83.7833 75.3317C83.8953 75.3123 84.0017 75.2735 84.1025 75.2153L85.4425 74.4417L85.9928 74.7594L83.7076 76.0786L83.1868 75.7779L83.6362 75.5184L83.6026 75.5912C83.4094 75.6413 83.2162 75.651 83.0229 75.6203C82.8325 75.5912 82.6561 75.5298 82.4936 75.436ZM84.2192 76.3739L86.5044 75.0547L87.0211 75.353L86.5128 75.6464L86.5464 75.5785C86.7704 75.5106 86.9721 75.4896 87.1513 75.5155C87.3333 75.543 87.5041 75.6028 87.6638 75.6949L87.7982 75.7725L87.3109 76.0538L87.1135 75.9399C86.9567 75.8493 86.7816 75.8049 86.5884 75.8065C86.398 75.8065 86.2159 75.8566 86.0423 75.9568L84.7695 76.6916L84.2192 76.3739ZM86.8237 77.9357C86.5885 77.7999 86.4359 77.6504 86.3658 77.4871C86.2958 77.3238 86.3028 77.1613 86.3869 76.9997C86.4709 76.838 86.6235 76.6933 86.8447 76.5656C87.0744 76.433 87.3264 76.3441 87.6009 76.2988C87.8809 76.2536 88.1582 76.2503 88.4326 76.2891C88.7098 76.3295 88.9549 76.4112 89.1677 76.5341C89.347 76.6375 89.4744 76.745 89.55 76.8566C89.6284 76.9698 89.6634 77.0837 89.655 77.1985C89.6466 77.3133 89.6004 77.4241 89.5164 77.5308C89.4352 77.6358 89.3176 77.7329 89.1635 77.8218C89.1243 77.8444 89.0809 77.8662 89.0333 77.8872C88.9885 77.9099 88.9451 77.9269 88.9031 77.9382L87.1388 76.9196L87.5589 76.6771L89.0123 77.5162L88.5544 77.4798C88.7084 77.42 88.8163 77.3497 88.8779 77.2689C88.9423 77.1896 88.9605 77.108 88.9325 77.0239C88.9073 76.9415 88.8345 76.8655 88.714 76.796C88.5992 76.7297 88.4676 76.6876 88.3192 76.6699C88.1736 76.6505 88.0209 76.6594 87.8613 76.6965C87.7073 76.7337 87.5575 76.8008 87.4118 76.8978C87.2606 76.9722 87.1542 77.0546 87.0926 77.1452C87.0366 77.2357 87.0268 77.3254 87.0632 77.4144C87.1024 77.5049 87.185 77.5865 87.311 77.6593C87.437 77.732 87.5701 77.7781 87.7101 77.7975C87.8529 77.8185 87.9943 77.8177 88.1344 77.7951L88.3612 78.1783C88.2072 78.2154 88.0405 78.2308 87.8613 78.2243C87.6821 78.2179 87.5028 78.1904 87.3236 78.1419C87.1472 78.095 86.9806 78.0263 86.8237 77.9357ZM89.1816 79.297C88.938 79.1563 88.7825 79.0003 88.7153 78.8289C88.6537 78.6575 88.6887 78.4951 88.8203 78.3415L89.4295 78.4652C89.3594 78.5735 89.3398 78.6786 89.3706 78.7804C89.4042 78.8839 89.4855 78.9728 89.6143 79.0472C89.7151 79.1054 89.8173 79.1385 89.9209 79.1466C90.0246 79.1547 90.1128 79.1377 90.1856 79.0957C90.2304 79.0698 90.2542 79.0415 90.257 79.0108C90.2654 78.9801 90.2584 78.9469 90.236 78.9114C90.2192 78.8758 90.194 78.8402 90.1604 78.8047L89.8915 78.5282C89.7543 78.3843 89.6927 78.2501 89.7067 78.1256C89.7235 78.0028 89.8103 77.8961 89.9671 77.8055C90.1072 77.7247 90.264 77.6746 90.4376 77.6552C90.6169 77.6358 90.7989 77.6455 90.9837 77.6843C91.1714 77.7247 91.3478 77.7926 91.513 77.888C91.7286 78.0125 91.8673 78.1523 91.9289 78.3075C91.9905 78.4627 91.9625 78.6147 91.8449 78.7634L91.2274 78.6349C91.2918 78.5525 91.3086 78.4668 91.2778 78.3779C91.247 78.2889 91.1742 78.2113 91.0593 78.145C90.9669 78.0917 90.8731 78.0618 90.7779 78.0553C90.6827 78.0489 90.6015 78.065 90.5342 78.1038C90.4922 78.1281 90.467 78.1556 90.4586 78.1863C90.4502 78.217 90.4558 78.2493 90.4754 78.2833C90.4978 78.3188 90.5272 78.3568 90.5636 78.3973L90.8199 78.6713C90.9515 78.8119 91.0117 78.9437 91.0005 79.0666C90.9921 79.1911 90.9067 79.3002 90.7443 79.394C90.6071 79.4732 90.4488 79.5225 90.2696 79.5419C90.0932 79.5597 89.9111 79.5484 89.7235 79.5079C89.5359 79.4675 89.3552 79.3972 89.1816 79.297Z" fill="#FFFAFA"/>
<path d="M70.0574 17.3723L73.9704 15.1133L75.4253 15.9533C75.6914 16.1069 75.877 16.2706 75.9821 16.4445C76.0941 16.6183 76.1151 16.7922 76.0451 16.966C75.9786 17.1378 75.814 17.2996 75.5514 17.4512C75.2817 17.6068 74.9876 17.7018 74.669 17.7362C74.3538 17.7726 74.0422 17.7544 73.7341 17.6816L73.0618 19.1067L72.2529 18.6398L73.0092 17.0934L73.1983 17.5179L72.2161 16.9508L70.7717 17.7847L70.0574 17.3723ZM72.8464 16.587L73.5975 17.0206C73.7271 17.0954 73.8636 17.1459 74.0072 17.1722C74.1542 17.1965 74.2996 17.1975 74.4431 17.1752C74.5867 17.153 74.718 17.1075 74.837 17.0388C74.9596 16.968 75.0384 16.8922 75.0734 16.8114C75.1119 16.7285 75.1084 16.6456 75.0629 16.5627C75.0209 16.4778 74.9351 16.398 74.8055 16.3232L74.0544 15.8896L72.8464 16.587ZM74.6052 20.0705C74.3111 19.9007 74.1202 19.7137 74.0327 19.5096C73.9452 19.3054 73.9539 19.1023 74.059 18.9001C74.164 18.698 74.3548 18.517 74.6315 18.3574C74.9186 18.1916 75.2337 18.0804 75.5769 18.0238C75.927 17.9672 76.2737 17.9632 76.6169 18.0117C76.9635 18.0622 77.2699 18.1643 77.536 18.3179C77.7601 18.4473 77.9194 18.5817 78.014 18.7212C78.112 18.8627 78.1558 19.0052 78.1453 19.1488C78.1348 19.2923 78.077 19.4307 77.972 19.5642C77.8704 19.6956 77.7233 19.8168 77.5308 19.928C77.4817 19.9563 77.4275 19.9836 77.3679 20.0099C77.3119 20.0382 77.2576 20.0594 77.2051 20.0736L74.9991 18.8001L75.5244 18.4968L77.3417 19.546L76.7692 19.5005C76.9618 19.4257 77.0966 19.3378 77.1736 19.2367C77.2541 19.1376 77.2769 19.0356 77.2419 18.9304C77.2104 18.8273 77.1193 18.7323 76.9688 18.6454C76.8252 18.5625 76.6606 18.51 76.475 18.4877C76.293 18.4635 76.1021 18.4746 75.9025 18.5211C75.7099 18.5676 75.5226 18.6515 75.3405 18.7728C75.1515 18.8657 75.0184 18.9688 74.9414 19.082C74.8713 19.1952 74.8591 19.3074 74.9046 19.4186C74.9536 19.5318 75.0569 19.6339 75.2145 19.7249C75.372 19.8158 75.5384 19.8734 75.7135 19.8977C75.892 19.924 76.0689 19.923 76.2439 19.8947L76.5276 20.3738C76.335 20.4202 76.1266 20.4395 75.9025 20.4314C75.6784 20.4233 75.4543 20.3889 75.2302 20.3283C75.0096 20.2696 74.8013 20.1837 74.6052 20.0705ZM76.8601 21.2995L79.1028 20.0048L78.5986 19.7137L79.2131 19.3589L79.7173 19.65L79.8119 19.5954C80.029 19.4701 80.2566 19.3892 80.4947 19.3528C80.7398 19.3164 80.9832 19.3215 81.2248 19.368C81.4664 19.4145 81.6975 19.5014 81.9181 19.6288C81.9601 19.653 82.0021 19.6813 82.0441 19.7137C82.0932 19.746 82.1317 19.7743 82.1597 19.7986L81.5662 20.1412C81.5382 20.1169 81.5084 20.0957 81.4769 20.0775C81.4524 20.0593 81.4279 20.0432 81.4033 20.029C81.2493 19.9401 81.0952 19.8916 80.9411 19.8835C80.7906 19.8734 80.6435 19.9097 80.4999 19.9926L80.4054 20.0472L81.6555 20.7689L81.0409 21.1236L79.7909 20.402L77.5481 21.6967L76.8601 21.2995ZM78.5408 22.2698L81.3981 20.6203L82.0914 21.0205L79.2341 22.67L78.5408 22.2698ZM79.8068 23.0006L82.664 21.3511L83.3101 21.7241L82.7481 22.0485L82.7953 21.9606C83.0334 21.8999 83.2716 21.8878 83.5097 21.9242C83.7548 21.9606 83.9789 22.0374 84.182 22.1546C84.3921 22.2759 84.5321 22.4093 84.6021 22.5549C84.6757 22.7025 84.6757 22.85 84.6021 22.9976C84.5321 23.1431 84.3903 23.2776 84.1767 23.4009L82.3384 24.4621L81.6503 24.0649L83.3258 23.0976C83.4519 23.0249 83.5359 22.9481 83.5779 22.8672C83.62 22.7863 83.6217 22.7065 83.5832 22.6277C83.5517 22.5488 83.4781 22.476 83.3626 22.4093C83.2505 22.3447 83.1245 22.3022 82.9844 22.282C82.8479 22.2598 82.7095 22.2608 82.5695 22.285C82.4294 22.3093 82.2964 22.3578 82.1703 22.4306L80.4948 23.3978L79.8068 23.0006ZM84.2123 25.6167C83.9181 25.4469 83.7273 25.2599 83.6398 25.0557C83.5522 24.8516 83.561 24.6484 83.666 24.4463C83.7711 24.2441 83.9619 24.0632 84.2385 23.9035C84.5257 23.7378 84.8408 23.6266 85.184 23.57C85.5341 23.5134 85.8808 23.5093 86.2239 23.5578C86.5706 23.6084 86.877 23.7105 87.1431 23.8641C87.3672 23.9935 87.5265 24.1279 87.6211 24.2674C87.7191 24.4089 87.7629 24.5514 87.7524 24.6949C87.7419 24.8384 87.6841 24.9769 87.579 25.1103C87.4775 25.2417 87.3304 25.363 87.1378 25.4742C87.0888 25.5025 87.0345 25.5298 86.975 25.5561C86.919 25.5844 86.8647 25.6056 86.8122 25.6197L84.6062 24.3462L85.1314 24.043L86.9488 25.0921L86.3762 25.0467C86.5688 24.9719 86.7036 24.8839 86.7807 24.7829C86.8612 24.6838 86.884 24.5817 86.849 24.4766C86.8174 24.3735 86.7264 24.2785 86.5758 24.1916C86.4323 24.1087 86.2677 24.0561 86.0821 24.0339C85.9 24.0096 85.7092 24.0208 85.5096 24.0673C85.317 24.1137 85.1297 24.1976 84.9476 24.3189C84.7585 24.4119 84.6255 24.515 84.5484 24.6282C84.4784 24.7414 84.4661 24.8536 84.5117 24.9648C84.5607 25.078 84.664 25.1801 84.8216 25.271C84.9791 25.362 85.1454 25.4196 85.3205 25.4439C85.4991 25.4701 85.6759 25.4691 85.851 25.4408L86.1346 25.9199C85.9421 25.9664 85.7337 25.9856 85.5096 25.9775C85.2855 25.9694 85.0614 25.9351 84.8373 25.8744C84.6167 25.8158 84.4084 25.7299 84.2123 25.6167ZM86.1362 26.6546L88.9935 25.0051L89.6396 25.3781L88.9778 25.7601L89.0145 25.654C89.2736 25.5651 89.5328 25.5368 89.7919 25.5691C90.051 25.6015 90.2873 25.6793 90.5009 25.8026C90.7355 25.938 90.8809 26.0927 90.9369 26.2665C90.9929 26.4404 90.9474 26.6 90.8003 26.7456L90.5902 26.6425C90.9054 26.5616 91.2065 26.5394 91.4936 26.5758C91.7843 26.6102 92.0434 26.693 92.271 26.8244C92.4741 26.9417 92.6089 27.0721 92.6754 27.2156C92.7454 27.3611 92.7437 27.5077 92.6702 27.6552C92.6001 27.8008 92.4583 27.9352 92.2447 28.0585L90.4064 29.1198L89.7183 28.7226L91.3938 27.7553C91.5199 27.6825 91.6057 27.6067 91.6512 27.5279C91.6967 27.4491 91.7037 27.3722 91.6722 27.2975C91.6442 27.2206 91.5724 27.1489 91.4569 27.0822C91.3483 27.0195 91.2258 26.9791 91.0892 26.9609C90.9561 26.9407 90.8213 26.9437 90.6848 26.97C90.5482 26.9963 90.4169 27.0458 90.2908 27.1186L88.6153 28.0858L87.9273 27.6886L89.6028 26.7213C89.7288 26.6486 89.8146 26.5728 89.8602 26.4939C89.9057 26.4151 89.9109 26.3373 89.8759 26.2604C89.8479 26.1836 89.7779 26.1129 89.6658 26.0482C89.5573 25.9855 89.4347 25.9451 89.2982 25.9269C89.1651 25.9067 89.0303 25.9097 88.8937 25.936C88.7572 25.9623 88.6259 26.0118 88.4998 26.0846L86.8243 27.0518L86.1362 26.6546ZM92.2806 30.2745C91.9865 30.1047 91.7956 29.9177 91.7081 29.7136C91.6205 29.5094 91.6293 29.3063 91.7343 29.1041C91.8394 28.902 92.0302 28.721 92.3068 28.5613C92.594 28.3956 92.9091 28.2844 93.2523 28.2278C93.6024 28.1712 93.9491 28.1672 94.2922 28.2157C94.6389 28.2662 94.9453 28.3683 95.2114 28.5219C95.4355 28.6513 95.5948 28.7857 95.6894 28.9252C95.7874 29.0667 95.8312 29.2092 95.8207 29.3527C95.8102 29.4963 95.7524 29.6347 95.6473 29.7682C95.5458 29.8996 95.3987 30.0208 95.2061 30.132C95.1571 30.1603 95.1028 30.1876 95.0433 30.2139C94.9873 30.2422 94.933 30.2634 94.8805 30.2776L92.6745 29.004L93.1997 28.7008L95.0171 29.75L94.4446 29.7045C94.6371 29.6297 94.7719 29.5418 94.849 29.4407C94.9295 29.3416 94.9523 29.2395 94.9173 29.1344C94.8857 29.0313 94.7947 28.9363 94.6441 28.8494C94.5006 28.7665 94.336 28.714 94.1504 28.6917C93.9683 28.6675 93.7775 28.6786 93.5779 28.7251C93.3853 28.7716 93.198 28.8555 93.0159 28.9768C92.8268 29.0697 92.6938 29.1728 92.6167 29.286C92.5467 29.3992 92.5344 29.5114 92.58 29.6226C92.629 29.7358 92.7323 29.8379 92.8899 29.9289C93.0474 30.0198 93.2138 30.0774 93.3888 30.1017C93.5674 30.128 93.7442 30.127 93.9193 30.0987L94.2029 30.5777C94.0104 30.6242 93.802 30.6434 93.5779 30.6354C93.3538 30.6273 93.1297 30.5929 92.9056 30.5323C92.685 30.4736 92.4767 30.3877 92.2806 30.2745ZM94.2045 31.3125L97.0618 29.663L97.7079 30.0359L97.1459 30.3604L97.1931 30.2724C97.4312 30.2118 97.6693 30.1996 97.9074 30.236C98.1526 30.2724 98.3767 30.3492 98.5797 30.4665C98.7898 30.5878 98.9299 30.7212 98.9999 30.8667C99.0735 31.0143 99.0735 31.1619 98.9999 31.3094C98.9299 31.455 98.7881 31.5894 98.5745 31.7127L96.7362 32.774L96.0481 32.3768L97.7236 31.4095C97.8497 31.3367 97.9337 31.2599 97.9757 31.179C98.0177 31.0982 98.0195 31.0183 97.981 30.9395C97.9495 30.8607 97.8759 30.7879 97.7604 30.7212C97.6483 30.6565 97.5223 30.614 97.3822 30.5938C97.2457 30.5716 97.1073 30.5726 96.9673 30.5969C96.8272 30.6211 96.6942 30.6696 96.5681 30.7424L94.8926 31.7097L94.2045 31.3125ZM98.5891 33.88C98.2669 33.6941 98.1041 33.499 98.1006 33.2948C98.1041 33.0907 98.2669 32.8956 98.5891 32.7096L99.8496 31.9819L99.3559 31.6969L99.9704 31.3421L100.023 31.3724C100.163 31.4533 100.308 31.4947 100.459 31.4967C100.609 31.4988 100.755 31.4593 100.895 31.3785L101.115 31.2511L101.803 31.6483L101.152 32.0243L101.809 32.4034L101.194 32.7581L100.538 32.3791L99.3139 33.0856C99.2193 33.1402 99.1546 33.1958 99.1195 33.2524C99.088 33.311 99.0898 33.3706 99.1248 33.4313C99.1633 33.4939 99.2386 33.5576 99.3507 33.6223C99.3752 33.6364 99.4049 33.6516 99.4399 33.6678C99.4785 33.686 99.5152 33.7032 99.5502 33.7193L98.962 34.0589C98.906 34.0347 98.8429 34.0064 98.7729 33.974C98.7029 33.9417 98.6416 33.9104 98.5891 33.88ZM100.512 35.0265C100.207 34.8506 100.013 34.6555 99.9289 34.4412C99.8518 34.227 99.8956 34.0238 100.06 33.8318L100.822 33.9864C100.734 34.1219 100.71 34.2532 100.748 34.3806C100.79 34.51 100.892 34.6212 101.053 34.7141C101.179 34.7869 101.307 34.8284 101.436 34.8385C101.566 34.8486 101.676 34.8273 101.767 34.7748C101.823 34.7424 101.853 34.7071 101.856 34.6687C101.867 34.6302 101.858 34.5888 101.83 34.5443C101.809 34.4999 101.778 34.4554 101.736 34.4109L101.4 34.0653C101.228 33.8853 101.151 33.7176 101.168 33.5619C101.189 33.4083 101.298 33.2749 101.494 33.1617C101.669 33.0606 101.865 32.9979 102.082 32.9737C102.306 32.9494 102.534 32.9615 102.765 33.0101C103 33.0606 103.22 33.1455 103.427 33.2648C103.697 33.4204 103.87 33.5953 103.947 33.7893C104.024 33.9834 103.989 34.1734 103.842 34.3594L103.07 34.1987C103.15 34.0956 103.171 33.9884 103.133 33.8773C103.094 33.7661 103.003 33.669 102.86 33.5862C102.744 33.5195 102.627 33.4821 102.508 33.474C102.389 33.4659 102.287 33.4861 102.203 33.5346C102.151 33.5649 102.119 33.5993 102.109 33.6377C102.098 33.6761 102.105 33.7166 102.13 33.759C102.158 33.8035 102.194 33.851 102.24 33.9015L102.56 34.2442C102.725 34.42 102.8 34.5848 102.786 34.7384C102.776 34.894 102.669 35.0305 102.466 35.1477C102.294 35.2468 102.096 35.3084 101.872 35.3327C101.652 35.3549 101.424 35.3408 101.189 35.2903C100.955 35.2397 100.729 35.1518 100.512 35.0265Z" fill="#0E3572"/>
</g>
<defs>
<linearGradient id="paint0_linear_1893_2000" x1="138" y1="0" x2="138" y2="145" gradientUnits="userSpaceOnUse">
<stop stop-color="#1A3F79"/>
<stop offset="1" stop-color="#002A6B"/>
</linearGradient>
<clipPath id="clip0_1893_2000">
<rect width="276" height="145" fill="white"/>
</clipPath>
</defs>
</svg>
