<svg width="30" height="30" viewBox="0 0 30 30" fill="none" xmlns="http://www.w3.org/2000/svg">
<g clip-path="url(#clip0_1427_2116)">
<ellipse cx="16.5" cy="16" rx="12.5" ry="13" fill="#0E3572" fill-opacity="0.4"/>
<path d="M15 18.5156C13.0611 18.5156 11.4844 16.9389 11.4844 15C11.4844 13.0611 13.0611 11.4844 15 11.4844C16.9389 11.4844 18.5156 13.0611 18.5156 15C18.5156 16.9389 16.9389 18.5156 15 18.5156Z" fill="white" fill-opacity="0.8"/>
<path d="M22.0312 15C22.0312 14.3498 21.9138 13.732 21.7478 13.1338L23.4904 12.1278L21.7326 9.08319L20.0089 10.0784C19.1299 9.18385 18.0078 8.54342 16.7578 8.21846V6.21099H13.2422V8.21846C11.9921 8.54342 10.8701 9.18385 9.99103 10.0784L8.26733 9.08319L6.50952 12.1278L8.25209 13.1338C8.0861 13.732 7.96874 14.3498 7.96874 15C7.96874 15.6503 8.0861 16.268 8.25209 16.8662L6.50952 17.8722L8.26733 20.9169L9.99103 19.9217C10.8701 20.8162 11.9921 21.4566 13.2422 21.7816V23.7891H16.7578V21.7816C18.0078 21.4566 19.1299 20.8162 20.0089 19.9217L21.7326 20.9169L23.4904 17.8722L21.7478 16.8662C21.9138 16.268 22.0312 15.6503 22.0312 15Z" stroke="#0E3572" stroke-miterlimit="10" stroke-linecap="round" stroke-linejoin="round"/>
<path d="M15 18.5156C13.0611 18.5156 11.4844 16.9389 11.4844 15C11.4844 13.0611 13.0611 11.4844 15 11.4844C16.9389 11.4844 18.5156 13.0611 18.5156 15C18.5156 16.9389 16.9389 18.5156 15 18.5156Z" stroke="#0E3572" stroke-miterlimit="10" stroke-linecap="round" stroke-linejoin="round"/>
<path d="M1.96347 20.2734C1.30201 18.6442 0.878906 16.8639 0.878906 15C0.878906 7.24609 7.24604 0.878963 15 0.878963C19.4414 0.878963 23.6076 3.0737 26.1866 6.29934" stroke="#0E3572" stroke-miterlimit="10" stroke-linecap="round" stroke-linejoin="round"/>
<path d="M28.0366 9.72662C28.6981 11.3559 29.1212 13.1362 29.1212 15C29.1212 22.754 22.754 29.1211 15.0001 29.1211C10.5587 29.1211 6.39247 26.9264 3.81348 23.7007" stroke="#0E3572" stroke-miterlimit="10" stroke-linecap="round" stroke-linejoin="round"/>
<path d="M24.9437 2.57042L26.1867 6.29932L22.4578 5.05631" stroke="#0E3572" stroke-miterlimit="10" stroke-linecap="round" stroke-linejoin="round"/>
<path d="M7.54213 24.9436L3.81323 23.7006L5.05618 27.4294" stroke="#0E3572" stroke-miterlimit="10" stroke-linecap="round" stroke-linejoin="round"/>
</g>
<defs>
<clipPath id="clip0_1427_2116">
<rect width="30" height="30" fill="white"/>
</clipPath>
</defs>
</svg>
