<svg width="80" height="60" viewBox="0 0 80 60" fill="none" xmlns="http://www.w3.org/2000/svg">
<g clip-path="url(#clip0_4095_8325)">
<path d="M0 0H80V60H0" fill="#BD3D44"/>
<path d="M0 6.91211H80ZM0 16.1246H80ZM0 25.3746H80ZM0 34.6246H80ZM0 43.8746H80ZM0 53.1246H80Z" fill="black"/>
<path d="M0 4.59961V9.22461H80V4.59961H0ZM0 13.8121V18.4371H80V13.8121H0ZM0 23.0621V27.6871H80V23.0621H0ZM0 32.3121V36.9371H80V32.3121H0ZM0 41.5621V46.1871H80V41.5621H0ZM0 50.8121V55.4371H80V50.8121H0Z" fill="white"/>
<path d="M0 0H45.6V32.3125H0" fill="#192F5D"/>
<path d="M41.75 27.25L42.875 30.625L40 28.5H43.5L40.625 30.625L41.75 27.25ZM34.25 27.25L35.375 30.625L32.5 28.5H36L33.125 30.625L34.25 27.25ZM26.625 27.25L27.75 30.625L24.875 28.5H28.375L25.5 30.625L26.625 27.25ZM19 27.25L20.125 30.625L17.25 28.5H20.75L17.875 30.625L19 27.25ZM11.375 27.25L12.5 30.625L9.625 28.5H13.125L10.25 30.625L11.375 27.25ZM3.75 27.25L4.875 30.625L2 28.5H5.5L2.625 30.625L3.75 27.25ZM38 24L39.125 27.375L36.25 25.25H39.75L36.875 27.375L38 24ZM30.375 24L31.5 27.375L28.625 25.25H32.125L29.25 27.375L30.375 24ZM22.875 24L24 27.375L21.125 25.25H24.625L21.75 27.375L22.875 24ZM15.25 24L16.375 27.375L13.5 25.25H17L14.125 27.375L15.25 24ZM7.625 24L8.75 27.375L5.875 25.25H9.375L6.5 27.375L7.625 24ZM41.75 20.75L42.875 24.125L40 22H43.5L40.625 24.125L41.75 20.75ZM34.25 20.75L35.375 24.125L32.5 22H36L33.125 24.125L34.25 20.75ZM26.625 20.75L27.75 24.125L24.875 22H28.375L25.5 24.125L26.625 20.75ZM19 20.75L20.125 24.125L17.25 22H20.75L17.875 24.125L19 20.75ZM11.375 20.75L12.5 24.125L9.625 22H13.125L10.25 24.125L11.375 20.75ZM3.75 20.75L4.875 24.125L2 22H5.5L2.625 24.125L3.75 20.75ZM38 17.625L39.125 21L36.25 18.875H39.75L36.875 21L38 17.625ZM30.375 17.625L31.5 21L28.625 18.875H32.125L29.25 21L30.375 17.625ZM22.875 17.625L24 21L21.125 18.875H24.625L21.75 21L22.875 17.625ZM15.25 17.625L16.375 21L13.5 18.875H17L14.125 21L15.25 17.625ZM7.625 17.625L8.75 21L5.875 18.875H9.375L6.5 21L7.625 17.625ZM41.75 14.375L42.875 17.75L40 15.625H43.5L40.625 17.75L41.75 14.375ZM34.25 14.375L35.375 17.75L32.5 15.625H36L33.125 17.75L34.25 14.375ZM26.625 14.375L27.75 17.75L24.875 15.625H28.375L25.5 17.75L26.625 14.375ZM19 14.375L20.125 17.75L17.25 15.625H20.75L17.875 17.75L19 14.375ZM11.375 14.375L12.5 17.75L9.625 15.625H13.125L10.25 17.75L11.375 14.375ZM3.75 14.375L4.875 17.75L2 15.625H5.5L2.625 17.75L3.75 14.375ZM38 11.125L39.125 14.5L36.25 12.375H39.75L36.875 14.5L38 11.125ZM30.375 11.125L31.5 14.5L28.625 12.375H32.125L29.25 14.5L30.375 11.125ZM22.875 11.125L24 14.5L21.125 12.375H24.625L21.75 14.5L22.875 11.125ZM15.25 11.125L16.375 14.5L13.5 12.375H17L14.125 14.5L15.25 11.125ZM7.625 11.125L8.75 14.5L5.875 12.375H9.375L6.5 14.5L7.625 11.125ZM41.75 7.875L42.875 11.25L40 9.125H43.5L40.625 11.25L41.75 7.875ZM34.25 7.875L35.375 11.25L32.5 9.125H36L33.125 11.25L34.25 7.875ZM26.625 7.875L27.75 11.25L24.875 9.125H28.375L25.5 11.25L26.625 7.875ZM19 7.875L20.125 11.25L17.25 9.125H20.75L17.875 11.25L19 7.875ZM11.375 7.875L12.5 11.25L9.625 9.125H13.125L10.25 11.25L11.375 7.875ZM3.75 7.875L4.875 11.25L2 9.125H5.5L2.625 11.25L3.75 7.875ZM38 4.625L39.125 8L36.25 5.875H39.75L36.875 8L38 4.625ZM30.375 4.625L31.5 8L28.625 5.875H32.125L29.25 8L30.375 4.625ZM22.875 4.625L24 8L21.125 5.875H24.625L21.75 8L22.875 4.625ZM15.25 4.625L16.375 8L13.5 5.875H17L14.125 8L15.25 4.625ZM7.625 4.625L8.75 8L5.875 5.875H9.375L6.5 8L7.625 4.625ZM41.75 1.375L42.875 4.75L40 2.625H43.5L40.625 4.75L41.75 1.375ZM34.25 1.375L35.375 4.75L32.5 2.625H36L33.125 4.75L34.25 1.375ZM26.625 1.375L27.75 4.75L24.875 2.625H28.375L25.5 4.75L26.625 1.375ZM19 1.375L20.125 4.75L17.25 2.625H20.75L17.875 4.75L19 1.375ZM11.375 1.375L12.5 4.75L9.625 2.625H13.125L10.25 4.75L11.375 1.375ZM3.75 1.375L4.875 4.75L2 2.625H5.5L2.625 4.75L3.75 1.375Z" fill="white"/>
</g>
<defs>
<clipPath id="clip0_4095_8325">
<rect width="80" height="60" fill="white"/>
</clipPath>
</defs>
</svg>
