<svg width="326" height="240" viewBox="0 0 326 240" fill="none" xmlns="http://www.w3.org/2000/svg">
<g clip-path="url(#clip0_1719_12295)">
<g opacity="0.5">
<mask id="mask0_1719_12295" style="mask-type:alpha" maskUnits="userSpaceOnUse" x="-223" y="-118" width="771" height="445">
<rect width="444.394" height="444.394" transform="matrix(0.866025 0.5 -0.866025 0.5 162.833 -117.825)" fill="url(#paint0_radial_1719_12295)"/>
<rect y="0.500061" width="443.394" height="443.394" transform="matrix(0.866025 0.5 -0.866025 0.5 163.267 -117.575)" stroke="#B3B3B3" stroke-opacity="0.3" stroke-width="1.00012"/>
</mask>
<g mask="url(#mask0_1719_12295)">
<path d="M153.942 -112.27L-212.535 99.3162" stroke="#B3B3B3" stroke-opacity="0.3" stroke-width="1.00012"/>
<path d="M169.977 -103.012L-196.501 108.574" stroke="#B3B3B3" stroke-opacity="0.3" stroke-width="1.00012"/>
<path d="M186.013 -93.7532L-180.464 117.833" stroke="#B3B3B3" stroke-opacity="0.3" stroke-width="1.00012"/>
<path d="M202.048 -84.4951L-164.429 127.091" stroke="#B3B3B3" stroke-opacity="0.3" stroke-width="1.00012"/>
<path d="M218.084 -75.2373L-148.394 136.349" stroke="#B3B3B3" stroke-opacity="0.3" stroke-width="1.00012"/>
<path d="M234.121 -65.9788L-132.357 145.607" stroke="#B3B3B3" stroke-opacity="0.3" stroke-width="1.00012"/>
<path d="M250.155 -56.72L-116.322 154.866" stroke="#B3B3B3" stroke-opacity="0.3" stroke-width="1.00012"/>
<path d="M266.191 -47.4629L-100.287 164.123" stroke="#B3B3B3" stroke-opacity="0.3" stroke-width="1.00012"/>
<path d="M282.229 -38.2041L-84.2491 173.382" stroke="#B3B3B3" stroke-opacity="0.3" stroke-width="1.00012"/>
<path d="M298.263 -28.9458L-68.2149 182.64" stroke="#B3B3B3" stroke-opacity="0.3" stroke-width="1.00012"/>
<path d="M314.298 -19.688L-52.1798 191.898" stroke="#B3B3B3" stroke-opacity="0.3" stroke-width="1.00012"/>
<path d="M330.334 -10.429L-36.1437 201.157" stroke="#B3B3B3" stroke-opacity="0.3" stroke-width="1.00012"/>
<path d="M346.37 -1.17114L-20.1075 210.415" stroke="#B3B3B3" stroke-opacity="0.3" stroke-width="1.00012"/>
<path d="M362.406 8.08667L-4.07139 219.673" stroke="#B3B3B3" stroke-opacity="0.3" stroke-width="1.00012"/>
<path d="M378.443 17.3455L11.9652 228.931" stroke="#B3B3B3" stroke-opacity="0.3" stroke-width="1.00012"/>
<path d="M394.477 26.6033L27.9989 238.189" stroke="#B3B3B3" stroke-opacity="0.3" stroke-width="1.00012"/>
<path d="M410.514 35.8611L44.036 247.447" stroke="#B3B3B3" stroke-opacity="0.3" stroke-width="1.00012"/>
<path d="M426.548 45.1199L60.0702 256.706" stroke="#B3B3B3" stroke-opacity="0.3" stroke-width="1.00012"/>
<path d="M442.585 54.3782L76.1073 265.964" stroke="#B3B3B3" stroke-opacity="0.3" stroke-width="1.00012"/>
<path d="M458.62 63.636L92.142 275.222" stroke="#B3B3B3" stroke-opacity="0.3" stroke-width="1.00012"/>
<path d="M474.655 72.8943L108.178 284.48" stroke="#B3B3B3" stroke-opacity="0.3" stroke-width="1.00012"/>
<path d="M490.691 82.1526L124.214 293.739" stroke="#B3B3B3" stroke-opacity="0.3" stroke-width="1.00012"/>
<path d="M506.728 91.4109L140.25 302.997" stroke="#B3B3B3" stroke-opacity="0.3" stroke-width="1.00012"/>
<path d="M522.762 100.669L156.285 312.255" stroke="#B3B3B3" stroke-opacity="0.3" stroke-width="1.00012"/>
<path d="M538.799 109.927L172.321 321.513" stroke="#B3B3B3" stroke-opacity="0.3" stroke-width="1.00012"/>
<path d="M153.942 -112.27L538.799 109.927" stroke="#B3B3B3" stroke-opacity="0.3" stroke-width="1.00012"/>
<path d="M138.672 -103.454L523.528 118.743" stroke="#B3B3B3" stroke-opacity="0.3" stroke-width="1.00012"/>
<path d="M123.402 -94.6375L508.259 127.559" stroke="#B3B3B3" stroke-opacity="0.3" stroke-width="1.00012"/>
<path d="M108.131 -85.8215L492.988 136.375" stroke="#B3B3B3" stroke-opacity="0.3" stroke-width="1.00012"/>
<path d="M92.8618 -77.0054L477.718 145.192" stroke="#B3B3B3" stroke-opacity="0.3" stroke-width="1.00012"/>
<path d="M77.5913 -68.1895L462.448 154.007" stroke="#B3B3B3" stroke-opacity="0.3" stroke-width="1.00012"/>
<path d="M62.3223 -59.373L447.179 162.824" stroke="#B3B3B3" stroke-opacity="0.3" stroke-width="1.00012"/>
<path d="M47.0522 -50.5571L431.909 171.64" stroke="#B3B3B3" stroke-opacity="0.3" stroke-width="1.00012"/>
<path d="M31.7822 -41.7415L416.639 180.455" stroke="#B3B3B3" stroke-opacity="0.3" stroke-width="1.00012"/>
<path d="M16.5127 -32.9253L401.369 189.272" stroke="#B3B3B3" stroke-opacity="0.3" stroke-width="1.00012"/>
<path d="M1.24268 -24.1084L386.099 198.089" stroke="#B3B3B3" stroke-opacity="0.3" stroke-width="1.00012"/>
<path d="M-14.0278 -15.2935L370.829 206.903" stroke="#B3B3B3" stroke-opacity="0.3" stroke-width="1.00012"/>
<path d="M-29.2964 -6.47656L355.56 215.72" stroke="#B3B3B3" stroke-opacity="0.3" stroke-width="1.00012"/>
<path d="M-44.5669 2.33984L340.289 224.537" stroke="#B3B3B3" stroke-opacity="0.3" stroke-width="1.00012"/>
<path d="M-59.8369 11.1553L325.019 233.352" stroke="#B3B3B3" stroke-opacity="0.3" stroke-width="1.00012"/>
<path d="M-75.106 19.9717L309.75 242.169M69.2148 103.295C69.2148 103.295 78.9879 108.938 85.25 112.553" stroke="#B3B3B3" stroke-opacity="0.3" stroke-width="1.00012"/>
<path d="M-90.3628 28.7827L294.494 250.98" stroke="#B3B3B3" stroke-opacity="0.3" stroke-width="1.00012"/>
<path d="M-105.632 37.5979L279.224 259.795" stroke="#B3B3B3" stroke-opacity="0.3" stroke-width="1.00012"/>
<path d="M-120.903 46.4136L263.954 268.611" stroke="#B3B3B3" stroke-opacity="0.3" stroke-width="1.00012"/>
<path d="M-136.172 55.2295L248.684 277.426" stroke="#B3B3B3" stroke-opacity="0.3" stroke-width="1.00012"/>
<path d="M-151.442 64.0459L233.414 286.243" stroke="#B3B3B3" stroke-opacity="0.3" stroke-width="1.00012"/>
<path d="M-166.711 72.8618L218.145 295.059" stroke="#B3B3B3" stroke-opacity="0.3" stroke-width="1.00012"/>
<path d="M-181.982 81.6775L202.874 303.874" stroke="#B3B3B3" stroke-opacity="0.3" stroke-width="1.00012"/>
<path d="M-197.252 90.4944L187.604 312.691" stroke="#B3B3B3" stroke-opacity="0.3" stroke-width="1.00012"/>
<path d="M-212.521 99.3096L172.335 321.507" stroke="#B3B3B3" stroke-opacity="0.3" stroke-width="1.00012"/>
</g>
</g>
<path d="M110.818 170.42L0.00846771 107.108L142.42 24.4639" stroke="#0E3572" stroke-width="0.266368" stroke-dasharray="0.53 0.53"/>
<path d="M150.825 50.9247L58.4341 104.196L142.782 152.331" stroke="#0E3572" stroke-width="0.266368" stroke-dasharray="0.53 0.53"/>
<line y1="-0.133184" x2="55.2978" y2="-0.133184" transform="matrix(0.876688 -0.481059 0.482039 0.87615 112.35 134.357)" stroke="#0E3572" stroke-width="0.266368" stroke-dasharray="0.53 0.53"/>
<line y1="-0.133184" x2="57.4247" y2="-0.133184" transform="matrix(0.881327 -0.472507 0.47348 0.880805 141.118 152.978)" stroke="#0E3572" stroke-width="0.266368" stroke-dasharray="0.53 0.53"/>
<path d="M190.998 125.181L260.903 160.656L139.921 230.412" stroke="#0E3572" stroke-width="0.266368" stroke-dasharray="0.53 0.53"/>
<path d="M212.029 102.847L312.183 150.73L322.393 156.617L194.412 230.408" stroke="#0E3572" stroke-width="0.266368" stroke-dasharray="0.53 0.53"/>
<path d="M34.998 108.084L31.63 106.14L32.6727 105.538L35.3348 106.185L35.4224 106.134L34.2921 104.603L35.3532 103.99L38.7212 105.934L37.9738 106.366L35.0995 104.706L35.2148 104.651L36.5066 106.425L35.7869 106.84L32.7096 106.097L32.8157 106.025L35.69 107.684L34.998 108.084ZM39.1581 105.682L36.902 103.096L38.1246 102.39L42.646 103.668L41.8617 104.121L38.0831 103.016L38.4199 102.933L37.8247 103.277L37.977 103.077L39.9147 105.245L39.1581 105.682ZM39.1673 104.713L38.7705 104.217L40.09 103.455L40.9528 103.682L39.1673 104.713ZM43.0853 103.415L39.7174 101.47L40.9584 100.754L44.9815 101.611L45.1384 101.521L45.1292 101.622L42.2918 99.9839L43.0023 99.5737L46.3702 101.518L45.1199 102.24L41.0969 101.382L40.94 101.473L40.9492 101.372L43.7866 103.01L43.0853 103.415ZM48.6262 100.317C48.3094 100.5 47.9818 100.622 47.6435 100.682C47.3052 100.739 46.9699 100.737 46.6377 100.677C46.3055 100.616 45.9903 100.5 45.6919 100.328L43.6942 99.1742L44.4509 98.7374L46.4762 99.9067C46.6239 99.992 46.7807 100.051 46.9468 100.083C47.1129 100.111 47.2775 100.112 47.4405 100.085C47.6066 100.057 47.7665 99.9982 47.9203 99.9094C48.0772 99.8188 48.1787 99.7265 48.2248 99.6324C48.274 99.5365 48.2725 99.4415 48.2202 99.3474C48.1679 99.2533 48.0664 99.1627 47.9157 99.0757L45.8903 97.9063L46.6469 97.4695L48.6446 98.6229C48.943 98.7951 49.1444 98.9771 49.249 99.1689C49.3536 99.3607 49.3567 99.5543 49.2583 99.7496C49.1568 99.9432 48.9461 100.132 48.6262 100.317ZM50.2641 99.2701L48.0081 96.6836L49.2307 95.9778L53.752 97.2563L52.9677 97.7092L49.1892 96.6037L49.526 96.5212L48.9308 96.8648L49.083 96.665L51.0208 98.8332L50.2641 99.2701ZM50.2734 98.3005L49.8766 97.805L51.1961 97.0432L52.0588 97.2696L50.2734 98.3005ZM54.1914 97.0027L50.8234 95.0582L51.5801 94.6213L54.948 96.5658L54.1914 97.0027ZM54.8557 96.6191L54.1914 96.2355L55.6031 95.4204L56.2675 95.804L54.8557 96.6191ZM58.4155 94.5852L57.7096 94.1776L58.3371 93.8154C58.4939 93.7248 58.6124 93.6298 58.6923 93.5304C58.7692 93.4291 58.8092 93.3279 58.8123 93.2267C58.8123 93.1237 58.7738 93.0234 58.6969 92.9257C58.617 92.8263 58.5016 92.733 58.3509 92.646C58.1941 92.5555 58.031 92.488 57.8619 92.4436C57.6927 92.3992 57.5205 92.3779 57.3451 92.3796C57.1698 92.3814 56.9976 92.4063 56.8284 92.4542C56.6562 92.5004 56.4916 92.5688 56.3348 92.6593L55.7073 93.0216L55.0014 92.6141L55.5874 92.2758C55.8919 92.1 56.2025 91.9721 56.5193 91.8922C56.8361 91.8123 57.1483 91.7723 57.4559 91.7723C57.7634 91.7723 58.0541 91.8087 58.3279 91.8815C58.6016 91.9508 58.8477 92.0485 59.066 92.1745L59.1675 92.2331C59.3705 92.3503 59.5335 92.4889 59.6566 92.6487C59.7796 92.805 59.8442 92.9737 59.8503 93.1548C59.8534 93.3341 59.7888 93.517 59.6566 93.7035C59.5243 93.89 59.3059 94.0711 59.0014 94.2469L58.4155 94.5852ZM57.7511 94.9687L54.3371 92.9976L55.0937 92.5608L58.5078 94.5319L57.7511 94.9687ZM60.8746 93.1441L58.6185 90.5577L59.8411 89.8518L64.3625 91.1304L63.5782 91.5832L59.7996 90.4778L60.1364 90.3952L59.5412 90.7388L59.6935 90.539L61.6312 92.7073L60.8746 93.1441ZM60.8838 92.1745L60.487 91.6791L61.8065 90.9173L62.6693 91.1437L60.8838 92.1745ZM65.1734 90.6622L62.373 89.0453L63.1296 88.6085L65.9301 90.2253L65.1734 90.6622ZM61.5194 89.6447L60.8597 89.2637L63.5125 87.7321L64.1723 88.113L61.5194 89.6447ZM66.7407 89.7573L64.4847 87.1709L65.7073 86.465L70.2286 87.7436L69.4443 88.1964L65.6658 87.091L66.0025 87.0084L65.4074 87.352L65.5596 87.1522L67.4974 89.3205L66.7407 89.7573ZM66.75 88.7877L66.3532 88.2923L67.6727 87.5305L68.5354 87.7569L66.75 88.7877Z" fill="#0E3572"/>
<path d="M136.823 134.867L133.455 132.922L134.211 132.485L137.579 134.43L136.823 134.867ZM138.345 133.987L134.977 132.043L136.219 131.326L140.242 132.184L140.398 132.094L140.389 132.195L137.552 130.557L138.262 130.146L141.63 132.091L140.38 132.813L136.357 131.955L136.2 132.046L136.209 131.944L139.047 133.583L138.345 133.987ZM143.056 131.268L140.255 129.651L141.012 129.214L143.812 130.831L143.056 131.268ZM139.402 130.25L138.742 129.869L141.395 128.338L142.055 128.719L139.402 130.25ZM145.239 130.008L141.871 128.063L142.609 127.637L145.977 129.581L145.239 130.008ZM145.885 129.635L145.257 129.272L146.729 128.423L147.356 128.785L145.885 129.635ZM144.487 128.827L143.859 128.465L145.225 127.677L145.852 128.039L144.487 128.827ZM143.144 128.052L142.517 127.69L143.956 126.859L144.584 127.221L143.144 128.052ZM147.978 128.426L144.583 126.465L145.339 126.029L148.735 127.989L147.978 128.426ZM150.022 127.246L147.586 126.98L148.416 126.5L150.899 126.74L150.022 127.246ZM147.452 127.483L146.857 127.139L147.687 126.66C147.798 126.596 147.872 126.529 147.909 126.457C147.946 126.383 147.946 126.31 147.909 126.239C147.872 126.164 147.8 126.096 147.692 126.034C147.584 125.972 147.468 125.931 147.341 125.911C147.215 125.888 147.089 125.888 146.963 125.911C146.837 125.931 146.719 125.973 146.608 126.037L145.777 126.516L145.136 126.146L145.907 125.701C146.187 125.539 146.473 125.424 146.765 125.355C147.054 125.284 147.337 125.264 147.614 125.296C147.89 125.328 148.155 125.417 148.407 125.562L148.481 125.605C148.73 125.749 148.881 125.902 148.933 126.063C148.985 126.221 148.95 126.384 148.827 126.551C148.704 126.714 148.503 126.877 148.223 127.038L147.452 127.483ZM151.348 126.48L147.98 124.536L149.221 123.819L153.244 124.677L153.401 124.586L153.392 124.688L150.555 123.049L151.265 122.639L154.633 124.584L153.383 125.306L149.36 124.448L149.203 124.538L149.212 124.437L152.05 126.075L151.348 126.48ZM155.071 124.331L152.815 121.744L154.038 121.038L158.559 122.317L157.775 122.77L153.996 121.664L154.333 121.582L153.738 121.925L153.89 121.726L155.828 123.894L155.071 124.331ZM155.081 123.361L154.684 122.866L156.003 122.104L156.866 122.33L155.081 123.361ZM158.999 122.063L155.631 120.119L156.387 119.682L159.755 121.626L158.999 122.063ZM159.663 121.68L158.999 121.296L160.41 120.481L161.075 120.865L159.663 121.68ZM144.551 135.291L143.895 134.913L144.5 134.564C144.617 134.497 144.694 134.426 144.73 134.351C144.77 134.275 144.772 134.199 144.735 134.125C144.695 134.048 144.62 133.978 144.509 133.914C144.392 133.847 144.269 133.802 144.14 133.781C144.008 133.758 143.877 133.759 143.748 133.784C143.619 133.805 143.496 133.85 143.379 133.917L142.774 134.266L142.119 133.888L142.687 133.56C142.973 133.395 143.265 133.281 143.563 133.219C143.865 133.155 144.157 133.143 144.44 133.182C144.726 133.219 144.992 133.309 145.238 133.451L145.312 133.493C145.552 133.632 145.705 133.785 145.773 133.952C145.841 134.115 145.819 134.284 145.709 134.458C145.601 134.63 145.404 134.799 145.118 134.964L144.551 135.291ZM144.85 136.232L141.455 134.271L142.211 133.834L145.607 135.795L144.85 136.232ZM149.63 133.573C149.326 133.749 149.007 133.873 148.675 133.944C148.343 134.011 148.017 134.038 147.697 134.024C147.374 134.008 147.074 133.962 146.797 133.888C146.524 133.811 146.293 133.719 146.105 133.611L146.004 133.552C145.795 133.431 145.625 133.291 145.496 133.131C145.367 132.968 145.295 132.795 145.279 132.612C145.264 132.429 145.319 132.244 145.446 132.058C145.569 131.87 145.778 131.69 146.073 131.52C146.368 131.349 146.679 131.228 147.005 131.157C147.328 131.085 147.648 131.053 147.965 131.062C148.281 131.07 148.581 131.112 148.864 131.187C149.144 131.26 149.389 131.356 149.598 131.477L149.699 131.536C149.887 131.644 150.045 131.778 150.174 131.938C150.304 132.098 150.382 132.271 150.41 132.457C150.434 132.642 150.387 132.831 150.267 133.025C150.147 133.215 149.935 133.398 149.63 133.573ZM148.924 133.166C149.084 133.074 149.199 132.975 149.27 132.87C149.344 132.764 149.376 132.656 149.367 132.548C149.361 132.438 149.316 132.332 149.233 132.231C149.15 132.13 149.035 132.036 148.887 131.951C148.73 131.861 148.563 131.792 148.384 131.746C148.206 131.696 148.023 131.671 147.835 131.669C147.648 131.664 147.465 131.682 147.286 131.725C147.108 131.767 146.939 131.835 146.779 131.927C146.619 132.02 146.502 132.117 146.428 132.22C146.354 132.323 146.321 132.43 146.327 132.54C146.333 132.646 146.379 132.751 146.465 132.854C146.548 132.955 146.668 133.051 146.825 133.142C146.973 133.227 147.134 133.294 147.309 133.342C147.485 133.39 147.666 133.416 147.854 133.422C148.045 133.425 148.231 133.406 148.412 133.366C148.594 133.325 148.764 133.258 148.924 133.166ZM151.915 132.153L148.519 130.193L149.276 129.756L152.672 131.716L151.915 132.153ZM153.959 130.973L151.523 130.707L152.353 130.227L154.835 130.467L153.959 130.973ZM151.389 131.21L150.794 130.866L151.624 130.387C151.735 130.323 151.809 130.256 151.846 130.185C151.883 130.11 151.883 130.037 151.846 129.966C151.809 129.892 151.737 129.823 151.629 129.761C151.521 129.699 151.404 129.658 151.278 129.638C151.152 129.615 151.026 129.615 150.9 129.638C150.774 129.658 150.656 129.7 150.545 129.764L149.714 130.243L149.073 129.873L149.844 129.428C150.123 129.266 150.409 129.151 150.702 129.082C150.991 129.011 151.274 128.991 151.551 129.023C151.827 129.055 152.092 129.144 152.344 129.29L152.418 129.332C152.667 129.476 152.818 129.629 152.87 129.79C152.922 129.948 152.887 130.111 152.764 130.278C152.641 130.441 152.439 130.604 152.16 130.765L151.389 131.21ZM155.859 129.876L153.059 128.259L153.816 127.822L156.616 129.439L155.859 129.876ZM152.205 128.858L151.546 128.477L154.199 126.946L154.858 127.327L152.205 128.858ZM157.427 128.971L155.171 126.384L156.393 125.678L160.915 126.957L160.13 127.41L156.352 126.304L156.689 126.222L156.093 126.565L156.246 126.366L158.183 128.534L157.427 128.971ZM157.436 128.001L157.039 127.506L158.359 126.744L159.221 126.97L157.436 128.001ZM161.354 126.703L157.986 124.759L158.743 124.322L162.111 126.267L161.354 126.703ZM162.018 126.32L161.354 125.936L162.766 125.121L163.43 125.505L162.018 126.32Z" fill="#0E3572"/>
<path d="M213.484 87.8266L211.228 85.2402L212.451 84.5343L216.972 85.8129L216.188 86.2657L212.409 85.1603L212.746 85.0777L212.151 85.4213L212.303 85.2215L214.241 87.3898L213.484 87.8266ZM213.493 86.857L213.096 86.3616L214.416 85.5998L215.279 85.8262L213.493 86.857ZM218.785 84.8676C218.468 85.0505 218.14 85.1721 217.802 85.2325C217.464 85.2893 217.128 85.2875 216.796 85.2272C216.464 85.1668 216.149 85.0505 215.85 84.8782L213.853 83.7248L214.609 83.288L216.635 84.4574C216.782 84.5426 216.939 84.6012 217.105 84.6332C217.271 84.6616 217.436 84.6625 217.599 84.6358C217.765 84.6074 217.925 84.5488 218.079 84.46C218.236 84.3695 218.337 84.2771 218.383 84.183C218.432 84.0871 218.431 83.9921 218.379 83.898C218.326 83.8039 218.225 83.7133 218.074 83.6263L216.049 82.4569L216.805 82.0201L218.803 83.1735C219.101 83.3457 219.303 83.5277 219.407 83.7195C219.512 83.9113 219.515 84.1049 219.417 84.3002C219.315 84.4938 219.104 84.6829 218.785 84.8676ZM221.527 83.183L218.726 81.5662L219.483 81.1293L222.284 82.7462L221.527 83.183ZM217.873 82.1655L217.213 81.7846L219.866 80.253L220.526 80.6339L217.873 82.1655ZM225.318 81.0956C225.013 81.2714 224.695 81.3948 224.363 81.4659C224.031 81.5333 223.705 81.56 223.385 81.5458C223.062 81.5298 222.762 81.4845 222.485 81.4099C222.211 81.3336 221.981 81.2412 221.793 81.1329L221.691 81.0743C221.482 80.9535 221.313 80.8133 221.184 80.6534C221.055 80.4901 220.982 80.3169 220.967 80.134C220.952 79.9511 221.007 79.7664 221.133 79.58C221.256 79.3917 221.465 79.2124 221.761 79.0419C222.056 78.8714 222.367 78.7507 222.693 78.6796C223.016 78.6068 223.335 78.5749 223.652 78.5838C223.969 78.5926 224.269 78.6344 224.552 78.7089C224.832 78.7818 225.076 78.8785 225.285 78.9993L225.387 79.0579C225.575 79.1662 225.733 79.3003 225.862 79.4601C225.991 79.6199 226.07 79.7931 226.097 79.9795C226.122 80.1642 226.074 80.3533 225.954 80.5469C225.834 80.7369 225.622 80.9198 225.318 81.0956ZM224.612 80.6881C224.772 80.5957 224.887 80.4972 224.958 80.3924C225.032 80.2858 225.064 80.1784 225.055 80.0701C225.049 79.96 225.004 79.8543 224.921 79.7531C224.838 79.6519 224.723 79.5587 224.575 79.4734C224.418 79.3829 224.25 79.3145 224.072 79.2683C223.894 79.2186 223.711 79.1928 223.523 79.1911C223.335 79.1857 223.152 79.2044 222.974 79.247C222.796 79.2896 222.626 79.3571 222.467 79.4494C222.307 79.5418 222.19 79.6395 222.116 79.7425C222.042 79.8455 222.008 79.952 222.014 80.0621C222.021 80.1686 222.067 80.2734 222.153 80.3764C222.236 80.4776 222.356 80.5735 222.513 80.6641C222.66 80.7493 222.822 80.8159 222.997 80.8639C223.172 80.9118 223.354 80.9384 223.542 80.9438C223.732 80.9473 223.918 80.9287 224.1 80.8878C224.281 80.847 224.452 80.7804 224.612 80.6881ZM227.603 79.6752L224.235 77.7307L225.277 77.1287L227.939 77.776L228.027 77.7254L226.897 76.1937L227.958 75.5811L231.326 77.5256L230.578 77.9571L227.704 76.2976L227.82 76.2417L229.111 78.0157L228.392 78.4312L225.314 77.6881L225.42 77.6162L228.295 79.2756L227.603 79.6752ZM231.763 77.2733L229.507 74.6869L230.729 73.981L235.251 75.2596L234.466 75.7124L230.688 74.607L231.025 74.5244L230.429 74.868L230.582 74.6683L232.519 76.8365L231.763 77.2733ZM231.772 76.3037L231.375 75.8083L232.695 75.0465L233.558 75.2729L231.772 76.3037ZM236.062 74.7914L233.261 73.1745L234.018 72.7377L236.818 74.3545L236.062 74.7914ZM232.408 73.7739L231.748 73.393L234.401 71.8613L235.061 72.2422L232.408 73.7739ZM238.254 73.5257L234.886 71.5812L235.643 71.1444L239.011 73.0889L238.254 73.5257ZM241.479 71.7649C241.174 71.9407 240.856 72.0641 240.524 72.1352C240.192 72.2027 239.866 72.2293 239.546 72.2151C239.223 72.1991 238.923 72.1538 238.646 72.0792C238.372 72.0029 238.142 71.9105 237.954 71.8022L237.853 71.7436C237.644 71.6229 237.474 71.4826 237.345 71.3228C237.216 71.1594 237.144 70.9862 237.128 70.8033C237.113 70.6204 237.168 70.4357 237.294 70.2493C237.417 70.0611 237.627 69.8817 237.922 69.7112C238.217 69.5408 238.528 69.42 238.854 69.349C239.177 69.2762 239.497 69.2442 239.813 69.2531C240.13 69.262 240.43 69.3037 240.713 69.3783C240.993 69.4511 241.238 69.5479 241.447 69.6686L241.548 69.7272C241.736 69.8355 241.894 69.9696 242.023 70.1294C242.153 70.2892 242.231 70.4624 242.259 70.6488C242.283 70.8335 242.236 71.0226 242.116 71.2162C241.996 71.4062 241.783 71.5891 241.479 71.7649ZM240.773 71.3574C240.933 71.265 241.048 71.1665 241.119 71.0617C241.193 70.9552 241.225 70.8477 241.216 70.7394C241.21 70.6293 241.165 70.5236 241.082 70.4224C240.999 70.3212 240.884 70.228 240.736 70.1427C240.579 70.0522 240.412 69.9838 240.233 69.9376C240.055 69.8879 239.872 69.8622 239.684 69.8604C239.497 69.8551 239.314 69.8737 239.135 69.9163C238.957 69.959 238.788 70.0264 238.628 70.1188C238.468 70.2111 238.351 70.3088 238.277 70.4118C238.203 70.5148 238.169 70.6213 238.176 70.7314C238.182 70.838 238.228 70.9427 238.314 71.0457C238.397 71.147 238.517 71.2428 238.674 71.3334C238.822 71.4186 238.983 71.4852 239.158 71.5332C239.334 71.5811 239.515 71.6078 239.703 71.6131C239.893 71.6166 240.08 71.598 240.261 71.5572C240.442 71.5163 240.613 71.4497 240.773 71.3574ZM243.764 70.3445L240.396 68.4L241.637 67.6835L245.66 68.5412L245.817 68.4506L245.808 68.5518L242.97 66.9137L243.681 66.5035L247.049 68.448L245.799 69.1698L241.775 68.3121L241.619 68.4027L241.628 68.3015L244.465 69.9396L243.764 70.3445Z" fill="#0E3572"/>
<mask id="path-63-inside-1_1719_12295" fill="white">
<path d="M128.723 144.544L142.645 144.575V152.521L110.856 171.062L78.7876 152.521V144.435L92.7407 144.466L110.665 134.119L128.723 144.544Z"/>
</mask>
<path d="M128.723 144.544L142.645 144.575V152.521L110.856 171.062L78.7876 152.521V144.435L92.7407 144.466L110.665 134.119L128.723 144.544Z" fill="#0E3572" fill-opacity="0.1"/>
<path d="M128.723 144.544L128.67 144.636L128.694 144.65L128.723 144.65L128.723 144.544ZM142.645 144.575H142.752V144.469L142.645 144.468L142.645 144.575ZM142.645 152.521L142.699 152.613L142.752 152.582V152.521H142.645ZM110.856 171.062L110.803 171.154L110.856 171.185L110.91 171.154L110.856 171.062ZM78.7876 152.521H78.6811V152.583L78.7343 152.613L78.7876 152.521ZM78.7876 144.435L78.7878 144.329L78.6811 144.329V144.435H78.7876ZM92.7407 144.466L92.7405 144.572L92.7692 144.572L92.794 144.558L92.7407 144.466ZM110.665 134.119L110.718 134.027L110.665 133.996L110.611 134.027L110.665 134.119ZM128.723 144.544L128.723 144.65L142.645 144.681L142.645 144.575L142.645 144.468L128.723 144.437L128.723 144.544ZM142.645 144.575H142.538V152.521H142.645H142.752V144.575H142.645ZM142.645 152.521L142.591 152.429L110.802 170.97L110.856 171.062L110.91 171.154L142.699 152.613L142.645 152.521ZM110.856 171.062L110.909 170.97L78.8409 152.429L78.7876 152.521L78.7343 152.613L110.803 171.154L110.856 171.062ZM78.7876 152.521H78.8941V144.435H78.7876H78.6811V152.521H78.7876ZM78.7876 144.435L78.7874 144.542L92.7405 144.572L92.7407 144.466L92.741 144.359L78.7878 144.329L78.7876 144.435ZM92.7407 144.466L92.794 144.558L110.718 134.211L110.665 134.119L110.611 134.027L92.6875 144.373L92.7407 144.466ZM110.665 134.119L110.611 134.211L128.67 144.636L128.723 144.544L128.776 144.451L110.718 134.027L110.665 134.119Z" fill="#0E3572" mask="url(#path-63-inside-1_1719_12295)"/>
<path d="M142.379 144.574L110.667 162.683L79.0558 144.435L110.666 126.188L142.379 144.574Z" fill="white" stroke="#0E3572" stroke-width="0.308726"/>
<g clip-path="url(#clip1_1719_12295)">
<path d="M123.31 142.849L107.674 151.876L95.8339 145.04L111.47 136.013L123.31 142.849Z" stroke="#ED1C24" stroke-width="0.532736" stroke-miterlimit="10"/>
<path d="M121.38 146.903L114.698 150.761L115.444 150.331C115.981 150.02 115.981 149.517 115.444 149.207L113.871 148.299L117.114 146.426L118.688 147.334C119.225 147.644 120.097 147.644 120.634 147.334L121.38 146.903Z" stroke="#ED1C24" stroke-width="0.532736" stroke-miterlimit="10"/>
<path d="M113.465 151.474L122.613 146.192" stroke="#ED1C24" stroke-width="0.532736" stroke-miterlimit="10"/>
<path d="M121.364 141.725L105.729 150.752" stroke="#ED1C24" stroke-width="0.532736" stroke-miterlimit="10"/>
<path d="M111.6 141.65C113.257 142.607 113.257 144.158 111.6 145.115C109.943 146.072 107.256 146.072 105.598 145.115C103.941 144.158 103.941 142.607 105.598 141.65C107.256 140.693 109.943 140.693 111.6 141.65Z" stroke="#ED1C24" stroke-width="0.532736" stroke-miterlimit="10"/>
<path d="M109.565 142.825C111.222 143.781 112.133 144.807 111.6 145.115C111.067 145.423 109.291 144.896 107.634 143.94C105.976 142.983 105.065 141.958 105.599 141.65C106.132 141.342 107.908 141.868 109.565 142.825Z" stroke="#ED1C24" stroke-width="0.532736" stroke-miterlimit="10"/>
<path d="M105.599 145.115L111.6 141.65" stroke="#ED1C24" stroke-width="0.532736" stroke-miterlimit="10"/>
</g>
<mask id="path-73-inside-2_1719_12295" fill="white">
<path d="M209.102 100.242L222.557 100.272V107.954L191.828 125.877L160.829 107.954V100.138L174.316 100.167L191.644 90.165L209.102 100.242Z"/>
</mask>
<path d="M209.102 100.242L222.557 100.272V107.954L191.828 125.877L160.829 107.954V100.138L174.316 100.167L191.644 90.165L209.102 100.242Z" fill="white"/>
<path d="M209.102 100.242L209.049 100.334L209.073 100.349L209.102 100.349L209.102 100.242ZM222.557 100.272H222.664V100.166L222.557 100.166L222.557 100.272ZM222.557 107.954L222.611 108.046L222.664 108.015V107.954H222.557ZM191.828 125.877L191.774 125.969L191.828 126L191.881 125.969L191.828 125.877ZM160.829 107.954H160.722V108.016L160.775 108.046L160.829 107.954ZM160.829 100.138L160.829 100.031L160.722 100.031V100.138H160.829ZM174.316 100.167L174.316 100.274L174.344 100.274L174.369 100.259L174.316 100.167ZM191.644 90.165L191.697 90.0728L191.644 90.042L191.591 90.0728L191.644 90.165ZM209.102 100.242L209.102 100.349L222.557 100.379L222.557 100.272L222.557 100.166L209.102 100.136L209.102 100.242ZM222.557 100.272H222.451V107.954H222.557H222.664V100.272H222.557ZM222.557 107.954L222.503 107.862L191.774 125.785L191.828 125.877L191.881 125.969L222.611 108.046L222.557 107.954ZM191.828 125.877L191.881 125.785L160.882 107.862L160.829 107.954L160.775 108.046L191.774 125.969L191.828 125.877ZM160.829 107.954H160.935V100.138H160.829H160.722V107.954H160.829ZM160.829 100.138L160.828 100.244L174.316 100.274L174.316 100.167L174.316 100.06L160.829 100.031L160.829 100.138ZM174.316 100.167L174.369 100.259L191.697 90.2573L191.644 90.165L191.591 90.0728L174.263 100.075L174.316 100.167ZM191.644 90.165L191.591 90.2573L209.049 100.334L209.102 100.242L209.155 100.15L191.697 90.0728L191.644 90.165Z" fill="#0E3572" mask="url(#path-73-inside-2_1719_12295)"/>
<path d="M191.645 82.3489L222.559 100.272L191.645 117.926L160.83 100.137L191.645 82.3489Z" fill="#0E3572"/>
<path d="M191.645 82.3489L222.559 100.272L191.645 117.926L160.83 100.137L191.645 82.3489Z" fill="white" fill-opacity="0.85"/>
<path d="M222.291 100.271L191.645 117.771L161.097 100.137L191.645 82.5032L222.291 100.271Z" stroke="white" stroke-opacity="0.2" stroke-width="0.308726"/>
<g clip-path="url(#clip2_1719_12295)">
<path d="M194.405 107.458L191.821 106.313L193.804 104.821M189.237 92.4016L191.821 93.5465L189.838 95.0385" stroke="#0E3572" stroke-width="0.532736" stroke-miterlimit="10" stroke-linecap="round" stroke-linejoin="round"/>
<path d="M191.821 93.5464C188.992 93.5464 186.162 94.1696 184.003 95.416C179.686 97.9088 179.686 101.951 184.003 104.443C185.21 105.14 186.627 105.642 188.136 105.949M191.821 106.313C194.651 106.313 197.48 105.69 199.639 104.443C203.957 101.951 203.957 97.9088 199.639 95.416C198.432 94.7192 197.016 94.2175 195.507 93.9103" stroke="#0E3572" stroke-width="0.532736" stroke-miterlimit="10" stroke-linecap="round" stroke-linejoin="round"/>
<path d="M195.034 96.5877L191.933 96.1078L191.83 96.3292C191.457 97.1334 189.715 97.4027 188.696 96.814L188.415 96.652L186.144 97.963L186.425 98.125C187.445 98.7138 186.978 99.719 185.585 99.9345L185.202 99.9938L186.033 101.785L186.416 101.725C187.809 101.51 189.084 102.246 188.711 103.05L188.608 103.271L191.71 103.751L191.813 103.53C192.186 102.726 193.927 102.456 194.947 103.045L195.227 103.207L197.498 101.896L197.217 101.734C196.198 101.145 196.664 100.14 198.057 99.9245L198.441 99.8652L197.609 98.0743L197.226 98.1336C195.833 98.3491 194.558 97.6132 194.932 96.809L195.034 96.5877Z" stroke="#0E3572" stroke-width="0.532736" stroke-miterlimit="10" stroke-linecap="round" stroke-linejoin="round"/>
<path d="M193.443 100.866C194.339 100.349 194.339 99.5104 193.443 98.9932C192.547 98.4761 191.095 98.4761 190.199 98.9932C189.303 99.5104 189.303 100.349 190.199 100.866C191.095 101.383 192.547 101.383 193.443 100.866Z" stroke="#0E3572" stroke-width="0.532736" stroke-miterlimit="10" stroke-linecap="round" stroke-linejoin="round"/>
</g>
<mask id="path-81-inside-3_1719_12295" fill="white">
<path d="M285.275 137.709L299.515 137.087L299.879 145.019L268.212 165.018L234.562 148.014L234.192 139.943L248.466 139.318L266.326 128.15L285.275 137.709Z"/>
</mask>
<path d="M285.275 137.709L299.515 137.087L299.879 145.019L268.212 165.018L234.562 148.014L234.192 139.943L248.466 139.318L266.326 128.15L285.275 137.709Z" fill="#0E3572" fill-opacity="0.1"/>
<path d="M285.275 137.709L285.227 137.804L285.252 137.816L285.28 137.815L285.275 137.709ZM299.515 137.087L299.622 137.082L299.617 136.976L299.511 136.981L299.515 137.087ZM299.879 145.019L299.936 145.109L299.988 145.076L299.986 145.014L299.879 145.019ZM268.212 165.018L268.164 165.113L268.218 165.14L268.269 165.108L268.212 165.018ZM234.562 148.014L234.456 148.019L234.458 148.081L234.514 148.109L234.562 148.014ZM234.192 139.943L234.187 139.836L234.081 139.841L234.085 139.947L234.192 139.943ZM248.466 139.318L248.471 139.425L248.499 139.424L248.523 139.409L248.466 139.318ZM266.326 128.15L266.374 128.055L266.32 128.027L266.27 128.059L266.326 128.15ZM285.275 137.709L285.28 137.815L299.52 137.193L299.515 137.087L299.511 136.981L285.27 137.602L285.275 137.709ZM299.515 137.087L299.409 137.092L299.773 145.024L299.879 145.019L299.986 145.014L299.622 137.082L299.515 137.087ZM299.879 145.019L299.822 144.929L268.155 164.928L268.212 165.018L268.269 165.108L299.936 145.109L299.879 145.019ZM268.212 165.018L268.26 164.923L234.61 147.919L234.562 148.014L234.514 148.109L268.164 165.113L268.212 165.018ZM234.562 148.014L234.668 148.009L234.298 139.938L234.192 139.943L234.085 139.947L234.456 148.019L234.562 148.014ZM234.192 139.943L234.197 140.049L248.471 139.425L248.466 139.318L248.462 139.212L234.187 139.836L234.192 139.943ZM248.466 139.318L248.523 139.409L266.383 128.24L266.326 128.15L266.27 128.059L248.41 139.228L248.466 139.318ZM266.326 128.15L266.278 128.245L285.227 137.804L285.275 137.709L285.323 137.614L266.374 128.055L266.326 128.15Z" fill="#0E3572" mask="url(#path-81-inside-3_1719_12295)"/>
<path d="M299.25 137.098L267.636 156.665L234.463 139.93L265.965 120.23L299.25 137.098Z" fill="white" stroke="#0E3572" stroke-width="0.308726"/>
<g clip-path="url(#clip3_1719_12295)">
<path d="M269.077 129.96C268.663 129.721 267.992 129.721 267.578 129.96L253.117 138.309C252.703 138.548 252.703 138.936 253.117 139.175L254.771 140.129L270.731 130.915L269.077 129.96Z" stroke="#ED1C24" stroke-width="0.532736" stroke-miterlimit="10" stroke-linecap="round" stroke-linejoin="round"/>
<path d="M254.771 140.13L266 146.612C266.414 146.851 267.085 146.851 267.499 146.612L281.96 138.263C282.374 138.024 282.374 137.637 281.96 137.398L270.731 130.915L254.771 140.13Z" stroke="#ED1C24" stroke-width="0.532736" stroke-miterlimit="10" stroke-linecap="round" stroke-linejoin="round"/>
<path d="M272.925 134.327C273.525 134.673 273.825 135.128 273.825 135.582C273.825 136.036 273.525 136.49 272.925 136.837C271.724 137.53 269.778 137.53 268.577 136.837C267.977 136.49 267.677 136.036 267.677 135.582C267.677 135.128 267.977 134.674 268.578 134.327C269.178 133.98 269.964 133.807 270.751 133.807C271.538 133.807 272.325 133.98 272.925 134.327Z" stroke="#ED1C24" stroke-width="0.532736" stroke-miterlimit="10" stroke-linecap="round" stroke-linejoin="round"/>
<path d="M272.925 134.327C273.525 134.673 273.825 135.127 273.825 135.582L270.751 135.582L268.578 134.327C269.178 133.98 269.964 133.807 270.751 133.807C271.538 133.807 272.325 133.98 272.925 134.327Z" stroke="#ED1C24" stroke-width="0.532736" stroke-miterlimit="10" stroke-linecap="round" stroke-linejoin="round"/>
<path d="M272.603 139.16L276.95 136.65" stroke="#ED1C24" stroke-width="0.532736" stroke-miterlimit="10" stroke-linecap="round" stroke-linejoin="round"/>
<path d="M266.698 142.569L265.09 143.497L262.045 141.739L263.652 140.811L266.698 142.569ZM269.783 140.788L268.175 141.716L263.057 138.761L264.665 137.833L269.783 140.788Z" stroke="#ED1C24" stroke-width="0.532736" stroke-miterlimit="10" stroke-linecap="round" stroke-linejoin="round"/>
<path d="M264.501 143.837L270.535 140.354" stroke="#ED1C24" stroke-width="0.532736" stroke-miterlimit="10" stroke-linecap="round" stroke-linejoin="round"/>
<path d="M267.832 144.023L278.776 137.704" stroke="#ED1C24" stroke-width="0.532736" stroke-miterlimit="10" stroke-linecap="round" stroke-linejoin="round"/>
</g>
<mask id="path-92-inside-4_1719_12295" fill="white">
<path d="M118.559 91.2371L124.448 91.2507V94.6091L111 102.445L97.4331 94.6091V91.1921L103.336 91.2048L110.919 86.8318L118.559 91.2371Z"/>
</mask>
<path d="M118.559 91.2371L124.448 91.2507V94.6091L111 102.445L97.4331 94.6091V91.1921L103.336 91.2048L110.919 86.8318L118.559 91.2371Z" fill="white"/>
<path d="M118.559 91.2371L118.506 91.3294L118.53 91.3435L118.559 91.3436L118.559 91.2371ZM124.448 91.2507H124.554V91.1444L124.448 91.1442L124.448 91.2507ZM124.448 94.6091L124.501 94.7012L124.554 94.6704V94.6091H124.448ZM111 102.445L110.946 102.537L111 102.568L111.053 102.537L111 102.445ZM97.4331 94.6091H97.3266V94.6706L97.3798 94.7014L97.4331 94.6091ZM97.4331 91.1921L97.4333 91.0856L97.3266 91.0854V91.1921H97.4331ZM103.336 91.2048L103.336 91.3114L103.365 91.3114L103.39 91.2971L103.336 91.2048ZM110.919 86.8318L110.973 86.7395L110.919 86.7088L110.866 86.7395L110.919 86.8318ZM118.559 91.2371L118.559 91.3436L124.448 91.3573L124.448 91.2507L124.448 91.1442L118.559 91.1305L118.559 91.2371ZM124.448 91.2507H124.341V94.6091H124.448H124.554V91.2507H124.448ZM124.448 94.6091L124.394 94.5171L110.946 102.353L111 102.445L111.053 102.537L124.501 94.7012L124.448 94.6091ZM111 102.445L111.053 102.353L97.4864 94.5169L97.4331 94.6091L97.3798 94.7014L110.946 102.537L111 102.445ZM97.4331 94.6091H97.5396V91.1921H97.4331H97.3266V94.6091H97.4331ZM97.4331 91.1921L97.4329 91.2987L103.336 91.3114L103.336 91.2048L103.337 91.0983L97.4333 91.0856L97.4331 91.1921ZM103.336 91.2048L103.39 91.2971L110.973 86.9241L110.919 86.8318L110.866 86.7395L103.283 91.1125L103.336 91.2048ZM110.919 86.8318L110.866 86.9241L118.506 91.3294L118.559 91.2371L118.612 91.1448L110.973 86.7395L110.919 86.8318Z" fill="#0E3572" mask="url(#path-92-inside-4_1719_12295)"/>
<path d="M110.919 83.4148L124.448 91.2511L110.919 98.9695L97.4341 91.1921L110.919 83.4148Z" fill="#0E3572"/>
<path d="M110.919 83.4148L124.448 91.2511L110.919 98.9695L97.4341 91.1921L110.919 83.4148Z" fill="white" fill-opacity="0.85"/>
<path d="M124.181 91.2502L110.92 98.8158L97.7014 91.1922L110.919 83.569L124.181 91.2502Z" stroke="white" stroke-opacity="0.2" stroke-width="0.308713"/>
<g clip-path="url(#clip4_1719_12295)">
<path d="M115.793 92.4545L113.024 94.0527M111.193 89.7659L112.323 89.7651C112.66 89.7648 112.933 89.9224 112.932 90.117L112.923 90.7647M108.396 91.3807L108.395 92.0328C108.394 92.2275 108.667 92.3851 109.005 92.3848L110.126 92.3796M111.482 91.9301L109.838 90.2153M112.851 88.4257L115.216 89.7908C116.012 90.2505 116.012 90.9959 115.216 91.4556L111.294 93.7199C110.498 94.1796 109.207 94.1796 108.411 93.7199L106.046 92.3546C105.25 91.8949 105.25 91.1495 106.046 90.6898L109.968 88.4257C110.764 87.966 112.055 87.966 112.851 88.4257Z" stroke="#0E3572" stroke-width="0.532736" stroke-miterlimit="10" stroke-linecap="round" stroke-linejoin="round"/>
</g>
<mask id="path-97-inside-5_1719_12295" fill="white">
<path d="M199 156.764L204.891 156.778V160.136L191.443 167.972L177.876 160.136V156.718L183.78 156.731L191.362 152.359L199 156.764Z"/>
</mask>
<path d="M199 156.764L204.891 156.778V160.136L191.443 167.972L177.876 160.136V156.718L183.78 156.731L191.362 152.359L199 156.764Z" fill="url(#paint1_linear_1719_12295)"/>
<path d="M199 156.764L198.947 156.856L198.972 156.87L199 156.87L199 156.764ZM204.891 156.778H204.998V156.671L204.891 156.671L204.891 156.778ZM204.891 160.136L204.945 160.228L204.998 160.197V160.136H204.891ZM191.443 167.972L191.39 168.064L191.443 168.095L191.497 168.064L191.443 167.972ZM177.876 160.136H177.77V160.197L177.823 160.228L177.876 160.136ZM177.876 156.718L177.877 156.611L177.77 156.611V156.718H177.876ZM183.78 156.731L183.78 156.837L183.808 156.837L183.833 156.823L183.78 156.731ZM191.362 152.359L191.415 152.266L191.362 152.236L191.309 152.266L191.362 152.359ZM199 156.764L199 156.87L204.891 156.884L204.891 156.778L204.891 156.671L199.001 156.657L199 156.764ZM204.891 156.778H204.785V160.136H204.891H204.998V156.778H204.891ZM204.891 160.136L204.837 160.044L191.389 167.88L191.443 167.972L191.497 168.064L204.945 160.228L204.891 160.136ZM191.443 167.972L191.496 167.88L177.93 160.044L177.876 160.136L177.823 160.228L191.39 168.064L191.443 167.972ZM177.876 160.136H177.983V156.718H177.876H177.77V160.136H177.876ZM177.876 156.718L177.876 156.825L183.78 156.837L183.78 156.731L183.78 156.624L177.877 156.611L177.876 156.718ZM183.78 156.731L183.833 156.823L191.415 152.451L191.362 152.359L191.309 152.266L183.727 156.638L183.78 156.731ZM191.362 152.359L191.309 152.451L198.947 156.856L199 156.764L199.054 156.672L191.415 152.266L191.362 152.359Z" fill="#0E3572" mask="url(#path-97-inside-5_1719_12295)"/>
<path d="M191.362 148.941L204.891 156.777L191.362 164.496L177.877 156.718L191.362 148.941Z" fill="#0E3572"/>
<path d="M204.624 156.776L191.363 164.342L178.144 156.718L191.362 149.095L204.624 156.776Z" stroke="white" stroke-opacity="0.2" stroke-width="0.308713"/>
<g clip-path="url(#clip5_1719_12295)">
<path d="M188.249 154.968L186.597 157.277L188.023 158.1C189.869 159.166 192.648 159.481 195.054 158.897C196.066 157.508 195.52 155.903 193.675 154.837L192.248 154.014L188.249 154.968Z" stroke="white" stroke-width="0.532736" stroke-miterlimit="10" stroke-linecap="round" stroke-linejoin="round"/>
<path d="M190.298 157.449L191.91 157.449L191.91 155.783" stroke="white" stroke-width="0.532736" stroke-miterlimit="10" stroke-linecap="round" stroke-linejoin="round"/>
</g>
<mask id="path-103-inside-6_1719_12295" fill="white">
<path d="M245.881 115.211L251.772 115.224V118.582L238.324 126.419L224.757 118.583V115.165L230.661 115.177L238.243 110.805L245.881 115.211Z"/>
</mask>
<path d="M245.881 115.211L251.772 115.224V118.582L238.324 126.419L224.757 118.583V115.165L230.661 115.177L238.243 110.805L245.881 115.211Z" fill="url(#paint2_linear_1719_12295)"/>
<path d="M245.881 115.211L245.828 115.303L245.853 115.317L245.881 115.317L245.881 115.211ZM251.772 115.224H251.879V115.118L251.772 115.118L251.772 115.224ZM251.772 118.582L251.826 118.674L251.879 118.643V118.582H251.772ZM238.324 126.419L238.27 126.511L238.324 126.542L238.377 126.511L238.324 126.419ZM224.757 118.583H224.651V118.644L224.704 118.675L224.757 118.583ZM224.757 115.165L224.758 115.058L224.651 115.058V115.165H224.757ZM230.661 115.177L230.66 115.284L230.689 115.284L230.714 115.27L230.661 115.177ZM238.243 110.805L238.296 110.713L238.243 110.682L238.189 110.713L238.243 110.805ZM245.881 115.211L245.881 115.317L251.772 115.331L251.772 115.224L251.772 115.118L245.882 115.104L245.881 115.211ZM251.772 115.224H251.665V118.582H251.772H251.879V115.224H251.772ZM251.772 118.582L251.718 118.49L238.27 126.327L238.324 126.419L238.377 126.511L251.826 118.674L251.772 118.582ZM238.324 126.419L238.377 126.326L224.811 118.491L224.757 118.583L224.704 118.675L238.27 126.511L238.324 126.419ZM224.757 118.583H224.864V115.165H224.757H224.651V118.583H224.757ZM224.757 115.165L224.757 115.271L230.66 115.284L230.661 115.177L230.661 115.071L224.758 115.058L224.757 115.165ZM230.661 115.177L230.714 115.27L238.296 110.898L238.243 110.805L238.189 110.713L230.607 115.085L230.661 115.177ZM238.243 110.805L238.189 110.898L245.828 115.303L245.881 115.211L245.935 115.118L238.296 110.713L238.243 110.805Z" fill="#0E3572" mask="url(#path-103-inside-6_1719_12295)"/>
<path d="M238.243 107.388L251.772 115.224L238.243 122.943L224.757 115.165L238.243 107.388Z" fill="#0E3572"/>
<path d="M251.504 115.223L238.244 122.789L225.025 115.165L238.243 107.542L251.504 115.223Z" stroke="white" stroke-opacity="0.2" stroke-width="0.308713"/>
<g clip-path="url(#clip6_1719_12295)">
<path d="M242.87 116.352L241.14 117.351L239.41 116.352L241.14 115.354L242.87 116.352ZM238.516 113.506L236.21 114.837L233.903 113.506L236.21 112.174L238.516 113.506ZM245.48 114.846L243.75 115.845L242.02 114.846L243.75 113.847L245.48 114.846ZM240.261 117.859L238.531 118.858L236.801 117.859L238.531 116.86L240.261 117.859Z" stroke="white" stroke-width="0.532736" stroke-miterlimit="10" stroke-linecap="round" stroke-linejoin="round"/>
<path d="M242.885 114.346L241.429 113.505L236.21 116.519L237.666 117.359" stroke="white" stroke-width="0.532736" stroke-miterlimit="10" stroke-linecap="round" stroke-linejoin="round"/>
<path d="M237.364 114.171L240.276 115.853" stroke="white" stroke-width="0.532736" stroke-miterlimit="10" stroke-linecap="round" stroke-linejoin="round"/>
</g>
<mask id="path-110-inside-7_1719_12295" fill="white">
<path d="M24.2642 163.689L30.1538 163.703V167.061L16.7056 174.897L3.13916 167.061V163.644L9.0415 163.657L16.6245 159.284L24.2642 163.689Z"/>
</mask>
<path d="M24.2642 163.689L30.1538 163.703V167.061L16.7056 174.897L3.13916 167.061V163.644L9.0415 163.657L16.6245 159.284L24.2642 163.689Z" fill="white"/>
<path d="M24.2642 163.689L24.2109 163.781L24.2355 163.795L24.2639 163.796L24.2642 163.689ZM30.1538 163.703H30.2603V163.596L30.1541 163.596L30.1538 163.703ZM30.1538 167.061L30.2074 167.153L30.2603 167.122V167.061H30.1538ZM16.7056 174.897L16.6523 174.989L16.7058 175.02L16.7592 174.989L16.7056 174.897ZM3.13916 167.061H3.03262V167.123L3.08587 167.153L3.13916 167.061ZM3.13916 163.644L3.13939 163.538L3.03262 163.537V163.644H3.13916ZM9.0415 163.657L9.04127 163.763L9.06992 163.763L9.09473 163.749L9.0415 163.657ZM16.6245 159.284L16.6777 159.191L16.6245 159.161L16.5713 159.191L16.6245 159.284ZM24.2642 163.689L24.2639 163.796L30.1536 163.809L30.1538 163.703L30.1541 163.596L24.2644 163.582L24.2642 163.689ZM30.1538 163.703H30.0473V167.061H30.1538H30.2603V163.703H30.1538ZM30.1538 167.061L30.1002 166.969L16.6519 174.805L16.7056 174.897L16.7592 174.989L30.2074 167.153L30.1538 167.061ZM16.7056 174.897L16.7589 174.805L3.19245 166.969L3.13916 167.061L3.08587 167.153L16.6523 174.989L16.7056 174.897ZM3.13916 167.061H3.2457V163.644H3.13916H3.03262V167.061H3.13916ZM3.13916 163.644L3.13893 163.751L9.04127 163.763L9.0415 163.657L9.04173 163.55L3.13939 163.538L3.13916 163.644ZM9.0415 163.657L9.09473 163.749L16.6777 159.376L16.6245 159.284L16.5713 159.191L8.98828 163.564L9.0415 163.657ZM16.6245 159.284L16.5713 159.376L24.2109 163.781L24.2642 163.689L24.3174 163.597L16.6777 159.191L16.6245 159.284Z" fill="#0E3572" mask="url(#path-110-inside-7_1719_12295)"/>
<path d="M16.6245 155.866L30.1534 163.703L16.6245 171.421L3.13913 163.644L16.6245 155.866Z" fill="#0E3572"/>
<path d="M16.6245 155.866L30.1534 163.703L16.6245 171.421L3.13913 163.644L16.6245 155.866Z" fill="white" fill-opacity="0.85"/>
<path d="M29.8857 163.702L16.6254 171.267L3.40643 163.644L16.6245 156.021L29.8857 163.702Z" stroke="white" stroke-opacity="0.2" stroke-width="0.308713"/>
<g clip-path="url(#clip7_1719_12295)">
<path d="M17.6671 161.059C16.2319 160.837 14.6373 161.052 13.5114 161.702L16.5535 163.458L20.7096 162.815C20.521 162.407 20.1498 162.022 19.5956 161.702C19.0413 161.382 18.3735 161.167 17.6671 161.059Z" stroke="#0E3572" stroke-width="0.532736" stroke-miterlimit="10" stroke-linecap="round" stroke-linejoin="round"/>
<path d="M16.2075 164.257L13.1654 162.501C12.0395 163.151 11.6682 164.071 12.0513 164.9C12.2399 165.308 12.6112 165.693 13.1654 166.013C13.7196 166.333 14.3874 166.548 15.0939 166.657C16.5291 166.878 18.1237 166.663 19.2496 166.013C20.3755 165.363 20.7468 164.443 20.3637 163.614L16.2075 164.257Z" stroke="#0E3572" stroke-width="0.532736" stroke-miterlimit="10" stroke-linecap="round" stroke-linejoin="round"/>
</g>
<path d="M217.335 202.633L216.634 202.216L217.266 201.862C217.424 201.773 217.544 201.68 217.625 201.581C217.703 201.481 217.744 201.38 217.749 201.279C217.75 201.176 217.713 201.075 217.637 200.977C217.558 200.876 217.444 200.782 217.294 200.693C217.139 200.6 216.977 200.531 216.808 200.484C216.639 200.438 216.467 200.415 216.292 200.414C216.117 200.414 215.944 200.437 215.774 200.482C215.602 200.526 215.436 200.593 215.278 200.681L214.646 201.036L213.946 200.62L214.536 200.289C214.842 200.117 215.154 199.993 215.472 199.917C215.79 199.841 216.103 199.804 216.41 199.808C216.718 199.812 217.008 199.852 217.281 199.928C217.554 200.001 217.798 200.101 218.015 200.23L218.116 200.29C218.318 200.41 218.479 200.55 218.6 200.712C218.721 200.869 218.784 201.039 218.787 201.22C218.788 201.399 218.722 201.581 218.587 201.766C218.452 201.951 218.232 202.13 217.925 202.302L217.335 202.633ZM216.666 203.008L213.277 200.995L214.038 200.568L217.428 202.581L216.666 203.008ZM219.812 201.222L217.588 198.608L218.819 197.917L223.324 199.251L222.534 199.694L218.77 198.543L219.107 198.464L218.508 198.8L218.663 198.603L220.574 200.794L219.812 201.222ZM219.833 200.252L219.442 199.752L220.771 199.007L221.631 199.244L219.833 200.252ZM225.016 198.403C224.709 198.575 224.403 198.692 224.098 198.754C223.789 198.814 223.498 198.825 223.225 198.788C222.949 198.749 222.702 198.665 222.485 198.537L223.224 198.122C223.31 198.173 223.412 198.207 223.532 198.225C223.655 198.24 223.789 198.234 223.934 198.206C224.076 198.175 224.225 198.116 224.383 198.027C224.526 197.947 224.627 197.869 224.686 197.794C224.746 197.718 224.768 197.647 224.753 197.582C224.736 197.514 224.684 197.455 224.599 197.404C224.492 197.34 224.361 197.317 224.207 197.332C224.05 197.347 223.859 197.406 223.633 197.512L223.355 197.642C222.989 197.815 222.616 197.904 222.235 197.91C221.853 197.916 221.514 197.831 221.218 197.655C221.004 197.528 220.871 197.39 220.817 197.24C220.767 197.089 220.793 196.936 220.897 196.783C220.997 196.628 221.174 196.479 221.428 196.337C221.694 196.187 221.968 196.087 222.248 196.035C222.529 195.98 222.803 195.973 223.07 196.013C223.334 196.052 223.576 196.137 223.796 196.267L223.053 196.684C222.97 196.635 222.875 196.602 222.768 196.585C222.657 196.566 222.54 196.566 222.417 196.586C222.297 196.604 222.178 196.646 222.06 196.712C221.949 196.775 221.873 196.838 221.832 196.904C221.794 196.967 221.789 197.028 221.816 197.087C221.84 197.144 221.888 197.195 221.961 197.238C222.056 197.294 222.173 197.324 222.311 197.328C222.449 197.331 222.602 197.293 222.769 197.214L223.052 197.081C223.321 196.955 223.593 196.864 223.868 196.809C224.139 196.752 224.401 196.737 224.653 196.765C224.905 196.79 225.134 196.863 225.342 196.987C225.556 197.114 225.686 197.257 225.734 197.418C225.781 197.575 225.745 197.738 225.626 197.907C225.507 198.076 225.304 198.241 225.016 198.403ZM229.04 196.044L225.696 194.058L226.458 193.631L229.802 195.616L229.04 196.044ZM226.847 197.274L223.503 195.289L224.265 194.861L227.609 196.847L226.847 197.274ZM226.123 196.12L225.464 195.728L227.164 194.774L227.824 195.166L226.123 196.12ZM231.236 194.838L230.65 194.49L231.445 194.044C231.587 193.964 231.657 193.882 231.655 193.799C231.653 193.715 231.585 193.634 231.451 193.554C231.316 193.474 231.178 193.433 231.037 193.432C230.892 193.428 230.749 193.466 230.606 193.546L229.812 193.992L229.358 193.723L230.116 193.298C230.351 193.166 230.589 193.066 230.83 192.998C231.068 192.928 231.302 192.9 231.532 192.916C231.763 192.931 231.985 193.002 232.199 193.129L232.263 193.167C232.461 193.285 232.586 193.412 232.636 193.55C232.684 193.685 232.656 193.826 232.553 193.972C232.446 194.117 232.26 194.264 231.994 194.413L231.236 194.838ZM230.586 195.203L227.192 193.187L227.935 192.77L231.329 194.786L230.586 195.203ZM229.693 193.921L229.244 193.655L229.913 193.279C230.058 193.198 230.127 193.117 230.119 193.037C230.111 192.957 230.045 192.88 229.923 192.808C229.795 192.732 229.662 192.69 229.523 192.683C229.385 192.676 229.243 192.713 229.098 192.795L228.429 193.171L227.842 192.822L228.465 192.473C228.855 192.254 229.235 192.134 229.604 192.114C229.977 192.092 230.313 192.17 230.612 192.348L230.681 192.388C230.888 192.512 231 192.641 231.017 192.776C231.037 192.91 230.983 193.044 230.855 193.179C230.728 193.311 230.548 193.442 230.315 193.572L229.693 193.921ZM235.475 192.534C235.168 192.706 234.848 192.825 234.515 192.892C234.182 192.956 233.856 192.978 233.536 192.96C233.214 192.94 232.914 192.891 232.638 192.813C232.366 192.734 232.136 192.638 231.95 192.528L231.849 192.468C231.641 192.345 231.474 192.202 231.347 192.041C231.22 191.876 231.149 191.702 231.136 191.519C231.123 191.336 231.181 191.152 231.309 190.967C231.435 190.78 231.646 190.603 231.943 190.437C232.241 190.27 232.553 190.153 232.88 190.086C233.203 190.017 233.524 189.989 233.84 190.002C234.157 190.015 234.456 190.06 234.738 190.138C235.017 190.214 235.261 190.314 235.468 190.437L235.569 190.497C235.755 190.608 235.912 190.744 236.039 190.905C236.167 191.067 236.243 191.241 236.268 191.427C236.291 191.612 236.241 191.801 236.118 191.993C235.996 192.182 235.781 192.362 235.475 192.534ZM234.774 192.118C234.935 192.027 235.052 191.93 235.124 191.826C235.199 191.721 235.232 191.614 235.224 191.505C235.22 191.395 235.176 191.289 235.095 191.187C235.013 191.084 234.899 190.99 234.752 190.903C234.596 190.81 234.43 190.74 234.252 190.691C234.074 190.64 233.891 190.612 233.704 190.607C233.516 190.6 233.333 190.616 233.154 190.657C232.975 190.697 232.805 190.762 232.644 190.853C232.483 190.943 232.365 191.039 232.29 191.142C232.215 191.244 232.18 191.35 232.184 191.46C232.189 191.566 232.234 191.672 232.319 191.776C232.401 191.878 232.52 191.975 232.675 192.068C232.822 192.155 232.983 192.224 233.157 192.274C233.332 192.324 233.513 192.353 233.701 192.36C233.891 192.366 234.078 192.35 234.259 192.311C234.441 192.273 234.613 192.208 234.774 192.118ZM237.311 191.403L235.087 188.789L236.318 188.098L240.824 189.432L240.034 189.875L236.269 188.724L236.607 188.645L236.008 188.981L236.162 188.784L238.073 190.975L237.311 191.403ZM237.332 190.434L236.942 189.933L238.271 189.188L239.13 189.425L237.332 190.434ZM241.266 189.184L237.895 187.182L238.657 186.754L242.028 188.756L241.266 189.184ZM243.324 188.029L240.892 187.733L241.728 187.264L244.207 187.534L243.324 188.029ZM240.752 188.235L240.161 187.884L240.997 187.414C241.109 187.352 241.183 187.285 241.221 187.215C241.259 187.141 241.26 187.068 241.224 186.996C241.188 186.921 241.116 186.852 241.009 186.789C240.903 186.725 240.786 186.683 240.66 186.662C240.534 186.637 240.408 186.636 240.282 186.657C240.156 186.675 240.037 186.715 239.925 186.778L239.089 187.247L238.452 186.869L239.228 186.434C239.51 186.276 239.797 186.164 240.09 186.098C240.38 186.031 240.664 186.014 240.94 186.05C241.216 186.085 241.48 186.177 241.73 186.326L241.804 186.369C242.051 186.516 242.2 186.671 242.25 186.833C242.3 186.992 242.263 187.154 242.138 187.319C242.013 187.481 241.809 187.641 241.528 187.799L240.752 188.235ZM245.347 186.915L244.646 186.499L245.278 186.144C245.436 186.056 245.556 185.962 245.637 185.864C245.715 185.764 245.756 185.663 245.761 185.562C245.762 185.459 245.725 185.358 245.649 185.259C245.57 185.159 245.456 185.064 245.306 184.975C245.151 184.883 244.988 184.813 244.82 184.767C244.651 184.72 244.479 184.697 244.304 184.697C244.129 184.696 243.956 184.719 243.786 184.765C243.614 184.809 243.448 184.875 243.29 184.964L242.658 185.318L241.958 184.902L242.548 184.571C242.854 184.399 243.166 184.275 243.484 184.199C243.802 184.123 244.115 184.087 244.422 184.091C244.73 184.095 245.02 184.134 245.293 184.211C245.566 184.283 245.81 184.384 246.027 184.513L246.128 184.573C246.33 184.692 246.491 184.833 246.612 184.994C246.733 185.152 246.796 185.321 246.799 185.502C246.8 185.682 246.733 185.864 246.599 186.049C246.464 186.234 246.244 186.412 245.937 186.584L245.347 186.915ZM244.678 187.291L241.288 185.278L242.05 184.85L245.44 186.863L244.678 187.291ZM249.274 184.691L245.93 182.705L246.692 182.277L250.036 184.263L249.274 184.691ZM250.808 183.83L247.464 181.844L248.713 181.143L252.726 182.05L252.884 181.962L252.873 182.063L250.056 180.39L250.772 179.988L254.115 181.974L252.856 182.681L248.844 181.774L248.686 181.862L248.697 181.761L251.514 183.434L250.808 183.83ZM256.144 180.936C255.838 181.108 255.532 181.225 255.227 181.287C254.918 181.347 254.627 181.359 254.354 181.322C254.078 181.283 253.831 181.199 253.614 181.07L254.353 180.656C254.439 180.707 254.541 180.741 254.661 180.758C254.784 180.774 254.918 180.767 255.063 180.739C255.204 180.709 255.354 180.649 255.512 180.561C255.655 180.481 255.756 180.403 255.815 180.327C255.874 180.252 255.897 180.181 255.882 180.115C255.865 180.047 255.813 179.988 255.728 179.937C255.621 179.874 255.49 179.85 255.336 179.866C255.179 179.88 254.988 179.94 254.762 180.045L254.483 180.175C254.118 180.348 253.745 180.438 253.364 180.444C252.982 180.45 252.643 180.365 252.347 180.189C252.133 180.062 252 179.924 251.946 179.774C251.896 179.622 251.922 179.47 252.026 179.317C252.126 179.162 252.303 179.013 252.557 178.87C252.823 178.721 253.097 178.62 253.377 178.569C253.658 178.513 253.932 178.506 254.199 178.547C254.463 178.586 254.705 178.67 254.925 178.801L254.181 179.218C254.099 179.169 254.004 179.136 253.897 179.118C253.786 179.099 253.669 179.1 253.546 179.119C253.426 179.138 253.307 179.18 253.189 179.246C253.078 179.308 253.002 179.372 252.961 179.437C252.923 179.501 252.918 179.562 252.945 179.621C252.969 179.678 253.017 179.728 253.09 179.772C253.185 179.828 253.302 179.858 253.44 179.861C253.578 179.865 253.731 179.827 253.898 179.747L254.181 179.615C254.45 179.488 254.722 179.398 254.997 179.342C255.268 179.285 255.53 179.271 255.782 179.299C256.033 179.323 256.263 179.397 256.471 179.52C256.685 179.647 256.815 179.791 256.862 179.951C256.91 180.108 256.874 180.271 256.755 180.44C256.636 180.609 256.432 180.775 256.144 180.936ZM257.985 179.803L254.642 177.817L255.404 177.389L258.747 179.375L257.985 179.803ZM261.213 178.092C260.91 178.262 260.596 178.382 260.272 178.451C259.945 178.518 259.624 178.543 259.307 178.527C258.993 178.509 258.699 178.459 258.423 178.377C258.147 178.296 257.907 178.194 257.702 178.073L257.602 178.013C257.391 177.888 257.22 177.746 257.09 177.586C256.96 177.426 256.883 177.257 256.861 177.08C256.842 176.9 256.89 176.721 257.006 176.543C257.125 176.364 257.325 176.195 257.607 176.037C257.914 175.864 258.241 175.746 258.59 175.681C258.935 175.614 259.278 175.6 259.619 175.638C259.957 175.674 260.267 175.763 260.548 175.905L259.786 176.332C259.645 176.27 259.489 176.235 259.317 176.225C259.148 176.214 258.975 176.228 258.8 176.267C258.627 176.304 258.463 176.366 258.308 176.453C258.159 176.536 258.052 176.626 257.986 176.723C257.924 176.818 257.898 176.917 257.909 177.021C257.923 177.122 257.974 177.224 258.062 177.326C258.15 177.425 258.272 177.52 258.428 177.613C258.59 177.709 258.759 177.785 258.937 177.84C259.115 177.892 259.296 177.923 259.48 177.932C259.662 177.94 259.842 177.923 260.021 177.883C260.203 177.841 260.373 177.775 260.531 177.687C260.741 177.569 260.881 177.441 260.951 177.303C261.02 177.165 261.019 177.036 260.946 176.914L261.366 177.271L260.569 176.797L261.271 176.404L261.985 176.828C262.072 177.048 262.049 177.267 261.917 177.485C261.786 177.7 261.551 177.903 261.213 178.092ZM259.829 177.382L259.288 177.061L261.156 176.013L261.696 176.334L259.829 177.382ZM265.582 175.54L262.238 173.555L263 173.127L266.344 175.113L265.582 175.54ZM263.389 176.771L260.045 174.785L260.807 174.358L264.151 176.343L263.389 176.771ZM262.665 175.616L262.005 175.225L263.706 174.271L264.365 174.662L262.665 175.616ZM267.778 174.308L264.998 172.657L265.76 172.229L268.54 173.88L267.778 174.308ZM264.137 173.246L263.482 172.857L266.154 171.358L266.809 171.747L264.137 173.246Z" fill="#0E3572"/>
<mask id="path-117-inside-8_1719_12295" fill="white">
<path d="M180.858 32.5083L194.78 32.5396V40.4858L162.991 59.0269L130.923 40.4858V32.3999L144.876 32.4302L162.8 22.0835L180.858 32.5083Z"/>
</mask>
<path d="M180.858 32.5083L194.78 32.5396V40.4858L162.991 59.0269L130.923 40.4858V32.3999L144.876 32.4302L162.8 22.0835L180.858 32.5083Z" fill="#0E3572" fill-opacity="0.1"/>
<path d="M180.858 32.5083L180.805 32.6006L180.83 32.6148L180.858 32.6148L180.858 32.5083ZM194.78 32.5396H194.887V32.4332L194.781 32.433L194.78 32.5396ZM194.78 40.4858L194.834 40.5779L194.887 40.547V40.4858H194.78ZM162.991 59.0269L162.938 59.1191L162.991 59.1501L163.045 59.1189L162.991 59.0269ZM130.923 40.4858H130.816V40.5473L130.87 40.5781L130.923 40.4858ZM130.923 32.3999L130.923 32.2934L130.816 32.2931V32.3999H130.923ZM144.876 32.4302L144.876 32.5367L144.904 32.5368L144.929 32.5225L144.876 32.4302ZM162.8 22.0835L162.853 21.9912L162.8 21.9605L162.747 21.9912L162.8 22.0835ZM180.858 32.5083L180.858 32.6148L194.78 32.6461L194.78 32.5396L194.781 32.433L180.859 32.4018L180.858 32.5083ZM194.78 32.5396H194.674V40.4858H194.78H194.887V32.5396H194.78ZM194.78 40.4858L194.727 40.3938L162.938 58.9348L162.991 59.0269L163.045 59.1189L194.834 40.5779L194.78 40.4858ZM162.991 59.0269L163.045 58.9346L130.976 40.3936L130.923 40.4858L130.87 40.5781L162.938 59.1191L162.991 59.0269ZM130.923 40.4858H131.029V32.3999H130.923H130.816V40.4858H130.923ZM130.923 32.3999L130.923 32.5064L144.876 32.5367L144.876 32.4302L144.876 32.3236L130.923 32.2934L130.923 32.3999ZM144.876 32.4302L144.929 32.5225L162.853 22.1758L162.8 22.0835L162.747 21.9912L144.823 32.3379L144.876 32.4302ZM162.8 22.0835L162.747 22.1758L180.805 32.6006L180.858 32.5083L180.912 32.416L162.853 21.9912L162.8 22.0835Z" fill="#0E3572" mask="url(#path-117-inside-8_1719_12295)"/>
<path d="M194.514 32.5384L162.803 50.6483L131.192 32.4002L162.802 14.1526L194.514 32.5384Z" fill="white" stroke="#0E3572" stroke-width="0.308726"/>
<g clip-path="url(#clip8_1719_12295)">
<path d="M162.949 24.3294C164.024 24.95 162.281 26.9625 159.056 28.8243C155.831 30.6862 152.345 31.6924 151.27 31.0718C150.195 30.4512 151.938 28.4387 155.163 26.5769C158.388 24.715 161.874 23.7088 162.949 24.3294Z" stroke="#ED1C24" stroke-width="0.532736" stroke-miterlimit="10" stroke-linecap="square"/>
<path d="M166.875 26.5955C167.95 27.2161 166.207 29.2286 162.982 31.0905C159.757 32.9523 156.272 33.9586 155.197 33.3379" stroke="#ED1C24" stroke-width="0.532736" stroke-miterlimit="10" stroke-linecap="square"/>
<path d="M170.767 28.8428C171.842 29.4635 170.099 31.4759 166.874 33.3378C163.649 35.1996 160.164 36.2059 159.089 35.5852" stroke="#ED1C24" stroke-width="0.532736" stroke-miterlimit="10" stroke-linecap="square"/>
<path d="M151.271 31.072L163.014 37.8518C164.089 38.4725 167.575 37.4662 170.8 35.6044C174.024 33.7425 175.767 31.7301 174.692 31.1094L162.949 24.3296" stroke="#ED1C24" stroke-width="0.532736" stroke-miterlimit="10"/>
</g>
</g>
<defs>
<radialGradient id="paint0_radial_1719_12295" cx="0" cy="0" r="1" gradientUnits="userSpaceOnUse" gradientTransform="translate(230.872 257.089) rotate(90) scale(237.062 237.062)">
<stop stop-color="#D9D9D9"/>
<stop offset="0.890272" stop-color="#D9D9D9" stop-opacity="0"/>
</radialGradient>
<linearGradient id="paint1_linear_1719_12295" x1="191.384" y1="160.193" x2="191.384" y2="167.972" gradientUnits="userSpaceOnUse">
<stop stop-color="white"/>
<stop offset="1" stop-color="#3EAFD1"/>
</linearGradient>
<linearGradient id="paint2_linear_1719_12295" x1="238.265" y1="118.64" x2="238.265" y2="126.419" gradientUnits="userSpaceOnUse">
<stop stop-color="white"/>
<stop offset="1" stop-color="#3EAFD1"/>
</linearGradient>
<clipPath id="clip0_1719_12295">
<rect width="325.95" height="239.645" rx="9.60116" fill="white"/>
</clipPath>
<clipPath id="clip1_1719_12295">
<rect width="19.1785" height="19.1785" fill="white" transform="matrix(0.866025 -0.5 0.866025 0.5 94.2368 144.679)"/>
</clipPath>
<clipPath id="clip2_1719_12295">
<rect width="19.1785" height="19.1785" fill="white" transform="matrix(0.866025 -0.5 0.866025 0.5 175.212 99.9297)"/>
</clipPath>
<clipPath id="clip3_1719_12295">
<rect width="19.1785" height="19.1785" fill="white" transform="matrix(0.866025 -0.5 0.866025 0.5 250.93 138.286)"/>
</clipPath>
<clipPath id="clip4_1719_12295">
<rect width="8.52377" height="8.52377" fill="white" transform="matrix(0.866025 -0.5 0.866025 0.5 103.826 91.4055)"/>
</clipPath>
<clipPath id="clip5_1719_12295">
<rect width="8.52377" height="8.52377" fill="white" transform="matrix(0.866025 -0.5 0.866025 0.5 184.269 156.932)"/>
</clipPath>
<clipPath id="clip6_1719_12295">
<rect width="8.52377" height="8.52377" fill="white" transform="matrix(0.866025 -0.5 0.866025 0.5 231.15 114.846)"/>
</clipPath>
<clipPath id="clip7_1719_12295">
<rect width="8.52377" height="8.52377" fill="white" transform="matrix(0.866025 -0.5 0.866025 0.5 8.99854 163.858)"/>
</clipPath>
<clipPath id="clip8_1719_12295">
<rect width="19.1785" height="19.1785" fill="white" transform="matrix(0.866025 -0.5 0.866025 0.5 146.372 31.0906)"/>
</clipPath>
</defs>
</svg>
