<svg width="648" height="535" viewBox="0 0 648 535" fill="none" xmlns="http://www.w3.org/2000/svg">
<g clip-path="url(#clip0_1870_335)">
<rect width="648" height="535" fill="#FFFAFA"/>
<g opacity="0.5">
<mask id="mask0_1870_335" style="mask-type:alpha" maskUnits="userSpaceOnUse" x="-530" y="-226" width="1709" height="987">
<rect width="986.692" height="986.692" transform="matrix(0.866025 0.5 -0.866025 0.5 324.5 -226)" fill="url(#paint0_radial_1870_335)"/>
</mask>
<g mask="url(#mask0_1870_335)">
<path d="M304.757 -213.664L-508.937 256.122" stroke="#B3B3B3"/>
<path d="M340.361 -193.11L-473.332 276.676" stroke="#B3B3B3"/>
<path d="M375.965 -172.552L-437.729 297.234" stroke="#B3B3B3"/>
<path d="M411.569 -151.996L-402.124 317.79" stroke="#B3B3B3"/>
<path d="M447.172 -131.441L-366.521 338.345" stroke="#B3B3B3"/>
<path d="M482.779 -110.884L-330.915 358.902" stroke="#B3B3B3"/>
<path d="M518.381 -90.3273L-295.313 379.459" stroke="#B3B3B3"/>
<path d="M553.984 -69.7732L-259.709 400.013" stroke="#B3B3B3"/>
<path d="M589.593 -49.2155L-224.1 420.571" stroke="#B3B3B3"/>
<path d="M625.194 -28.6597L-188.499 441.126" stroke="#B3B3B3"/>
<path d="M660.798 -8.10426L-152.896 461.682" stroke="#B3B3B3"/>
<path d="M696.401 12.4524L-117.292 482.239" stroke="#B3B3B3"/>
<path d="M732.007 33.009L-81.6861 502.795" stroke="#B3B3B3"/>
<path d="M767.612 53.5634L-46.0816 523.35" stroke="#B3B3B3"/>
<path d="M803.218 74.1211L-10.4756 543.907" stroke="#B3B3B3"/>
<path d="M838.819 94.6765L25.1254 564.463" stroke="#B3B3B3"/>
<path d="M874.426 115.232L60.7324 585.018" stroke="#B3B3B3"/>
<path d="M910.027 135.788L96.3334 605.574" stroke="#B3B3B3"/>
<path d="M945.634 156.345L131.94 626.131" stroke="#B3B3B3"/>
<path d="M981.235 176.9L167.541 646.686" stroke="#B3B3B3"/>
<path d="M1016.84 197.457L203.147 667.244" stroke="#B3B3B3"/>
<path d="M1052.44 218.013L238.751 687.799" stroke="#B3B3B3"/>
<path d="M1088.05 238.569L274.357 708.355" stroke="#B3B3B3"/>
<path d="M1123.65 259.125L309.958 728.912" stroke="#B3B3B3"/>
<path d="M1159.26 279.681L345.565 749.467" stroke="#B3B3B3"/>
<path d="M304.757 -213.664L1159.26 279.681" stroke="#B3B3B3"/>
<path d="M270.852 -194.09L1125.35 299.256" stroke="#B3B3B3"/>
<path d="M236.949 -174.515L1091.45 318.83" stroke="#B3B3B3"/>
<path d="M203.044 -154.941L1057.54 338.404" stroke="#B3B3B3"/>
<path d="M169.141 -135.367L1023.64 357.979" stroke="#B3B3B3"/>
<path d="M135.236 -115.793L989.736 377.553" stroke="#B3B3B3"/>
<path d="M101.334 -96.2173L955.834 397.128" stroke="#B3B3B3"/>
<path d="M67.4292 -76.6429L921.929 416.703" stroke="#B3B3B3"/>
<path d="M33.5254 -57.0693L888.025 436.276" stroke="#B3B3B3"/>
<path d="M-0.377441 -37.4951L854.123 455.851" stroke="#B3B3B3"/>
<path d="M-34.2817 -17.919L820.218 475.427" stroke="#B3B3B3"/>
<path d="M-68.187 1.65365L786.313 494.999" stroke="#B3B3B3"/>
<path d="M-102.089 21.229L752.411 514.575" stroke="#B3B3B3"/>
<path d="M-135.994 40.8037L718.506 534.15" stroke="#B3B3B3"/>
<path d="M-169.898 60.3774L684.602 553.723" stroke="#B3B3B3"/>
<path d="M-203.8 79.952L650.7 573.298M116.637 264.956C116.637 264.956 138.336 277.484 152.24 285.512" stroke="#B3B3B3"/>
<path d="M-237.674 99.5147L616.826 592.861" stroke="#B3B3B3"/>
<path d="M-271.578 119.088L582.922 612.433" stroke="#B3B3B3"/>
<path d="M-305.483 138.661L549.017 632.007" stroke="#B3B3B3"/>
<path d="M-339.385 158.236L515.115 651.582" stroke="#B3B3B3"/>
<path d="M-373.29 177.811L481.21 671.156" stroke="#B3B3B3"/>
<path d="M-407.192 197.384L447.308 690.73" stroke="#B3B3B3"/>
<path d="M-441.097 216.958L413.403 710.304" stroke="#B3B3B3"/>
<path d="M-475.001 236.534L379.499 729.88" stroke="#B3B3B3"/>
<path d="M-508.904 256.108L345.596 749.454" stroke="#B3B3B3"/>
</g>
</g>
<mask id="path-52-inside-1_1870_335" fill="white">
<path fill-rule="evenodd" clip-rule="evenodd" d="M237.605 236.781C284.15 209.783 361.398 210.818 410.144 239.092C417.544 243.384 423.86 248.059 429.091 252.992H447.192L447.579 286.044L447.573 286.043C450.007 305.345 438.93 324.786 414.13 339.171C367.585 366.169 290.336 365.134 241.591 336.86C216.162 322.11 203.514 302.862 203.838 283.991H203.832V252.992H217.07C222.337 247.141 229.178 241.668 237.605 236.781Z"/>
</mask>
<path fill-rule="evenodd" clip-rule="evenodd" d="M237.605 236.781C284.15 209.783 361.398 210.818 410.144 239.092C417.544 243.384 423.86 248.059 429.091 252.992H447.192L447.579 286.044L447.573 286.043C450.007 305.345 438.93 324.786 414.13 339.171C367.585 366.169 290.336 365.134 241.591 336.86C216.162 322.11 203.514 302.862 203.838 283.991H203.832V252.992H217.07C222.337 247.141 229.178 241.668 237.605 236.781Z" fill="white"/>
<path d="M237.605 236.781L237.354 236.348V236.348L237.605 236.781ZM410.144 239.092L410.395 238.66V238.66L410.144 239.092ZM429.091 252.992L428.747 253.356L428.892 253.492H429.091V252.992ZM447.192 252.992L447.692 252.987L447.686 252.492H447.192V252.992ZM447.579 286.044L447.497 286.537L448.086 286.636L448.079 286.038L447.579 286.044ZM447.573 286.043L447.655 285.55L446.993 285.44L447.077 286.106L447.573 286.043ZM414.13 339.171L414.38 339.604V339.604L414.13 339.171ZM241.591 336.86L241.34 337.292V337.292L241.591 336.86ZM203.838 283.991L204.338 283.999L204.346 283.491H203.838V283.991ZM203.832 283.991H203.332V284.491H203.832V283.991ZM203.832 252.992V252.492H203.332V252.992H203.832ZM217.07 252.992V253.492H217.293L217.442 253.327L217.07 252.992ZM237.605 236.781L237.856 237.213C261.03 223.771 291.883 217.292 323.043 217.709C354.201 218.127 385.611 225.44 409.893 239.525L410.144 239.092L410.395 238.66C385.932 224.47 354.345 217.129 323.056 216.709C291.769 216.29 260.725 222.792 237.354 236.348L237.605 236.781ZM410.144 239.092L409.893 239.525C417.264 243.8 423.548 248.452 428.747 253.356L429.091 252.992L429.434 252.629C424.172 247.665 417.824 242.968 410.395 238.66L410.144 239.092ZM429.091 252.992V253.492H447.192V252.992V252.492H429.091V252.992ZM447.192 252.992L446.692 252.998L447.079 286.05L447.579 286.044L448.079 286.038L447.692 252.987L447.192 252.992ZM447.579 286.044L447.661 285.551L447.655 285.55L447.573 286.043L447.491 286.536L447.497 286.537L447.579 286.044ZM447.573 286.043L447.077 286.106C449.478 305.142 438.572 324.416 413.879 338.739L414.13 339.171L414.38 339.604C439.288 325.157 450.537 305.549 448.069 285.981L447.573 286.043ZM414.13 339.171L413.879 338.739C390.705 352.181 359.852 358.66 328.692 358.242C297.534 357.825 266.124 350.512 241.841 336.427L241.591 336.86L241.34 337.292C265.803 351.482 297.39 358.823 328.679 359.242C359.966 359.661 391.01 353.159 414.38 339.604L414.13 339.171ZM241.591 336.86L241.841 336.427C216.501 321.729 204.018 302.622 204.338 283.999L203.838 283.991L203.338 283.982C203.009 303.103 215.824 322.492 241.34 337.292L241.591 336.86ZM203.838 283.991V283.491H203.832V283.991V284.491H203.838V283.991ZM203.832 283.991H204.332V252.992H203.832H203.332V283.991H203.832ZM203.832 252.992V253.492H217.07V252.992V252.492H203.832V252.992ZM217.07 252.992L217.442 253.327C222.668 247.52 229.467 242.079 237.856 237.213L237.605 236.781L237.354 236.348C228.89 241.258 222.005 246.762 216.698 252.658L217.07 252.992Z" fill="#0E3572" mask="url(#path-52-inside-1_1870_335)"/>
<path d="M409.928 208.471C458.564 236.681 460.329 281.376 413.913 308.299C367.497 335.221 290.443 334.197 241.807 305.987C193.171 277.776 191.405 233.082 237.821 206.159C284.237 179.236 361.292 180.26 409.928 208.471Z" fill="white" stroke="#0E3572" stroke-width="0.5"/>
<g filter="url(#filter0_d_1870_335)">
<path d="M261.83 131.92C296.396 126.258 332.649 124.896 368.195 127.923C396.024 130.293 422.923 135.311 447.813 142.744L461.787 128.773L487.258 181.445L395.508 195.046L409.662 180.892C393.127 176.191 375.391 172.992 357.078 171.433C332.197 169.314 306.819 170.268 282.624 174.23L261.83 131.92Z" fill="#3EAFD1"/>
</g>
<g filter="url(#filter1_d_1870_335)">
<mask id="path-56-inside-2_1870_335" fill="white">
<path d="M191.947 304.688L164.649 308.911C173.534 322.621 187.422 335.113 205.445 345.518C227.509 358.255 254.992 367.416 285.132 372.078L265.415 414.56C222.358 407.9 183.095 394.813 151.575 376.617C124.09 360.749 103.337 341.483 90.8242 320.33L63.9067 324.494L110.411 276.852L191.947 304.688Z"/>
</mask>
<path d="M191.947 304.688L164.649 308.911C173.534 322.621 187.422 335.113 205.445 345.518C227.509 358.255 254.992 367.416 285.132 372.078L265.415 414.56C222.358 407.9 183.095 394.813 151.575 376.617C124.09 360.749 103.337 341.483 90.8242 320.33L63.9067 324.494L110.411 276.852L191.947 304.688Z" fill="#FFFAFA"/>
<path d="M191.947 304.688L192.264 305.371L195.078 304.936L192.57 304.08L191.947 304.688ZM164.649 308.911L164.332 308.228L163.03 308.429L163.502 309.158L164.649 308.911ZM205.445 345.518L204.579 346.018V346.018L205.445 345.518ZM285.132 372.078L286.315 372.261L286.632 371.578L285.449 371.395L285.132 372.078ZM265.415 414.56L265.098 415.243L266.281 415.426L266.598 414.743L265.415 414.56ZM151.575 376.617L150.709 377.117V377.117L151.575 376.617ZM90.8242 320.33L91.9833 320.101L91.6132 319.476L90.5072 319.647L90.8242 320.33ZM63.9067 324.494L62.8396 324.147L61.4091 325.612L64.2237 325.177L63.9067 324.494ZM110.411 276.852L111.034 276.243L109.958 275.876L109.344 276.505L110.411 276.852ZM191.947 304.688L191.63 304.005L164.332 308.228L164.649 308.911L164.966 309.594L192.264 305.371L191.947 304.688ZM164.649 308.911L163.502 309.158C172.448 322.963 186.432 335.541 204.579 346.018L205.445 345.518L206.311 345.018C188.412 334.685 174.62 322.279 165.797 308.663L164.649 308.911ZM205.445 345.518L204.579 346.018C226.795 358.843 254.467 368.066 284.815 372.761L285.132 372.078L285.449 371.395C255.517 366.765 228.223 357.667 206.311 345.018L205.445 345.518ZM285.132 372.078L283.949 371.895L264.232 414.377L265.415 414.56L266.598 414.743L286.315 372.261L285.132 372.078ZM265.415 414.56L265.732 413.877C222.883 407.249 183.809 394.225 152.441 376.117L151.575 376.617L150.709 377.117C182.381 395.401 221.833 408.55 265.098 415.243L265.415 414.56ZM151.575 376.617L152.441 376.117C125.088 360.326 104.435 341.153 91.9833 320.101L90.8242 320.33L89.6652 320.558C102.238 341.814 123.091 361.173 150.709 377.117L151.575 376.617ZM90.8242 320.33L90.5072 319.647L63.5896 323.811L63.9067 324.494L64.2237 325.177L91.1413 321.013L90.8242 320.33ZM63.9067 324.494L64.9737 324.841L111.478 277.199L110.411 276.852L109.344 276.505L62.8396 324.147L63.9067 324.494ZM110.411 276.852L109.787 277.46L191.323 305.297L191.947 304.688L192.57 304.08L111.034 276.243L110.411 276.852Z" fill="#0E3572" mask="url(#path-56-inside-2_1870_335)"/>
</g>
<g filter="url(#filter2_d_1870_335)">
<path d="M255.077 154.246L229.605 206.918L216.98 194.295C203.274 200.924 191.351 208.722 181.64 217.437C168.617 229.124 159.842 242.217 155.847 255.921L80.7207 248.621C86.4288 229.044 98.9648 210.34 117.569 193.643C133.852 179.03 154.485 166.222 178.482 155.8L163.327 140.646L255.077 154.246Z" fill="#0E3572"/>
</g>
<g filter="url(#filter3_d_1870_335)">
<path d="M519.085 174.368C552.227 195.425 574.039 221.594 581.862 249.684C587.892 271.336 585.406 293.408 574.774 314.292L605.78 319.088L524.243 346.924L477.74 299.282L501.157 302.905C509.042 287.988 510.964 272.173 506.645 256.666C501.17 237.003 485.9 218.684 462.7 203.944L519.085 174.368Z" fill="#ED1C24"/>
</g>
<g filter="url(#filter4_d_1870_335)">
<path d="M363.851 358.846L363.851 373.821C397.972 370.133 429.621 360.74 454.756 346.698L507.734 378.303C468.407 400.273 417.919 414.278 363.851 418.332L363.852 435.371L296.175 397.108L363.851 358.846Z" fill="#58595B"/>
</g>
<path d="M143.589 217.393L127.366 212.283L128.555 211.026L144.777 216.136L143.589 217.393ZM144.535 216.393L142.579 215.777L146.872 211.235L148.827 211.851L144.535 216.393ZM137.268 214.104L135.312 213.488L139.229 209.344L141.185 209.96L137.268 214.104ZM130.268 211.899L128.312 211.283L132.484 206.869L134.439 207.485L130.268 211.899ZM151.034 209.763L135.448 203.922L136.799 202.721L152.385 208.562L151.034 209.763ZM157.251 204.234L147.014 204.615L148.599 203.205L158.891 202.776L157.251 204.234ZM146.269 206.915L144.422 206.222L147.123 203.82C147.546 203.444 147.774 203.07 147.809 202.7C147.843 202.329 147.709 201.983 147.408 201.661C147.092 201.334 146.629 201.056 146.021 200.828C145.412 200.599 144.791 200.471 144.159 200.443C143.512 200.41 142.903 200.478 142.33 200.647C141.744 200.811 141.239 201.08 140.817 201.456L138.115 203.859L136.289 203.175L138.743 200.993C139.478 200.339 140.291 199.83 141.182 199.467C142.073 199.104 143.024 198.921 144.035 198.916C145.046 198.912 146.111 199.119 147.229 199.538L147.569 199.665C148.687 200.085 149.444 200.566 149.839 201.109C150.244 201.644 150.34 202.22 150.129 202.838C149.926 203.447 149.458 204.079 148.723 204.732L146.269 206.915ZM156.982 198.084L155.259 197.316L157.782 195.431C158.319 195.03 158.629 194.639 158.713 194.258C158.783 193.87 158.673 193.507 158.381 193.167C158.099 192.82 157.671 192.518 157.097 192.262C156.509 192 155.889 191.834 155.236 191.764C154.593 191.687 153.963 191.72 153.345 191.863C152.727 192.005 152.149 192.277 151.613 192.678L149.089 194.563L147.367 193.795L149.611 192.118C150.54 191.424 151.508 190.932 152.514 190.642C153.518 190.339 154.527 190.223 155.541 190.293C156.555 190.364 157.537 190.611 158.485 191.034L158.805 191.177C159.74 191.594 160.401 192.08 160.789 192.635C161.164 193.184 161.23 193.78 160.987 194.423C160.742 195.052 160.155 195.714 159.226 196.408L156.982 198.084ZM160.862 201.256L146.159 194.697L147.676 193.563L162.379 200.123L160.862 201.256Z" fill="white"/>
<path d="M306.785 148.392L306.578 147.141L310.686 146.914C311.56 146.866 312.266 146.729 312.805 146.503C313.343 146.268 313.726 145.973 313.955 145.618C314.202 145.262 314.29 144.875 314.221 144.458C314.15 144.031 313.936 143.657 313.577 143.334C313.235 143.01 312.763 142.767 312.159 142.605C311.556 142.442 310.818 142.385 309.944 142.433L305.836 142.66L305.629 141.409L309.283 141.207C310.795 141.124 312.079 141.195 313.133 141.42C314.203 141.635 315.04 141.981 315.644 142.456C316.249 142.932 316.608 143.514 316.722 144.203L316.76 144.435C316.873 145.114 316.711 145.725 316.276 146.268C315.838 146.801 315.13 147.236 314.152 147.574C313.189 147.901 311.952 148.107 310.439 148.19L306.785 148.392ZM305.432 152.196L303.664 141.517L306.133 141.381L307.901 152.059L305.432 152.196ZM329.231 151.311L329.13 148.973L328.725 148.979L328.609 146.276C328.586 145.741 328.324 145.34 327.823 145.074C327.338 144.808 326.632 144.682 325.704 144.695C325.181 144.703 324.642 144.715 324.085 144.733C323.529 144.751 322.998 144.768 322.492 144.785C321.987 144.802 321.548 144.823 321.178 144.848L321.125 143.621C321.496 143.596 321.883 143.576 322.288 143.56C322.708 143.535 323.138 143.519 323.577 143.512C324.015 143.496 324.437 143.485 324.842 143.48C326.225 143.46 327.36 143.541 328.246 143.723C329.131 143.896 329.794 144.193 330.234 144.616C330.674 145.038 330.91 145.615 330.942 146.345L331.154 151.283L329.231 151.311ZM324.811 151.579C323.799 151.594 322.917 151.509 322.166 151.325C321.432 151.131 320.854 150.847 320.433 150.473C320.029 150.098 319.815 149.643 319.792 149.108C319.768 148.552 319.959 148.087 320.365 147.71C320.787 147.334 321.408 147.047 322.227 146.85C323.045 146.644 324.036 146.532 325.2 146.515L328.87 146.463L328.915 147.515L325.145 147.569C324.166 147.583 323.421 147.73 322.91 148.01C322.399 148.29 322.152 148.645 322.171 149.073C322.189 149.502 322.466 149.844 323 150.099C323.534 150.355 324.291 150.476 325.269 150.462C325.843 150.453 326.389 150.387 326.907 150.263C327.424 150.128 327.846 149.918 328.171 149.63C328.513 149.333 328.69 148.931 328.701 148.424L329.383 148.97C329.323 149.526 329.107 149.997 328.735 150.382C328.38 150.758 327.869 151.048 327.203 151.252C326.553 151.457 325.756 151.566 324.811 151.579ZM334.421 154.326L334.515 153.07L336.463 153.119C337.036 153.133 337.52 153.102 337.914 153.024C338.325 152.956 338.664 152.828 338.931 152.639C339.216 152.452 339.454 152.199 339.647 151.882L344.516 143.724L346.893 143.784L341.744 152.3C341.435 152.809 341.025 153.218 340.512 153.527C339.998 153.846 339.381 154.07 338.662 154.198C337.959 154.336 337.144 154.394 336.217 154.371L334.421 154.326ZM338.784 151.217L338.872 150.049L341.806 150.122L341.718 151.29L338.784 151.217ZM338.532 151.211L334.273 143.468L336.751 143.53L340.808 151.267L338.532 151.211ZM349.369 151.778L351.162 144.042L353.069 144.19L352.3 147.507L351.999 147.484C352.174 146.73 352.489 146.106 352.944 145.61C353.418 145.106 354.031 144.741 354.782 144.514C355.532 144.286 356.435 144.214 357.489 144.295L357.589 144.303C358.643 144.384 359.48 144.591 360.101 144.924C360.739 145.259 361.163 145.704 361.375 146.261C361.589 146.809 361.608 147.459 361.434 148.212L360.731 148.158C360.906 147.405 361.229 146.781 361.701 146.286C362.176 145.782 362.788 145.417 363.539 145.19C364.306 144.964 365.217 144.892 366.271 144.973L366.371 144.981C367.425 145.062 368.271 145.27 368.909 145.604C369.546 145.939 369.971 146.384 370.182 146.941C370.413 147.49 370.441 148.141 370.266 148.894L369.242 153.312L366.834 153.126L367.928 148.404C368.073 147.776 367.918 147.273 367.461 146.893C367.006 146.504 366.302 146.273 365.348 146.199C364.361 146.123 363.524 146.245 362.837 146.566C362.152 146.877 361.734 147.356 361.584 148.003L360.51 152.638L358.102 152.452L359.196 147.73C359.341 147.102 359.185 146.598 358.728 146.219C358.274 145.83 357.57 145.599 356.616 145.525C355.629 145.449 354.792 145.571 354.105 145.891C353.42 146.202 353.002 146.681 352.852 147.328L351.778 151.964L349.369 151.778ZM379.095 154.779C377.944 154.626 376.995 154.379 376.248 154.039C375.5 153.7 374.937 153.31 374.559 152.869C374.185 152.419 373.96 151.944 373.883 151.444C373.822 150.946 373.889 150.455 374.083 149.971L374.185 149.714C374.383 149.221 374.698 148.758 375.131 148.326C375.58 147.896 376.142 147.53 376.816 147.23C377.494 146.921 378.28 146.711 379.173 146.6C380.087 146.482 381.094 146.496 382.196 146.643C383.626 146.834 384.73 147.171 385.507 147.655C386.303 148.131 386.812 148.679 387.031 149.298C387.268 149.919 387.258 150.548 387.004 151.184L386.759 151.797L375.067 150.237L375.478 149.212L385.443 150.541L384.678 151.024C384.894 150.483 384.932 149.998 384.792 149.569C384.656 149.131 384.335 148.763 383.831 148.466C383.326 148.169 382.622 147.96 381.717 147.839C380.78 147.714 379.949 147.733 379.226 147.897C378.519 148.062 377.923 148.338 377.44 148.724C376.973 149.111 376.627 149.585 376.403 150.145C376.187 150.686 376.139 151.195 376.26 151.671C376.402 152.14 376.742 152.545 377.28 152.887C377.823 153.22 378.588 153.452 379.574 153.583C380.61 153.721 381.502 153.7 382.25 153.52C383.014 153.342 383.532 153.086 383.804 152.752L386.024 153.049C385.634 153.546 385.092 153.949 384.397 154.257C383.703 154.564 382.904 154.762 382.002 154.852C381.1 154.942 380.131 154.917 379.095 154.779ZM388.652 155.888L392.682 148.439L394.519 148.77L392.79 151.965L392.5 151.912C392.898 151.178 393.401 150.59 394.011 150.149C394.643 149.701 395.383 149.411 396.233 149.278C397.088 149.136 398.055 149.163 399.134 149.357L399.231 149.375C400.858 149.668 401.899 150.178 402.356 150.903C402.828 151.631 402.765 152.549 402.166 153.655L399.864 157.91L397.544 157.492L399.997 152.958C400.309 152.381 400.276 151.87 399.899 151.425C399.526 150.969 398.848 150.653 397.866 150.476C396.851 150.293 395.931 150.326 395.106 150.576C394.282 150.825 393.706 151.252 393.379 151.857L390.971 156.307L388.652 155.888ZM408.913 159.932C407.968 159.722 407.201 159.463 406.611 159.154C406.037 158.849 405.686 158.468 405.556 158.011C405.449 157.549 405.611 156.995 406.042 156.349L410.721 149.34L412.894 149.823L408.106 156.996C407.845 157.387 407.823 157.732 408.039 158.031C408.278 158.324 408.735 158.546 409.413 158.697L411.633 159.191L410.85 160.363L408.913 159.932ZM406.418 152.047L407.073 151.065L415.766 152.999L415.111 153.981L406.418 152.047ZM417.839 162.309C416.224 161.888 415.127 161.362 414.547 160.73C413.982 160.102 413.956 159.437 414.466 158.737L416.543 159.278C416.359 159.561 416.392 159.885 416.644 160.25C416.918 160.61 417.601 160.932 418.693 161.217C419.678 161.473 420.518 161.559 421.215 161.473C421.918 161.378 422.399 161.167 422.656 160.838C422.885 160.545 422.869 160.269 422.61 160.009C422.357 159.74 421.821 159.466 421.001 159.189L419.725 158.76C418.612 158.384 417.814 157.936 417.333 157.415C416.858 156.885 416.857 156.318 417.329 155.714C417.683 155.261 418.185 154.927 418.835 154.712C419.492 154.487 420.24 154.383 421.08 154.399C421.926 154.406 422.811 154.529 423.734 154.77C425.118 155.13 426.103 155.601 426.686 156.18C427.27 156.76 427.303 157.405 426.785 158.114L424.708 157.573C424.915 157.285 424.872 156.985 424.579 156.673C424.308 156.357 423.741 156.086 422.88 155.862C422.019 155.637 421.285 155.569 420.679 155.657C420.073 155.745 419.649 155.945 419.406 156.256C419.198 156.522 419.185 156.775 419.368 157.015C419.566 157.259 420.009 157.498 420.697 157.73L421.973 158.159C423.233 158.584 424.128 159.073 424.657 159.628C425.193 160.174 425.218 160.758 424.732 161.379C424.385 161.823 423.853 162.16 423.136 162.391C422.442 162.616 421.633 162.726 420.711 162.721C419.796 162.707 418.839 162.57 417.839 162.309Z" fill="white"/>
<path d="M207.876 371.694L196.948 380.297L194.947 379.451L205.876 370.847L207.876 371.694ZM201.864 369.055L193.273 375.081L191.787 374.375L195.471 371.791L195.706 371.903C194.859 372.497 194.009 372.932 193.156 373.208C192.279 373.486 191.404 373.594 190.53 373.532C189.646 373.478 188.767 373.243 187.894 372.828L187.816 372.791C186.5 372.166 185.867 371.468 185.917 370.697C185.954 369.919 186.611 369.083 187.887 368.188L192.794 364.746L194.671 365.638L189.442 369.305C188.777 369.771 188.474 370.252 188.533 370.747C188.582 371.25 189.004 371.69 189.799 372.068C190.62 372.458 191.493 372.627 192.42 372.575C193.346 372.523 194.158 372.252 194.855 371.764L199.987 368.164L201.864 369.055ZM187.456 361.935L181.493 369.427L179.657 368.421L185.693 360.969L187.456 361.935ZM187.015 361.693L185.691 362.499L183.561 361.332L184.885 360.526L187.015 361.693ZM186.17 361.231L174.019 365.333L172.293 364.387L184.499 360.315L186.17 361.231ZM176.031 354.878C176.83 355.38 177.373 355.893 177.657 356.417C177.942 356.941 178.025 357.446 177.906 357.933C177.774 358.426 177.496 358.892 177.07 359.33C176.633 359.76 176.097 360.144 175.464 360.48L175.128 360.658C174.483 361.001 173.77 361.281 172.989 361.496C172.198 361.705 171.377 361.823 170.527 361.851C169.665 361.885 168.811 361.802 167.965 361.603C167.096 361.402 166.278 361.062 165.513 360.582C164.519 359.958 163.938 359.32 163.77 358.667C163.579 358.015 163.695 357.397 164.119 356.814C164.532 356.224 165.155 355.708 165.987 355.266L166.788 354.841L174.912 359.94L173.57 360.652L166.647 356.306L167.75 356.157C167.042 356.533 166.536 356.921 166.233 357.32C165.917 357.726 165.821 358.134 165.947 358.544C166.073 358.954 166.45 359.356 167.078 359.751C167.729 360.159 168.433 360.414 169.191 360.515C169.936 360.609 170.697 360.576 171.473 360.415C172.238 360.247 172.987 359.969 173.719 359.58C174.428 359.204 174.964 358.8 175.33 358.367C175.672 357.934 175.788 357.489 175.678 357.031C175.555 356.58 175.151 356.139 174.466 355.709C173.746 355.257 172.989 354.984 172.196 354.889C171.391 354.786 170.713 354.829 170.162 355.015L168.62 354.047C169.429 353.763 170.27 353.608 171.144 353.581C172.018 353.553 172.871 353.65 173.703 353.87C174.535 354.09 175.311 354.426 176.031 354.878ZM166.004 348.442C166.642 348.896 167.083 349.342 167.329 349.779C167.563 350.209 167.539 350.64 167.257 351.074C166.951 351.506 166.333 351.939 165.403 352.375L155.298 357.108L153.831 356.064L164.171 351.221C164.734 350.957 165.051 350.664 165.121 350.343C165.167 350.02 164.962 349.696 164.505 349.371L163.005 348.304L164.696 347.512L166.004 348.442ZM161.366 355.998L159.95 356.661L154.08 352.484L155.496 351.821L161.366 355.998ZM159.376 342.929C160.058 343.486 160.492 344.043 160.677 344.6C160.863 345.156 160.867 345.691 160.69 346.205C160.489 346.717 160.144 347.186 159.653 347.612C159.153 348.031 158.552 348.384 157.849 348.671L157.477 348.822C156.774 349.109 155.992 349.315 155.132 349.439C154.258 349.569 153.372 349.597 152.474 349.521C151.562 349.452 150.689 349.271 149.856 348.979C149.009 348.692 148.254 348.278 147.592 347.737C146.93 347.196 146.506 346.647 146.32 346.09C146.121 345.539 146.117 345.004 146.308 344.485C146.485 343.971 146.826 343.498 147.33 343.066C147.82 342.639 148.417 342.282 149.119 341.996L149.492 341.844C150.195 341.557 150.976 341.351 151.837 341.227C152.687 341.095 153.568 341.063 154.48 341.133C155.368 341.2 156.236 341.377 157.083 341.664C157.93 341.95 158.694 342.372 159.376 342.929ZM157.598 343.655C157.014 343.177 156.338 342.844 155.571 342.657C154.78 342.466 153.967 342.41 153.132 342.488C152.288 342.558 151.48 342.751 150.708 343.065C149.923 343.386 149.332 343.764 148.935 344.2C148.539 344.636 148.371 345.099 148.432 345.587C148.483 346.067 148.795 346.542 149.37 347.012C149.935 347.473 150.606 347.802 151.383 347.998C152.16 348.194 152.971 348.257 153.815 348.187C154.66 348.117 155.475 347.921 156.26 347.601C157.032 347.286 157.621 346.914 158.027 346.486C158.423 346.05 158.603 345.589 158.566 345.103C158.505 344.615 158.183 344.132 157.598 343.655ZM152.857 337.905L141.325 341.978L140.321 341.03L145.072 339.353L145.125 339.402C143.44 339.997 141.985 340.22 140.758 340.071C139.508 339.918 138.43 339.414 137.522 338.558L137.285 338.334L139.142 337.678L139.591 338.102C140.296 338.766 141.147 339.168 142.145 339.307C143.128 339.451 144.196 339.319 145.347 338.913L151.588 336.708L152.857 337.905ZM152.397 331.565L150.477 332.158L149.558 331.166C149.288 330.874 148.994 330.649 148.677 330.493C148.367 330.324 148.003 330.22 147.586 330.183C147.161 330.138 146.663 330.148 146.093 330.213L131.451 331.948L130.329 330.737L145.648 328.959C146.564 328.853 147.383 328.848 148.105 328.946C148.842 329.039 149.489 329.231 150.047 329.523C150.611 329.802 151.112 330.178 151.55 330.65L152.397 331.565ZM145.54 330.981L143.754 331.532L142.369 330.037L144.155 329.486L145.54 330.981ZM145.659 331.109L136.285 337.168L135.116 335.905L144.585 329.95L145.659 331.109Z" fill="#0E3572"/>
<path d="M432.439 379.27C433.915 378.798 435.32 378.544 436.655 378.507C437.974 378.475 439.181 378.596 440.273 378.87C441.366 379.144 442.326 379.511 443.153 379.971C443.988 380.439 444.655 380.933 445.154 381.453L445.424 381.734C445.963 382.296 446.356 382.906 446.6 383.563C446.83 384.225 446.848 384.887 446.655 385.55C446.462 386.214 445.991 386.849 445.242 387.456C444.493 388.063 443.41 388.593 441.993 389.046C440.546 389.509 439.167 389.761 437.856 389.801C436.544 389.842 435.336 389.699 434.232 389.373C433.128 389.047 432.17 388.551 431.358 387.886L433.573 387.178C434.198 387.669 434.91 388.009 435.71 388.199C436.518 388.397 437.365 388.466 438.252 388.405C439.124 388.349 440.003 388.179 440.889 387.896C441.849 387.589 442.596 387.222 443.131 386.794C443.675 386.375 444.022 385.913 444.174 385.408C444.32 384.916 444.301 384.404 444.118 383.872C443.921 383.345 443.569 382.817 443.062 382.289C442.579 381.786 442.003 381.346 441.334 380.97C440.649 380.599 439.896 380.316 439.073 380.123C438.236 379.934 437.35 379.855 436.416 379.886C435.49 379.926 434.532 380.105 433.543 380.421C432.155 380.865 431.181 381.438 430.62 382.141C430.06 382.844 430.04 383.607 430.562 384.432L428.347 385.14C427.881 384.454 427.698 383.749 427.796 383.027C427.879 382.31 428.301 381.624 429.062 380.969C429.807 380.318 430.933 379.752 432.439 379.27ZM421.976 382.758L429.485 392.571L427.216 393.149L419.706 383.337L421.976 382.758ZM411.532 385.422L420.461 388.337L417.798 389.017L408.777 386.125L411.532 385.422ZM423.264 386.648L424.154 387.811L419.616 388.969C418.905 389.15 418.36 389.39 417.981 389.689C417.601 389.988 417.384 390.321 417.332 390.685C417.286 391.059 417.409 391.438 417.703 391.821C417.996 392.204 418.394 392.508 418.897 392.731C419.407 392.963 419.981 393.099 420.62 393.138C421.266 393.186 421.944 393.12 422.654 392.939L427.193 391.781L428.073 392.931L423.951 393.982C422.716 394.297 421.553 394.466 420.463 394.488C419.373 394.511 418.403 394.364 417.553 394.048C416.702 393.733 416.008 393.223 415.469 392.519L415.305 392.305C414.766 391.601 414.589 390.959 414.773 390.38C414.941 389.804 415.407 389.291 416.169 388.841C416.916 388.395 417.907 388.014 419.142 387.699L423.264 386.648ZM405.673 386.751L411.455 396.884L408.329 397.479L399.278 391.706L398.893 391.779L397.581 399.523L394.431 400.121L388.649 389.988L391.006 389.54L395.94 398.188L395.756 398.192L397.011 390.722L399.896 390.173L408.62 395.746L408.443 395.811L403.509 387.163L405.673 386.751Z" fill="white"/>
<path d="M519.475 218.301L536.317 213.769L537.365 215.067L520.523 219.599L519.475 218.301ZM524.299 224.275L529.167 219.063L530.397 220.586L525.571 225.852L524.299 224.275ZM526.185 217.479L528.181 216.942L530.277 219.538C530.605 219.945 531.032 220.254 531.558 220.467C532.084 220.681 532.664 220.799 533.297 220.822C533.945 220.841 534.598 220.762 535.256 220.585C535.914 220.408 536.431 220.172 536.808 219.877C537.199 219.578 537.423 219.244 537.478 218.874C537.549 218.501 537.42 218.111 537.092 217.704L534.996 215.108L536.969 214.577L538.873 216.935C539.443 217.641 539.759 218.309 539.82 218.938C539.88 219.566 539.646 220.129 539.116 220.626C538.587 221.124 537.718 221.535 536.509 221.86L536.142 221.959C534.934 222.284 533.826 222.4 532.819 222.305C531.818 222.219 530.921 221.961 530.126 221.53C529.338 221.108 528.659 220.544 528.089 219.837L526.185 217.479ZM528.133 230.498C527.718 229.859 527.549 229.266 527.626 228.719C527.703 228.172 527.955 227.685 528.382 227.26C528.824 226.831 529.385 226.46 530.064 226.146C530.75 225.842 531.496 225.602 532.302 225.428L532.728 225.336C533.55 225.158 534.392 225.053 535.256 225.023C536.125 225.001 536.962 225.069 537.768 225.228C538.59 225.383 539.328 225.645 539.982 226.013C540.657 226.387 541.193 226.88 541.59 227.491C542.106 228.285 542.229 229.002 541.961 229.643C541.714 230.289 541.204 230.837 540.432 231.285C539.666 231.742 538.753 232.085 537.694 232.315L536.675 232.535L532.462 226.049L534.168 225.679L537.759 231.208L536.639 231.107C537.54 230.912 538.261 230.662 538.802 230.358C539.359 230.05 539.713 229.692 539.863 229.285C540.013 228.878 539.925 228.424 539.599 227.922C539.262 227.402 538.775 227.013 538.139 226.755C537.508 226.507 536.782 226.373 535.958 226.353C535.14 226.343 534.265 226.439 533.333 226.641C532.432 226.836 531.671 227.094 531.051 227.416C530.453 227.743 530.056 228.131 529.86 228.579C529.68 229.024 529.768 229.52 530.124 230.067C530.497 230.642 531.021 231.059 531.694 231.319C532.374 231.588 533.029 231.696 533.662 231.642L534.462 232.874C533.527 232.962 532.646 232.924 531.819 232.759C530.991 232.595 530.263 232.321 529.635 231.937C529.007 231.552 528.506 231.073 528.133 230.498ZM526.941 236.516L544.802 233.557L545.333 234.625L539.712 235.556L539.635 235.295C541.053 235.111 542.272 235.091 543.293 235.236C544.334 235.388 545.184 235.668 545.843 236.076C546.503 236.483 546.972 236.968 547.251 237.53C547.521 238.073 547.587 238.594 547.449 239.094C547.316 239.602 547.02 240.067 546.562 240.488C546.104 240.908 545.511 241.27 544.784 241.573C544.057 241.876 543.239 242.103 542.33 242.253L541.892 242.326C540.984 242.476 540.08 242.53 539.18 242.486C538.281 242.443 537.441 242.308 536.662 242.082C535.887 241.866 535.21 241.563 534.629 241.172C534.053 240.791 533.633 240.334 533.367 239.8C533.102 239.266 533.051 238.722 533.215 238.168C533.378 237.614 533.835 237.102 534.585 236.634C535.335 236.165 536.437 235.784 537.889 235.493L536.25 236.434L527.612 237.865L526.941 236.516ZM535.307 239.251C535.558 239.756 535.98 240.163 536.572 240.47C537.18 240.775 537.9 240.97 538.732 241.055C539.581 241.138 540.484 241.099 541.441 240.941C542.414 240.78 543.215 240.535 543.842 240.208C544.47 239.881 544.893 239.497 545.112 239.055C545.348 238.611 545.34 238.136 545.089 237.63C544.865 237.18 544.48 236.793 543.932 236.468C543.4 236.141 542.744 235.915 541.962 235.791C541.201 235.674 540.359 235.692 539.434 235.845L538.315 236.031C537.423 236.179 536.718 236.422 536.202 236.761C535.686 237.1 535.353 237.49 535.203 237.93C535.053 238.37 535.088 238.811 535.307 239.251ZM537.21 248.996C536.978 248.327 536.973 247.716 537.195 247.164C537.417 246.612 537.789 246.122 538.312 245.694C538.855 245.273 539.501 244.926 540.249 244.651C541 244.385 541.798 244.204 542.642 244.106L543.089 244.055C543.933 243.957 544.792 243.953 545.666 244.041C546.556 244.127 547.385 244.309 548.153 244.588C548.937 244.865 549.608 245.235 550.163 245.698C550.736 246.158 551.135 246.713 551.36 247.363C551.585 248.013 551.586 248.613 551.364 249.166C551.159 249.716 550.786 250.206 550.247 250.636C549.724 251.064 549.08 251.416 548.315 251.693C547.567 251.969 546.771 252.155 545.927 252.252L545.48 252.304C544.636 252.401 543.777 252.406 542.904 252.318C542.033 252.239 541.206 252.062 540.421 251.785C539.657 251.515 538.988 251.15 538.416 250.69C537.843 250.229 537.441 249.664 537.21 248.996ZM539.345 248.749C539.543 249.322 539.927 249.785 540.496 250.137C541.085 250.496 541.788 250.738 542.606 250.862C543.427 250.996 544.301 251.009 545.227 250.902C546.171 250.793 546.977 250.586 547.645 250.28C548.314 249.975 548.792 249.592 549.08 249.131C549.372 248.68 549.42 248.173 549.225 247.609C549.033 247.055 548.651 246.597 548.078 246.236C547.506 245.875 546.809 245.628 545.988 245.494C545.167 245.36 544.285 245.347 543.342 245.456C542.415 245.563 541.616 245.765 540.944 246.061C540.275 246.367 539.787 246.746 539.479 247.199C539.191 247.659 539.146 248.176 539.345 248.749ZM539.635 255.115L553.038 254.099L553.289 255.2L547.767 255.619L547.753 255.561C549.711 255.413 551.198 255.551 552.214 255.975C553.248 256.407 553.879 257.121 554.105 258.116L554.164 258.377L552.006 258.541L551.894 258.048C551.718 257.275 551.223 256.708 550.409 256.347C549.612 255.985 548.544 255.855 547.205 255.956L539.951 256.506L539.635 255.115ZM541.192 264.243C541.108 263.66 541.178 263.148 541.403 262.707C541.629 262.276 542.07 261.927 542.726 261.661C543.4 261.404 544.335 261.247 545.529 261.19L558.496 260.569L558.689 261.909L545.419 262.544C544.695 262.579 544.148 262.718 543.776 262.96C543.423 263.212 543.276 263.546 543.336 263.964L543.533 265.333L541.363 265.437L541.192 264.243ZM552.4 259.512L554.217 259.425L554.987 264.784L553.17 264.871L552.4 259.512ZM541.718 267.789L555.227 267.497L555.318 268.899L541.809 269.191L541.718 267.789ZM553.227 266.341L555.149 266.3L555.318 268.899L553.395 268.941L553.227 266.341ZM557.428 267.845C557.408 267.533 557.536 267.296 557.813 267.134C558.09 266.982 558.448 266.901 558.886 266.892C559.325 266.882 559.692 266.947 559.988 267.087C560.285 267.237 560.444 267.467 560.464 267.779C560.484 268.09 560.356 268.322 560.078 268.475C559.802 268.637 559.444 268.722 559.006 268.732C558.567 268.741 558.2 268.671 557.903 268.522C557.607 268.382 557.448 268.156 557.428 267.845ZM541.854 271.902L555.37 272.048L555.334 273.159L549.538 273.096L549.544 272.921C550.877 272.935 551.996 273.05 552.9 273.264C553.821 273.488 554.511 273.817 554.97 274.251C555.445 274.685 555.672 275.228 555.651 275.881L555.649 275.939C555.618 276.923 555.063 277.643 553.984 278.099C552.906 278.565 551.363 278.787 549.354 278.766L541.635 278.682L541.68 277.28L549.906 277.368C550.952 277.38 551.793 277.218 552.428 276.884C553.081 276.55 553.417 276.086 553.436 275.492C553.456 274.878 553.143 274.378 552.497 273.991C551.851 273.604 550.98 273.404 549.883 273.392L541.809 273.305L541.854 271.902ZM535.635 283.885C535.696 283.526 535.782 283.164 535.894 282.798C536.005 282.442 536.13 282.101 536.269 281.776L538.31 281.891C538.168 282.235 538.04 282.595 537.926 282.97C537.793 283.355 537.699 283.716 537.641 284.056C537.523 284.764 537.596 285.336 537.862 285.771C538.109 286.216 538.57 286.55 539.245 286.774C539.901 287.006 540.775 287.153 541.867 287.214L544.437 287.358L546.274 287.931C544.918 287.826 543.812 287.597 542.955 287.246C542.116 286.895 541.51 286.465 541.138 285.955C540.781 285.455 540.651 284.914 540.749 284.333C540.84 283.789 541.1 283.3 541.53 282.864C541.974 282.439 542.543 282.079 543.237 281.785C543.929 281.501 544.702 281.289 545.556 281.151C546.426 281.024 547.322 280.986 548.246 281.038L548.7 281.063C549.64 281.116 550.498 281.257 551.274 281.486C552.066 281.716 552.737 282.013 553.286 282.377C553.835 282.741 554.24 283.16 554.499 283.634C554.757 284.119 554.839 284.637 554.746 285.19C554.637 285.84 554.297 286.398 553.727 286.865C553.174 287.334 552.411 287.682 551.44 287.912C550.484 288.152 549.34 288.25 548.008 288.204L548.052 287.796L553.797 288.117L553.611 289.223L541.743 288.558C540.13 288.468 538.853 288.25 537.911 287.903C536.95 287.566 536.287 287.068 535.923 286.412C535.557 285.765 535.461 284.922 535.635 283.885ZM542.922 284.719C542.844 285.184 542.95 285.616 543.239 286.014C543.526 286.421 543.979 286.755 544.597 287.015C545.229 287.285 546.008 287.446 546.932 287.498L548.091 287.563C548.998 287.614 549.783 287.535 550.445 287.328C551.105 287.13 551.627 286.851 552.01 286.49C552.393 286.13 552.621 285.727 552.696 285.281C552.781 284.776 552.654 284.319 552.316 283.908C551.978 283.498 551.458 283.165 550.755 282.911C550.068 282.657 549.229 282.502 548.238 282.447C547.247 282.391 546.364 282.449 545.589 282.621C544.813 282.803 544.191 283.072 543.724 283.427C543.273 283.794 543.005 284.224 542.922 284.719Z" fill="white"/>
<mask id="path-66-inside-3_1870_335" fill="white">
<path d="M268.653 103.627L279.709 103.652V109.957L254.465 124.668L229 109.957V103.541L240.081 103.565L254.313 95.3557L268.653 103.627Z"/>
</mask>
<path d="M268.653 103.627L279.709 103.652V109.957L254.465 124.668L229 109.957V103.541L240.081 103.565L254.313 95.3557L268.653 103.627Z" fill="white"/>
<path d="M268.653 103.627L268.553 103.8L268.6 103.827L268.653 103.827L268.653 103.627ZM279.709 103.652H279.909V103.452L279.709 103.452L279.709 103.652ZM279.709 109.957L279.81 110.13L279.909 110.072V109.957H279.709ZM254.465 124.668L254.365 124.841L254.465 124.899L254.566 124.841L254.465 124.668ZM229 109.957H228.8V110.073L228.9 110.13L229 109.957ZM229 103.541L229 103.341L228.8 103.341V103.541H229ZM240.081 103.565L240.081 103.765L240.134 103.765L240.181 103.738L240.081 103.565ZM254.313 95.3557L254.413 95.1825L254.313 95.1248L254.214 95.1824L254.313 95.3557ZM268.653 103.627L268.653 103.827L279.709 103.852L279.709 103.652L279.709 103.452L268.654 103.427L268.653 103.627ZM279.709 103.652H279.509V109.957H279.709H279.909V103.652H279.709ZM279.709 109.957L279.608 109.784L254.364 124.495L254.465 124.668L254.566 124.841L279.81 110.13L279.709 109.957ZM254.465 124.668L254.565 124.495L229.1 109.784L229 109.957L228.9 110.13L254.365 124.841L254.465 124.668ZM229 109.957H229.2V103.541H229H228.8V109.957H229ZM229 103.541L229 103.741L240.081 103.765L240.081 103.565L240.081 103.365L229 103.341L229 103.541ZM240.081 103.565L240.181 103.738L254.413 95.5289L254.313 95.3557L254.214 95.1824L239.981 103.391L240.081 103.565ZM254.313 95.3557L254.214 95.5289L268.553 103.8L268.653 103.627L268.753 103.454L254.413 95.1825L254.313 95.3557Z" fill="#0E3572" mask="url(#path-66-inside-3_1870_335)"/>
<path d="M254.314 88.94L279.71 103.652L254.314 118.143L229.001 103.541L254.314 88.94Z" fill="#0E3572"/>
<path d="M254.314 88.94L279.71 103.652L254.314 118.143L229.001 103.541L254.314 88.94Z" fill="white" fill-opacity="0.85"/>
<path d="M279.207 103.651L254.316 117.854L229.504 103.541L254.314 89.2298L279.207 103.651Z" stroke="white" stroke-opacity="0.2" stroke-width="0.579511"/>
<g clip-path="url(#clip1_1870_335)">
<path d="M263.463 105.909L258.266 108.909M254.829 100.862L256.95 100.86C257.582 100.86 258.095 101.156 258.094 101.521L258.077 102.737M249.579 103.893L249.577 105.117C249.576 105.483 250.088 105.778 250.721 105.778L252.827 105.768M255.371 104.924L252.285 101.706M257.942 98.3463L262.38 100.909C263.875 101.772 263.875 103.171 262.38 104.034L255.018 108.284C253.524 109.147 251.101 109.147 249.607 108.284L245.168 105.721C243.673 104.858 243.673 103.459 245.168 102.596L252.529 98.3463C254.024 97.4833 256.447 97.4833 257.942 98.3463Z" stroke="#0E3572" stroke-miterlimit="10" stroke-linecap="round" stroke-linejoin="round"/>
</g>
<mask id="path-71-inside-4_1870_335" fill="white">
<path d="M84.6533 435.627L95.709 435.652V441.957L70.4648 456.668L45 441.957V435.541L56.0811 435.565L70.3135 427.356L84.6533 435.627Z"/>
</mask>
<path d="M84.6533 435.627L95.709 435.652V441.957L70.4648 456.668L45 441.957V435.541L56.0811 435.565L70.3135 427.356L84.6533 435.627Z" fill="url(#paint1_linear_1870_335)"/>
<path d="M84.6533 435.627L84.5534 435.8L84.5996 435.827L84.6529 435.827L84.6533 435.627ZM95.709 435.652H95.909V435.452L95.7094 435.452L95.709 435.652ZM95.709 441.957L95.8097 442.13L95.909 442.072V441.957H95.709ZM70.4648 456.668L70.3648 456.841L70.4653 456.899L70.5655 456.841L70.4648 456.668ZM45 441.957H44.8V442.073L44.9 442.13L45 441.957ZM45 435.541L45.0004 435.341L44.8 435.341V435.541H45ZM56.0811 435.565L56.0806 435.765L56.1344 435.765L56.181 435.738L56.0811 435.565ZM70.3135 427.356L70.4134 427.182L70.3135 427.125L70.2136 427.182L70.3135 427.356ZM84.6533 435.627L84.6529 435.827L95.7085 435.852L95.709 435.652L95.7094 435.452L84.6538 435.427L84.6533 435.627ZM95.709 435.652H95.509V441.957H95.709H95.909V435.652H95.709ZM95.709 441.957L95.6083 441.784L70.3641 456.495L70.4648 456.668L70.5655 456.841L95.8097 442.13L95.709 441.957ZM70.4648 456.668L70.5649 456.495L45.1 441.784L45 441.957L44.9 442.13L70.3648 456.841L70.4648 456.668ZM45 441.957H45.2V435.541H45H44.8V441.957H45ZM45 435.541L44.9996 435.741L56.0806 435.765L56.0811 435.565L56.0815 435.365L45.0004 435.341L45 435.541ZM56.0811 435.565L56.181 435.738L70.4134 427.529L70.3135 427.356L70.2136 427.182L55.9811 435.391L56.0811 435.565ZM70.3135 427.356L70.2135 427.529L84.5534 435.8L84.6533 435.627L84.7533 435.454L70.4134 427.182L70.3135 427.356Z" fill="#0E3572" mask="url(#path-71-inside-4_1870_335)"/>
<path d="M70.3145 420.94L95.7096 435.652L70.3144 450.143L45.001 435.541L70.3145 420.94Z" fill="#0E3572"/>
<path d="M95.2065 435.651L70.3161 449.854L45.5036 435.541L70.3145 421.23L95.2065 435.651Z" stroke="white" stroke-opacity="0.2" stroke-width="0.579511"/>
<g clip-path="url(#clip2_1870_335)">
<path d="M64.4695 432.253L61.3675 436.587L64.0447 438.132C67.5094 440.133 72.7262 440.724 77.2434 439.628C79.1418 437.02 78.1182 434.008 74.6535 432.007L71.9762 430.462L64.4695 432.253Z" stroke="white" stroke-miterlimit="10" stroke-linecap="round" stroke-linejoin="round"/>
<path d="M68.3155 436.91L71.3408 436.91L71.3408 433.782" stroke="white" stroke-miterlimit="10" stroke-linecap="round" stroke-linejoin="round"/>
</g>
<mask id="path-77-inside-5_1870_335" fill="white">
<path d="M601.653 153.627L612.709 153.652V159.957L587.465 174.668L562 159.957V153.541L573.081 153.565L587.313 145.356L601.653 153.627Z"/>
</mask>
<path d="M601.653 153.627L612.709 153.652V159.957L587.465 174.668L562 159.957V153.541L573.081 153.565L587.313 145.356L601.653 153.627Z" fill="url(#paint2_linear_1870_335)"/>
<path d="M601.653 153.627L601.553 153.8L601.6 153.827L601.653 153.827L601.653 153.627ZM612.709 153.652H612.909V153.452L612.709 153.452L612.709 153.652ZM612.709 159.957L612.81 160.13L612.909 160.072V159.957H612.709ZM587.465 174.668L587.365 174.841L587.465 174.899L587.566 174.841L587.465 174.668ZM562 159.957H561.8V160.073L561.9 160.13L562 159.957ZM562 153.541L562 153.341L561.8 153.341V153.541H562ZM573.081 153.565L573.081 153.765L573.134 153.765L573.181 153.738L573.081 153.565ZM587.313 145.356L587.413 145.182L587.313 145.125L587.214 145.182L587.313 145.356ZM601.653 153.627L601.653 153.827L612.709 153.852L612.709 153.652L612.709 153.452L601.654 153.427L601.653 153.627ZM612.709 153.652H612.509V159.957H612.709H612.909V153.652H612.709ZM612.709 159.957L612.608 159.784L587.364 174.495L587.465 174.668L587.566 174.841L612.81 160.13L612.709 159.957ZM587.465 174.668L587.565 174.495L562.1 159.784L562 159.957L561.9 160.13L587.365 174.841L587.465 174.668ZM562 159.957H562.2V153.541H562H561.8V159.957H562ZM562 153.541L562 153.741L573.081 153.765L573.081 153.565L573.081 153.365L562 153.341L562 153.541ZM573.081 153.565L573.181 153.738L587.413 145.529L587.313 145.356L587.214 145.182L572.981 153.391L573.081 153.565ZM587.313 145.356L587.214 145.529L601.553 153.8L601.653 153.627L601.753 153.454L587.413 145.182L587.313 145.356Z" fill="#0E3572" mask="url(#path-77-inside-5_1870_335)"/>
<path d="M587.314 138.94L612.71 153.652L587.314 168.143L562.001 153.541L587.314 138.94Z" fill="#0E3572"/>
<path d="M612.207 153.651L587.316 167.854L562.504 153.541L587.314 139.23L612.207 153.651Z" stroke="white" stroke-opacity="0.2" stroke-width="0.579511"/>
<g clip-path="url(#clip3_1870_335)">
<path d="M596.002 155.768L592.755 157.643L589.507 155.768L592.755 153.893L596.002 155.768ZM587.829 150.424L583.499 152.924L579.169 150.424L583.499 147.924L587.829 150.424ZM600.901 152.94L597.653 154.815L594.406 152.94L597.653 151.065L600.901 152.94ZM591.104 158.596L587.856 160.471L584.609 158.596L587.856 156.721L591.104 158.596Z" stroke="white" stroke-miterlimit="10" stroke-linecap="round" stroke-linejoin="round"/>
<path d="M596.03 152.002L593.296 150.424L583.5 156.081L586.233 157.659" stroke="white" stroke-miterlimit="10" stroke-linecap="round" stroke-linejoin="round"/>
<path d="M585.665 151.674L591.131 154.831" stroke="white" stroke-miterlimit="10" stroke-linecap="round" stroke-linejoin="round"/>
</g>
<mask id="path-84-inside-6_1870_335" fill="white">
<path d="M529.653 455.627L540.709 455.652V461.957L515.465 476.668L490 461.957V455.541L501.081 455.565L515.313 447.356L529.653 455.627Z"/>
</mask>
<path d="M529.653 455.627L540.709 455.652V461.957L515.465 476.668L490 461.957V455.541L501.081 455.565L515.313 447.356L529.653 455.627Z" fill="white"/>
<path d="M529.653 455.627L529.553 455.8L529.6 455.827L529.653 455.827L529.653 455.627ZM540.709 455.652H540.909V455.452L540.709 455.452L540.709 455.652ZM540.709 461.957L540.81 462.13L540.909 462.072V461.957H540.709ZM515.465 476.668L515.365 476.841L515.465 476.899L515.566 476.841L515.465 476.668ZM490 461.957H489.8V462.073L489.9 462.13L490 461.957ZM490 455.541L490 455.341L489.8 455.341V455.541H490ZM501.081 455.565L501.081 455.765L501.134 455.765L501.181 455.738L501.081 455.565ZM515.313 447.356L515.413 447.182L515.313 447.125L515.214 447.182L515.313 447.356ZM529.653 455.627L529.653 455.827L540.709 455.852L540.709 455.652L540.709 455.452L529.654 455.427L529.653 455.627ZM540.709 455.652H540.509V461.957H540.709H540.909V455.652H540.709ZM540.709 461.957L540.608 461.784L515.364 476.495L515.465 476.668L515.566 476.841L540.81 462.13L540.709 461.957ZM515.465 476.668L515.565 476.495L490.1 461.784L490 461.957L489.9 462.13L515.365 476.841L515.465 476.668ZM490 461.957H490.2V455.541H490H489.8V461.957H490ZM490 455.541L490 455.741L501.081 455.765L501.081 455.565L501.081 455.365L490 455.341L490 455.541ZM501.081 455.565L501.181 455.738L515.413 447.529L515.313 447.356L515.214 447.182L500.981 455.391L501.081 455.565ZM515.313 447.356L515.214 447.529L529.553 455.8L529.653 455.627L529.753 455.454L515.413 447.182L515.313 447.356Z" fill="#0E3572" mask="url(#path-84-inside-6_1870_335)"/>
<path d="M515.314 440.94L540.71 455.652L515.314 470.143L490.001 455.541L515.314 440.94Z" fill="#0E3572"/>
<path d="M515.314 440.94L540.71 455.652L515.314 470.143L490.001 455.541L515.314 440.94Z" fill="white" fill-opacity="0.85"/>
<path d="M540.207 455.651L515.316 469.854L490.504 455.541L515.314 441.23L540.207 455.651Z" stroke="white" stroke-opacity="0.2" stroke-width="0.579511"/>
<g clip-path="url(#clip4_1870_335)">
<path d="M517.271 450.686C514.578 450.271 511.584 450.673 509.471 451.893L515.181 455.19L522.983 453.983C522.629 453.218 521.932 452.494 520.891 451.893C519.851 451.293 518.598 450.89 517.271 450.686Z" stroke="#0E3572" stroke-miterlimit="10" stroke-linecap="round" stroke-linejoin="round"/>
<path d="M514.532 456.69L508.821 453.393C506.708 454.613 506.011 456.342 506.73 457.897C507.084 458.663 507.781 459.386 508.821 459.987C509.862 460.588 511.115 460.99 512.441 461.194C515.135 461.61 518.129 461.207 520.242 459.987C522.356 458.767 523.052 457.039 522.333 455.483L514.532 456.69Z" stroke="#0E3572" stroke-miterlimit="10" stroke-linecap="round" stroke-linejoin="round"/>
</g>
<mask id="path-90-inside-7_1870_335" fill="white">
<path d="M163.735 94.6857L189.867 94.7434V109.659L130.195 144.463L70 109.659V94.4816L96.1924 94.5383L129.837 75.1174L163.735 94.6857Z"/>
</mask>
<path d="M163.735 94.6857L189.867 94.7434V109.659L130.195 144.463L70 109.659V94.4816L96.1924 94.5383L129.837 75.1174L163.735 94.6857Z" fill="#0E3572" fill-opacity="0.1"/>
<path d="M163.735 94.6857L163.635 94.859L163.682 94.8856L163.735 94.8857L163.735 94.6857ZM189.867 94.7434H190.067V94.5438L189.868 94.5434L189.867 94.7434ZM189.867 109.659L189.968 109.832L190.067 109.774V109.659H189.867ZM130.195 144.463L130.095 144.636L130.196 144.694L130.296 144.636L130.195 144.463ZM70 109.659H69.8V109.775L69.8999 109.833L70 109.659ZM70 94.4816L70.0004 94.2816L69.8 94.2812V94.4816H70ZM96.1924 94.5383L96.1919 94.7383L96.2458 94.7384L96.2924 94.7115L96.1924 94.5383ZM129.837 75.1174L129.937 74.9442L129.837 74.8865L129.737 74.9442L129.837 75.1174ZM163.735 94.6857L163.735 94.8857L189.867 94.9434L189.867 94.7434L189.868 94.5434L163.736 94.4857L163.735 94.6857ZM189.867 94.7434H189.667V109.659H189.867H190.067V94.7434H189.867ZM189.867 109.659L189.766 109.487L130.095 144.29L130.195 144.463L130.296 144.636L189.968 109.832L189.867 109.659ZM130.195 144.463L130.295 144.29L70.1001 109.486L70 109.659L69.8999 109.833L130.095 144.636L130.195 144.463ZM70 109.659H70.2V94.4816H70H69.8V109.659H70ZM70 94.4816L69.9996 94.6816L96.1919 94.7383L96.1924 94.5383L96.1928 94.3383L70.0004 94.2816L70 94.4816ZM96.1924 94.5383L96.2924 94.7115L129.937 75.2906L129.837 75.1174L129.737 74.9442L96.0924 94.3651L96.1924 94.5383ZM129.837 75.1174L129.737 75.2906L163.635 94.859L163.735 94.6857L163.835 94.5125L129.937 74.9442L129.837 75.1174Z" fill="#0E3572" mask="url(#path-90-inside-7_1870_335)"/>
<path d="M189.368 94.7421L129.842 128.736L70.5049 94.4823L129.84 60.23L189.368 94.7421Z" fill="white" stroke="#0E3572" stroke-width="0.579511"/>
<g clip-path="url(#clip5_1870_335)">
<path d="M130.116 81.2487C132.134 82.4137 128.862 86.1913 122.809 89.6862C116.755 93.1811 110.212 95.0699 108.195 93.9049C106.177 92.7399 109.448 88.9623 115.502 85.4674C121.555 81.9725 128.098 80.0837 130.116 81.2487Z" stroke="#ED1C24" stroke-miterlimit="10" stroke-linecap="square"/>
<path d="M137.484 85.5026C139.502 86.6676 136.23 90.4452 130.177 93.9401C124.124 97.435 117.581 99.3238 115.563 98.1588" stroke="#ED1C24" stroke-miterlimit="10" stroke-linecap="square"/>
<path d="M144.791 89.7213C146.809 90.8863 143.537 94.6639 137.484 98.1588C131.431 101.654 124.888 103.543 122.87 102.378" stroke="#ED1C24" stroke-miterlimit="10" stroke-linecap="square"/>
<path d="M108.195 93.905L130.238 106.632C132.255 107.797 138.798 105.908 144.852 102.413C150.905 98.9179 154.177 95.1403 152.159 93.9754L130.116 81.2488" stroke="#ED1C24" stroke-miterlimit="10"/>
</g>
<mask id="path-97-inside-8_1870_335" fill="white">
<path d="M249.735 441.686L275.867 441.743V456.659L216.195 491.463L156 456.659V441.482L182.192 441.538L215.837 422.117L249.735 441.686Z"/>
</mask>
<path d="M249.735 441.686L275.867 441.743V456.659L216.195 491.463L156 456.659V441.482L182.192 441.538L215.837 422.117L249.735 441.686Z" fill="#0E3572" fill-opacity="0.1"/>
<path d="M249.735 441.686L249.635 441.859L249.682 441.886L249.735 441.886L249.735 441.686ZM275.867 441.743H276.067V441.544L275.868 441.543L275.867 441.743ZM275.867 456.659L275.968 456.832L276.067 456.774V456.659H275.867ZM216.195 491.463L216.095 491.636L216.196 491.694L216.296 491.636L216.195 491.463ZM156 456.659H155.8V456.775L155.9 456.833L156 456.659ZM156 441.482L156 441.282L155.8 441.281V441.482H156ZM182.192 441.538L182.192 441.738L182.246 441.738L182.292 441.711L182.192 441.538ZM215.837 422.117L215.937 421.944L215.837 421.886L215.737 421.944L215.837 422.117ZM249.735 441.686L249.735 441.886L275.867 441.943L275.867 441.743L275.868 441.543L249.736 441.486L249.735 441.686ZM275.867 441.743H275.667V456.659H275.867H276.067V441.743H275.867ZM275.867 456.659L275.766 456.487L216.095 491.29L216.195 491.463L216.296 491.636L275.968 456.832L275.867 456.659ZM216.195 491.463L216.295 491.29L156.1 456.486L156 456.659L155.9 456.833L216.095 491.636L216.195 491.463ZM156 456.659H156.2V441.482H156H155.8V456.659H156ZM156 441.482L156 441.682L182.192 441.738L182.192 441.538L182.193 441.338L156 441.282L156 441.482ZM182.192 441.538L182.292 441.711L215.937 422.291L215.837 422.117L215.737 421.944L182.092 441.365L182.192 441.538ZM215.837 422.117L215.737 422.291L249.635 441.859L249.735 441.686L249.835 441.513L215.937 421.944L215.837 422.117Z" fill="#0E3572" mask="url(#path-97-inside-8_1870_335)"/>
<path d="M275.368 441.742L215.842 475.736L156.505 441.482L215.84 407.23L275.368 441.742Z" fill="white" stroke="#0E3572" stroke-width="0.579511"/>
<g clip-path="url(#clip6_1870_335)">
<path d="M239.575 438.504L210.225 455.449L187.999 442.617L217.349 425.672L239.575 438.504Z" stroke="#ED1C24" stroke-miterlimit="10"/>
<path d="M235.952 446.115L223.408 453.357L224.809 452.548C225.818 451.966 225.818 451.022 224.809 450.439L221.855 448.734L227.945 445.218L230.898 446.923C231.907 447.506 233.543 447.506 234.551 446.923L235.952 446.115Z" stroke="#ED1C24" stroke-miterlimit="10"/>
<path d="M221.094 454.693L238.266 444.779" stroke="#ED1C24" stroke-miterlimit="10"/>
<path d="M235.921 436.394L206.571 453.339" stroke="#ED1C24" stroke-miterlimit="10"/>
<path d="M217.593 436.254C220.704 438.05 220.704 440.961 217.593 442.757C214.482 444.553 209.439 444.553 206.328 442.757C203.217 440.961 203.217 438.05 206.328 436.254C209.439 434.458 214.482 434.458 217.593 436.254Z" stroke="#ED1C24" stroke-miterlimit="10"/>
<path d="M213.773 438.459C216.884 440.255 218.594 442.179 217.593 442.757C216.592 443.335 213.258 442.348 210.148 440.552C207.037 438.756 205.327 436.831 206.328 436.254C207.329 435.676 210.662 436.663 213.773 438.459Z" stroke="#ED1C24" stroke-miterlimit="10"/>
<path d="M206.328 442.757L217.593 436.254" stroke="#ED1C24" stroke-miterlimit="10"/>
</g>
<g clip-path="url(#clip7_1870_335)">
<path d="M342.5 298.515L326.41 291.387L338.756 282.097M310.319 204.772L326.41 211.9L314.063 221.19" stroke="#0E3572" stroke-miterlimit="10" stroke-linecap="round" stroke-linejoin="round"/>
<path d="M326.41 211.9C308.793 211.9 291.176 215.781 277.734 223.541C250.852 239.062 250.852 264.226 277.734 279.746C285.249 284.085 294.069 287.208 303.464 289.121M326.41 291.387C344.026 291.387 361.644 287.507 375.085 279.746C401.967 264.226 401.967 239.062 375.085 223.541C367.57 219.203 358.75 216.079 349.355 214.166" stroke="#0E3572" stroke-miterlimit="10" stroke-linecap="round" stroke-linejoin="round"/>
<path d="M346.416 230.837L327.103 227.849L326.464 229.227C324.14 234.235 313.299 235.912 306.95 232.246L305.203 231.237L291.065 239.4L292.812 240.409C299.161 244.074 296.256 250.333 287.584 251.675L285.196 252.044L290.371 263.194L292.758 262.825C301.431 261.483 309.367 266.065 307.043 271.072L306.403 272.45L325.716 275.438L326.356 274.06C328.68 269.053 339.52 267.376 345.869 271.041L347.617 272.05L361.755 263.888L360.007 262.879C353.659 259.213 356.563 252.954 365.236 251.613L367.623 251.243L362.448 240.093L360.061 240.462C351.389 241.804 343.453 237.222 345.776 232.215L346.416 230.837Z" stroke="#0E3572" stroke-miterlimit="10" stroke-linecap="round" stroke-linejoin="round"/>
<path d="M346.416 236.837L327.103 233.849L326.464 235.227C324.14 240.235 313.299 241.912 306.95 238.246L305.203 237.237L291.065 245.4L292.812 246.409C299.161 250.074 296.256 256.333 287.584 257.675L285.196 258.044L290.371 269.194L292.758 268.825C301.431 267.483 309.367 272.065 307.043 277.072L306.403 278.45L325.716 281.438L326.356 280.06C328.68 275.053 339.52 273.376 345.869 277.041L347.617 278.05L361.755 269.888L360.007 268.879C353.659 265.213 356.563 258.954 365.236 257.613L367.623 257.243L362.448 246.093L360.061 246.462C351.389 247.804 343.453 243.222 345.776 238.215L346.416 236.837Z" fill="#0E3572" fill-opacity="0.2"/>
<path d="M336.508 257.474C342.086 254.254 342.086 249.033 336.508 245.813C330.931 242.593 321.888 242.593 316.311 245.813C310.734 249.033 310.734 254.254 316.311 257.474C321.888 260.694 330.931 260.694 336.508 257.474Z" fill="white" stroke="#0E3572" stroke-miterlimit="10" stroke-linecap="round" stroke-linejoin="round"/>
</g>
<mask id="path-112-inside-9_1870_335" fill="white">
<path d="M611.468 381.855L638.201 380.687L638.883 395.577L579.441 433.116L516.276 401.199L515.582 386.048L542.376 384.876L575.9 363.912L611.468 381.855Z"/>
</mask>
<path d="M611.468 381.855L638.201 380.687L638.883 395.577L579.441 433.116L516.276 401.199L515.582 386.048L542.376 384.876L575.9 363.912L611.468 381.855Z" fill="#0E3572" fill-opacity="0.1"/>
<path d="M611.468 381.855L611.378 382.034L611.425 382.057L611.477 382.055L611.468 381.855ZM638.201 380.687L638.4 380.678L638.391 380.479L638.192 380.487L638.201 380.687ZM638.883 395.577L638.99 395.746L639.088 395.684L639.083 395.568L638.883 395.577ZM579.441 433.116L579.351 433.295L579.452 433.346L579.548 433.286L579.441 433.116ZM516.276 401.199L516.076 401.208L516.081 401.325L516.186 401.377L516.276 401.199ZM515.582 386.048L515.573 385.848L515.373 385.857L515.382 386.057L515.582 386.048ZM542.376 384.876L542.385 385.076L542.437 385.073L542.482 385.045L542.376 384.876ZM575.9 363.912L575.99 363.733L575.89 363.683L575.794 363.742L575.9 363.912ZM611.468 381.855L611.477 382.055L638.209 380.887L638.201 380.687L638.192 380.487L611.46 381.656L611.468 381.855ZM638.201 380.687L638.001 380.696L638.684 395.586L638.883 395.577L639.083 395.568L638.4 380.678L638.201 380.687ZM638.883 395.577L638.777 395.408L579.334 432.947L579.441 433.116L579.548 433.286L638.99 395.746L638.883 395.577ZM579.441 433.116L579.531 432.938L516.366 401.02L516.276 401.199L516.186 401.377L579.351 433.295L579.441 433.116ZM516.276 401.199L516.476 401.19L515.782 386.039L515.582 386.048L515.382 386.057L516.076 401.208L516.276 401.199ZM515.582 386.048L515.591 386.248L542.385 385.076L542.376 384.876L542.367 384.676L515.573 385.848L515.582 386.048ZM542.376 384.876L542.482 385.045L576.006 364.082L575.9 363.912L575.794 363.742L542.27 384.706L542.376 384.876ZM575.9 363.912L575.81 364.091L611.378 382.034L611.468 381.855L611.558 381.677L575.99 363.733L575.9 363.912Z" fill="#0E3572" mask="url(#path-112-inside-9_1870_335)"/>
<path d="M637.7 380.709L578.36 417.439L516.09 386.026L575.223 349.046L637.7 380.709Z" fill="white" stroke="#0E3572" stroke-width="0.579511"/>
<g clip-path="url(#clip8_1870_335)">
<path d="M581.066 367.311C580.289 366.863 579.029 366.863 578.252 367.311L551.107 382.983C550.33 383.432 550.33 384.159 551.107 384.608L554.211 386.4L584.17 369.103L581.066 367.311Z" stroke="#ED1C24" stroke-miterlimit="10" stroke-linecap="round" stroke-linejoin="round"/>
<path d="M554.211 386.4L575.289 398.569C576.065 399.018 577.325 399.018 578.102 398.569L605.247 382.897C606.024 382.448 606.024 381.721 605.247 381.272L584.17 369.103L554.211 386.4Z" stroke="#ED1C24" stroke-miterlimit="10" stroke-linecap="round" stroke-linejoin="round"/>
<path d="M588.288 375.507C589.414 376.157 589.978 377.01 589.978 377.863C589.978 378.715 589.414 379.568 588.288 380.218C586.034 381.52 582.381 381.52 580.127 380.218C579.001 379.568 578.437 378.715 578.437 377.863C578.437 377.01 579.001 376.158 580.128 375.507C581.254 374.857 582.731 374.532 584.208 374.531C585.685 374.531 587.161 374.856 588.288 375.507Z" stroke="#ED1C24" stroke-miterlimit="10" stroke-linecap="round" stroke-linejoin="round"/>
<path d="M588.288 375.507C589.415 376.157 589.978 377.01 589.978 377.863L584.208 377.863L580.128 375.507C581.254 374.857 582.731 374.532 584.208 374.531C585.685 374.531 587.162 374.856 588.288 375.507Z" stroke="#ED1C24" stroke-miterlimit="10" stroke-linecap="round" stroke-linejoin="round"/>
<path d="M587.682 384.58L595.843 379.869" stroke="#ED1C24" stroke-miterlimit="10" stroke-linecap="round" stroke-linejoin="round"/>
<path d="M576.599 390.979L573.581 392.721L567.865 389.421L570.883 387.678L576.599 390.979ZM582.39 387.635L579.372 389.378L569.766 383.831L572.784 382.089L582.39 387.635Z" stroke="#ED1C24" stroke-miterlimit="10" stroke-linecap="round" stroke-linejoin="round"/>
<path d="M572.476 393.359L583.802 386.82" stroke="#ED1C24" stroke-miterlimit="10" stroke-linecap="round" stroke-linejoin="round"/>
<path d="M578.728 393.708L599.27 381.847" stroke="#ED1C24" stroke-miterlimit="10" stroke-linecap="round" stroke-linejoin="round"/>
</g>
</g>
<defs>
<filter id="filter0_d_1870_335" x="261.83" y="126.354" width="225.428" height="75.6922" filterUnits="userSpaceOnUse" color-interpolation-filters="sRGB">
<feFlood flood-opacity="0" result="BackgroundImageFix"/>
<feColorMatrix in="SourceAlpha" type="matrix" values="0 0 0 0 0 0 0 0 0 0 0 0 0 0 0 0 0 0 127 0" result="hardAlpha"/>
<feOffset dy="7"/>
<feComposite in2="hardAlpha" operator="out"/>
<feColorMatrix type="matrix" values="0 0 0 0 0.243137 0 0 0 0 0.686275 0 0 0 0 0.819608 0 0 0 0.3 0"/>
<feBlend mode="normal" in2="BackgroundImageFix" result="effect1_dropShadow_1870_335"/>
<feBlend mode="normal" in="SourceGraphic" in2="effect1_dropShadow_1870_335" result="shape"/>
</filter>
<filter id="filter1_d_1870_335" x="63.9067" y="276.852" width="221.225" height="144.708" filterUnits="userSpaceOnUse" color-interpolation-filters="sRGB">
<feFlood flood-opacity="0" result="BackgroundImageFix"/>
<feColorMatrix in="SourceAlpha" type="matrix" values="0 0 0 0 0 0 0 0 0 0 0 0 0 0 0 0 0 0 127 0" result="hardAlpha"/>
<feOffset dy="7"/>
<feComposite in2="hardAlpha" operator="out"/>
<feColorMatrix type="matrix" values="0 0 0 0 0 0 0 0 0 0 0 0 0 0 0 0 0 0 0.1 0"/>
<feBlend mode="normal" in2="BackgroundImageFix" result="effect1_dropShadow_1870_335"/>
<feBlend mode="normal" in="SourceGraphic" in2="effect1_dropShadow_1870_335" result="shape"/>
</filter>
<filter id="filter2_d_1870_335" x="80.7207" y="140.646" width="174.356" height="122.275" filterUnits="userSpaceOnUse" color-interpolation-filters="sRGB">
<feFlood flood-opacity="0" result="BackgroundImageFix"/>
<feColorMatrix in="SourceAlpha" type="matrix" values="0 0 0 0 0 0 0 0 0 0 0 0 0 0 0 0 0 0 127 0" result="hardAlpha"/>
<feOffset dy="7"/>
<feComposite in2="hardAlpha" operator="out"/>
<feColorMatrix type="matrix" values="0 0 0 0 0 0 0 0 0 0 0 0 0 0 0 0 0 0 0.1 0"/>
<feBlend mode="normal" in2="BackgroundImageFix" result="effect1_dropShadow_1870_335"/>
<feBlend mode="normal" in="SourceGraphic" in2="effect1_dropShadow_1870_335" result="shape"/>
</filter>
<filter id="filter3_d_1870_335" x="462.701" y="174.368" width="143.079" height="179.557" filterUnits="userSpaceOnUse" color-interpolation-filters="sRGB">
<feFlood flood-opacity="0" result="BackgroundImageFix"/>
<feColorMatrix in="SourceAlpha" type="matrix" values="0 0 0 0 0 0 0 0 0 0 0 0 0 0 0 0 0 0 127 0" result="hardAlpha"/>
<feOffset dy="7"/>
<feComposite in2="hardAlpha" operator="out"/>
<feColorMatrix type="matrix" values="0 0 0 0 0 0 0 0 0 0 0 0 0 0 0 0 0 0 0.1 0"/>
<feBlend mode="normal" in2="BackgroundImageFix" result="effect1_dropShadow_1870_335"/>
<feBlend mode="normal" in="SourceGraphic" in2="effect1_dropShadow_1870_335" result="shape"/>
</filter>
<filter id="filter4_d_1870_335" x="296.175" y="346.698" width="211.559" height="95.6725" filterUnits="userSpaceOnUse" color-interpolation-filters="sRGB">
<feFlood flood-opacity="0" result="BackgroundImageFix"/>
<feColorMatrix in="SourceAlpha" type="matrix" values="0 0 0 0 0 0 0 0 0 0 0 0 0 0 0 0 0 0 127 0" result="hardAlpha"/>
<feOffset dy="7"/>
<feComposite in2="hardAlpha" operator="out"/>
<feColorMatrix type="matrix" values="0 0 0 0 0 0 0 0 0 0 0 0 0 0 0 0 0 0 0.1 0"/>
<feBlend mode="normal" in2="BackgroundImageFix" result="effect1_dropShadow_1870_335"/>
<feBlend mode="normal" in="SourceGraphic" in2="effect1_dropShadow_1870_335" result="shape"/>
</filter>
<radialGradient id="paint0_radial_1870_335" cx="0" cy="0" r="1" gradientUnits="userSpaceOnUse" gradientTransform="translate(512.606 570.816) rotate(90) scale(526.351 526.351)">
<stop stop-color="#D9D9D9"/>
<stop offset="0.890272" stop-color="#D9D9D9" stop-opacity="0"/>
</radialGradient>
<linearGradient id="paint1_linear_1870_335" x1="70.3545" y1="442.064" x2="70.3545" y2="456.668" gradientUnits="userSpaceOnUse">
<stop stop-color="white"/>
<stop offset="1" stop-color="#3EAFD1"/>
</linearGradient>
<linearGradient id="paint2_linear_1870_335" x1="587.354" y1="160.064" x2="587.354" y2="174.668" gradientUnits="userSpaceOnUse">
<stop stop-color="white"/>
<stop offset="1" stop-color="#3EAFD1"/>
</linearGradient>
<clipPath id="clip0_1870_335">
<rect width="648" height="535" fill="white"/>
</clipPath>
<clipPath id="clip1_1870_335">
<rect width="16" height="16" fill="white" transform="matrix(0.866025 -0.5 0.866025 0.5 241 103.94)"/>
</clipPath>
<clipPath id="clip2_1870_335">
<rect width="16" height="16" fill="white" transform="matrix(0.866025 -0.5 0.866025 0.5 57 435.94)"/>
</clipPath>
<clipPath id="clip3_1870_335">
<rect width="16" height="16" fill="white" transform="matrix(0.866025 -0.5 0.866025 0.5 574 152.94)"/>
</clipPath>
<clipPath id="clip4_1870_335">
<rect width="16" height="16" fill="white" transform="matrix(0.866025 -0.5 0.866025 0.5 501 455.94)"/>
</clipPath>
<clipPath id="clip5_1870_335">
<rect width="36" height="36" fill="white" transform="matrix(0.866025 -0.5 0.866025 0.5 99 93.94)"/>
</clipPath>
<clipPath id="clip6_1870_335">
<rect width="36" height="36" fill="white" transform="matrix(0.866025 -0.5 0.866025 0.5 185 441.94)"/>
</clipPath>
<clipPath id="clip7_1870_335">
<rect width="119.407" height="119.407" fill="white" transform="matrix(0.866025 -0.5 0.866025 0.5 223 251.644)"/>
</clipPath>
<clipPath id="clip8_1870_335">
<rect width="36" height="36" fill="white" transform="matrix(0.866025 -0.5 0.866025 0.5 547 382.94)"/>
</clipPath>
</defs>
</svg>
