<svg width="52" height="52" viewBox="0 0 52 52" fill="none" xmlns="http://www.w3.org/2000/svg">
<g clip-path="url(#clip0_1879_587)">
<path d="M45.0707 33.6675V18.2893M28.8577 46.3709L42.2131 38.6602M9.78725 38.6602L23.1426 46.3709M6.92969 18.3326V33.7108M23.1426 5.62915L9.78725 13.3399M42.2131 13.3399L28.8577 5.62915" stroke="white" stroke-miterlimit="10"/>
<path d="M26 7.61719C27.6827 7.61719 29.0469 6.25306 29.0469 4.57031C29.0469 2.88757 27.6827 1.52344 26 1.52344C24.3173 1.52344 22.9531 2.88757 22.9531 4.57031C22.9531 6.25306 24.3173 7.61719 26 7.61719Z" stroke="white" stroke-miterlimit="10"/>
<path d="M27 9.61719C28.6827 9.61719 30.0469 8.25306 30.0469 6.57031C30.0469 4.88757 28.6827 3.52344 27 3.52344C25.3173 3.52344 23.9531 4.88757 23.9531 6.57031C23.9531 8.25306 25.3173 9.61719 27 9.61719Z" fill="white" fill-opacity="0.2"/>
<path d="M26 50.4766C27.6827 50.4766 29.0469 49.1124 29.0469 47.4297C29.0469 45.7469 27.6827 44.3828 26 44.3828C24.3173 44.3828 22.9531 45.7469 22.9531 47.4297C22.9531 49.1124 24.3173 50.4766 26 50.4766Z" stroke="white" stroke-miterlimit="10"/>
<path d="M27 52.4766C28.6827 52.4766 30.0469 51.1124 30.0469 49.4297C30.0469 47.7469 28.6827 46.3828 27 46.3828C25.3173 46.3828 23.9531 47.7469 23.9531 49.4297C23.9531 51.1124 25.3173 52.4766 27 52.4766Z" fill="white" fill-opacity="0.2"/>
<path d="M7.44141 18.332C9.12415 18.332 10.4883 16.9679 10.4883 15.2852C10.4883 13.6024 9.12415 12.2383 7.44141 12.2383C5.75866 12.2383 4.39453 13.6024 4.39453 15.2852C4.39453 16.9679 5.75866 18.332 7.44141 18.332Z" stroke="white" stroke-miterlimit="10"/>
<path d="M8.44141 20.332C10.1241 20.332 11.4883 18.9679 11.4883 17.2852C11.4883 15.6024 10.1241 14.2383 8.44141 14.2383C6.75866 14.2383 5.39453 15.6024 5.39453 17.2852C5.39453 18.9679 6.75866 20.332 8.44141 20.332Z" fill="white" fill-opacity="0.2"/>
<path d="M44.5586 39.7617C46.2413 39.7617 47.6055 38.3976 47.6055 36.7148C47.6055 35.0321 46.2413 33.668 44.5586 33.668C42.8759 33.668 41.5117 35.0321 41.5117 36.7148C41.5117 38.3976 42.8759 39.7617 44.5586 39.7617Z" stroke="white" stroke-miterlimit="10"/>
<path d="M45.5586 41.7617C47.2413 41.7617 48.6055 40.3976 48.6055 38.7148C48.6055 37.0321 47.2413 35.668 45.5586 35.668C43.8759 35.668 42.5117 37.0321 42.5117 38.7148C42.5117 40.3976 43.8759 41.7617 45.5586 41.7617Z" fill="white" fill-opacity="0.2"/>
<path d="M7.44141 39.7617C9.12415 39.7617 10.4883 38.3976 10.4883 36.7148C10.4883 35.0321 9.12415 33.668 7.44141 33.668C5.75866 33.668 4.39453 35.0321 4.39453 36.7148C4.39453 38.3976 5.75866 39.7617 7.44141 39.7617Z" stroke="white" stroke-miterlimit="10"/>
<path d="M8.44141 41.7617C10.1241 41.7617 11.4883 40.3976 11.4883 38.7148C11.4883 37.0321 10.1241 35.668 8.44141 35.668C6.75866 35.668 5.39453 37.0321 5.39453 38.7148C5.39453 40.3976 6.75866 41.7617 8.44141 41.7617Z" fill="white" fill-opacity="0.2"/>
<path d="M44.5586 18.332C46.2413 18.332 47.6055 16.9679 47.6055 15.2852C47.6055 13.6024 46.2413 12.2383 44.5586 12.2383C42.8759 12.2383 41.5117 13.6024 41.5117 15.2852C41.5117 16.9679 42.8759 18.332 44.5586 18.332Z" stroke="white" stroke-miterlimit="10"/>
<path d="M45.5586 20.332C47.2413 20.332 48.6055 18.9679 48.6055 17.2852C48.6055 15.6024 47.2413 14.2383 45.5586 14.2383C43.8759 14.2383 42.5117 15.6024 42.5117 17.2852C42.5117 18.9679 43.8759 20.332 45.5586 20.332Z" fill="white" fill-opacity="0.2"/>
<path d="M24.4776 31.6651V20.335H17.2778V31.6651" stroke="white" stroke-miterlimit="10" stroke-linecap="square"/>
<path d="M24.4776 27.4863H17.2778" stroke="white" stroke-miterlimit="10"/>
<path d="M32.6578 20.335V31.6651M30.5933 20.335H34.7223M30.5933 31.6651H34.7223" stroke="white" stroke-miterlimit="10" stroke-linecap="square"/>
</g>
<defs>
<clipPath id="clip0_1879_587">
<rect width="52" height="52" fill="white"/>
</clipPath>
</defs>
</svg>
