<svg width="52" height="52" viewBox="0 0 52 52" fill="none" xmlns="http://www.w3.org/2000/svg">
<g clip-path="url(#clip0_1879_625)">
<path d="M26 1.11719L31.3021 6.21227L38.4414 4.45088L40.4857 11.5143L47.5491 13.5586L45.7877 20.6979L50.8828 26L45.7877 31.3021L47.5491 38.4414L40.4857 40.4857L38.4414 47.5491L31.3021 45.7877L26 50.8828L20.6979 45.7877L13.5586 47.5491L11.5143 40.4857L4.45088 38.4414L6.21227 31.3021L1.11719 26L6.21227 20.6979L4.45088 13.5586L11.5143 11.5143L13.5586 4.45088L20.6979 6.21227L26 1.11719Z" stroke="white" stroke-miterlimit="10" stroke-linecap="round" stroke-linejoin="round"/>
<path d="M29.5 8.06006L34.0813 12.4625L40.25 10.9405L42.0163 17.0437L48.1195 18.8101L46.5976 24.9788L51 29.5601L46.5976 34.1413L48.1195 40.3101L42.0163 42.0764L40.25 48.1796L34.0813 46.6576L29.5 51.0601L24.9187 46.6576L18.75 48.1796L16.9837 42.0764L10.8805 40.3101L12.4024 34.1413L8 29.5601L12.4024 24.9788L10.8805 18.8101L16.9837 17.0437L18.75 10.9405L24.9187 12.4625L29.5 8.06006Z" fill="white" fill-opacity="0.1"/>
<path d="M44.9716 1.11719L43.1568 5.67826M50.8828 7.26852L46.2531 8.90043M7.02843 50.8828L8.84325 46.3217M1.11719 44.7315L5.74691 43.0996M50.8828 44.9716L46.3217 43.1568M44.7315 50.8828L43.0996 46.2531M1.11719 7.02843L5.67826 8.84325M7.26852 1.11719L8.90043 5.74691" stroke="white" stroke-miterlimit="10" stroke-linecap="round" stroke-linejoin="round"/>
<path d="M32.9492 18H38.9492V23" stroke="white" stroke-miterlimit="10"/>
<path d="M38.9492 18L29.2711 27.4641L24.4587 22.7582L12.9492 34" stroke="white" stroke-miterlimit="10"/>
</g>
<defs>
<clipPath id="clip0_1879_625">
<rect width="52" height="52" fill="white"/>
</clipPath>
</defs>
</svg>
