<svg width="52" height="52" viewBox="0 0 52 52" fill="none" xmlns="http://www.w3.org/2000/svg">
<path d="M51.371 11.3822L38.6861 16.2554L26.0002 21.1274L13.3153 16.2554L0.629395 11.3822L26.0002 1.63599L51.371 11.3822Z" stroke="white" stroke-miterlimit="1.5"/>
<path d="M51.371 21.1274L38.6861 26.0005L26.0002 30.8727L13.3153 26.0005L0.629395 21.1274L13.3153 16.2554L26.0002 21.1274L38.6861 16.2554L51.371 21.1274Z" fill="white" fill-opacity="0.4"/>
<path d="M51.371 30.8727L38.6861 35.7458L26.0002 40.6189L13.3153 35.7458L0.629395 30.8727L13.3153 26.0005L26.0002 30.8727L38.6861 26.0005L51.371 30.8727Z" fill="white" fill-opacity="0.2"/>
<path d="M51.371 40.6189L26.0002 50.3642L0.629395 40.6189L13.3153 35.7458L26.0002 40.6189L38.6861 35.7458L51.371 40.6189Z" fill="white" fill-opacity="0.1"/>
</svg>
