<svg width="56" height="56" viewBox="0 0 56 56" fill="none" xmlns="http://www.w3.org/2000/svg">
<path d="M9.36729 19.1051C9.58337 19.092 9.86661 19.106 10.0819 19.1251C10.1493 19.131 10.1152 19.1575 10.1617 19.1628C10.2528 19.1731 10.3377 19.1601 10.4277 19.1724C10.4575 19.1766 10.4204 19.2186 10.4517 19.222C10.6231 19.2406 10.7852 19.2299 10.9589 19.2388C11.8141 19.2828 12.6548 19.2986 13.5205 19.3177C13.806 19.324 14.153 19.3621 14.4478 19.3454C14.4822 19.3434 14.4617 19.3066 14.4682 19.3035C14.571 19.2571 14.5368 19.3314 14.6039 19.3413C14.87 19.3804 15.166 19.3837 15.4222 19.3695C15.5311 19.3634 15.4219 19.2902 15.5316 19.3313C15.5392 19.334 15.5116 19.3732 15.5415 19.3773C15.6092 19.3867 15.7378 19.3797 15.7903 19.3828C15.8916 19.389 15.9083 19.3886 16.0041 19.3891C16.135 19.39 16.2906 19.4095 16.4311 19.4006C16.4611 19.3986 16.4214 19.3585 16.4692 19.3516C16.517 19.3448 16.6436 19.3482 16.6863 19.3577C16.729 19.3671 16.7108 19.3987 16.7184 19.4059C16.7805 19.4669 16.9269 19.3824 16.9458 19.3803C17.2893 19.3447 17.5839 19.3929 17.9063 19.3927C18.1511 19.3925 18.4128 19.3766 18.6457 19.3788C18.9232 19.3816 19.1584 19.4033 19.428 19.3996C19.4564 19.3992 19.4231 19.352 19.4579 19.3515C19.827 19.346 20.1936 19.3512 20.5612 19.383C20.5981 19.3862 20.5506 19.4277 20.5874 19.4334C20.8129 19.4674 21.1697 19.5492 21.3036 19.3689C21.4563 19.3759 21.6418 19.3832 21.7784 19.4195C21.8665 19.4429 21.781 19.488 21.8892 19.4688C21.9136 19.4645 21.8819 19.425 21.9185 19.4215C22.0726 19.4071 22.241 19.4199 22.3934 19.3995C22.4244 19.3952 22.416 19.3598 22.4248 19.3535C22.4986 19.3018 22.6215 19.3872 22.6483 19.3934C22.8524 19.4396 23.0015 19.4214 23.1916 19.4226C23.2357 19.4228 23.1835 19.3753 23.226 19.3739C23.4462 19.367 23.6742 19.3711 23.8898 19.3922C23.9378 19.397 23.8937 19.4375 23.9166 19.4419C24.0176 19.4607 24.04 19.3842 24.1369 19.4007C24.1574 19.4041 24.1459 19.4388 24.1496 19.4426C24.2079 19.5024 24.2586 19.4177 24.2736 19.4158C24.4634 19.3902 24.5847 19.4787 24.768 19.4661C24.7899 19.4646 24.7405 19.4207 24.8021 19.4189C25.2128 19.4068 25.6472 19.4188 26.0537 19.4539C26.117 19.4593 26.0718 19.4923 26.0758 19.4964C26.1406 19.5598 26.1826 19.4748 26.2032 19.4716C26.3658 19.4485 26.5177 19.5198 26.6281 19.4185C27.3168 19.4537 28.0022 19.3968 28.6851 19.4876C28.6938 19.4886 28.6783 19.5305 28.6956 19.5324C28.9042 19.5559 28.8641 19.4908 29.0021 19.4112C29.0369 19.3912 29.1426 19.4874 29.152 19.4944C29.1861 19.5204 29.1507 19.5827 29.1622 19.5877C29.2566 19.6272 29.2412 19.4211 29.3687 19.421C29.3727 19.4214 29.3559 19.4593 29.3666 19.4631C29.3998 19.4749 29.4328 19.4599 29.4653 19.4729C29.5397 19.5031 29.5663 19.6033 29.6799 19.545C29.6943 19.5374 29.6723 19.4205 29.7861 19.426C29.8315 19.4283 30.0323 19.4263 30.0886 19.4339C30.1448 19.4415 30.1062 19.4792 30.1102 19.4808C30.2616 19.5306 30.2042 19.5513 30.2801 19.625C30.3559 19.6985 30.3349 19.5232 30.3658 19.5037C30.3968 19.4842 30.5078 19.5253 30.5351 19.5396C30.5624 19.5539 30.5284 19.5778 30.5526 19.5859C30.7134 19.6387 30.6232 19.4989 30.6762 19.4711C30.8011 19.4052 30.8984 19.5352 31.0128 19.5479C31.0437 19.5514 31.0185 19.5218 31.046 19.519C31.1551 19.5084 31.2207 19.549 31.3449 19.5118C31.3652 19.5057 31.4656 19.4276 31.5305 19.4849C31.5397 19.4932 31.5136 19.5256 31.5601 19.5329C31.6296 19.5437 31.7547 19.5508 31.8294 19.54C31.8846 19.532 31.8214 19.4786 31.8908 19.4952C31.9216 19.5026 31.8644 19.5338 31.9224 19.5451C31.98 19.5564 32.1274 19.5551 32.1835 19.554C32.2395 19.5529 32.2088 19.5124 32.2133 19.5097C32.2407 19.494 32.3482 19.4745 32.3576 19.4746C32.8365 19.4696 33.2781 19.5379 33.7443 19.5153C33.7809 19.5136 33.7565 19.4709 33.7621 19.4702C33.8874 19.4523 33.7886 19.5658 33.8761 19.6038C33.8635 19.5171 33.9151 19.5328 34.0033 19.5233C34.0459 19.5187 34.0227 19.4851 34.0266 19.4817C34.0896 19.4308 34.1335 19.4966 34.1448 19.51C34.1866 19.5595 34.232 19.501 34.2605 19.5341C34.2889 19.567 34.2235 19.6157 34.3081 19.6151C34.3319 19.5841 34.269 19.503 34.3333 19.4899C34.5757 19.4402 35.0282 19.5038 35.2231 19.5104C35.4176 19.517 35.4804 19.5113 35.5937 19.5225C35.7985 19.5427 35.7234 19.4826 35.8506 19.4551C35.9781 19.4276 35.9161 19.5755 35.9344 19.6073C35.9524 19.6391 35.972 19.6064 35.9944 19.6239C36.0167 19.6413 35.9684 19.663 36.0209 19.6695C36.0734 19.6761 36.2169 19.6195 36.2355 19.5863C36.2748 19.5158 36.2102 19.4419 36.3491 19.4679C36.3571 19.4694 36.3311 19.5083 36.3617 19.5122C36.6047 19.5422 36.857 19.544 37.0997 19.5705C37.1331 19.5742 37.1032 19.6175 37.1226 19.6201C37.3249 19.6478 37.2526 19.5748 37.3634 19.4938C37.3385 19.6017 37.3998 19.6677 37.5533 19.6683C37.6456 19.6687 37.6297 19.6216 37.6894 19.5884C37.7073 19.5784 37.7726 19.6107 37.7844 19.5886C37.8234 19.5162 37.7619 19.4351 37.9202 19.4674C37.9271 19.4689 37.905 19.5085 37.929 19.5109C38.0841 19.5267 38.1026 19.4509 38.2703 19.4417C38.4017 19.4345 38.6354 19.4807 38.785 19.4882C38.7818 19.6095 38.9231 19.5817 38.9804 19.4981C39.0775 19.5015 39.1824 19.4968 39.2763 19.5084C39.3086 19.5123 39.2873 19.5474 39.2914 19.5512C39.3539 19.6107 39.3961 19.5294 39.417 19.5262C39.6442 19.4952 39.8292 19.5569 40.046 19.4966C40.0537 19.4944 40.0662 19.4102 40.1241 19.4717C40.1279 19.4759 40.0563 19.5143 40.1582 19.5172C40.2602 19.5202 40.4525 19.5654 40.5941 19.5263C40.6283 19.5169 40.715 19.4485 40.7846 19.502C40.7938 19.5092 40.7837 19.5334 40.7971 19.5468C40.8403 19.5897 40.8639 19.5045 40.9147 19.5769C40.9656 19.6492 41.0713 19.7034 41.2141 19.6535C41.2186 19.652 41.2524 19.5845 41.2973 19.5856C41.369 19.5874 41.4708 19.6014 41.5456 19.601C41.5815 19.6007 41.5585 19.5588 41.5648 19.5581C41.8057 19.5346 41.9772 19.5719 42.2354 19.5882C42.2827 19.5912 42.4187 19.5341 42.5103 19.5792C42.6109 19.6287 42.5075 19.8344 42.7387 19.7854C42.832 19.7658 42.9501 19.5048 43.1176 19.64C43.4427 19.6065 43.7433 19.6757 44.0692 19.6279C44.0839 19.6258 44.1302 19.5529 44.1647 19.5539C44.2158 19.5555 44.2439 19.5896 44.2804 19.5918C44.4335 19.6021 44.5736 19.5729 44.7211 19.5775C44.7772 19.5791 44.7576 19.6143 44.8244 19.6163C44.8912 19.6182 44.9357 19.5719 45.0262 19.5943C45.0945 19.6113 45.1629 19.7061 45.2536 19.7171C45.2571 19.6237 45.3194 19.6256 45.4301 19.6009C45.4514 19.5961 45.4286 19.5636 45.4387 19.5596C45.4796 19.5429 45.5176 19.5698 45.5565 19.5516C45.5659 19.5472 45.5664 19.5153 45.5741 19.5099C45.6399 19.4629 45.7483 19.5347 45.767 19.5472C45.8383 19.5947 45.8717 19.5532 45.9264 19.5719C45.9811 19.5905 45.8994 19.6139 45.9632 19.6253C46.0955 19.6487 46.2655 19.6436 46.3999 19.645C46.4535 19.6454 46.417 19.6028 46.4246 19.6019C46.5355 19.5911 46.6476 19.6364 46.7091 19.5515C46.786 19.771 46.776 19.5302 46.9345 19.5742C46.9469 19.5777 46.9628 19.6815 46.9149 19.6967C46.867 19.712 46.7943 19.6795 46.7278 19.7033C46.712 19.7088 46.6218 19.8061 46.6095 19.812C46.5131 19.858 46.4995 19.7029 46.4944 19.6944C46.4365 19.6025 46.3263 19.7073 46.2972 19.7145C46.1644 19.7477 46.0516 19.7259 45.9405 19.7495C45.8679 19.7648 45.8608 19.8664 45.8037 19.8633C45.6141 19.853 45.5479 19.7113 45.3692 19.8342C45.3309 19.8604 45.369 19.9714 45.2317 19.8841C45.2231 19.8786 45.1211 19.7987 45.0622 19.8493C45.0548 19.8556 45.0551 19.888 45.0453 19.8907C44.9799 19.9083 44.9363 19.8825 44.8651 19.8949C44.7939 19.9072 44.7083 19.9256 44.627 19.9146C44.578 19.9081 44.5151 19.8478 44.4917 19.833C44.4254 19.7905 44.3544 19.8602 44.3134 19.8087C44.272 19.757 44.3529 19.6784 44.2444 19.645C44.2404 19.729 44.2311 19.8153 44.2247 19.8999C43.9869 19.8969 43.7529 19.8697 43.5144 19.8734C43.4848 19.874 43.515 19.9192 43.4833 19.9209C43.3495 19.9281 43.2327 19.8959 43.094 19.9087C42.9866 19.9188 42.8688 19.9667 42.7565 19.9787C42.6879 19.8825 42.5213 19.9152 42.4003 19.9064C42.3579 19.9034 42.3607 19.8777 42.3305 19.8693C42.2168 19.8383 42.2701 19.9233 42.2389 19.9367C42.1051 19.9938 42.0936 19.8014 41.9359 19.8061C41.9275 19.8063 41.8254 19.9089 41.8113 19.9152C41.7219 19.9569 41.7965 19.8795 41.7405 19.872C41.6384 19.8581 41.5674 19.8336 41.4475 19.8637C41.4126 19.8726 41.3287 19.9365 41.2609 19.887C41.2519 19.8806 41.2569 19.8467 41.2497 19.8447C41.1196 19.8116 41.1162 19.9181 41.0418 19.9542C40.9675 19.9902 40.8527 19.9167 40.8293 19.8955C40.7681 19.8407 40.8761 19.8721 40.8794 19.8667C40.9183 19.8027 40.8346 19.8137 40.7706 19.8083C40.7613 19.7039 40.6718 19.7101 40.7043 19.8031C40.7079 19.8133 40.7577 19.8035 40.7706 19.8083C40.7144 19.9108 40.6161 19.9239 40.5074 19.8281C40.4566 19.7833 40.5047 19.7309 40.3502 19.7501C40.2801 19.7587 40.3072 19.8306 40.2453 19.8502C40.104 19.895 39.9203 19.8279 39.7746 19.8385C39.7217 19.8423 39.7733 19.8817 39.7371 19.8856C39.6412 19.8963 39.5566 19.8668 39.4603 19.8819C39.4515 19.8833 39.4729 19.9245 39.4429 19.9251C39.2158 19.9299 39.0181 19.9035 38.781 19.9027C38.6664 19.9024 38.4616 19.9251 38.3429 19.9205C38.1373 19.9129 37.8842 19.853 37.7085 19.8675C37.5939 19.8768 37.6191 19.918 37.57 19.9461C37.4752 20.0006 37.3075 19.9031 37.2849 19.888C37.2842 19.8875 37.3828 19.8777 37.3302 19.8566C37.2996 19.8125 37.286 19.8878 37.2849 19.888C37.2701 19.8782 37.0731 19.8688 37.0339 19.8767C37.0127 19.881 37.0246 19.9201 37.0135 19.9216C36.7501 19.9565 36.4862 19.9665 36.219 19.9482C36.2143 19.9474 36.2214 19.9037 36.2104 19.9024C36.0557 19.883 35.9566 19.9364 35.8291 19.9682C35.7015 19.9999 35.6004 19.9892 35.5249 19.9143C35.4287 19.9237 35.2906 19.8906 35.2111 19.8704C35.1317 19.8503 35.1206 19.9353 35.1136 19.937C34.8956 19.9908 34.7695 19.9422 34.5433 19.9346C34.4358 19.9308 34.2225 19.9432 34.106 19.9525C34.014 19.96 33.9585 19.94 33.8738 19.9528C33.8623 19.9545 33.8739 19.9923 33.8704 19.9938C33.7757 20.0391 33.8212 19.9465 33.8017 19.93C33.7308 19.8699 33.6871 19.8379 33.5659 19.8662C33.5379 19.8726 33.4565 20.0059 33.4056 20.0137C33.3393 20.0236 33.3643 19.9758 33.2949 19.9874C33.289 19.9883 33.2902 20.0178 33.2474 20.0165C33.0487 20.0109 32.832 19.9937 32.6255 19.9967C32.5973 19.9969 32.6335 20.0437 32.5927 20.0449C32.4014 20.0504 32.1918 20.0487 32.0055 20.0268C31.9596 20.0213 31.9884 19.9886 31.9784 19.9788C31.9173 19.92 31.8306 20.0055 31.8163 20.0071C31.4752 20.0481 31.2141 19.9708 30.8664 20.0076C30.8475 20.0098 30.7018 20.1014 30.6368 20.0228C30.6323 20.0176 30.568 19.9373 30.5112 19.9922C30.5076 19.9956 30.5477 20.037 30.4778 20.0328C30.4078 20.0286 30.2953 20.0562 30.1992 20.0108C30.1687 19.9964 30.0968 19.9163 30.006 19.9802C30.0001 19.9846 29.86 20.1291 29.81 20.0294C29.8019 20.013 29.8103 19.9075 29.702 19.9616C29.6813 19.9721 29.7189 19.9956 29.6643 20.0103C29.5808 20.033 29.4701 20.0047 29.3674 20.0517C29.3494 20.06 29.2732 20.1316 29.212 20.0773C29.2024 20.0688 29.2206 20.0336 29.1883 20.0296C29.0347 20.0107 28.8739 20.0343 28.7179 20.0099C28.6627 20.0013 28.6909 19.9444 28.6333 19.9292C28.5758 19.9139 28.4597 19.8992 28.3995 19.9252C28.3392 19.9513 28.405 20.042 28.3147 20.0493C27.9222 20.0808 27.5333 20.0276 27.1414 20.0198C27.0832 20.0186 27.1314 20.0511 27.0457 20.0517C26.7299 20.0541 26.1846 20.0846 25.9105 20.0156C25.6909 19.9603 25.9672 19.9183 25.7994 19.8958C25.7184 19.885 25.6308 19.9905 25.6113 19.9939C25.4203 20.0276 25.2876 19.9809 25.1157 19.9952C25.0802 19.9982 25.115 20.0409 25.0848 20.043C24.9816 20.0504 24.8732 20.0313 24.7746 20.0348C24.7304 20.0365 24.7385 20.0691 24.6978 20.0666C24.6004 20.061 24.5143 20.0472 24.4194 20.0166C24.4107 20.0138 24.4691 19.9732 24.397 19.9717C24.2804 19.9694 24.1356 19.9392 24.0015 19.9704C23.9617 19.9797 23.9601 20.0544 23.8745 20.0028C23.8566 19.9921 23.8795 19.9024 23.7798 19.9799C23.763 19.9927 23.5956 20.0972 23.5134 20.0299C23.4917 20.0121 23.4364 19.9388 23.3885 19.9503C23.382 19.9522 23.408 19.9923 23.3684 19.9962C23.2286 20.0093 23.082 20.005 22.9384 20.0175C22.9001 20.021 22.9572 20.0624 22.9 20.0662C22.7428 20.0767 22.5466 20.0662 22.3928 20.0532C22.3362 20.0483 22.3753 20.0139 22.3712 20.0102C22.3049 19.9494 22.2657 20.0315 22.2437 20.0363C22.1068 20.0649 22.0026 20.0264 21.8764 20.0366C21.8416 20.0393 21.8663 20.0784 21.8593 20.0819C21.7874 20.116 21.841 20.0457 21.7955 20.038C21.668 20.016 21.5259 20.0192 21.397 20.0242C21.3497 20.0261 21.4029 20.0715 21.3604 20.0726C21.1089 20.0805 20.8474 20.0761 20.602 20.0511C20.5557 20.0463 20.5848 20.0114 20.5752 20.0034C20.5088 19.9475 20.4115 20.0237 20.3891 20.031C20.2873 20.0641 20.2478 20.0332 20.1579 20.039C19.7187 20.0677 19.1765 20.0472 18.7619 20.0346C18.2218 20.0183 17.8026 19.985 17.2875 19.9937C17.2547 19.9942 17.2877 20.0407 17.2595 20.0417C16.8951 20.0529 16.5364 20.0347 16.1713 20.0482C16.1414 20.0492 16.1845 20.0933 16.1365 20.0964C16.0378 20.1031 15.9129 20.1007 15.8131 20.0866C15.7645 20.0798 15.8297 20.042 15.7808 20.036C15.6668 20.0218 15.5446 20.0186 15.4275 20.0257C15.3776 20.0288 15.4528 20.0739 15.388 20.0744C14.9468 20.0789 14.5134 20.0867 14.0676 20.0283C14.037 20.0243 14.0102 19.9326 13.9452 19.9502C13.9403 19.9756 13.9405 20.0056 13.9384 20.0327C13.2961 20.0474 12.6603 20.0156 12.0162 20.0107C11.989 20.0105 12.0359 20.059 11.9834 20.0589C11.6791 20.0582 11.3835 20.0716 11.0723 20.0234C11.0414 20.0187 11.0572 19.9333 10.9662 19.9462C10.9502 19.9485 10.8131 19.9599 10.7776 19.9785C10.7728 19.9813 10.7978 20.0211 10.7537 20.0223C10.497 20.0283 10.228 20.0192 9.9717 19.9949C9.93034 19.9909 9.97438 19.9484 9.94493 19.9452C9.73598 19.9227 9.5087 19.9549 9.30904 19.9164C9.17539 19.8904 9.22487 19.8171 9.15385 19.7448C9.14381 19.7346 9.06105 19.733 9.05677 19.691C9.04578 19.5853 9.08587 19.4696 9.06942 19.357C9.06594 19.3327 8.95511 19.3588 9.02073 19.3002C9.02531 19.2963 9.10567 19.2768 9.12546 19.2569C9.13924 19.2432 9.11441 19.2004 9.14252 19.1828C9.17064 19.1652 9.20153 19.2011 9.24814 19.1804C9.29473 19.1594 9.27424 19.1108 9.36729 19.1051ZM34.8534 19.7805C34.7798 19.7397 34.769 19.8893 34.8486 19.8535C34.8524 19.8516 34.8572 19.7825 34.8534 19.7805ZM43.7543 19.7569C43.6581 19.691 43.5923 19.7879 43.6601 19.8389C43.728 19.8898 43.7836 19.7769 43.7543 19.7569ZM44.7516 19.7088C44.6392 19.6568 44.6215 19.8688 44.7419 19.8259C44.7489 19.8235 44.7581 19.7118 44.7516 19.7088ZM9.4832 19.7243C9.48218 19.7223 9.42269 19.7203 9.42127 19.7223C9.38959 19.7698 9.50855 19.7736 9.4832 19.7243ZM45.7412 19.6563C45.7061 19.6276 45.6051 19.6608 45.6487 19.6964C45.6838 19.7251 45.7849 19.692 45.7412 19.6563ZM31.0158 19.6209C31.0147 19.6187 30.972 19.6167 30.9729 19.6293C30.9758 19.6699 31.0351 19.6584 31.0158 19.6209ZM47.4233 19.6539C47.1747 19.6459 47.0241 19.4707 47.2947 19.4905C47.3437 19.4941 47.1891 19.5464 47.2515 19.5622C47.3656 19.5909 47.4414 19.4809 47.5579 19.5399C47.5789 19.5507 47.4374 19.6547 47.4228 19.6541C47.423 19.654 47.4231 19.654 47.4233 19.6539ZM34.811 19.6009C34.8096 19.5989 34.7505 19.5971 34.7491 19.599C34.7171 19.6465 34.8361 19.6503 34.811 19.6009ZM28.5271 19.5285C28.5239 19.5242 28.3869 19.5203 28.3824 19.5242C28.3109 19.6018 28.5879 19.61 28.5271 19.5285ZM38.7873 19.4915C38.8517 19.4437 38.9288 19.4381 38.9802 19.4981C38.9161 19.4949 38.8517 19.4944 38.7873 19.4915Z" fill="#16181B"/>
<path d="M28.3386 14.305C28.4202 14.292 28.5272 14.3059 28.6085 14.325C28.6339 14.331 28.621 14.3575 28.6386 14.3628C28.673 14.3731 28.7051 14.3601 28.7391 14.3723C28.7503 14.3765 28.7363 14.4185 28.7481 14.422C28.8128 14.4405 28.8741 14.4298 28.9396 14.4387C29.2626 14.4828 29.58 14.4985 29.9069 14.5177C30.0147 14.5239 30.1457 14.562 30.257 14.5454C30.27 14.5434 30.2623 14.5065 30.2647 14.5035C30.3035 14.457 30.2906 14.5314 30.316 14.5413C30.4165 14.5803 30.5282 14.5837 30.6249 14.5695C30.6661 14.5633 30.6248 14.4901 30.6663 14.5312C30.6691 14.534 30.6587 14.5731 30.67 14.5773C30.6956 14.5867 30.7441 14.5797 30.764 14.5828C30.8022 14.589 30.8085 14.5886 30.8447 14.589C30.8941 14.59 30.9529 14.6094 31.0059 14.6005C31.0172 14.5985 31.0022 14.5584 31.0203 14.5516C31.0383 14.5448 31.0861 14.5482 31.1023 14.5576C31.1184 14.5671 31.1115 14.5986 31.1144 14.6059C31.1378 14.6669 31.1931 14.5824 31.2002 14.5803C31.3299 14.5447 31.4412 14.5928 31.5629 14.5927C31.6554 14.5925 31.7542 14.5766 31.8421 14.5788C31.9469 14.5815 32.0357 14.6032 32.1375 14.5995C32.1483 14.5992 32.1357 14.552 32.1488 14.5515C32.2882 14.546 32.4266 14.5511 32.5654 14.583C32.5793 14.5862 32.5614 14.6276 32.5753 14.6333C32.6604 14.6674 32.7952 14.7491 32.8457 14.5688C32.9034 14.5759 32.9734 14.5831 33.025 14.6195C33.0583 14.6429 33.026 14.688 33.0668 14.6687C33.0761 14.6644 33.0641 14.6249 33.0779 14.6215C33.1361 14.607 33.1997 14.6199 33.2572 14.5994C33.269 14.5952 33.2658 14.5598 33.2691 14.5534C33.297 14.5018 33.3434 14.5871 33.3535 14.5933C33.4306 14.6396 33.4868 14.6214 33.5586 14.6225C33.5753 14.6228 33.5556 14.5753 33.5716 14.5738C33.6547 14.567 33.7409 14.5711 33.8223 14.5922C33.8404 14.597 33.8237 14.6375 33.8324 14.6419C33.8705 14.6606 33.879 14.5841 33.9156 14.6007C33.9233 14.6041 33.919 14.6387 33.9204 14.6425C33.9424 14.7023 33.9615 14.6176 33.9672 14.6157C34.0388 14.5902 34.0846 14.6786 34.1539 14.6661C34.1621 14.6645 34.1435 14.6206 34.1667 14.6189C34.3218 14.6067 34.4858 14.6188 34.6394 14.6539C34.6632 14.6593 34.6462 14.6922 34.6477 14.6963C34.6722 14.7598 34.688 14.6747 34.6958 14.6715C34.7572 14.6485 34.8145 14.7198 34.8562 14.6185C35.1163 14.6537 35.3751 14.5968 35.6329 14.6875C35.6362 14.6886 35.6303 14.7305 35.6369 14.7324C35.7157 14.7559 35.7005 14.6908 35.7526 14.6112C35.7658 14.5912 35.8057 14.6873 35.8092 14.6944C35.8221 14.7203 35.8088 14.7827 35.8131 14.7877C35.8487 14.8272 35.8429 14.6211 35.8911 14.621C35.8926 14.6213 35.8862 14.6593 35.8903 14.663C35.9028 14.6749 35.9153 14.6598 35.9275 14.6729C35.9556 14.7031 35.9657 14.8032 36.0086 14.745C36.014 14.7374 36.0057 14.6205 36.0487 14.626C36.0658 14.6283 36.1416 14.6263 36.1629 14.6339C36.1841 14.6414 36.1695 14.6791 36.171 14.6807C36.2282 14.7306 36.2065 14.7512 36.2352 14.825C36.2638 14.8985 36.2559 14.7232 36.2676 14.7036C36.2793 14.6841 36.3212 14.7252 36.3315 14.7395C36.3418 14.7538 36.329 14.7778 36.3381 14.7859C36.3988 14.8387 36.3648 14.6989 36.3848 14.671C36.4319 14.6052 36.4687 14.7352 36.5118 14.7479C36.5235 14.7513 36.514 14.7217 36.5244 14.719C36.5656 14.7084 36.5904 14.7489 36.6373 14.7118C36.6449 14.7057 36.6828 14.6276 36.7074 14.6849C36.7108 14.6932 36.701 14.7256 36.7185 14.7328C36.7447 14.7437 36.792 14.7508 36.8202 14.74C36.841 14.7319 36.8172 14.6786 36.8434 14.6952C36.855 14.7026 36.8334 14.7338 36.8553 14.7451C36.8771 14.7564 36.9327 14.755 36.9539 14.7539C36.975 14.7528 36.9635 14.7123 36.9652 14.7096C36.9755 14.694 37.0161 14.6745 37.0197 14.6745C37.2005 14.6696 37.3672 14.7378 37.5433 14.7152C37.5571 14.7135 37.5479 14.6708 37.55 14.6701C37.5973 14.6522 37.56 14.7657 37.593 14.8037C37.5883 14.7171 37.6078 14.7328 37.6411 14.7233C37.6571 14.7186 37.6484 14.6851 37.6498 14.6817C37.6737 14.6307 37.6902 14.6965 37.6945 14.71C37.7103 14.7595 37.7274 14.701 37.7382 14.7341C37.7489 14.7669 37.7242 14.8156 37.7562 14.815C37.7651 14.784 37.7414 14.703 37.7657 14.6898C37.8572 14.6402 38.028 14.7037 38.1016 14.7104C38.1751 14.7169 38.1988 14.7112 38.2416 14.7224C38.3189 14.7427 38.2906 14.6826 38.3386 14.6551C38.3867 14.6275 38.3633 14.7755 38.3702 14.8073C38.377 14.8391 38.3844 14.8063 38.3929 14.8238C38.4013 14.8413 38.3831 14.8629 38.4029 14.8695C38.4227 14.876 38.4769 14.8195 38.4839 14.7862C38.4988 14.7158 38.4744 14.6418 38.5268 14.6678C38.5298 14.6694 38.52 14.7083 38.5316 14.7122C38.6233 14.7421 38.7186 14.744 38.8102 14.7705C38.8228 14.7742 38.8116 14.8174 38.8189 14.8201C38.8953 14.8478 38.868 14.7748 38.9098 14.6937C38.9004 14.8016 38.9236 14.8676 38.9815 14.8682C39.0164 14.8687 39.0104 14.8216 39.0329 14.7884C39.0397 14.7783 39.0643 14.8107 39.0688 14.7885C39.0835 14.7161 39.0603 14.635 39.1201 14.6673C39.1227 14.6689 39.1143 14.7085 39.1234 14.7109C39.1819 14.7266 39.1889 14.6509 39.2522 14.6417C39.3019 14.6345 39.3901 14.6807 39.4466 14.6882C39.4454 14.8095 39.4988 14.7817 39.5204 14.6981C39.5571 14.7015 39.5967 14.6968 39.6321 14.7083C39.6443 14.7123 39.6363 14.7474 39.6378 14.7512C39.6614 14.8107 39.6773 14.7293 39.6852 14.7262C39.771 14.6952 39.8409 14.7568 39.9227 14.6966C39.9257 14.6944 39.9304 14.6101 39.9522 14.6717C39.9537 14.6759 39.9266 14.7142 39.9651 14.7172C40.0036 14.7202 40.0762 14.7653 40.1297 14.7263C40.1426 14.7169 40.1754 14.6485 40.2016 14.7019C40.2051 14.7092 40.2013 14.7333 40.2063 14.7468C40.2227 14.7896 40.2316 14.7045 40.2508 14.7768C40.27 14.8492 40.3099 14.9033 40.3638 14.8534C40.3655 14.852 40.3783 14.7845 40.3952 14.7855C40.4223 14.7873 40.4607 14.8014 40.489 14.8009C40.5025 14.8007 40.4939 14.7588 40.4962 14.758C40.5872 14.7345 40.652 14.7719 40.7494 14.7881C40.7673 14.7912 40.8187 14.734 40.8532 14.7792C40.8912 14.8287 40.8522 15.0344 40.9395 14.9854C40.9747 14.9658 41.0193 14.7048 41.0826 14.84C41.2053 14.8065 41.3188 14.8757 41.4419 14.8278C41.4474 14.8257 41.4649 14.7529 41.4779 14.7539C41.4972 14.7555 41.5078 14.7895 41.5216 14.7918C41.5794 14.802 41.6323 14.7729 41.688 14.7774C41.7092 14.7791 41.7018 14.8143 41.727 14.8162C41.7523 14.8182 41.7691 14.7718 41.8032 14.7942C41.829 14.8113 41.8548 14.906 41.8891 14.9171C41.8904 14.8236 41.9139 14.8255 41.9558 14.8009C41.9638 14.7961 41.9552 14.7635 41.959 14.7596C41.9745 14.7428 41.9888 14.7698 42.0035 14.7515C42.007 14.7472 42.0072 14.7152 42.0101 14.7099C42.035 14.6629 42.0759 14.7347 42.0829 14.7472C42.1099 14.7946 42.1225 14.7531 42.1432 14.7718C42.1638 14.7905 42.1329 14.8139 42.157 14.8252C42.207 14.8487 42.2712 14.8435 42.3219 14.845C42.3422 14.8454 42.3284 14.8028 42.3313 14.8018C42.3731 14.791 42.4155 14.8364 42.4387 14.7515C42.4677 14.9709 42.4639 14.7302 42.5238 14.7741C42.5285 14.7777 42.5345 14.8815 42.5164 14.8967C42.4983 14.9119 42.4709 14.8795 42.4457 14.9032C42.4398 14.9088 42.4057 15.006 42.4011 15.0119C42.3647 15.058 42.3595 14.9029 42.3576 14.8944C42.3358 14.8025 42.2941 14.9072 42.2832 14.9145C42.233 14.9476 42.1904 14.9258 42.1485 14.9495C42.1211 14.9648 42.1184 15.0664 42.0968 15.0633C42.0252 15.053 42.0002 14.9113 41.9328 15.0341C41.9183 15.0603 41.9327 15.1714 41.8808 15.0841C41.8776 15.0786 41.8391 14.9987 41.8168 15.0492C41.8141 15.0556 41.8141 15.0879 41.8105 15.0907C41.7858 15.1082 41.7693 15.0825 41.7424 15.0948C41.7155 15.1072 41.6832 15.1256 41.6525 15.1146C41.634 15.108 41.6103 15.0477 41.6014 15.033C41.5764 14.9905 41.5496 15.0602 41.5341 15.0087C41.5185 14.9569 41.549 14.8784 41.508 14.8449C41.5065 14.929 41.503 15.0153 41.5006 15.0998C41.4108 15.0969 41.3225 15.0697 41.2324 15.0734C41.2212 15.0739 41.2326 15.1191 41.2207 15.1209C41.1701 15.1281 41.126 15.0958 41.0736 15.1087C41.0331 15.1188 40.9886 15.1666 40.9462 15.1787C40.9203 15.0825 40.8574 15.1151 40.8117 15.1063C40.7957 15.1033 40.7968 15.0776 40.7854 15.0692C40.7424 15.0382 40.7625 15.1232 40.7508 15.1366C40.7002 15.1937 40.6959 15.0013 40.6364 15.0061C40.6332 15.0063 40.5946 15.1088 40.5893 15.1152C40.5555 15.1568 40.5837 15.0795 40.5626 15.0719C40.524 15.0581 40.4972 15.0336 40.452 15.0636C40.4388 15.0725 40.4071 15.1364 40.3815 15.087C40.3781 15.0805 40.38 15.0466 40.3772 15.0446C40.3281 15.0115 40.3268 15.1181 40.2988 15.1541C40.2707 15.1902 40.2273 15.1167 40.2185 15.0955C40.1954 15.0407 40.2362 15.0721 40.2374 15.0667C40.2521 15.0026 40.2205 15.0137 40.1963 15.0083C40.1929 14.9038 40.1591 14.9101 40.1713 15.0031C40.1727 15.0132 40.1915 15.0035 40.1963 15.0083C40.1751 15.1107 40.138 15.1239 40.097 15.0281C40.0778 14.9832 40.0959 14.9309 40.0376 14.95C40.0111 14.9587 40.0214 15.0306 39.998 15.0502C39.9446 15.0949 39.8753 15.0278 39.8203 15.0384C39.8003 15.0423 39.8198 15.0816 39.8061 15.0856C39.7699 15.0963 39.7379 15.0667 39.7016 15.0819C39.6983 15.0833 39.7063 15.1245 39.695 15.125C39.6093 15.1298 39.5346 15.1034 39.4451 15.1027C39.4018 15.1023 39.3245 15.1251 39.2797 15.1205C39.202 15.1128 39.1065 15.0529 39.0401 15.0675C38.9969 15.0768 39.0063 15.118 38.9878 15.1461C38.952 15.2005 38.8887 15.103 38.8802 15.0879C38.8799 15.0874 38.9171 15.0777 38.8973 15.0565C38.8857 15.0125 38.8806 15.0877 38.8802 15.0879C38.8746 15.0782 38.8002 15.0688 38.7854 15.0767C38.7774 15.081 38.7819 15.12 38.7777 15.1215C38.6782 15.1565 38.5786 15.1664 38.4777 15.1482C38.4759 15.1474 38.4786 15.1037 38.4744 15.1024C38.416 15.083 38.3786 15.1364 38.3305 15.1681C38.2823 15.1998 38.2441 15.1892 38.2156 15.1142C38.1793 15.1237 38.1271 15.0905 38.0971 15.0704C38.0671 15.0503 38.0629 15.1353 38.0603 15.137C37.978 15.1908 37.9304 15.1421 37.845 15.1345C37.8044 15.1308 37.7238 15.1431 37.6798 15.1524C37.6451 15.1599 37.6242 15.14 37.5921 15.1527C37.5878 15.1544 37.5922 15.1923 37.5909 15.1937C37.5551 15.239 37.5723 15.1465 37.5649 15.13C37.5382 15.0699 37.5217 15.0378 37.4759 15.0661C37.4653 15.0726 37.4346 15.2059 37.4153 15.2136C37.3903 15.2235 37.3998 15.1758 37.3736 15.1873C37.3713 15.1883 37.3718 15.2178 37.3556 15.2165C37.2806 15.2108 37.1988 15.1937 37.1208 15.1966C37.1102 15.1969 37.1238 15.2436 37.1084 15.2448C37.0362 15.2504 36.9571 15.2486 36.8867 15.2268C36.8694 15.2212 36.8802 15.1885 36.8765 15.1788C36.8534 15.12 36.8207 15.2054 36.8153 15.2071C36.6865 15.2481 36.5879 15.1708 36.4566 15.2076C36.4494 15.2098 36.3944 15.3013 36.3699 15.2228C36.3682 15.2176 36.3439 15.1372 36.3224 15.1922C36.3211 15.1956 36.3362 15.237 36.3098 15.2327C36.2834 15.2285 36.2409 15.2562 36.2046 15.2107C36.1932 15.1964 36.166 15.1162 36.1317 15.1801C36.1295 15.1846 36.0766 15.3291 36.0577 15.2294C36.0546 15.213 36.0578 15.1075 36.0169 15.1616C36.0091 15.1721 36.0233 15.1956 36.0027 15.2103C35.9711 15.2329 35.9293 15.2047 35.8906 15.2517C35.8838 15.26 35.855 15.3316 35.8319 15.2772C35.8283 15.2687 35.8352 15.2335 35.823 15.2296C35.765 15.2107 35.7042 15.2342 35.6453 15.2099C35.6245 15.2013 35.6351 15.1444 35.6134 15.1291C35.5916 15.1139 35.5478 15.0992 35.5251 15.1252C35.5023 15.1512 35.5272 15.242 35.4931 15.2492C35.3449 15.2808 35.198 15.2275 35.05 15.2197C35.0281 15.2186 35.0463 15.2511 35.0139 15.2517C34.8947 15.2541 34.6887 15.2845 34.5853 15.2155C34.5023 15.1603 34.6067 15.1182 34.5433 15.0957C34.5127 15.085 34.4797 15.1905 34.4723 15.1938C34.4002 15.2275 34.3501 15.1808 34.2852 15.1952C34.2718 15.1981 34.2849 15.2409 34.2735 15.2429C34.2345 15.2504 34.1936 15.2313 34.1564 15.2348C34.1397 15.2364 34.1427 15.2691 34.1274 15.2666C34.0906 15.2609 34.0581 15.2472 34.0222 15.2166C34.019 15.2138 34.041 15.1732 34.0138 15.1717C33.9697 15.1693 33.9151 15.1391 33.8644 15.1703C33.8494 15.1797 33.8488 15.2543 33.8165 15.2028C33.8097 15.192 33.8184 15.1024 33.7807 15.1798C33.7744 15.1927 33.7112 15.2971 33.6801 15.2298C33.672 15.2121 33.6511 15.1388 33.633 15.1503C33.6305 15.1521 33.6404 15.1922 33.6254 15.1961C33.5726 15.2092 33.5173 15.2049 33.463 15.2175C33.4485 15.2209 33.4701 15.2624 33.4485 15.2662C33.3892 15.2767 33.3151 15.2661 33.257 15.2531C33.2356 15.2483 33.2504 15.2139 33.2489 15.2102C33.2238 15.1493 33.209 15.2314 33.2007 15.2362C33.149 15.2649 33.1097 15.2263 33.062 15.2365C33.0489 15.2392 33.0582 15.2784 33.0556 15.2819C33.0284 15.316 33.0486 15.2457 33.0315 15.2379C32.9833 15.216 32.9297 15.2191 32.881 15.2241C32.8631 15.226 32.8832 15.2714 32.8672 15.2726C32.7722 15.2804 32.6735 15.2761 32.5808 15.2511C32.5633 15.2463 32.5743 15.2113 32.5707 15.2033C32.5456 15.1475 32.5089 15.2237 32.5004 15.2309C32.462 15.2641 32.4471 15.2331 32.4131 15.2389C32.2473 15.2676 32.0425 15.2472 31.886 15.2345C31.682 15.2182 31.5238 15.185 31.3293 15.1936C31.3169 15.1941 31.3294 15.2406 31.3187 15.2417C31.1811 15.2529 31.0457 15.2347 30.9078 15.2481C30.8965 15.2491 30.9128 15.2932 30.8946 15.2963C30.8574 15.3031 30.8102 15.3007 30.7726 15.2866C30.7542 15.2798 30.7788 15.242 30.7603 15.2359C30.7173 15.2217 30.6711 15.2186 30.6269 15.2257C30.6081 15.2288 30.6365 15.2739 30.612 15.2744C30.4454 15.2788 30.2818 15.2866 30.1134 15.2282C30.1019 15.2242 30.0918 15.1326 30.0672 15.1502C30.0654 15.1756 30.0655 15.2055 30.0647 15.2327C29.8221 15.2473 29.5821 15.2156 29.3389 15.2107C29.3286 15.2105 29.3463 15.259 29.3265 15.2589C29.2116 15.2582 29.1 15.2716 28.9824 15.2233C28.9708 15.2186 28.9768 15.1332 28.9424 15.1461C28.9363 15.1485 28.8846 15.1599 28.8712 15.1784C28.8694 15.1812 28.8788 15.2211 28.8621 15.2223C28.7652 15.2283 28.6636 15.2192 28.5669 15.1948C28.5513 15.1908 28.5679 15.1484 28.5568 15.1452C28.4779 15.1226 28.392 15.1549 28.3167 15.1164C28.2662 15.0904 28.2849 15.017 28.2581 14.9448C28.2543 14.9346 28.223 14.933 28.2214 14.891C28.2173 14.7853 28.2324 14.6696 28.2262 14.5569C28.2249 14.5326 28.183 14.5588 28.2078 14.5001C28.2095 14.4962 28.2399 14.4768 28.2473 14.4569C28.2525 14.4431 28.2432 14.4004 28.2538 14.3828C28.2644 14.3652 28.2761 14.401 28.2937 14.3803C28.3113 14.3594 28.3035 14.3108 28.3386 14.305ZM37.9621 14.9805C37.9343 14.9397 37.9302 15.0892 37.9602 15.0534C37.9617 15.0515 37.9635 14.9825 37.9621 14.9805ZM41.323 14.9569C41.2866 14.8909 41.2618 14.9879 41.2874 15.0388C41.313 15.0897 41.334 14.9769 41.323 14.9569ZM41.6995 14.9087C41.6571 14.8567 41.6504 15.0688 41.6959 15.0259C41.6985 15.0235 41.702 14.9117 41.6995 14.9087ZM28.3824 14.9242C28.382 14.9222 28.3596 14.9203 28.359 14.9223C28.3471 14.9698 28.392 14.9736 28.3824 14.9242ZM42.0732 14.8563C42.06 14.8276 42.0218 14.8607 42.0383 14.8964C42.0515 14.9251 42.0897 14.892 42.0732 14.8563ZM36.513 14.8209C36.5126 14.8187 36.4965 14.8166 36.4968 14.8292C36.4979 14.8698 36.5203 14.8584 36.513 14.8209ZM42.7084 14.8538C42.6145 14.8459 42.5576 14.6707 42.6598 14.6905C42.6783 14.694 42.6199 14.7463 42.6435 14.7621C42.6866 14.7909 42.7152 14.6809 42.7592 14.7398C42.7671 14.7506 42.7137 14.8547 42.7082 14.8541C42.7082 14.854 42.7083 14.8539 42.7084 14.8538ZM37.9461 14.8009C37.9455 14.7989 37.9232 14.797 37.9227 14.799C37.9106 14.8464 37.9555 14.8503 37.9461 14.8009ZM35.5733 14.7284C35.5721 14.7242 35.5203 14.7203 35.5186 14.7241C35.4917 14.8018 35.5962 14.81 35.5733 14.7284ZM39.4475 14.6914C39.4718 14.6437 39.5009 14.638 39.5203 14.698C39.4961 14.6948 39.4718 14.6944 39.4475 14.6914ZM46.1965 45.1987C46.6809 44.8931 47.083 44.218 47.0785 43.5999C47.0806 43.4975 47.0828 43.3978 47.0851 43.3017C47.091 43.0481 47.1175 43.1765 47.1228 43.0014C47.1331 42.6589 47.1201 42.3398 47.1324 42.0013C47.1366 41.8892 47.1786 42.0288 47.182 41.9112C47.2006 41.2666 47.1899 40.6569 47.1988 40.004C47.2428 36.7879 47.2586 33.6266 47.2777 30.3712C47.284 29.2978 47.3221 27.9929 47.3054 26.8842C47.3034 26.7548 47.2666 26.8319 47.2636 26.8073C47.2171 26.4211 47.2915 26.5495 47.3013 26.2973C47.3404 25.2965 47.3438 24.1835 47.3295 23.2203C47.3234 22.8105 47.2502 23.2213 47.2913 22.8087C47.294 22.7801 47.3332 22.884 47.3374 22.7717C47.3467 22.5168 47.3397 22.0333 47.3428 21.8358C47.349 21.4551 47.3486 21.3921 47.3491 21.0321C47.35 20.5398 47.3695 19.9544 47.3606 19.4263C47.3586 19.3136 47.3185 19.4628 47.3117 19.2831C47.3048 19.1031 47.3082 18.6271 47.3177 18.4666C47.3272 18.3061 47.3587 18.3745 47.3659 18.346C47.4269 18.1123 47.3424 17.5617 47.3403 17.4909C47.3047 16.1992 47.3529 15.0915 47.3527 13.8789C47.3526 13.3952 47.3482 12.8939 47.3443 12.4C47.3419 11.9924 47.2216 11.5983 47.0266 11.2754C46.612 10.5936 45.9164 10.2051 45.16 10.2004C45.0048 10.1999 44.8474 10.1998 44.6868 10.2004C44.5799 10.2008 44.7052 10.2479 44.5746 10.2485C43.1863 10.2539 41.8078 10.2488 40.4255 10.217C40.2869 10.2137 40.4655 10.1723 40.3271 10.1666C39.4791 10.1326 38.1375 10.0508 37.6338 10.2311C37.0595 10.2241 36.3622 10.2168 35.8483 10.1805C35.517 10.1571 35.8388 10.112 35.4318 10.1312C35.34 10.1355 35.4594 10.175 35.3218 10.1784C34.7422 10.1929 34.109 10.1801 33.5357 10.2005C33.4191 10.2047 33.4509 10.2401 33.4179 10.2465C33.1402 10.2981 32.6779 10.2128 32.5771 10.2066C31.8097 10.1603 31.2493 10.1785 30.5344 10.1774C30.3685 10.1771 30.5646 10.2247 30.405 10.2261C29.577 10.2329 28.7194 10.2288 27.9087 10.2077C27.7283 10.2029 27.8942 10.1624 27.808 10.1581C27.428 10.1393 27.3438 10.2158 26.9794 10.1993C26.9026 10.1959 26.9459 10.1612 26.9318 10.1574C26.7125 10.0976 26.522 10.1823 26.4655 10.1842C25.752 10.2097 25.2958 10.1213 24.6065 10.1338C24.524 10.1354 24.71 10.1793 24.4781 10.1811C22.9337 10.1932 21.3003 10.1811 19.7715 10.146C19.5338 10.1406 19.7035 10.1077 19.6886 10.1036C19.4448 10.0401 19.287 10.1252 19.2095 10.1284C18.5981 10.1515 18.027 10.0801 17.6115 10.1814C15.5338 10.1532 13.4637 10.1843 11.4 10.1508C10.9229 10.1413 10.4432 10.2841 10.0435 10.5578C10.0178 10.5756 10.038 10.5081 9.98633 10.5446C9.40204 11.0331 9.56544 11.0118 9.39824 11.4592C9.358 11.5694 9.16086 11.8962 9.15297 11.9337C9.10405 12.0495 9.06699 11.912 9.05421 11.952C8.98652 12.1869 9.0761 12.249 9.13125 12.4C9.15824 12.4742 9.17892 12.5721 9.17894 12.7238C9.17859 12.7388 9.14066 12.6759 9.13688 12.7161C9.12504 12.841 9.14012 12.9649 9.12706 13.0872C9.09684 13.3671 8.99669 13.4668 9.05498 13.8942C9.06254 13.9483 9.17946 13.8657 9.17393 14.2936C9.17163 14.4642 9.17364 15.2192 9.16606 15.4308C9.15849 15.6422 9.12082 15.4971 9.11918 15.5122C9.06936 16.0816 9.04872 15.8657 8.97496 16.151C8.90148 16.4363 9.07673 16.3572 9.0963 16.4735C9.1158 16.59 9.0747 17.0075 9.06041 17.1102C9.04611 17.2127 9.02217 17.0848 9.01408 17.176C8.96123 17.7806 9.10107 17.4414 9.12889 17.6406C9.19475 18.1103 9.06478 18.4762 9.05205 18.9062C9.04861 19.0225 9.07821 18.9276 9.08098 19.0312C9.09155 19.4415 9.05099 19.6883 9.08818 20.1552C9.09424 20.2315 9.17238 20.6089 9.11503 20.8532C9.10676 20.8878 9.07438 20.7895 9.06712 20.9644C9.05623 21.2256 9.04915 21.6963 9.05998 21.9772C9.06799 22.1845 9.12136 21.9469 9.10478 22.2078C9.09738 22.3238 9.06616 22.1089 9.05485 22.3268C9.04355 22.5435 9.04492 23.0977 9.046 23.3086C9.0471 23.5191 9.08759 23.4038 9.09031 23.4209C9.10594 23.5238 9.12546 23.9278 9.12541 23.9635C9.13035 25.7642 9.06211 27.4247 9.0847 29.1779C9.08641 29.3154 9.1291 29.2238 9.1298 29.2448C9.14769 29.7158 9.03419 29.3444 8.9962 29.6735C9.08283 29.6259 9.06714 29.8201 9.07664 30.1519C9.08129 30.3118 9.11483 30.2247 9.11827 30.2393C9.16922 30.4764 9.10341 30.6415 9.08995 30.684C9.04043 30.8411 9.09894 31.0119 9.06584 31.1188C9.03299 31.2256 8.98428 30.9798 8.98491 31.298C9.01592 31.3872 9.09696 31.151 9.11009 31.3926C9.15977 32.3041 9.09619 34.0056 9.08958 34.7385C9.08298 35.4699 9.0887 35.7062 9.0775 36.1324C9.05723 36.9023 9.11736 36.6201 9.14488 37.0982C9.1724 37.5776 9.02446 37.3445 8.99266 37.4135C8.96087 37.4811 8.99359 37.555 8.97612 37.6391C8.95865 37.723 8.93702 37.5414 8.93046 37.7387C8.92391 37.9361 8.98046 38.4758 9.01372 38.5457C9.08416 38.6936 9.1581 38.4504 9.13212 38.9727C9.13058 39.0028 9.09168 38.9053 9.08775 39.0203C9.0578 39.9339 9.05595 40.8829 9.02946 41.7954C9.02576 41.9208 8.98249 41.8087 8.97984 41.8817C8.95216 42.6422 9.02513 42.3703 9.10618 42.7871C8.99832 42.6935 8.93232 42.9241 8.93168 43.5012C8.93164 43.5386 8.93214 43.5712 8.93312 43.6C8.94713 43.8449 8.9884 43.8165 9.04647 44.0091C9.06398 44.073 9.09443 44.3189 9.13274 44.3537C9.2576 44.462 9.21877 44.2419 9.44744 44.7534C9.4589 44.7756 9.38391 44.7274 9.4264 44.803C9.73386 45.2723 9.84586 45.2844 10.3475 45.5799C10.5947 45.7112 10.9921 45.8572 11.4 45.8672C11.6746 45.8765 11.9427 45.8853 12.1625 45.8883C12.1507 46.0095 12.6821 45.9818 12.8977 45.8981C13.2628 45.9016 13.6571 45.8968 14.01 45.9084C14.1315 45.9123 14.0517 45.9475 14.067 45.9512C14.3018 46.0108 14.4606 45.9294 14.5394 45.9262C15.3935 45.8952 16.0894 45.9569 16.9046 45.8966C16.9335 45.8944 16.9804 45.8102 17.1983 45.8717C17.2124 45.8759 16.9431 45.9143 17.3266 45.9172C17.7101 45.9202 18.4331 45.9654 18.9655 45.9263C19.0944 45.9169 19.4203 45.8485 19.6818 45.902C19.7167 45.9092 19.6785 45.9334 19.7289 45.9468C19.8915 45.9897 19.9802 45.9045 20.1714 45.9769C20.3625 46.0492 20.76 46.1034 21.297 46.0535C21.3141 46.052 21.4412 45.9845 21.6101 45.9856C21.8796 45.9874 22.2623 46.0014 22.5437 46.001C22.6785 46.0007 22.5923 45.9588 22.6157 45.9581C23.5218 45.9346 24.1667 45.9719 25.1374 45.9881C25.3153 45.9912 25.8267 45.9341 26.1712 45.9792C26.5495 46.0287 26.1608 46.2344 27.0302 46.1854C27.3809 46.1658 27.8249 45.9048 28.4551 46.04C29.6773 46.0065 30.8076 46.0757 32.0333 46.0279C32.0884 46.0257 32.2627 45.9529 32.3923 45.9539C32.5847 45.9555 32.6902 45.9895 32.8276 45.9918C33.4032 46.002 33.9298 45.9729 34.4848 45.9774C34.6955 45.9791 34.6218 46.0143 34.8731 46.0163C35.1242 46.0182 35.2917 45.9718 35.632 45.9942C35.889 46.0113 36.146 46.106 36.4871 46.1171C36.5001 46.0236 36.7344 46.0255 37.1509 46.0009C37.2309 45.9961 37.1451 45.9636 37.183 45.9596C37.3371 45.9428 37.4797 45.9698 37.626 45.9516C37.6616 45.9472 37.6633 45.9153 37.6924 45.9099C37.9399 45.8629 38.3475 45.9347 38.4176 45.9472C38.6859 45.9946 38.8113 45.9531 39.0172 45.9718C39.2226 45.9905 38.9154 46.0139 39.1554 46.0252C39.653 46.0487 40.2923 46.0435 40.7977 46.045C40.9993 46.0454 40.8618 46.0028 40.8906 46.0018C41.3076 45.991 41.7292 46.0364 41.9604 45.9515C42.2495 46.1709 42.2118 45.9302 42.8078 45.9741C42.8547 45.9777 42.9144 46.0815 42.7342 46.0967C42.554 46.1119 42.2807 46.0795 42.0306 46.1032C41.9714 46.1088 41.6322 46.206 41.5859 46.2119C41.2234 46.258 41.172 46.1029 41.1528 46.0944C40.9353 46.0025 40.5208 46.1072 40.4116 46.1145C39.9122 46.1476 39.4879 46.1258 39.0703 46.1495C38.7971 46.1648 38.7703 46.2664 38.5558 46.2633C37.8428 46.253 37.5939 46.1113 36.9219 46.2341C36.7778 46.2604 36.921 46.3714 36.4047 46.2841C36.3723 46.2786 35.989 46.1987 35.7675 46.2492C35.7397 46.2556 35.7406 46.288 35.7039 46.2907C35.4581 46.3083 35.2941 46.2825 35.0263 46.2948C34.7585 46.3072 34.4365 46.3256 34.1308 46.3146C33.9465 46.308 33.7101 46.2478 33.6219 46.233C33.3728 46.1905 33.1058 46.2602 32.9515 46.2087C32.7959 46.157 33.1001 46.0784 32.6921 46.045C32.677 46.129 32.6423 46.2153 32.618 46.2998C31.7238 46.2969 30.844 46.2697 29.9469 46.2734C29.8357 46.274 29.9494 46.3191 29.8302 46.3209C29.3271 46.3281 28.8877 46.2959 28.366 46.3087C27.9622 46.3188 27.5194 46.3666 27.0971 46.3787C26.8392 46.2825 26.2126 46.3152 25.7574 46.3064C25.598 46.3033 25.6087 46.2777 25.4953 46.2693C25.0675 46.2383 25.2679 46.3233 25.1507 46.3367C24.6475 46.3937 24.6044 46.2014 24.0112 46.2061C23.9798 46.2063 23.5956 46.3088 23.5427 46.3152C23.2065 46.3569 23.4871 46.2795 23.2766 46.272C22.8925 46.2581 22.6255 46.2336 22.1748 46.2637C22.0434 46.2726 21.7281 46.3365 21.4729 46.287C21.4393 46.2806 21.4579 46.2467 21.4308 46.2447C20.9417 46.2116 20.9288 46.3181 20.6493 46.3542C20.3697 46.3903 19.9379 46.3167 19.85 46.2955C19.6201 46.2407 20.0262 46.2721 20.0386 46.2667C20.1849 46.2027 19.8699 46.2137 19.6293 46.2083C19.5944 46.1039 19.2579 46.1101 19.3798 46.2031C19.3937 46.2133 19.581 46.2035 19.6293 46.2083C19.4181 46.3108 19.0482 46.3239 18.6397 46.2281C18.4485 46.1833 18.6293 46.1309 18.0484 46.1501C17.7848 46.1587 17.8867 46.2306 17.654 46.2502C17.1226 46.295 16.432 46.2279 15.884 46.2385C15.6852 46.2423 15.8789 46.2817 15.743 46.2857C15.3823 46.2963 15.0642 46.2668 14.702 46.2819C14.6692 46.2834 14.7494 46.3246 14.6367 46.3251C13.7828 46.3299 13.0392 46.3035 12.1476 46.3027C11.9489 46.3026 11.678 46.3073 11.4 46.3121C11.0332 46.3206 10.6553 46.2369 10.4036 46.1322C9.55597 45.8237 8.90963 44.8571 8.78618 44.135C8.7041 43.6986 8.69567 43.7554 8.66019 43.6C8.65802 43.5892 8.6559 43.5772 8.65385 43.5637C8.59942 43.2074 8.69692 42.5767 8.71202 42.4918C8.71252 42.4892 8.72224 42.86 8.74339 42.6621C8.78747 42.5471 8.71221 42.496 8.71202 42.4918C8.72177 42.436 8.73113 41.6952 8.72325 41.5481C8.71894 41.4682 8.6799 41.5129 8.67839 41.4712C8.64344 40.4807 8.63352 39.4884 8.65178 38.4838C8.65257 38.4661 8.69624 38.4927 8.69755 38.4511C8.71697 37.8695 8.66354 37.4971 8.63182 37.0174C8.60011 36.5378 8.61073 36.1574 8.68571 35.8735C8.67627 35.5117 8.70942 34.9925 8.72954 34.6937C8.74965 34.3949 8.66463 34.3533 8.66295 34.327C8.60915 33.5071 8.65782 33.0331 8.66539 32.1825C8.66914 31.7781 8.6568 30.9759 8.64751 30.538C8.64002 30.192 8.65994 29.9835 8.6472 29.6646C8.6455 29.6215 8.60764 29.6651 8.60619 29.6519C8.56089 29.296 8.65344 29.4671 8.66997 29.3936C8.73007 29.1272 8.76208 28.9626 8.73381 28.5069C8.72733 28.4018 8.59408 28.0956 8.58629 27.904C8.5764 27.6549 8.62416 27.7489 8.61259 27.488C8.61165 27.4657 8.58218 27.4704 8.58348 27.3094C8.58912 26.5621 8.60627 25.7473 8.60332 24.9707C8.60303 24.8646 8.55629 25.0007 8.5551 24.8474C8.54956 24.1282 8.55129 23.3399 8.57317 22.6393C8.5787 22.4668 8.61142 22.5749 8.62114 22.5375C8.67993 22.3077 8.59451 21.9817 8.59288 21.9279C8.55183 20.6451 8.62914 19.6633 8.59233 18.3558C8.59017 18.2846 8.49859 17.7368 8.57713 17.4924C8.58236 17.4756 8.66271 17.2338 8.60777 17.02C8.60433 17.0067 8.56297 17.1574 8.56718 16.8944C8.57139 16.6315 8.54377 16.2083 8.58922 15.8468C8.60354 15.7324 8.68369 15.4619 8.6198 15.1205C8.61534 15.0983 8.47086 14.5713 8.57054 14.3832C8.58695 14.3527 8.69243 14.3846 8.63835 13.9772C8.62787 13.8994 8.60434 14.0407 8.58964 13.8356C8.567 13.5214 8.59525 13.1051 8.54826 12.7188C8.54303 12.6765 8.51276 12.5473 8.50454 12.4C8.49957 12.2953 8.50867 12.1825 8.53999 12.0831C8.55369 12.0414 8.57768 12.1254 8.60075 11.9842C8.71292 11.3143 9.06738 10.6424 9.61953 10.226C9.81647 10.0838 9.75043 10.2008 9.96464 10.0784C10.1782 9.95146 10.6422 9.78431 10.8929 9.72187C11.1451 9.6571 10.8454 9.59814 11.2453 9.55485C11.2967 9.55116 11.3481 9.54892 11.4 9.54813C12.8318 9.52227 14.2512 9.57263 15.6817 9.58018C15.9003 9.58135 15.719 9.54888 16.0412 9.54826C17.229 9.54585 19.2796 9.51541 20.3103 9.5844C21.1361 9.63965 20.0969 9.68172 20.7279 9.70421C21.0324 9.71493 21.3618 9.60945 21.4353 9.60612C22.1535 9.57239 22.6525 9.61912 23.2989 9.60478C23.4323 9.60181 23.3014 9.55905 23.415 9.55699C23.803 9.54958 24.2108 9.56866 24.5816 9.56517C24.7479 9.56351 24.7173 9.53085 24.8703 9.53337C25.2365 9.53902 25.5604 9.55275 25.9174 9.58336C25.9499 9.58615 25.7305 9.62677 26.0015 9.62828C26.44 9.63061 26.9843 9.6608 27.4888 9.62962C27.6385 9.62024 27.6444 9.54561 27.9662 9.59715C28.0337 9.60792 27.9476 9.69753 28.3224 9.6201C28.3854 9.60723 29.0151 9.50279 29.3241 9.57011C29.4057 9.58783 29.6137 9.66117 29.7937 9.64964C29.8182 9.6478 29.7204 9.60771 29.8695 9.6038C30.3952 9.59072 30.9462 9.595 31.4863 9.58244C31.6306 9.57901 31.4157 9.53753 31.6307 9.53374C32.2218 9.52325 32.9599 9.53381 33.5379 9.5468C33.751 9.55166 33.6037 9.58603 33.6192 9.58977C33.8686 9.65059 34.016 9.56849 34.0988 9.5637C34.6135 9.53504 35.0055 9.57361 35.4799 9.5634C35.6109 9.56069 35.518 9.52154 35.5441 9.51805C35.8144 9.48395 35.6131 9.55425 35.7842 9.562C36.2635 9.58394 36.7979 9.58079 37.2826 9.57579C37.4607 9.57389 37.2605 9.5285 37.4203 9.52733C38.3661 9.51951 39.3493 9.52385 40.2723 9.54887C40.4461 9.55367 40.3367 9.58862 40.373 9.5966C40.6226 9.65245 40.9885 9.57627 41.0727 9.56901C41.4555 9.53588 41.6041 9.56679 41.9422 9.56102C42.9373 9.54371 44.0732 9.54427 45.16 9.55021C46.0162 9.54706 46.8098 9.96772 47.2827 10.5214C47.7609 11.0676 47.9854 11.7535 47.9768 12.4C47.962 13.6778 47.9477 14.854 47.9537 16.206C47.9542 16.3291 48.0007 16.2049 48.0017 16.3111C48.0129 17.6813 47.9948 19.0302 48.0082 20.4031C48.0092 20.5158 48.0533 20.3534 48.0564 20.5342C48.0631 20.9052 48.0607 21.375 48.0466 21.75C48.0399 21.9329 48.002 21.6876 47.996 21.8717C47.9818 22.3004 47.9787 22.76 47.9857 23.2003C47.9888 23.3877 48.0339 23.105 48.0344 23.3486C48.0389 25.0078 48.0467 26.6373 47.9883 28.3141C47.9843 28.429 47.8927 28.5299 47.9102 28.7743C47.9357 28.7927 47.9656 28.7917 47.9927 28.7997C48.0074 31.2151 47.9756 33.6059 47.9707 36.028C47.9705 36.1302 48.0191 35.9537 48.0189 36.1514C48.0182 37.2957 48.0317 38.407 47.9834 39.5775C47.9787 39.6936 47.8933 39.6341 47.9062 39.9763C47.9086 40.0367 47.9199 40.5522 47.9385 40.6854C47.9413 40.7035 47.9811 40.6095 47.9823 40.7756C47.9881 41.7022 47.98 42.6714 47.9578 43.5999C47.9568 43.6453 47.9548 43.6902 47.9517 43.7348C47.9363 43.915 47.9072 43.7209 47.8942 43.8473C47.8118 44.744 47.2115 45.6522 46.4249 46.0044C45.8992 46.22 46.0593 46.0577 45.7676 46.0718C45.7273 46.077 45.4014 46.1268 45.3813 46.0812C45.3328 45.9799 45.4655 45.8501 45.3945 45.7443C45.3808 45.7281 45.0105 45.7618 45.2285 45.699C45.2441 45.6984 45.5052 45.6541 45.5622 45.6176C45.6024 45.5953 45.5176 45.5696 45.5997 45.5339C45.6796 45.4974 45.7835 45.507 45.9108 45.4332C46.0334 45.3543 45.9621 45.347 46.1965 45.1987ZM8.81944 33.3485C8.86027 33.0718 8.71072 33.031 8.7465 33.3302C8.74841 33.3447 8.81744 33.3627 8.81944 33.3485ZM30.849 46.1569C30.4874 46.0909 30.2399 46.1879 30.495 46.2389C30.7501 46.2898 30.9592 46.1769 30.849 46.1569ZM34.5993 46.1087C34.1766 46.0567 34.1101 46.2688 34.5628 46.2259C34.5891 46.2235 34.624 46.1117 34.5993 46.1087ZM46.8936 45.4347C46.891 45.438 46.7115 45.5896 46.7067 45.5926C46.6387 45.7126 47.0061 45.4055 46.8936 45.4347ZM38.3208 46.0563C38.1888 46.0276 37.8089 46.0607 37.9728 46.0964C38.1048 46.1251 38.4851 46.092 38.3208 46.0563ZM8.97905 18.9178C8.98128 18.9134 8.98328 18.7531 8.97069 18.7563C8.93011 18.7672 8.94156 18.9904 8.97905 18.9178ZM44.6458 46.0538C43.7113 46.0459 43.1447 45.8707 44.1624 45.8904C44.3467 45.894 43.7652 45.9463 43.9998 45.9621C44.429 45.9909 44.714 45.8809 45.152 45.9398C45.2312 45.9506 44.6991 46.0547 44.6442 46.0541C44.6447 46.054 44.6453 46.0539 44.6458 46.0538ZM8.99907 33.1892C9.00104 33.1836 9.00292 32.9616 9.00096 32.9563C8.95348 32.8361 8.94968 33.2833 8.99907 33.1892ZM10.5204 10.2433C10.5293 10.2303 11.0101 10.0989 11.0284 10.1053C11.1528 10.0493 10.9606 10.0467 10.7689 10.0983C10.5767 10.1479 10.4019 10.2504 10.5204 10.2433ZM12.1714 45.8915C12.4137 45.8437 12.7034 45.8381 12.8966 45.8981C12.6558 45.8949 12.4135 45.8944 12.1714 45.8915Z" fill="#16181B"/>
<path d="M31.1088 28.2784C31.094 28.3377 31.0467 28.4017 31.0032 28.4465C30.9896 28.4606 30.9701 28.4404 30.9596 28.4495C30.9392 28.4675 30.9405 28.4943 30.9184 28.5111C30.911 28.5167 30.8779 28.4888 30.871 28.4951C30.8334 28.5293 30.8231 28.5742 30.7938 28.6132C30.6495 28.8054 30.5323 29.0066 30.409 29.2125C30.3684 29.2804 30.2917 29.3494 30.2705 29.4298C30.268 29.4392 30.3036 29.4505 30.3055 29.4534C30.3346 29.4995 30.2721 29.458 30.255 29.4703C30.1874 29.5189 30.1481 29.5906 30.1294 29.6604C30.1216 29.6901 30.2006 29.6955 30.1503 29.7045C30.1469 29.7051 30.1152 29.6809 30.1078 29.6864C30.0911 29.6991 30.0816 29.734 30.0724 29.7456C30.0544 29.768 30.0527 29.7723 30.0406 29.7958C30.0237 29.8278 29.9871 29.8577 29.9779 29.8964C29.976 29.9047 30.0168 29.9127 30.0171 29.9276C30.0173 29.9424 29.9987 29.9723 29.985 29.9786C29.9713 29.985 29.9453 29.9665 29.9379 29.9652C29.8756 29.9535 29.9334 30.0273 29.9329 30.0328C29.9227 30.1337 29.8435 30.1853 29.8041 30.2652C29.7742 30.3259 29.7564 30.3978 29.7259 30.4545C29.6894 30.522 29.6411 30.5705 29.6114 30.6389C29.6082 30.6461 29.6546 30.6588 29.6508 30.6677C29.6104 30.7615 29.5609 30.85 29.4873 30.9269C29.4798 30.9346 29.4486 30.9044 29.4389 30.911C29.3808 30.9518 29.2638 31.0038 29.4089 31.117C29.3839 31.1517 29.3546 31.1944 29.3053 31.2121C29.2735 31.2235 29.2436 31.1823 29.2476 31.2177C29.2484 31.2256 29.2877 31.2353 29.2863 31.2459C29.2804 31.2905 29.2483 31.3264 29.2479 31.3733C29.2479 31.3828 29.2806 31.3964 29.2853 31.4014C29.3225 31.4426 29.2309 31.4352 29.2221 31.4391C29.1556 31.4691 29.1536 31.5141 29.1293 31.5607C29.1237 31.5715 29.1727 31.5796 29.1688 31.5908C29.1479 31.6483 29.1162 31.703 29.0709 31.747C29.0607 31.7568 29.0298 31.7279 29.0231 31.7316C28.9939 31.7483 29.0597 31.7878 29.033 31.8044C29.0275 31.808 28.9978 31.7898 28.9939 31.789C28.9332 31.7769 29.0029 31.827 29.0027 31.8316C29.0024 31.8899 28.9082 31.8807 28.897 31.9317C28.8957 31.9378 28.9411 31.945 28.9351 31.9611C28.8956 32.0681 28.8316 32.1704 28.7503 32.2554C28.7377 32.2687 28.7137 32.2429 28.7096 32.2421C28.6447 32.23 28.7158 32.2781 28.7162 32.2846C28.7169 32.3351 28.6343 32.3411 28.7116 32.4134C28.5957 32.5683 28.5626 32.7633 28.3975 32.8921C28.3955 32.8938 28.3599 32.8713 28.3561 32.8748C28.3094 32.916 28.3727 32.935 28.4271 33.0045C28.4408 33.0219 28.3416 33.0055 28.3342 33.0047C28.3067 33.0016 28.2552 32.9652 28.2493 32.9658C28.2023 32.9716 28.3889 33.0593 28.3734 33.0909C28.3726 33.0917 28.3406 33.0707 28.3359 33.0717C28.3212 33.0747 28.3307 33.0895 28.315 33.0918C28.2788 33.0968 28.1858 33.0589 28.2241 33.1129C28.2291 33.1199 28.3366 33.1663 28.3177 33.192C28.3101 33.2022 28.2872 33.2528 28.2736 33.2634C28.2599 33.274 28.2308 33.2477 28.2289 33.248C28.1657 33.2634 28.1542 33.24 28.0788 33.226C28.0037 33.2122 28.1633 33.2848 28.177 33.3011C28.1907 33.3174 28.1403 33.3267 28.1241 33.3271C28.108 33.3275 28.0907 33.3085 28.0805 33.3109C28.0134 33.3272 28.1498 33.367 28.1682 33.3924C28.2119 33.4526 28.0835 33.419 28.0581 33.4417C28.0512 33.4478 28.0808 33.4547 28.0799 33.4627C28.076 33.4944 28.0316 33.4927 28.0497 33.5399C28.0527 33.5477 28.1104 33.6072 28.051 33.5978C28.0425 33.5964 28.0167 33.5756 28.0045 33.5839C27.9862 33.5963 27.9645 33.6241 27.965 33.6474C27.9655 33.6646 28.021 33.6726 27.9977 33.6825C27.9873 33.6868 27.9663 33.6588 27.9491 33.6681C27.9319 33.6774 27.915 33.7145 27.9091 33.7289C27.9032 33.7432 27.9433 33.7536 27.9452 33.7559C27.9558 33.7696 27.9601 33.8049 27.9589 33.8072C27.9046 33.928 27.7894 34.0071 27.7524 34.1325C27.7495 34.1423 27.7907 34.1553 27.7907 34.1569C27.7913 34.1959 27.7017 34.1211 27.657 34.1259C27.7361 34.1612 27.7158 34.167 27.7135 34.1931C27.7124 34.2057 27.7453 34.2148 27.7479 34.2173C27.7858 34.2555 27.7215 34.2372 27.708 34.234C27.6585 34.2224 27.7054 34.2596 27.6722 34.252C27.6393 34.2444 27.6037 34.2066 27.5939 34.2279C27.6188 34.2475 27.6991 34.2679 27.703 34.2896C27.7178 34.3717 27.6053 34.4555 27.5755 34.5008C27.5457 34.5461 27.5432 34.5642 27.5192 34.5873C27.476 34.629 27.539 34.6371 27.5481 34.6808C27.5572 34.7245 27.4322 34.6436 27.4014 34.634C27.3707 34.6243 27.3977 34.6437 27.3792 34.6415C27.3609 34.6393 27.3474 34.6177 27.3351 34.6278C27.3228 34.6379 27.3559 34.6985 27.3834 34.7179C27.4417 34.7589 27.5159 34.7757 27.4756 34.7985C27.4732 34.7998 27.4415 34.7762 27.4343 34.782C27.3776 34.8289 27.345 34.8905 27.2915 34.9389C27.2841 34.9455 27.249 34.9189 27.2443 34.9225C27.1947 34.9603 27.2689 34.9748 27.328 35.0382C27.2343 34.9842 27.1677 34.9701 27.1483 35.0078C27.1366 35.0305 27.1808 35.0474 27.2032 35.0769C27.21 35.0858 27.173 35.0876 27.1914 35.1004C27.2515 35.1422 27.3317 35.1629 27.2834 35.1878C27.2812 35.1888 27.2483 35.1658 27.2433 35.1706C27.2102 35.2021 27.2758 35.2403 27.2634 35.2859C27.2538 35.3216 27.1837 35.3589 27.1587 35.3927C27.0504 35.3381 27.0579 35.3854 27.1258 35.4367C27.1109 35.4592 27.1022 35.4873 27.0804 35.5054C27.0729 35.5116 27.044 35.4908 27.0401 35.4901C26.9791 35.4792 27.0469 35.5257 27.0471 35.5323C27.0471 35.6023 26.9691 35.6208 26.9966 35.7012C26.9976 35.7041 27.0715 35.7445 27.0093 35.7316C27.005 35.7306 26.9795 35.6959 26.9643 35.7198C26.9491 35.7438 26.8851 35.7713 26.9027 35.8237C26.9069 35.8364 26.9576 35.8882 26.9012 35.8817C26.8935 35.8808 26.8731 35.8675 26.8595 35.8649C26.8158 35.8566 26.8892 35.9002 26.8181 35.8807C26.7471 35.8612 26.6856 35.8633 26.7128 35.9208C26.7135 35.9226 26.7698 35.9609 26.7634 35.9716C26.753 35.9885 26.7279 36.0075 26.7192 36.0262C26.715 36.0352 26.7553 36.0481 26.7553 36.05C26.7468 36.1201 26.6923 36.146 26.6461 36.2027C26.6375 36.2131 26.6721 36.2721 26.6204 36.2747C26.5637 36.2777 26.392 36.1608 26.4076 36.2398C26.4137 36.2716 26.6332 36.4166 26.4914 36.3981C26.4816 36.4935 26.3827 36.5372 26.3856 36.6391C26.3857 36.6437 26.4453 36.6875 26.4402 36.6956C26.4325 36.7076 26.3986 36.6994 26.3921 36.7075C26.3641 36.7408 26.373 36.7884 26.3509 36.8229C26.3425 36.8361 26.3134 36.8156 26.3034 36.8313C26.2935 36.847 26.3296 36.8786 26.2984 36.891C26.2748 36.9004 26.1815 36.8753 26.1605 36.8928C26.2438 36.9352 26.2344 36.9497 26.243 36.9881C26.2446 36.9955 26.2766 37.0043 26.2789 37.0085C26.2889 37.0261 26.2601 37.0235 26.2717 37.0413C26.2744 37.0456 26.303 37.0598 26.3069 37.0641C26.3409 37.1013 26.2633 37.0963 26.2498 37.0953C26.1985 37.0919 26.2316 37.1186 26.2081 37.1239C26.1847 37.1291 26.1738 37.0985 26.1558 37.1093C26.1185 37.1316 26.1023 37.176 26.0845 37.2087C26.0776 37.2218 26.1203 37.2316 26.1202 37.2339C26.1162 37.2662 26.0619 37.2738 26.1304 37.3267C25.9243 37.2484 26.1413 37.3527 26.0825 37.3725C26.0778 37.374 25.9828 37.3319 25.975 37.3132C25.9673 37.2946 26.0053 37.291 25.9921 37.264C25.9891 37.2576 25.913 37.1921 25.9092 37.1865C25.8798 37.1422 26.0204 37.2076 26.0287 37.2101C26.1181 37.2366 26.0378 37.1628 26.0349 37.1524C26.0214 37.1048 26.0548 37.0865 26.0472 37.0485C26.0424 37.0238 25.9522 36.9769 25.962 36.9642C25.9945 36.9218 26.1296 36.9683 26.0414 36.8695C26.0226 36.8484 25.9184 36.8086 26.0135 36.8133C26.0195 36.8136 26.1036 36.8238 26.0655 36.7868C26.0607 36.7822 26.0317 36.7679 26.0304 36.7642C26.0227 36.7402 26.0511 36.7409 26.0488 36.7178C26.0465 36.6947 26.0405 36.6653 26.0603 36.65C26.0722 36.6408 26.1339 36.652 26.15 36.6527C26.1962 36.6552 26.1425 36.6067 26.1936 36.6194C26.2451 36.6321 26.3056 36.687 26.3488 36.6749C26.274 36.6366 26.1978 36.5961 26.1228 36.557C26.1547 36.4994 26.2077 36.4535 26.2336 36.3928C26.2368 36.3852 26.1925 36.3727 26.1949 36.364C26.2048 36.3277 26.248 36.3131 26.2535 36.2731C26.2577 36.242 26.2292 36.1916 26.2322 36.1584C26.3268 36.1841 26.318 36.1284 26.3407 36.1023C26.3486 36.0932 26.3713 36.1053 26.3825 36.1015C26.4242 36.0871 26.3415 36.0626 26.3333 36.0489C26.2986 35.9905 26.4724 36.073 26.4875 36.0318C26.4883 36.0297 26.409 35.9589 26.405 35.9526C26.3786 35.9119 26.4388 35.9647 26.4524 35.9542C26.4773 35.9351 26.508 35.9284 26.4958 35.8854C26.4921 35.8728 26.4451 35.8236 26.4977 35.8288C26.5046 35.8294 26.5344 35.8457 26.537 35.8448C26.5826 35.8273 26.4876 35.7792 26.4644 35.7447C26.4412 35.7103 26.5212 35.7145 26.543 35.7181C26.5996 35.7273 26.5583 35.7401 26.5627 35.7433C26.6153 35.7814 26.6157 35.7558 26.6284 35.7423C26.7231 35.7864 26.7285 35.7614 26.6412 35.7282C26.6316 35.7246 26.6342 35.7412 26.6284 35.7423C26.5434 35.6829 26.5437 35.6528 26.6429 35.6683C26.6893 35.6757 26.7303 35.7108 26.7321 35.664C26.733 35.6429 26.6652 35.6177 26.6552 35.5936C26.6324 35.5388 26.7151 35.5231 26.7235 35.4823C26.7265 35.4675 26.6849 35.4628 26.6858 35.4521C26.688 35.4236 26.7248 35.4158 26.7231 35.3852C26.7229 35.3824 26.6833 35.3694 26.6865 35.3617C26.7101 35.3034 26.758 35.2661 26.7877 35.2078C26.802 35.1795 26.8068 35.1187 26.8254 35.0914C26.8575 35.0439 26.9422 35.0078 26.9507 34.9578C26.9564 34.9253 26.9164 34.9132 26.8973 34.8886C26.8601 34.841 26.9681 34.8427 26.9844 34.8439C26.9849 34.8439 26.9815 34.8726 27.0069 34.869C27.0502 34.881 26.9844 34.8442 26.9844 34.8439C26.9949 34.8445 27.0275 34.7999 27.0252 34.7867C27.0239 34.7795 26.9875 34.7651 26.9875 34.7617C26.9885 34.681 27.0119 34.6113 27.061 34.5532C27.0623 34.5524 27.1006 34.5735 27.1031 34.5714C27.1395 34.5417 27.1038 34.4935 27.091 34.4478C27.0782 34.4021 27.1001 34.3818 27.1766 34.3964C27.1799 34.3684 27.2265 34.3489 27.2543 34.3381C27.2821 34.3274 27.2072 34.2869 27.2066 34.2844C27.1851 34.2066 27.2442 34.197 27.2787 34.1443C27.2952 34.1193 27.3103 34.0611 27.3163 34.0281C27.3209 34.002 27.3455 33.9971 27.3445 33.9704C27.3444 33.9669 27.309 33.9529 27.3081 33.9514C27.2792 33.9079 27.3565 33.9602 27.3737 33.9627C27.4363 33.9718 27.4703 33.9752 27.4599 33.9326C27.4575 33.9228 27.348 33.8436 27.3473 33.8275C27.3466 33.8067 27.3863 33.8341 27.3844 33.8118C27.3843 33.8099 27.3578 33.7971 27.3642 33.7871C27.3936 33.7404 27.4355 33.6943 27.4582 33.6419C27.4614 33.6348 27.4151 33.623 27.419 33.6124C27.4375 33.5626 27.4647 33.5114 27.5072 33.475C27.5178 33.4661 27.5436 33.4877 27.5535 33.4896C27.6137 33.5005 27.5478 33.4412 27.5481 33.4369C27.5531 33.3342 27.6544 33.3039 27.664 33.2014C27.6644 33.1958 27.6002 33.1191 27.6786 33.1378C27.6838 33.1391 27.7637 33.1588 27.7214 33.1203C27.7188 33.1179 27.6768 33.1095 27.6891 33.094C27.7015 33.0786 27.6905 33.0385 27.743 33.0348C27.7596 33.0337 27.8403 33.0514 27.7941 33.0006C27.7909 32.9971 27.6786 32.8983 27.774 32.9302C27.7897 32.9354 27.8832 32.9844 27.848 32.9335C27.8412 32.9238 27.8155 32.9226 27.809 32.9026C27.799 32.8719 27.8378 32.857 27.8083 32.8107C27.8031 32.8026 27.7483 32.7519 27.8045 32.7609C27.8133 32.7623 27.8426 32.7824 27.8501 32.7762C27.8859 32.7465 27.8845 32.6962 27.9254 32.6684C27.9399 32.6586 27.9874 32.6908 28.0082 32.6833C28.0289 32.6758 28.0563 32.6536 28.0403 32.6271C28.0244 32.6007 27.935 32.5767 27.9396 32.5511C27.9594 32.4399 28.0548 32.3673 28.1098 32.2737C28.118 32.2598 28.083 32.2573 28.093 32.2358C28.1295 32.1566 28.1691 32.008 28.2645 31.9708C28.341 31.9409 28.3448 32.028 28.3855 31.9964C28.4051 31.9811 28.3213 31.9126 28.3207 31.9063C28.3139 31.8441 28.372 31.8319 28.3802 31.783C28.3819 31.7729 28.3393 31.7625 28.3412 31.7542C28.3472 31.7253 28.3776 31.7069 28.3866 31.681C28.3905 31.6693 28.3602 31.6568 28.3675 31.6478C28.3845 31.6262 28.4074 31.611 28.4464 31.6011C28.45 31.6002 28.4792 31.6326 28.4894 31.6155C28.5058 31.5876 28.5506 31.5652 28.5391 31.5181C28.5356 31.5041 28.4689 31.4706 28.5256 31.4723C28.5374 31.4726 28.6149 31.5181 28.5578 31.459C28.5483 31.4492 28.4752 31.3613 28.5456 31.3709C28.5642 31.3734 28.6367 31.3922 28.6322 31.3752C28.6314 31.3728 28.5922 31.3615 28.5936 31.3499C28.599 31.3095 28.6208 31.2751 28.6272 31.234C28.6288 31.2229 28.5846 31.2187 28.5882 31.2028C28.5981 31.1593 28.6316 31.1154 28.6621 31.0831C28.6734 31.0712 28.6994 31.0961 28.7033 31.0968C28.7659 31.1073 28.6971 31.0612 28.6956 31.0536C28.6867 31.007 28.734 30.9983 28.7403 30.9625C28.7422 30.9527 28.704 30.9415 28.7018 30.9382C28.68 30.9053 28.7365 30.9497 28.749 30.9419C28.7843 30.9201 28.7989 30.8835 28.8102 30.8493C28.8143 30.8368 28.7671 30.8298 28.7713 30.8188C28.7951 30.753 28.831 30.6902 28.8835 30.6405C28.8935 30.6312 28.9213 30.6539 28.9296 30.6551C28.9878 30.6634 28.9315 30.6055 28.9277 30.5968C28.9105 30.5569 28.943 30.5608 28.9489 30.536C28.977 30.4145 29.0618 30.2893 29.124 30.1923C29.2048 30.0657 29.286 29.9767 29.3414 29.8453C29.3449 29.837 29.2992 29.8245 29.3018 29.8171C29.3364 29.7219 29.3967 29.6411 29.4294 29.5447C29.4321 29.5369 29.3874 29.528 29.3905 29.5147C29.3965 29.4873 29.414 29.4574 29.4388 29.439C29.4509 29.43 29.4768 29.4629 29.4882 29.4535C29.5149 29.4315 29.5327 29.4026 29.5407 29.3705C29.544 29.3568 29.4944 29.3554 29.5019 29.3391C29.552 29.2279 29.5982 29.1172 29.7051 29.0326C29.7125 29.0269 29.7979 29.0609 29.7901 29.037C29.7679 29.0245 29.7411 29.0113 29.717 28.9987C29.7826 28.8331 29.889 28.6898 29.9724 28.5325C29.9759 28.5259 29.9267 28.5159 29.9332 28.503C29.9712 28.4279 29.9954 28.3488 30.0768 28.2931C30.0848 28.2876 30.1594 28.3294 30.159 28.3011C30.1588 28.2961 30.1654 28.2571 30.1531 28.2401C30.1512 28.2377 30.1124 28.2262 30.1168 28.2147C30.1429 28.1485 30.184 28.0859 30.2372 28.0333C30.2459 28.0248 30.2785 28.0545 30.285 28.0487C30.3309 28.0069 30.3298 27.9363 30.3888 27.904C30.4285 27.8824 30.4882 27.9272 30.5616 27.9417C30.572 27.9438 30.5836 27.924 30.6217 27.9416C30.7178 27.9857 30.8166 28.047 30.9196 28.0929C30.9417 28.1028 30.9319 28.0638 30.9764 28.1061C30.9793 28.1089 30.9869 28.1375 31.0023 28.1512C31.013 28.1607 31.0543 28.1735 31.0666 28.1883C31.079 28.2031 31.0431 28.1948 31.0559 28.2155C31.0689 28.2364 31.115 28.2529 31.1088 28.2784ZM27.3787 34.2895C27.4243 34.2894 27.2917 34.2203 27.314 34.2559C27.3152 34.2577 27.3765 34.2895 27.3787 34.2895ZM26.3086 36.5039C26.3795 36.5094 26.3007 36.45 26.2467 36.4442C26.1928 36.4384 26.2871 36.5023 26.3086 36.5039ZM26.2295 36.7722C26.2899 36.7675 26.102 36.669 26.1257 36.7178C26.127 36.7206 26.226 36.7725 26.2295 36.7722ZM30.5397 28.0324C30.5416 28.033 30.5506 28.0192 30.549 28.0179C30.5103 27.989 30.4923 28.0168 30.5397 28.0324ZM26.1552 37.0405C26.1852 37.0446 26.1679 37.0049 26.1306 36.9998C26.1005 36.9958 26.1178 37.0355 26.1552 37.0405ZM27.9923 33.41C27.9944 33.4107 28.0014 33.4011 27.99 33.3957C27.9533 33.3784 27.9563 33.3982 27.9923 33.41ZM25.9511 37.4581C25.9887 37.4001 26.1642 37.4406 26.1133 37.4988C26.1041 37.5093 26.0762 37.4478 26.0544 37.4563C26.0146 37.4718 26.1039 37.5394 26.0368 37.542C26.0245 37.5425 25.9486 37.4613 25.951 37.4579C25.951 37.458 25.9511 37.4581 25.9511 37.4581ZM27.5449 34.3587C27.5469 34.3592 27.5558 34.3454 27.5542 34.3442C27.5156 34.3152 27.4976 34.343 27.5449 34.3587ZM28.3803 32.8348C28.3844 32.8359 28.4048 32.8037 28.4018 32.8009C28.341 32.7487 28.2997 32.8137 28.3803 32.8348ZM27.1555 35.3918C27.1904 35.429 27.186 35.4505 27.1259 35.4366C27.1366 35.4222 27.1449 35.4064 27.1555 35.3918Z" fill="#16181B"/>
<path d="M21.2925 28.4088C21.2482 28.4716 21.1681 28.5319 21.1013 28.5717C21.0804 28.5842 21.0701 28.557 21.0548 28.5648C21.025 28.5801 21.0132 28.6103 20.9822 28.6239C20.9718 28.6283 20.9513 28.5895 20.9412 28.5948C20.8856 28.6241 20.853 28.6718 20.8037 28.7085C20.5607 28.8893 20.3413 29.0864 20.1133 29.2873C20.0382 29.3536 19.9253 29.4126 19.864 29.4974C19.8569 29.5073 19.888 29.5283 19.8885 29.5321C19.896 29.5904 19.8518 29.5293 19.8282 29.539C19.7347 29.5773 19.659 29.6482 19.6056 29.7217C19.583 29.7531 19.6618 29.7778 19.6055 29.7759C19.6017 29.7758 19.5809 29.7413 19.5705 29.7458C19.5471 29.7559 19.5202 29.7927 19.505 29.8035C19.4755 29.8242 19.4717 29.8287 19.4476 29.8521C19.4145 29.8838 19.3622 29.9086 19.3337 29.9497C19.3277 29.9585 19.3659 29.9771 19.3589 29.9937C19.3518 30.0104 19.3181 30.0394 19.3008 30.0433C19.2836 30.0471 19.2658 30.0203 19.2588 30.0171C19.2003 29.9894 19.2237 30.0854 19.2205 30.0915C19.1606 30.2018 19.0536 30.2407 18.9738 30.3207C18.9133 30.3815 18.8597 30.4576 18.8005 30.5137C18.7298 30.5805 18.6562 30.6234 18.5921 30.6928C18.5853 30.7001 18.6269 30.7252 18.6186 30.7342C18.5311 30.8295 18.4366 30.9167 18.323 30.9852C18.3116 30.9921 18.2941 30.951 18.2809 30.9561C18.201 30.9879 18.0548 31.0185 18.1491 31.1792C18.1063 31.212 18.0553 31.2528 17.9957 31.261C17.9573 31.2662 17.9466 31.2131 17.9334 31.2536C17.9304 31.2626 17.9662 31.2827 17.9596 31.2942C17.9316 31.3426 17.8809 31.3753 17.8575 31.4275C17.8528 31.4381 17.88 31.4611 17.8823 31.4678C17.9005 31.5226 17.8097 31.4927 17.7987 31.4949C17.7154 31.5128 17.6914 31.5626 17.6435 31.6089C17.6324 31.6196 17.6789 31.6403 17.6694 31.6518C17.6197 31.7112 17.5603 31.7648 17.492 31.8033C17.4767 31.8118 17.459 31.7722 17.4502 31.7748C17.4119 31.7865 17.4605 31.8462 17.4248 31.8585C17.4173 31.8612 17.3956 31.8338 17.392 31.832C17.3353 31.8042 17.3826 31.8766 17.3803 31.8817C17.3513 31.9468 17.2587 31.9143 17.2222 31.9685C17.2179 31.9751 17.2611 31.9939 17.2471 32.0104C17.154 32.1207 17.0378 32.2198 16.9123 32.2957C16.8928 32.3075 16.8807 32.273 16.8768 32.2712C16.8159 32.2423 16.8657 32.3129 16.8628 32.3202C16.8388 32.3768 16.7508 32.364 16.7951 32.463C16.6382 32.5799 16.5238 32.7383 16.3642 32.8505L16.3642 32.6373C16.3918 32.6766 16.4167 32.7187 16.4374 32.7648C16.4388 32.7677 16.4053 32.7934 16.4083 32.7991C16.4433 32.8674 16.4794 32.8114 16.5699 32.7893C16.5927 32.7838 16.5509 32.878 16.5482 32.8853C16.5383 32.9121 16.4855 32.9474 16.4848 32.9538C16.4802 33.0051 16.6222 32.8555 16.6538 32.8871C16.6545 32.8883 16.6236 32.911 16.6235 32.9163C16.6234 32.9329 16.6422 32.9304 16.641 32.9477C16.6381 32.9875 16.5739 33.0649 16.6432 33.0518C16.6521 33.05 16.7294 32.9619 16.7536 32.994C16.7633 33.0069 16.8144 33.0552 16.823 33.0745C16.8316 33.0938 16.7954 33.1109 16.7952 33.113C16.7975 33.1857 16.7687 33.1861 16.7353 33.2571C16.7021 33.3278 16.8209 33.1987 16.8424 33.1925C16.8638 33.1864 16.8623 33.243 16.8589 33.2598C16.8556 33.2767 16.8302 33.2852 16.8305 33.2969C16.833 33.3741 16.9095 33.2529 16.9423 33.2464C17.0198 33.2307 16.952 33.3467 16.9713 33.3841C16.9765 33.3942 16.9912 33.367 17 33.3718C17.0345 33.3914 17.0221 33.4363 17.0791 33.4408C17.0885 33.4415 17.1686 33.4111 17.1441 33.4678C17.1405 33.4759 17.1112 33.4923 17.1176 33.509C17.1271 33.5339 17.1531 33.5699 17.1792 33.5808C17.1985 33.5887 17.2206 33.5354 17.2261 33.5643C17.2285 33.5771 17.1923 33.5851 17.1986 33.6074C17.2049 33.6297 17.2424 33.6652 17.257 33.6783C17.2717 33.6914 17.2927 33.6552 17.2958 33.6544C17.3136 33.6501 17.354 33.663 17.3563 33.6653C17.4785 33.7805 17.5396 33.9381 17.671 34.0376C17.6813 34.0455 17.7055 34.0093 17.7074 34.0101C17.751 34.0285 17.6463 34.0843 17.6411 34.1329C17.6992 34.0685 17.7009 34.0924 17.7295 34.1075C17.7433 34.1147 17.7613 34.0853 17.7647 34.0838C17.8164 34.0634 17.7807 34.1208 17.774 34.1331C17.7493 34.1785 17.8019 34.1484 17.7856 34.1788C17.7694 34.2091 17.7187 34.2273 17.7401 34.2479C17.768 34.2318 17.8097 34.1589 17.8349 34.1656C17.9301 34.1905 17.9972 34.3475 18.0408 34.4005C18.0843 34.4533 18.1039 34.4649 18.1241 34.5009C18.1605 34.5659 18.1844 34.5048 18.2354 34.5168C18.2864 34.529 18.1664 34.6182 18.1485 34.6452C18.1305 34.6722 18.1585 34.6539 18.1517 34.6718C18.1448 34.6897 18.1176 34.693 18.1259 34.7106C18.1343 34.7283 18.2098 34.7238 18.238 34.7049C18.2975 34.6649 18.3338 34.5966 18.3498 34.6493C18.3507 34.6524 18.3168 34.6735 18.3216 34.6838C18.3606 34.7652 18.4218 34.829 18.4632 34.9079C18.4688 34.9188 18.4308 34.942 18.4338 34.9486C18.4643 35.0183 18.498 34.9488 18.5827 34.919C18.5003 34.9891 18.4688 35.0509 18.5064 35.0894C18.529 35.1125 18.5583 35.0753 18.5966 35.0666C18.6081 35.064 18.6014 35.103 18.62 35.0903C18.6809 35.0487 18.723 34.9762 18.7394 35.0382C18.74 35.041 18.7065 35.0635 18.7107 35.0712C18.738 35.1207 18.7962 35.0717 18.8442 35.1068C18.8818 35.1342 18.9071 35.2248 18.9388 35.2672C18.8523 35.3521 18.9069 35.3675 18.9802 35.3226C19.0019 35.3491 19.0312 35.3717 19.0463 35.4031C19.0515 35.4139 19.0214 35.4335 19.0197 35.4372C18.9931 35.4947 19.0611 35.4477 19.0685 35.4506C19.1467 35.4849 19.149 35.5744 19.2453 35.5855C19.2487 35.5858 19.3114 35.5294 19.2822 35.5872C19.2802 35.5911 19.2353 35.6005 19.2585 35.6279C19.2817 35.6552 19.2973 35.7348 19.36 35.7423C19.3752 35.7441 19.445 35.7172 19.4244 35.7722C19.4216 35.7796 19.402 35.7942 19.3958 35.807C19.3762 35.848 19.4423 35.7937 19.4037 35.8574C19.3652 35.9212 19.353 35.9857 19.4237 35.9857C19.4259 35.9858 19.482 35.9465 19.4923 35.9584C19.5088 35.9774 19.5241 36.0125 19.543 36.0308C19.552 36.0395 19.5759 36.0041 19.578 36.0051C19.6543 36.0482 19.6704 36.1171 19.7229 36.1925C19.7324 36.2064 19.8065 36.1997 19.7973 36.2543C19.7872 36.3142 19.6161 36.4341 19.7081 36.4567C19.745 36.466 19.9588 36.3106 19.9047 36.4478C20.009 36.5046 20.0345 36.628 20.149 36.6749C20.1542 36.677 20.2172 36.637 20.225 36.6463C20.2365 36.6601 20.2194 36.6911 20.2269 36.7017C20.2575 36.7469 20.3128 36.761 20.3462 36.8008C20.3589 36.8158 20.3292 36.8358 20.3443 36.8538C20.3595 36.8717 20.4033 36.85 20.4099 36.8882C20.4148 36.9172 20.3647 37.0011 20.3793 37.0314C20.4463 36.9662 20.4604 36.983 20.5052 36.993C20.5139 36.9949 20.5312 36.9662 20.5365 36.9659C20.5585 36.9642 20.5489 36.9927 20.5714 36.9894C20.5769 36.9886 20.5995 36.9662 20.6053 36.9643C20.6548 36.9474 20.6309 37.025 20.6267 37.0384C20.6108 37.0897 20.6484 37.0686 20.6487 37.0954C20.649 37.1221 20.6123 37.1184 20.6201 37.1422C20.6363 37.1916 20.682 37.2301 20.7143 37.2644C20.7273 37.278 20.7483 37.2388 20.7509 37.24C20.786 37.2598 20.7817 37.3197 20.857 37.2749C20.7209 37.4491 20.8886 37.2764 20.8968 37.3467C20.8974 37.3523 20.8279 37.4296 20.8053 37.4285C20.7826 37.4274 20.7876 37.3865 20.7543 37.3868C20.7465 37.3868 20.6554 37.4333 20.6482 37.4344C20.5917 37.443 20.698 37.33 20.7027 37.3227C20.7534 37.2434 20.652 37.2902 20.6397 37.2881C20.5834 37.2786 20.5708 37.2353 20.5266 37.2245C20.4978 37.2173 20.4242 37.2874 20.4123 37.2711C20.3725 37.2168 20.4563 37.1002 20.3252 37.1428C20.2972 37.1519 20.2281 37.2398 20.2558 37.1441C20.2576 37.138 20.2888 37.0563 20.2385 37.0774C20.2322 37.0801 20.2093 37.1031 20.205 37.1026C20.1764 37.0988 20.1838 37.0698 20.1574 37.0609C20.1311 37.0519 20.0968 37.0437 20.0845 37.0158C20.077 36.9991 20.104 36.9409 20.1086 36.9246C20.1223 36.8781 20.0554 36.9099 20.0817 36.8633C20.108 36.8164 20.1836 36.7809 20.1804 36.7304C20.1199 36.7888 20.0566 36.8476 19.9952 36.9057C19.9384 36.8447 19.8997 36.7676 19.838 36.7111C19.8303 36.7042 19.8058 36.7436 19.7967 36.737C19.7585 36.7089 19.7523 36.6572 19.7089 36.6319C19.6751 36.6124 19.6121 36.6171 19.5758 36.5978C19.6268 36.5128 19.5625 36.4946 19.5387 36.4584C19.5303 36.4458 19.5492 36.4283 19.5477 36.4149C19.5414 36.3648 19.4945 36.4381 19.4773 36.4399C19.4038 36.4471 19.537 36.3082 19.4946 36.2725C19.4924 36.2705 19.3945 36.3177 19.3865 36.3188C19.3349 36.3261 19.4081 36.2899 19.3996 36.2707C19.3841 36.2356 19.3838 36.2006 19.3329 36.1922C19.3179 36.1898 19.252 36.2143 19.2701 36.1625C19.2725 36.1557 19.2977 36.133 19.2973 36.1298C19.2885 36.0741 19.2123 36.1486 19.1684 36.1557C19.1245 36.1628 19.148 36.0824 19.1572 36.0616C19.1808 36.0077 19.1854 36.0566 19.19 36.0536C19.2449 36.018 19.2164 36.005 19.2044 35.9854C19.2759 35.9092 19.2493 35.8915 19.1916 35.9653C19.1853 35.9734 19.2045 35.9788 19.2044 35.9854C19.118 36.0439 19.0843 36.0288 19.1251 35.9342C19.1443 35.8899 19.1932 35.8648 19.1414 35.8401C19.1179 35.8288 19.0738 35.8864 19.0446 35.8849C18.9779 35.8815 18.9799 35.7886 18.9363 35.76C18.9205 35.7496 18.9054 35.7902 18.8937 35.784C18.8624 35.7678 18.8623 35.726 18.8277 35.7128C18.8246 35.7117 18.8007 35.7461 18.7929 35.739C18.7333 35.6862 18.703 35.6185 18.6447 35.5593C18.6166 35.5307 18.5498 35.496 18.5236 35.4634C18.4781 35.407 18.4578 35.3019 18.404 35.2687C18.369 35.2469 18.3461 35.2823 18.3141 35.29C18.2521 35.305 18.2795 35.1945 18.2846 35.1782C18.2848 35.1777 18.3161 35.1952 18.318 35.1673C18.3416 35.1285 18.285 35.1784 18.2846 35.1782C18.2878 35.1676 18.2456 35.1122 18.2304 35.1081C18.222 35.1059 18.1974 35.1364 18.1936 35.1348C18.1036 35.0942 18.0312 35.0359 17.9779 34.9568C17.9773 34.9551 18.01 34.9259 18.0082 34.9223C17.9836 34.8702 17.9213 34.8835 17.8672 34.8743C17.8132 34.8651 17.7957 34.8326 17.83 34.7608C17.7995 34.7437 17.7887 34.686 17.7833 34.6521C17.7778 34.6182 17.7149 34.6756 17.712 34.675C17.62 34.6591 17.6232 34.5934 17.5725 34.5321C17.5485 34.5028 17.4869 34.4586 17.4515 34.4364C17.4234 34.4189 17.4238 34.391 17.3938 34.379C17.3897 34.3774 17.3658 34.407 17.3639 34.4072C17.3084 34.4158 17.3851 34.3616 17.392 34.3451C17.417 34.285 17.4287 34.2516 17.3787 34.2415C17.3672 34.2392 17.2528 34.3132 17.2347 34.3061C17.2113 34.2967 17.2513 34.2691 17.2259 34.2601C17.2238 34.2593 17.2032 34.2805 17.1935 34.2689C17.1483 34.2157 17.1068 34.1499 17.0535 34.1009C17.0463 34.0941 17.0222 34.1361 17.0113 34.1268C16.96 34.0834 16.9093 34.0302 16.8786 33.9686C16.8712 33.9533 16.9014 33.9373 16.9058 33.928C16.9323 33.8713 16.8504 33.9102 16.8457 33.9078C16.7322 33.8523 16.7221 33.733 16.61 33.6729C16.6038 33.6697 16.5029 33.6984 16.5424 33.6267C16.545 33.6219 16.5858 33.5492 16.5329 33.574C16.5296 33.5755 16.5103 33.6147 16.4959 33.5944C16.4816 33.5741 16.4342 33.5657 16.4425 33.5098C16.4451 33.4921 16.484 33.4176 16.4163 33.4403C16.4117 33.442 16.2748 33.5095 16.3329 33.4266C16.3425 33.413 16.4192 33.3405 16.3541 33.3519C16.3415 33.3542 16.3342 33.3801 16.3103 33.377C16.2736 33.3723 16.2662 33.3249 16.2075 33.3327C16.1972 33.3341 16.1277 33.3659 16.1509 33.3123C16.1546 33.3039 16.184 33.2835 16.1788 33.2727C16.1541 33.2213 16.0976 33.1981 16.0762 33.1422C16.0686 33.1225 16.1158 33.0893 16.1123 33.0642C16.1088 33.0391 16.0905 33 16.0572 33.0035C16.0238 33.007 15.976 33.0874 15.9485 33.0702C15.9449 33.068 15.9415 33.0657 15.938 33.0634L15.622 32.6969L15.938 32.4244C16.0141 32.3118 16.1432 32.2539 16.2428 32.165C16.258 32.1514 16.2231 32.1404 16.2439 32.1187C16.3204 32.0388 16.434 31.8822 16.5507 31.8631C16.6441 31.8477 16.6054 31.9459 16.6629 31.9203C16.6905 31.9078 16.6376 31.8115 16.6401 31.8043C16.6636 31.7331 16.7295 31.7333 16.7619 31.6806C16.7686 31.6697 16.7298 31.6481 16.7358 31.6392C16.7561 31.6083 16.7965 31.595 16.8184 31.5681C16.8282 31.556 16.8031 31.5349 16.815 31.5266C16.8431 31.5065 16.8741 31.4948 16.9193 31.4929C16.9234 31.4928 16.9377 31.536 16.9566 31.5192C16.9871 31.4919 17.0443 31.4774 17.0555 31.4221C17.0587 31.4056 17.0064 31.3525 17.064 31.3677C17.0761 31.3709 17.1338 31.4399 17.1037 31.3605C17.0988 31.3472 17.0664 31.2319 17.1343 31.2592C17.1522 31.2663 17.2178 31.3045 17.2215 31.2845C17.2218 31.2816 17.187 31.2596 17.1941 31.2471C17.2195 31.2032 17.2588 31.1699 17.2855 31.1254C17.2926 31.1135 17.2491 31.0983 17.2606 31.0815C17.2921 31.0351 17.3482 30.994 17.3954 30.9651C17.4129 30.9545 17.4275 30.9885 17.4312 30.9901C17.4906 31.0167 17.4423 30.9489 17.4443 30.9401C17.458 30.8859 17.5111 30.8874 17.5351 30.8489C17.5418 30.8383 17.508 30.8168 17.5073 30.8126C17.501 30.7707 17.5374 30.8337 17.5542 30.8279C17.6012 30.8118 17.6342 30.7744 17.6626 30.7389C17.673 30.7258 17.6277 30.7069 17.6374 30.6956C17.6942 30.6277 17.762 30.566 17.8405 30.5229C17.8554 30.5149 17.8729 30.5468 17.8809 30.55C17.9368 30.5731 17.9071 30.4951 17.9075 30.4844C17.9093 30.4358 17.9409 30.4479 17.9591 30.4215C18.0476 30.2924 18.1964 30.1726 18.308 30.0788C18.4533 29.9565 18.5807 29.8762 18.7022 29.7425C18.7099 29.734 18.6689 29.7093 18.6751 29.7016C18.7575 29.6034 18.8592 29.5274 18.9401 29.4274C18.9468 29.4193 18.905 29.3988 18.9147 29.3847C18.9344 29.3555 18.967 29.3263 19.0017 29.3115C19.0185 29.3043 19.0291 29.3472 19.0455 29.3393C19.0838 29.3211 19.1163 29.2931 19.1403 29.2591C19.1504 29.2445 19.0999 29.2313 19.1156 29.2148C19.2217 29.1024 19.3236 28.9895 19.4753 28.9204C19.4857 28.9156 19.5572 28.9738 19.5609 28.9453C19.5441 28.9261 19.5229 28.905 19.5042 28.8852C19.6529 28.7158 19.8329 28.5807 19.9959 28.4246C20.0028 28.418 19.9568 28.3953 19.97 28.3824C20.0458 28.3075 20.1095 28.2248 20.2208 28.1818C20.2318 28.1775 20.2882 28.2418 20.3016 28.2102C20.3039 28.2045 20.3298 28.1625 20.3255 28.1406C20.3247 28.1374 20.2903 28.1155 20.3005 28.1037C20.3598 28.0358 20.4328 27.9756 20.5135 27.9294C20.5266 27.9219 20.5457 27.9629 20.5553 27.9579C20.623 27.922 20.6565 27.8429 20.7332 27.8207C20.7847 27.806 20.8243 27.8701 20.893 27.9036C20.9027 27.9083 20.9243 27.8889 20.9551 27.9176C21.0325 27.9896 21.1044 28.0814 21.1881 28.1569C21.2062 28.1732 21.2151 28.1273 21.2403 28.185C21.242 28.1889 21.2358 28.2226 21.245 28.2416C21.2513 28.2547 21.2877 28.2788 21.2932 28.2982C21.2986 28.3176 21.2657 28.2999 21.2687 28.3261C21.272 28.3524 21.3115 28.3817 21.2925 28.4088ZM17.7582 34.4999C17.7689 34.4528 17.6604 34.5559 17.7054 34.5503C17.7077 34.5499 17.7577 34.5023 17.7582 34.4999ZM19.9798 36.6881C20.0026 36.6177 19.9177 36.6699 19.8985 36.7228C19.8793 36.7756 19.9729 36.7095 19.9798 36.6881ZM20.2609 36.9011C20.2698 36.8365 20.1155 36.9821 20.1756 36.9816C20.1791 36.9816 20.2604 36.9049 20.2609 36.9011ZM20.8259 27.9997C20.8276 28.0009 20.8437 27.9875 20.8426 27.9858C20.8169 27.9443 20.7847 27.9711 20.8259 27.9997ZM20.5431 37.1092C20.5547 37.0802 20.5063 37.0786 20.4918 37.1147C20.4802 37.1436 20.5287 37.1453 20.5431 37.1092ZM16.9205 33.4364C16.9218 33.4346 16.9126 33.4226 16.9039 33.4317C16.8759 33.4611 16.8987 33.4677 16.9205 33.4364ZM20.9615 37.5242C20.9056 37.457 20.9921 37.2958 21.0452 37.3768C21.0548 37.3915 20.9795 37.3901 20.9838 37.4167C20.9917 37.4654 21.0883 37.4064 21.0755 37.4769C21.0731 37.4897 20.9644 37.5283 20.9612 37.5242C20.9613 37.5242 20.9614 37.5242 20.9615 37.5242ZM17.8747 34.3624C17.8758 34.3607 17.8625 34.3447 17.8607 34.3457C17.8192 34.3714 17.846 34.4036 17.8747 34.3624ZM16.3694 32.7546C16.3715 32.7508 16.3404 32.714 16.3365 32.7157C16.2639 32.7529 16.3267 32.8273 16.3694 32.7546ZM18.9371 35.27C18.9868 35.2522 19.0099 35.2673 18.9802 35.3225C18.9666 35.3044 18.951 35.2881 18.9371 35.27ZM35.2678 37.079C35.3121 37.0162 35.3921 36.9559 35.459 36.9161C35.4799 36.9036 35.4902 36.9308 35.5054 36.923C35.5353 36.9077 35.5471 36.8775 35.5781 36.8639C35.5885 36.8595 35.6089 36.8984 35.6191 36.893C35.6747 36.8637 35.7073 36.816 35.7566 36.7793C35.9996 36.5985 36.219 36.4014 36.447 36.2005C36.5221 36.1342 36.635 36.0752 36.6963 35.9904C36.7034 35.9805 36.6723 35.9595 36.6718 35.9557C36.6643 35.8974 36.7085 35.9585 36.7321 35.9488C36.8256 35.9105 36.9013 35.8396 36.9547 35.7661C36.9774 35.7347 36.8985 35.71 36.9548 35.7119C36.9586 35.712 36.9794 35.7465 36.9898 35.742C37.0132 35.7319 37.0401 35.6951 37.0553 35.6843C37.0848 35.6636 37.0886 35.6591 37.1127 35.6357C37.1458 35.604 37.1981 35.5792 37.2266 35.5381C37.2326 35.5293 37.1944 35.5107 37.2014 35.4941C37.2085 35.4774 37.2422 35.4484 37.2595 35.4446C37.2768 35.4407 37.2945 35.4675 37.3015 35.4707C37.3601 35.4984 37.3366 35.4024 37.3398 35.3963C37.3997 35.286 37.5067 35.2471 37.5865 35.1671C37.647 35.1063 37.7006 35.0302 37.7598 34.9741C37.8305 34.9073 37.9041 34.8644 37.9683 34.795C37.9751 34.7877 37.9335 34.7626 37.9417 34.7536C38.0293 34.6583 38.1237 34.5711 38.2373 34.5026C38.2487 34.4957 38.2662 34.5368 38.2794 34.5317C38.3593 34.4999 38.5055 34.4693 38.4112 34.3087C38.454 34.2758 38.5051 34.235 38.5646 34.2269C38.603 34.2216 38.6137 34.2747 38.6269 34.2342C38.6299 34.2252 38.5941 34.2051 38.6007 34.1936C38.6287 34.1452 38.6795 34.1126 38.7028 34.0604C38.7075 34.0497 38.6804 34.0267 38.678 34.0201C38.6598 33.9653 38.7506 33.9951 38.7617 33.9929C38.8449 33.975 38.869 33.9252 38.9168 33.879C38.928 33.8682 38.8814 33.8475 38.8909 33.836C38.9407 33.7766 39 33.723 39.0684 33.6845C39.0836 33.6761 39.1014 33.7156 39.1101 33.713C39.1484 33.7013 39.0999 33.6416 39.1356 33.6293C39.143 33.6266 39.1647 33.654 39.1683 33.6558C39.225 33.6836 39.1777 33.6112 39.1801 33.6061C39.209 33.541 39.3016 33.5735 39.3382 33.5193C39.3425 33.5127 39.2992 33.4939 39.3132 33.4774C39.4064 33.3671 39.5225 33.268 39.648 33.1921C39.6675 33.1803 39.6796 33.2148 39.6835 33.2167C39.7445 33.2455 39.6947 33.1749 39.6975 33.1676C39.7215 33.111 39.8096 33.1238 39.7653 33.0248C39.9221 32.9079 40.0365 32.7495 40.1962 32.6373V32.8505C40.1685 32.8112 40.1437 32.7691 40.1229 32.723C40.1215 32.7201 40.155 32.6944 40.1521 32.6887C40.117 32.6204 40.0809 32.6764 39.9904 32.6985C39.9677 32.704 40.0095 32.6098 40.0121 32.6025C40.022 32.5757 40.0749 32.5404 40.0756 32.534C40.0801 32.4827 39.9382 32.6323 39.9066 32.6007C39.9058 32.5995 39.9368 32.5768 39.9368 32.5715C39.937 32.5549 39.9181 32.5574 39.9193 32.5401C39.9223 32.5003 39.9865 32.4229 39.9171 32.436C39.9082 32.4378 39.831 32.5259 39.8067 32.4938C39.7971 32.4809 39.7459 32.4326 39.7374 32.4133C39.7288 32.394 39.765 32.377 39.7651 32.3748C39.7629 32.3021 39.7917 32.3017 39.825 32.2307C39.8582 32.16 39.7395 32.2891 39.718 32.2953C39.6965 32.3014 39.6981 32.2448 39.7014 32.228C39.7048 32.2111 39.7301 32.2026 39.7299 32.1909C39.7274 32.1137 39.6509 32.2349 39.6181 32.2415C39.5406 32.2571 39.6084 32.1411 39.589 32.1038C39.5838 32.0937 39.5691 32.1208 39.5603 32.116C39.5258 32.0964 39.5383 32.0515 39.4812 32.047C39.4719 32.0463 39.3918 32.0767 39.4162 32.02C39.4198 32.0119 39.4492 31.9955 39.4428 31.9788C39.4333 31.9539 39.4073 31.9179 39.3811 31.9071C39.3618 31.8991 39.3397 31.9525 39.3342 31.9235C39.3318 31.9107 39.3681 31.9027 39.3617 31.8804C39.3554 31.8581 39.318 31.8226 39.3033 31.8095C39.2887 31.7964 39.2676 31.8326 39.2646 31.8334C39.2467 31.8377 39.2063 31.8249 39.204 31.8225C39.0819 31.7073 39.0208 31.5497 38.8893 31.4502C38.879 31.4423 38.8549 31.4786 38.853 31.4777C38.8093 31.4593 38.914 31.4035 38.9192 31.355C38.8611 31.4193 38.8594 31.3955 38.8308 31.3803C38.817 31.3731 38.799 31.4025 38.7956 31.404C38.744 31.4244 38.7796 31.367 38.7864 31.3547C38.811 31.3093 38.7584 31.3394 38.7748 31.309C38.791 31.2787 38.8416 31.2605 38.8202 31.24C38.7924 31.256 38.7506 31.3289 38.7254 31.3222C38.6303 31.2973 38.5631 31.1403 38.5195 31.0873C38.476 31.0345 38.4564 31.023 38.4362 30.987C38.3999 30.9219 38.3759 30.983 38.325 30.971C38.2739 30.9589 38.3939 30.8696 38.4118 30.8426C38.4299 30.8156 38.4019 30.8339 38.4087 30.816C38.4155 30.7981 38.4428 30.7948 38.4344 30.7772C38.426 30.7595 38.3505 30.764 38.3224 30.7829C38.2628 30.8229 38.2265 30.8912 38.2105 30.8385C38.2096 30.8354 38.2435 30.8143 38.2388 30.804C38.1997 30.7226 38.1385 30.6588 38.0972 30.5799C38.0915 30.5691 38.1295 30.5458 38.1266 30.5392C38.096 30.4695 38.0623 30.539 37.9776 30.5689C38.06 30.4987 38.0915 30.4369 38.0539 30.3984C38.0314 30.3753 38.002 30.4125 37.9637 30.4212C37.9522 30.4239 37.9589 30.3848 37.9403 30.3975C37.8794 30.4391 37.8373 30.5117 37.821 30.4496C37.8203 30.4468 37.8538 30.4243 37.8496 30.4166C37.8223 30.3671 37.7641 30.4161 37.7161 30.381C37.6785 30.3536 37.6533 30.263 37.6215 30.2206C37.708 30.1357 37.6534 30.1203 37.5801 30.1652C37.5584 30.1388 37.5291 30.1161 37.514 30.0847C37.5088 30.0739 37.5389 30.0543 37.5406 30.0506C37.5672 29.9931 37.4992 30.0402 37.4918 30.0372C37.4136 30.0029 37.4113 29.9134 37.315 29.9023C37.3116 29.902 37.2489 29.9585 37.2781 29.9006C37.2802 29.8967 37.325 29.8873 37.3018 29.86C37.2787 29.8326 37.263 29.753 37.2003 29.7456C37.1852 29.7437 37.1153 29.7706 37.1359 29.7156C37.1387 29.7082 37.1583 29.6936 37.1645 29.6808C37.1841 29.6398 37.118 29.6941 37.1566 29.6304C37.1951 29.5667 37.2073 29.5022 37.1366 29.5021C37.1344 29.502 37.0784 29.5413 37.068 29.5294C37.0515 29.5104 37.0362 29.4753 37.0174 29.4571C37.0083 29.4483 36.9844 29.4837 36.9823 29.4827C36.906 29.4396 36.8899 29.3707 36.8374 29.2953C36.8279 29.2814 36.7538 29.2881 36.763 29.2335C36.7731 29.1736 36.9442 29.0537 36.8522 29.0311C36.8153 29.0218 36.6015 29.1772 36.6556 29.04C36.5513 28.9832 36.5258 28.8598 36.4113 28.8129C36.4061 28.8108 36.3431 28.8508 36.3353 28.8416C36.3238 28.8277 36.3409 28.7967 36.3334 28.7861C36.3028 28.7409 36.2475 28.7268 36.2141 28.687C36.2014 28.672 36.2311 28.652 36.216 28.634C36.2008 28.6161 36.157 28.6379 36.1504 28.5996C36.1455 28.5706 36.1956 28.4867 36.1809 28.4564C36.114 28.5216 36.0999 28.5048 36.055 28.4948C36.0464 28.493 36.029 28.5216 36.0238 28.5219C36.0018 28.5236 36.0114 28.4951 35.9889 28.4984C35.9834 28.4992 35.9608 28.5216 35.955 28.5235C35.9055 28.5405 35.9294 28.4628 35.9336 28.4494C35.9495 28.3981 35.9119 28.4192 35.9116 28.3924C35.9112 28.3657 35.948 28.3694 35.9402 28.3456C35.924 28.2962 35.8783 28.2577 35.846 28.2234C35.833 28.2098 35.8119 28.249 35.8094 28.2478C35.7743 28.228 35.7785 28.1681 35.7033 28.2129C35.8394 28.0387 35.6717 28.2114 35.6635 28.1411C35.6629 28.1355 35.7324 28.0582 35.755 28.0593C35.7776 28.0604 35.7727 28.1013 35.806 28.101C35.8138 28.101 35.9049 28.0546 35.9121 28.0534C35.9686 28.0448 35.8623 28.1578 35.8575 28.1651C35.8069 28.2444 35.9083 28.1976 35.9206 28.1997C35.9769 28.2092 35.9894 28.2525 36.0337 28.2633C36.0625 28.2705 36.1361 28.2004 36.148 28.2168C36.1877 28.271 36.1039 28.3876 36.2351 28.345C36.2631 28.3359 36.3322 28.248 36.3045 28.3437C36.3027 28.3498 36.2715 28.4315 36.3218 28.4104C36.3281 28.4077 36.351 28.3848 36.3553 28.3852C36.3839 28.389 36.3765 28.418 36.4029 28.427C36.4292 28.4359 36.4635 28.4441 36.4758 28.472C36.4833 28.4887 36.4563 28.5469 36.4517 28.5632C36.438 28.6097 36.5049 28.578 36.4786 28.6245C36.4523 28.6714 36.3767 28.7069 36.3799 28.7574C36.4404 28.699 36.5037 28.6402 36.5651 28.5821C36.6219 28.6431 36.6606 28.7202 36.7223 28.7767C36.73 28.7837 36.7545 28.7442 36.7636 28.7508C36.8018 28.7789 36.808 28.8306 36.8514 28.8559C36.8852 28.8754 36.9482 28.8707 36.9845 28.89C36.9335 28.975 36.9978 28.9932 37.0216 29.0294C37.03 29.042 37.0111 29.0595 37.0126 29.0729C37.0189 29.123 37.0658 29.0497 37.083 29.048C37.1565 29.0407 37.0233 29.1796 37.0657 29.2153C37.0679 29.2173 37.1658 29.1701 37.1738 29.169C37.2254 29.1617 37.1522 29.1979 37.1607 29.2172C37.1762 29.2523 37.1765 29.2872 37.2274 29.2956C37.2424 29.298 37.3083 29.2735 37.2902 29.3253C37.2878 29.3321 37.2626 29.3549 37.263 29.358C37.2718 29.4137 37.348 29.3392 37.3919 29.3321C37.4358 29.325 37.4123 29.4055 37.4031 29.4262C37.3795 29.4801 37.3749 29.4312 37.3703 29.4342C37.3154 29.4698 37.3439 29.4828 37.356 29.5024C37.2844 29.5786 37.311 29.5963 37.3687 29.5225C37.375 29.5144 37.3558 29.509 37.356 29.5024C37.4423 29.4439 37.476 29.459 37.4352 29.5536C37.416 29.5979 37.3671 29.623 37.4189 29.6478C37.4424 29.659 37.4865 29.6015 37.5157 29.6029C37.5824 29.6063 37.5804 29.6992 37.624 29.7278C37.6398 29.7382 37.6549 29.6976 37.6666 29.7038C37.698 29.72 37.698 29.7618 37.7326 29.775C37.7358 29.7761 37.7596 29.7417 37.7674 29.7488C37.827 29.8016 37.8574 29.8693 37.9156 29.9285C37.9437 29.9572 38.0105 29.9918 38.0367 30.0244C38.0822 30.0808 38.1025 30.1859 38.1563 30.2191C38.1913 30.2409 38.2142 30.2055 38.2463 30.1978C38.3082 30.1828 38.2808 30.2933 38.2757 30.3096C38.2756 30.3101 38.2443 30.2926 38.2423 30.3206C38.2188 30.3593 38.2753 30.3095 38.2757 30.3096C38.2725 30.3202 38.3147 30.3756 38.33 30.3797C38.3383 30.3819 38.3629 30.3514 38.3668 30.353C38.4567 30.3936 38.5291 30.4519 38.5824 30.531C38.583 30.5328 38.5503 30.5619 38.5522 30.5655C38.5767 30.6176 38.6391 30.6043 38.6931 30.6135C38.7471 30.6227 38.7647 30.6553 38.7303 30.727C38.7608 30.7441 38.7716 30.8018 38.7771 30.8357C38.7825 30.8696 38.8454 30.8122 38.8483 30.8128C38.9404 30.8287 38.9372 30.8944 38.9879 30.9558C39.0118 30.985 39.0734 31.0292 39.1088 31.0514C39.1369 31.0689 39.1366 31.0968 39.1666 31.1088C39.1706 31.1104 39.1945 31.0808 39.1964 31.0806C39.2519 31.072 39.1752 31.1262 39.1683 31.1427C39.1434 31.2028 39.1316 31.2362 39.1816 31.2463C39.1931 31.2486 39.3075 31.1746 39.3256 31.1817C39.349 31.1911 39.3091 31.2187 39.3344 31.2277C39.3366 31.2285 39.3571 31.2073 39.3668 31.2189C39.412 31.2721 39.4536 31.3379 39.5068 31.3869C39.514 31.3937 39.5381 31.3517 39.549 31.361C39.6003 31.4044 39.651 31.4576 39.6817 31.5192C39.6892 31.5345 39.6589 31.5505 39.6545 31.5598C39.6281 31.6166 39.71 31.5776 39.7147 31.58C39.8282 31.6355 39.8382 31.7548 39.9504 31.8149C39.9566 31.8181 40.0574 31.7894 40.018 31.8611C40.0154 31.8659 39.9745 31.9386 40.0274 31.9139C40.0307 31.9123 40.0501 31.8731 40.0644 31.8934C40.0788 31.9137 40.1262 31.9221 40.1178 31.978C40.1153 31.9957 40.0764 32.0702 40.1441 32.0475C40.1487 32.0458 40.2856 31.9784 40.2275 32.0612C40.2179 32.0748 40.1412 32.1473 40.2063 32.1359C40.2188 32.1336 40.2261 32.1077 40.25 32.1108C40.2867 32.1155 40.2942 32.1629 40.3529 32.1551C40.3632 32.1537 40.4327 32.1219 40.4094 32.1755C40.4058 32.1839 40.3764 32.2043 40.3816 32.2151C40.4063 32.2665 40.4628 32.2897 40.4842 32.3456C40.4918 32.3653 40.4445 32.3986 40.448 32.4236C40.4515 32.4487 40.4699 32.4878 40.5032 32.4843C40.5365 32.4808 40.5844 32.4004 40.6119 32.4176C40.6154 32.4198 40.6189 32.4221 40.6223 32.4244L40.9384 32.791L40.6223 33.0634C40.5463 33.176 40.4172 33.2339 40.3176 33.3228C40.3024 33.3364 40.3373 33.3474 40.3165 33.3691C40.2399 33.449 40.1264 33.6056 40.0097 33.6248C39.9162 33.6401 39.9549 33.5419 39.8975 33.5675C39.8698 33.58 39.9227 33.6763 39.9202 33.6835C39.8968 33.7547 39.8308 33.7545 39.7984 33.8072C39.7917 33.8181 39.8306 33.8397 39.8245 33.8487C39.8042 33.8795 39.7639 33.8928 39.7419 33.9197C39.7321 33.9319 39.7572 33.9529 39.7454 33.9612C39.7173 33.9814 39.6862 33.993 39.6411 33.9949C39.6369 33.995 39.6227 33.9519 39.6038 33.9686C39.5732 33.9959 39.516 34.0104 39.5048 34.0657C39.5016 34.0822 39.554 34.1353 39.4963 34.1201C39.4843 34.1169 39.4266 34.0479 39.4566 34.1273C39.4616 34.1406 39.494 34.2559 39.426 34.2287C39.4081 34.2215 39.3425 34.1833 39.3388 34.2034C39.3385 34.2063 39.3733 34.2282 39.3662 34.2408C39.3409 34.2846 39.3015 34.3179 39.2748 34.3624C39.2678 34.3743 39.3113 34.3895 39.2998 34.4063C39.2682 34.4527 39.2122 34.4938 39.1649 34.5227C39.1474 34.5333 39.1328 34.4993 39.1292 34.4977C39.0697 34.4711 39.1181 34.5389 39.116 34.5477C39.1024 34.6019 39.0493 34.6004 39.0252 34.6389C39.0185 34.6495 39.0523 34.671 39.0531 34.6752C39.0594 34.7171 39.0229 34.6542 39.0062 34.66C38.9591 34.676 38.9261 34.7134 38.8977 34.7489C38.8873 34.762 38.9326 34.7809 38.9229 34.7922C38.8661 34.8601 38.7983 34.9218 38.7198 34.9649C38.705 34.9729 38.6874 34.941 38.6794 34.9378C38.6235 34.9147 38.6532 34.9927 38.6528 35.0034C38.651 35.052 38.6194 35.04 38.6012 35.0663C38.5127 35.1954 38.3639 35.3153 38.2523 35.409C38.107 35.5313 37.9796 35.6116 37.8581 35.7453C37.8504 35.7538 37.8914 35.7785 37.8852 35.7862C37.8028 35.8844 37.7011 35.9604 37.6202 36.0604C37.6135 36.0685 37.6553 36.089 37.6456 36.1031C37.6259 36.1323 37.5933 36.1615 37.5586 36.1763C37.5418 36.1835 37.5312 36.1406 37.5148 36.1485C37.4765 36.1667 37.444 36.1948 37.42 36.2288C37.4099 36.2433 37.4604 36.2565 37.4447 36.273C37.3386 36.3854 37.2367 36.4983 37.085 36.5674C37.0746 36.5722 37.0031 36.514 36.9994 36.5426C37.0162 36.5618 37.0374 36.5828 37.0561 36.6026C36.9074 36.7721 36.7274 36.9071 36.5644 37.0632C36.5575 37.0698 36.6035 37.0925 36.5903 37.1054C36.5144 37.1803 36.4508 37.263 36.3395 37.306C36.3285 37.3103 36.2721 37.246 36.2587 37.2777C36.2563 37.2833 36.2304 37.3253 36.2348 37.3472C36.2356 37.3504 36.2699 37.3724 36.2598 37.3841C36.2005 37.452 36.1274 37.5122 36.0467 37.5585C36.0337 37.5659 36.0146 37.5249 36.005 37.53C35.9373 37.5658 35.9038 37.6449 35.8271 37.6671C35.7756 37.6819 35.736 37.6177 35.6673 37.5842C35.6576 37.5795 35.636 37.5989 35.6052 37.5702C35.5278 37.4982 35.4559 37.4065 35.3721 37.3309C35.3541 37.3146 35.3451 37.3605 35.3199 37.3028C35.3183 37.2989 35.3244 37.2652 35.3153 37.2463C35.309 37.2331 35.2726 37.209 35.2671 37.1896C35.2616 37.1702 35.2946 37.1879 35.2916 37.1617C35.2883 37.1354 35.2488 37.1061 35.2678 37.079ZM38.8021 30.9879C38.7915 31.035 38.8999 30.9319 38.8549 30.9375C38.8526 30.9379 38.8026 30.9855 38.8021 30.9879ZM36.5805 28.7997C36.5577 28.8701 36.6426 28.8179 36.6618 28.765C36.681 28.7122 36.5874 28.7783 36.5805 28.7997ZM36.2994 28.5867C36.2905 28.6513 36.4448 28.5057 36.3847 28.5062C36.3812 28.5062 36.2999 28.5829 36.2994 28.5867ZM35.7344 37.4881C35.7327 37.4869 35.7166 37.5003 35.7176 37.5021C35.7434 37.5435 35.7756 37.5167 35.7344 37.4881ZM36.0172 28.3786C36.0056 28.4076 36.054 28.4092 36.0684 28.3732C36.08 28.3442 36.0316 28.3425 36.0172 28.3786ZM39.6399 32.0514C39.6386 32.0532 39.6477 32.0652 39.6564 32.0561C39.6844 32.0267 39.6616 32.0201 39.6399 32.0514ZM35.5988 27.9636C35.6547 28.0308 35.5681 28.192 35.5151 28.111C35.5055 28.0964 35.5808 28.0977 35.5765 28.0711C35.5685 28.0225 35.472 28.0815 35.4848 28.0109C35.4872 27.9981 35.5959 27.9595 35.5991 27.9636C35.599 27.9636 35.5989 27.9636 35.5988 27.9636ZM38.6856 31.1254C38.6846 31.1271 38.6979 31.1431 38.6996 31.1421C38.7411 31.1164 38.7143 31.0843 38.6856 31.1254ZM40.191 32.7333C40.1888 32.737 40.22 32.7738 40.2238 32.7721C40.2964 32.7349 40.2336 32.6605 40.191 32.7333ZM37.6232 30.2178C37.5735 30.2356 37.5504 30.2205 37.5801 30.1653C37.5937 30.1835 37.6093 30.1997 37.6232 30.2178Z" fill="#16181B"/>
</svg>
