<svg width="56" height="56" viewBox="0 0 56 56" fill="none" xmlns="http://www.w3.org/2000/svg">
<path d="M18.4528 44.3982C17.8928 44.3539 17.164 44.2807 16.609 44.1974C16.4356 44.1717 16.518 44.2138 16.3981 44.1963C16.1643 44.1614 15.9494 44.1013 15.719 44.0587C15.6425 44.0445 15.7267 44.1081 15.6466 44.0922C15.2073 44.0035 14.8023 43.8753 14.3683 43.7392C12.2324 43.0668 10.2778 41.9317 8.58475 40.4087C8.02523 39.9086 7.36724 39.2677 6.89254 38.6507C6.83709 38.5789 6.89978 38.5978 6.89132 38.5825C6.75941 38.3426 6.75717 38.459 6.6409 38.3253C6.18093 37.794 5.74214 37.1421 5.41734 36.5492C5.27989 36.2965 5.48569 36.5111 5.30832 36.2793C5.29613 36.263 5.29735 36.3459 5.25541 36.2788C5.15949 36.1267 5.00836 35.8232 4.94403 35.7C4.81933 35.4631 4.80067 35.4229 4.6939 35.1938C4.54829 34.8801 4.37069 34.5081 4.24794 34.1569C4.22191 34.082 4.2962 34.1661 4.25847 34.0454C4.22001 33.9248 4.10691 33.612 4.06331 33.5075C4.01907 33.4035 4.00416 33.4588 3.99106 33.442C3.88047 33.3038 3.8507 32.9081 3.84019 32.8599C3.62813 31.9785 3.43106 31.2236 3.32636 30.3776C3.2475 29.7342 3.2233 29.0443 3.22119 28.4271C3.22115 28.4201 3.22112 28.4131 3.22109 28.4062C3.21961 27.68 3.2378 27.0649 3.32859 26.363C3.33847 26.2884 3.374 26.3817 3.3863 26.291C3.51858 25.3267 3.72596 24.3815 3.99341 23.4482C4.02041 23.3544 3.94215 23.4612 3.96695 23.3666C4.11259 22.7883 4.40241 21.8723 4.7203 21.6293C4.8823 21.2604 5.10021 20.8221 5.24651 20.4893C5.34135 20.2747 5.18922 20.449 5.34986 20.21C5.38634 20.1563 5.37773 20.2488 5.42992 20.1671C5.64967 19.8234 5.8808 19.4419 6.12962 19.1233C6.18027 19.0587 6.19633 19.0975 6.21491 19.0822C6.36856 18.9532 6.49374 18.6436 6.53278 18.5834C6.82525 18.1273 7.09505 17.8357 7.43261 17.463C7.51139 17.3768 7.45302 17.5105 7.53008 17.429C7.92959 17.0066 8.35899 16.5849 8.77481 16.1948C8.86737 16.1081 8.75275 16.1539 8.79576 16.1109C8.98706 15.922 9.08184 15.9428 9.27028 15.769C9.31029 15.7325 9.26488 15.7245 9.2702 15.7154C9.35384 15.5718 9.51283 15.5563 9.54525 15.5338C9.95931 15.2502 10.1716 14.9928 10.5865 14.737C10.6362 14.7068 10.5499 14.8146 10.6881 14.7278C11.6097 14.1506 12.6332 13.6218 13.629 13.2063C13.7841 13.1418 13.6605 13.1534 13.6688 13.1458C13.8087 13.0253 13.9428 13.0682 13.9952 13.053C14.4087 12.9309 14.7757 12.7458 15.0855 12.7655C16.4915 12.3473 17.9501 12.1839 19.4062 12.1507C19.7675 12.1425 20.122 12.1419 20.4834 12.1476C20.5066 12.1481 20.4679 12.1035 20.5142 12.1047C21.0709 12.1231 20.9578 12.1815 21.3135 12.3002C21.4024 12.3301 21.6925 12.2719 21.7183 12.269C21.8116 12.2562 21.7275 12.1811 21.7583 12.1805C22.013 12.1787 21.9428 12.375 22.2745 12.4328C22.285 12.4343 22.2479 12.3891 22.2765 12.3904C22.3655 12.3943 22.4486 12.4252 22.5356 12.4289C22.7339 12.4376 22.8266 12.3533 23.1095 12.478C23.1449 12.4944 23.0625 12.5932 23.3556 12.6598C23.4726 12.6844 23.9861 12.8281 24.1294 12.8664C24.2737 12.9028 24.1873 12.8369 24.1979 12.8384C24.5973 12.912 24.4579 12.847 24.6741 12.841C24.8906 12.8375 24.7795 12.9851 24.8505 13.0307C24.9213 13.0758 25.2129 13.1402 25.2859 13.154C25.3589 13.167 25.2829 13.1117 25.3462 13.1277C25.7657 13.2375 25.4889 13.2783 25.6088 13.357C25.8886 13.5445 26.1768 13.5316 26.4579 13.6519C26.5337 13.6846 26.4603 13.682 26.5251 13.7165C26.7815 13.8539 26.9562 13.8976 27.2287 14.0886C27.2739 14.1198 27.4678 14.3176 27.6449 14.356C27.6701 14.3614 27.6267 14.2979 27.737 14.3548C27.9016 14.4393 28.1896 14.6106 28.3496 14.7295C28.4678 14.8171 28.2982 14.7686 28.4609 14.8571C28.5331 14.8967 28.4243 14.7857 28.5586 14.8628C28.6931 14.9388 29.0133 15.1677 29.132 15.2587C29.2511 15.3488 29.1613 15.3324 29.1693 15.3417C29.2189 15.3975 29.433 15.5873 29.4524 15.6033C30.4461 16.3937 31.3347 17.1794 32.1009 18.1591C32.1607 18.236 32.0867 18.2122 32.0955 18.2242C32.2886 18.4957 32.2146 18.2192 32.3887 18.3801C32.2993 18.4066 32.3973 18.5052 32.5298 18.6996C32.5934 18.7934 32.5297 18.7637 32.5331 18.774C32.5911 18.9389 32.7115 18.9956 32.74 19.0126C32.8448 19.075 32.8655 19.2082 32.9353 19.2522C33.0049 19.2966 32.9476 19.1242 33.0735 19.3126C33.0828 19.3824 32.9227 19.2882 33.0064 19.4377C33.3298 19.9958 33.9649 21.0161 34.183 21.4895C34.407 21.9561 34.4631 22.1149 34.5865 22.3901C34.8029 22.8915 34.6743 22.7272 34.7623 23.0532C34.8462 23.3816 34.9326 23.1794 34.9786 23.2154C35.0241 23.2511 35.0095 23.3114 35.0446 23.3631C35.0796 23.4148 35.0605 23.2845 35.1098 23.417C35.1605 23.5498 35.2145 23.9347 35.1949 23.9918C35.1547 24.1121 35.0396 23.9649 35.1596 24.3152C35.1664 24.3355 35.1867 24.2587 35.211 24.3368C35.4015 24.9544 35.5321 25.6181 35.6424 26.256C35.6576 26.3439 35.6902 26.2592 35.6995 26.3105C35.7916 26.8461 35.6952 26.6631 35.6429 26.9632C35.7436 26.8878 35.8284 27.0437 35.8537 27.4573C35.8674 27.7058 35.8176 27.6643 35.7907 27.8249C35.7826 27.8729 35.8195 28.0466 35.7978 28.0789C35.7288 28.1815 35.6505 28.031 35.6772 28.4062C35.6779 28.4179 35.6788 28.4302 35.6798 28.4431C35.6812 28.4616 35.721 28.4026 35.7233 28.4668C35.7348 28.8818 35.6583 28.9278 35.6259 29.371C35.6007 29.7189 35.5867 30.3401 35.5351 30.7348C35.6572 30.7429 35.573 31.1146 35.4629 31.2499C35.4216 31.505 35.362 31.7768 35.3179 32.0235C35.3027 32.1082 35.3494 32.061 35.3507 32.0724C35.3714 32.2485 35.2649 32.3389 35.2484 32.392C35.0703 32.9704 34.9832 33.4613 34.7309 33.9839C34.7218 34.0024 34.632 34.0045 34.6355 34.1701C34.6358 34.181 34.7393 34.016 34.6458 34.2712C34.5529 34.5259 34.3973 35.0182 34.2005 35.3433C34.1536 35.4223 33.9929 35.6001 33.957 35.7889C33.9524 35.8142 33.9861 35.801 33.982 35.8389C33.9677 35.9614 33.8634 35.978 33.8639 36.1315C33.8643 36.2846 33.7763 36.5637 33.5373 36.8679C33.5297 36.8777 33.4257 36.9208 33.3638 37.0238C33.2654 37.1884 33.1304 37.4253 33.0183 37.5913C32.9646 37.6708 32.9641 37.5964 32.9541 37.6098C32.573 38.1283 32.3293 38.5169 31.8986 39.0574C31.8196 39.1571 31.539 39.3932 31.4058 39.603C31.2577 39.8328 31.6024 39.7751 31.1303 40.1896C30.9368 40.3563 30.5326 40.3884 30.2898 40.7871C29.6178 41.3407 29.0165 41.8876 28.2564 42.3253C28.2222 42.3451 28.0786 42.3508 28.0012 42.4003C27.8862 42.4741 27.84 42.5421 27.7574 42.5944C27.4114 42.814 27.0689 42.9696 26.7195 43.1521C26.5864 43.2209 26.649 43.2293 26.489 43.3098C26.3288 43.3894 26.2018 43.3984 25.99 43.5178C25.8298 43.6077 25.6987 43.7673 25.4755 43.8689C25.4319 43.7853 25.2779 43.8511 24.9909 43.9307C24.9359 43.9458 24.9819 43.8943 24.9554 43.8998C24.8471 43.9216 24.7608 43.9808 24.6566 43.9974C24.6313 44.0014 24.6198 43.9716 24.5986 43.9732C24.4182 43.9858 24.165 44.1407 24.1209 44.1667C23.9526 44.2675 23.855 44.2521 23.7192 44.3094C23.583 44.3662 23.8005 44.3309 23.6382 44.3869C23.3023 44.503 22.8548 44.6016 22.5018 44.6706C22.3607 44.698 22.4491 44.6377 22.4287 44.6406C22.1361 44.6855 21.844 44.7764 21.6704 44.7149C21.4964 44.9596 21.4913 44.721 21.0751 44.8103C21.0427 44.8172 21.0099 44.9251 21.1402 44.9268C21.2709 44.9283 21.4616 44.8731 21.6418 44.8721C21.6844 44.8723 21.9386 44.9329 21.9733 44.9329C22.2401 44.9367 22.2494 44.7758 22.2614 44.7654C22.3985 44.6485 22.7069 44.6938 22.7859 44.6839C23.1447 44.6416 23.4333 44.5474 23.7298 44.4908C23.923 44.4531 23.9697 44.545 24.1177 44.4979C24.6088 44.3372 24.7305 44.1454 25.2264 44.0917C25.3327 44.0786 25.2777 44.2216 25.5931 44.0016C25.6135 43.9878 25.8374 43.809 26.0041 43.7903C26.0251 43.7881 26.0375 43.818 26.063 43.8097C26.2332 43.7535 26.3306 43.6806 26.5108 43.6085C26.6908 43.5364 26.9091 43.448 27.1001 43.3349C27.2156 43.2669 27.3366 43.132 27.3851 43.0881C27.5215 42.9639 27.7229 42.9274 27.7925 42.8261C27.8619 42.7243 27.6354 42.769 27.8675 42.5899C27.9204 42.6562 27.9867 42.7168 28.0459 42.7796C28.5973 42.4377 29.105 42.0514 29.6179 41.654C29.6815 41.6046 29.6448 41.6912 29.7137 41.6389C30.0042 41.4173 30.2271 41.1873 30.5169 40.9444C30.7411 40.7563 31.0076 40.5697 31.2332 40.3602C31.2983 40.1603 31.6357 39.8561 31.8477 39.6023C31.9221 39.5138 31.8976 39.5026 31.9452 39.4353C32.1236 39.1808 32.0934 39.3455 32.1588 39.2894C32.4372 39.0447 32.3086 38.8997 32.5732 38.5652C32.5873 38.548 32.836 38.3872 32.8636 38.3594C33.0407 38.1868 32.8587 38.306 32.9416 38.178C33.0916 37.9436 33.1806 37.7712 33.3831 37.5147C33.4422 37.4402 33.6191 37.2808 33.6725 37.0965C33.6796 37.0723 33.6436 37.0663 33.652 37.0485C33.8043 36.7288 33.8993 36.7733 34.0308 36.6138C34.1625 36.4535 34.2434 36.1411 34.253 36.0749C34.2801 35.9018 34.174 36.1775 34.1646 36.1827C34.0587 36.2463 34.1748 36.0508 34.2475 35.8932C34.1659 35.824 34.2777 35.6103 34.3227 35.7296C34.3276 35.7432 34.259 35.86 34.2475 35.8932C34.4074 35.8033 34.5385 35.5656 34.5719 35.2573C34.5866 35.1127 34.4889 35.212 34.6702 34.8355C34.7507 34.6642 34.7894 34.7592 34.8704 34.6108C35.0559 34.27 35.1607 33.777 35.2881 33.4022C35.3345 33.2661 35.3306 33.4115 35.3634 33.3188C35.4499 33.0725 35.4841 32.8428 35.5645 32.5923C35.5718 32.5696 35.5973 32.6361 35.6181 32.5572C35.7745 31.9581 35.8552 31.4225 35.9469 30.7829C35.9927 30.4749 36.0749 29.9207 36.091 29.5973C36.1128 29.2221 36.1 28.7952 36.0856 28.4062C36.0786 28.2105 36.0716 28.0269 36.0713 27.867C36.0694 27.5557 36.1122 27.6231 36.1336 27.4871C36.1756 27.223 36.0377 26.7746 36.0155 26.7164C36.0152 26.7145 36.0304 26.9818 35.9962 26.8416C35.9445 26.7634 36.0156 26.7195 36.0155 26.7164C36.0038 26.6765 35.9312 26.1444 35.9217 26.039C35.9177 25.9812 35.961 26.0076 35.9581 25.9775C35.8886 25.26 35.7478 24.5494 35.5312 23.8508C35.527 23.8387 35.4902 23.8692 35.4807 23.8405C35.3461 23.4416 35.3127 23.1683 35.2272 22.8285C35.1408 22.4895 35.0276 22.2328 34.8802 22.0713C34.7902 21.8249 34.606 21.4928 34.4951 21.307C34.3845 21.121 34.4463 21.0566 34.4396 21.0386C34.2217 20.4808 34.012 20.1994 33.6856 19.6762C33.5307 19.4263 33.2198 18.9339 33.0398 18.6707C32.899 18.462 32.7923 18.3527 32.6607 18.1614C32.6428 18.1356 32.6922 18.1374 32.6875 18.129C32.5634 17.8965 32.5672 18.0522 32.5213 18.0205C32.3535 17.9068 32.2556 17.8346 32.0632 17.5656C32.0191 17.5038 31.9731 17.2485 31.8845 17.1394C31.7695 16.9983 31.7807 17.081 31.6598 16.934C31.6493 16.9216 31.6734 16.9037 31.5915 16.8193C31.2118 16.4277 30.7698 16.0297 30.3422 15.6591C30.2837 15.6086 30.3896 15.6376 30.3051 15.564C29.9086 15.2188 29.4496 14.8678 29.0171 14.5935C28.9105 14.5261 28.9567 14.5981 28.9287 14.5905C28.7581 14.5435 28.6083 14.3421 28.5758 14.3193C27.8105 13.7758 27.1435 13.4967 26.293 13.0682C26.2478 13.0443 25.9153 12.7992 25.7197 12.8061C25.7062 12.8062 25.5136 12.8149 25.3878 12.7082C25.3799 12.7016 25.4978 12.702 25.3164 12.6377C25.1348 12.5735 24.8532 12.4438 24.5872 12.4057C24.5026 12.3934 24.2924 12.4099 24.0722 12.2796C24.0593 12.2702 23.7248 12.0269 23.5657 12.0906C23.5399 12.1014 23.5375 12.2075 23.2626 12.0859C23.2098 12.0628 23.3156 12.0632 23.1732 12.0151C22.9541 11.9412 22.6513 11.9069 22.3821 11.8113C22.3355 11.7943 22.1394 11.6876 21.9636 11.7161C21.9364 11.7205 21.9804 11.7627 21.8924 11.7535C21.4741 11.7103 21.0356 11.6383 20.6075 11.6325C20.4555 11.6307 20.5291 11.6925 20.3708 11.6983C20.2117 11.7038 19.898 11.7063 19.7334 11.6779C19.5688 11.6492 19.7511 11.5605 19.5022 11.5509C19.4702 11.5498 19.4382 11.5489 19.4062 11.5481C18.3573 11.5224 17.3214 11.6684 16.2975 11.8681C16.1412 11.8992 16.2647 11.8416 16.0341 11.8871C15.1788 12.0423 13.7294 12.4626 13.0631 12.826C12.5297 13.1088 13.2426 12.8548 12.8295 13.0539C12.631 13.1505 12.3702 13.1549 12.32 13.1749C11.8314 13.3675 11.5302 13.5782 11.1132 13.7978C11.0273 13.8435 11.0889 13.7589 11.0159 13.7985C10.7664 13.9337 10.522 14.1057 10.2927 14.2498C10.1899 14.3145 10.1907 14.275 10.0987 14.3388C9.87878 14.4918 9.69169 14.6391 9.49943 14.8174C9.48201 14.8336 9.63479 14.7721 9.47663 14.8898C9.22052 15.0809 8.92761 15.3479 8.62703 15.5604C8.53796 15.6235 8.48521 15.569 8.34199 15.7622C8.31223 15.8031 8.41789 15.8275 8.16336 15.9518C8.12053 15.9715 7.71062 16.2085 7.59777 16.4168C7.56757 16.4712 7.51217 16.6298 7.41284 16.7154C7.39912 16.7269 7.42008 16.6478 7.34152 16.723C7.06532 16.9892 6.79872 17.2901 6.53535 17.5835C6.465 17.662 6.53404 17.5149 6.43026 17.6332C6.14469 17.9583 5.82455 18.3952 5.59351 18.7493C5.50827 18.8799 5.59817 18.8112 5.59471 18.8226C5.54099 19.0065 5.4138 19.0496 5.37613 19.0974C5.14426 19.395 5.02549 19.6601 4.84211 19.9535C4.79171 20.0349 4.79191 19.9566 4.77932 19.9713C4.651 20.1261 4.78535 20.033 4.73024 20.1456C4.57644 20.4618 4.39354 20.8045 4.23519 21.1221C4.17732 21.2384 4.19942 21.087 4.14807 21.192C3.84359 21.8137 3.57931 22.488 3.39237 23.1364C3.35727 23.2588 3.41547 23.1936 3.41482 23.2212C3.41102 23.4118 3.26204 23.6435 3.23806 23.7011C3.12873 23.9605 3.13023 24.0754 3.06409 24.3126C2.73341 25.4755 2.56613 26.9693 2.56802 28.1076C2.56736 28.2084 2.5677 28.3079 2.56894 28.4062C2.59262 29.7505 2.74374 30.8343 3.01891 32.1205C3.0383 32.2082 2.97283 32.1302 2.98913 32.206C3.2035 33.1851 3.52745 34.1205 3.90862 35.0483C3.94021 35.1246 3.85262 35.0325 3.90231 35.1556C4.00413 35.4084 4.15126 35.7193 4.28691 35.9595C4.35287 36.0763 4.30632 35.8988 4.37208 36.0165C4.52553 36.2898 4.68729 36.5832 4.84208 36.8652C4.90806 36.9851 4.76519 36.8291 4.85444 36.9833C5.46455 38.0326 6.17303 39.0068 7.04317 39.8711C7.10304 39.9303 7.21961 39.9222 7.32906 40.0628C7.31988 40.09 7.29775 40.1102 7.28214 40.1332C8.49092 41.4195 9.91263 42.4724 11.4665 43.3123C11.5321 43.3477 11.3955 43.329 11.5228 43.3976C12.261 43.7925 13.0018 44.1381 13.8242 44.381C13.9057 44.4047 13.8927 44.3109 14.124 44.4034C14.1644 44.4206 14.5182 44.5468 14.6057 44.5914C14.6176 44.5979 14.5403 44.6163 14.656 44.6523C15.331 44.8607 16.0542 45.0168 16.7529 45.1044C16.8658 45.1184 16.753 45.0574 16.8333 45.0669C17.399 45.1338 18.0145 45.2285 18.5632 45.2169C18.9271 45.2074 18.7958 45.1276 18.9896 45.0614C19.0169 45.0523 19.2408 45.0543 19.2527 45.0121C19.283 44.9067 19.1772 44.7898 19.2223 44.6777C19.2317 44.6541 19.5249 44.6809 19.3514 44.6219C19.3392 44.6182 19.1276 44.5967 19.0763 44.5753C19.0405 44.5608 19.1063 44.5195 19.0333 44.5002C18.9605 44.4809 18.8788 44.5146 18.7584 44.489C18.638 44.4627 18.6949 44.4177 18.4528 44.3982ZM33.975 20.4828C33.8433 20.3282 33.9592 20.2292 34.0326 20.4362C34.036 20.4463 33.9816 20.4908 33.975 20.4828ZM29.0284 41.9524C29.1994 41.747 29.3983 41.716 29.2823 41.8674C29.1648 42.0188 28.9755 42.015 29.0284 41.9524ZM26.7055 43.3061C26.9516 43.1231 27.0926 43.2886 26.7815 43.3991C26.7634 43.4055 26.691 43.3168 26.7055 43.3061ZM18.1033 44.9944C18.1061 44.9929 18.2663 45.0028 18.2701 45.0049C18.3523 45.0586 18.0309 45.0387 18.1033 44.9944ZM24.2188 44.2508C24.2998 44.1963 24.5686 44.143 24.4681 44.2134C24.3869 44.2709 24.1171 44.3197 24.2188 44.2508ZM26.497 13.5897C26.4932 13.5903 26.3893 13.543 26.3967 13.5327C26.4211 13.4991 26.5599 13.5783 26.497 13.5897ZM19.7745 44.9715C20.4413 44.9448 20.8295 44.7353 20.112 44.797C19.9821 44.8066 20.3948 44.8392 20.2299 44.8632C19.9274 44.9066 19.7231 44.8019 19.4119 44.8616C19.355 44.8732 19.7361 44.9744 19.7757 44.9718C19.7753 44.9717 19.7749 44.9716 19.7745 44.9715ZM33.7626 20.4694C33.7591 20.4668 33.68 20.3299 33.6797 20.3257C33.6789 20.2274 33.8388 20.504 33.7626 20.4694ZM20.0655 12.0846C20.0569 12.0875 19.6922 12.0811 19.6801 12.078C19.4902 11.9951 20.2315 12.0072 20.0655 12.0846ZM35.5374 30.7414C35.4661 30.9031 35.4277 31.1044 35.463 31.2491C35.4893 31.081 35.5162 30.9102 35.5374 30.7414Z" fill="#16181B"/>
<path d="M22.8118 25.2491C22.7922 25.3723 22.7879 25.5335 22.7852 25.6593C22.7844 25.6986 22.8139 25.6839 22.8143 25.7114C22.8148 25.7653 22.792 25.8113 22.7923 25.865C22.7925 25.8829 22.8383 25.8711 22.8375 25.8899C22.8326 25.9927 22.7967 26.0831 22.7739 26.1837C22.6608 26.681 22.4212 27.1428 22.0901 27.5487C21.9817 27.6826 21.8565 27.8592 21.7071 27.9622C21.6898 27.9742 21.6757 27.9379 21.6707 27.9381C21.5936 27.9417 21.6567 27.986 21.631 28.0194C21.5289 28.1514 21.3788 28.2593 21.2367 28.3273C21.1761 28.356 21.1967 28.2591 21.1598 28.328C21.1571 28.3328 21.1913 28.3583 21.1775 28.371C21.146 28.4001 21.0731 28.4316 21.0458 28.449C20.9932 28.4829 20.9837 28.4872 20.9308 28.513C20.8586 28.5484 20.7778 28.6046 20.6935 28.6277C20.6755 28.6325 20.6838 28.5864 20.6541 28.5905C20.6244 28.5947 20.5534 28.6239 20.5316 28.6411C20.51 28.6584 20.5305 28.6847 20.5283 28.693C20.5106 28.7636 20.3982 28.7097 20.387 28.7105C20.1758 28.7346 20.0097 28.8169 19.8115 28.8416C19.6625 28.8599 19.5026 28.8535 19.3599 28.8552C19.3588 28.8552 19.3576 28.8552 19.3564 28.8552C19.1856 28.8574 19.0397 28.8694 18.8743 28.8442C18.857 28.8415 18.8835 28.7975 18.8626 28.7941C18.6403 28.758 18.4232 28.7127 18.199 28.6714C18.1765 28.6672 18.1911 28.7159 18.1676 28.714C18.0254 28.7037 17.7784 28.6871 17.7825 28.4874C17.6949 28.4535 17.5916 28.4066 17.5 28.3952C17.4409 28.3876 17.4638 28.4538 17.4153 28.4023C17.4044 28.3906 17.4419 28.3672 17.4242 28.3524C17.3503 28.2903 17.2561 28.2428 17.1916 28.1707C17.1786 28.1559 17.2038 28.1304 17.2032 28.1221C17.1977 28.0544 17.087 28.0766 17.0698 28.0707C16.9421 28.0282 16.8828 27.9523 16.7963 27.8724C16.7762 27.8537 16.8324 27.8415 16.8145 27.8224C16.7213 27.724 16.6232 27.6251 16.5214 27.5369C16.4986 27.5172 16.4851 27.5642 16.4726 27.556C16.4176 27.5191 16.4685 27.4602 16.4187 27.4234C16.4083 27.4155 16.3852 27.4423 16.3808 27.4428C16.3109 27.4502 16.3593 27.3734 16.3554 27.365C16.3067 27.2557 16.1911 27.2429 16.1397 27.1379C16.1338 27.1254 16.1873 27.1284 16.1686 27.0948C16.0444 26.8712 15.9164 26.6355 15.7956 26.4079C15.7769 26.3724 15.7557 26.4103 15.751 26.4094C15.6771 26.3919 15.7487 26.3383 15.7476 26.3252C15.7366 26.2218 15.6411 26.1486 15.7211 26.0552C15.6048 25.7279 15.5914 25.3813 15.558 25.0382C15.5498 24.9527 15.5402 24.8684 15.5277 24.7814C15.527 24.7758 15.4846 24.7831 15.4834 24.7719C15.4696 24.6367 15.5331 24.6672 15.6212 24.59C15.6433 24.5711 15.5564 24.4935 15.5504 24.4863C15.5276 24.4613 15.4628 24.475 15.4588 24.4671C15.4285 24.4008 15.6306 24.4406 15.6437 24.3629C15.6438 24.3604 15.6046 24.3643 15.6021 24.357C15.5939 24.3344 15.6125 24.3166 15.6034 24.2941C15.5825 24.243 15.4876 24.205 15.5604 24.1457C15.5699 24.1385 15.6805 24.1772 15.6915 24.1073C15.6953 24.0795 15.7295 23.9585 15.7326 23.923C15.7353 23.8873 15.6924 23.8995 15.6915 23.8967C15.6718 23.7904 15.6416 23.819 15.5865 23.7493C15.5324 23.6787 15.6943 23.7476 15.7191 23.7354C15.7437 23.7232 15.7287 23.6431 15.7217 23.6215C15.7145 23.6 15.6844 23.6122 15.6823 23.5947C15.6704 23.478 15.7798 23.5835 15.8179 23.5625C15.9079 23.515 15.8125 23.4082 15.8321 23.3354C15.8373 23.3159 15.8573 23.343 15.8673 23.3283C15.9065 23.2701 15.889 23.2139 15.9588 23.161C15.9704 23.152 16.0688 23.1341 16.0391 23.0706C16.0348 23.0614 15.9983 23.0599 16.0068 23.0305C16.0193 22.9865 16.055 22.9136 16.0899 22.879C16.1156 22.8535 16.1389 22.9162 16.1487 22.8702C16.1532 22.8498 16.1071 22.8634 16.1179 22.8261C16.1284 22.7888 16.1834 22.7111 16.2055 22.6826C16.2274 22.654 16.2487 22.6938 16.2526 22.693C16.2754 22.6879 16.3316 22.645 16.3353 22.6404C16.5209 22.4048 16.6678 22.1527 16.9115 21.9774C16.9305 21.9638 16.9459 22.0066 16.9491 22.0048C17.0214 21.9685 16.9009 21.9204 16.9212 21.8551C16.9691 21.9279 16.9849 21.8946 17.0354 21.8678C17.0598 21.855 17.0684 21.8907 17.0724 21.8919C17.1347 21.9085 17.1175 21.8396 17.1156 21.8244C17.108 21.7686 17.1658 21.7992 17.1615 21.7618C17.1577 21.7244 17.0948 21.7088 17.1406 21.6778C17.1708 21.6946 17.1838 21.784 17.2248 21.7717C17.3768 21.7246 17.5908 21.5293 17.7023 21.4705C17.8109 21.411 17.8505 21.4011 17.9127 21.3629C18.0265 21.2953 18.0045 21.3691 18.0885 21.3671C18.1727 21.3663 18.0877 21.2397 18.0882 21.2058C18.089 21.1719 18.1118 21.1987 18.1201 21.1774C18.1285 21.1562 18.0913 21.1458 18.1222 21.1286C18.1536 21.111 18.2607 21.1375 18.2813 21.1665C18.3252 21.2273 18.3058 21.3091 18.3831 21.2609C18.3876 21.2581 18.3615 21.2248 18.3793 21.216C18.5211 21.147 18.6801 21.1129 18.8313 21.0655C18.8522 21.0589 18.8272 21.0187 18.8394 21.0143C18.9675 20.9704 18.9302 21.0489 19.0077 21.1224C18.9817 21.0168 19.0148 20.9462 19.1171 20.939C19.1785 20.9351 19.17 20.9829 19.2101 21.0144C19.2219 21.0239 19.2634 20.9903 19.2717 21.0124C19.2984 21.0844 19.2606 21.1654 19.3599 21.1326C19.36 21.1326 19.36 21.1326 19.3601 21.1326C19.3617 21.132 19.3609 21.1266 19.3599 21.1197C19.3587 21.111 19.3572 21.1 19.3599 21.0937C19.3611 21.0912 19.3629 21.0895 19.3658 21.089C19.4654 21.0741 19.4752 21.15 19.5789 21.1646C19.6602 21.1759 19.8102 21.1441 19.9054 21.151C19.9202 21.0304 20.0084 21.072 20.0292 21.161C20.0904 21.1685 20.1543 21.1865 20.2151 21.1887C20.236 21.1895 20.2309 21.1523 20.2343 21.1491C20.2873 21.1004 20.2945 21.1863 20.3064 21.1926C20.4379 21.2586 20.5702 21.2359 20.6792 21.3405C20.6831 21.3443 20.6605 21.4256 20.7165 21.3813C20.7203 21.3783 20.6916 21.3259 20.7532 21.3468C20.8143 21.3673 20.9467 21.3748 21.0115 21.4499C21.0275 21.4679 21.0457 21.5531 21.1091 21.526C21.1177 21.5223 21.1231 21.4979 21.1369 21.49C21.1817 21.4651 21.1547 21.5472 21.218 21.4994C21.2811 21.4516 21.371 21.4394 21.4256 21.5316C21.4274 21.5345 21.4108 21.6034 21.4358 21.618C21.476 21.6414 21.5389 21.6662 21.5787 21.6945C21.5978 21.708 21.5615 21.7338 21.5644 21.7368C21.6773 21.8452 21.7865 21.8825 21.9241 21.9805C21.9497 21.9987 21.976 22.0993 22.0495 22.1075C22.1307 22.1178 22.2263 21.9214 22.3025 22.0684C22.3341 22.1294 22.1935 22.3605 22.3659 22.3537C22.4779 22.5364 22.6513 22.6562 22.7247 22.8646C22.7281 22.874 22.6817 22.9377 22.6939 22.9561C22.7121 22.9835 22.7506 22.9819 22.7644 23.0014C22.823 23.0829 22.8396 23.1771 22.8853 23.2609C22.9025 23.2929 22.9289 23.2663 22.9491 23.305C22.9692 23.3439 22.9387 23.389 22.9824 23.4342C23.0154 23.4683 23.1202 23.4741 23.1524 23.5273C23.0659 23.5629 23.0828 23.6006 23.0834 23.6768C23.0835 23.6915 23.0479 23.6882 23.0463 23.6957C23.0391 23.726 23.0725 23.7405 23.063 23.7701C23.0607 23.7772 23.0305 23.7874 23.0269 23.7938C22.9951 23.8477 23.0834 23.8923 23.0988 23.9007C23.1572 23.9317 23.1229 23.9639 23.15 23.9932C23.1771 24.0228 23.1862 23.9653 23.2077 24.003C23.2522 24.0809 23.2716 24.1924 23.2887 24.2786C23.2954 24.3133 23.2492 24.2971 23.2492 24.3023C23.2513 24.3747 23.3069 24.4415 23.228 24.492C23.4519 24.5133 23.2131 24.5376 23.2672 24.634C23.2715 24.6415 23.3759 24.6424 23.3879 24.6091C23.3998 24.5755 23.3622 24.531 23.38 24.4842C23.3843 24.4734 23.4721 24.3997 23.4766 24.3901C23.512 24.3171 23.357 24.3334 23.3482 24.3316C23.2514 24.3094 23.341 24.2198 23.344 24.1987C23.3588 24.1043 23.3202 24.0355 23.3242 23.9572C23.3265 23.9059 23.4231 23.8742 23.4093 23.8369C23.3624 23.7125 23.2144 23.7159 23.2896 23.5603C23.3051 23.5267 23.4188 23.5123 23.3029 23.4534C23.2956 23.4494 23.1958 23.414 23.2268 23.3574C23.2307 23.3503 23.2606 23.3379 23.2604 23.3306C23.2588 23.2815 23.223 23.2639 23.2137 23.2136C23.2045 23.1635 23.195 23.1008 23.1595 23.0547C23.1382 23.0268 23.0645 23.0159 23.0439 23.0087C22.9852 22.9886 23.0225 22.9123 22.9637 22.913C22.9049 22.9144 22.8634 22.9998 22.7987 22.9544C22.87 22.9099 22.9414 22.861 23.012 22.8143C22.9251 22.672 22.8121 22.5514 22.7157 22.4169C22.7038 22.4002 22.7526 22.3898 22.7405 22.371C22.6891 22.2916 22.6126 22.2482 22.5591 22.1664C22.5178 22.103 22.4971 22.0091 22.4501 21.943C22.3473 21.9746 22.2886 21.8698 22.2197 21.8185C22.1958 21.8006 22.1799 21.8209 22.1588 21.8131C22.0793 21.7835 22.1632 21.7447 22.1556 21.72C22.1211 21.6146 21.9907 21.756 21.9103 21.6853C21.9063 21.6817 21.9134 21.5573 21.9089 21.5461C21.8838 21.4749 21.8792 21.5682 21.8434 21.5509C21.7778 21.5197 21.7243 21.5116 21.6722 21.4403C21.6573 21.4195 21.6426 21.3334 21.5758 21.3499C21.5671 21.3521 21.552 21.3827 21.5468 21.3817C21.4532 21.3628 21.5059 21.2709 21.4783 21.2129C21.4502 21.1548 21.3428 21.1802 21.3187 21.1916C21.2555 21.2202 21.3365 21.2276 21.336 21.2336C21.329 21.3026 21.2837 21.2653 21.2422 21.25C21.1885 21.3396 21.1381 21.3071 21.1993 21.2339C21.2062 21.2259 21.2322 21.2501 21.2422 21.25C21.2555 21.1414 21.197 21.0971 21.0885 21.1524C21.0379 21.1787 21.0465 21.2393 20.9586 21.1797C20.9185 21.1532 20.9635 21.0941 20.9314 21.0596C20.857 20.9803 20.7134 20.999 20.6214 20.9587C20.5876 20.9439 20.6336 20.9172 20.6108 20.9058C20.55 20.8755 20.485 20.8874 20.4239 20.8556C20.4183 20.8527 20.4434 20.8166 20.4231 20.8108C20.269 20.766 20.1266 20.7638 19.9622 20.7404C19.883 20.7287 19.7419 20.6906 19.6579 20.6898C19.5636 20.6881 19.457 20.7109 19.3599 20.7254C19.3063 20.7334 19.2563 20.7387 19.2127 20.735C19.1329 20.7288 19.1484 20.6872 19.112 20.661C19.0405 20.6102 18.93 20.7184 18.9168 20.7354C18.9166 20.7358 18.9856 20.7388 18.9513 20.7634C18.9348 20.8093 18.9177 20.7355 18.9168 20.7354C18.9072 20.7456 18.7721 20.7718 18.7443 20.7687C18.729 20.7666 18.7314 20.7267 18.7234 20.7264C18.5342 20.7199 18.3463 20.7511 18.1691 20.8221C18.1662 20.8238 18.1833 20.8643 18.1762 20.8678C18.0783 20.9172 17.996 20.8887 17.8995 20.89C17.8032 20.8915 17.7383 20.9296 17.7189 21.0193C17.6526 21.037 17.5778 21.108 17.5373 21.1504C17.4968 21.1927 17.4516 21.1206 17.4463 21.1214C17.2841 21.1445 17.2281 21.2322 17.0975 21.3231C17.0351 21.3664 16.9039 21.4412 16.8323 21.4835C16.7754 21.5165 16.7566 21.5563 16.7017 21.5838C16.6943 21.5875 16.677 21.5528 16.6742 21.5533C16.5929 21.5607 16.6768 21.612 16.6765 21.6335C16.6761 21.7118 16.6742 21.7548 16.5925 21.7892C16.574 21.7969 16.4418 21.7367 16.4094 21.7564C16.3679 21.7819 16.4138 21.8041 16.3702 21.8301C16.3665 21.8324 16.3466 21.8105 16.3255 21.833C16.2274 21.9373 16.135 22.063 16.0386 22.1746C16.0255 22.19 16.0061 22.1401 15.9864 22.1621C15.8943 22.2653 15.8047 22.3888 15.748 22.5124C15.7342 22.5429 15.7729 22.5439 15.777 22.5553C15.8019 22.6237 15.6973 22.6288 15.6903 22.637C15.5251 22.8243 15.5051 23.0266 15.372 23.2378C15.3646 23.2487 15.2388 23.3115 15.295 23.3843C15.2986 23.3895 15.3571 23.4606 15.2917 23.4794C15.2876 23.4806 15.2587 23.4391 15.2453 23.488C15.2321 23.5365 15.1794 23.6048 15.2022 23.6847C15.2092 23.7103 15.2711 23.7811 15.1923 23.8255C15.187 23.8273 15.0207 23.8894 15.1091 23.9489C15.1237 23.9586 15.2272 23.9773 15.1573 24.0394C15.1438 24.0515 15.1268 24.02 15.1039 24.0549C15.0687 24.109 15.0808 24.1918 15.0221 24.2566C15.0117 24.2676 14.9317 24.3117 14.979 24.364C14.9865 24.372 15.0232 24.3642 15.0238 24.3877C15.0269 24.4989 14.9912 24.6119 15.008 24.7251C15.0139 24.7651 15.072 24.7486 15.0849 24.79C15.0977 24.8316 15.1094 24.9122 15.0827 24.9541C15.0561 24.9962 14.9658 24.9479 14.958 25.013C14.957 25.0214 14.9561 25.0298 14.9554 25.0382C14.9295 25.3142 15.0041 25.5845 15.0599 25.8505C15.0686 25.8913 15.0302 25.8632 15.0413 25.924C15.0785 26.1483 15.1647 26.5406 15.3051 26.6979C15.4149 26.8223 15.3803 26.6252 15.4456 26.7258C15.4769 26.7736 15.4055 26.8724 15.4084 26.8868C15.4343 27.0254 15.5193 27.09 15.5653 27.2041C15.575 27.2277 15.5255 27.2266 15.5343 27.2466C15.5641 27.3155 15.6203 27.3732 15.655 27.4353C15.6705 27.4632 15.6398 27.4757 15.6578 27.4992C15.7007 27.5556 15.7472 27.6001 15.8115 27.6381C15.8173 27.6415 15.8266 27.5842 15.8574 27.6252C15.9074 27.6916 15.9929 27.7549 16.0286 27.8481C16.0391 27.8758 15.9824 27.9247 16.0614 27.9386C16.0781 27.9415 16.1352 27.8708 16.1229 27.9749C16.1202 27.9919 16.124 28.1529 16.2146 28.1496C16.2383 28.1489 16.3182 28.1262 16.3338 28.1582C16.3357 28.1628 16.2941 28.1778 16.3114 28.2007C16.3729 28.2809 16.4525 28.3496 16.522 28.4268C16.5407 28.4476 16.4822 28.4518 16.5111 28.4818C16.5908 28.5646 16.7101 28.6454 16.8081 28.7C16.8443 28.7201 16.8413 28.6756 16.8459 28.6743C16.9198 28.6525 16.8955 28.7354 16.9061 28.7486C16.9718 28.8284 17.0567 28.837 17.1291 28.8927C17.1493 28.908 17.1139 28.9324 17.1164 28.938C17.1442 28.9942 17.1464 28.9138 17.1787 28.9238C17.2694 28.9515 17.3573 29.0027 17.4386 29.0487C17.4685 29.0657 17.4137 29.0892 17.441 29.104C17.602 29.192 17.7824 29.2618 17.9592 29.2956C17.9926 29.3018 17.9838 29.2619 17.9929 29.2566C18.0556 29.2189 18.0986 29.3121 18.1124 29.3237C18.1736 29.3766 18.2102 29.3546 18.2716 29.3767C18.5729 29.4874 18.9724 29.5193 19.2715 29.5101C19.3014 29.5095 19.3309 29.5084 19.3599 29.507C19.7094 29.4881 19.9876 29.4282 20.3217 29.3611C20.3448 29.3563 20.3321 29.407 20.3523 29.4034C20.6129 29.3534 20.855 29.2532 21.1025 29.1591C21.1229 29.1512 21.1118 29.2043 21.1453 29.1929C21.2143 29.1695 21.2962 29.1276 21.3548 29.0815C21.3833 29.0592 21.3237 29.0474 21.3525 29.0257C21.4191 28.9751 21.4943 28.9296 21.5704 28.8923C21.6029 28.8764 21.5794 28.9432 21.62 28.9193C21.8969 28.7567 22.1578 28.5665 22.3509 28.302C22.3642 28.2837 22.3143 28.2047 22.3592 28.1851C22.3795 28.2007 22.4005 28.222 22.4207 28.2402C22.7606 27.9229 23.0104 27.5289 23.2182 27.1179C23.227 27.1005 23.2546 27.1529 23.2719 27.119C23.3716 26.9229 23.4689 26.7283 23.4957 26.5002C23.4982 26.4776 23.414 26.4612 23.4461 26.4042C23.452 26.3942 23.4914 26.3049 23.5159 26.2857C23.5196 26.2831 23.5529 26.3115 23.5628 26.2813C23.6193 26.1051 23.6516 25.9134 23.6552 25.7285C23.6556 25.6986 23.609 25.7233 23.6089 25.7022C23.6084 25.5542 23.6559 25.3973 23.6239 25.2546C23.602 25.1604 23.5271 25.1921 23.4563 25.1421C23.4464 25.1352 23.4456 25.0793 23.4035 25.0762C23.2979 25.0682 23.182 25.0927 23.0694 25.081C23.0453 25.0786 23.0716 25.0108 23.0129 25.0508C23.009 25.0537 22.9891 25.1022 22.9689 25.1135C22.955 25.1214 22.9126 25.1059 22.8946 25.1221C22.8767 25.1381 22.912 25.1573 22.8903 25.1838C22.8682 25.2102 22.8204 25.1959 22.8118 25.2491ZM17.3612 21.3446C17.3381 21.4047 17.2565 21.2792 17.3224 21.2828C17.3257 21.2831 17.3625 21.3416 17.3612 21.3446ZM22.7175 22.6185C22.6267 22.6033 22.6791 22.5109 22.7476 22.5187C22.8165 22.5276 22.7454 22.6237 22.7175 22.6185ZM23.0123 23.2221C22.933 23.1777 23.1172 23.0718 23.1151 23.1655C23.1151 23.171 23.0169 23.2247 23.0123 23.2221ZM23.4248 25.3622C23.4229 25.3613 23.4238 25.3214 23.4258 25.3206C23.4747 25.3023 23.4729 25.383 23.4248 25.3622ZM23.1988 23.854C23.165 23.8401 23.1767 23.7667 23.2194 23.7836C23.254 23.7977 23.2412 23.8717 23.1988 23.854ZM15.7667 23.3028C15.7684 23.3045 15.7586 23.3306 15.7474 23.3249C15.7112 23.3063 15.738 23.2755 15.7667 23.3028ZM23.3656 24.9478C23.3532 24.7826 23.1705 24.7 23.1998 24.8699C23.2047 24.9009 23.2525 24.8002 23.2701 24.8392C23.3022 24.9119 23.1935 24.9626 23.2526 25.0368C23.2636 25.0509 23.367 24.9576 23.3659 24.9475C23.3658 24.9476 23.3657 24.9477 23.3656 24.9478ZM17.4256 21.5147C17.4257 21.5168 17.3934 21.5378 17.3916 21.5366C17.3494 21.5063 17.4152 21.4635 17.4256 21.5147ZM15.4818 24.8798C15.4857 24.882 15.4872 24.9696 15.4835 24.9724C15.4047 25.0178 15.4012 24.8371 15.4818 24.8798ZM19.9073 21.148C19.9405 21.2011 19.9864 21.2143 20.029 21.1611C19.9885 21.1571 19.9478 21.1509 19.9073 21.148Z" fill="#16181B"/>
<path d="M12.9524 34.7926C13.003 34.6229 13.0493 34.3972 13.0846 34.2238C13.0957 34.1693 13.0619 34.1879 13.0687 34.1497C13.0822 34.0751 13.1172 34.0133 13.1308 33.9397C13.1352 33.9152 13.0853 33.9296 13.0909 33.9041C13.1225 33.7636 13.1823 33.6427 13.2318 33.5066C13.4763 32.8367 13.8444 32.2229 14.3098 31.6633C14.4626 31.4788 14.6412 31.242 14.8376 31.0871C14.8605 31.069 14.8723 31.108 14.8785 31.1066C14.9735 31.0837 14.9026 31.0474 14.9387 31.0025C15.0819 30.825 15.2787 30.6658 15.4639 30.5522C15.5429 30.5041 15.5092 30.617 15.5616 30.5306C15.5653 30.5246 15.5238 30.5057 15.5423 30.4879C15.5842 30.4474 15.6791 30.3929 15.7149 30.3664C15.7839 30.3149 15.7963 30.3077 15.8654 30.2649C15.9597 30.2064 16.0651 30.1236 16.1747 30.075C16.1981 30.0648 16.1874 30.116 16.2262 30.103C16.265 30.0899 16.3584 30.0383 16.3866 30.014C16.4148 29.9895 16.3871 29.968 16.3897 29.9587C16.4106 29.8801 16.5601 29.9036 16.5751 29.8993C16.8542 29.8118 17.0689 29.6788 17.3308 29.5955C17.5291 29.5328 17.7481 29.4917 17.9402 29.4483C18.1694 29.3964 18.3638 29.3428 18.5915 29.3202C18.6156 29.3179 18.5928 29.3679 18.622 29.3652C18.8688 29.3424 19.1129 29.3268 19.3606 29.3097C19.425 29.3053 19.4893 29.3007 19.5536 29.296C19.5849 29.2937 19.5458 29.2511 19.5774 29.2463C19.7691 29.2164 20.0884 29.1628 20.1794 29.357C20.308 29.3653 20.465 29.3823 20.5854 29.3677C20.6636 29.3586 20.6001 29.3005 20.6878 29.3371C20.7076 29.3454 20.6732 29.3788 20.7032 29.3884C20.8289 29.4284 20.9716 29.4486 21.0918 29.5017C21.1162 29.5126 21.1 29.5449 21.1055 29.553C21.1516 29.6187 21.2746 29.5656 21.2985 29.5665C21.4779 29.5725 21.5939 29.6313 21.7455 29.687C21.7807 29.7 21.7224 29.7287 21.7555 29.7429C21.9275 29.8158 22.1057 29.8883 22.2796 29.9487C22.3183 29.9621 22.3023 29.9093 22.3218 29.9139C22.4079 29.9351 22.3906 30.0121 22.4712 30.0351C22.4882 30.0401 22.4956 30.0049 22.5001 30.003C22.5723 29.9732 22.5708 30.0687 22.581 30.0763C22.7102 30.1759 22.8439 30.1517 22.9717 30.2458C22.9868 30.2571 22.9277 30.2718 22.9713 30.3013C23.2613 30.498 23.5642 30.7089 23.8498 30.9118C23.8941 30.9434 23.8868 30.8931 23.892 30.8923C23.9761 30.8817 23.9466 30.9696 23.9574 30.9837C24.0451 31.094 24.1891 31.1343 24.1843 31.2731C24.6263 31.6673 24.9398 32.1651 25.3157 32.622C25.3204 32.6279 25.3496 32.595 25.3589 32.6069C25.4704 32.7516 25.3963 32.7546 25.3832 32.896C25.3797 32.9312 25.5069 32.9664 25.5169 32.9707C25.5535 32.9849 25.5949 32.9291 25.6039 32.9356C25.6767 32.9912 25.4871 33.0723 25.5347 33.1697C25.5366 33.1726 25.5644 33.1431 25.5718 33.1497C25.5949 33.1702 25.5936 33.2023 25.6173 33.222C25.6717 33.267 25.7729 33.2466 25.7598 33.3608C25.7578 33.3753 25.6436 33.405 25.687 33.4921C25.7048 33.5269 25.7672 33.6862 25.791 33.7288C25.8152 33.771 25.8387 33.7268 25.8414 33.7294C25.9339 33.8344 25.9358 33.781 26.0278 33.8183C26.1193 33.8568 25.9477 33.8973 25.938 33.9289C25.9284 33.9603 25.9976 34.0382 26.0184 34.0567C26.0393 34.0749 26.053 34.0394 26.0672 34.0571C26.1598 34.1753 26.0025 34.1416 25.9894 34.1934C25.9572 34.3142 26.1047 34.3593 26.1422 34.4526C26.1523 34.4777 26.1181 34.4639 26.1214 34.4877C26.1342 34.5814 26.1872 34.6281 26.1739 34.741C26.1719 34.7597 26.1132 34.8595 26.1799 34.9032C26.1896 34.9095 26.2171 34.881 26.2318 34.9193C26.241 34.9431 26.251 34.9754 26.2593 35.0099L26.315 34.9435C26.2652 34.9466 26.212 34.9463 26.1739 34.94C26.1256 34.932 26.1809 34.8786 26.1202 34.8952C26.0932 34.9026 26.1432 34.9338 26.0925 34.9451C26.0421 34.9564 25.9131 34.9551 25.864 34.954C25.815 34.9529 25.8418 34.9124 25.8379 34.9097C25.8139 34.8941 25.7199 34.8745 25.7116 34.8746C25.2925 34.8696 24.906 34.9379 24.4979 34.9153C24.4659 34.9136 24.4872 34.8709 24.4824 34.8702C24.3727 34.8523 24.4592 34.9658 24.3826 35.0038C24.3937 34.9172 24.3485 34.9329 24.2712 34.9234C24.234 34.9187 24.2543 34.8852 24.2509 34.8817C24.1957 34.8308 24.1573 34.8966 24.1474 34.9101C24.1108 34.9596 24.0711 34.9011 24.0462 34.9342C24.0213 34.967 24.0785 35.0157 24.0045 35.0151C23.9837 34.9841 24.0387 34.903 23.9825 34.8899C23.7703 34.8402 23.3743 34.9038 23.2037 34.9104C23.0335 34.917 22.9785 34.9113 22.8793 34.9225C22.7001 34.9428 22.7658 34.8826 22.6545 34.8551C22.5429 34.8276 22.5972 34.9755 22.5811 35.0073C22.5654 35.0391 22.5482 35.0064 22.5286 35.0239C22.5091 35.0414 22.5514 35.063 22.5054 35.0695C22.4595 35.0761 22.3339 35.0195 22.3176 34.9863C22.2832 34.9158 22.3398 34.8419 22.2182 34.8679C22.2112 34.8694 22.2339 34.9083 22.2071 34.9122C21.9945 34.9422 21.7736 34.9441 21.5613 34.9705C21.5321 34.9742 21.5582 35.0175 21.5412 35.0202C21.3642 35.0478 21.4274 34.9749 21.3304 34.8938C21.3522 35.0017 21.2986 35.0677 21.1642 35.0683C21.0835 35.0687 21.0974 35.0216 21.0451 34.9884C21.0295 34.9784 20.9723 35.0108 20.962 34.9886C20.9278 34.9162 20.9817 34.8351 20.8431 34.8674C20.8371 34.8689 20.8564 34.9086 20.8354 34.911C20.6997 34.9267 20.6835 34.8509 20.5367 34.8418C20.4218 34.8346 20.2172 34.8807 20.0863 34.8883C20.089 35.0095 19.9654 34.9818 19.9152 34.8982C19.8302 34.9016 19.7384 34.8968 19.6563 34.9084C19.628 34.9123 19.6466 34.9475 19.643 34.9513C19.5884 35.0108 19.5514 34.9294 19.5331 34.9262C19.3343 34.8952 19.1723 34.9569 18.9826 34.8966C18.9759 34.8945 18.965 34.8102 18.9142 34.8717C18.911 34.876 18.9736 34.9143 18.8844 34.9173C18.7951 34.9202 18.6268 34.9654 18.5029 34.9263C18.4729 34.917 18.3971 34.8486 18.3362 34.902C18.3281 34.9093 18.337 34.9334 18.3253 34.9469C18.2874 34.9897 18.2667 34.9045 18.2223 34.9769C18.1778 35.0492 18.0853 35.1034 17.9603 35.0535C17.9563 35.052 17.9267 34.9845 17.8874 34.9856C17.8247 34.9874 17.7356 35.0014 17.6701 35.001C17.6387 35.0008 17.6588 34.9589 17.6534 34.9581C17.4425 34.9346 17.2924 34.972 17.0664 34.9882C17.025 34.9912 16.906 34.9341 16.8258 34.9793C16.7378 35.0287 16.8283 35.2345 16.6259 35.1854C16.5443 35.1658 16.4409 34.9048 16.2943 35.0401C16.0098 35.0065 15.7467 35.0758 15.4614 35.0279C15.4486 35.0258 15.408 34.9529 15.3779 34.9539C15.3331 34.9555 15.3085 34.9896 15.2766 34.9918C15.1426 35.0021 15.02 34.973 14.8909 34.9775C14.8418 34.9791 14.859 35.0143 14.8005 35.0163C14.742 35.0182 14.7031 34.9719 14.6239 34.9943C14.564 35.0113 14.5042 35.1061 14.4248 35.1171C14.4218 35.0237 14.3673 35.0256 14.2703 35.0009C14.2517 34.9961 14.2717 34.9636 14.2629 34.9597C14.227 34.9429 14.1938 34.9699 14.1598 34.9516C14.1515 34.9472 14.1511 34.9153 14.1443 34.9099C14.0867 34.8629 13.9918 34.9347 13.9755 34.9472C13.9131 34.9947 13.8839 34.9532 13.836 34.9719C13.7881 34.9906 13.8597 35.0139 13.8038 35.0253C13.688 35.0487 13.5392 35.0436 13.4216 35.0451C13.3746 35.0454 13.4066 35.0028 13.3999 35.0019C13.3029 34.9911 13.2048 35.0364 13.1509 34.9516C13.0837 35.171 13.0924 34.9303 12.9537 34.9742C12.9428 34.9778 12.9289 35.0815 12.9708 35.0968C13.0128 35.112 13.0764 35.0795 13.1346 35.1033C13.1484 35.1089 13.2273 35.2061 13.2381 35.212C13.3225 35.258 13.3344 35.103 13.3389 35.0944C13.3895 35.0025 13.486 35.1073 13.5114 35.1145C13.6276 35.1477 13.7264 35.1259 13.8236 35.1496C13.8872 35.1649 13.8934 35.2664 13.9433 35.2633C14.1093 35.253 14.1672 35.1113 14.3236 35.2342C14.3572 35.2604 14.3238 35.3714 14.444 35.2841C14.4516 35.2786 14.5408 35.1988 14.5923 35.2493C14.5988 35.2557 14.5986 35.288 14.6071 35.2907C14.6643 35.3083 14.7025 35.2825 14.7648 35.2949C14.8272 35.3072 14.9021 35.3256 14.9733 35.3147C15.0161 35.3081 15.0712 35.2478 15.0917 35.233C15.1497 35.1905 15.2118 35.2602 15.2477 35.2088C15.2839 35.157 15.2131 35.0784 15.3081 35.045C15.3116 35.1291 15.3197 35.2153 15.3254 35.2999C15.5335 35.2969 15.7382 35.2697 15.947 35.2735C15.9729 35.274 15.9465 35.3192 15.9742 35.3209C16.0913 35.3281 16.1936 35.2959 16.315 35.3087C16.409 35.3188 16.512 35.3667 16.6103 35.3787C16.6703 35.2825 16.8162 35.3152 16.9221 35.3064C16.9592 35.3034 16.9568 35.2777 16.9831 35.2693C17.0827 35.2383 17.0361 35.3233 17.0633 35.3367C17.1805 35.3938 17.1905 35.2014 17.3286 35.2061C17.3359 35.2063 17.4253 35.3089 17.4376 35.3153C17.5158 35.3569 17.4505 35.2796 17.4995 35.272C17.5889 35.2581 17.6511 35.2336 17.756 35.2637C17.7866 35.2726 17.8599 35.3365 17.9193 35.2871C17.9272 35.2806 17.9228 35.2467 17.9291 35.2447C18.043 35.2116 18.046 35.3181 18.111 35.3542C18.1761 35.3903 18.2766 35.3167 18.2971 35.2955C18.3506 35.2407 18.2561 35.2721 18.2532 35.2667C18.2191 35.2027 18.2924 35.2137 18.3484 35.2083C18.3565 35.1039 18.4349 35.1102 18.4065 35.2031C18.4033 35.2133 18.3597 35.2036 18.3484 35.2083C18.3976 35.3108 18.4837 35.3239 18.5787 35.2282C18.6232 35.1833 18.5812 35.131 18.7164 35.1501C18.7777 35.1587 18.754 35.2307 18.8082 35.2503C18.9319 35.295 19.0926 35.2279 19.2201 35.2385C19.2664 35.2423 19.2213 35.2817 19.253 35.2857C19.3369 35.2963 19.4109 35.2668 19.4952 35.2819C19.5029 35.2834 19.4842 35.3246 19.5104 35.3251C19.7092 35.3299 19.8822 35.3035 20.0898 35.3028C20.19 35.3024 20.3693 35.3251 20.4731 35.3206C20.6532 35.3129 20.8746 35.253 21.0284 35.2675C21.1287 35.2769 21.1067 35.3181 21.1497 35.3461C21.2326 35.4006 21.3794 35.3031 21.3992 35.288C21.3998 35.2875 21.3135 35.2778 21.3595 35.2566C21.3863 35.2125 21.3982 35.2878 21.3992 35.288C21.4122 35.2782 21.5846 35.2689 21.6188 35.2767C21.6374 35.2811 21.627 35.3201 21.6367 35.3216C21.8672 35.3566 22.0982 35.3665 22.332 35.3482C22.3361 35.3474 22.3299 35.3038 22.3396 35.3024C22.475 35.283 22.5617 35.3365 22.6733 35.3682C22.7849 35.3999 22.8735 35.3893 22.9395 35.3143C23.0238 35.3237 23.1446 35.2906 23.2141 35.2705C23.2837 35.2503 23.2934 35.3354 23.2995 35.3371C23.4903 35.3909 23.6006 35.3422 23.7986 35.3346C23.8928 35.3309 24.0795 35.3432 24.1814 35.3525C24.2619 35.36 24.3104 35.3401 24.3846 35.3528C24.3947 35.3545 24.3845 35.3924 24.3876 35.3938C24.4704 35.4391 24.4306 35.3466 24.4477 35.33C24.5097 35.2699 24.548 35.2379 24.6541 35.2662C24.6786 35.2727 24.7498 35.4059 24.7944 35.4137C24.8524 35.4236 24.8305 35.3758 24.8912 35.3874C24.8964 35.3884 24.8954 35.4178 24.9328 35.4165C25.1068 35.4109 25.2964 35.3937 25.4771 35.3967C25.5018 35.397 25.4702 35.4437 25.5058 35.4449C25.6732 35.4504 25.8567 35.4487 26.0198 35.4268C26.0599 35.4213 26.0347 35.3886 26.0435 35.3789C26.097 35.3201 26.1728 35.4055 26.1853 35.4071C26.2299 35.4133 26.273 35.4167 26.315 35.4184L26.826 35.4033L26.7269 34.9269C26.691 34.6753 26.5944 34.4773 26.552 34.2063C26.5497 34.1893 26.5999 34.0328 26.5067 33.9982C26.5005 33.9956 26.4064 33.9636 26.4424 33.8968C26.4446 33.8926 26.4956 33.9152 26.4714 33.8548C26.4472 33.7946 26.4392 33.6864 26.3657 33.6185C26.3424 33.5967 26.2447 33.5635 26.2737 33.4627C26.2763 33.4565 26.3614 33.2811 26.2509 33.2764C26.2327 33.2758 26.1392 33.3241 26.1492 33.2115C26.1512 33.1899 26.1867 33.2122 26.1799 33.1602C26.1693 33.0801 26.101 32.9992 26.1015 32.893C26.1018 32.8746 26.1345 32.7785 26.06 32.7521C26.0483 32.7481 26.0246 32.7791 26.0075 32.7542C25.9258 32.6363 25.8748 32.4944 25.7805 32.382C25.7472 32.3423 25.7115 32.3937 25.6714 32.3563C25.6312 32.3187 25.5633 32.237 25.5553 32.1766C25.5473 32.116 25.6567 32.1179 25.617 32.0436C25.443 31.7201 25.1799 31.4623 24.935 31.1956C24.8985 31.1561 24.9526 31.1679 24.8999 31.1081C24.7088 30.8861 24.3598 30.5102 24.118 30.4021C23.9268 30.315 24.0957 30.5096 23.963 30.4291C23.8995 30.3909 23.9018 30.2586 23.8894 30.2447C23.7704 30.1096 23.643 30.0748 23.5208 29.9732C23.4954 29.9522 23.5462 29.9351 23.5241 29.9176C23.4489 29.8573 23.3539 29.8182 23.2782 29.7667C23.2442 29.7436 23.2678 29.7198 23.2341 29.702C23.1536 29.6594 23.0773 29.6304 22.9856 29.6137C22.9773 29.6122 23.0041 29.674 22.9455 29.6426C22.8504 29.5917 22.7194 29.556 22.6228 29.4731C22.5942 29.4485 22.6255 29.3804 22.5317 29.3924C22.5119 29.395 22.493 29.4848 22.4428 29.3758C22.435 29.3577 22.3349 29.1976 22.2375 29.23C22.2119 29.2383 22.1368 29.2863 22.1005 29.2592C22.0956 29.2552 22.133 29.2271 22.1004 29.2097C21.985 29.1491 21.8566 29.1058 21.7344 29.0509C21.7017 29.0362 21.7655 29.014 21.7161 28.9933C21.5804 28.9364 21.4004 28.8935 21.259 28.8698C21.2067 28.861 21.2333 28.9035 21.2286 28.9062C21.154 28.9495 21.1391 28.8614 21.1201 28.8518C21.0024 28.7935 20.8997 28.8106 20.7864 28.7778C20.7551 28.7689 20.7851 28.7349 20.7795 28.7303C20.7196 28.6841 20.7557 28.7625 20.7126 28.7623C20.5925 28.7622 20.4627 28.7383 20.3446 28.7175C20.3014 28.7099 20.3563 28.6713 20.3172 28.665C20.0852 28.627 19.8396 28.6118 19.6103 28.6293C19.5673 28.6328 19.5932 28.6686 19.584 28.6763C19.5214 28.7301 19.4331 28.6528 19.4119 28.6455C19.3928 28.6387 19.3759 28.6346 19.3606 28.6323C19.2999 28.6233 19.2631 28.6423 19.1963 28.6391C18.7868 28.6169 18.2824 28.6948 17.9078 28.7852C17.4182 28.9024 17.0561 29.048 16.6111 29.2163C16.5828 29.2273 16.5937 29.1726 16.569 29.1816C16.2503 29.2999 15.958 29.4637 15.6574 29.6221C15.6327 29.6352 15.6455 29.5768 15.605 29.5968C15.5219 29.6374 15.4228 29.7009 15.3519 29.7631C15.3173 29.7933 15.3889 29.7923 15.3539 29.822C15.2726 29.8913 15.1806 29.9573 15.088 30.0144C15.0484 30.0387 15.0793 29.9614 15.0298 29.996C14.6929 30.2321 14.3753 30.491 14.123 30.8247C14.1057 30.8476 14.1532 30.9296 14.0992 30.9599C14.0778 30.9453 14.0565 30.9243 14.0357 30.9068C13.6091 31.3247 13.2718 31.8163 12.971 32.3291C12.9583 32.3509 12.9389 32.2885 12.914 32.3306C12.7707 32.5743 12.6305 32.814 12.5552 33.0971C12.5478 33.1251 12.6315 33.1467 12.5861 33.2177C12.5778 33.2301 12.518 33.3416 12.4887 33.3648C12.4845 33.3679 12.4563 33.3313 12.4398 33.3687C12.3445 33.5864 12.2697 33.8258 12.2251 34.0592C12.2181 34.0968 12.2703 34.0701 12.2657 34.097C12.2326 34.2866 12.15 34.4805 12.1492 34.6677C12.1493 34.7921 12.2306 34.763 12.2889 34.8394C12.2971 34.8502 12.2849 34.9231 12.3256 34.9344C12.4278 34.963 12.5479 34.9499 12.6561 34.9845C12.6793 34.9918 12.637 35.0795 12.7045 35.0352C12.709 35.0321 12.7404 34.9692 12.7631 34.9568C12.7788 34.9482 12.8169 34.9765 12.8386 34.957C12.8603 34.9377 12.8301 34.9056 12.8582 34.8721C12.8866 34.8389 12.9305 34.8653 12.9524 34.7926ZM23.5272 35.1806C23.5916 35.1397 23.6011 35.2893 23.5315 35.2535C23.5281 35.2516 23.5239 35.1826 23.5272 35.1806ZM15.7371 35.1569C15.8212 35.091 15.8788 35.188 15.8195 35.2389C15.7601 35.2898 15.7114 35.1769 15.7371 35.1569ZM14.8642 35.1088C14.9626 35.0568 14.9781 35.2688 14.8727 35.226C14.8666 35.2235 14.8585 35.1118 14.8642 35.1088ZM12.3713 34.557C12.373 34.5583 12.3628 34.6104 12.3606 34.6112C12.3079 34.6282 12.3284 34.5234 12.3713 34.557ZM13.9981 35.0564C14.0288 35.0277 14.1172 35.0608 14.079 35.0965C14.0483 35.1251 13.9598 35.092 13.9981 35.0564ZM26.2135 34.4368C26.2111 34.4364 26.1997 34.4008 26.2121 34.3983C26.252 34.3903 26.2541 34.4439 26.2135 34.4368ZM12.5259 35.0539C12.7434 35.0459 12.8753 34.8708 12.6384 34.8905C12.5955 34.8941 12.7309 34.9464 12.6763 34.9622C12.5764 34.9909 12.5101 34.881 12.4081 34.9399C12.3897 34.9507 12.5135 35.0548 12.5263 35.0542C12.5262 35.0541 12.526 35.054 12.5259 35.0539ZM23.5643 35.0009C23.5656 34.999 23.6173 34.9971 23.6185 34.999C23.6465 35.0465 23.5424 35.0503 23.5643 35.0009ZM25.28 32.484C25.2751 32.4837 25.2086 32.3855 25.2095 32.3803C25.2414 32.2853 25.3779 32.4861 25.28 32.484ZM20.0842 34.8915C20.0278 34.8437 19.9604 34.8381 19.9154 34.8981C19.9715 34.8949 20.0279 34.8944 20.0842 34.8915Z" fill="#16181B"/>
<path d="M45.5627 37.7186C45.5497 37.6128 45.5636 37.4742 45.5827 37.3688C45.5887 37.3358 45.6152 37.3525 45.6204 37.3297C45.6307 37.2851 45.6177 37.2436 45.63 37.1995C45.6342 37.1849 45.6762 37.2031 45.6796 37.1878C45.6982 37.1039 45.6875 37.0245 45.6964 36.9395C45.7405 36.5209 45.7562 36.1094 45.7753 35.6856C45.7816 35.5459 45.8197 35.376 45.8031 35.2317C45.8011 35.2149 45.7642 35.2249 45.7612 35.2217C45.7147 35.1714 45.7891 35.1881 45.799 35.1553C45.838 35.025 45.8414 34.8802 45.8272 34.7548C45.821 34.7014 45.7478 34.7549 45.7889 34.7012C45.7917 34.6975 45.8308 34.711 45.835 34.6964C45.8444 34.6632 45.8374 34.6003 45.8405 34.5745C45.8466 34.525 45.8463 34.5168 45.8467 34.4699C45.8476 34.4059 45.8671 34.3296 45.8582 34.2609C45.8562 34.2462 45.8161 34.2657 45.8093 34.2423C45.8025 34.2188 45.8059 34.1569 45.8153 34.136C45.8248 34.1151 45.8563 34.124 45.8635 34.1203C45.9245 34.0899 45.8401 34.0182 45.838 34.009C45.8024 33.8408 45.8505 33.6966 45.8504 33.5388C45.8502 33.419 45.8343 33.2908 45.8364 33.1768C45.8392 33.041 45.8609 32.9259 45.8572 32.7939C45.8568 32.78 45.8097 32.7963 45.8092 32.7793C45.8037 32.5986 45.8088 32.4192 45.8407 32.2392C45.8439 32.2212 45.8853 32.2444 45.891 32.2264C45.925 32.116 46.0068 31.9414 45.8265 31.8758C45.8335 31.8011 45.8408 31.7103 45.8772 31.6434C45.9005 31.6003 45.9457 31.6422 45.9264 31.5892C45.9221 31.5772 45.8826 31.5928 45.8792 31.5749C45.8647 31.4994 45.8775 31.417 45.8571 31.3424C45.8529 31.3272 45.8175 31.3313 45.8111 31.327C45.7595 31.2909 45.8448 31.2307 45.851 31.2176C45.8973 31.1177 45.8791 31.0447 45.8802 30.9517C45.8805 30.9301 45.8329 30.9556 45.8315 30.9348C45.8247 30.8271 45.8288 30.7154 45.8499 30.6099C45.8547 30.5864 45.8952 30.608 45.8996 30.5968C45.9183 30.5473 45.8418 30.5364 45.8584 30.4889C45.8617 30.4789 45.8964 30.4846 45.9002 30.4827C45.96 30.4542 45.8753 30.4294 45.8734 30.422C45.8479 30.3291 45.9363 30.2698 45.9238 30.18C45.9222 30.1693 45.8783 30.1935 45.8765 30.1633C45.8644 29.9623 45.8765 29.7497 45.9116 29.5507C45.917 29.5197 45.9499 29.5418 45.954 29.5399C46.0175 29.5081 45.9324 29.4876 45.9292 29.4775C45.9062 29.3979 45.9775 29.3236 45.8762 29.2695C45.9113 28.9324 45.8544 28.5969 45.9452 28.2626C45.9463 28.2583 45.9882 28.266 45.9901 28.2575C46.0136 28.1554 45.9485 28.175 45.8689 28.1074C45.8489 28.0904 45.945 28.0386 45.952 28.0341C45.978 28.0174 46.0403 28.0347 46.0454 28.0291C46.0849 27.9829 45.8787 27.9904 45.8787 27.928C45.879 27.9261 45.917 27.9343 45.9207 27.929C45.9326 27.9128 45.9175 27.8966 45.9306 27.8807C45.9608 27.8443 46.0609 27.8313 46.0026 27.7757C45.9951 27.7686 45.8782 27.7794 45.8837 27.7237C45.886 27.7015 45.884 27.6032 45.8916 27.5756C45.8991 27.5481 45.9368 27.567 45.9384 27.565C45.9883 27.4909 46.0089 27.519 46.0827 27.4819C46.1561 27.4447 45.9809 27.455 45.9613 27.4399C45.9418 27.4247 45.9829 27.3704 45.9972 27.357C46.0115 27.3437 46.0354 27.3603 46.0435 27.3485C46.0964 27.2698 45.9565 27.3139 45.9287 27.288C45.8629 27.2268 45.9928 27.1792 46.0056 27.1232C46.009 27.1081 45.9794 27.1204 45.9766 27.107C45.9661 27.0535 46.0066 27.0214 45.9694 26.9607C45.9634 26.9507 45.8852 26.9016 45.9426 26.8698C45.9509 26.8653 45.9832 26.8781 45.9905 26.8553C46.0014 26.8213 46.0085 26.76 45.9976 26.7235C45.9896 26.6965 45.9363 26.7274 45.9528 26.6935C45.9602 26.6784 45.9915 26.7063 46.0028 26.678C46.0141 26.6498 46.0127 26.5776 46.0116 26.5502C46.0105 26.5228 45.97 26.5378 45.9673 26.5356C45.9517 26.5222 45.9322 26.4696 45.9322 26.4649C45.9273 26.2305 45.9955 26.0144 45.9729 25.7862C45.9712 25.7682 45.9285 25.7802 45.9278 25.7774C45.9099 25.7161 46.0234 25.7645 46.0614 25.7216C45.9748 25.7278 45.9905 25.7025 45.981 25.6594C45.9763 25.6385 45.9428 25.6499 45.9393 25.648C45.8884 25.6171 45.9542 25.5956 45.9677 25.5901C46.0172 25.5697 45.9587 25.5474 45.9918 25.5335C46.0246 25.5196 46.0733 25.5516 46.0727 25.5102C46.0417 25.4986 45.9607 25.5293 45.9475 25.4979C45.8978 25.3792 45.9614 25.1577 45.968 25.0623C45.9746 24.9671 45.9689 24.9363 45.9801 24.8809C46.0004 24.7807 45.9403 24.8174 45.9127 24.7552C45.8852 24.6927 46.0332 24.7231 46.065 24.7141C46.0967 24.7053 46.064 24.6957 46.0815 24.6847C46.099 24.6738 46.1206 24.6975 46.1272 24.6718C46.1337 24.6461 46.0772 24.5758 46.0439 24.5667C45.9735 24.5475 45.8995 24.5791 45.9255 24.5111C45.927 24.5072 45.9659 24.5199 45.9699 24.5049C45.9998 24.386 46.0017 24.2625 46.0282 24.1437C46.0319 24.1274 46.0751 24.142 46.0778 24.1325C46.1055 24.0335 46.0325 24.0689 45.9514 24.0146C46.0593 24.0268 46.1253 23.9968 46.1259 23.9217C46.1264 23.8765 46.0792 23.8843 46.046 23.8551C46.036 23.8463 46.0684 23.8143 46.0462 23.8085C45.9738 23.7894 45.8927 23.8195 45.925 23.7421C45.9265 23.7387 45.9662 23.7495 45.9686 23.7378C45.9843 23.6618 45.9085 23.6528 45.8994 23.5707C45.8922 23.5064 45.9384 23.392 45.9459 23.3188C46.0672 23.3203 46.0394 23.2511 45.9558 23.2231C45.9592 23.1756 45.9545 23.1242 45.966 23.0783C45.97 23.0625 46.0051 23.0729 46.0089 23.0709C46.0684 23.0403 45.987 23.0196 45.9838 23.0094C45.9528 22.8982 46.0145 22.8076 45.9542 22.7015C45.9521 22.6977 45.8678 22.6916 45.9293 22.6633C45.9336 22.6614 45.9719 22.6965 45.9749 22.6466C45.9778 22.5966 46.023 22.5025 45.984 22.4332C45.9746 22.4164 45.9062 22.374 45.9596 22.34C45.9669 22.3354 45.991 22.3404 46.0045 22.3339C46.0473 22.3127 45.9622 22.3011 46.0345 22.2763C46.1068 22.2514 46.161 22.1996 46.1111 22.1297C46.1097 22.1275 46.0422 22.111 46.0432 22.089C46.045 22.0539 46.0591 22.0041 46.0586 21.9674C46.0584 21.9499 46.0165 21.9611 46.0157 21.9581C45.9922 21.8401 46.0296 21.7562 46.0458 21.6298C46.0488 21.6067 45.9917 21.5401 46.0369 21.4952C46.0863 21.446 46.2921 21.4966 46.2431 21.3834C46.2235 21.3378 45.9624 21.28 46.0977 21.1979C46.0642 21.0388 46.1334 20.8917 46.0855 20.7322C46.0834 20.725 46.0106 20.7023 46.0116 20.6854C46.0132 20.6604 46.0472 20.6466 46.0495 20.6288C46.0597 20.5538 46.0306 20.4853 46.0351 20.413C46.0368 20.3856 46.072 20.3952 46.0739 20.3625C46.0759 20.3298 46.0295 20.308 46.0519 20.2637C46.069 20.2303 46.1637 20.1968 46.1748 20.1524C46.0813 20.1507 46.0832 20.1202 46.0586 20.066C46.0538 20.0556 46.0212 20.0668 46.0173 20.0618C46.0005 20.0418 46.0275 20.0232 46.0092 20.0041C46.0049 19.9995 45.9729 19.9993 45.9675 19.9955C45.9205 19.9633 45.9923 19.9102 46.0048 19.9011C46.0523 19.8662 46.0108 19.8499 46.0295 19.8231C46.0482 19.7963 46.0716 19.8363 46.0829 19.8051C46.1064 19.7403 46.1012 19.6571 46.1027 19.5913C46.1031 19.565 46.0605 19.5829 46.0595 19.5792C46.0487 19.5249 46.094 19.47 46.0092 19.4399C46.2286 19.4023 45.9879 19.4072 46.0318 19.3296C46.0354 19.3235 46.1391 19.3157 46.1544 19.3392C46.1696 19.3627 46.1372 19.3982 46.1609 19.4308C46.1665 19.4385 46.2637 19.4827 46.2696 19.4887C46.3156 19.5359 46.1606 19.5426 46.1521 19.5451C46.0601 19.5734 46.1649 19.6273 46.1721 19.6415C46.2053 19.7065 46.1835 19.7618 46.2072 19.8162C46.2225 19.8517 46.324 19.8552 46.3209 19.8831C46.3107 19.9759 46.169 20.0083 46.2918 20.0958C46.318 20.1146 46.4291 20.0959 46.3418 20.1631C46.3362 20.1674 46.2564 20.2172 46.3069 20.2461C46.3133 20.2497 46.3456 20.2496 46.3483 20.2544C46.3659 20.2864 46.3401 20.3077 46.3525 20.3426C46.3648 20.3774 46.3832 20.4193 46.3723 20.4591C46.3657 20.4831 46.3054 20.5139 46.2907 20.5254C46.2482 20.5578 46.3179 20.5926 46.2664 20.6126C46.2146 20.6329 46.1361 20.5933 46.1026 20.6464C46.1867 20.6484 46.273 20.6529 46.3575 20.6561C46.3545 20.7725 46.3274 20.887 46.3311 21.0038C46.3316 21.0182 46.3768 21.0034 46.3786 21.0189C46.3857 21.0844 46.3535 21.1416 46.3663 21.2095C46.3765 21.2621 46.4243 21.3197 46.4364 21.3747C46.3402 21.4083 46.3728 21.4899 46.364 21.5491C46.361 21.5699 46.3353 21.5685 46.3269 21.5832C46.2959 21.6389 46.3809 21.6128 46.3943 21.6281C46.4514 21.6936 46.259 21.6992 46.2637 21.7764C46.2639 21.7805 46.3665 21.8305 46.3729 21.8374C46.4145 21.8812 46.3372 21.8446 46.3296 21.872C46.3158 21.922 46.2913 21.9568 46.3213 22.0155C46.3302 22.0326 46.3941 22.0736 46.3447 22.1068C46.3382 22.1112 46.3043 22.1088 46.3023 22.1123C46.2692 22.176 46.3757 22.1777 46.4118 22.214C46.4479 22.2504 46.3744 22.3067 46.3532 22.3181C46.2983 22.348 46.3297 22.2952 46.3244 22.2935C46.2603 22.2745 46.2714 22.3155 46.2659 22.3468C46.1615 22.3514 46.1678 22.3952 46.2608 22.3793C46.2709 22.3775 46.2612 22.3531 46.2659 22.3468C46.3684 22.3743 46.3815 22.4225 46.2858 22.4756C46.2409 22.5005 46.1886 22.477 46.2077 22.5526C46.2164 22.5869 46.2883 22.5737 46.3079 22.6039C46.3526 22.6731 46.2855 22.763 46.2961 22.8343C46.2999 22.8602 46.3393 22.835 46.3433 22.8527C46.354 22.8997 46.3244 22.9411 46.3396 22.9882C46.341 22.9925 46.3822 22.982 46.3827 22.9967C46.3875 23.1079 46.3611 23.2047 46.3604 23.3207C46.36 23.3768 46.3828 23.4771 46.3782 23.5351C46.3705 23.6358 46.3106 23.7597 46.3252 23.8457C46.3345 23.9018 46.3757 23.8895 46.4038 23.9135C46.4582 23.9599 46.3607 24.042 46.3456 24.0531C46.3451 24.0534 46.3354 24.0051 46.3142 24.0309C46.2701 24.0459 46.3454 24.0525 46.3456 24.0531C46.3358 24.0603 46.3265 24.1567 46.3344 24.1759C46.3387 24.1863 46.3777 24.1805 46.3792 24.1859C46.4142 24.3148 46.4241 24.444 46.4058 24.5748C46.4051 24.5771 46.3614 24.5736 46.3601 24.579C46.3406 24.6547 46.3941 24.7032 46.4258 24.7657C46.4575 24.8281 46.4469 24.8776 46.3719 24.9146C46.3813 24.9617 46.3482 25.0293 46.3281 25.0681C46.308 25.107 46.393 25.1125 46.3947 25.1159C46.4485 25.2226 46.3998 25.2843 46.3922 25.395C46.3885 25.4477 46.4008 25.5521 46.4101 25.6091C46.4176 25.6541 46.3977 25.6813 46.4104 25.7228C46.4121 25.7284 46.45 25.7227 46.4514 25.7244C46.4967 25.7708 46.4042 25.7485 46.3877 25.7581C46.3275 25.7927 46.2955 25.8142 46.3238 25.8735C46.3303 25.8872 46.4635 25.927 46.4713 25.952C46.4812 25.9844 46.4335 25.9722 46.445 26.0061C46.446 26.009 46.4754 26.0084 46.4741 26.0294C46.4685 26.1267 46.4513 26.2327 46.4543 26.3338C46.4546 26.3476 46.5013 26.3299 46.5025 26.3499C46.5081 26.4435 46.5063 26.5461 46.4845 26.6373C46.4789 26.6597 46.4462 26.6457 46.4365 26.6505C46.3777 26.6805 46.4631 26.7229 46.4647 26.7299C46.5058 26.8969 46.4285 27.0247 46.4653 27.1949C46.4674 27.2041 46.559 27.2755 46.4805 27.3073C46.4753 27.3095 46.3949 27.3409 46.4498 27.3688C46.4533 27.3705 46.4946 27.3509 46.4904 27.3851C46.4862 27.4193 46.5139 27.4744 46.4684 27.5215C46.4541 27.5364 46.3739 27.5716 46.4378 27.616C46.4423 27.6189 46.5868 27.6875 46.4871 27.712C46.4707 27.716 46.3652 27.7118 46.4193 27.7649C46.4298 27.775 46.4533 27.7566 46.468 27.7833C46.4906 27.8242 46.4624 27.8784 46.5094 27.9287C46.5177 27.9374 46.5893 27.9748 46.5349 28.0047C46.5264 28.0094 46.4912 28.0005 46.4873 28.0163C46.4684 28.0915 46.4919 28.1702 46.4675 28.2465C46.459 28.2736 46.4021 28.2598 46.3868 28.2879C46.3715 28.3161 46.3569 28.3729 46.3829 28.4024C46.4089 28.4319 46.4997 28.3997 46.5069 28.4439C46.5384 28.6361 46.4852 28.8264 46.4774 29.0183C46.4763 29.0467 46.5087 29.0231 46.5094 29.0651C46.5118 29.2197 46.5422 29.4866 46.4732 29.6208C46.418 29.7283 46.3759 29.593 46.3534 29.6751C46.3427 29.7148 46.4482 29.7577 46.4515 29.7672C46.4852 29.8607 46.4385 29.9257 46.4528 30.0098C46.4558 30.0272 46.4986 30.0101 46.5006 30.0249C46.508 30.0754 46.489 30.1285 46.4924 30.1768C46.4941 30.1984 46.5268 30.1944 46.5242 30.2144C46.5186 30.262 46.5049 30.3042 46.4743 30.3507C46.4715 30.3549 46.4308 30.3263 46.4293 30.3616C46.427 30.4187 46.3968 30.4896 46.428 30.5552C46.4374 30.5747 46.512 30.5755 46.4605 30.6174C46.4497 30.6262 46.3601 30.6149 46.4375 30.6637C46.4504 30.6719 46.5548 30.7539 46.4875 30.7941C46.4698 30.8047 46.3965 30.8318 46.408 30.8553C46.4098 30.8584 46.4499 30.8457 46.4538 30.8651C46.4669 30.9336 46.4626 31.0053 46.4752 31.0756C46.4786 31.0944 46.5201 31.0664 46.5239 31.0944C46.5344 31.1713 46.5238 31.2674 46.5108 31.3426C46.506 31.3704 46.4716 31.3512 46.4679 31.3532C46.407 31.3857 46.4891 31.4049 46.4939 31.4157C46.5226 31.4827 46.484 31.5337 46.4942 31.5954C46.4969 31.6125 46.5361 31.6004 46.5396 31.6038C46.5737 31.639 46.5034 31.6128 46.4956 31.6351C46.4737 31.6974 46.4768 31.767 46.4818 31.8301C46.4837 31.8533 46.5291 31.8272 46.5303 31.848C46.5381 31.9711 46.5338 32.0991 46.5087 32.2193C46.5039 32.2419 46.469 32.2277 46.461 32.2324C46.4052 32.2649 46.4813 32.3125 46.4886 32.3235C46.5217 32.3733 46.4908 32.3926 46.4966 32.4367C46.5253 32.6516 46.5049 32.917 46.4922 33.12C46.4759 33.3844 46.4427 33.5896 46.4513 33.8417C46.4518 33.8577 46.4983 33.8416 46.4993 33.8554C46.5106 34.0337 46.4924 34.2093 46.5058 34.3881C46.5068 34.4027 46.5509 34.3816 46.554 34.4051C46.5607 34.4534 46.5583 34.5146 46.5443 34.5634C46.5375 34.5872 46.4997 34.5553 46.4936 34.5792C46.4794 34.635 46.4763 34.6949 46.4834 34.7522C46.4865 34.7766 46.5315 34.7398 46.5321 34.7715C46.5365 34.9875 46.5443 35.1996 46.4859 35.4178C46.4819 35.4328 46.3903 35.4459 46.4079 35.4777C46.4333 35.4801 46.4632 35.48 46.4904 35.4811C46.505 35.7955 46.4732 36.1067 46.4683 36.422C46.4681 36.4353 46.5167 36.4123 46.5166 36.438C46.5158 36.587 46.5293 36.7317 46.481 36.884C46.4763 36.8991 46.3909 36.8914 46.4038 36.9359C46.4062 36.9438 46.4176 37.0109 46.4361 37.0282C46.4389 37.0306 46.4788 37.0184 46.4799 37.04C46.486 37.1656 46.4769 37.2973 46.4525 37.4227C46.4485 37.443 46.4061 37.4214 46.4028 37.4358C46.3803 37.5381 46.4126 37.6494 46.374 37.7471C46.3481 37.8125 46.2747 37.7883 46.2025 37.8231C46.1923 37.828 46.1907 37.8685 46.1486 37.8706C46.043 37.876 45.9272 37.8564 45.8146 37.8644C45.7903 37.8661 45.8165 37.9204 45.7578 37.8882C45.7539 37.886 45.7344 37.8467 45.7146 37.837C45.7008 37.8302 45.6581 37.8424 45.6405 37.8286C45.6229 37.8149 45.6587 37.7997 45.638 37.7769C45.6171 37.7541 45.5685 37.7641 45.5627 37.7186ZM46.2382 25.2433C46.1973 25.2793 46.3469 25.2846 46.3111 25.2456C46.3092 25.2437 46.2402 25.2414 46.2382 25.2433ZM46.2146 20.8863C46.1486 20.9334 46.2456 20.9656 46.2965 20.9324C46.3474 20.8992 46.2346 20.872 46.2146 20.8863ZM46.1664 20.3981C46.1144 20.4532 46.3265 20.4618 46.2836 20.4029C46.2812 20.3995 46.1694 20.3949 46.1664 20.3981ZM46.1819 37.6619C46.1799 37.6624 46.178 37.6915 46.1799 37.6922C46.2274 37.7077 46.2313 37.6495 46.1819 37.6619ZM46.114 19.9137C46.0853 19.9309 46.1184 19.9803 46.1541 19.959C46.1828 19.9418 46.1497 19.8923 46.114 19.9137ZM46.0786 27.1217C46.0763 27.1223 46.0743 27.1432 46.0869 27.1428C46.1275 27.1413 46.1161 27.1123 46.0786 27.1217ZM46.1115 19.0904C46.1035 19.212 45.9284 19.2858 45.9481 19.1533C45.9517 19.1293 46.004 19.205 46.0198 19.1745C46.0486 19.1186 45.9386 19.0815 45.9975 19.0245C46.0083 19.0142 46.1124 19.0834 46.1118 19.0906C46.1117 19.0905 46.1116 19.0904 46.1115 19.0904ZM46.0586 25.264C46.0566 25.2647 46.0547 25.2936 46.0567 25.2943C46.1041 25.31 46.1079 25.2517 46.0586 25.264ZM45.9861 28.3399C45.9819 28.3415 45.9779 28.4086 45.9818 28.4108C46.0595 28.4458 46.0677 28.3102 45.9861 28.3399ZM45.9491 23.3176C45.9014 23.2861 45.8957 23.2484 45.9557 23.2232C45.9525 23.2546 45.9521 23.2861 45.9491 23.3176Z" fill="#16181B"/>
<path d="M52.5343 32.122C52.4735 32.2012 52.3719 32.2831 52.2886 32.3393C52.2626 32.357 52.2549 32.3272 52.2361 32.3385C52.1993 32.3607 52.181 32.3974 52.1432 32.4179C52.1305 32.4246 52.1129 32.3829 52.1003 32.3906C52.0317 32.433 51.9867 32.4931 51.9241 32.543C51.616 32.7889 51.3325 33.0501 51.0385 33.317C50.9416 33.405 50.8023 33.4905 50.7186 33.5978C50.7088 33.6103 50.7415 33.6297 50.7415 33.634C50.7412 33.7002 50.6996 33.6365 50.6709 33.6512C50.5571 33.7099 50.4588 33.8033 50.3859 33.8964C50.3549 33.936 50.4421 33.9524 50.3775 33.9589C50.3731 33.9594 50.3544 33.9228 50.3417 33.9295C50.3131 33.9448 50.2764 33.9914 50.2572 34.0062C50.2201 34.0346 50.2149 34.0404 50.1836 34.0711C50.1405 34.1128 50.0763 34.1495 50.0371 34.2012C50.0288 34.2124 50.07 34.2279 50.0594 34.2482C50.0487 34.2685 50.0053 34.3071 49.9848 34.3142C49.9643 34.3214 49.9478 34.2932 49.9403 34.2905C49.877 34.2675 49.8893 34.3747 49.8847 34.3823C49.7986 34.5187 49.6692 34.5801 49.5648 34.6847C49.4857 34.7641 49.4121 34.8601 49.3351 34.934C49.2433 35.022 49.1517 35.0828 49.067 35.1727C49.0581 35.1822 49.1022 35.2048 49.0913 35.2164C48.9756 35.3399 48.8532 35.455 48.7117 35.5515C48.6974 35.5612 48.6835 35.5165 48.6676 35.5244C48.5705 35.5734 48.3971 35.6311 48.4812 35.802C48.4267 35.8465 48.3615 35.9014 48.2916 35.92C48.2465 35.932 48.2423 35.8724 48.2208 35.9211C48.216 35.932 48.2542 35.9497 48.2448 35.9639C48.2051 36.0241 48.1414 36.0696 48.1065 36.1334C48.0994 36.1464 48.1272 36.1687 48.1289 36.1761C48.1415 36.2365 48.0413 36.216 48.0282 36.2203C47.9294 36.2537 47.894 36.3148 47.8316 36.3756C47.8171 36.3897 47.8677 36.4064 47.8549 36.4212C47.7884 36.4973 47.7117 36.5683 47.6269 36.6233C47.608 36.6354 47.5936 36.5925 47.5831 36.5968C47.5371 36.6162 47.5839 36.6776 47.5408 36.6973C47.5318 36.7015 47.511 36.6733 47.5071 36.6718C47.446 36.6484 47.4895 36.7247 47.4859 36.7309C47.4425 36.8104 47.3407 36.7872 47.2902 36.8554C47.2842 36.8637 47.3312 36.8787 47.3125 36.8999C47.188 37.0415 47.0388 37.1737 46.8823 37.2806C46.858 37.2972 46.8493 37.2593 46.8452 37.2577C46.7793 37.2338 46.8258 37.3076 46.8214 37.3165C46.7851 37.3855 46.6854 37.3842 46.7213 37.4917C46.5223 37.6507 46.366 37.851 46.1645 38.0051L46.0699 38.111L45.9513 38.0051C45.9133 37.9555 45.8782 37.9031 45.8472 37.8467C45.8451 37.8432 45.8798 37.8186 45.8755 37.8116C45.8246 37.7274 45.7915 37.7864 45.6905 37.798C45.6651 37.8009 45.6988 37.6987 45.7008 37.6906C45.7081 37.6612 45.7636 37.6286 45.7635 37.6214C45.7608 37.5628 45.62 37.7136 45.5787 37.6723C45.5777 37.6708 45.6099 37.6494 45.6091 37.6433C45.6067 37.6241 45.5854 37.6241 45.5841 37.6043C45.5813 37.5589 45.6436 37.4795 45.5655 37.4839C45.5555 37.4845 45.48 37.5743 45.447 37.5336C45.4339 37.5172 45.3675 37.4536 45.3546 37.43C45.3418 37.4065 45.3809 37.3923 45.3808 37.3899C45.3669 37.3056 45.4001 37.3096 45.4277 37.2329C45.4551 37.1563 45.338 37.2871 45.3141 37.2909C45.2903 37.2946 45.2834 37.2296 45.2847 37.2107C45.2859 37.1917 45.3139 37.1858 45.3117 37.1722C45.297 37.0828 45.2274 37.2109 45.1905 37.2134C45.1035 37.2195 45.1639 37.0961 45.1359 37.05C45.1283 37.0376 45.1155 37.0667 45.1046 37.0597C45.0618 37.0319 45.0692 36.9819 45.0027 36.968C44.9919 36.9657 44.9041 36.9884 44.9236 36.9269C44.9265 36.918 44.9578 36.9036 44.9479 36.8834C44.9331 36.8532 44.8976 36.8076 44.8657 36.7911C44.8422 36.7789 44.8249 36.8371 44.8142 36.8029C44.8094 36.7877 44.85 36.7841 44.8392 36.7574C44.8285 36.7307 44.7798 36.6839 44.7609 36.6665C44.742 36.6492 44.7233 36.6877 44.7199 36.6882C44.7 36.6904 44.6514 36.6694 44.6483 36.6663C44.4897 36.5146 44.3949 36.3233 44.2279 36.1883C44.2149 36.1777 44.1926 36.2157 44.1903 36.2144C44.1371 36.1865 44.2493 36.1382 44.2478 36.083C44.1907 36.1484 44.185 36.1206 44.1497 36.0987C44.1327 36.0882 44.1164 36.1194 44.1128 36.1206C44.0563 36.1362 44.0886 36.0754 44.0945 36.0623C44.116 36.0137 44.0599 36.0404 44.0741 36.0078C44.0881 35.9753 44.1437 35.9621 44.1159 35.9351C44.0862 35.9493 44.0493 36.027 44.0192 36.0155C43.9055 35.9721 43.8039 35.7805 43.7455 35.7127C43.6871 35.6451 43.6627 35.6288 43.6339 35.5841C43.582 35.5035 43.5637 35.5703 43.5031 35.5486C43.4423 35.5267 43.567 35.4422 43.5836 35.4138C43.6002 35.3855 43.5707 35.4022 43.5758 35.3826C43.581 35.3631 43.6119 35.3634 43.5995 35.3418C43.5872 35.3201 43.5007 35.3136 43.4712 35.3311C43.4086 35.3682 43.3773 35.4414 43.3506 35.3781C43.3491 35.3744 43.385 35.3553 43.3779 35.3426C43.3204 35.2427 43.24 35.1597 43.1801 35.0623C43.1719 35.0489 43.2122 35.028 43.2077 35.0198C43.1618 34.9347 43.1336 35.0097 43.0404 35.0311C43.1247 34.9629 43.1515 34.8964 43.1023 34.8462C43.0727 34.816 43.0445 34.8545 43.0017 34.8587C42.9888 34.8599 42.9905 34.8159 42.9711 34.8277C42.9072 34.8663 42.8698 34.9436 42.8414 34.8695C42.8402 34.8661 42.8754 34.8453 42.8693 34.8358C42.8302 34.7745 42.7706 34.822 42.7098 34.7742C42.6622 34.7367 42.6191 34.6284 42.576 34.5746C42.6628 34.4899 42.5974 34.4637 42.5197 34.5043C42.4906 34.4704 42.4533 34.4398 42.4311 34.4012C42.4234 34.388 42.4551 34.37 42.4565 34.366C42.4783 34.3037 42.4071 34.3475 42.3981 34.343C42.3026 34.2913 42.2862 34.1878 42.1734 34.1602C42.1694 34.1592 42.1058 34.2148 42.1305 34.1525C42.1323 34.1483 42.1826 34.1444 42.1516 34.1092C42.1207 34.0741 42.0904 33.9799 42.0169 33.9616C41.9991 33.9572 41.9227 33.9775 41.938 33.9171C41.9401 33.909 41.9605 33.8952 41.9656 33.8814C41.9819 33.8371 41.9141 33.8896 41.9488 33.822C41.9834 33.7544 41.9875 33.6819 41.906 33.6709C41.9035 33.6704 41.8448 33.7072 41.831 33.6919C41.809 33.6674 41.786 33.6245 41.7614 33.6006C41.7497 33.5892 41.7275 33.6262 41.7249 33.6248C41.6302 33.5633 41.6011 33.4813 41.5289 33.3862C41.5158 33.3688 41.4313 33.3651 41.4336 33.3035C41.436 33.2359 41.6149 33.1239 41.5054 33.0837C41.4613 33.0674 41.2385 33.2137 41.2798 33.0638C41.1509 32.9822 41.1024 32.8359 40.963 32.7641C40.9568 32.7609 40.8902 32.7974 40.8798 32.7855C40.8643 32.7678 40.8793 32.7346 40.8691 32.7212C40.8268 32.6644 40.7608 32.6396 40.7162 32.5886C40.6992 32.5693 40.7304 32.5507 40.7102 32.5277C40.6899 32.5047 40.6427 32.523 40.6292 32.4779C40.6192 32.4437 40.664 32.3545 40.6424 32.3174C40.5752 32.3823 40.5564 32.3608 40.5031 32.3423C40.4928 32.3388 40.4772 32.3692 40.4712 32.3688C40.446 32.3673 40.4528 32.336 40.4273 32.3363C40.4211 32.3363 40.3984 32.3587 40.3921 32.36C40.3375 32.372 40.3532 32.2861 40.356 32.2712C40.3664 32.2145 40.3263 32.2331 40.3218 32.2021C40.3173 32.1712 40.3603 32.1811 40.3476 32.1524C40.3214 32.093 40.2626 32.0416 40.2201 31.997C40.2031 31.9794 40.1848 32.0213 40.1816 32.0195C40.1381 31.9912 40.1338 31.9229 40.0539 31.963C40.1841 31.7829 40.0172 31.9563 39.9969 31.8739C39.9954 31.8674 40.0636 31.7889 40.0899 31.7936C40.1162 31.7984 40.1168 31.8449 40.1551 31.8496C40.1642 31.8508 40.2621 31.8112 40.2703 31.8111C40.3341 31.8097 40.2288 31.9238 40.2245 31.9315C40.1782 32.0152 40.288 31.9769 40.3025 31.9811C40.369 32.0007 40.3901 32.0527 40.4428 32.0719C40.4772 32.0846 40.5513 32.0151 40.5676 32.0358C40.6218 32.1045 40.543 32.2261 40.6878 32.1971C40.7187 32.191 40.7849 32.1002 40.7676 32.2064C40.7665 32.2131 40.7431 32.3025 40.7979 32.2859C40.8048 32.2838 40.8276 32.2608 40.8327 32.2621C40.8663 32.2708 40.8622 32.3032 40.894 32.3175C40.9258 32.3319 40.9665 32.3466 40.9851 32.3807C40.9963 32.4012 40.9741 32.4642 40.9712 32.4822C40.9626 32.5337 41.0349 32.5074 41.0118 32.5571C40.9886 32.6071 40.9068 32.6365 40.9183 32.6953C40.9791 32.6371 41.0431 32.5791 41.105 32.5214C41.1799 32.6006 41.2365 32.6956 41.3164 32.7702C41.3263 32.7794 41.3485 32.7377 41.36 32.7467C41.4084 32.785 41.4235 32.8456 41.4775 32.8815C41.5194 32.9091 41.5914 32.9134 41.6363 32.9413C41.5905 33.0315 41.6676 33.0624 41.7006 33.1078C41.7122 33.1237 41.6931 33.1409 41.6969 33.1566C41.7118 33.2154 41.7547 33.138 41.7742 33.1387C41.858 33.1416 41.7256 33.2814 41.7801 33.3291C41.7829 33.3317 41.8885 33.2923 41.8976 33.2923C41.956 33.2918 41.8772 33.3224 41.8899 33.3459C41.9132 33.3887 41.9189 33.4291 41.979 33.4466C41.9966 33.4517 42.0689 33.4336 42.056 33.4906C42.0543 33.498 42.0287 33.5204 42.0296 33.5241C42.0484 33.5897 42.1248 33.5155 42.1744 33.514C42.224 33.5126 42.2092 33.6018 42.2018 33.6244C42.1828 33.6829 42.17 33.6258 42.1651 33.6285C42.1073 33.6612 42.1422 33.6805 42.1591 33.7051C42.0883 33.7819 42.1217 33.8065 42.1769 33.7302C42.1829 33.7218 42.1599 33.7126 42.1591 33.7051C42.2498 33.6508 42.2909 33.6734 42.2584 33.7763C42.2431 33.8245 42.1905 33.8459 42.2541 33.8824C42.2829 33.899 42.325 33.8394 42.3589 33.8456C42.4363 33.8597 42.4484 33.9666 42.5031 34.0064C42.5229 34.0208 42.534 33.9763 42.5486 33.9852C42.5872 34.0087 42.5937 34.057 42.6356 34.0775C42.6394 34.0793 42.6617 34.0432 42.6717 34.0526C42.7487 34.1228 42.7941 34.2055 42.8704 34.2828C42.9072 34.3201 42.9897 34.3704 43.0249 34.4121C43.0861 34.4841 43.1257 34.6085 43.1929 34.6551C43.2366 34.6856 43.2576 34.6483 43.2933 34.6444C43.3625 34.6366 43.3479 34.7599 43.3446 34.7779C43.3444 34.7784 43.3056 34.7534 43.3077 34.7854C43.2864 34.8265 43.3441 34.7776 43.3446 34.7779C43.3425 34.7896 43.3997 34.86 43.4179 34.8671C43.4278 34.8709 43.4516 34.8395 43.4562 34.842C43.5663 34.9026 43.6588 34.9811 43.7324 35.0805C43.7334 35.0826 43.7002 35.1112 43.7029 35.1157C43.7392 35.1795 43.8091 35.1738 43.8728 35.1927C43.9366 35.2116 43.9618 35.2519 43.9333 35.3294C43.9711 35.3539 43.9924 35.422 44.0039 35.462C44.0154 35.502 44.0791 35.4454 44.0826 35.4465C44.1913 35.4791 44.1977 35.5543 44.2656 35.633C44.2978 35.6705 44.3756 35.7308 44.4199 35.762C44.455 35.7865 44.4589 35.8185 44.4954 35.837C44.5003 35.8395 44.5233 35.809 44.5255 35.8091C44.5881 35.8077 44.508 35.8584 44.5026 35.8765C44.4831 35.9419 44.4746 35.9787 44.5338 35.998C44.5475 36.0025 44.6681 35.9346 44.6901 35.9456C44.7186 35.9601 44.6767 35.9857 44.7073 36C44.7099 36.0013 44.7304 35.98 44.7433 35.9948C44.8037 36.0632 44.8618 36.1455 44.9307 36.2103C44.9401 36.2193 44.9614 36.1745 44.9755 36.1869C45.0413 36.2449 45.108 36.314 45.1529 36.3898C45.1638 36.4086 45.1314 36.4224 45.1277 36.4325C45.106 36.4939 45.1945 36.4616 45.2002 36.4651C45.3398 36.5465 45.3697 36.6858 45.5083 36.7724C45.516 36.777 45.6279 36.7594 45.5935 36.836C45.5912 36.8412 45.5552 36.9188 45.6125 36.8984C45.6161 36.8971 45.6323 36.8549 45.652 36.8805C45.6717 36.9061 45.7277 36.923 45.7267 36.9863C45.7264 37.0063 45.693 37.0863 45.7676 37.0705C45.7727 37.0693 45.9202 37.0125 45.866 37.0992C45.857 37.1134 45.7796 37.1853 45.853 37.1821C45.8671 37.1814 45.8716 37.1526 45.8996 37.1599C45.9427 37.1709 45.9586 37.2268 46.0251 37.2268C46.0368 37.2267 46.1121 37.2008 46.0935 37.259C46.0906 37.2682 46.0598 37.2872 46.0675 37.3004C46.1038 37.3635 46.1726 37.399 46.2059 37.4667C46.2177 37.4907 46.1683 37.5218 46.1762 37.5512C46.1841 37.5807 46.2113 37.6286 46.2492 37.6298C46.2871 37.6309 46.3299 37.5454 46.3643 37.5695C46.3687 37.5726 46.3731 37.5757 46.3774 37.5789H45.7384C45.8434 37.4373 46.0013 37.3507 46.1299 37.2328C46.1495 37.2148 46.111 37.2074 46.1383 37.1792C46.2389 37.0752 46.394 36.877 46.5316 36.837C46.6418 36.805 46.582 36.9242 46.6523 36.8858C46.6861 36.8671 46.6399 36.7642 46.6439 36.7555C46.6819 36.6698 46.7579 36.6598 46.8034 36.594C46.8128 36.5804 46.7713 36.5614 46.7796 36.5502C46.8078 36.5115 46.8565 36.4899 46.8859 36.4555C46.8991 36.44 46.8733 36.4195 46.8883 36.4081C46.9239 36.3806 46.9615 36.3624 47.0139 36.3533C47.0186 36.3524 47.0285 36.4001 47.0529 36.3778C47.0923 36.3417 47.1605 36.3161 47.1819 36.2506C47.1882 36.2311 47.1359 36.1778 47.2001 36.1865C47.2135 36.1883 47.2695 36.2591 47.247 36.1721C47.2433 36.1576 47.2237 36.0295 47.298 36.0504C47.3175 36.0559 47.3873 36.0899 47.3946 36.0662C47.3954 36.0628 47.3587 36.0429 47.3688 36.0273C47.4048 35.9727 47.4553 35.9283 47.4929 35.8729C47.5029 35.8581 47.4551 35.8472 47.4709 35.826C47.5144 35.7677 47.5855 35.7116 47.6445 35.671C47.6663 35.6561 47.6779 35.693 47.6818 35.6943C47.7463 35.7159 47.701 35.6451 47.7047 35.6346C47.7288 35.57 47.7898 35.5635 47.8235 35.5154C47.8329 35.5022 47.7972 35.4825 47.797 35.4778C47.7961 35.4304 47.8285 35.4975 47.8487 35.4882C47.9055 35.4624 47.9493 35.4142 47.9875 35.3689C48.0015 35.3522 47.9522 35.3374 47.9651 35.3228C48.0411 35.2358 48.1288 35.1541 48.226 35.0923C48.2444 35.0807 48.2597 35.1149 48.2685 35.1174C48.3295 35.1354 48.3071 35.05 48.3092 35.0376C48.3188 34.9812 48.3534 34.9903 48.3785 34.9571C48.5004 34.7945 48.6906 34.6333 48.8338 34.508C49.0203 34.3445 49.1796 34.2322 49.3403 34.0593C49.3506 34.0483 49.307 34.0261 49.3154 34.0162C49.4255 33.8903 49.5546 33.7869 49.6633 33.6592C49.6723 33.6487 49.6272 33.6316 49.6405 33.6138C49.6677 33.5771 49.7099 33.5383 49.7522 33.5159C49.7727 33.505 49.7783 33.5529 49.7985 33.5413C49.8454 33.5144 49.8872 33.477 49.9202 33.4341C49.9341 33.4157 49.8779 33.4082 49.8985 33.3869C50.0383 33.2408 50.1732 33.0949 50.3589 32.9918C50.3716 32.9847 50.4451 33.0408 50.4537 33.0073C50.4373 32.9878 50.4161 32.9667 50.3976 32.9468C50.5953 32.7284 50.8237 32.5449 51.0358 32.3397C51.0448 32.331 50.9952 32.3119 51.0123 32.295C51.1114 32.1969 51.1976 32.0917 51.3326 32.0249C51.3459 32.0183 51.4012 32.0838 51.4216 32.0452C51.4251 32.0383 51.4614 31.9859 51.4598 31.9613C51.4594 31.9577 51.4231 31.9376 51.4366 31.9225C51.5155 31.8351 51.609 31.7544 51.7093 31.6886C51.7255 31.678 51.7412 31.7223 51.7531 31.7151C51.8367 31.6633 51.8875 31.5669 51.9794 31.5294C52.0411 31.5045 52.0769 31.5724 52.151 31.6005C52.1615 31.6044 52.1894 31.5788 52.2205 31.6071C52.2988 31.6783 52.3677 31.7731 52.4526 31.8474C52.4709 31.8634 52.4883 31.8091 52.5085 31.8718C52.5098 31.876 52.4976 31.9158 52.5052 31.9363C52.5105 31.9505 52.5487 31.9727 52.5521 31.9942C52.5554 32.0158 52.5201 32.0004 52.5196 32.0302C52.5193 32.0601 52.5603 32.0878 52.5343 32.122ZM44.0562 35.6415C44.0512 35.6942 44.1605 35.5919 44.1094 35.5915C44.1068 35.5916 44.0564 35.6388 44.0562 35.6415ZM41.1563 32.7749C41.1408 32.8527 41.2307 32.8054 41.2447 32.7474C41.2587 32.6895 41.1609 32.7513 41.1563 32.7749ZM40.7992 32.4859C40.7988 32.5591 40.9545 32.4149 40.8852 32.4062C40.8812 32.4056 40.7992 32.4816 40.7992 32.4859ZM52.0589 31.7217C52.0606 31.7228 52.0812 31.7049 52.0803 31.703C52.057 31.6592 52.0157 31.695 52.0589 31.7217ZM40.4415 32.2024C40.4326 32.234 40.4887 32.2433 40.4998 32.204C40.5087 32.1723 40.4526 32.163 40.4415 32.2024ZM45.1865 36.9974C45.1853 36.9994 45.1977 37.0146 45.2063 37.0054C45.2341 36.9758 45.2067 36.9647 45.1865 36.9974ZM39.8949 31.6592C39.9698 31.7454 39.8947 31.9181 39.821 31.8164C39.8077 31.798 39.8947 31.8111 39.8857 31.7798C39.8691 31.7224 39.7667 31.7757 39.7707 31.6963C39.7715 31.6818 39.8909 31.6541 39.8952 31.6592C39.8951 31.6592 39.895 31.6592 39.8949 31.6592ZM43.9429 35.7822C43.942 35.7841 43.9598 35.8045 43.9617 35.8036C44.0056 35.7804 43.9698 35.7392 43.9429 35.7822ZM45.9273 37.869C45.9253 37.873 45.9669 37.9202 45.9711 37.9189C46.0492 37.8871 45.9652 37.7916 45.9273 37.869ZM42.5775 34.5715C42.5229 34.5844 42.4939 34.5635 42.5197 34.5044C42.5382 34.5274 42.5587 34.5486 42.5775 34.5715Z" fill="#16181B"/>
</svg>
