<svg width="56" height="56" viewBox="0 0 56 56" fill="none" xmlns="http://www.w3.org/2000/svg">
<path d="M48.4949 23.9651C48.5079 23.3861 48.494 22.6271 48.4749 22.0502C48.469 21.8695 48.4425 21.961 48.4372 21.8362C48.4269 21.5921 48.4399 21.3648 48.4276 21.1236C48.4234 21.0436 48.3814 21.1431 48.378 21.0593C48.3594 20.6 48.3701 20.1655 48.3612 19.7002C48.3404 18.6201 48.326 17.5486 48.3145 16.4747C48.3025 15.2262 48.0276 13.9762 47.4892 12.8282C47.1584 12.1083 46.6029 11.3184 46.0734 10.702C46.0119 10.6296 46.0769 10.6474 46.0671 10.6319C45.9098 10.3895 45.9185 10.51 45.7836 10.3833C45.2451 9.88176 44.602 9.38111 44.003 9.00801C43.7476 8.85072 44.045 8.93797 43.7607 8.82388C43.741 8.81613 43.7887 8.88726 43.7146 8.85106C43.5479 8.76782 43.2339 8.60494 43.1004 8.54992C42.8431 8.44267 42.8013 8.4255 42.5549 8.3322C42.2181 8.20685 41.802 8.1019 41.4288 8.01027C41.3488 7.99057 41.4644 7.97459 41.3366 7.94012C41.2096 7.90435 40.8634 7.84767 40.7462 7.84266C40.6285 7.83609 40.674 7.87429 40.6525 7.87867C40.4765 7.91453 40.0868 7.79825 40.0332 7.79506C39.8603 7.77857 39.6924 7.77024 39.5254 7.76851C38.8076 7.76093 38.1521 7.79298 37.4467 7.79286C36.7908 7.79266 36.0894 7.77677 35.4652 7.77895C34.7217 7.7817 34.0915 7.80344 33.3691 7.7997C33.2929 7.79935 33.3822 7.75219 33.2891 7.75167C32.2998 7.74618 31.3175 7.75132 30.3325 7.78316C30.2337 7.78639 30.361 7.8278 30.2623 7.83351C29.6581 7.86755 28.702 7.9493 28.3431 7.769C27.9338 7.77604 27.4369 7.78331 27.0708 7.81966C26.8347 7.84305 27.064 7.88816 26.774 7.86891C26.7086 7.86462 26.7936 7.82512 26.6955 7.82167C26.2825 7.80721 25.8313 7.82005 25.4228 7.79964C25.3397 7.79539 25.3624 7.75999 25.3388 7.75362C25.1409 7.70199 24.8115 7.78733 24.7397 7.79353C24.1929 7.83978 23.7935 7.82158 23.2841 7.82271C23.1658 7.82299 23.3056 7.77544 23.1918 7.77401C22.6018 7.76719 21.9907 7.77127 21.413 7.79237C21.2845 7.79718 21.4026 7.83769 21.3412 7.84206C21.0705 7.86083 21.0105 7.78433 20.7508 7.80086C20.696 7.80424 20.7269 7.83892 20.7169 7.84273C20.5606 7.90251 20.4248 7.81781 20.3846 7.81593C19.8761 7.79038 19.5511 7.87881 19.0598 7.86629C19.0011 7.8647 19.1336 7.82083 18.9684 7.81905C18.1532 7.81008 17.3032 7.81436 16.4746 7.83145C16.1776 7.83741 15.8853 7.86003 15.6011 7.89779C15.4299 7.92128 15.5562 7.94107 15.5457 7.94622C15.3779 8.02826 15.2557 7.9606 15.1994 7.9656C14.7553 8.00784 14.3732 8.174 14.0557 8.16122C12.261 8.71271 10.6078 9.81188 9.57272 11.3649C9.55957 11.3844 9.61824 11.3755 9.592 11.4143C9.28424 11.8867 9.29698 11.7619 9.02987 12.0416C8.9623 12.113 8.90551 12.413 8.90127 12.4382C8.88093 12.5319 8.9808 12.4767 8.97081 12.5062C8.8899 12.7488 8.72168 12.6183 8.57545 12.9358C8.57131 12.9459 8.62465 12.9198 8.61612 12.9479C8.58988 13.0352 8.54041 13.112 8.51885 13.1986C8.47088 13.3981 8.5371 13.4982 8.38336 13.7682C8.36475 13.803 8.26879 13.7081 8.1831 14.0076C8.14553 14.1258 8.01095 14.6587 7.99377 14.8122C7.97251 14.9641 8.02925 14.8676 8.02875 14.8787C8.00655 15.2923 8.055 15.1423 8.09878 15.3535C8.1462 15.5632 7.97985 15.487 7.95103 15.5686C7.9214 15.6502 7.93922 15.9533 7.95108 16.028C7.96173 16.1019 7.99009 16.012 7.99506 16.0771C8.0332 16.5088 7.90209 16.2642 7.87137 16.4077C7.86682 16.4303 7.86323 16.4526 7.86049 16.4747C7.82199 16.7785 7.93606 17.0247 7.94795 17.3108C7.95139 17.3937 7.92179 17.3261 7.91902 17.3999C7.90845 17.6923 7.94901 17.8682 7.91182 18.2008C7.90576 18.2553 7.82762 18.5242 7.88497 18.6983C7.89324 18.7229 7.92562 18.6529 7.93288 18.7775C7.94377 18.9636 7.95085 19.2991 7.94002 19.4992C7.93201 19.6469 7.87864 19.4776 7.89522 19.6636C7.90262 19.7462 7.93384 19.593 7.94515 19.7483C7.95645 19.9028 7.95508 20.2977 7.954 20.448C7.9529 20.5979 7.91241 20.5158 7.90969 20.528C7.89406 20.6013 7.87454 20.8892 7.87459 20.9146C7.86965 22.1978 7.93789 23.3811 7.9153 24.6304C7.91359 24.7284 7.8709 24.6631 7.8702 24.6781C7.85231 25.0137 7.96581 24.7491 8.0038 24.9836C7.91717 24.9497 7.93286 25.0881 7.92336 25.3245C7.91871 25.4385 7.88517 25.3764 7.88173 25.3868C7.83078 25.5558 7.89659 25.6734 7.91005 25.7037C7.95957 25.8156 7.90106 25.9374 7.93416 26.0135C7.96701 26.0896 8.01572 25.9145 8.01509 26.1412C7.98408 26.2048 7.90304 26.0365 7.88991 26.2086C7.84023 26.8582 7.90381 28.0707 7.91042 28.5929C7.91702 29.1141 7.9113 29.2825 7.9225 29.5862C7.94277 30.1348 7.88264 29.9338 7.85512 30.2744C7.8276 30.6161 7.97554 30.45 8.00734 30.4991C8.03913 30.5473 8.00641 30.5999 8.02388 30.6599C8.04135 30.7197 8.06298 30.5903 8.06954 30.7309C8.07609 30.8715 8.01954 31.2561 7.98628 31.3059C7.91584 31.4113 7.8419 31.238 7.86788 31.6102C7.86942 31.6316 7.90832 31.5622 7.91225 31.6441C7.9422 32.2951 7.94405 32.9714 7.97054 33.6216C7.97424 33.711 8.01751 33.6311 8.02016 33.6831C8.04784 34.2251 7.97487 34.0313 7.89382 34.3284C8.00168 34.2617 8.06768 34.4259 8.06832 34.8372C8.06874 35.0845 8.02162 35.0419 7.98842 35.2018C7.97841 35.2498 8.01076 35.4248 7.9886 35.4565C7.91618 35.561 7.83511 35.3962 7.86739 35.8203C7.86892 35.8389 7.90857 35.7796 7.91097 35.8439C7.92668 36.2595 7.85093 36.3092 7.84175 36.7584C7.83456 37.1105 7.88075 37.7366 7.88826 38.1375C8.00954 38.1291 7.98177 38.5078 7.89815 38.6614C7.90157 38.9216 7.89685 39.2026 7.9084 39.454C7.91234 39.5406 7.94746 39.4837 7.95125 39.4946C7.95499 39.5052 7.95817 39.5155 7.96085 39.5255C8.00092 39.677 7.93288 39.7809 7.9317 39.8344C7.92522 40.4514 8.0556 40.9396 8.13048 41.5232C8.1334 41.5437 8.05842 41.5972 8.15809 41.7349C8.16489 41.7434 8.15176 41.5462 8.22628 41.8125C8.30008 42.079 8.50794 42.5559 8.62687 42.9201C8.65436 43.0086 8.68988 43.2524 8.82401 43.3972C8.84185 43.4163 8.85094 43.3809 8.87933 43.4069C8.97057 43.4905 8.92531 43.5871 9.05537 43.6719C9.18594 43.7563 9.36948 43.9701 9.54401 44.3105C9.54965 44.3211 9.54554 44.4343 9.61773 44.5312C9.73223 44.686 9.91258 44.8913 10.0434 45.0433C10.106 45.1161 10.0342 45.097 10.0446 45.1102C10.4571 45.6123 10.8224 45.9077 11.3818 46.3146C11.4834 46.3891 11.7506 46.6484 11.9853 46.7392C12.2426 46.8353 12.1071 46.528 12.6135 46.8625C12.8166 46.9911 12.9949 47.3714 13.4657 47.4076C14.2682 47.7472 15.0743 47.8512 15.9357 47.9553C15.9746 47.96 16.0949 48.0396 16.1878 48.0415C16.3134 48.044 16.3879 48.0162 16.4746 48.0096C16.4829 48.0089 16.4914 48.0085 16.5001 48.0083C16.9102 47.998 17.2856 48.0272 17.681 48.0226C17.8311 48.021 17.7786 47.9858 17.9577 47.9838C18.1367 47.9819 18.256 48.0282 18.4985 48.0058C18.6816 47.9888 18.8648 47.894 19.1079 47.883C19.1171 47.9764 19.2841 47.9745 19.5809 47.9992C19.6379 48.004 19.5767 48.0365 19.6037 48.0404C19.7135 48.0572 19.8152 48.0303 19.9194 48.0485C19.9448 48.0529 19.946 48.0848 19.9667 48.0902C20.1431 48.1372 20.4336 48.0654 20.4835 48.0529C20.6747 48.0054 20.7641 48.0469 20.9108 48.0282C21.0572 48.0095 20.8382 47.9862 21.0093 47.9748C21.3639 47.9514 21.8195 47.9565 22.1796 47.9551C22.3233 47.9547 22.2252 47.9973 22.2458 47.9982C22.5429 48.009 22.8434 47.9637 23.0081 48.0486C23.2141 47.8291 23.1873 48.0699 23.6119 48.0259C23.6454 48.0224 23.688 47.9186 23.5595 47.9034C23.4311 47.8881 23.2363 47.9206 23.0582 47.8968C23.016 47.8913 22.7742 47.794 22.7412 47.7881C22.4829 47.7421 22.4463 47.8972 22.4326 47.9057C22.2776 47.9976 21.9822 47.8928 21.9044 47.8856C21.5486 47.8524 21.2462 47.8742 20.9486 47.8506C20.7539 47.8353 20.7349 47.7337 20.582 47.7368C20.0739 47.7471 19.8965 47.8888 19.4177 47.7659C19.315 47.7397 19.417 47.6287 19.0491 47.716C19.026 47.7215 18.7529 47.8014 18.5951 47.7508C18.5752 47.7445 18.5759 47.7121 18.5497 47.7094C18.3745 47.6918 18.2577 47.7176 18.0669 47.7052C17.8761 47.6929 17.6466 47.6745 17.4287 47.6855C17.2974 47.692 17.129 47.7523 17.0661 47.7671C16.8886 47.8096 16.6983 47.7399 16.5884 47.7914C16.4883 47.8381 16.6553 47.9067 16.4746 47.9442C16.4552 47.9482 16.4317 47.9518 16.4035 47.9548C16.3934 47.8707 16.37 47.7842 16.3545 47.6994C15.7402 47.6933 15.1313 47.6445 14.5304 47.4949C14.4563 47.4761 14.5429 47.4511 14.4642 47.4295C14.132 47.3371 13.8346 47.2764 13.5045 47.1346C13.2498 47.0245 12.993 46.856 12.744 46.7126C12.5427 46.7188 12.1818 46.4761 11.92 46.3071C11.8276 46.2482 11.8192 46.2732 11.7503 46.2352C11.4921 46.088 11.6553 46.0997 11.5984 46.0414C11.3612 45.7873 11.216 45.9202 10.9097 45.6411C10.8923 45.6265 10.7697 45.3696 10.7497 45.3394C10.616 45.147 10.6971 45.3381 10.59 45.24C10.3965 45.059 10.2531 44.937 10.0798 44.6763C10.029 44.5998 9.9471 44.3907 9.80576 44.2767C9.78707 44.2616 9.76686 44.2917 9.75442 44.2776C9.53326 44.0178 9.6204 43.9493 9.54969 43.7689C9.47978 43.5891 9.27434 43.3667 9.22803 43.3219C9.10609 43.2069 9.26365 43.4404 9.2639 43.45C9.25665 43.5695 9.15998 43.3735 9.08077 43.226C8.97584 43.2517 8.87902 43.035 8.99997 43.0724C9.013 43.0767 9.06116 43.1982 9.08077 43.226C9.10602 43.0481 9.01071 42.8185 8.81695 42.5917C8.72781 42.4845 8.71855 42.6223 8.60021 42.2329C8.54951 42.0553 8.64001 42.1002 8.61056 41.9409C8.54419 41.5786 8.37285 41.1296 8.32884 40.75C8.31298 40.6136 8.37086 40.7403 8.3618 40.6472C8.33904 40.3997 8.28943 40.1849 8.2919 39.9333C8.29226 39.9108 8.33594 39.9635 8.33294 39.8867C8.32861 39.7642 8.32573 39.6443 8.3245 39.5255C8.31991 39.0647 8.30333 38.6287 8.30275 38.1269C8.30242 37.8199 8.32514 37.2711 8.32057 36.9531C8.3129 36.4019 8.25298 35.7239 8.26753 35.2531C8.27685 34.946 8.31807 35.0134 8.34615 34.8818C8.40058 34.6279 8.30308 34.1784 8.28798 34.1179C8.28748 34.116 8.27776 34.3803 8.25661 34.2393C8.21253 34.1573 8.28779 34.1209 8.28798 34.1179C8.27823 34.0781 8.26887 33.5503 8.27675 33.4454C8.28106 33.3885 8.3201 33.4203 8.32161 33.3907C8.35656 32.6848 8.36648 31.9777 8.34822 31.2618C8.34743 31.2492 8.30376 31.2682 8.30245 31.2385C8.28303 30.8241 8.33646 30.5587 8.36818 30.2169C8.39989 29.8751 8.38927 29.604 8.31429 29.4017C8.32373 29.1439 8.29058 28.7739 8.27046 28.561C8.25035 28.3481 8.33537 28.3184 8.33705 28.2997C8.39085 27.7154 8.34218 27.3776 8.33461 26.7715C8.33086 26.4833 8.3432 25.9117 8.35249 25.5996C8.35998 25.3531 8.34006 25.2045 8.3528 24.9773C8.3545 24.9465 8.39236 24.9776 8.39381 24.9682C8.43911 24.7146 8.34656 24.8365 8.33003 24.7841C8.26993 24.5943 8.23792 24.477 8.26619 24.1523C8.27267 24.0774 8.40592 23.8592 8.41371 23.7227C8.4236 23.5451 8.37584 23.6121 8.38741 23.4262C8.38835 23.4103 8.41782 23.4136 8.41652 23.2989C8.41088 22.7664 8.39373 22.1858 8.39668 21.6324C8.39697 21.5568 8.44371 21.6537 8.4449 21.5445C8.45044 21.032 8.44871 20.4703 8.42683 19.971C8.4213 19.8481 8.38858 19.9252 8.37886 19.8985C8.32007 19.7347 8.40549 19.5024 8.40712 19.4641C8.44817 18.55 8.37086 17.8504 8.40767 16.9186C8.40926 16.8812 8.45957 16.6587 8.45423 16.4747C8.45233 16.4125 8.44419 16.355 8.42449 16.3112C8.41936 16.3 8.34265 16.1329 8.40652 15.9898C8.41064 15.9811 8.44525 16.0854 8.45251 15.9072C8.45999 15.7291 8.51667 15.4482 8.51086 15.2003C8.50886 15.1217 8.45984 14.9246 8.57307 14.7099C8.57958 14.6937 8.80303 14.3853 8.74448 14.2375C8.73521 14.2135 8.62437 14.2035 8.76072 13.9541C8.78732 13.9071 8.77923 14.0054 8.83738 13.8781C8.9265 13.6847 9.00173 13.41 9.15224 13.1909C9.17844 13.1521 9.32314 13.009 9.34524 12.8473C9.34875 12.8218 9.29615 12.8469 9.33034 12.7721C9.49381 12.4158 9.72905 12.079 9.94282 11.7434C10.0193 11.6248 9.93023 11.6488 10.0078 11.5214C10.0848 11.3937 10.265 11.1525 10.3888 11.0547C10.5121 10.9571 10.4654 11.1419 10.6267 10.9785C11.3302 10.2764 12.1044 9.64324 13.0041 9.20375C13.1374 9.13986 13.0396 9.21991 13.2381 9.13132C13.9661 8.78148 15.325 8.50849 16.0214 8.42824C16.5796 8.35056 15.8703 8.33406 16.3015 8.29771C16.359 8.29356 16.4182 8.29878 16.4746 8.30884C16.6281 8.33541 16.7621 8.39159 16.8001 8.394C17.3118 8.42773 17.6675 8.381 18.128 8.39534C18.2231 8.39832 18.1299 8.44107 18.2108 8.44313C18.4873 8.45055 18.7779 8.43146 19.0421 8.43495C19.1606 8.43661 19.1388 8.46927 19.2478 8.46675C19.5088 8.4611 19.7396 8.44737 19.994 8.41676C20.0172 8.41397 19.8608 8.37335 20.0539 8.37184C20.3664 8.36951 20.7543 8.33932 21.1138 8.3705C21.2205 8.37988 21.2247 8.45451 21.454 8.40297C21.5021 8.3922 21.4407 8.30259 21.7078 8.38002C21.7527 8.39289 22.2014 8.49733 22.4216 8.43001C22.4797 8.41229 22.628 8.33895 22.7563 8.35048C22.7737 8.35232 22.704 8.39241 22.8103 8.39632C23.1849 8.4094 23.5775 8.40512 23.9624 8.41768C24.0652 8.42111 23.9121 8.46259 24.0653 8.46638C24.4865 8.47687 25.0124 8.46631 25.4244 8.45332C25.5762 8.44846 25.4713 8.41409 25.4823 8.41035C25.66 8.34953 25.7651 8.43163 25.824 8.43642C26.1908 8.46508 26.4702 8.42652 26.8083 8.43672C26.9016 8.43943 26.8354 8.47858 26.854 8.48207C27.0466 8.51617 26.9031 8.44587 27.0251 8.43813C27.3666 8.41618 27.7474 8.41933 28.0928 8.42433C28.2197 8.42623 28.0771 8.47162 28.191 8.47279C28.8649 8.48061 29.5656 8.47627 30.2233 8.45125C30.3471 8.44645 30.2692 8.4115 30.295 8.40352C30.4729 8.34767 30.7336 8.42385 30.7936 8.43111C31.0664 8.46424 31.1724 8.43333 31.4133 8.4391C32.59 8.46783 34.043 8.44735 35.1539 8.43471C36.6014 8.41843 37.7246 8.38518 39.1049 8.39381C39.1927 8.39432 39.1042 8.44081 39.1798 8.44185C39.2952 8.44317 39.4104 8.44409 39.5254 8.44469C40.3399 8.44925 41.1469 8.55757 41.9235 8.81255C41.9957 8.83645 41.8783 8.84524 41.993 8.88532C42.2278 8.9678 42.5223 9.0778 42.7581 9.16777C42.8731 9.21183 42.7378 9.10958 42.8536 9.15517C43.123 9.262 43.4016 9.40422 43.6535 9.56353C43.7602 9.63161 43.5739 9.57131 43.7137 9.65707C44.6624 10.2483 45.465 11.0168 46.1567 11.9159C46.2037 11.9777 46.3191 11.9832 46.3942 12.1339C46.3795 12.1582 46.3538 12.1735 46.3337 12.1926C47.1278 13.4749 47.5813 14.9553 47.5877 16.4747C47.5884 16.6054 47.5889 16.7361 47.5893 16.867C47.5895 16.9398 47.5409 16.814 47.5411 16.9549C47.5418 17.7704 47.5283 18.5622 47.5766 19.3963C47.5813 19.4791 47.6667 19.4366 47.6538 19.6805C47.6514 19.7236 47.64 20.0909 47.6215 20.1859C47.6187 20.1988 47.5788 20.1317 47.5777 20.2501C47.5716 20.938 47.5807 21.6588 47.6051 22.3455C47.6091 22.4563 47.6515 22.3383 47.6548 22.4172C47.6773 22.9771 47.645 23.5861 47.6836 24.1212C47.7095 24.4793 47.7829 24.3467 47.8551 24.537C47.8653 24.5639 47.867 24.7857 47.909 24.7972C48.0147 24.8266 48.1304 24.7192 48.243 24.7633C48.2673 24.7726 48.2412 25.0696 48.2998 24.8937C48.3037 24.8814 48.3232 24.6661 48.3431 24.6131C48.3568 24.5762 48.3996 24.6427 48.4172 24.5674C48.4347 24.492 48.3989 24.4092 48.4196 24.2843C48.4405 24.1595 48.4892 24.2144 48.4949 23.9651ZM8.18056 27.6024C8.13973 27.4053 8.28928 27.3762 8.2535 27.5894C8.25159 27.5997 8.18256 27.6126 8.18056 27.6024ZM15.1211 47.7336C14.8587 47.7571 14.7099 47.6241 14.8931 47.6096C15.0746 47.5931 15.2001 47.7258 15.1211 47.7336ZM17.7626 47.8913C17.4614 47.9433 17.414 47.7313 17.7366 47.7742C17.7553 47.7766 17.7802 47.8883 17.7626 47.8913ZM47.8757 23.6545C47.8777 23.6572 47.8796 23.8166 47.8777 23.8204C47.8302 23.9053 47.8263 23.5865 47.8757 23.6545ZM20.4145 47.9438C20.3205 47.9725 20.0497 47.9393 20.1666 47.9037C20.2606 47.875 20.5316 47.9081 20.4145 47.9438ZM8.02095 17.3191C8.01872 17.316 8.01672 17.2017 8.02931 17.204C8.06989 17.2118 8.05844 17.3708 8.02095 17.3191ZM24.9217 47.9462C24.2558 47.9542 23.8521 48.1294 24.5773 48.1096C24.7086 48.106 24.2942 48.0537 24.4614 48.0379C24.7672 48.0092 24.9703 48.1192 25.2824 48.0602C25.3389 48.0494 24.9597 47.9454 24.9206 47.946C24.921 47.946 24.9214 47.9461 24.9217 47.9462ZM8.00093 27.4889C7.99896 27.4849 7.99708 27.3267 7.99904 27.3229C8.04652 27.2373 8.05032 27.556 8.00093 27.4889ZM9.86828 11.0528C9.8691 11.0421 10.1078 10.7585 10.1202 10.7535C10.3029 10.6604 9.82429 11.2273 9.86828 11.0528ZM7.8915 38.1439C7.84374 38.3165 7.83811 38.523 7.89809 38.6606C7.89491 38.489 7.89444 38.3164 7.8915 38.1439Z" fill="#16181B"/>
<path d="M23.7606 16.1221C23.809 16.1351 23.8725 16.1212 23.9207 16.1021C23.9359 16.0962 23.9282 16.0697 23.9387 16.0644C23.9591 16.0541 23.9781 16.0671 23.9983 16.0548C24.005 16.0506 23.9966 16.0086 24.0036 16.0052C24.0421 15.9866 24.0784 15.9973 24.1173 15.9884C24.3091 15.9444 24.4975 15.9286 24.6916 15.9095C24.7556 15.9032 24.8334 15.8651 24.8995 15.8818C24.9072 15.8837 24.9026 15.9206 24.904 15.9236C24.9271 15.9701 24.9194 15.8957 24.9345 15.8858C24.9941 15.8468 25.0605 15.8434 25.1179 15.8576C25.1423 15.8638 25.1178 15.937 25.1424 15.8959C25.1441 15.8931 25.1379 15.854 25.1446 15.8498C25.1598 15.8404 25.1887 15.8474 25.2004 15.8443C25.2231 15.8382 25.2269 15.8386 25.2483 15.8381C25.2777 15.8372 25.3126 15.8177 25.3441 15.8266C25.3508 15.8286 25.3419 15.8687 25.3526 15.8755C25.3633 15.8823 25.3917 15.8789 25.4013 15.8695C25.4108 15.86 25.4068 15.8285 25.4085 15.8213C25.4224 15.7603 25.4552 15.8448 25.4594 15.8468C25.5364 15.8824 25.6025 15.8343 25.6748 15.8345C25.7296 15.8347 25.7883 15.8505 25.8405 15.8484C25.9027 15.8456 25.9555 15.8239 26.0159 15.8276C26.0223 15.828 26.0148 15.8751 26.0226 15.8757C26.1053 15.8811 26.1875 15.876 26.2699 15.8442C26.2782 15.8409 26.2675 15.7995 26.2758 15.7938C26.3263 15.7598 26.4063 15.678 26.4363 15.8583C26.4706 15.8513 26.5122 15.844 26.5428 15.8077C26.5625 15.7843 26.5434 15.7392 26.5676 15.7584C26.5731 15.7627 26.566 15.8022 26.5742 15.8056C26.6087 15.8201 26.6465 15.8073 26.6807 15.8277C26.6876 15.8319 26.6857 15.8673 26.6877 15.8737C26.7042 15.9253 26.7318 15.84 26.7378 15.8338C26.7835 15.7875 26.817 15.8057 26.8596 15.8046C26.8695 15.8043 26.8578 15.8519 26.8673 15.8533C26.9166 15.8601 26.9678 15.856 27.0161 15.8349C27.0269 15.8301 27.017 15.7896 27.0221 15.7853C27.0448 15.7665 27.0498 15.843 27.0715 15.8265C27.0761 15.8231 27.0735 15.7884 27.0743 15.7846C27.0874 15.7248 27.0988 15.8095 27.1021 15.8114C27.1447 15.8369 27.1719 15.7485 27.213 15.761C27.2179 15.7626 27.2068 15.8065 27.2206 15.8083C27.3127 15.8204 27.4101 15.8083 27.5012 15.7732C27.5154 15.7678 27.5052 15.7349 27.5061 15.7308C27.5207 15.6673 27.5301 15.7524 27.5347 15.7556C27.5711 15.7787 27.6052 15.7073 27.63 15.8086C27.7843 15.7735 27.938 15.8304 28.0911 15.7396C28.093 15.7386 28.0895 15.6967 28.0934 15.6947C28.1402 15.6712 28.1312 15.7363 28.1621 15.816C28.1699 15.836 28.1936 15.7398 28.1957 15.7328C28.2034 15.7068 28.1955 15.6445 28.198 15.6394C28.2192 15.6 28.2157 15.8061 28.2443 15.8061C28.2452 15.8058 28.2414 15.7679 28.2438 15.7641C28.2513 15.7522 28.2587 15.7673 28.266 15.7543C28.2827 15.724 28.2886 15.6239 28.3141 15.6822C28.3173 15.6897 28.3124 15.8067 28.3379 15.8011C28.3481 15.7988 28.3931 15.8008 28.4057 15.7933C28.4183 15.7857 28.4096 15.748 28.4105 15.7464C28.4445 15.6966 28.4316 15.6759 28.4486 15.6022C28.4656 15.5287 28.4609 15.7039 28.4678 15.7235C28.4748 15.743 28.4997 15.7019 28.5058 15.6876C28.5119 15.6733 28.5043 15.6494 28.5097 15.6413C28.5458 15.5884 28.5255 15.7283 28.5374 15.7561C28.5654 15.8219 28.5872 15.692 28.6129 15.6792C28.6198 15.6758 28.6141 15.7054 28.6203 15.7082C28.6448 15.7187 28.6595 15.6782 28.6873 15.7154C28.6919 15.7214 28.7144 15.7996 28.7289 15.7422C28.731 15.734 28.7251 15.7016 28.7356 15.6943C28.7511 15.6834 28.7792 15.6764 28.7959 15.6872C28.8083 15.6952 28.7941 15.7486 28.8097 15.732C28.8166 15.7246 28.8038 15.6934 28.8168 15.6821C28.8297 15.6708 28.8627 15.6721 28.8753 15.6732C28.8879 15.6743 28.881 15.7148 28.882 15.7175C28.8881 15.7331 28.9122 15.7527 28.9144 15.7526C29.0217 15.7575 29.1207 15.6893 29.2252 15.7119C29.2334 15.7136 29.2279 15.7563 29.2292 15.757C29.2573 15.7749 29.2351 15.6614 29.2547 15.6234C29.2519 15.71 29.2635 15.6943 29.2833 15.7038C29.2928 15.7085 29.2876 15.742 29.2885 15.7455C29.3026 15.7964 29.3125 15.7306 29.315 15.7171C29.3244 15.6676 29.3345 15.7261 29.3409 15.693C29.3473 15.6602 29.3326 15.6115 29.3516 15.6121C29.3569 15.6431 29.3428 15.7242 29.3572 15.7373C29.4116 15.787 29.513 15.7234 29.5567 15.7168C29.6003 15.7102 29.6144 15.7159 29.6398 15.7047C29.6857 15.6844 29.6689 15.7446 29.6974 15.7721C29.7259 15.7996 29.7121 15.6517 29.7162 15.6199C29.7202 15.5881 29.7246 15.6208 29.7296 15.6033C29.7346 15.5858 29.7238 15.5642 29.7355 15.5577C29.7473 15.5511 29.7795 15.6077 29.7837 15.6409C29.7925 15.7114 29.778 15.7853 29.8091 15.7593C29.8109 15.7578 29.8051 15.7189 29.812 15.7149C29.8664 15.685 29.923 15.6831 29.9774 15.6567C29.9849 15.653 29.9782 15.6097 29.9825 15.607C30.0279 15.5794 30.0117 15.6523 30.0365 15.7334C30.0309 15.6255 30.0447 15.5595 30.0791 15.5589C30.0998 15.5585 30.0962 15.6056 30.1096 15.6388C30.1136 15.6488 30.1282 15.6164 30.1309 15.6386C30.1396 15.711 30.1258 15.7921 30.1613 15.7598C30.1629 15.7583 30.1579 15.7186 30.1633 15.7162C30.1981 15.7005 30.2022 15.7763 30.2398 15.7854C30.2693 15.7926 30.3216 15.7464 30.3552 15.7389C30.3545 15.6177 30.3861 15.6454 30.399 15.729C30.4208 15.7256 30.4443 15.7304 30.4653 15.7188C30.4726 15.7149 30.4678 15.6797 30.4687 15.6759C30.4827 15.6164 30.4922 15.6978 30.4969 15.701C30.5478 15.732 30.5893 15.6703 30.6379 15.7306C30.6396 15.7327 30.6424 15.817 30.6554 15.7555C30.6562 15.7512 30.6402 15.7129 30.663 15.7099C30.6859 15.707 30.729 15.6618 30.7607 15.7008C30.7684 15.7102 30.7878 15.7786 30.8034 15.7252C30.8055 15.7179 30.8032 15.6938 30.8062 15.6803C30.8159 15.6375 30.8212 15.7226 30.8326 15.6503C30.844 15.578 30.8677 15.5238 30.8997 15.5737C30.9007 15.5752 30.9083 15.6427 30.9184 15.6416C30.9345 15.6398 30.9573 15.6258 30.974 15.6262C30.9821 15.6264 30.9769 15.6683 30.9783 15.6691C31.0323 15.6926 31.0708 15.6552 31.1287 15.639C31.1393 15.636 31.1698 15.6931 31.1903 15.6479C31.2128 15.5985 31.1897 15.3927 31.2415 15.4418C31.2624 15.4614 31.2889 15.7224 31.3264 15.5871C31.3993 15.6206 31.4667 15.5514 31.5398 15.5993C31.543 15.6014 31.5534 15.6743 31.5612 15.6733C31.5726 15.6716 31.5789 15.6376 31.5871 15.6354C31.6214 15.6251 31.6528 15.6542 31.6859 15.6497C31.6985 15.6481 31.6941 15.6129 31.709 15.6109C31.724 15.6089 31.734 15.6553 31.7543 15.6329C31.7696 15.6159 31.7849 15.5211 31.8053 15.5101C31.806 15.6035 31.82 15.6016 31.8448 15.6263C31.8496 15.6311 31.8445 15.6636 31.8467 15.6675C31.8559 15.6843 31.8644 15.6573 31.8732 15.6756C31.8753 15.68 31.8754 15.7119 31.8771 15.7173C31.8919 15.7643 31.9162 15.6925 31.9203 15.68C31.9363 15.6325 31.9438 15.674 31.9561 15.6553C31.9683 15.6366 31.95 15.6133 31.9643 15.6019C31.994 15.5784 32.0321 15.5836 32.0622 15.5821C32.0743 15.5817 32.0661 15.6244 32.0678 15.6253C32.0926 15.6361 32.1178 15.5908 32.1315 15.6756C32.1488 15.4562 32.1465 15.6969 32.1821 15.653C32.1849 15.6494 32.1884 15.5457 32.1777 15.5304C32.1669 15.5152 32.1506 15.5477 32.1357 15.5239C32.1322 15.5183 32.112 15.4211 32.1092 15.4152C32.0876 15.3692 32.0845 15.5242 32.0834 15.5328C32.0704 15.6247 32.0457 15.5199 32.0392 15.5127C32.0094 15.4795 31.9842 15.5013 31.9593 15.4776C31.943 15.4623 31.9414 15.3608 31.9286 15.3639C31.8861 15.3742 31.8712 15.5159 31.8312 15.393C31.8226 15.3668 31.8311 15.2558 31.8004 15.3431C31.7984 15.3486 31.7756 15.4284 31.7624 15.3779C31.7607 15.3715 31.7608 15.3392 31.7586 15.3365C31.7439 15.3189 31.7341 15.3447 31.7182 15.3323C31.7022 15.32 31.683 15.3016 31.6648 15.3125C31.6538 15.3191 31.6397 15.3794 31.6345 15.3941C31.6196 15.4367 31.6037 15.367 31.5945 15.4184C31.5852 15.4702 31.6034 15.5488 31.579 15.5822C31.5781 15.4981 31.5761 15.4119 31.5746 15.3273C31.5213 15.3303 31.4689 15.3575 31.4154 15.3537C31.4087 15.3532 31.4155 15.308 31.4084 15.3063C31.3784 15.2991 31.3522 15.3313 31.3211 15.3185C31.2971 15.3084 31.2707 15.2605 31.2455 15.2485C31.2301 15.3446 31.1928 15.312 31.1656 15.3208C31.1561 15.3238 31.1568 15.3495 31.15 15.3579C31.1245 15.3889 31.1364 15.3039 31.1295 15.2905C31.0995 15.2334 31.0969 15.4258 31.0615 15.4211C31.0597 15.4209 31.0367 15.3183 31.0336 15.3119C31.0136 15.2703 31.0303 15.3476 31.0177 15.3552C30.9948 15.3691 30.9789 15.3935 30.952 15.3635C30.9442 15.3546 30.9254 15.2907 30.9102 15.3401C30.9082 15.3466 30.9093 15.3805 30.9077 15.3825C30.8785 15.4156 30.8778 15.3091 30.8611 15.273C30.8444 15.2369 30.8187 15.3105 30.8135 15.3316C30.7997 15.3865 30.824 15.3551 30.8247 15.3605C30.8334 15.4245 30.8146 15.4135 30.8003 15.4189C30.7982 15.5233 30.7782 15.517 30.7854 15.4241C30.7863 15.4139 30.7974 15.4236 30.8003 15.4189C30.7877 15.3164 30.7657 15.3033 30.7413 15.399C30.7299 15.4439 30.7407 15.4962 30.7061 15.4771C30.6903 15.4685 30.6964 15.3965 30.6825 15.3769C30.6509 15.3322 30.6097 15.3993 30.577 15.3887C30.5652 15.3849 30.5767 15.3455 30.5686 15.3415C30.5471 15.3309 30.5282 15.3604 30.5066 15.3453C30.5046 15.3438 30.5094 15.3026 30.5027 15.3021C30.4518 15.2973 30.4074 15.3237 30.3543 15.3244C30.3286 15.3248 30.2827 15.3021 30.2561 15.3066C30.21 15.3143 30.1533 15.3742 30.1139 15.3597C30.0882 15.3503 30.0938 15.3091 30.0828 15.2811C30.0616 15.2266 30.024 15.3241 30.0189 15.3392C30.0187 15.3397 30.0409 15.3494 30.0291 15.3706C30.0222 15.4147 30.0191 15.3394 30.0189 15.3392C30.0156 15.349 29.9714 15.3583 29.9626 15.3504C29.9579 15.3461 29.9605 15.3071 29.9581 15.3056C29.899 15.2706 29.8399 15.2607 29.78 15.279C29.7789 15.2798 29.7805 15.3234 29.778 15.3248C29.7433 15.3442 29.7211 15.2907 29.6926 15.259C29.664 15.2273 29.6413 15.2379 29.6244 15.3129C29.6028 15.3035 29.5718 15.3366 29.554 15.3567C29.5362 15.3768 29.5337 15.2918 29.5322 15.2901C29.4833 15.2363 29.455 15.285 29.4043 15.2926C29.3802 15.2963 29.3324 15.284 29.3063 15.2747C29.2857 15.2672 29.2732 15.2871 29.2542 15.2744C29.2516 15.2727 29.2542 15.2348 29.2535 15.2334C29.2322 15.1881 29.2424 15.2806 29.2381 15.2972C29.2222 15.3573 29.2124 15.3893 29.1852 15.361C29.1789 15.3545 29.1607 15.2213 29.1493 15.2135C29.1344 15.2036 29.14 15.2514 29.1245 15.2398C29.1231 15.2388 29.1234 15.2094 29.1138 15.2107C29.0693 15.2163 29.0207 15.2335 28.9744 15.2305C28.9681 15.2302 28.9762 15.1835 28.967 15.1823C28.9242 15.1768 28.8772 15.1785 28.8354 15.2004C28.8251 15.2059 28.8316 15.2386 28.8293 15.2483C28.8156 15.3071 28.7962 15.2217 28.793 15.2201C28.7165 15.179 28.658 15.2563 28.5801 15.2195C28.5758 15.2174 28.5432 15.1258 28.5286 15.2043C28.5276 15.2096 28.5132 15.2899 28.5004 15.235C28.4996 15.2315 28.5086 15.1902 28.4929 15.1944C28.4773 15.1986 28.452 15.171 28.4305 15.2164C28.4237 15.2307 28.4075 15.3109 28.3872 15.247C28.3859 15.2425 28.3544 15.0981 28.3432 15.1977C28.3414 15.2141 28.3433 15.3196 28.319 15.2655C28.3144 15.2551 28.3228 15.2315 28.3106 15.2168C28.2919 15.1942 28.267 15.2225 28.244 15.1755C28.24 15.1671 28.2229 15.0955 28.2092 15.1499C28.207 15.1584 28.2111 15.1936 28.2039 15.1976C28.1694 15.2165 28.1334 15.1929 28.0984 15.2173C28.086 15.2258 28.0924 15.2828 28.0795 15.298C28.0666 15.3133 28.0405 15.3279 28.027 15.3019C28.0135 15.2759 28.0283 15.1852 28.008 15.1779C27.92 15.1464 27.8329 15.1996 27.745 15.2074C27.732 15.2085 27.7428 15.1761 27.7236 15.1755C27.6528 15.173 27.5305 15.1426 27.4691 15.2116C27.4198 15.2669 27.4818 15.3089 27.4442 15.3314C27.426 15.3421 27.4064 15.2366 27.402 15.2333C27.3592 15.1996 27.3294 15.2463 27.2909 15.232C27.283 15.229 27.2908 15.1862 27.284 15.1842C27.2609 15.1768 27.2365 15.1959 27.2144 15.1924C27.2045 15.1907 27.2064 15.158 27.1972 15.1606C27.1754 15.1662 27.1561 15.1799 27.1348 15.2106C27.1329 15.2133 27.146 15.254 27.1298 15.2555C27.1037 15.2578 27.0712 15.288 27.0411 15.2568C27.0322 15.2474 27.0319 15.1728 27.0127 15.2243C27.0087 15.2351 27.0138 15.3247 26.9914 15.2473C26.9877 15.2344 26.9501 15.13 26.9317 15.1973C26.9269 15.215 26.9145 15.2884 26.9037 15.2768C26.9023 15.275 26.9081 15.2349 26.8992 15.231C26.8679 15.2179 26.835 15.2222 26.8028 15.2096C26.7942 15.2062 26.807 15.1647 26.7942 15.1609C26.759 15.1504 26.715 15.161 26.6805 15.174C26.6678 15.1789 26.6766 15.2132 26.6757 15.217C26.6608 15.2778 26.652 15.1957 26.6471 15.1909C26.6164 15.1622 26.593 15.2008 26.5647 15.1906C26.5569 15.1879 26.5625 15.1487 26.5609 15.1452C26.5448 15.1111 26.5568 15.1814 26.5466 15.1892C26.518 15.2111 26.4862 15.208 26.4573 15.203C26.4467 15.2011 26.4586 15.1557 26.4491 15.1545C26.3927 15.1467 26.3341 15.151 26.2791 15.1761C26.2687 15.1809 26.2752 15.2158 26.2731 15.2238C26.2582 15.2797 26.2364 15.2035 26.2313 15.1962C26.2085 15.1631 26.1997 15.194 26.1795 15.1882C26.0811 15.1595 25.9595 15.18 25.8666 15.1926C25.7455 15.2089 25.6515 15.2421 25.536 15.2335C25.5287 15.233 25.5361 15.1865 25.5298 15.1855C25.4481 15.1743 25.3677 15.1924 25.2858 15.179C25.2791 15.178 25.2888 15.1339 25.278 15.1308C25.2559 15.1241 25.2279 15.1265 25.2055 15.1405C25.1946 15.1473 25.2093 15.1852 25.1983 15.1912C25.1727 15.2054 25.1453 15.2085 25.1191 15.2015C25.1079 15.1984 25.1248 15.1533 25.1102 15.1528C25.0113 15.1483 24.9142 15.1405 24.8142 15.1989C24.8074 15.2029 24.8014 15.2945 24.7868 15.277C24.7857 15.2515 24.7858 15.2216 24.7853 15.1944C24.6413 15.1798 24.4988 15.2116 24.3544 15.2165C24.3483 15.2167 24.3588 15.1681 24.347 15.1683C24.2788 15.169 24.2125 15.1555 24.1428 15.2038C24.1358 15.2085 24.1394 15.2939 24.119 15.281C24.1154 15.2786 24.0847 15.2672 24.0767 15.2487C24.0756 15.2459 24.0812 15.206 24.0713 15.2049C24.0138 15.1988 23.9535 15.2079 23.8961 15.2323C23.8868 15.2363 23.8967 15.2787 23.89 15.282C23.8432 15.3045 23.7923 15.2722 23.7475 15.3108C23.7175 15.3367 23.7286 15.4101 23.7127 15.4823C23.7105 15.4925 23.6919 15.4941 23.6909 15.5362C23.6885 15.6419 23.6975 15.7576 23.6938 15.8702C23.693 15.8945 23.6682 15.8684 23.6829 15.927C23.6839 15.9309 23.7019 15.9504 23.7063 15.9703C23.7094 15.984 23.7039 16.0268 23.7102 16.0444C23.7165 16.0619 23.7234 16.0261 23.7338 16.0468C23.7443 16.0677 23.7397 16.1164 23.7606 16.1221ZM29.4738 15.4466C29.4573 15.4875 29.4549 15.3379 29.4727 15.3737C29.4736 15.3756 29.4747 15.4446 29.4738 15.4466ZM31.4692 15.4703C31.4476 15.5362 31.4328 15.4392 31.4481 15.3883C31.4633 15.3374 31.4757 15.4503 31.4692 15.4703ZM31.6927 15.5184C31.6675 15.5704 31.6636 15.3584 31.6905 15.4012C31.6921 15.4037 31.6942 15.5154 31.6927 15.5184ZM23.7865 15.5029C23.7863 15.5049 23.773 15.5068 23.7727 15.5049C23.7656 15.4574 23.7922 15.4535 23.7865 15.5029ZM31.9146 15.5708C31.9067 15.5995 31.8841 15.5664 31.8938 15.5307C31.9017 15.502 31.9244 15.5352 31.9146 15.5708ZM28.6136 15.6062C28.6133 15.6085 28.6037 15.6105 28.6039 15.5979C28.6046 15.5573 28.6179 15.5688 28.6136 15.6062ZM32.2916 15.5733C32.2359 15.5813 32.2022 15.7564 32.2628 15.7367C32.2738 15.7331 32.2391 15.6808 32.2531 15.665C32.2787 15.6362 32.2957 15.7462 32.3218 15.6873C32.3265 15.6765 32.2948 15.5724 32.2915 15.573C32.2916 15.5731 32.2916 15.5732 32.2916 15.5733ZM29.4643 15.6263C29.464 15.6282 29.4508 15.6301 29.4505 15.6282C29.4433 15.5807 29.4699 15.5769 29.4643 15.6263ZM28.0557 15.6987C28.0549 15.7029 28.0242 15.7069 28.0232 15.703C28.0072 15.6253 28.0693 15.6171 28.0557 15.6987ZM30.3557 15.7357C30.3701 15.7835 30.3874 15.7891 30.3989 15.7291C30.3846 15.7323 30.3701 15.7328 30.3557 15.7357Z" fill="#16181B"/>
<path d="M47.4891 38.8084C47.4583 39.1336 47.4226 39.5572 47.3832 39.8815C47.3709 39.9829 47.4062 39.9369 47.3984 40.0072C47.3828 40.1442 47.343 40.2684 47.3237 40.4038C47.3173 40.4488 47.3712 40.4036 47.3635 40.4508C47.3203 40.7093 47.2422 40.9452 47.1675 41.2002C46.7983 42.4561 46.1471 43.6099 45.2649 44.6115C44.9754 44.9423 44.6113 45.3417 44.2454 45.6162C44.2029 45.6482 44.2043 45.5996 44.1945 45.6036C44.0422 45.6662 44.1296 45.6914 44.0539 45.7631C43.7527 46.0465 43.3699 46.3069 43.0189 46.4928C42.8692 46.5714 42.9802 46.4242 42.8526 46.5431C42.8437 46.5513 42.9002 46.5647 42.8616 46.5908C42.7742 46.6506 42.5944 46.737 42.5226 46.7759C42.3844 46.8515 42.3608 46.8623 42.2261 46.9252C42.0418 47.0111 41.826 47.1227 41.6179 47.1913C41.5735 47.2058 41.6172 47.1467 41.5453 47.1662C41.4737 47.1859 41.2904 47.2534 41.2303 47.2826C41.1703 47.3122 41.2068 47.3334 41.1978 47.3439C41.1238 47.4328 40.8808 47.4167 40.8523 47.4219C40.3308 47.5312 39.8912 47.6652 39.3932 47.7255C39.0178 47.7704 38.6153 47.7774 38.2546 47.7788C38.2516 47.7788 38.2486 47.7788 38.2456 47.7788C37.8135 47.7802 37.4481 47.778 37.0312 47.7219C36.9874 47.7159 37.0448 47.6758 36.9915 47.6683C36.4257 47.5875 35.8715 47.4675 35.3189 47.3223C35.2634 47.3077 35.3209 47.37 35.2645 47.3576C34.9205 47.2852 34.364 47.1433 34.2525 46.8889C34.0346 46.7961 33.776 46.6707 33.5727 46.5974C33.4417 46.5498 33.5351 46.6556 33.3981 46.5539C33.3673 46.5309 33.43 46.522 33.3827 46.49C33.1835 46.3554 32.9562 46.2236 32.7736 46.0701C32.7365 46.0388 32.7678 46.0175 32.7604 46.0044C32.6972 45.8969 32.4947 45.8517 32.4576 45.8306C32.1777 45.6733 32.0105 45.5081 31.791 45.3096C31.7402 45.2632 31.8321 45.2833 31.7847 45.2375C31.5386 45.0003 31.2901 44.7492 31.0545 44.5101C31.002 44.4569 31.0163 44.5353 30.9896 44.5111C30.8725 44.4031 30.909 44.3272 30.8017 44.2206C30.7792 44.1979 30.7633 44.2335 30.7567 44.2313C30.6528 44.1971 30.6711 44.0819 30.6586 44.0624C30.5006 43.8124 30.3194 43.708 30.1729 43.46C30.1557 43.4303 30.2343 43.4714 30.1839 43.3896C29.8491 42.8438 29.5348 42.2443 29.2771 41.6618C29.2372 41.571 29.2312 41.6487 29.2252 41.6444C29.1297 41.5706 29.1879 41.4794 29.1802 41.4481C29.1176 41.2014 28.9805 40.9926 29.0324 40.7987C28.7758 39.9729 28.6928 39.1121 28.6596 38.2542C28.6513 38.0411 28.6459 37.832 28.6419 37.618C28.6417 37.6043 28.5983 37.6261 28.5982 37.5986C28.5993 37.2684 28.6605 37.3373 28.7628 37.1314C28.7885 37.0801 28.7149 36.9041 28.7104 36.8883C28.6922 36.8316 28.6227 36.8778 28.6202 36.8593C28.6032 36.7057 28.8025 36.76 28.8364 36.5649C28.8371 36.5587 28.7952 36.5778 28.7944 36.5607C28.7919 36.5074 28.8161 36.4594 28.813 36.4071C28.8059 36.2878 28.716 36.2242 28.8128 36.0617C28.8256 36.0415 28.9306 36.1007 28.9674 35.9277C28.9809 35.8586 29.066 35.5562 29.0854 35.4708C29.1038 35.3849 29.0502 35.4312 29.0505 35.4248C29.0741 35.1828 29.0278 35.2625 28.9957 35.1248C28.9652 34.9865 29.1202 35.0756 29.1546 35.0363C29.1887 34.9971 29.2107 34.8191 29.2134 34.7736C29.2156 34.7283 29.1738 34.7699 29.1802 34.7311C29.225 34.4742 29.3022 34.6596 29.3591 34.593C29.4943 34.4385 29.4375 34.2472 29.504 34.0781C29.522 34.0326 29.5314 34.0813 29.5528 34.0434C29.6377 33.8937 29.6487 33.7826 29.7748 33.6284C29.7955 33.6027 29.9398 33.504 29.942 33.3877C29.9422 33.3711 29.8933 33.3902 29.9244 33.3234C29.9703 33.2236 30.0691 33.0513 30.1431 32.959C30.1975 32.8907 30.1872 33.0031 30.2337 32.9031C30.2545 32.8587 30.1784 32.9161 30.22 32.834C30.2611 32.7517 30.3969 32.5622 30.451 32.4921C30.5047 32.4217 30.5082 32.4849 30.5147 32.4807C30.5527 32.4552 30.671 32.3335 30.6803 32.322C31.147 31.7369 31.5913 31.1912 32.1766 30.7442C32.2224 30.7093 32.2194 30.7667 32.2267 30.7617C32.3913 30.6533 32.1991 30.6608 32.2849 30.5454C32.3223 30.6262 32.3767 30.5631 32.4939 30.4877C32.5505 30.4516 32.5411 30.5003 32.5481 30.4994C32.6576 30.482 32.6752 30.3891 32.6821 30.3677C32.7073 30.2891 32.7997 30.2964 32.8181 30.244C32.8369 30.1916 32.7235 30.2093 32.8354 30.1347C32.8838 30.1397 32.8466 30.2619 32.9378 30.2169C33.278 30.0429 33.8662 29.6454 34.1454 29.5134C34.42 29.3784 34.5149 29.3473 34.6758 29.2699C34.9692 29.134 34.881 29.233 35.077 29.1916C35.2741 29.1527 35.1355 29.0443 35.1526 29.0048C35.1697 28.9655 35.2097 28.9867 35.2382 28.9591C35.2667 28.9316 35.1865 28.9347 35.2645 28.9027C35.343 28.8699 35.5783 28.8595 35.6156 28.8842C35.6946 28.9356 35.6158 29.0329 35.8196 28.9516C35.8314 28.9469 35.782 28.9196 35.8277 28.9036C36.1899 28.7787 36.5824 28.7002 36.9589 28.6236C37.0107 28.613 36.9582 28.5762 36.9885 28.5696C37.305 28.5033 37.2005 28.5901 37.3808 28.6537C37.3321 28.5504 37.422 28.4732 37.6682 28.4574C37.8164 28.4488 37.7924 28.4975 37.8883 28.5268C37.9168 28.5356 38.0194 28.5003 38.0388 28.5222C38.1021 28.5938 38.0063 28.6747 38.2546 28.6411C38.2547 28.6411 38.2548 28.6411 38.2549 28.6411C38.2587 28.6405 38.2569 28.6353 38.2546 28.6286C38.2515 28.6197 38.2475 28.6084 38.2546 28.6021C38.2573 28.5996 38.2619 28.5979 38.2688 28.5975C38.5145 28.5837 38.5414 28.6599 38.802 28.6821C39.007 28.6994 39.3747 28.6878 39.6087 28.7146C39.6201 28.5933 39.8394 28.6539 39.9137 28.7525C40.0649 28.7751 40.2248 28.8118 40.3718 28.8329C40.4223 28.8403 40.3975 28.7987 40.4045 28.7964C40.5144 28.7603 40.5605 28.8555 40.5915 28.8665C40.9301 28.9831 41.2283 29.0102 41.5295 29.1822C41.5402 29.1885 41.5294 29.2738 41.6359 29.2479C41.643 29.2461 41.5508 29.1704 41.7022 29.2244C41.8532 29.2779 42.152 29.3529 42.3379 29.4838C42.3832 29.5151 42.4757 29.635 42.597 29.6366C42.6133 29.6367 42.6099 29.6079 42.6348 29.6055C42.7154 29.5984 42.7091 29.691 42.8138 29.6647C42.9181 29.6383 43.0955 29.6719 43.2662 29.8317C43.2717 29.8368 43.2831 29.922 43.3443 29.9584C43.4422 30.0163 43.5858 30.0917 43.684 30.1586C43.7311 30.1906 43.6774 30.2049 43.6852 30.2111C43.9864 30.4452 44.2248 30.5775 44.549 30.829C44.6089 30.8752 44.7327 31.0592 44.869 31.125C45.0188 31.1988 45.0425 30.9328 45.2755 31.2304C45.3698 31.3527 45.3102 31.6651 45.5867 31.7732C45.9032 32.1825 46.2488 32.525 46.4903 32.9892C46.5013 33.0101 46.4791 33.1112 46.5085 33.1569C46.5524 33.2249 46.6043 33.2453 46.6359 33.294C46.7686 33.498 46.8493 33.7074 46.9579 33.9142C46.9988 33.993 47.0169 33.9496 47.0648 34.0445C47.1123 34.1397 47.1 34.2228 47.1784 34.3451C47.2375 34.4376 47.3674 34.5012 47.4315 34.6331C47.3464 34.6727 47.3857 34.7642 47.4226 34.9382C47.4296 34.9715 47.3867 34.9485 47.3884 34.9649C47.3945 35.0313 47.4397 35.079 47.4422 35.1432C47.4428 35.1588 47.4128 35.1696 47.4115 35.1829C47.4002 35.2955 47.5189 35.4365 47.5392 35.4614C47.6169 35.5559 47.5913 35.6184 47.6322 35.697C47.6729 35.7759 47.6617 35.6443 47.699 35.7396C47.7762 35.937 47.8318 36.204 47.8726 36.4137C47.8888 36.4976 47.8362 36.4481 47.8375 36.4603C47.8592 36.6346 47.9309 36.8057 47.8599 36.9132C48.0933 37.005 47.8546 37.0206 47.9248 37.265C47.9302 37.284 48.0362 37.2996 48.0435 37.2213C48.0507 37.1428 48.0051 37.0307 48.0143 36.9221C48.0167 36.8966 48.0921 36.7392 48.0945 36.718C48.1155 36.5552 47.9578 36.5599 47.9483 36.5534C47.8423 36.4781 47.9117 36.2871 47.9087 36.2392C47.8974 36.0222 47.8334 35.8518 47.8096 35.6724C47.7936 35.5553 47.8879 35.5164 47.8589 35.4279C47.7599 35.1336 47.5919 35.0794 47.6078 34.7658C47.6101 34.6985 47.7372 34.7159 47.5736 34.5384C47.5632 34.5268 47.4273 34.4044 47.4354 34.2965C47.4364 34.2829 47.4663 34.2704 47.4624 34.2547C47.4356 34.1494 47.3828 34.0949 47.3446 33.9844C47.3065 33.8741 47.2606 33.7391 47.1894 33.6259C47.1466 33.5574 47.0448 33.4957 47.0135 33.4694C46.9247 33.3956 46.9279 33.261 46.8496 33.2294C46.7711 33.1982 46.7695 33.3493 46.6522 33.2176C46.7209 33.1688 46.7871 33.1115 46.854 33.0587C46.6494 32.7267 46.4103 32.4269 46.1748 32.1171C46.1455 32.0786 46.2116 32.0899 46.181 32.0478C46.0509 31.8707 45.9034 31.7443 45.7622 31.5662C45.653 31.4283 45.5552 31.2544 45.4329 31.1144C45.2856 31.1017 45.113 30.8893 44.9585 30.7638C44.9046 30.7199 44.891 30.7422 44.8485 30.7161C44.6881 30.6179 44.809 30.6106 44.7789 30.567C44.6466 30.3815 44.5105 30.5179 44.3122 30.3577C44.3021 30.3493 44.2308 30.1672 44.2155 30.1484C44.1217 30.0283 44.1749 30.1627 44.0965 30.1153C43.9527 30.0294 43.8442 29.9842 43.6971 29.8524C43.6545 29.814 43.5723 29.6859 43.4513 29.6705C43.4354 29.6685 43.4248 29.7016 43.4137 29.6973C43.2155 29.6172 43.2637 29.5235 43.1747 29.4317C43.085 29.3397 42.8831 29.3167 42.8396 29.3185C42.7257 29.3218 42.8969 29.3743 42.899 29.3819C42.9251 29.468 42.8102 29.3945 42.7148 29.353C42.6545 29.4393 42.5284 29.3704 42.616 29.3098C42.6259 29.3033 42.6941 29.3478 42.7148 29.353C42.6795 29.2205 42.538 29.1366 42.3374 29.1516C42.2435 29.1593 42.2944 29.2369 42.0726 29.1218C41.9717 29.0706 42.0394 29.0207 41.9533 28.9649C41.755 28.8371 41.4501 28.7999 41.2268 28.72C41.1459 28.6909 41.2375 28.678 41.1824 28.6569C41.0356 28.6011 40.8943 28.5922 40.7455 28.5384C40.7321 28.5335 40.7761 28.5022 40.7287 28.4896C40.3684 28.3945 40.0441 28.3571 39.66 28.3033C39.4749 28.2764 39.1429 28.2188 38.9481 28.2114C38.7292 28.2013 38.4822 28.2193 38.2546 28.2339C38.1289 28.2418 38.011 28.2485 37.9091 28.2468C37.7224 28.2446 37.7617 28.2024 37.6792 28.1785C37.5188 28.1319 37.2523 28.254 37.2181 28.2734C37.2173 28.2737 37.3778 28.2682 37.2946 28.2974C37.2495 28.346 37.2201 28.2734 37.2181 28.2734C37.1944 28.2844 36.8759 28.3321 36.8123 28.3348C36.7774 28.3355 36.7909 28.2941 36.7728 28.2952C36.3393 28.3238 35.9101 28.4053 35.4916 28.5431C35.4844 28.546 35.5075 28.5849 35.4904 28.5911C35.2533 28.6796 35.0828 28.6794 34.8739 28.7192C34.6654 28.7595 34.5117 28.8321 34.4261 28.9484C34.2765 28.9992 34.0824 29.1221 33.9745 29.196C33.8665 29.2697 33.8128 29.2021 33.8017 29.2055C33.4565 29.3178 33.2957 29.4615 32.983 29.6605C32.8336 29.7551 32.5349 29.9382 32.3744 30.0436C32.2471 30.1261 32.1861 30.1967 32.068 30.272C32.052 30.2822 32.0439 30.2406 32.0384 30.243C31.8872 30.3038 32.0039 30.3302 31.9889 30.363C31.9355 30.4828 31.9008 30.5512 31.7322 30.6581C31.6936 30.6824 31.505 30.6704 31.437 30.7218C31.3493 30.7884 31.412 30.7954 31.3204 30.8651C31.3127 30.8711 31.2939 30.8481 31.2434 30.8979C31.0088 31.1289 30.7741 31.4004 30.5502 31.6576C30.5196 31.6929 30.523 31.6169 30.4782 31.6677C30.2684 31.906 30.057 32.1843 29.8989 32.4506C29.8601 32.5162 29.9142 32.4956 29.9129 32.5147C29.904 32.6306 29.7547 32.702 29.7403 32.7214C29.399 33.1753 29.2581 33.5928 28.9875 34.0994C28.9724 34.1261 28.7912 34.3132 28.8243 34.4432C28.8262 34.4523 28.8614 34.5799 28.7768 34.648C28.7716 34.6523 28.7564 34.5752 28.7193 34.6854C28.6823 34.7955 28.5938 34.9624 28.5881 35.1286C28.5861 35.1816 28.6268 35.3172 28.5241 35.4428C28.5169 35.4497 28.3148 35.6373 28.3916 35.7433C28.4044 35.7605 28.5091 35.772 28.4152 35.9324C28.3972 35.9633 28.3883 35.8974 28.3537 35.982C28.3005 36.1124 28.291 36.2971 28.2151 36.4565C28.2016 36.4839 28.1092 36.5982 28.1477 36.7078C28.1538 36.7248 28.193 36.7003 28.1891 36.7537C28.1706 37.0071 28.118 37.2708 28.1243 37.5298C28.1267 37.6217 28.1864 37.5788 28.196 37.6744C28.2054 37.7704 28.2129 37.9589 28.1854 38.0576C28.1578 38.1564 28.0683 38.046 28.0597 38.1963C28.0586 38.2156 28.0577 38.2349 28.0569 38.2542C28.0311 38.8882 28.1389 39.5131 28.2617 40.1299C28.2809 40.2242 28.2336 40.1521 28.2607 40.2914C28.3528 40.8079 28.5947 41.6897 28.8389 42.0821C29.0292 42.3953 28.8923 41.9595 29.0199 42.2045C29.0816 42.3219 29.0457 42.4961 29.0566 42.5271C29.1603 42.8278 29.3037 43.0014 29.4306 43.2555C29.4571 43.308 29.3914 43.2791 29.4145 43.3236C29.4934 43.476 29.6036 43.6199 29.6892 43.7591C29.7276 43.8216 29.6929 43.8281 29.7323 43.8833C29.8264 44.0151 29.9199 44.1253 30.0371 44.2343C30.0477 44.2442 30.0239 44.1426 30.0951 44.2376C30.2108 44.3916 30.3806 44.5605 30.4988 44.7495C30.5338 44.8056 30.4785 44.8567 30.6104 44.9299C30.6383 44.9451 30.6797 44.8577 30.7314 45.0316C30.7391 45.0606 30.852 45.3368 30.9969 45.3866C31.0349 45.4 31.151 45.4129 31.1991 45.4759C31.2055 45.4847 31.1467 45.4834 31.1909 45.5319C31.3476 45.7024 31.5301 45.8621 31.7037 46.025C31.7502 46.0685 31.6508 46.0393 31.7213 46.1033C31.9151 46.2793 32.1818 46.4699 32.3986 46.6055C32.4785 46.6555 32.4448 46.59 32.4526 46.5908C32.5771 46.6034 32.5846 46.707 32.6125 46.7314C32.786 46.8811 32.9543 46.9402 33.1292 47.0544C33.1777 47.0858 33.1227 47.0991 33.1309 47.1079C33.2177 47.1973 33.1754 47.0919 33.2449 47.1226C33.44 47.208 33.6459 47.3195 33.8368 47.4171C33.9067 47.4527 33.8074 47.4555 33.8706 47.487C34.245 47.6742 34.6541 47.8331 35.0489 47.9369C35.1234 47.9564 35.0883 47.908 35.106 47.9054C35.2275 47.8867 35.3582 48.0055 35.3923 48.0228C35.5453 48.1016 35.6178 48.089 35.7606 48.1313C36.4603 48.3429 37.365 48.4374 38.0517 48.4326C38.1203 48.4327 38.1879 48.432 38.2546 48.4306C39.0556 48.4096 39.7025 48.31 40.4717 48.1505C40.5247 48.1391 40.4816 48.1965 40.5275 48.1871C41.1205 48.0632 41.6839 47.8617 42.2466 47.6367C42.2929 47.618 42.244 47.687 42.3191 47.6581C42.4733 47.599 42.6613 47.5091 42.8042 47.4219C42.8738 47.3796 42.7597 47.3944 42.8297 47.3525C42.9924 47.2548 43.1687 47.1561 43.3403 47.0649C43.4133 47.026 43.328 47.1279 43.4214 47.074C44.0565 46.7061 44.6483 46.2772 45.1528 45.7327C45.1874 45.6952 45.1573 45.5984 45.2464 45.5373C45.2699 45.5501 45.2903 45.5719 45.3117 45.589C46.0901 44.8598 46.7113 43.9893 47.2105 43.0485C47.2315 43.0087 47.2377 43.1003 47.2786 43.0232C47.5144 42.5757 47.7258 42.1279 47.8519 41.6243C47.8642 41.5743 47.7756 41.5713 47.8354 41.4336C47.8465 41.4095 47.9258 41.1976 47.9595 41.1469C47.9644 41.14 47.9909 41.1911 48.0127 41.1213C48.1389 40.714 48.2278 40.2761 48.2698 39.8532C48.2765 39.7849 48.2233 39.8504 48.2276 39.8018C48.2578 39.4604 48.3269 39.0913 48.3042 38.7606C48.288 38.5416 48.2108 38.6194 48.1421 38.5028C48.1325 38.4865 48.1331 38.3529 48.0909 38.3456C47.9854 38.3274 47.869 38.3895 47.7567 38.3623C47.7328 38.3567 47.7593 38.1846 47.7005 38.2863C47.6967 38.2935 47.676 38.4174 47.6553 38.4473C47.6411 38.4681 47.5992 38.4293 47.5807 38.4718C47.5621 38.514 47.5967 38.5621 47.5732 38.632C47.5492 38.7019 47.5027 38.6678 47.4891 38.8084ZM33.4974 29.54C33.4131 29.6331 33.3244 29.5114 33.4555 29.4798C33.4619 29.4784 33.5019 29.5353 33.4974 29.54ZM46.314 32.4989C46.1705 32.4119 46.184 32.2697 46.2906 32.3274C46.3975 32.3863 46.3578 32.5261 46.314 32.4989ZM47.0971 33.8994C46.9702 33.7617 47.1453 33.6387 47.1952 33.8333C47.1981 33.8447 47.1045 33.9075 47.0971 33.8994ZM48.0945 39.0312C48.0927 39.0294 48.0977 38.9338 48.0998 38.9317C48.1508 38.8838 48.1408 39.0759 48.0945 39.0312ZM47.6318 35.3907C47.5885 35.3459 47.5704 35.1818 47.6257 35.2373C47.6708 35.2825 47.6863 35.4473 47.6318 35.3907ZM29.4403 34.0422C29.4414 34.0448 29.4142 34.1068 29.4034 34.1003C29.3686 34.0788 29.4197 33.9982 29.4403 34.0422ZM48.0518 38.0352C48.0329 37.638 47.838 37.4141 47.882 37.8373C47.8891 37.9141 47.9299 37.669 47.9504 37.7662C47.9877 37.9452 47.8808 38.067 47.9402 38.2508C47.9514 38.2848 48.0539 38.0583 48.0521 38.0345C48.052 38.0347 48.0519 38.035 48.0518 38.0352ZM33.5247 29.7301C33.5235 29.7329 33.4427 29.7805 33.4398 29.78C33.3719 29.7638 33.5355 29.6673 33.5247 29.7301ZM28.588 37.8642C28.5915 37.8693 28.5893 38.0851 28.5859 38.0922C28.5052 38.2044 28.5089 37.7644 28.588 37.8642ZM39.6128 28.7119C39.7058 28.7732 39.8235 28.7977 39.9132 28.7525C39.8135 28.7384 39.7128 28.7231 39.6128 28.7119Z" fill="#16181B"/>
<path d="M36.1108 41.0983C36.1485 41.079 36.176 41.0318 36.1909 40.9899C36.1956 40.9768 36.1723 40.9626 36.1747 40.9527C36.1795 40.9334 36.1998 40.9314 36.203 40.9108C36.204 40.9039 36.1694 40.8792 36.1711 40.8726C36.1806 40.8369 36.2095 40.8231 36.2261 40.7938C36.3078 40.6499 36.4075 40.5279 36.5081 40.4002C36.5413 40.3582 36.5601 40.2855 36.6108 40.2584C36.6167 40.2552 36.6401 40.284 36.6431 40.2853C36.6895 40.3046 36.6324 40.2565 36.6343 40.2407C36.6418 40.178 36.6784 40.1366 36.7222 40.1128C36.7409 40.1028 36.7783 40.169 36.7637 40.1255C36.7628 40.1225 36.7314 40.0985 36.7324 40.0916C36.7347 40.076 36.7566 40.064 36.7614 40.0549C36.7703 40.0372 36.7728 40.0352 36.7851 40.0223C36.8017 40.0044 36.8085 39.9701 36.8333 39.9578C36.8387 39.9553 36.8618 39.9889 36.8729 39.9874C36.8841 39.9859 36.8983 39.9668 36.8973 39.9545C36.8962 39.9422 36.8715 39.9223 36.8674 39.9162C36.8325 39.8649 36.9115 39.9053 36.9155 39.9043C36.986 39.8842 36.9908 39.8113 37.0334 39.7689C37.0658 39.7367 37.1116 39.7135 37.1407 39.6812C37.1754 39.6427 37.191 39.5963 37.2292 39.5634C37.2332 39.5599 37.2622 39.5976 37.2671 39.5934C37.3197 39.5486 37.3644 39.4966 37.3903 39.4256C37.3929 39.4185 37.3574 39.3955 37.3582 39.3866C37.3639 39.3328 37.3531 39.2279 37.4983 39.3378C37.5134 39.3126 37.5327 39.283 37.525 39.2393C37.5201 39.2112 37.4769 39.1905 37.5048 39.1899C37.5111 39.1897 37.5348 39.2218 37.5421 39.2194C37.5726 39.2093 37.5858 39.1781 37.6203 39.1724C37.6274 39.1713 37.6513 39.1974 37.657 39.2008C37.7032 39.2276 37.6591 39.151 37.6582 39.1431C37.6524 39.0835 37.685 39.0767 37.7092 39.0508C37.7149 39.0448 37.7416 39.0853 37.7482 39.0807C37.7821 39.0565 37.8093 39.0235 37.8228 38.9802C37.8257 38.9705 37.7912 38.9476 37.7912 38.9415C37.7912 38.9149 37.8483 38.9661 37.8493 38.9416C37.8496 38.9365 37.8236 38.9135 37.8214 38.9103C37.7868 38.8604 37.8534 38.9136 37.8567 38.9129C37.8998 38.906 37.8533 38.8274 37.8863 38.8121C37.8903 38.8104 37.9148 38.8479 37.9242 38.841C37.9869 38.7954 38.0357 38.7296 38.0645 38.6512C38.069 38.6391 38.0397 38.6217 38.0374 38.6183C38.001 38.5649 38.0667 38.6195 38.0717 38.619C38.1095 38.6139 38.079 38.5434 38.1653 38.6005C38.2312 38.4848 38.3618 38.4347 38.3877 38.2804C38.3881 38.2786 38.3564 38.251 38.3573 38.2473C38.3682 38.2032 38.409 38.2545 38.4835 38.2926C38.5022 38.3022 38.4482 38.2203 38.4444 38.214C38.4305 38.1912 38.3818 38.1518 38.3798 38.1467C38.3643 38.1063 38.508 38.2541 38.5249 38.2373C38.5251 38.2366 38.4961 38.212 38.4949 38.2079C38.4909 38.1951 38.5059 38.2014 38.5009 38.1879C38.4894 38.1567 38.422 38.0824 38.4783 38.1086C38.4855 38.1121 38.5653 38.1977 38.5764 38.1788C38.5807 38.1712 38.6086 38.1461 38.6107 38.1333C38.6127 38.1206 38.581 38.099 38.5804 38.0973C38.5651 38.0421 38.543 38.0351 38.5008 37.9729C38.4589 37.911 38.58 38.0377 38.5979 38.0474C38.6158 38.0571 38.6014 38.0134 38.5949 37.9997C38.5884 37.986 38.5669 37.9736 38.5644 37.9647C38.5482 37.9061 38.6352 38.0169 38.6619 38.0295C38.7249 38.0596 38.6459 37.9549 38.6519 37.9308C38.6536 37.9243 38.6712 37.9486 38.6768 37.9469C38.6986 37.94 38.6786 37.9027 38.7213 37.9126C38.7282 37.9142 38.7967 37.9562 38.7648 37.9071C38.7601 37.9 38.7338 37.8806 38.7348 37.8693C38.7362 37.8524 38.7477 37.8309 38.7652 37.8287C38.7782 37.8271 38.8076 37.8732 38.805 37.8523C38.8038 37.843 38.7742 37.8285 38.7739 37.8129C38.7735 37.7973 38.7939 37.7788 38.802 37.7722C38.8102 37.7656 38.8348 37.7982 38.8373 37.7996C38.852 37.807 38.8799 37.8066 38.8812 37.8054C38.9478 37.7457 38.9578 37.6392 39.0352 37.5937C39.0413 37.5901 39.0682 37.6235 39.0695 37.6233C39.0986 37.6194 39.0053 37.5522 38.99 37.5138C39.0496 37.5767 39.0453 37.5588 39.0637 37.5539C39.0726 37.5515 39.0932 37.5783 39.0962 37.5802C39.1405 37.6079 39.0998 37.5556 39.0918 37.5446C39.0622 37.5041 39.1096 37.5395 39.09 37.5123C39.0705 37.4853 39.0274 37.4595 39.039 37.4488C39.0641 37.4676 39.1131 37.5332 39.1308 37.534C39.1979 37.5372 39.2126 37.4325 39.2337 37.4022C39.2547 37.3719 39.267 37.3676 39.274 37.3447C39.2867 37.3034 39.3193 37.3558 39.3555 37.3585C39.3918 37.3612 39.279 37.2647 39.2589 37.2398C39.2388 37.215 39.2646 37.2355 39.2552 37.2202C39.2457 37.2049 39.2241 37.196 39.2264 37.1844C39.2287 37.1729 39.2876 37.194 39.3135 37.215C39.3685 37.2596 39.4123 37.3205 39.4122 37.2838C39.4122 37.2816 39.3813 37.2575 39.3825 37.2507C39.3934 37.1975 39.4254 37.1629 39.4386 37.1122C39.4404 37.1052 39.4059 37.0785 39.4066 37.0741C39.4137 37.0278 39.4557 37.089 39.5277 37.1317C39.4481 37.0587 39.4095 37.0039 39.4293 36.9832C39.4412 36.9708 39.4724 37.0062 39.5037 37.0218C39.5132 37.0265 39.4989 36.995 39.5161 37.0091C39.5725 37.0552 39.6217 37.1206 39.6198 37.0769C39.6196 37.0749 39.5886 37.0498 39.5901 37.045C39.5994 37.0134 39.6555 37.0645 39.684 37.0489C39.7065 37.0367 39.7046 36.9732 39.719 36.9481C39.6329 36.8628 39.6711 36.8638 39.7378 36.9154C39.7482 36.9001 39.7654 36.8897 39.7696 36.8691C39.771 36.8621 39.7434 36.84 39.7413 36.8368C39.7074 36.7865 39.7705 36.8385 39.7755 36.838C39.8274 36.8299 39.8082 36.7619 39.8794 36.7759C39.882 36.7765 39.9432 36.8344 39.9073 36.7833C39.9048 36.7798 39.8683 36.7621 39.8796 36.7466C39.891 36.731 39.8844 36.6737 39.9307 36.6827C39.9418 36.6848 40.0016 36.7217 39.973 36.6748C39.9691 36.6684 39.9507 36.6527 39.9429 36.6414C39.9183 36.6054 39.9817 36.6625 39.9372 36.6046C39.8928 36.5468 39.8684 36.4945 39.9225 36.511C39.9241 36.5114 39.9763 36.5547 39.9815 36.548C39.9897 36.5373 39.9932 36.514 40.0034 36.5044C40.0082 36.4998 40.0349 36.5325 40.0362 36.5322C40.0846 36.517 40.0808 36.468 40.1034 36.4225C40.1075 36.4141 40.1658 36.4366 40.1459 36.3926C40.1242 36.3443 39.9651 36.2125 40.0303 36.2166C40.0564 36.2182 40.2566 36.3872 40.183 36.2695C40.2496 36.2503 40.2403 36.1617 40.3171 36.1526C40.3205 36.1522 40.3782 36.1976 40.382 36.1923C40.3876 36.1844 40.3672 36.1566 40.3705 36.1502C40.3834 36.1228 40.4225 36.1249 40.4387 36.1023C40.4449 36.0937 40.4175 36.0714 40.4249 36.0612C40.4323 36.051 40.471 36.0779 40.4671 36.0502C40.464 36.0291 40.406 35.9531 40.4102 35.9333C40.4767 35.9989 40.4836 35.9894 40.5156 35.9922C40.5218 35.9928 40.5418 36.0188 40.5459 36.0203C40.5632 36.0267 40.5491 36.0026 40.5672 36.0104C40.5715 36.0123 40.5941 36.0348 40.599 36.0376C40.6409 36.0621 40.6044 35.9971 40.598 35.9858C40.5739 35.9428 40.6076 35.9677 40.6016 35.9473C40.5956 35.9269 40.5683 35.9211 40.5687 35.9047C40.5696 35.8707 40.5956 35.8519 40.6123 35.8331C40.6191 35.8258 40.6444 35.8607 40.6461 35.8604C40.6683 35.8534 40.6511 35.8066 40.7192 35.8585C40.5742 35.6932 40.7431 35.8647 40.7329 35.8127C40.732 35.8086 40.6608 35.7331 40.6437 35.7287C40.6266 35.7242 40.6399 35.7567 40.6144 35.7487C40.6084 35.7468 40.5277 35.69 40.5219 35.6874C40.4766 35.6676 40.5845 35.7791 40.5898 35.7857C40.6472 35.8584 40.5586 35.7988 40.5497 35.7975C40.5087 35.7916 40.5092 35.8219 40.4778 35.8198C40.4574 35.8186 40.3847 35.7477 40.3794 35.7574C40.3616 35.7897 40.4531 35.8986 40.3427 35.8353C40.3191 35.8218 40.2456 35.7383 40.2892 35.8181C40.292 35.8231 40.335 35.8931 40.2915 35.8651C40.286 35.8616 40.2632 35.8387 40.26 35.838C40.2389 35.8342 40.2514 35.8582 40.2333 35.8589C40.2152 35.8595 40.1909 35.8578 40.1879 35.8763C40.1861 35.8874 40.2204 35.9383 40.2277 35.9518C40.2491 35.9906 40.1904 35.9507 40.2214 35.9925C40.2525 36.0346 40.3188 36.0795 40.3281 36.1174C40.2681 36.0585 40.2059 35.9987 40.1453 35.9398C40.116 35.9732 40.1044 36.0233 40.0703 36.0521C40.066 36.0556 40.0381 36.0197 40.0326 36.0226C40.0099 36.0352 40.0173 36.0734 39.9899 36.0826C39.9686 36.0896 39.9193 36.0713 39.8959 36.0776C39.9549 36.1547 39.9098 36.1536 39.9001 36.1757C39.8966 36.1835 39.9152 36.2013 39.9171 36.2112C39.9241 36.2481 39.871 36.181 39.8574 36.1756C39.7994 36.1529 39.9339 36.2904 39.9098 36.3079C39.9085 36.3088 39.8225 36.2498 39.8162 36.2471C39.7749 36.2295 39.8395 36.2743 39.8374 36.2871C39.8338 36.3103 39.8417 36.337 39.8047 36.3316C39.7938 36.3299 39.7375 36.2957 39.7635 36.3397C39.7669 36.3454 39.7915 36.3687 39.792 36.3711C39.7982 36.4116 39.7225 36.3368 39.6872 36.3211C39.6519 36.3054 39.6887 36.3725 39.7006 36.3906C39.7313 36.4374 39.7234 36.401 39.7276 36.4043C39.778 36.4445 39.7592 36.4477 39.7545 36.46C39.8272 36.5351 39.8109 36.5424 39.7495 36.4724C39.7428 36.4647 39.7562 36.4651 39.7545 36.46C39.6747 36.3949 39.6524 36.3986 39.7058 36.4807C39.7308 36.5191 39.7742 36.5498 39.7403 36.5566C39.7249 36.5597 39.6777 36.5053 39.6556 36.4996C39.6054 36.4866 39.6286 36.5583 39.6019 36.57C39.5922 36.5743 39.5712 36.5396 39.5636 36.5416C39.5434 36.5467 39.5531 36.5787 39.5297 36.5807C39.5276 36.5809 39.5012 36.5489 39.4969 36.5525C39.4636 36.5791 39.4562 36.6238 39.4254 36.6556C39.4106 36.6709 39.3675 36.6819 39.3551 36.7007C39.3334 36.7333 39.3424 36.809 39.3089 36.8219C39.2872 36.8304 39.2614 36.798 39.235 36.7846C39.1841 36.7586 39.2309 36.8497 39.2386 36.8633C39.2388 36.8638 39.2587 36.8576 39.2667 36.8795C39.2939 36.9147 39.2389 36.8633 39.2386 36.8633C39.2435 36.8722 39.2242 36.9048 39.2134 36.9043C39.2076 36.9041 39.1815 36.8749 39.179 36.8753C39.1196 36.8853 39.0778 36.9131 39.0554 36.9613C39.0554 36.9624 39.0872 36.9924 39.0867 36.9948C39.08 37.0289 39.0292 37.0042 38.9899 36.9986C38.9507 36.993 38.9448 37.0138 38.9879 37.0768C38.9685 37.0828 38.9738 37.1245 38.9775 37.1492C38.9813 37.1739 38.9197 37.1152 38.9176 37.1149C38.8508 37.1056 38.8686 37.1567 38.8441 37.1919C38.8326 37.2087 38.7957 37.2281 38.7738 37.2369C38.7563 37.2437 38.7631 37.2651 38.7429 37.2673C38.7402 37.2676 38.715 37.2393 38.7135 37.2387C38.669 37.2192 38.7404 37.2786 38.7495 37.2929C38.7827 37.3447 38.7996 37.3731 38.7636 37.3691C38.7553 37.3682 38.6504 37.2847 38.6381 37.286C38.6224 37.2877 38.6595 37.3182 38.6421 37.3191C38.6407 37.3193 38.62 37.2983 38.6153 37.3048C38.5931 37.335 38.5766 37.3757 38.5473 37.4009C38.5434 37.4044 38.5151 37.3666 38.5089 37.3711C38.4797 37.3924 38.4533 37.4213 38.4442 37.4613C38.4421 37.4713 38.469 37.4906 38.4746 37.4988C38.5081 37.5484 38.4363 37.4994 38.4332 37.5002C38.3592 37.5161 38.3794 37.6052 38.3076 37.6251C38.3035 37.626 38.2196 37.5805 38.2665 37.6446C38.2697 37.6489 38.318 37.7142 38.2716 37.6828C38.2687 37.6809 38.2448 37.6463 38.2385 37.6585C38.2323 37.6707 38.1979 37.666 38.2174 37.7108C38.2235 37.725 38.2707 37.7911 38.2135 37.7579C38.2096 37.7556 38.089 37.6719 38.1529 37.749C38.1634 37.7616 38.2391 37.8351 38.1866 37.8111C38.1764 37.8065 38.1647 37.7849 38.1472 37.7817C38.1201 37.7767 38.1255 37.8113 38.0787 37.7916C38.0705 37.788 38.0098 37.7475 38.0402 37.794C38.0449 37.8012 38.0722 37.8238 38.0708 37.8308C38.0639 37.8644 38.026 37.869 38.0227 37.9068C38.0214 37.9201 38.0654 37.9566 38.0686 37.975C38.0718 37.9934 38.0669 38.0191 38.0405 38.0086C38.0142 37.9982 37.9587 37.9253 37.9417 37.9321C37.8676 37.9616 37.854 38.0505 37.8078 38.1077C37.8009 38.1162 37.7843 38.0868 37.7726 38.0977C37.7292 38.1377 37.6358 38.188 37.6484 38.273C37.6586 38.341 37.7247 38.3343 37.7185 38.3723C37.7154 38.3906 37.6293 38.3276 37.6244 38.3278C37.5753 38.3291 37.5909 38.3797 37.5581 38.3922C37.5513 38.3948 37.5256 38.3599 37.5202 38.3625C37.5013 38.3708 37.5005 38.3986 37.4851 38.4091C37.4781 38.4138 37.456 38.3896 37.4525 38.3968C37.4436 38.4136 37.442 38.4347 37.4511 38.4689C37.4519 38.472 37.4883 38.493 37.4799 38.5036C37.4662 38.5206 37.4684 38.561 37.4287 38.5567C37.4168 38.5553 37.3638 38.5027 37.389 38.5505C37.3942 38.5604 37.4606 38.6208 37.3927 38.5792C37.3814 38.5723 37.2855 38.5205 37.3222 38.579C37.3319 38.5943 37.3765 38.6535 37.362 38.6517C37.3599 38.6512 37.3349 38.6194 37.3269 38.6219C37.2993 38.6311 37.283 38.6534 37.2551 38.6635C37.2477 38.6661 37.2259 38.6293 37.2156 38.6341C37.1875 38.6474 37.1691 38.6808 37.158 38.7102C37.154 38.7211 37.1834 38.7403 37.1855 38.7435C37.2198 38.7952 37.1566 38.7423 37.1503 38.7419C37.112 38.7396 37.1255 38.7807 37.1016 38.7901C37.0951 38.7927 37.0707 38.7618 37.0673 38.7603C37.0337 38.7456 37.0905 38.7883 37.09 38.7997C37.0887 38.8321 37.0677 38.8486 37.0472 38.862C37.0396 38.867 37.0145 38.8278 37.0081 38.8326C36.9694 38.8602 36.938 38.8978 36.9233 38.9479C36.9206 38.9573 36.9492 38.9782 36.9535 38.9851C36.9843 39.0334 36.9176 38.9923 36.9095 38.9902C36.8726 38.9802 36.8893 39.0072 36.8733 39.015C36.7951 39.0526 36.7381 39.1386 36.6924 39.2022C36.6326 39.2849 36.6009 39.3637 36.5269 39.4255C36.5222 39.4295 36.4937 39.3923 36.4892 39.3953C36.4332 39.4354 36.3988 39.4955 36.3411 39.5342C36.3365 39.5374 36.311 39.5005 36.3024 39.5047C36.2847 39.5129 36.2699 39.5311 36.2667 39.5542C36.2651 39.5654 36.3004 39.5836 36.2983 39.5943C36.2933 39.6194 36.2794 39.6377 36.2589 39.6482C36.2502 39.6525 36.2282 39.6107 36.2193 39.6189C36.1579 39.6739 36.0953 39.7256 36.0778 39.8257C36.0766 39.8325 36.1378 39.9009 36.1168 39.897C36.0982 39.8797 36.0771 39.8585 36.0576 39.8395C35.9626 39.9139 35.9012 40.0202 35.8197 40.1086C35.8163 40.1123 35.7881 40.0718 35.7813 40.0788C35.7417 40.1195 35.6932 40.1489 35.6863 40.2241C35.6855 40.2315 35.748 40.2898 35.7269 40.2927C35.7231 40.2931 35.697 40.3031 35.6792 40.2947C35.6766 40.2934 35.6517 40.2619 35.645 40.2669C35.6069 40.2965 35.5779 40.3384 35.5613 40.3894C35.5587 40.3977 35.5945 40.4219 35.5929 40.428C35.5813 40.4715 35.5285 40.4787 35.5294 40.5323C35.5301 40.5682 35.5886 40.6136 35.6303 40.674C35.6361 40.6826 35.6264 40.6946 35.6555 40.7249C35.7288 40.8011 35.8159 40.8776 35.8934 40.9594C35.9101 40.9771 35.877 40.9732 35.9271 41.006C35.9305 41.0082 35.9549 41.0113 35.9715 41.0228C35.9831 41.0307 36.01 41.0642 36.0262 41.0729C36.0423 41.0817 36.0211 41.0523 36.0418 41.0607C36.0628 41.0694 36.0945 41.1065 36.1108 41.0983ZM38.9939 37.2599C39.0131 37.2985 38.9059 37.1942 38.9417 37.209C38.9436 37.2098 38.993 37.258 38.9939 37.2599ZM40.1843 36.1029C40.2183 36.1622 40.141 36.1023 40.114 36.0573C40.0869 36.0124 40.1741 36.0849 40.1843 36.1029ZM40.3499 36.0054C40.3718 36.057 40.2196 35.9094 40.2657 35.9238C40.2684 35.9246 40.3486 36.0024 40.3499 36.0054ZM35.6882 40.6452C35.6895 40.6467 35.683 40.6559 35.6815 40.6547C35.6437 40.6253 35.6567 40.6069 35.6882 40.6452ZM40.5175 35.912C40.5331 35.9369 40.4964 35.9268 40.4769 35.8958C40.4612 35.8709 40.498 35.881 40.5175 35.912ZM38.6007 37.8788C38.6021 37.8805 38.5979 37.8876 38.5891 37.8786C38.5608 37.8495 38.5768 37.8497 38.6007 37.8788ZM40.741 35.6919C40.7139 35.7303 40.8179 35.8741 40.8396 35.8244C40.8435 35.8154 40.7862 35.7988 40.7832 35.7794C40.7779 35.744 40.8657 35.8118 40.8394 35.7548C40.8345 35.7444 40.7423 35.6894 40.7408 35.6918C40.7408 35.6918 40.7409 35.6919 40.741 35.6919ZM39.1153 37.3925C39.1165 37.3941 39.1101 37.4032 39.1085 37.402C39.0707 37.3726 39.0837 37.3543 39.1153 37.3925ZM38.3379 38.2724C38.3405 38.2758 38.3252 38.2966 38.3219 38.2945C38.2575 38.249 38.2883 38.2067 38.3379 38.2724ZM39.7171 36.9455C39.7593 36.9708 39.7735 36.9646 39.7378 36.9155C39.7316 36.9261 39.7235 36.935 39.7171 36.9455Z" fill="#16181B"/>
<path d="M41.0987 40.3984C41.0794 40.3607 41.0322 40.3332 40.9903 40.3183C40.9772 40.3136 40.963 40.3368 40.9531 40.3344C40.9338 40.3297 40.9318 40.3093 40.9112 40.3061C40.9043 40.3052 40.8795 40.3398 40.873 40.3381C40.8373 40.3286 40.8234 40.2996 40.7942 40.283C40.6503 40.2014 40.5283 40.1017 40.4006 40.0011C40.3586 39.9679 40.2859 39.949 40.2588 39.8984C40.2556 39.8924 40.2844 39.8691 40.2857 39.8661C40.305 39.8196 40.2569 39.8768 40.2411 39.8749C40.1784 39.8674 40.137 39.8308 40.1132 39.7869C40.1032 39.7682 40.1694 39.7309 40.1259 39.7454C40.1229 39.7464 40.0989 39.7777 40.092 39.7767C40.0764 39.7744 40.0644 39.7525 40.0553 39.7478C40.0376 39.7388 40.0356 39.7363 40.0227 39.724C40.0048 39.7074 39.9705 39.7007 39.9582 39.6759C39.9557 39.6705 39.9893 39.6474 39.9878 39.6362C39.9863 39.6251 39.9672 39.6108 39.9549 39.6119C39.9426 39.6129 39.9227 39.6376 39.9166 39.6417C39.8653 39.6767 39.9057 39.5976 39.9047 39.5937C39.8846 39.5232 39.8117 39.5184 39.7693 39.4758C39.7371 39.4433 39.7139 39.3976 39.6816 39.3684C39.6431 39.3338 39.5967 39.3181 39.5638 39.2799C39.5603 39.2759 39.598 39.247 39.5938 39.242C39.549 39.1895 39.497 39.1448 39.426 39.1188C39.4189 39.1162 39.3959 39.1518 39.387 39.151C39.3332 39.1453 39.2283 39.1561 39.3382 39.0109C39.313 38.9957 39.2834 38.9764 39.2397 38.9841C39.2116 38.989 39.1909 39.0322 39.1903 39.0043C39.1901 38.9981 39.2222 38.9743 39.2198 38.9671C39.2097 38.9365 39.1784 38.9234 39.1728 38.8889C39.1717 38.8818 39.1978 38.8578 39.2012 38.8522C39.228 38.8059 39.1514 38.8501 39.1435 38.8509C39.0839 38.8567 39.0771 38.8242 39.0512 38.7999C39.0452 38.7943 39.0857 38.7676 39.0811 38.7609C39.0569 38.7271 39.0239 38.6999 38.9806 38.6864C38.9709 38.6835 38.948 38.7179 38.9419 38.718C38.9153 38.7179 38.9665 38.6609 38.942 38.6598C38.9369 38.6595 38.9139 38.6855 38.9107 38.6877C38.8608 38.7223 38.914 38.6557 38.9133 38.6524C38.9064 38.6094 38.8278 38.6559 38.8125 38.6229C38.8108 38.6188 38.8483 38.5943 38.8414 38.585C38.7958 38.5222 38.73 38.4735 38.6516 38.4447C38.6395 38.4402 38.6221 38.4694 38.6187 38.4718C38.5653 38.5081 38.6199 38.4424 38.6194 38.4374C38.6143 38.3997 38.5438 38.4301 38.6009 38.3439C38.4852 38.278 38.4351 38.1473 38.2808 38.1215C38.2789 38.1211 38.2514 38.1527 38.2477 38.1518C38.2036 38.1409 38.2549 38.1002 38.293 38.0257C38.3026 38.007 38.2207 38.061 38.2144 38.0647C38.1916 38.0786 38.1522 38.1273 38.1471 38.1294C38.1067 38.1449 38.2545 38.0011 38.2377 37.9843C38.237 37.984 38.2124 38.013 38.2083 38.0143C38.1955 38.0183 38.2018 38.0033 38.1883 38.0082C38.1571 38.0198 38.0828 38.0871 38.109 38.0309C38.1125 38.0237 38.1981 37.9439 38.1792 37.9328C38.1715 37.9284 38.1465 37.9005 38.1337 37.8985C38.1209 37.8964 38.0994 37.9281 38.0977 37.9288C38.0425 37.944 38.0355 37.9662 37.9733 38.0083C37.9114 38.0503 38.0381 37.9291 38.0478 37.9112C38.0575 37.8934 38.0138 37.9078 38.0001 37.9143C37.9864 37.9208 37.974 37.9422 37.965 37.9447C37.9065 37.9609 38.0173 37.8739 38.0299 37.8473C38.06 37.7842 37.9553 37.8633 37.9312 37.8572C37.9247 37.8556 37.949 37.838 37.9473 37.8324C37.9404 37.8105 37.903 37.8305 37.913 37.7879C37.9146 37.7809 37.9566 37.7124 37.9075 37.7444C37.9004 37.749 37.881 37.7754 37.8697 37.7744C37.8528 37.7729 37.8313 37.7614 37.8291 37.7439C37.8275 37.731 37.8736 37.7016 37.8527 37.7042C37.8434 37.7053 37.8289 37.7349 37.8133 37.7353C37.7977 37.7357 37.7792 37.7153 37.7726 37.7071C37.766 37.699 37.7986 37.6744 37.8 37.6718C37.8074 37.6572 37.807 37.6292 37.8058 37.628C37.7461 37.5614 37.6396 37.5514 37.5941 37.4739C37.5905 37.4679 37.6239 37.4409 37.6237 37.4397C37.6198 37.4105 37.5526 37.5038 37.5142 37.5191C37.5771 37.4595 37.5592 37.4638 37.5543 37.4455C37.5519 37.4366 37.5787 37.4159 37.5806 37.413C37.6083 37.3686 37.556 37.4094 37.545 37.4174C37.5045 37.4469 37.5399 37.3995 37.5127 37.4192C37.4857 37.4387 37.4599 37.4817 37.4492 37.4701C37.468 37.4451 37.5336 37.3961 37.5344 37.3783C37.5376 37.3112 37.4329 37.2965 37.4026 37.2755C37.3723 37.2545 37.368 37.2422 37.3451 37.2351C37.3038 37.2225 37.3562 37.1899 37.3589 37.1536C37.3616 37.1174 37.2651 37.2301 37.2402 37.2502C37.2154 37.2703 37.2359 37.2446 37.2206 37.254C37.2053 37.2634 37.1964 37.2851 37.1848 37.2828C37.1733 37.2805 37.1944 37.2216 37.2154 37.1956C37.26 37.1406 37.3209 37.0969 37.2842 37.0969C37.282 37.097 37.2579 37.1279 37.2511 37.1266C37.1979 37.1158 37.1633 37.0838 37.1126 37.0705C37.1056 37.0687 37.0789 37.1033 37.0745 37.1026C37.0282 37.0955 37.0894 37.0534 37.1321 36.9815C37.0591 37.0611 37.0043 37.0996 36.9836 37.0798C36.9712 37.068 37.0066 37.0368 37.0222 37.0054C37.0269 36.996 36.9954 37.0102 37.0095 36.993C37.0556 36.9367 37.121 36.8874 37.0773 36.8894C37.0753 36.8896 37.0502 36.9205 37.0454 36.919C37.0138 36.9097 37.0649 36.8537 37.0493 36.8251C37.0371 36.8027 36.9736 36.8045 36.9485 36.7901C36.8632 36.8763 36.8642 36.838 36.9158 36.7713C36.9005 36.761 36.8901 36.7438 36.8695 36.7396C36.8625 36.7381 36.8404 36.7657 36.8372 36.7679C36.7869 36.8017 36.8389 36.7386 36.8383 36.7336C36.8303 36.6817 36.7623 36.7009 36.7763 36.6297C36.7769 36.6272 36.8348 36.566 36.7836 36.6018C36.7802 36.6043 36.7625 36.6409 36.747 36.6295C36.7314 36.6182 36.6741 36.6248 36.683 36.5785C36.6852 36.5673 36.7221 36.5075 36.6751 36.5362C36.6688 36.5401 36.653 36.5585 36.6418 36.5662C36.6058 36.5908 36.6629 36.5275 36.605 36.5719C36.5472 36.6164 36.4949 36.6408 36.5114 36.5866C36.5118 36.585 36.5551 36.5328 36.5484 36.5277C36.5377 36.5195 36.5143 36.516 36.5048 36.5058C36.5002 36.5009 36.5329 36.4743 36.5326 36.4729C36.5174 36.4246 36.4684 36.4284 36.4229 36.4058C36.4145 36.4017 36.437 36.3434 36.3929 36.3632C36.3447 36.3849 36.2129 36.544 36.217 36.4789C36.2186 36.4527 36.3876 36.2526 36.2699 36.3261C36.2507 36.2596 36.1621 36.2689 36.153 36.1921C36.1525 36.1886 36.1979 36.131 36.1927 36.1272C36.1848 36.1216 36.157 36.1419 36.1506 36.1387C36.1232 36.1258 36.1253 36.0867 36.1027 36.0704C36.0941 36.0642 36.0718 36.0917 36.0616 36.0843C36.0514 36.0768 36.0783 36.0382 36.0506 36.0421C36.0295 36.0451 35.9535 36.1031 35.9337 36.099C35.9993 36.0324 35.9898 36.0256 35.9926 35.9935C35.9932 35.9873 36.0192 35.9673 36.0206 35.9632C36.0271 35.946 36.003 35.96 36.0108 35.942C36.0127 35.9376 36.0352 35.915 36.038 35.9102C36.0625 35.8683 35.9975 35.9047 35.9862 35.9111C35.9432 35.9353 35.9681 35.9015 35.9477 35.9075C35.9273 35.9135 35.9215 35.9408 35.9051 35.9404C35.871 35.9396 35.8523 35.9135 35.8335 35.8968C35.8262 35.89 35.8611 35.8647 35.8608 35.8631C35.8538 35.8408 35.807 35.8581 35.8589 35.79C35.6936 35.935 35.8651 35.7661 35.8131 35.7762C35.809 35.7771 35.7335 35.8484 35.729 35.8655C35.7246 35.8826 35.7571 35.8692 35.7491 35.8948C35.7472 35.9008 35.6904 35.9815 35.6878 35.9872C35.668 36.0325 35.7795 35.9247 35.7861 35.9193C35.8588 35.8619 35.7992 35.9506 35.7979 35.9595C35.792 36.0005 35.8223 35.9999 35.8202 36.0313C35.819 36.0517 35.7481 36.1245 35.7578 36.1298C35.7901 36.1475 35.899 36.0561 35.8357 36.1665C35.8222 36.1901 35.7387 36.2636 35.8185 36.2199C35.8235 36.2172 35.8935 36.1742 35.8655 36.2176C35.862 36.2231 35.8391 36.246 35.8384 36.2492C35.8346 36.2702 35.8586 36.2578 35.8593 36.2759C35.8599 36.294 35.8582 36.3183 35.8767 36.3213C35.8878 36.3231 35.9387 36.2887 35.9522 36.2814C35.991 36.2601 35.9511 36.3187 35.9929 36.2877C36.035 36.2566 36.0798 36.1904 36.1178 36.181C36.0589 36.241 35.9991 36.3032 35.9402 36.3639C35.9736 36.3931 36.0237 36.4048 36.0525 36.4388C36.056 36.4431 36.0201 36.4711 36.023 36.4765C36.0356 36.4992 36.0738 36.4919 36.083 36.5192C36.09 36.5405 36.0717 36.5899 36.078 36.6132C36.1551 36.5543 36.1539 36.5993 36.1761 36.6091C36.1839 36.6125 36.2017 36.594 36.2116 36.592C36.2485 36.5851 36.1813 36.6382 36.176 36.6518C36.1533 36.7098 36.2908 36.5752 36.3083 36.5994C36.3092 36.6006 36.2502 36.6866 36.2475 36.693C36.2299 36.7342 36.2747 36.6697 36.2875 36.6717C36.3107 36.6754 36.3374 36.6674 36.332 36.7045C36.3303 36.7154 36.2961 36.7716 36.3401 36.7456C36.3458 36.7422 36.3691 36.7176 36.3715 36.7172C36.412 36.7109 36.3372 36.7867 36.3215 36.822C36.3058 36.8573 36.3729 36.8204 36.391 36.8085C36.4378 36.7778 36.4014 36.7858 36.4047 36.7816C36.4449 36.7312 36.4481 36.75 36.4604 36.7546C36.5355 36.682 36.5428 36.6982 36.4728 36.7597C36.4651 36.7664 36.4654 36.7529 36.4604 36.7546C36.3953 36.8345 36.399 36.8567 36.4811 36.8033C36.5195 36.7783 36.5502 36.735 36.557 36.7689C36.5601 36.7842 36.5057 36.8315 36.5 36.8535C36.487 36.9038 36.5587 36.8806 36.5704 36.9073C36.5747 36.917 36.54 36.938 36.542 36.9456C36.5471 36.9658 36.5791 36.956 36.5811 36.9794C36.5813 36.9816 36.5493 37.0079 36.5529 37.0122C36.5795 37.0456 36.6242 37.053 36.656 37.0837C36.6713 37.0986 36.6823 37.1417 36.7011 37.1541C36.7337 37.1758 36.8094 37.1668 36.8223 37.2003C36.8308 37.222 36.7984 37.2478 36.785 37.2741C36.759 37.3251 36.8501 37.2783 36.8637 37.2706C36.8641 37.2703 36.858 37.2504 36.8799 37.2424C36.9151 37.2153 36.8637 37.2703 36.8637 37.2706C36.8726 37.2656 36.9052 37.285 36.9047 37.2957C36.9045 37.3016 36.8753 37.3276 36.8757 37.3301C36.8857 37.3896 36.9135 37.4314 36.9617 37.4537C36.9628 37.4538 36.9928 37.422 36.9952 37.4225C37.0293 37.4292 37.0046 37.48 36.999 37.5193C36.9934 37.5585 37.0142 37.5643 37.0772 37.5213C37.0832 37.5406 37.1248 37.5354 37.1495 37.5316C37.1742 37.5279 37.1156 37.5895 37.1153 37.5916C37.106 37.6584 37.1571 37.6406 37.1922 37.6651C37.2091 37.6766 37.2285 37.7134 37.2373 37.7354C37.2441 37.7528 37.2655 37.746 37.2677 37.7662C37.268 37.7689 37.2397 37.7942 37.2391 37.7957C37.2196 37.8402 37.279 37.7687 37.2933 37.7596C37.3451 37.7265 37.3735 37.7096 37.3695 37.7456C37.3686 37.7538 37.2851 37.8588 37.2864 37.871C37.2881 37.8868 37.3186 37.8497 37.3195 37.867C37.3197 37.8685 37.2987 37.8891 37.3052 37.8939C37.3354 37.9161 37.3761 37.9325 37.4013 37.9619C37.4048 37.9658 37.3669 37.9941 37.3715 38.0003C37.3928 38.0294 37.4217 38.0558 37.4617 38.0649C37.4716 38.0671 37.491 38.0401 37.4992 38.0346C37.5488 38.0011 37.4998 38.0729 37.5006 38.0759C37.5165 38.1499 37.6056 38.1297 37.6255 38.2016C37.6264 38.2056 37.5809 38.2896 37.645 38.2426C37.6493 38.2395 37.7146 38.1912 37.6832 38.2375C37.6812 38.2404 37.6467 38.2644 37.6589 38.2706C37.6711 38.2769 37.6664 38.3112 37.7112 38.2918C37.7254 38.2857 37.7915 38.2385 37.7583 38.2956C37.756 38.2996 37.6723 38.4202 37.7494 38.3563C37.762 38.3458 37.8355 38.2701 37.8115 38.3226C37.8069 38.3327 37.7853 38.3444 37.7821 38.362C37.7771 38.389 37.8116 38.3836 37.792 38.4304C37.7884 38.4387 37.7479 38.4993 37.7944 38.469C37.8016 38.4642 37.8241 38.4369 37.8312 38.4384C37.8648 38.4453 37.8694 38.4832 37.9072 38.4865C37.9205 38.4877 37.957 38.4437 37.9754 38.4405C37.9938 38.4374 38.0195 38.4423 38.009 38.4686C37.9986 38.495 37.9257 38.5505 37.9325 38.5675C37.962 38.6416 38.0509 38.6552 38.1081 38.7014C38.1166 38.7082 38.0872 38.7248 38.0981 38.7366C38.138 38.7799 38.1884 38.8734 38.2734 38.8607C38.3414 38.8506 38.3347 38.7844 38.3727 38.7906C38.391 38.7937 38.3279 38.8799 38.3282 38.8848C38.3295 38.9338 38.38 38.9183 38.3926 38.9511C38.3952 38.9579 38.3603 38.9835 38.3629 38.989C38.3712 39.0078 38.399 39.0086 38.4095 39.0241C38.4142 39.0311 38.39 39.0531 38.3972 39.0567C38.414 39.0655 38.4351 39.0672 38.4692 39.0581C38.4724 39.0572 38.4934 39.0208 38.504 39.0293C38.521 39.043 38.5614 39.0407 38.5571 39.0805C38.5557 39.0923 38.5031 39.1453 38.5508 39.1202C38.5608 39.1149 38.6212 39.0485 38.5796 39.1164C38.5727 39.1277 38.5209 39.2237 38.5793 39.1869C38.5947 39.1772 38.6539 39.1327 38.6521 39.1471C38.6516 39.1493 38.6198 39.1742 38.6223 39.1822C38.6315 39.2099 38.6538 39.2262 38.6639 39.254C38.6665 39.2615 38.6297 39.2833 38.6345 39.2935C38.6478 39.3217 38.6812 39.3401 38.7106 39.3512C38.7215 39.3552 38.7407 39.3257 38.7439 39.3236C38.7956 39.2894 38.7427 39.3526 38.7423 39.3589C38.74 39.3972 38.781 39.3837 38.7905 39.4075C38.7931 39.414 38.7622 39.4385 38.7607 39.4418C38.746 39.4754 38.7887 39.4187 38.8001 39.4192C38.8325 39.4205 38.849 39.4414 38.8624 39.462C38.8673 39.4696 38.8282 39.4946 38.833 39.5011C38.8606 39.5398 38.8982 39.5712 38.9483 39.5858C38.9577 39.5885 38.9786 39.56 38.9855 39.5556C39.0338 39.5249 38.9927 39.5916 38.9906 39.5997C38.9806 39.6365 39.0076 39.6199 39.0154 39.6358C39.053 39.714 39.139 39.7711 39.2026 39.8168C39.2853 39.8765 39.3641 39.9083 39.4259 39.9823C39.4299 39.987 39.3927 40.0155 39.3957 40.02C39.4358 40.0759 39.4959 40.1104 39.5346 40.168C39.5378 40.1727 39.5009 40.1982 39.5051 40.2067C39.5133 40.2245 39.5315 40.2392 39.5546 40.2424C39.5658 40.2441 39.584 40.2087 39.5947 40.2109C39.6198 40.2159 39.6381 40.2298 39.6485 40.2502C39.6529 40.259 39.6111 40.281 39.6193 40.2899C39.6743 40.3512 39.726 40.4139 39.8261 40.4314C39.8329 40.4326 39.9012 40.3713 39.8974 40.3923C39.8801 40.4109 39.8589 40.432 39.8399 40.4515C39.9143 40.5466 40.0206 40.608 40.109 40.6894C40.1127 40.6929 40.0722 40.721 40.0792 40.7279C40.1199 40.7675 40.1493 40.816 40.2245 40.8229C40.2319 40.8236 40.2902 40.7611 40.2931 40.7823C40.2935 40.7861 40.3035 40.8122 40.2951 40.83C40.2938 40.8326 40.2623 40.8575 40.2673 40.8641C40.2968 40.9023 40.3388 40.9313 40.3898 40.9479C40.3981 40.9505 40.4223 40.9147 40.4284 40.9163C40.4719 40.9279 40.4791 40.9807 40.5327 40.9797C40.5686 40.979 40.614 40.9206 40.6744 40.8789C40.683 40.873 40.695 40.8828 40.7253 40.8536C40.8015 40.7803 40.878 40.6932 40.9598 40.6158C40.9775 40.5991 40.9736 40.6322 41.0064 40.582C41.0086 40.5787 41.0117 40.5543 41.0232 40.5376C41.0311 40.5261 41.0646 40.4991 41.0733 40.483C41.0821 40.4668 41.0526 40.4881 41.0611 40.4673C41.0698 40.4464 41.1069 40.4147 41.0987 40.3984ZM37.2603 37.5152C37.2989 37.4961 37.1946 37.6033 37.2094 37.5675C37.2102 37.5656 37.2584 37.5162 37.2603 37.5152ZM36.1033 36.3248C36.1626 36.2909 36.1027 36.3681 36.0577 36.3952C36.0128 36.4222 36.0853 36.3351 36.1033 36.3248ZM36.0058 36.1593C36.0574 36.1373 35.9098 36.2896 35.9242 36.2434C35.925 36.2408 36.0028 36.1605 36.0058 36.1593ZM40.6455 40.8209C40.6471 40.8196 40.6563 40.8261 40.6551 40.8277C40.6257 40.8655 40.6073 40.8525 40.6455 40.8209ZM35.9124 35.9917C35.9373 35.976 35.9272 36.0128 35.8962 36.0322C35.8713 36.0479 35.8814 36.0112 35.9124 35.9917ZM37.8792 37.9084C37.8809 37.907 37.888 37.9112 37.8789 37.92C37.8499 37.9483 37.8501 37.9324 37.8792 37.9084ZM35.6923 35.7682C35.7307 35.7953 35.8745 35.6913 35.8248 35.6696C35.8158 35.6656 35.7992 35.723 35.7798 35.7259C35.7444 35.7312 35.8122 35.6435 35.7552 35.6698C35.7448 35.6746 35.6898 35.7669 35.6922 35.7684C35.6922 35.7683 35.6923 35.7682 35.6923 35.7682ZM37.3929 37.3938C37.3945 37.3926 37.4036 37.3991 37.4024 37.4006C37.373 37.4384 37.3547 37.4254 37.3929 37.3938ZM38.2728 38.1712C38.2762 38.1687 38.297 38.184 38.2949 38.1873C38.2494 38.2516 38.2071 38.2209 38.2728 38.1712ZM36.9459 36.7921C36.9712 36.7498 36.965 36.7357 36.9159 36.7713C36.9265 36.7775 36.9354 36.7857 36.9459 36.7921Z" fill="#16181B"/>
</svg>
