<svg width="56" height="56" viewBox="0 0 56 56" fill="none" xmlns="http://www.w3.org/2000/svg">
<path d="M18.4528 44.3982C17.8928 44.3539 17.164 44.2807 16.609 44.1974C16.4356 44.1717 16.518 44.2138 16.3981 44.1963C16.1643 44.1614 15.9494 44.1013 15.719 44.0587C15.6425 44.0445 15.7267 44.1081 15.6466 44.0922C15.2073 44.0035 14.8023 43.8753 14.3683 43.7392C12.2324 43.0668 10.2778 41.9317 8.58475 40.4087C8.02523 39.9086 7.36724 39.2677 6.89254 38.6507C6.83709 38.5789 6.89978 38.5978 6.89132 38.5825C6.75941 38.3426 6.75717 38.459 6.6409 38.3253C6.18093 37.794 5.74214 37.1421 5.41734 36.5492C5.27989 36.2965 5.48569 36.5111 5.30832 36.2793C5.29613 36.263 5.29735 36.3459 5.25541 36.2788C5.15949 36.1267 5.00836 35.8232 4.94403 35.7C4.81933 35.4631 4.80067 35.4229 4.6939 35.1938C4.54829 34.8801 4.37069 34.5081 4.24794 34.1569C4.22191 34.082 4.2962 34.1661 4.25847 34.0454C4.22001 33.9248 4.10691 33.612 4.06331 33.5075C4.01907 33.4035 4.00416 33.4588 3.99106 33.442C3.88047 33.3038 3.8507 32.9081 3.84019 32.8599C3.62813 31.9785 3.43106 31.2236 3.32636 30.3776C3.2475 29.7342 3.2233 29.0443 3.22119 28.4271C3.22115 28.4201 3.22112 28.4131 3.22109 28.4062C3.21961 27.68 3.2378 27.0649 3.32859 26.363C3.33847 26.2884 3.374 26.3817 3.3863 26.291C3.51858 25.3267 3.72596 24.3815 3.99341 23.4482C4.02041 23.3544 3.94215 23.4612 3.96695 23.3666C4.11259 22.7883 4.40241 21.8723 4.7203 21.6293C4.8823 21.2604 5.10021 20.8221 5.24651 20.4893C5.34135 20.2747 5.18922 20.449 5.34986 20.21C5.38634 20.1563 5.37773 20.2488 5.42992 20.1671C5.64967 19.8234 5.8808 19.4419 6.12962 19.1233C6.18027 19.0587 6.19633 19.0975 6.21491 19.0822C6.36856 18.9532 6.49374 18.6436 6.53278 18.5834C6.82525 18.1273 7.09505 17.8357 7.43261 17.463C7.51139 17.3768 7.45302 17.5105 7.53008 17.429C7.92959 17.0066 8.35899 16.5849 8.77481 16.1948C8.86737 16.1081 8.75275 16.1539 8.79576 16.1109C8.98706 15.922 9.08184 15.9428 9.27028 15.769C9.31029 15.7325 9.26488 15.7245 9.2702 15.7154C9.35384 15.5718 9.51283 15.5563 9.54525 15.5338C9.95931 15.2502 10.1716 14.9928 10.5865 14.737C10.6362 14.7068 10.5499 14.8146 10.6881 14.7278C11.6097 14.1506 12.6332 13.6218 13.629 13.2063C13.7841 13.1418 13.6605 13.1534 13.6688 13.1458C13.8087 13.0253 13.9428 13.0682 13.9952 13.053C14.4087 12.9309 14.7757 12.7458 15.0855 12.7655C16.4915 12.3473 17.9501 12.1839 19.4062 12.1507C19.7675 12.1425 20.122 12.1419 20.4834 12.1476C20.5066 12.1481 20.4679 12.1035 20.5142 12.1047C21.0709 12.1231 20.9578 12.1815 21.3135 12.3002C21.4024 12.3301 21.6925 12.2719 21.7183 12.269C21.8116 12.2562 21.7275 12.1811 21.7583 12.1805C22.013 12.1787 21.9428 12.375 22.2745 12.4328C22.285 12.4343 22.2479 12.3891 22.2765 12.3904C22.3655 12.3943 22.4486 12.4252 22.5356 12.4289C22.7339 12.4376 22.8266 12.3533 23.1095 12.478C23.1449 12.4944 23.0625 12.5932 23.3556 12.6598C23.4726 12.6844 23.9861 12.8281 24.1294 12.8664C24.2737 12.9028 24.1873 12.8369 24.1979 12.8384C24.5973 12.912 24.4579 12.847 24.6741 12.841C24.8906 12.8375 24.7795 12.9851 24.8505 13.0307C24.9213 13.0758 25.2129 13.1402 25.2859 13.154C25.3589 13.167 25.2829 13.1117 25.3462 13.1277C25.7657 13.2375 25.4889 13.2783 25.6088 13.357C25.8886 13.5445 26.1768 13.5316 26.4579 13.6519C26.5337 13.6846 26.4603 13.682 26.5251 13.7165C26.7815 13.8539 26.9562 13.8976 27.2287 14.0886C27.2739 14.1198 27.4678 14.3176 27.6449 14.356C27.6701 14.3614 27.6267 14.2979 27.737 14.3548C27.9016 14.4393 28.1896 14.6106 28.3496 14.7295C28.4678 14.8171 28.2982 14.7686 28.4609 14.8571C28.5331 14.8967 28.4243 14.7857 28.5586 14.8628C28.6931 14.9388 29.0133 15.1677 29.132 15.2587C29.2511 15.3488 29.1613 15.3324 29.1693 15.3417C29.2189 15.3975 29.433 15.5873 29.4524 15.6033C30.4461 16.3937 31.3347 17.1794 32.1009 18.1591C32.1607 18.236 32.0867 18.2122 32.0955 18.2242C32.2886 18.4957 32.2146 18.2192 32.3887 18.3801C32.2993 18.4066 32.3973 18.5052 32.5298 18.6996C32.5934 18.7934 32.5297 18.7637 32.5331 18.774C32.5911 18.9389 32.7115 18.9956 32.74 19.0126C32.8448 19.075 32.8655 19.2082 32.9353 19.2522C33.0049 19.2966 32.9476 19.1242 33.0735 19.3126C33.0828 19.3824 32.9227 19.2882 33.0064 19.4377C33.3298 19.9958 33.9649 21.0161 34.183 21.4895C34.407 21.9561 34.4631 22.1149 34.5865 22.3901C34.8029 22.8915 34.6743 22.7272 34.7623 23.0532C34.8462 23.3816 34.9326 23.1794 34.9786 23.2154C35.0241 23.2511 35.0095 23.3114 35.0446 23.3631C35.0796 23.4148 35.0605 23.2845 35.1098 23.417C35.1605 23.5498 35.2145 23.9347 35.1949 23.9918C35.1547 24.1121 35.0396 23.9649 35.1596 24.3152C35.1664 24.3355 35.1867 24.2587 35.211 24.3368C35.4015 24.9544 35.5321 25.6181 35.6424 26.256C35.6576 26.3439 35.6902 26.2592 35.6995 26.3105C35.7916 26.8461 35.6952 26.6631 35.6429 26.9632C35.7436 26.8878 35.8284 27.0437 35.8537 27.4573C35.8674 27.7058 35.8176 27.6643 35.7907 27.8249C35.7826 27.8729 35.8195 28.0466 35.7978 28.0789C35.7288 28.1815 35.6505 28.031 35.6772 28.4062C35.6779 28.4179 35.6788 28.4302 35.6798 28.4431C35.6812 28.4616 35.721 28.4026 35.7233 28.4668C35.7348 28.8818 35.6583 28.9278 35.6259 29.371C35.6007 29.7189 35.5867 30.3401 35.5351 30.7348C35.6572 30.7429 35.573 31.1146 35.4629 31.2499C35.4216 31.505 35.362 31.7768 35.3179 32.0235C35.3027 32.1082 35.3494 32.061 35.3507 32.0724C35.3714 32.2485 35.2649 32.3389 35.2484 32.392C35.0703 32.9704 34.9832 33.4613 34.7309 33.9839C34.7218 34.0024 34.632 34.0045 34.6355 34.1701C34.6358 34.181 34.7393 34.016 34.6458 34.2712C34.5529 34.5259 34.3973 35.0182 34.2005 35.3433C34.1536 35.4223 33.9929 35.6001 33.957 35.7889C33.9524 35.8142 33.9861 35.801 33.982 35.8389C33.9677 35.9614 33.8634 35.978 33.8639 36.1315C33.8643 36.2846 33.7763 36.5637 33.5373 36.8679C33.5297 36.8777 33.4257 36.9208 33.3638 37.0238C33.2654 37.1884 33.1304 37.4253 33.0183 37.5913C32.9646 37.6708 32.9641 37.5964 32.9541 37.6098C32.573 38.1283 32.3293 38.5169 31.8986 39.0574C31.8196 39.1571 31.539 39.3932 31.4058 39.603C31.2577 39.8328 31.6024 39.7751 31.1303 40.1896C30.9368 40.3563 30.5326 40.3884 30.2898 40.7871C29.6178 41.3407 29.0165 41.8876 28.2564 42.3253C28.2222 42.3451 28.0786 42.3508 28.0012 42.4003C27.8862 42.4741 27.84 42.5421 27.7574 42.5944C27.4114 42.814 27.0689 42.9696 26.7195 43.1521C26.5864 43.2209 26.649 43.2293 26.489 43.3098C26.3288 43.3894 26.2018 43.3984 25.99 43.5178C25.8298 43.6077 25.6987 43.7673 25.4755 43.8689C25.4319 43.7853 25.2779 43.8511 24.9909 43.9307C24.9359 43.9458 24.9819 43.8943 24.9554 43.8998C24.8471 43.9216 24.7608 43.9808 24.6566 43.9974C24.6313 44.0014 24.6198 43.9716 24.5986 43.9732C24.4182 43.9858 24.165 44.1407 24.1209 44.1667C23.9526 44.2675 23.855 44.2521 23.7192 44.3094C23.583 44.3662 23.8005 44.3309 23.6382 44.3869C23.3023 44.503 22.8548 44.6016 22.5018 44.6706C22.3607 44.698 22.4491 44.6377 22.4287 44.6406C22.1361 44.6855 21.844 44.7764 21.6704 44.7149C21.4964 44.9596 21.4913 44.721 21.0751 44.8103C21.0427 44.8172 21.0099 44.9251 21.1402 44.9268C21.2709 44.9283 21.4616 44.8731 21.6418 44.8721C21.6844 44.8723 21.9386 44.9329 21.9733 44.9329C22.2401 44.9367 22.2494 44.7758 22.2614 44.7654C22.3985 44.6485 22.7069 44.6938 22.7859 44.6839C23.1447 44.6416 23.4333 44.5474 23.7298 44.4908C23.923 44.4531 23.9697 44.545 24.1177 44.4979C24.6088 44.3372 24.7305 44.1454 25.2264 44.0917C25.3327 44.0786 25.2777 44.2216 25.5931 44.0016C25.6135 43.9878 25.8374 43.809 26.0041 43.7903C26.0251 43.7881 26.0375 43.818 26.063 43.8097C26.2332 43.7535 26.3306 43.6806 26.5108 43.6085C26.6908 43.5364 26.9091 43.448 27.1001 43.3349C27.2156 43.2669 27.3366 43.132 27.3851 43.0881C27.5215 42.9639 27.7229 42.9274 27.7925 42.8261C27.8619 42.7243 27.6354 42.769 27.8675 42.5899C27.9204 42.6562 27.9867 42.7168 28.0459 42.7796C28.5973 42.4377 29.105 42.0514 29.6179 41.654C29.6815 41.6046 29.6448 41.6912 29.7137 41.6389C30.0042 41.4173 30.2271 41.1873 30.5169 40.9444C30.7411 40.7563 31.0076 40.5697 31.2332 40.3602C31.2983 40.1603 31.6357 39.8561 31.8477 39.6023C31.9221 39.5138 31.8976 39.5026 31.9452 39.4353C32.1236 39.1808 32.0934 39.3455 32.1588 39.2894C32.4372 39.0447 32.3086 38.8997 32.5732 38.5652C32.5873 38.548 32.836 38.3872 32.8636 38.3594C33.0407 38.1868 32.8587 38.306 32.9416 38.178C33.0916 37.9436 33.1806 37.7712 33.3831 37.5147C33.4422 37.4402 33.6191 37.2808 33.6725 37.0965C33.6796 37.0723 33.6436 37.0663 33.652 37.0485C33.8043 36.7288 33.8993 36.7733 34.0308 36.6138C34.1625 36.4535 34.2434 36.1411 34.253 36.0749C34.2801 35.9018 34.174 36.1775 34.1646 36.1827C34.0587 36.2463 34.1748 36.0508 34.2475 35.8932C34.1659 35.824 34.2777 35.6103 34.3227 35.7296C34.3276 35.7432 34.259 35.86 34.2475 35.8932C34.4074 35.8033 34.5385 35.5656 34.5719 35.2573C34.5866 35.1127 34.4889 35.212 34.6702 34.8355C34.7507 34.6642 34.7894 34.7592 34.8704 34.6108C35.0559 34.27 35.1607 33.777 35.2881 33.4022C35.3345 33.2661 35.3306 33.4115 35.3634 33.3188C35.4499 33.0725 35.4841 32.8428 35.5645 32.5923C35.5718 32.5696 35.5973 32.6361 35.6181 32.5572C35.7745 31.9581 35.8552 31.4225 35.9469 30.7829C35.9927 30.4749 36.0749 29.9207 36.091 29.5973C36.1128 29.2221 36.1 28.7952 36.0856 28.4062C36.0786 28.2105 36.0716 28.0269 36.0713 27.867C36.0694 27.5557 36.1122 27.6231 36.1336 27.4871C36.1756 27.223 36.0377 26.7746 36.0155 26.7164C36.0152 26.7145 36.0304 26.9818 35.9962 26.8416C35.9445 26.7634 36.0156 26.7195 36.0155 26.7164C36.0038 26.6765 35.9312 26.1444 35.9217 26.039C35.9177 25.9812 35.961 26.0076 35.9581 25.9775C35.8886 25.26 35.7478 24.5494 35.5312 23.8508C35.527 23.8387 35.4902 23.8692 35.4807 23.8405C35.3461 23.4416 35.3127 23.1683 35.2272 22.8285C35.1408 22.4895 35.0276 22.2328 34.8802 22.0713C34.7902 21.8249 34.606 21.4928 34.4951 21.307C34.3845 21.121 34.4463 21.0566 34.4396 21.0386C34.2217 20.4808 34.012 20.1994 33.6856 19.6762C33.5307 19.4263 33.2198 18.9339 33.0398 18.6707C32.899 18.462 32.7923 18.3527 32.6607 18.1614C32.6428 18.1356 32.6922 18.1374 32.6875 18.129C32.5634 17.8965 32.5672 18.0522 32.5213 18.0205C32.3535 17.9068 32.2556 17.8346 32.0632 17.5656C32.0191 17.5038 31.9731 17.2485 31.8845 17.1394C31.7695 16.9983 31.7807 17.081 31.6598 16.934C31.6493 16.9216 31.6734 16.9037 31.5915 16.8193C31.2118 16.4277 30.7698 16.0297 30.3422 15.6591C30.2837 15.6086 30.3896 15.6376 30.3051 15.564C29.9086 15.2188 29.4496 14.8678 29.0171 14.5935C28.9105 14.5261 28.9567 14.5981 28.9287 14.5905C28.7581 14.5435 28.6083 14.3421 28.5758 14.3193C27.8105 13.7758 27.1435 13.4967 26.293 13.0682C26.2478 13.0443 25.9153 12.7992 25.7197 12.8061C25.7062 12.8062 25.5136 12.8149 25.3878 12.7082C25.3799 12.7016 25.4978 12.702 25.3164 12.6377C25.1348 12.5735 24.8532 12.4438 24.5872 12.4057C24.5026 12.3934 24.2924 12.4099 24.0722 12.2796C24.0593 12.2702 23.7248 12.0269 23.5657 12.0906C23.5399 12.1014 23.5375 12.2075 23.2626 12.0859C23.2098 12.0628 23.3156 12.0632 23.1732 12.0151C22.9541 11.9412 22.6513 11.9069 22.3821 11.8113C22.3355 11.7943 22.1394 11.6876 21.9636 11.7161C21.9364 11.7205 21.9804 11.7627 21.8924 11.7535C21.4741 11.7103 21.0356 11.6383 20.6075 11.6325C20.4555 11.6307 20.5291 11.6925 20.3708 11.6983C20.2117 11.7038 19.898 11.7063 19.7334 11.6779C19.5688 11.6492 19.7511 11.5605 19.5022 11.5509C19.4702 11.5498 19.4382 11.5489 19.4062 11.5481C18.3573 11.5224 17.3214 11.6684 16.2975 11.8681C16.1412 11.8992 16.2647 11.8416 16.0341 11.8871C15.1788 12.0423 13.7294 12.4626 13.0631 12.826C12.5297 13.1088 13.2426 12.8548 12.8295 13.0539C12.631 13.1505 12.3702 13.1549 12.32 13.1749C11.8314 13.3675 11.5302 13.5782 11.1132 13.7978C11.0273 13.8435 11.0889 13.7589 11.0159 13.7985C10.7664 13.9337 10.522 14.1057 10.2927 14.2498C10.1899 14.3145 10.1907 14.275 10.0987 14.3388C9.87878 14.4918 9.69169 14.6391 9.49943 14.8174C9.48201 14.8336 9.63479 14.7721 9.47663 14.8898C9.22052 15.0809 8.92761 15.3479 8.62703 15.5604C8.53796 15.6235 8.48521 15.569 8.34199 15.7622C8.31223 15.8031 8.41789 15.8275 8.16336 15.9518C8.12053 15.9715 7.71062 16.2085 7.59777 16.4168C7.56757 16.4712 7.51217 16.6298 7.41284 16.7154C7.39912 16.7269 7.42008 16.6478 7.34152 16.723C7.06532 16.9892 6.79872 17.2901 6.53535 17.5835C6.465 17.662 6.53404 17.5149 6.43026 17.6332C6.14469 17.9583 5.82455 18.3952 5.59351 18.7493C5.50827 18.8799 5.59817 18.8112 5.59471 18.8226C5.54099 19.0065 5.4138 19.0496 5.37613 19.0974C5.14426 19.395 5.02549 19.6601 4.84211 19.9535C4.79171 20.0349 4.79191 19.9566 4.77932 19.9713C4.651 20.1261 4.78535 20.033 4.73024 20.1456C4.57644 20.4618 4.39354 20.8045 4.23519 21.1221C4.17732 21.2384 4.19942 21.087 4.14807 21.192C3.84359 21.8137 3.57931 22.488 3.39237 23.1364C3.35727 23.2588 3.41547 23.1936 3.41482 23.2212C3.41102 23.4118 3.26204 23.6435 3.23806 23.7011C3.12873 23.9605 3.13023 24.0754 3.06409 24.3126C2.73341 25.4755 2.56613 26.9693 2.56802 28.1076C2.56736 28.2084 2.5677 28.3079 2.56894 28.4062C2.59262 29.7505 2.74374 30.8343 3.01891 32.1205C3.0383 32.2082 2.97283 32.1302 2.98913 32.206C3.2035 33.1851 3.52745 34.1205 3.90862 35.0483C3.94021 35.1246 3.85262 35.0325 3.90231 35.1556C4.00413 35.4084 4.15126 35.7193 4.28691 35.9595C4.35287 36.0763 4.30632 35.8988 4.37208 36.0165C4.52553 36.2898 4.68729 36.5832 4.84208 36.8652C4.90806 36.9851 4.76519 36.8291 4.85444 36.9833C5.46455 38.0326 6.17303 39.0068 7.04317 39.8711C7.10304 39.9303 7.21961 39.9222 7.32906 40.0628C7.31988 40.09 7.29775 40.1102 7.28214 40.1332C8.49092 41.4195 9.91263 42.4724 11.4665 43.3123C11.5321 43.3477 11.3955 43.329 11.5228 43.3976C12.261 43.7925 13.0018 44.1381 13.8242 44.381C13.9057 44.4047 13.8927 44.3109 14.124 44.4034C14.1644 44.4206 14.5182 44.5468 14.6057 44.5914C14.6176 44.5979 14.5403 44.6163 14.656 44.6523C15.331 44.8607 16.0542 45.0168 16.7529 45.1044C16.8658 45.1184 16.753 45.0574 16.8333 45.0669C17.399 45.1338 18.0145 45.2285 18.5632 45.2169C18.9271 45.2074 18.7958 45.1276 18.9896 45.0614C19.0169 45.0523 19.2408 45.0543 19.2527 45.0121C19.283 44.9067 19.1772 44.7898 19.2223 44.6777C19.2317 44.6541 19.5249 44.6809 19.3514 44.6219C19.3392 44.6182 19.1276 44.5967 19.0763 44.5753C19.0405 44.5608 19.1063 44.5195 19.0333 44.5002C18.9605 44.4809 18.8788 44.5146 18.7584 44.489C18.638 44.4627 18.6949 44.4177 18.4528 44.3982ZM33.975 20.4828C33.8433 20.3282 33.9592 20.2292 34.0326 20.4362C34.036 20.4463 33.9816 20.4908 33.975 20.4828ZM29.0284 41.9524C29.1994 41.747 29.3983 41.716 29.2823 41.8674C29.1648 42.0188 28.9755 42.015 29.0284 41.9524ZM26.7055 43.3061C26.9516 43.1231 27.0926 43.2886 26.7815 43.3991C26.7634 43.4055 26.691 43.3168 26.7055 43.3061ZM18.1033 44.9944C18.1061 44.9929 18.2663 45.0028 18.2701 45.0049C18.3523 45.0586 18.0309 45.0387 18.1033 44.9944ZM24.2188 44.2508C24.2998 44.1963 24.5686 44.143 24.4681 44.2134C24.3869 44.2709 24.1171 44.3197 24.2188 44.2508ZM26.497 13.5897C26.4932 13.5903 26.3893 13.543 26.3967 13.5327C26.4211 13.4991 26.5599 13.5783 26.497 13.5897ZM19.7745 44.9715C20.4413 44.9448 20.8295 44.7353 20.112 44.797C19.9821 44.8066 20.3948 44.8392 20.2299 44.8632C19.9274 44.9066 19.7231 44.8019 19.4119 44.8616C19.355 44.8732 19.7361 44.9744 19.7757 44.9718C19.7753 44.9717 19.7749 44.9716 19.7745 44.9715ZM33.7626 20.4694C33.7591 20.4668 33.68 20.3299 33.6797 20.3257C33.6789 20.2274 33.8388 20.504 33.7626 20.4694ZM20.0655 12.0846C20.0569 12.0875 19.6922 12.0811 19.6801 12.078C19.4902 11.9951 20.2315 12.0072 20.0655 12.0846ZM35.5374 30.7414C35.4661 30.9031 35.4277 31.1044 35.463 31.2491C35.4893 31.081 35.5162 30.9102 35.5374 30.7414Z" fill="#16181B"/>
<path d="M13.491 21.1069C13.7301 21.3827 13.9587 22.0411 14.036 22.672C14.0571 22.8513 14.0747 23.5925 14.0747 24.4405V25.8988L13.2941 25.8885C12.429 25.8781 12.3833 25.8678 12.1266 25.6402L12 25.523V25.8057C12.0035 26.1332 12.0422 26.3194 12.1582 26.5676C12.2884 26.833 12.4958 27.0468 12.7455 27.1674C12.9565 27.2709 12.9741 27.2743 13.4629 27.2743C13.7371 27.2743 13.9868 27.2847 14.0185 27.295C14.0677 27.3122 14.0747 27.4088 14.0747 28.0224V28.7291L13.3292 28.7153C12.4993 28.7016 12.4009 28.6809 12.1301 28.4464L12 28.3361V28.6292C12 29.1152 12.1582 29.5014 12.4747 29.7875C12.756 30.0426 12.8862 30.0805 13.5226 30.0943L14.0747 30.1081V31.6146C14.0747 32.4972 14.0571 33.2453 14.036 33.428C13.9622 34.0037 13.7407 34.6173 13.5015 34.8793L13.396 35L16.4695 34.9897C19.1701 34.9759 19.5956 34.969 19.9648 34.9173C22.6971 34.5243 24.48 33.2901 25.338 31.1871C25.4224 30.9769 25.5385 30.6493 25.5912 30.4563L25.6932 30.1012H26.5547C27.5288 30.1012 27.6062 30.1184 27.8699 30.3701L28 30.4942V30.2494C28 29.7358 27.8453 29.3186 27.5464 29.036C27.2686 28.7705 27.0963 28.7222 26.4387 28.7222H25.9007V27.9948V27.2674L26.6602 27.2812C27.4971 27.295 27.5323 27.3019 27.8347 27.526L28 27.6535V27.4363C28 26.7744 27.7222 26.2539 27.2369 26.016C27.0365 25.916 27.0224 25.9126 26.3578 25.9022L25.6791 25.8885L25.6404 25.7471C25.4646 25.0783 25.0673 24.2027 24.7226 23.7166C23.7697 22.3721 22.3666 21.5309 20.4747 21.1758C19.6378 21.0172 19.244 21 16.2338 21H13.3996L13.491 21.1069ZM19.3213 21.7412C19.7046 21.7895 20.0879 21.8756 20.4325 21.986C20.6681 22.0618 21.3292 22.3824 21.389 22.4514C21.3996 22.4617 21.4769 22.5169 21.5648 22.5755C21.9622 22.8444 22.3947 23.358 22.6901 23.9062C22.8343 24.182 23.098 24.806 23.1297 24.9645C23.1367 24.9921 23.1719 25.1473 23.2105 25.3093C23.2492 25.4713 23.2914 25.6678 23.3055 25.7471L23.3301 25.8953H19.8171C17.8866 25.8953 16.2725 25.9057 16.2303 25.916L16.1495 25.9367V23.8131V21.6895H17.5349C18.5618 21.6895 19.0295 21.7033 19.3213 21.7412ZM23.4813 27.6535C23.4954 27.8604 23.4954 28.1879 23.4813 28.3775L23.4567 28.7222H19.8031H16.1495V28.0224C16.1495 27.6363 16.16 27.3088 16.1741 27.2984C16.1846 27.2847 17.8303 27.2743 19.8277 27.2743H23.4567L23.4813 27.6535ZM23.3055 30.2115C23.0453 31.4905 22.6268 32.3455 21.9376 33.0177C21.4769 33.4693 21.0092 33.752 20.3692 33.9796C19.6062 34.245 19.0646 34.3071 17.4435 34.3071H16.1495V32.2041V30.1012H19.7398H23.3301L23.3055 30.2115Z" fill="#16181B"/>
<path d="M45.5627 19.2033C45.5497 19.309 45.5636 19.4477 45.5827 19.5531C45.5887 19.5861 45.6152 19.5694 45.6204 19.5922C45.6307 19.6367 45.6177 19.6783 45.63 19.7223C45.6342 19.7369 45.6762 19.7188 45.6796 19.7341C45.6982 19.818 45.6875 19.8973 45.6964 19.9823C45.7405 20.401 45.7562 20.8125 45.7753 21.2363C45.7816 21.376 45.8197 21.5458 45.8031 21.6902C45.8011 21.707 45.7642 21.697 45.7612 21.7002C45.7147 21.7504 45.7891 21.7337 45.799 21.7666C45.838 21.8968 45.8414 22.0417 45.8272 22.1671C45.821 22.2204 45.7478 22.167 45.7889 22.2207C45.7917 22.2244 45.8308 22.2109 45.835 22.2255C45.8444 22.2587 45.8374 22.3216 45.8405 22.3473C45.8466 22.3969 45.8463 22.4051 45.8467 22.4519C45.8476 22.516 45.8671 22.5922 45.8582 22.661C45.8562 22.6756 45.8161 22.6562 45.8093 22.6796C45.8025 22.703 45.8059 22.765 45.8153 22.7859C45.8248 22.8068 45.8563 22.7979 45.8635 22.8016C45.9245 22.832 45.8401 22.9037 45.838 22.9129C45.8024 23.0811 45.8505 23.2252 45.8504 23.3831C45.8502 23.5029 45.8343 23.631 45.8364 23.745C45.8392 23.8809 45.8609 23.996 45.8572 24.1279C45.8568 24.1419 45.8097 24.1256 45.8092 24.1426C45.8037 24.3233 45.8088 24.5027 45.8407 24.6827C45.8439 24.7007 45.8853 24.6774 45.891 24.6955C45.925 24.8058 46.0068 24.9805 45.8265 25.046C45.8335 25.1208 45.8408 25.2116 45.8772 25.2785C45.9005 25.3216 45.9457 25.2797 45.9264 25.3327C45.9221 25.3446 45.8826 25.3291 45.8792 25.347C45.8647 25.4225 45.8775 25.5049 45.8571 25.5795C45.8529 25.5947 45.8175 25.5905 45.8111 25.5949C45.7595 25.631 45.8448 25.6912 45.851 25.7043C45.8973 25.8042 45.8791 25.8771 45.8802 25.9702C45.8805 25.9918 45.8329 25.9663 45.8315 25.987C45.8247 26.0948 45.8288 26.2065 45.8499 26.312C45.8547 26.3355 45.8952 26.3139 45.8996 26.3251C45.9183 26.3746 45.8418 26.3855 45.8584 26.433C45.8617 26.443 45.8964 26.4373 45.9002 26.4391C45.96 26.4677 45.8753 26.4925 45.8734 26.4998C45.8479 26.5927 45.9363 26.6521 45.9238 26.7418C45.9222 26.7526 45.8783 26.7284 45.8765 26.7586C45.8644 26.9596 45.8765 27.1722 45.9116 27.3712C45.917 27.4022 45.9499 27.3801 45.954 27.382C46.0175 27.4138 45.9324 27.4343 45.9292 27.4444C45.9062 27.524 45.9775 27.5983 45.8762 27.6524C45.9113 27.9895 45.8544 28.325 45.9452 28.6593C45.9463 28.6635 45.9882 28.6559 45.9901 28.6644C46.0136 28.7665 45.9485 28.7469 45.8689 28.8144C45.8489 28.8315 45.945 28.8832 45.952 28.8878C45.978 28.9045 46.0403 28.8872 46.0454 28.8928C46.0849 28.939 45.8787 28.9315 45.8787 28.9939C45.879 28.9958 45.917 28.9876 45.9207 28.9929C45.9326 29.0091 45.9175 29.0253 45.9306 29.0412C45.9608 29.0776 46.0609 29.0906 46.0026 29.1462C45.9951 29.1533 45.8782 29.1425 45.8837 29.1982C45.886 29.2204 45.884 29.3187 45.8916 29.3462C45.8991 29.3738 45.9368 29.3549 45.9384 29.3568C45.9883 29.431 46.0089 29.4029 46.0827 29.44C46.1561 29.4771 45.9809 29.4668 45.9613 29.482C45.9418 29.4971 45.9829 29.5515 45.9972 29.5648C46.0115 29.5782 46.0354 29.5615 46.0435 29.5734C46.0964 29.6521 45.9565 29.608 45.9287 29.6339C45.8629 29.695 45.9928 29.7427 46.0056 29.7986C46.009 29.8138 45.9794 29.8014 45.9766 29.8149C45.9661 29.8683 46.0066 29.9004 45.9694 29.9612C45.9634 29.9712 45.8852 30.0203 45.9426 30.0521C45.9509 30.0566 45.9832 30.0438 45.9905 30.0666C46.0014 30.1006 46.0085 30.1618 45.9976 30.1984C45.9896 30.2254 45.9363 30.1944 45.9528 30.2284C45.9602 30.2435 45.9915 30.2155 46.0028 30.2439C46.0141 30.2721 46.0127 30.3443 46.0116 30.3717C46.0105 30.3991 45.97 30.3841 45.9673 30.3863C45.9517 30.3997 45.9322 30.4523 45.9322 30.457C45.9273 30.6914 45.9955 30.9075 45.9729 31.1357C45.9712 31.1536 45.9285 31.1417 45.9278 31.1444C45.9099 31.2057 46.0234 31.1574 46.0614 31.2002C45.9748 31.194 45.9905 31.2193 45.981 31.2625C45.9763 31.2833 45.9428 31.272 45.9393 31.2739C45.8884 31.3048 45.9542 31.3262 45.9677 31.3318C46.0172 31.3522 45.9587 31.3745 45.9918 31.3884C46.0246 31.4023 46.0733 31.3703 46.0727 31.4117C46.0417 31.4233 45.9607 31.3926 45.9475 31.424C45.8978 31.5427 45.9614 31.7642 45.968 31.8596C45.9746 31.9548 45.9689 31.9855 45.9801 32.041C46.0004 32.1412 45.9403 32.1045 45.9127 32.1667C45.8852 32.2291 46.0332 32.1988 46.065 32.2078C46.0967 32.2166 46.064 32.2262 46.0815 32.2371C46.099 32.2481 46.1206 32.2244 46.1272 32.2501C46.1337 32.2758 46.0772 32.346 46.0439 32.3552C45.9735 32.3744 45.8995 32.3428 45.9255 32.4107C45.927 32.4146 45.9659 32.402 45.9699 32.4169C45.9998 32.5359 46.0017 32.6594 46.0282 32.7782C46.0319 32.7945 46.0751 32.7799 46.0778 32.7894C46.1055 32.8884 46.0325 32.853 45.9514 32.9073C46.0593 32.8951 46.1253 32.9251 46.1259 33.0002C46.1264 33.0454 46.0792 33.0376 46.046 33.0668C46.036 33.0756 46.0684 33.1075 46.0462 33.1133C45.9738 33.1324 45.8927 33.1023 45.925 33.1798C45.9265 33.1832 45.9662 33.1724 45.9686 33.1841C45.9843 33.26 45.9085 33.2691 45.8994 33.3512C45.8922 33.4155 45.9384 33.5299 45.9459 33.6031C46.0672 33.6016 46.0394 33.6707 45.9558 33.6988C45.9592 33.7463 45.9545 33.7977 45.966 33.8436C45.97 33.8594 46.0051 33.849 46.0089 33.851C46.0684 33.8816 45.987 33.9022 45.9838 33.9125C45.9528 34.0237 46.0145 34.1143 45.9542 34.2204C45.9521 34.2241 45.8678 34.2302 45.9293 34.2586C45.9336 34.2604 45.9719 34.2254 45.9749 34.2753C45.9778 34.3252 46.023 34.4193 45.984 34.4887C45.9746 34.5054 45.9062 34.5479 45.9596 34.5819C45.9669 34.5864 45.991 34.5815 46.0045 34.588C46.0473 34.6092 45.9622 34.6207 46.0345 34.6456C46.1068 34.6705 46.161 34.7222 46.1111 34.7921C46.1097 34.7944 46.0422 34.8109 46.0432 34.8329C46.045 34.868 46.0591 34.9178 46.0586 34.9544C46.0584 34.972 46.0165 34.9608 46.0157 34.9638C45.9922 35.0818 46.0296 35.1657 46.0458 35.2921C46.0488 35.3152 45.9917 35.3818 46.0369 35.4266C46.0863 35.4759 46.2921 35.4253 46.2431 35.5385C46.2235 35.5841 45.9624 35.6419 46.0977 35.7239C46.0642 35.883 46.1334 36.0302 46.0855 36.1897C46.0834 36.1969 46.0106 36.2196 46.0116 36.2364C46.0132 36.2615 46.0472 36.2752 46.0495 36.2931C46.0597 36.368 46.0306 36.4366 46.0351 36.5088C46.0368 36.5363 46.072 36.5267 46.0739 36.5594C46.0759 36.5921 46.0295 36.6139 46.0519 36.6582C46.069 36.6916 46.1637 36.7251 46.1748 36.7695C46.0813 36.7712 46.0832 36.8017 46.0586 36.8559C46.0538 36.8663 46.0212 36.8551 46.0173 36.8601C46.0005 36.8801 46.0275 36.8987 46.0092 36.9177C46.0049 36.9224 45.9729 36.9226 45.9675 36.9264C45.9205 36.9586 45.9923 37.0116 46.0048 37.0208C46.0523 37.0557 46.0108 37.072 46.0295 37.0988C46.0482 37.1256 46.0716 37.0856 46.0829 37.1168C46.1064 37.1816 46.1012 37.2648 46.1027 37.3306C46.1031 37.3568 46.0605 37.3389 46.0595 37.3427C46.0487 37.397 46.094 37.4518 46.0092 37.4819C46.2286 37.5196 45.9879 37.5147 46.0318 37.5922C46.0354 37.5984 46.1391 37.6061 46.1544 37.5827C46.1696 37.5592 46.1372 37.5236 46.1609 37.4911C46.1665 37.4834 46.2637 37.4392 46.2696 37.4332C46.3156 37.386 46.1606 37.3793 46.1521 37.3768C46.0601 37.3485 46.1649 37.2945 46.1721 37.2803C46.2053 37.2153 46.1835 37.1601 46.2072 37.1057C46.2225 37.0702 46.324 37.0667 46.3209 37.0388C46.3107 36.9459 46.169 36.9135 46.2918 36.8261C46.318 36.8073 46.4291 36.826 46.3418 36.7587C46.3362 36.7545 46.2564 36.7046 46.3069 36.6758C46.3133 36.6722 46.3456 36.6723 46.3483 36.6675C46.3659 36.6355 46.3401 36.6142 46.3525 36.5793C46.3648 36.5445 46.3832 36.5025 46.3723 36.4627C46.3657 36.4388 46.3054 36.408 46.2907 36.3965C46.2482 36.3641 46.3179 36.3293 46.2664 36.3092C46.2146 36.289 46.1361 36.3286 46.1026 36.2755C46.1867 36.2735 46.273 36.269 46.3575 36.2658C46.3545 36.1494 46.3274 36.0349 46.3311 35.9181C46.3316 35.9036 46.3768 35.9184 46.3786 35.9029C46.3857 35.8374 46.3535 35.7802 46.3663 35.7123C46.3765 35.6598 46.4243 35.6021 46.4364 35.5472C46.3402 35.5136 46.3728 35.432 46.364 35.3728C46.361 35.352 46.3353 35.3534 46.3269 35.3386C46.2959 35.283 46.3809 35.3091 46.3943 35.2938C46.4514 35.2283 46.259 35.2227 46.2637 35.1455C46.2639 35.1414 46.3665 35.0914 46.3729 35.0845C46.4145 35.0407 46.3372 35.0772 46.3296 35.0498C46.3158 34.9998 46.2913 34.9651 46.3213 34.9064C46.3302 34.8893 46.3941 34.8483 46.3447 34.815C46.3382 34.8107 46.3043 34.8131 46.3023 34.8096C46.2692 34.7459 46.3757 34.7442 46.4118 34.7078C46.4479 34.6714 46.3744 34.6152 46.3532 34.6038C46.2983 34.5739 46.3297 34.6267 46.3244 34.6283C46.2603 34.6474 46.2714 34.6064 46.2659 34.5751C46.1615 34.5705 46.1678 34.5267 46.2608 34.5426C46.2709 34.5444 46.2612 34.5688 46.2659 34.5751C46.3684 34.5476 46.3815 34.4994 46.2858 34.4462C46.2409 34.4214 46.1886 34.4449 46.2077 34.3693C46.2164 34.335 46.2883 34.3482 46.3079 34.3179C46.3526 34.2488 46.2855 34.1589 46.2961 34.0875C46.2999 34.0616 46.3393 34.0869 46.3433 34.0692C46.354 34.0222 46.3244 33.9808 46.3396 33.9337C46.341 33.9294 46.3822 33.9398 46.3827 33.9252C46.3875 33.814 46.3611 33.7172 46.3604 33.6012C46.36 33.5451 46.3828 33.4448 46.3782 33.3867C46.3705 33.2861 46.3106 33.1622 46.3252 33.0762C46.3345 33.0201 46.3757 33.0324 46.4038 33.0084C46.4582 32.962 46.3607 32.8799 46.3456 32.8688C46.3451 32.8685 46.3354 32.9168 46.3142 32.891C46.2701 32.876 46.3454 32.8694 46.3456 32.8688C46.3358 32.8616 46.3265 32.7651 46.3344 32.746C46.3387 32.7356 46.3777 32.7414 46.3792 32.736C46.4142 32.607 46.4241 32.4779 46.4058 32.3471C46.4051 32.3448 46.3614 32.3483 46.3601 32.3428C46.3406 32.2671 46.3941 32.2187 46.4258 32.1562C46.4575 32.0938 46.4469 32.0443 46.3719 32.0073C46.3813 31.9602 46.3482 31.8926 46.3281 31.8537C46.308 31.8148 46.393 31.8094 46.3947 31.806C46.4485 31.6993 46.3998 31.6376 46.3922 31.5268C46.3885 31.4742 46.4008 31.3698 46.4101 31.3128C46.4176 31.2677 46.3977 31.2406 46.4104 31.1991C46.4121 31.1935 46.45 31.1991 46.4514 31.1974C46.4967 31.1511 46.4042 31.1734 46.3877 31.1638C46.3275 31.1291 46.2955 31.1077 46.3238 31.0484C46.3303 31.0347 46.4635 30.9948 46.4713 30.9699C46.4812 30.9375 46.4335 30.9497 46.445 30.9158C46.446 30.9129 46.4754 30.9135 46.4741 30.8925C46.4685 30.7952 46.4513 30.6892 46.4543 30.5881C46.4546 30.5743 46.5013 30.592 46.5025 30.572C46.5081 30.4784 46.5063 30.3758 46.4845 30.2846C46.4789 30.2621 46.4462 30.2762 46.4365 30.2713C46.3777 30.2414 46.4631 30.199 46.4647 30.192C46.5058 30.025 46.4285 29.8972 46.4653 29.727C46.4674 29.7177 46.559 29.6464 46.4805 29.6146C46.4753 29.6124 46.3949 29.5809 46.4498 29.5531C46.4533 29.5514 46.4946 29.571 46.4904 29.5368C46.4862 29.5025 46.5139 29.4474 46.4684 29.4004C46.4541 29.3855 46.3739 29.3503 46.4378 29.3059C46.4423 29.303 46.5868 29.2344 46.4871 29.2099C46.4707 29.2059 46.3652 29.2101 46.4193 29.157C46.4298 29.1469 46.4533 29.1653 46.468 29.1386C46.4906 29.0977 46.4624 29.0435 46.5094 28.9932C46.5177 28.9844 46.5893 28.9471 46.5349 28.9172C46.5264 28.9125 46.4912 28.9214 46.4873 28.9056C46.4684 28.8304 46.4919 28.7517 46.4675 28.6753C46.459 28.6483 46.4021 28.6621 46.3868 28.6339C46.3715 28.6057 46.3569 28.5489 46.3829 28.5194C46.4089 28.4899 46.4997 28.5222 46.5069 28.478C46.5384 28.2858 46.4852 28.0955 46.4774 27.9036C46.4763 27.8752 46.5087 27.8987 46.5094 27.8568C46.5118 27.7022 46.5422 27.4353 46.4732 27.3011C46.418 27.1936 46.3759 27.3289 46.3534 27.2467C46.3427 27.2071 46.4482 27.1642 46.4515 27.1546C46.4852 27.0612 46.4385 26.9962 46.4528 26.9121C46.4558 26.8947 46.4986 26.9117 46.5006 26.8969C46.508 26.8464 46.489 26.7934 46.4924 26.7451C46.4941 26.7234 46.5268 26.7274 46.5242 26.7075C46.5186 26.6598 46.5049 26.6177 46.4743 26.5712C46.4715 26.567 46.4308 26.5955 46.4293 26.5603C46.427 26.5032 46.3968 26.4323 46.428 26.3666C46.4374 26.3472 46.512 26.3464 46.4605 26.3045C46.4497 26.2957 46.3601 26.3069 46.4375 26.2581C46.4504 26.2499 46.5548 26.168 46.4875 26.1277C46.4698 26.1171 46.3965 26.09 46.408 26.0666C46.4098 26.0634 46.4499 26.0762 46.4538 26.0567C46.4669 25.9883 46.4626 25.9166 46.4752 25.8463C46.4786 25.8275 46.5201 25.8555 46.5239 25.8275C46.5344 25.7505 46.5238 25.6545 46.5108 25.5792C46.506 25.5515 46.4716 25.5707 46.4679 25.5686C46.407 25.5362 46.4891 25.517 46.4939 25.5062C46.5226 25.4392 46.484 25.3882 46.4942 25.3264C46.4969 25.3094 46.5361 25.3215 46.5396 25.3181C46.5737 25.2829 46.5034 25.3091 46.4956 25.2868C46.4737 25.2244 46.4768 25.1549 46.4818 25.0918C46.4837 25.0686 46.5291 25.0946 46.5303 25.0738C46.5381 24.9507 46.5338 24.8227 46.5087 24.7026C46.5039 24.68 46.469 24.6942 46.461 24.6895C46.4052 24.657 46.4813 24.6094 46.4886 24.5984C46.5217 24.5486 46.4908 24.5292 46.4966 24.4852C46.5253 24.2703 46.5049 24.0048 46.4922 23.8019C46.4759 23.5375 46.4427 23.3323 46.4513 23.0802C46.4518 23.0641 46.4983 23.0803 46.4993 23.0665C46.5106 22.8881 46.4924 22.7125 46.5058 22.5338C46.5068 22.5191 46.5509 22.5403 46.554 22.5168C46.5607 22.4685 46.5583 22.4073 46.5443 22.3585C46.5375 22.3347 46.4997 22.3666 46.4936 22.3426C46.4794 22.2868 46.4763 22.227 46.4834 22.1697C46.4865 22.1453 46.5315 22.1821 46.5321 22.1504C46.5365 21.9344 46.5443 21.7223 46.4859 21.504C46.4819 21.4891 46.3903 21.4759 46.4079 21.4441C46.4333 21.4417 46.4632 21.4419 46.4904 21.4408C46.505 21.1264 46.4732 20.8152 46.4683 20.4999C46.4681 20.4866 46.5167 20.5096 46.5166 20.4838C46.5158 20.3349 46.5293 20.1902 46.481 20.0379C46.4763 20.0227 46.3909 20.0305 46.4038 19.9859C46.4062 19.9781 46.4176 19.911 46.4361 19.8936C46.4389 19.8913 46.4788 19.9035 46.4799 19.8819C46.486 19.7562 46.4769 19.6246 46.4525 19.4991C46.4485 19.4789 46.4061 19.5004 46.4028 19.486C46.3803 19.3837 46.4126 19.2725 46.374 19.1748C46.3481 19.1093 46.2747 19.1336 46.2025 19.0988C46.1923 19.0939 46.1907 19.0534 46.1486 19.0513C46.043 19.0459 45.9272 19.0655 45.8146 19.0575C45.7903 19.0558 45.8165 19.0015 45.7578 19.0336C45.7539 19.0359 45.7344 19.0752 45.7146 19.0849C45.7008 19.0916 45.6581 19.0795 45.6405 19.0933C45.6229 19.107 45.6587 19.1221 45.638 19.145C45.6171 19.1678 45.5685 19.1577 45.5627 19.2033ZM46.2382 31.6786C46.1973 31.6426 46.3469 31.6373 46.3111 31.6762C46.3092 31.6781 46.2402 31.6805 46.2382 31.6786ZM46.2146 36.0356C46.1486 35.9885 46.2456 35.9563 46.2965 35.9895C46.3474 36.0227 46.2346 36.0499 46.2146 36.0356ZM46.1664 36.5237C46.1144 36.4687 46.3265 36.46 46.2836 36.519C46.2812 36.5224 46.1694 36.5269 46.1664 36.5237ZM46.1819 19.26C46.1799 19.2595 46.178 19.2304 46.1799 19.2297C46.2274 19.2142 46.2313 19.2724 46.1819 19.26ZM46.114 37.0082C46.0853 36.991 46.1184 36.9415 46.1541 36.9629C46.1828 36.9801 46.1497 37.0296 46.114 37.0082ZM46.0786 29.8001C46.0763 29.7996 46.0743 29.7787 46.0869 29.7791C46.1275 29.7805 46.1161 29.8096 46.0786 29.8001ZM46.1115 37.8315C46.1035 37.7099 45.9284 37.6361 45.9481 37.7686C45.9517 37.7926 46.004 37.7169 46.0198 37.7474C46.0486 37.8033 45.9386 37.8404 45.9975 37.8974C46.0083 37.9077 46.1124 37.8384 46.1118 37.8313C46.1117 37.8314 46.1116 37.8314 46.1115 37.8315ZM46.0586 31.6579C46.0566 31.6572 46.0547 31.6283 46.0567 31.6276C46.1041 31.6119 46.1079 31.6701 46.0586 31.6579ZM45.9861 28.5819C45.9819 28.5803 45.9779 28.5133 45.9818 28.5111C46.0595 28.4761 46.0677 28.6117 45.9861 28.5819ZM45.9491 33.6043C45.9014 33.6358 45.8957 33.6735 45.9557 33.6986C45.9525 33.6673 45.9521 33.6358 45.9491 33.6043Z" fill="#16181B"/>
<path d="M52.5343 24.7999C52.4735 24.7207 52.3719 24.6388 52.2886 24.5825C52.2626 24.5649 52.2549 24.5947 52.2361 24.5833C52.1993 24.5611 52.181 24.5244 52.1432 24.504C52.1305 24.4973 52.1129 24.539 52.1003 24.5313C52.0317 24.4889 51.9867 24.4288 51.9241 24.3789C51.616 24.133 51.3325 23.8718 51.0385 23.6049C50.9416 23.5168 50.8023 23.4314 50.7186 23.3241C50.7088 23.3115 50.7415 23.2921 50.7415 23.2879C50.7412 23.2217 50.6996 23.2854 50.6709 23.2706C50.5571 23.212 50.4588 23.1185 50.3859 23.0255C50.3549 22.9859 50.4421 22.9695 50.3775 22.963C50.3731 22.9625 50.3544 22.9991 50.3417 22.9924C50.3131 22.9771 50.2764 22.9305 50.2572 22.9157C50.2201 22.8872 50.2149 22.8815 50.1836 22.8508C50.1405 22.8091 50.0763 22.7724 50.0371 22.7207C50.0288 22.7095 50.07 22.694 50.0594 22.6737C50.0487 22.6534 50.0053 22.6148 49.9848 22.6076C49.9643 22.6005 49.9478 22.6287 49.9403 22.6314C49.877 22.6544 49.8893 22.5472 49.8847 22.5396C49.7986 22.4032 49.6692 22.3418 49.5648 22.2372C49.4857 22.1578 49.4121 22.0618 49.3351 21.9879C49.2433 21.8999 49.1517 21.8391 49.067 21.7491C49.0581 21.7397 49.1022 21.7171 49.0913 21.7055C48.9756 21.582 48.8532 21.4669 48.7117 21.3703C48.6974 21.3607 48.6835 21.4054 48.6676 21.3975C48.5705 21.3485 48.3971 21.2907 48.4812 21.1199C48.4267 21.0754 48.3615 21.0204 48.2916 21.0019C48.2465 20.9899 48.2423 21.0495 48.2208 21.0008C48.216 20.9899 48.2542 20.9722 48.2448 20.9579C48.2051 20.8978 48.1414 20.8523 48.1065 20.7885C48.0994 20.7754 48.1272 20.7532 48.1289 20.7458C48.1415 20.6854 48.0413 20.7059 48.0282 20.7016C47.9294 20.6682 47.894 20.607 47.8316 20.5463C47.8171 20.5322 47.8677 20.5154 47.8549 20.5007C47.7884 20.4245 47.7117 20.3535 47.6269 20.2986C47.608 20.2865 47.5936 20.3294 47.5831 20.3251C47.5371 20.3056 47.5839 20.2443 47.5408 20.2246C47.5318 20.2204 47.511 20.2486 47.5071 20.2501C47.446 20.2735 47.4895 20.1972 47.4859 20.191C47.4425 20.1114 47.3407 20.1347 47.2902 20.0664C47.2842 20.0582 47.3312 20.0432 47.3125 20.022C47.188 19.8804 47.0388 19.7482 46.8823 19.6413C46.858 19.6246 46.8493 19.6626 46.8452 19.6641C46.7793 19.688 46.8258 19.6143 46.8214 19.6054C46.7851 19.5364 46.6854 19.5376 46.7213 19.4302C46.5223 19.2712 46.366 19.0709 46.1645 18.9168L46.0699 18.8109L45.9513 18.9168C45.9133 18.9664 45.8782 19.0188 45.8472 19.0752C45.8451 19.0787 45.8798 19.1033 45.8755 19.1103C45.8246 19.1945 45.7915 19.1355 45.6905 19.1239C45.6651 19.121 45.6988 19.2232 45.7008 19.2312C45.7081 19.2606 45.7636 19.2933 45.7635 19.3005C45.7608 19.359 45.62 19.2083 45.5787 19.2495C45.5777 19.2511 45.6099 19.2725 45.6091 19.2786C45.6067 19.2977 45.5854 19.2978 45.5841 19.3175C45.5813 19.363 45.6436 19.4424 45.5655 19.438C45.5555 19.4373 45.48 19.3475 45.447 19.3883C45.4339 19.4046 45.3675 19.4683 45.3546 19.4918C45.3418 19.5154 45.3809 19.5295 45.3808 19.532C45.3669 19.6163 45.4001 19.6123 45.4277 19.689C45.4551 19.7655 45.338 19.6348 45.3141 19.631C45.2903 19.6272 45.2834 19.6923 45.2847 19.7112C45.2859 19.7302 45.3139 19.7361 45.3117 19.7496C45.297 19.8391 45.2274 19.711 45.1905 19.7085C45.1035 19.7024 45.1639 19.8258 45.1359 19.8718C45.1283 19.8843 45.1155 19.8552 45.1046 19.8621C45.0618 19.89 45.0692 19.94 45.0027 19.9539C44.9919 19.9562 44.9041 19.9334 44.9236 19.995C44.9265 20.0038 44.9578 20.0183 44.9479 20.0385C44.9331 20.0687 44.8976 20.1142 44.8657 20.1308C44.8422 20.143 44.8249 20.0848 44.8142 20.119C44.8094 20.1342 44.85 20.1377 44.8392 20.1645C44.8285 20.1912 44.7798 20.2379 44.7609 20.2553C44.742 20.2727 44.7233 20.2341 44.7199 20.2337C44.7 20.2315 44.6514 20.2525 44.6483 20.2556C44.4897 20.4072 44.3949 20.5985 44.2279 20.7336C44.2149 20.7442 44.1926 20.7061 44.1903 20.7075C44.1371 20.7354 44.2493 20.7836 44.2478 20.8389C44.1907 20.7735 44.185 20.8013 44.1497 20.8232C44.1327 20.8337 44.1164 20.8025 44.1128 20.8013C44.0563 20.7857 44.0886 20.8464 44.0945 20.8596C44.116 20.9082 44.0599 20.8815 44.0741 20.9141C44.0881 20.9465 44.1437 20.9598 44.1159 20.9868C44.0862 20.9725 44.0493 20.8949 44.0192 20.9064C43.9055 20.9498 43.8039 21.1413 43.7455 21.2091C43.6871 21.2768 43.6627 21.2931 43.6339 21.3378C43.582 21.4184 43.5637 21.3516 43.5031 21.3733C43.4423 21.3951 43.567 21.4797 43.5836 21.5081C43.6002 21.5364 43.5707 21.5196 43.5758 21.5392C43.581 21.5588 43.6119 21.5585 43.5995 21.5801C43.5872 21.6017 43.5007 21.6082 43.4712 21.5908C43.4086 21.5537 43.3773 21.4804 43.3506 21.5438C43.3491 21.5475 43.385 21.5666 43.3779 21.5793C43.3204 21.6792 43.24 21.7622 43.1801 21.8596C43.1719 21.873 43.2122 21.8939 43.2077 21.9021C43.1618 21.9872 43.1336 21.9121 43.0404 21.8907C43.1247 21.9589 43.1515 22.0255 43.1023 22.0756C43.0727 22.1058 43.0445 22.0674 43.0017 22.0632C42.9888 22.0619 42.9905 22.106 42.9711 22.0941C42.9072 22.0556 42.8698 21.9783 42.8414 22.0524C42.8402 22.0557 42.8754 22.0766 42.8693 22.0861C42.8302 22.1474 42.7706 22.0999 42.7098 22.1477C42.6622 22.1851 42.6191 22.2935 42.576 22.3473C42.6628 22.432 42.5974 22.4582 42.5197 22.4176C42.4906 22.4515 42.4533 22.4821 42.4311 22.5207C42.4234 22.5339 42.4551 22.5519 42.4565 22.5559C42.4783 22.6182 42.4071 22.5743 42.3981 22.5789C42.3026 22.6305 42.2862 22.7341 42.1734 22.7617C42.1694 22.7626 42.1058 22.7071 42.1305 22.7694C42.1323 22.7736 42.1826 22.7775 42.1516 22.8126C42.1207 22.8478 42.0904 22.942 42.0169 22.9602C41.9991 22.9647 41.9227 22.9444 41.938 23.0047C41.9401 23.0129 41.9605 23.0267 41.9656 23.0405C41.9819 23.0848 41.9141 23.0322 41.9488 23.0999C41.9834 23.1675 41.9875 23.24 41.906 23.251C41.9035 23.2514 41.8448 23.2147 41.831 23.23C41.809 23.2544 41.786 23.2973 41.7614 23.3213C41.7497 23.3327 41.7275 23.2956 41.7249 23.2971C41.6302 23.3586 41.6011 23.4405 41.5289 23.5356C41.5158 23.5531 41.4313 23.5568 41.4336 23.6184C41.436 23.6859 41.6149 23.7979 41.5054 23.8382C41.4613 23.8545 41.2385 23.7082 41.2798 23.8581C41.1509 23.9397 41.1024 24.086 40.963 24.1578C40.9568 24.161 40.8902 24.1245 40.8798 24.1364C40.8643 24.1541 40.8793 24.1873 40.8691 24.2007C40.8268 24.2575 40.7608 24.2823 40.7162 24.3333C40.6992 24.3526 40.7304 24.3711 40.7102 24.3942C40.6899 24.4172 40.6427 24.3988 40.6292 24.444C40.6192 24.4782 40.664 24.5673 40.6424 24.6045C40.5752 24.5396 40.5564 24.5611 40.5031 24.5795C40.4928 24.583 40.4772 24.5526 40.4712 24.5531C40.446 24.5545 40.4528 24.5859 40.4273 24.5856C40.4211 24.5856 40.3984 24.5631 40.3921 24.5618C40.3375 24.5499 40.3532 24.6358 40.356 24.6507C40.3664 24.7074 40.3263 24.6888 40.3218 24.7198C40.3173 24.7507 40.3603 24.7407 40.3476 24.7694C40.3214 24.8289 40.2626 24.8803 40.2201 24.9249C40.2031 24.9425 40.1848 24.9005 40.1816 24.9024C40.1381 24.9306 40.1338 24.999 40.0539 24.9589C40.1841 25.139 40.0172 24.9655 39.9969 25.0479C39.9954 25.0545 40.0636 25.133 40.0899 25.1283C40.1162 25.1235 40.1168 25.077 40.1551 25.0723C40.1642 25.0711 40.2621 25.1106 40.2703 25.1108C40.3341 25.1121 40.2288 24.9981 40.2245 24.9904C40.1782 24.9067 40.288 24.945 40.3025 24.9407C40.369 24.9212 40.3901 24.8692 40.4428 24.85C40.4772 24.8372 40.5513 24.9068 40.5676 24.8861C40.6218 24.8174 40.543 24.6958 40.6878 24.7248C40.7187 24.7309 40.7849 24.8217 40.7676 24.7155C40.7665 24.7088 40.7431 24.6193 40.7979 24.636C40.8048 24.6381 40.8276 24.661 40.8327 24.6598C40.8663 24.6511 40.8622 24.6187 40.894 24.6044C40.9258 24.59 40.9665 24.5753 40.9851 24.5412C40.9963 24.5207 40.9741 24.4577 40.9712 24.4397C40.9626 24.3881 41.0349 24.4144 41.0118 24.3647C40.9886 24.3147 40.9068 24.2854 40.9183 24.2266C40.9791 24.2847 41.0431 24.3428 41.105 24.4004C41.1799 24.3213 41.2365 24.2263 41.3164 24.1517C41.3263 24.1425 41.3485 24.1842 41.36 24.1752C41.4084 24.1369 41.4235 24.0763 41.4775 24.0404C41.5194 24.0128 41.5914 24.0085 41.6363 23.9806C41.5905 23.8904 41.6676 23.8595 41.7006 23.8141C41.7122 23.7982 41.6931 23.7809 41.6969 23.7652C41.7118 23.7065 41.7547 23.7838 41.7742 23.7832C41.858 23.7802 41.7256 23.6405 41.7801 23.5927C41.7829 23.5902 41.8885 23.6296 41.8976 23.6295C41.956 23.63 41.8772 23.5995 41.8899 23.576C41.9132 23.5331 41.9189 23.4928 41.979 23.4752C41.9966 23.4702 42.0689 23.4883 42.056 23.4313C42.0543 23.4238 42.0287 23.4015 42.0296 23.3977C42.0484 23.3322 42.1248 23.4064 42.1744 23.4078C42.224 23.4092 42.2092 23.3201 42.2018 23.2975C42.1828 23.2389 42.17 23.2961 42.1651 23.2934C42.1073 23.2607 42.1422 23.2414 42.1591 23.2168C42.0883 23.14 42.1217 23.1154 42.1769 23.1917C42.1829 23.2 42.1599 23.2093 42.1591 23.2168C42.2498 23.2711 42.2909 23.2485 42.2584 23.1456C42.2431 23.0974 42.1905 23.076 42.2541 23.0395C42.2829 23.0229 42.325 23.0825 42.3589 23.0763C42.4363 23.0622 42.4484 22.9552 42.5031 22.9155C42.5229 22.9011 42.534 22.9456 42.5486 22.9367C42.5872 22.9132 42.5937 22.8649 42.6356 22.8444C42.6394 22.8426 42.6617 22.8786 42.6717 22.8693C42.7487 22.7991 42.7941 22.7164 42.8704 22.6391C42.9072 22.6017 42.9897 22.5515 43.0249 22.5098C43.0861 22.4377 43.1257 22.3134 43.1929 22.2668C43.2366 22.2362 43.2576 22.2735 43.2933 22.2775C43.3625 22.2853 43.3479 22.162 43.3446 22.144C43.3444 22.1434 43.3056 22.1685 43.3077 22.1365C43.2864 22.0954 43.3441 22.1442 43.3446 22.144C43.3425 22.1323 43.3997 22.0619 43.4179 22.0548C43.4278 22.0509 43.4516 22.0824 43.4562 22.0799C43.5663 22.0193 43.6588 21.9408 43.7324 21.8413C43.7334 21.8393 43.7002 21.8107 43.7029 21.8062C43.7392 21.7423 43.8091 21.748 43.8728 21.7291C43.9366 21.7102 43.9618 21.67 43.9333 21.5925C43.9711 21.568 43.9924 21.4998 44.0039 21.4599C44.0154 21.4199 44.0791 21.4764 44.0826 21.4754C44.1913 21.4428 44.1977 21.3675 44.2656 21.2889C44.2978 21.2514 44.3756 21.191 44.4199 21.1599C44.455 21.1354 44.4589 21.1033 44.4954 21.0849C44.5003 21.0824 44.5233 21.1129 44.5255 21.1128C44.5881 21.1141 44.508 21.0634 44.5026 21.0454C44.4831 20.98 44.4746 20.9432 44.5338 20.9239C44.5475 20.9194 44.6681 20.9873 44.6901 20.9763C44.7186 20.9618 44.6767 20.9361 44.7073 20.9218C44.7099 20.9206 44.7304 20.9418 44.7433 20.927C44.8037 20.8587 44.8618 20.7764 44.9307 20.7116C44.9401 20.7026 44.9614 20.7474 44.9755 20.735C45.0413 20.677 45.108 20.6079 45.1529 20.532C45.1638 20.5133 45.1314 20.4994 45.1277 20.4893C45.106 20.428 45.1945 20.4603 45.2002 20.4568C45.3398 20.3753 45.3697 20.2361 45.5083 20.1495C45.516 20.1449 45.6279 20.1625 45.5935 20.0859C45.5912 20.0807 45.5552 20.0031 45.6125 20.0235C45.6161 20.0248 45.6323 20.067 45.652 20.0414C45.6717 20.0158 45.7277 19.9988 45.7267 19.9356C45.7264 19.9156 45.693 19.8356 45.7676 19.8514C45.7727 19.8526 45.9202 19.9094 45.866 19.8227C45.857 19.8085 45.7796 19.7366 45.853 19.7398C45.8671 19.7405 45.8716 19.7693 45.8996 19.762C45.9427 19.751 45.9586 19.6951 46.0251 19.6951C46.0368 19.6951 46.1121 19.7211 46.0935 19.6628C46.0906 19.6537 46.0598 19.6347 46.0675 19.6215C46.1038 19.5583 46.1726 19.5229 46.2059 19.4551C46.2177 19.4312 46.1683 19.4001 46.1762 19.3706C46.1841 19.3412 46.2113 19.2932 46.2492 19.2921C46.2871 19.291 46.3299 19.3765 46.3643 19.3524C46.3687 19.3493 46.3731 19.3461 46.3774 19.3429H45.7384C45.8434 19.4846 46.0013 19.5712 46.1299 19.6891C46.1495 19.7071 46.111 19.7145 46.1383 19.7426C46.2389 19.8467 46.394 20.0449 46.5316 20.0849C46.6418 20.1169 46.582 19.9976 46.6523 20.0361C46.6861 20.0548 46.6399 20.1577 46.6439 20.1664C46.6819 20.2521 46.7579 20.2621 46.8034 20.3279C46.8128 20.3415 46.7713 20.3604 46.7796 20.3717C46.8078 20.4103 46.8565 20.432 46.8859 20.4664C46.8991 20.4819 46.8733 20.5023 46.8883 20.5137C46.9239 20.5413 46.9615 20.5595 47.0139 20.5686C47.0186 20.5694 47.0285 20.5218 47.0529 20.5441C47.0923 20.5802 47.1605 20.6057 47.1819 20.6713C47.1882 20.6908 47.1359 20.7441 47.2001 20.7353C47.2135 20.7335 47.2695 20.6628 47.247 20.7498C47.2433 20.7643 47.2237 20.8924 47.298 20.8714C47.3175 20.8659 47.3873 20.832 47.3946 20.8556C47.3954 20.8591 47.3587 20.879 47.3688 20.8946C47.4048 20.9491 47.4553 20.9936 47.4929 21.049C47.5029 21.0638 47.4551 21.0747 47.4709 21.0958C47.5144 21.1542 47.5855 21.2103 47.6445 21.2509C47.6663 21.2658 47.6779 21.2288 47.6818 21.2275C47.7463 21.206 47.701 21.2768 47.7047 21.2873C47.7288 21.3519 47.7898 21.3584 47.8235 21.4065C47.8329 21.4197 47.7972 21.4393 47.797 21.4441C47.7961 21.4915 47.8285 21.4244 47.8487 21.4337C47.9055 21.4594 47.9493 21.5077 47.9875 21.553C48.0015 21.5697 47.9522 21.5845 47.9651 21.5991C48.0411 21.6861 48.1288 21.7677 48.226 21.8296C48.2444 21.8411 48.2597 21.807 48.2685 21.8045C48.3295 21.7865 48.3071 21.8719 48.3092 21.8843C48.3188 21.9407 48.3534 21.9316 48.3785 21.9648C48.5004 22.1274 48.6906 22.2886 48.8338 22.4139C49.0203 22.5774 49.1796 22.6896 49.3403 22.8626C49.3506 22.8736 49.307 22.8958 49.3154 22.9056C49.4255 23.0316 49.5546 23.1349 49.6633 23.2627C49.6723 23.2731 49.6272 23.2903 49.6405 23.3081C49.6677 23.3448 49.7099 23.3836 49.7522 23.4059C49.7727 23.4169 49.7783 23.369 49.7985 23.3806C49.8454 23.4075 49.8872 23.4449 49.9202 23.4878C49.9341 23.5061 49.8779 23.5136 49.8985 23.535C50.0383 23.6811 50.1732 23.827 50.3589 23.9301C50.3716 23.9372 50.4451 23.8811 50.4537 23.9146C50.4373 23.9341 50.4161 23.9552 50.3976 23.9751C50.5953 24.1935 50.8237 24.377 51.0358 24.5822C51.0448 24.5908 50.9952 24.61 51.0123 24.6269C51.1114 24.725 51.1976 24.8302 51.3326 24.8969C51.3459 24.9036 51.4012 24.8381 51.4216 24.8767C51.4251 24.8836 51.4614 24.936 51.4598 24.9606C51.4594 24.9641 51.4231 24.9842 51.4366 24.9994C51.5155 25.0868 51.609 25.1675 51.7093 25.2333C51.7255 25.2438 51.7412 25.1996 51.7531 25.2068C51.8367 25.2586 51.8875 25.355 51.9794 25.3924C52.0411 25.4174 52.0769 25.3495 52.151 25.3214C52.1615 25.3174 52.1894 25.3431 52.2205 25.3148C52.2988 25.2436 52.3677 25.1488 52.4526 25.0745C52.4709 25.0584 52.4883 25.1128 52.5085 25.0501C52.5098 25.0458 52.4976 25.0061 52.5052 24.9856C52.5105 24.9714 52.5487 24.9492 52.5521 24.9277C52.5554 24.9061 52.5201 24.9214 52.5196 24.8917C52.5193 24.8618 52.5603 24.8341 52.5343 24.7999ZM44.0562 21.2804C44.0512 21.2277 44.1605 21.3299 44.1094 21.3304C44.1068 21.3303 44.0564 21.2831 44.0562 21.2804ZM41.1563 24.147C41.1408 24.0692 41.2307 24.1164 41.2447 24.1744C41.2587 24.2324 41.1609 24.1706 41.1563 24.147ZM40.7992 24.436C40.7988 24.3628 40.9545 24.507 40.8852 24.5157C40.8812 24.5163 40.7992 24.4403 40.7992 24.436ZM52.0589 25.2002C52.0606 25.1991 52.0812 25.217 52.0803 25.2188C52.057 25.2627 52.0157 25.2269 52.0589 25.2002ZM40.4415 24.7195C40.4326 24.6878 40.4887 24.6785 40.4998 24.7179C40.5087 24.7495 40.4526 24.7589 40.4415 24.7195ZM45.1865 19.9245C45.1853 19.9225 45.1977 19.9073 45.2063 19.9165C45.2341 19.9461 45.2067 19.9572 45.1865 19.9245ZM39.8949 25.2626C39.9698 25.1765 39.8947 25.0038 39.821 25.1054C39.8077 25.1239 39.8947 25.1107 39.8857 25.1421C39.8691 25.1994 39.7667 25.1462 39.7707 25.2256C39.7715 25.2401 39.8909 25.2678 39.8952 25.2627C39.8951 25.2626 39.895 25.2626 39.8949 25.2626ZM43.9429 21.1397C43.942 21.1378 43.9598 21.1174 43.9617 21.1183C44.0056 21.1415 43.9698 21.1827 43.9429 21.1397ZM45.9273 19.0529C45.9253 19.0489 45.9669 19.0017 45.9711 19.003C46.0492 19.0347 45.9652 19.1303 45.9273 19.0529ZM42.5775 22.3503C42.5229 22.3374 42.4939 22.3584 42.5197 22.4175C42.5382 22.3945 42.5587 22.3733 42.5775 22.3503Z" fill="#16181B"/>
</svg>
