<svg width="56" height="56" viewBox="0 0 56 56" fill="none" xmlns="http://www.w3.org/2000/svg">
<path d="M17.0113 13.5484C17.3261 13.3962 17.7556 13.2345 18.0869 13.1274C18.1908 13.0937 18.1488 13.1383 18.2208 13.1164C18.3617 13.0737 18.4856 13.0137 18.6262 12.9756C18.6728 12.9631 18.6309 13.023 18.6794 13.0091C18.9452 12.9326 19.1882 12.8374 19.4565 12.7586C20.7774 12.3717 22.0946 12.0625 23.4677 11.8515C23.9205 11.7815 24.4764 11.7421 24.9439 11.6737C24.9985 11.6657 24.9618 11.6327 24.9719 11.6285C25.1306 11.5644 25.0842 11.6443 25.1921 11.643C25.6203 11.6381 26.0921 11.605 26.501 11.5688C26.6748 11.5535 26.4964 11.4894 26.6741 11.5217C26.6864 11.5238 26.644 11.5651 26.692 11.5669C26.8009 11.571 27.006 11.5559 27.0902 11.5565C27.2525 11.5575 27.2791 11.5565 27.4322 11.5536C27.6066 11.5507 27.8077 11.5621 28 11.5616C28.039 11.5615 28.0776 11.5609 28.1155 11.5595C28.1635 11.5577 28.1002 11.5173 28.1768 11.5109C28.2535 11.5044 28.4562 11.5104 28.5244 11.5213C28.5926 11.5321 28.5629 11.5631 28.5748 11.5706C28.6726 11.6333 28.9087 11.5558 28.9391 11.5549C29.4902 11.5385 29.9587 11.6166 30.4721 11.6623C30.8621 11.6971 31.2799 11.7283 31.6494 11.7803C32.0893 11.8424 32.4575 11.9228 32.8823 11.9957C32.9272 12.0035 32.8831 11.9475 32.938 11.957C33.5208 12.0582 34.0948 12.1882 34.6576 12.3625C34.7141 12.3801 34.6302 12.4017 34.6859 12.4216C35.0279 12.5417 35.5508 12.7743 35.8072 12.6641C36.0396 12.7406 36.3206 12.8369 36.5167 12.9401C36.643 13.0066 36.4991 13.0061 36.6689 13.0427C36.7071 13.0511 36.6718 12.9975 36.7283 13.0129C36.9664 13.0783 37.2157 13.1804 37.4513 13.246C37.4993 13.2593 37.499 13.2214 37.5144 13.2204C37.6436 13.2132 37.7972 13.3635 37.8348 13.3849C38.1221 13.5463 38.3489 13.6192 38.6284 13.7389C38.6932 13.7668 38.6351 13.6903 38.6982 13.7157C38.9392 13.8132 39.1828 13.9226 39.4153 14.0404C39.5401 14.0956 39.5802 14.2322 39.514 14.3514C39.4651 14.4294 39.4157 14.5063 39.366 14.5813C39.3237 14.6449 39.3237 14.564 39.3017 14.5933C39.2052 14.7228 39.2537 14.7919 39.1625 14.9168C39.1433 14.9432 39.1224 14.9101 39.1162 14.9133C39.0181 14.9636 39.0512 15.0756 39.0409 15.0972C38.9124 15.3709 38.7396 15.4934 38.6049 15.7517C38.5888 15.7827 38.6661 15.7366 38.6187 15.8223C38.3032 16.393 37.9479 16.9842 37.5948 17.5256C37.54 17.6098 37.5473 17.5313 37.5406 17.5347C37.4341 17.5921 37.4745 17.6923 37.4609 17.7223C37.3518 17.9573 37.1695 18.1305 37.1695 18.3331C36.5925 19.2622 36.0976 20.2331 35.4769 21.1266C35.4691 21.1381 35.4452 21.0957 35.4298 21.1186C35.2438 21.3936 35.332 21.3711 35.2914 21.6007C35.2811 21.6585 35.1139 21.7558 35.1004 21.7651C35.0508 21.799 35.0249 21.7192 35.0115 21.7324C34.9023 21.8426 35.0931 21.9245 34.9919 22.0997C34.9885 22.105 34.9689 22.063 34.9572 22.0759C34.9205 22.1156 34.9074 22.1685 34.8703 22.2066C34.7851 22.2939 34.6773 22.2802 34.6375 22.4657C34.6326 22.4892 34.7513 22.5175 34.6562 22.6712C34.6182 22.7324 34.4606 23.0095 34.4094 23.083C34.3582 23.1565 34.3562 23.0846 34.3516 23.0893C34.1882 23.2726 34.2159 23.1834 34.0918 23.2508C33.968 23.3184 34.1364 23.3771 34.1288 23.4294C34.1211 23.4817 33.9974 23.6138 33.9634 23.6442C33.9293 23.6746 33.9356 23.6158 33.9093 23.6451C33.7359 23.8398 33.9287 23.7856 33.9107 23.8724C33.8686 24.0771 33.6788 24.1458 33.577 24.2967C33.5495 24.3375 33.5951 24.3176 33.5757 24.3569C33.4982 24.5122 33.411 24.5821 33.3446 24.7714C33.3338 24.8024 33.3218 24.9794 33.2205 25.0401C33.2061 25.0486 33.1988 24.9965 33.1556 25.0568C33.091 25.1468 32.9855 25.3154 32.9356 25.4235C32.8988 25.5033 32.9951 25.4431 32.9257 25.5302C32.8948 25.5689 32.9131 25.4747 32.8574 25.5487C32.8018 25.6223 32.686 25.8257 32.6424 25.9033C32.599 25.9808 32.6583 25.9589 32.6571 25.9665C32.6489 26.012 32.5805 26.1694 32.573 26.1825C32.3414 26.5897 32.0969 26.9636 31.8614 27.3432C31.8417 27.3787 31.7946 27.3956 31.7558 27.3835C31.4964 27.2888 31.2318 27.2067 30.9563 27.1457C30.8999 27.1333 30.9268 27.1841 30.9181 27.1826C30.7227 27.1528 30.9008 27.0795 30.7747 27.0102C30.7743 27.0993 30.6986 27.0646 30.5605 27.0442C30.494 27.0346 30.5227 27.0751 30.5159 27.0772C30.4086 27.1063 30.3544 27.0285 30.3394 27.0118C30.2843 26.9504 30.2028 26.9946 30.1647 26.954C30.1264 26.9137 30.2372 26.8841 30.1047 26.861C30.0624 26.8851 30.1459 26.982 30.044 26.9775C29.6617 26.9564 28.9632 26.8184 28.655 26.8001C28.3492 26.7782 28.2499 26.7838 28.0713 26.7708C28.0447 26.769 28.0211 26.7679 28.0001 26.7672C27.7654 26.7611 27.8503 26.8132 27.6679 26.8424C27.4691 26.876 27.5607 26.7254 27.5307 26.6945C27.5009 26.6639 27.471 26.6978 27.4347 26.682C27.3983 26.6662 27.4743 26.641 27.3903 26.6384C27.306 26.6354 27.0813 26.7073 27.0548 26.7432C26.9984 26.8186 27.1057 26.883 26.8863 26.8764C26.8737 26.876 26.9107 26.8335 26.8624 26.8341C26.4781 26.8401 26.0825 26.8951 25.7005 26.9423C25.6479 26.9488 25.686 26.8972 25.6553 26.9006C25.3345 26.9376 25.4616 26.9866 25.3091 27.1036C25.3236 26.9901 25.2135 26.9453 24.9754 27.0052C24.8327 27.0418 24.8693 27.0812 24.7867 27.1381C24.762 27.1551 24.6535 27.1522 24.6416 27.1789C24.6026 27.266 24.718 27.3152 24.471 27.3563C24.4601 27.3581 24.4817 27.3099 24.4449 27.3188C24.354 27.3408 24.2972 27.3669 24.2482 27.3956C24.2044 27.4108 24.1515 27.3893 24.1276 27.3496C24.0656 27.2806 24.0016 27.232 23.9145 27.0924C23.8039 26.9153 23.6584 26.5709 23.5462 26.3615C23.6537 26.3052 23.5175 26.1248 23.3996 26.0878C23.3255 25.9526 23.2381 25.8107 23.1736 25.6759C23.1514 25.6296 23.1987 25.6412 23.1987 25.6337C23.2007 25.5181 23.0967 25.5007 23.0773 25.4735C22.8702 25.1767 22.7767 24.8914 22.5524 24.6235C22.5444 24.614 22.4616 24.639 22.4689 24.5286C22.4695 24.5213 22.5596 24.6006 22.4812 24.4589C22.4028 24.3172 22.2893 24.0303 22.1431 23.8551C22.1078 23.8127 21.9797 23.7277 21.9708 23.6054C21.9697 23.589 21.9987 23.5909 21.9997 23.5658C22.0025 23.4849 21.91 23.495 21.9323 23.3889C21.9546 23.2829 21.9176 23.1105 21.761 22.9391C21.7562 22.9336 21.6709 22.9208 21.6362 22.8586C21.5808 22.7591 21.5122 22.6122 21.4524 22.5095C21.4238 22.4603 21.4057 22.5128 21.4001 22.5047C21.1885 22.1851 21.0847 21.9306 20.8938 21.5676C20.8589 21.501 20.7015 21.3426 20.6679 21.1941C20.6308 21.031 20.8911 21.0703 20.6651 20.7769C20.5741 20.6585 20.2543 20.6267 20.2384 20.3286C19.9514 19.8985 19.7727 19.4506 19.4725 19.0264C19.4591 19.0073 19.3592 18.98 19.3327 18.9322C19.2935 18.861 19.3007 18.8054 19.2736 18.754C19.161 18.5385 19.0246 18.3605 18.9114 18.1553C18.8683 18.0775 18.9144 18.0868 18.863 17.9939C18.8117 17.9011 18.7362 17.8631 18.6837 17.7275C18.6443 17.625 18.6721 17.4836 18.6096 17.3534C18.5259 17.3954 18.4781 17.3087 18.3689 17.1688C18.3478 17.1419 18.3378 17.1896 18.3264 17.1777C18.2793 17.1297 18.2726 17.0641 18.2259 17.0197C18.2146 17.0089 18.1866 17.0242 18.1758 17.0163C18.0828 16.9493 18.0589 16.7644 18.055 16.7325C18.0394 16.6107 17.977 16.5856 17.9498 16.501C17.9226 16.4165 18.0077 16.5171 17.9668 16.4237C17.8821 16.23 17.7427 15.9989 17.6373 15.8134C17.595 15.7395 17.5872 15.811 17.5803 15.801C17.4829 15.6539 17.4332 15.4771 17.3109 15.435C17.4399 15.2196 17.2393 15.3537 17.1516 15.1139C17.1448 15.0949 17.222 15.0212 17.2733 15.0795C17.3245 15.1378 17.3541 15.2539 17.4274 15.3335C17.4448 15.3523 17.6006 15.4277 17.6154 15.4417C17.7318 15.5512 17.6084 15.6476 17.6051 15.6588C17.5714 15.7843 17.7496 15.8835 17.7789 15.9198C17.9131 16.0858 17.9837 16.2518 18.0924 16.3927C18.1633 16.4849 18.2569 16.4439 18.2995 16.5239C18.4412 16.7898 18.371 16.9516 18.6192 17.1359C18.6723 17.1755 18.7383 17.0676 18.7716 17.3C18.7737 17.3146 18.7855 17.4947 18.876 17.5504C18.8874 17.5574 18.9152 17.5409 18.9253 17.553C18.9924 17.634 19.0047 17.7069 19.0719 17.7986C19.1391 17.8904 19.2231 17.9989 19.2781 18.1162C19.3113 18.1868 19.309 18.3034 19.3148 18.343C19.3306 18.4553 19.4473 18.5181 19.4353 18.6003C19.4234 18.683 19.2911 18.6111 19.3483 18.777C19.4243 18.7405 19.5063 18.7101 19.5846 18.6767C19.7708 19.0051 19.933 19.3403 20.1256 19.6665C20.1496 19.7069 20.1647 19.6427 20.1914 19.6854C20.3038 19.8658 20.3686 20.0425 20.4899 20.2269C20.5839 20.3694 20.7188 20.5074 20.8183 20.6558C20.7895 20.7982 20.95 21.011 21.0385 21.1818C21.0695 21.2416 21.045 21.2505 21.0617 21.2962C21.1252 21.4681 21.1565 21.3523 21.1928 21.3885C21.3485 21.5439 21.1909 21.6559 21.3203 21.8704C21.3271 21.8818 21.497 21.971 21.5137 21.9871C21.6207 22.0892 21.4945 22.0253 21.5324 22.106C21.6015 22.2534 21.6366 22.3633 21.7578 22.513C21.7932 22.5566 21.9151 22.64 21.9262 22.758C21.9277 22.7735 21.8944 22.7837 21.8984 22.7945C21.973 22.9899 22.068 22.9414 22.1582 23.0256C22.2485 23.1097 22.2759 23.3044 22.2761 23.3471C22.2772 23.4586 22.2187 23.2944 22.2114 23.2926C22.125 23.2711 22.2011 23.3807 22.2472 23.4714C22.1641 23.5364 22.2406 23.6563 22.2954 23.5652C22.3012 23.5551 22.2533 23.4915 22.2472 23.4714C22.3805 23.4974 22.47 23.6261 22.4733 23.8233C22.4748 23.9157 22.3913 23.8757 22.5305 24.0785C22.5936 24.1706 22.6344 24.0974 22.7005 24.1727C22.8514 24.3446 22.9391 24.6307 23.0639 24.8257C23.1092 24.8965 23.1024 24.806 23.1345 24.8537C23.2199 24.9802 23.2615 25.1113 23.3511 25.2362C23.3592 25.2474 23.378 25.1975 23.4022 25.2385C23.5866 25.5483 23.7207 25.8333 23.9083 26.1597C23.9989 26.3174 24.1812 26.5876 24.2715 26.7531C24.3384 26.8756 24.404 27.0149 24.469 27.1525L24.1248 27.0211C24.3276 26.9718 24.5277 26.929 24.6826 26.8773C24.8595 26.819 24.8097 26.7904 24.8801 26.7429C25.0168 26.6503 25.3068 26.6839 25.3453 26.6915C25.3464 26.6915 25.1924 26.7363 25.2803 26.7381C25.3383 26.7702 25.3435 26.6921 25.3453 26.6915C25.3709 26.6949 25.686 26.64 25.7472 26.6218C25.7804 26.6113 25.7543 26.5764 25.7718 26.5717C26.1879 26.4604 26.617 26.395 27.0536 26.3803C27.0613 26.3805 27.0531 26.4249 27.0711 26.4249C27.3233 26.426 27.4811 26.3658 27.6892 26.3286C27.806 26.308 27.91 26.3026 28.0003 26.3156C28.07 26.3255 28.132 26.3465 28.1854 26.3801C28.3425 26.3725 28.5663 26.414 28.6937 26.4417C28.8211 26.4691 28.8447 26.386 28.8563 26.385C29.2155 26.3571 29.4174 26.427 29.7812 26.4857C29.9544 26.5133 30.2995 26.5603 30.4876 26.5903C30.6366 26.6132 30.7207 26.6522 30.8584 26.6714C30.877 26.674 30.8673 26.6328 30.8732 26.6327C31.0348 26.6248 30.9404 26.6975 30.9674 26.7211C31.0653 26.8073 31.1253 26.855 31.3223 26.8801C31.3674 26.8858 31.532 26.7943 31.6147 26.8113C31.7218 26.8336 31.6684 26.8671 31.7803 26.8901C31.7898 26.8922 31.7969 26.8634 31.8634 26.8863C31.8801 26.892 31.8969 26.8979 31.9138 26.9038L31.424 27.0907C31.5802 26.8331 31.7556 26.5596 31.9082 26.2897C31.9303 26.2508 31.8611 26.2771 31.8925 26.2205C32.0395 25.9548 32.2074 25.6674 32.3742 25.4222C32.4154 25.3619 32.4209 25.4178 32.4373 25.4089C32.5367 25.3543 32.5315 25.1924 32.5415 25.1719C32.7767 24.6824 33.0509 24.3621 33.295 23.8656C33.3082 23.8385 33.3445 23.5924 33.4642 23.5423C33.4722 23.5388 33.5928 23.4906 33.5904 23.3849C33.5902 23.3783 33.5226 23.4128 33.5818 23.3187C33.6409 23.2247 33.7063 23.0561 33.822 22.9467C33.8585 22.912 33.9851 22.8532 34.0018 22.6964C34.0026 22.6861 33.9887 22.4212 34.1148 22.4022C34.1354 22.3993 34.22 22.4637 34.2592 22.2877C34.2665 22.254 34.2163 22.2939 34.2469 22.2116C34.2936 22.0854 34.406 21.9473 34.4468 21.7826C34.4538 21.7538 34.4524 21.6131 34.548 21.5562C34.5629 21.5473 34.579 21.5899 34.6081 21.5475C34.7464 21.3457 34.8536 21.1128 34.9985 20.9106C35.0498 20.8389 35.0767 20.9062 35.1356 20.8347C35.1945 20.7631 35.2993 20.6109 35.3246 20.5151C35.3499 20.4192 35.2191 20.4643 35.2845 20.3366C35.5688 19.7811 35.9235 19.2731 36.2414 18.738C36.2886 18.6587 36.2222 18.7087 36.2897 18.5906C36.5383 18.1551 36.9448 17.3901 37.2222 17.0478C37.4443 16.7735 37.2614 17.1745 37.4141 16.955C37.4876 16.849 37.4658 16.6759 37.4785 16.6473C37.6008 16.3679 37.7467 16.2088 37.8707 15.9653C37.8963 15.915 37.8316 15.9415 37.8538 15.8989C37.9293 15.7534 38.0319 15.6138 38.1072 15.4765C38.1408 15.4149 38.1061 15.4097 38.1406 15.355C38.2228 15.224 38.303 15.1124 38.4049 14.9972C38.4142 14.9867 38.403 15.0872 38.4615 14.9889C38.5561 14.8297 38.6972 14.6458 38.7767 14.4458C38.8002 14.3863 38.7368 14.3469 38.8493 14.255C38.8729 14.2357 38.9323 14.312 38.9444 14.1362C38.9451 14.126 38.9507 14.0853 38.9629 14.0333L39.1483 14.6179C39.05 14.6046 38.9102 14.5732 38.8516 14.4989C38.8279 14.4689 38.7787 14.3666 38.7052 14.347C38.6952 14.3446 38.7163 14.3976 38.6579 14.3763C38.4523 14.3006 38.243 14.2074 38.0304 14.1343C37.9736 14.1149 38.0406 14.1869 37.9565 14.1569C37.7253 14.0743 37.444 13.954 37.2233 13.8586C37.142 13.8234 37.2113 13.8124 37.2065 13.8066C37.1302 13.7136 37.0443 13.77 37.0104 13.7628C36.7996 13.7174 36.6588 13.6277 36.4686 13.5744C36.4162 13.5597 36.4403 13.6091 36.429 13.609C36.3119 13.6058 36.4133 13.5655 36.3483 13.5358C36.1661 13.4523 35.9534 13.388 35.7593 13.3341C35.688 13.3144 35.7543 13.382 35.6905 13.3639C35.3128 13.2577 34.9214 13.1445 34.5563 13.026C34.4875 13.0037 34.5401 12.9809 34.5275 12.9695C34.4404 12.8898 34.2742 12.9277 34.2386 12.9267C34.0761 12.9218 34.0234 12.8779 33.885 12.8523C33.2104 12.7272 32.3821 12.5562 31.742 12.455C30.9089 12.3228 30.258 12.2279 29.4524 12.1914C29.4012 12.1891 29.4503 12.2383 29.4062 12.237C28.9351 12.2217 28.4701 12.1988 28 12.2024C27.9024 12.2032 27.8047 12.2051 27.7069 12.2084C27.6602 12.21 27.728 12.2533 27.6532 12.2573C27.4993 12.2659 27.3051 12.2678 27.1489 12.2587C27.0728 12.2544 27.1734 12.2133 27.0968 12.2097C26.9184 12.2015 26.727 12.2067 26.5449 12.2236C26.4674 12.2309 26.587 12.2695 26.4861 12.2756C25.7986 12.319 25.1279 12.3902 24.43 12.4249C24.3822 12.4273 24.3282 12.3421 24.2296 12.3738C24.2256 12.4 24.2302 12.4296 24.2307 12.457C23.2399 12.6127 22.259 12.7767 21.2828 13.0257C21.2417 13.0362 21.3248 13.0646 21.2454 13.0853C20.7857 13.2053 20.3475 13.3468 19.8699 13.4493C19.8225 13.4596 19.8199 13.3705 19.6882 13.4271C19.6649 13.437 19.4648 13.5156 19.4183 13.5513C19.4121 13.5564 19.4619 13.5815 19.397 13.6049C19.0194 13.7403 18.6221 13.8768 18.2403 14.0013C18.1786 14.0214 18.2271 13.9566 18.183 13.9706C17.8699 14.0702 17.554 14.2376 17.2521 14.3287C17.0499 14.3898 17.091 14.2914 16.9591 14.2715C16.9404 14.2686 16.8208 14.3213 16.7972 14.286C16.7372 14.1972 16.7471 14.0654 16.6764 13.9739C16.6612 13.954 16.5108 14.0522 16.5818 13.9549C16.5868 13.9482 16.6959 13.8768 16.7168 13.8456C16.7313 13.8239 16.6772 13.8015 16.7112 13.7668C16.7453 13.732 16.8055 13.7442 16.8656 13.6948C16.9258 13.6453 16.8758 13.614 17.0113 13.5484ZM29.2633 26.5769C29.3767 26.6299 29.4109 26.4833 29.2786 26.5051C29.2722 26.5064 29.2575 26.5743 29.2633 26.5769ZM19.8343 19.3949C19.8535 19.5601 19.9897 19.6021 19.98 19.4833C19.9702 19.3646 19.8283 19.3446 19.8343 19.3949ZM19.0009 18.0478C19.0451 18.2283 19.2428 18.1466 19.1101 18.0026C19.1024 17.9941 18.9983 18.0373 19.0009 18.0478ZM17.4271 14.0432C17.4248 14.042 17.3377 14.0774 17.3364 14.0801C17.3094 14.1434 17.4832 14.0728 17.4271 14.0432ZM18.1699 16.7133C18.1729 16.7759 18.2818 16.8983 18.2781 16.8205C18.2751 16.7579 18.1661 16.6354 18.1699 16.7133ZM33.5113 24.2644C33.5142 24.264 33.5498 24.2063 33.5382 24.2012C33.5007 24.1849 33.4635 24.2722 33.5113 24.2644ZM16.8326 14.402C17.023 14.7476 16.9909 15.0424 16.7932 14.6604C16.7574 14.5912 16.9254 14.7777 16.8895 14.684C16.8239 14.5127 16.6685 14.4635 16.627 14.2739C16.6196 14.2395 16.8221 14.3821 16.8332 14.4024C16.833 14.4023 16.8328 14.4021 16.8326 14.402ZM29.3118 26.7626C29.314 26.7648 29.4069 26.7771 29.4093 26.7755C29.4655 26.7341 29.2775 26.709 29.3118 26.7626ZM35.5669 20.889C35.5732 20.8866 35.6853 20.7002 35.6855 20.6921C35.675 20.555 35.448 20.9318 35.5669 20.889ZM23.5471 26.3566C23.4546 26.2919 23.3886 26.1888 23.3998 26.0882C23.4478 26.1778 23.4986 26.2667 23.5471 26.3566ZM44.3504 16.6439C44.6396 16.8404 44.9943 17.1315 45.2527 17.3649C45.3339 17.438 45.2742 17.4239 45.3292 17.4754C45.4366 17.576 45.5506 17.6533 45.6538 17.756C45.688 17.7902 45.6152 17.7838 45.6515 17.8189C45.8506 18.0109 46.0546 18.1737 46.2569 18.3666C47.2525 19.3171 48.1788 20.3032 49.0481 21.3869C49.3352 21.7441 49.6472 22.2058 49.9402 22.5764C49.9745 22.6197 49.9847 22.5714 49.9933 22.5781C50.1282 22.6835 50.0358 22.6833 50.0908 22.776C50.3093 23.1445 50.5738 23.5365 50.8096 23.8725C50.9097 24.0154 50.8761 23.8288 50.937 23.9988C50.9412 24.0106 50.8844 23.9945 50.9067 24.037C50.9577 24.1334 51.0733 24.3035 51.1149 24.3766C51.1951 24.5177 51.2093 24.5402 51.2884 24.6714C51.378 24.8209 51.4688 25.0007 51.5653 25.1671C51.5849 25.2008 51.6048 25.234 51.6249 25.2661C51.6504 25.3068 51.6538 25.2317 51.6976 25.2949C51.7417 25.358 51.8378 25.5366 51.8624 25.6011C51.8872 25.6656 51.8455 25.6553 51.845 25.6694C51.8395 25.7854 52.0247 25.9511 52.0407 25.9771C52.3305 26.4461 52.4971 26.891 52.7141 27.3584C52.879 27.7135 53.0609 28.091 53.2006 28.4369C53.3668 28.849 53.4813 29.2081 53.6306 29.6124C53.6462 29.6552 53.6727 29.589 53.6919 29.6413C53.8956 30.1966 54.0701 30.7587 54.2004 31.3333C54.2135 31.391 54.1529 31.3291 54.1634 31.3873C54.2304 31.7436 54.2905 32.3127 54.5141 32.4797C54.564 32.7192 54.6211 33.0107 54.6298 33.2321C54.6354 33.3747 54.5638 33.2499 54.617 33.4152C54.6289 33.4525 54.6577 33.3951 54.6725 33.4517C54.735 33.6907 54.7712 33.9576 54.8322 34.1945C54.8447 34.2427 54.8773 34.2234 54.886 34.2363C54.9568 34.3446 54.9034 34.5528 54.9037 34.596C54.9076 34.9255 54.9579 35.1584 54.9939 35.4603C55.0021 35.5304 55.0393 35.4419 55.0489 35.5091C55.0849 35.7666 55.112 36.0323 55.1263 36.2925C55.1409 36.4281 55.0427 36.5312 54.9062 36.5334C54.8142 36.5301 54.723 36.5258 54.6331 36.5202C54.557 36.5154 54.627 36.4749 54.5906 36.4705C54.4302 36.4518 54.3946 36.5283 54.2408 36.5117C54.2083 36.5084 54.2266 36.4737 54.2207 36.4699C54.1281 36.4101 54.0476 36.4948 54.0238 36.4967C53.7225 36.5222 53.53 36.4338 53.2389 36.4463C53.2041 36.4479 53.2826 36.4918 53.1847 36.4936C52.5327 36.5057 51.8431 36.4936 51.1977 36.4585C51.0973 36.4531 51.1689 36.4202 51.1626 36.4161C51.0597 36.3526 50.9931 36.4377 50.9604 36.4409C50.7023 36.4639 50.4611 36.3926 50.2857 36.4939C49.1925 36.4588 48.1043 36.5157 47.0201 36.4249C47.0063 36.4238 47.031 36.3819 47.0035 36.38C46.6724 36.3565 46.736 36.4216 46.5168 36.5012C46.4616 36.5212 46.2937 36.4251 46.2789 36.4181C46.2248 36.3921 46.2809 36.3298 46.2628 36.3247C46.1128 36.2852 46.1372 36.4914 45.9349 36.4914C45.9286 36.4911 45.9551 36.4531 45.9382 36.4494C45.8854 36.4375 45.8331 36.4526 45.7815 36.4395C45.6633 36.4093 45.6212 36.3092 45.4408 36.3675C45.4179 36.375 45.4528 36.4919 45.2721 36.4864C45.2001 36.4841 44.8814 36.4861 44.792 36.4785C44.7028 36.471 44.764 36.4333 44.7577 36.4317C44.5173 36.3818 44.6084 36.3612 44.488 36.2874C44.3675 36.214 44.4009 36.3892 44.3518 36.4088C44.3026 36.4283 44.1263 36.3872 44.083 36.3729C44.0397 36.3586 44.0937 36.3347 44.0552 36.3266C43.7999 36.2737 43.9432 36.4136 43.8591 36.4414C43.6608 36.5072 43.5063 36.3773 43.3248 36.3645C43.2756 36.3611 43.3157 36.3907 43.272 36.3935C43.0987 36.404 42.9945 36.3635 42.7975 36.4007C42.7652 36.4067 42.6059 36.4849 42.5027 36.4275C42.4881 36.4192 42.5296 36.3869 42.4558 36.3796C42.3455 36.3687 42.1468 36.3616 42.0282 36.3725C41.9407 36.3805 42.041 36.4338 41.9308 36.4173C41.8819 36.4099 41.9726 36.3786 41.8806 36.3673C41.7891 36.356 41.5551 36.3574 41.4661 36.3585C41.3772 36.3596 41.4259 36.4001 41.4187 36.4028C41.3752 36.4184 41.2047 36.4379 41.1896 36.4379C40.7212 36.4409 40.2752 36.4162 39.8287 36.402C39.7881 36.4027 39.7499 36.3703 39.741 36.3308C39.6933 36.0587 39.6321 35.7885 39.5472 35.5193C39.5298 35.4643 39.4992 35.5129 39.4961 35.5046C39.4242 35.3206 39.5768 35.4381 39.5737 35.2943C39.4964 35.3384 39.4886 35.2556 39.4372 35.1258C39.4123 35.0634 39.3915 35.1085 39.3864 35.1037C39.3075 35.0253 39.3477 34.9395 39.3547 34.9181C39.3803 34.8396 39.3013 34.7912 39.3174 34.738C39.3331 34.6845 39.4142 34.7657 39.3679 34.6395C39.3259 34.6149 39.2838 34.7356 39.2367 34.6452C39.0639 34.3035 38.8341 33.6295 38.6958 33.3536C38.5619 33.0777 38.5074 32.9946 38.4293 32.8334C38.4176 32.8095 38.4068 32.7886 38.3968 32.7701C38.2846 32.5637 38.2821 32.6633 38.1654 32.5199C38.0368 32.3646 38.2131 32.3686 38.2248 32.3272C38.2365 32.2861 38.1921 32.2771 38.1876 32.2378C38.1831 32.1984 38.243 32.2515 38.2032 32.1776C38.1636 32.103 37.9891 31.9443 37.9447 31.9394C37.8512 31.9282 37.849 32.0534 37.7451 31.86C37.7391 31.8489 37.7945 31.8597 37.7698 31.8181C37.5725 31.4883 37.3272 31.1731 37.0954 30.8659C37.0635 30.8235 37.1272 30.8308 37.1089 30.8058C36.9165 30.5465 36.9376 30.6811 36.76 30.6075C36.8656 30.5633 36.8493 30.4456 36.6784 30.2693C36.5753 30.1641 36.5595 30.2154 36.4689 30.1724C36.4418 30.1595 36.3901 30.0642 36.361 30.0672C36.2661 30.077 36.2813 30.2015 36.122 30.0083C36.1151 29.9997 36.1676 29.9943 36.1415 29.9669C36.077 29.8992 36.026 29.8631 35.9767 29.835C35.9416 29.8047 35.9337 29.7481 35.9562 29.7076C35.985 29.6194 35.9951 29.5397 36.0724 29.3943C36.1705 29.21 36.396 28.9118 36.5213 28.7099C36.6238 28.7749 36.7119 28.5667 36.685 28.4461C36.765 28.3143 36.8442 28.1677 36.9287 28.0445C36.9578 28.0021 36.9713 28.0488 36.9778 28.0451C37.079 27.989 37.042 27.8903 37.0559 27.8599C37.2093 27.5321 37.4096 27.3084 37.5295 26.9803C37.5338 26.9686 37.4707 26.9093 37.57 26.8604C37.5766 26.8574 37.553 26.975 37.6365 26.8363C37.72 26.6975 37.9117 26.4558 37.9903 26.2416C38.0094 26.1898 38.019 26.0364 38.1204 25.9675C38.1341 25.9584 38.147 25.9844 38.1692 25.9727C38.2407 25.9347 38.1857 25.8597 38.2886 25.826C38.3916 25.7923 38.5225 25.674 38.5926 25.4527C38.5949 25.4457 38.5633 25.3655 38.5999 25.3043C38.6583 25.2066 38.7513 25.0737 38.8103 24.9706C38.8386 24.9212 38.7841 24.9318 38.7883 24.9229C38.9593 24.5798 39.1278 24.3627 39.3467 24.0159C39.3869 23.9524 39.4454 23.7368 39.5572 23.6335C39.6799 23.5199 39.776 23.7649 39.9171 23.4225C39.9742 23.2844 39.8419 22.9916 40.092 22.8288C40.321 22.3652 40.6195 21.9865 40.8368 21.5144C40.8466 21.4932 40.8203 21.3931 40.8485 21.3462C40.8906 21.2767 40.9423 21.2551 40.9733 21.206C41.1036 21.0007 41.1896 20.7935 41.3107 20.5929C41.3566 20.5167 41.3715 20.5612 41.4263 20.4703C41.4809 20.3795 41.4761 20.2951 41.5674 20.1818C41.6364 20.0964 41.7727 20.0498 41.8543 19.9306C41.7761 19.8791 41.8272 19.7944 41.8938 19.6298C41.9065 19.5982 41.8602 19.6133 41.8648 19.5975C41.8828 19.5327 41.9363 19.4941 41.9514 19.4314C41.9551 19.4162 41.9278 19.3996 41.9293 19.3863C41.9408 19.2723 42.089 19.1592 42.1146 19.1398C42.2124 19.0654 42.2029 18.9988 42.2626 18.9329C42.3221 18.8671 42.2775 18.9912 42.338 18.9091C42.4634 18.7389 42.5939 18.5025 42.7018 18.3185C42.7447 18.245 42.6788 18.274 42.6841 18.263C42.7627 18.1051 42.891 17.9736 42.8663 17.8466C43.1173 17.8507 42.9009 17.7441 43.0648 17.5481C43.0777 17.5327 43.1802 17.5628 43.1554 17.6363C43.1305 17.7098 43.0447 17.7935 43.0125 17.8968C43.0048 17.9213 43.0174 18.0939 43.0128 18.1138C42.9761 18.2694 42.831 18.2106 42.8195 18.2134C42.694 18.2469 42.6972 18.4509 42.6805 18.4944C42.6038 18.6936 42.4953 18.8378 42.4276 19.0023C42.3832 19.1099 42.4656 19.1704 42.4176 19.2473C42.2582 19.5029 42.0829 19.5231 42.0474 19.8302C42.0397 19.896 42.1661 19.8991 41.9815 20.0442C41.9699 20.0533 41.8198 20.1536 41.8168 20.2598C41.8165 20.2731 41.8447 20.289 41.8393 20.3038C41.8026 20.4024 41.7457 20.4495 41.6998 20.5536C41.654 20.6577 41.602 20.7846 41.5279 20.8909C41.4833 20.955 41.3812 21.0113 41.3498 21.0362C41.2604 21.106 41.2644 21.2385 41.1873 21.2691C41.1096 21.3002 41.1058 21.1496 40.9907 21.2821C41.0603 21.3297 41.1277 21.3855 41.1958 21.4366C41.0045 21.7621 40.7952 22.0702 40.609 22.4001C40.586 22.441 40.6492 22.422 40.6255 22.4665C40.5256 22.654 40.4049 22.7985 40.3059 22.9957C40.2294 23.1484 40.1774 23.3342 40.0987 23.4946C39.9609 23.5408 39.8569 23.7863 39.7532 23.9483C39.7169 24.0051 39.6969 23.9883 39.6657 24.0256C39.5486 24.1665 39.6645 24.1357 39.6513 24.1853C39.5946 24.3978 39.4189 24.3174 39.2977 24.5366C39.2913 24.5482 39.299 24.74 39.2934 24.7625C39.2585 24.9062 39.2507 24.765 39.1997 24.8381C39.1066 24.9717 39.0291 25.057 38.9599 25.2369C38.9399 25.2894 38.9287 25.4366 38.832 25.5052C38.8193 25.5142 38.7939 25.4905 38.7865 25.4994C38.6545 25.6617 38.7441 25.7196 38.7163 25.8399C38.6885 25.9601 38.5337 26.0813 38.4968 26.1028C38.4008 26.1594 38.5137 26.0267 38.5116 26.0194C38.4871 25.9339 38.4301 26.0546 38.3746 26.1399C38.2768 26.1004 38.2112 26.2266 38.3175 26.2285C38.3292 26.2285 38.3603 26.1552 38.3746 26.1399C38.4188 26.2684 38.3521 26.4101 38.1829 26.5116C38.1037 26.5591 38.0965 26.4668 37.9905 26.6888C37.9424 26.7895 38.0261 26.7882 37.994 26.8831C37.9205 27.0997 37.7167 27.3187 37.6102 27.5243C37.5715 27.599 37.6465 27.5478 37.6212 27.5995C37.5544 27.7367 37.4616 27.8382 37.3983 27.9782C37.3926 27.991 37.4452 27.9822 37.4219 28.0237C37.2457 28.3383 37.0659 28.597 36.8771 28.9226C36.7859 29.0799 36.6429 29.3729 36.5448 29.5338C36.4721 29.6531 36.3843 29.7796 36.2976 29.9047L36.2391 29.5409C36.3832 29.6917 36.5204 29.8435 36.6427 29.9518C36.7816 30.0758 36.7815 30.0184 36.8579 30.0556C37.0064 30.1277 37.1224 30.3957 37.135 30.4329C37.1356 30.4339 37.0198 30.3227 37.0622 30.3999C37.0634 30.4661 37.1336 30.4316 37.135 30.4329C37.1449 30.4567 37.35 30.7022 37.3963 30.7461C37.422 30.7696 37.4392 30.7296 37.452 30.7424C37.7564 31.0472 38.0275 31.3862 38.2584 31.7569C38.2621 31.7637 38.2195 31.7788 38.2286 31.7944C38.3536 32.0134 38.4846 32.1198 38.6209 32.2813C38.6973 32.3722 38.7539 32.4595 38.788 32.5442C38.8143 32.6097 38.8271 32.6739 38.8247 32.7369C38.9099 32.8691 38.9858 33.0837 39.0256 33.2078C39.0655 33.3319 39.1493 33.3108 39.1559 33.3203C39.3597 33.6175 39.4001 33.8272 39.5312 34.1716C39.5939 34.3354 39.7258 34.6577 39.7938 34.8357C39.8485 34.9761 39.8567 35.0685 39.909 35.1973C39.916 35.2148 39.9468 35.1858 39.9499 35.1908C40.0375 35.3268 39.9274 35.2814 39.9205 35.3166C39.8947 35.4445 39.8835 35.5203 39.9602 35.7035C39.9778 35.7454 40.1393 35.8422 40.166 35.9224C40.2002 36.0262 40.1446 35.9967 40.1805 36.1051C40.1835 36.1145 40.212 36.1061 40.2254 36.1752C40.2288 36.1926 40.2322 36.2101 40.2355 36.2277L39.8287 35.897C40.1299 35.9034 40.4543 35.9186 40.7644 35.9158C40.8091 35.9155 40.7517 35.8688 40.8164 35.8676C41.1201 35.862 41.4529 35.8638 41.7487 35.8856C41.8215 35.8912 41.7758 35.9239 41.7916 35.9336C41.8887 35.9924 42.0263 35.907 42.049 35.9054C42.5906 35.8643 43.0051 35.9416 43.5571 35.9048C43.5872 35.9027 43.8185 35.8111 43.9217 35.8896C43.9287 35.8948 44.0308 35.9752 44.1211 35.9203C44.1267 35.9168 44.0631 35.8754 44.1741 35.8797C44.2851 35.8839 44.4638 35.8562 44.6164 35.9017C44.6647 35.916 44.7789 35.9962 44.923 35.9323C44.9324 35.9278 45.1549 35.7833 45.2343 35.883C45.2472 35.8994 45.2337 36.0049 45.4057 35.9508C45.4386 35.9403 45.3789 35.9168 45.4655 35.9021C45.5982 35.8795 45.7739 35.9077 45.937 35.8607C45.9654 35.8524 46.0865 35.7808 46.1836 35.8352C46.1988 35.8437 46.1699 35.8789 46.2212 35.8828C46.4651 35.9017 46.7204 35.8782 46.968 35.9026C47.0557 35.9111 47.0109 35.968 47.1023 35.9833C47.1937 35.9986 47.3779 36.0132 47.4736 35.9872C47.5693 35.9612 47.4648 35.8704 47.6081 35.8632C48.2313 35.8317 48.8487 35.8849 49.471 35.8927C49.5633 35.8938 49.4867 35.8614 49.6228 35.8607C50.1242 35.8583 50.99 35.8279 51.4251 35.8969C51.7738 35.9521 51.335 35.9942 51.6014 36.0167C51.73 36.0274 51.8691 35.9219 51.9001 35.9186C52.2033 35.8849 52.414 35.9316 52.6869 35.9173C52.7432 35.9143 52.688 35.8715 52.7359 35.8695C52.8997 35.8621 53.0719 35.8811 53.2284 35.8777C53.2986 35.876 53.2857 35.8433 53.3503 35.8459C53.5049 35.8515 53.6417 35.8652 53.7924 35.8958C53.8061 35.8986 53.7135 35.9393 53.8279 35.9408C54.013 35.9431 54.2428 35.9733 54.4558 35.9421C54.519 35.9327 54.5215 35.8581 54.6574 35.9096C54.6859 35.9204 54.6495 36.01 54.8078 35.9326C54.817 35.9281 54.855 35.9126 54.9062 35.8971L54.4926 36.35C54.455 36.2582 54.4123 36.1215 54.4473 36.0336C54.4615 35.9981 54.5254 35.9043 54.5057 35.8309C54.5028 35.821 54.4674 35.8658 54.4567 35.8046C54.4194 35.5887 54.3954 35.3608 54.3524 35.1401C54.3408 35.0812 54.312 35.1753 54.296 35.0874C54.2519 34.8459 54.2154 34.5421 54.1876 34.3033C54.1775 34.2153 54.2217 34.2698 54.2243 34.2628C54.2667 34.1502 54.1749 34.104 54.1642 34.0711C54.0981 33.8658 54.1054 33.699 54.0564 33.5076C54.043 33.4549 54.0123 33.5005 54.0067 33.4906C53.9509 33.3876 54.0365 33.4553 54.0297 33.3842C54.0109 33.1846 53.9603 32.9682 53.9099 32.7732C53.8913 32.7016 53.8659 32.7928 53.8497 32.7285C53.7528 32.3483 53.6551 31.9527 53.5752 31.5773C53.5602 31.5066 53.6062 31.5407 53.6097 31.5241C53.6352 31.4088 53.5193 31.2838 53.5024 31.2524C53.4253 31.1093 53.437 31.0417 53.39 30.9091C53.1611 30.2623 52.895 29.4594 52.6626 28.8545C52.3605 28.0669 52.1173 27.4557 51.7461 26.7398C51.7225 26.6944 51.7044 26.7614 51.6835 26.7226C51.4612 26.307 51.2485 25.8929 51.0103 25.4875C50.9609 25.4033 50.9104 25.3197 50.8586 25.2367C50.8339 25.197 50.8303 25.2774 50.7894 25.2146C50.705 25.0856 50.6063 24.9184 50.5361 24.7786C50.5018 24.7105 50.5877 24.7771 50.5524 24.7089C50.4704 24.5504 50.3702 24.3871 50.2645 24.2379C50.2193 24.1745 50.2458 24.2974 50.19 24.213C49.8087 23.6393 49.4117 23.0941 49.0327 22.507C49.0067 22.4668 49.0535 22.3774 48.9768 22.3079C48.952 22.3175 48.9287 22.3363 48.9053 22.3504C48.275 21.5702 47.6425 20.8028 46.9388 20.0818C46.9091 20.0515 46.9261 20.1377 46.8685 20.0792C46.5347 19.7412 46.1931 19.4323 45.8655 19.07C45.8328 19.0341 45.9087 18.9873 45.7939 18.9015C45.7736 18.8863 45.6055 18.7523 45.5514 18.7299C45.5438 18.7271 45.547 18.7828 45.4943 18.7382C45.1882 18.4789 44.8713 18.2031 44.5726 17.9347C44.5244 17.8914 44.6048 17.9009 44.5706 17.8698C44.3277 17.6484 44.0248 17.4585 43.795 17.2426C43.6409 17.098 43.7467 17.0844 43.6981 16.9602C43.6912 16.9426 43.5857 16.8654 43.6045 16.8272C43.6514 16.7309 43.7705 16.6736 43.8144 16.5666C43.824 16.5435 43.6638 16.4624 43.7836 16.4752C43.7919 16.4761 43.9083 16.535 43.9457 16.5374C43.9718 16.5392 43.9641 16.4811 44.0112 16.4932C44.0583 16.5054 44.0778 16.5636 44.1507 16.591C44.2237 16.6183 44.2258 16.5593 44.3504 16.6439ZM39.1933 33.7688C39.204 33.8934 39.3481 33.8497 39.2631 33.7461C39.2588 33.7412 39.1926 33.7624 39.1933 33.7688ZM40.6986 22.0119C40.5651 22.1112 40.5969 22.2502 40.6948 22.1824C40.7928 22.1145 40.7392 21.9817 40.6986 22.0119ZM41.4485 20.6167C41.3143 20.7452 41.4839 20.8756 41.5423 20.6886C41.5458 20.6778 41.4564 20.6091 41.4485 20.6167ZM44.1297 17.2514C44.1297 17.2488 44.0555 17.1911 44.0524 17.1913C43.9841 17.1996 44.1322 17.3148 44.1297 17.2514ZM42.1887 19.2298C42.136 19.2637 42.0845 19.4192 42.15 19.377C42.2027 19.3431 42.2543 19.1875 42.1887 19.2298ZM43.3199 36.2915C43.3217 36.2938 43.3894 36.2958 43.388 36.2832C43.3834 36.2426 43.2892 36.254 43.3199 36.2915ZM43.5218 16.9159C43.3176 17.2536 43.0463 17.3732 43.2782 17.011C43.3202 16.9454 43.2428 17.1842 43.306 17.1063C43.4215 16.9637 43.3864 16.8046 43.5299 16.6739C43.556 16.6503 43.5338 16.8969 43.5217 16.9167C43.5217 16.9164 43.5217 16.9162 43.5218 16.9159ZM39.0567 33.9036C39.0559 33.9065 39.0917 33.9932 39.0943 33.9945C39.1582 34.0224 39.086 33.8471 39.0567 33.9036ZM47.2709 36.384C47.2761 36.3882 47.4936 36.3922 47.5007 36.3883C47.6142 36.3106 47.1744 36.3024 47.2709 36.384ZM36.5259 28.7083C36.5357 28.5958 36.592 28.4871 36.6847 28.4464C36.6311 28.5329 36.5796 28.6212 36.5259 28.7083ZM19.3672 27.7502C19.55 28.0408 19.7628 28.4372 19.9171 28.7427C19.9655 28.8384 19.9154 28.8047 19.9478 28.8714C20.0112 29.0018 20.0898 29.1119 20.1506 29.2418C20.1707 29.2849 20.1048 29.2549 20.1267 29.2996C20.1732 29.3946 20.2224 29.4854 20.2729 29.5753C20.3583 29.7178 20.3217 29.9194 20.1996 30.0321C20.0806 30.1358 19.9669 30.244 19.8455 30.3541C19.0387 31.0862 18.3545 31.9348 17.7921 32.8787C17.6737 33.0772 17.5609 33.2795 17.4534 33.4862C17.2481 33.8778 16.9992 34.3595 16.8615 34.7977C16.8454 34.8487 16.8908 34.831 16.8903 34.8416C16.8816 35.0069 16.8288 34.9326 16.786 35.0281C16.617 35.4077 16.4912 35.8542 16.4209 36.2469C16.3956 36.3896 16.4699 36.3006 16.4455 36.3695C16.4216 36.4942 16.2983 36.5904 16.1713 36.5925C16.1585 36.5908 16.1404 36.5872 16.1148 36.5812C16.1027 36.5784 16.1466 36.5393 16.0992 36.5351C15.9916 36.5257 15.7874 36.5327 15.704 36.5296C15.5433 36.5235 15.5167 36.5238 15.3647 36.5234C15.1569 36.5225 14.9097 36.503 14.6868 36.5119C14.6392 36.5139 14.7022 36.554 14.6263 36.5608C14.5503 36.5676 14.3494 36.5642 14.2816 36.5548C14.2138 36.5453 14.2427 36.5138 14.2307 36.5066C14.132 36.4456 13.8996 36.53 13.8697 36.5321C13.3243 36.5677 12.8566 36.5196 12.3447 36.5197C11.9561 36.5199 11.5406 36.5358 11.1708 36.5337C10.7302 36.5309 10.3569 36.5092 9.92889 36.5129C9.88372 36.5133 9.93665 36.5604 9.88148 36.5609C9.29539 36.5664 8.71337 36.5613 8.1298 36.5294C8.07127 36.5262 8.1467 36.4848 8.08823 36.4791C7.73024 36.4451 7.1638 36.3633 6.95118 36.5436C6.70869 36.5366 6.4143 36.5293 6.19736 36.4929C6.05748 36.4696 6.19334 36.4244 6.02151 36.4437C5.98276 36.448 6.03315 36.4875 5.97504 36.4909C5.73036 36.5054 5.46303 36.4926 5.22098 36.513C5.17175 36.5172 5.18519 36.5526 5.17124 36.559C5.054 36.6106 4.85883 36.5253 4.81628 36.5191C4.49229 36.4728 4.25568 36.491 3.95386 36.4899C3.88382 36.4896 3.96661 36.5372 3.89921 36.5386C3.54967 36.5454 3.18757 36.5413 2.84531 36.5202C2.76917 36.5154 2.83918 36.4749 2.8028 36.4705C2.64239 36.4518 2.60683 36.5283 2.45298 36.5117C2.42054 36.5084 2.43882 36.4737 2.4329 36.4699C2.34031 36.4101 2.25985 36.4948 2.23603 36.4967C1.93476 36.5222 1.74219 36.4338 1.45115 36.4463C1.41633 36.4479 1.49485 36.4918 1.39697 36.4936C1.29668 36.4954 1.19551 36.4967 1.09375 36.4974C0.979583 36.4993 0.901097 36.4096 0.909555 36.2958C0.956315 35.734 1.04062 35.1573 1.15392 34.6191C1.17473 34.5202 1.19624 34.5965 1.20123 34.5908C1.27985 34.4986 1.2066 34.4195 1.20874 34.3864C1.22783 34.1262 1.34105 33.9009 1.27433 33.7089C1.51311 32.6359 1.72861 31.5559 2.14654 30.5447C2.15175 30.5318 2.18412 30.5682 2.19433 30.5425C2.31877 30.2337 2.23746 30.2748 2.23236 30.0401C2.23124 29.9808 2.37736 29.8526 2.389 29.8411C2.43145 29.7984 2.47166 29.8722 2.48241 29.8567C2.56949 29.7285 2.36685 29.6823 2.43616 29.4907C2.43866 29.4849 2.46517 29.5229 2.47455 29.5082C2.5038 29.4625 2.50778 29.4079 2.53807 29.3638C2.6079 29.2628 2.716 29.2591 2.72633 29.0695C2.7276 29.0454 2.60546 29.036 2.67683 28.8685C2.7049 28.8019 2.82282 28.5031 2.86456 28.4233C2.90588 28.3433 2.9171 28.4147 2.92106 28.4093C3.05996 28.2057 3.04391 28.2981 3.15873 28.2161C3.27352 28.1345 3.09945 28.0961 3.10099 28.043C3.10255 27.9898 3.21129 27.8442 3.24204 27.8105C3.27272 27.7767 3.27263 27.8358 3.29568 27.8039C3.44829 27.5925 3.26225 27.6659 3.27165 27.5774C3.29421 27.3686 3.47811 27.282 3.56768 27.124C3.59202 27.0811 3.54797 27.1045 3.56444 27.0638C3.63042 26.9024 3.71254 26.8267 3.76783 26.6333C3.77682 26.6017 3.77938 26.4234 3.87801 26.3575C3.89209 26.3483 3.90175 26.4001 3.9422 26.3377C4.00269 26.2442 4.10159 26.0718 4.14856 25.9619C4.18318 25.8808 4.08837 25.944 4.15558 25.8546C4.1855 25.8151 4.16954 25.9098 4.22347 25.8343C4.27692 25.7592 4.38958 25.5533 4.43258 25.4754C4.47542 25.3975 4.41624 25.4199 4.4174 25.4123C4.42439 25.3712 4.48028 25.2389 4.49722 25.2032C4.49909 25.1992 4.50048 25.1964 4.50124 25.1951C4.88001 24.5307 5.3144 23.973 5.71685 23.3497C5.74854 23.3009 5.6914 23.3085 5.69587 23.3008C5.79527 23.1264 5.79844 23.3205 5.90927 23.2283C5.82685 23.195 5.88669 23.1366 5.96039 23.0168C5.99598 22.959 5.94727 22.9695 5.94806 22.9625C5.96526 22.8509 6.05986 22.8327 6.08128 22.826C6.16037 22.8014 6.15575 22.7087 6.20933 22.6917C6.2626 22.6749 6.24012 22.7873 6.31946 22.6788C6.31703 22.63 6.19231 22.6622 6.24276 22.5721C6.43165 22.2304 6.92945 21.7023 7.13381 21.4693C7.33677 21.2352 7.39812 21.1559 7.52434 21.0265C7.75362 20.7939 7.62998 20.8445 7.74391 20.6745C7.85927 20.5043 7.90326 20.6772 7.94638 20.6767C7.98909 20.6768 7.98571 20.6317 8.02252 20.6171C8.05922 20.6027 8.02379 20.6738 8.08452 20.6168C8.14492 20.5597 8.25793 20.3543 8.25402 20.3101C8.24536 20.2164 8.1206 20.2408 8.29154 20.0973C8.30142 20.0891 8.30126 20.1459 8.33764 20.1132C8.62531 19.8531 8.90937 19.5689 9.20516 19.3199C9.24587 19.2857 9.24183 19.3498 9.26584 19.3303C9.51645 19.1284 9.3834 19.1551 9.45634 18.9749C9.50145 19.0808 9.61675 19.0618 9.79625 18.8979C9.90439 18.7997 9.85414 18.7819 9.90217 18.6937C9.9166 18.6671 10.0154 18.6221 10.0147 18.5931C10.013 18.4979 9.88551 18.5018 10.0963 18.3591C10.1057 18.353 10.1053 18.406 10.1356 18.3826C10.3322 18.2321 10.3049 18.1555 10.5036 17.9756C10.6593 17.8346 10.9775 17.6341 11.1694 17.4928C11.2407 17.5908 11.3997 17.4306 11.4211 17.3088C11.5456 17.217 11.6761 17.1122 11.8029 17.0323C11.8466 17.0048 11.8404 17.0531 11.8478 17.0523C11.963 17.0409 11.9688 16.9359 11.9939 16.9135C12.1197 16.8039 12.2467 16.7194 12.3711 16.6367C12.4103 16.6081 12.4595 16.62 12.4845 16.6617C12.5678 16.8156 12.6508 16.9654 12.7719 17.1101C12.7799 17.1196 12.8627 17.0946 12.8555 17.205C12.8548 17.2123 12.7648 17.133 12.8431 17.2747C12.9215 17.4164 13.035 17.7033 13.1812 17.8785C13.2166 17.9209 13.3446 18.0059 13.3535 18.1282C13.3546 18.1446 13.3256 18.1427 13.3246 18.1678C13.3218 18.2487 13.4143 18.2386 13.392 18.3446C13.3697 18.4507 13.4067 18.6231 13.5633 18.7945C13.5682 18.8 13.6534 18.8128 13.6882 18.875C13.7435 18.9745 13.8121 19.1214 13.8719 19.2241C13.9006 19.2733 13.9187 19.2208 13.9243 19.2289C14.1359 19.5485 14.2397 19.803 14.4305 20.166C14.4655 20.2326 14.6229 20.391 14.6565 20.5395C14.6935 20.7026 14.4333 20.6633 14.6593 20.9567C14.7503 21.0751 15.0701 21.1069 15.086 21.405C15.373 21.8351 15.5517 22.283 15.8518 22.7072C15.8653 22.7263 15.9652 22.7536 15.9917 22.8015C16.0309 22.8726 16.0237 22.9282 16.0508 22.9796C16.1634 23.1951 16.2998 23.3731 16.413 23.5783C16.4561 23.6562 16.41 23.6468 16.4614 23.7397C16.5127 23.8325 16.5882 23.8705 16.6406 24.0061C16.6801 24.1087 16.6523 24.25 16.7148 24.3802C16.7984 24.3383 16.8462 24.4249 16.9555 24.5648C16.9766 24.5917 16.9866 24.544 16.998 24.5559C17.0451 24.6039 17.0518 24.6695 17.0985 24.7139C17.1098 24.7247 17.1378 24.7094 17.1486 24.7173C17.2416 24.7843 17.2655 24.9692 17.2694 25.0011C17.285 25.123 17.3474 25.148 17.3746 25.2327C17.4018 25.3171 17.3167 25.2165 17.3576 25.3099C17.4423 25.5036 17.5817 25.7348 17.6871 25.9203C17.7294 25.9942 17.7372 25.9226 17.7441 25.9327C17.8415 26.0797 17.8912 26.2565 18.0135 26.2986C17.8845 26.514 18.0851 26.3799 18.1728 26.6198C18.1796 26.6387 18.1024 26.7124 18.0511 26.6541C17.9999 26.5959 17.9703 26.4797 17.897 26.4002C17.8796 26.3813 17.7238 26.3059 17.7089 26.2919C17.5925 26.1824 17.716 26.0861 17.7193 26.0748C17.753 25.9493 17.5748 25.8501 17.5455 25.8138C17.4113 25.6478 17.3407 25.4818 17.232 25.3409C17.1611 25.2487 17.0674 25.2897 17.0249 25.2097C16.8832 24.9439 16.9534 24.782 16.7051 24.5977C16.652 24.5582 16.5861 24.666 16.5527 24.4336C16.5507 24.419 16.5389 24.2389 16.4484 24.1832C16.437 24.1762 16.4092 24.1927 16.3991 24.1807C16.332 24.0996 16.3197 24.0267 16.2525 23.935C16.1852 23.8433 16.1013 23.7347 16.0463 23.6175C16.0131 23.5468 16.0154 23.4302 16.0095 23.3906C15.9938 23.2783 15.877 23.2155 15.8891 23.1333C15.901 23.0506 16.0333 23.1225 15.9761 22.9566C15.9001 22.9931 15.8181 23.0236 15.7397 23.0569C15.5535 22.7285 15.3914 22.3933 15.1988 22.0671C15.1748 22.0267 15.1597 22.0909 15.133 22.0482C15.0206 21.8678 14.9557 21.6911 14.8345 21.5067C14.7405 21.3642 14.6056 21.2262 14.506 21.0778C14.5349 20.9354 14.3743 20.7226 14.2858 20.5518C14.2548 20.492 14.2793 20.4831 14.2626 20.4374C14.1992 20.2655 14.1679 20.3813 14.1315 20.3451C13.9759 20.1897 14.1334 20.0777 14.0041 19.8632C13.9973 19.8518 13.8274 19.7626 13.8107 19.7465C13.7036 19.6444 13.8298 19.7083 13.792 19.6276C13.7229 19.4802 13.6877 19.3703 13.5666 19.2206C13.5311 19.1769 13.4092 19.0936 13.3981 18.9756C13.3967 18.9601 13.4299 18.9499 13.4259 18.939C13.3513 18.7436 13.2564 18.7922 13.1661 18.708C13.0759 18.6238 13.0484 18.4292 13.0482 18.3865C13.0471 18.275 13.1057 18.4392 13.113 18.441C13.1993 18.4625 13.1233 18.3529 13.0771 18.2622C13.1602 18.1972 13.0838 18.0773 13.029 18.1684C13.0231 18.1785 13.0711 18.2421 13.0771 18.2622C12.9438 18.2362 12.8544 18.1075 12.8511 17.9103C12.8496 17.8179 12.9331 17.8578 12.7939 17.655C12.7307 17.563 12.69 17.6362 12.6239 17.5609C12.4729 17.389 12.3852 17.1029 12.2604 16.9079C12.2151 16.8371 12.2219 16.9276 12.1898 16.8799C12.1819 16.8682 12.1744 16.8565 12.1672 16.8448L12.5821 16.9361C12.4748 17.0163 12.3619 17.0687 12.2588 17.1606C12.2485 17.1698 12.2998 17.1835 12.2622 17.2116C11.9774 17.4254 11.7143 17.5917 11.4215 17.8218C11.28 17.9328 11.0448 18.1529 10.8991 18.2689C10.6464 18.469 10.307 18.6849 10.1114 18.8809C9.98389 19.0085 10.0411 19.0126 10.0031 19.0852C9.93017 19.2251 9.67226 19.3333 9.63601 19.3471C9.6348 19.3475 9.74103 19.2342 9.66629 19.2755C9.601 19.2764 9.63713 19.3458 9.63601 19.3471C9.61203 19.3558 9.38209 19.5631 9.34383 19.612C9.32291 19.6384 9.36356 19.6534 9.35216 19.6666C9.08102 19.9803 8.79975 20.2822 8.50095 20.576C8.49535 20.5809 8.47097 20.543 8.45818 20.5548C8.27846 20.7196 8.21363 20.8709 8.10442 21.0411C7.99548 21.2113 7.88416 21.3236 7.75015 21.3646C7.65883 21.4853 7.49429 21.6296 7.39925 21.7133C7.30411 21.797 7.3592 21.8643 7.35353 21.8739C7.17965 22.1728 7.01937 22.297 6.79776 22.5742C6.69209 22.7058 6.50245 22.9817 6.40364 23.1352C6.32529 23.2566 6.25879 23.3158 6.19278 23.4319C6.18384 23.4476 6.22526 23.4544 6.22331 23.4598C6.17553 23.607 6.14047 23.4958 6.10936 23.5115C5.99663 23.5685 5.93088 23.607 5.84737 23.7808C5.82789 23.8211 5.86766 24.001 5.83033 24.0717C5.78151 24.1636 5.76306 24.1047 5.71325 24.2019C5.70898 24.2102 5.73467 24.2247 5.69716 24.28C5.52325 24.5376 5.32923 24.816 5.16581 25.095C5.14339 25.133 5.21253 25.1084 5.18088 25.1638C5.12044 25.2696 5.05718 25.3794 4.99261 25.4892C4.89903 25.6482 4.80344 25.8059 4.70885 25.9508C4.66945 26.011 4.66243 25.9558 4.64641 25.9648C4.54869 26.0205 4.55931 26.1808 4.55025 26.2012C4.33524 26.6904 4.08276 27.0206 3.88465 27.5291C3.87371 27.5571 3.86175 27.8012 3.74863 27.8616C3.74104 27.8657 3.62627 27.9248 3.64054 28.0285C3.64147 28.0349 3.70453 27.9944 3.65662 28.0926C3.60861 28.191 3.5643 28.363 3.46427 28.4838C3.43268 28.522 3.31491 28.5955 3.32047 28.7513C3.32081 28.7618 3.37312 29.0184 3.25215 29.0542C3.23232 29.0601 3.13866 29.0088 3.12757 29.1869C3.12568 29.221 3.16875 29.1746 3.15182 29.2595C3.12614 29.3893 3.03872 29.5416 3.02805 29.7085C3.02624 29.7377 3.0532 29.8735 2.97025 29.9452C2.95725 29.9565 2.9335 29.9179 2.913 29.9642C2.81543 30.1843 2.75751 30.43 2.65979 30.6546C2.62531 30.7343 2.58447 30.6749 2.54268 30.7563C2.50082 30.8377 2.43307 31.0077 2.43095 31.1056C2.42882 31.2036 2.54511 31.1308 2.51196 31.2681C2.36897 31.8643 2.16616 32.4381 2.0262 33.0351C2.00558 33.1236 2.05326 33.057 2.02559 33.1878C1.92097 33.6702 1.80265 34.5121 1.67578 34.9262C1.57253 35.2586 1.59171 34.8241 1.53265 35.0816C1.50442 35.2063 1.59145 35.3562 1.59092 35.3868C1.58688 35.6872 1.51763 35.888 1.50537 36.1573C1.50294 36.2128 1.55076 36.1628 1.54827 36.2099C1.54591 36.2572 1.54135 36.3049 1.53587 36.3526L1.09375 35.8685C1.21154 35.8713 1.33 35.8801 1.44064 35.8777C1.51086 35.876 1.49792 35.8433 1.56254 35.8459C1.71716 35.8515 1.85388 35.8652 2.00461 35.8958C2.01834 35.8986 1.92571 35.9393 2.0401 35.9408C2.22524 35.9431 2.45505 35.9733 2.66806 35.9421C2.73126 35.9327 2.73374 35.8581 2.86959 35.9096C2.89809 35.9204 2.86173 36.01 3.01998 35.9326C3.0466 35.9197 3.31244 35.8153 3.4429 35.8826C3.47732 35.9003 3.56516 35.9736 3.64117 35.9621C3.65147 35.9603 3.61018 35.9202 3.67316 35.9163C3.89512 35.9032 4.12773 35.9075 4.35576 35.8949C4.41665 35.8915 4.32596 35.85 4.41671 35.8462C4.66628 35.8357 4.97787 35.8463 5.22191 35.8593C5.31189 35.8641 5.2497 35.8985 5.25624 35.9022C5.36152 35.9631 5.42377 35.881 5.45871 35.8762C5.67603 35.8475 5.84151 35.8861 6.04183 35.8759C6.09711 35.8732 6.05791 35.834 6.06892 35.8305C6.18304 35.7964 6.09803 35.8667 6.17027 35.8745C6.37264 35.8964 6.59824 35.8933 6.80289 35.8883C6.87807 35.8864 6.79358 35.841 6.86104 35.8398C7.26033 35.832 7.67543 35.8363 8.06511 35.8614C8.13848 35.8661 8.09232 35.9011 8.10761 35.9091C8.21301 35.9649 8.36748 35.8888 8.40302 35.8815C8.56463 35.8484 8.62741 35.8793 8.77013 35.8735C9.46733 35.8448 10.3282 35.8652 10.9863 35.8779C11.8439 35.8942 12.5094 35.9274 13.3272 35.9188C13.3792 35.9183 13.3267 35.8718 13.3716 35.8708C13.95 35.8595 14.5195 35.8777 15.0992 35.8643C15.1468 35.8633 15.0782 35.8192 15.1545 35.8161C15.3111 35.8094 15.5095 35.8118 15.6678 35.8258C15.7451 35.8326 15.6415 35.8704 15.7192 35.8765C15.8651 35.8879 16.0195 35.8922 16.1713 35.8897L15.7574 36.2264C15.7645 36.1893 15.7713 36.1523 15.7779 36.1156C15.7925 36.0348 15.7218 36.1461 15.7443 36.0417C15.8984 35.3307 16.1087 34.6399 16.4439 33.9845C16.467 33.9396 16.5682 33.9347 16.5942 33.8305C16.574 33.813 16.5464 33.8015 16.5229 33.7874C16.7071 33.348 16.9241 32.925 17.1658 32.5174C17.4598 32.0208 17.7912 31.5471 18.15 31.0908C18.1776 31.0558 18.0917 31.0868 18.1453 31.0186C18.4555 30.6254 18.7703 30.2495 19.1665 29.9215C19.2059 29.8891 19.2473 29.9676 19.3445 29.8546C19.3613 29.8343 19.5156 29.6717 19.5461 29.619C19.55 29.6116 19.4927 29.6102 19.5453 29.5602C19.5871 29.5206 19.6296 29.4814 19.6728 29.4425L19.5881 29.9706C19.4087 29.6632 19.2338 29.341 19.0763 29.0261C19.047 28.9673 19.1187 29.0066 19.0981 28.9645C18.9518 28.6659 18.7434 28.3696 18.6183 28.0758C18.5347 27.8791 18.6375 27.9104 18.6437 27.7767C18.6445 27.7577 18.5803 27.6432 18.6133 27.6163C18.6961 27.5483 18.8281 27.5456 18.9126 27.4666C18.9308 27.4497 18.8202 27.3104 18.9231 27.3713C18.9301 27.3756 19.0108 27.4764 19.0437 27.4937C19.0666 27.5057 19.0839 27.4502 19.1214 27.4801C19.159 27.5099 19.1525 27.5703 19.2074 27.6241C19.2625 27.6777 19.2883 27.6252 19.3672 27.7502ZM6.97521 22.0946C6.8712 22.1605 6.97832 22.2662 7.02766 22.1459C7.02992 22.14 6.98049 22.0912 6.97521 22.0946ZM15.4901 22.3387C15.4709 22.1735 15.3347 22.1315 15.3444 22.2503C15.3542 22.369 15.4961 22.389 15.4901 22.3387ZM16.3235 23.6858C16.2793 23.5053 16.0816 23.587 16.2143 23.7311C16.2219 23.7395 16.3261 23.6964 16.3235 23.6858ZM18.9229 28.2192C18.9239 28.2168 18.8783 28.134 18.8755 28.1331C18.8092 28.1133 18.9003 28.2787 18.9229 28.2192ZM17.1545 25.0203C17.1515 24.9577 17.0426 24.8353 17.0463 24.9131C17.0493 24.9757 17.1583 25.0982 17.1545 25.0203ZM3.63565 27.151C3.63283 27.1517 3.60193 27.2119 3.61391 27.2161C3.65249 27.2293 3.68264 27.1396 3.63565 27.151ZM18.4918 27.3317C18.3014 26.986 18.3335 26.6912 18.5312 27.0732C18.567 27.1424 18.399 26.9559 18.4349 27.0496C18.5005 27.2209 18.656 27.2701 18.6974 27.4597C18.7048 27.4941 18.5023 27.3516 18.4912 27.3312C18.4914 27.3313 18.4916 27.3315 18.4918 27.3317ZM6.7927 22.0359C6.78967 22.0365 6.73031 22.1091 6.7305 22.1121C6.73662 22.1813 6.85599 22.0352 6.7927 22.0359ZM2.11017 30.7971C2.10441 30.8007 2.03717 31.0082 2.03906 31.0162C2.08046 31.147 2.21606 30.7288 2.11017 30.7971ZM11.1744 17.493C11.2253 17.3918 11.3193 17.3115 11.4207 17.309C11.338 17.3688 11.2567 17.4317 11.1744 17.493Z" fill="#16181B"/>
<path d="M33.9532 39.129C33.9547 39.3398 33.9087 39.6126 33.8525 39.8148C33.8351 39.8781 33.8149 39.8408 33.8014 39.8838C33.775 39.9674 33.7705 40.0507 33.7387 40.1321C33.728 40.1589 33.6954 40.1147 33.6851 40.1429C33.629 40.2969 33.5971 40.448 33.5368 40.6024C33.2397 41.3596 32.8192 42.047 32.2601 42.6359C32.0758 42.831 31.8154 43.0263 31.6127 43.2116C31.5891 43.2334 31.6271 43.25 31.6243 43.2562C31.578 43.353 31.5566 43.2747 31.5013 43.3054C31.2813 43.4268 31.0529 43.5755 30.8538 43.7067C30.769 43.7624 30.8937 43.7758 30.784 43.7904C30.7765 43.7914 30.7799 43.7447 30.7536 43.7545C30.6942 43.7771 30.5922 43.8384 30.547 43.8573C30.4602 43.8936 30.4465 43.9005 30.3659 43.9374C30.2552 43.9873 30.1153 44.0249 29.997 44.0787C29.9717 44.0904 30.0204 44.115 29.9809 44.137C29.9416 44.1591 29.829 44.1947 29.7881 44.1979C29.7474 44.2013 29.7538 44.166 29.7449 44.1613C29.6719 44.1213 29.5681 44.2401 29.551 44.2468C29.2528 44.3674 28.9715 44.3728 28.6771 44.4085C28.4542 44.4355 28.2156 44.4646 28 44.4624C27.9982 44.4624 27.9964 44.4624 27.9946 44.4624C27.7363 44.4588 27.5217 44.4229 27.2739 44.3955C27.2477 44.3925 27.2723 44.4433 27.2402 44.4396C26.8987 44.3998 26.5629 44.3184 26.2485 44.1832C26.217 44.1696 26.2715 44.1438 26.2411 44.1278C26.0521 44.0324 25.7896 43.8353 25.6023 43.945C25.4766 43.8792 25.3265 43.7935 25.2347 43.6997C25.1758 43.6393 25.2663 43.6393 25.1712 43.6064C25.1498 43.5988 25.1548 43.6477 25.1241 43.6335C24.9944 43.5736 24.8712 43.4786 24.7445 43.4143C24.7186 43.4013 24.7045 43.4347 24.6942 43.4351C24.6075 43.4373 24.5663 43.2997 24.5509 43.2799C24.43 43.1283 24.3147 43.0546 24.1859 42.9357C24.1562 42.9079 24.1594 42.9756 24.1295 42.9499C23.975 42.8162 23.8298 42.6601 23.715 42.4957C23.6896 42.4591 23.7469 42.4633 23.7365 42.4445C23.6907 42.3622 23.6187 42.3952 23.5752 42.315C23.566 42.2981 23.5998 42.2848 23.6006 42.2797C23.6142 42.201 23.5194 42.2165 23.5093 42.2065C23.3826 42.0821 23.3907 41.9394 23.2895 41.8069C23.2773 41.7909 23.265 41.8529 23.2329 41.8061C23.0187 41.4941 22.8479 41.126 22.7493 40.7655C22.7339 40.7094 22.7793 40.7366 22.7818 40.7317C22.8207 40.6545 22.7283 40.6482 22.7189 40.6312C22.6475 40.4979 22.6763 40.3458 22.552 40.2755C22.4443 39.7788 22.347 39.2776 22.3805 38.7725C22.3888 38.6478 22.4049 38.5261 22.4308 38.404C22.4324 38.3962 22.4733 38.413 22.4762 38.3975C22.5137 38.2116 22.4465 38.2439 22.3811 38.1081C22.3648 38.0734 22.4729 37.9897 22.4812 37.9828C22.5113 37.956 22.5684 37.9964 22.5749 37.987C22.6262 37.9101 22.42 37.8917 22.4401 37.7755C22.441 37.772 22.4757 37.7937 22.4811 37.7847C22.4981 37.757 22.4888 37.7247 22.5073 37.6981C22.5501 37.6373 22.6524 37.635 22.6182 37.5228C22.614 37.5085 22.4948 37.5015 22.5252 37.4012C22.5366 37.3613 22.5838 37.1821 22.6067 37.1353C22.629 37.0883 22.6547 37.1332 22.6573 37.1302C22.7461 37.0137 22.7503 37.0698 22.8415 37.0289C22.9326 36.9893 22.7611 36.9497 22.7519 36.9166C22.7427 36.8835 22.8163 36.803 22.8386 36.7855C22.8608 36.7677 22.8721 36.8048 22.8875 36.7875C22.9894 36.6737 22.8301 36.6964 22.8224 36.6413C22.8054 36.51 22.9612 36.4803 23.0164 36.394C23.0315 36.3704 22.995 36.3781 23.0034 36.3544C23.0374 36.2607 23.1001 36.2269 23.1209 36.1107C23.124 36.092 23.1008 35.9731 23.1806 35.9508C23.192 35.9478 23.2079 35.9845 23.2355 35.9521C23.2765 35.9037 23.342 35.8118 23.37 35.7498C23.3906 35.7039 23.3145 35.7221 23.3632 35.6788C23.3849 35.6598 23.382 35.72 23.4205 35.683C23.4586 35.646 23.5339 35.5373 23.5634 35.4964C23.5925 35.4554 23.5437 35.4532 23.5439 35.4483C23.546 35.419 23.5902 35.3295 23.5958 35.3228C23.8634 34.9751 24.1948 34.7377 24.5061 34.4555C24.5308 34.4334 24.4869 34.414 24.4904 34.4103C24.5685 34.3252 24.5689 34.4697 24.6538 34.4514C24.5918 34.39 24.6379 34.3735 24.6961 34.3183C24.7242 34.2917 24.6875 34.2771 24.6883 34.2723C24.7045 34.197 24.776 34.2272 24.7919 34.2324C24.8512 34.2511 24.8516 34.1797 24.8916 34.1926C24.9311 34.2055 24.9102 34.2784 24.9722 34.2358C24.9727 34.1982 24.8804 34.1623 24.9216 34.1191C25.0772 33.9517 25.4719 33.8063 25.6346 33.7411C25.7969 33.6729 25.848 33.6467 25.947 33.6186C26.1267 33.5704 26.0422 33.5389 26.1421 33.4736C26.2436 33.4095 26.2372 33.5683 26.263 33.5931C26.2883 33.6181 26.2945 33.5816 26.3189 33.5921C26.3431 33.6026 26.3091 33.6363 26.3552 33.6283C26.401 33.6201 26.5058 33.5303 26.5134 33.4939C26.5286 33.4168 26.452 33.3605 26.5816 33.3528C26.589 33.3525 26.576 33.396 26.6039 33.3928C26.8235 33.3668 27.0478 33.325 27.2669 33.3227C27.2969 33.3225 27.2761 33.3689 27.2936 33.3692C27.4752 33.3751 27.4029 33.3106 27.4949 33.2201C27.4826 33.3298 27.5425 33.3891 27.6772 33.3815C27.7588 33.3774 27.7419 33.3313 27.7938 33.2959C27.8094 33.2853 27.8685 33.3159 27.8785 33.2936C27.9122 33.2208 27.8548 33.1397 28 33.1711C28.0001 33.1711 28.0001 33.1711 28.0002 33.1711C28.0024 33.1716 28.0014 33.1769 28 33.1836C27.9982 33.1925 27.9959 33.2038 28 33.21C28.0016 33.2125 28.0042 33.2142 28.0082 33.2147C28.1489 33.2315 28.1669 33.1559 28.3211 33.1545C28.4428 33.1533 28.6512 33.2194 28.7842 33.2467C28.7649 33.3662 28.8923 33.357 28.9582 33.284C29.0445 33.3024 29.1385 33.3163 29.2193 33.3462C29.247 33.3565 29.2205 33.3865 29.2232 33.391C29.2645 33.4614 29.3197 33.3913 29.3391 33.3928C29.547 33.413 29.6883 33.5207 29.8925 33.53C29.8997 33.5303 29.9395 33.4549 29.9678 33.5312C29.9694 33.5363 29.8953 33.5494 29.9807 33.5848C30.0667 33.6203 30.2083 33.7278 30.3399 33.7468C30.3716 33.7511 30.4731 33.7237 30.5057 33.8002C30.5099 33.8105 30.4908 33.8279 30.4955 33.8453C30.5105 33.901 30.5688 33.8353 30.5753 33.9206C30.5818 34.0061 30.6362 34.0967 30.7695 34.118C30.7736 34.1187 30.834 34.0761 30.8678 34.0982C30.9217 34.1332 30.9904 34.1941 31.0458 34.2309C31.0724 34.2486 31.079 34.2025 31.084 34.2049C31.2764 34.3078 31.3785 34.4313 31.544 34.5918C31.5741 34.621 31.7042 34.6588 31.7337 34.7482C31.765 34.846 31.5591 34.9317 31.7351 35.0358C31.8041 35.0772 32.0684 34.9743 32.0675 35.1771C32.2842 35.3722 32.3894 35.626 32.5847 35.8416C32.5935 35.8512 32.6772 35.8472 32.6928 35.8743C32.7156 35.9144 32.6994 35.9535 32.7141 35.9826C32.7747 36.105 32.86 36.201 32.9152 36.3214C32.936 36.3671 32.8968 36.3669 32.9208 36.4212C32.9445 36.4754 33.0035 36.4921 33.0157 36.5753C33.0247 36.6384 32.9608 36.7304 32.9794 36.8076C33.0673 36.7761 33.0864 36.8279 33.1432 36.9122C33.1541 36.9284 33.1778 36.8982 33.1846 36.9053C33.2129 36.9343 33.1986 36.9753 33.2271 37.0025C33.234 37.0092 33.2643 36.9994 33.2717 37.0043C33.3356 37.0463 33.2964 37.1624 33.2889 37.1816C33.2617 37.2564 33.3096 37.2735 33.3046 37.326C33.2992 37.3781 33.2577 37.3137 33.2615 37.3715C33.2692 37.4907 33.3076 37.636 33.328 37.7528C33.3364 37.7994 33.3723 37.7599 33.3745 37.7663C33.4033 37.8619 33.3734 37.9672 33.4649 38.0096C33.2563 38.1067 33.4949 38.0656 33.4664 38.2133C33.464 38.2248 33.3622 38.2488 33.3428 38.2085C33.3233 38.1684 33.3482 38.1011 33.3168 38.0466C33.3095 38.0332 33.2021 37.9703 33.1946 37.9611C33.1363 37.887 33.2866 37.8494 33.2943 37.8434C33.3763 37.7769 33.2546 37.7008 33.2423 37.6781C33.1862 37.5713 33.1843 37.4719 33.1363 37.3844C33.1049 37.3274 33.0055 37.3495 32.995 37.3024C32.9592 37.1472 33.0741 37.0445 32.9059 36.9428C32.8697 36.9212 32.7783 36.9911 32.8173 36.8518C32.82 36.8433 32.8611 36.7323 32.7944 36.7059C32.7861 36.7026 32.7565 36.7156 32.7507 36.7092C32.7126 36.6657 32.721 36.6217 32.6843 36.5725C32.6476 36.5235 32.5994 36.4671 32.5777 36.4016C32.5647 36.3622 32.5927 36.287 32.5959 36.2622C32.6058 36.1918 32.515 36.1736 32.5418 36.1176C32.5682 36.0604 32.6722 36.0816 32.652 35.9824C32.5781 36.0226 32.5001 36.0603 32.425 36.0995C32.3239 35.9269 32.2341 35.7481 32.1071 35.5904C32.0913 35.571 32.0713 35.6189 32.0535 35.599C31.9788 35.5154 31.9404 35.4191 31.8531 35.3402C31.7853 35.2793 31.683 35.2403 31.6089 35.183C31.637 35.0744 31.5126 34.9994 31.4427 34.9256C31.4181 34.8996 31.4369 34.882 31.4232 34.8588C31.3706 34.7721 31.3493 34.8663 31.3208 34.8594C31.1989 34.8317 31.3137 34.6765 31.2032 34.5966C31.1971 34.592 31.0661 34.6216 31.053 34.6202C30.9679 34.6096 31.0642 34.584 31.0303 34.5501C30.9681 34.4886 30.9316 34.4336 30.8299 34.4031C30.8 34.3942 30.7068 34.4107 30.6836 34.3389C30.6805 34.3295 30.7017 34.3026 30.6975 34.2978C30.6192 34.2124 30.5625 34.3034 30.4911 34.3045C30.4199 34.3057 30.3702 34.1966 30.3619 34.1686C30.3409 34.0962 30.4079 34.1659 30.4128 34.1626C30.4719 34.1214 30.4036 34.0976 30.3569 34.0683C30.3968 33.9713 30.3236 33.9423 30.3082 34.0383C30.3066 34.0488 30.3492 34.059 30.3569 34.0683C30.2675 34.138 30.1903 34.1147 30.1451 33.9895C30.1236 33.9311 30.1829 33.8989 30.052 33.8641C29.9927 33.8488 29.987 33.9242 29.9309 33.9228C29.8035 33.9198 29.6802 33.8048 29.5572 33.7778C29.5131 33.7682 29.5433 33.8187 29.513 33.8136C29.4328 33.8004 29.3717 33.7526 29.2888 33.747C29.2813 33.7465 29.2884 33.7908 29.264 33.7852C29.0789 33.7438 28.921 33.6855 28.7231 33.6566C28.6277 33.6423 28.4541 33.647 28.3552 33.6363C28.2439 33.6237 28.1185 33.5926 28 33.5783C27.9348 33.5703 27.8731 33.5673 27.8203 33.5743C27.7237 33.5873 27.7472 33.6279 27.7075 33.6581C27.6319 33.7163 27.4856 33.6317 27.4643 33.619C27.4637 33.6184 27.5455 33.6009 27.4993 33.584C27.4692 33.5426 27.4652 33.6188 27.4643 33.619C27.4508 33.61 27.2837 33.6206 27.2523 33.6339C27.2352 33.6407 27.2508 33.6779 27.2418 33.6807C27.0279 33.7477 26.8177 33.8028 26.5981 33.8461C26.5941 33.8464 26.5879 33.8028 26.5786 33.8041C26.4481 33.8214 26.3839 33.8988 26.2951 33.9637C26.206 34.029 26.1257 34.0495 26.0386 34.0042C25.9677 34.0433 25.8483 34.0603 25.7789 34.0712C25.7094 34.082 25.7384 34.1628 25.734 34.1668C25.5955 34.2961 25.4817 34.303 25.3155 34.3952C25.2363 34.4386 25.0942 34.5476 25.0212 34.6123C24.9634 34.6631 24.9144 34.675 24.8662 34.7284C24.8597 34.7356 24.8905 34.7596 24.8891 34.7625C24.8555 34.8463 24.8278 34.7506 24.8047 34.7477C24.721 34.7377 24.6707 34.7367 24.6109 34.8251C24.5967 34.8457 24.6333 34.9907 24.608 35.0244C24.5743 35.0685 24.5571 35.0193 24.5229 35.067C24.52 35.0711 24.5409 35.0918 24.5144 35.1152C24.3921 35.2238 24.2559 35.342 24.147 35.4738C24.1321 35.4917 24.1869 35.4994 24.1662 35.5256C24.0689 35.6486 23.9635 35.7831 23.8583 35.8964C23.8322 35.9242 23.8188 35.8862 23.8061 35.8874C23.7285 35.8962 23.7597 36.0041 23.7549 36.0145C23.6381 36.2715 23.4665 36.4237 23.3805 36.7017C23.3755 36.7173 23.4124 36.862 23.3203 36.8815C23.3142 36.8826 23.2194 36.9028 23.2539 36.9667C23.2561 36.9706 23.3064 36.9546 23.2822 37.0068C23.2578 37.0594 23.2534 37.1544 23.186 37.2157C23.1648 37.2348 23.0697 37.2688 23.1101 37.3593C23.1126 37.3661 23.2214 37.5139 23.1153 37.5284C23.0979 37.5308 22.9967 37.4983 23.0283 37.5988C23.0346 37.6179 23.0645 37.5931 23.0687 37.6402C23.0754 37.7121 23.0292 37.796 23.0608 37.8872C23.0663 37.9034 23.1264 37.9757 23.0654 38.0165C23.0558 38.023 23.0232 38.003 23.0154 38.0285C22.9782 38.1505 22.9871 38.285 22.9539 38.411C22.9422 38.456 22.8869 38.4288 22.8688 38.4762C22.8506 38.5237 22.8322 38.6205 22.8575 38.6718C22.8827 38.7228 22.9741 38.6694 22.9806 38.7438C22.9815 38.7534 22.9823 38.7629 22.9831 38.7725C23.009 39.0832 22.9868 39.3944 23.0369 39.7048C23.0447 39.7519 23.0689 39.7071 23.0832 39.7754C23.1327 40.0308 23.2924 40.4431 23.3175 40.6759C23.3362 40.8646 23.2087 40.6691 23.2425 40.8073C23.2597 40.875 23.3865 40.8979 23.3962 40.9107C23.4934 41.0388 23.5023 41.1567 23.585 41.2742C23.6021 41.2982 23.625 41.2521 23.6391 41.2725C23.6875 41.3419 23.7175 41.4277 23.7644 41.4939C23.7855 41.5235 23.8092 41.5001 23.8253 41.5291C23.8644 41.5984 23.8932 41.6638 23.9145 41.745C23.9165 41.7525 23.8551 41.7372 23.8891 41.7865C23.9443 41.8657 23.9951 41.9801 24.091 42.0458C24.1197 42.0651 24.1768 42.0176 24.1841 42.1046C24.1857 42.1226 24.1059 42.1682 24.219 42.1784C24.2382 42.1811 24.407 42.21 24.4061 42.3043C24.4058 42.3293 24.3863 42.4138 24.4232 42.4336C24.4283 42.4361 24.4409 42.3924 24.4671 42.4125C24.5591 42.4836 24.6458 42.568 24.7445 42.6347C24.7708 42.6524 24.7616 42.5906 24.7999 42.6176C24.9048 42.6918 25.025 42.7971 25.1206 42.8797C25.1558 42.9103 25.11 42.9201 25.1106 42.9251C25.121 43.0065 25.1945 42.9568 25.2119 42.9627C25.3208 43.0007 25.3728 43.0783 25.4675 43.1219C25.4935 43.1339 25.4957 43.0899 25.5023 43.0897C25.5699 43.0893 25.4971 43.1286 25.5257 43.1538C25.606 43.2246 25.7113 43.2762 25.809 43.3178C25.8448 43.3329 25.8252 43.2731 25.857 43.287C26.045 43.3679 26.2402 43.4507 26.4224 43.5372C26.4568 43.5536 26.4234 43.5793 26.4284 43.5894C26.4638 43.6598 26.5635 43.6103 26.5828 43.6083C26.6719 43.5996 26.695 43.6377 26.7679 43.6503C27.1224 43.7127 27.5581 43.7888 27.8994 43.8056C27.9334 43.8076 27.9669 43.8092 28 43.8106C28.3968 43.8259 28.7273 43.8175 29.1103 43.7258C29.1366 43.7194 29.0999 43.68 29.1222 43.6739C29.4099 43.5967 29.6958 43.5232 29.9659 43.3936C29.988 43.3831 29.9384 43.3564 29.973 43.3381C30.0439 43.3003 30.1359 43.2602 30.2148 43.2366C30.2532 43.2249 30.2225 43.2826 30.2611 43.27C30.351 43.2407 30.4413 43.1955 30.521 43.1412C30.5548 43.118 30.4791 43.1099 30.5244 43.0829C30.8323 42.8964 31.109 42.6823 31.4174 42.4775C31.4384 42.4635 31.5175 42.5153 31.5447 42.4649C31.5301 42.4437 31.5092 42.4223 31.4916 42.4015C31.8603 42.0262 32.2042 41.6262 32.4605 41.1596C32.4712 41.14 32.4103 41.151 32.4306 41.1132C32.5476 40.8931 32.6315 40.6692 32.7618 40.4445C32.7745 40.4221 32.8513 40.4627 32.8632 40.3864C32.8655 40.373 32.8893 40.2604 32.8795 40.2271C32.8779 40.2225 32.8339 40.2308 32.8431 40.1957C32.8969 39.9912 32.9539 39.779 33.0111 39.5732C33.0203 39.5399 33.0566 39.5827 33.0636 39.5589C33.1127 39.3895 33.0994 39.1976 33.1459 39.0321C33.1768 38.9215 33.2482 38.9656 33.3222 38.9064C33.3328 38.898 33.3356 38.826 33.3775 38.8225C33.4833 38.8134 33.5986 38.851 33.7114 38.8373C33.7359 38.8344 33.71 38.7302 33.7685 38.792C33.7725 38.7963 33.7912 38.8724 33.8106 38.8916C33.8241 38.9049 33.8673 38.8821 33.8843 38.9094C33.9013 38.9368 33.8647 38.9653 33.8836 39.0105C33.9026 39.056 33.9525 39.0379 33.9532 39.129ZM25.4659 34.1298C25.3903 34.1249 25.4556 34.2597 25.4973 34.1958C25.4992 34.1926 25.4697 34.13 25.4659 34.1298ZM32.3232 35.6855C32.3279 35.5787 32.2155 35.5913 32.2094 35.6683C32.2025 35.7445 32.3215 35.7175 32.3232 35.6855ZM32.8096 36.4039C32.8119 36.2921 32.6166 36.3761 32.7008 36.4483C32.7056 36.4525 32.8094 36.4104 32.8096 36.4039ZM33.3281 39.1934C33.3302 39.1927 33.3359 39.1411 33.334 39.1397C33.2886 39.1091 33.2774 39.2114 33.3281 39.1934ZM33.1778 37.1913C33.1964 37.1533 33.1373 37.078 33.1152 37.1257C33.0975 37.1636 33.1548 37.2382 33.1778 37.1913ZM23.0835 36.423C23.081 36.423 23.0629 36.4563 23.0747 36.461C23.1125 36.4759 23.1246 36.4239 23.0835 36.423ZM33.4135 38.6514C33.4156 38.4348 33.5788 38.2836 33.5731 38.5312C33.5716 38.5754 33.5128 38.4388 33.4997 38.4957C33.4758 38.598 33.5875 38.6641 33.5289 38.7705C33.5183 38.789 33.4133 38.6632 33.4133 38.651C33.4133 38.6511 33.4134 38.6513 33.4135 38.6514ZM25.3466 33.9905C25.3444 33.9893 25.2976 34.0135 25.2975 34.0159C25.2964 34.0711 25.3898 34.0228 25.3466 33.9905ZM22.4642 38.5491C22.4595 38.5518 22.4521 38.6754 22.4562 38.6796C22.5321 38.7445 22.547 38.4983 22.4642 38.5491ZM28.7858 33.2502C28.8501 33.2109 28.9223 33.2167 28.9579 33.2839C28.9012 33.2708 28.843 33.2612 28.7858 33.2502Z" fill="#16181B"/>
<path d="M22.6188 36.2371C22.5434 36.2086 22.4601 36.1444 22.401 36.0882C22.3825 36.0707 22.4066 36.054 22.3944 36.0409C22.3705 36.0152 22.337 36.0108 22.3144 35.9836C22.307 35.9745 22.3398 35.945 22.3316 35.9362C22.2862 35.8886 22.2292 35.868 22.1783 35.8284C21.9277 35.6328 21.6676 35.4645 21.4012 35.2886C21.3134 35.2306 21.2218 35.1338 21.1195 35.094C21.1076 35.0893 21.0957 35.125 21.0921 35.1264C21.0361 35.1478 21.0842 35.0897 21.0677 35.0688C21.0024 34.986 20.9098 34.9286 20.821 34.8938C20.7832 34.879 20.7814 34.9625 20.767 34.9068C20.766 34.903 20.7943 34.8742 20.7869 34.865C20.77 34.8444 20.7255 34.8268 20.7103 34.8145C20.6811 34.7905 20.6756 34.7878 20.6453 34.7698C20.6041 34.7449 20.5642 34.6994 20.515 34.6812C20.5044 34.6774 20.497 34.7195 20.4783 34.7166C20.4597 34.7137 20.421 34.6874 20.4122 34.6714C20.4033 34.6553 20.4248 34.6314 20.426 34.6237C20.4367 34.5595 20.3478 34.6057 20.3408 34.604C20.2135 34.5716 20.1436 34.4757 20.0408 34.4165C19.9627 34.3717 19.8713 34.3372 19.7981 34.2925C19.7111 34.239 19.647 34.1769 19.5592 34.1306C19.5499 34.1256 19.537 34.1726 19.5256 34.1667C19.4052 34.1035 19.2909 34.0316 19.1897 33.9363C19.1796 33.9268 19.2154 33.8996 19.2065 33.8879C19.1517 33.817 19.0788 33.6805 18.946 33.812C18.9008 33.7778 18.8453 33.7374 18.82 33.6807C18.8036 33.6443 18.8534 33.6209 18.8093 33.6177C18.7994 33.6169 18.7897 33.657 18.7763 33.6532C18.72 33.6374 18.6727 33.5953 18.6139 33.5849C18.6019 33.5829 18.5869 33.6151 18.5809 33.619C18.5316 33.6501 18.5351 33.5536 18.5296 33.5433C18.4877 33.4657 18.4311 33.454 18.3711 33.418C18.3571 33.4097 18.35 33.4605 18.3357 33.4539C18.2621 33.4193 18.1915 33.3738 18.1333 33.3158C18.1204 33.3028 18.1547 33.2759 18.1496 33.2679C18.1268 33.233 18.0814 33.2951 18.0588 33.263C18.054 33.2563 18.075 33.2284 18.0757 33.2244C18.087 33.1619 18.0285 33.2259 18.0228 33.2248C17.9495 33.212 17.9551 33.1131 17.8904 33.0902C17.8826 33.0875 17.8764 33.1346 17.8559 33.1248C17.7189 33.0597 17.5865 32.9694 17.4744 32.8641C17.457 32.8478 17.4878 32.8276 17.4886 32.8233C17.4997 32.7564 17.4438 32.8224 17.4356 32.8214C17.3723 32.8114 17.3595 32.7217 17.2736 32.7891C17.0717 32.6319 16.8248 32.5551 16.6525 32.3508C16.6503 32.3483 16.6762 32.3148 16.6716 32.31C16.6169 32.2512 16.5971 32.315 16.5133 32.3586C16.4922 32.3695 16.5066 32.2668 16.5071 32.2589C16.5092 32.2302 16.5516 32.1827 16.5505 32.1762C16.5402 32.1247 16.442 32.306 16.4014 32.2826C16.4003 32.2816 16.4246 32.2518 16.423 32.2466C16.4184 32.2302 16.4003 32.2372 16.3965 32.2199C16.3879 32.18 16.4295 32.0884 16.3641 32.118C16.3558 32.1219 16.3043 32.2272 16.2708 32.2014C16.2575 32.1911 16.1925 32.1559 16.1783 32.139C16.1642 32.1221 16.1953 32.0965 16.1949 32.0944C16.1715 32.0234 16.2001 32.0161 16.2128 31.9382C16.2254 31.8606 16.1445 32.0163 16.1248 32.0275C16.1052 32.0387 16.0904 31.9827 16.0888 31.9653C16.0873 31.9479 16.1101 31.9334 16.1064 31.9219C16.0816 31.8466 16.0404 31.9843 16.0096 31.9986C15.9369 32.0327 15.9708 31.9022 15.9408 31.8701C15.9326 31.8615 15.9259 31.8918 15.9157 31.8891C15.8756 31.8782 15.875 31.831 15.8168 31.8403C15.8073 31.8418 15.7363 31.891 15.7442 31.8294C15.7454 31.8206 15.7699 31.7973 15.7588 31.7825C15.742 31.7603 15.7057 31.7311 15.6765 31.7267C15.6549 31.7235 15.6484 31.7814 15.6345 31.7542C15.6284 31.7421 15.6622 31.7256 15.6494 31.7052C15.6367 31.6848 15.589 31.6588 15.5706 31.6495C15.5522 31.6401 15.5417 31.6808 15.5389 31.6823C15.5224 31.6908 15.4784 31.688 15.4754 31.6862C15.3203 31.6023 15.2136 31.462 15.0537 31.3957C15.0412 31.3905 15.0277 31.4319 15.0255 31.4315C14.9767 31.424 15.0649 31.3438 15.056 31.2948C15.0167 31.3722 15.0081 31.3491 14.9752 31.3411C14.9593 31.3373 14.9499 31.3706 14.947 31.3729C14.9014 31.4054 14.9203 31.3403 14.9235 31.3266C14.9349 31.276 14.8912 31.3183 14.8987 31.2844C14.906 31.2507 14.9512 31.2206 14.9239 31.2056C14.9009 31.228 14.8804 31.3098 14.8533 31.3093C14.7512 31.3078 14.6388 31.1694 14.58 31.1278C14.5213 31.0863 14.4984 31.0797 14.4678 31.0492C14.4127 30.9939 14.4066 31.0598 14.3523 31.0602C14.2979 31.0606 14.3916 30.9439 14.4017 30.913C14.4118 30.8821 14.3892 30.9069 14.3908 30.8876C14.3924 30.8684 14.4186 30.8585 14.4052 30.8432C14.3918 30.8279 14.3177 30.8504 14.2952 30.8758C14.2474 30.9296 14.2311 31.0055 14.1998 30.9575C14.198 30.9547 14.2257 30.9257 14.2179 30.9167C14.1555 30.8461 14.0759 30.798 14.0118 30.7304C14.0031 30.7211 14.0342 30.6891 14.0293 30.6832C13.9787 30.622 13.9653 30.6985 13.8894 30.7483C13.9513 30.6595 13.9647 30.5911 13.9161 30.5623C13.8869 30.5449 13.8684 30.5886 13.8328 30.6064C13.8221 30.6118 13.8175 30.5718 13.8026 30.5888C13.754 30.6443 13.733 30.7258 13.6987 30.6688C13.6973 30.6661 13.7242 30.6359 13.7177 30.6294C13.6761 30.5872 13.6324 30.6494 13.5743 30.6265C13.5289 30.6086 13.4775 30.5256 13.4335 30.4915C13.4952 30.3871 13.4362 30.3851 13.3762 30.447C13.3469 30.4262 13.3111 30.411 13.287 30.3837C13.2787 30.3743 13.303 30.3478 13.3036 30.3438C13.3134 30.2807 13.2593 30.3434 13.251 30.3423C13.1631 30.3274 13.135 30.2399 13.0358 30.2522C13.0322 30.2527 12.9861 30.3233 12.9984 30.2594C12.9993 30.2551 13.0413 30.235 13.0103 30.2137C12.9793 30.1924 12.9406 30.1179 12.8759 30.1256C12.8603 30.1275 12.7985 30.1707 12.803 30.1117C12.8037 30.1037 12.819 30.0846 12.8215 30.0705C12.8291 30.0254 12.779 30.0948 12.799 30.0228C12.8189 29.9508 12.8123 29.8845 12.7419 29.9014C12.7397 29.9018 12.6952 29.9541 12.6814 29.9449C12.6594 29.9302 12.634 29.8993 12.6099 29.8859C12.5984 29.8795 12.5848 29.92 12.5824 29.9195C12.4938 29.8955 12.4579 29.8316 12.3837 29.77C12.3701 29.7587 12.2982 29.7831 12.2916 29.7272C12.2843 29.6658 12.4201 29.5067 12.3219 29.5066C12.2823 29.5064 12.1142 29.7107 12.1284 29.5627C12.008 29.5319 11.9468 29.4167 11.819 29.3981C11.8133 29.3973 11.7621 29.4518 11.7516 29.4446C11.7361 29.4338 11.7442 29.3992 11.7337 29.3905C11.69 29.3535 11.6308 29.3529 11.586 29.3218C11.569 29.3101 11.5928 29.2832 11.5725 29.2692C11.5522 29.2552 11.5148 29.2872 11.4972 29.2512C11.4839 29.2238 11.5095 29.1292 11.4861 29.1029C11.4383 29.1832 11.4194 29.1701 11.3717 29.1711C11.3626 29.1713 11.3536 29.2037 11.3484 29.2052C11.3269 29.2122 11.3283 29.1819 11.3068 29.1905C11.3016 29.1926 11.2855 29.2201 11.2803 29.2234C11.2359 29.252 11.2372 29.1698 11.2375 29.1556C11.2385 29.1013 11.2071 29.1311 11.199 29.1049C11.1909 29.0786 11.2287 29.0734 11.214 29.0519C11.1836 29.0072 11.1268 28.9804 11.0847 28.9544C11.0678 28.9442 11.0581 28.9878 11.0552 28.9872C11.0145 28.9761 11.0014 28.9163 10.9394 28.9784C11.0246 28.7743 10.9074 28.9846 10.8789 28.9174C10.8767 28.912 10.9235 28.8192 10.9464 28.8148C10.9693 28.8105 10.9762 28.8519 11.0093 28.8436C11.0171 28.8417 11.0945 28.7741 11.1013 28.7712C11.1551 28.7491 11.0819 28.8859 11.0793 28.8942C11.0518 28.9845 11.1393 28.914 11.1521 28.9131C11.2111 28.9088 11.2361 28.9485 11.2834 28.9484C11.3142 28.9485 11.3672 28.8619 11.3838 28.8751C11.4391 28.9189 11.3894 29.0538 11.5078 28.9802C11.5331 28.9646 11.5765 28.8614 11.5766 28.9623C11.5766 28.9687 11.5691 29.0566 11.6132 29.0237C11.6187 29.0195 11.6348 28.9915 11.6393 28.9909C11.6689 28.9877 11.6699 29.0181 11.6988 29.0205C11.7277 29.0229 11.7642 29.0227 11.7846 29.0472C11.7969 29.0619 11.7868 29.1256 11.7869 29.1427C11.7868 29.1917 11.8443 29.1444 11.8316 29.1966C11.8189 29.249 11.7539 29.3022 11.7717 29.3511C11.815 29.279 11.8611 29.206 11.9054 29.134C11.9798 29.1803 12.0407 29.2469 12.1186 29.2876C12.1283 29.2926 12.1413 29.2479 12.1523 29.2522C12.1985 29.2706 12.2196 29.32 12.2703 29.3344C12.3096 29.3454 12.371 29.3257 12.4128 29.3359C12.3866 29.4318 12.4561 29.4342 12.4902 29.4641C12.5022 29.4745 12.4885 29.4962 12.4939 29.5091C12.5147 29.5568 12.5402 29.4734 12.5568 29.4676C12.628 29.4427 12.5355 29.6115 12.5881 29.6364C12.5909 29.6378 12.6747 29.5677 12.6824 29.5648C12.7317 29.5452 12.6693 29.5984 12.6833 29.6153C12.709 29.6461 12.7193 29.6804 12.7726 29.6764C12.7882 29.6751 12.8468 29.6352 12.8437 29.6905C12.8434 29.6978 12.8248 29.7262 12.8261 29.7293C12.8511 29.7819 12.9054 29.6902 12.9471 29.6727C12.9889 29.6551 12.9887 29.7399 12.9856 29.7626C12.9776 29.8213 12.9589 29.7743 12.9552 29.7783C12.9108 29.8266 12.943 29.8325 12.9607 29.8489C12.9114 29.9411 12.943 29.9521 12.9792 29.8656C12.9831 29.8562 12.9624 29.8554 12.9607 29.8489C13.0298 29.7705 13.0677 29.7773 13.0544 29.8802C13.0482 29.9284 13.0067 29.9649 13.0655 29.9767C13.0922 29.9821 13.1195 29.9149 13.149 29.9093C13.2165 29.8966 13.2415 29.9884 13.2932 30.0061C13.312 30.0125 13.3152 29.9689 13.3287 29.9722C13.3647 29.9806 13.3768 30.0217 13.4151 30.0263C13.4186 30.0267 13.4324 29.9871 13.4422 29.9921C13.517 30.0298 13.5668 30.089 13.642 30.1333C13.6784 30.1547 13.755 30.1727 13.7906 30.1985C13.8523 30.243 13.903 30.3414 13.9663 30.3612C14.0075 30.3742 14.0201 30.3339 14.0498 30.3186C14.1072 30.2889 14.1119 30.4042 14.1115 30.4214C14.1115 30.422 14.0752 30.4122 14.0814 30.4403C14.0691 30.4841 14.1111 30.4214 14.1115 30.4214C14.1114 30.4326 14.1695 30.477 14.1859 30.4773C14.1948 30.4775 14.2106 30.4415 14.2149 30.4422C14.3163 30.4605 14.4054 30.5004 14.4814 30.5654C14.4825 30.5669 14.4584 30.6035 14.4613 30.6066C14.5009 30.6519 14.5591 30.6239 14.6157 30.6199C14.6722 30.6159 14.6991 30.6437 14.6857 30.7225C14.7211 30.7321 14.7485 30.7862 14.7638 30.8182C14.779 30.8503 14.8251 30.7787 14.8282 30.7785C14.9246 30.772 14.9404 30.8374 15.0087 30.8856C15.0411 30.9086 15.1153 30.9372 15.1571 30.9506C15.1901 30.961 15.1978 30.9885 15.2312 30.993C15.2357 30.9937 15.251 30.9588 15.2528 30.9581C15.3056 30.9363 15.2449 31.0081 15.2428 31.026C15.2354 31.0911 15.2333 31.1269 15.2861 31.1247C15.2982 31.1242 15.3908 31.0238 15.4109 31.0264C15.437 31.0301 15.4051 31.0668 15.433 31.0696C15.4354 31.0699 15.4497 31.0441 15.4627 31.0531C15.5233 31.0946 15.5838 31.1493 15.6511 31.1847C15.6602 31.1897 15.672 31.1425 15.6856 31.149C15.7494 31.1794 15.8153 31.2195 15.8638 31.2727C15.8756 31.286 15.8501 31.309 15.8484 31.3193C15.8385 31.3814 15.9088 31.3234 15.9142 31.3246C16.0435 31.3518 16.088 31.4668 16.2173 31.499C16.2244 31.5006 16.3166 31.4481 16.298 31.528C16.2969 31.5334 16.2772 31.6148 16.3228 31.5777C16.3256 31.5754 16.3335 31.5322 16.3537 31.5487C16.3739 31.5652 16.4236 31.562 16.4315 31.619C16.434 31.637 16.4169 31.7197 16.4778 31.6811C16.4819 31.6783 16.5988 31.579 16.5649 31.6745C16.5593 31.6902 16.5038 31.78 16.5654 31.7531C16.5772 31.7478 16.577 31.7205 16.6018 31.7178C16.6397 31.7136 16.6609 31.7584 16.7171 31.7367C16.727 31.7327 16.7871 31.6848 16.7794 31.7431C16.7782 31.7522 16.7548 31.7794 16.7631 31.7887C16.8026 31.8334 16.8657 31.8426 16.9032 31.8924C16.9165 31.91 16.8791 31.9541 16.8898 31.9779C16.9005 32.0017 16.9302 32.0357 16.9624 32.0243C16.9946 32.0128 17.019 31.9222 17.0514 31.9325C17.1923 31.9774 17.2896 32.0951 17.4107 32.1739C17.4286 32.1857 17.4295 32.1487 17.4571 32.1639C17.559 32.2199 17.748 32.2939 17.8009 32.4041C17.8433 32.4924 17.7342 32.478 17.7764 32.5283C17.7969 32.5525 17.8775 32.4773 17.8854 32.478C17.9632 32.4839 17.9821 32.5488 18.0441 32.568C18.0569 32.572 18.0671 32.5285 18.0778 32.5323C18.1144 32.5449 18.1394 32.5814 18.1726 32.5965C18.1875 32.6032 18.2012 32.5734 18.213 32.5831C18.2412 32.6059 18.2618 32.6336 18.2767 32.6776C18.2781 32.6816 18.2392 32.7061 18.2614 32.7206C18.2974 32.7441 18.3284 32.7969 18.3868 32.7946C18.4042 32.7938 18.442 32.7294 18.4435 32.7898C18.4438 32.8025 18.3917 32.8759 18.4622 32.8271C18.474 32.8191 18.5796 32.7594 18.5721 32.8329C18.5702 32.8522 18.5511 32.9259 18.5722 32.9247C18.5751 32.9243 18.5869 32.8848 18.6015 32.8887C18.6526 32.9031 18.6972 32.9338 18.7492 32.9494C18.7632 32.9535 18.7657 32.907 18.7858 32.9142C18.8412 32.9341 18.8984 32.9794 18.941 33.0189C18.9566 33.0335 18.9269 33.0561 18.9264 33.0601C18.9171 33.125 18.9706 33.0611 18.98 33.061C19.038 33.0614 19.0519 33.1139 19.0973 33.1283C19.1097 33.1324 19.1214 33.0939 19.1254 33.0922C19.1653 33.0759 19.1131 33.1269 19.1238 33.142C19.1534 33.1845 19.2003 33.2079 19.2439 33.2273C19.2599 33.2343 19.2656 33.1852 19.2798 33.192C19.3639 33.2315 19.445 33.2834 19.5108 33.3503C19.5231 33.3629 19.4963 33.3878 19.4954 33.3965C19.4887 33.4571 19.5578 33.409 19.5685 33.4069C19.6175 33.3969 19.6147 33.431 19.6462 33.4425C19.8006 33.4985 19.9632 33.616 20.089 33.7032C20.253 33.8167 20.37 33.9226 20.5385 34.01C20.5492 34.0156 20.5619 33.9692 20.5714 33.9735C20.6932 34.0309 20.7985 34.1126 20.9215 34.1682C20.9316 34.1728 20.9399 34.1267 20.9568 34.1328C20.9916 34.1452 21.0302 34.1702 21.0549 34.2008C21.0671 34.2156 21.0273 34.2364 21.0399 34.2506C21.0692 34.2839 21.1066 34.3091 21.1474 34.3245C21.1649 34.331 21.1634 34.2781 21.1843 34.2896C21.3272 34.3669 21.4692 34.4399 21.5822 34.5726C21.5899 34.5817 21.5526 34.6659 21.5821 34.6627C21.5964 34.6416 21.6113 34.6156 21.6256 34.5925C21.8376 34.698 22.0244 34.8425 22.2273 34.9653C22.2358 34.9705 22.2451 34.9198 22.2618 34.9296C22.3585 34.9862 22.4594 35.0289 22.5345 35.128C22.542 35.1378 22.4942 35.2088 22.5297 35.2144C22.536 35.2153 22.5854 35.2307 22.6059 35.2211C22.6089 35.2196 22.6208 35.1805 22.6355 35.1876C22.7203 35.2296 22.8015 35.287 22.871 35.3552C22.8822 35.3663 22.8469 35.395 22.8547 35.4032C22.91 35.4611 22.9986 35.475 23.043 35.5451C23.0726 35.5922 23.0202 35.6467 23.0067 35.7223C23.0048 35.733 23.0304 35.7496 23.0107 35.7868C22.9614 35.8803 22.8907 35.9732 22.8396 36.0737C22.8286 36.0954 22.877 36.0932 22.8268 36.1319C22.8234 36.1344 22.788 36.1365 22.7718 36.1501C22.7605 36.1594 22.747 36.201 22.7293 36.2111C22.7115 36.2211 22.7196 36.1844 22.6944 36.1938C22.6691 36.2033 22.6513 36.2492 22.6188 36.2371ZM14.8329 30.9619C14.8359 31.0108 14.9141 30.8833 14.8709 30.8996C14.8687 30.9006 14.8326 30.9595 14.8329 30.9619ZM11.9839 29.3444C11.9816 29.4192 12.0511 29.3473 12.0549 29.2907C12.0587 29.2341 11.9846 29.3216 11.9839 29.3444ZM11.6419 29.2025C11.6518 29.2683 11.7634 29.0879 11.7036 29.1028C11.7002 29.1036 11.6414 29.1987 11.6419 29.2025ZM22.8914 35.6795C22.8907 35.6814 22.9087 35.694 22.9102 35.6926C22.944 35.6573 22.908 35.6321 22.8914 35.6795ZM11.3003 29.0658C11.2971 29.0971 11.3459 29.087 11.3498 29.0481C11.353 29.0168 11.3042 29.0269 11.3003 29.0658ZM15.9763 31.8064C15.9755 31.8085 15.9881 31.8181 15.9941 31.807C16.0135 31.7714 15.9889 31.7703 15.9763 31.8064ZM10.7629 28.7584C10.8381 28.811 10.7986 28.9905 10.7222 28.9235C10.7084 28.9114 10.7838 28.8946 10.7718 28.8694C10.7498 28.8235 10.6707 28.9048 10.663 28.8324C10.6617 28.8191 10.7588 28.755 10.7632 28.7583C10.7631 28.7583 10.763 28.7583 10.7629 28.7584ZM14.7565 31.1253C14.756 31.1273 14.7739 31.1397 14.7753 31.1383C14.8093 31.1031 14.7733 31.0779 14.7565 31.1253ZM16.7233 32.3444C16.7222 32.3487 16.7639 32.3773 16.7673 32.3748C16.8289 32.3207 16.7447 32.2626 16.7233 32.3444ZM13.4344 30.4883C13.39 30.5178 13.3626 30.5085 13.3762 30.4471C13.395 30.4616 13.4153 30.4739 13.4344 30.4883Z" fill="#16181B"/>
</svg>
