<svg width="80" height="60" viewBox="0 0 80 60" fill="none" xmlns="http://www.w3.org/2000/svg">
<g clip-path="url(#clip0_4095_8332)">
<path fill-rule="evenodd" clip-rule="evenodd" d="M0 0H80V60H0V0Z" fill="#229E45"/>
<path fill-rule="evenodd" clip-rule="evenodd" d="M40.1749 54.5L77.8625 30.0375L39.95 5.5L2.13745 30.0875L40.1749 54.5Z" fill="#F8E509"/>
<path fill-rule="evenodd" clip-rule="evenodd" d="M56.6 30C56.6 38.7875 49.4625 45.9125 40.65 45.9125C37.5009 45.9075 34.4239 44.969 31.8081 43.2156C29.1922 41.4622 27.155 38.9726 25.9539 36.0615C24.7527 33.1505 24.4417 29.9486 25.06 26.8608C25.6783 23.7729 27.1982 20.9377 29.4276 18.7136C31.657 16.4894 34.4958 14.9762 37.585 14.3652C40.6743 13.7541 43.8754 14.0727 46.7837 15.2807C49.6919 16.4887 52.1767 18.5318 53.924 21.1517C55.6712 23.7717 56.6025 26.8509 56.6 30Z" fill="#2B49A3"/>
<path fill-rule="evenodd" clip-rule="evenodd" d="M35.4125 39.5373L34.9125 39.2498L34.4125 39.4998L34.5251 38.9373L34.125 38.5123L34.6875 38.4498L34.9626 37.9498L35.2001 38.4748L35.75 38.5748L35.3376 38.9498M46.0876 42.2373L45.6 41.9498L45.1 42.1998L45.2001 41.6373L44.8125 41.2248L45.375 41.1623L45.6376 40.6498L45.8876 41.1748L46.4375 41.2748L46.0126 41.6623M41.4875 37.9123L41.0625 37.6623L40.625 37.8873L40.725 37.3998L40.375 37.0373L40.875 36.9873L41.1 36.5373L41.3 36.9998L41.7875 37.0873L41.4125 37.4248M52.2875 36.3623L51.8625 36.1123L51.425 36.3373L51.5251 35.8498L51.1875 35.4998L51.675 35.4498L51.9001 35.0123L52.1 35.4623L52.5751 35.5498L52.2126 35.8748M41.3 33.1248L40.8 32.8498L40.3 33.0998L40.4001 32.5248L40.0126 32.1123L40.5751 32.0498L40.8376 31.5373L41.0876 32.0623L41.6376 32.1623L41.2126 32.5623M28.1376 28.1873L27.6376 27.9123L27.1376 28.1623L27.2626 27.5873L26.85 27.1748L27.425 27.1123L27.675 26.5998L27.925 27.1248L28.475 27.2248L28.0625 27.6123M29.725 34.7623L29.225 34.4748L28.725 34.7248L28.8375 34.1623L28.4375 33.7498L29 33.6748L29.2626 33.1748L29.5126 33.6998L30.0625 33.7998L29.65 34.1873M46.1501 25.7748L45.7001 25.5248L45.25 25.7498L45.35 25.2498L45 24.8748L45.5 24.8123L45.7375 24.3623L45.9501 24.8373L46.4501 24.9248L46.0751 25.2623M45.2375 30.0498L44.9001 29.8498L44.5375 30.0248L44.6125 29.6248L44.3376 29.3373L44.7375 29.2873L44.925 28.9373L45.0876 29.3123L45.4626 29.3748L45.1875 29.6498M27.4125 35.9498L27.0751 35.7623L26.7375 35.9248L26.8125 35.5498L26.55 35.2748L26.925 35.2248L27.1 34.8873L27.2626 35.2373L27.6376 35.3123L27.35 35.5623M52.375 37.4748L52.1 37.3373L51.8251 37.4623L51.8876 37.1748L51.675 36.9748L51.975 36.9373L52.125 36.6873L52.25 36.9373L52.5625 36.9998L52.3251 37.1873" fill="#FFFFEF"/>
<path fill-rule="evenodd" clip-rule="evenodd" d="M27.4125 35.9502L27.0751 35.7627L26.7375 35.9252L26.8125 35.5502L26.55 35.2752L26.925 35.2252L27.1 34.8877L27.2626 35.2377L27.6376 35.3127L27.35 35.5627" fill="#FFFFEF"/>
<path fill-rule="evenodd" clip-rule="evenodd" d="M27.4125 35.9498L27.0751 35.7623L26.7375 35.9248L26.8125 35.5498L26.55 35.2748L26.925 35.2248L27.1 34.8873L27.2626 35.2373L27.6376 35.3123L27.35 35.5623M32.6376 35.9373L32.3125 35.7623L31.975 35.9248L32.05 35.5498L31.7875 35.2748L32.1625 35.2248L32.3376 34.8873L32.5 35.2373L32.875 35.2998L32.5876 35.5623M31.9875 37.6873L31.6625 37.4998L31.3251 37.6748L31.4 37.2998L31.1376 37.0123L31.5126 36.9623L31.6875 36.6248L31.85 36.9748L32.225 37.0498L31.9375 37.2998M42.8625 34.5248L42.5375 34.3248L42.1875 34.4998L42.2626 34.1248L42.0126 33.8373L42.3876 33.7998L42.5625 33.4623L42.7126 33.8123L43.0876 33.8748L42.8125 34.1373M39.675 34.5123L39.3376 34.3248L39 34.4998L39.0751 34.1248L38.8251 33.8373L39.2001 33.7998L39.375 33.4498L39.5251 33.8123L39.9001 33.8748L39.625 34.1373M31.025 33.4123L30.8125 33.2873L30.6 33.3873L30.65 33.1498L30.4875 32.9748L30.725 32.9498L30.8251 32.7373L30.925 32.9623L31.1625 32.9998L30.9875 33.1623M51.9626 38.8373L51.6376 38.6498L51.3 38.8248L51.375 38.4498L51.1125 38.1623L51.4875 38.1123L51.6625 37.7748L51.8251 38.1248L52.2001 38.1998L51.9125 38.4498M49.3125 39.1998L49.0375 39.0248L48.75 39.1748L48.8125 38.8498L48.6 38.6248L48.9125 38.5873L49.0625 38.2998L49.1875 38.5998L49.5 38.6498L49.2626 38.8748M50.5625 39.1623L50.3125 39.0123L50.05 39.1373L50.1 38.8498L49.9001 38.6373L50.1875 38.5998L50.3251 38.3498L50.4501 38.5998L50.7375 38.6623L50.5251 38.8623M54.1625 36.0123L53.9125 35.8873L53.6625 36.0123L53.725 35.7248L53.5251 35.5123L53.8125 35.4748L53.9375 35.2248L54.0625 35.4873L54.3251 35.5373L54.125 35.7373M49.2751 40.9623L48.9626 40.7873L48.625 40.9373L48.7001 40.5873L48.4501 40.3373L48.8251 40.2998L48.9875 39.9873L49.1376 40.3123L49.5126 40.3748L49.225 40.6123M49.3 42.3873L49 42.2123L48.7001 42.3748L48.7751 42.0248L48.5375 41.7748L48.875 41.7248L49.0251 41.4123L49.1625 41.7373L49.5 41.7998L49.25 42.0498M46.875 39.1623L46.6376 39.0123L46.3876 39.1373L46.4375 38.8623L46.25 38.6498L46.5251 38.6248L46.6501 38.3748L46.7751 38.6248L47.05 38.6748L46.85 38.8748M44.625 39.1623L44.375 39.0123L44.125 39.1373L44.1875 38.8623L43.9875 38.6498L44.2751 38.6248L44.4001 38.3748L44.5251 38.6248L44.7875 38.6748L44.5876 38.8748M40.7875 35.7998L40.5375 35.6623L40.2875 35.7873L40.35 35.4998L40.1501 35.2998L40.425 35.2623L40.55 35.0123L40.675 35.2623L40.9501 35.3248L40.75 35.5123M41.2126 42.6373L41.0126 42.5248L40.7875 42.6373L40.8376 42.3873L40.675 42.2123L40.9125 42.1873L41.0251 41.9748L41.125 42.1998L41.3625 42.2373L41.1875 42.3998M35.4125 31.5748L34.9125 31.2873L34.4125 31.5373L34.5251 30.9748L34.125 30.5623L34.6875 30.4873L34.9626 29.9873L35.2001 30.5123L35.75 30.6123L35.3376 30.9998" fill="#FFFFEF"/>
<path fill-rule="evenodd" clip-rule="evenodd" d="M55.55 35.7248C55.8595 34.9212 56.1019 34.0933 56.275 33.2498C47.8 25.8123 38.3625 21.9998 26.4375 22.7873C26.0053 23.6243 25.6497 24.4987 25.375 25.3998C39.5 24.0498 49.875 30.2998 55.55 35.7248Z" fill="white"/>
<path d="M51.75 31.55L52.0375 31.7125C51.9903 31.796 51.9769 31.8944 52 31.9875C52.0293 32.078 52.0919 32.1539 52.175 32.2C52.2584 32.2667 52.3417 32.2958 52.425 32.2875C52.5 32.2875 52.5542 32.2583 52.5875 32.2L52.6125 32.0875L52.55 31.9625C52.525 31.9208 52.4625 31.8458 52.3625 31.7375C52.2608 31.6306 52.1839 31.5026 52.1375 31.3625C52.1135 31.2561 52.1249 31.1448 52.1701 31.0455C52.2152 30.9462 52.2916 30.8644 52.3875 30.8125C52.4788 30.7761 52.5788 30.7674 52.675 30.7875C52.7925 30.8146 52.9032 30.8656 53 30.9375C53.175 31.0625 53.2834 31.1958 53.325 31.3375C53.3431 31.4076 53.3458 31.4808 53.3328 31.552C53.3199 31.6232 53.2916 31.6908 53.25 31.75L52.95 31.5625C52.9917 31.4792 53 31.4083 52.975 31.35C52.9584 31.2833 52.9084 31.225 52.825 31.175C52.7617 31.1218 52.6826 31.0911 52.6 31.0875C52.5774 31.0867 52.5549 31.0921 52.5351 31.1032C52.5153 31.1142 52.4988 31.1304 52.4875 31.15C52.4625 31.1833 52.4584 31.225 52.475 31.275C52.4917 31.3417 52.5584 31.4333 52.675 31.55C52.7917 31.6667 52.875 31.7708 52.925 31.8625C52.9682 31.9448 52.9876 32.0376 52.9809 32.1303C52.9743 32.2231 52.942 32.3121 52.8875 32.3875C52.8296 32.473 52.7467 32.5385 52.65 32.575C52.5563 32.6182 52.4515 32.6313 52.35 32.6125C52.2417 32.5875 52.125 32.5333 52 32.45C51.8167 32.325 51.7042 32.1875 51.6625 32.0375C51.6395 31.9535 51.6343 31.8657 51.6472 31.7796C51.6601 31.6935 51.6909 31.611 51.7375 31.5375L51.75 31.55ZM50.3 30.6L50.6125 30.7625C50.5695 30.8477 50.5606 30.946 50.5875 31.0375C50.6195 31.1233 50.6817 31.1944 50.7625 31.2375C50.8542 31.3042 50.9375 31.3292 51.0125 31.3125C51.0875 31.3125 51.1417 31.2792 51.175 31.2125L51.2 31.1125C51.2 31.0708 51.1792 31.0292 51.1375 30.9875L50.9375 30.7625C50.7959 30.6292 50.7125 30.5125 50.6875 30.4125C50.6694 30.3479 50.6645 30.2802 50.6731 30.2137C50.6817 30.1471 50.7036 30.0829 50.7375 30.025C50.7872 29.9497 50.8563 29.8892 50.9375 29.85C51.0238 29.8118 51.1192 29.7988 51.2125 29.8125C51.3281 29.832 51.4387 29.8745 51.5375 29.9375C51.7292 30.0625 51.8417 30.1917 51.875 30.325C51.8987 30.3951 51.9064 30.4696 51.8978 30.5431C51.8891 30.6166 51.8643 30.6873 51.825 30.75L51.5125 30.575C51.5542 30.4917 51.5625 30.4208 51.5375 30.3625C51.5042 30.2792 51.45 30.2208 51.375 30.1875C51.3067 30.1362 51.2229 30.1097 51.1375 30.1125C51.117 30.1139 51.0971 30.1203 51.0797 30.1312C51.0622 30.1421 51.0478 30.1572 51.0375 30.175C51.0125 30.2083 51.0084 30.25 51.025 30.3C51.05 30.3667 51.1209 30.4583 51.2375 30.575C51.3625 30.7 51.4459 30.8 51.4875 30.875C51.5362 30.9539 51.562 31.0448 51.562 31.1375C51.562 31.2302 51.5362 31.3211 51.4875 31.4C51.4348 31.4882 51.3563 31.558 51.2625 31.6C51.1688 31.6432 51.064 31.6563 50.9625 31.6375C50.8339 31.6158 50.7107 31.569 50.6 31.5C50.4384 31.4139 50.3139 31.2716 50.25 31.1C50.2233 31.0177 50.214 30.9308 50.2226 30.8448C50.2312 30.7587 50.2575 30.6753 50.3 30.6ZM48.525 30.125L49.4375 28.625L50.5375 29.3125L50.3875 29.5625L49.5875 29.0625L49.3875 29.4L50.1375 29.8625L49.975 30.1125L49.225 29.65L48.975 30.0625L49.8125 30.5625L49.6625 30.8125L48.525 30.125ZM45.9375 28L46.075 27.75L46.75 28.0875L46.4375 28.7125C46.3375 28.7375 46.2125 28.7458 46.0625 28.7375C45.9183 28.7228 45.7782 28.6804 45.65 28.6125C45.4997 28.5374 45.3707 28.4256 45.275 28.2875C45.1891 28.1581 45.1454 28.0053 45.15 27.85C45.158 27.6886 45.2006 27.5309 45.275 27.3875C45.3501 27.2372 45.4619 27.1082 45.6 27.0125C45.7314 26.9196 45.8892 26.8714 46.05 26.875C46.1667 26.875 46.3 26.9167 46.45 27C46.65 27.0917 46.7792 27.2083 46.8375 27.35C46.9025 27.4865 46.9158 27.6419 46.875 27.7875L46.5375 27.6875C46.5582 27.6038 46.5494 27.5155 46.5125 27.4375C46.4792 27.3625 46.4125 27.3042 46.3125 27.2625C46.2537 27.2307 46.1891 27.2109 46.1226 27.2045C46.056 27.198 45.9888 27.205 45.925 27.225C45.8 27.2667 45.6917 27.375 45.6 27.55C45.5084 27.725 45.4792 27.8833 45.5125 28.025C45.5319 28.0892 45.5641 28.1489 45.607 28.2004C45.65 28.252 45.7029 28.2943 45.7625 28.325C45.8292 28.3667 45.9 28.3875 45.975 28.3875H46.2L46.3 28.1875L45.9375 28ZM34.6625 25.2125L34.9125 23.4625L35.4375 23.55L35.575 24.775L36.0625 23.65L36.5875 23.725L36.3375 25.45L36 25.4L36.2125 24.0375L35.6625 25.35L35.325 25.3L35.1875 23.8875L34.9875 25.2625L34.6625 25.2125ZM32.9 25L33.0625 23.25L34.35 23.375L34.325 23.675L33.3875 23.5875L33.35 23.9625L34.225 24.05L34.1875 24.35L33.3125 24.2625L33.275 24.7375L34.25 24.825L34.225 25.125L32.9 25Z" fill="#309E3A"/>
<path d="M27.0625 23.9127C27.0625 23.7294 27.0916 23.5794 27.15 23.4627C27.1944 23.3742 27.2536 23.2939 27.325 23.2252C27.3881 23.1594 27.4649 23.1082 27.55 23.0752C27.675 23.0335 27.8 23.0127 27.925 23.0127C28.1833 23.021 28.3916 23.1044 28.55 23.2627C28.6299 23.3567 28.689 23.4666 28.7235 23.5851C28.758 23.7035 28.767 23.828 28.75 23.9502C28.75 24.2252 28.6666 24.446 28.5 24.6127C28.3274 24.7624 28.1031 24.8387 27.875 24.8252C27.6503 24.822 27.4354 24.7325 27.275 24.5752C27.1961 24.4852 27.1366 24.3799 27.1 24.266C27.0635 24.152 27.0507 24.0318 27.0625 23.9127Z" fill="#309E3A"/>
<path d="M27.4249 23.9125C27.4249 24.1042 27.4666 24.2542 27.5499 24.3625C27.6333 24.4708 27.7499 24.525 27.8999 24.525C28.03 24.5265 28.1556 24.4771 28.2499 24.3875C28.3333 24.2875 28.3791 24.1333 28.3874 23.925C28.3958 23.725 28.3541 23.575 28.2624 23.475C28.1752 23.3791 28.0542 23.3209 27.9249 23.3125C27.793 23.3144 27.6672 23.3683 27.5749 23.4625C27.4833 23.5625 27.4333 23.7125 27.4249 23.9125Z" fill="#F7FFFF"/>
<path d="M29.125 24.8125L29.15 23.0625H29.9C30.0833 23.0625 30.2167 23.0833 30.3 23.125C30.3833 23.15 30.45 23.2042 30.5 23.2875C30.575 23.4125 30.575 23.4625 30.575 23.575C30.5736 23.6948 30.5293 23.8101 30.45 23.9C30.3552 23.9829 30.2375 24.0351 30.1125 24.05L30.3 24.2C30.35 24.25 30.4125 24.3458 30.4875 24.4875L30.7 24.8375H30.275L30.025 24.4375L29.85 24.1875L29.7375 24.1125L29.5625 24.0875H29.4875V24.8125H29.125Z" fill="#309E3A"/>
<path d="M29.5 23.8123H29.75C29.925 23.8123 30.0333 23.804 30.075 23.7873C30.1167 23.779 30.15 23.7581 30.175 23.7248C30.2083 23.6748 30.2208 23.6331 30.2125 23.5998C30.2125 23.5248 30.1958 23.4748 30.1625 23.4498C30.1375 23.4165 30.0958 23.3915 30.0375 23.3748H29.7875L29.5 23.3623V23.8123Z" fill="white"/>
<path d="M31.125 23.1504L31.775 23.1879C31.9166 23.1879 32.025 23.2004 32.1 23.2254C32.1965 23.2622 32.2824 23.3223 32.35 23.4004C32.422 23.4878 32.4733 23.5904 32.5 23.7004C32.5333 23.8171 32.5458 23.9546 32.5375 24.1129C32.5381 24.2405 32.5169 24.3673 32.475 24.4879C32.425 24.6129 32.3541 24.7129 32.2625 24.7879C32.1896 24.8479 32.1042 24.8906 32.0125 24.9129C31.9291 24.9379 31.825 24.9462 31.7 24.9379L31.0375 24.9004L31.125 23.1504Z" fill="#309E3A"/>
<path d="M31.4625 23.4629L31.4 24.6254H31.875C31.9417 24.6254 31.9917 24.6046 32.025 24.5629C32.0667 24.5296 32.1 24.4754 32.125 24.4004C32.15 24.3254 32.1667 24.2171 32.175 24.0754L32.1625 23.7629C32.1458 23.6965 32.1112 23.636 32.0625 23.5879L31.9125 23.5004L31.625 23.4629H31.4625Z" fill="white"/>
<path d="M39.7 26.2752L40.1124 24.5752L40.6624 24.7002L41.0625 24.8252C41.1541 24.8752 41.2208 24.9544 41.2625 25.0627C41.3041 25.171 41.3124 25.2877 41.2874 25.4127C41.2624 25.5127 41.2208 25.596 41.1624 25.6627C41.1161 25.7169 41.0586 25.7606 40.9939 25.7908C40.9292 25.821 40.8588 25.837 40.7874 25.8377C40.7041 25.8377 40.5791 25.8169 40.4124 25.7752L40.2 25.7127L40.0499 26.3627L39.7 26.2752Z" fill="#309E3A"/>
<path d="M40.3749 24.9502L40.2749 25.4252L40.4624 25.4752C40.5957 25.5085 40.6874 25.521 40.7374 25.5127C40.7854 25.5043 40.8299 25.4821 40.8654 25.4488C40.9009 25.4155 40.926 25.3725 40.9374 25.3252C40.9374 25.2669 40.9291 25.2127 40.9124 25.1627C40.885 25.1119 40.8408 25.0721 40.7874 25.0502L40.5499 24.9877L40.3874 24.9502H40.3749Z" fill="white"/>
<path d="M41.325 26.7623L41.9124 25.1123L42.5999 25.3623C42.7833 25.429 42.9083 25.4873 42.9749 25.5373C43.0416 25.5956 43.0833 25.6706 43.0999 25.7623C43.1249 25.8998 43.1249 25.9498 43.0999 26.0498C43.0499 26.1748 42.975 26.2665 42.875 26.3248C42.775 26.3748 42.65 26.3873 42.5 26.3623C42.55 26.4206 42.5916 26.4873 42.625 26.5623L42.7249 26.8998L42.7999 27.2873L42.4124 27.1498L42.2874 26.6998L42.2 26.3998L42.125 26.2998C42.1 26.2665 42.0458 26.2373 41.9625 26.2123L41.9 26.1873L41.65 26.8873L41.325 26.7623Z" fill="#309E3A"/>
<path d="M41.9999 25.9252L42.2374 26.0127C42.4041 26.071 42.5083 26.1002 42.5499 26.1002C42.5916 26.1002 42.6291 26.0877 42.6624 26.0627C42.7041 26.0377 42.7291 26.0002 42.7374 25.9502C42.7624 25.9002 42.7624 25.8502 42.7374 25.8002C42.7164 25.7533 42.6815 25.714 42.6374 25.6877L42.3874 25.6002L42.1374 25.5127L41.9874 25.9252H41.9999Z" fill="white"/>
<path d="M43.375 26.6995C43.418 26.5532 43.4903 26.4171 43.5875 26.2995C43.6514 26.2248 43.7275 26.1615 43.8125 26.112L44.0625 26.0245C44.1875 26.0162 44.3167 26.0329 44.45 26.0745C44.6726 26.1372 44.8614 26.2856 44.975 26.487C45.075 26.687 45.0833 26.9245 45 27.1995C44.972 27.3177 44.9198 27.4287 44.8467 27.5255C44.7735 27.6223 44.681 27.7029 44.575 27.762C44.3833 27.8704 44.1667 27.887 43.925 27.812C43.7024 27.7493 43.5136 27.601 43.4 27.3995C43.3478 27.2909 43.3187 27.1726 43.3144 27.0522C43.3101 26.9317 43.3307 26.8117 43.375 26.6995Z" fill="#309E3A"/>
<path d="M43.725 26.7997C43.6667 26.9914 43.6667 27.1497 43.725 27.2747C43.8125 27.4622 43.875 27.4747 44.0125 27.5247C44.1375 27.5664 44.2625 27.5497 44.3875 27.4747C44.5042 27.408 44.5917 27.2747 44.65 27.0747C44.7167 26.8914 44.7167 26.7372 44.65 26.6122C44.5939 26.4966 44.4954 26.4071 44.375 26.3622C44.2499 26.3253 44.1153 26.3388 44 26.3997C43.875 26.4664 43.7834 26.5997 43.725 26.7997Z" fill="white"/>
<path d="M46.7875 29.1379L47.5875 27.5879L48.25 27.9254C48.3749 27.9853 48.4889 28.0656 48.5875 28.1629C48.6541 28.2212 48.6875 28.3004 48.6875 28.4004C48.6875 28.5504 48.6875 28.5879 48.6375 28.6754C48.5874 28.7864 48.4985 28.8753 48.3875 28.9254C48.2625 28.9587 48.1333 28.9504 48 28.9004C48.05 28.9837 48.0833 29.0546 48.1 29.1129C48.125 29.1879 48.1416 29.3046 48.15 29.4629L48.175 29.8629L47.8 29.6754L47.75 29.2129L47.7125 28.9004L47.65 28.7754L47.5 28.6879L47.4375 28.6504L47.1 29.3004L46.7875 29.1379Z" fill="#309E3A"/>
<path d="M47.5625 28.4L47.8 28.525C47.95 28.6083 48.0458 28.65 48.0875 28.65C48.1292 28.65 48.1708 28.6417 48.2125 28.625C48.2458 28.6083 48.275 28.575 48.3 28.525C48.325 28.475 48.3333 28.425 48.325 28.375L48.2375 28.25L48.0125 28.125L47.7625 28L47.5625 28.4Z" fill="white"/>
<path d="M53.2625 32.3379C53.3436 32.2096 53.4499 32.099 53.575 32.0129C53.6595 31.96 53.7525 31.922 53.85 31.9004C53.9408 31.8835 54.0341 31.8835 54.125 31.9004C54.25 31.9254 54.3666 31.9754 54.475 32.0504C54.6675 32.1772 54.8023 32.3748 54.85 32.6004C54.8833 32.8171 54.825 33.0462 54.675 33.2879C54.6145 33.3916 54.5334 33.4817 54.4366 33.5526C54.3398 33.6236 54.2295 33.6739 54.1125 33.7004C53.8861 33.7418 53.6526 33.6924 53.4625 33.5629C53.2699 33.4361 53.1351 33.2385 53.0875 33.0129C53.0541 32.7879 53.1125 32.5629 53.2625 32.3379Z" fill="#309E3A"/>
<path d="M53.5749 32.5378C53.4582 32.7045 53.4124 32.8545 53.4374 32.9878C53.4615 33.1138 53.5331 33.2257 53.6374 33.3003C53.7624 33.3837 53.8874 33.4087 54.0124 33.3753C54.1374 33.342 54.2582 33.242 54.3749 33.0753C54.4916 32.9003 54.5374 32.7503 54.5124 32.6253C54.4874 32.5003 54.4207 32.392 54.3124 32.3003C54.1374 32.1628 54.0624 32.2003 53.9374 32.2378C53.8124 32.2628 53.6874 32.3628 53.5624 32.5378H53.5749Z" fill="white"/>
<path d="M37.725 25.5629L38.0125 24.3379L38.9125 24.5504L38.875 24.7504L38.2125 24.6004L38.15 24.8754L38.7625 25.0129L38.7125 25.2254L38.1 25.0754L38.025 25.4129L38.7125 25.5754L38.6625 25.7754L37.725 25.5629Z" fill="#309E3A"/>
</g>
<defs>
<clipPath id="clip0_4095_8332">
<rect width="80" height="60" fill="white"/>
</clipPath>
</defs>
</svg>
