<svg width="406" height="113" viewBox="0 0 406 113" fill="none" xmlns="http://www.w3.org/2000/svg">
<rect width="406" height="113" fill="white"/>
<g clip-path="url(#clip0_1632_1215)">
<g opacity="0.5">
<mask id="mask0_1632_1215" style="mask-type:alpha" maskUnits="userSpaceOnUse" x="-131" y="-142" width="668" height="386">
<rect width="385.5" height="385.5" transform="matrix(0.866025 0.5 -0.866025 0.5 203 -141.5)" fill="url(#paint0_radial_1632_1215)"/>
<rect y="0.548533" width="384.403" height="384.403" transform="matrix(0.866025 0.5 -0.866025 0.5 203.475 -141.226)" stroke="#B3B3B3" stroke-opacity="0.4" stroke-width="1.09707"/>
</mask>
<g mask="url(#mask0_1632_1215)">
<path d="M209.197 -128.65L-108.713 54.895" stroke="#B3B3B3" stroke-opacity="0.4" stroke-width="1.09707"/>
<path d="M223.107 -120.618L-94.8023 62.9269" stroke="#B3B3B3" stroke-opacity="0.4" stroke-width="1.09707"/>
<path d="M237.018 -112.587L-80.8919 70.9579" stroke="#B3B3B3" stroke-opacity="0.4" stroke-width="1.09707"/>
<path d="M250.928 -104.556L-66.9817 78.9889" stroke="#B3B3B3" stroke-opacity="0.4" stroke-width="1.09707"/>
<path d="M264.839 -96.5247L-53.0701 87.0204" stroke="#B3B3B3" stroke-opacity="0.4" stroke-width="1.09707"/>
<path d="M278.749 -88.4934L-39.1602 95.0517" stroke="#B3B3B3" stroke-opacity="0.4" stroke-width="1.09707"/>
<path d="M292.659 -80.4626L-25.2503 103.082" stroke="#B3B3B3" stroke-opacity="0.4" stroke-width="1.09707"/>
<path d="M306.571 -72.4309L-11.3381 111.114" stroke="#B3B3B3" stroke-opacity="0.4" stroke-width="1.09707"/>
<path d="M320.481 -64.3994L2.57126 119.146" stroke="#B3B3B3" stroke-opacity="0.4" stroke-width="1.09707"/>
<path d="M334.391 -56.3687L16.4817 127.176" stroke="#B3B3B3" stroke-opacity="0.4" stroke-width="1.09707"/>
<path d="M348.302 -48.3369L30.3921 135.208" stroke="#B3B3B3" stroke-opacity="0.4" stroke-width="1.09707"/>
<path d="M362.213 -40.3059L44.3032 143.239" stroke="#B3B3B3" stroke-opacity="0.4" stroke-width="1.09707"/>
<path d="M376.123 -32.2751L58.2138 151.27" stroke="#B3B3B3" stroke-opacity="0.4" stroke-width="1.09707"/>
<path d="M390.034 -24.2434L72.125 159.302" stroke="#B3B3B3" stroke-opacity="0.4" stroke-width="1.09707"/>
<path d="M403.944 -16.2122L86.0344 167.333" stroke="#B3B3B3" stroke-opacity="0.4" stroke-width="1.09707"/>
<path d="M417.855 -8.18164L99.9458 175.363" stroke="#B3B3B3" stroke-opacity="0.4" stroke-width="1.09707"/>
<path d="M431.765 -0.149902L113.855 183.395" stroke="#B3B3B3" stroke-opacity="0.4" stroke-width="1.09707"/>
<path d="M445.676 7.88159L127.767 191.427" stroke="#B3B3B3" stroke-opacity="0.4" stroke-width="1.09707"/>
<path d="M459.586 15.9124L141.676 199.457" stroke="#B3B3B3" stroke-opacity="0.4" stroke-width="1.09707"/>
<path d="M473.497 23.9441L155.587 207.489" stroke="#B3B3B3" stroke-opacity="0.4" stroke-width="1.09707"/>
<path d="M487.407 31.9753L169.498 215.52" stroke="#B3B3B3" stroke-opacity="0.4" stroke-width="1.09707"/>
<path d="M501.319 40.0066L183.409 223.552" stroke="#B3B3B3" stroke-opacity="0.4" stroke-width="1.09707"/>
<path d="M515.228 48.0376L197.318 231.583" stroke="#B3B3B3" stroke-opacity="0.4" stroke-width="1.09707"/>
<path d="M529.139 56.0688L211.229 239.614" stroke="#B3B3B3" stroke-opacity="0.4" stroke-width="1.09707"/>
<path d="M195.286 -136.681L529.139 56.0692" stroke="#B3B3B3" stroke-opacity="0.4" stroke-width="1.09707"/>
<path d="M182.04 -129.033L515.892 63.7166" stroke="#B3B3B3" stroke-opacity="0.4" stroke-width="1.09707"/>
<path d="M168.794 -121.385L502.646 71.3646" stroke="#B3B3B3" stroke-opacity="0.4" stroke-width="1.09707"/>
<path d="M155.547 -113.738L489.4 79.0118" stroke="#B3B3B3" stroke-opacity="0.4" stroke-width="1.09707"/>
<path d="M142.301 -106.09L476.154 86.6598" stroke="#B3B3B3" stroke-opacity="0.4" stroke-width="1.09707"/>
<path d="M129.054 -98.4426L462.907 94.3072" stroke="#B3B3B3" stroke-opacity="0.4" stroke-width="1.09707"/>
<path d="M115.809 -90.7944L449.661 101.955" stroke="#B3B3B3" stroke-opacity="0.4" stroke-width="1.09707"/>
<path d="M102.562 -83.1465L436.415 109.603" stroke="#B3B3B3" stroke-opacity="0.4" stroke-width="1.09707"/>
<path d="M89.3164 -75.4993L423.169 117.251" stroke="#B3B3B3" stroke-opacity="0.4" stroke-width="1.09707"/>
<path d="M76.0706 -67.8521L409.923 124.898" stroke="#B3B3B3" stroke-opacity="0.4" stroke-width="1.09707"/>
<path d="M62.824 -60.2031L396.676 132.547" stroke="#B3B3B3" stroke-opacity="0.4" stroke-width="1.09707"/>
<path d="M49.5774 -52.5566L383.43 140.193" stroke="#B3B3B3" stroke-opacity="0.4" stroke-width="1.09707"/>
<path d="M36.3315 -44.9082L370.184 147.842" stroke="#B3B3B3" stroke-opacity="0.4" stroke-width="1.09707"/>
<path d="M23.085 -37.2603L356.937 155.49" stroke="#B3B3B3" stroke-opacity="0.4" stroke-width="1.09707"/>
<path d="M9.83887 -29.613L343.691 163.137" stroke="#B3B3B3" stroke-opacity="0.4" stroke-width="1.09707"/>
<path d="M-3.40674 -21.9653L330.446 170.785M121.788 50.3157C121.788 50.3157 130.266 55.2104 135.698 58.3467" stroke="#B3B3B3" stroke-opacity="0.4" stroke-width="1.09707"/>
<path d="M-16.6414 -14.3218L317.211 178.428" stroke="#B3B3B3" stroke-opacity="0.4" stroke-width="1.09707"/>
<path d="M-29.8875 -6.67505L303.965 186.075" stroke="#B3B3B3" stroke-opacity="0.4" stroke-width="1.09707"/>
<path d="M-43.1343 0.972412L290.718 193.722" stroke="#B3B3B3" stroke-opacity="0.4" stroke-width="1.09707"/>
<path d="M-56.3799 8.62036L277.473 201.37" stroke="#B3B3B3" stroke-opacity="0.4" stroke-width="1.09707"/>
<path d="M-69.6262 16.2681L264.226 209.018" stroke="#B3B3B3" stroke-opacity="0.4" stroke-width="1.09707"/>
<path d="M-82.8716 23.9153L250.981 216.665" stroke="#B3B3B3" stroke-opacity="0.4" stroke-width="1.09707"/>
<path d="M-96.1184 31.5632L237.734 224.313" stroke="#B3B3B3" stroke-opacity="0.4" stroke-width="1.09707"/>
<path d="M-109.365 39.2117L224.488 231.962" stroke="#B3B3B3" stroke-opacity="0.4" stroke-width="1.09707"/>
<path d="M-122.611 46.8586L211.242 239.608" stroke="#B3B3B3" stroke-opacity="0.4" stroke-width="1.09707"/>
</g>
</g>
<path d="M111.825 14.6155L157.305 40.6712" stroke="#0E3572" stroke-width="0.548533" stroke-dasharray="1.1 1.1"/>
<line x1="86.1049" y1="39.9605" x2="129.215" y2="14.8523" stroke="#0E3572" stroke-width="0.548533" stroke-dasharray="1.1 1.1"/>
<line x1="113.582" y1="55.5938" x2="156.692" y2="30.4856" stroke="#0E3572" stroke-width="0.548533" stroke-dasharray="1.1 1.1"/>
<mask id="path-55-inside-1_1632_1215" fill="white">
<path d="M137.269 29.124L148.721 29.1494V35.6699L122.571 50.8848L96.1919 35.6699L96.1929 29.0342L107.669 29.0586L122.414 20.5684L137.269 29.124Z"/>
</mask>
<path d="M137.269 29.124L148.721 29.1494V35.6699L122.571 50.8848L96.1919 35.6699L96.1929 29.0342L107.669 29.0586L122.414 20.5684L137.269 29.124Z" fill="url(#paint1_linear_1632_1215)"/>
<path d="M137.269 29.124L136.945 29.6866L137.095 29.7728L137.268 29.7732L137.269 29.124ZM148.721 29.1494H149.37V28.5017L148.723 28.5002L148.721 29.1494ZM148.721 35.6699L149.048 36.231L149.37 36.0433V35.6699H148.721ZM122.571 50.8848L122.246 51.4471L122.572 51.635L122.897 51.4459L122.571 50.8848ZM96.1919 35.6699L95.5427 35.6698L95.5427 36.0449L95.8675 36.2323L96.1919 35.6699ZM96.1929 29.0342L96.1943 28.385L95.5438 28.3836L95.5437 29.0341L96.1929 29.0342ZM107.669 29.0586L107.668 29.7078L107.842 29.7081L107.993 29.6212L107.669 29.0586ZM122.414 20.5684L122.738 20.0058L122.414 19.8192L122.09 20.0058L122.414 20.5684ZM137.269 29.124L137.268 29.7732L148.72 29.7986L148.721 29.1494L148.723 28.5002L137.27 28.4748L137.269 29.124ZM148.721 29.1494H148.072V35.6699H148.721H149.37V29.1494H148.721ZM148.721 35.6699L148.395 35.1088L122.244 50.3236L122.571 50.8848L122.897 51.4459L149.048 36.231L148.721 35.6699ZM122.571 50.8848L122.895 50.3224L96.5162 35.1076L96.1919 35.6699L95.8675 36.2323L122.246 51.4471L122.571 50.8848ZM96.1919 35.6699L96.8411 35.67L96.8421 29.0343L96.1929 29.0342L95.5437 29.0341L95.5427 35.6698L96.1919 35.6699ZM96.1929 29.0342L96.1915 29.6834L107.668 29.7078L107.669 29.0586L107.671 28.4094L96.1943 28.385L96.1929 29.0342ZM107.669 29.0586L107.993 29.6212L122.738 21.1309L122.414 20.5684L122.09 20.0058L107.345 28.496L107.669 29.0586ZM122.414 20.5684L122.09 21.1309L136.945 29.6866L137.269 29.124L137.593 28.5615L122.738 20.0058L122.414 20.5684Z" fill="#0E3572" mask="url(#path-55-inside-1_1632_1215)"/>
<path d="M148.066 29.1469L122.415 43.7604L96.8438 29.0339L122.414 14.3084L148.066 29.1469Z" fill="white" stroke="#0E3572" stroke-width="0.752415"/>
<mask id="path-58-inside-2_1632_1215" fill="white">
<path d="M137.269 17.7532L148.72 17.7786V24.2991L122.571 39.5149L96.1917 24.2991V17.6643L107.669 17.6887L122.413 9.19849L137.269 17.7532Z"/>
</mask>
<path d="M137.269 17.7532L148.72 17.7786V24.2991L122.571 39.5149L96.1917 24.2991V17.6643L107.669 17.6887L122.413 9.19849L137.269 17.7532Z" fill="url(#paint2_linear_1632_1215)"/>
<path d="M137.269 17.7532L136.945 18.3157L137.095 18.402L137.267 18.4024L137.269 17.7532ZM148.72 17.7786H149.369V17.1308L148.721 17.1294L148.72 17.7786ZM148.72 24.2991L149.046 24.8602L149.369 24.6724V24.2991H148.72ZM122.571 39.5149L122.246 40.0772L122.572 40.2652L122.897 40.076L122.571 39.5149ZM96.1917 24.2991H95.5425V24.6741L95.8673 24.8614L96.1917 24.2991ZM96.1917 17.6643L96.193 17.0151L95.5425 17.0137V17.6643H96.1917ZM107.669 17.6887L107.668 18.3379L107.842 18.3383L107.993 18.2513L107.669 17.6887ZM122.413 9.19849L122.737 8.63592L122.413 8.44936L122.089 8.63591L122.413 9.19849ZM137.269 17.7532L137.267 18.4024L148.719 18.4277L148.72 17.7786L148.721 17.1294L137.27 17.104L137.269 17.7532ZM148.72 17.7786H148.071V24.2991H148.72H149.369V17.7786H148.72ZM148.72 24.2991L148.393 23.738L122.244 38.9538L122.571 39.5149L122.897 40.076L149.046 24.8602L148.72 24.2991ZM122.571 39.5149L122.895 38.9526L96.516 23.7367L96.1917 24.2991L95.8673 24.8614L122.246 40.0772L122.571 39.5149ZM96.1917 24.2991H96.8408V17.6643H96.1917H95.5425V24.2991H96.1917ZM96.1917 17.6643L96.1903 18.3135L107.668 18.3379L107.669 17.6887L107.671 17.0395L96.193 17.0151L96.1917 17.6643ZM107.669 17.6887L107.993 18.2513L122.737 9.76106L122.413 9.19849L122.089 8.63591L107.345 17.1261L107.669 17.6887ZM122.413 9.19849L122.089 9.76106L136.945 18.3157L137.269 17.7532L137.593 17.1906L122.737 8.63592L122.413 9.19849Z" fill="#0E3572" mask="url(#path-58-inside-2_1632_1215)"/>
<path d="M148.244 17.7771L122.415 32.4928L96.6667 17.6645L122.413 2.83713L148.244 17.7771Z" fill="white" stroke="#0E3572" stroke-width="0.548533"/>
<path d="M85.7693 29.7754L131.248 55.8311" stroke="#0E3572" stroke-width="0.548533" stroke-dasharray="1.1 1.1"/>
<mask id="path-62-inside-3_1632_1215" fill="white">
<path d="M240.934 57.6082L258.237 57.6462V67.4988L218.727 90.488L178.87 67.4988L178.871 57.4734L196.213 57.5105L218.49 44.6824L240.934 57.6082Z"/>
</mask>
<path d="M240.934 57.6082L258.237 57.6462V67.4988L218.727 90.488L178.87 67.4988L178.871 57.4734L196.213 57.5105L218.49 44.6824L240.934 57.6082Z" fill="url(#paint3_linear_1632_1215)"/>
<path d="M240.934 57.6082L240.61 58.1707L240.76 58.257L240.932 58.2573L240.934 57.6082ZM258.237 57.6462H258.886V56.9985L258.238 56.9971L258.237 57.6462ZM258.237 67.4988L258.563 68.0599L258.886 67.8721V67.4988H258.237ZM218.727 90.488L218.402 91.0504L218.728 91.2383L219.053 91.0491L218.727 90.488ZM178.87 67.4988L178.221 67.4987L178.221 67.8737L178.546 68.0611L178.87 67.4988ZM178.871 57.4734L178.873 56.8242L178.222 56.8228L178.222 57.4733L178.871 57.4734ZM196.213 57.5105L196.212 58.1597L196.386 58.1601L196.537 58.0731L196.213 57.5105ZM218.49 44.6824L218.813 44.1198L218.49 43.9332L218.166 44.1198L218.49 44.6824ZM240.934 57.6082L240.932 58.2573L258.235 58.2954L258.237 57.6462L258.238 56.9971L240.935 56.959L240.934 57.6082ZM258.237 57.6462H257.587V67.4988H258.237H258.886V57.6462H258.237ZM258.237 67.4988L257.91 66.9377L218.4 89.9269L218.727 90.488L219.053 91.0491L258.563 68.0599L258.237 67.4988ZM218.727 90.488L219.051 89.9257L179.195 66.9364L178.87 67.4988L178.546 68.0611L218.402 91.0504L218.727 90.488ZM178.87 67.4988L179.52 67.4988L179.521 57.4735L178.871 57.4734L178.222 57.4733L178.221 67.4987L178.87 67.4988ZM178.871 57.4734L178.87 58.1226L196.212 58.1597L196.213 57.5105L196.215 56.8613L178.873 56.8242L178.871 57.4734ZM196.213 57.5105L196.537 58.0731L218.813 45.2449L218.49 44.6824L218.166 44.1198L195.889 56.9479L196.213 57.5105ZM218.49 44.6824L218.166 45.2449L240.61 58.1707L240.934 57.6082L241.258 57.0456L218.813 44.1198L218.49 44.6824Z" fill="#0E3572" mask="url(#path-62-inside-3_1632_1215)"/>
<g filter="url(#filter0_i_1632_1215)">
<path d="M218.489 34.6572L258.236 57.6463L218.489 80.2898L178.87 57.4735L218.489 34.6572Z" fill="white"/>
</g>
<path d="M257.759 57.6449L218.491 80.0166L179.346 57.4734L218.489 34.9311L257.759 57.6449Z" stroke="#0E3572" stroke-width="0.548533"/>
<g clip-path="url(#clip1_1632_1215)">
<path d="M215.553 52.8301C215.818 52.9831 215.967 53.1913 215.967 53.4077C215.967 53.6239 215.818 53.8314 215.553 53.9844C215.288 54.1374 214.928 54.2235 214.554 54.2236H211.521C210.02 54.2241 208.58 54.5683 207.518 55.1812C206.457 55.7939 205.86 56.6251 205.859 57.4917C205.86 58.3584 206.457 59.1904 207.518 59.8032C208.58 60.4161 210.02 60.7601 211.521 60.7607H214.554L214.554 60.7612C214.929 60.7614 215.289 60.8474 215.554 61.0005C215.819 61.1536 215.968 61.3617 215.968 61.5781C215.967 61.7945 215.818 62.0023 215.553 62.1553C215.288 62.3083 214.928 62.3941 214.553 62.394L211.521 62.3936C206.835 62.3936 203.031 60.1973 203.031 57.4922C203.032 54.7873 206.836 52.5909 211.521 52.5908L214.553 52.5913C214.928 52.5913 215.288 52.677 215.553 52.8301ZM225.672 52.5908C230.357 52.5909 234.161 54.7873 234.161 57.4922C234.161 60.1973 230.357 62.3936 225.672 62.3936L222.64 62.394C222.265 62.3941 221.904 62.3083 221.639 62.1553C221.374 62.0023 221.225 61.7945 221.225 61.5781C221.225 61.3617 221.373 61.1536 221.638 61.0005C221.903 60.8474 222.263 60.7614 222.638 60.7612L222.639 60.7607H225.672C227.173 60.7601 228.613 60.4161 229.674 59.8032C230.736 59.1904 231.332 58.3589 231.333 57.4922L231.334 57.4917C231.333 56.6251 230.736 55.7939 229.674 55.1812C228.613 54.5683 227.173 54.2241 225.672 54.2236H222.632C222.262 54.2199 221.909 54.132 221.649 53.9795C221.389 53.8268 221.243 53.6213 221.243 53.4072C221.243 53.1933 221.389 52.9881 221.648 52.8354C221.908 52.6828 222.262 52.595 222.633 52.5913H222.64L225.672 52.5908Z" fill="url(#paint4_linear_1632_1215)" stroke="url(#paint5_linear_1632_1215)" stroke-width="0.658239"/>
<path d="M227.683 56.9155C227.814 56.9913 227.918 57.0812 227.989 57.1802C228.06 57.2792 228.096 57.386 228.096 57.4932C228.096 57.6002 228.06 57.7063 227.989 57.8052C227.918 57.9042 227.813 57.9945 227.682 58.0703C227.551 58.146 227.394 58.2056 227.223 58.2466C227.051 58.2876 226.867 58.3091 226.681 58.3091L210.511 58.3081V58.3091C210.136 58.3092 209.776 58.2233 209.511 58.0703C209.245 57.9174 209.096 57.7095 209.096 57.4932C209.096 57.2767 209.245 57.0687 209.51 56.9155C209.775 56.7624 210.134 56.6764 210.509 56.6763H226.683L226.822 56.6802C226.96 56.6881 227.095 56.7075 227.223 56.7383C227.395 56.7793 227.551 56.8397 227.683 56.9155Z" fill="url(#paint6_linear_1632_1215)" stroke="url(#paint7_linear_1632_1215)" stroke-width="0.658239"/>
</g>
<g clip-path="url(#clip2_1632_1215)">
<path d="M397.539 76.2223C397.539 76.2749 397.539 76.2749 397.539 76.3275V76.3801C397.539 76.3801 397.539 76.3801 397.539 76.4327V76.4853C397.539 76.4853 397.539 76.4853 397.539 76.5379C397.539 76.5379 397.539 76.5905 397.487 76.5905C397.487 76.5905 397.487 76.5905 397.487 76.6431L397.435 76.6957C397.435 76.6957 397.435 76.6957 397.382 76.7483L397.33 76.801C397.33 76.801 397.277 76.801 397.277 76.8536C397.277 76.8536 397.225 76.8536 397.225 76.9062L397.173 76.9588L364.841 95.8434C364.789 95.896 364.684 95.896 364.632 95.9486H364.579C364.527 95.9486 364.474 96.0012 364.422 96.0012C364.37 96.0012 364.317 96.0538 364.265 96.0538C364.212 96.0538 364.16 96.0538 364.055 96.1064H364.003C363.898 96.1064 363.846 96.1064 363.741 96.1064H363.688C363.269 96.1064 362.902 96.0012 362.588 95.8434V97.2637C362.902 97.4215 363.269 97.5267 363.636 97.5267H363.688H363.741H363.793C363.846 97.5267 363.898 97.5267 363.95 97.5267H364.003C364.055 97.5267 364.108 97.5267 364.16 97.5267H364.212C364.265 97.5267 364.317 97.5267 364.37 97.4741C364.422 97.4741 364.422 97.4741 364.474 97.4741H364.527H364.579C364.632 97.4215 364.736 97.4215 364.789 97.3689L397.12 78.4843C397.12 78.4843 397.173 78.4843 397.173 78.4317C397.173 78.4317 397.225 78.4317 397.225 78.3791C397.225 78.3791 397.277 78.3791 397.277 78.3264L397.33 78.2739L397.382 78.2212C397.382 78.2212 397.382 78.1686 397.435 78.1686V78.116C397.435 78.116 397.435 78.116 397.435 78.0634V78.0108C397.435 78.0108 397.435 78.0108 397.435 77.9582V77.9056C397.435 77.9056 397.435 77.9056 397.435 77.853V76.2223C397.539 76.1697 397.539 76.1697 397.539 76.2223Z" fill="#0E3572"/>
<path d="M363.637 96.1064V97.5267C363.584 97.5267 363.532 97.5267 363.48 97.5267C363.427 97.5267 363.375 97.5267 363.322 97.5267C363.27 97.5267 363.218 97.5267 363.165 97.4741C363.113 97.4741 363.06 97.4741 363.008 97.4215C362.956 97.4215 362.903 97.3689 362.798 97.3689C362.694 97.3163 362.641 97.3163 362.589 97.2637L314.275 69.2787C313.96 69.1209 313.803 68.8579 313.803 68.5949V67.1746C313.803 67.4376 313.96 67.648 314.275 67.8584L362.589 95.8434C362.641 95.896 362.746 95.896 362.798 95.9486C362.851 95.9486 362.903 96.0012 363.008 96.0012C363.06 96.0012 363.113 96.0538 363.165 96.0538C363.218 96.0538 363.27 96.0538 363.322 96.1064C363.375 96.1064 363.427 96.1064 363.48 96.1064C363.532 96.1064 363.584 96.1064 363.637 96.1064Z" fill="#0E3572"/>
<path d="M347.733 47.657C348.102 47.657 348.458 47.741 348.721 47.8953L348.722 47.8962L397.035 75.8796V75.8806C397.301 76.0367 397.371 76.1979 397.371 76.3015C397.371 76.3922 397.318 76.527 397.125 76.6638L397.035 76.7224L364.704 95.6062V95.6072C364.44 95.7614 364.084 95.8455 363.715 95.8455C363.346 95.8455 362.99 95.7614 362.727 95.6072L362.726 95.6062L314.413 67.6208H314.412C314.146 67.4651 314.078 67.3043 314.078 67.2009C314.078 67.1102 314.131 66.9755 314.323 66.8386L314.414 66.78L346.745 47.8953C347.008 47.7411 347.364 47.657 347.733 47.657Z" fill="white" stroke="#0E3572" stroke-width="0.548533"/>
<path d="M398.85 35.139L398.798 35.0864L398.746 35.0338L398.693 34.9812L398.641 34.9286L398.588 34.8759L398.536 34.8233L398.484 34.7707L398.431 34.7181C398.431 34.7181 398.379 34.7181 398.379 34.6655C398.379 34.6655 398.326 34.6655 398.326 34.6129C398.326 34.6129 398.274 34.6129 398.274 34.5603C398.274 34.5603 398.222 34.5603 398.222 34.5077L349.96 6.62793C349.96 6.62793 349.96 6.62793 349.908 6.62793H349.855C349.855 6.62793 349.855 6.62793 349.803 6.62793H349.75H349.698C349.698 6.62793 349.698 6.62793 349.646 6.62793H349.593H349.541C349.541 6.62793 349.541 6.62793 349.488 6.62793H349.436H349.384H349.331C349.279 6.62793 349.279 6.62793 349.226 6.68053L348.021 7.41698C348.074 7.41698 348.074 7.36438 348.126 7.36438H348.178C348.231 7.36438 348.231 7.36438 348.283 7.36438C348.336 7.36438 348.336 7.36438 348.388 7.36438C348.44 7.36438 348.44 7.36438 348.493 7.36438C348.545 7.36438 348.545 7.36438 348.598 7.41698C348.65 7.41698 348.65 7.46958 348.702 7.46958C348.755 7.46958 348.755 7.52219 348.807 7.52219L397.121 35.5072C397.121 35.5072 397.174 35.5072 397.174 35.5598C397.174 35.5598 397.226 35.5598 397.226 35.6124C397.226 35.6124 397.278 35.6124 397.278 35.665C397.278 35.665 397.331 35.665 397.331 35.7176L397.383 35.7702L397.436 35.8228L397.488 35.8754L397.54 35.928L397.593 35.9806L397.645 36.0332L397.698 36.0858L397.75 36.1384L397.802 36.191L399.008 35.4546C398.85 35.1916 398.85 35.139 398.85 35.139Z" fill="#0E3572"/>
<path d="M399.374 36.5594V36.5068V36.4541V36.4015V36.3489V36.2963V36.2437V36.1911V36.1385V36.0859V36.0333V35.9807V35.9281V35.8755V35.8229V35.7703C399.374 35.7703 399.374 35.7177 399.322 35.7177C399.322 35.7177 399.322 35.6651 399.27 35.6651C399.27 35.6125 399.217 35.6125 399.217 35.5599C399.165 35.5073 399.165 35.4547 399.112 35.4021C399.112 35.3495 399.06 35.3495 399.06 35.2969L397.645 35.9281C397.645 35.9807 397.697 35.9807 397.697 36.0333C397.75 36.0859 397.75 36.1385 397.802 36.1911C397.802 36.2437 397.855 36.2437 397.855 36.2963C397.855 36.2963 397.855 36.3489 397.907 36.3489C397.907 36.3489 397.907 36.4015 397.959 36.4015V36.4541V36.5068V36.5594V36.612V36.6646V36.7172V36.7698V36.8224V36.875V36.9276V36.9802V37.0328V37.0854V37.138V37.1906V37.2432L397.855 74.802C397.855 74.8546 397.855 74.9072 397.855 74.9072C397.855 74.9598 397.855 74.9598 397.855 75.0124C397.855 75.065 397.855 75.065 397.855 75.1176C397.855 75.1702 397.855 75.1702 397.802 75.2228C397.802 75.2754 397.75 75.2754 397.75 75.328C397.75 75.3807 397.697 75.3807 397.645 75.4333C397.593 75.4859 397.593 75.4859 397.54 75.4859L398.746 74.7494C398.798 74.7494 398.798 74.6968 398.85 74.6968C398.903 74.6442 398.903 74.6442 398.955 74.5916L399.008 74.539V74.4864C399.008 74.4864 399.008 74.4864 399.008 74.4338V74.3812V74.3286C399.008 74.3286 399.008 74.3286 399.008 74.276V74.2234V74.1708L399.374 36.5594Z" fill="#0E3572"/>
<path d="M348.072 7.50781C348.166 7.45768 348.348 7.44427 348.616 7.60156H348.617L396.879 35.5869V35.5859C397.143 35.7406 397.399 36.0175 397.591 36.3486C397.759 36.6387 397.866 36.9507 397.89 37.2305L397.895 37.3486L397.79 74.9062V74.9072C397.79 75.2162 397.683 75.3484 397.595 75.3955C397.501 75.4456 397.319 75.459 397.05 75.3018L397.049 75.3008L348.787 47.3164H348.788C348.525 47.1619 348.267 46.8859 348.075 46.5547C347.884 46.2235 347.772 45.8634 347.772 45.5557L347.876 7.99609L347.881 7.8877C347.903 7.65518 347.994 7.54911 348.072 7.50781Z" fill="white" stroke="#0E3572" stroke-width="0.548533"/>
<path d="M349.646 45.8702C349.593 45.8176 349.489 45.6597 349.489 45.5545L349.593 10.0999L396.073 37.0328C396.126 37.0854 396.23 37.2432 396.23 37.3484L396.126 72.8031L349.646 45.8702Z" fill="#0E3572"/>
<mask id="mask1_1632_1215" style="mask-type:luminance" maskUnits="userSpaceOnUse" x="319" y="50" width="70" height="41">
<path d="M319.672 67.4374L348.65 50.5518L388.946 73.8551L359.969 90.7933L319.672 67.4374Z" fill="white"/>
</mask>
<g mask="url(#mask1_1632_1215)">
<path opacity="0.2" d="M368.143 79.589L369.349 78.9051L371.811 80.3254L370.606 81.0093L368.143 79.589ZM333.716 59.6523L336.126 58.232L338.589 59.6523L336.179 61.0726L333.716 59.6523ZM336.441 61.2304L338.851 59.8101L341.314 61.2304L338.904 62.6507L336.441 61.2304ZM339.166 62.8085L341.576 61.3882L344.039 62.8085L341.628 64.2288L339.166 62.8085ZM341.943 64.4392L344.353 63.0189L347.55 64.86L345.139 66.2803L341.943 64.4392ZM345.401 66.4381L347.812 65.0179L361.331 72.8558L358.921 74.276L345.401 66.4381ZM359.183 74.3813L361.593 72.961L364.685 74.7495L362.274 76.1698L359.183 74.3813ZM362.484 76.3276L364.895 74.9073L367.357 76.3276L364.947 77.7479L362.484 76.3276ZM365.314 77.9583L367.724 76.538L370.187 77.9583L367.777 79.3786L365.314 77.9583ZM369.453 78.7999L370.554 78.1687L373.017 79.589L371.916 80.2202L369.453 78.7999ZM370.868 81.2197L373.279 79.7994L375.742 81.2197L373.331 82.64L370.868 81.2197ZM336.441 58.0742L338.851 56.6539L341.786 58.3898L339.375 59.8101L336.441 58.0742ZM339.847 60.0205L342.257 58.6002L344.72 60.0205L342.31 61.4408L339.847 60.0205ZM345.349 63.2293L347.759 61.809L350.222 63.2293L347.812 64.6496L345.349 63.2293ZM348.126 64.8074L350.537 63.3871L352.999 64.8074L350.589 66.2277L348.126 64.8074ZM350.903 66.4381L353.314 65.0179L355.724 66.4381L353.314 67.8584L350.903 66.4381ZM353.628 68.0162L356.039 66.596L358.502 68.0162L356.091 69.4365L353.628 68.0162ZM356.406 69.6469L358.816 68.2267L361.279 69.6469L358.868 71.0672L356.406 69.6469ZM359.13 71.225L361.541 69.8048L364.004 71.225L361.593 72.6453L359.13 71.225ZM361.908 72.8031L364.318 71.3829L366.781 72.8031L364.37 74.2234L361.908 72.8031ZM364.685 74.4339L367.095 73.0136L369.558 74.4339L367.148 75.8541L364.685 74.4339ZM367.41 76.012L369.82 74.5917L372.283 76.012L369.873 77.4322L367.41 76.012ZM370.239 77.6427L372.65 76.2224L378.519 79.589L376.108 81.0093L370.239 77.6427ZM342.624 61.6512L345.034 60.2309L347.497 61.6512L345.087 63.0715L342.624 61.6512ZM339.113 56.5487L341.524 55.1284L346.03 57.7586L343.62 59.1789L339.113 56.5487ZM343.882 59.2841L346.292 57.8638L348.755 59.2841L346.344 60.7044L343.882 59.2841ZM346.659 60.8622L349.069 59.4419L351.532 60.8622L349.122 62.2825L346.659 60.8622ZM349.436 62.4929L351.847 61.0726L354.309 62.4929L351.899 63.9132L349.436 62.4929ZM352.161 64.071L354.571 62.6507L357.034 64.071L354.624 65.4913L352.161 64.071ZM354.938 65.7017L357.349 64.2814L359.812 65.7017L357.401 67.122L354.938 65.7017ZM357.663 67.2798L360.074 65.8595L362.536 67.2798L360.126 68.7001L357.663 67.2798ZM360.44 68.8579L362.851 67.4376L365.314 68.8579L362.903 70.2782L360.44 68.8579ZM363.218 70.4886L365.628 69.0683L368.091 70.4886L365.681 71.9089L363.218 70.4886ZM365.943 72.0667L368.353 70.6464L370.816 72.0667L368.405 73.487L365.943 72.0667ZM368.72 73.6448L371.13 72.2245L373.593 73.6448L371.183 75.0651L368.72 73.6448ZM371.445 75.2755L373.855 73.8552L376.318 75.2755L373.908 76.6958L371.445 75.2755ZM374.222 76.8536L376.632 75.4333L379.095 76.8536L376.685 78.2739L374.222 76.8536ZM341.786 54.9706L344.196 53.5503L348.021 55.7597L345.611 57.1799L341.786 54.9706ZM345.925 57.3904L348.336 55.9701L350.799 57.3904L348.388 58.758L345.925 57.3904ZM348.703 58.9685L351.113 57.5482L353.576 58.9685L351.165 60.3888L348.703 58.9685ZM351.427 60.5466L353.838 59.1263L356.301 60.5466L353.89 61.9669L351.427 60.5466ZM354.205 62.1773L356.615 60.757L359.078 62.1773L356.668 63.5976L354.205 62.1773ZM356.982 63.7554L359.392 62.3351L361.855 63.7554L359.445 65.1757L356.982 63.7554ZM359.707 65.3335L362.117 63.9132L364.58 65.3335L362.17 66.7538L359.707 65.3335ZM362.484 66.9642L364.895 65.5439L367.357 66.9642L364.947 68.3845L362.484 66.9642ZM365.209 68.5423L367.619 67.122L370.082 68.5423L367.672 69.9626L365.209 68.5423ZM367.986 70.173L370.397 68.7527L372.859 70.173L370.449 71.5933L367.986 70.173ZM370.763 71.7511L373.174 70.3308L375.637 71.7511L373.226 73.1714L370.763 71.7511ZM373.488 73.3292L375.899 71.9089L378.362 73.3292L375.951 74.7495L373.488 73.3292ZM376.213 74.9073L378.624 73.487L381.086 74.9073L378.676 76.3276L376.213 74.9073ZM378.938 76.4854L381.348 75.0651L383.811 76.4854L378.728 79.4312L376.947 78.3791L379.619 76.801L378.938 76.4854ZM344.458 53.3925L346.869 51.9722L349.331 53.3925L346.921 54.8128L344.458 53.3925ZM347.183 55.0232L349.593 53.6029L352.056 55.0232L349.646 56.4435L347.183 55.0232ZM349.96 56.6013L352.371 55.181L354.833 56.6013L352.423 58.0216L349.96 56.6013ZM352.737 58.1794L355.148 56.7591L357.611 58.1794L355.2 59.5997L352.737 58.1794ZM355.462 59.8101L357.873 58.3898L360.336 59.8101L357.925 61.2304L355.462 59.8101ZM358.24 61.3882L360.65 59.9679L363.113 61.3882L360.702 62.8085L358.24 61.3882ZM360.964 63.0189L363.375 61.5986L365.838 63.0189L363.427 64.4392L360.964 63.0189ZM363.742 64.597L366.152 63.1767L368.615 64.597L366.205 66.0173L363.742 64.597ZM366.519 66.1751L368.929 64.7548L371.392 66.1751L368.982 67.5954L366.519 66.1751ZM369.244 67.8058L371.654 66.3855L374.117 67.8058L371.707 69.2261L369.244 67.8058ZM372.021 69.3839L374.432 67.9636L376.894 69.3839L374.484 70.8042L372.021 69.3839ZM374.746 70.962L377.156 69.5417L379.619 70.962L377.209 72.3823L374.746 70.962ZM377.471 72.5401L379.881 71.1198L382.344 72.5401L379.934 73.9604L377.471 72.5401ZM380.248 74.1708L382.659 72.7505L386.431 74.9599L384.021 76.3802L380.248 74.1708ZM349.017 52.7087L349.96 52.13L352.109 53.3925L351.165 53.9711L349.017 52.7087ZM351.742 54.2342L352.685 53.6555L354.833 54.918L353.89 55.4966L351.742 54.2342ZM354.467 55.8123L355.41 55.2336L357.558 56.4961L356.615 57.0747L354.467 55.8123ZM357.139 57.3904L358.082 56.8117L360.231 58.0742L359.288 58.6528L357.139 57.3904ZM375.113 67.8058L376.056 67.2272L378.204 68.4897L377.261 69.0683L375.113 67.8058ZM377.838 69.3839L378.781 68.8053L380.929 70.0678L379.986 70.6464L377.838 69.3839ZM380.562 70.962L381.506 70.3834L383.654 71.6459L382.711 72.2245L380.562 70.962ZM383.287 72.5401L384.231 71.9615L386.379 73.224L385.436 73.8026L383.287 72.5401ZM388.737 73.75L348.86 50.6571C348.755 50.6045 348.545 50.6045 348.441 50.6571L333.139 59.5997C333.035 59.6523 333.035 59.7575 333.139 59.8627L372.964 82.9556C373.069 83.0082 373.279 83.0082 373.384 82.9556L388.685 74.013C388.842 73.9078 388.842 73.8026 388.737 73.75Z" fill="#47524F"/>
<path d="M350.222 63.2294L347.812 61.8091L345.349 63.2294L347.812 64.6497L350.222 63.2294Z" fill="#47524F"/>
<path d="M347.497 61.6513L345.034 60.231L342.624 61.6513L345.034 63.0715L347.497 61.6513Z" fill="#47524F"/>
<path d="M344.72 60.0205L342.257 58.6528L339.847 60.0205L342.31 61.4408L344.72 60.0205Z" fill="#47524F"/>
<path d="M358.501 68.0162L356.039 66.5959L353.628 68.0162L356.091 69.4365L358.501 68.0162Z" fill="#47524F"/>
<path d="M355.724 66.4381L353.314 65.0178L350.904 66.4381L353.314 67.8584L355.724 66.4381Z" fill="#47524F"/>
<path d="M353 64.8074L350.537 63.4397L348.126 64.8074L350.589 66.2277L353 64.8074Z" fill="#47524F"/>
<path d="M366.781 72.8033L364.318 71.3831L361.908 72.8033L364.371 74.2236L366.781 72.8033Z" fill="#47524F"/>
<path d="M364.004 71.2252L361.593 69.8049L359.13 71.2252L361.593 72.6455L364.004 71.2252Z" fill="#47524F"/>
<path d="M361.279 69.6471L358.816 68.2268L356.406 69.6471L358.816 71.0148L361.279 69.6471Z" fill="#47524F"/>
<path d="M372.283 76.0121L369.82 74.5918L367.41 76.0121L369.873 77.4324L372.283 76.0121Z" fill="#47524F"/>
<path d="M372.964 79.589L370.554 78.1687L369.453 78.7999L371.916 80.2202L372.964 79.589Z" fill="#47524F"/>
<path d="M371.759 80.3256L369.349 78.9053L368.143 79.5891L370.554 81.0094L371.759 80.3256Z" fill="#47524F"/>
<path d="M361.279 72.8031L347.812 65.0178L345.401 66.4381L358.868 74.2234L361.279 72.8031Z" fill="#47524F"/>
<path d="M347.55 64.8602L344.353 63.019L341.943 64.4393L345.139 66.2805L347.55 64.8602Z" fill="#47524F"/>
<path d="M344.039 62.8087L341.576 61.3884L339.166 62.8087L341.576 64.229L344.039 62.8087Z" fill="#47524F"/>
<path d="M341.262 61.2306L338.851 59.8103L336.441 61.2306L338.851 62.6509L341.262 61.2306Z" fill="#47524F"/>
<path d="M338.589 59.6525L336.179 58.2322L333.716 59.6525L336.179 61.0728L338.589 59.6525Z" fill="#47524F"/>
<path d="M370.187 77.9584L367.724 76.5381L365.314 77.9584L367.777 79.3787L370.187 77.9584Z" fill="#47524F"/>
<path d="M367.357 76.3278L364.947 74.9075L362.484 76.3278L364.947 77.7481L367.357 76.3278Z" fill="#47524F"/>
<path d="M364.685 74.8022L361.593 73.0137L359.183 74.3814L362.222 76.1699L364.685 74.8022Z" fill="#47524F"/>
<path d="M375.741 81.2199L373.331 79.7996L370.868 81.2199L373.331 82.6401L375.741 81.2199Z" fill="#47524F"/>
<path d="M378.466 79.5893L372.65 76.2227L370.24 77.6429L376.056 81.0096L378.466 79.5893Z" fill="#47524F"/>
<path d="M369.506 74.434L367.095 73.0137L364.685 74.434L367.095 75.8543L369.506 74.434Z" fill="#47524F"/>
<path d="M354.257 62.4928L351.847 61.0725L349.436 62.4928L351.847 63.9131L354.257 62.4928Z" fill="#47524F"/>
<path d="M351.532 60.8621L349.069 59.4944L346.659 60.8621L349.122 62.2824L351.532 60.8621Z" fill="#47524F"/>
<path d="M348.755 59.2841L346.344 57.8638L343.882 59.2841L346.344 60.7044L348.755 59.2841Z" fill="#47524F"/>
<path d="M362.536 67.2799L360.126 65.8596L357.663 67.2799L360.126 68.7002L362.536 67.2799Z" fill="#47524F"/>
<path d="M359.812 65.7018L357.349 64.2815L354.938 65.7018L357.349 67.0695L359.812 65.7018Z" fill="#47524F"/>
<path d="M357.034 64.0709L354.571 62.6506L352.161 64.0709L354.624 65.4912L357.034 64.0709Z" fill="#47524F"/>
<path d="M370.816 72.0668L368.353 70.6465L365.943 72.0668L368.405 73.4871L370.816 72.0668Z" fill="#47524F"/>
<path d="M368.038 70.4886L365.628 69.0684L363.218 70.4886L365.628 71.8563L368.038 70.4886Z" fill="#47524F"/>
<path d="M365.314 68.858L362.851 67.4377L360.44 68.858L362.903 70.2783L365.314 68.858Z" fill="#47524F"/>
<path d="M376.318 75.2758L373.907 73.8555L371.445 75.2758L373.907 76.696L376.318 75.2758Z" fill="#47524F"/>
<path d="M379.043 76.8539L376.632 75.4336L374.222 76.8539L376.632 78.2742L379.043 76.8539Z" fill="#47524F"/>
<path d="M381.086 74.9074L378.676 73.4871L376.213 74.9074L378.676 76.3276L381.086 74.9074Z" fill="#47524F"/>
<path d="M383.811 76.4854L381.401 75.1177L378.938 76.4854L379.619 76.8536L376.947 78.4317L378.728 79.4838L383.811 76.4854Z" fill="#47524F"/>
<path d="M382.344 72.5402L379.881 71.1199L377.471 72.5402L379.881 73.9605L382.344 72.5402Z" fill="#47524F"/>
<path d="M386.484 74.9598L382.711 72.7505L380.248 74.1708L384.073 76.3801L386.484 74.9598Z" fill="#47524F"/>
<path d="M373.593 73.6449L371.13 72.2246L368.72 73.6449L371.13 75.0652L373.593 73.6449Z" fill="#47524F"/>
<path d="M356.301 60.5468L353.89 59.1265L351.427 60.5468L353.89 61.967L356.301 60.5468Z" fill="#47524F"/>
<path d="M353.576 58.9686L351.113 57.5483L348.703 58.9686L351.113 60.3889L353.576 58.9686Z" fill="#47524F"/>
<path d="M350.798 57.3905L348.388 55.9702L345.925 57.3905L348.388 58.7582L350.798 57.3905Z" fill="#47524F"/>
<path d="M364.58 65.3335L362.117 63.9658L359.707 65.3335L362.17 66.7538L364.58 65.3335Z" fill="#47524F"/>
<path d="M361.803 63.7555L359.392 62.3352L356.982 63.7555L359.392 65.1758L361.803 63.7555Z" fill="#47524F"/>
<path d="M359.078 62.1774L356.615 60.7571L354.205 62.1774L356.667 63.5977L359.078 62.1774Z" fill="#47524F"/>
<path d="M372.859 70.1732L370.397 68.7529L367.986 70.1732L370.449 71.5409L372.859 70.1732Z" fill="#47524F"/>
<path d="M370.082 68.5424L367.672 67.1221L365.209 68.5424L367.672 69.9626L370.082 68.5424Z" fill="#47524F"/>
<path d="M367.357 66.9642L364.894 65.5439L362.484 66.9642L364.894 68.3845L367.357 66.9642Z" fill="#47524F"/>
<path d="M378.362 73.3292L375.899 71.9089L373.488 73.3292L375.951 74.7495L378.362 73.3292Z" fill="#47524F"/>
<path d="M375.584 71.7511L373.174 70.3308L370.763 71.7511L373.174 73.1714L375.584 71.7511Z" fill="#47524F"/>
<path d="M357.558 58.1795L355.148 56.8118L352.737 58.1795L355.148 59.5997L357.558 58.1795Z" fill="#47524F"/>
<path d="M354.834 56.6014L352.371 55.1812L349.96 56.6014L352.423 58.0217L354.834 56.6014Z" fill="#47524F"/>
<path d="M352.056 55.0233L349.646 53.603L347.183 55.0233L349.646 56.4436L352.056 55.0233Z" fill="#47524F"/>
<path d="M349.331 53.3926L346.868 52.0249L344.458 53.3926L346.868 54.8129L349.331 53.3926Z" fill="#47524F"/>
<path d="M348.021 55.7596L344.196 53.5503L341.786 54.9706L345.611 57.1799L348.021 55.7596Z" fill="#47524F"/>
<path d="M346.03 57.706L341.524 55.1284L339.113 56.5487L343.62 59.1263L346.03 57.706Z" fill="#47524F"/>
<path d="M341.838 58.39L338.904 56.6541L336.441 58.0743L339.428 59.8103L341.838 58.39Z" fill="#47524F"/>
<path d="M365.838 63.0189L363.427 61.5986L360.965 63.0189L363.427 64.3866L365.838 63.0189Z" fill="#47524F"/>
<path d="M363.113 61.3883L360.65 59.968L358.24 61.3883L360.65 62.8086L363.113 61.3883Z" fill="#47524F"/>
<path d="M360.336 59.8102L357.925 58.3899L355.462 59.8102L357.925 61.2305L360.336 59.8102Z" fill="#47524F"/>
<path d="M374.117 67.806L371.654 66.3857L369.244 67.806L371.707 69.2263L374.117 67.806Z" fill="#47524F"/>
<path d="M371.34 66.1752L368.929 64.7549L366.519 66.1752L368.929 67.5955L371.34 66.1752Z" fill="#47524F"/>
<path d="M368.615 64.597L366.152 63.1768L363.742 64.597L366.205 66.0173L368.615 64.597Z" fill="#47524F"/>
<path d="M379.619 70.9622L377.209 69.5945L374.746 70.9622L377.209 72.3825L379.619 70.9622Z" fill="#47524F"/>
<path d="M376.895 69.3842L374.432 67.9639L372.021 69.3842L374.432 70.8045L376.895 69.3842Z" fill="#47524F"/>
<path opacity="0.2" d="M359.707 77.9057L341.943 67.5954C341.681 67.4376 341.262 67.4376 341 67.5954L330.991 73.4344C330.729 73.5922 330.729 73.8552 330.991 73.9604L348.755 84.2707C349.017 84.4285 349.436 84.4285 349.698 84.2707L359.707 78.4317C359.969 78.3265 359.969 78.0635 359.707 77.9057Z" fill="#47524F"/>
<path d="M352.161 53.3924L349.96 52.1299L349.017 52.7085L351.165 53.9184L352.161 53.3924Z" fill="#47524F"/>
<path d="M354.833 54.9705L352.685 53.708L351.742 54.234L353.89 55.4965L354.833 54.9705Z" fill="#47524F"/>
<path d="M357.558 56.496L355.41 55.2861L354.467 55.8122L356.615 57.0746L357.558 56.496Z" fill="#47524F"/>
<path d="M360.283 58.0741L358.135 56.8643L357.139 57.3903L359.34 58.6528L360.283 58.0741Z" fill="#47524F"/>
<path d="M378.257 68.4899L376.108 67.28L375.113 67.8061L377.314 69.0685L378.257 68.4899Z" fill="#47524F"/>
<path d="M380.982 70.068L378.833 68.8582L377.838 69.3842L379.986 70.6467L380.982 70.068Z" fill="#47524F"/>
<path d="M383.707 71.6458L381.506 70.3833L380.562 70.9619L382.711 72.2244L383.707 71.6458Z" fill="#47524F"/>
<path d="M386.379 73.2239L384.231 71.9614L383.287 72.5401L385.436 73.8025L386.379 73.2239Z" fill="#47524F"/>
</g>
<path d="M363.218 30.5629L364.318 29.9316V40.0315L363.165 40.7153L363.218 30.5629Z" fill="#4166BA"/>
<path d="M352.842 24.5658L353.943 23.9346L364.318 29.9314L363.218 30.5626L352.842 24.5658Z" fill="#4166BA"/>
<path d="M363.218 30.5627L363.165 40.7152L352.79 34.6658L352.842 24.5659L363.218 30.5627Z" fill="#5688F8"/>
<mask id="mask2_1632_1215" style="mask-type:luminance" maskUnits="userSpaceOnUse" x="354" y="28" width="8" height="9">
<path d="M354.886 33.4032L354.938 28.4585L361.069 32.0355V36.9276L354.886 33.4032Z" fill="white"/>
</mask>
<g mask="url(#mask2_1632_1215)">
<path d="M357.296 33.6137V31.0361L359.235 33.4559L357.296 33.6137ZM360.703 31.8252L355.253 28.669C355.043 28.5638 354.886 28.669 354.886 28.8794V32.9298C354.886 33.1402 355.043 33.4559 355.253 33.5611L360.703 36.7173C360.912 36.8225 361.069 36.7173 361.069 36.5069V32.4564C361.069 32.246 360.912 31.983 360.703 31.8252Z" fill="white"/>
</g>
<mask id="mask3_1632_1215" style="mask-type:luminance" maskUnits="userSpaceOnUse" x="382" y="58" width="9" height="7">
<path d="M382.973 60.0205V58.0742L390.728 62.5981V64.4918L382.973 60.0205Z" fill="white"/>
</mask>
<g mask="url(#mask3_1632_1215)">
<path d="M384.65 59.0737L382.973 58.0742V60.0205L384.65 61.02V59.0737Z" fill="#F8F8F8"/>
<path d="M389.051 61.8087L385.436 59.7046V60.1254L389.051 62.2296V61.8087Z" fill="#F8F8F8"/>
<path d="M390.728 63.9132L385.436 60.8096V61.2304L390.728 64.2814V63.9132Z" fill="#F8F8F8"/>
</g>
<mask id="mask4_1632_1215" style="mask-type:luminance" maskUnits="userSpaceOnUse" x="385" y="34" width="8" height="8">
<path d="M385.069 36.6643V34.718L392.772 39.1893V41.1356L385.069 36.6643Z" fill="white"/>
</mask>
<g mask="url(#mask4_1632_1215)">
<path d="M386.746 35.7175L385.069 34.718V36.6643L386.746 37.6112V35.7175Z" fill="#F8F8F8"/>
<path d="M391.147 38.4528L387.532 36.3486V36.7695L391.147 38.8736V38.4528Z" fill="#F8F8F8"/>
<path d="M392.772 40.5046L387.532 37.4536V37.8744L392.772 40.9254V40.5046Z" fill="#F8F8F8"/>
</g>
<mask id="mask5_1632_1215" style="mask-type:luminance" maskUnits="userSpaceOnUse" x="363" y="46" width="9" height="7">
<path d="M363.532 48.2898V46.3435L371.235 50.8148V52.7611L363.532 48.2898Z" fill="white"/>
</mask>
<g mask="url(#mask5_1632_1215)">
<path d="M365.209 47.2904L363.532 46.3435V48.2898L365.209 49.2367V47.2904Z" fill="#F8F8F8"/>
<path d="M369.611 50.0783L365.943 47.9741V48.3949L369.611 50.4465V50.0783Z" fill="#F8F8F8"/>
<path d="M371.235 52.1301L365.943 49.0791V49.4999L371.235 52.5509V52.1301Z" fill="#F8F8F8"/>
</g>
<mask id="mask6_1632_1215" style="mask-type:luminance" maskUnits="userSpaceOnUse" x="368" y="29" width="19" height="31">
<path d="M368.982 49.6049L369.086 29.0896L386.85 39.3999L386.798 59.9152L368.982 49.6049Z" fill="white"/>
</mask>
<g mask="url(#mask6_1632_1215)">
<path d="M377.576 34.0343C373.069 31.6672 369.453 33.6135 369.034 38.5056L373.331 41.0306C373.645 38.8213 375.375 37.9796 377.523 38.9791L377.576 34.0343Z" fill="#85E2CA"/>
</g>
<mask id="mask7_1632_1215" style="mask-type:luminance" maskUnits="userSpaceOnUse" x="368" y="29" width="19" height="31">
<path d="M368.982 49.6049L369.086 29.0896L386.85 39.3999L386.798 59.9152L368.982 49.6049Z" fill="white"/>
</mask>
<g mask="url(#mask7_1632_1215)">
<path d="M373.331 41.8198L369.034 39.3474C369.034 41.925 369.873 44.8182 371.235 47.4483L374.484 46.0806C373.75 44.713 373.331 43.1875 373.331 41.8198Z" fill="#5688F8"/>
</g>
<mask id="mask8_1632_1215" style="mask-type:luminance" maskUnits="userSpaceOnUse" x="368" y="29" width="19" height="31">
<path d="M368.982 49.6049L369.086 29.0896L386.85 39.3999L386.798 59.9152L368.982 49.6049Z" fill="white"/>
</mask>
<g mask="url(#mask8_1632_1215)">
<path d="M378.309 34.4553V39.4C380.667 40.9781 382.554 44.3448 382.554 47.1327C382.554 50.0785 380.458 51.2358 377.942 49.7629C376.842 49.1317 375.846 48.1322 375.06 46.9223L371.759 48.29C373.331 50.9728 375.532 53.3399 377.89 54.7076C382.763 57.5482 386.798 55.2863 386.798 49.6051C386.851 44.1343 383.025 37.4011 378.309 34.4553Z" fill="#F2DC68"/>
</g>
</g>
<path d="M135.865 43.0425L149.445 51.102L175.771 35.2341L196.327 47.6758" stroke="#0E3572" stroke-width="1.09707" stroke-linecap="round"/>
<path d="M69.1147 81.009L111.427 105.129L149.652 82.0311L164.369 90.6162L190.533 74.6724" stroke="#0E3572" stroke-width="1.09707" stroke-linecap="round"/>
<path d="M239.582 46.9343L243.376 44.0154L325.974 93.0493L340.276 84.0014" stroke="#0E3572" stroke-width="1.09707" stroke-linecap="round"/>
<path d="M45.5803 53.0027L91.0625 79.0602" stroke="#0E3572" stroke-width="0.548533" stroke-dasharray="1.1 1.1"/>
<line x1="19.8585" y1="78.3494" x2="62.9719" y2="53.2395" stroke="#0E3572" stroke-width="0.548533" stroke-dasharray="1.1 1.1"/>
<line x1="47.3373" y1="93.9837" x2="90.4506" y2="68.8737" stroke="#0E3572" stroke-width="0.548533" stroke-dasharray="1.1 1.1"/>
<mask id="path-180-inside-4_1632_1215" fill="white">
<path d="M71.0269 67.5115L82.48 67.5369V74.0583L56.3286 89.2742L29.9468 74.0583L29.9478 67.4226L41.4253 67.447L56.1704 58.9558L71.0269 67.5115Z"/>
</mask>
<path d="M71.0269 67.5115L82.48 67.5369V74.0583L56.3286 89.2742L29.9468 74.0583L29.9478 67.4226L41.4253 67.447L56.1704 58.9558L71.0269 67.5115Z" fill="url(#paint8_linear_1632_1215)"/>
<path d="M71.0269 67.5115L70.7029 68.074L70.8526 68.1603L71.0254 68.1607L71.0269 67.5115ZM82.48 67.5369H83.1292V66.8891L82.4814 66.8877L82.48 67.5369ZM82.48 74.0583L82.8065 74.6195L83.1292 74.4317V74.0583H82.48ZM56.3286 89.2742L56.0043 89.8365L56.33 90.0244L56.6551 89.8353L56.3286 89.2742ZM29.9468 74.0583L29.2976 74.0583L29.2975 74.4333L29.6224 74.6207L29.9468 74.0583ZM29.9478 67.4226L29.9491 66.7734L29.2987 66.772L29.2986 67.4225L29.9478 67.4226ZM41.4253 67.447L41.4239 68.0962L41.5982 68.0966L41.7493 68.0096L41.4253 67.447ZM56.1704 58.9558L56.4944 58.3932L56.1704 58.2067L55.8464 58.3932L56.1704 58.9558ZM71.0269 67.5115L71.0254 68.1607L82.4785 68.186L82.48 67.5369L82.4814 66.8877L71.0283 66.8623L71.0269 67.5115ZM82.48 67.5369H81.8308V74.0583H82.48H83.1292V67.5369H82.48ZM82.48 74.0583L82.1535 73.4972L56.0021 88.7131L56.3286 89.2742L56.6551 89.8353L82.8065 74.6195L82.48 74.0583ZM56.3286 89.2742L56.653 88.7118L30.2711 73.496L29.9468 74.0583L29.6224 74.6207L56.0043 89.8365L56.3286 89.2742ZM29.9468 74.0583L30.596 74.0584L30.5969 67.4227L29.9478 67.4226L29.2986 67.4225L29.2976 74.0583L29.9468 74.0583ZM29.9478 67.4226L29.9464 68.0718L41.4239 68.0962L41.4253 67.447L41.4267 66.7978L29.9491 66.7734L29.9478 67.4226ZM41.4253 67.447L41.7493 68.0096L56.4944 59.5184L56.1704 58.9558L55.8464 58.3932L41.1013 66.8845L41.4253 67.447ZM56.1704 58.9558L55.8464 59.5184L70.7029 68.074L71.0269 67.5115L71.3508 66.9489L56.4944 58.3932L56.1704 58.9558Z" fill="#0E3572" mask="url(#path-180-inside-4_1632_1215)"/>
<path d="M81.8248 67.5351L56.1721 82.1495L30.599 67.4221L56.1704 52.6956L81.8248 67.5351Z" fill="white" stroke="#0E3572" stroke-width="0.752415"/>
<mask id="path-183-inside-5_1632_1215" fill="white">
<path d="M71.0269 56.1409L82.478 56.1663V62.6877L56.3276 77.9036L29.9468 62.6877V56.052L41.4253 56.0764L56.1704 47.5852L71.0269 56.1409Z"/>
</mask>
<path d="M71.0269 56.1409L82.478 56.1663V62.6877L56.3276 77.9036L29.9468 62.6877V56.052L41.4253 56.0764L56.1704 47.5852L71.0269 56.1409Z" fill="url(#paint9_linear_1632_1215)"/>
<path d="M71.0269 56.1409L70.7029 56.7034L70.8526 56.7897L71.0254 56.79L71.0269 56.1409ZM82.478 56.1663H83.1272V55.5185L82.4795 55.5171L82.478 56.1663ZM82.478 62.6877L82.8045 63.2489L83.1272 63.0611V62.6877H82.478ZM56.3276 77.9036L56.0033 78.4659L56.3291 78.6538L56.6541 78.4647L56.3276 77.9036ZM29.9468 62.6877H29.2976V63.0627L29.6224 63.2501L29.9468 62.6877ZM29.9468 56.052L29.9482 55.4028L29.2976 55.4014V56.052H29.9468ZM41.4253 56.0764L41.4239 56.7256L41.5982 56.726L41.7493 56.639L41.4253 56.0764ZM56.1704 47.5852L56.4944 47.0226L56.1704 46.8361L55.8464 47.0226L56.1704 47.5852ZM71.0269 56.1409L71.0254 56.79L82.4766 56.8154L82.478 56.1663L82.4795 55.5171L71.0283 55.4917L71.0269 56.1409ZM82.478 56.1663H81.8288V62.6877H82.478H83.1272V56.1663H82.478ZM82.478 62.6877L82.1515 62.1266L56.0012 77.3425L56.3276 77.9036L56.6541 78.4647L82.8045 63.2489L82.478 62.6877ZM56.3276 77.9036L56.652 77.3412L30.2711 62.1254L29.9468 62.6877L29.6224 63.2501L56.0033 78.4659L56.3276 77.9036ZM29.9468 62.6877H30.596V56.052H29.9468H29.2976V62.6877H29.9468ZM29.9468 56.052L29.9454 56.7012L41.4239 56.7256L41.4253 56.0764L41.4267 55.4272L29.9482 55.4028L29.9468 56.052ZM41.4253 56.0764L41.7493 56.639L56.4944 48.1478L56.1704 47.5852L55.8464 47.0226L41.1013 55.5138L41.4253 56.0764ZM56.1704 47.5852L55.8464 48.1478L70.7029 56.7034L71.0269 56.1409L71.3508 55.5783L56.4944 47.0226L56.1704 47.5852Z" fill="#0E3572" mask="url(#path-183-inside-5_1632_1215)"/>
<path d="M82.0018 56.1645L56.1714 70.8813L30.4214 56.0519L56.1697 41.2236L82.0018 56.1645Z" fill="white" stroke="#0E3572" stroke-width="0.548533"/>
<path d="M19.5227 68.1636L65.0049 94.2211" stroke="#0E3572" stroke-width="0.548533" stroke-dasharray="1.1 1.1"/>
<g clip-path="url(#clip3_1632_1215)">
<path d="M62.8923 52.2535L62.8889 52.2516C59.222 50.1345 53.2572 50.135 49.5894 52.2526C48.1346 53.0925 47.255 54.1417 46.9574 55.2341L43.6579 56.1821L47.0314 57.1861C47.3864 58.1955 48.2385 59.1521 49.591 59.933C53.258 62.0501 59.2236 62.0492 62.8906 59.932C66.5576 57.8149 66.5592 54.3707 62.8923 52.2535Z" fill="url(#paint10_linear_1632_1215)"/>
<path d="M57.3707 59.9101C56.7572 60.0791 55.7446 59.9284 55.1269 59.6985C54.7055 59.5406 54.1925 59.3126 53.298 58.0647C52.1533 56.4688 52.8807 54.5955 52.9115 54.4644C52.9464 54.3358 53.1733 53.4013 54.1277 52.8503C55.082 52.2993 56.0314 52.3108 56.4263 52.3084C56.7505 52.3065 57.0905 52.4164 57.3449 52.5633C57.4272 52.6108 57.497 52.6559 57.5602 52.6963C57.7473 52.8138 57.8337 52.8772 57.6542 53.1297C57.428 53.4455 56.8644 54.2221 56.8129 54.3056C56.7622 54.3896 56.6765 54.4937 56.4812 54.5297C56.2858 54.5705 56.1719 54.5729 55.9608 54.5816C55.7496 54.5902 55.57 54.5864 55.3506 54.5998C55.1552 54.6089 54.9407 54.6156 54.8584 54.7937C54.7803 54.9694 54.5334 55.5631 54.5965 56.1909C54.678 57.0011 55.0687 57.4705 55.1943 57.6466C55.2882 57.7777 55.4952 57.8789 55.7371 57.8746C56.0464 57.8679 56.4961 57.8204 56.945 57.7772C57.2659 57.7455 57.4571 57.829 57.5669 57.9692C57.6841 58.1088 58.1646 58.9286 58.2627 59.0976C58.36 59.267 58.4423 59.3683 58.4073 59.4431C58.3716 59.5175 57.985 59.7407 57.3707 59.9101Z" fill="#FAFAFA"/>
</g>
<g clip-path="url(#clip4_1632_1215)">
<path d="M130.506 12.9858L126.147 15.5027C128.25 16.717 128.25 18.6928 126.147 19.9071L130.506 22.424C135.018 19.819 135.018 15.5908 130.506 12.9858Z" fill="#FF4DB3"/>
<path fill-rule="evenodd" clip-rule="evenodd" d="M131.596 12.3569C136.707 15.3079 136.707 20.1023 131.596 23.0532L125.057 19.2778C126.561 18.4096 126.561 17.0006 125.057 16.1323L130.506 12.9863L130.507 12.9858L131.596 12.3569Z" fill="url(#paint11_linear_1632_1215)"/>
<path d="M130.506 12.9859L126.147 15.5027C124.043 14.2884 120.621 14.2884 118.518 15.5027C116.415 16.7171 116.415 18.6928 118.518 19.9072C120.621 21.1216 124.043 21.1216 126.147 19.9072L130.506 22.424C125.994 25.029 118.67 25.029 114.159 22.424C109.647 19.8191 109.647 15.5908 114.159 12.9859C118.67 10.381 125.994 10.381 130.506 12.9859Z" fill="white"/>
<path d="M130.506 12.9859L126.147 15.5027C124.043 14.2884 120.621 14.2884 118.518 15.5027C116.415 16.7171 116.415 18.6928 118.518 19.9072C120.621 21.1216 124.043 21.1216 126.147 19.9072L130.506 22.424C125.994 25.029 118.67 25.029 114.159 22.424C109.647 19.8191 109.647 15.5908 114.159 12.9859C118.67 10.381 125.994 10.381 130.506 12.9859Z" fill="#0E3572" fill-opacity="0.2"/>
</g>
<path d="M13.2512 57.3878L6.28892 55.0006L7.40622 54.3555L13.3804 56.4794L12.9091 56.5496L13.6692 56.1108L13.5096 56.4048L9.80044 53.2189L10.7277 52.6836L14.9385 56.4136L13.2512 57.3878ZM16.5651 55.4745L10.0057 53.1005L10.9709 52.5431L16.6259 54.6056L16.1242 54.6934L16.8691 54.2633L16.7551 54.531L12.9395 51.1608L13.996 50.5509L18.2828 54.4828L16.5651 55.4745ZM20.3238 53.3044L14.7753 50.101L15.8318 49.491L19.0697 51.3604L18.8872 51.4657C18.4717 51.2258 18.1728 50.9918 17.9904 50.7636C17.808 50.5354 17.7446 50.3175 17.8003 50.1098C17.8612 49.8991 18.0537 49.7002 18.378 49.5129L18.4236 49.4866C18.8948 49.2145 19.4142 49.1019 19.9817 49.1487C20.5493 49.1955 21.1421 49.3974 21.7603 49.7543L24.1165 51.1147L23.06 51.7246L20.605 50.3072C20.3415 50.1551 20.0578 50.079 19.7537 50.079C19.4548 50.0761 19.1837 50.1449 18.9405 50.2853C18.682 50.4345 18.5579 50.6056 18.568 50.7987C18.5782 50.9859 18.72 51.1585 18.9937 51.3165L21.3803 52.6944L20.3238 53.3044ZM27.753 49.0152L26.5293 48.3086L26.3545 48.4096L24.9939 47.6241C24.7558 47.4866 24.5202 47.4178 24.2871 47.4178C24.054 47.4178 23.8158 47.488 23.5726 47.6285C23.4459 47.7016 23.2964 47.7908 23.1242 47.8961C22.9519 48.0015 22.7796 48.1097 22.6073 48.2209C22.435 48.3262 22.283 48.4227 22.1513 48.5105L21.2544 47.9927C21.3608 47.9196 21.4824 47.8376 21.6192 47.7469C21.756 47.6563 21.9004 47.567 22.0525 47.4793C22.2045 47.3856 22.3489 47.2993 22.4857 47.2204C22.9113 46.9746 23.3192 46.8035 23.7094 46.7069C24.1047 46.6075 24.4923 46.5855 24.8723 46.6411C25.2574 46.6938 25.6425 46.8313 26.0276 47.0536L28.5891 48.5324L27.753 49.0152ZM26.5293 49.8445C26.2303 50.0171 25.9136 50.1386 25.5792 50.2088C25.2498 50.2761 24.923 50.2892 24.5987 50.2483C24.2795 50.2044 23.9805 50.102 23.7018 49.9411C23.3978 49.7655 23.223 49.5798 23.1774 49.3838C23.1368 49.1848 23.2027 48.9801 23.375 48.7694C23.5523 48.5559 23.8234 48.3438 24.1883 48.1331L25.1459 47.5802L25.7768 47.9444L24.8039 48.5061C24.5607 48.6465 24.434 48.7899 24.4239 48.9362C24.4137 49.0766 24.5024 49.2009 24.6899 49.3092C24.8774 49.4174 25.0927 49.4686 25.336 49.4628C25.5843 49.454 25.83 49.3794 26.0732 49.239C26.2202 49.1541 26.3291 49.062 26.4001 48.9625C26.471 48.8572 26.4837 48.7445 26.4381 48.6246C26.3925 48.4988 26.2632 48.3686 26.0504 48.234L26.6053 48.256C26.8688 48.4374 27.0411 48.6187 27.1221 48.8001C27.2083 48.9786 27.2032 49.157 27.1069 49.3355C27.0106 49.5081 26.8181 49.6778 26.5293 49.8445ZM31.5677 46.8742C31.1877 47.0936 30.8254 47.2472 30.4808 47.3349C30.1362 47.4168 29.7866 47.4256 29.4319 47.3613C29.0721 47.294 28.6921 47.1448 28.2918 46.9137L24.5599 44.7502L25.548 44.1798L29.3483 46.3827C29.551 46.4997 29.7613 46.5597 29.9792 46.5626C30.197 46.5597 30.4073 46.4997 30.61 46.3827L31.2561 46.0097L32.1606 46.5319L31.5677 46.8742ZM25.8368 46.251L25.0615 45.8034L27.9802 44.1183L28.7554 44.5659L25.8368 46.251ZM34.5909 45.2165C34.0234 45.5441 33.4584 45.7328 32.896 45.7825C32.3335 45.8264 31.8319 45.7299 31.391 45.4929L32.3411 44.9444C32.4982 45.0175 32.706 45.0468 32.9644 45.0322C33.2228 45.0175 33.504 44.9224 33.8081 44.7469C34.0614 44.6006 34.216 44.4588 34.2717 44.3213C34.3325 44.1808 34.2844 44.0653 34.1273 43.9746C33.9905 43.8956 33.8233 43.8663 33.6256 43.8868C33.4331 43.9044 33.1873 43.9848 32.8884 44.1282L32.4855 44.3169C31.9738 44.5538 31.4873 44.6826 31.0262 44.703C30.5651 44.7235 30.1572 44.6314 29.8025 44.4266C29.5187 44.2627 29.3515 44.0843 29.3009 43.8912C29.2502 43.6981 29.3009 43.5021 29.4529 43.3032C29.6049 43.0984 29.843 42.9024 30.1673 42.7152C30.674 42.4226 31.196 42.25 31.7331 42.1973C32.2702 42.1447 32.7617 42.2383 33.2076 42.4782L32.2575 43.0267C32.1055 42.9507 31.913 42.9214 31.6799 42.939C31.4468 42.9565 31.2061 43.037 30.9578 43.1803C30.7349 43.309 30.6056 43.4334 30.5702 43.5533C30.5347 43.6733 30.5854 43.7727 30.7222 43.8517C30.8539 43.9278 31.0034 43.9585 31.1706 43.9439C31.3429 43.9263 31.5532 43.8605 31.8015 43.7464L32.2043 43.5577C32.7414 43.3061 33.2557 43.1642 33.7473 43.132C34.2438 43.0969 34.6771 43.1862 35.047 43.3997C35.3206 43.5577 35.4828 43.7391 35.5334 43.9439C35.5841 44.1428 35.5309 44.352 35.3738 44.5714C35.2167 44.7908 34.9558 45.0058 34.5909 45.2165ZM39.6365 42.1542L38.4128 41.4477L38.238 41.5486L36.8774 40.7631C36.6393 40.6256 36.4037 40.5569 36.1706 40.5569C35.9375 40.5569 35.6993 40.6271 35.4561 40.7675C35.3294 40.8407 35.18 40.9299 35.0077 41.0352C34.8354 41.1405 34.6631 41.2488 34.4908 41.3599C34.3185 41.4653 34.1665 41.5618 34.0348 41.6496L33.1379 41.1317C33.2443 41.0586 33.3659 40.9767 33.5027 40.886C33.6395 40.7953 33.784 40.7061 33.936 40.6183C34.088 40.5247 34.2324 40.4384 34.3692 40.3594C34.7948 40.1137 35.2028 39.9425 35.5929 39.846C35.9882 39.7465 36.3758 39.7246 36.7558 39.7802C37.1409 39.8328 37.526 39.9703 37.9111 40.1927L40.4726 41.6715L39.6365 42.1542ZM38.4128 42.9836C38.1138 43.1562 37.7971 43.2776 37.4627 43.3478C37.1333 43.4151 36.8065 43.4283 36.4822 43.3873C36.163 43.3434 35.864 43.241 35.5853 43.0801C35.2813 42.9046 35.1065 42.7188 35.0609 42.5228C35.0203 42.3239 35.0862 42.1191 35.2585 41.9085C35.4358 41.6949 35.7069 41.4828 36.0718 41.2722L37.0295 40.7192L37.6603 41.0835L36.6874 41.6452C36.4442 41.7856 36.3175 41.9289 36.3074 42.0752C36.2973 42.2156 36.3859 42.34 36.5734 42.4482C36.7609 42.5565 36.9762 42.6077 37.2195 42.6018C37.4678 42.593 37.7135 42.5184 37.9567 42.378C38.1037 42.2932 38.2126 42.201 38.2836 42.1016C38.3545 41.9962 38.3672 41.8836 38.3216 41.7637C38.276 41.6379 38.1468 41.5077 37.9339 41.3731L38.4888 41.395C38.7523 41.5764 38.9246 41.7578 39.0056 41.9392C39.0918 42.1176 39.0867 42.2961 38.9904 42.4746C38.8942 42.6472 38.7016 42.8168 38.4128 42.9836ZM43.1244 41.8958L37.4771 38.6353L38.3131 38.1526L40.0917 39.1794L39.9549 39.2497C39.5546 38.9951 39.2886 38.7421 39.1568 38.4905C39.0301 38.236 39.0276 37.9946 39.1492 37.7664C39.2658 37.5353 39.4836 37.3276 39.8029 37.1433C40.0968 36.9736 40.4135 36.8522 40.753 36.7791C41.0975 36.703 41.4497 36.6723 41.8095 36.6869C42.1743 36.6986 42.5315 36.7527 42.8812 36.8493C43.2257 36.9429 43.545 37.0745 43.8388 37.2442L43.9985 37.3364C44.2974 37.509 44.5305 37.6962 44.6977 37.8981C44.8649 38.0941 44.9612 38.2989 44.9866 38.5124C45.0119 38.7201 44.9612 38.9249 44.8345 39.1268C44.7028 39.3257 44.49 39.51 44.1961 39.6797C43.887 39.8582 43.5399 39.9854 43.1548 40.0615C42.7697 40.1317 42.3643 40.1346 41.9387 40.0703C41.508 40.003 41.0671 39.8509 40.6162 39.6139L41.4598 39.7148L44.1809 41.2858L43.1244 41.8958ZM43.0408 39.3199C43.2688 39.1882 43.4107 39.0419 43.4664 38.881C43.5272 38.7172 43.5069 38.5505 43.4056 38.3808C43.2992 38.2082 43.1193 38.0487 42.866 37.9025C42.6025 37.7503 42.3263 37.6465 42.0375 37.5909C41.7487 37.5353 41.4649 37.5265 41.1862 37.5646C40.9075 37.5967 40.6542 37.6787 40.4261 37.8103C40.2184 37.9303 40.0714 38.0678 39.9853 38.2228C39.9042 38.3749 39.8966 38.5344 39.9625 38.7011C40.0334 38.865 40.193 39.0185 40.4413 39.1619L40.7454 39.3374C40.9835 39.4749 41.2419 39.5598 41.5206 39.5919C41.7993 39.6241 42.073 39.6153 42.3415 39.5656C42.6101 39.5159 42.8432 39.434 43.0408 39.3199ZM48.4389 38.8274L42.7916 35.5669L43.6277 35.0842L45.4063 36.1111L45.2694 36.1813C44.8691 35.9268 44.6031 35.6737 44.4714 35.4221C44.3447 35.1676 44.3422 34.9263 44.4638 34.6981C44.5803 34.467 44.7982 34.2592 45.1174 34.0749C45.4113 33.9053 45.728 33.7838 46.0675 33.7107C46.4121 33.6346 46.7642 33.6039 47.124 33.6186C47.4888 33.6303 47.8461 33.6844 48.1957 33.7809C48.5403 33.8745 48.8595 34.0062 49.1534 34.1759L49.313 34.268C49.612 34.4406 49.8451 34.6279 50.0123 34.8297C50.1795 35.0257 50.2758 35.2305 50.3011 35.4441C50.3264 35.6518 50.2758 35.8566 50.1491 36.0584C50.0173 36.2574 49.8045 36.4417 49.5106 36.6114C49.2015 36.7898 48.8544 36.9171 48.4693 36.9931C48.0842 37.0633 47.6789 37.0663 47.2532 37.0019C46.8225 36.9346 46.3817 36.7825 45.9307 36.5455L46.7744 36.6465L49.4954 38.2175L48.4389 38.8274ZM48.3553 36.2515C48.5833 36.1199 48.7252 35.9736 48.781 35.8127C48.8418 35.6489 48.8215 35.4821 48.7202 35.3124C48.6137 35.1398 48.4339 34.9804 48.1805 34.8341C47.917 34.682 47.6409 34.5781 47.352 34.5225C47.0632 34.467 46.7794 34.4582 46.5008 34.4962C46.2221 34.5284 45.9687 34.6103 45.7407 34.742C45.5329 34.8619 45.386 34.9994 45.2998 35.1544C45.2188 35.3066 45.2112 35.466 45.277 35.6328C45.348 35.7966 45.5076 35.9502 45.7559 36.0935L46.0599 36.2691C46.2981 36.4066 46.5565 36.4914 46.8352 36.5236C47.1139 36.5558 47.3875 36.547 47.6561 36.4973C47.9246 36.4475 48.1577 36.3656 48.3553 36.2515Z" fill="#0E3572"/>
<path d="M93.5039 15.2305C93.0022 15.5202 92.4829 15.7176 91.9457 15.823C91.4086 15.9283 90.8842 15.9648 90.3724 15.9327C89.8657 15.8976 89.3919 15.8142 88.9511 15.6825C88.5102 15.5509 88.1353 15.3958 87.8262 15.2174L87.659 15.1208C87.3144 14.9219 87.0281 14.6952 86.8001 14.4406C86.5771 14.1832 86.4428 13.9097 86.3972 13.62C86.3516 13.3304 86.4226 13.0379 86.6101 12.7424C86.7975 12.4411 87.132 12.1514 87.6134 11.8735C88.115 11.5839 88.642 11.385 89.1943 11.2767C89.7466 11.1626 90.2989 11.1363 90.8512 11.1977C91.3985 11.2562 91.9128 11.3981 92.3942 11.6234L91.3073 12.2509C91.0134 12.128 90.7094 12.0578 90.3952 12.0403C90.081 12.0169 89.7745 12.0417 89.4755 12.1149C89.1715 12.1851 88.8852 12.2977 88.6166 12.4528C88.343 12.6107 88.1479 12.779 88.0314 12.9574C87.9098 13.1329 87.8642 13.3114 87.8946 13.4928C87.925 13.6742 88.0187 13.8541 88.1758 14.0325C88.338 14.2081 88.5609 14.3777 88.8447 14.5416C89.1183 14.6996 89.4071 14.8254 89.7111 14.919C90.0202 15.0097 90.3369 15.0638 90.6612 15.0813C90.9805 15.096 91.2946 15.0696 91.6037 15.0023C91.9179 14.9321 92.2168 14.8151 92.5006 14.6513C92.9161 14.4114 93.1644 14.151 93.2455 13.8702C93.3265 13.5835 93.2125 13.3158 92.9034 13.0671L93.9903 12.4396C94.3349 12.697 94.5629 12.9837 94.6744 13.2997C94.7859 13.6157 94.7504 13.9404 94.568 14.2739C94.3856 14.6074 94.0309 14.9263 93.5039 15.2305ZM96.9305 13.0854L91.344 9.86005L92.4233 9.23692L98.0098 12.4623L96.9305 13.0854ZM100.32 11.1283L96.2008 10.7158L97.4093 10.018L101.582 10.3998L100.32 11.1283ZM95.836 11.5759L94.9619 11.0712L96.3756 10.255C96.5733 10.1409 96.7025 10.0195 96.7633 9.89077C96.8292 9.75912 96.8292 9.62748 96.7633 9.49583C96.6974 9.36418 96.5707 9.24423 96.3832 9.13599C96.1907 9.02482 95.9804 8.95022 95.7524 8.91219C95.5244 8.87416 95.2963 8.87416 95.0683 8.91219C94.8454 8.9473 94.6351 9.0219 94.4375 9.13599L93.0237 9.95221L92.1041 9.42123L93.4038 8.67084C93.8497 8.41339 94.3007 8.22908 94.7567 8.11791C95.2178 8.00382 95.6713 7.9731 96.1172 8.02576C96.5631 8.07842 96.9888 8.22177 97.3941 8.45581L97.5157 8.52602C97.9262 8.76299 98.1719 9.01019 98.253 9.26764C98.3392 9.52216 98.286 9.78107 98.0934 10.0444C97.9009 10.3077 97.5816 10.568 97.1357 10.8255L95.836 11.5759ZM102.401 9.92708L96.8524 6.72365L98.3269 5.87232L103.032 6.98255L103.169 6.90357L101.238 4.19162L102.735 3.32713L108.284 6.53056L107.212 7.14931L102.477 4.41542L102.629 4.34521L104.719 7.28096L103.617 7.91725L98.5246 6.71487L98.6538 6.62272L103.389 9.3566L102.401 9.92708Z" fill="#0E3572"/>
</g>
<defs>
<filter id="filter0_i_1632_1215" x="178.87" y="34.6572" width="79.3657" height="45.6326" filterUnits="userSpaceOnUse" color-interpolation-filters="sRGB">
<feFlood flood-opacity="0" result="BackgroundImageFix"/>
<feBlend mode="normal" in="SourceGraphic" in2="BackgroundImageFix" result="shape"/>
<feColorMatrix in="SourceAlpha" type="matrix" values="0 0 0 0 0 0 0 0 0 0 0 0 0 0 0 0 0 0 127 0" result="hardAlpha"/>
<feOffset/>
<feGaussianBlur stdDeviation="3.94944"/>
<feComposite in2="hardAlpha" operator="arithmetic" k2="-1" k3="1"/>
<feColorMatrix type="matrix" values="0 0 0 0 0.054902 0 0 0 0 0.207843 0 0 0 0 0.447059 0 0 0 0.35 0"/>
<feBlend mode="normal" in2="shape" result="effect1_innerShadow_1632_1215"/>
</filter>
<radialGradient id="paint0_radial_1632_1215" cx="0" cy="0" r="1" gradientUnits="userSpaceOnUse" gradientTransform="translate(200.275 223.017) rotate(90) scale(205.645 205.645)">
<stop stop-color="#D9D9D9"/>
<stop offset="0.890272" stop-color="#D9D9D9" stop-opacity="0"/>
</radialGradient>
<linearGradient id="paint1_linear_1632_1215" x1="122.457" y1="20.5684" x2="122.457" y2="50.8848" gradientUnits="userSpaceOnUse">
<stop stop-color="white"/>
<stop offset="1" stop-color="#3EAFD1"/>
</linearGradient>
<linearGradient id="paint2_linear_1632_1215" x1="122.456" y1="9.19849" x2="122.456" y2="39.5149" gradientUnits="userSpaceOnUse">
<stop stop-color="white"/>
<stop offset="1" stop-color="#3EAFD1"/>
</linearGradient>
<linearGradient id="paint3_linear_1632_1215" x1="218.553" y1="44.6824" x2="218.553" y2="90.488" gradientUnits="userSpaceOnUse">
<stop stop-color="white"/>
<stop offset="1" stop-color="#3EAFD1"/>
</linearGradient>
<linearGradient id="paint4_linear_1632_1215" x1="223.773" y1="41.9236" x2="227.006" y2="69.0255" gradientUnits="userSpaceOnUse">
<stop stop-color="#97E0FF"/>
<stop offset="1" stop-color="#1075FF"/>
</linearGradient>
<linearGradient id="paint5_linear_1632_1215" x1="223.773" y1="41.9236" x2="227.006" y2="69.0255" gradientUnits="userSpaceOnUse">
<stop stop-color="#97E0FF"/>
<stop offset="1" stop-color="#1075FF"/>
</linearGradient>
<linearGradient id="paint6_linear_1632_1215" x1="221.258" y1="49.488" x2="222.92" y2="63.4219" gradientUnits="userSpaceOnUse">
<stop stop-color="#97E0FF"/>
<stop offset="1" stop-color="#1075FF"/>
</linearGradient>
<linearGradient id="paint7_linear_1632_1215" x1="221.258" y1="49.488" x2="222.92" y2="63.4219" gradientUnits="userSpaceOnUse">
<stop stop-color="#97E0FF"/>
<stop offset="1" stop-color="#1075FF"/>
</linearGradient>
<linearGradient id="paint8_linear_1632_1215" x1="56.2134" y1="58.9558" x2="56.2134" y2="89.2742" gradientUnits="userSpaceOnUse">
<stop stop-color="white"/>
<stop offset="1" stop-color="#3EAFD1"/>
</linearGradient>
<linearGradient id="paint9_linear_1632_1215" x1="56.2124" y1="47.5852" x2="56.2124" y2="77.9036" gradientUnits="userSpaceOnUse">
<stop stop-color="white"/>
<stop offset="1" stop-color="#3EAFD1"/>
</linearGradient>
<linearGradient id="paint10_linear_1632_1215" x1="62.8906" y1="52.2526" x2="56.24" y2="63.7718" gradientUnits="userSpaceOnUse">
<stop stop-color="#4CAF50"/>
<stop offset="1" stop-color="#71D475"/>
</linearGradient>
<linearGradient id="paint11_linear_1632_1215" x1="129.052" y1="13.351" x2="135.072" y2="19.371" gradientUnits="userSpaceOnUse">
<stop stop-color="#0E3572"/>
<stop offset="1" stop-color="#1B64D8"/>
</linearGradient>
<clipPath id="clip0_1632_1215">
<rect width="406" height="113" fill="white"/>
</clipPath>
<clipPath id="clip1_1632_1215">
<rect width="26.4094" height="26.4094" fill="white" transform="matrix(0.866025 0.5 -0.866025 0.5 218.596 44.3306)"/>
</clipPath>
<clipPath id="clip2_1632_1215">
<rect width="85.5711" height="91.0565" fill="white" transform="translate(313.803 6.47021)"/>
</clipPath>
<clipPath id="clip3_1632_1215">
<rect width="15.3589" height="15.3589" fill="white" transform="matrix(0.866025 0.5 -0.866025 0.5 56.24 48.4128)"/>
</clipPath>
<clipPath id="clip4_1632_1215">
<rect width="20.1347" height="20.1347" fill="white" transform="matrix(0.866025 0.5 -0.866025 0.5 123.422 7.6377)"/>
</clipPath>
</defs>
</svg>
