<svg width="138" height="31" viewBox="0 0 138 31" fill="none" xmlns="http://www.w3.org/2000/svg">
<g clip-path="url(#clip0_2372_28266)">
<path d="M24.2166 12.7482H28.8562C32.5905 12.7482 35.1932 15.2753 35.1932 18.5326V18.5887C35.1932 21.846 32.6471 24.3732 28.8562 24.3732H24.2166V12.7482ZM28.8562 22.0145C31.0062 22.0145 32.4207 20.6105 32.4207 18.5887V18.5326C32.4207 16.5108 31.0062 15.0507 28.8562 15.0507H26.8758V22.0145H28.8562Z" fill="white"/>
<path d="M37.4563 12.7482H46.4526V14.9945H40.1156V17.3532H45.7171V19.5996H40.1156V22.0145H46.5658V24.2608H37.5129L37.4563 12.7482Z" fill="white"/>
<path d="M48.0369 22.6322L49.6211 20.8351C50.6961 21.6775 51.8278 22.2391 53.1857 22.2391C54.2607 22.2391 54.8831 21.7899 54.8831 21.1721V21.1159C54.8831 20.442 54.4305 20.1051 52.5067 19.6558C50.1303 19.038 48.5461 18.4203 48.5461 16.1178V16.0616C48.5461 13.9837 50.2435 12.5797 52.733 12.5797C54.4305 12.5797 55.9581 13.0851 57.1463 14.0399L55.7884 16.0054C54.77 15.2754 53.6949 14.8822 52.6765 14.8822C51.658 14.8822 51.1488 15.3315 51.1488 15.8931V15.837C51.1488 16.567 51.658 16.8478 53.6949 17.3533C56.1279 17.971 57.4292 18.8134 57.4292 20.779V20.8351C57.4292 23.1377 55.6187 24.4293 53.0725 24.4293C51.262 24.4293 49.4514 23.8116 48.0369 22.6322Z" fill="white"/>
<path d="M59.8057 12.7482H62.4084V24.317H59.8057V12.7482Z" fill="white"/>
<path d="M64.8979 18.5326C64.8979 15.2192 67.5007 12.5236 71.1218 12.5236C73.2719 12.5236 74.5166 13.0852 75.7614 14.1522L74.1206 16.1178C73.2153 15.3877 72.4232 14.9384 71.0087 14.9384C69.0849 14.9384 67.6138 16.567 67.6138 18.5326V18.5888C67.6138 20.7228 69.0849 22.2953 71.235 22.2953C72.1968 22.2953 73.0456 22.0707 73.7245 21.5652V19.9366H71.0652V17.7464H76.2141V22.7446C74.9693 23.7554 73.3285 24.5978 71.1218 24.5978C67.3875 24.4294 64.8979 21.9583 64.8979 18.5326Z" fill="white"/>
<path d="M78.7036 12.7482H81.1366L86.6815 19.8243V12.7482H89.2276V24.317H87.021L81.2497 16.9601V24.317H78.7036V12.7482Z" fill="white"/>
<path d="M92.1132 12.7482H97.5449C99.0726 12.7482 100.204 13.1974 100.996 13.9275C101.675 14.6014 102.015 15.5 102.015 16.567V16.6232C102.015 18.4764 100.996 19.6558 99.4686 20.2174L102.354 24.317H99.2989L96.7528 20.6105H96.6962H94.6593V24.317H92V12.7482H92.1132ZM97.3752 18.308C98.6765 18.308 99.3555 17.634 99.3555 16.6793V16.6232C99.3555 15.5561 98.6199 14.9945 97.3186 14.9945H94.7159V18.308H97.3752Z" fill="url(#paint0_linear_2372_28266)"/>
<path d="M104.221 19.3188V12.692H106.824V19.2065C106.824 21.1159 107.786 22.0145 109.37 22.0145C110.955 22.0145 111.916 21.0598 111.916 19.2065V12.6359H114.519V19.1504C114.519 22.6322 112.482 24.3732 109.314 24.3732C106.145 24.3732 104.221 22.6884 104.221 19.3188Z" fill="url(#paint1_linear_2372_28266)"/>
<path d="M116.386 22.6322L117.97 20.8351C119.046 21.6775 120.177 22.2391 121.535 22.2391C122.61 22.2391 123.232 21.7899 123.232 21.1721V21.1159C123.232 20.442 122.78 20.1051 120.856 19.6558C118.48 19.038 116.895 18.4203 116.895 16.1178V16.0616C116.895 13.9837 118.593 12.5797 121.082 12.5797C122.78 12.5797 124.308 13.0851 125.496 14.0399L124.138 16.0054C123.119 15.2754 122.044 14.8822 121.026 14.8822C120.007 14.8822 119.498 15.3315 119.498 15.8931V15.837C119.498 16.567 120.007 16.8478 122.044 17.3533C124.477 17.971 125.779 18.8134 125.779 20.779V20.8351C125.779 23.1377 123.968 24.4293 121.422 24.4293C119.668 24.4293 117.801 23.8116 116.386 22.6322Z" fill="url(#paint2_linear_2372_28266)"/>
<path d="M128.042 12.7482H130.644V17.3532H135.454V12.7482H138.057V24.317H135.454V19.7119H130.644V24.317H128.042V12.7482Z" fill="url(#paint3_linear_2372_28266)"/>
<path d="M9.27921 19.2627C9.22263 19.2627 9.22263 19.2065 9.27921 19.2627L8.99631 19.0942L8.93973 19.038L2.26322 14.3206C2.26322 14.3206 2.20664 14.3206 2.20664 14.2645L2.09348 14.1522L2.0369 14.096H1.92374L0 12.7482L3.7909 13.3098C3.96064 13.3098 4.01722 13.3659 4.18696 13.4221C4.24354 13.4221 4.3567 13.4782 4.3567 13.4782C4.52645 13.5344 4.58303 13.5906 4.69619 13.6467C4.80935 13.7029 4.86593 13.759 4.97909 13.8152C5.03567 13.8714 5.14883 13.9275 5.14883 13.9837C5.20541 14.0398 5.26199 14.0398 5.31857 14.096C5.43173 14.1522 5.48831 14.2083 5.48831 14.2645C5.65806 14.433 5.77122 14.6014 5.94096 14.7137L8.93973 18.9257L8.99631 18.9819L9.27921 19.2627Z" fill="#2AD2FF"/>
<path d="M9.27927 25.7772L8.99637 25.3279L8.93979 25.2717L0.0566406 12.7482L1.98038 14.096L2.31986 14.3206L8.99637 19.038H9.05295L9.27927 19.2065C9.27927 19.2065 9.33585 19.2065 9.33585 19.2627L9.61876 19.038L18.6151 12.7482L9.56218 25.3279L9.50559 25.384L9.27927 25.7772Z" fill="url(#paint4_linear_2372_28266)"/>
<path d="M9.27928 17.1286L8.99638 16.6794L8.9398 16.6232L6.73315 13.5906L8.9398 14.0399H8.99638L9.27928 14.096L9.56218 14.0399L11.7122 13.5344L9.56218 16.6794V16.7355L9.27928 17.1286Z" fill="#2AD2FF"/>
<path d="M18.6717 12.692L15.8426 13.0851L14.7676 13.2536C13.9189 13.3659 13.1268 13.8152 12.6176 14.5453L9.61878 18.8134L9.5622 18.8696L9.2793 19.2627L9.61878 18.9257L9.67536 18.8696L9.2793 19.2627L16.9177 13.8714L18.6717 12.692Z" fill="#2AD2FF"/>
<path d="M10.6938 3.81883C10.6938 6.28985 6.3937 7.58151 6.3937 10.221C6.33712 10.8388 6.50686 11.4565 6.78976 12.0181C6.78976 12.0181 5.14893 10.4456 5.14893 8.76086C5.14893 7.07608 6.73318 4.54891 6.73318 4.54891C6.73318 5.67209 7.18583 6.00905 7.63847 6.06521H7.69505C8.20428 6.06521 8.48718 5.67209 8.48718 5.1105C8.48718 4.54891 7.86479 3.98731 7.86479 2.86412C7.86479 1.79709 9.22273 0.0561523 9.22273 0.0561523C10.1846 1.17934 10.6938 2.47101 10.6938 3.81883Z" fill="#2AF4FF"/>
<path d="M9.50553 12.8043C8.1476 12.8043 7.12915 11.7373 7.12915 10.4457V10.3895C7.12915 7.52536 11.1464 7.24457 11.1464 3.36957C11.2595 3.53805 12.3346 4.99819 12.3346 6.57065C12.3346 8.53623 10.4674 9.04167 10.4674 9.99638C10.4674 10.3895 10.6371 10.6703 11.203 10.6703C11.2595 10.6703 11.3161 10.6703 11.3727 10.6141C12.4477 10.1649 13.1833 9.15399 13.2399 7.97464C13.2399 8.0308 13.8057 12.8043 9.50553 12.8043Z" fill="#2AF4FF"/>
<path d="M11.2596 10.6703C11.3161 10.6703 11.3727 10.6703 11.4293 10.6141C10.8635 10.7826 8.77002 11.288 8.77002 9.8279C8.77002 8.0308 11.882 7.63768 11.882 6.12138C11.882 5.16667 11.6556 4.21196 11.1464 3.36957C11.2596 3.53805 12.3346 4.99819 12.3346 6.57065C12.3346 8.53623 10.4674 9.04167 10.4674 9.99638C10.524 10.3895 10.7503 10.6703 11.2596 10.6703Z" fill="#2AD2FF"/>
<path d="M9.56217 4.8297C9.56217 6.23369 7.75159 6.12137 7.63843 6.06521H7.80817C8.31739 6.06521 8.6003 5.67209 8.6003 5.1105C8.6003 4.54891 7.97791 3.98731 7.97791 2.86412C7.97791 1.79709 9.33584 0.0561523 9.33584 0.0561523C8.8832 0.786225 8.65688 1.57246 8.6003 2.35869C8.6003 3.65036 9.56217 3.76267 9.56217 4.8297Z" fill="#2AD2FF"/>
<path d="M8.43056 29.3714L7.18579 28.529H8.71347L9.22269 27.0127L9.67534 28.529H11.203L9.95824 29.3714L10.4109 30.8315L9.16611 29.933L7.86476 30.8315L8.43056 29.3714Z" fill="#2AD2FF"/>
<path d="M14.9374 29.3714L13.6926 28.529H15.2203L15.7295 27.0127L16.1822 28.529H17.7098L16.4651 29.3714L16.9177 30.8315L15.6729 29.933L14.3716 30.8315L14.9374 29.3714Z" fill="#2AD2FF"/>
<path d="M1.98037 29.3714L0.735596 28.529H2.26327L2.7725 27.0127L3.22514 28.529H4.75282L3.50804 29.3714L3.96069 30.8315L2.71592 29.933L1.47114 30.8315L1.98037 29.3714Z" fill="#2AD2FF"/>
</g>
<defs>
<linearGradient id="paint0_linear_2372_28266" x1="90.9023" y1="-1.99116e-05" x2="138.543" y2="-1.99116e-05" gradientUnits="userSpaceOnUse">
<stop offset="0.73" stop-color="#2AF4FF"/>
<stop offset="0.884" stop-color="#2AF4FF"/>
</linearGradient>
<linearGradient id="paint1_linear_2372_28266" x1="90.9024" y1="-7.35072e-06" x2="138.543" y2="-7.35072e-06" gradientUnits="userSpaceOnUse">
<stop offset="0.73" stop-color="#2AF4FF"/>
<stop offset="0.884" stop-color="#2AF4FF"/>
</linearGradient>
<linearGradient id="paint2_linear_2372_28266" x1="90.9023" y1="1.8337e-06" x2="138.543" y2="1.8337e-06" gradientUnits="userSpaceOnUse">
<stop offset="0.73" stop-color="#2AF4FF"/>
<stop offset="0.884" stop-color="#2AF4FF"/>
</linearGradient>
<linearGradient id="paint3_linear_2372_28266" x1="90.9023" y1="-1.99116e-05" x2="138.543" y2="-1.99116e-05" gradientUnits="userSpaceOnUse">
<stop offset="0.73" stop-color="#2AF4FF"/>
<stop offset="0.884" stop-color="#2AF4FF"/>
</linearGradient>
<linearGradient id="paint4_linear_2372_28266" x1="6.00776e-05" y1="25.8007" x2="6.00776e-05" y2="18.9077" gradientUnits="userSpaceOnUse">
<stop offset="0.73" stop-color="#2AF4FF"/>
<stop offset="0.884" stop-color="#2AF4FF"/>
</linearGradient>
<clipPath id="clip0_2372_28266">
<rect width="138" height="31" fill="white"/>
</clipPath>
</defs>
</svg>
