<svg width="75" height="25" viewBox="0 0 75 25" fill="none" xmlns="http://www.w3.org/2000/svg">
<g clip-path="url(#clip0_2372_28224)">
<path d="M31.9165 12.8206C31.9165 16.2907 29.1619 18.8478 25.7814 18.8478C22.4008 18.8478 19.6462 16.2907 19.6462 12.8206C19.6462 9.32607 22.4008 6.79346 25.7814 6.79346C29.1619 6.79346 31.9165 9.32607 31.9165 12.8206ZM29.2308 12.8206C29.2308 10.6522 27.6343 9.16846 25.7814 9.16846C23.9284 9.16846 22.3319 10.6522 22.3319 12.8206C22.3319 14.9674 23.9284 16.4728 25.7814 16.4728C27.6343 16.4728 29.2308 14.9647 29.2308 12.8206Z" fill="white"/>
<path d="M45.1516 12.8206C45.1516 16.2907 42.397 18.8478 39.0165 18.8478C35.6359 18.8478 32.8813 16.2907 32.8813 12.8206C32.8813 9.32878 35.6359 6.79346 39.0165 6.79346C42.397 6.79346 45.1516 9.32607 45.1516 12.8206ZM42.4659 12.8206C42.4659 10.6522 40.8694 9.16846 39.0165 9.16846C37.1635 9.16846 35.567 10.6522 35.567 12.8206C35.567 14.9674 37.1635 16.4728 39.0165 16.4728C40.8694 16.4728 42.4659 14.9647 42.4659 12.8206Z" fill="white"/>
<path d="M57.8356 7.15759V17.9782C57.8356 22.4293 55.172 24.2473 52.0231 24.2473C49.0589 24.2473 47.2749 22.2935 46.6021 20.6956L48.9404 19.7364C49.3567 20.7174 50.377 21.875 52.0203 21.875C54.036 21.875 55.285 20.6494 55.285 18.3424V17.4755H55.1913C54.5902 18.2065 53.4321 18.8451 51.9707 18.8451C48.9128 18.8451 46.1113 16.2201 46.1113 12.8424C46.1113 9.4402 48.9128 6.79346 51.9707 6.79346C53.4293 6.79346 54.5874 7.43204 55.1913 8.14128H55.285V7.1603H57.8356V7.15759ZM55.4753 12.8424C55.4753 10.7201 54.0387 9.16846 52.2106 9.16846C50.3577 9.16846 48.8053 10.7201 48.8053 12.8424C48.8053 14.9429 50.3577 16.4728 52.2106 16.4728C54.0387 16.4728 55.4753 14.9429 55.4753 12.8424Z" fill="white"/>
<path d="M62.0404 0.815247V18.4783H59.4209V0.815247H62.0404Z" fill="white"/>
<path d="M72.2482 14.8044L74.3327 16.1739C73.6599 17.1549 72.0386 18.8451 69.2371 18.8451C65.7629 18.8451 63.1682 16.1984 63.1682 12.8179C63.1682 9.23371 65.7849 6.79077 68.9366 6.79077C72.1103 6.79077 73.6627 9.2799 74.17 10.625L74.4485 11.3098L66.273 14.6468C66.8989 15.856 67.8723 16.4728 69.2371 16.4728C70.6048 16.4728 71.5533 15.8098 72.2482 14.8044ZM65.8318 12.6359L71.2969 10.3995C70.9963 9.64675 70.0919 9.12229 69.0276 9.12229C67.6627 9.12229 65.7629 10.3098 65.8318 12.6359Z" fill="white"/>
<path d="M9.7308 11.2527V8.69568H18.4744C18.5598 9.14133 18.604 9.66851 18.604 10.2392C18.604 12.1576 18.0718 14.5299 16.3567 16.2201C14.6885 17.9321 12.5571 18.8451 9.73356 18.8451C4.5001 18.8451 0.0993652 14.6441 0.0993652 9.48644C0.0993652 4.32883 4.5001 0.127747 9.73356 0.127747C12.6288 0.127747 14.6913 1.24731 16.2409 2.70655L14.41 4.5109C13.2988 3.48373 11.7933 2.68481 9.7308 2.68481C5.90911 2.68481 2.92014 5.72014 2.92014 9.48644C2.92014 13.2527 5.90911 16.2881 9.7308 16.2881C12.2097 16.2881 13.6214 15.3071 14.5258 14.4158C15.2593 13.693 15.7418 12.6604 15.9321 11.25L9.7308 11.2527Z" fill="white"/>
</g>
<defs>
<clipPath id="clip0_2372_28224">
<rect width="75" height="25" fill="white"/>
</clipPath>
</defs>
</svg>
