<svg width="413" height="112" viewBox="0 0 413 112" fill="none" xmlns="http://www.w3.org/2000/svg">
<g clip-path="url(#clip0_1624_1803)">
<g opacity="0.5">
<mask id="mask0_1624_1803" style="mask-type:alpha" maskUnits="userSpaceOnUse" x="-80" y="-119" width="610" height="352">
<rect width="351.392" height="351.392" transform="matrix(0.866025 0.5 -0.866025 0.5 225.198 -119)" fill="url(#paint0_radial_1624_1803)"/>
<rect y="0.5" width="350.392" height="350.392" transform="matrix(0.866025 0.5 -0.866025 0.5 225.631 -118.75)" stroke="#959595" stroke-opacity="0.3"/>
</mask>
<g mask="url(#mask0_1624_1803)">
<path d="M218.167 -114.607L-71.6141 52.6983" stroke="#959595" stroke-opacity="0.3"/>
<path d="M230.847 -107.287L-58.9344 60.0184" stroke="#959595" stroke-opacity="0.3"/>
<path d="M243.526 -99.9658L-46.2552 67.3396" stroke="#959595" stroke-opacity="0.3"/>
<path d="M256.207 -92.6453L-33.575 74.6602" stroke="#959595" stroke-opacity="0.3"/>
<path d="M268.886 -85.325L-20.8958 81.9805" stroke="#959595" stroke-opacity="0.3"/>
<path d="M281.566 -78.0039L-8.21516 89.3016" stroke="#959595" stroke-opacity="0.3"/>
<path d="M294.246 -70.6833L4.46404 96.6221" stroke="#959595" stroke-opacity="0.3"/>
<path d="M306.925 -63.363L17.1432 103.942" stroke="#959595" stroke-opacity="0.3"/>
<path d="M319.606 -56.042L29.8249 111.263" stroke="#959595" stroke-opacity="0.3"/>
<path d="M332.285 -48.7212L42.5036 118.584" stroke="#959595" stroke-opacity="0.3"/>
<path d="M344.964 -41.4009L55.1828 125.905" stroke="#959595" stroke-opacity="0.3"/>
<path d="M357.644 -34.0798L67.8625 133.226" stroke="#959595" stroke-opacity="0.3"/>
<path d="M370.325 -26.7593L80.5431 140.546" stroke="#959595" stroke-opacity="0.3"/>
<path d="M383.004 -19.4392L93.2228 147.866" stroke="#959595" stroke-opacity="0.3"/>
<path d="M395.685 -12.1179L105.903 155.188" stroke="#959595" stroke-opacity="0.3"/>
<path d="M408.363 -4.79736L118.582 162.508" stroke="#959595" stroke-opacity="0.3"/>
<path d="M421.044 2.52271L131.262 169.828" stroke="#959595" stroke-opacity="0.3"/>
<path d="M433.723 9.84375L143.941 177.149" stroke="#959595" stroke-opacity="0.3"/>
<path d="M446.403 17.1646L156.622 184.47" stroke="#959595" stroke-opacity="0.3"/>
<path d="M459.082 24.4849L169.3 191.79" stroke="#959595" stroke-opacity="0.3"/>
<path d="M471.762 31.8059L181.981 199.111" stroke="#959595" stroke-opacity="0.3"/>
<path d="M484.442 39.1267L194.661 206.432" stroke="#959595" stroke-opacity="0.3"/>
<path d="M497.123 46.4473L207.341 213.753" stroke="#959595" stroke-opacity="0.3"/>
<path d="M509.801 53.7678L220.02 221.073" stroke="#959595" stroke-opacity="0.3"/>
<path d="M522.481 61.0884L232.7 228.394" stroke="#959595" stroke-opacity="0.3"/>
<path d="M218.167 -114.607L522.482 61.0886" stroke="#959595" stroke-opacity="0.3"/>
<path d="M206.092 -107.636L510.406 68.0596" stroke="#959595" stroke-opacity="0.3"/>
<path d="M194.019 -100.665L498.333 75.0308" stroke="#959595" stroke-opacity="0.3"/>
<path d="M181.944 -93.6943L486.258 82.0015" stroke="#959595" stroke-opacity="0.3"/>
<path d="M169.87 -86.7231L474.184 88.9727" stroke="#959595" stroke-opacity="0.3"/>
<path d="M157.795 -79.7522L462.109 95.9436" stroke="#959595" stroke-opacity="0.3"/>
<path d="M145.722 -72.7808L450.036 102.915" stroke="#959595" stroke-opacity="0.3"/>
<path d="M133.647 -65.8096L437.962 109.886" stroke="#959595" stroke-opacity="0.3"/>
<path d="M121.573 -58.8389L425.887 116.857" stroke="#959595" stroke-opacity="0.3"/>
<path d="M109.5 -51.8682L413.814 123.828" stroke="#959595" stroke-opacity="0.3"/>
<path d="M97.4248 -44.896L401.739 130.8" stroke="#959595" stroke-opacity="0.3"/>
<path d="M85.3501 -37.926L389.664 137.77" stroke="#959595" stroke-opacity="0.3"/>
<path d="M73.2769 -30.9543L377.591 144.741" stroke="#959595" stroke-opacity="0.3"/>
<path d="M61.2021 -23.9832L365.516 151.713" stroke="#959595" stroke-opacity="0.3"/>
<path d="M49.1279 -17.0125L353.442 158.683" stroke="#959595" stroke-opacity="0.3"/>
<path d="M37.0542 -10.0415L341.368 165.654M151.172 55.8442C151.172 55.8442 158.899 60.3059 163.851 63.1647" stroke="#959595" stroke-opacity="0.3"/>
<path d="M24.9907 -3.07422L329.305 172.622" stroke="#959595" stroke-opacity="0.3"/>
<path d="M12.9165 3.896L317.231 179.592" stroke="#959595" stroke-opacity="0.3"/>
<path d="M0.841553 10.8667L305.156 186.562" stroke="#959595" stroke-opacity="0.3"/>
<path d="M-11.2319 17.8381L293.082 193.534" stroke="#959595" stroke-opacity="0.3"/>
<path d="M-23.3064 24.8091L281.008 200.505" stroke="#959595" stroke-opacity="0.3"/>
<path d="M-35.3799 31.7798L268.934 207.476" stroke="#959595" stroke-opacity="0.3"/>
<path d="M-47.4546 38.751L256.859 214.447" stroke="#959595" stroke-opacity="0.3"/>
<path d="M-59.5288 45.7227L244.785 221.418" stroke="#959595" stroke-opacity="0.3"/>
<path d="M-71.6028 52.6931L232.711 228.389" stroke="#959595" stroke-opacity="0.3"/>
</g>
</g>
<path d="M327.753 61.0244L282.241 87.4989L237.324 61.0244" stroke="url(#paint1_linear_1624_1803)" stroke-width="4" stroke-linecap="square" stroke-dasharray="1 1"/>
<path d="M79.6665 74.4106L146.596 37.8223L168.906 52.1007" stroke="url(#paint2_linear_1624_1803)" stroke-width="4" stroke-linecap="square" stroke-dasharray="1 1"/>
<line y1="-0.25" x2="114.304" y2="-0.25" transform="matrix(-0.869202 -0.494456 -0.494456 0.869202 295.627 65.7837)" stroke="#0E3572" stroke-width="0.5" stroke-dasharray="1 1"/>
<line y1="-0.25" x2="78.9715" y2="-0.25" transform="matrix(-0.858819 -0.512278 -0.512278 0.858819 184.97 106.834)" stroke="#0E3572" stroke-width="0.5" stroke-dasharray="1 1"/>
<mask id="path-57-inside-1_1624_1803" fill="white">
<path d="M93.085 64.5745L108.251 64.6077V73.2034L73.6211 93.259L38.6865 73.2034V64.4573L53.8867 64.4895L73.4121 53.2981L93.085 64.5745Z"/>
</mask>
<path d="M93.085 64.5745L108.251 64.6077V73.2034L73.6211 93.259L38.6865 73.2034V64.4573L53.8867 64.4895L73.4121 53.2981L93.085 64.5745Z" fill="url(#paint3_linear_1624_1803)"/>
<path d="M93.085 64.5745L92.7907 65.0878L92.9268 65.1659L93.0837 65.1662L93.085 64.5745ZM108.251 64.6077H108.843V64.0172L108.252 64.0159L108.251 64.6077ZM108.251 73.2034L108.548 73.7154L108.843 73.5445V73.2034H108.251ZM73.6211 93.259L73.3265 93.7722L73.6224 93.9421L73.9177 93.7711L73.6211 93.259ZM38.6865 73.2034H38.0948V73.546L38.3919 73.7166L38.6865 73.2034ZM38.6865 64.4573L38.6878 63.8655L38.0948 63.8643V64.4573H38.6865ZM53.8867 64.4895L53.8855 65.0812L54.0437 65.0816L54.181 65.0029L53.8867 64.4895ZM73.4121 53.2981L73.7064 52.7847L73.4121 52.616L73.1178 52.7847L73.4121 53.2981ZM93.085 64.5745L93.0837 65.1662L108.25 65.1994L108.251 64.6077L108.252 64.0159L93.0863 63.9827L93.085 64.5745ZM108.251 64.6077H107.659V73.2034H108.251H108.843V64.6077H108.251ZM108.251 73.2034L107.954 72.6913L73.3245 92.747L73.6211 93.259L73.9177 93.7711L108.548 73.7154L108.251 73.2034ZM73.6211 93.259L73.9157 92.7458L38.9811 72.6902L38.6865 73.2034L38.3919 73.7166L73.3265 93.7722L73.6211 93.259ZM38.6865 73.2034H39.2783V64.4573H38.6865H38.0948V73.2034H38.6865ZM38.6865 64.4573L38.6853 65.049L53.8855 65.0812L53.8867 64.4895L53.888 63.8978L38.6878 63.8655L38.6865 64.4573ZM53.8867 64.4895L54.181 65.0029L73.7064 53.8115L73.4121 53.2981L73.1178 52.7847L53.5925 63.9761L53.8867 64.4895ZM73.4121 53.2981L73.1178 53.8115L92.7907 65.0878L93.085 64.5745L93.3792 64.0611L73.7064 52.7847L73.4121 53.2981Z" fill="#0E3572" mask="url(#path-57-inside-1_1624_1803)"/>
<path d="M107.654 64.6056L73.4138 84.0217L39.2809 64.4565L73.4121 44.8922L107.654 64.6056Z" fill="white"/>
<path d="M107.654 64.6056L73.4138 84.0217L39.2809 64.4565L73.4121 44.8922L107.654 64.6056Z" stroke="white" stroke-opacity="0.2" stroke-width="0.685843"/>
<path d="M107.654 64.6056L73.4138 84.0217L39.2809 64.4565L73.4121 44.8922L107.654 64.6056Z" stroke="#0E3572" stroke-width="0.685843"/>
<g clip-path="url(#clip1_1624_1803)">
<path d="M64.1065 55.904C61.3867 56.3233 59.7749 57.9367 60.5064 59.5077L67.0732 73.6096C67.8048 75.1805 70.6026 76.1141 73.3224 75.6947C76.0421 75.2754 77.654 73.662 76.9225 72.091L70.3557 57.9891C69.6242 56.4182 66.8263 55.4846 64.1065 55.904Z" fill="#FFC107"/>
<path d="M64.1065 55.904C62.8361 56.0999 61.8077 56.5564 61.1466 57.1473C61.5925 56.9812 62.0807 56.8565 62.5934 56.7776C65.3132 56.3582 68.1111 57.2918 68.8426 58.8627L75.4094 72.9646C75.7992 73.8017 75.5233 74.6509 74.7692 75.325C76.5782 74.6512 77.5122 73.3576 76.9224 72.0911L70.3556 57.9892C69.6242 56.4182 66.8263 55.4847 64.1065 55.904Z" fill="#FFB300"/>
<path d="M75.6035 74.937C77.591 73.7896 77.588 71.9275 75.5967 70.7779C73.6053 69.6283 70.3798 69.6266 68.3923 70.774C66.4047 71.9214 66.4077 73.7835 68.3991 74.9331C70.3904 76.0827 73.6159 76.0844 75.6035 74.937Z" fill="#4CAF50"/>
<path d="M74.7694 75.325L74.7702 75.3259C75.071 75.2135 75.3503 75.0831 75.6037 74.9369C77.5913 73.7895 77.5882 71.9274 75.5969 70.7778C75.168 70.5297 74.6658 70.3279 74.1139 70.1819L75.4097 72.9645C75.7995 73.8017 75.5236 74.6508 74.7694 75.325Z" fill="#43A047"/>
<path d="M91.174 59.6963L66.7467 55.9053C64.0255 55.483 61.2307 56.4135 60.5043 57.9837C59.778 59.5538 61.395 61.169 64.1162 61.5913L88.5436 65.3823C91.2648 65.8046 94.0596 64.8741 94.786 63.3039C95.5123 61.7338 93.8952 60.1186 91.174 59.6963Z" fill="#2196F3"/>
<path d="M91.1739 59.6964L66.7466 55.9054C64.5528 55.5649 62.3119 56.1041 61.1449 57.1485C62.3126 56.7131 63.7835 56.5538 65.2335 56.7789L89.6609 60.5699C92.3821 60.9922 93.9992 62.6074 93.2728 64.1775C93.1361 64.4735 92.92 64.7553 92.6323 65.0127C93.6559 64.6311 94.4466 64.0374 94.786 63.304C95.5122 61.7339 93.8951 60.1187 91.1739 59.6964Z" fill="#1E88E5"/>
</g>
<mask id="path-66-inside-2_1624_1803" fill="white">
<path d="M359.073 45.7354L374.239 45.7686V54.3643L339.609 74.4199L304.674 54.3643V45.6172L319.875 45.6494L339.4 34.459L359.073 45.7354Z"/>
</mask>
<path d="M359.073 45.7354L374.239 45.7686V54.3643L339.609 74.4199L304.674 54.3643V45.6172L319.875 45.6494L339.4 34.459L359.073 45.7354Z" fill="url(#paint4_linear_1624_1803)"/>
<path d="M359.073 45.7354L358.778 46.2487L358.915 46.3267L359.071 46.3271L359.073 45.7354ZM374.239 45.7686H374.831V45.1781L374.24 45.1768L374.239 45.7686ZM374.239 54.3643L374.535 54.8763L374.831 54.7054V54.3643H374.239ZM339.609 74.4199L339.314 74.9331L339.61 75.103L339.905 74.932L339.609 74.4199ZM304.674 54.3643H304.083V54.7069L304.38 54.8774L304.674 54.3643ZM304.674 45.6172L304.676 45.0254L304.083 45.0242V45.6172H304.674ZM319.875 45.6494L319.874 46.2412L320.032 46.2415L320.17 46.1628L319.875 45.6494ZM339.4 34.459L339.694 33.9456L339.4 33.7769L339.106 33.9456L339.4 34.459ZM359.073 45.7354L359.071 46.3271L374.237 46.3603L374.239 45.7686L374.24 45.1768L359.074 45.1436L359.073 45.7354ZM374.239 45.7686H373.647V54.3643H374.239H374.831V45.7686H374.239ZM374.239 54.3643L373.942 53.8522L339.312 73.9079L339.609 74.4199L339.905 74.932L374.535 54.8763L374.239 54.3643ZM339.609 74.4199L339.904 73.9067L304.969 53.8511L304.674 54.3643L304.38 54.8774L339.314 74.9331L339.609 74.4199ZM304.674 54.3643H305.266V45.6172H304.674H304.083V54.3643H304.674ZM304.674 45.6172L304.673 46.2089L319.874 46.2412L319.875 45.6494L319.877 45.0577L304.676 45.0254L304.674 45.6172ZM319.875 45.6494L320.17 46.1628L339.694 34.9724L339.4 34.459L339.106 33.9456L319.581 45.136L319.875 45.6494ZM339.4 34.459L339.106 34.9724L358.778 46.2487L359.073 45.7354L359.367 45.222L339.694 33.9456L339.4 34.459Z" fill="#0E3572" mask="url(#path-66-inside-2_1624_1803)"/>
<path d="M373.642 45.7667L339.402 65.1829L305.269 45.6176L339.4 26.0533L373.642 45.7667Z" fill="white"/>
<path d="M373.642 45.7667L339.402 65.1829L305.269 45.6176L339.4 26.0533L373.642 45.7667Z" stroke="white" stroke-opacity="0.2" stroke-width="0.685843"/>
<path d="M373.642 45.7667L339.402 65.1829L305.269 45.6176L339.4 26.0533L373.642 45.7667Z" stroke="#0E3572" stroke-width="0.685843"/>
<g clip-path="url(#clip2_1624_1803)">
<path d="M325.474 43.4281C321.408 45.7756 323.586 50.6288 329.182 53.8595C332.685 55.8819 336.592 56.1811 339.432 54.5413C341.476 53.3618 341.984 51.9579 340.03 47.8095C340.03 47.8095 339.198 46.069 338.62 44.8723L337.544 42.4558C336.826 40.5168 336.901 39.2999 338.197 38.5519C340.888 36.9985 347.002 38.0427 351.871 40.8534C353.724 41.9236 354.193 42.8959 352.932 43.6238C351.726 44.3199 350.351 44.1934 344.371 43.3879L344.102 45.6663C350.485 46.5955 353.171 46.6099 355.583 45.2175C358.349 43.6209 357.641 41.4345 354.063 39.3689C348.198 35.9829 340.09 34.9789 336.218 37.2142C334.17 38.3966 334.11 40.2147 334.619 42.1825L335.371 44.4753C336.223 46.8026 336.786 48.2439 336.786 48.2439C337.992 51.3854 338.002 52.2369 336.821 52.9187C335.605 53.6207 333.821 53.4193 331.923 52.3232C327.856 49.9758 325.729 46.4056 328.145 45.0104L325.474 43.4281Z" fill="url(#paint5_linear_1624_1803)"/>
<path d="M336.592 43.1663L335.386 44.4838C336.238 46.8112 336.802 48.2525 336.802 48.2525C338.007 51.394 338.017 52.2455 336.836 52.9273C335.621 53.6292 333.837 53.4279 331.938 52.3318C327.872 49.9843 325.744 46.4142 328.161 45.0189L325.48 43.4309C321.408 45.7755 323.586 50.6287 329.182 53.8594C332.685 55.8818 336.592 56.181 339.433 54.5412C341.476 53.3617 341.984 51.9578 340.031 47.8094C340.031 47.8094 339.198 46.069 338.62 44.8722L336.592 43.1663Z" fill="url(#paint6_linear_1624_1803)"/>
<path d="M344.107 45.6691C350.49 46.5984 353.171 46.6099 355.583 45.2175L352.932 43.6237C351.726 44.3199 350.356 44.1962 344.376 43.3907C339.323 42.6945 336.776 42.3579 334.629 42.1882C330.099 41.8746 327.468 42.2774 325.474 43.4281L328.155 45.0161C329.466 44.2595 331.315 44.0668 335.386 44.4839C337.075 44.6479 340.863 45.1715 344.107 45.6691Z" fill="url(#paint7_linear_1624_1803)"/>
<path d="M334.624 42.1911C330.094 41.8775 327.463 42.2802 325.464 43.4338C323.496 44.5702 322.993 46.2934 323.626 48.1374L327.517 48.1633C326.87 46.863 326.999 45.6893 328.16 45.019C329.471 44.2624 331.3 44.0696 335.371 44.4868L334.624 42.1911Z" fill="url(#paint8_linear_1624_1803)"/>
<path d="M347.525 46.1121C351.552 46.5436 353.655 46.3308 355.583 45.2174C358.349 43.6208 357.641 41.4344 354.063 39.3689L351.871 40.8533C353.725 41.9235 354.193 42.8958 352.932 43.6237C351.961 44.1847 350.874 44.2134 347.341 43.779L347.525 46.1121Z" fill="url(#paint9_linear_1624_1803)"/>
</g>
<line y1="-0.25" x2="154.597" y2="-0.25" transform="matrix(-0.865865 0.500278 0.500278 0.865865 287.894 35.4424)" stroke="#0E3572" stroke-width="0.5" stroke-dasharray="1 1"/>
<line y1="-0.25" x2="138.798" y2="-0.25" transform="matrix(-0.867165 0.498021 0.498021 0.867165 232.459 9.11328)" stroke="#0E3572" stroke-width="0.5" stroke-dasharray="1 1"/>
<mask id="path-76-inside-3_1624_1803" fill="white">
<path d="M250.869 34.5383V50.8469L251.025 50.8479V62.5188L203.186 89.7483L155.562 62.8762L154.926 62.5188V34.5383L202.897 6.90747L250.869 34.5383Z"/>
</mask>
<path d="M250.869 34.5383V50.8469L251.025 50.8479V62.5188L203.186 89.7483L155.562 62.8762L154.926 62.5188V34.5383L202.897 6.90747L250.869 34.5383Z" fill="white"/>
<path d="M250.869 34.5383H251.46V34.1963L251.164 34.0256L250.869 34.5383ZM250.869 50.8469H250.277V51.435L250.865 51.4387L250.869 50.8469ZM251.025 50.8479H251.617V50.2598L251.029 50.2562L251.025 50.8479ZM251.025 62.5188L251.318 63.0331L251.617 62.8629V62.5188H251.025ZM203.186 89.7483L202.895 90.2637L203.187 90.4285L203.479 90.2626L203.186 89.7483ZM155.562 62.8762L155.853 62.3609L155.852 62.3604L155.562 62.8762ZM154.926 62.5188H154.335V62.865L154.636 63.0346L154.926 62.5188ZM154.926 34.5383L154.631 34.0256L154.335 34.1963V34.5383H154.926ZM202.897 6.90747L203.192 6.3947L202.897 6.22459L202.602 6.39471L202.897 6.90747ZM250.869 34.5383H250.277V50.8469H250.869H251.46V34.5383H250.869ZM250.869 50.8469L250.865 51.4387L251.021 51.4396L251.025 50.8479L251.029 50.2562L250.872 50.2552L250.869 50.8469ZM251.025 50.8479H250.433V62.5188H251.025H251.617V50.8479H251.025ZM251.025 62.5188L250.732 62.0045L202.893 89.234L203.186 89.7483L203.479 90.2626L251.318 63.0331L251.025 62.5188ZM203.186 89.7483L203.477 89.2329L155.853 62.3609L155.562 62.8762L155.271 63.3916L202.895 90.2637L203.186 89.7483ZM155.562 62.8762L155.852 62.3604L155.216 62.003L154.926 62.5188L154.636 63.0346L155.272 63.392L155.562 62.8762ZM154.926 62.5188H155.518V34.5383H154.926H154.335V62.5188H154.926ZM154.926 34.5383L155.222 35.0511L203.192 7.42024L202.897 6.90747L202.602 6.39471L154.631 34.0256L154.926 34.5383ZM202.897 6.90747L202.602 7.42024L250.573 35.0511L250.869 34.5383L251.164 34.0256L203.192 6.3947L202.897 6.90747Z" fill="#0E3572" mask="url(#path-76-inside-3_1624_1803)"/>
<path d="M250.151 34.5928L202.901 60.9269L155.798 34.3905L202.897 7.85606L250.151 34.5928Z" fill="white" fill-opacity="0.2"/>
<path d="M250.151 34.5928L202.901 60.9269L155.798 34.3905L202.897 7.85606L250.151 34.5928Z" fill="#0E3572"/>
<path d="M250.151 34.5928L202.901 60.9269L155.798 34.3905L202.897 7.85606L250.151 34.5928Z" stroke="#0E3572"/>
<g clip-path="url(#clip3_1624_1803)">
<path d="M201.182 50.5048L156.96 24.9758L190.033 5.88301L229.253 28.5246L229.254 34.2989L201.182 50.5048Z" fill="white"/>
<path d="M190.033 6.09689L228.991 28.5874L228.992 34.2361L201.182 50.2909L157.331 24.9758L190.033 6.09689ZM190.033 5.66912L156.59 24.9758L201.182 50.7187L229.516 34.3614L229.515 28.4621L190.033 5.66912Z" fill="#CCCCCC"/>
<path d="M229.516 34.3614L224.406 31.4116L229.515 28.4621L229.516 34.3614ZM224.236 31.3136L229.345 28.3642L229.515 28.4621L224.406 31.4116L224.236 31.3136ZM224.064 31.4128L224.234 31.3149L229.514 34.3627L229.344 34.4607L224.064 31.4128Z" fill="#CCCCCC"/>
<path d="M194.308 34.6312L193.873 34.3797L195.443 33.4699L196.82 34.2651C196.771 34.5157 196.667 34.7429 196.507 34.9474C196.347 35.1518 196.133 35.3319 195.863 35.4876C195.498 35.6981 195.089 35.8444 194.634 35.9265C194.179 36.0086 193.729 36.0078 193.282 35.9252C192.834 35.8422 192.428 35.6951 192.064 35.4846C191.703 35.2763 191.441 35.038 191.279 34.7698C191.117 34.5016 191.101 34.242 191.233 33.9905C191.365 33.7389 191.616 33.5066 191.985 33.2936C192.254 33.1383 192.54 33.0237 192.844 32.9484C193.148 32.8731 193.438 32.8449 193.717 32.8637C193.996 32.8825 194.292 32.945 194.605 33.0524L194.284 33.3783C194.039 33.3013 193.821 33.2556 193.63 33.2406C193.44 33.2256 193.235 33.244 193.015 33.2953C192.796 33.3467 192.593 33.4262 192.406 33.534C192.182 33.6636 192.022 33.7958 191.927 33.9297C191.832 34.064 191.79 34.1919 191.8 34.3143C191.81 34.4366 191.855 34.5521 191.933 34.6608C192.069 34.8485 192.271 35.0188 192.54 35.1741C192.87 35.3649 193.203 35.4923 193.541 35.5552C193.877 35.6185 194.208 35.6181 194.535 35.5544C194.858 35.4923 195.151 35.3872 195.391 35.2476C195.603 35.1249 195.77 34.9807 195.892 34.8165C196.013 34.6522 196.078 34.5132 196.09 34.3994L195.398 34.0003L194.307 34.6304L194.308 34.6312ZM196.489 33.5007C195.99 33.2128 195.76 32.9198 195.798 32.6216C195.829 32.3731 196.012 32.1532 196.345 31.9607C196.715 31.7473 197.138 31.6425 197.615 31.6467C198.092 31.651 198.544 31.7768 198.971 32.0232C199.317 32.2229 199.539 32.4099 199.633 32.5848C199.728 32.7593 199.731 32.9356 199.642 33.1127C199.553 33.2906 199.391 33.448 199.157 33.5832C198.781 33.8005 198.355 33.9066 197.883 33.9015C197.406 33.8968 196.942 33.7625 196.489 33.5007ZM196.957 33.2303C197.302 33.4292 197.634 33.5345 197.956 33.5469C198.278 33.5593 198.553 33.4994 198.781 33.3676C199.008 33.2367 199.11 33.0785 199.088 32.892C199.065 32.7063 198.878 32.5108 198.525 32.3072C198.193 32.1156 197.866 32.0138 197.543 32.0018C197.22 31.9898 196.945 32.0488 196.721 32.1784C196.493 32.3102 196.39 32.468 196.41 32.6541C196.43 32.8402 196.613 33.0314 196.957 33.2303ZM199.373 31.8358C198.874 31.5479 198.644 31.2549 198.681 30.9567C198.713 30.7082 198.896 30.4883 199.229 30.2959C199.599 30.0824 200.022 29.9776 200.499 29.9819C200.976 29.9862 201.428 30.1119 201.855 30.3583C202.201 30.5581 202.423 30.745 202.517 30.92C202.612 31.0945 202.615 31.2707 202.526 31.4478C202.437 31.6258 202.275 31.7832 202.041 31.9184C201.665 32.1357 201.239 32.2418 200.767 32.2366C200.29 32.2319 199.826 32.0976 199.373 31.8358ZM199.842 31.565C200.186 31.7639 200.518 31.8692 200.841 31.8816C201.163 31.894 201.437 31.8341 201.665 31.7023C201.892 31.5714 201.994 31.4132 201.972 31.2267C201.95 31.041 201.762 30.8455 201.41 30.6419C201.078 30.4503 200.75 30.3485 200.427 30.3365C200.104 30.3245 199.83 30.3835 199.605 30.5132C199.377 30.6449 199.274 30.8028 199.294 30.9888C199.314 31.1749 199.497 31.3661 199.842 31.565ZM203.911 31.0256L204.42 30.8075C204.575 30.8763 204.726 30.9037 204.873 30.8909C205.07 30.8746 205.267 30.8096 205.464 30.6962C205.674 30.5748 205.795 30.4563 205.825 30.3412C205.856 30.2261 205.816 30.1132 205.703 30.002C205.634 29.9348 205.45 29.8155 205.151 29.6457C205.186 29.8959 205.055 30.1072 204.759 30.2783C204.388 30.4922 203.969 30.5803 203.5 30.5431C203.031 30.5059 202.609 30.3797 202.236 30.1641C201.98 30.0161 201.789 29.8531 201.665 29.6739C201.541 29.4951 201.508 29.3201 201.566 29.1503C201.625 28.9805 201.773 28.8265 202.011 28.6892C202.329 28.5057 202.718 28.4291 203.181 28.4582L202.857 28.2708L203.277 28.0283L205.602 29.3706C206.021 29.6123 206.275 29.8086 206.364 29.9583C206.454 30.1085 206.457 30.2659 206.373 30.4315C206.29 30.5966 206.112 30.7574 205.842 30.9131C205.521 31.0983 205.191 31.2061 204.848 31.2374C204.508 31.2677 204.194 31.1972 203.911 31.0256ZM202.672 29.8754C203.026 30.0794 203.353 30.1868 203.655 30.1996C203.957 30.2124 204.214 30.1577 204.425 30.0358C204.634 29.9151 204.73 29.7671 204.71 29.5922C204.69 29.4172 204.509 29.2303 204.165 29.0318C203.836 28.8419 203.514 28.7409 203.201 28.7285C202.887 28.7161 202.627 28.7696 202.421 28.8885C202.219 29.0053 202.129 29.1524 202.152 29.3295C202.174 29.5062 202.348 29.688 202.672 29.8754ZM206.645 29.1897L202.932 27.0461L203.387 26.7831L207.1 28.9266L206.645 29.1897ZM208.783 26.9559L209.313 26.7176C209.513 26.9195 209.589 27.1218 209.54 27.3255C209.492 27.5291 209.311 27.7216 208.999 27.9017C208.605 28.1288 208.173 28.2392 207.699 28.2327C207.226 28.2259 206.771 28.0963 206.334 27.8439C205.882 27.583 205.647 27.3122 205.63 27.0333C205.614 26.7544 205.79 26.508 206.162 26.2937C206.522 26.0858 206.938 25.9866 207.409 25.9968C207.884 26.0062 208.342 26.1397 208.785 26.3959C208.813 26.4118 208.853 26.4357 208.905 26.4674L206.899 27.6253C207.211 27.7866 207.521 27.8691 207.828 27.8726C208.136 27.8768 208.402 27.8135 208.626 27.6839C208.794 27.5872 208.891 27.4795 208.922 27.361C208.953 27.242 208.905 27.1069 208.783 26.9559ZM206.548 27.3943L208.05 26.5273C207.804 26.4083 207.577 26.3433 207.369 26.3326C207.048 26.3151 206.772 26.3733 206.541 26.5067C206.331 26.6278 206.225 26.7702 206.223 26.9332C206.221 27.0962 206.33 27.2497 206.548 27.3943Z" fill="#E21B1B"/>
<path d="M204.196 38.3161L201.909 35.3496L202.438 35.0437L207.671 36.3099L207.111 36.6333L205.553 36.2338L204 37.1304L204.717 38.0154L204.196 38.3161ZM203.742 36.8177L205.001 36.0909L203.585 35.7209C203.154 35.6084 202.81 35.5113 202.552 35.4283C202.745 35.5952 202.915 35.7707 203.061 35.9532L203.742 36.8177ZM209.75 35.11L209.41 34.9141C209.506 35.1665 209.389 35.3881 209.057 35.5797C208.843 35.7033 208.587 35.7829 208.289 35.8188C207.992 35.8544 207.687 35.8398 207.377 35.7739C207.066 35.7089 206.773 35.5964 206.498 35.4377C206.23 35.2829 206.031 35.116 205.902 34.9385C205.773 34.7606 205.74 34.586 205.802 34.4154C205.865 34.2455 206.007 34.0958 206.228 33.9683C206.39 33.8747 206.569 33.8109 206.764 33.7776C206.959 33.7438 207.151 33.7356 207.34 33.7532L206.008 32.9841L206.46 32.7227L210.173 34.8662L209.75 35.1105L209.75 35.11ZM206.966 35.1674C207.311 35.3663 207.641 35.4724 207.957 35.4869C208.272 35.5019 208.53 35.4523 208.727 35.3385C208.926 35.2234 209.014 35.0788 208.991 34.9039C208.967 34.7293 208.788 34.5462 208.454 34.3533C208.085 34.1407 207.744 34.0261 207.43 34.0081C207.116 33.9902 206.855 34.0411 206.647 34.1608C206.445 34.2776 206.358 34.4235 206.388 34.598C206.417 34.7721 206.61 34.9616 206.966 35.1674ZM209.904 34.0937L210.284 33.7921C210.489 33.8824 210.699 33.9217 210.911 33.9102C211.123 33.8995 211.332 33.8336 211.54 33.7138C211.749 33.5932 211.861 33.4785 211.878 33.3708C211.894 33.263 211.844 33.1761 211.729 33.1098C211.626 33.0504 211.5 33.0298 211.352 33.0474C211.249 33.0598 211.043 33.1197 210.731 33.2275C210.313 33.3716 210.007 33.4631 209.817 33.5021C209.626 33.5414 209.443 33.5487 209.268 33.5239C209.092 33.4995 208.938 33.449 208.807 33.3733C208.687 33.304 208.602 33.2245 208.556 33.1342C208.509 33.0439 208.498 32.9511 208.525 32.8574C208.545 32.7864 208.597 32.7043 208.683 32.6128C208.768 32.5212 208.882 32.4352 209.022 32.3544C209.233 32.2325 209.449 32.1431 209.669 32.0862C209.89 32.0289 210.09 32.0083 210.269 32.0246C210.45 32.0404 210.641 32.0905 210.843 32.1739L210.458 32.4665C210.299 32.398 210.132 32.3698 209.957 32.3809C209.782 32.392 209.607 32.4489 209.429 32.5512C209.22 32.6722 209.106 32.7783 209.085 32.8698C209.065 32.9618 209.1 33.0345 209.193 33.088C209.252 33.1222 209.324 33.1423 209.409 33.1479C209.495 33.1547 209.594 33.1449 209.705 33.1175C209.767 33.1004 209.941 33.0457 210.224 32.952C210.633 32.8155 210.928 32.7265 211.11 32.6846C211.292 32.6427 211.473 32.6307 211.649 32.6495C211.826 32.6684 211.992 32.7218 212.148 32.8117C212.3 32.8994 212.398 33.008 212.444 33.1363C212.49 33.2655 212.464 33.399 212.372 33.538C212.277 33.6775 212.125 33.8071 211.914 33.929C211.563 34.1313 211.225 34.243 210.897 34.2648C210.568 34.2866 210.24 34.2297 209.904 34.0937Z" fill="black"/>
<path d="M172.829 25.4875L177.575 22.7477L186.958 28.1645L182.212 30.9043L172.829 25.4875Z" fill="#CCCCCC"/>
<path d="M176.423 17.2217L181.169 14.4819L195.914 22.9939L191.168 25.7338L176.423 17.2217Z" fill="#666666"/>
<path d="M179.348 8.56934L184.094 5.82951L204.871 17.824L200.125 20.5638L179.348 8.56934Z" fill="#E21B1B"/>
<path d="M177.274 33.3271L204.499 17.6102L205.24 18.038L178.015 33.7549L177.274 33.3271Z" fill="#666666"/>
</g>
<path d="M208.285 70.6865L209.891 63.8214L211.482 62.8655L213.339 67.6498L212.338 68.2514L210.762 64.0823L211.114 64.0481L210.257 64.5631L210.611 64.1729L209.259 70.1014L208.285 70.6865ZM209.451 68.4178L209.743 67.2725L211.773 66.0529L212.091 66.8315L209.451 68.4178ZM214.92 66.7323L214.901 65.6765L215.937 65.0543C216.198 64.8978 216.428 64.7137 216.627 64.5022C216.831 64.2826 217.003 64.0449 217.141 63.7891C217.28 63.5333 217.384 63.2688 217.453 62.9956C217.527 62.7142 217.561 62.4323 217.556 62.1496C217.551 61.8563 217.508 61.6184 217.426 61.4358C217.349 61.2451 217.238 61.1097 217.093 61.0295C216.949 60.9494 216.773 60.9285 216.565 60.9667C216.363 61.0023 216.131 61.0983 215.871 61.2549L214.835 61.8771L214.817 60.8212L215.79 60.2362C216.243 59.9642 216.64 59.8039 216.981 59.7553C217.322 59.7067 217.607 59.7511 217.835 59.8884C218.064 60.0204 218.236 60.2268 218.352 60.5075C218.472 60.7801 218.536 61.1004 218.542 61.4683L218.545 61.6443C218.551 61.9962 218.5 62.3772 218.392 62.7871C218.288 63.1944 218.127 63.6039 217.908 64.0158C217.688 64.4277 217.411 64.8179 217.076 65.1865C216.74 65.5551 216.346 65.8753 215.894 66.1473L214.92 66.7323ZM214.083 67.235L213.98 61.3239L214.954 60.7388L215.057 66.6499L214.083 67.235ZM220.947 63.0787L220.844 57.1996L221.818 56.6145L221.921 62.4936L220.947 63.0787ZM224.005 61.241L222.425 59.6204L223.515 58.9652L225.143 60.5571L224.005 61.241ZM221.598 60.715L221.582 59.7951L222.858 59.0287C223.036 58.9216 223.189 58.7869 223.315 58.6247C223.446 58.4597 223.547 58.2779 223.617 58.0793C223.688 57.8807 223.721 57.6828 223.718 57.4855C223.714 57.2828 223.675 57.1262 223.599 57.0155C223.523 56.9048 223.418 56.8466 223.284 56.841C223.154 56.8326 223.001 56.8819 222.822 56.989L221.547 57.7554L221.53 56.7876L222.703 56.083C223.105 55.8413 223.453 55.7018 223.748 55.6647C224.048 55.6248 224.28 55.6981 224.445 55.8845C224.61 56.071 224.696 56.3776 224.704 56.8042L224.706 56.9322C224.714 57.3641 224.637 57.7681 224.478 58.1443C224.323 58.5178 224.1 58.8617 223.81 59.1761C223.52 59.4906 223.173 59.7687 222.771 60.0104L221.598 60.715ZM225.882 60.1132L225.78 54.2741L226.733 53.7014L226.835 59.5405L225.882 60.1132ZM226.698 59.6229L226.681 58.663L228.951 57.2992L228.968 58.2591L226.698 59.6229ZM226.655 57.1353L226.638 56.1754L228.73 54.9187L228.746 55.8786L226.655 57.1353ZM226.613 54.7436L226.596 53.7838L228.811 52.4529L228.828 53.4128L226.613 54.7436ZM229.473 57.9554L231.079 51.0903L232.67 50.1344L234.527 54.9187L233.526 55.5203L231.95 51.3512L232.302 51.317L231.445 51.832L231.799 51.4418L230.447 57.3703L229.473 57.9554ZM230.639 55.6867L230.931 54.5414L232.961 53.3218L233.28 54.1004L230.639 55.6867ZM236.108 54.0012L236.09 52.9454L237.125 52.3232C237.386 52.1667 237.616 51.9826 237.815 51.7711C238.019 51.5515 238.191 51.3138 238.329 51.058C238.468 50.8022 238.572 50.5377 238.641 50.2645C238.715 49.9831 238.749 49.7012 238.744 49.4185C238.739 49.1252 238.696 48.8873 238.614 48.7047C238.537 48.514 238.426 48.3786 238.281 48.2984C238.137 48.2183 237.961 48.1974 237.754 48.2356C237.551 48.2712 237.319 48.3672 237.059 48.5238L236.023 49.146L236.005 48.0901L236.979 47.5051C237.431 47.2331 237.828 47.0728 238.169 47.0242C238.51 46.9756 238.795 47.02 239.024 47.1573C239.252 47.2893 239.424 47.4957 239.54 47.7764C239.66 48.049 239.724 48.3693 239.73 48.7372L239.733 48.9132C239.739 49.2651 239.688 49.6461 239.58 50.0561C239.476 50.4633 239.315 50.8728 239.096 51.2847C238.876 51.6966 238.599 52.0868 238.264 52.4554C237.928 52.824 237.534 53.1442 237.082 53.4162L236.108 54.0012ZM235.271 54.5039L235.168 48.5928L236.142 48.0077L236.245 53.9188L235.271 54.5039ZM241.395 48.537L239.824 45.836L240.825 45.2344L242.026 47.3658L241.805 47.4177L242.457 47.0262L242.225 47.2463L243.225 43.7923L244.171 43.2237L242.842 47.6676L241.395 48.537ZM241.681 50.6203L241.639 48.2127L242.592 47.64L242.634 50.0476L241.681 50.6203ZM207.309 81.5302C206.865 81.7967 206.489 81.9392 206.18 81.958C205.875 81.974 205.64 81.8861 205.475 81.6942C205.31 81.4971 205.224 81.2145 205.218 80.8466L206.171 80.2739C206.174 80.4285 206.213 80.5585 206.289 80.6639C206.364 80.7639 206.483 80.8112 206.645 80.8057C206.811 80.7975 207.026 80.7137 207.292 80.5544C207.529 80.4115 207.728 80.252 207.886 80.0759C208.045 79.8998 208.162 79.7244 208.237 79.5497C208.313 79.3697 208.349 79.197 208.346 79.0317C208.342 78.8238 208.264 78.7038 208.111 78.6718C207.958 78.6344 207.723 78.6945 207.407 78.8521L206.968 79.0758C206.487 79.3162 206.1 79.3736 205.807 79.2481C205.518 79.1144 205.369 78.7996 205.361 78.3037C205.354 77.9304 205.424 77.5652 205.57 77.2079C205.716 76.8453 205.923 76.511 206.19 76.2049C206.462 75.8908 206.781 75.6239 207.146 75.4041C207.526 75.1761 207.854 75.057 208.131 75.0469C208.408 75.0367 208.624 75.1276 208.78 75.3196C208.936 75.5062 209.017 75.7889 209.024 76.1675L208.07 76.7402C208.068 76.5802 208.031 76.4542 207.96 76.3621C207.893 76.2619 207.793 76.2116 207.659 76.2113C207.53 76.2029 207.364 76.2591 207.163 76.38C206.971 76.4953 206.812 76.6288 206.685 76.7804C206.559 76.9319 206.464 77.0909 206.403 77.2574C206.341 77.4238 206.311 77.5817 206.314 77.731C206.317 77.9123 206.377 78.0379 206.494 78.1079C206.61 78.1726 206.792 78.1414 207.039 78.0144L207.479 77.7987C207.836 77.6164 208.151 77.5162 208.423 77.4981C208.695 77.4801 208.907 77.5497 209.057 77.7071C209.213 77.8618 209.293 78.1124 209.299 78.459C209.306 78.8269 209.229 79.2017 209.069 79.5832C208.91 79.9594 208.678 80.3168 208.374 80.6555C208.075 80.9914 207.72 81.283 207.309 81.5302ZM211.073 79.115L210.985 74.1157L211.959 73.5306L212.046 78.5299L211.073 79.115ZM209.541 75.1451L209.524 74.1452L213.391 71.8214L213.409 72.8212L209.541 75.1451ZM214.271 77.1935L214.168 71.3144L215.142 70.7293L215.244 76.6084L214.271 77.1935ZM217.329 75.3558L215.749 73.7351L216.839 73.08L218.467 74.6718L217.329 75.3558ZM214.922 74.8297L214.906 73.9099L216.182 73.1435C216.36 73.0364 216.512 72.9017 216.639 72.7394C216.77 72.5745 216.871 72.3927 216.941 72.1941C217.012 71.9955 217.045 71.7975 217.042 71.6002C217.038 71.3976 216.999 71.2409 216.923 71.1302C216.847 71.0196 216.742 70.9614 216.608 70.9557C216.478 70.9473 216.324 70.9967 216.146 71.1038L214.871 71.8702L214.854 70.9023L216.026 70.1977C216.429 69.956 216.777 69.8166 217.072 69.7794C217.372 69.7395 217.604 69.8128 217.769 69.9993C217.934 70.1858 218.02 70.4923 218.028 70.9189L218.03 71.0469C218.037 71.4788 217.961 71.8829 217.802 72.2591C217.646 72.6325 217.424 72.9765 217.134 73.2909C216.843 73.6053 216.497 73.8834 216.095 74.1251L214.922 74.8297ZM221.233 73.1639C220.766 73.4441 220.371 73.5763 220.048 73.5606C219.724 73.5449 219.474 73.4013 219.299 73.1296C219.128 72.8499 219.038 72.4567 219.029 71.9501L218.968 68.4707L219.942 67.8856L220.004 71.4291C220.008 71.7063 220.058 71.9242 220.154 72.0825C220.249 72.2356 220.384 72.3186 220.56 72.3315C220.74 72.3363 220.958 72.2619 221.214 72.108C221.466 71.957 221.677 71.7732 221.849 71.5569C222.025 71.3324 222.155 71.0901 222.238 70.83C222.326 70.5671 222.367 70.2943 222.362 70.0117L222.301 66.4682L223.274 65.8831L223.335 69.3626C223.344 69.8692 223.269 70.3612 223.111 70.8387C222.958 71.3081 222.723 71.743 222.407 72.1432C222.09 72.5435 221.699 72.8837 221.233 73.1639ZM226.775 69.8335C226.323 70.1055 225.932 70.2456 225.605 70.254C225.277 70.2624 225.007 70.1791 224.796 70.0041C224.59 69.8263 224.436 69.5903 224.334 69.2961C224.232 69.0018 224.178 68.692 224.172 68.3667L224.169 68.1908C224.163 67.8282 224.204 67.442 224.294 67.0324C224.389 66.62 224.536 66.2081 224.737 65.7965C224.938 65.3849 225.194 64.9991 225.507 64.6389C225.824 64.2706 226.199 63.956 226.633 63.6951C227.086 63.4231 227.481 63.2829 227.818 63.2743C228.159 63.2577 228.434 63.3623 228.641 63.588C228.848 63.8084 228.976 64.1356 229.025 64.5695L228.045 65.1587C228.004 64.914 227.917 64.7395 227.786 64.6351C227.66 64.5226 227.499 64.4787 227.306 64.5035C227.112 64.5228 226.894 64.6053 226.652 64.7509C226.405 64.8992 226.186 65.0818 225.996 65.2984C225.806 65.5098 225.648 65.7446 225.523 66.0028C225.399 66.261 225.304 66.5334 225.24 66.8199C225.18 67.1036 225.153 67.3948 225.158 67.6934C225.163 67.9814 225.2 68.2288 225.268 68.4356C225.341 68.6397 225.445 68.7953 225.581 68.9022C225.717 69.0039 225.881 69.0477 226.075 69.0336C226.274 69.0168 226.501 68.9315 226.757 68.7777C227.132 68.5525 227.445 68.2563 227.698 67.8891C227.954 67.5139 228.107 67.1152 228.155 66.693L229.135 66.1038C229.097 66.5472 228.982 67.0013 228.792 67.466C228.601 67.9307 228.336 68.3701 227.997 68.7841C227.658 69.198 227.251 69.5479 226.775 69.8335ZM230.942 67.1765L230.854 62.1773L231.828 61.5922L231.915 66.5915L230.942 67.1765ZM229.41 63.2067L229.393 62.2068L233.26 59.883L233.278 60.8828L229.41 63.2067ZM236.193 64.1748C235.727 64.455 235.332 64.5873 235.008 64.5716C234.684 64.5559 234.435 64.4122 234.259 64.1406C234.088 63.8609 233.998 63.4677 233.989 62.9611L233.928 59.4817L234.902 58.8966L234.964 62.44C234.969 62.7173 235.019 62.9352 235.114 63.0935C235.209 63.2465 235.344 63.3295 235.52 63.3425C235.7 63.3473 235.918 63.2728 236.174 63.119C236.426 62.9679 236.637 62.7842 236.809 62.5678C236.985 62.3434 237.115 62.1011 237.198 61.8409C237.286 61.578 237.328 61.3053 237.323 61.0226L237.261 57.4792L238.235 56.8941L238.295 60.3736C238.304 60.8802 238.23 61.3722 238.072 61.8497C237.918 62.3191 237.683 62.754 237.367 63.1542C237.05 63.5545 236.659 63.8947 236.193 64.1748ZM239.477 62.0481L239.374 56.169L240.348 55.5839L240.45 61.463L239.477 62.0481ZM242.535 60.2105L240.955 58.5898L242.045 57.9347L243.673 59.5265L242.535 60.2105ZM240.128 59.6844L240.112 58.7645L241.388 57.9981C241.566 57.891 241.719 57.7563 241.845 57.5941C241.976 57.4291 242.077 57.2473 242.147 57.0487C242.218 56.8502 242.251 56.6522 242.248 56.4549C242.244 56.2523 242.205 56.0956 242.129 55.9849C242.053 55.8742 241.948 55.816 241.814 55.8104C241.684 55.802 241.531 55.8513 241.352 55.9585L240.077 56.7248L240.06 55.757L241.232 55.0524C241.635 54.8107 241.983 54.6712 242.278 54.6341C242.578 54.5942 242.81 54.6675 242.975 54.854C243.14 55.0404 243.226 55.347 243.234 55.7736L243.236 55.9016C243.244 56.3335 243.167 56.7376 243.008 57.1137C242.853 57.4872 242.63 57.8311 242.34 58.1456C242.05 58.46 241.703 58.7381 241.301 58.9798L240.128 59.6844ZM244.412 59.0826L244.31 53.2435L245.263 52.6708L245.365 58.5099L244.412 59.0826ZM245.228 58.5923L245.211 57.6325L247.481 56.2686L247.498 57.2285L245.228 58.5923ZM245.185 56.1047L245.168 55.1448L247.259 53.8881L247.276 54.848L245.185 56.1047ZM245.143 53.7131L245.126 52.7532L247.341 51.4223L247.358 52.3822L245.143 53.7131Z" fill="#58595B"/>
<path d="M202.843 61.762V89.3923" stroke="#0E3572"/>
</g>
<defs>
<radialGradient id="paint0_radial_1624_1803" cx="0" cy="0" r="1" gradientUnits="userSpaceOnUse" gradientTransform="translate(182.555 203.285) rotate(90) scale(187.45 187.45)">
<stop stop-color="#D9D9D9"/>
<stop offset="0.890272" stop-color="#D9D9D9" stop-opacity="0"/>
</radialGradient>
<linearGradient id="paint1_linear_1624_1803" x1="327.753" y1="74.2617" x2="237.324" y2="74.2617" gradientUnits="userSpaceOnUse">
<stop stop-color="#0E3572"/>
<stop offset="1" stop-color="#0E3572" stop-opacity="0"/>
</linearGradient>
<linearGradient id="paint2_linear_1624_1803" x1="79.6665" y1="61.1734" x2="170.096" y2="61.1734" gradientUnits="userSpaceOnUse">
<stop stop-color="#0E3572"/>
<stop offset="1" stop-color="#0E3572" stop-opacity="0"/>
</linearGradient>
<linearGradient id="paint3_linear_1624_1803" x1="73.4688" y1="53.2981" x2="73.4688" y2="93.259" gradientUnits="userSpaceOnUse">
<stop stop-color="white"/>
<stop offset="1" stop-color="#3EAFD1"/>
</linearGradient>
<linearGradient id="paint4_linear_1624_1803" x1="339.457" y1="34.459" x2="339.457" y2="74.4199" gradientUnits="userSpaceOnUse">
<stop stop-color="white"/>
<stop offset="1" stop-color="#3EAFD1"/>
</linearGradient>
<linearGradient id="paint5_linear_1624_1803" x1="326.591" y1="52.3635" x2="339.085" y2="30.7217" gradientUnits="userSpaceOnUse">
<stop stop-color="#0064E0"/>
<stop offset="0.062" stop-color="#006AE5"/>
<stop offset="0.218" stop-color="#007AF4"/>
<stop offset="0.811" stop-color="#007DF6"/>
<stop offset="1" stop-color="#0080F9"/>
</linearGradient>
<linearGradient id="paint6_linear_1624_1803" x1="325.69" y1="49.2835" x2="344.019" y2="49.8152" gradientUnits="userSpaceOnUse">
<stop stop-color="#0064E0"/>
<stop offset="0.013" stop-color="#0065E1"/>
<stop offset="0.289" stop-color="#0075F0"/>
<stop offset="0.597" stop-color="#007FF9"/>
<stop offset="1" stop-color="#0082FC"/>
</linearGradient>
<linearGradient id="paint7_linear_1624_1803" x1="322.169" y1="43.7723" x2="353.786" y2="45.8963" gradientUnits="userSpaceOnUse">
<stop stop-color="#0082FB"/>
<stop offset="0.022" stop-color="#017CF5"/>
<stop offset="0.09" stop-color="#0471EA"/>
<stop offset="0.187" stop-color="#066AE3"/>
<stop offset="0.456" stop-color="#0668E1"/>
<stop offset="0.746" stop-color="#056AE3"/>
<stop offset="0.885" stop-color="#0472EB"/>
<stop offset="0.974" stop-color="#017CF5"/>
<stop offset="1" stop-color="#0082FB"/>
</linearGradient>
<linearGradient id="paint8_linear_1624_1803" x1="323.404" y1="48.0094" x2="328.728" y2="38.7874" gradientUnits="userSpaceOnUse">
<stop stop-color="#0064E0"/>
<stop offset="0.422" stop-color="#0069E4"/>
<stop offset="0.433" stop-color="#0069E4"/>
<stop offset="1" stop-color="#0668E1"/>
</linearGradient>
<linearGradient id="paint9_linear_1624_1803" x1="347.868" y1="46.3087" x2="352.421" y2="38.4208" gradientUnits="userSpaceOnUse">
<stop stop-color="#066BE3"/>
<stop offset="0.309" stop-color="#0470E9"/>
<stop offset="0.559" stop-color="#0279F2"/>
<stop offset="1" stop-color="#0080F9"/>
</linearGradient>
<clipPath id="clip0_1624_1803">
<rect width="412.667" height="112" fill="white"/>
</clipPath>
<clipPath id="clip1_1624_1803">
<rect width="28.9444" height="28.9444" fill="white" transform="matrix(0.866044 -0.499967 0.866044 0.499967 48.1128 63.2217)"/>
</clipPath>
<clipPath id="clip2_1624_1803">
<rect width="29.4605" height="29.4605" fill="white" transform="matrix(0.866044 -0.499967 0.866044 0.499967 313.575 45.1543)"/>
</clipPath>
<clipPath id="clip3_1624_1803">
<rect width="54.7574" height="54.7574" fill="white" transform="matrix(0.866044 -0.499967 0.866044 0.499967 146.77 27.377)"/>
</clipPath>
</defs>
</svg>
