<svg width="80" height="60" viewBox="0 0 80 60" fill="none" xmlns="http://www.w3.org/2000/svg">
<g clip-path="url(#clip0_4095_8214)">
<path d="M0 0H80V20H0V0Z" fill="#FF9933"/>
<path d="M0 20H80V40H0V20Z" fill="white"/>
<path d="M0 40H80V60H0V40Z" fill="#128807"/>
<path d="M40 38C44.4183 38 48 34.4183 48 30C48 25.5817 44.4183 22 40 22C35.5817 22 32 25.5817 32 30C32 34.4183 35.5817 38 40 38Z" fill="#000088"/>
<path d="M40 37C43.866 37 47 33.866 47 30C47 26.134 43.866 23 40 23C36.134 23 33 26.134 33 30C33 33.866 36.134 37 40 37Z" fill="white"/>
<path d="M40 31.3996C40.7732 31.3996 41.4 30.7728 41.4 29.9996C41.4 29.2264 40.7732 28.5996 40 28.5996C39.2268 28.5996 38.6 29.2264 38.6 29.9996C38.6 30.7728 39.2268 31.3996 40 31.3996Z" fill="#000088"/>
<path d="M46.8931 31.2725C47.0902 31.2985 47.271 31.1597 47.297 30.9626C47.3229 30.7655 47.1842 30.5847 46.987 30.5587C46.7899 30.5328 46.6091 30.6715 46.5831 30.8686C46.5572 31.0658 46.6959 31.2466 46.8931 31.2725Z" fill="#000088"/>
<path d="M40 36.9998L40.24 32.7998L40 30.7998L39.76 32.7998L40 36.9998Z" fill="#000088"/>
<path d="M46.3285 33.0139C46.5122 33.09 46.7228 33.0028 46.7989 32.8191C46.875 32.6354 46.7878 32.4248 46.6041 32.3487C46.4204 32.2726 46.2098 32.3598 46.1337 32.5435C46.0576 32.7272 46.1449 32.9378 46.3285 33.0139Z" fill="#000088"/>
<path d="M38.1882 36.7608L39.507 32.766L39.7929 30.7721L39.0434 32.6418L38.1882 36.7608Z" fill="#000088"/>
<path d="M45.3329 34.5482C45.4906 34.6692 45.7166 34.6395 45.8377 34.4817C45.9587 34.324 45.9289 34.098 45.7712 33.977C45.6135 33.8559 45.3875 33.8857 45.2664 34.0434C45.1454 34.2012 45.1752 34.4271 45.3329 34.5482Z" fill="#000088"/>
<path d="M36.5001 36.0606L38.8079 32.5433L39.6001 30.6913L38.3922 32.3033L36.5001 36.0606Z" fill="#000088"/>
<path d="M43.9739 35.7737C44.0949 35.9315 44.3209 35.9612 44.4786 35.8402C44.6364 35.7191 44.6661 35.4931 44.5451 35.3354C44.424 35.1777 44.1981 35.1479 44.0403 35.269C43.8826 35.39 43.8528 35.616 43.9739 35.7737Z" fill="#000088"/>
<path d="M35.0503 34.9493L38.1898 32.1491L39.4344 30.5652L37.8504 31.8097L35.0503 34.9493Z" fill="#000088"/>
<path d="M42.3439 36.6052C42.42 36.7889 42.6306 36.8761 42.8143 36.8C42.998 36.7239 43.0852 36.5134 43.0091 36.3297C42.933 36.146 42.7224 36.0588 42.5387 36.1348C42.3551 36.2109 42.2678 36.4215 42.3439 36.6052Z" fill="#000088"/>
<path d="M33.9379 33.4993L37.6952 31.6071L39.3073 30.3993L37.4552 31.1914L33.9379 33.4993Z" fill="#000088"/>
<path d="M40.5542 36.987C40.5802 37.1842 40.761 37.3229 40.9581 37.297C41.1552 37.271 41.294 37.0902 41.2681 36.8931C41.2421 36.6959 41.0613 36.5572 40.8641 36.5831C40.667 36.6091 40.5283 36.7899 40.5542 36.987Z" fill="#000088"/>
<path d="M33.2385 31.8111L37.3575 30.9559L39.2273 30.2064L37.2333 30.4922L33.2385 31.8111Z" fill="#000088"/>
<path d="M38.7268 36.8928C38.7009 37.0899 38.8397 37.2708 39.0368 37.2967C39.2339 37.3227 39.4147 37.1839 39.4407 36.9868C39.4666 36.7897 39.3279 36.6088 39.1308 36.5829C38.9336 36.5569 38.7528 36.6957 38.7268 36.8928Z" fill="#000088"/>
<path d="M33.0001 29.9998L37.2001 30.2398L39.2001 29.9998L37.2001 29.7598L33.0001 29.9998Z" fill="#000088"/>
<path d="M36.9862 36.3285C36.9101 36.5122 36.9974 36.7228 37.1811 36.7989C37.3647 36.875 37.5753 36.7878 37.6514 36.6041C37.7275 36.4204 37.6403 36.2098 37.4566 36.1337C37.2729 36.0576 37.0623 36.1449 36.9862 36.3285Z" fill="#000088"/>
<path d="M33.2386 28.1887L37.2333 29.5075L39.2273 29.7933L37.3576 29.0439L33.2386 28.1887Z" fill="#000088"/>
<path d="M35.451 35.3327C35.3299 35.4904 35.3597 35.7164 35.5174 35.8374C35.6752 35.9584 35.9011 35.9287 36.0222 35.771C36.1432 35.6132 36.1135 35.3872 35.9557 35.2662C35.798 35.1452 35.572 35.1749 35.451 35.3327Z" fill="#000088"/>
<path d="M33.938 26.5004L37.4553 28.8083L39.3074 29.6004L37.6953 28.3926L33.938 26.5004Z" fill="#000088"/>
<path d="M34.2257 33.9741C34.0679 34.0951 34.0382 34.3211 34.1592 34.4789C34.2803 34.6366 34.5062 34.6664 34.664 34.5453C34.8217 34.4243 34.8515 34.1983 34.7304 34.0406C34.6094 33.8828 34.3834 33.8531 34.2257 33.9741Z" fill="#000088"/>
<path d="M35.0504 25.0503L37.8505 28.1898L39.4344 29.4344L38.1899 27.8504L35.0504 25.0503Z" fill="#000088"/>
<path d="M33.3939 32.3437C33.2103 32.4198 33.123 32.6303 33.1991 32.814C33.2752 32.9977 33.4858 33.0849 33.6695 33.0089C33.8532 32.9328 33.9404 32.7222 33.8643 32.5385C33.7882 32.3548 33.5776 32.2676 33.3939 32.3437Z" fill="#000088"/>
<path d="M36.5001 23.9372L38.3923 27.6945L39.6001 29.3065L38.808 27.4545L36.5001 23.9372Z" fill="#000088"/>
<path d="M33.0124 30.5539C32.8152 30.5798 32.6765 30.7606 32.7024 30.9578C32.7284 31.1549 32.9092 31.2936 33.1063 31.2677C33.3035 31.2417 33.4422 31.0609 33.4163 30.8638C33.3903 30.6667 33.2095 30.5279 33.0124 30.5539Z" fill="#000088"/>
<path d="M38.1883 23.2384L39.0435 27.3574L39.793 29.2272L39.5071 27.2332L38.1883 23.2384Z" fill="#000088"/>
<path d="M33.1072 28.7265C32.9101 28.7005 32.7292 28.8393 32.7033 29.0364C32.6773 29.2335 32.8161 29.4144 33.0132 29.4403C33.2103 29.4663 33.3912 29.3275 33.4171 29.1304C33.4431 28.9333 33.3043 28.7524 33.1072 28.7265Z" fill="#000088"/>
<path d="M40.0001 22.9992L39.7601 27.1992L40.0001 29.1992L40.2401 27.1992L40.0001 22.9992Z" fill="#000088"/>
<path d="M33.6716 26.9851C33.4879 26.909 33.2773 26.9963 33.2012 27.18C33.1251 27.3636 33.2124 27.5742 33.396 27.6503C33.5797 27.7264 33.7903 27.6392 33.8664 27.4555C33.9425 27.2718 33.8553 27.0612 33.6716 26.9851Z" fill="#000088"/>
<path d="M41.8119 23.2382L40.4931 27.233L40.2073 29.2269L40.9567 27.3572L41.8119 23.2382Z" fill="#000088"/>
<path d="M34.6672 25.4508C34.5095 25.3298 34.2835 25.3596 34.1625 25.5173C34.0414 25.675 34.0712 25.901 34.2289 26.0221C34.3867 26.1431 34.6126 26.1133 34.7337 25.9556C34.8547 25.7979 34.825 25.5719 34.6672 25.4508Z" fill="#000088"/>
<path d="M43.5001 23.9384L41.1922 27.4557L40.4001 29.3077L41.6079 27.6957L43.5001 23.9384Z" fill="#000088"/>
<path d="M36.0263 24.2253C35.9052 24.0676 35.6792 24.0378 35.5215 24.1589C35.3638 24.2799 35.334 24.5059 35.455 24.6636C35.5761 24.8213 35.8021 24.8511 35.9598 24.7301C36.1175 24.609 36.1473 24.383 36.0263 24.2253Z" fill="#000088"/>
<path d="M44.9498 25.0497L41.8103 27.8499L40.5658 29.4338L42.1497 28.1893L44.9498 25.0497Z" fill="#000088"/>
<path d="M37.6562 23.3938C37.5801 23.2101 37.3695 23.1229 37.1858 23.199C37.0022 23.2751 36.9149 23.4857 36.991 23.6694C37.0671 23.853 37.2777 23.9403 37.4614 23.8642C37.6451 23.7881 37.7323 23.5775 37.6562 23.3938Z" fill="#000088"/>
<path d="M46.0622 26.4998L42.3049 28.3919L40.6929 29.5998L42.5449 28.8076L46.0622 26.4998Z" fill="#000088"/>
<path d="M39.4459 23.012C39.42 22.8149 39.2391 22.6761 39.042 22.7021C38.8449 22.728 38.7061 22.9088 38.7321 23.106C38.758 23.3031 38.9389 23.4419 39.136 23.4159C39.3331 23.3899 39.4719 23.2091 39.4459 23.012Z" fill="#000088"/>
<path d="M46.7616 28.1879L42.6426 29.0431L40.7728 29.7926L42.7668 29.5068L46.7616 28.1879Z" fill="#000088"/>
<path d="M41.2733 23.1062C41.2992 22.9091 41.1605 22.7282 40.9634 22.7023C40.7662 22.6763 40.5854 22.8151 40.5594 23.0122C40.5335 23.2093 40.6722 23.3902 40.8694 23.4161C41.0665 23.4421 41.2473 23.3033 41.2733 23.1062Z" fill="#000088"/>
<path d="M47 29.9993L42.8 29.7593L40.8 29.9993L42.8 30.2393L47 29.9993Z" fill="#000088"/>
<path d="M43.0139 23.6705C43.09 23.4868 43.0028 23.2762 42.8191 23.2001C42.6354 23.124 42.4248 23.2113 42.3487 23.3949C42.2726 23.5786 42.3598 23.7892 42.5435 23.8653C42.7272 23.9414 42.9378 23.8542 43.0139 23.6705Z" fill="#000088"/>
<path d="M46.7615 31.8104L42.7668 30.4915L40.7728 30.2057L42.6425 30.9551L46.7615 31.8104Z" fill="#000088"/>
<path d="M44.5493 24.6673C44.6703 24.5096 44.6406 24.2836 44.4828 24.1626C44.3251 24.0416 44.0991 24.0713 43.9781 24.229C43.857 24.3868 43.8868 24.6128 44.0445 24.7338C44.2023 24.8548 44.4282 24.8251 44.5493 24.6673Z" fill="#000088"/>
<path d="M46.0622 33.4996L42.5449 31.1917L40.6929 30.3996L42.3049 31.6074L46.0622 33.4996Z" fill="#000088"/>
<path d="M45.7746 26.0259C45.9323 25.9049 45.9621 25.6789 45.841 25.5211C45.72 25.3634 45.494 25.3336 45.3363 25.4547C45.1785 25.5757 45.1488 25.8017 45.2698 25.9594C45.3908 26.1172 45.6168 26.1469 45.7746 26.0259Z" fill="#000088"/>
<path d="M44.9499 34.9497L42.1497 31.8102L40.5658 30.5656L41.8103 32.1496L44.9499 34.9497Z" fill="#000088"/>
<path d="M46.6063 27.6563C46.79 27.5802 46.8772 27.3697 46.8011 27.186C46.725 27.0023 46.5145 26.9151 46.3308 26.9911C46.1471 27.0672 46.0598 27.2778 46.1359 27.4615C46.212 27.6452 46.4226 27.7324 46.6063 27.6563Z" fill="#000088"/>
<path d="M43.5001 36.0628L41.608 32.3055L40.4001 30.6935L41.1923 32.5455L43.5001 36.0628Z" fill="#000088"/>
<path d="M46.9879 29.4461C47.185 29.4202 47.3238 29.2394 47.2978 29.0422C47.2719 28.8451 47.091 28.7064 46.8939 28.7323C46.6968 28.7583 46.558 28.9391 46.584 29.1362C46.6099 29.3333 46.7908 29.4721 46.9879 29.4461Z" fill="#000088"/>
<path d="M41.812 36.7616L40.9567 32.6426L40.2073 30.7728L40.4931 32.7668L41.812 36.7616Z" fill="#000088"/>
</g>
<defs>
<clipPath id="clip0_4095_8214">
<rect width="80" height="60" fill="white"/>
</clipPath>
</defs>
</svg>
