<svg width="41" height="41" viewBox="0 0 41 41" fill="none" xmlns="http://www.w3.org/2000/svg">
<g clip-path="url(#clip0_1842_5671)">
<path d="M20.5 40.3994C31.4901 40.3994 40.3994 31.4901 40.3994 20.5C40.3994 9.50986 31.4901 0.600586 20.5 0.600586C9.50986 0.600586 0.600586 9.50986 0.600586 20.5C0.600586 31.4901 9.50986 40.3994 20.5 40.3994Z" stroke="white" stroke-miterlimit="10" stroke-linecap="round" stroke-linejoin="round"/>
<path d="M23.326 15.7213C21.5186 15.146 17.7728 14.5502 17.7156 18.8978C17.657 23.3452 18.3005 24.8075 21.3419 24.866C24.3835 24.9244 26.4306 24.4565 26.7816 26.6792C27.1325 28.9019 26.1382 33.8736 28.7703 34.166C31.4024 34.4585 33.1571 30.949 33.8004 29.5452C34.4439 28.1414 34.0344 24.4565 36.0816 23.4037C38.1288 22.3508 37.7779 19.3678 37.076 18.4904C36.5468 17.829 37.0156 15.6054 39.7597 15.4783C38.4317 10.3707 35.1256 6.06158 30.7084 3.41634C29.8564 4.17373 29.1401 4.44095 27.1325 4.27711C24.2664 4.0432 23.0089 5.62243 23.5061 6.93845C23.7684 7.63297 24.6172 7.65147 25.3604 7.51405C26.6665 7.27254 27.0972 9.21741 25.8018 9.51097C23.566 10.0177 21.4066 7.90195 20.3475 9.57055C19.3824 11.0913 20.4061 13.1092 23.5645 12.0564C26.7231 11.0036 29.3356 13.2263 28.5948 14.864C28.1902 15.7583 27.2156 16.117 26.1286 16.1638M14.5823 32.7818C15.2277 30.6028 17.1787 29.728 16.3048 26.7844C15.2947 23.382 10.1378 24.1794 7.42642 24.1262C4.71511 24.0731 5.93783 22.6376 5.93783 20.4579C5.93783 18.2782 9.60616 18.4908 9.60616 16.9491C9.60616 15.4073 6.68217 14.8757 7.63911 13.2276C8.59605 11.5795 11.0416 13.4934 13.0083 11.6858C14.975 9.87822 12.2644 7.27326 13.3808 4.934C14.2549 3.10268 13.1087 2.44443 12.5698 2.24487C5.52631 5.30908 0.600586 12.3287 0.600586 20.4999C0.600586 21.9378 0.754497 23.3395 1.04422 24.6909C2.86545 25.7391 3.75841 24.6601 4.5025 26.1996C5.53031 28.3262 6.66455 29.2477 9.14547 30.4528C11.6265 31.6578 10.4923 35.2729 11.7328 37.1159C12.1459 37.7296 12.7161 38.4413 13.3261 39.0656C14.4007 39.4811 15.5096 39.8018 16.6402 40.0238C16.9797 38.9248 15.2747 37.5534 14.6269 35.5845" stroke="white" stroke-miterlimit="10" stroke-linecap="round" stroke-linejoin="round"/>
</g>
<defs>
<clipPath id="clip0_1842_5671">
<rect width="41" height="41" fill="white"/>
</clipPath>
</defs>
</svg>
