<svg width="421" height="115" viewBox="0 0 421 115" fill="none" xmlns="http://www.w3.org/2000/svg">
<rect width="406" height="113" transform="translate(7.36816)" fill="white"/>
<g clip-path="url(#clip0_1632_714)">
<g opacity="0.5">
<mask id="mask0_1632_714" style="mask-type:alpha" maskUnits="userSpaceOnUse" x="-101" y="-120" width="609" height="353">
<rect width="351.392" height="351.392" transform="matrix(0.866025 0.5 -0.866025 0.5 203.649 -119.196)" fill="url(#paint0_radial_1632_714)"/>
<rect y="0.5" width="350.392" height="350.392" transform="matrix(0.866025 0.5 -0.866025 0.5 204.082 -118.946)" stroke="#B3B3B3" stroke-opacity="0.4"/>
</mask>
<g mask="url(#mask0_1632_714)">
<path d="M209.298 -107.483L-80.4837 59.8226" stroke="#B3B3B3" stroke-opacity="0.4"/>
<path d="M221.977 -100.162L-67.8045 67.1438" stroke="#B3B3B3" stroke-opacity="0.4"/>
<path d="M234.657 -92.8411L-55.1243 74.4644" stroke="#B3B3B3" stroke-opacity="0.4"/>
<path d="M247.336 -85.5208L-42.4451 81.7847" stroke="#B3B3B3" stroke-opacity="0.4"/>
<path d="M260.017 -78.1997L-29.7645 89.1058" stroke="#B3B3B3" stroke-opacity="0.4"/>
<path d="M272.696 -70.8792L-17.0853 96.4263" stroke="#B3B3B3" stroke-opacity="0.4"/>
<path d="M285.375 -63.5588L-4.40608 103.747" stroke="#B3B3B3" stroke-opacity="0.4"/>
<path d="M298.057 -56.2378L8.27556 111.068" stroke="#B3B3B3" stroke-opacity="0.4"/>
<path d="M310.736 -48.917L20.9543 118.388" stroke="#B3B3B3" stroke-opacity="0.4"/>
<path d="M323.415 -41.5967L33.6335 125.709" stroke="#B3B3B3" stroke-opacity="0.4"/>
<path d="M336.095 -34.2756L46.3132 133.03" stroke="#B3B3B3" stroke-opacity="0.4"/>
<path d="M348.775 -26.9551L58.9938 140.35" stroke="#B3B3B3" stroke-opacity="0.4"/>
<path d="M361.455 -19.635L71.6735 147.67" stroke="#B3B3B3" stroke-opacity="0.4"/>
<path d="M374.135 -12.3137L84.3537 154.992" stroke="#B3B3B3" stroke-opacity="0.4"/>
<path d="M386.814 -4.99316L97.0324 162.312" stroke="#B3B3B3" stroke-opacity="0.4"/>
<path d="M399.495 2.3269L109.713 169.632" stroke="#B3B3B3" stroke-opacity="0.4"/>
<path d="M412.173 9.64795L122.392 176.953" stroke="#B3B3B3" stroke-opacity="0.4"/>
<path d="M424.854 16.9688L135.072 184.274" stroke="#B3B3B3" stroke-opacity="0.4"/>
<path d="M437.533 24.2891L147.751 191.595" stroke="#B3B3B3" stroke-opacity="0.4"/>
<path d="M450.213 31.6101L160.431 198.916" stroke="#B3B3B3" stroke-opacity="0.4"/>
<path d="M462.893 38.9309L173.111 206.236" stroke="#B3B3B3" stroke-opacity="0.4"/>
<path d="M475.573 46.2515L185.792 213.557" stroke="#B3B3B3" stroke-opacity="0.4"/>
<path d="M488.252 53.572L198.47 220.877" stroke="#B3B3B3" stroke-opacity="0.4"/>
<path d="M500.932 60.8926L211.151 228.198" stroke="#B3B3B3" stroke-opacity="0.4"/>
<path d="M196.618 -114.803L500.932 60.8928" stroke="#B3B3B3" stroke-opacity="0.4"/>
<path d="M184.543 -107.832L488.857 67.8638" stroke="#B3B3B3" stroke-opacity="0.4"/>
<path d="M172.469 -100.861L476.783 74.835" stroke="#B3B3B3" stroke-opacity="0.4"/>
<path d="M160.395 -93.8901L464.709 81.8057" stroke="#B3B3B3" stroke-opacity="0.4"/>
<path d="M148.321 -86.9189L452.635 88.7769" stroke="#B3B3B3" stroke-opacity="0.4"/>
<path d="M136.246 -79.948L440.56 95.7478" stroke="#B3B3B3" stroke-opacity="0.4"/>
<path d="M124.172 -72.9766L428.486 102.719" stroke="#B3B3B3" stroke-opacity="0.4"/>
<path d="M112.098 -66.0054L416.412 109.69" stroke="#B3B3B3" stroke-opacity="0.4"/>
<path d="M100.024 -59.0347L404.338 116.661" stroke="#B3B3B3" stroke-opacity="0.4"/>
<path d="M87.9502 -52.064L392.264 123.632" stroke="#B3B3B3" stroke-opacity="0.4"/>
<path d="M75.8755 -45.0918L380.19 130.604" stroke="#B3B3B3" stroke-opacity="0.4"/>
<path d="M63.8008 -38.1218L368.115 137.574" stroke="#B3B3B3" stroke-opacity="0.4"/>
<path d="M51.7275 -31.1501L356.042 144.546" stroke="#B3B3B3" stroke-opacity="0.4"/>
<path d="M39.6528 -24.179L343.967 151.517" stroke="#B3B3B3" stroke-opacity="0.4"/>
<path d="M27.5786 -17.2083L331.893 158.488" stroke="#B3B3B3" stroke-opacity="0.4"/>
<path d="M15.5049 -10.2373L319.819 165.458M129.622 55.6484C129.622 55.6484 137.35 60.1101 142.302 62.9689" stroke="#B3B3B3" stroke-opacity="0.4"/>
<path d="M3.44116 -3.27002L307.755 172.426" stroke="#B3B3B3" stroke-opacity="0.4"/>
<path d="M-8.63281 3.7002L295.681 179.396" stroke="#B3B3B3" stroke-opacity="0.4"/>
<path d="M-20.7078 10.6709L283.606 186.367" stroke="#B3B3B3" stroke-opacity="0.4"/>
<path d="M-32.7812 17.6423L271.533 193.338" stroke="#B3B3B3" stroke-opacity="0.4"/>
<path d="M-44.8557 24.6133L259.458 200.309" stroke="#B3B3B3" stroke-opacity="0.4"/>
<path d="M-56.9292 31.584L247.385 207.28" stroke="#B3B3B3" stroke-opacity="0.4"/>
<path d="M-69.0039 38.5552L235.31 214.251" stroke="#B3B3B3" stroke-opacity="0.4"/>
<path d="M-81.0781 45.5269L223.236 221.223" stroke="#B3B3B3" stroke-opacity="0.4"/>
<path d="M-93.1521 52.4973L211.162 228.193" stroke="#B3B3B3" stroke-opacity="0.4"/>
</g>
</g>
</g>
<path d="M79.853 54.79L155.538 98.8834L179.382 85.0256" stroke="#3EAFD1" stroke-linecap="round"/>
<path d="M332.104 61.016L277.235 28.8723L247.667 46.2827" stroke="#3EAFD1" stroke-linecap="round"/>
<mask id="path-54-inside-1_1632_714" fill="white">
<path d="M253.366 44.8096V61.1182L253.522 61.1191V72.79L205.684 100.02L158.06 73.1475L157.424 72.79V44.8096L205.395 17.1787L253.366 44.8096Z"/>
</mask>
<path d="M253.366 44.8096V61.1182L253.522 61.1191V72.79L205.684 100.02L158.06 73.1475L157.424 72.79V44.8096L205.395 17.1787L253.366 44.8096Z" fill="white"/>
<path d="M253.366 44.8096H253.958V44.4675L253.662 44.2968L253.366 44.8096ZM253.366 61.1182H252.774V61.7062L253.363 61.7099L253.366 61.1182ZM253.522 61.1191H254.114V60.5311L253.526 60.5274L253.522 61.1191ZM253.522 72.79L253.815 73.3043L254.114 73.1341V72.79H253.522ZM205.684 100.02L205.393 100.535L205.685 100.7L205.976 100.534L205.684 100.02ZM158.06 73.1475L158.35 72.6321L158.35 72.6316L158.06 73.1475ZM157.424 72.79H156.832V73.1362L157.134 73.3059L157.424 72.79ZM157.424 44.8096L157.128 44.2968L156.832 44.4675V44.8096H157.424ZM205.395 17.1787L205.69 16.6659L205.395 16.4958L205.099 16.6659L205.395 17.1787ZM253.366 44.8096H252.774V61.1182H253.366H253.958V44.8096H253.366ZM253.366 61.1182L253.363 61.7099L253.519 61.7109L253.522 61.1191L253.526 60.5274L253.37 60.5264L253.366 61.1182ZM253.522 61.1191H252.931V72.79H253.522H254.114V61.1191H253.522ZM253.522 72.79L253.23 72.2758L205.391 99.5053L205.684 100.02L205.976 100.534L253.815 73.3043L253.522 72.79ZM205.684 100.02L205.974 99.5042L158.35 72.6321L158.06 73.1475L157.769 73.6628L205.393 100.535L205.684 100.02ZM158.06 73.1475L158.35 72.6316L157.714 72.2742L157.424 72.79L157.134 73.3059L157.77 73.6633L158.06 73.1475ZM157.424 72.79H158.016V44.8096H157.424H156.832V72.79H157.424ZM157.424 44.8096L157.719 45.3223L205.69 17.6915L205.395 17.1787L205.099 16.6659L157.128 44.2968L157.424 44.8096ZM205.395 17.1787L205.099 17.6915L253.071 45.3223L253.366 44.8096L253.662 44.2968L205.69 16.6659L205.395 17.1787Z" fill="#0E3572" mask="url(#path-54-inside-1_1632_714)"/>
<path d="M252.649 44.8638L205.398 71.1979L158.295 44.6615L205.395 18.1271L252.649 44.8638Z" fill="white" stroke="#0E3572"/>
<path d="M205.341 72.0327V99.6631" stroke="#0E3572"/>
<path d="M175.907 43.8343L203.966 27.6346C205.688 26.6405 208.48 26.6405 210.201 27.6346L235.143 42.0346C236.865 43.0287 236.865 44.6405 235.143 45.6346L207.084 61.8343C205.362 62.8284 202.571 62.8284 200.849 61.8343L175.907 47.4343C174.185 46.4402 174.185 44.8284 175.907 43.8343Z" fill="#7D6DB5"/>
<path d="M176.123 43.9595L204.182 27.7598C205.784 26.8348 208.382 26.8344 209.985 27.7593L234.927 42.1597C236.529 43.0847 236.528 44.5848 234.926 45.5098L206.867 61.7095C205.265 62.6343 202.668 62.6343 201.066 61.7095L176.123 47.3091C174.522 46.3841 174.522 44.8845 176.123 43.9595Z" stroke="white" stroke-opacity="0.2" stroke-width="0.5"/>
<path d="M175.907 43.8343L203.966 27.6344C205.688 26.6403 208.48 26.6403 210.202 27.6344L214.878 30.3344L180.584 50.1343L175.907 47.4343C174.185 46.4402 174.185 44.8284 175.907 43.8343Z" fill="white" fill-opacity="0.2"/>
<path d="M181.364 46.0843C181.794 45.8358 181.794 45.4328 181.364 45.1843C180.933 44.9357 180.235 44.9357 179.805 45.1843C179.374 45.4328 179.374 45.8358 179.805 46.0843C180.235 46.3328 180.933 46.3328 181.364 46.0843Z" fill="white"/>
<path d="M184.481 44.2845C184.911 44.0359 184.911 43.633 184.481 43.3845C184.05 43.1359 183.352 43.1359 182.922 43.3845C182.492 43.633 182.492 44.0359 182.922 44.2845C183.352 44.533 184.05 44.533 184.481 44.2845Z" fill="white"/>
<path d="M187.599 42.4844C188.029 42.2359 188.029 41.8329 187.599 41.5844C187.168 41.3359 186.47 41.3359 186.04 41.5844C185.609 41.8329 185.609 42.2359 186.04 42.4844C186.47 42.733 187.168 42.733 187.599 42.4844Z" fill="white"/>
<path d="M293.445 79.2737L353.766 113.833" stroke="#0E3572" stroke-width="0.5" stroke-dasharray="1 1"/>
<path d="M360.291 36.7166L420.612 71.2755" stroke="#0E3572" stroke-width="0.5" stroke-dasharray="1 1"/>
<path d="M419.048 59.4861L328.926 111.592" stroke="#0E3572" stroke-width="0.5" stroke-dasharray="1 1"/>
<path d="M385.183 39.6484L295.06 91.7544" stroke="#0E3572" stroke-width="0.5" stroke-dasharray="1 1"/>
<mask id="path-68-inside-2_1632_714" fill="white">
<path d="M395.877 58.9028L410.04 56.1021V65.0542L339.015 106.053L304.027 85.8726V77.0718L327.301 72.4673L373.366 45.9399L395.877 58.9028Z"/>
</mask>
<path d="M395.877 58.9028L410.04 56.1021V65.0542L339.015 106.053L304.027 85.8726V77.0718L327.301 72.4673L373.366 45.9399L395.877 58.9028Z" fill="url(#paint1_linear_1632_714)"/>
<path d="M395.877 58.9028L395.582 59.4156L395.774 59.5264L395.992 59.4833L395.877 58.9028ZM410.04 56.1021H410.632V55.3818L409.925 55.5215L410.04 56.1021ZM410.04 65.0542L410.336 65.5667L410.632 65.3959V65.0542H410.04ZM339.015 106.053L338.719 106.566L339.015 106.736L339.31 106.566L339.015 106.053ZM304.027 85.8726H303.436V86.2144L303.732 86.3851L304.027 85.8726ZM304.027 77.0718L303.912 76.4913L303.436 76.5856V77.0718H304.027ZM327.301 72.4673L327.416 73.0478L327.511 73.0288L327.596 72.9801L327.301 72.4673ZM373.366 45.9399L373.662 45.4271L373.366 45.2571L373.071 45.4271L373.366 45.9399ZM395.877 58.9028L395.992 59.4833L410.155 56.6826L410.04 56.1021L409.925 55.5215L395.762 58.3223L395.877 58.9028ZM410.04 56.1021H409.448V65.0542H410.04H410.632V56.1021H410.04ZM410.04 65.0542L409.744 64.5417L338.719 105.541L339.015 106.053L339.31 106.566L410.336 65.5667L410.04 65.0542ZM339.015 106.053L339.31 105.541L304.323 85.36L304.027 85.8726L303.732 86.3851L338.719 106.566L339.015 106.053ZM304.027 85.8726H304.619V77.0718H304.027H303.436V85.8726H304.027ZM304.027 77.0718L304.142 77.6523L327.416 73.0478L327.301 72.4673L327.186 71.8868L303.912 76.4913L304.027 77.0718ZM327.301 72.4673L327.596 72.9801L373.662 46.4527L373.366 45.9399L373.071 45.4271L327.005 71.9545L327.301 72.4673ZM373.366 45.9399L373.071 46.4527L395.582 59.4156L395.877 58.9028L396.172 58.39L373.662 45.4271L373.366 45.9399Z" fill="#0E3572" mask="url(#path-68-inside-2_1632_714)"/>
<g filter="url(#filter0_i_1632_714)">
<path d="M375.259 35.8853L410.046 56.1003L338.668 97.1002L304.026 77.071L375.259 35.8853Z" fill="white"/>
</g>
<path d="M409.452 56.0984L338.669 96.7572L304.619 77.0704L375.258 36.2279L409.452 56.0984Z" stroke="#0E3572" stroke-width="0.685843"/>
<path d="M338.403 81.0826L329.552 75.9726L331.237 74.9996L340.088 80.1096L338.403 81.0826ZM339.845 80.2496L338.39 79.4096L342.404 77.0926L343.859 77.9326L339.845 80.2496ZM336.075 78.0726L334.62 77.2326L338.318 75.0976L339.773 75.9376L336.075 78.0726ZM332.45 75.9796L330.995 75.1396L334.911 72.8786L336.366 73.7186L332.45 75.9796ZM345.492 76.9897L338.908 73.1887L340.242 72.4187L343.067 74.0497L342.946 74.1197C342.275 73.7324 341.806 73.3591 341.539 72.9997C341.264 72.6357 341.188 72.2881 341.309 71.9567C341.438 71.6207 341.765 71.3011 342.291 70.9977L342.364 70.9557C343.148 70.5031 343.996 70.3071 344.91 70.3677C345.815 70.4237 346.769 70.7411 347.771 71.3197L351.542 73.4967L349.856 74.4697L345.94 72.2087C345.536 71.9754 345.092 71.8541 344.607 71.8447C344.13 71.8307 343.689 71.9404 343.285 72.1737C342.873 72.4117 342.667 72.6801 342.667 72.9787C342.667 73.2681 342.881 73.5364 343.309 73.7837L347.177 76.0167L345.492 76.9897ZM358.519 72.4647C358.203 72.6467 357.868 72.8263 357.512 73.0037C357.165 73.1763 356.829 73.3327 356.506 73.4727L355.1 72.6607C355.423 72.5113 355.762 72.348 356.118 72.1707C356.482 71.998 356.809 71.8277 357.1 71.6597C357.642 71.347 358.013 71.0577 358.215 70.7917C358.426 70.521 358.466 70.2597 358.337 70.0077C358.224 69.7557 357.953 69.506 357.524 69.2587L356.227 68.5097L355.766 67.8237C356.348 68.1877 356.74 68.5587 356.942 68.9367C357.136 69.31 357.153 69.674 356.991 70.0287C356.821 70.3787 356.482 70.7007 355.972 70.9947C355.52 71.256 355.023 71.445 354.481 71.5617C353.948 71.6737 353.398 71.7203 352.832 71.7017C352.275 71.6783 351.721 71.592 351.171 71.4427C350.622 71.2933 350.116 71.0857 349.656 70.8197L349.401 70.6727C348.94 70.4067 348.585 70.1173 348.334 69.8047C348.084 69.4827 347.946 69.156 347.922 68.8247C347.898 68.4933 347.995 68.1713 348.213 67.8587C348.431 67.546 348.771 67.2567 349.231 66.9907C349.773 66.678 350.359 66.475 350.989 66.3817C351.628 66.2837 352.283 66.2977 352.953 66.4237C353.624 66.5497 354.295 66.7923 354.966 67.1517L354.724 67.3477L351.874 65.7027L353.208 64.9327L359.016 68.2857C359.816 68.7477 360.325 69.2003 360.543 69.6437C360.762 70.087 360.697 70.5397 360.349 71.0017C360.018 71.4637 359.408 71.9513 358.519 72.4647ZM355.015 69.8817C355.338 69.695 355.56 69.4827 355.681 69.2447C355.803 69.0067 355.807 68.7617 355.694 68.5097C355.58 68.2577 355.33 68.0197 354.942 67.7957L354.518 67.5507C354.146 67.336 353.746 67.203 353.317 67.1517C352.897 67.0957 352.489 67.1073 352.093 67.1867C351.689 67.2613 351.329 67.3897 351.014 67.5717C350.658 67.777 350.428 68.008 350.323 68.2647C350.217 68.512 350.238 68.7663 350.383 69.0277C350.529 69.289 350.807 69.5387 351.22 69.7767C351.624 70.01 352.052 70.1687 352.505 70.2527C352.958 70.3367 353.398 70.3483 353.826 70.2877C354.263 70.2223 354.659 70.087 355.015 69.8817ZM361.715 67.6233L352.864 62.5133L354.549 61.5403L363.4 66.6503L361.715 67.6233ZM353.3 63.7173L352.04 62.9893L354.549 61.5403L355.81 62.2683L353.3 63.7173ZM365.639 65.3575L359.056 61.5565L360.741 60.5835L367.325 64.3845L365.639 65.3575ZM359.395 62.8165L358.134 62.0885L360.741 60.5835L362.002 61.3115L359.395 62.8165ZM358.886 60.7445C358.555 60.9359 358.223 61.0292 357.892 61.0245C357.56 61.0105 357.265 60.9289 357.007 60.7795C356.732 60.6209 356.586 60.4482 356.57 60.2615C356.562 60.0702 356.724 59.8789 357.055 59.6875C357.387 59.4962 357.714 59.4052 358.037 59.4145C358.361 59.4239 358.66 59.5079 358.934 59.6665C359.193 59.8159 359.335 59.9862 359.359 60.1775C359.375 60.3642 359.217 60.5532 358.886 60.7445ZM371.861 62.0032C370.956 62.5258 370.055 62.8268 369.158 62.9062C368.26 62.9762 367.46 62.8222 366.757 62.4442L368.273 61.5692C368.523 61.6858 368.855 61.7325 369.267 61.7092C369.679 61.6858 370.128 61.5342 370.613 61.2542C371.017 61.0208 371.263 60.7945 371.352 60.5752C371.449 60.3512 371.372 60.1668 371.122 60.0222C370.904 59.8962 370.637 59.8495 370.322 59.8822C370.014 59.9102 369.622 60.0385 369.146 60.2672L368.503 60.5682C367.687 60.9462 366.911 61.1515 366.175 61.1842C365.44 61.2168 364.789 61.0698 364.223 60.7432C363.77 60.4818 363.504 60.1972 363.423 59.8892C363.342 59.5812 363.423 59.2685 363.665 58.9512C363.908 58.6245 364.288 58.3118 364.805 58.0132C365.613 57.5465 366.446 57.2712 367.303 57.1872C368.159 57.1032 368.943 57.2525 369.655 57.6352L368.139 58.5102C367.897 58.3888 367.59 58.3422 367.218 58.3702C366.846 58.3982 366.462 58.5265 366.066 58.7552C365.71 58.9605 365.504 59.1588 365.448 59.3502C365.391 59.5415 365.472 59.7002 365.69 59.8262C365.9 59.9475 366.139 59.9965 366.405 59.9732C366.68 59.9452 367.016 59.8402 367.412 59.6582L368.054 59.3572C368.911 58.9558 369.732 58.7295 370.516 58.6782C371.308 58.6222 371.999 58.7645 372.589 59.1052C373.025 59.3572 373.284 59.6465 373.365 59.9732C373.446 60.2905 373.361 60.6242 373.11 60.9742C372.86 61.3242 372.443 61.6672 371.861 62.0032ZM375.921 59.4214L367.07 54.3114L368.756 53.3384L373.92 56.3204L373.629 56.4884C372.967 56.1057 372.49 55.7324 372.199 55.3684C371.908 55.0044 371.807 54.6567 371.896 54.3254C371.993 53.9894 372.3 53.672 372.817 53.3734L372.89 53.3314C373.642 52.8974 374.47 52.7177 375.375 52.7924C376.281 52.867 377.226 53.189 378.213 53.7584L381.971 55.9284L380.286 56.9014L376.37 54.6404C375.949 54.3977 375.497 54.2764 375.012 54.2764C374.535 54.2717 374.102 54.3814 373.714 54.6054C373.302 54.8434 373.104 55.1164 373.12 55.4244C373.136 55.723 373.363 55.9984 373.799 56.2504L377.606 58.4484L375.921 59.4214Z" fill="#0E3572"/>
<path d="M0.124268 48.2397L60.4454 82.7987" stroke="#0E3572" stroke-width="0.5" stroke-dasharray="1 1"/>
<path d="M66.9707 5.68262L127.292 40.2416" stroke="#0E3572" stroke-width="0.5" stroke-dasharray="1 1"/>
<path d="M125.728 28.4521L35.605 80.5581" stroke="#0E3572" stroke-width="0.5" stroke-dasharray="1 1"/>
<path d="M91.8623 8.6145L1.73975 60.7205" stroke="#0E3572" stroke-width="0.5" stroke-dasharray="1 1"/>
<mask id="path-77-inside-3_1632_714" fill="white">
<path d="M102.556 27.8689L116.719 25.0681V34.0203L45.6938 75.0193L10.7065 54.8386V46.0378L33.98 41.4333L80.0454 14.906L102.556 27.8689Z"/>
</mask>
<path d="M102.556 27.8689L116.719 25.0681V34.0203L45.6938 75.0193L10.7065 54.8386V46.0378L33.98 41.4333L80.0454 14.906L102.556 27.8689Z" fill="url(#paint2_linear_1632_714)"/>
<path d="M102.556 27.8689L102.261 28.3817L102.453 28.4925L102.671 28.4494L102.556 27.8689ZM116.719 25.0681H117.311V24.3479L116.604 24.4876L116.719 25.0681ZM116.719 34.0203L117.015 34.5328L117.311 34.3619V34.0203H116.719ZM45.6938 75.0193L45.3982 75.5319L45.694 75.7025L45.9897 75.5318L45.6938 75.0193ZM10.7065 54.8386H10.1148V55.1804L10.4109 55.3512L10.7065 54.8386ZM10.7065 46.0378L10.5917 45.4573L10.1148 45.5517V46.0378H10.7065ZM33.98 41.4333L34.0948 42.0138L34.1906 41.9949L34.2753 41.9461L33.98 41.4333ZM80.0454 14.906L80.3407 14.3932L80.0454 14.2232L79.7501 14.3932L80.0454 14.906ZM102.556 27.8689L102.671 28.4494L116.834 25.6486L116.719 25.0681L116.604 24.4876L102.441 27.2884L102.556 27.8689ZM116.719 25.0681H116.127V34.0203H116.719H117.311V25.0681H116.719ZM116.719 34.0203L116.423 33.5078L45.398 74.5068L45.6938 75.0193L45.9897 75.5318L117.015 34.5328L116.719 34.0203ZM45.6938 75.0193L45.9895 74.5067L11.0022 54.326L10.7065 54.8386L10.4109 55.3512L45.3982 75.5319L45.6938 75.0193ZM10.7065 54.8386H11.2983V46.0378H10.7065H10.1148V54.8386H10.7065ZM10.7065 46.0378L10.8214 46.6183L34.0948 42.0138L33.98 41.4333L33.8651 40.8529L10.5917 45.4573L10.7065 46.0378ZM33.98 41.4333L34.2753 41.9461L80.3407 15.4188L80.0454 14.906L79.7501 14.3932L33.6847 40.9206L33.98 41.4333ZM80.0454 14.906L79.7501 15.4188L102.261 28.3817L102.556 27.8689L102.851 27.3561L80.3407 14.3932L80.0454 14.906Z" fill="#0E3572" mask="url(#path-77-inside-3_1632_714)"/>
<g filter="url(#filter1_i_1632_714)">
<path d="M81.9385 4.85132L116.725 25.0664L45.347 66.0663L10.7056 46.0371L81.9385 4.85132Z" fill="white"/>
</g>
<path d="M116.132 25.0645L45.3479 65.7233L11.2986 46.0364L81.9376 5.19393L116.132 25.0645Z" stroke="#0E3572" stroke-width="0.685843"/>
<path d="M54.2129 45.4095C53.5375 45.7995 52.862 46.0875 52.1865 46.2735C51.511 46.4475 50.8251 46.4955 50.1288 46.4175C49.4325 46.3395 48.7102 46.1025 47.962 45.7065L41.7266 42.4305L43.5816 41.3595L49.2091 44.3205C49.6871 44.5605 50.108 44.7135 50.4717 44.7795C50.8355 44.8335 51.1784 44.8155 51.5006 44.7255C51.8123 44.6295 52.1553 44.4735 52.5294 44.2575C52.8516 44.0715 53.1685 43.9905 53.4803 44.0145C53.7921 44.0265 54.0727 44.1045 54.3221 44.2485C54.5819 44.3985 54.7118 44.5815 54.7118 44.7975C54.7118 45.0135 54.5455 45.2175 54.2129 45.4095ZM50.0041 46.0575C49.5052 46.5375 48.9441 46.9515 48.3205 47.2995C47.697 47.6475 47.0423 47.9055 46.3564 48.0735C45.6705 48.2415 45.0002 48.3045 44.3455 48.2625C43.6907 48.2085 43.0828 48.0195 42.5216 47.6955C42.0124 47.4015 41.6642 47.0625 41.4772 46.6785C41.2901 46.2945 41.2434 45.8895 41.3369 45.4635C41.4304 45.0255 41.6487 44.5815 41.9916 44.1315C42.3242 43.6755 42.7658 43.2285 43.3166 42.7905L45.4055 43.7445C44.9482 44.0325 44.5845 44.3145 44.3143 44.5905C44.0441 44.8665 43.8674 45.1305 43.7843 45.3825C43.6907 45.6285 43.67 45.8505 43.7219 46.0485C43.7843 46.2405 43.9246 46.3995 44.1428 46.5255C44.3403 46.6395 44.5689 46.6935 44.8287 46.6875C45.0989 46.6755 45.3847 46.6245 45.6861 46.5345C45.9874 46.4445 46.2836 46.3215 46.5746 46.1655C46.876 46.0035 47.1514 45.8325 47.4008 45.6525C47.6502 45.4605 47.8581 45.2625 48.0243 45.0585L50.0041 46.0575ZM40.9472 40.9545C40.677 41.1105 40.3548 41.1885 39.9807 41.1885C39.5962 41.1825 39.274 41.1045 39.0142 40.9545C38.7544 40.8045 38.6193 40.6185 38.6089 40.3965C38.5985 40.1745 38.7284 39.9855 38.9986 39.8295C39.2584 39.6795 39.5806 39.6075 39.9651 39.6135C40.3496 39.6195 40.6718 39.6975 40.9316 39.8475C41.1914 39.9975 41.3265 40.1835 41.3369 40.4055C41.3369 40.6215 41.207 40.8045 40.9472 40.9545ZM38.453 42.3765C38.1828 42.5325 37.8555 42.6135 37.4709 42.6195C37.0968 42.6195 36.7799 42.5445 36.5201 42.3945C36.2602 42.2445 36.1251 42.0585 36.1148 41.8365C36.1044 41.6145 36.2395 41.4225 36.5201 41.2605C36.7799 41.1105 37.102 41.0385 37.4865 41.0445C37.871 41.0505 38.1932 41.1285 38.453 41.2785C38.7128 41.4285 38.8427 41.6115 38.8427 41.8275C38.8427 42.0435 38.7128 42.2265 38.453 42.3765ZM54.2172 45.4071L52.5337 44.2551C52.9597 44.0091 53.2767 43.7841 53.4846 43.5801C53.682 43.3701 53.7548 43.1541 53.7028 42.9321C53.6508 42.6981 53.469 42.4251 53.1572 42.1131C52.8454 41.7891 52.3934 41.3901 51.801 40.9161L53.8275 40.0881C53.9626 40.2021 54.1185 40.3341 54.2952 40.4841C54.4718 40.6341 54.6537 40.7811 54.8408 40.9251C55.0278 41.0691 55.2097 41.1921 55.3863 41.2941C55.563 41.3961 55.7501 41.4741 55.9475 41.5281C56.1346 41.5761 56.3476 41.5851 56.5867 41.5551C56.8361 41.5191 57.1374 41.4351 57.4908 41.3031C57.8337 41.1651 58.2338 40.9641 58.6911 40.7001C59.0237 40.5081 59.3458 40.4241 59.6576 40.4481C59.9694 40.4601 60.2499 40.5381 60.4994 40.6821C60.7592 40.8321 60.8891 41.0151 60.8891 41.2311C60.8891 41.4471 60.7176 41.6541 60.3747 41.8521C59.8446 42.1581 59.3562 42.3981 58.9093 42.5721C58.4625 42.7461 58.0364 42.8601 57.6311 42.9141C57.2362 42.9621 56.8465 42.9531 56.4619 42.8871C56.067 42.8151 55.6669 42.6861 55.2616 42.5001L55.9164 42.1401C56.1762 42.4941 56.3113 42.8241 56.3217 43.1301C56.332 43.4241 56.2489 43.7001 56.0722 43.9581C55.8852 44.2101 55.6254 44.4561 55.2928 44.6961C54.981 44.9361 54.6225 45.1731 54.2172 45.4071ZM61.7776 44.9301C61.5074 45.0861 61.1749 45.1641 60.78 45.1641C60.4058 45.1641 60.0889 45.0891 59.8291 44.9391C59.5692 44.7891 59.4341 44.6031 59.4238 44.3811C59.4238 44.1531 59.5589 43.9611 59.8291 43.8051C60.0889 43.6551 60.411 43.5831 60.7955 43.5891C61.1801 43.5951 61.5022 43.6731 61.762 43.8231C62.0218 43.9731 62.1517 44.1561 62.1517 44.3721C62.1621 44.5941 62.0374 44.7801 61.7776 44.9301ZM59.2835 46.3701C59.0133 46.5261 58.6859 46.6011 58.3014 46.5951C57.9273 46.5951 57.6103 46.5201 57.3505 46.3701C57.0907 46.2201 56.9556 46.0341 56.9452 45.8121C56.9348 45.5901 57.0647 45.4011 57.3349 45.2451C57.5947 45.0951 57.9169 45.0231 58.3014 45.0291C58.6859 45.0351 59.0081 45.1131 59.2679 45.2631C59.5277 45.4131 59.6576 45.5961 59.6576 45.8121C59.668 46.0341 59.5433 46.2201 59.2835 46.3701ZM60.3673 41.8563L58.6838 40.7043C59.1618 40.4283 59.51 40.1913 59.7282 39.9933C59.9465 39.7953 60.0244 39.6123 59.962 39.4443C59.8997 39.2643 59.697 39.0753 59.3541 38.8773C59.0735 38.7153 58.6994 38.5473 58.2317 38.3733C57.7745 38.1933 57.2652 38.0193 56.7041 37.8513C56.1533 37.6773 55.6233 37.5213 55.114 37.3833L56.3767 36.0243C56.8547 36.1443 57.3796 36.3033 57.9511 36.5013C58.5227 36.6873 59.0839 36.8913 59.6347 37.1133C60.1855 37.3233 60.6635 37.5453 61.0688 37.7793C61.578 38.0733 61.9522 38.3613 62.1912 38.6433C62.4302 38.9253 62.5601 39.2043 62.5809 39.4803C62.6017 39.7443 62.5237 40.0113 62.3471 40.2813C62.16 40.5453 61.9002 40.8093 61.5677 41.0733C61.2247 41.3313 60.8246 41.5923 60.3673 41.8563ZM65.5115 42.7203C65.2413 42.8763 64.9192 42.9543 64.5451 42.9543C64.1709 42.9543 63.854 42.8793 63.5942 42.7293C63.324 42.5733 63.1837 42.3843 63.1733 42.1623C63.1629 41.9403 63.2928 41.7513 63.563 41.5953C63.8332 41.4393 64.1605 41.3643 64.5451 41.3703C64.94 41.3703 65.2725 41.4483 65.5427 41.6043C65.8025 41.7543 65.9272 41.9403 65.9168 42.1623C65.9168 42.3783 65.7817 42.5643 65.5115 42.7203ZM68.7201 41.1018L66.413 40.5258C66.8287 40.0458 67.1353 39.5868 67.3327 39.1488C67.5406 38.7168 67.6393 38.3118 67.6289 37.9338C67.6393 37.5558 67.5406 37.2168 67.3327 36.9168C67.1353 36.6108 66.8391 36.3438 66.4442 36.1158C65.9869 35.8518 65.3945 35.6298 64.6671 35.4498C63.9396 35.2578 63.181 35.0958 62.3912 34.9638L63.2641 33.5058C63.7837 33.5898 64.2982 33.6948 64.8074 33.8208C65.3166 33.9468 65.7739 34.0668 66.1792 34.1808C66.5741 34.2888 66.8806 34.3758 67.0989 34.4418C67.7224 34.6338 68.2368 34.7088 68.6421 34.6668C69.0578 34.6188 69.5203 34.4478 70.0295 34.1538C70.3621 33.9618 70.6842 33.8778 70.996 33.9018C71.3078 33.9138 71.5884 33.9918 71.8378 34.1358C72.0976 34.2858 72.2275 34.4688 72.2275 34.6848C72.2275 34.9008 72.056 35.1078 71.7131 35.3058C71.2766 35.5578 70.8349 35.7348 70.388 35.8368C69.9412 35.9268 69.5047 35.9508 69.0786 35.9088C68.6525 35.8668 68.2628 35.7738 67.9095 35.6298L68.7513 35.4858C69.3124 35.8578 69.7022 36.2808 69.9204 36.7548C70.1594 37.2288 70.2477 37.7238 70.1854 38.2398C70.1334 38.7498 69.9724 39.2508 69.7022 39.7428C69.4423 40.2408 69.115 40.6938 68.7201 41.1018ZM71.6926 35.3176L70.009 34.1656C70.6949 33.7696 71.2665 33.3796 71.7238 32.9956C72.181 32.5996 72.5448 32.2216 72.815 31.8616C73.0956 31.4956 73.2722 31.1536 73.345 30.8356C73.4177 30.5176 73.4021 30.2386 73.2982 29.9986C73.2047 29.7526 73.0332 29.5576 72.7838 29.4136C72.6487 29.3356 72.4772 29.2846 72.2694 29.2606C72.0615 29.2246 71.8225 29.2366 71.5523 29.2966C71.2925 29.3506 71.0067 29.4676 70.6949 29.6476C70.5287 29.7436 70.352 29.8696 70.1649 30.0256C69.9883 30.1756 69.8324 30.3376 69.6973 30.5116C69.5622 30.6736 69.4686 30.8356 69.4167 30.9976C69.8532 30.9616 70.3156 30.9406 70.8041 30.9346C71.2925 30.9286 71.8017 30.9286 72.3317 30.9346C72.8617 30.9406 73.3865 30.9556 73.9062 30.9796C74.2491 30.9256 74.6128 30.8476 74.9974 30.7456C75.3819 30.6436 75.7716 30.5206 76.1665 30.3766C76.551 30.2266 76.9407 30.0616 77.3356 29.8816C77.7201 29.6956 78.0943 29.4976 78.458 29.2876C78.7802 29.1016 79.1023 29.0176 79.4245 29.0356C79.7362 29.0476 80.0168 29.1256 80.2663 29.2696C80.5261 29.4196 80.6508 29.6056 80.6404 29.8276C80.6404 30.0436 80.4741 30.2476 80.1415 30.4396C79.4037 30.8656 78.6658 31.2256 77.928 31.5196C77.1797 31.8076 76.4263 32.0326 75.6677 32.1946C74.909 32.3446 74.1504 32.4346 73.3917 32.4646C73.0176 32.4166 72.6019 32.3866 72.1447 32.3746C71.677 32.3566 71.199 32.3506 70.7105 32.3566C70.2221 32.3626 69.7752 32.3866 69.3699 32.4286C69.266 32.4286 69.0997 32.4046 68.8711 32.3566C68.6425 32.2966 68.4138 32.2306 68.1852 32.1586C67.9566 32.0746 67.8007 32.0086 67.7175 31.9606C67.5097 31.8406 67.385 31.6486 67.3434 31.3846C67.3122 31.1146 67.3694 30.8116 67.5149 30.4756C67.65 30.1336 67.8682 29.7916 68.1696 29.4496C68.471 29.1076 68.8555 28.8016 69.3232 28.5316C69.9571 28.1656 70.5702 27.9196 71.1626 27.7936C71.755 27.6676 72.3109 27.6406 72.8306 27.7126C73.3502 27.7726 73.8074 27.9166 74.2023 28.1446C74.6804 28.4206 75.0441 28.7626 75.2935 29.1706C75.5533 29.5726 75.6832 30.0196 75.6832 30.5116C75.6832 30.9916 75.543 31.5046 75.2624 32.0506C74.9818 32.5846 74.5453 33.1306 73.9529 33.6886C73.3606 34.2466 72.6071 34.7896 71.6926 35.3176ZM80.1422 30.4393L78.4586 29.2873C78.9782 28.9873 79.2952 28.7443 79.4095 28.5583C79.5238 28.3723 79.4615 28.1863 79.2224 28.0003C78.9834 27.8143 78.5885 27.5743 78.0377 27.2803L70.15 23.0683L72.005 21.9973L79.9551 26.2273C80.5578 26.5513 81.0567 26.8693 81.4516 27.1813C81.8465 27.4813 82.0855 27.7933 82.1687 28.1173C82.2518 28.4413 82.1375 28.7953 81.8257 29.1793C81.5139 29.5513 80.9528 29.9713 80.1422 30.4393ZM85.8039 27.0805L74.1749 20.7445L76.0144 19.6825L87.6278 26.0275L85.8039 27.0805Z" fill="#0E3572"/>
<defs>
<filter id="filter0_i_1632_714" x="304.026" y="35.8853" width="106.02" height="61.2148" filterUnits="userSpaceOnUse" color-interpolation-filters="sRGB">
<feFlood flood-opacity="0" result="BackgroundImageFix"/>
<feBlend mode="normal" in="SourceGraphic" in2="BackgroundImageFix" result="shape"/>
<feColorMatrix in="SourceAlpha" type="matrix" values="0 0 0 0 0 0 0 0 0 0 0 0 0 0 0 0 0 0 127 0" result="hardAlpha"/>
<feOffset/>
<feGaussianBlur stdDeviation="3.6"/>
<feComposite in2="hardAlpha" operator="arithmetic" k2="-1" k3="1"/>
<feColorMatrix type="matrix" values="0 0 0 0 0.054902 0 0 0 0 0.207843 0 0 0 0 0.447059 0 0 0 0.35 0"/>
<feBlend mode="normal" in2="shape" result="effect1_innerShadow_1632_714"/>
</filter>
<filter id="filter1_i_1632_714" x="10.7056" y="4.85132" width="106.02" height="61.2148" filterUnits="userSpaceOnUse" color-interpolation-filters="sRGB">
<feFlood flood-opacity="0" result="BackgroundImageFix"/>
<feBlend mode="normal" in="SourceGraphic" in2="BackgroundImageFix" result="shape"/>
<feColorMatrix in="SourceAlpha" type="matrix" values="0 0 0 0 0 0 0 0 0 0 0 0 0 0 0 0 0 0 127 0" result="hardAlpha"/>
<feOffset/>
<feGaussianBlur stdDeviation="3.6"/>
<feComposite in2="hardAlpha" operator="arithmetic" k2="-1" k3="1"/>
<feColorMatrix type="matrix" values="0 0 0 0 0.054902 0 0 0 0 0.207843 0 0 0 0 0.447059 0 0 0 0.35 0"/>
<feBlend mode="normal" in2="shape" result="effect1_innerShadow_1632_714"/>
</filter>
<radialGradient id="paint0_radial_1632_714" cx="0" cy="0" r="1" gradientUnits="userSpaceOnUse" gradientTransform="translate(182.555 203.285) rotate(90) scale(187.45 187.45)">
<stop stop-color="#D9D9D9"/>
<stop offset="0.890272" stop-color="#D9D9D9" stop-opacity="0"/>
</radialGradient>
<linearGradient id="paint1_linear_1632_714" x1="339.497" y1="65.8426" x2="339.497" y2="106.053" gradientUnits="userSpaceOnUse">
<stop stop-color="white"/>
<stop offset="1" stop-color="#3EAFD1"/>
</linearGradient>
<linearGradient id="paint2_linear_1632_714" x1="46.1764" y1="34.8087" x2="46.1764" y2="75.0193" gradientUnits="userSpaceOnUse">
<stop stop-color="white"/>
<stop offset="1" stop-color="#3EAFD1"/>
</linearGradient>
<clipPath id="clip0_1632_714">
<rect width="406" height="113" fill="white" transform="translate(0.64917)"/>
</clipPath>
</defs>
</svg>
