<svg width="41" height="41" viewBox="0 0 41 41" fill="none" xmlns="http://www.w3.org/2000/svg">
<path d="M1.60156 34.9141V6.08594C1.60156 4.31693 3.03568 2.88281 4.80469 2.88281H7.36719C9.13619 2.88281 10.5703 4.31693 10.5703 6.08594V28.5078C10.5703 30.2768 9.13619 31.7109 7.36719 31.7109H4.80469C3.03568 31.7109 1.60156 33.1451 1.60156 34.9141ZM1.60156 34.9141C1.60156 36.6831 3.03568 38.1172 4.80469 38.1172H36.1953C37.9643 38.1172 39.3984 36.6831 39.3984 34.9141V12.4922C39.3984 10.7232 37.9643 9.28906 36.1953 9.28906H10.5703" stroke="white" stroke-miterlimit="10" stroke-linecap="round" stroke-linejoin="round"/>
<path d="M24.9844 25.3047V31.7109M16.9766 23.7031V28.5078C16.9766 30.2768 18.4107 31.7109 20.1797 31.7109H29.7891C31.5581 31.7109 32.9922 30.2768 32.9922 28.5078V23.7031C32.9922 22.8186 32.6337 22.0179 32.054 21.4382L27.2493 16.6335C26.6697 16.0538 25.8689 15.6953 24.9844 15.6953C24.0998 15.6953 23.2991 16.0538 22.7194 16.6335L17.9148 21.4382C17.3351 22.0178 16.9766 22.8186 16.9766 23.7031Z" stroke="white" stroke-miterlimit="10" stroke-linecap="round" stroke-linejoin="round"/>
</svg>
