<svg width="64" height="64" viewBox="0 0 64 64" fill="none" xmlns="http://www.w3.org/2000/svg">
<path d="M8.77722 11.8726C8.77722 10.2157 10.1204 8.87256 11.7772 8.87256H52.0862V22.858L41.8519 23.1468L39.2917 24.5187L38.8289 26.9423V37.3761L38.6142 52.0623L52.2779 52.3082L8.77722 51.8093V11.8726Z" fill="white" fill-opacity="0.2"/>
<path d="M52.0539 15.083H35.249H27.7068H5M52.0539 15.083V8.361C52.0539 6.50472 50.5492 5 48.6929 5H8.361C6.50472 5 5 6.50472 5 8.361V15.083M52.0539 15.083V23.1494M5 15.083V48.6929C5 50.5492 6.50472 52.0539 8.361 52.0539H38.834M51.1577 29.8714H46.6763M55.639 23.1494H42.195C40.3387 23.1494 38.834 24.6541 38.834 26.5104V55.639C38.834 57.4953 40.3387 59 42.195 59H55.639C57.4953 59 59 57.4953 59 55.639V26.5104C59 24.6541 57.4953 23.1494 55.639 23.1494Z" stroke="white" stroke-miterlimit="10" stroke-linecap="round" stroke-linejoin="round"/>
<path d="M39.3984 25.4548C39.3984 24.3503 40.2939 23.4548 41.3984 23.4548H58.9999V55.0001C58.9999 57.2092 57.209 59.0001 54.9999 59.0001H39.3984V25.4548Z" fill="white" fill-opacity="0.2"/>
</svg>
