<svg width="64" height="64" viewBox="0 0 64 64" fill="none" xmlns="http://www.w3.org/2000/svg">
<path d="M48.965 11.0493L61.8753 11.0493L59.6358 13.3548L58.1208 15.2407L62.6658 21.2441H48.965V11.0493Z" fill="white" fill-opacity="0.2"/>
<path fill-rule="evenodd" clip-rule="evenodd" d="M4.57568 45.899C4.57568 41.1489 8.42641 37.2982 13.1765 37.2982H51.2382C54.0489 37.2982 56.6822 38.6715 58.2909 40.9763C60.3551 43.9336 60.3551 47.8645 58.2909 50.8218C56.6822 53.1266 54.0489 54.4999 51.2382 54.4999H13.1765C8.42641 54.4999 4.57568 50.6492 4.57568 45.899Z" fill="white" fill-opacity="0.2"/>
<path fill-rule="evenodd" clip-rule="evenodd" d="M1.49927 44.1874C1.49927 38.492 6.1163 33.875 11.8117 33.875H49.6286C53.2148 33.875 56.5435 35.7381 58.4187 38.7949C60.4485 42.1034 60.4485 46.2715 58.4187 49.58C56.5435 52.6368 53.2148 54.4999 49.6286 54.4999H11.8117C6.1163 54.4999 1.49927 49.8828 1.49927 44.1874Z" stroke="white" stroke-miterlimit="22.9256" stroke-linecap="round" stroke-linejoin="round"/>
<path d="M37.8017 34.6674L42.0505 41.2442C43.3308 43.2259 43.3308 45.7741 42.0505 47.7558L37.8419 54.2706M19.5581 34.8268L23.7039 41.2442C24.9842 43.226 24.9842 45.7741 23.704 47.7558L19.5162 54.2383M46.8756 33.875V9.5M28.529 33.875V24.8126M10.1824 33.875V28.4064" stroke="white" stroke-miterlimit="22.9256" stroke-linecap="round" stroke-linejoin="round"/>
<path d="M46.8756 33.875V9.5H62.5006L57.4607 15.125L62.5006 20.75H47.5006M28.529 33.875V24.8126M10.1824 33.875V28.4064" stroke="white" stroke-miterlimit="22.9256" stroke-linecap="round" stroke-linejoin="round"/>
<path d="M10.3561 27.7762C11.9064 27.6797 13.0849 26.3448 12.9885 24.7945C12.892 23.2442 11.5571 22.0656 10.0068 22.162C8.45648 22.2585 7.2779 23.5934 7.37435 25.1437C7.4708 26.694 8.80575 27.8726 10.3561 27.7762Z" stroke="white" stroke-miterlimit="22.9256" stroke-linecap="round" stroke-linejoin="round"/>
<path d="M28.5289 24.1875C30.0822 24.1875 31.3414 22.9283 31.3414 21.375C31.3414 19.8217 30.0822 18.5625 28.5289 18.5625C26.9756 18.5625 25.7164 19.8217 25.7164 21.375C25.7164 22.9283 26.9756 24.1875 28.5289 24.1875Z" stroke="white" stroke-miterlimit="22.9256" stroke-linecap="round" stroke-linejoin="round"/>
</svg>
