<svg width="64" height="64" viewBox="0 0 64 64" fill="none" xmlns="http://www.w3.org/2000/svg">
<path d="M6.79669 12.9536C6.79669 10.7445 8.58755 8.95361 10.7967 8.95361H56.1753V35.0598L54.3009 34.407L52.8032 35.8919L51.0196 35.0598L49.1483 34.407L48.8001 32.1875L46.9723 31.5347L44.4482 31.9264L43.8389 34.407L41.3582 35.582L38.8341 34.407L36.9627 35.582L35.5935 37.584L36.9627 39.5423L35.5935 42.5056L33.4287 43.0211L33.2193 44.4284V47.7974H25.2383H6.79669V12.9536Z" fill="white" fill-opacity="0.2"/>
<path d="M49.1368 34.3584C50.3993 34.6396 51.58 35.1364 52.643 35.8033L53.5883 34.8618C54.1475 34.2996 55.0666 34.2996 55.6292 34.8618L57.1173 36.3493C57.6798 36.9115 57.6798 37.8301 57.1173 38.3891L56.1753 39.3338C56.8481 40.4012 57.3348 41.5751 57.6145 42.8055H58.939C59.7339 42.8055 60.3847 43.456 60.3847 44.2471V46.3557C60.3847 47.1466 59.7339 47.7972 58.939 47.7972H57.6079C57.3275 49.0201 56.8432 50.1871 56.1753 51.2493L57.1173 52.1907C57.6798 52.7529 57.6798 53.6715 57.1173 54.2306L55.6292 55.7212C55.0666 56.2835 54.1475 56.2835 53.5883 55.7212L52.643 54.7797C51.5767 55.4504 50.4045 55.9356 49.1761 56.2148V57.555C49.1761 58.3495 48.5252 59 47.7337 59H45.6242C44.8325 59 44.1817 58.3495 44.1817 57.555V56.2116C42.9388 55.9304 41.7712 55.4368 40.7212 54.7797L39.7793 55.7212C39.2167 56.2835 38.2978 56.2835 37.7384 55.7212L36.2471 54.2306C35.6877 53.6715 35.6877 52.7529 36.2471 52.1907L37.1922 51.2493C36.522 50.188 36.0365 49.0207 35.7565 47.7972H34.4187C33.624 47.7972 32.9763 47.1466 32.9763 46.3557V44.2471C32.9763 43.456 33.624 42.8055 34.4187 42.8055H35.7532C36.03 41.5892 36.5087 40.4279 37.1693 39.3698L36.2209 38.4186C35.6584 37.8595 35.6584 36.941 36.2209 36.3787L37.709 34.8913C38.2716 34.329 39.1907 34.329 39.7499 34.8913L40.6886 35.8262C41.7506 35.1534 42.9182 34.6639 44.1425 34.378V33.0476C44.1425 32.2532 44.7901 31.6027 45.5848 31.6027H47.6912C48.4859 31.6027 49.1368 32.2532 49.1368 33.0476V34.3584Z" fill="white" fill-opacity="0.2"/>
<path d="M3.61533 20.3835H56.1753" stroke="white" stroke-miterlimit="10" stroke-linecap="round" stroke-linejoin="round"/>
<path d="M13.2508 15.4736C14.7619 15.4736 15.9949 14.2446 15.9949 12.7343C15.9949 11.224 14.7619 9.99493 13.2508 9.99493C11.743 9.99493 10.5099 11.224 10.5099 12.7343C10.5099 14.2446 11.743 15.4736 13.2508 15.4736Z" stroke="white" stroke-miterlimit="10" stroke-linecap="round" stroke-linejoin="round"/>
<path d="M37.0712 9.99493H47.3935C48.9012 9.99493 50.1344 11.2274 50.1344 12.7343C50.1344 14.2413 48.9012 15.4736 47.3935 15.4736H37.0712C35.5634 15.4736 34.3303 14.2413 34.3303 12.7343C34.3303 11.2274 35.5634 9.99493 37.0712 9.99493Z" stroke="white" stroke-miterlimit="10" stroke-linecap="round" stroke-linejoin="round"/>
<path d="M23.3702 15.4736C24.8813 15.4736 26.1143 14.2446 26.1143 12.7343C26.1143 11.224 24.8813 9.99493 23.3702 9.99493C21.8625 9.99493 20.6294 11.224 20.6294 12.7343C20.6294 14.2446 21.8625 15.4736 23.3702 15.4736Z" stroke="white" stroke-miterlimit="10" stroke-linecap="round" stroke-linejoin="round"/>
<path d="M21.2018 29.259L18.8926 38.9221" stroke="white" stroke-miterlimit="10" stroke-linecap="round" stroke-linejoin="round"/>
<path d="M26.52 38.0493L29.7874 34.3815C29.9313 34.2213 29.9313 33.9598 29.7874 33.7997L26.52 30.1318" stroke="white" stroke-miterlimit="10" stroke-linecap="round" stroke-linejoin="round"/>
<path d="M13.5747 38.0493L10.3073 34.3815C10.1633 34.2213 10.1633 33.9598 10.3073 33.7997L13.5747 30.1318" stroke="white" stroke-miterlimit="10" stroke-linecap="round" stroke-linejoin="round"/>
<path d="M49.1368 34.3584C50.3993 34.6396 51.58 35.1364 52.643 35.8033L53.5883 34.8618C54.1475 34.2996 55.0666 34.2996 55.6292 34.8618L57.1173 36.3493C57.6798 36.9115 57.6798 37.8301 57.1173 38.3891L56.1753 39.3338C56.8481 40.4012 57.3348 41.5751 57.6145 42.8055H58.939C59.7339 42.8055 60.3847 43.456 60.3847 44.2471V46.3557C60.3847 47.1466 59.7339 47.7972 58.939 47.7972H57.6079C57.3275 49.0201 56.8432 50.1871 56.1753 51.2493L57.1173 52.1907C57.6798 52.7529 57.6798 53.6715 57.1173 54.2306L55.6292 55.7212C55.0666 56.2835 54.1475 56.2835 53.5883 55.7212L52.643 54.7797C51.5767 55.4504 50.4045 55.9356 49.1761 56.2148V57.555C49.1761 58.3495 48.5252 59 47.7337 59H45.6242C44.8325 59 44.1817 58.3495 44.1817 57.555V56.2116C42.9388 55.9304 41.7712 55.4368 40.7212 54.7797L39.7793 55.7212C39.2167 56.2835 38.2978 56.2835 37.7384 55.7212L36.2471 54.2306C35.6877 53.6715 35.6877 52.7529 36.2471 52.1907L37.1922 51.2493C36.522 50.188 36.0365 49.0207 35.7565 47.7972H34.4187C33.624 47.7972 32.9763 47.1466 32.9763 46.3557V44.2471C32.9763 43.456 33.624 42.8055 34.4187 42.8055H35.7532C36.03 41.5892 36.5087 40.4279 37.1693 39.3698L36.2209 38.4186C35.6584 37.8595 35.6584 36.941 36.2209 36.3787L37.709 34.8913C38.2716 34.329 39.1907 34.329 39.7499 34.8913L40.6886 35.8262C41.7506 35.1534 42.9182 34.6639 44.1425 34.378V33.0476C44.1425 32.2532 44.7901 31.6027 45.5848 31.6027H47.6912C48.4859 31.6027 49.1368 32.2532 49.1368 33.0476V34.3584Z" stroke="white" stroke-miterlimit="10" stroke-linecap="round" stroke-linejoin="round"/>
<path d="M46.6804 39.3568C49.9641 39.3568 52.6265 42.0178 52.6265 45.3031C52.6265 48.5852 49.9641 51.2461 46.6804 51.2461C43.3934 51.2461 40.7309 48.5852 40.7309 45.3031C40.7309 42.0178 43.3934 39.3568 46.6804 39.3568Z" stroke="white" stroke-miterlimit="10" stroke-linecap="round" stroke-linejoin="round"/>
<path d="M56.1753 35.408V10.1323C56.1753 7.31124 54.2424 5.00008 51.8777 5.00008H7.91295C5.54825 5.00008 3.61533 7.30801 3.61533 10.1323V42.6652C3.61533 45.4863 5.55171 47.7974 7.91295 47.7974H14.7422H34.4187" stroke="white" stroke-miterlimit="10" stroke-linecap="round" stroke-linejoin="round"/>
<path d="M19.91 47.7974H19.9328" stroke="white" stroke-miterlimit="10" stroke-linecap="round" stroke-linejoin="round"/>
</svg>
