<svg width="64" height="64" viewBox="0 0 64 64" fill="none" xmlns="http://www.w3.org/2000/svg">
<path d="M11.655 27.8965C11.655 25.6873 13.4459 23.8965 15.655 23.8965H25.9305L27.1992 29.4937L29.2752 32.8787H31.7534H34.6959L36.4836 30.128L38.2185 23.8965H56.2069V55.2759H11.655V27.8965Z" fill="white" fill-opacity="0.2"/>
<path d="M51.2782 55.2759C51.4591 54.6717 51.5512 54.0445 51.5516 53.4138C51.5516 49.8144 48.6337 46.8966 45.0344 46.8966C44.2872 46.8966 43.5723 47.0285 42.9038 47.26C42.2775 45.4287 40.5607 44.1034 38.5171 44.1034C37.3776 44.1034 36.3474 44.529 35.5382 45.2089C35.6481 44.8574 35.724 44.4911 35.724 44.1034C35.724 42.0466 34.0568 40.3793 32 40.3793C29.9431 40.3793 28.2758 42.0466 28.2758 44.1034C28.2758 44.4911 28.3517 44.8574 28.4616 45.2089C27.6524 44.529 26.6222 44.1034 25.4827 44.1034C23.4391 44.1034 21.7223 45.4287 21.096 47.26C20.4275 47.0285 19.7126 46.8966 18.9654 46.8966C15.3661 46.8966 12.4482 49.8144 12.4482 53.4138C12.4482 54.0613 12.5459 54.6855 12.7216 55.2759" stroke="white" stroke-miterlimit="10" stroke-linecap="round" stroke-linejoin="round"/>
<path d="M38.4995 19.9254H53.4232C54.9606 19.9254 56.2069 21.1749 56.2069 22.7162V55.2759" stroke="white" stroke-miterlimit="10" stroke-linecap="round" stroke-linejoin="round"/>
<path d="M7.79303 55.2759V22.6896C7.79303 21.1471 9.04357 19.8965 10.5861 19.8965H25.4579" stroke="white" stroke-miterlimit="10" stroke-linecap="round" stroke-linejoin="round"/>
<path d="M15.2409 55.2759H60.8621V57.138C60.8621 58.1664 60.0284 59 58.9999 59H4.99992C3.97145 59 3.13788 58.1664 3.13788 57.138V55.2759H15.2409Z" stroke="white" stroke-miterlimit="10" stroke-linecap="round" stroke-linejoin="round"/>
<path d="M15.2409 55.2759H60.8621V57.138C60.8621 58.1664 60.0284 59 58.9999 59H4.99992C3.97145 59 3.13788 58.1664 3.13788 57.138V55.2759H15.2409Z" fill="white" fill-opacity="0.2"/>
<path d="M35.0079 32.9312C37.2158 29.4834 38.5172 25.3229 38.5172 20.8277C38.5172 14.5601 35.9975 8.93566 32 5.00007C28.0026 8.93566 25.4827 14.5601 25.4827 20.8277C25.4827 25.3229 26.7841 29.4834 28.9921 32.9312H35.0079Z" stroke="white" stroke-miterlimit="10" stroke-linecap="round" stroke-linejoin="round"/>
<path d="M35.0079 32.9312C37.2158 29.4834 38.5172 25.3229 38.5172 20.8277C38.5172 14.5601 35.9975 8.93566 32 5.00007C28.0026 8.93566 25.4827 14.5601 25.4827 20.8277C25.4827 25.3229 26.7841 29.4834 28.9921 32.9312H35.0079Z" fill="white" fill-opacity="0.2"/>
<path d="M35.7242 36.655H28.2759L29.207 32.9309H34.7932L35.7242 36.655Z" stroke="white" stroke-miterlimit="10" stroke-linecap="round" stroke-linejoin="round"/>
<path d="M25.4827 25.4826L21.4749 30.292C21.0566 30.7939 20.8275 31.4267 20.8275 32.08V34.793L27.4593 31.051" stroke="white" stroke-miterlimit="10" stroke-linecap="round" stroke-linejoin="round"/>
<path d="M38.5173 25.4826L42.5251 30.292C42.9434 30.7939 43.1725 31.4267 43.1725 32.08V34.793L36.5407 31.051" stroke="white" stroke-miterlimit="10" stroke-linecap="round" stroke-linejoin="round"/>
<path d="M27.3449 12.4482H36.6552" stroke="white" stroke-miterlimit="10" stroke-linecap="round" stroke-linejoin="round"/>
<path d="M34.793 19.8966C34.793 21.4392 33.5425 22.6897 32 22.6897C30.4573 22.6897 29.2068 21.4392 29.2068 19.8966C29.2068 18.3541 30.4573 17.1036 32 17.1036C33.5425 17.1036 34.793 18.3541 34.793 19.8966Z" stroke="white" stroke-miterlimit="10" stroke-linecap="round" stroke-linejoin="round"/>
</svg>
