<svg width="52" height="52" viewBox="0 0 52 52" fill="none" xmlns="http://www.w3.org/2000/svg">
<path d="M14.9297 36.8735L13.622 37.449L10.0833 33.9102L12.7703 27.8026C12.5651 27.3634 12.3819 26.9142 12.2214 26.4567L5.99219 24.0343V19.03L12.2999 16.5765C12.4524 16.1632 12.6237 15.7571 12.8132 15.3594L10.0825 9.15365L13.6212 5.61502L19.8831 8.36989C20.2542 8.19809 20.6324 8.04209 21.0168 7.9023L23.4971 1.52379H28.5016L30.9825 7.90199C31.3682 8.04215 31.7462 8.19856 32.1161 8.36948L38.3778 5.6142L41.9166 9.15294L39.1864 15.3587C39.3758 15.7564 39.5471 16.1625 39.6997 16.5758L46.0077 19.0288V24.0332L39.7787 26.456C39.6183 26.9135 39.4352 27.3627 39.2298 27.8019L41.9174 33.9094L38.3786 37.4481L37.3893 37.0129" stroke="white" stroke-miterlimit="22.926" stroke-linecap="round" stroke-linejoin="round"/>
<path d="M17.1472 33.5955L16.1015 34.0601L13.2716 31.2035L15.4204 26.2732C15.2563 25.9186 15.1098 25.556 14.9814 25.1867L10 23.2313V19.1916L15.0442 17.2111C15.1662 16.8775 15.3032 16.5497 15.4547 16.2286L13.271 11.2191L16.1009 8.36263L21.1084 10.5865C21.4052 10.4478 21.7077 10.3218 22.015 10.209L23.9985 5.06006H28.0006L29.9845 10.2088C30.293 10.3219 30.5952 10.4482 30.891 10.5861L35.8985 8.36198L38.7284 11.2186L36.5451 16.228C36.6965 16.5491 36.8335 16.8769 36.9555 17.2106L42 19.1907V23.2304L37.0187 25.1862C36.8905 25.5555 36.744 25.9181 36.5798 26.2726L38.729 31.2028L35.8991 34.0593L35.108 33.708" fill="white" fill-opacity="0.1"/>
<path d="M20.1228 39.5242L14.9297 43.8066V36.487C14.9297 34.0361 16.5819 31.9586 18.8294 31.3114" stroke="white" stroke-miterlimit="22.926" stroke-linecap="round" stroke-linejoin="round"/>
<path d="M32.3494 39.9136L37.0703 43.8066V36.487C37.0703 33.9289 35.2707 31.7778 32.8727 31.2349" stroke="white" stroke-miterlimit="22.926" stroke-linecap="round" stroke-linejoin="round"/>
<path d="M25.9848 18.8399C30.0234 21.1986 32.8553 26.6997 32.8553 33.1101C32.8553 36.1656 32.2117 39.0143 31.1007 41.4147C30.7754 42.1176 30.03 42.5547 29.1564 42.5547H22.8132C21.9396 42.5547 21.1941 42.1176 20.8688 41.4147C19.758 39.0143 19.1143 36.1656 19.1143 33.1101C19.1143 26.6997 21.9463 21.1986 25.9848 18.8399Z" fill="#0E3572" stroke="white" stroke-miterlimit="22.926" stroke-linecap="round" stroke-linejoin="round"/>
<path d="M21.0752 25.594H30.6209" stroke="white" stroke-miterlimit="22.926" stroke-linecap="round" stroke-linejoin="round"/>
<path fill-rule="evenodd" clip-rule="evenodd" d="M25.9849 33.8206C26.824 33.8206 27.5083 33.1362 27.5083 32.2971C27.5083 31.458 26.824 30.7737 25.9849 30.7737C25.1458 30.7737 24.4614 31.458 24.4614 32.2971C24.4614 33.1362 25.1458 33.8206 25.9849 33.8206Z" fill="white"/>
<path d="M27.3841 49.3641L29.8109 42.5547H22.1587L24.5855 49.3641C24.8314 50.0541 25.3629 50.4766 25.9848 50.4766C26.6067 50.4766 27.1381 50.0541 27.3841 49.3641Z" stroke="white" stroke-miterlimit="22.926" stroke-linecap="round" stroke-linejoin="round"/>
</svg>
