<svg width="52" height="52" viewBox="0 0 52 52" fill="none" xmlns="http://www.w3.org/2000/svg">
<path d="M46.9217 3.75795H5.07811C2.8345 3.75795 1.01562 5.57682 1.01562 7.82043V44.1797C1.01562 46.4233 2.8345 48.2422 5.07811 48.2422H46.9217C49.1653 48.2422 50.9842 46.4233 50.9842 44.1797V7.82043C50.9842 5.57682 49.1653 3.75795 46.9217 3.75795Z" stroke="white" stroke-miterlimit="10" stroke-linecap="round" stroke-linejoin="round"/>
<path d="M47.1789 6.06006H7.82114C5.71082 6.06006 4 7.77736 4 9.89568V44.2244C4 46.3428 5.71082 48.0601 7.82114 48.0601H47.1789C49.2892 48.0601 51 46.3428 51 44.2244V9.89568C51 7.77736 49.2892 6.06006 47.1789 6.06006Z" fill="white" fill-opacity="0.1"/>
<path d="M37.1719 41.7422C37.1719 42.9762 36.1715 43.9766 34.9375 43.9766C33.7035 43.9766 32.7031 42.9762 32.7031 41.7422C32.7031 40.5082 33.7035 39.5078 34.9375 39.5078C36.1715 39.5078 37.1719 40.5082 37.1719 41.7422Z" stroke="white" stroke-miterlimit="10" stroke-linecap="round" stroke-linejoin="round"/>
<path d="M46.1091 41.7422C46.1091 42.9762 45.1087 43.9766 43.8747 43.9766C42.6408 43.9766 41.6404 42.9762 41.6404 41.7422C41.6404 40.5082 42.6408 39.5078 43.8747 39.5078C45.1087 39.5078 46.1091 40.5082 46.1091 41.7422Z" stroke="white" stroke-miterlimit="10" stroke-linecap="round" stroke-linejoin="round"/>
<path d="M11.6775 41.7422H5.89062" stroke="white" stroke-miterlimit="10" stroke-linecap="round" stroke-linejoin="round"/>
<path d="M24.4087 41.7422H18.6218" stroke="white" stroke-miterlimit="10" stroke-linecap="round" stroke-linejoin="round"/>
<path d="M21.4296 8.63314H5.89062V35.2424H46.1093V8.63314H30.5702" fill="#0E3572"/>
<path d="M21.4296 8.63314H5.89062V35.2424H46.1093V8.63314H30.5702" stroke="white" stroke-miterlimit="10" stroke-linecap="round" stroke-linejoin="round"/>
<path d="M5.9873 24.8167H10.1811L13.1666 18.206L17.1472 30.0057L18.5688 24.7456H22.8338L26.1035 13.4435L30.0131 30.4321L32.5009 24.5323H35.5054L37.8935 20.5733L40.5543 28.7946L42.5329 24.2576H46.0126" stroke="white" stroke-miterlimit="10" stroke-linecap="round" stroke-linejoin="round"/>
</svg>
