<svg width="52" height="52" viewBox="0 0 52 52" fill="none" xmlns="http://www.w3.org/2000/svg">
<g clip-path="url(#clip0_1851_6047)">
<path d="M15.1876 34.0601H8.44898C7.09641 34.0601 6 32.9326 6 31.5417V9.57846C6 8.18755 7.09641 7.06006 8.44898 7.06006H43.551C44.9036 7.06006 46 8.18755 46 9.57846V31.5417C46 32.9326 44.9036 34.0601 43.551 34.0601H36.8124M6 14.4474H46H6Z" fill="white" fill-opacity="0.1"/>
<path d="M25.9999 50.8828C33.6433 50.8828 39.8394 44.6866 39.8394 37.0433C39.8394 29.3999 33.6433 23.2037 25.9999 23.2037C18.3566 23.2037 12.1604 29.3999 12.1604 37.0433C12.1604 44.6866 18.3566 50.8828 25.9999 50.8828Z" fill="#0E3572" stroke="white" stroke-miterlimit="10" stroke-linejoin="round"/>
<path d="M26 42.6865C23.5319 42.6865 21.5312 40.6858 21.5312 38.2177V36.2744C21.5312 35.1526 22.4406 34.2432 23.5625 34.2432H28.4375C29.5594 34.2432 30.4688 35.1526 30.4688 36.2744V38.2177C30.4688 40.6857 28.4681 42.6865 26 42.6865Z" stroke="white" stroke-miterlimit="10" stroke-linejoin="round"/>
<path d="M32.7335 30.276V32.6705L28.9159 34.2431V33.192C28.9159 31.5815 27.6103 30.276 25.9999 30.276C24.3895 30.276 23.084 31.5816 23.084 33.192V34.2431M29.9013 40.3966L32.7335 41.4162V43.8106" stroke="white" stroke-miterlimit="10" stroke-linecap="round" stroke-linejoin="round"/>
<path d="M26 34.2432V42.6865" stroke="white" stroke-miterlimit="10" stroke-linejoin="round"/>
<path d="M30.6649 37.3199H32.7335M19.2664 37.3199H21.335M23.084 34.2431L19.2664 32.6705V30.276M22.0986 40.3966L19.2664 41.4162V43.8106" stroke="white" stroke-miterlimit="10" stroke-linecap="round" stroke-linejoin="round"/>
<path d="M12.5478 33.783H4.16406C2.48127 33.783 1.11719 32.419 1.11719 30.7362V4.16406C1.11719 2.48127 2.48127 1.11719 4.16406 1.11719H47.8359C49.5187 1.11719 50.8828 2.48127 50.8828 4.16406V30.7362C50.8828 32.419 49.5187 33.783 47.8359 33.783H39.4522M1.11719 10.0547H50.8828" stroke="white" stroke-miterlimit="10" stroke-linejoin="round"/>
<path d="M5.58594 15.3531H15.0386M17.8599 20.6515H5.58594" stroke="white" stroke-miterlimit="10" stroke-linecap="round" stroke-linejoin="round"/>
</g>
<defs>
<clipPath id="clip0_1851_6047">
<rect width="52" height="52" fill="white"/>
</clipPath>
</defs>
</svg>
