<svg width="52" height="52" viewBox="0 0 52 52" fill="none" xmlns="http://www.w3.org/2000/svg">
<path d="M27.5 47.0601C11.1564 36.1237 13.0688 20.1501 13.0688 20.1501C24.5865 16.7705 27.5 13.0601 27.5 13.0601C27.5 13.0601 30.4135 16.7705 41.9312 20.1501C41.9312 20.1501 43.8436 36.1237 27.5 47.0601Z" fill="white" fill-opacity="0.1"/>
<path d="M25.9999 49.0034C6.14591 35.1529 8.46905 14.9229 8.46905 14.9229C22.4607 10.6428 25.9999 5.94369 25.9999 5.94369C25.9999 5.94369 29.5391 10.6428 43.5308 14.9229C43.5308 14.9229 45.8539 35.1529 25.9999 49.0034Z" stroke="white" stroke-miterlimit="10" stroke-linecap="round" stroke-linejoin="round"/>
<path d="M31.6063 23.5056H20.3935C19.7013 23.5056 19.1401 24.0667 19.1401 24.7589V33.4834C19.1401 34.1757 19.7013 34.7368 20.3935 34.7368H31.6063C32.2985 34.7368 32.8597 34.1757 32.8597 33.4834V24.7589C32.8597 24.0667 32.2985 23.5056 31.6063 23.5056Z" fill="#0E3572" stroke="white" stroke-miterlimit="10" stroke-linecap="round" stroke-linejoin="round"/>
<path d="M30.9984 23.5056V21.1465C30.9984 18.386 28.7604 16.148 25.9998 16.148C23.2392 16.148 21.0012 18.386 21.0012 21.1465V23.5056" stroke="white" stroke-miterlimit="10" stroke-linecap="round" stroke-linejoin="round"/>
<path d="M26 28.5834V29.6584" stroke="white" stroke-miterlimit="10" stroke-linecap="round" stroke-linejoin="round"/>
<path d="M7.61717 6.04395C7.61717 7.72664 6.25299 9.09082 4.5703 9.09082C2.88762 9.09082 1.52344 7.72664 1.52344 6.04395C1.52344 4.36127 2.88762 2.99709 4.5703 2.99709C6.25299 2.99709 7.61717 4.36127 7.61717 6.04395Z" stroke="white" stroke-miterlimit="10" stroke-linecap="round" stroke-linejoin="round"/>
<path d="M7.61717 42.4492C7.61717 44.1319 6.25299 45.4961 4.5703 45.4961C2.88762 45.4961 1.52344 44.1319 1.52344 42.4492C1.52344 40.7665 2.88762 39.4024 4.5703 39.4024C6.25299 39.4024 7.61717 40.7665 7.61717 42.4492ZM7.61717 42.4492H18.4979" stroke="white" stroke-miterlimit="10" stroke-linecap="round" stroke-linejoin="round"/>
<path d="M44.3827 42.4492C44.3827 44.1319 45.7469 45.4961 47.4296 45.4961C49.1123 45.4961 50.4765 44.1319 50.4765 42.4492C50.4765 40.7665 49.1123 39.4024 47.4296 39.4024C45.7469 39.4024 44.3827 40.7665 44.3827 42.4492ZM44.3827 42.4492H33.502" stroke="white" stroke-miterlimit="10" stroke-linecap="round" stroke-linejoin="round"/>
<path d="M7.61719 6.04387H15.6338V12.3584" stroke="white" stroke-miterlimit="10" stroke-linecap="round" stroke-linejoin="round"/>
<path d="M44.3826 6.04387C44.3826 7.72655 45.7468 9.09074 47.4294 9.09074C49.1121 9.09074 50.4763 7.72655 50.4763 6.04387C50.4763 4.36119 49.1121 2.997 47.4294 2.997C45.7468 2.997 44.3826 4.36119 44.3826 6.04387ZM44.3826 6.04387H36.366V12.3584" stroke="white" stroke-miterlimit="10" stroke-linecap="round" stroke-linejoin="round"/>
<path d="M42.845 24.156H50.4764" stroke="white" stroke-miterlimit="10" stroke-linecap="round" stroke-linejoin="round"/>
<path d="M9.15482 24.156H1.52344" stroke="white" stroke-miterlimit="10" stroke-linecap="round" stroke-linejoin="round"/>
<path d="M11.3972 31.3718H4.98755" stroke="white" stroke-miterlimit="10" stroke-linecap="round" stroke-linejoin="round"/>
<path d="M40.6025 31.3718H47.0122" stroke="white" stroke-miterlimit="10" stroke-linecap="round" stroke-linejoin="round"/>
</svg>
