<svg width="52" height="52" viewBox="0 0 52 52" fill="none" xmlns="http://www.w3.org/2000/svg">
<path d="M27 43H32.5483V40.6947C33.9502 40.3442 35.2945 39.801 36.5415 39.0811L38.1947 40.7041L43.6613 35.3376L42.0199 33.7263C42.7621 32.4998 43.3232 31.176 43.6863 29.7947H46V22.2053H43.6863C43.3231 20.824 42.7621 19.5002 42.0199 18.2737L43.6613 16.6624L38.1947 11.2959L36.5415 12.9189C35.2945 12.199 33.9502 11.6558 32.5483 11.3053V9H27.0021" fill="white" fill-opacity="0.2"/>
<path d="M22.0179 37.3761H26.6909H22.0179ZM22.0179 14.6241H26.6909H22.0179ZM17.7673 26.0001H27.1235H17.7673ZM27.1108 39.8549L27.1235 39.8551C34.7746 39.8551 40.9771 33.6526 40.9771 26.0015C40.9771 18.3504 34.7746 12.1479 27.1235 12.1479L27.1108 12.1482" fill="#0E3572"/>
<path d="M22.0179 37.3761H26.6909M22.0179 14.6241H26.6909M17.7673 26.0001H27.1235M27.1108 39.8549L27.1235 39.8551C34.7746 39.8551 40.9771 33.6526 40.9771 26.0015C40.9771 18.3504 34.7746 12.1479 27.1235 12.1479L27.1108 12.1482" stroke="white" stroke-miterlimit="10" stroke-linejoin="round"/>
<path d="M10.46 34.2324C5.91422 34.2324 2.22913 30.5473 2.22913 26.0015C2.22913 21.4557 5.91422 17.7707 10.46 17.7707M19.1743 34.5325C20.7448 34.5325 22.0179 35.8056 22.0179 37.3761C22.0179 38.9466 20.7448 40.2197 19.1743 40.2197C17.6038 40.2197 16.3307 38.9466 16.3307 37.3761C16.3307 35.8056 17.6038 34.5325 19.1743 34.5325ZM19.1743 17.4677C20.7448 17.4677 22.0179 16.1946 22.0179 14.6241C22.0179 13.0536 20.7448 11.7805 19.1743 11.7805C17.6038 11.7805 16.3307 13.0536 16.3307 14.6241C16.3307 16.1946 17.6038 17.4677 19.1743 17.4677ZM14.9237 28.8437C16.4942 28.8437 17.7673 27.5706 17.7673 26.0001C17.7673 24.4296 16.4942 23.1565 14.9237 23.1565C13.3533 23.1565 12.0802 24.4296 12.0802 26.0001C12.0802 27.5706 13.3533 28.8437 14.9237 28.8437Z" stroke="white" stroke-miterlimit="10" stroke-linecap="round" stroke-linejoin="round"/>
<path d="M5.7711 32.7671C4.82134 34.6228 4.42526 36.9497 5.02729 39.1166C6.30051 43.6986 11.047 46.3808 15.6289 45.1077M5.7711 19.2359C4.82134 17.3802 4.42526 15.0533 5.02729 12.8864C6.30051 8.30445 11.047 5.62223 15.6289 6.89535" stroke="white" stroke-miterlimit="10" stroke-linecap="round" stroke-linejoin="round"/>
<path d="M12.2909 6.63813C13.1764 3.45391 16.0969 1.11719 19.5633 1.11719C23.7317 1.11719 27.1108 4.49639 27.1108 8.6647V43.3353C27.1108 47.5037 23.7316 50.8828 19.5633 50.8828C16.0969 50.8828 13.1764 48.5461 12.2909 45.3619" stroke="white" stroke-miterlimit="10" stroke-linejoin="round"/>
<path d="M24.9227 48.6487H32.1788V45.5776C34.0121 45.1107 35.7703 44.3871 37.401 43.4281L39.5631 45.5901L46.7122 38.441L44.5656 36.2944C45.5363 34.6605 46.27 32.897 46.7449 31.0568H49.7708V20.9464H46.7449C46.27 19.1062 45.5362 17.3427 44.5656 15.7088L46.7122 13.5622L39.5631 6.41308L37.401 8.57513C35.7703 7.61612 34.0121 6.89245 32.1788 6.42557V3.35449H24.9255" stroke="white" stroke-miterlimit="10" stroke-linejoin="round"/>
</svg>
