<svg width="48" height="48" viewBox="0 0 48 48" fill="none" xmlns="http://www.w3.org/2000/svg">
<g clip-path="url(#clip0_1534_285)">
<path d="M22.7589 29.5537H15.7539L13.1068 32.1196C12.8311 32.3868 12.4622 32.5363 12.0783 32.5363C11.2622 32.5363 10.6006 31.8747 10.6006 31.0586V29.5537H7.4529C6.31561 29.5537 5.39368 28.6318 5.39368 27.4945V15.6415C5.39368 14.5042 6.31561 13.5823 7.4529 13.5823H23.0156C24.1529 13.5823 25.0748 14.5042 25.0748 15.6415V23.6964" stroke="white" stroke-miterlimit="10" stroke-linecap="round" stroke-linejoin="round"/>
<path d="M22.1173 29.4823H16.4225L14.2704 31.6483C14.0463 31.8739 13.7465 32 13.4344 32C12.7709 32 12.2331 31.4415 12.2331 30.7526V29.4823H9.67407C8.7495 29.4823 8 28.704 8 27.744V17.7383C8 16.7783 8.7495 16 9.67407 16H22.3259C23.2505 16 24 16.7783 24 17.7383V24.5378" fill="white" fill-opacity="0.2"/>
<path d="M40.5472 23.8474H24.9845C23.8472 23.8474 22.9253 24.7694 22.9253 25.9066V37.7596C22.9253 38.8969 23.8472 39.8189 24.9845 39.8189H32.2462L34.8933 42.3848C35.169 42.652 35.5378 42.8014 35.9218 42.8014C36.7379 42.8014 37.3995 42.1398 37.3995 41.3237V39.8188H40.5472C41.6845 39.8188 42.6064 38.8968 42.6064 37.7595V25.9066C42.6064 24.7694 41.6845 23.8474 40.5472 23.8474Z" stroke="white" stroke-miterlimit="10" stroke-linecap="round" stroke-linejoin="round"/>
<path d="M38.2213 24H24.7787C23.7963 24 23 24.7783 23 25.7383V35.744C23 36.704 23.7963 37.4823 24.7787 37.4823H31.0511L33.3376 39.6483C33.5758 39.8738 33.8944 40 34.226 40C34.9309 40 35.5024 39.4415 35.5024 38.7526V37.4822H38.2213C39.2037 37.4822 40 36.7039 40 35.7439V25.7383C40 24.7783 39.2037 24 38.2213 24Z" fill="white" fill-opacity="0.2"/>
<path d="M1.43372 9.41504H46.663" stroke="white" stroke-miterlimit="10" stroke-linecap="round" stroke-linejoin="round"/>
<path d="M45.1984 46.9688H2.80163C1.82391 46.9688 1.03125 46.1761 1.03125 45.1984V2.80163C1.03125 1.82391 1.82391 1.03125 2.80163 1.03125H45.1984C46.1761 1.03125 46.9688 1.82391 46.9688 2.80163V45.1984C46.9688 46.1761 46.1761 46.9688 45.1984 46.9688Z" stroke="white" stroke-miterlimit="10" stroke-linecap="round" stroke-linejoin="round"/>
<path d="M30.6429 36.0952V29.7021C30.6429 28.5252 31.5933 27.5711 32.7658 27.5711C33.9382 27.5711 34.8886 28.5252 34.8886 29.7021V36.0952M30.9336 32.8257H34.5978M16.0545 23.4125L18.7155 25.8301M14.8341 25.8301C13.1325 25.8301 11.7529 24.4507 11.7529 22.7489V20.3871C11.7529 18.6854 13.1324 17.3059 14.8341 17.3059C16.5358 17.3059 17.9153 18.6853 17.9153 20.3871V22.7489C17.9152 24.4506 16.5358 25.8301 14.8341 25.8301Z" stroke="white" stroke-miterlimit="10" stroke-linecap="round" stroke-linejoin="round"/>
</g>
<defs>
<clipPath id="clip0_1534_285">
<rect width="48" height="48" fill="white"/>
</clipPath>
</defs>
</svg>
